<?xml version="1.0" encoding="utf-8" standalone="no"?>
<!DOCTYPE svg PUBLIC "-//W3C//DTD SVG 1.1//EN"
  "http://www.w3.org/Graphics/SVG/1.1/DTD/svg11.dtd">
<svg xmlns:xlink="http://www.w3.org/1999/xlink" width="460.8pt" height="345.6pt" viewBox="0 0 460.8 345.6" xmlns="http://www.w3.org/2000/svg" version="1.1">
 <metadata>
  <rdf:RDF xmlns:dc="http://purl.org/dc/elements/1.1/" xmlns:cc="http://creativecommons.org/ns#" xmlns:rdf="http://www.w3.org/1999/02/22-rdf-syntax-ns#">
   <cc:Work>
    <dc:type rdf:resource="http://purl.org/dc/dcmitype/StillImage"/>
    <dc:date>2024-01-16T22:30:37.702461</dc:date>
    <dc:format>image/svg+xml</dc:format>
    <dc:creator>
     <cc:Agent>
      <dc:title>Matplotlib v3.5.0, https://matplotlib.org/</dc:title>
     </cc:Agent>
    </dc:creator>
   </cc:Work>
  </rdf:RDF>
 </metadata>
 <defs>
  <style type="text/css">*{stroke-linejoin: round; stroke-linecap: butt}</style>
 </defs>
 <g id="figure_1">
  <g id="patch_1">
   <path d="M 0 345.6 
L 460.8 345.6 
L 460.8 0 
L 0 0 
z
" style="fill: #ffffff"/>
  </g>
  <g id="axes_1">
   <g id="patch_2">
    <path d="M 57.6 307.584 
L 414.72 307.584 
L 414.72 41.472 
L 57.6 41.472 
z
" style="fill: #ffffff"/>
   </g>
   <g id="matplotlib.axis_1">
    <g id="xtick_1">
     <g id="line2d_1">
      <defs>
       <path id="m67d3fb3ca4" d="M 0 0 
L 0 3.5 
" style="stroke: #000000; stroke-width: 0.8"/>
      </defs>
      <g>
       <use xlink:href="#m67d3fb3ca4" x="57.6" y="307.584" style="stroke: #000000; stroke-width: 0.8"/>
      </g>
     </g>
     <g id="text_1">
      <!-- 0 -->
      <g transform="translate(51.2375 329.780875)scale(0.2 -0.2)">
       <defs>
        <path id="DejaVuSans-30" d="M 2034 4250 
Q 1547 4250 1301 3770 
Q 1056 3291 1056 2328 
Q 1056 1369 1301 889 
Q 1547 409 2034 409 
Q 2525 409 2770 889 
Q 3016 1369 3016 2328 
Q 3016 3291 2770 3770 
Q 2525 4250 2034 4250 
z
M 2034 4750 
Q 2819 4750 3233 4129 
Q 3647 3509 3647 2328 
Q 3647 1150 3233 529 
Q 2819 -91 2034 -91 
Q 1250 -91 836 529 
Q 422 1150 422 2328 
Q 422 3509 836 4129 
Q 1250 4750 2034 4750 
z
" transform="scale(0.015625)"/>
       </defs>
       <use xlink:href="#DejaVuSans-30"/>
      </g>
     </g>
    </g>
    <g id="xtick_2">
     <g id="line2d_2">
      <g>
       <use xlink:href="#m67d3fb3ca4" x="414.72" y="307.584" style="stroke: #000000; stroke-width: 0.8"/>
      </g>
     </g>
     <g id="text_2">
      <!-- 1 -->
      <g transform="translate(408.3575 329.780875)scale(0.2 -0.2)">
       <defs>
        <path id="DejaVuSans-31" d="M 794 531 
L 1825 531 
L 1825 4091 
L 703 3866 
L 703 4441 
L 1819 4666 
L 2450 4666 
L 2450 531 
L 3481 531 
L 3481 0 
L 794 0 
L 794 531 
z
" transform="scale(0.015625)"/>
       </defs>
       <use xlink:href="#DejaVuSans-31"/>
      </g>
     </g>
    </g>
    <g id="text_3">
     <!-- Normalised X position -->
     <g transform="translate(111.795937 353.137125)scale(0.2 -0.2)">
      <defs>
       <path id="DejaVuSans-Bold-4e" d="M 588 4666 
L 1931 4666 
L 3628 1466 
L 3628 4666 
L 4769 4666 
L 4769 0 
L 3425 0 
L 1728 3200 
L 1728 0 
L 588 0 
L 588 4666 
z
" transform="scale(0.015625)"/>
       <path id="DejaVuSans-Bold-6f" d="M 2203 2784 
Q 1831 2784 1636 2517 
Q 1441 2250 1441 1747 
Q 1441 1244 1636 976 
Q 1831 709 2203 709 
Q 2569 709 2762 976 
Q 2956 1244 2956 1747 
Q 2956 2250 2762 2517 
Q 2569 2784 2203 2784 
z
M 2203 3584 
Q 3106 3584 3614 3096 
Q 4122 2609 4122 1747 
Q 4122 884 3614 396 
Q 3106 -91 2203 -91 
Q 1297 -91 786 396 
Q 275 884 275 1747 
Q 275 2609 786 3096 
Q 1297 3584 2203 3584 
z
" transform="scale(0.015625)"/>
       <path id="DejaVuSans-Bold-72" d="M 3138 2547 
Q 2991 2616 2845 2648 
Q 2700 2681 2553 2681 
Q 2122 2681 1889 2404 
Q 1656 2128 1656 1613 
L 1656 0 
L 538 0 
L 538 3500 
L 1656 3500 
L 1656 2925 
Q 1872 3269 2151 3426 
Q 2431 3584 2822 3584 
Q 2878 3584 2943 3579 
Q 3009 3575 3134 3559 
L 3138 2547 
z
" transform="scale(0.015625)"/>
       <path id="DejaVuSans-Bold-6d" d="M 3781 2919 
Q 3994 3244 4286 3414 
Q 4578 3584 4928 3584 
Q 5531 3584 5847 3212 
Q 6163 2841 6163 2131 
L 6163 0 
L 5038 0 
L 5038 1825 
Q 5041 1866 5042 1909 
Q 5044 1953 5044 2034 
Q 5044 2406 4934 2573 
Q 4825 2741 4581 2741 
Q 4263 2741 4089 2478 
Q 3916 2216 3909 1719 
L 3909 0 
L 2784 0 
L 2784 1825 
Q 2784 2406 2684 2573 
Q 2584 2741 2328 2741 
Q 2006 2741 1831 2477 
Q 1656 2213 1656 1722 
L 1656 0 
L 531 0 
L 531 3500 
L 1656 3500 
L 1656 2988 
Q 1863 3284 2130 3434 
Q 2397 3584 2719 3584 
Q 3081 3584 3359 3409 
Q 3638 3234 3781 2919 
z
" transform="scale(0.015625)"/>
       <path id="DejaVuSans-Bold-61" d="M 2106 1575 
Q 1756 1575 1579 1456 
Q 1403 1338 1403 1106 
Q 1403 894 1545 773 
Q 1688 653 1941 653 
Q 2256 653 2472 879 
Q 2688 1106 2688 1447 
L 2688 1575 
L 2106 1575 
z
M 3816 1997 
L 3816 0 
L 2688 0 
L 2688 519 
Q 2463 200 2181 54 
Q 1900 -91 1497 -91 
Q 953 -91 614 226 
Q 275 544 275 1050 
Q 275 1666 698 1953 
Q 1122 2241 2028 2241 
L 2688 2241 
L 2688 2328 
Q 2688 2594 2478 2717 
Q 2269 2841 1825 2841 
Q 1466 2841 1156 2769 
Q 847 2697 581 2553 
L 581 3406 
Q 941 3494 1303 3539 
Q 1666 3584 2028 3584 
Q 2975 3584 3395 3211 
Q 3816 2838 3816 1997 
z
" transform="scale(0.015625)"/>
       <path id="DejaVuSans-Bold-6c" d="M 538 4863 
L 1656 4863 
L 1656 0 
L 538 0 
L 538 4863 
z
" transform="scale(0.015625)"/>
       <path id="DejaVuSans-Bold-69" d="M 538 3500 
L 1656 3500 
L 1656 0 
L 538 0 
L 538 3500 
z
M 538 4863 
L 1656 4863 
L 1656 3950 
L 538 3950 
L 538 4863 
z
" transform="scale(0.015625)"/>
       <path id="DejaVuSans-Bold-73" d="M 3272 3391 
L 3272 2541 
Q 2913 2691 2578 2766 
Q 2244 2841 1947 2841 
Q 1628 2841 1473 2761 
Q 1319 2681 1319 2516 
Q 1319 2381 1436 2309 
Q 1553 2238 1856 2203 
L 2053 2175 
Q 2913 2066 3209 1816 
Q 3506 1566 3506 1031 
Q 3506 472 3093 190 
Q 2681 -91 1863 -91 
Q 1516 -91 1145 -36 
Q 775 19 384 128 
L 384 978 
Q 719 816 1070 734 
Q 1422 653 1784 653 
Q 2113 653 2278 743 
Q 2444 834 2444 1013 
Q 2444 1163 2330 1236 
Q 2216 1309 1875 1350 
L 1678 1375 
Q 931 1469 631 1722 
Q 331 1975 331 2491 
Q 331 3047 712 3315 
Q 1094 3584 1881 3584 
Q 2191 3584 2531 3537 
Q 2872 3491 3272 3391 
z
" transform="scale(0.015625)"/>
       <path id="DejaVuSans-Bold-65" d="M 4031 1759 
L 4031 1441 
L 1416 1441 
Q 1456 1047 1700 850 
Q 1944 653 2381 653 
Q 2734 653 3104 758 
Q 3475 863 3866 1075 
L 3866 213 
Q 3469 63 3072 -14 
Q 2675 -91 2278 -91 
Q 1328 -91 801 392 
Q 275 875 275 1747 
Q 275 2603 792 3093 
Q 1309 3584 2216 3584 
Q 3041 3584 3536 3087 
Q 4031 2591 4031 1759 
z
M 2881 2131 
Q 2881 2450 2695 2645 
Q 2509 2841 2209 2841 
Q 1884 2841 1681 2658 
Q 1478 2475 1428 2131 
L 2881 2131 
z
" transform="scale(0.015625)"/>
       <path id="DejaVuSans-Bold-64" d="M 2919 2988 
L 2919 4863 
L 4044 4863 
L 4044 0 
L 2919 0 
L 2919 506 
Q 2688 197 2409 53 
Q 2131 -91 1766 -91 
Q 1119 -91 703 423 
Q 288 938 288 1747 
Q 288 2556 703 3070 
Q 1119 3584 1766 3584 
Q 2128 3584 2408 3439 
Q 2688 3294 2919 2988 
z
M 2181 722 
Q 2541 722 2730 984 
Q 2919 1247 2919 1747 
Q 2919 2247 2730 2509 
Q 2541 2772 2181 2772 
Q 1825 2772 1636 2509 
Q 1447 2247 1447 1747 
Q 1447 1247 1636 984 
Q 1825 722 2181 722 
z
" transform="scale(0.015625)"/>
       <path id="DejaVuSans-Bold-20" transform="scale(0.015625)"/>
       <path id="DejaVuSans-Bold-58" d="M 3188 2381 
L 4806 0 
L 3553 0 
L 2463 1594 
L 1381 0 
L 122 0 
L 1741 2381 
L 184 4666 
L 1441 4666 
L 2463 3163 
L 3481 4666 
L 4744 4666 
L 3188 2381 
z
" transform="scale(0.015625)"/>
       <path id="DejaVuSans-Bold-70" d="M 1656 506 
L 1656 -1331 
L 538 -1331 
L 538 3500 
L 1656 3500 
L 1656 2988 
Q 1888 3294 2169 3439 
Q 2450 3584 2816 3584 
Q 3463 3584 3878 3070 
Q 4294 2556 4294 1747 
Q 4294 938 3878 423 
Q 3463 -91 2816 -91 
Q 2450 -91 2169 54 
Q 1888 200 1656 506 
z
M 2400 2772 
Q 2041 2772 1848 2508 
Q 1656 2244 1656 1747 
Q 1656 1250 1848 986 
Q 2041 722 2400 722 
Q 2759 722 2948 984 
Q 3138 1247 3138 1747 
Q 3138 2247 2948 2509 
Q 2759 2772 2400 2772 
z
" transform="scale(0.015625)"/>
       <path id="DejaVuSans-Bold-74" d="M 1759 4494 
L 1759 3500 
L 2913 3500 
L 2913 2700 
L 1759 2700 
L 1759 1216 
Q 1759 972 1856 886 
Q 1953 800 2241 800 
L 2816 800 
L 2816 0 
L 1856 0 
Q 1194 0 917 276 
Q 641 553 641 1216 
L 641 2700 
L 84 2700 
L 84 3500 
L 641 3500 
L 641 4494 
L 1759 4494 
z
" transform="scale(0.015625)"/>
       <path id="DejaVuSans-Bold-6e" d="M 4056 2131 
L 4056 0 
L 2931 0 
L 2931 347 
L 2931 1631 
Q 2931 2084 2911 2256 
Q 2891 2428 2841 2509 
Q 2775 2619 2662 2680 
Q 2550 2741 2406 2741 
Q 2056 2741 1856 2470 
Q 1656 2200 1656 1722 
L 1656 0 
L 538 0 
L 538 3500 
L 1656 3500 
L 1656 2988 
Q 1909 3294 2193 3439 
Q 2478 3584 2822 3584 
Q 3428 3584 3742 3212 
Q 4056 2841 4056 2131 
z
" transform="scale(0.015625)"/>
      </defs>
      <use xlink:href="#DejaVuSans-Bold-4e"/>
      <use xlink:href="#DejaVuSans-Bold-6f" x="83.691406"/>
      <use xlink:href="#DejaVuSans-Bold-72" x="152.392578"/>
      <use xlink:href="#DejaVuSans-Bold-6d" x="201.708984"/>
      <use xlink:href="#DejaVuSans-Bold-61" x="305.908203"/>
      <use xlink:href="#DejaVuSans-Bold-6c" x="373.388672"/>
      <use xlink:href="#DejaVuSans-Bold-69" x="407.666016"/>
      <use xlink:href="#DejaVuSans-Bold-73" x="441.943359"/>
      <use xlink:href="#DejaVuSans-Bold-65" x="501.464844"/>
      <use xlink:href="#DejaVuSans-Bold-64" x="569.287109"/>
      <use xlink:href="#DejaVuSans-Bold-20" x="640.869141"/>
      <use xlink:href="#DejaVuSans-Bold-58" x="675.683594"/>
      <use xlink:href="#DejaVuSans-Bold-20" x="752.783203"/>
      <use xlink:href="#DejaVuSans-Bold-70" x="787.597656"/>
      <use xlink:href="#DejaVuSans-Bold-6f" x="859.179688"/>
      <use xlink:href="#DejaVuSans-Bold-73" x="927.880859"/>
      <use xlink:href="#DejaVuSans-Bold-69" x="987.402344"/>
      <use xlink:href="#DejaVuSans-Bold-74" x="1021.679688"/>
      <use xlink:href="#DejaVuSans-Bold-69" x="1069.482422"/>
      <use xlink:href="#DejaVuSans-Bold-6f" x="1103.759766"/>
      <use xlink:href="#DejaVuSans-Bold-6e" x="1172.460938"/>
     </g>
    </g>
   </g>
   <g id="matplotlib.axis_2">
    <g id="ytick_1">
     <g id="line2d_3">
      <defs>
       <path id="mbcfe4a72f1" d="M 0 0 
L -3.5 0 
" style="stroke: #000000; stroke-width: 0.8"/>
      </defs>
      <g>
       <use xlink:href="#mbcfe4a72f1" x="57.6" y="307.584" style="stroke: #000000; stroke-width: 0.8"/>
      </g>
     </g>
     <g id="text_4">
      <!-- 0 -->
      <g transform="translate(37.875 315.182437)scale(0.2 -0.2)">
       <use xlink:href="#DejaVuSans-30"/>
      </g>
     </g>
    </g>
    <g id="ytick_2">
     <g id="line2d_4">
      <g>
       <use xlink:href="#mbcfe4a72f1" x="57.6" y="52.177111" style="stroke: #000000; stroke-width: 0.8"/>
      </g>
     </g>
     <g id="text_5">
      <!-- 1 -->
      <g transform="translate(37.875 59.775548)scale(0.2 -0.2)">
       <use xlink:href="#DejaVuSans-31"/>
      </g>
     </g>
    </g>
    <g id="text_6">
     <!-- Normalised Y position -->
     <g transform="translate(29.715625 298.423313)rotate(-90)scale(0.2 -0.2)">
      <defs>
       <path id="DejaVuSans-Bold-59" d="M -63 4666 
L 1253 4666 
L 2316 3003 
L 3378 4666 
L 4697 4666 
L 2919 1966 
L 2919 0 
L 1716 0 
L 1716 1966 
L -63 4666 
z
" transform="scale(0.015625)"/>
      </defs>
      <use xlink:href="#DejaVuSans-Bold-4e"/>
      <use xlink:href="#DejaVuSans-Bold-6f" x="83.691406"/>
      <use xlink:href="#DejaVuSans-Bold-72" x="152.392578"/>
      <use xlink:href="#DejaVuSans-Bold-6d" x="201.708984"/>
      <use xlink:href="#DejaVuSans-Bold-61" x="305.908203"/>
      <use xlink:href="#DejaVuSans-Bold-6c" x="373.388672"/>
      <use xlink:href="#DejaVuSans-Bold-69" x="407.666016"/>
      <use xlink:href="#DejaVuSans-Bold-73" x="441.943359"/>
      <use xlink:href="#DejaVuSans-Bold-65" x="501.464844"/>
      <use xlink:href="#DejaVuSans-Bold-64" x="569.287109"/>
      <use xlink:href="#DejaVuSans-Bold-20" x="640.869141"/>
      <use xlink:href="#DejaVuSans-Bold-59" x="675.683594"/>
      <use xlink:href="#DejaVuSans-Bold-20" x="748.095703"/>
      <use xlink:href="#DejaVuSans-Bold-70" x="782.910156"/>
      <use xlink:href="#DejaVuSans-Bold-6f" x="854.492188"/>
      <use xlink:href="#DejaVuSans-Bold-73" x="923.193359"/>
      <use xlink:href="#DejaVuSans-Bold-69" x="982.714844"/>
      <use xlink:href="#DejaVuSans-Bold-74" x="1016.992188"/>
      <use xlink:href="#DejaVuSans-Bold-69" x="1064.794922"/>
      <use xlink:href="#DejaVuSans-Bold-6f" x="1099.072266"/>
      <use xlink:href="#DejaVuSans-Bold-6e" x="1167.773438"/>
     </g>
    </g>
   </g>
   <g id="line2d_5">
    <path d="M 206.556279 252.258472 
L 211.110698 252.258472 
L 215.665116 252.258472 
L 220.487442 252.637414 
L 225.04186 252.637414 
L 229.328372 253.016356 
L 234.418605 253.395298 
L 239.24093 253.77424 
L 244.063256 254.153182 
L 247.546047 254.532124 
L 252.368372 254.911066 
L 256.922791 255.290008 
L 261.477209 255.66895 
L 266.567442 256.047892 
L 271.12186 256.426834 
L 275.944186 256.805776 
L 280.498605 256.805776 
L 284.249302 257.184718 
L 288.267907 257.184718 
L 292.018605 257.184718 
L 295.233488 257.184718 
L 297.376744 256.805776 
L 300.323721 256.805776 
L 303.538605 256.426834 
L 305.949767 256.426834 
L 308.093023 256.426834 
L 309.968372 256.047892 
L 311.575814 256.047892 
L 312.379535 256.047892 
L 313.986977 256.047892 
L 315.058605 256.047892 
L 316.130233 256.047892 
L 316.933953 256.047892 
L 317.469767 256.047892 
L 318.005581 256.047892 
L 318.273488 255.66895 
L 318.809302 256.047892 
L 319.077209 256.047892 
L 319.077209 256.047892 
L 318.809302 256.047892 
L 318.541395 256.047892 
L 318.273488 255.66895 
L 318.273488 255.290008 
L 318.273488 254.532124 
L 318.541395 253.395298 
L 318.541395 252.637414 
L 318.809302 251.121646 
L 319.077209 249.605878 
L 319.345116 247.711168 
L 319.613023 245.816459 
L 320.684651 243.921749 
L 321.488372 240.890213 
L 322.024186 238.237619 
L 322.292093 235.585025 
L 322.56 232.553489 
" clip-path="url(#p1f704ebe0b)" style="fill: none; stroke: #000000; stroke-width: 1.5; stroke-linecap: square"/>
   </g>
   <g id="line2d_6">
    <path d="M 206.556279 252.258472 
" clip-path="url(#p1f704ebe0b)" style="fill: none; stroke: #000000; stroke-width: 1.5; stroke-linecap: square"/>
    <defs>
     <path id="m47602462e9" d="M 0 5 
C 1.326016 5 2.597899 4.473168 3.535534 3.535534 
C 4.473168 2.597899 5 1.326016 5 0 
C 5 -1.326016 4.473168 -2.597899 3.535534 -3.535534 
C 2.597899 -4.473168 1.326016 -5 0 -5 
C -1.326016 -5 -2.597899 -4.473168 -3.535534 -3.535534 
C -4.473168 -2.597899 -5 -1.326016 -5 0 
C -5 1.326016 -4.473168 2.597899 -3.535534 3.535534 
C -2.597899 4.473168 -1.326016 5 0 5 
z
" style="stroke: #000000"/>
    </defs>
    <g clip-path="url(#p1f704ebe0b)">
     <use xlink:href="#m47602462e9" x="206.556279" y="252.258472" style="stroke: #000000"/>
    </g>
   </g>
   <g id="line2d_7">
    <path d="M 322.56 232.553489 
" clip-path="url(#p1f704ebe0b)" style="fill: none; stroke: #000000; stroke-width: 1.5; stroke-linecap: square"/>
    <defs>
     <path id="m5b5129d8dd" d="M -5 5 
L 5 5 
L 5 -5 
L -5 -5 
z
" style="stroke: #000000; stroke-linejoin: miter"/>
    </defs>
    <g clip-path="url(#p1f704ebe0b)">
     <use xlink:href="#m5b5129d8dd" x="322.56" y="232.553489" style="stroke: #000000; stroke-linejoin: miter"/>
    </g>
   </g>
   <g id="line2d_8">
    <path d="M 258.530233 218.532637 
L 258.262326 218.911578 
L 257.726512 219.29052 
L 257.190698 219.669462 
L 256.922791 219.669462 
L 257.726512 220.048404 
L 257.458605 220.427346 
L 257.726512 220.806288 
L 257.994419 221.18523 
L 258.530233 221.564172 
L 259.066047 221.943114 
L 259.869767 222.322056 
L 260.405581 222.700998 
L 260.941395 223.07994 
L 261.745116 223.458882 
L 262.28093 223.837824 
L 263.084651 224.216766 
L 263.620465 224.595708 
L 264.424186 224.97465 
L 265.227907 225.353592 
L 265.763721 225.732534 
L 266.835349 226.111476 
L 268.174884 226.490418 
L 269.246512 226.86936 
L 270.31814 227.248302 
L 271.12186 227.627244 
L 272.461395 228.006186 
L 273.533023 228.385128 
L 274.872558 228.76407 
L 275.944186 229.143012 
L 277.283721 229.143012 
L 278.355349 229.521954 
L 279.426977 229.900896 
L 280.498605 229.900896 
L 281.570233 229.900896 
L 282.64186 229.900896 
L 283.713488 229.900896 
L 284.785116 229.521954 
L 285.856744 229.143012 
L 286.928372 228.76407 
L 288 228.006186 
L 289.071628 226.86936 
L 289.875349 225.732534 
L 290.67907 224.595708 
L 291.482791 222.700998 
L 292.018605 221.18523 
L 292.554419 219.29052 
L 293.090233 217.395811 
L 293.626047 215.122159 
L 293.893953 213.227449 
L 294.16186 210.953797 
L 294.429767 208.680145 
L 294.429767 206.406493 
L 294.965581 204.890726 
L 294.16186 201.85919 
L 293.893953 199.585538 
L 293.626047 197.311886 
L 293.35814 196.17506 
L 292.822326 193.143524 
L 292.286512 191.248815 
L 291.750698 189.354105 
L 291.482791 188.217279 
L 290.411163 185.943627 
L 289.607442 184.427859 
L 288.803721 182.912091 
L 288 181.775265 
L 286.392558 180.259497 
L 285.053023 179.122671 
L 283.713488 178.364787 
L 282.373953 177.227962 
L 280.766512 176.470078 
" clip-path="url(#p1f704ebe0b)" style="fill: none; stroke: #00fa9a; stroke-width: 1.5; stroke-linecap: square"/>
   </g>
   <g id="line2d_9">
    <path d="M 258.530233 218.532637 
" clip-path="url(#p1f704ebe0b)" style="fill: none; stroke: #00fa9a; stroke-width: 1.5; stroke-linecap: square"/>
    <defs>
     <path id="m5cc7a30df9" d="M 0 5 
C 1.326016 5 2.597899 4.473168 3.535534 3.535534 
C 4.473168 2.597899 5 1.326016 5 0 
C 5 -1.326016 4.473168 -2.597899 3.535534 -3.535534 
C 2.597899 -4.473168 1.326016 -5 0 -5 
C -1.326016 -5 -2.597899 -4.473168 -3.535534 -3.535534 
C -4.473168 -2.597899 -5 -1.326016 -5 0 
C -5 1.326016 -4.473168 2.597899 -3.535534 3.535534 
C -2.597899 4.473168 -1.326016 5 0 5 
z
" style="stroke: #00fa9a"/>
    </defs>
    <g clip-path="url(#p1f704ebe0b)">
     <use xlink:href="#m5cc7a30df9" x="258.530233" y="218.532637" style="fill: #00fa9a; stroke: #00fa9a"/>
    </g>
   </g>
   <g id="line2d_10">
    <path d="M 280.766512 176.470078 
" clip-path="url(#p1f704ebe0b)" style="fill: none; stroke: #00fa9a; stroke-width: 1.5; stroke-linecap: square"/>
    <defs>
     <path id="m7210465d3c" d="M -5 5 
L 5 5 
L 5 -5 
L -5 -5 
z
" style="stroke: #00fa9a; stroke-linejoin: miter"/>
    </defs>
    <g clip-path="url(#p1f704ebe0b)">
     <use xlink:href="#m7210465d3c" x="280.766512" y="176.470078" style="fill: #00fa9a; stroke: #00fa9a; stroke-linejoin: miter"/>
    </g>
   </g>
   <g id="line2d_11">
    <path d="M 268.174884 140.849532 
L 265.763721 141.986358 
L 264.692093 142.3653 
L 263.620465 143.123184 
L 262.013023 143.502126 
L 261.209302 143.881068 
L 257.994419 144.638952 
L 256.386977 145.775778 
L 254.779535 146.15472 
L 247.27814 148.807314 
L 245.134884 148.807314 
L 240.580465 150.323082 
L 233.882791 152.596733 
L 226.649302 154.870385 
L 221.826977 156.007211 
L 219.951628 156.765095 
L 219.147907 156.765095 
L 217.540465 157.522979 
L 217.540465 157.522979 
L 217.004651 157.901921 
L 215.397209 158.280863 
L 214.861395 158.659805 
L 213.52186 159.038747 
L 212.71814 159.417689 
L 211.914419 159.417689 
L 211.914419 159.417689 
L 211.110698 159.796631 
L 211.110698 159.796631 
L 210.574884 159.796631 
L 209.503256 160.175573 
L 209.503256 160.175573 
L 208.967442 160.554515 
L 208.967442 160.554515 
L 207.895814 160.554515 
L 207.895814 160.554515 
L 207.092093 160.933457 
L 206.556279 161.312399 
L 206.556279 161.312399 
L 205.752558 160.933457 
L 205.484651 161.312399 
L 205.484651 161.312399 
L 204.68093 161.691341 
L 204.68093 161.691341 
L 203.877209 161.691341 
L 203.877209 161.691341 
L 203.073488 162.070283 
L 202.269767 162.070283 
L 202.269767 162.070283 
L 201.466047 162.449225 
L 200.930233 162.449225 
L 200.930233 162.449225 
L 200.126512 162.828167 
L 198.51907 163.207109 
L 198.51907 163.207109 
L 197.715349 163.207109 
L 197.983256 163.586051 
L 197.983256 163.586051 
L 196.643721 163.586051 
L 196.643721 163.586051 
L 195.036279 163.964993 
L 195.036279 163.964993 
L 194.500465 163.964993 
L 194.500465 163.964993 
L 193.696744 164.343934 
L 193.16093 164.343934 
L 193.16093 164.343934 
L 192.357209 164.722876 
L 192.357209 164.722876 
L 190.213953 164.722876 
L 188.606512 165.101818 
L 182.176744 165.101818 
L 180.837209 164.722876 
L 180.301395 164.722876 
L 179.497674 164.343934 
L 175.746977 163.207109 
L 175.211163 162.828167 
L 173.603721 162.449225 
L 172.264186 161.691341 
L 171.192558 160.933457 
L 170.12093 160.554515 
L 169.585116 160.175573 
L 166.906047 158.659805 
L 166.370233 157.901921 
L 163.155349 156.386153 
L 156.993488 151.080965 
L 156.457674 150.323082 
L 154.582326 148.807314 
L 152.974884 147.291546 
L 149.492093 144.26001 
L 147.616744 142.3653 
L 145.205581 140.091648 
L 141.186977 135.165403 
L 139.311628 133.649635 
L 136.096744 129.481273 
L 133.417674 126.828679 
L 131.810233 124.933969 
L 131.006512 124.176085 
L 125.916279 117.734072 
L 124.844651 115.839362 
L 123.505116 114.323594 
L 120.55814 109.397349 
L 120.022326 107.881581 
L 119.218605 106.365813 
L 118.414884 103.713219 
L 117.343256 99.165915 
L 117.343256 97.650147 
L 117.611163 96.134379 
L 117.611163 94.618612 
L 119.754419 92.34496 
L 120.55814 91.587076 
L 121.093953 90.829192 
L 121.897674 90.071308 
L 122.969302 89.692366 
L 123.505116 88.934482 
L 124.576744 88.55554 
L 126.452093 88.176598 
L 128.059535 88.176598 
L 129.131163 87.797656 
L 131.810233 87.797656 
L 133.417674 87.418714 
L 137.168372 87.418714 
L 138.507907 87.797656 
L 139.847442 87.418714 
L 141.186977 87.418714 
L 143.062326 87.039772 
L 146.277209 87.039772 
L 147.616744 86.66083 
L 149.76 86.66083 
L 150.563721 86.281888 
L 151.367442 86.281888 
L 152.706977 85.902946 
L 153.778605 85.902946 
L 155.386047 85.145062 
L 155.92186 84.76612 
L 156.457674 84.76612 
L 157.261395 84.387178 
L 157.797209 84.008236 
L 158.333023 83.250352 
L 158.868837 82.87141 
L 159.136744 82.113527 
L 159.672558 81.355643 
L 160.208372 80.976701 
L 160.208372 80.218817 
L 161.012093 77.945165 
L 161.28 77.566223 
L 161.547907 76.808339 
L 161.815814 75.671513 
L 162.351628 74.534687 
L 162.351628 73.776803 
L 162.887442 72.261035 
L 163.423256 69.608441 
L 163.95907 67.33479 
L 163.95907 66.576906 
L 164.226977 66.197964 
L 164.762791 65.061138 
L 166.63814 57.103356 
L 166.906047 56.724414 
L 167.173953 55.96653 
L 167.173953 55.208646 
L 167.44186 55.208646 
L 168.781395 53.313937 
L 169.317209 53.313937 
L 169.853023 52.934995 
L 171.728372 52.934995 
L 172.264186 53.313937 
L 172.532093 53.313937 
L 181.908837 55.96653 
L 192.625116 58.619124 
L 198.51907 60.513834 
L 214.057674 63.166428 
L 215.397209 63.166428 
L 220.487442 64.682196 
L 221.826977 65.44008 
L 223.702326 66.197964 
L 227.453023 69.608441 
L 228.256744 70.745267 
L 229.328372 71.503151 
L 230.132093 72.639977 
L 231.471628 73.776803 
L 232.543256 74.534687 
L 233.07907 75.292571 
L 234.418605 76.050455 
L 235.222326 76.050455 
L 235.75814 76.429397 
L 237.097674 76.429397 
L 237.633488 76.050455 
L 238.437209 75.671513 
L 238.973023 75.292571 
L 239.24093 74.913629 
L 240.044651 74.155745 
L 240.312558 73.397861 
L 241.92 71.124209 
L 242.187907 70.366325 
L 244.063256 67.713732 
L 244.866977 67.33479 
L 245.134884 66.955848 
L 245.938605 66.955848 
L 247.010233 66.576906 
L 247.813953 66.955848 
L 248.349767 66.955848 
L 249.689302 67.33479 
L 250.493023 67.713732 
L 250.76093 67.713732 
L 251.296744 68.092674 
L 251.564651 68.471616 
L 252.368372 68.850557 
L 253.44 69.608441 
L 253.707907 69.608441 
L 254.243721 69.987383 
L 254.511628 70.366325 
L 256.11907 71.124209 
L 256.922791 71.882093 
L 257.994419 72.261035 
L 258.79814 73.018919 
L 261.745116 74.155745 
L 262.548837 74.913629 
L 266.567442 76.050455 
L 270.31814 76.050455 
L 270.853953 75.671513 
L 271.389767 75.671513 
L 272.997209 74.913629 
L 273.533023 74.534687 
L 275.140465 73.018919 
L 276.747907 70.745267 
L 277.283721 69.229499 
L 277.551628 68.850557 
L 277.819535 68.092674 
L 278.355349 67.33479 
L 278.623256 66.576906 
L 278.891163 66.197964 
L 279.426977 65.819022 
L 279.694884 65.44008 
L 279.962791 65.44008 
L 280.230698 65.061138 
L 280.766512 64.682196 
L 283.177674 64.682196 
L 283.713488 65.061138 
L 284.249302 65.061138 
L 285.32093 65.44008 
L 285.856744 65.819022 
L 286.392558 65.819022 
L 286.928372 66.197964 
L 287.732093 66.955848 
L 288.267907 66.955848 
L 289.071628 67.33479 
L 289.607442 68.092674 
L 290.411163 68.092674 
L 292.018605 69.229499 
L 293.35814 70.366325 
L 293.893953 70.745267 
L 294.429767 71.503151 
L 295.233488 71.882093 
L 297.108837 74.534687 
L 297.376744 75.671513 
L 297.644651 76.050455 
L 298.448372 79.460933 
L 298.448372 80.218817 
L 298.716279 80.976701 
L 298.984186 82.113527 
L 298.984186 82.87141 
L 299.252093 83.629294 
L 299.252093 84.387178 
L 299.52 85.145062 
L 299.52 87.039772 
L 300.055814 89.692366 
L 300.055814 90.45025 
L 299.787907 90.829192 
L 299.787907 91.208134 
L 299.52 91.587076 
L 297.108837 91.587076 
L 296.573023 91.208134 
L 294.16186 90.071308 
L 293.35814 89.313424 
L 292.286512 88.934482 
L 290.946977 88.176598 
L 289.875349 87.797656 
L 287.732093 86.281888 
L 286.124651 85.524004 
L 285.053023 84.76612 
L 283.713488 84.387178 
L 282.106047 83.629294 
L 280.230698 83.250352 
L 278.087442 82.492468 
L 276.48 82.113527 
L 271.925581 81.355643 
L 261.209302 81.355643 
L 259.869767 81.734585 
L 257.458605 81.734585 
L 254.779535 82.113527 
L 253.707907 82.113527 
L 251.832558 82.492468 
L 249.689302 82.492468 
L 247.27814 82.87141 
L 244.331163 82.87141 
L 242.187907 83.250352 
L 217.540465 83.250352 
L 215.665116 82.87141 
L 203.073488 82.87141 
L 201.466047 83.250352 
L 198.51907 83.250352 
L 197.179535 83.629294 
L 195.84 83.629294 
L 195.84 83.629294 
" clip-path="url(#p1f704ebe0b)" style="fill: none; stroke: #ffd700; stroke-width: 1.5; stroke-linecap: square"/>
   </g>
   <g id="line2d_12">
    <path d="M 268.174884 140.849532 
" clip-path="url(#p1f704ebe0b)" style="fill: none; stroke: #ffd700; stroke-width: 1.5; stroke-linecap: square"/>
    <defs>
     <path id="m3d7c04b7ba" d="M 0 5 
C 1.326016 5 2.597899 4.473168 3.535534 3.535534 
C 4.473168 2.597899 5 1.326016 5 0 
C 5 -1.326016 4.473168 -2.597899 3.535534 -3.535534 
C 2.597899 -4.473168 1.326016 -5 0 -5 
C -1.326016 -5 -2.597899 -4.473168 -3.535534 -3.535534 
C -4.473168 -2.597899 -5 -1.326016 -5 0 
C -5 1.326016 -4.473168 2.597899 -3.535534 3.535534 
C -2.597899 4.473168 -1.326016 5 0 5 
z
" style="stroke: #ffd700"/>
    </defs>
    <g clip-path="url(#p1f704ebe0b)">
     <use xlink:href="#m3d7c04b7ba" x="268.174884" y="140.849532" style="fill: #ffd700; stroke: #ffd700"/>
    </g>
   </g>
   <g id="line2d_13">
    <path d="M 195.84 83.629294 
" clip-path="url(#p1f704ebe0b)" style="fill: none; stroke: #ffd700; stroke-width: 1.5; stroke-linecap: square"/>
    <defs>
     <path id="mec66b94f43" d="M -5 5 
L 5 5 
L 5 -5 
L -5 -5 
z
" style="stroke: #ffd700; stroke-linejoin: miter"/>
    </defs>
    <g clip-path="url(#p1f704ebe0b)">
     <use xlink:href="#mec66b94f43" x="195.84" y="83.629294" style="fill: #ffd700; stroke: #ffd700; stroke-linejoin: miter"/>
    </g>
   </g>
   <g id="line2d_14">
    <path d="M 263.352558 235.963967 
L 264.96 235.963967 
L 266.299535 235.963967 
L 267.63907 235.963967 
L 268.710698 235.963967 
L 269.782326 235.963967 
L 270.853953 235.963967 
L 271.389767 235.963967 
L 272.461395 235.963967 
L 272.997209 236.342909 
L 273.533023 236.342909 
L 273.80093 236.342909 
L 274.068837 236.721851 
L 274.336744 237.100793 
L 274.336744 237.100793 
L 274.336744 237.479735 
L 274.068837 237.858677 
L 274.068837 237.858677 
L 273.80093 238.237619 
L 273.533023 238.616561 
L 273.265116 238.616561 
L 273.265116 238.995503 
L 273.265116 238.995503 
L 272.997209 239.374445 
L 272.997209 239.374445 
L 273.265116 238.995503 
L 273.533023 238.616561 
L 274.068837 238.237619 
L 274.604651 237.100793 
L 275.676279 235.963967 
L 276.48 234.827141 
L 277.819535 232.932431 
L 279.694884 229.900896 
L 281.570233 227.248302 
L 283.445581 223.837824 
L 285.588837 221.564172 
L 286.124651 218.911578 
L 287.464186 216.258985 
L 288 215.122159 
L 288.803721 213.606391 
L 290.143256 210.953797 
L 290.67907 209.438029 
L 292.822326 204.890726 
L 292.822326 204.890726 
L 294.16186 201.85919 
L 296.305116 195.417176 
L 298.180465 190.869873 
L 300.055814 184.806801 
L 301.663256 178.364787 
L 303.270698 172.301716 
L 304.342326 167.754412 
L 305.68186 162.070283 
L 307.021395 156.386153 
L 308.628837 152.217791 
L 309.700465 146.912604 
L 311.575814 141.607416 
L 313.183256 136.302229 
L 315.058605 130.997041 
L 317.20186 126.070795 
L 318.541395 122.281376 
L 320.684651 117.35513 
L 322.56 112.428884 
L 323.899535 109.018407 
L 325.774884 104.850045 
L 327.114419 101.818509 
L 327.650233 99.923799 
L 328.72186 97.271205 
L 329.793488 94.997554 
L 330.597209 93.102844 
L 331.668837 90.829192 
L 332.204651 89.692366 
L 332.740465 88.55554 
L 333.008372 88.176598 
L 333.544186 88.176598 
L 333.812093 88.176598 
L 334.08 88.55554 
L 334.347907 89.692366 
L 334.615814 90.829192 
L 334.883721 91.966018 
L 334.883721 93.481786 
L 334.883721 96.513321 
L 334.883721 98.786973 
L 334.615814 100.681683 
L 334.615814 102.576393 
L 334.347907 105.607929 
" clip-path="url(#p1f704ebe0b)" style="fill: none; stroke: #800080; stroke-width: 1.5; stroke-linecap: square"/>
   </g>
   <g id="line2d_15">
    <path d="M 263.352558 235.963967 
" clip-path="url(#p1f704ebe0b)" style="fill: none; stroke: #800080; stroke-width: 1.5; stroke-linecap: square"/>
    <defs>
     <path id="m2bd9d6b518" d="M 0 5 
C 1.326016 5 2.597899 4.473168 3.535534 3.535534 
C 4.473168 2.597899 5 1.326016 5 0 
C 5 -1.326016 4.473168 -2.597899 3.535534 -3.535534 
C 2.597899 -4.473168 1.326016 -5 0 -5 
C -1.326016 -5 -2.597899 -4.473168 -3.535534 -3.535534 
C -4.473168 -2.597899 -5 -1.326016 -5 0 
C -5 1.326016 -4.473168 2.597899 -3.535534 3.535534 
C -2.597899 4.473168 -1.326016 5 0 5 
z
" style="stroke: #800080"/>
    </defs>
    <g clip-path="url(#p1f704ebe0b)">
     <use xlink:href="#m2bd9d6b518" x="263.352558" y="235.963967" style="fill: #800080; stroke: #800080"/>
    </g>
   </g>
   <g id="line2d_16">
    <path d="M 334.347907 105.607929 
" clip-path="url(#p1f704ebe0b)" style="fill: none; stroke: #800080; stroke-width: 1.5; stroke-linecap: square"/>
    <defs>
     <path id="m74681e2776" d="M -5 5 
L 5 5 
L 5 -5 
L -5 -5 
z
" style="stroke: #800080; stroke-linejoin: miter"/>
    </defs>
    <g clip-path="url(#p1f704ebe0b)">
     <use xlink:href="#m74681e2776" x="334.347907" y="105.607929" style="fill: #800080; stroke: #800080; stroke-linejoin: miter"/>
    </g>
   </g>
   <g id="line2d_17">
    <path d="M 320.148837 260.974137 
L 320.148837 260.974137 
L 320.148837 260.974137 
L 320.416744 260.974137 
L 320.416744 261.353079 
L 320.416744 261.353079 
L 320.416744 261.353079 
L 320.416744 261.353079 
L 320.416744 261.353079 
L 320.684651 261.732021 
L 320.684651 261.732021 
L 320.416744 261.732021 
L 320.684651 261.732021 
L 320.684651 262.110963 
L 320.684651 262.110963 
L 320.416744 262.110963 
L 320.416744 262.110963 
L 319.88093 262.489905 
L 320.148837 262.489905 
L 319.88093 262.489905 
L 319.88093 262.489905 
L 319.613023 262.868847 
L 319.613023 263.247789 
L 319.345116 263.247789 
L 319.077209 263.247789 
L 318.809302 263.247789 
L 318.273488 263.247789 
L 317.737674 263.247789 
L 317.469767 262.868847 
L 316.666047 262.489905 
L 316.39814 262.110963 
L 316.39814 262.110963 
L 315.594419 261.353079 
L 315.058605 260.595195 
L 314.522791 260.216253 
L 314.254884 259.837311 
L 313.451163 259.079428 
L 312.379535 257.942602 
L 311.04 256.805776 
L 309.968372 255.66895 
L 308.36093 254.153182 
L 305.146047 250.742704 
L 302.19907 248.09011 
L 298.180465 243.921749 
L 294.965581 240.511271 
L 291.214884 237.100793 
L 285.588837 231.795606 
L 281.83814 227.248302 
L 277.283721 222.700998 
L 275.944186 221.18523 
L 272.729302 218.153695 
L 269.514419 215.122159 
L 266.299535 211.711681 
L 261.477209 206.406493 
L 255.851163 199.96448 
L 251.028837 195.038234 
L 246.474419 190.111989 
L 240.312558 183.669975 
L 236.026047 178.743729 
L 230.132093 172.680658 
L 224.506047 166.996528 
L 220.487442 162.828167 
L 214.325581 156.007211 
L 210.306977 152.217791 
L 205.216744 146.912604 
L 200.126512 142.3653 
L 196.643721 138.954822 
L 191.553488 134.786461 
L 186.731163 130.997041 
L 181.64093 127.207621 
L 176.818605 123.797143 
L 173.603721 121.14455 
L 168.781395 118.113014 
L 163.95907 114.702536 
L 159.672558 112.049942 
" clip-path="url(#p1f704ebe0b)" style="fill: none; stroke: #ffa500; stroke-width: 1.5; stroke-linecap: square"/>
   </g>
   <g id="line2d_18">
    <path d="M 320.148837 260.974137 
" clip-path="url(#p1f704ebe0b)" style="fill: none; stroke: #ffa500; stroke-width: 1.5; stroke-linecap: square"/>
    <defs>
     <path id="m117cc399cb" d="M 0 5 
C 1.326016 5 2.597899 4.473168 3.535534 3.535534 
C 4.473168 2.597899 5 1.326016 5 0 
C 5 -1.326016 4.473168 -2.597899 3.535534 -3.535534 
C 2.597899 -4.473168 1.326016 -5 0 -5 
C -1.326016 -5 -2.597899 -4.473168 -3.535534 -3.535534 
C -4.473168 -2.597899 -5 -1.326016 -5 0 
C -5 1.326016 -4.473168 2.597899 -3.535534 3.535534 
C -2.597899 4.473168 -1.326016 5 0 5 
z
" style="stroke: #ffa500"/>
    </defs>
    <g clip-path="url(#p1f704ebe0b)">
     <use xlink:href="#m117cc399cb" x="320.148837" y="260.974137" style="fill: #ffa500; stroke: #ffa500"/>
    </g>
   </g>
   <g id="line2d_19">
    <path d="M 159.672558 112.049942 
" clip-path="url(#p1f704ebe0b)" style="fill: none; stroke: #ffa500; stroke-width: 1.5; stroke-linecap: square"/>
    <defs>
     <path id="m1c510e5518" d="M -5 5 
L 5 5 
L 5 -5 
L -5 -5 
z
" style="stroke: #ffa500; stroke-linejoin: miter"/>
    </defs>
    <g clip-path="url(#p1f704ebe0b)">
     <use xlink:href="#m1c510e5518" x="159.672558" y="112.049942" style="fill: #ffa500; stroke: #ffa500; stroke-linejoin: miter"/>
    </g>
   </g>
   <g id="line2d_20">
    <path d="M 308.093023 268.552977 
L 308.093023 268.552977 
L 308.36093 268.174035 
L 308.628837 268.174035 
L 308.896744 268.174035 
L 309.164651 268.174035 
L 309.432558 268.552977 
L 309.700465 268.174035 
L 309.700465 268.174035 
L 309.968372 268.552977 
L 309.968372 268.552977 
L 310.236279 268.552977 
L 310.236279 268.552977 
L 310.236279 268.552977 
L 310.504186 268.552977 
L 310.504186 268.552977 
L 310.504186 268.552977 
L 310.772093 268.552977 
L 310.772093 268.552977 
L 310.772093 268.931919 
L 311.04 268.931919 
L 311.04 268.931919 
L 311.04 269.310861 
L 311.04 269.310861 
L 311.307907 269.689803 
L 311.307907 269.689803 
L 311.575814 269.689803 
L 311.575814 270.068745 
L 311.843721 270.068745 
L 311.843721 270.447687 
L 311.575814 270.447687 
L 311.307907 270.447687 
L 311.04 270.447687 
L 310.504186 270.068745 
L 309.700465 269.689803 
L 308.628837 269.310861 
L 307.557209 268.552977 
L 305.949767 267.795093 
L 304.074419 267.037209 
L 302.19907 265.900383 
L 299.787907 264.763557 
L 296.84093 264.005673 
L 293.893953 262.489905 
L 290.143256 261.353079 
L 286.660465 259.837311 
L 283.177674 258.321544 
L 279.426977 256.805776 
L 275.676279 255.290008 
L 271.389767 254.153182 
L 267.103256 252.637414 
L 263.084651 251.500588 
L 258.530233 249.98482 
L 255.851163 249.226936 
L 249.689302 247.332226 
L 244.59907 246.1954 
L 240.044651 244.679633 
L 235.490233 243.542807 
L 230.667907 242.405981 
L 225.845581 241.269155 
L 221.291163 240.132329 
L 216.468837 238.995503 
L 213.52186 238.616561 
L 207.36 237.479735 
L 204.413023 237.100793 
L 198.51907 236.342909 
L 194.500465 235.963967 
L 190.48186 235.585025 
L 186.463256 235.206083 
L 182.980465 235.206083 
L 179.229767 235.206083 
L 176.014884 235.585025 
L 173.067907 235.585025 
L 170.12093 235.963967 
L 167.709767 236.721851 
L 165.566512 237.479735 
L 163.423256 238.237619 
L 162.351628 238.616561 
L 160.476279 239.753387 
L 159.672558 240.132329 
L 158.333023 241.648097 
L 157.797209 242.405981 
L 157.797209 243.542807 
L 157.529302 244.679633 
L 157.797209 246.1954 
L 158.333023 247.332226 
L 159.136744 248.469052 
L 159.672558 249.226936 
L 159.672558 249.226936 
L 160.208372 249.605878 
L 161.012093 250.363762 
L 161.547907 250.742704 
L 161.815814 250.742704 
L 162.351628 251.500588 
L 162.887442 251.87953 
L 164.226977 252.637414 
L 164.762791 253.016356 
L 166.102326 253.395298 
L 167.44186 253.77424 
" clip-path="url(#p1f704ebe0b)" style="fill: none; stroke: #ff69b4; stroke-width: 1.5; stroke-linecap: square"/>
   </g>
   <g id="line2d_21">
    <path d="M 308.093023 268.552977 
" clip-path="url(#p1f704ebe0b)" style="fill: none; stroke: #ff69b4; stroke-width: 1.5; stroke-linecap: square"/>
    <defs>
     <path id="mb3d5976cc4" d="M 0 5 
C 1.326016 5 2.597899 4.473168 3.535534 3.535534 
C 4.473168 2.597899 5 1.326016 5 0 
C 5 -1.326016 4.473168 -2.597899 3.535534 -3.535534 
C 2.597899 -4.473168 1.326016 -5 0 -5 
C -1.326016 -5 -2.597899 -4.473168 -3.535534 -3.535534 
C -4.473168 -2.597899 -5 -1.326016 -5 0 
C -5 1.326016 -4.473168 2.597899 -3.535534 3.535534 
C -2.597899 4.473168 -1.326016 5 0 5 
z
" style="stroke: #ff69b4"/>
    </defs>
    <g clip-path="url(#p1f704ebe0b)">
     <use xlink:href="#mb3d5976cc4" x="308.093023" y="268.552977" style="fill: #ff69b4; stroke: #ff69b4"/>
    </g>
   </g>
   <g id="line2d_22">
    <path d="M 167.44186 253.77424 
" clip-path="url(#p1f704ebe0b)" style="fill: none; stroke: #ff69b4; stroke-width: 1.5; stroke-linecap: square"/>
    <defs>
     <path id="m21efd96fb8" d="M -5 5 
L 5 5 
L 5 -5 
L -5 -5 
z
" style="stroke: #ff69b4; stroke-linejoin: miter"/>
    </defs>
    <g clip-path="url(#p1f704ebe0b)">
     <use xlink:href="#m21efd96fb8" x="167.44186" y="253.77424" style="fill: #ff69b4; stroke: #ff69b4; stroke-linejoin: miter"/>
    </g>
   </g>
   <g id="line2d_23">
    <path d="M 300.055814 264.005673 
L 299.787907 263.626731 
L 299.787907 263.626731 
L 299.52 263.626731 
L 299.252093 263.247789 
L 299.252093 263.247789 
L 298.984186 263.247789 
L 298.984186 263.247789 
L 298.716279 263.247789 
L 298.716279 262.868847 
L 298.448372 263.247789 
L 298.448372 263.247789 
L 298.180465 263.247789 
L 298.180465 263.247789 
L 298.180465 263.247789 
L 297.912558 263.247789 
L 297.644651 263.626731 
L 297.644651 263.626731 
L 297.644651 263.626731 
L 297.644651 263.626731 
L 297.912558 263.626731 
L 297.912558 264.005673 
L 298.180465 264.005673 
L 298.180465 264.384615 
L 298.448372 264.384615 
L 298.716279 264.384615 
L 298.984186 264.763557 
L 299.52 265.142499 
L 300.055814 265.142499 
L 300.323721 265.521441 
L 300.859535 265.521441 
L 301.127442 265.900383 
L 301.663256 266.279325 
L 301.931163 266.279325 
L 302.19907 266.279325 
L 302.466977 266.279325 
L 302.466977 266.658267 
L 302.466977 266.658267 
L 302.19907 266.279325 
L 301.663256 266.279325 
L 301.127442 265.900383 
L 300.055814 265.142499 
L 298.984186 264.384615 
L 297.376744 263.247789 
L 295.769302 261.732021 
L 293.893953 259.837311 
L 291.482791 257.56366 
L 288.803721 254.911066 
L 285.856744 251.87953 
L 282.909767 248.847994 
L 279.694884 245.437517 
L 277.283721 243.163865 
L 273.80093 238.995503 
L 270.050233 234.827141 
L 266.567442 230.65878 
L 262.28093 226.490418 
L 257.726512 222.322056 
L 252.904186 218.153695 
L 248.349767 213.606391 
L 243.795349 209.438029 
L 238.705116 205.269667 
L 233.346977 201.480248 
L 228.256744 198.06977 
L 223.166512 194.659292 
L 218.076279 191.248815 
L 214.861395 189.354105 
L 209.771163 186.701511 
L 204.68093 184.427859 
L 199.590698 182.154207 
L 194.500465 180.259497 
L 189.410233 178.364787 
L 184.32 176.84902 
L 179.765581 175.333252 
L 174.943256 173.817484 
L 170.12093 173.0596 
L 165.566512 172.301716 
L 161.012093 171.922774 
L 156.725581 171.16489 
L 152.171163 170.028064 
L 147.348837 170.028064 
L 143.59814 169.649122 
L 140.115349 169.649122 
L 136.364651 169.649122 
L 133.149767 170.028064 
L 129.39907 170.407006 
L 127.255814 170.785948 
L 124.576744 171.16489 
L 121.629767 171.922774 
L 118.414884 173.438542 
L 115.735814 174.575368 
L 113.056744 174.95431 
L 110.645581 174.95431 
L 107.966512 175.333252 
L 105.555349 175.712194 
L 103.412093 176.470078 
L 101.536744 176.84902 
L 99.929302 177.606904 
L 98.32186 178.364787 
L 96.982326 178.743729 
L 95.642791 179.501613 
L 95.106977 179.880555 
L 94.035349 180.638439 
L 93.231628 181.017381 
L 92.695814 181.775265 
L 92.16 182.154207 
L 92.16 182.154207 
L 91.892093 182.533149 
L 91.356279 182.912091 
L 91.356279 182.912091 
L 91.088372 183.291033 
L 90.820465 183.669975 
L 90.820465 184.048917 
L 90.552558 184.427859 
L 90.552558 184.427859 
L 90.552558 184.806801 
L 90.820465 185.943627 
L 91.088372 186.322569 
L 92.16 186.701511 
L 92.963721 187.459395 
L 94.035349 187.838337 
L 95.910698 188.217279 
L 98.589767 188.596221 
L 100.465116 189.354105 
" clip-path="url(#p1f704ebe0b)" style="fill: none; stroke: #8a2be2; stroke-width: 1.5; stroke-linecap: square"/>
   </g>
   <g id="line2d_24">
    <path d="M 300.055814 264.005673 
" clip-path="url(#p1f704ebe0b)" style="fill: none; stroke: #8a2be2; stroke-width: 1.5; stroke-linecap: square"/>
    <defs>
     <path id="m0a7e126d2b" d="M 0 5 
C 1.326016 5 2.597899 4.473168 3.535534 3.535534 
C 4.473168 2.597899 5 1.326016 5 0 
C 5 -1.326016 4.473168 -2.597899 3.535534 -3.535534 
C 2.597899 -4.473168 1.326016 -5 0 -5 
C -1.326016 -5 -2.597899 -4.473168 -3.535534 -3.535534 
C -4.473168 -2.597899 -5 -1.326016 -5 0 
C -5 1.326016 -4.473168 2.597899 -3.535534 3.535534 
C -2.597899 4.473168 -1.326016 5 0 5 
z
" style="stroke: #8a2be2"/>
    </defs>
    <g clip-path="url(#p1f704ebe0b)">
     <use xlink:href="#m0a7e126d2b" x="300.055814" y="264.005673" style="fill: #8a2be2; stroke: #8a2be2"/>
    </g>
   </g>
   <g id="line2d_25">
    <path d="M 100.465116 189.354105 
" clip-path="url(#p1f704ebe0b)" style="fill: none; stroke: #8a2be2; stroke-width: 1.5; stroke-linecap: square"/>
    <defs>
     <path id="m41209610bc" d="M -5 5 
L 5 5 
L 5 -5 
L -5 -5 
z
" style="stroke: #8a2be2; stroke-linejoin: miter"/>
    </defs>
    <g clip-path="url(#p1f704ebe0b)">
     <use xlink:href="#m41209610bc" x="100.465116" y="189.354105" style="fill: #8a2be2; stroke: #8a2be2; stroke-linejoin: miter"/>
    </g>
   </g>
   <g id="line2d_26">
    <path d="M 293.626047 276.510758 
L 293.626047 276.510758 
L 293.626047 276.510758 
L 293.626047 276.510758 
L 293.626047 276.510758 
L 293.626047 276.510758 
L 293.626047 276.510758 
L 293.626047 276.510758 
L 293.626047 276.510758 
L 293.626047 276.510758 
L 293.626047 276.510758 
L 293.626047 276.510758 
L 293.893953 276.510758 
L 293.893953 276.510758 
L 293.893953 276.510758 
L 293.893953 276.510758 
L 293.893953 276.510758 
L 293.893953 276.510758 
L 293.893953 276.510758 
L 293.893953 276.8897 
L 293.893953 276.8897 
L 293.626047 276.8897 
L 293.626047 276.8897 
L 293.35814 276.8897 
L 292.822326 276.8897 
L 292.286512 276.510758 
L 291.750698 276.510758 
L 290.67907 276.131816 
L 289.339535 275.752874 
L 287.732093 275.373932 
L 285.856744 274.99499 
L 283.713488 274.616048 
L 281.034419 273.858164 
L 277.819535 273.858164 
L 274.872558 273.100281 
L 271.12186 273.100281 
L 267.371163 272.721339 
L 262.816744 272.721339 
L 258.262326 272.342397 
L 253.44 271.963455 
L 248.617674 271.963455 
L 243.259535 271.963455 
L 237.633488 271.963455 
L 232.275349 271.584513 
L 226.917209 271.584513 
L 221.291163 271.584513 
L 215.933023 271.584513 
L 210.574884 271.963455 
L 205.216744 271.963455 
L 200.126512 271.963455 
L 195.304186 271.963455 
L 190.749767 271.963455 
L 186.463256 272.342397 
L 182.444651 272.721339 
L 178.96186 272.721339 
L 175.746977 273.100281 
L 172.8 273.479222 
L 170.12093 273.858164 
L 168.245581 274.616048 
L 166.63814 274.99499 
L 165.566512 275.373932 
L 164.762791 275.752874 
L 164.494884 276.510758 
L 164.762791 276.8897 
L 165.298605 277.647584 
L 166.63814 278.405468 
L 167.977674 279.163352 
L 169.853023 279.921236 
L 172.264186 280.67912 
L 174.675349 281.437004 
L 177.622326 282.194888 
" clip-path="url(#p1f704ebe0b)" style="fill: none; stroke: #ff00ff; stroke-width: 1.5; stroke-linecap: square"/>
   </g>
   <g id="line2d_27">
    <path d="M 293.626047 276.510758 
" clip-path="url(#p1f704ebe0b)" style="fill: none; stroke: #ff00ff; stroke-width: 1.5; stroke-linecap: square"/>
    <defs>
     <path id="m02f367a7d8" d="M 0 5 
C 1.326016 5 2.597899 4.473168 3.535534 3.535534 
C 4.473168 2.597899 5 1.326016 5 0 
C 5 -1.326016 4.473168 -2.597899 3.535534 -3.535534 
C 2.597899 -4.473168 1.326016 -5 0 -5 
C -1.326016 -5 -2.597899 -4.473168 -3.535534 -3.535534 
C -4.473168 -2.597899 -5 -1.326016 -5 0 
C -5 1.326016 -4.473168 2.597899 -3.535534 3.535534 
C -2.597899 4.473168 -1.326016 5 0 5 
z
" style="stroke: #ff00ff"/>
    </defs>
    <g clip-path="url(#p1f704ebe0b)">
     <use xlink:href="#m02f367a7d8" x="293.626047" y="276.510758" style="fill: #ff00ff; stroke: #ff00ff"/>
    </g>
   </g>
   <g id="line2d_28">
    <path d="M 177.622326 282.194888 
" clip-path="url(#p1f704ebe0b)" style="fill: none; stroke: #ff00ff; stroke-width: 1.5; stroke-linecap: square"/>
    <defs>
     <path id="m653bd20e27" d="M -5 5 
L 5 5 
L 5 -5 
L -5 -5 
z
" style="stroke: #ff00ff; stroke-linejoin: miter"/>
    </defs>
    <g clip-path="url(#p1f704ebe0b)">
     <use xlink:href="#m653bd20e27" x="177.622326" y="282.194888" style="fill: #ff00ff; stroke: #ff00ff; stroke-linejoin: miter"/>
    </g>
   </g>
   <g id="patch_3">
    <path d="M 57.6 307.584 
L 57.6 41.472 
" style="fill: none; stroke: #000000; stroke-width: 0.8; stroke-linejoin: miter; stroke-linecap: square"/>
   </g>
   <g id="patch_4">
    <path d="M 57.6 307.584 
L 414.72 307.584 
" style="fill: none; stroke: #000000; stroke-width: 0.8; stroke-linejoin: miter; stroke-linecap: square"/>
   </g>
   <g id="legend_1">
    <g id="patch_5">
     <path d="M 282.164531 119.523563 
L 404.22 119.523563 
Q 407.22 119.523563 407.22 116.523563 
L 407.22 51.972 
Q 407.22 48.972 404.22 48.972 
L 282.164531 48.972 
Q 279.164531 48.972 279.164531 51.972 
L 279.164531 116.523563 
Q 279.164531 119.523563 282.164531 119.523563 
z
" style="fill: #ffffff; opacity: 0.8; stroke: #cccccc; stroke-linejoin: miter"/>
    </g>
    <g id="line2d_29">
     <path d="M 285.164531 61.119656 
L 300.164531 61.119656 
L 315.164531 61.119656 
" style="fill: none; stroke: #000000; stroke-width: 1.5; stroke-linecap: square"/>
    </g>
    <g id="text_7">
     <!-- Trajectory -->
     <g transform="translate(327.164531 66.369656)scale(0.15 -0.15)">
      <defs>
       <path id="DejaVuSans-54" d="M -19 4666 
L 3928 4666 
L 3928 4134 
L 2272 4134 
L 2272 0 
L 1638 0 
L 1638 4134 
L -19 4134 
L -19 4666 
z
" transform="scale(0.015625)"/>
       <path id="DejaVuSans-72" d="M 2631 2963 
Q 2534 3019 2420 3045 
Q 2306 3072 2169 3072 
Q 1681 3072 1420 2755 
Q 1159 2438 1159 1844 
L 1159 0 
L 581 0 
L 581 3500 
L 1159 3500 
L 1159 2956 
Q 1341 3275 1631 3429 
Q 1922 3584 2338 3584 
Q 2397 3584 2469 3576 
Q 2541 3569 2628 3553 
L 2631 2963 
z
" transform="scale(0.015625)"/>
       <path id="DejaVuSans-61" d="M 2194 1759 
Q 1497 1759 1228 1600 
Q 959 1441 959 1056 
Q 959 750 1161 570 
Q 1363 391 1709 391 
Q 2188 391 2477 730 
Q 2766 1069 2766 1631 
L 2766 1759 
L 2194 1759 
z
M 3341 1997 
L 3341 0 
L 2766 0 
L 2766 531 
Q 2569 213 2275 61 
Q 1981 -91 1556 -91 
Q 1019 -91 701 211 
Q 384 513 384 1019 
Q 384 1609 779 1909 
Q 1175 2209 1959 2209 
L 2766 2209 
L 2766 2266 
Q 2766 2663 2505 2880 
Q 2244 3097 1772 3097 
Q 1472 3097 1187 3025 
Q 903 2953 641 2809 
L 641 3341 
Q 956 3463 1253 3523 
Q 1550 3584 1831 3584 
Q 2591 3584 2966 3190 
Q 3341 2797 3341 1997 
z
" transform="scale(0.015625)"/>
       <path id="DejaVuSans-6a" d="M 603 3500 
L 1178 3500 
L 1178 -63 
Q 1178 -731 923 -1031 
Q 669 -1331 103 -1331 
L -116 -1331 
L -116 -844 
L 38 -844 
Q 366 -844 484 -692 
Q 603 -541 603 -63 
L 603 3500 
z
M 603 4863 
L 1178 4863 
L 1178 4134 
L 603 4134 
L 603 4863 
z
" transform="scale(0.015625)"/>
       <path id="DejaVuSans-65" d="M 3597 1894 
L 3597 1613 
L 953 1613 
Q 991 1019 1311 708 
Q 1631 397 2203 397 
Q 2534 397 2845 478 
Q 3156 559 3463 722 
L 3463 178 
Q 3153 47 2828 -22 
Q 2503 -91 2169 -91 
Q 1331 -91 842 396 
Q 353 884 353 1716 
Q 353 2575 817 3079 
Q 1281 3584 2069 3584 
Q 2775 3584 3186 3129 
Q 3597 2675 3597 1894 
z
M 3022 2063 
Q 3016 2534 2758 2815 
Q 2500 3097 2075 3097 
Q 1594 3097 1305 2825 
Q 1016 2553 972 2059 
L 3022 2063 
z
" transform="scale(0.015625)"/>
       <path id="DejaVuSans-63" d="M 3122 3366 
L 3122 2828 
Q 2878 2963 2633 3030 
Q 2388 3097 2138 3097 
Q 1578 3097 1268 2742 
Q 959 2388 959 1747 
Q 959 1106 1268 751 
Q 1578 397 2138 397 
Q 2388 397 2633 464 
Q 2878 531 3122 666 
L 3122 134 
Q 2881 22 2623 -34 
Q 2366 -91 2075 -91 
Q 1284 -91 818 406 
Q 353 903 353 1747 
Q 353 2603 823 3093 
Q 1294 3584 2113 3584 
Q 2378 3584 2631 3529 
Q 2884 3475 3122 3366 
z
" transform="scale(0.015625)"/>
       <path id="DejaVuSans-74" d="M 1172 4494 
L 1172 3500 
L 2356 3500 
L 2356 3053 
L 1172 3053 
L 1172 1153 
Q 1172 725 1289 603 
Q 1406 481 1766 481 
L 2356 481 
L 2356 0 
L 1766 0 
Q 1100 0 847 248 
Q 594 497 594 1153 
L 594 3053 
L 172 3053 
L 172 3500 
L 594 3500 
L 594 4494 
L 1172 4494 
z
" transform="scale(0.015625)"/>
       <path id="DejaVuSans-6f" d="M 1959 3097 
Q 1497 3097 1228 2736 
Q 959 2375 959 1747 
Q 959 1119 1226 758 
Q 1494 397 1959 397 
Q 2419 397 2687 759 
Q 2956 1122 2956 1747 
Q 2956 2369 2687 2733 
Q 2419 3097 1959 3097 
z
M 1959 3584 
Q 2709 3584 3137 3096 
Q 3566 2609 3566 1747 
Q 3566 888 3137 398 
Q 2709 -91 1959 -91 
Q 1206 -91 779 398 
Q 353 888 353 1747 
Q 353 2609 779 3096 
Q 1206 3584 1959 3584 
z
" transform="scale(0.015625)"/>
       <path id="DejaVuSans-79" d="M 2059 -325 
Q 1816 -950 1584 -1140 
Q 1353 -1331 966 -1331 
L 506 -1331 
L 506 -850 
L 844 -850 
Q 1081 -850 1212 -737 
Q 1344 -625 1503 -206 
L 1606 56 
L 191 3500 
L 800 3500 
L 1894 763 
L 2988 3500 
L 3597 3500 
L 2059 -325 
z
" transform="scale(0.015625)"/>
      </defs>
      <use xlink:href="#DejaVuSans-54"/>
      <use xlink:href="#DejaVuSans-72" x="46.333984"/>
      <use xlink:href="#DejaVuSans-61" x="87.447266"/>
      <use xlink:href="#DejaVuSans-6a" x="148.726562"/>
      <use xlink:href="#DejaVuSans-65" x="176.509766"/>
      <use xlink:href="#DejaVuSans-63" x="238.033203"/>
      <use xlink:href="#DejaVuSans-74" x="293.013672"/>
      <use xlink:href="#DejaVuSans-6f" x="332.222656"/>
      <use xlink:href="#DejaVuSans-72" x="393.404297"/>
      <use xlink:href="#DejaVuSans-79" x="434.517578"/>
     </g>
    </g>
    <g id="line2d_30">
     <path d="M 285.164531 83.136844 
L 300.164531 83.136844 
L 315.164531 83.136844 
" style="fill: none; stroke: #000000; stroke-width: 1.5; stroke-linecap: square"/>
     <g>
      <use xlink:href="#m47602462e9" x="300.164531" y="83.136844" style="stroke: #000000"/>
     </g>
    </g>
    <g id="text_8">
     <!-- Start -->
     <g transform="translate(327.164531 88.386844)scale(0.15 -0.15)">
      <defs>
       <path id="DejaVuSans-53" d="M 3425 4513 
L 3425 3897 
Q 3066 4069 2747 4153 
Q 2428 4238 2131 4238 
Q 1616 4238 1336 4038 
Q 1056 3838 1056 3469 
Q 1056 3159 1242 3001 
Q 1428 2844 1947 2747 
L 2328 2669 
Q 3034 2534 3370 2195 
Q 3706 1856 3706 1288 
Q 3706 609 3251 259 
Q 2797 -91 1919 -91 
Q 1588 -91 1214 -16 
Q 841 59 441 206 
L 441 856 
Q 825 641 1194 531 
Q 1563 422 1919 422 
Q 2459 422 2753 634 
Q 3047 847 3047 1241 
Q 3047 1584 2836 1778 
Q 2625 1972 2144 2069 
L 1759 2144 
Q 1053 2284 737 2584 
Q 422 2884 422 3419 
Q 422 4038 858 4394 
Q 1294 4750 2059 4750 
Q 2388 4750 2728 4690 
Q 3069 4631 3425 4513 
z
" transform="scale(0.015625)"/>
      </defs>
      <use xlink:href="#DejaVuSans-53"/>
      <use xlink:href="#DejaVuSans-74" x="63.476562"/>
      <use xlink:href="#DejaVuSans-61" x="102.685547"/>
      <use xlink:href="#DejaVuSans-72" x="163.964844"/>
      <use xlink:href="#DejaVuSans-74" x="205.078125"/>
     </g>
    </g>
    <g id="line2d_31">
     <path d="M 285.164531 105.154031 
L 300.164531 105.154031 
L 315.164531 105.154031 
" style="fill: none; stroke: #000000; stroke-width: 1.5; stroke-linecap: square"/>
     <g>
      <use xlink:href="#m5b5129d8dd" x="300.164531" y="105.154031" style="stroke: #000000; stroke-linejoin: miter"/>
     </g>
    </g>
    <g id="text_9">
     <!-- End -->
     <g transform="translate(327.164531 110.404031)scale(0.15 -0.15)">
      <defs>
       <path id="DejaVuSans-45" d="M 628 4666 
L 3578 4666 
L 3578 4134 
L 1259 4134 
L 1259 2753 
L 3481 2753 
L 3481 2222 
L 1259 2222 
L 1259 531 
L 3634 531 
L 3634 0 
L 628 0 
L 628 4666 
z
" transform="scale(0.015625)"/>
       <path id="DejaVuSans-6e" d="M 3513 2113 
L 3513 0 
L 2938 0 
L 2938 2094 
Q 2938 2591 2744 2837 
Q 2550 3084 2163 3084 
Q 1697 3084 1428 2787 
Q 1159 2491 1159 1978 
L 1159 0 
L 581 0 
L 581 3500 
L 1159 3500 
L 1159 2956 
Q 1366 3272 1645 3428 
Q 1925 3584 2291 3584 
Q 2894 3584 3203 3211 
Q 3513 2838 3513 2113 
z
" transform="scale(0.015625)"/>
       <path id="DejaVuSans-64" d="M 2906 2969 
L 2906 4863 
L 3481 4863 
L 3481 0 
L 2906 0 
L 2906 525 
Q 2725 213 2448 61 
Q 2172 -91 1784 -91 
Q 1150 -91 751 415 
Q 353 922 353 1747 
Q 353 2572 751 3078 
Q 1150 3584 1784 3584 
Q 2172 3584 2448 3432 
Q 2725 3281 2906 2969 
z
M 947 1747 
Q 947 1113 1208 752 
Q 1469 391 1925 391 
Q 2381 391 2643 752 
Q 2906 1113 2906 1747 
Q 2906 2381 2643 2742 
Q 2381 3103 1925 3103 
Q 1469 3103 1208 2742 
Q 947 2381 947 1747 
z
" transform="scale(0.015625)"/>
      </defs>
      <use xlink:href="#DejaVuSans-45"/>
      <use xlink:href="#DejaVuSans-6e" x="63.183594"/>
      <use xlink:href="#DejaVuSans-64" x="126.5625"/>
     </g>
    </g>
   </g>
  </g>
 </g>
 <defs>
  <clipPath id="p1f704ebe0b">
   <rect x="57.6" y="41.472" width="357.12" height="266.112"/>
  </clipPath>
 </defs>
</svg>
