<?xml version="1.0" encoding="utf-8" standalone="no"?>
<!DOCTYPE svg PUBLIC "-//W3C//DTD SVG 1.1//EN"
  "http://www.w3.org/Graphics/SVG/1.1/DTD/svg11.dtd">
<svg xmlns:xlink="http://www.w3.org/1999/xlink" width="460.8pt" height="345.6pt" viewBox="0 0 460.8 345.6" xmlns="http://www.w3.org/2000/svg" version="1.1">
 <metadata>
  <rdf:RDF xmlns:dc="http://purl.org/dc/elements/1.1/" xmlns:cc="http://creativecommons.org/ns#" xmlns:rdf="http://www.w3.org/1999/02/22-rdf-syntax-ns#">
   <cc:Work>
    <dc:type rdf:resource="http://purl.org/dc/dcmitype/StillImage"/>
    <dc:date>2024-01-16T22:30:38.662164</dc:date>
    <dc:format>image/svg+xml</dc:format>
    <dc:creator>
     <cc:Agent>
      <dc:title>Matplotlib v3.5.0, https://matplotlib.org/</dc:title>
     </cc:Agent>
    </dc:creator>
   </cc:Work>
  </rdf:RDF>
 </metadata>
 <defs>
  <style type="text/css">*{stroke-linejoin: round; stroke-linecap: butt}</style>
 </defs>
 <g id="figure_1">
  <g id="patch_1">
   <path d="M 0 345.6 
L 460.8 345.6 
L 460.8 0 
L 0 0 
z
" style="fill: #ffffff"/>
  </g>
  <g id="axes_1">
   <g id="patch_2">
    <path d="M 57.6 307.584 
L 414.72 307.584 
L 414.72 41.472 
L 57.6 41.472 
z
" style="fill: #ffffff"/>
   </g>
   <g id="matplotlib.axis_1">
    <g id="xtick_1">
     <g id="line2d_1">
      <defs>
       <path id="m62dbd230cc" d="M 0 0 
L 0 3.5 
" style="stroke: #000000; stroke-width: 0.8"/>
      </defs>
      <g>
       <use xlink:href="#m62dbd230cc" x="57.6" y="307.584" style="stroke: #000000; stroke-width: 0.8"/>
      </g>
     </g>
     <g id="text_1">
      <!-- 0 -->
      <g transform="translate(51.2375 329.780875)scale(0.2 -0.2)">
       <defs>
        <path id="DejaVuSans-30" d="M 2034 4250 
Q 1547 4250 1301 3770 
Q 1056 3291 1056 2328 
Q 1056 1369 1301 889 
Q 1547 409 2034 409 
Q 2525 409 2770 889 
Q 3016 1369 3016 2328 
Q 3016 3291 2770 3770 
Q 2525 4250 2034 4250 
z
M 2034 4750 
Q 2819 4750 3233 4129 
Q 3647 3509 3647 2328 
Q 3647 1150 3233 529 
Q 2819 -91 2034 -91 
Q 1250 -91 836 529 
Q 422 1150 422 2328 
Q 422 3509 836 4129 
Q 1250 4750 2034 4750 
z
" transform="scale(0.015625)"/>
       </defs>
       <use xlink:href="#DejaVuSans-30"/>
      </g>
     </g>
    </g>
    <g id="xtick_2">
     <g id="line2d_2">
      <g>
       <use xlink:href="#m62dbd230cc" x="414.72" y="307.584" style="stroke: #000000; stroke-width: 0.8"/>
      </g>
     </g>
     <g id="text_2">
      <!-- 1 -->
      <g transform="translate(408.3575 329.780875)scale(0.2 -0.2)">
       <defs>
        <path id="DejaVuSans-31" d="M 794 531 
L 1825 531 
L 1825 4091 
L 703 3866 
L 703 4441 
L 1819 4666 
L 2450 4666 
L 2450 531 
L 3481 531 
L 3481 0 
L 794 0 
L 794 531 
z
" transform="scale(0.015625)"/>
       </defs>
       <use xlink:href="#DejaVuSans-31"/>
      </g>
     </g>
    </g>
    <g id="text_3">
     <!-- Normalised X position -->
     <g transform="translate(111.795937 353.137125)scale(0.2 -0.2)">
      <defs>
       <path id="DejaVuSans-Bold-4e" d="M 588 4666 
L 1931 4666 
L 3628 1466 
L 3628 4666 
L 4769 4666 
L 4769 0 
L 3425 0 
L 1728 3200 
L 1728 0 
L 588 0 
L 588 4666 
z
" transform="scale(0.015625)"/>
       <path id="DejaVuSans-Bold-6f" d="M 2203 2784 
Q 1831 2784 1636 2517 
Q 1441 2250 1441 1747 
Q 1441 1244 1636 976 
Q 1831 709 2203 709 
Q 2569 709 2762 976 
Q 2956 1244 2956 1747 
Q 2956 2250 2762 2517 
Q 2569 2784 2203 2784 
z
M 2203 3584 
Q 3106 3584 3614 3096 
Q 4122 2609 4122 1747 
Q 4122 884 3614 396 
Q 3106 -91 2203 -91 
Q 1297 -91 786 396 
Q 275 884 275 1747 
Q 275 2609 786 3096 
Q 1297 3584 2203 3584 
z
" transform="scale(0.015625)"/>
       <path id="DejaVuSans-Bold-72" d="M 3138 2547 
Q 2991 2616 2845 2648 
Q 2700 2681 2553 2681 
Q 2122 2681 1889 2404 
Q 1656 2128 1656 1613 
L 1656 0 
L 538 0 
L 538 3500 
L 1656 3500 
L 1656 2925 
Q 1872 3269 2151 3426 
Q 2431 3584 2822 3584 
Q 2878 3584 2943 3579 
Q 3009 3575 3134 3559 
L 3138 2547 
z
" transform="scale(0.015625)"/>
       <path id="DejaVuSans-Bold-6d" d="M 3781 2919 
Q 3994 3244 4286 3414 
Q 4578 3584 4928 3584 
Q 5531 3584 5847 3212 
Q 6163 2841 6163 2131 
L 6163 0 
L 5038 0 
L 5038 1825 
Q 5041 1866 5042 1909 
Q 5044 1953 5044 2034 
Q 5044 2406 4934 2573 
Q 4825 2741 4581 2741 
Q 4263 2741 4089 2478 
Q 3916 2216 3909 1719 
L 3909 0 
L 2784 0 
L 2784 1825 
Q 2784 2406 2684 2573 
Q 2584 2741 2328 2741 
Q 2006 2741 1831 2477 
Q 1656 2213 1656 1722 
L 1656 0 
L 531 0 
L 531 3500 
L 1656 3500 
L 1656 2988 
Q 1863 3284 2130 3434 
Q 2397 3584 2719 3584 
Q 3081 3584 3359 3409 
Q 3638 3234 3781 2919 
z
" transform="scale(0.015625)"/>
       <path id="DejaVuSans-Bold-61" d="M 2106 1575 
Q 1756 1575 1579 1456 
Q 1403 1338 1403 1106 
Q 1403 894 1545 773 
Q 1688 653 1941 653 
Q 2256 653 2472 879 
Q 2688 1106 2688 1447 
L 2688 1575 
L 2106 1575 
z
M 3816 1997 
L 3816 0 
L 2688 0 
L 2688 519 
Q 2463 200 2181 54 
Q 1900 -91 1497 -91 
Q 953 -91 614 226 
Q 275 544 275 1050 
Q 275 1666 698 1953 
Q 1122 2241 2028 2241 
L 2688 2241 
L 2688 2328 
Q 2688 2594 2478 2717 
Q 2269 2841 1825 2841 
Q 1466 2841 1156 2769 
Q 847 2697 581 2553 
L 581 3406 
Q 941 3494 1303 3539 
Q 1666 3584 2028 3584 
Q 2975 3584 3395 3211 
Q 3816 2838 3816 1997 
z
" transform="scale(0.015625)"/>
       <path id="DejaVuSans-Bold-6c" d="M 538 4863 
L 1656 4863 
L 1656 0 
L 538 0 
L 538 4863 
z
" transform="scale(0.015625)"/>
       <path id="DejaVuSans-Bold-69" d="M 538 3500 
L 1656 3500 
L 1656 0 
L 538 0 
L 538 3500 
z
M 538 4863 
L 1656 4863 
L 1656 3950 
L 538 3950 
L 538 4863 
z
" transform="scale(0.015625)"/>
       <path id="DejaVuSans-Bold-73" d="M 3272 3391 
L 3272 2541 
Q 2913 2691 2578 2766 
Q 2244 2841 1947 2841 
Q 1628 2841 1473 2761 
Q 1319 2681 1319 2516 
Q 1319 2381 1436 2309 
Q 1553 2238 1856 2203 
L 2053 2175 
Q 2913 2066 3209 1816 
Q 3506 1566 3506 1031 
Q 3506 472 3093 190 
Q 2681 -91 1863 -91 
Q 1516 -91 1145 -36 
Q 775 19 384 128 
L 384 978 
Q 719 816 1070 734 
Q 1422 653 1784 653 
Q 2113 653 2278 743 
Q 2444 834 2444 1013 
Q 2444 1163 2330 1236 
Q 2216 1309 1875 1350 
L 1678 1375 
Q 931 1469 631 1722 
Q 331 1975 331 2491 
Q 331 3047 712 3315 
Q 1094 3584 1881 3584 
Q 2191 3584 2531 3537 
Q 2872 3491 3272 3391 
z
" transform="scale(0.015625)"/>
       <path id="DejaVuSans-Bold-65" d="M 4031 1759 
L 4031 1441 
L 1416 1441 
Q 1456 1047 1700 850 
Q 1944 653 2381 653 
Q 2734 653 3104 758 
Q 3475 863 3866 1075 
L 3866 213 
Q 3469 63 3072 -14 
Q 2675 -91 2278 -91 
Q 1328 -91 801 392 
Q 275 875 275 1747 
Q 275 2603 792 3093 
Q 1309 3584 2216 3584 
Q 3041 3584 3536 3087 
Q 4031 2591 4031 1759 
z
M 2881 2131 
Q 2881 2450 2695 2645 
Q 2509 2841 2209 2841 
Q 1884 2841 1681 2658 
Q 1478 2475 1428 2131 
L 2881 2131 
z
" transform="scale(0.015625)"/>
       <path id="DejaVuSans-Bold-64" d="M 2919 2988 
L 2919 4863 
L 4044 4863 
L 4044 0 
L 2919 0 
L 2919 506 
Q 2688 197 2409 53 
Q 2131 -91 1766 -91 
Q 1119 -91 703 423 
Q 288 938 288 1747 
Q 288 2556 703 3070 
Q 1119 3584 1766 3584 
Q 2128 3584 2408 3439 
Q 2688 3294 2919 2988 
z
M 2181 722 
Q 2541 722 2730 984 
Q 2919 1247 2919 1747 
Q 2919 2247 2730 2509 
Q 2541 2772 2181 2772 
Q 1825 2772 1636 2509 
Q 1447 2247 1447 1747 
Q 1447 1247 1636 984 
Q 1825 722 2181 722 
z
" transform="scale(0.015625)"/>
       <path id="DejaVuSans-Bold-20" transform="scale(0.015625)"/>
       <path id="DejaVuSans-Bold-58" d="M 3188 2381 
L 4806 0 
L 3553 0 
L 2463 1594 
L 1381 0 
L 122 0 
L 1741 2381 
L 184 4666 
L 1441 4666 
L 2463 3163 
L 3481 4666 
L 4744 4666 
L 3188 2381 
z
" transform="scale(0.015625)"/>
       <path id="DejaVuSans-Bold-70" d="M 1656 506 
L 1656 -1331 
L 538 -1331 
L 538 3500 
L 1656 3500 
L 1656 2988 
Q 1888 3294 2169 3439 
Q 2450 3584 2816 3584 
Q 3463 3584 3878 3070 
Q 4294 2556 4294 1747 
Q 4294 938 3878 423 
Q 3463 -91 2816 -91 
Q 2450 -91 2169 54 
Q 1888 200 1656 506 
z
M 2400 2772 
Q 2041 2772 1848 2508 
Q 1656 2244 1656 1747 
Q 1656 1250 1848 986 
Q 2041 722 2400 722 
Q 2759 722 2948 984 
Q 3138 1247 3138 1747 
Q 3138 2247 2948 2509 
Q 2759 2772 2400 2772 
z
" transform="scale(0.015625)"/>
       <path id="DejaVuSans-Bold-74" d="M 1759 4494 
L 1759 3500 
L 2913 3500 
L 2913 2700 
L 1759 2700 
L 1759 1216 
Q 1759 972 1856 886 
Q 1953 800 2241 800 
L 2816 800 
L 2816 0 
L 1856 0 
Q 1194 0 917 276 
Q 641 553 641 1216 
L 641 2700 
L 84 2700 
L 84 3500 
L 641 3500 
L 641 4494 
L 1759 4494 
z
" transform="scale(0.015625)"/>
       <path id="DejaVuSans-Bold-6e" d="M 4056 2131 
L 4056 0 
L 2931 0 
L 2931 347 
L 2931 1631 
Q 2931 2084 2911 2256 
Q 2891 2428 2841 2509 
Q 2775 2619 2662 2680 
Q 2550 2741 2406 2741 
Q 2056 2741 1856 2470 
Q 1656 2200 1656 1722 
L 1656 0 
L 538 0 
L 538 3500 
L 1656 3500 
L 1656 2988 
Q 1909 3294 2193 3439 
Q 2478 3584 2822 3584 
Q 3428 3584 3742 3212 
Q 4056 2841 4056 2131 
z
" transform="scale(0.015625)"/>
      </defs>
      <use xlink:href="#DejaVuSans-Bold-4e"/>
      <use xlink:href="#DejaVuSans-Bold-6f" x="83.691406"/>
      <use xlink:href="#DejaVuSans-Bold-72" x="152.392578"/>
      <use xlink:href="#DejaVuSans-Bold-6d" x="201.708984"/>
      <use xlink:href="#DejaVuSans-Bold-61" x="305.908203"/>
      <use xlink:href="#DejaVuSans-Bold-6c" x="373.388672"/>
      <use xlink:href="#DejaVuSans-Bold-69" x="407.666016"/>
      <use xlink:href="#DejaVuSans-Bold-73" x="441.943359"/>
      <use xlink:href="#DejaVuSans-Bold-65" x="501.464844"/>
      <use xlink:href="#DejaVuSans-Bold-64" x="569.287109"/>
      <use xlink:href="#DejaVuSans-Bold-20" x="640.869141"/>
      <use xlink:href="#DejaVuSans-Bold-58" x="675.683594"/>
      <use xlink:href="#DejaVuSans-Bold-20" x="752.783203"/>
      <use xlink:href="#DejaVuSans-Bold-70" x="787.597656"/>
      <use xlink:href="#DejaVuSans-Bold-6f" x="859.179688"/>
      <use xlink:href="#DejaVuSans-Bold-73" x="927.880859"/>
      <use xlink:href="#DejaVuSans-Bold-69" x="987.402344"/>
      <use xlink:href="#DejaVuSans-Bold-74" x="1021.679688"/>
      <use xlink:href="#DejaVuSans-Bold-69" x="1069.482422"/>
      <use xlink:href="#DejaVuSans-Bold-6f" x="1103.759766"/>
      <use xlink:href="#DejaVuSans-Bold-6e" x="1172.460938"/>
     </g>
    </g>
   </g>
   <g id="matplotlib.axis_2">
    <g id="ytick_1">
     <g id="line2d_3">
      <defs>
       <path id="mb2c67c0e7c" d="M 0 0 
L -3.5 0 
" style="stroke: #000000; stroke-width: 0.8"/>
      </defs>
      <g>
       <use xlink:href="#mb2c67c0e7c" x="57.6" y="307.584" style="stroke: #000000; stroke-width: 0.8"/>
      </g>
     </g>
     <g id="text_4">
      <!-- 0 -->
      <g transform="translate(37.875 315.182437)scale(0.2 -0.2)">
       <use xlink:href="#DejaVuSans-30"/>
      </g>
     </g>
    </g>
    <g id="ytick_2">
     <g id="line2d_4">
      <g>
       <use xlink:href="#mb2c67c0e7c" x="57.6" y="41.472" style="stroke: #000000; stroke-width: 0.8"/>
      </g>
     </g>
     <g id="text_5">
      <!-- 1 -->
      <g transform="translate(37.875 49.070438)scale(0.2 -0.2)">
       <use xlink:href="#DejaVuSans-31"/>
      </g>
     </g>
    </g>
    <g id="text_6">
     <!-- Normalised Y position -->
     <g transform="translate(29.715625 298.423313)rotate(-90)scale(0.2 -0.2)">
      <defs>
       <path id="DejaVuSans-Bold-59" d="M -63 4666 
L 1253 4666 
L 2316 3003 
L 3378 4666 
L 4697 4666 
L 2919 1966 
L 2919 0 
L 1716 0 
L 1716 1966 
L -63 4666 
z
" transform="scale(0.015625)"/>
      </defs>
      <use xlink:href="#DejaVuSans-Bold-4e"/>
      <use xlink:href="#DejaVuSans-Bold-6f" x="83.691406"/>
      <use xlink:href="#DejaVuSans-Bold-72" x="152.392578"/>
      <use xlink:href="#DejaVuSans-Bold-6d" x="201.708984"/>
      <use xlink:href="#DejaVuSans-Bold-61" x="305.908203"/>
      <use xlink:href="#DejaVuSans-Bold-6c" x="373.388672"/>
      <use xlink:href="#DejaVuSans-Bold-69" x="407.666016"/>
      <use xlink:href="#DejaVuSans-Bold-73" x="441.943359"/>
      <use xlink:href="#DejaVuSans-Bold-65" x="501.464844"/>
      <use xlink:href="#DejaVuSans-Bold-64" x="569.287109"/>
      <use xlink:href="#DejaVuSans-Bold-20" x="640.869141"/>
      <use xlink:href="#DejaVuSans-Bold-59" x="675.683594"/>
      <use xlink:href="#DejaVuSans-Bold-20" x="748.095703"/>
      <use xlink:href="#DejaVuSans-Bold-70" x="782.910156"/>
      <use xlink:href="#DejaVuSans-Bold-6f" x="854.492188"/>
      <use xlink:href="#DejaVuSans-Bold-73" x="923.193359"/>
      <use xlink:href="#DejaVuSans-Bold-69" x="982.714844"/>
      <use xlink:href="#DejaVuSans-Bold-74" x="1016.992188"/>
      <use xlink:href="#DejaVuSans-Bold-69" x="1064.794922"/>
      <use xlink:href="#DejaVuSans-Bold-6f" x="1099.072266"/>
      <use xlink:href="#DejaVuSans-Bold-6e" x="1167.773438"/>
     </g>
    </g>
   </g>
   <g id="line2d_5">
    <path d="M 282.907468 129.213918 
L 283.520549 131.522915 
L 284.133631 132.966039 
L 284.133631 134.986412 
L 283.82709 136.718161 
L 283.520549 137.584035 
L 282.907468 138.449909 
L 281.374764 138.449909 
L 279.228979 138.738534 
L 276.776652 139.027158 
L 274.630867 139.604408 
L 273.711245 139.893033 
L 274.630867 140.758907 
L 275.85703 141.913406 
L 277.083193 143.356529 
L 277.389734 143.356529 
L 276.163571 143.356529 
L 274.324326 143.356529 
L 273.711245 143.067905 
L 272.791622 143.067905 
L 272.485082 143.356529 
L 271.565459 143.645154 
L 270.952378 143.645154 
L 270.952378 144.222403 
L 271.258918 144.511028 
L 271.565459 145.088278 
L 271.872 144.799653 
L 272.791622 144.799653 
L 273.404704 143.933779 
L 274.630867 143.933779 
L 275.243948 143.356529 
L 277.083193 142.77928 
L 278.002815 142.20203 
L 278.922438 141.624781 
L 279.228979 141.913406 
L 280.148601 141.336156 
L 280.455142 141.047531 
L 281.068223 141.336156 
L 281.068223 140.758907 
L 281.681305 141.047531 
L 281.374764 141.047531 
L 281.374764 141.047531 
L 280.761682 141.047531 
L 280.455142 141.047531 
L 280.148601 142.20203 
L 279.84206 142.490655 
L 279.228979 143.356529 
L 278.615897 143.933779 
L 278.922438 145.088278 
L 278.922438 146.242777 
L 278.922438 147.6859 
L 279.228979 149.129024 
L 277.696275 150.860772 
L 277.083193 152.303896 
L 278.002815 152.592521 
L 277.696275 154.035644 
L 277.696275 155.190143 
L 278.922438 158.65364 
L 277.696275 161.539887 
L 277.389734 162.117137 
L 276.776652 164.426134 
L 276.163571 165.003384 
L 274.630867 167.312382 
L 274.017785 168.178256 
L 273.404704 170.198629 
L 271.565459 172.507627 
L 271.258918 173.950751 
L 270.952378 174.528 
L 269.419674 176.548373 
L 268.193511 177.702872 
L 267.273888 178.857371 
L 266.047725 180.01187 
L 264.208481 180.877744 
L 262.982318 181.166369 
L 261.756155 180.877744 
L 257.464584 182.320868 
L 255.625339 180.589119 
L 255.012258 180.300495 
L 255.012258 180.01187 
L 254.399176 180.01187 
L 254.092635 180.01187 
L 253.479554 179.723245 
L 252.866472 179.723245 
L 251.94685 179.723245 
L 251.027227 179.723245 
L 250.720687 179.43462 
L 250.720687 179.723245 
L 250.720687 179.723245 
L 250.720687 179.723245 
L 251.027227 179.723245 
L 251.333768 180.01187 
L 251.94685 180.01187 
L 252.253391 180.300495 
L 252.559931 180.589119 
L 252.253391 180.589119 
L 252.866472 181.166369 
L 253.786094 181.166369 
L 254.705717 181.454993 
L 255.318798 181.454993 
L 255.93188 181.743618 
L 256.544961 182.898117 
L 257.464584 183.475367 
L 258.690747 183.763991 
L 259.610369 183.763991 
L 260.529991 184.052616 
L 261.449614 184.341241 
L 262.675777 184.341241 
L 268.193511 184.91849 
L 267.273888 184.629866 
L 268.500052 184.052616 
L 270.339296 183.475367 
L 271.872 183.186742 
L 273.098163 183.186742 
" clip-path="url(#p8c7d9ef16a)" style="fill: none; stroke: #000000; stroke-width: 1.5; stroke-linecap: square"/>
   </g>
   <g id="line2d_6">
    <path d="M 282.907468 129.213918 
" clip-path="url(#p8c7d9ef16a)" style="fill: none; stroke: #000000; stroke-width: 1.5; stroke-linecap: square"/>
    <defs>
     <path id="mc0e173898d" d="M 0 5 
C 1.326016 5 2.597899 4.473168 3.535534 3.535534 
C 4.473168 2.597899 5 1.326016 5 0 
C 5 -1.326016 4.473168 -2.597899 3.535534 -3.535534 
C 2.597899 -4.473168 1.326016 -5 0 -5 
C -1.326016 -5 -2.597899 -4.473168 -3.535534 -3.535534 
C -4.473168 -2.597899 -5 -1.326016 -5 0 
C -5 1.326016 -4.473168 2.597899 -3.535534 3.535534 
C -2.597899 4.473168 -1.326016 5 0 5 
z
" style="stroke: #000000"/>
    </defs>
    <g clip-path="url(#p8c7d9ef16a)">
     <use xlink:href="#mc0e173898d" x="282.907468" y="129.213918" style="stroke: #000000"/>
    </g>
   </g>
   <g id="line2d_7">
    <path d="M 273.098163 183.186742 
" clip-path="url(#p8c7d9ef16a)" style="fill: none; stroke: #000000; stroke-width: 1.5; stroke-linecap: square"/>
    <defs>
     <path id="mf4a750eb64" d="M -5 5 
L 5 5 
L 5 -5 
L -5 -5 
z
" style="stroke: #000000; stroke-linejoin: miter"/>
    </defs>
    <g clip-path="url(#p8c7d9ef16a)">
     <use xlink:href="#mf4a750eb64" x="273.098163" y="183.186742" style="stroke: #000000; stroke-linejoin: miter"/>
    </g>
   </g>
   <g id="line2d_8">
    <path d="M 233.860944 146.531401 
L 231.408618 147.6859 
L 230.182455 148.551774 
L 229.875914 149.129024 
L 228.956292 150.283523 
L 226.810506 150.283523 
L 224.971262 151.438022 
L 222.825476 152.303896 
L 220.986232 153.74702 
L 216.694661 155.478768 
L 214.548876 156.056017 
L 206.885356 158.65364 
L 206.578815 159.808139 
L 206.272275 159.519514 
L 206.272275 160.096764 
L 205.965734 159.808139 
L 208.724601 161.539887 
L 210.563845 163.271636 
L 211.483468 163.848885 
L 212.096549 164.714759 
L 213.322712 165.580633 
L 215.161957 166.735132 
L 217.307742 166.446508 
L 219.146987 167.312382 
L 220.37315 169.04413 
L 222.518936 170.487254 
L 224.971262 171.641753 
L 228.03667 172.507627 
L 230.488996 173.373501 
L 233.554403 173.373501 
L 237.845974 174.528 
L 241.217923 175.105249 
L 241.831004 173.373501 
L 243.057167 173.662126 
L 244.896412 173.662126 
L 247.042197 174.239375 
L 248.574901 174.816625 
L 250.107605 175.105249 
L 252.559931 175.393874 
L 255.012258 176.548373 
L 257.771124 177.991497 
L 260.836532 179.43462 
L 263.90194 181.454993 
L 268.193511 183.186742 
L 271.258918 185.49574 
L 274.937408 187.227488 
L 277.083193 190.690985 
L 275.85703 190.40236 
L 283.214009 198.483852 
L 286.279416 201.658725 
L 289.651365 205.410846 
L 290.877528 208.008469 
L 292.716773 210.606091 
L 294.862558 213.203714 
L 296.088721 217.24446 
L 297.621425 220.707957 
L 300.993373 227.057701 
L 302.832618 231.098447 
L 304.365322 233.696069 
L 306.817648 236.870941 
L 317.546575 252.745302 
L 319.38582 256.208798 
L 322.144687 260.249544 
L 324.597013 263.424416 
L 326.742798 266.599289 
L 329.501665 269.774161 
L 331.034369 270.640035 
L 332.567073 272.083158 
L 334.406318 272.660408 
L 336.245562 273.814907 
L 338.391348 274.392156 
L 339.924052 276.412529 
L 342.069837 276.123905 
L 343.909082 277.278403 
L 346.054867 277.567028 
L 347.894112 277.567028 
L 351.26606 276.989779 
L 353.105305 276.412529 
L 354.944549 275.546655 
L 357.090335 274.969406 
L 362.914609 271.217284 
L 363.834232 270.062785 
L 364.753854 268.619662 
L 365.673476 266.887913 
L 368.738884 261.981293 
L 369.658506 259.96092 
L 370.271588 258.229171 
L 371.804292 256.786048 
L 372.110833 255.342924 
L 372.723914 253.611176 
L 373.643536 252.168052 
L 374.563159 251.013553 
L 374.8697 249.57043 
L 376.095863 247.838681 
L 377.322026 246.395557 
L 378.241648 244.663809 
L 378.241648 241.777562 
L 378.85473 239.179939 
L 379.467811 237.159566 
L 379.774352 235.139193 
L 380.387433 233.11882 
L 381.920137 232.252946 
L 381.920137 230.232573 
L 381.307056 227.923575 
L 381.307056 219.842082 
L 381.920137 216.378586 
L 383.1463 216.089961 
L 383.452841 214.935462 
L 384.372464 214.358213 
L 384.985545 213.203714 
L 385.905167 212.915089 
L 386.82479 212.049215 
L 387.744412 212.049215 
L 388.050953 211.471965 
L 388.970575 211.183341 
L 390.196738 211.471965 
L 392.035983 211.471965 
L 394.181768 210.894716 
L 395.101391 210.317466 
L 395.714472 209.740217 
L 396.940635 208.874343 
L 398.166798 208.297093 
L 398.473339 207.719844 
L 399.086421 206.85397 
L 400.312584 205.988095 
L 401.232206 204.544972 
L 401.845288 203.101848 
L 401.538747 202.524599 
L 401.538747 201.947349 
L 400.925665 201.658725 
L 400.619124 201.947349 
L 400.312584 201.947349 
L 399.699502 202.235974 
L 399.086421 202.813223 
L 399.086421 203.390473 
L 398.473339 203.679098 
L 398.166798 203.967722 
L 398.166798 204.256347 
L 397.860258 204.544972 
L 396.940635 204.544972 
L 396.327554 204.256347 
L 396.021013 203.390473 
L 394.79485 202.813223 
L 394.181768 201.947349 
L 386.518249 197.040729 
L 384.985545 195.88623 
L 383.1463 195.020356 
L 381.307056 193.865857 
L 378.241648 192.422733 
L 374.8697 190.40236 
L 371.497751 189.247861 
L 368.738884 187.516113 
L 365.673476 186.938863 
L 362.301528 184.91849 
L 359.542661 184.91849 
L 356.170712 182.898117 
L 354.024927 182.320868 
L 350.346438 181.166369 
L 341.763296 177.702872 
L 336.858644 176.836998 
L 329.808206 174.528 
L 326.742798 173.373501 
L 323.064309 172.219002 
L 317.853116 171.641753 
L 310.802678 168.755505 
L 308.963433 168.466881 
L 304.365322 167.023757 
L 302.526077 167.312382 
L 300.993373 167.312382 
L 301.299914 167.601007 
L 301.299914 168.178256 
L 300.073751 168.178256 
L 299.76721 168.466881 
L 299.76721 168.755505 
L 299.46067 169.04413 
L 299.76721 169.332755 
L 299.46067 169.62138 
L 299.76721 170.198629 
L 299.154129 170.487254 
L 299.46067 171.064503 
L 299.154129 171.641753 
L 299.46067 171.930377 
L 299.154129 172.219002 
L 300.380292 171.930377 
L 299.76721 172.507627 
L 299.46067 173.084876 
L 297.314884 171.930377 
L 298.541047 172.507627 
L 296.701803 171.930377 
L 297.008343 173.084876 
L 296.088721 173.950751 
L 296.088721 174.816625 
L 295.475639 175.971124 
L 295.169099 176.259748 
L 294.862558 176.836998 
L 294.556017 177.125623 
L 294.556017 177.125623 
L 293.942936 176.836998 
L 293.636395 176.548373 
L 293.023313 176.259748 
L 293.023313 176.548373 
L 293.023313 176.548373 
L 292.716773 177.125623 
L 292.410232 177.125623 
L 292.410232 177.414247 
L 292.103691 177.702872 
L 289.957906 177.702872 
L 289.344824 178.280121 
L 288.731742 178.568746 
L 294.862558 184.629866 
L 299.46067 187.804738 
L 301.299914 188.381987 
L 302.526077 189.247861 
L 304.365322 191.556859 
L 304.978403 191.845484 
L 305.898026 192.422733 
L 308.043811 195.30898 
L 312.948464 199.926976 
L 314.174627 200.504226 
L 315.40079 201.658725 
L 315.70733 202.813223 
L 317.546575 203.967722 
L 318.772738 205.122221 
L 319.692361 205.699471 
L 320.611983 206.565345 
L 321.531605 207.142594 
L 322.451227 208.008469 
L 322.451227 208.874343 
L 323.064309 209.451592 
L 323.983931 210.028842 
L 325.823176 210.606091 
L 328.888584 212.049215 
L 329.501665 212.626464 
L 330.114747 212.915089 
L 331.647451 213.203714 
L 332.567073 213.492338 
L 334.406318 214.358213 
L 335.019399 214.358213 
L 336.552103 214.069588 
L 337.471725 214.069588 
L 338.697888 213.492338 
L 339.004429 213.203714 
L 340.537133 213.203714 
L 340.843674 213.492338 
L 341.150215 213.492338 
L 342.376378 213.203714 
L 342.682918 213.492338 
L 343.602541 213.492338 
L 344.215622 213.203714 
L 344.828704 212.626464 
L 345.441785 212.337839 
L 345.441785 212.337839 
" clip-path="url(#p8c7d9ef16a)" style="fill: none; stroke: #ffa07a; stroke-width: 1.5; stroke-linecap: square"/>
   </g>
   <g id="line2d_9">
    <path d="M 233.860944 146.531401 
" clip-path="url(#p8c7d9ef16a)" style="fill: none; stroke: #ffa07a; stroke-width: 1.5; stroke-linecap: square"/>
    <defs>
     <path id="md040fcc722" d="M 0 5 
C 1.326016 5 2.597899 4.473168 3.535534 3.535534 
C 4.473168 2.597899 5 1.326016 5 0 
C 5 -1.326016 4.473168 -2.597899 3.535534 -3.535534 
C 2.597899 -4.473168 1.326016 -5 0 -5 
C -1.326016 -5 -2.597899 -4.473168 -3.535534 -3.535534 
C -4.473168 -2.597899 -5 -1.326016 -5 0 
C -5 1.326016 -4.473168 2.597899 -3.535534 3.535534 
C -2.597899 4.473168 -1.326016 5 0 5 
z
" style="stroke: #ffa07a"/>
    </defs>
    <g clip-path="url(#p8c7d9ef16a)">
     <use xlink:href="#md040fcc722" x="233.860944" y="146.531401" style="fill: #ffa07a; stroke: #ffa07a"/>
    </g>
   </g>
   <g id="line2d_10">
    <path d="M 345.441785 212.337839 
" clip-path="url(#p8c7d9ef16a)" style="fill: none; stroke: #ffa07a; stroke-width: 1.5; stroke-linecap: square"/>
    <defs>
     <path id="m7bae32c3f3" d="M -5 5 
L 5 5 
L 5 -5 
L -5 -5 
z
" style="stroke: #ffa07a; stroke-linejoin: miter"/>
    </defs>
    <g clip-path="url(#p8c7d9ef16a)">
     <use xlink:href="#m7bae32c3f3" x="345.441785" y="212.337839" style="fill: #ffa07a; stroke: #ffa07a; stroke-linejoin: miter"/>
    </g>
   </g>
   <g id="line2d_11">
    <path d="M 247.96182 151.149397 
L 248.574901 150.860772 
L 248.881442 151.149397 
L 249.494524 150.572148 
L 249.801064 150.860772 
L 250.414146 150.860772 
L 249.801064 152.015271 
L 250.414146 151.726646 
L 249.801064 152.881145 
L 250.107605 153.16977 
L 250.107605 153.74702 
L 251.027227 153.458395 
L 251.333768 154.612894 
L 252.253391 154.612894 
L 253.173013 154.901518 
L 253.479554 155.190143 
L 253.479554 156.056017 
L 253.786094 155.190143 
L 254.399176 155.190143 
L 254.399176 155.478768 
L 254.705717 156.056017 
L 255.012258 155.478768 
L 255.625339 156.344642 
L 255.625339 155.767393 
L 256.238421 155.190143 
L 255.93188 156.056017 
L 255.93188 156.633267 
L 255.93188 156.344642 
L 256.544961 157.210516 
L 257.158043 157.499141 
L 257.464584 158.07639 
L 257.158043 158.07639 
L 257.771124 158.07639 
L 257.158043 159.230889 
L 257.464584 159.519514 
L 257.158043 159.808139 
L 256.851502 160.385388 
L 256.851502 160.385388 
L 256.238421 160.962638 
L 256.238421 162.117137 
L 255.93188 162.694386 
L 255.318798 162.694386 
L 253.173013 163.56026 
L 254.399176 164.13751 
L 254.092635 165.292009 
L 252.253391 166.446508 
L 252.559931 167.023757 
L 252.866472 167.889631 
L 251.333768 169.04413 
L 251.94685 169.04413 
L 250.414146 169.910004 
L 247.348738 171.353128 
L 248.574901 171.064503 
L 248.268361 171.641753 
L 247.348738 171.930377 
L 246.429116 172.507627 
L 243.363708 173.662126 
L 242.750627 174.239375 
L 240.2983 175.971124 
L 239.072137 177.125623 
L 237.845974 177.991497 
L 235.700189 179.723245 
L 233.554403 181.166369 
L 232.634781 182.032243 
L 233.247863 182.032243 
L 228.956292 186.072989 
L 229.569373 185.207115 
L 228.34321 186.938863 
L 228.34321 186.650239 
L 227.730129 187.227488 
L 228.956292 186.072989 
L 232.32824 183.763991 
L 230.795536 185.49574 
L 232.32824 184.341241 
L 233.860944 182.898117 
L 236.619811 181.166369 
L 238.152515 180.01187 
L 237.845974 180.589119 
L 238.152515 179.145996 
L 242.750627 175.971124 
L 241.524464 176.836998 
L 244.589871 171.064503 
L 245.509494 169.910004 
L 247.96182 166.157883 
L 248.268361 164.714759 
L 247.348738 164.714759 
L 248.881442 162.694386 
L 248.268361 162.694386 
L 249.801064 160.674013 
L 249.494524 160.962638 
L 250.720687 160.385388 
L 251.640309 159.808139 
L 251.94685 159.230889 
L 251.94685 155.767393 
L 251.333768 155.190143 
L 251.640309 154.324269 
L 251.333768 154.324269 
L 251.640309 155.478768 
L 251.94685 154.901518 
L 251.640309 154.901518 
L 251.640309 154.901518 
L 251.640309 155.478768 
L 251.333768 156.056017 
L 251.027227 156.344642 
L 250.720687 157.210516 
L 250.720687 158.07639 
L 251.027227 158.942265 
L 250.720687 160.385388 
L 249.801064 161.539887 
L 249.187983 163.56026 
L 248.574901 165.003384 
L 250.720687 165.869258 
L 250.414146 167.023757 
L 249.494524 168.755505 
L 249.187983 169.62138 
L 246.429116 171.641753 
L 247.348738 171.930377 
L 246.122575 172.796252 
L 246.429116 173.084876 
L 244.28333 174.239375 
L 244.28333 174.528 
L 242.750627 175.682499 
L 241.524464 176.259748 
L 240.2983 177.125623 
L 238.765597 177.702872 
L 236.926352 178.857371 
L 231.102077 183.475367 
L 228.649751 185.207115 
L 224.664721 187.227488 
L 222.518936 188.959236 
L 225.277803 189.825111 
L 221.905854 190.97961 
L 221.292773 191.556859 
L 220.066609 192.422733 
L 220.066609 193.288607 
L 219.146987 194.731731 
L 219.146987 195.020356 
L 219.760069 195.020356 
L 220.066609 195.30898 
L 220.37315 195.88623 
L 220.37315 195.597605 
L 220.679691 195.020356 
L 221.599313 194.154482 
L 221.599313 194.154482 
L 222.212395 193.865857 
L 222.825476 192.999983 
L 220.066609 193.865857 
L 220.37315 193.288607 
L 220.066609 192.422733 
L 219.453528 192.422733 
L 217.614283 192.711358 
L 217.920824 191.845484 
L 215.161957 191.845484 
L 213.935794 190.97961 
L 209.337682 190.97961 
L 206.885356 190.40236 
L 204.43303 191.268234 
L 201.367622 192.134108 
L 198.302215 193.288607 
L 189.105991 200.79285 
L 195.543348 193.288607 
L 192.784481 194.443106 
L 191.558318 193.865857 
L 188.799451 194.443106 
L 187.266747 194.443106 
L 185.427502 194.154482 
L 182.975176 195.30898 
L 180.216309 195.88623 
L 177.150901 195.88623 
L 175.618197 196.174855 
L 171.939708 195.597605 
L 170.100464 196.174855 
L 167.341597 195.88623 
L 165.808893 196.752104 
L 163.050026 196.752104 
L 161.210781 197.040729 
L 159.678077 197.040729 
L 157.532292 197.617978 
L 156.306129 198.195228 
L 156.61267 196.463479 
L 154.773425 197.906603 
L 152.321099 197.906603 
L 150.175313 198.483852 
L 148.94915 198.483852 
L 148.029528 198.772477 
L 147.109906 198.772477 
L 146.190283 198.483852 
L 145.577202 198.772477 
L 146.190283 198.195228 
L 146.190283 198.772477 
L 145.883742 199.061102 
L 146.190283 199.061102 
L 147.722987 198.772477 
L 148.029528 199.061102 
L 148.642609 199.349727 
L 148.94915 200.215601 
L 149.562232 200.504226 
L 149.868773 201.081475 
L 151.401476 200.504226 
L 154.160343 201.081475 
L 155.693047 201.3701 
L 156.61267 201.947349 
L 159.678077 202.524599 
L 160.5977 202.813223 
L 163.356567 203.101848 
L 166.421974 203.967722 
L 167.341597 203.679098 
L 169.793923 204.256347 
L 170.407004 204.544972 
L 171.939708 204.256347 
L 173.472412 204.544972 
L 173.778953 204.256347 
L 175.311657 204.833597 
L 175.924738 204.833597 
L 178.377064 205.410846 
L 178.990146 205.988095 
L 178.990146 206.27672 
L 179.296687 207.142594 
L 179.909768 207.719844 
L 179.909768 207.719844 
L 180.52285 208.585718 
L 181.442472 209.451592 
L 181.442472 209.740217 
L 181.442472 209.740217 
L 182.055554 210.894716 
L 182.055554 210.894716 
L 182.668635 211.76059 
L 182.362094 212.049215 
L 182.362094 212.626464 
L 182.668635 212.915089 
L 182.668635 212.915089 
L 184.50788 213.492338 
L 185.427502 213.492338 
L 185.734043 213.780963 
L 185.734043 213.780963 
L 185.427502 213.780963 
L 185.734043 213.780963 
L 185.120961 214.069588 
L 185.120961 214.069588 
L 183.588258 214.069588 
L 182.668635 213.780963 
L 181.135931 214.069588 
L 179.296687 214.069588 
L 177.457442 214.358213 
L 177.457442 214.358213 
" clip-path="url(#p8c7d9ef16a)" style="fill: none; stroke: #0000ff; stroke-width: 1.5; stroke-linecap: square"/>
   </g>
   <g id="line2d_12">
    <path d="M 247.96182 151.149397 
" clip-path="url(#p8c7d9ef16a)" style="fill: none; stroke: #0000ff; stroke-width: 1.5; stroke-linecap: square"/>
    <defs>
     <path id="m032effa588" d="M 0 5 
C 1.326016 5 2.597899 4.473168 3.535534 3.535534 
C 4.473168 2.597899 5 1.326016 5 0 
C 5 -1.326016 4.473168 -2.597899 3.535534 -3.535534 
C 2.597899 -4.473168 1.326016 -5 0 -5 
C -1.326016 -5 -2.597899 -4.473168 -3.535534 -3.535534 
C -4.473168 -2.597899 -5 -1.326016 -5 0 
C -5 1.326016 -4.473168 2.597899 -3.535534 3.535534 
C -2.597899 4.473168 -1.326016 5 0 5 
z
" style="stroke: #0000ff"/>
    </defs>
    <g clip-path="url(#p8c7d9ef16a)">
     <use xlink:href="#m032effa588" x="247.96182" y="151.149397" style="fill: #0000ff; stroke: #0000ff"/>
    </g>
   </g>
   <g id="line2d_13">
    <path d="M 177.457442 214.358213 
" clip-path="url(#p8c7d9ef16a)" style="fill: none; stroke: #0000ff; stroke-width: 1.5; stroke-linecap: square"/>
    <defs>
     <path id="m770ab7da47" d="M -5 5 
L 5 5 
L 5 -5 
L -5 -5 
z
" style="stroke: #0000ff; stroke-linejoin: miter"/>
    </defs>
    <g clip-path="url(#p8c7d9ef16a)">
     <use xlink:href="#m770ab7da47" x="177.457442" y="214.358213" style="fill: #0000ff; stroke: #0000ff; stroke-linejoin: miter"/>
    </g>
   </g>
   <g id="line2d_14">
    <path d="M 278.922438 215.224087 
L 279.228979 214.935462 
L 278.309356 214.935462 
L 278.309356 215.224087 
L 278.615897 214.935462 
L 278.615897 214.935462 
L 279.84206 214.358213 
L 280.148601 213.780963 
L 281.681305 213.780963 
L 281.681305 213.492338 
L 281.987845 213.492338 
L 282.294386 213.780963 
L 282.600927 213.203714 
L 282.600927 212.337839 
L 283.214009 212.915089 
L 283.214009 212.626464 
L 282.600927 212.337839 
L 282.600927 212.049215 
L 282.294386 212.049215 
L 281.681305 211.471965 
L 281.068223 210.317466 
L 280.761682 210.317466 
L 279.84206 209.740217 
L 279.535519 209.162967 
L 279.228979 208.297093 
L 279.228979 207.431219 
L 278.922438 206.85397 
L 278.615897 205.699471 
L 278.309356 205.122221 
L 277.389734 205.122221 
L 277.389734 202.524599 
L 276.776652 198.772477 
L 276.163571 197.617978 
L 275.243948 197.040729 
L 275.243948 195.30898 
L 274.017785 195.30898 
L 273.098163 194.154482 
L 272.791622 194.154482 
L 272.485082 193.288607 
L 272.791622 191.556859 
L 272.485082 190.97961 
L 272.178541 189.825111 
L 271.872 189.247861 
L 271.258918 188.670612 
L 271.258918 188.670612 
L 270.032755 188.381987 
L 268.806592 187.227488 
L 267.273888 184.052616 
L 264.515021 180.300495 
L 264.515021 176.548373 
L 263.595399 174.239375 
L 262.369236 171.930377 
L 262.062695 169.910004 
L 261.449614 168.466881 
L 259.303828 161.251262 
L 257.771124 159.519514 
L 256.851502 157.210516 
L 255.93188 152.303896 
L 255.93188 150.572148 
L 255.012258 147.974525 
L 254.399176 147.108651 
L 253.786094 145.088278 
L 255.318798 143.067905 
L 256.238421 142.490655 
L 257.158043 141.624781 
L 257.771124 140.470282 
L 258.077665 140.181657 
L 258.690747 139.893033 
L 258.997288 139.604408 
L 259.91691 137.29541 
L 262.369236 136.718161 
L 262.675777 136.140911 
L 262.982318 135.852286 
L 262.675777 135.275037 
L 261.449614 133.543289 
L 261.143073 132.677414 
L 261.756155 131.81154 
L 261.143073 129.791167 
L 260.223451 128.636668 
L 258.997288 126.32767 
L 258.384206 124.595922 
L 257.771124 123.441423 
L 257.158043 121.998299 
L 255.318798 119.112052 
L 253.786094 117.091679 
L 252.866472 114.205432 
L 250.720687 111.896434 
L 248.574901 109.876061 
L 243.363708 102.660443 
L 241.831004 100.928694 
L 240.604841 98.908321 
L 239.685219 98.042447 
L 238.459056 96.022074 
L 237.539433 94.867575 
L 236.926352 93.713076 
L 236.00673 92.558577 
L 234.167485 95.444824 
L 233.860944 90.249579 
L 232.941322 89.67233 
L 231.715159 89.383705 
L 230.182455 87.651957 
L 228.649751 86.208833 
L 228.34321 87.940581 
L 228.649751 88.517831 
L 228.03667 88.229206 
L 228.03667 87.651957 
L 227.117047 87.651957 
L 226.810506 86.786082 
L 225.584343 86.208833 
L 224.35818 86.208833 
L 224.35818 85.631584 
L 223.745099 85.342959 
L 223.438558 85.342959 
L 223.745099 85.054334 
L 224.35818 85.342959 
L 223.745099 85.054334 
L 222.825476 85.054334 
L 222.212395 85.631584 
L 220.986232 84.477085 
L 219.146987 84.18846 
L 219.146987 85.631584 
L 219.453528 83.033961 
L 218.840446 85.054334 
L 218.533906 84.18846 
L 217.920824 83.899835 
L 217.614283 84.765709 
L 217.614283 84.477085 
L 217.001202 83.61121 
L 216.694661 83.899835 
L 214.855416 84.765709 
L 214.855416 84.18846 
L 214.242335 83.61121 
L 213.322712 83.322586 
L 212.709631 82.168087 
L 211.483468 81.590837 
L 209.644223 82.168087 
L 209.031142 81.879462 
L 209.950764 83.033961 
L 209.337682 81.879462 
L 208.111519 82.745336 
L 207.498438 81.879462 
L 206.272275 80.724963 
L 203.819948 80.724963 
L 201.980704 78.993215 
L 200.754541 78.415965 
L 198.608755 77.550091 
L 197.076052 77.261466 
L 195.849888 76.106967 
L 193.397562 76.395592 
L 193.091021 74.086594 
L 188.799451 74.952469 
L 188.186369 72.932095 
L 186.347124 71.777597 
L 176.53782 67.448226 
L 185.120961 71.200347 
L 185.427502 69.757223 
L 185.120961 69.179974 
L 186.040584 69.179974 
L 186.040584 68.891349 
L 185.427502 68.891349 
L 186.653665 69.468599 
L 186.960206 72.066221 
L 186.347124 72.066221 
L 186.960206 70.911722 
L 186.960206 70.911722 
L 188.49291 72.066221 
L 190.025614 70.334473 
L 190.945236 70.911722 
L 192.47794 71.200347 
L 192.784481 71.777597 
L 193.704103 71.777597 
L 194.623725 72.066221 
L 195.543348 73.22072 
L 196.769511 72.643471 
L 197.995674 73.79797 
L 200.141459 73.79797 
L 201.367622 75.529718 
L 202.593785 75.529718 
L 203.206867 74.952469 
L 203.513408 74.086594 
L 204.43303 76.106967 
L 206.272275 75.818343 
L 208.111519 76.395592 
L 209.644223 76.106967 
L 211.790009 76.106967 
L 212.709631 75.241093 
L 213.322712 74.952469 
L 213.935794 74.375219 
L 215.468498 75.529718 
L 215.775039 75.241093 
L 216.081579 73.79797 
L 217.614283 75.241093 
L 218.227365 74.663844 
L 219.453528 74.086594 
L 220.37315 74.375219 
L 221.292773 74.952469 
L 222.212395 75.241093 
L 222.212395 74.375219 
L 222.518936 76.106967 
L 223.438558 75.818343 
L 224.051639 77.261466 
L 225.584343 77.550091 
L 227.730129 76.972842 
L 228.03667 77.261466 
L 229.569373 78.127341 
L 230.795536 78.127341 
L 232.32824 78.70459 
L 235.393648 81.013588 
L 236.00673 81.302213 
L 236.00673 81.879462 
L 237.232893 82.745336 
L 238.152515 80.147714 
L 237.232893 80.436338 
L 237.232893 82.745336 
L 238.459056 83.61121 
L 239.378678 85.342959 
L 236.619811 85.920208 
L 240.911382 86.497458 
L 240.911382 86.497458 
" clip-path="url(#p8c7d9ef16a)" style="fill: none; stroke: #00fa9a; stroke-width: 1.5; stroke-linecap: square"/>
   </g>
   <g id="line2d_15">
    <path d="M 278.922438 215.224087 
" clip-path="url(#p8c7d9ef16a)" style="fill: none; stroke: #00fa9a; stroke-width: 1.5; stroke-linecap: square"/>
    <defs>
     <path id="m7bede5273a" d="M 0 5 
C 1.326016 5 2.597899 4.473168 3.535534 3.535534 
C 4.473168 2.597899 5 1.326016 5 0 
C 5 -1.326016 4.473168 -2.597899 3.535534 -3.535534 
C 2.597899 -4.473168 1.326016 -5 0 -5 
C -1.326016 -5 -2.597899 -4.473168 -3.535534 -3.535534 
C -4.473168 -2.597899 -5 -1.326016 -5 0 
C -5 1.326016 -4.473168 2.597899 -3.535534 3.535534 
C -2.597899 4.473168 -1.326016 5 0 5 
z
" style="stroke: #00fa9a"/>
    </defs>
    <g clip-path="url(#p8c7d9ef16a)">
     <use xlink:href="#m7bede5273a" x="278.922438" y="215.224087" style="fill: #00fa9a; stroke: #00fa9a"/>
    </g>
   </g>
   <g id="line2d_16">
    <path d="M 240.911382 86.497458 
" clip-path="url(#p8c7d9ef16a)" style="fill: none; stroke: #00fa9a; stroke-width: 1.5; stroke-linecap: square"/>
    <defs>
     <path id="m849d91d035" d="M -5 5 
L 5 5 
L 5 -5 
L -5 -5 
z
" style="stroke: #00fa9a; stroke-linejoin: miter"/>
    </defs>
    <g clip-path="url(#p8c7d9ef16a)">
     <use xlink:href="#m849d91d035" x="240.911382" y="86.497458" style="fill: #00fa9a; stroke: #00fa9a; stroke-linejoin: miter"/>
    </g>
   </g>
   <g id="line2d_17">
    <path d="M 260.223451 188.093362 
L 259.91691 188.381987 
L 259.91691 188.093362 
L 259.91691 188.093362 
L 260.529991 188.093362 
L 260.529991 187.804738 
L 260.836532 188.093362 
L 260.836532 188.093362 
L 260.836532 188.381987 
L 261.143073 188.093362 
L 261.449614 188.093362 
L 261.449614 188.381987 
L 261.756155 188.093362 
L 261.756155 188.093362 
L 262.062695 188.093362 
L 261.756155 188.381987 
L 262.062695 188.093362 
L 261.756155 188.093362 
L 261.756155 188.093362 
L 262.369236 187.804738 
L 262.062695 187.804738 
L 262.062695 188.093362 
L 262.062695 187.804738 
L 262.675777 187.516113 
L 263.288858 187.516113 
L 263.90194 186.938863 
L 265.128103 186.072989 
L 266.354266 187.804738 
L 266.660807 187.804738 
L 269.113133 186.650239 
L 269.113133 187.227488 
L 269.419674 187.227488 
L 269.419674 187.516113 
L 271.565459 186.650239 
L 271.872 187.516113 
L 272.485082 187.516113 
L 273.098163 187.804738 
L 275.243948 186.650239 
L 275.550489 187.516113 
L 275.85703 187.804738 
L 277.389734 188.381987 
L 283.520549 188.381987 
L 284.746712 188.093362 
L 287.199039 188.093362 
L 288.425202 187.516113 
L 289.038283 187.516113 
L 289.651365 187.227488 
L 291.184069 187.227488 
L 292.410232 186.938863 
L 293.023313 187.227488 
L 293.942936 187.227488 
L 295.169099 186.938863 
L 295.78218 186.938863 
L 296.701803 187.227488 
L 297.927966 186.650239 
L 300.073751 186.650239 
L 301.299914 186.072989 
L 302.219536 186.650239 
L 302.219536 186.650239 
L 304.671863 185.207115 
L 305.898026 185.207115 
L 306.511107 185.784364 
L 307.73727 185.49574 
L 309.576515 184.629866 
L 309.883056 184.341241 
L 311.109219 183.763991 
L 313.561545 182.320868 
L 314.787708 181.743618 
L 315.70733 181.166369 
L 316.626953 179.723245 
L 317.546575 179.145996 
L 318.466197 178.857371 
L 319.38582 177.991497 
L 320.918524 177.414247 
L 322.144687 177.125623 
L 323.064309 177.125623 
L 324.903554 176.259748 
L 326.129717 176.259748 
L 327.662421 175.682499 
L 331.34091 175.682499 
L 332.873614 174.528 
L 334.712858 174.528 
L 337.471725 175.105249 
L 338.391348 174.816625 
L 340.230592 175.393874 
L 341.150215 175.393874 
L 342.069837 175.971124 
L 345.135245 176.836998 
L 345.135245 177.125623 
L 346.361408 177.702872 
L 346.974489 178.280121 
L 348.200652 178.568746 
L 349.120275 178.568746 
L 350.346438 179.723245 
L 351.572601 180.589119 
L 352.185682 180.877744 
L 353.105305 181.743618 
L 354.638009 182.320868 
L 355.25109 182.609492 
L 356.170712 183.186742 
L 357.703416 183.763991 
L 358.316498 184.052616 
L 359.849202 184.052616 
L 360.462283 183.763991 
L 361.075365 183.763991 
L 361.688446 184.052616 
L 364.753854 184.052616 
L 361.994987 182.032243 
L 365.980017 184.052616 
L 366.286558 183.763991 
L 366.899639 183.763991 
L 367.20618 183.475367 
L 367.819262 183.186742 
L 368.432343 183.186742 
L 368.432343 183.186742 
L 368.738884 182.898117 
L 369.351966 182.898117 
L 369.351966 182.898117 
" clip-path="url(#p8c7d9ef16a)" style="fill: none; stroke: #008000; stroke-width: 1.5; stroke-linecap: square"/>
   </g>
   <g id="line2d_18">
    <path d="M 260.223451 188.093362 
" clip-path="url(#p8c7d9ef16a)" style="fill: none; stroke: #008000; stroke-width: 1.5; stroke-linecap: square"/>
    <defs>
     <path id="m9510c59965" d="M 0 5 
C 1.326016 5 2.597899 4.473168 3.535534 3.535534 
C 4.473168 2.597899 5 1.326016 5 0 
C 5 -1.326016 4.473168 -2.597899 3.535534 -3.535534 
C 2.597899 -4.473168 1.326016 -5 0 -5 
C -1.326016 -5 -2.597899 -4.473168 -3.535534 -3.535534 
C -4.473168 -2.597899 -5 -1.326016 -5 0 
C -5 1.326016 -4.473168 2.597899 -3.535534 3.535534 
C -2.597899 4.473168 -1.326016 5 0 5 
z
" style="stroke: #008000"/>
    </defs>
    <g clip-path="url(#p8c7d9ef16a)">
     <use xlink:href="#m9510c59965" x="260.223451" y="188.093362" style="fill: #008000; stroke: #008000"/>
    </g>
   </g>
   <g id="line2d_19">
    <path d="M 369.351966 182.898117 
" clip-path="url(#p8c7d9ef16a)" style="fill: none; stroke: #008000; stroke-width: 1.5; stroke-linecap: square"/>
    <defs>
     <path id="ma441b71b46" d="M -5 5 
L 5 5 
L 5 -5 
L -5 -5 
z
" style="stroke: #008000; stroke-linejoin: miter"/>
    </defs>
    <g clip-path="url(#p8c7d9ef16a)">
     <use xlink:href="#ma441b71b46" x="369.351966" y="182.898117" style="fill: #008000; stroke: #008000; stroke-linejoin: miter"/>
    </g>
   </g>
   <g id="patch_3">
    <path d="M 57.6 307.584 
L 57.6 41.472 
" style="fill: none; stroke: #000000; stroke-width: 0.8; stroke-linejoin: miter; stroke-linecap: square"/>
   </g>
   <g id="patch_4">
    <path d="M 57.6 307.584 
L 414.72 307.584 
" style="fill: none; stroke: #000000; stroke-width: 0.8; stroke-linejoin: miter; stroke-linecap: square"/>
   </g>
   <g id="legend_1">
    <g id="patch_5">
     <path d="M 282.164531 119.523563 
L 404.22 119.523563 
Q 407.22 119.523563 407.22 116.523563 
L 407.22 51.972 
Q 407.22 48.972 404.22 48.972 
L 282.164531 48.972 
Q 279.164531 48.972 279.164531 51.972 
L 279.164531 116.523563 
Q 279.164531 119.523563 282.164531 119.523563 
z
" style="fill: #ffffff; opacity: 0.8; stroke: #cccccc; stroke-linejoin: miter"/>
    </g>
    <g id="line2d_20">
     <path d="M 285.164531 61.119656 
L 300.164531 61.119656 
L 315.164531 61.119656 
" style="fill: none; stroke: #000000; stroke-width: 1.5; stroke-linecap: square"/>
    </g>
    <g id="text_7">
     <!-- Trajectory -->
     <g transform="translate(327.164531 66.369656)scale(0.15 -0.15)">
      <defs>
       <path id="DejaVuSans-54" d="M -19 4666 
L 3928 4666 
L 3928 4134 
L 2272 4134 
L 2272 0 
L 1638 0 
L 1638 4134 
L -19 4134 
L -19 4666 
z
" transform="scale(0.015625)"/>
       <path id="DejaVuSans-72" d="M 2631 2963 
Q 2534 3019 2420 3045 
Q 2306 3072 2169 3072 
Q 1681 3072 1420 2755 
Q 1159 2438 1159 1844 
L 1159 0 
L 581 0 
L 581 3500 
L 1159 3500 
L 1159 2956 
Q 1341 3275 1631 3429 
Q 1922 3584 2338 3584 
Q 2397 3584 2469 3576 
Q 2541 3569 2628 3553 
L 2631 2963 
z
" transform="scale(0.015625)"/>
       <path id="DejaVuSans-61" d="M 2194 1759 
Q 1497 1759 1228 1600 
Q 959 1441 959 1056 
Q 959 750 1161 570 
Q 1363 391 1709 391 
Q 2188 391 2477 730 
Q 2766 1069 2766 1631 
L 2766 1759 
L 2194 1759 
z
M 3341 1997 
L 3341 0 
L 2766 0 
L 2766 531 
Q 2569 213 2275 61 
Q 1981 -91 1556 -91 
Q 1019 -91 701 211 
Q 384 513 384 1019 
Q 384 1609 779 1909 
Q 1175 2209 1959 2209 
L 2766 2209 
L 2766 2266 
Q 2766 2663 2505 2880 
Q 2244 3097 1772 3097 
Q 1472 3097 1187 3025 
Q 903 2953 641 2809 
L 641 3341 
Q 956 3463 1253 3523 
Q 1550 3584 1831 3584 
Q 2591 3584 2966 3190 
Q 3341 2797 3341 1997 
z
" transform="scale(0.015625)"/>
       <path id="DejaVuSans-6a" d="M 603 3500 
L 1178 3500 
L 1178 -63 
Q 1178 -731 923 -1031 
Q 669 -1331 103 -1331 
L -116 -1331 
L -116 -844 
L 38 -844 
Q 366 -844 484 -692 
Q 603 -541 603 -63 
L 603 3500 
z
M 603 4863 
L 1178 4863 
L 1178 4134 
L 603 4134 
L 603 4863 
z
" transform="scale(0.015625)"/>
       <path id="DejaVuSans-65" d="M 3597 1894 
L 3597 1613 
L 953 1613 
Q 991 1019 1311 708 
Q 1631 397 2203 397 
Q 2534 397 2845 478 
Q 3156 559 3463 722 
L 3463 178 
Q 3153 47 2828 -22 
Q 2503 -91 2169 -91 
Q 1331 -91 842 396 
Q 353 884 353 1716 
Q 353 2575 817 3079 
Q 1281 3584 2069 3584 
Q 2775 3584 3186 3129 
Q 3597 2675 3597 1894 
z
M 3022 2063 
Q 3016 2534 2758 2815 
Q 2500 3097 2075 3097 
Q 1594 3097 1305 2825 
Q 1016 2553 972 2059 
L 3022 2063 
z
" transform="scale(0.015625)"/>
       <path id="DejaVuSans-63" d="M 3122 3366 
L 3122 2828 
Q 2878 2963 2633 3030 
Q 2388 3097 2138 3097 
Q 1578 3097 1268 2742 
Q 959 2388 959 1747 
Q 959 1106 1268 751 
Q 1578 397 2138 397 
Q 2388 397 2633 464 
Q 2878 531 3122 666 
L 3122 134 
Q 2881 22 2623 -34 
Q 2366 -91 2075 -91 
Q 1284 -91 818 406 
Q 353 903 353 1747 
Q 353 2603 823 3093 
Q 1294 3584 2113 3584 
Q 2378 3584 2631 3529 
Q 2884 3475 3122 3366 
z
" transform="scale(0.015625)"/>
       <path id="DejaVuSans-74" d="M 1172 4494 
L 1172 3500 
L 2356 3500 
L 2356 3053 
L 1172 3053 
L 1172 1153 
Q 1172 725 1289 603 
Q 1406 481 1766 481 
L 2356 481 
L 2356 0 
L 1766 0 
Q 1100 0 847 248 
Q 594 497 594 1153 
L 594 3053 
L 172 3053 
L 172 3500 
L 594 3500 
L 594 4494 
L 1172 4494 
z
" transform="scale(0.015625)"/>
       <path id="DejaVuSans-6f" d="M 1959 3097 
Q 1497 3097 1228 2736 
Q 959 2375 959 1747 
Q 959 1119 1226 758 
Q 1494 397 1959 397 
Q 2419 397 2687 759 
Q 2956 1122 2956 1747 
Q 2956 2369 2687 2733 
Q 2419 3097 1959 3097 
z
M 1959 3584 
Q 2709 3584 3137 3096 
Q 3566 2609 3566 1747 
Q 3566 888 3137 398 
Q 2709 -91 1959 -91 
Q 1206 -91 779 398 
Q 353 888 353 1747 
Q 353 2609 779 3096 
Q 1206 3584 1959 3584 
z
" transform="scale(0.015625)"/>
       <path id="DejaVuSans-79" d="M 2059 -325 
Q 1816 -950 1584 -1140 
Q 1353 -1331 966 -1331 
L 506 -1331 
L 506 -850 
L 844 -850 
Q 1081 -850 1212 -737 
Q 1344 -625 1503 -206 
L 1606 56 
L 191 3500 
L 800 3500 
L 1894 763 
L 2988 3500 
L 3597 3500 
L 2059 -325 
z
" transform="scale(0.015625)"/>
      </defs>
      <use xlink:href="#DejaVuSans-54"/>
      <use xlink:href="#DejaVuSans-72" x="46.333984"/>
      <use xlink:href="#DejaVuSans-61" x="87.447266"/>
      <use xlink:href="#DejaVuSans-6a" x="148.726562"/>
      <use xlink:href="#DejaVuSans-65" x="176.509766"/>
      <use xlink:href="#DejaVuSans-63" x="238.033203"/>
      <use xlink:href="#DejaVuSans-74" x="293.013672"/>
      <use xlink:href="#DejaVuSans-6f" x="332.222656"/>
      <use xlink:href="#DejaVuSans-72" x="393.404297"/>
      <use xlink:href="#DejaVuSans-79" x="434.517578"/>
     </g>
    </g>
    <g id="line2d_21">
     <path d="M 285.164531 83.136844 
L 300.164531 83.136844 
L 315.164531 83.136844 
" style="fill: none; stroke: #000000; stroke-width: 1.5; stroke-linecap: square"/>
     <g>
      <use xlink:href="#mc0e173898d" x="300.164531" y="83.136844" style="stroke: #000000"/>
     </g>
    </g>
    <g id="text_8">
     <!-- Start -->
     <g transform="translate(327.164531 88.386844)scale(0.15 -0.15)">
      <defs>
       <path id="DejaVuSans-53" d="M 3425 4513 
L 3425 3897 
Q 3066 4069 2747 4153 
Q 2428 4238 2131 4238 
Q 1616 4238 1336 4038 
Q 1056 3838 1056 3469 
Q 1056 3159 1242 3001 
Q 1428 2844 1947 2747 
L 2328 2669 
Q 3034 2534 3370 2195 
Q 3706 1856 3706 1288 
Q 3706 609 3251 259 
Q 2797 -91 1919 -91 
Q 1588 -91 1214 -16 
Q 841 59 441 206 
L 441 856 
Q 825 641 1194 531 
Q 1563 422 1919 422 
Q 2459 422 2753 634 
Q 3047 847 3047 1241 
Q 3047 1584 2836 1778 
Q 2625 1972 2144 2069 
L 1759 2144 
Q 1053 2284 737 2584 
Q 422 2884 422 3419 
Q 422 4038 858 4394 
Q 1294 4750 2059 4750 
Q 2388 4750 2728 4690 
Q 3069 4631 3425 4513 
z
" transform="scale(0.015625)"/>
      </defs>
      <use xlink:href="#DejaVuSans-53"/>
      <use xlink:href="#DejaVuSans-74" x="63.476562"/>
      <use xlink:href="#DejaVuSans-61" x="102.685547"/>
      <use xlink:href="#DejaVuSans-72" x="163.964844"/>
      <use xlink:href="#DejaVuSans-74" x="205.078125"/>
     </g>
    </g>
    <g id="line2d_22">
     <path d="M 285.164531 105.154031 
L 300.164531 105.154031 
L 315.164531 105.154031 
" style="fill: none; stroke: #000000; stroke-width: 1.5; stroke-linecap: square"/>
     <g>
      <use xlink:href="#mf4a750eb64" x="300.164531" y="105.154031" style="stroke: #000000; stroke-linejoin: miter"/>
     </g>
    </g>
    <g id="text_9">
     <!-- End -->
     <g transform="translate(327.164531 110.404031)scale(0.15 -0.15)">
      <defs>
       <path id="DejaVuSans-45" d="M 628 4666 
L 3578 4666 
L 3578 4134 
L 1259 4134 
L 1259 2753 
L 3481 2753 
L 3481 2222 
L 1259 2222 
L 1259 531 
L 3634 531 
L 3634 0 
L 628 0 
L 628 4666 
z
" transform="scale(0.015625)"/>
       <path id="DejaVuSans-6e" d="M 3513 2113 
L 3513 0 
L 2938 0 
L 2938 2094 
Q 2938 2591 2744 2837 
Q 2550 3084 2163 3084 
Q 1697 3084 1428 2787 
Q 1159 2491 1159 1978 
L 1159 0 
L 581 0 
L 581 3500 
L 1159 3500 
L 1159 2956 
Q 1366 3272 1645 3428 
Q 1925 3584 2291 3584 
Q 2894 3584 3203 3211 
Q 3513 2838 3513 2113 
z
" transform="scale(0.015625)"/>
       <path id="DejaVuSans-64" d="M 2906 2969 
L 2906 4863 
L 3481 4863 
L 3481 0 
L 2906 0 
L 2906 525 
Q 2725 213 2448 61 
Q 2172 -91 1784 -91 
Q 1150 -91 751 415 
Q 353 922 353 1747 
Q 353 2572 751 3078 
Q 1150 3584 1784 3584 
Q 2172 3584 2448 3432 
Q 2725 3281 2906 2969 
z
M 947 1747 
Q 947 1113 1208 752 
Q 1469 391 1925 391 
Q 2381 391 2643 752 
Q 2906 1113 2906 1747 
Q 2906 2381 2643 2742 
Q 2381 3103 1925 3103 
Q 1469 3103 1208 2742 
Q 947 2381 947 1747 
z
" transform="scale(0.015625)"/>
      </defs>
      <use xlink:href="#DejaVuSans-45"/>
      <use xlink:href="#DejaVuSans-6e" x="63.183594"/>
      <use xlink:href="#DejaVuSans-64" x="126.5625"/>
     </g>
    </g>
   </g>
  </g>
 </g>
 <defs>
  <clipPath id="p8c7d9ef16a">
   <rect x="57.6" y="41.472" width="357.12" height="266.112"/>
  </clipPath>
 </defs>
</svg>
