<?xml version="1.0" encoding="utf-8" standalone="no"?>
<!DOCTYPE svg PUBLIC "-//W3C//DTD SVG 1.1//EN"
  "http://www.w3.org/Graphics/SVG/1.1/DTD/svg11.dtd">
<svg xmlns:xlink="http://www.w3.org/1999/xlink" width="460.8pt" height="345.6pt" viewBox="0 0 460.8 345.6" xmlns="http://www.w3.org/2000/svg" version="1.1">
 <metadata>
  <rdf:RDF xmlns:dc="http://purl.org/dc/elements/1.1/" xmlns:cc="http://creativecommons.org/ns#" xmlns:rdf="http://www.w3.org/1999/02/22-rdf-syntax-ns#">
   <cc:Work>
    <dc:type rdf:resource="http://purl.org/dc/dcmitype/StillImage"/>
    <dc:date>2024-01-21T14:09:40.098812</dc:date>
    <dc:format>image/svg+xml</dc:format>
    <dc:creator>
     <cc:Agent>
      <dc:title>Matplotlib v3.5.0, https://matplotlib.org/</dc:title>
     </cc:Agent>
    </dc:creator>
   </cc:Work>
  </rdf:RDF>
 </metadata>
 <defs>
  <style type="text/css">*{stroke-linejoin: round; stroke-linecap: butt}</style>
 </defs>
 <g id="figure_1">
  <g id="patch_1">
   <path d="M 0 345.6 
L 460.8 345.6 
L 460.8 0 
L 0 0 
z
" style="fill: #ffffff"/>
  </g>
  <g id="axes_1">
   <g id="patch_2">
    <path d="M 369.216 174.528 
C 369.216 157.055246 365.774248 139.752393 359.087715 123.609673 
C 352.401182 107.466954 342.599903 92.798303 330.2448 80.4432 
C 317.889697 68.088097 303.221046 58.286818 287.078327 51.600285 
C 270.935607 44.913752 253.632754 41.472 236.16 41.472 
C 218.687246 41.472 201.384393 44.913752 185.241673 51.600285 
C 169.098954 58.286818 154.430303 68.088097 142.0752 80.4432 
C 129.720097 92.798303 119.918818 107.466954 113.232285 123.609673 
C 106.545752 139.752393 103.104 157.055246 103.104 174.528 
C 103.104 192.000754 106.545752 209.303607 113.232285 225.446327 
C 119.918818 241.589046 129.720097 256.257697 142.0752 268.6128 
C 154.430303 280.967903 169.098954 290.769182 185.241673 297.455715 
C 201.384393 304.142248 218.687246 307.584 236.16 307.584 
C 253.632754 307.584 270.935607 304.142248 287.078327 297.455715 
C 303.221046 290.769182 317.889697 280.967903 330.2448 268.6128 
C 342.599903 256.257697 352.401182 241.589046 359.087715 225.446327 
C 365.774248 209.303607 369.216 192.000754 369.216 174.528 
M 236.16 174.528 
C 236.16 174.528 236.16 174.528 236.16 174.528 
C 236.16 174.528 236.16 174.528 236.16 174.528 
C 236.16 174.528 236.16 174.528 236.16 174.528 
C 236.16 174.528 236.16 174.528 236.16 174.528 
C 236.16 174.528 236.16 174.528 236.16 174.528 
C 236.16 174.528 236.16 174.528 236.16 174.528 
C 236.16 174.528 236.16 174.528 236.16 174.528 
C 236.16 174.528 236.16 174.528 236.16 174.528 
C 236.16 174.528 236.16 174.528 236.16 174.528 
C 236.16 174.528 236.16 174.528 236.16 174.528 
C 236.16 174.528 236.16 174.528 236.16 174.528 
C 236.16 174.528 236.16 174.528 236.16 174.528 
C 236.16 174.528 236.16 174.528 236.16 174.528 
C 236.16 174.528 236.16 174.528 236.16 174.528 
C 236.16 174.528 236.16 174.528 236.16 174.528 
C 236.16 174.528 236.16 174.528 236.16 174.528 
M 369.216 174.528 
z
" style="fill: #ffffff"/>
   </g>
   <g id="PathCollection_1">
    <defs>
     <path id="me23d773d91" d="M 0 3 
C 0.795609 3 1.55874 2.683901 2.12132 2.12132 
C 2.683901 1.55874 3 0.795609 3 0 
C 3 -0.795609 2.683901 -1.55874 2.12132 -2.12132 
C 1.55874 -2.683901 0.795609 -3 0 -3 
C -0.795609 -3 -1.55874 -2.683901 -2.12132 -2.12132 
C -2.683901 -1.55874 -3 -0.795609 -3 0 
C -3 0.795609 -2.683901 1.55874 -2.12132 2.12132 
C -1.55874 2.683901 -0.795609 3 0 3 
z
" style="stroke: #f50505"/>
    </defs>
    <g clip-path="url(#p194fa18417)">
     <use xlink:href="#me23d773d91" x="281.481197" y="203.710738" style="fill: #f50505; stroke: #f50505"/>
     <use xlink:href="#me23d773d91" x="283.009085" y="167.795489" style="fill: #f50505; stroke: #f50505"/>
     <use xlink:href="#me23d773d91" x="291.277506" y="176.873347" style="fill: #f50505; stroke: #f50505"/>
     <use xlink:href="#me23d773d91" x="280.897752" y="205.998819" style="fill: #f50505; stroke: #f50505"/>
     <use xlink:href="#me23d773d91" x="281.523128" y="202.877384" style="fill: #f50505; stroke: #f50505"/>
     <use xlink:href="#me23d773d91" x="282.449653" y="194.839808" style="fill: #f50505; stroke: #f50505"/>
     <use xlink:href="#me23d773d91" x="276.521258" y="148.484526" style="fill: #f50505; stroke: #f50505"/>
     <use xlink:href="#me23d773d91" x="288.364175" y="162.701453" style="fill: #f50505; stroke: #f50505"/>
     <use xlink:href="#me23d773d91" x="266.969596" y="212.400581" style="fill: #f50505; stroke: #f50505"/>
     <use xlink:href="#me23d773d91" x="195.643537" y="186.76119" style="fill: #f50505; stroke: #f50505"/>
     <use xlink:href="#me23d773d91" x="284.944114" y="174.015852" style="fill: #f50505; stroke: #f50505"/>
     <use xlink:href="#me23d773d91" x="285.634679" y="181.394079" style="fill: #f50505; stroke: #f50505"/>
     <use xlink:href="#me23d773d91" x="283.064322" y="175.658206" style="fill: #f50505; stroke: #f50505"/>
     <use xlink:href="#me23d773d91" x="284.718836" y="185.958005" style="fill: #f50505; stroke: #f50505"/>
     <use xlink:href="#me23d773d91" x="280.253406" y="184.713094" style="fill: #f50505; stroke: #f50505"/>
     <use xlink:href="#me23d773d91" x="280.001665" y="158.164109" style="fill: #f50505; stroke: #f50505"/>
     <use xlink:href="#me23d773d91" x="267.628505" y="209.38353" style="fill: #f50505; stroke: #f50505"/>
     <use xlink:href="#me23d773d91" x="282.641399" y="167.32178" style="fill: #f50505; stroke: #f50505"/>
     <use xlink:href="#me23d773d91" x="286.142856" y="178.586457" style="fill: #f50505; stroke: #f50505"/>
     <use xlink:href="#me23d773d91" x="262.001519" y="215.576843" style="fill: #f50505; stroke: #f50505"/>
     <use xlink:href="#me23d773d91" x="272.538424" y="196.486669" style="fill: #f50505; stroke: #f50505"/>
     <use xlink:href="#me23d773d91" x="279.839554" y="178.473793" style="fill: #f50505; stroke: #f50505"/>
     <use xlink:href="#me23d773d91" x="286.268719" y="173.900376" style="fill: #f50505; stroke: #f50505"/>
     <use xlink:href="#me23d773d91" x="290.121917" y="167.661403" style="fill: #f50505; stroke: #f50505"/>
     <use xlink:href="#me23d773d91" x="284.667189" y="180.310356" style="fill: #f50505; stroke: #f50505"/>
     <use xlink:href="#me23d773d91" x="282.003439" y="188.58928" style="fill: #f50505; stroke: #f50505"/>
     <use xlink:href="#me23d773d91" x="283.67741" y="163.108508" style="fill: #f50505; stroke: #f50505"/>
     <use xlink:href="#me23d773d91" x="284.374188" y="175.527003" style="fill: #f50505; stroke: #f50505"/>
     <use xlink:href="#me23d773d91" x="282.273754" y="197.653994" style="fill: #f50505; stroke: #f50505"/>
     <use xlink:href="#me23d773d91" x="243.024432" y="223.246775" style="fill: #f50505; stroke: #f50505"/>
     <use xlink:href="#me23d773d91" x="278.262056" y="200.999514" style="fill: #f50505; stroke: #f50505"/>
     <use xlink:href="#me23d773d91" x="279.001947" y="197.781763" style="fill: #f50505; stroke: #f50505"/>
     <use xlink:href="#me23d773d91" x="180.962666" y="185.365775" style="fill: #f50505; stroke: #f50505"/>
     <use xlink:href="#me23d773d91" x="281.919323" y="194.925128" style="fill: #f50505; stroke: #f50505"/>
     <use xlink:href="#me23d773d91" x="272.254471" y="211.647311" style="fill: #f50505; stroke: #f50505"/>
     <use xlink:href="#me23d773d91" x="285.013213" y="173.924426" style="fill: #f50505; stroke: #f50505"/>
     <use xlink:href="#me23d773d91" x="255.893733" y="223.847247" style="fill: #f50505; stroke: #f50505"/>
     <use xlink:href="#me23d773d91" x="272.413055" y="202.45767" style="fill: #f50505; stroke: #f50505"/>
     <use xlink:href="#me23d773d91" x="233.990508" y="220.667155" style="fill: #f50505; stroke: #f50505"/>
     <use xlink:href="#me23d773d91" x="210.683276" y="217.747091" style="fill: #f50505; stroke: #f50505"/>
     <use xlink:href="#me23d773d91" x="255.23592" y="225.086327" style="fill: #f50505; stroke: #f50505"/>
    </g>
   </g>
   <g id="PathCollection_2">
    <defs>
     <path id="mc0450aae2a" d="M 0 3 
C 0.795609 3 1.55874 2.683901 2.12132 2.12132 
C 2.683901 1.55874 3 0.795609 3 0 
C 3 -0.795609 2.683901 -1.55874 2.12132 -2.12132 
C 1.55874 -2.683901 0.795609 -3 0 -3 
C -0.795609 -3 -1.55874 -2.683901 -2.12132 -2.12132 
C -2.683901 -1.55874 -3 -0.795609 -3 0 
C -3 0.795609 -2.683901 1.55874 -2.12132 2.12132 
C -1.55874 2.683901 -0.795609 3 0 3 
z
" style="stroke: #3505f5"/>
    </defs>
    <g clip-path="url(#p194fa18417)">
     <use xlink:href="#mc0450aae2a" x="238.105067" y="191.497649" style="fill: #3505f5; stroke: #3505f5"/>
     <use xlink:href="#mc0450aae2a" x="292.906133" y="174.528" style="fill: #3505f5; stroke: #3505f5"/>
     <use xlink:href="#mc0450aae2a" x="292.906133" y="174.528" style="fill: #3505f5; stroke: #3505f5"/>
     <use xlink:href="#mc0450aae2a" x="249.30595" y="230.140156" style="fill: #3505f5; stroke: #3505f5"/>
     <use xlink:href="#mc0450aae2a" x="259.72781" y="226.528249" style="fill: #3505f5; stroke: #3505f5"/>
     <use xlink:href="#mc0450aae2a" x="299.285345" y="224.431988" style="fill: #3505f5; stroke: #3505f5"/>
     <use xlink:href="#mc0450aae2a" x="247.923784" y="187.475406" style="fill: #3505f5; stroke: #3505f5"/>
     <use xlink:href="#mc0450aae2a" x="268.500466" y="123.36162" style="fill: #3505f5; stroke: #3505f5"/>
     <use xlink:href="#mc0450aae2a" x="315.043229" y="146.112914" style="fill: #3505f5; stroke: #3505f5"/>
     <use xlink:href="#mc0450aae2a" x="231.165227" y="195.809256" style="fill: #3505f5; stroke: #3505f5"/>
     <use xlink:href="#mc0450aae2a" x="275.748572" y="193.707956" style="fill: #3505f5; stroke: #3505f5"/>
     <use xlink:href="#mc0450aae2a" x="272.894976" y="211.90787" style="fill: #3505f5; stroke: #3505f5"/>
     <use xlink:href="#mc0450aae2a" x="280.840043" y="218.6299" style="fill: #3505f5; stroke: #3505f5"/>
     <use xlink:href="#mc0450aae2a" x="291.258514" y="146.249118" style="fill: #3505f5; stroke: #3505f5"/>
     <use xlink:href="#mc0450aae2a" x="249.441265" y="186.479409" style="fill: #3505f5; stroke: #3505f5"/>
     <use xlink:href="#mc0450aae2a" x="241.677137" y="172.050197" style="fill: #3505f5; stroke: #3505f5"/>
     <use xlink:href="#mc0450aae2a" x="298.024627" y="207.920022" style="fill: #3505f5; stroke: #3505f5"/>
     <use xlink:href="#mc0450aae2a" x="285.049486" y="177.962621" style="fill: #3505f5; stroke: #3505f5"/>
     <use xlink:href="#mc0450aae2a" x="292.906133" y="174.528" style="fill: #3505f5; stroke: #3505f5"/>
     <use xlink:href="#mc0450aae2a" x="225.79498" y="217.463032" style="fill: #3505f5; stroke: #3505f5"/>
     <use xlink:href="#mc0450aae2a" x="251.567263" y="181.208445" style="fill: #3505f5; stroke: #3505f5"/>
     <use xlink:href="#mc0450aae2a" x="256.968076" y="189.193175" style="fill: #3505f5; stroke: #3505f5"/>
     <use xlink:href="#mc0450aae2a" x="261.033586" y="224.814107" style="fill: #3505f5; stroke: #3505f5"/>
     <use xlink:href="#mc0450aae2a" x="292.906133" y="174.528" style="fill: #3505f5; stroke: #3505f5"/>
     <use xlink:href="#mc0450aae2a" x="265.84604" y="198.286704" style="fill: #3505f5; stroke: #3505f5"/>
     <use xlink:href="#mc0450aae2a" x="269.83636" y="161.30501" style="fill: #3505f5; stroke: #3505f5"/>
     <use xlink:href="#mc0450aae2a" x="247.721772" y="154.407686" style="fill: #3505f5; stroke: #3505f5"/>
     <use xlink:href="#mc0450aae2a" x="265.534235" y="192.347542" style="fill: #3505f5; stroke: #3505f5"/>
     <use xlink:href="#mc0450aae2a" x="291.72772" y="144.689762" style="fill: #3505f5; stroke: #3505f5"/>
     <use xlink:href="#mc0450aae2a" x="289.718433" y="164.640618" style="fill: #3505f5; stroke: #3505f5"/>
     <use xlink:href="#mc0450aae2a" x="296.911166" y="179.497545" style="fill: #3505f5; stroke: #3505f5"/>
     <use xlink:href="#mc0450aae2a" x="306.922021" y="130.116236" style="fill: #3505f5; stroke: #3505f5"/>
     <use xlink:href="#mc0450aae2a" x="292.906133" y="174.528" style="fill: #3505f5; stroke: #3505f5"/>
     <use xlink:href="#mc0450aae2a" x="246.942892" y="224.360303" style="fill: #3505f5; stroke: #3505f5"/>
     <use xlink:href="#mc0450aae2a" x="292.906133" y="174.528" style="fill: #3505f5; stroke: #3505f5"/>
     <use xlink:href="#mc0450aae2a" x="259.064852" y="193.933684" style="fill: #3505f5; stroke: #3505f5"/>
     <use xlink:href="#mc0450aae2a" x="292.906133" y="174.528" style="fill: #3505f5; stroke: #3505f5"/>
     <use xlink:href="#mc0450aae2a" x="271.469921" y="186.226903" style="fill: #3505f5; stroke: #3505f5"/>
     <use xlink:href="#mc0450aae2a" x="243.635008" y="184.5562" style="fill: #3505f5; stroke: #3505f5"/>
     <use xlink:href="#mc0450aae2a" x="262.555413" y="179.888828" style="fill: #3505f5; stroke: #3505f5"/>
     <use xlink:href="#mc0450aae2a" x="292.906133" y="174.528" style="fill: #3505f5; stroke: #3505f5"/>
    </g>
   </g>
   <g id="PathCollection_3">
    <defs>
     <path id="m77faddc46d" d="M 0 3 
C 0.795609 3 1.55874 2.683901 2.12132 2.12132 
C 2.683901 1.55874 3 0.795609 3 0 
C 3 -0.795609 2.683901 -1.55874 2.12132 -2.12132 
C 1.55874 -2.683901 0.795609 -3 0 -3 
C -0.795609 -3 -1.55874 -2.683901 -2.12132 -2.12132 
C -2.683901 -1.55874 -3 -0.795609 -3 0 
C -3 0.795609 -2.683901 1.55874 -2.12132 2.12132 
C -1.55874 2.683901 -0.795609 3 0 3 
z
" style="stroke: #02faf2"/>
    </defs>
    <g clip-path="url(#p194fa18417)">
     <use xlink:href="#m77faddc46d" x="276.880909" y="138.127006" style="fill: #02faf2; stroke: #02faf2"/>
     <use xlink:href="#m77faddc46d" x="236.691274" y="71.66034" style="fill: #02faf2; stroke: #02faf2"/>
     <use xlink:href="#m77faddc46d" x="285.940797" y="235.328888" style="fill: #02faf2; stroke: #02faf2"/>
     <use xlink:href="#m77faddc46d" x="256.178418" y="239.126534" style="fill: #02faf2; stroke: #02faf2"/>
     <use xlink:href="#m77faddc46d" x="302.816691" y="209.209757" style="fill: #02faf2; stroke: #02faf2"/>
     <use xlink:href="#m77faddc46d" x="196.78736" y="63.237523" style="fill: #02faf2; stroke: #02faf2"/>
     <use xlink:href="#m77faddc46d" x="308.940291" y="231.787985" style="fill: #02faf2; stroke: #02faf2"/>
     <use xlink:href="#m77faddc46d" x="216.558045" y="82.097832" style="fill: #02faf2; stroke: #02faf2"/>
     <use xlink:href="#m77faddc46d" x="302.97637" y="66.515941" style="fill: #02faf2; stroke: #02faf2"/>
     <use xlink:href="#m77faddc46d" x="282.950741" y="242.898106" style="fill: #02faf2; stroke: #02faf2"/>
     <use xlink:href="#m77faddc46d" x="337.942396" y="124.152724" style="fill: #02faf2; stroke: #02faf2"/>
     <use xlink:href="#m77faddc46d" x="341.549061" y="108.053601" style="fill: #02faf2; stroke: #02faf2"/>
     <use xlink:href="#m77faddc46d" x="217.571632" y="280.348123" style="fill: #02faf2; stroke: #02faf2"/>
     <use xlink:href="#m77faddc46d" x="345.739873" y="191.743161" style="fill: #02faf2; stroke: #02faf2"/>
     <use xlink:href="#m77faddc46d" x="329.972857" y="169.798854" style="fill: #02faf2; stroke: #02faf2"/>
     <use xlink:href="#m77faddc46d" x="317.867932" y="118.099731" style="fill: #02faf2; stroke: #02faf2"/>
     <use xlink:href="#m77faddc46d" x="227.706144" y="73.8621" style="fill: #02faf2; stroke: #02faf2"/>
     <use xlink:href="#m77faddc46d" x="290.521369" y="70.81666" style="fill: #02faf2; stroke: #02faf2"/>
     <use xlink:href="#m77faddc46d" x="294.648304" y="201.572538" style="fill: #02faf2; stroke: #02faf2"/>
     <use xlink:href="#m77faddc46d" x="275.987844" y="242.721976" style="fill: #02faf2; stroke: #02faf2"/>
     <use xlink:href="#m77faddc46d" x="348.755018" y="183.707242" style="fill: #02faf2; stroke: #02faf2"/>
     <use xlink:href="#m77faddc46d" x="232.946758" y="257.909551" style="fill: #02faf2; stroke: #02faf2"/>
     <use xlink:href="#m77faddc46d" x="347.874517" y="196.30021" style="fill: #02faf2; stroke: #02faf2"/>
     <use xlink:href="#m77faddc46d" x="298.719573" y="176.221421" style="fill: #02faf2; stroke: #02faf2"/>
     <use xlink:href="#m77faddc46d" x="270.969494" y="250.000342" style="fill: #02faf2; stroke: #02faf2"/>
     <use xlink:href="#m77faddc46d" x="332.8257" y="153.02422" style="fill: #02faf2; stroke: #02faf2"/>
     <use xlink:href="#m77faddc46d" x="144.828776" y="113.80056" style="fill: #02faf2; stroke: #02faf2"/>
     <use xlink:href="#m77faddc46d" x="320.771749" y="150.47194" style="fill: #02faf2; stroke: #02faf2"/>
     <use xlink:href="#m77faddc46d" x="322.544593" y="167.968682" style="fill: #02faf2; stroke: #02faf2"/>
     <use xlink:href="#m77faddc46d" x="331.24624" y="101.588566" style="fill: #02faf2; stroke: #02faf2"/>
     <use xlink:href="#m77faddc46d" x="304.706834" y="210.136941" style="fill: #02faf2; stroke: #02faf2"/>
     <use xlink:href="#m77faddc46d" x="204.922361" y="63.233446" style="fill: #02faf2; stroke: #02faf2"/>
     <use xlink:href="#m77faddc46d" x="211.97069" y="231.736976" style="fill: #02faf2; stroke: #02faf2"/>
     <use xlink:href="#m77faddc46d" x="333.854601" y="232.507617" style="fill: #02faf2; stroke: #02faf2"/>
     <use xlink:href="#m77faddc46d" x="310.596846" y="130.134979" style="fill: #02faf2; stroke: #02faf2"/>
     <use xlink:href="#m77faddc46d" x="335.577688" y="222.635711" style="fill: #02faf2; stroke: #02faf2"/>
     <use xlink:href="#m77faddc46d" x="248.858928" y="98.317246" style="fill: #02faf2; stroke: #02faf2"/>
     <use xlink:href="#m77faddc46d" x="308.971838" y="102.251225" style="fill: #02faf2; stroke: #02faf2"/>
     <use xlink:href="#m77faddc46d" x="332.317126" y="206.257458" style="fill: #02faf2; stroke: #02faf2"/>
     <use xlink:href="#m77faddc46d" x="274.459804" y="257.753363" style="fill: #02faf2; stroke: #02faf2"/>
     <use xlink:href="#m77faddc46d" x="322.688146" y="183.63386" style="fill: #02faf2; stroke: #02faf2"/>
    </g>
   </g>
   <g id="PathCollection_4">
    <defs>
     <path id="madf265ea5b" d="M 0 3 
C 0.795609 3 1.55874 2.683901 2.12132 2.12132 
C 2.683901 1.55874 3 0.795609 3 0 
C 3 -0.795609 2.683901 -1.55874 2.12132 -2.12132 
C 1.55874 -2.683901 0.795609 -3 0 -3 
C -0.795609 -3 -1.55874 -2.683901 -2.12132 -2.12132 
C -2.683901 -1.55874 -3 -0.795609 -3 0 
C -3 0.795609 -2.683901 1.55874 -2.12132 2.12132 
C -1.55874 2.683901 -0.795609 3 0 3 
z
" style="stroke: #f5ed05"/>
    </defs>
    <g clip-path="url(#p194fa18417)">
     <use xlink:href="#madf265ea5b" x="287.15254" y="199.607319" style="fill: #f5ed05; stroke: #f5ed05"/>
     <use xlink:href="#madf265ea5b" x="293.192557" y="184.003987" style="fill: #f5ed05; stroke: #f5ed05"/>
     <use xlink:href="#madf265ea5b" x="292.409322" y="189.162193" style="fill: #f5ed05; stroke: #f5ed05"/>
     <use xlink:href="#madf265ea5b" x="288.160096" y="195.485723" style="fill: #f5ed05; stroke: #f5ed05"/>
     <use xlink:href="#madf265ea5b" x="284.937851" y="204.523441" style="fill: #f5ed05; stroke: #f5ed05"/>
     <use xlink:href="#madf265ea5b" x="293.144619" y="174.716994" style="fill: #f5ed05; stroke: #f5ed05"/>
     <use xlink:href="#madf265ea5b" x="287.192202" y="168.46198" style="fill: #f5ed05; stroke: #f5ed05"/>
     <use xlink:href="#madf265ea5b" x="291.711344" y="168.119682" style="fill: #f5ed05; stroke: #f5ed05"/>
     <use xlink:href="#madf265ea5b" x="285.911411" y="197.747063" style="fill: #f5ed05; stroke: #f5ed05"/>
     <use xlink:href="#madf265ea5b" x="284.107866" y="197.52536" style="fill: #f5ed05; stroke: #f5ed05"/>
     <use xlink:href="#madf265ea5b" x="289.786985" y="177.345099" style="fill: #f5ed05; stroke: #f5ed05"/>
     <use xlink:href="#madf265ea5b" x="291.740277" y="188.236905" style="fill: #f5ed05; stroke: #f5ed05"/>
     <use xlink:href="#madf265ea5b" x="292.216485" y="182.775894" style="fill: #f5ed05; stroke: #f5ed05"/>
     <use xlink:href="#madf265ea5b" x="289.392101" y="191.769168" style="fill: #f5ed05; stroke: #f5ed05"/>
     <use xlink:href="#madf265ea5b" x="292.785106" y="176.13618" style="fill: #f5ed05; stroke: #f5ed05"/>
     <use xlink:href="#madf265ea5b" x="289.340074" y="172.65094" style="fill: #f5ed05; stroke: #f5ed05"/>
     <use xlink:href="#madf265ea5b" x="290.356403" y="176.831086" style="fill: #f5ed05; stroke: #f5ed05"/>
     <use xlink:href="#madf265ea5b" x="290.128676" y="175.981587" style="fill: #f5ed05; stroke: #f5ed05"/>
     <use xlink:href="#madf265ea5b" x="274.131339" y="217.253841" style="fill: #f5ed05; stroke: #f5ed05"/>
     <use xlink:href="#madf265ea5b" x="261.96611" y="222.935188" style="fill: #f5ed05; stroke: #f5ed05"/>
     <use xlink:href="#madf265ea5b" x="281.788925" y="196.936579" style="fill: #f5ed05; stroke: #f5ed05"/>
     <use xlink:href="#madf265ea5b" x="284.912287" y="189.9414" style="fill: #f5ed05; stroke: #f5ed05"/>
     <use xlink:href="#madf265ea5b" x="290.890617" y="175.888939" style="fill: #f5ed05; stroke: #f5ed05"/>
     <use xlink:href="#madf265ea5b" x="291.993281" y="171.939551" style="fill: #f5ed05; stroke: #f5ed05"/>
     <use xlink:href="#madf265ea5b" x="287.467119" y="186.758371" style="fill: #f5ed05; stroke: #f5ed05"/>
     <use xlink:href="#madf265ea5b" x="271.554735" y="211.677856" style="fill: #f5ed05; stroke: #f5ed05"/>
     <use xlink:href="#madf265ea5b" x="285.584732" y="166.668066" style="fill: #f5ed05; stroke: #f5ed05"/>
     <use xlink:href="#madf265ea5b" x="276.039881" y="208.471718" style="fill: #f5ed05; stroke: #f5ed05"/>
     <use xlink:href="#madf265ea5b" x="284.203946" y="200.419659" style="fill: #f5ed05; stroke: #f5ed05"/>
     <use xlink:href="#madf265ea5b" x="287.416757" y="190.838265" style="fill: #f5ed05; stroke: #f5ed05"/>
     <use xlink:href="#madf265ea5b" x="290.109134" y="175.855753" style="fill: #f5ed05; stroke: #f5ed05"/>
     <use xlink:href="#madf265ea5b" x="268.380574" y="221.191785" style="fill: #f5ed05; stroke: #f5ed05"/>
     <use xlink:href="#madf265ea5b" x="293.045355" y="179.662944" style="fill: #f5ed05; stroke: #f5ed05"/>
     <use xlink:href="#madf265ea5b" x="287.974459" y="189.383836" style="fill: #f5ed05; stroke: #f5ed05"/>
     <use xlink:href="#madf265ea5b" x="278.276106" y="209.922251" style="fill: #f5ed05; stroke: #f5ed05"/>
     <use xlink:href="#madf265ea5b" x="291.904271" y="177.455041" style="fill: #f5ed05; stroke: #f5ed05"/>
     <use xlink:href="#madf265ea5b" x="246.768777" y="229.371539" style="fill: #f5ed05; stroke: #f5ed05"/>
     <use xlink:href="#madf265ea5b" x="289.673093" y="181.134201" style="fill: #f5ed05; stroke: #f5ed05"/>
     <use xlink:href="#madf265ea5b" x="285.438372" y="190.035278" style="fill: #f5ed05; stroke: #f5ed05"/>
     <use xlink:href="#madf265ea5b" x="292.43774" y="171.160838" style="fill: #f5ed05; stroke: #f5ed05"/>
     <use xlink:href="#madf265ea5b" x="244.724814" y="231.187979" style="fill: #f5ed05; stroke: #f5ed05"/>
    </g>
   </g>
   <g id="matplotlib.axis_1">
    <g id="xtick_1">
     <g id="line2d_1">
      <path d="M 236.16 174.528 
L 369.216 174.528 
" clip-path="url(#p194fa18417)" style="fill: none; stroke: #b0b0b0; stroke-width: 0.8; stroke-linecap: square"/>
     </g>
     <g id="text_1">
      <!-- 0° -->
      <g transform="translate(377.53475 177.287375)scale(0.1 -0.1)">
       <defs>
        <path id="DejaVuSans-30" d="M 2034 4250 
Q 1547 4250 1301 3770 
Q 1056 3291 1056 2328 
Q 1056 1369 1301 889 
Q 1547 409 2034 409 
Q 2525 409 2770 889 
Q 3016 1369 3016 2328 
Q 3016 3291 2770 3770 
Q 2525 4250 2034 4250 
z
M 2034 4750 
Q 2819 4750 3233 4129 
Q 3647 3509 3647 2328 
Q 3647 1150 3233 529 
Q 2819 -91 2034 -91 
Q 1250 -91 836 529 
Q 422 1150 422 2328 
Q 422 3509 836 4129 
Q 1250 4750 2034 4750 
z
" transform="scale(0.015625)"/>
        <path id="DejaVuSans-b0" d="M 1600 4347 
Q 1350 4347 1178 4173 
Q 1006 4000 1006 3750 
Q 1006 3503 1178 3333 
Q 1350 3163 1600 3163 
Q 1850 3163 2022 3333 
Q 2194 3503 2194 3750 
Q 2194 3997 2020 4172 
Q 1847 4347 1600 4347 
z
M 1600 4750 
Q 1800 4750 1984 4673 
Q 2169 4597 2303 4453 
Q 2447 4313 2519 4134 
Q 2591 3956 2591 3750 
Q 2591 3338 2302 3052 
Q 2013 2766 1594 2766 
Q 1172 2766 890 3047 
Q 609 3328 609 3750 
Q 609 4169 896 4459 
Q 1184 4750 1600 4750 
z
" transform="scale(0.015625)"/>
       </defs>
       <use xlink:href="#DejaVuSans-30"/>
       <use xlink:href="#DejaVuSans-b0" x="63.623047"/>
      </g>
     </g>
    </g>
    <g id="xtick_2">
     <g id="line2d_2">
      <path d="M 236.16 174.528 
L 330.2448 80.4432 
" clip-path="url(#p194fa18417)" style="fill: none; stroke: #b0b0b0; stroke-width: 0.8; stroke-linecap: square"/>
     </g>
     <g id="text_2">
      <!-- 45° -->
      <g transform="translate(331.281795 73.30308)scale(0.1 -0.1)">
       <defs>
        <path id="DejaVuSans-34" d="M 2419 4116 
L 825 1625 
L 2419 1625 
L 2419 4116 
z
M 2253 4666 
L 3047 4666 
L 3047 1625 
L 3713 1625 
L 3713 1100 
L 3047 1100 
L 3047 0 
L 2419 0 
L 2419 1100 
L 313 1100 
L 313 1709 
L 2253 4666 
z
" transform="scale(0.015625)"/>
        <path id="DejaVuSans-35" d="M 691 4666 
L 3169 4666 
L 3169 4134 
L 1269 4134 
L 1269 2991 
Q 1406 3038 1543 3061 
Q 1681 3084 1819 3084 
Q 2600 3084 3056 2656 
Q 3513 2228 3513 1497 
Q 3513 744 3044 326 
Q 2575 -91 1722 -91 
Q 1428 -91 1123 -41 
Q 819 9 494 109 
L 494 744 
Q 775 591 1075 516 
Q 1375 441 1709 441 
Q 2250 441 2565 725 
Q 2881 1009 2881 1497 
Q 2881 1984 2565 2268 
Q 2250 2553 1709 2553 
Q 1456 2553 1204 2497 
Q 953 2441 691 2322 
L 691 4666 
z
" transform="scale(0.015625)"/>
       </defs>
       <use xlink:href="#DejaVuSans-34"/>
       <use xlink:href="#DejaVuSans-35" x="63.623047"/>
       <use xlink:href="#DejaVuSans-b0" x="127.246094"/>
      </g>
     </g>
    </g>
    <g id="xtick_3">
     <g id="line2d_3">
      <path d="M 236.16 174.528 
L 236.16 41.472 
" clip-path="url(#p194fa18417)" style="fill: none; stroke: #b0b0b0; stroke-width: 0.8; stroke-linecap: square"/>
     </g>
     <g id="text_3">
      <!-- 90° -->
      <g transform="translate(227.2975 30.231375)scale(0.1 -0.1)">
       <defs>
        <path id="DejaVuSans-39" d="M 703 97 
L 703 672 
Q 941 559 1184 500 
Q 1428 441 1663 441 
Q 2288 441 2617 861 
Q 2947 1281 2994 2138 
Q 2813 1869 2534 1725 
Q 2256 1581 1919 1581 
Q 1219 1581 811 2004 
Q 403 2428 403 3163 
Q 403 3881 828 4315 
Q 1253 4750 1959 4750 
Q 2769 4750 3195 4129 
Q 3622 3509 3622 2328 
Q 3622 1225 3098 567 
Q 2575 -91 1691 -91 
Q 1453 -91 1209 -44 
Q 966 3 703 97 
z
M 1959 2075 
Q 2384 2075 2632 2365 
Q 2881 2656 2881 3163 
Q 2881 3666 2632 3958 
Q 2384 4250 1959 4250 
Q 1534 4250 1286 3958 
Q 1038 3666 1038 3163 
Q 1038 2656 1286 2365 
Q 1534 2075 1959 2075 
z
" transform="scale(0.015625)"/>
       </defs>
       <use xlink:href="#DejaVuSans-39"/>
       <use xlink:href="#DejaVuSans-30" x="63.623047"/>
       <use xlink:href="#DejaVuSans-b0" x="127.246094"/>
      </g>
     </g>
    </g>
    <g id="xtick_4">
     <g id="line2d_4">
      <path d="M 236.16 174.528 
L 142.0752 80.4432 
" clip-path="url(#p194fa18417)" style="fill: none; stroke: #b0b0b0; stroke-width: 0.8; stroke-linecap: square"/>
     </g>
     <g id="text_4">
      <!-- 135° -->
      <g transform="translate(120.131955 73.30308)scale(0.1 -0.1)">
       <defs>
        <path id="DejaVuSans-31" d="M 794 531 
L 1825 531 
L 1825 4091 
L 703 3866 
L 703 4441 
L 1819 4666 
L 2450 4666 
L 2450 531 
L 3481 531 
L 3481 0 
L 794 0 
L 794 531 
z
" transform="scale(0.015625)"/>
        <path id="DejaVuSans-33" d="M 2597 2516 
Q 3050 2419 3304 2112 
Q 3559 1806 3559 1356 
Q 3559 666 3084 287 
Q 2609 -91 1734 -91 
Q 1441 -91 1130 -33 
Q 819 25 488 141 
L 488 750 
Q 750 597 1062 519 
Q 1375 441 1716 441 
Q 2309 441 2620 675 
Q 2931 909 2931 1356 
Q 2931 1769 2642 2001 
Q 2353 2234 1838 2234 
L 1294 2234 
L 1294 2753 
L 1863 2753 
Q 2328 2753 2575 2939 
Q 2822 3125 2822 3475 
Q 2822 3834 2567 4026 
Q 2313 4219 1838 4219 
Q 1578 4219 1281 4162 
Q 984 4106 628 3988 
L 628 4550 
Q 988 4650 1302 4700 
Q 1616 4750 1894 4750 
Q 2613 4750 3031 4423 
Q 3450 4097 3450 3541 
Q 3450 3153 3228 2886 
Q 3006 2619 2597 2516 
z
" transform="scale(0.015625)"/>
       </defs>
       <use xlink:href="#DejaVuSans-31"/>
       <use xlink:href="#DejaVuSans-33" x="63.623047"/>
       <use xlink:href="#DejaVuSans-35" x="127.246094"/>
       <use xlink:href="#DejaVuSans-b0" x="190.869141"/>
      </g>
     </g>
    </g>
    <g id="xtick_5">
     <g id="line2d_5">
      <path d="M 236.16 174.528 
L 103.104 174.528 
" clip-path="url(#p194fa18417)" style="fill: none; stroke: #b0b0b0; stroke-width: 0.8; stroke-linecap: square"/>
     </g>
     <g id="text_5">
      <!-- 180° -->
      <g transform="translate(77.06025 177.287375)scale(0.1 -0.1)">
       <defs>
        <path id="DejaVuSans-38" d="M 2034 2216 
Q 1584 2216 1326 1975 
Q 1069 1734 1069 1313 
Q 1069 891 1326 650 
Q 1584 409 2034 409 
Q 2484 409 2743 651 
Q 3003 894 3003 1313 
Q 3003 1734 2745 1975 
Q 2488 2216 2034 2216 
z
M 1403 2484 
Q 997 2584 770 2862 
Q 544 3141 544 3541 
Q 544 4100 942 4425 
Q 1341 4750 2034 4750 
Q 2731 4750 3128 4425 
Q 3525 4100 3525 3541 
Q 3525 3141 3298 2862 
Q 3072 2584 2669 2484 
Q 3125 2378 3379 2068 
Q 3634 1759 3634 1313 
Q 3634 634 3220 271 
Q 2806 -91 2034 -91 
Q 1263 -91 848 271 
Q 434 634 434 1313 
Q 434 1759 690 2068 
Q 947 2378 1403 2484 
z
M 1172 3481 
Q 1172 3119 1398 2916 
Q 1625 2713 2034 2713 
Q 2441 2713 2670 2916 
Q 2900 3119 2900 3481 
Q 2900 3844 2670 4047 
Q 2441 4250 2034 4250 
Q 1625 4250 1398 4047 
Q 1172 3844 1172 3481 
z
" transform="scale(0.015625)"/>
       </defs>
       <use xlink:href="#DejaVuSans-31"/>
       <use xlink:href="#DejaVuSans-38" x="63.623047"/>
       <use xlink:href="#DejaVuSans-30" x="127.246094"/>
       <use xlink:href="#DejaVuSans-b0" x="190.869141"/>
      </g>
     </g>
    </g>
    <g id="xtick_6">
     <g id="line2d_6">
      <path d="M 236.16 174.528 
L 142.0752 268.6128 
" clip-path="url(#p194fa18417)" style="fill: none; stroke: #b0b0b0; stroke-width: 0.8; stroke-linecap: square"/>
     </g>
     <g id="text_6">
      <!-- 225° -->
      <g transform="translate(120.131955 281.27167)scale(0.1 -0.1)">
       <defs>
        <path id="DejaVuSans-32" d="M 1228 531 
L 3431 531 
L 3431 0 
L 469 0 
L 469 531 
Q 828 903 1448 1529 
Q 2069 2156 2228 2338 
Q 2531 2678 2651 2914 
Q 2772 3150 2772 3378 
Q 2772 3750 2511 3984 
Q 2250 4219 1831 4219 
Q 1534 4219 1204 4116 
Q 875 4013 500 3803 
L 500 4441 
Q 881 4594 1212 4672 
Q 1544 4750 1819 4750 
Q 2544 4750 2975 4387 
Q 3406 4025 3406 3419 
Q 3406 3131 3298 2873 
Q 3191 2616 2906 2266 
Q 2828 2175 2409 1742 
Q 1991 1309 1228 531 
z
" transform="scale(0.015625)"/>
       </defs>
       <use xlink:href="#DejaVuSans-32"/>
       <use xlink:href="#DejaVuSans-32" x="63.623047"/>
       <use xlink:href="#DejaVuSans-35" x="127.246094"/>
       <use xlink:href="#DejaVuSans-b0" x="190.869141"/>
      </g>
     </g>
    </g>
    <g id="xtick_7">
     <g id="line2d_7">
      <path d="M 236.16 174.528 
L 236.16 307.584 
" clip-path="url(#p194fa18417)" style="fill: none; stroke: #b0b0b0; stroke-width: 0.8; stroke-linecap: square"/>
     </g>
     <g id="text_7">
      <!-- 270° -->
      <g transform="translate(224.11625 324.343375)scale(0.1 -0.1)">
       <defs>
        <path id="DejaVuSans-37" d="M 525 4666 
L 3525 4666 
L 3525 4397 
L 1831 0 
L 1172 0 
L 2766 4134 
L 525 4134 
L 525 4666 
z
" transform="scale(0.015625)"/>
       </defs>
       <use xlink:href="#DejaVuSans-32"/>
       <use xlink:href="#DejaVuSans-37" x="63.623047"/>
       <use xlink:href="#DejaVuSans-30" x="127.246094"/>
       <use xlink:href="#DejaVuSans-b0" x="190.869141"/>
      </g>
     </g>
    </g>
    <g id="xtick_8">
     <g id="line2d_8">
      <path d="M 236.16 174.528 
L 330.2448 268.6128 
" clip-path="url(#p194fa18417)" style="fill: none; stroke: #b0b0b0; stroke-width: 0.8; stroke-linecap: square"/>
     </g>
     <g id="text_8">
      <!-- 315° -->
      <g transform="translate(328.100545 281.27167)scale(0.1 -0.1)">
       <use xlink:href="#DejaVuSans-33"/>
       <use xlink:href="#DejaVuSans-31" x="63.623047"/>
       <use xlink:href="#DejaVuSans-35" x="127.246094"/>
       <use xlink:href="#DejaVuSans-b0" x="190.869141"/>
      </g>
     </g>
    </g>
   </g>
   <g id="matplotlib.axis_2">
    <g id="ytick_1">
     <g id="line2d_9">
      <path d="M 325.506017 174.528 
C 325.506017 162.795189 323.194909 151.176464 318.704956 140.33676 
C 314.215004 129.497055 307.633525 119.647176 299.337174 111.350826 
C 291.040824 103.054475 281.190945 96.472996 270.35124 91.983044 
C 259.511536 87.493091 247.892811 85.181983 236.16 85.181983 
C 224.427189 85.181983 212.808464 87.493091 201.96876 91.983044 
C 191.129055 96.472996 181.279176 103.054475 172.982826 111.350826 
C 164.686475 119.647176 158.104996 129.497055 153.615044 140.33676 
C 149.125091 151.176464 146.813983 162.795189 146.813983 174.528 
C 146.813983 186.260811 149.125091 197.879536 153.615044 208.71924 
C 158.104996 219.558945 164.686475 229.408824 172.982826 237.705174 
C 181.279176 246.001525 191.129055 252.583004 201.96876 257.072956 
C 212.808464 261.562909 224.427189 263.874017 236.16 263.874017 
C 247.892811 263.874017 259.511536 261.562909 270.35124 257.072956 
C 281.190945 252.583004 291.040824 246.001525 299.337174 237.705174 
C 307.633525 229.408824 314.215004 219.558945 318.704956 208.71924 
C 323.194909 197.879536 325.506017 186.260811 325.506017 174.528 
" clip-path="url(#p194fa18417)" style="fill: none; stroke: #b0b0b0; stroke-width: 0.8; stroke-linecap: square"/>
     </g>
     <g id="text_9">
      <!-- 0.02 -->
      <g transform="translate(318.704956 138.257072)scale(0.1 -0.1)">
       <defs>
        <path id="DejaVuSans-2e" d="M 684 794 
L 1344 794 
L 1344 0 
L 684 0 
L 684 794 
z
" transform="scale(0.015625)"/>
       </defs>
       <use xlink:href="#DejaVuSans-30"/>
       <use xlink:href="#DejaVuSans-2e" x="63.623047"/>
       <use xlink:href="#DejaVuSans-30" x="95.410156"/>
       <use xlink:href="#DejaVuSans-32" x="159.033203"/>
      </g>
     </g>
    </g>
   </g>
   <g id="patch_3">
    <path d="M 369.216 174.528 
C 369.216 157.055246 365.774248 139.752393 359.087715 123.609673 
C 352.401182 107.466954 342.599903 92.798303 330.2448 80.4432 
C 317.889697 68.088097 303.221046 58.286818 287.078327 51.600285 
C 270.935607 44.913752 253.632754 41.472 236.16 41.472 
C 218.687246 41.472 201.384393 44.913752 185.241673 51.600285 
C 169.098954 58.286818 154.430303 68.088097 142.0752 80.4432 
C 129.720097 92.798303 119.918818 107.466954 113.232285 123.609673 
C 106.545752 139.752393 103.104 157.055246 103.104 174.528 
C 103.104 192.000754 106.545752 209.303607 113.232285 225.446327 
C 119.918818 241.589046 129.720097 256.257697 142.0752 268.6128 
C 154.430303 280.967903 169.098954 290.769182 185.241673 297.455715 
C 201.384393 304.142248 218.687246 307.584 236.16 307.584 
C 253.632754 307.584 270.935607 304.142248 287.078327 297.455715 
C 303.221046 290.769182 317.889697 280.967903 330.2448 268.6128 
C 342.599903 256.257697 352.401182 241.589046 359.087715 225.446327 
C 365.774248 209.303607 369.216 192.000754 369.216 174.528 
" style="fill: none; stroke: #000000; stroke-width: 0.8; stroke-linejoin: miter; stroke-linecap: square"/>
   </g>
  </g>
  <g id="legend_1">
   <g id="patch_4">
    <path d="M 368.839063 66.7125 
L 453.8 66.7125 
Q 455.8 66.7125 455.8 64.7125 
L 455.8 7 
Q 455.8 5 453.8 5 
L 368.839063 5 
Q 366.839063 5 366.839063 7 
L 366.839063 64.7125 
Q 366.839063 66.7125 368.839063 66.7125 
z
" style="fill: #ffffff; opacity: 0.8; stroke: #cccccc; stroke-linejoin: miter"/>
   </g>
   <g id="PathCollection_5">
    <g>
     <use xlink:href="#me23d773d91" x="380.839063" y="13.973438" style="fill: #f50505; stroke: #f50505"/>
    </g>
   </g>
   <g id="text_10">
    <!-- Decoder A -->
    <g transform="translate(398.839063 16.598438)scale(0.1 -0.1)">
     <defs>
      <path id="DejaVuSans-44" d="M 1259 4147 
L 1259 519 
L 2022 519 
Q 2988 519 3436 956 
Q 3884 1394 3884 2338 
Q 3884 3275 3436 3711 
Q 2988 4147 2022 4147 
L 1259 4147 
z
M 628 4666 
L 1925 4666 
Q 3281 4666 3915 4102 
Q 4550 3538 4550 2338 
Q 4550 1131 3912 565 
Q 3275 0 1925 0 
L 628 0 
L 628 4666 
z
" transform="scale(0.015625)"/>
      <path id="DejaVuSans-65" d="M 3597 1894 
L 3597 1613 
L 953 1613 
Q 991 1019 1311 708 
Q 1631 397 2203 397 
Q 2534 397 2845 478 
Q 3156 559 3463 722 
L 3463 178 
Q 3153 47 2828 -22 
Q 2503 -91 2169 -91 
Q 1331 -91 842 396 
Q 353 884 353 1716 
Q 353 2575 817 3079 
Q 1281 3584 2069 3584 
Q 2775 3584 3186 3129 
Q 3597 2675 3597 1894 
z
M 3022 2063 
Q 3016 2534 2758 2815 
Q 2500 3097 2075 3097 
Q 1594 3097 1305 2825 
Q 1016 2553 972 2059 
L 3022 2063 
z
" transform="scale(0.015625)"/>
      <path id="DejaVuSans-63" d="M 3122 3366 
L 3122 2828 
Q 2878 2963 2633 3030 
Q 2388 3097 2138 3097 
Q 1578 3097 1268 2742 
Q 959 2388 959 1747 
Q 959 1106 1268 751 
Q 1578 397 2138 397 
Q 2388 397 2633 464 
Q 2878 531 3122 666 
L 3122 134 
Q 2881 22 2623 -34 
Q 2366 -91 2075 -91 
Q 1284 -91 818 406 
Q 353 903 353 1747 
Q 353 2603 823 3093 
Q 1294 3584 2113 3584 
Q 2378 3584 2631 3529 
Q 2884 3475 3122 3366 
z
" transform="scale(0.015625)"/>
      <path id="DejaVuSans-6f" d="M 1959 3097 
Q 1497 3097 1228 2736 
Q 959 2375 959 1747 
Q 959 1119 1226 758 
Q 1494 397 1959 397 
Q 2419 397 2687 759 
Q 2956 1122 2956 1747 
Q 2956 2369 2687 2733 
Q 2419 3097 1959 3097 
z
M 1959 3584 
Q 2709 3584 3137 3096 
Q 3566 2609 3566 1747 
Q 3566 888 3137 398 
Q 2709 -91 1959 -91 
Q 1206 -91 779 398 
Q 353 888 353 1747 
Q 353 2609 779 3096 
Q 1206 3584 1959 3584 
z
" transform="scale(0.015625)"/>
      <path id="DejaVuSans-64" d="M 2906 2969 
L 2906 4863 
L 3481 4863 
L 3481 0 
L 2906 0 
L 2906 525 
Q 2725 213 2448 61 
Q 2172 -91 1784 -91 
Q 1150 -91 751 415 
Q 353 922 353 1747 
Q 353 2572 751 3078 
Q 1150 3584 1784 3584 
Q 2172 3584 2448 3432 
Q 2725 3281 2906 2969 
z
M 947 1747 
Q 947 1113 1208 752 
Q 1469 391 1925 391 
Q 2381 391 2643 752 
Q 2906 1113 2906 1747 
Q 2906 2381 2643 2742 
Q 2381 3103 1925 3103 
Q 1469 3103 1208 2742 
Q 947 2381 947 1747 
z
" transform="scale(0.015625)"/>
      <path id="DejaVuSans-72" d="M 2631 2963 
Q 2534 3019 2420 3045 
Q 2306 3072 2169 3072 
Q 1681 3072 1420 2755 
Q 1159 2438 1159 1844 
L 1159 0 
L 581 0 
L 581 3500 
L 1159 3500 
L 1159 2956 
Q 1341 3275 1631 3429 
Q 1922 3584 2338 3584 
Q 2397 3584 2469 3576 
Q 2541 3569 2628 3553 
L 2631 2963 
z
" transform="scale(0.015625)"/>
      <path id="DejaVuSans-20" transform="scale(0.015625)"/>
      <path id="DejaVuSans-41" d="M 2188 4044 
L 1331 1722 
L 3047 1722 
L 2188 4044 
z
M 1831 4666 
L 2547 4666 
L 4325 0 
L 3669 0 
L 3244 1197 
L 1141 1197 
L 716 0 
L 50 0 
L 1831 4666 
z
" transform="scale(0.015625)"/>
     </defs>
     <use xlink:href="#DejaVuSans-44"/>
     <use xlink:href="#DejaVuSans-65" x="77.001953"/>
     <use xlink:href="#DejaVuSans-63" x="138.525391"/>
     <use xlink:href="#DejaVuSans-6f" x="193.505859"/>
     <use xlink:href="#DejaVuSans-64" x="254.6875"/>
     <use xlink:href="#DejaVuSans-65" x="318.164062"/>
     <use xlink:href="#DejaVuSans-72" x="379.6875"/>
     <use xlink:href="#DejaVuSans-20" x="420.800781"/>
     <use xlink:href="#DejaVuSans-41" x="452.587891"/>
    </g>
   </g>
   <g id="PathCollection_6">
    <g>
     <use xlink:href="#mc0450aae2a" x="380.839063" y="28.651563" style="fill: #3505f5; stroke: #3505f5"/>
    </g>
   </g>
   <g id="text_11">
    <!-- Decoder B -->
    <g transform="translate(398.839063 31.276563)scale(0.1 -0.1)">
     <defs>
      <path id="DejaVuSans-42" d="M 1259 2228 
L 1259 519 
L 2272 519 
Q 2781 519 3026 730 
Q 3272 941 3272 1375 
Q 3272 1813 3026 2020 
Q 2781 2228 2272 2228 
L 1259 2228 
z
M 1259 4147 
L 1259 2741 
L 2194 2741 
Q 2656 2741 2882 2914 
Q 3109 3088 3109 3444 
Q 3109 3797 2882 3972 
Q 2656 4147 2194 4147 
L 1259 4147 
z
M 628 4666 
L 2241 4666 
Q 2963 4666 3353 4366 
Q 3744 4066 3744 3513 
Q 3744 3084 3544 2831 
Q 3344 2578 2956 2516 
Q 3422 2416 3680 2098 
Q 3938 1781 3938 1306 
Q 3938 681 3513 340 
Q 3088 0 2303 0 
L 628 0 
L 628 4666 
z
" transform="scale(0.015625)"/>
     </defs>
     <use xlink:href="#DejaVuSans-44"/>
     <use xlink:href="#DejaVuSans-65" x="77.001953"/>
     <use xlink:href="#DejaVuSans-63" x="138.525391"/>
     <use xlink:href="#DejaVuSans-6f" x="193.505859"/>
     <use xlink:href="#DejaVuSans-64" x="254.6875"/>
     <use xlink:href="#DejaVuSans-65" x="318.164062"/>
     <use xlink:href="#DejaVuSans-72" x="379.6875"/>
     <use xlink:href="#DejaVuSans-20" x="420.800781"/>
     <use xlink:href="#DejaVuSans-42" x="452.587891"/>
    </g>
   </g>
   <g id="PathCollection_7">
    <g>
     <use xlink:href="#m77faddc46d" x="380.839063" y="43.329688" style="fill: #02faf2; stroke: #02faf2"/>
    </g>
   </g>
   <g id="text_12">
    <!-- Decoder C -->
    <g transform="translate(398.839063 45.954688)scale(0.1 -0.1)">
     <defs>
      <path id="DejaVuSans-43" d="M 4122 4306 
L 4122 3641 
Q 3803 3938 3442 4084 
Q 3081 4231 2675 4231 
Q 1875 4231 1450 3742 
Q 1025 3253 1025 2328 
Q 1025 1406 1450 917 
Q 1875 428 2675 428 
Q 3081 428 3442 575 
Q 3803 722 4122 1019 
L 4122 359 
Q 3791 134 3420 21 
Q 3050 -91 2638 -91 
Q 1578 -91 968 557 
Q 359 1206 359 2328 
Q 359 3453 968 4101 
Q 1578 4750 2638 4750 
Q 3056 4750 3426 4639 
Q 3797 4528 4122 4306 
z
" transform="scale(0.015625)"/>
     </defs>
     <use xlink:href="#DejaVuSans-44"/>
     <use xlink:href="#DejaVuSans-65" x="77.001953"/>
     <use xlink:href="#DejaVuSans-63" x="138.525391"/>
     <use xlink:href="#DejaVuSans-6f" x="193.505859"/>
     <use xlink:href="#DejaVuSans-64" x="254.6875"/>
     <use xlink:href="#DejaVuSans-65" x="318.164062"/>
     <use xlink:href="#DejaVuSans-72" x="379.6875"/>
     <use xlink:href="#DejaVuSans-20" x="420.800781"/>
     <use xlink:href="#DejaVuSans-43" x="452.587891"/>
    </g>
   </g>
   <g id="PathCollection_8">
    <g>
     <use xlink:href="#madf265ea5b" x="380.839063" y="58.007813" style="fill: #f5ed05; stroke: #f5ed05"/>
    </g>
   </g>
   <g id="text_13">
    <!-- Decoder D -->
    <g transform="translate(398.839063 60.632813)scale(0.1 -0.1)">
     <use xlink:href="#DejaVuSans-44"/>
     <use xlink:href="#DejaVuSans-65" x="77.001953"/>
     <use xlink:href="#DejaVuSans-63" x="138.525391"/>
     <use xlink:href="#DejaVuSans-6f" x="193.505859"/>
     <use xlink:href="#DejaVuSans-64" x="254.6875"/>
     <use xlink:href="#DejaVuSans-65" x="318.164062"/>
     <use xlink:href="#DejaVuSans-72" x="379.6875"/>
     <use xlink:href="#DejaVuSans-20" x="420.800781"/>
     <use xlink:href="#DejaVuSans-44" x="452.587891"/>
    </g>
   </g>
  </g>
 </g>
 <defs>
  <clipPath id="p194fa18417">
   <path d="M 369.216 174.528 
C 369.216 157.055246 365.774248 139.752393 359.087715 123.609673 
C 352.401182 107.466954 342.599903 92.798303 330.2448 80.4432 
C 317.889697 68.088097 303.221046 58.286818 287.078327 51.600285 
C 270.935607 44.913752 253.632754 41.472 236.16 41.472 
C 218.687246 41.472 201.384393 44.913752 185.241673 51.600285 
C 169.098954 58.286818 154.430303 68.088097 142.0752 80.4432 
C 129.720097 92.798303 119.918818 107.466954 113.232285 123.609673 
C 106.545752 139.752393 103.104 157.055246 103.104 174.528 
C 103.104 192.000754 106.545752 209.303607 113.232285 225.446327 
C 119.918818 241.589046 129.720097 256.257697 142.0752 268.6128 
C 154.430303 280.967903 169.098954 290.769182 185.241673 297.455715 
C 201.384393 304.142248 218.687246 307.584 236.16 307.584 
C 253.632754 307.584 270.935607 304.142248 287.078327 297.455715 
C 303.221046 290.769182 317.889697 280.967903 330.2448 268.6128 
C 342.599903 256.257697 352.401182 241.589046 359.087715 225.446327 
C 365.774248 209.303607 369.216 192.000754 369.216 174.528 
M 236.16 174.528 
C 236.16 174.528 236.16 174.528 236.16 174.528 
C 236.16 174.528 236.16 174.528 236.16 174.528 
C 236.16 174.528 236.16 174.528 236.16 174.528 
C 236.16 174.528 236.16 174.528 236.16 174.528 
C 236.16 174.528 236.16 174.528 236.16 174.528 
C 236.16 174.528 236.16 174.528 236.16 174.528 
C 236.16 174.528 236.16 174.528 236.16 174.528 
C 236.16 174.528 236.16 174.528 236.16 174.528 
C 236.16 174.528 236.16 174.528 236.16 174.528 
C 236.16 174.528 236.16 174.528 236.16 174.528 
C 236.16 174.528 236.16 174.528 236.16 174.528 
C 236.16 174.528 236.16 174.528 236.16 174.528 
C 236.16 174.528 236.16 174.528 236.16 174.528 
C 236.16 174.528 236.16 174.528 236.16 174.528 
C 236.16 174.528 236.16 174.528 236.16 174.528 
C 236.16 174.528 236.16 174.528 236.16 174.528 
M 369.216 174.528 
z
"/>
  </clipPath>
 </defs>
</svg>
