<?xml version="1.0" encoding="utf-8" standalone="no"?>
<!DOCTYPE svg PUBLIC "-//W3C//DTD SVG 1.1//EN"
  "http://www.w3.org/Graphics/SVG/1.1/DTD/svg11.dtd">
<svg xmlns:xlink="http://www.w3.org/1999/xlink" width="460.8pt" height="345.6pt" viewBox="0 0 460.8 345.6" xmlns="http://www.w3.org/2000/svg" version="1.1">
 <metadata>
  <rdf:RDF xmlns:dc="http://purl.org/dc/elements/1.1/" xmlns:cc="http://creativecommons.org/ns#" xmlns:rdf="http://www.w3.org/1999/02/22-rdf-syntax-ns#">
   <cc:Work>
    <dc:type rdf:resource="http://purl.org/dc/dcmitype/StillImage"/>
    <dc:date>2024-02-12T12:22:14.395646</dc:date>
    <dc:format>image/svg+xml</dc:format>
    <dc:creator>
     <cc:Agent>
      <dc:title>Matplotlib v3.5.0, https://matplotlib.org/</dc:title>
     </cc:Agent>
    </dc:creator>
   </cc:Work>
  </rdf:RDF>
 </metadata>
 <defs>
  <style type="text/css">*{stroke-linejoin: round; stroke-linecap: butt}</style>
 </defs>
 <g id="figure_1">
  <g id="patch_1">
   <path d="M 0 345.6 
L 460.8 345.6 
L 460.8 0 
L 0 0 
z
" style="fill: #ffffff"/>
  </g>
  <g id="axes_1">
   <g id="patch_2">
    <path d="M 369.216 174.528 
C 369.216 157.055246 365.774248 139.752393 359.087715 123.609673 
C 352.401182 107.466954 342.599903 92.798303 330.2448 80.4432 
C 317.889697 68.088097 303.221046 58.286818 287.078327 51.600285 
C 270.935607 44.913752 253.632754 41.472 236.16 41.472 
C 218.687246 41.472 201.384393 44.913752 185.241673 51.600285 
C 169.098954 58.286818 154.430303 68.088097 142.0752 80.4432 
C 129.720097 92.798303 119.918818 107.466954 113.232285 123.609673 
C 106.545752 139.752393 103.104 157.055246 103.104 174.528 
C 103.104 192.000754 106.545752 209.303607 113.232285 225.446327 
C 119.918818 241.589046 129.720097 256.257697 142.0752 268.6128 
C 154.430303 280.967903 169.098954 290.769182 185.241673 297.455715 
C 201.384393 304.142248 218.687246 307.584 236.16 307.584 
C 253.632754 307.584 270.935607 304.142248 287.078327 297.455715 
C 303.221046 290.769182 317.889697 280.967903 330.2448 268.6128 
C 342.599903 256.257697 352.401182 241.589046 359.087715 225.446327 
C 365.774248 209.303607 369.216 192.000754 369.216 174.528 
M 236.16 174.528 
C 236.16 174.528 236.16 174.528 236.16 174.528 
C 236.16 174.528 236.16 174.528 236.16 174.528 
C 236.16 174.528 236.16 174.528 236.16 174.528 
C 236.16 174.528 236.16 174.528 236.16 174.528 
C 236.16 174.528 236.16 174.528 236.16 174.528 
C 236.16 174.528 236.16 174.528 236.16 174.528 
C 236.16 174.528 236.16 174.528 236.16 174.528 
C 236.16 174.528 236.16 174.528 236.16 174.528 
C 236.16 174.528 236.16 174.528 236.16 174.528 
C 236.16 174.528 236.16 174.528 236.16 174.528 
C 236.16 174.528 236.16 174.528 236.16 174.528 
C 236.16 174.528 236.16 174.528 236.16 174.528 
C 236.16 174.528 236.16 174.528 236.16 174.528 
C 236.16 174.528 236.16 174.528 236.16 174.528 
C 236.16 174.528 236.16 174.528 236.16 174.528 
C 236.16 174.528 236.16 174.528 236.16 174.528 
M 369.216 174.528 
z
" style="fill: #ffffff"/>
   </g>
   <g id="PathCollection_1">
    <defs>
     <path id="m697667ebd2" d="M 0 3 
C 0.795609 3 1.55874 2.683901 2.12132 2.12132 
C 2.683901 1.55874 3 0.795609 3 0 
C 3 -0.795609 2.683901 -1.55874 2.12132 -2.12132 
C 1.55874 -2.683901 0.795609 -3 0 -3 
C -0.795609 -3 -1.55874 -2.683901 -2.12132 -2.12132 
C -2.683901 -1.55874 -3 -0.795609 -3 0 
C -3 0.795609 -2.683901 1.55874 -2.12132 2.12132 
C -1.55874 2.683901 -0.795609 3 0 3 
z
" style="stroke: #f50505"/>
    </defs>
    <g clip-path="url(#p652ccf358c)">
     <use xlink:href="#m697667ebd2" x="288.84949" y="190.194296" style="fill: #f50505; stroke: #f50505"/>
     <use xlink:href="#m697667ebd2" x="286.848369" y="167.761745" style="fill: #f50505; stroke: #f50505"/>
     <use xlink:href="#m697667ebd2" x="293.942033" y="165.82353" style="fill: #f50505; stroke: #f50505"/>
     <use xlink:href="#m697667ebd2" x="290.11932" y="202.640567" style="fill: #f50505; stroke: #f50505"/>
     <use xlink:href="#m697667ebd2" x="277.80832" y="206.656563" style="fill: #f50505; stroke: #f50505"/>
     <use xlink:href="#m697667ebd2" x="294.409246" y="180.506178" style="fill: #f50505; stroke: #f50505"/>
     <use xlink:href="#m697667ebd2" x="284.392217" y="202.95316" style="fill: #f50505; stroke: #f50505"/>
     <use xlink:href="#m697667ebd2" x="291.127086" y="184.500469" style="fill: #f50505; stroke: #f50505"/>
     <use xlink:href="#m697667ebd2" x="211.233986" y="224.473337" style="fill: #f50505; stroke: #f50505"/>
     <use xlink:href="#m697667ebd2" x="277.666996" y="215.188104" style="fill: #f50505; stroke: #f50505"/>
     <use xlink:href="#m697667ebd2" x="292.929721" y="167.141543" style="fill: #f50505; stroke: #f50505"/>
     <use xlink:href="#m697667ebd2" x="292.781475" y="181.643629" style="fill: #f50505; stroke: #f50505"/>
     <use xlink:href="#m697667ebd2" x="285.652493" y="209.349773" style="fill: #f50505; stroke: #f50505"/>
     <use xlink:href="#m697667ebd2" x="292.794561" y="198.35513" style="fill: #f50505; stroke: #f50505"/>
     <use xlink:href="#m697667ebd2" x="297.679807" y="172.644223" style="fill: #f50505; stroke: #f50505"/>
     <use xlink:href="#m697667ebd2" x="288.645005" y="196.953008" style="fill: #f50505; stroke: #f50505"/>
     <use xlink:href="#m697667ebd2" x="292.786302" y="192.773423" style="fill: #f50505; stroke: #f50505"/>
     <use xlink:href="#m697667ebd2" x="266.147867" y="228.653387" style="fill: #f50505; stroke: #f50505"/>
     <use xlink:href="#m697667ebd2" x="298.978089" y="174.104308" style="fill: #f50505; stroke: #f50505"/>
     <use xlink:href="#m697667ebd2" x="287.173223" y="205.531219" style="fill: #f50505; stroke: #f50505"/>
     <use xlink:href="#m697667ebd2" x="293.202133" y="184.841978" style="fill: #f50505; stroke: #f50505"/>
     <use xlink:href="#m697667ebd2" x="296.852921" y="172.884934" style="fill: #f50505; stroke: #f50505"/>
     <use xlink:href="#m697667ebd2" x="289.121846" y="184.3208" style="fill: #f50505; stroke: #f50505"/>
     <use xlink:href="#m697667ebd2" x="288.018635" y="196.186082" style="fill: #f50505; stroke: #f50505"/>
     <use xlink:href="#m697667ebd2" x="281.465395" y="220.09109" style="fill: #f50505; stroke: #f50505"/>
     <use xlink:href="#m697667ebd2" x="293.309321" y="171.631351" style="fill: #f50505; stroke: #f50505"/>
    </g>
   </g>
   <g id="PathCollection_2">
    <defs>
     <path id="me92f5dff49" d="M 0 3 
C 0.795609 3 1.55874 2.683901 2.12132 2.12132 
C 2.683901 1.55874 3 0.795609 3 0 
C 3 -0.795609 2.683901 -1.55874 2.12132 -2.12132 
C 1.55874 -2.683901 0.795609 -3 0 -3 
C -0.795609 -3 -1.55874 -2.683901 -2.12132 -2.12132 
C -2.683901 -1.55874 -3 -0.795609 -3 0 
C -3 0.795609 -2.683901 1.55874 -2.12132 2.12132 
C -1.55874 2.683901 -0.795609 3 0 3 
z
" style="stroke: #3505f5"/>
    </defs>
    <g clip-path="url(#p652ccf358c)">
     <use xlink:href="#me92f5dff49" x="257.978559" y="173.53315" style="fill: #3505f5; stroke: #3505f5"/>
     <use xlink:href="#me92f5dff49" x="281.388668" y="172.785055" style="fill: #3505f5; stroke: #3505f5"/>
     <use xlink:href="#me92f5dff49" x="256.837437" y="216.294899" style="fill: #3505f5; stroke: #3505f5"/>
     <use xlink:href="#me92f5dff49" x="302.789475" y="186.22947" style="fill: #3505f5; stroke: #3505f5"/>
     <use xlink:href="#me92f5dff49" x="242.208" y="174.529108" style="fill: #3505f5; stroke: #3505f5"/>
     <use xlink:href="#me92f5dff49" x="294.007329" y="174.528" style="fill: #3505f5; stroke: #3505f5"/>
     <use xlink:href="#me92f5dff49" x="304.116151" y="146.609733" style="fill: #3505f5; stroke: #3505f5"/>
     <use xlink:href="#me92f5dff49" x="284.63211" y="177.126068" style="fill: #3505f5; stroke: #3505f5"/>
     <use xlink:href="#me92f5dff49" x="173.092077" y="138.872528" style="fill: #3505f5; stroke: #3505f5"/>
     <use xlink:href="#me92f5dff49" x="272.921924" y="217.015207" style="fill: #3505f5; stroke: #3505f5"/>
     <use xlink:href="#me92f5dff49" x="248.849874" y="240.510629" style="fill: #3505f5; stroke: #3505f5"/>
     <use xlink:href="#me92f5dff49" x="291.758974" y="171.564104" style="fill: #3505f5; stroke: #3505f5"/>
     <use xlink:href="#me92f5dff49" x="294.007329" y="174.528" style="fill: #3505f5; stroke: #3505f5"/>
     <use xlink:href="#me92f5dff49" x="318.009293" y="204.281234" style="fill: #3505f5; stroke: #3505f5"/>
     <use xlink:href="#me92f5dff49" x="296.294297" y="106.10858" style="fill: #3505f5; stroke: #3505f5"/>
     <use xlink:href="#me92f5dff49" x="290.69995" y="194.288375" style="fill: #3505f5; stroke: #3505f5"/>
     <use xlink:href="#me92f5dff49" x="298.193074" y="176.622803" style="fill: #3505f5; stroke: #3505f5"/>
     <use xlink:href="#me92f5dff49" x="249.016467" y="248.598124" style="fill: #3505f5; stroke: #3505f5"/>
     <use xlink:href="#me92f5dff49" x="304.796264" y="200.573146" style="fill: #3505f5; stroke: #3505f5"/>
     <use xlink:href="#me92f5dff49" x="249.099507" y="249.457003" style="fill: #3505f5; stroke: #3505f5"/>
     <use xlink:href="#me92f5dff49" x="294.007329" y="174.528" style="fill: #3505f5; stroke: #3505f5"/>
     <use xlink:href="#me92f5dff49" x="304.050862" y="187.31861" style="fill: #3505f5; stroke: #3505f5"/>
     <use xlink:href="#me92f5dff49" x="251.181717" y="225.775054" style="fill: #3505f5; stroke: #3505f5"/>
     <use xlink:href="#me92f5dff49" x="295.250444" y="194.159556" style="fill: #3505f5; stroke: #3505f5"/>
     <use xlink:href="#me92f5dff49" x="271.385887" y="247.660374" style="fill: #3505f5; stroke: #3505f5"/>
     <use xlink:href="#me92f5dff49" x="301.881862" y="205.197292" style="fill: #3505f5; stroke: #3505f5"/>
    </g>
   </g>
   <g id="PathCollection_3">
    <defs>
     <path id="m3a9e462213" d="M 0 3 
C 0.795609 3 1.55874 2.683901 2.12132 2.12132 
C 2.683901 1.55874 3 0.795609 3 0 
C 3 -0.795609 2.683901 -1.55874 2.12132 -2.12132 
C 1.55874 -2.683901 0.795609 -3 0 -3 
C -0.795609 -3 -1.55874 -2.683901 -2.12132 -2.12132 
C -2.683901 -1.55874 -3 -0.795609 -3 0 
C -3 0.795609 -2.683901 1.55874 -2.12132 2.12132 
C -1.55874 2.683901 -0.795609 3 0 3 
z
" style="stroke: #02faf2"/>
    </defs>
    <g clip-path="url(#p652ccf358c)">
     <use xlink:href="#m3a9e462213" x="322.130653" y="190.732584" style="fill: #02faf2; stroke: #02faf2"/>
     <use xlink:href="#m3a9e462213" x="239.318491" y="66.046689" style="fill: #02faf2; stroke: #02faf2"/>
     <use xlink:href="#m3a9e462213" x="353.653134" y="157.07065" style="fill: #02faf2; stroke: #02faf2"/>
     <use xlink:href="#m3a9e462213" x="342.101162" y="177.407701" style="fill: #02faf2; stroke: #02faf2"/>
     <use xlink:href="#m3a9e462213" x="241.45432" y="225.68956" style="fill: #02faf2; stroke: #02faf2"/>
     <use xlink:href="#m3a9e462213" x="310.413019" y="193.429343" style="fill: #02faf2; stroke: #02faf2"/>
     <use xlink:href="#m3a9e462213" x="323.283891" y="158.516527" style="fill: #02faf2; stroke: #02faf2"/>
     <use xlink:href="#m3a9e462213" x="234.599889" y="268.206441" style="fill: #02faf2; stroke: #02faf2"/>
     <use xlink:href="#m3a9e462213" x="152.489671" y="149.208953" style="fill: #02faf2; stroke: #02faf2"/>
     <use xlink:href="#m3a9e462213" x="323.219784" y="82.052998" style="fill: #02faf2; stroke: #02faf2"/>
     <use xlink:href="#m3a9e462213" x="184.910736" y="290.655138" style="fill: #02faf2; stroke: #02faf2"/>
     <use xlink:href="#m3a9e462213" x="259.264679" y="76.934074" style="fill: #02faf2; stroke: #02faf2"/>
     <use xlink:href="#m3a9e462213" x="281.909535" y="235.685541" style="fill: #02faf2; stroke: #02faf2"/>
     <use xlink:href="#m3a9e462213" x="311.028544" y="242.907646" style="fill: #02faf2; stroke: #02faf2"/>
     <use xlink:href="#m3a9e462213" x="230.500679" y="67.160032" style="fill: #02faf2; stroke: #02faf2"/>
     <use xlink:href="#m3a9e462213" x="278.84818" y="257.429074" style="fill: #02faf2; stroke: #02faf2"/>
     <use xlink:href="#m3a9e462213" x="327.971642" y="144.49264" style="fill: #02faf2; stroke: #02faf2"/>
     <use xlink:href="#m3a9e462213" x="265.521802" y="267.074335" style="fill: #02faf2; stroke: #02faf2"/>
     <use xlink:href="#m3a9e462213" x="351.484471" y="147.985873" style="fill: #02faf2; stroke: #02faf2"/>
     <use xlink:href="#m3a9e462213" x="340.62264" y="244.773504" style="fill: #02faf2; stroke: #02faf2"/>
     <use xlink:href="#m3a9e462213" x="356.074965" y="194.297744" style="fill: #02faf2; stroke: #02faf2"/>
     <use xlink:href="#m3a9e462213" x="273.649006" y="285.271821" style="fill: #02faf2; stroke: #02faf2"/>
     <use xlink:href="#m3a9e462213" x="227.366304" y="258.640449" style="fill: #02faf2; stroke: #02faf2"/>
     <use xlink:href="#m3a9e462213" x="305.261755" y="115.249465" style="fill: #02faf2; stroke: #02faf2"/>
     <use xlink:href="#m3a9e462213" x="284.622947" y="275.483381" style="fill: #02faf2; stroke: #02faf2"/>
     <use xlink:href="#m3a9e462213" x="208.068268" y="284.140015" style="fill: #02faf2; stroke: #02faf2"/>
    </g>
   </g>
   <g id="PathCollection_4">
    <defs>
     <path id="m9799f2f9f3" d="M 0 3 
C 0.795609 3 1.55874 2.683901 2.12132 2.12132 
C 2.683901 1.55874 3 0.795609 3 0 
C 3 -0.795609 2.683901 -1.55874 2.12132 -2.12132 
C 1.55874 -2.683901 0.795609 -3 0 -3 
C -0.795609 -3 -1.55874 -2.683901 -2.12132 -2.12132 
C -2.683901 -1.55874 -3 -0.795609 -3 0 
C -3 0.795609 -2.683901 1.55874 -2.12132 2.12132 
C -1.55874 2.683901 -0.795609 3 0 3 
z
" style="stroke: #f5ed05"/>
    </defs>
    <g clip-path="url(#p652ccf358c)">
     <use xlink:href="#m9799f2f9f3" x="252.933684" y="189.213121" style="fill: #f5ed05; stroke: #f5ed05"/>
     <use xlink:href="#m9799f2f9f3" x="292.437496" y="148.204835" style="fill: #f5ed05; stroke: #f5ed05"/>
     <use xlink:href="#m9799f2f9f3" x="226.338493" y="241.021471" style="fill: #f5ed05; stroke: #f5ed05"/>
     <use xlink:href="#m9799f2f9f3" x="275.855506" y="218.638637" style="fill: #f5ed05; stroke: #f5ed05"/>
     <use xlink:href="#m9799f2f9f3" x="227.806634" y="234.72476" style="fill: #f5ed05; stroke: #f5ed05"/>
     <use xlink:href="#m9799f2f9f3" x="297.247009" y="167.258651" style="fill: #f5ed05; stroke: #f5ed05"/>
     <use xlink:href="#m9799f2f9f3" x="283.139036" y="144.57663" style="fill: #f5ed05; stroke: #f5ed05"/>
     <use xlink:href="#m9799f2f9f3" x="272.146224" y="227.027331" style="fill: #f5ed05; stroke: #f5ed05"/>
     <use xlink:href="#m9799f2f9f3" x="201.520823" y="222.260628" style="fill: #f5ed05; stroke: #f5ed05"/>
     <use xlink:href="#m9799f2f9f3" x="304.912835" y="146.308438" style="fill: #f5ed05; stroke: #f5ed05"/>
     <use xlink:href="#m9799f2f9f3" x="231.426635" y="247.070934" style="fill: #f5ed05; stroke: #f5ed05"/>
     <use xlink:href="#m9799f2f9f3" x="286.620681" y="120.374873" style="fill: #f5ed05; stroke: #f5ed05"/>
     <use xlink:href="#m9799f2f9f3" x="253.085748" y="220.533937" style="fill: #f5ed05; stroke: #f5ed05"/>
     <use xlink:href="#m9799f2f9f3" x="251.265072" y="234.001669" style="fill: #f5ed05; stroke: #f5ed05"/>
     <use xlink:href="#m9799f2f9f3" x="238.554474" y="113.46013" style="fill: #f5ed05; stroke: #f5ed05"/>
     <use xlink:href="#m9799f2f9f3" x="275.366806" y="195.153342" style="fill: #f5ed05; stroke: #f5ed05"/>
     <use xlink:href="#m9799f2f9f3" x="301.066634" y="176.375814" style="fill: #f5ed05; stroke: #f5ed05"/>
     <use xlink:href="#m9799f2f9f3" x="259.923053" y="231.741986" style="fill: #f5ed05; stroke: #f5ed05"/>
     <use xlink:href="#m9799f2f9f3" x="309.946064" y="171.347232" style="fill: #f5ed05; stroke: #f5ed05"/>
     <use xlink:href="#m9799f2f9f3" x="284.754231" y="229.248131" style="fill: #f5ed05; stroke: #f5ed05"/>
     <use xlink:href="#m9799f2f9f3" x="320.470116" y="188.555409" style="fill: #f5ed05; stroke: #f5ed05"/>
     <use xlink:href="#m9799f2f9f3" x="299.767152" y="176.692725" style="fill: #f5ed05; stroke: #f5ed05"/>
     <use xlink:href="#m9799f2f9f3" x="290.499494" y="188.048272" style="fill: #f5ed05; stroke: #f5ed05"/>
     <use xlink:href="#m9799f2f9f3" x="279.110742" y="177.543424" style="fill: #f5ed05; stroke: #f5ed05"/>
     <use xlink:href="#m9799f2f9f3" x="291.738303" y="217.701572" style="fill: #f5ed05; stroke: #f5ed05"/>
     <use xlink:href="#m9799f2f9f3" x="287.899979" y="190.897648" style="fill: #f5ed05; stroke: #f5ed05"/>
    </g>
   </g>
   <g id="PathCollection_5">
    <g clip-path="url(#p652ccf358c)">
     <use xlink:href="#m9799f2f9f3" x="255.037467" y="195.672456" style="fill: #f5ed05; stroke: #f5ed05"/>
     <use xlink:href="#m9799f2f9f3" x="300.696846" y="207.222737" style="fill: #f5ed05; stroke: #f5ed05"/>
     <use xlink:href="#m9799f2f9f3" x="302.933551" y="213.822389" style="fill: #f5ed05; stroke: #f5ed05"/>
     <use xlink:href="#m9799f2f9f3" x="289.022677" y="129.875195" style="fill: #f5ed05; stroke: #f5ed05"/>
     <use xlink:href="#m9799f2f9f3" x="254.191561" y="221.787973" style="fill: #f5ed05; stroke: #f5ed05"/>
     <use xlink:href="#m9799f2f9f3" x="300.855042" y="164.726208" style="fill: #f5ed05; stroke: #f5ed05"/>
     <use xlink:href="#m9799f2f9f3" x="311.262683" y="147.913529" style="fill: #f5ed05; stroke: #f5ed05"/>
     <use xlink:href="#m9799f2f9f3" x="300.550498" y="159.520693" style="fill: #f5ed05; stroke: #f5ed05"/>
     <use xlink:href="#m9799f2f9f3" x="210.238705" y="243.470924" style="fill: #f5ed05; stroke: #f5ed05"/>
     <use xlink:href="#m9799f2f9f3" x="317.011881" y="221.213273" style="fill: #f5ed05; stroke: #f5ed05"/>
     <use xlink:href="#m9799f2f9f3" x="287.757551" y="220.032497" style="fill: #f5ed05; stroke: #f5ed05"/>
     <use xlink:href="#m9799f2f9f3" x="233.669888" y="98.099753" style="fill: #f5ed05; stroke: #f5ed05"/>
     <use xlink:href="#m9799f2f9f3" x="268.078831" y="235.771071" style="fill: #f5ed05; stroke: #f5ed05"/>
     <use xlink:href="#m9799f2f9f3" x="305.232312" y="233.501812" style="fill: #f5ed05; stroke: #f5ed05"/>
     <use xlink:href="#m9799f2f9f3" x="188.4796" y="105.468044" style="fill: #f5ed05; stroke: #f5ed05"/>
     <use xlink:href="#m9799f2f9f3" x="251.658136" y="254.21741" style="fill: #f5ed05; stroke: #f5ed05"/>
     <use xlink:href="#m9799f2f9f3" x="319.757928" y="182.404356" style="fill: #f5ed05; stroke: #f5ed05"/>
     <use xlink:href="#m9799f2f9f3" x="307.789486" y="195.064518" style="fill: #f5ed05; stroke: #f5ed05"/>
     <use xlink:href="#m9799f2f9f3" x="319.730154" y="171.825535" style="fill: #f5ed05; stroke: #f5ed05"/>
     <use xlink:href="#m9799f2f9f3" x="289.327887" y="220.786268" style="fill: #f5ed05; stroke: #f5ed05"/>
     <use xlink:href="#m9799f2f9f3" x="333.569169" y="182.613103" style="fill: #f5ed05; stroke: #f5ed05"/>
     <use xlink:href="#m9799f2f9f3" x="320.568653" y="166.148001" style="fill: #f5ed05; stroke: #f5ed05"/>
     <use xlink:href="#m9799f2f9f3" x="287.784112" y="222.857256" style="fill: #f5ed05; stroke: #f5ed05"/>
     <use xlink:href="#m9799f2f9f3" x="320.075987" y="167.478839" style="fill: #f5ed05; stroke: #f5ed05"/>
     <use xlink:href="#m9799f2f9f3" x="326.268798" y="166.051925" style="fill: #f5ed05; stroke: #f5ed05"/>
     <use xlink:href="#m9799f2f9f3" x="276.687012" y="247.945934" style="fill: #f5ed05; stroke: #f5ed05"/>
    </g>
   </g>
   <g id="PathCollection_6">
    <g clip-path="url(#p652ccf358c)">
     <use xlink:href="#m9799f2f9f3" x="293.967626" y="214.389809" style="fill: #f5ed05; stroke: #f5ed05"/>
     <use xlink:href="#m9799f2f9f3" x="314.126004" y="163.677579" style="fill: #f5ed05; stroke: #f5ed05"/>
     <use xlink:href="#m9799f2f9f3" x="278.41079" y="258.755413" style="fill: #f5ed05; stroke: #f5ed05"/>
     <use xlink:href="#m9799f2f9f3" x="316.347855" y="130.910098" style="fill: #f5ed05; stroke: #f5ed05"/>
     <use xlink:href="#m9799f2f9f3" x="207.789309" y="216.715841" style="fill: #f5ed05; stroke: #f5ed05"/>
     <use xlink:href="#m9799f2f9f3" x="307.831752" y="181.011587" style="fill: #f5ed05; stroke: #f5ed05"/>
     <use xlink:href="#m9799f2f9f3" x="277.553246" y="110.944321" style="fill: #f5ed05; stroke: #f5ed05"/>
     <use xlink:href="#m9799f2f9f3" x="295.473331" y="201.190819" style="fill: #f5ed05; stroke: #f5ed05"/>
     <use xlink:href="#m9799f2f9f3" x="162.516648" y="177.426449" style="fill: #f5ed05; stroke: #f5ed05"/>
     <use xlink:href="#m9799f2f9f3" x="338.734562" y="190.171829" style="fill: #f5ed05; stroke: #f5ed05"/>
     <use xlink:href="#m9799f2f9f3" x="209.164275" y="269.124009" style="fill: #f5ed05; stroke: #f5ed05"/>
     <use xlink:href="#m9799f2f9f3" x="292.796511" y="112.888668" style="fill: #f5ed05; stroke: #f5ed05"/>
     <use xlink:href="#m9799f2f9f3" x="294.473704" y="200.036698" style="fill: #f5ed05; stroke: #f5ed05"/>
     <use xlink:href="#m9799f2f9f3" x="318.615727" y="140.537356" style="fill: #f5ed05; stroke: #f5ed05"/>
     <use xlink:href="#m9799f2f9f3" x="287.038222" y="90.666926" style="fill: #f5ed05; stroke: #f5ed05"/>
     <use xlink:href="#m9799f2f9f3" x="295.306531" y="211.56828" style="fill: #f5ed05; stroke: #f5ed05"/>
     <use xlink:href="#m9799f2f9f3" x="314.608423" y="161.469474" style="fill: #f5ed05; stroke: #f5ed05"/>
     <use xlink:href="#m9799f2f9f3" x="291.57808" y="234.488617" style="fill: #f5ed05; stroke: #f5ed05"/>
     <use xlink:href="#m9799f2f9f3" x="272.627899" y="78.782564" style="fill: #f5ed05; stroke: #f5ed05"/>
     <use xlink:href="#m9799f2f9f3" x="305.078962" y="244.153811" style="fill: #f5ed05; stroke: #f5ed05"/>
     <use xlink:href="#m9799f2f9f3" x="331.348724" y="123.63288" style="fill: #f5ed05; stroke: #f5ed05"/>
     <use xlink:href="#m9799f2f9f3" x="323.080522" y="212.528043" style="fill: #f5ed05; stroke: #f5ed05"/>
     <use xlink:href="#m9799f2f9f3" x="295.290115" y="219.209733" style="fill: #f5ed05; stroke: #f5ed05"/>
     <use xlink:href="#m9799f2f9f3" x="304.604552" y="148.414822" style="fill: #f5ed05; stroke: #f5ed05"/>
     <use xlink:href="#m9799f2f9f3" x="321.264911" y="121.474124" style="fill: #f5ed05; stroke: #f5ed05"/>
     <use xlink:href="#m9799f2f9f3" x="285.152138" y="265.913397" style="fill: #f5ed05; stroke: #f5ed05"/>
    </g>
   </g>
   <g id="matplotlib.axis_1">
    <g id="xtick_1">
     <g id="line2d_1">
      <path d="M 236.16 174.528 
L 369.216 174.528 
" clip-path="url(#p652ccf358c)" style="fill: none; stroke: #b0b0b0; stroke-width: 0.8; stroke-linecap: square"/>
     </g>
     <g id="text_1">
      <!-- 0° -->
      <g transform="translate(377.53475 177.287375)scale(0.1 -0.1)">
       <defs>
        <path id="DejaVuSans-30" d="M 2034 4250 
Q 1547 4250 1301 3770 
Q 1056 3291 1056 2328 
Q 1056 1369 1301 889 
Q 1547 409 2034 409 
Q 2525 409 2770 889 
Q 3016 1369 3016 2328 
Q 3016 3291 2770 3770 
Q 2525 4250 2034 4250 
z
M 2034 4750 
Q 2819 4750 3233 4129 
Q 3647 3509 3647 2328 
Q 3647 1150 3233 529 
Q 2819 -91 2034 -91 
Q 1250 -91 836 529 
Q 422 1150 422 2328 
Q 422 3509 836 4129 
Q 1250 4750 2034 4750 
z
" transform="scale(0.015625)"/>
        <path id="DejaVuSans-b0" d="M 1600 4347 
Q 1350 4347 1178 4173 
Q 1006 4000 1006 3750 
Q 1006 3503 1178 3333 
Q 1350 3163 1600 3163 
Q 1850 3163 2022 3333 
Q 2194 3503 2194 3750 
Q 2194 3997 2020 4172 
Q 1847 4347 1600 4347 
z
M 1600 4750 
Q 1800 4750 1984 4673 
Q 2169 4597 2303 4453 
Q 2447 4313 2519 4134 
Q 2591 3956 2591 3750 
Q 2591 3338 2302 3052 
Q 2013 2766 1594 2766 
Q 1172 2766 890 3047 
Q 609 3328 609 3750 
Q 609 4169 896 4459 
Q 1184 4750 1600 4750 
z
" transform="scale(0.015625)"/>
       </defs>
       <use xlink:href="#DejaVuSans-30"/>
       <use xlink:href="#DejaVuSans-b0" x="63.623047"/>
      </g>
     </g>
    </g>
    <g id="xtick_2">
     <g id="line2d_2">
      <path d="M 236.16 174.528 
L 330.2448 80.4432 
" clip-path="url(#p652ccf358c)" style="fill: none; stroke: #b0b0b0; stroke-width: 0.8; stroke-linecap: square"/>
     </g>
     <g id="text_2">
      <!-- 45° -->
      <g transform="translate(331.281795 73.30308)scale(0.1 -0.1)">
       <defs>
        <path id="DejaVuSans-34" d="M 2419 4116 
L 825 1625 
L 2419 1625 
L 2419 4116 
z
M 2253 4666 
L 3047 4666 
L 3047 1625 
L 3713 1625 
L 3713 1100 
L 3047 1100 
L 3047 0 
L 2419 0 
L 2419 1100 
L 313 1100 
L 313 1709 
L 2253 4666 
z
" transform="scale(0.015625)"/>
        <path id="DejaVuSans-35" d="M 691 4666 
L 3169 4666 
L 3169 4134 
L 1269 4134 
L 1269 2991 
Q 1406 3038 1543 3061 
Q 1681 3084 1819 3084 
Q 2600 3084 3056 2656 
Q 3513 2228 3513 1497 
Q 3513 744 3044 326 
Q 2575 -91 1722 -91 
Q 1428 -91 1123 -41 
Q 819 9 494 109 
L 494 744 
Q 775 591 1075 516 
Q 1375 441 1709 441 
Q 2250 441 2565 725 
Q 2881 1009 2881 1497 
Q 2881 1984 2565 2268 
Q 2250 2553 1709 2553 
Q 1456 2553 1204 2497 
Q 953 2441 691 2322 
L 691 4666 
z
" transform="scale(0.015625)"/>
       </defs>
       <use xlink:href="#DejaVuSans-34"/>
       <use xlink:href="#DejaVuSans-35" x="63.623047"/>
       <use xlink:href="#DejaVuSans-b0" x="127.246094"/>
      </g>
     </g>
    </g>
    <g id="xtick_3">
     <g id="line2d_3">
      <path d="M 236.16 174.528 
L 236.16 41.472 
" clip-path="url(#p652ccf358c)" style="fill: none; stroke: #b0b0b0; stroke-width: 0.8; stroke-linecap: square"/>
     </g>
     <g id="text_3">
      <!-- 90° -->
      <g transform="translate(227.2975 30.231375)scale(0.1 -0.1)">
       <defs>
        <path id="DejaVuSans-39" d="M 703 97 
L 703 672 
Q 941 559 1184 500 
Q 1428 441 1663 441 
Q 2288 441 2617 861 
Q 2947 1281 2994 2138 
Q 2813 1869 2534 1725 
Q 2256 1581 1919 1581 
Q 1219 1581 811 2004 
Q 403 2428 403 3163 
Q 403 3881 828 4315 
Q 1253 4750 1959 4750 
Q 2769 4750 3195 4129 
Q 3622 3509 3622 2328 
Q 3622 1225 3098 567 
Q 2575 -91 1691 -91 
Q 1453 -91 1209 -44 
Q 966 3 703 97 
z
M 1959 2075 
Q 2384 2075 2632 2365 
Q 2881 2656 2881 3163 
Q 2881 3666 2632 3958 
Q 2384 4250 1959 4250 
Q 1534 4250 1286 3958 
Q 1038 3666 1038 3163 
Q 1038 2656 1286 2365 
Q 1534 2075 1959 2075 
z
" transform="scale(0.015625)"/>
       </defs>
       <use xlink:href="#DejaVuSans-39"/>
       <use xlink:href="#DejaVuSans-30" x="63.623047"/>
       <use xlink:href="#DejaVuSans-b0" x="127.246094"/>
      </g>
     </g>
    </g>
    <g id="xtick_4">
     <g id="line2d_4">
      <path d="M 236.16 174.528 
L 142.0752 80.4432 
" clip-path="url(#p652ccf358c)" style="fill: none; stroke: #b0b0b0; stroke-width: 0.8; stroke-linecap: square"/>
     </g>
     <g id="text_4">
      <!-- 135° -->
      <g transform="translate(120.131955 73.30308)scale(0.1 -0.1)">
       <defs>
        <path id="DejaVuSans-31" d="M 794 531 
L 1825 531 
L 1825 4091 
L 703 3866 
L 703 4441 
L 1819 4666 
L 2450 4666 
L 2450 531 
L 3481 531 
L 3481 0 
L 794 0 
L 794 531 
z
" transform="scale(0.015625)"/>
        <path id="DejaVuSans-33" d="M 2597 2516 
Q 3050 2419 3304 2112 
Q 3559 1806 3559 1356 
Q 3559 666 3084 287 
Q 2609 -91 1734 -91 
Q 1441 -91 1130 -33 
Q 819 25 488 141 
L 488 750 
Q 750 597 1062 519 
Q 1375 441 1716 441 
Q 2309 441 2620 675 
Q 2931 909 2931 1356 
Q 2931 1769 2642 2001 
Q 2353 2234 1838 2234 
L 1294 2234 
L 1294 2753 
L 1863 2753 
Q 2328 2753 2575 2939 
Q 2822 3125 2822 3475 
Q 2822 3834 2567 4026 
Q 2313 4219 1838 4219 
Q 1578 4219 1281 4162 
Q 984 4106 628 3988 
L 628 4550 
Q 988 4650 1302 4700 
Q 1616 4750 1894 4750 
Q 2613 4750 3031 4423 
Q 3450 4097 3450 3541 
Q 3450 3153 3228 2886 
Q 3006 2619 2597 2516 
z
" transform="scale(0.015625)"/>
       </defs>
       <use xlink:href="#DejaVuSans-31"/>
       <use xlink:href="#DejaVuSans-33" x="63.623047"/>
       <use xlink:href="#DejaVuSans-35" x="127.246094"/>
       <use xlink:href="#DejaVuSans-b0" x="190.869141"/>
      </g>
     </g>
    </g>
    <g id="xtick_5">
     <g id="line2d_5">
      <path d="M 236.16 174.528 
L 103.104 174.528 
" clip-path="url(#p652ccf358c)" style="fill: none; stroke: #b0b0b0; stroke-width: 0.8; stroke-linecap: square"/>
     </g>
     <g id="text_5">
      <!-- 180° -->
      <g transform="translate(77.06025 177.287375)scale(0.1 -0.1)">
       <defs>
        <path id="DejaVuSans-38" d="M 2034 2216 
Q 1584 2216 1326 1975 
Q 1069 1734 1069 1313 
Q 1069 891 1326 650 
Q 1584 409 2034 409 
Q 2484 409 2743 651 
Q 3003 894 3003 1313 
Q 3003 1734 2745 1975 
Q 2488 2216 2034 2216 
z
M 1403 2484 
Q 997 2584 770 2862 
Q 544 3141 544 3541 
Q 544 4100 942 4425 
Q 1341 4750 2034 4750 
Q 2731 4750 3128 4425 
Q 3525 4100 3525 3541 
Q 3525 3141 3298 2862 
Q 3072 2584 2669 2484 
Q 3125 2378 3379 2068 
Q 3634 1759 3634 1313 
Q 3634 634 3220 271 
Q 2806 -91 2034 -91 
Q 1263 -91 848 271 
Q 434 634 434 1313 
Q 434 1759 690 2068 
Q 947 2378 1403 2484 
z
M 1172 3481 
Q 1172 3119 1398 2916 
Q 1625 2713 2034 2713 
Q 2441 2713 2670 2916 
Q 2900 3119 2900 3481 
Q 2900 3844 2670 4047 
Q 2441 4250 2034 4250 
Q 1625 4250 1398 4047 
Q 1172 3844 1172 3481 
z
" transform="scale(0.015625)"/>
       </defs>
       <use xlink:href="#DejaVuSans-31"/>
       <use xlink:href="#DejaVuSans-38" x="63.623047"/>
       <use xlink:href="#DejaVuSans-30" x="127.246094"/>
       <use xlink:href="#DejaVuSans-b0" x="190.869141"/>
      </g>
     </g>
    </g>
    <g id="xtick_6">
     <g id="line2d_6">
      <path d="M 236.16 174.528 
L 142.0752 268.6128 
" clip-path="url(#p652ccf358c)" style="fill: none; stroke: #b0b0b0; stroke-width: 0.8; stroke-linecap: square"/>
     </g>
     <g id="text_6">
      <!-- 225° -->
      <g transform="translate(120.131955 281.27167)scale(0.1 -0.1)">
       <defs>
        <path id="DejaVuSans-32" d="M 1228 531 
L 3431 531 
L 3431 0 
L 469 0 
L 469 531 
Q 828 903 1448 1529 
Q 2069 2156 2228 2338 
Q 2531 2678 2651 2914 
Q 2772 3150 2772 3378 
Q 2772 3750 2511 3984 
Q 2250 4219 1831 4219 
Q 1534 4219 1204 4116 
Q 875 4013 500 3803 
L 500 4441 
Q 881 4594 1212 4672 
Q 1544 4750 1819 4750 
Q 2544 4750 2975 4387 
Q 3406 4025 3406 3419 
Q 3406 3131 3298 2873 
Q 3191 2616 2906 2266 
Q 2828 2175 2409 1742 
Q 1991 1309 1228 531 
z
" transform="scale(0.015625)"/>
       </defs>
       <use xlink:href="#DejaVuSans-32"/>
       <use xlink:href="#DejaVuSans-32" x="63.623047"/>
       <use xlink:href="#DejaVuSans-35" x="127.246094"/>
       <use xlink:href="#DejaVuSans-b0" x="190.869141"/>
      </g>
     </g>
    </g>
    <g id="xtick_7">
     <g id="line2d_7">
      <path d="M 236.16 174.528 
L 236.16 307.584 
" clip-path="url(#p652ccf358c)" style="fill: none; stroke: #b0b0b0; stroke-width: 0.8; stroke-linecap: square"/>
     </g>
     <g id="text_7">
      <!-- 270° -->
      <g transform="translate(224.11625 324.343375)scale(0.1 -0.1)">
       <defs>
        <path id="DejaVuSans-37" d="M 525 4666 
L 3525 4666 
L 3525 4397 
L 1831 0 
L 1172 0 
L 2766 4134 
L 525 4134 
L 525 4666 
z
" transform="scale(0.015625)"/>
       </defs>
       <use xlink:href="#DejaVuSans-32"/>
       <use xlink:href="#DejaVuSans-37" x="63.623047"/>
       <use xlink:href="#DejaVuSans-30" x="127.246094"/>
       <use xlink:href="#DejaVuSans-b0" x="190.869141"/>
      </g>
     </g>
    </g>
    <g id="xtick_8">
     <g id="line2d_8">
      <path d="M 236.16 174.528 
L 330.2448 268.6128 
" clip-path="url(#p652ccf358c)" style="fill: none; stroke: #b0b0b0; stroke-width: 0.8; stroke-linecap: square"/>
     </g>
     <g id="text_8">
      <!-- 315° -->
      <g transform="translate(328.100545 281.27167)scale(0.1 -0.1)">
       <use xlink:href="#DejaVuSans-33"/>
       <use xlink:href="#DejaVuSans-31" x="63.623047"/>
       <use xlink:href="#DejaVuSans-35" x="127.246094"/>
       <use xlink:href="#DejaVuSans-b0" x="190.869141"/>
      </g>
     </g>
    </g>
   </g>
   <g id="matplotlib.axis_2">
    <g id="ytick_1">
     <g id="line2d_9">
      <path d="M 325.782704 174.528 
C 325.782704 162.758854 323.464438 151.104149 318.960581 140.230876 
C 314.456724 129.357603 307.854864 119.477221 299.532821 111.155179 
C 291.210779 102.833136 281.330397 96.231276 270.457124 91.727419 
C 259.583851 87.223562 247.929146 84.905296 236.16 84.905296 
C 224.390854 84.905296 212.736149 87.223562 201.862876 91.727419 
C 190.989603 96.231276 181.109221 102.833136 172.787179 111.155179 
C 164.465136 119.477221 157.863276 129.357603 153.359419 140.230876 
C 148.855562 151.104149 146.537296 162.758854 146.537296 174.528 
C 146.537296 186.297146 148.855562 197.951851 153.359419 208.825124 
C 157.863276 219.698397 164.465136 229.578779 172.787179 237.900821 
C 181.109221 246.222864 190.989603 252.824724 201.862876 257.328581 
C 212.736149 261.832438 224.390854 264.150704 236.16 264.150704 
C 247.929146 264.150704 259.583851 261.832438 270.457124 257.328581 
C 281.330397 252.824724 291.210779 246.222864 299.532821 237.900821 
C 307.854864 229.578779 314.456724 219.698397 318.960581 208.825124 
C 323.464438 197.951851 325.782704 186.297146 325.782704 174.528 
" clip-path="url(#p652ccf358c)" style="fill: none; stroke: #b0b0b0; stroke-width: 0.8; stroke-linecap: square"/>
     </g>
     <g id="text_9">
      <!-- 0.02 -->
      <g transform="translate(318.960581 138.151189)scale(0.1 -0.1)">
       <defs>
        <path id="DejaVuSans-2e" d="M 684 794 
L 1344 794 
L 1344 0 
L 684 0 
L 684 794 
z
" transform="scale(0.015625)"/>
       </defs>
       <use xlink:href="#DejaVuSans-30"/>
       <use xlink:href="#DejaVuSans-2e" x="63.623047"/>
       <use xlink:href="#DejaVuSans-30" x="95.410156"/>
       <use xlink:href="#DejaVuSans-32" x="159.033203"/>
      </g>
     </g>
    </g>
   </g>
   <g id="patch_3">
    <path d="M 369.216 174.528 
C 369.216 157.055246 365.774248 139.752393 359.087715 123.609673 
C 352.401182 107.466954 342.599903 92.798303 330.2448 80.4432 
C 317.889697 68.088097 303.221046 58.286818 287.078327 51.600285 
C 270.935607 44.913752 253.632754 41.472 236.16 41.472 
C 218.687246 41.472 201.384393 44.913752 185.241673 51.600285 
C 169.098954 58.286818 154.430303 68.088097 142.0752 80.4432 
C 129.720097 92.798303 119.918818 107.466954 113.232285 123.609673 
C 106.545752 139.752393 103.104 157.055246 103.104 174.528 
C 103.104 192.000754 106.545752 209.303607 113.232285 225.446327 
C 119.918818 241.589046 129.720097 256.257697 142.0752 268.6128 
C 154.430303 280.967903 169.098954 290.769182 185.241673 297.455715 
C 201.384393 304.142248 218.687246 307.584 236.16 307.584 
C 253.632754 307.584 270.935607 304.142248 287.078327 297.455715 
C 303.221046 290.769182 317.889697 280.967903 330.2448 268.6128 
C 342.599903 256.257697 352.401182 241.589046 359.087715 225.446327 
C 365.774248 209.303607 369.216 192.000754 369.216 174.528 
" style="fill: none; stroke: #000000; stroke-width: 0.8; stroke-linejoin: miter; stroke-linecap: square"/>
   </g>
  </g>
  <g id="legend_1">
   <g id="patch_4">
    <path d="M 368.790625 96.06875 
L 453.8 96.06875 
Q 455.8 96.06875 455.8 94.06875 
L 455.8 7 
Q 455.8 5 453.8 5 
L 368.790625 5 
Q 366.790625 5 366.790625 7 
L 366.790625 94.06875 
Q 366.790625 96.06875 368.790625 96.06875 
z
" style="fill: #ffffff; opacity: 0.8; stroke: #cccccc; stroke-linejoin: miter"/>
   </g>
   <g id="PathCollection_7">
    <g>
     <use xlink:href="#m697667ebd2" x="380.790625" y="13.973437" style="fill: #f50505; stroke: #f50505"/>
    </g>
   </g>
   <g id="text_10">
    <!-- Decoder E -->
    <g transform="translate(398.790625 16.598437)scale(0.1 -0.1)">
     <defs>
      <path id="DejaVuSans-44" d="M 1259 4147 
L 1259 519 
L 2022 519 
Q 2988 519 3436 956 
Q 3884 1394 3884 2338 
Q 3884 3275 3436 3711 
Q 2988 4147 2022 4147 
L 1259 4147 
z
M 628 4666 
L 1925 4666 
Q 3281 4666 3915 4102 
Q 4550 3538 4550 2338 
Q 4550 1131 3912 565 
Q 3275 0 1925 0 
L 628 0 
L 628 4666 
z
" transform="scale(0.015625)"/>
      <path id="DejaVuSans-65" d="M 3597 1894 
L 3597 1613 
L 953 1613 
Q 991 1019 1311 708 
Q 1631 397 2203 397 
Q 2534 397 2845 478 
Q 3156 559 3463 722 
L 3463 178 
Q 3153 47 2828 -22 
Q 2503 -91 2169 -91 
Q 1331 -91 842 396 
Q 353 884 353 1716 
Q 353 2575 817 3079 
Q 1281 3584 2069 3584 
Q 2775 3584 3186 3129 
Q 3597 2675 3597 1894 
z
M 3022 2063 
Q 3016 2534 2758 2815 
Q 2500 3097 2075 3097 
Q 1594 3097 1305 2825 
Q 1016 2553 972 2059 
L 3022 2063 
z
" transform="scale(0.015625)"/>
      <path id="DejaVuSans-63" d="M 3122 3366 
L 3122 2828 
Q 2878 2963 2633 3030 
Q 2388 3097 2138 3097 
Q 1578 3097 1268 2742 
Q 959 2388 959 1747 
Q 959 1106 1268 751 
Q 1578 397 2138 397 
Q 2388 397 2633 464 
Q 2878 531 3122 666 
L 3122 134 
Q 2881 22 2623 -34 
Q 2366 -91 2075 -91 
Q 1284 -91 818 406 
Q 353 903 353 1747 
Q 353 2603 823 3093 
Q 1294 3584 2113 3584 
Q 2378 3584 2631 3529 
Q 2884 3475 3122 3366 
z
" transform="scale(0.015625)"/>
      <path id="DejaVuSans-6f" d="M 1959 3097 
Q 1497 3097 1228 2736 
Q 959 2375 959 1747 
Q 959 1119 1226 758 
Q 1494 397 1959 397 
Q 2419 397 2687 759 
Q 2956 1122 2956 1747 
Q 2956 2369 2687 2733 
Q 2419 3097 1959 3097 
z
M 1959 3584 
Q 2709 3584 3137 3096 
Q 3566 2609 3566 1747 
Q 3566 888 3137 398 
Q 2709 -91 1959 -91 
Q 1206 -91 779 398 
Q 353 888 353 1747 
Q 353 2609 779 3096 
Q 1206 3584 1959 3584 
z
" transform="scale(0.015625)"/>
      <path id="DejaVuSans-64" d="M 2906 2969 
L 2906 4863 
L 3481 4863 
L 3481 0 
L 2906 0 
L 2906 525 
Q 2725 213 2448 61 
Q 2172 -91 1784 -91 
Q 1150 -91 751 415 
Q 353 922 353 1747 
Q 353 2572 751 3078 
Q 1150 3584 1784 3584 
Q 2172 3584 2448 3432 
Q 2725 3281 2906 2969 
z
M 947 1747 
Q 947 1113 1208 752 
Q 1469 391 1925 391 
Q 2381 391 2643 752 
Q 2906 1113 2906 1747 
Q 2906 2381 2643 2742 
Q 2381 3103 1925 3103 
Q 1469 3103 1208 2742 
Q 947 2381 947 1747 
z
" transform="scale(0.015625)"/>
      <path id="DejaVuSans-72" d="M 2631 2963 
Q 2534 3019 2420 3045 
Q 2306 3072 2169 3072 
Q 1681 3072 1420 2755 
Q 1159 2438 1159 1844 
L 1159 0 
L 581 0 
L 581 3500 
L 1159 3500 
L 1159 2956 
Q 1341 3275 1631 3429 
Q 1922 3584 2338 3584 
Q 2397 3584 2469 3576 
Q 2541 3569 2628 3553 
L 2631 2963 
z
" transform="scale(0.015625)"/>
      <path id="DejaVuSans-20" transform="scale(0.015625)"/>
      <path id="DejaVuSans-45" d="M 628 4666 
L 3578 4666 
L 3578 4134 
L 1259 4134 
L 1259 2753 
L 3481 2753 
L 3481 2222 
L 1259 2222 
L 1259 531 
L 3634 531 
L 3634 0 
L 628 0 
L 628 4666 
z
" transform="scale(0.015625)"/>
     </defs>
     <use xlink:href="#DejaVuSans-44"/>
     <use xlink:href="#DejaVuSans-65" x="77.001953"/>
     <use xlink:href="#DejaVuSans-63" x="138.525391"/>
     <use xlink:href="#DejaVuSans-6f" x="193.505859"/>
     <use xlink:href="#DejaVuSans-64" x="254.6875"/>
     <use xlink:href="#DejaVuSans-65" x="318.164062"/>
     <use xlink:href="#DejaVuSans-72" x="379.6875"/>
     <use xlink:href="#DejaVuSans-20" x="420.800781"/>
     <use xlink:href="#DejaVuSans-45" x="452.587891"/>
    </g>
   </g>
   <g id="PathCollection_8">
    <g>
     <use xlink:href="#me92f5dff49" x="380.790625" y="28.651563" style="fill: #3505f5; stroke: #3505f5"/>
    </g>
   </g>
   <g id="text_11">
    <!-- Decoder F -->
    <g transform="translate(398.790625 31.276563)scale(0.1 -0.1)">
     <defs>
      <path id="DejaVuSans-46" d="M 628 4666 
L 3309 4666 
L 3309 4134 
L 1259 4134 
L 1259 2759 
L 3109 2759 
L 3109 2228 
L 1259 2228 
L 1259 0 
L 628 0 
L 628 4666 
z
" transform="scale(0.015625)"/>
     </defs>
     <use xlink:href="#DejaVuSans-44"/>
     <use xlink:href="#DejaVuSans-65" x="77.001953"/>
     <use xlink:href="#DejaVuSans-63" x="138.525391"/>
     <use xlink:href="#DejaVuSans-6f" x="193.505859"/>
     <use xlink:href="#DejaVuSans-64" x="254.6875"/>
     <use xlink:href="#DejaVuSans-65" x="318.164062"/>
     <use xlink:href="#DejaVuSans-72" x="379.6875"/>
     <use xlink:href="#DejaVuSans-20" x="420.800781"/>
     <use xlink:href="#DejaVuSans-46" x="452.587891"/>
    </g>
   </g>
   <g id="PathCollection_9">
    <g>
     <use xlink:href="#m3a9e462213" x="380.790625" y="43.329687" style="fill: #02faf2; stroke: #02faf2"/>
    </g>
   </g>
   <g id="text_12">
    <!-- Decoder G -->
    <g transform="translate(398.790625 45.954687)scale(0.1 -0.1)">
     <defs>
      <path id="DejaVuSans-47" d="M 3809 666 
L 3809 1919 
L 2778 1919 
L 2778 2438 
L 4434 2438 
L 4434 434 
Q 4069 175 3628 42 
Q 3188 -91 2688 -91 
Q 1594 -91 976 548 
Q 359 1188 359 2328 
Q 359 3472 976 4111 
Q 1594 4750 2688 4750 
Q 3144 4750 3555 4637 
Q 3966 4525 4313 4306 
L 4313 3634 
Q 3963 3931 3569 4081 
Q 3175 4231 2741 4231 
Q 1884 4231 1454 3753 
Q 1025 3275 1025 2328 
Q 1025 1384 1454 906 
Q 1884 428 2741 428 
Q 3075 428 3337 486 
Q 3600 544 3809 666 
z
" transform="scale(0.015625)"/>
     </defs>
     <use xlink:href="#DejaVuSans-44"/>
     <use xlink:href="#DejaVuSans-65" x="77.001953"/>
     <use xlink:href="#DejaVuSans-63" x="138.525391"/>
     <use xlink:href="#DejaVuSans-6f" x="193.505859"/>
     <use xlink:href="#DejaVuSans-64" x="254.6875"/>
     <use xlink:href="#DejaVuSans-65" x="318.164062"/>
     <use xlink:href="#DejaVuSans-72" x="379.6875"/>
     <use xlink:href="#DejaVuSans-20" x="420.800781"/>
     <use xlink:href="#DejaVuSans-47" x="452.587891"/>
    </g>
   </g>
   <g id="PathCollection_10">
    <g>
     <use xlink:href="#m9799f2f9f3" x="380.790625" y="58.007812" style="fill: #f5ed05; stroke: #f5ed05"/>
    </g>
   </g>
   <g id="text_13">
    <!-- Decoder H -->
    <g transform="translate(398.790625 60.632812)scale(0.1 -0.1)">
     <defs>
      <path id="DejaVuSans-48" d="M 628 4666 
L 1259 4666 
L 1259 2753 
L 3553 2753 
L 3553 4666 
L 4184 4666 
L 4184 0 
L 3553 0 
L 3553 2222 
L 1259 2222 
L 1259 0 
L 628 0 
L 628 4666 
z
" transform="scale(0.015625)"/>
     </defs>
     <use xlink:href="#DejaVuSans-44"/>
     <use xlink:href="#DejaVuSans-65" x="77.001953"/>
     <use xlink:href="#DejaVuSans-63" x="138.525391"/>
     <use xlink:href="#DejaVuSans-6f" x="193.505859"/>
     <use xlink:href="#DejaVuSans-64" x="254.6875"/>
     <use xlink:href="#DejaVuSans-65" x="318.164062"/>
     <use xlink:href="#DejaVuSans-72" x="379.6875"/>
     <use xlink:href="#DejaVuSans-20" x="420.800781"/>
     <use xlink:href="#DejaVuSans-48" x="452.587891"/>
    </g>
   </g>
   <g id="PathCollection_11">
    <g>
     <use xlink:href="#m9799f2f9f3" x="380.790625" y="72.685937" style="fill: #f5ed05; stroke: #f5ed05"/>
    </g>
   </g>
   <g id="text_14">
    <!-- Decoder I -->
    <g transform="translate(398.790625 75.310937)scale(0.1 -0.1)">
     <defs>
      <path id="DejaVuSans-49" d="M 628 4666 
L 1259 4666 
L 1259 0 
L 628 0 
L 628 4666 
z
" transform="scale(0.015625)"/>
     </defs>
     <use xlink:href="#DejaVuSans-44"/>
     <use xlink:href="#DejaVuSans-65" x="77.001953"/>
     <use xlink:href="#DejaVuSans-63" x="138.525391"/>
     <use xlink:href="#DejaVuSans-6f" x="193.505859"/>
     <use xlink:href="#DejaVuSans-64" x="254.6875"/>
     <use xlink:href="#DejaVuSans-65" x="318.164062"/>
     <use xlink:href="#DejaVuSans-72" x="379.6875"/>
     <use xlink:href="#DejaVuSans-20" x="420.800781"/>
     <use xlink:href="#DejaVuSans-49" x="452.587891"/>
    </g>
   </g>
   <g id="PathCollection_12">
    <g>
     <use xlink:href="#m9799f2f9f3" x="380.790625" y="87.364062" style="fill: #f5ed05; stroke: #f5ed05"/>
    </g>
   </g>
   <g id="text_15">
    <!-- Decoder J -->
    <g transform="translate(398.790625 89.989062)scale(0.1 -0.1)">
     <defs>
      <path id="DejaVuSans-4a" d="M 628 4666 
L 1259 4666 
L 1259 325 
Q 1259 -519 939 -900 
Q 619 -1281 -91 -1281 
L -331 -1281 
L -331 -750 
L -134 -750 
Q 284 -750 456 -515 
Q 628 -281 628 325 
L 628 4666 
z
" transform="scale(0.015625)"/>
     </defs>
     <use xlink:href="#DejaVuSans-44"/>
     <use xlink:href="#DejaVuSans-65" x="77.001953"/>
     <use xlink:href="#DejaVuSans-63" x="138.525391"/>
     <use xlink:href="#DejaVuSans-6f" x="193.505859"/>
     <use xlink:href="#DejaVuSans-64" x="254.6875"/>
     <use xlink:href="#DejaVuSans-65" x="318.164062"/>
     <use xlink:href="#DejaVuSans-72" x="379.6875"/>
     <use xlink:href="#DejaVuSans-20" x="420.800781"/>
     <use xlink:href="#DejaVuSans-4a" x="452.587891"/>
    </g>
   </g>
  </g>
 </g>
 <defs>
  <clipPath id="p652ccf358c">
   <path d="M 369.216 174.528 
C 369.216 157.055246 365.774248 139.752393 359.087715 123.609673 
C 352.401182 107.466954 342.599903 92.798303 330.2448 80.4432 
C 317.889697 68.088097 303.221046 58.286818 287.078327 51.600285 
C 270.935607 44.913752 253.632754 41.472 236.16 41.472 
C 218.687246 41.472 201.384393 44.913752 185.241673 51.600285 
C 169.098954 58.286818 154.430303 68.088097 142.0752 80.4432 
C 129.720097 92.798303 119.918818 107.466954 113.232285 123.609673 
C 106.545752 139.752393 103.104 157.055246 103.104 174.528 
C 103.104 192.000754 106.545752 209.303607 113.232285 225.446327 
C 119.918818 241.589046 129.720097 256.257697 142.0752 268.6128 
C 154.430303 280.967903 169.098954 290.769182 185.241673 297.455715 
C 201.384393 304.142248 218.687246 307.584 236.16 307.584 
C 253.632754 307.584 270.935607 304.142248 287.078327 297.455715 
C 303.221046 290.769182 317.889697 280.967903 330.2448 268.6128 
C 342.599903 256.257697 352.401182 241.589046 359.087715 225.446327 
C 365.774248 209.303607 369.216 192.000754 369.216 174.528 
M 236.16 174.528 
C 236.16 174.528 236.16 174.528 236.16 174.528 
C 236.16 174.528 236.16 174.528 236.16 174.528 
C 236.16 174.528 236.16 174.528 236.16 174.528 
C 236.16 174.528 236.16 174.528 236.16 174.528 
C 236.16 174.528 236.16 174.528 236.16 174.528 
C 236.16 174.528 236.16 174.528 236.16 174.528 
C 236.16 174.528 236.16 174.528 236.16 174.528 
C 236.16 174.528 236.16 174.528 236.16 174.528 
C 236.16 174.528 236.16 174.528 236.16 174.528 
C 236.16 174.528 236.16 174.528 236.16 174.528 
C 236.16 174.528 236.16 174.528 236.16 174.528 
C 236.16 174.528 236.16 174.528 236.16 174.528 
C 236.16 174.528 236.16 174.528 236.16 174.528 
C 236.16 174.528 236.16 174.528 236.16 174.528 
C 236.16 174.528 236.16 174.528 236.16 174.528 
C 236.16 174.528 236.16 174.528 236.16 174.528 
M 369.216 174.528 
z
"/>
  </clipPath>
 </defs>
</svg>
