<?xml version="1.0" encoding="utf-8" standalone="no"?>
<!DOCTYPE svg PUBLIC "-//W3C//DTD SVG 1.1//EN"
  "http://www.w3.org/Graphics/SVG/1.1/DTD/svg11.dtd">
<svg xmlns:xlink="http://www.w3.org/1999/xlink" width="460.8pt" height="345.6pt" viewBox="0 0 460.8 345.6" xmlns="http://www.w3.org/2000/svg" version="1.1">
 <metadata>
  <rdf:RDF xmlns:dc="http://purl.org/dc/elements/1.1/" xmlns:cc="http://creativecommons.org/ns#" xmlns:rdf="http://www.w3.org/1999/02/22-rdf-syntax-ns#">
   <cc:Work>
    <dc:type rdf:resource="http://purl.org/dc/dcmitype/StillImage"/>
    <dc:date>2024-02-12T11:10:19.878744</dc:date>
    <dc:format>image/svg+xml</dc:format>
    <dc:creator>
     <cc:Agent>
      <dc:title>Matplotlib v3.5.0, https://matplotlib.org/</dc:title>
     </cc:Agent>
    </dc:creator>
   </cc:Work>
  </rdf:RDF>
 </metadata>
 <defs>
  <style type="text/css">*{stroke-linejoin: round; stroke-linecap: butt}</style>
 </defs>
 <g id="figure_1">
  <g id="patch_1">
   <path d="M 0 345.6 
L 460.8 345.6 
L 460.8 0 
L 0 0 
z
" style="fill: #ffffff"/>
  </g>
  <g id="axes_1">
   <g id="patch_2">
    <path d="M 369.216 174.528 
C 369.216 157.055246 365.774248 139.752393 359.087715 123.609673 
C 352.401182 107.466954 342.599903 92.798303 330.2448 80.4432 
C 317.889697 68.088097 303.221046 58.286818 287.078327 51.600285 
C 270.935607 44.913752 253.632754 41.472 236.16 41.472 
C 218.687246 41.472 201.384393 44.913752 185.241673 51.600285 
C 169.098954 58.286818 154.430303 68.088097 142.0752 80.4432 
C 129.720097 92.798303 119.918818 107.466954 113.232285 123.609673 
C 106.545752 139.752393 103.104 157.055246 103.104 174.528 
C 103.104 192.000754 106.545752 209.303607 113.232285 225.446327 
C 119.918818 241.589046 129.720097 256.257697 142.0752 268.6128 
C 154.430303 280.967903 169.098954 290.769182 185.241673 297.455715 
C 201.384393 304.142248 218.687246 307.584 236.16 307.584 
C 253.632754 307.584 270.935607 304.142248 287.078327 297.455715 
C 303.221046 290.769182 317.889697 280.967903 330.2448 268.6128 
C 342.599903 256.257697 352.401182 241.589046 359.087715 225.446327 
C 365.774248 209.303607 369.216 192.000754 369.216 174.528 
M 236.16 174.528 
C 236.16 174.528 236.16 174.528 236.16 174.528 
C 236.16 174.528 236.16 174.528 236.16 174.528 
C 236.16 174.528 236.16 174.528 236.16 174.528 
C 236.16 174.528 236.16 174.528 236.16 174.528 
C 236.16 174.528 236.16 174.528 236.16 174.528 
C 236.16 174.528 236.16 174.528 236.16 174.528 
C 236.16 174.528 236.16 174.528 236.16 174.528 
C 236.16 174.528 236.16 174.528 236.16 174.528 
C 236.16 174.528 236.16 174.528 236.16 174.528 
C 236.16 174.528 236.16 174.528 236.16 174.528 
C 236.16 174.528 236.16 174.528 236.16 174.528 
C 236.16 174.528 236.16 174.528 236.16 174.528 
C 236.16 174.528 236.16 174.528 236.16 174.528 
C 236.16 174.528 236.16 174.528 236.16 174.528 
C 236.16 174.528 236.16 174.528 236.16 174.528 
C 236.16 174.528 236.16 174.528 236.16 174.528 
M 369.216 174.528 
z
" style="fill: #ffffff"/>
   </g>
   <g id="PathCollection_1">
    <defs>
     <path id="mefd5ce4a72" d="M 0 3 
C 0.795609 3 1.55874 2.683901 2.12132 2.12132 
C 2.683901 1.55874 3 0.795609 3 0 
C 3 -0.795609 2.683901 -1.55874 2.12132 -2.12132 
C 1.55874 -2.683901 0.795609 -3 0 -3 
C -0.795609 -3 -1.55874 -2.683901 -2.12132 -2.12132 
C -2.683901 -1.55874 -3 -0.795609 -3 0 
C -3 0.795609 -2.683901 1.55874 -2.12132 2.12132 
C -1.55874 2.683901 -0.795609 3 0 3 
z
" style="stroke: #f50505"/>
    </defs>
    <g clip-path="url(#p96b33efa1d)">
     <use xlink:href="#mefd5ce4a72" x="302.240041" y="148.19788" style="fill: #f50505; stroke: #f50505"/>
     <use xlink:href="#mefd5ce4a72" x="298.976418" y="163.474147" style="fill: #f50505; stroke: #f50505"/>
     <use xlink:href="#mefd5ce4a72" x="303.827603" y="160.129556" style="fill: #f50505; stroke: #f50505"/>
     <use xlink:href="#mefd5ce4a72" x="295.925103" y="216.800914" style="fill: #f50505; stroke: #f50505"/>
     <use xlink:href="#mefd5ce4a72" x="225.980686" y="242.495679" style="fill: #f50505; stroke: #f50505"/>
     <use xlink:href="#mefd5ce4a72" x="302.989761" y="200.824445" style="fill: #f50505; stroke: #f50505"/>
     <use xlink:href="#mefd5ce4a72" x="307.48086" y="177.506655" style="fill: #f50505; stroke: #f50505"/>
     <use xlink:href="#mefd5ce4a72" x="297.335001" y="200.61557" style="fill: #f50505; stroke: #f50505"/>
     <use xlink:href="#mefd5ce4a72" x="240.618817" y="245.113698" style="fill: #f50505; stroke: #f50505"/>
     <use xlink:href="#mefd5ce4a72" x="269.687224" y="232.405545" style="fill: #f50505; stroke: #f50505"/>
     <use xlink:href="#mefd5ce4a72" x="303.469385" y="174.798593" style="fill: #f50505; stroke: #f50505"/>
     <use xlink:href="#mefd5ce4a72" x="306.678587" y="184.960112" style="fill: #f50505; stroke: #f50505"/>
     <use xlink:href="#mefd5ce4a72" x="303.444671" y="201.296898" style="fill: #f50505; stroke: #f50505"/>
     <use xlink:href="#mefd5ce4a72" x="304.434165" y="200.233356" style="fill: #f50505; stroke: #f50505"/>
     <use xlink:href="#mefd5ce4a72" x="299.962746" y="216.342283" style="fill: #f50505; stroke: #f50505"/>
     <use xlink:href="#mefd5ce4a72" x="296.386926" y="209.789334" style="fill: #f50505; stroke: #f50505"/>
     <use xlink:href="#mefd5ce4a72" x="294.728106" y="214.916252" style="fill: #f50505; stroke: #f50505"/>
     <use xlink:href="#mefd5ce4a72" x="294.837308" y="215.03894" style="fill: #f50505; stroke: #f50505"/>
     <use xlink:href="#mefd5ce4a72" x="311.107429" y="188.763663" style="fill: #f50505; stroke: #f50505"/>
     <use xlink:href="#mefd5ce4a72" x="300.659836" y="216.536453" style="fill: #f50505; stroke: #f50505"/>
     <use xlink:href="#mefd5ce4a72" x="295.956714" y="219.878204" style="fill: #f50505; stroke: #f50505"/>
     <use xlink:href="#mefd5ce4a72" x="309.827729" y="168.854067" style="fill: #f50505; stroke: #f50505"/>
     <use xlink:href="#mefd5ce4a72" x="301.854289" y="145.106862" style="fill: #f50505; stroke: #f50505"/>
     <use xlink:href="#mefd5ce4a72" x="280.404754" y="225.742427" style="fill: #f50505; stroke: #f50505"/>
     <use xlink:href="#mefd5ce4a72" x="270.259672" y="241.392104" style="fill: #f50505; stroke: #f50505"/>
     <use xlink:href="#mefd5ce4a72" x="307.505039" y="182.273839" style="fill: #f50505; stroke: #f50505"/>
    </g>
   </g>
   <g id="PathCollection_2">
    <defs>
     <path id="m6e4dead3b5" d="M 0 3 
C 0.795609 3 1.55874 2.683901 2.12132 2.12132 
C 2.683901 1.55874 3 0.795609 3 0 
C 3 -0.795609 2.683901 -1.55874 2.12132 -2.12132 
C 1.55874 -2.683901 0.795609 -3 0 -3 
C -0.795609 -3 -1.55874 -2.683901 -2.12132 -2.12132 
C -2.683901 -1.55874 -3 -0.795609 -3 0 
C -3 0.795609 -2.683901 1.55874 -2.12132 2.12132 
C -1.55874 2.683901 -0.795609 3 0 3 
z
" style="stroke: #3505f5"/>
    </defs>
    <g clip-path="url(#p96b33efa1d)">
     <use xlink:href="#m6e4dead3b5" x="242.205421" y="174.704609" style="fill: #3505f5; stroke: #3505f5"/>
     <use xlink:href="#m6e4dead3b5" x="281.993854" y="196.507713" style="fill: #3505f5; stroke: #3505f5"/>
     <use xlink:href="#m6e4dead3b5" x="272.650212" y="219.506801" style="fill: #3505f5; stroke: #3505f5"/>
     <use xlink:href="#m6e4dead3b5" x="292.379692" y="168.636718" style="fill: #3505f5; stroke: #3505f5"/>
     <use xlink:href="#m6e4dead3b5" x="248.453097" y="211.591636" style="fill: #3505f5; stroke: #3505f5"/>
     <use xlink:href="#m6e4dead3b5" x="305.576278" y="174.528" style="fill: #3505f5; stroke: #3505f5"/>
     <use xlink:href="#m6e4dead3b5" x="304.766709" y="182.739434" style="fill: #3505f5; stroke: #3505f5"/>
     <use xlink:href="#m6e4dead3b5" x="253.470656" y="202.045646" style="fill: #3505f5; stroke: #3505f5"/>
     <use xlink:href="#m6e4dead3b5" x="160.160363" y="155.497462" style="fill: #3505f5; stroke: #3505f5"/>
     <use xlink:href="#m6e4dead3b5" x="238.58238" y="227.782702" style="fill: #3505f5; stroke: #3505f5"/>
     <use xlink:href="#m6e4dead3b5" x="259.434425" y="196.08169" style="fill: #3505f5; stroke: #3505f5"/>
     <use xlink:href="#m6e4dead3b5" x="288.186846" y="142.224293" style="fill: #3505f5; stroke: #3505f5"/>
     <use xlink:href="#m6e4dead3b5" x="305.576278" y="174.528" style="fill: #3505f5; stroke: #3505f5"/>
     <use xlink:href="#m6e4dead3b5" x="293.742243" y="235.568352" style="fill: #3505f5; stroke: #3505f5"/>
     <use xlink:href="#m6e4dead3b5" x="314.366743" y="205.47756" style="fill: #3505f5; stroke: #3505f5"/>
     <use xlink:href="#m6e4dead3b5" x="281.973163" y="210.912011" style="fill: #3505f5; stroke: #3505f5"/>
     <use xlink:href="#m6e4dead3b5" x="291.220398" y="196.15362" style="fill: #3505f5; stroke: #3505f5"/>
     <use xlink:href="#m6e4dead3b5" x="263.486125" y="235.586033" style="fill: #3505f5; stroke: #3505f5"/>
     <use xlink:href="#m6e4dead3b5" x="293.330127" y="209.953165" style="fill: #3505f5; stroke: #3505f5"/>
     <use xlink:href="#m6e4dead3b5" x="262.221584" y="215.218631" style="fill: #3505f5; stroke: #3505f5"/>
     <use xlink:href="#m6e4dead3b5" x="305.576278" y="174.528" style="fill: #3505f5; stroke: #3505f5"/>
     <use xlink:href="#m6e4dead3b5" x="299.883676" y="176.946292" style="fill: #3505f5; stroke: #3505f5"/>
     <use xlink:href="#m6e4dead3b5" x="284.260249" y="223.713205" style="fill: #3505f5; stroke: #3505f5"/>
     <use xlink:href="#m6e4dead3b5" x="248.63787" y="230.317786" style="fill: #3505f5; stroke: #3505f5"/>
     <use xlink:href="#m6e4dead3b5" x="256.415089" y="239.573911" style="fill: #3505f5; stroke: #3505f5"/>
     <use xlink:href="#m6e4dead3b5" x="283.329543" y="226.185879" style="fill: #3505f5; stroke: #3505f5"/>
    </g>
   </g>
   <g id="PathCollection_3">
    <defs>
     <path id="m0850b597a8" d="M 0 3 
C 0.795609 3 1.55874 2.683901 2.12132 2.12132 
C 2.683901 1.55874 3 0.795609 3 0 
C 3 -0.795609 2.683901 -1.55874 2.12132 -2.12132 
C 1.55874 -2.683901 0.795609 -3 0 -3 
C -0.795609 -3 -1.55874 -2.683901 -2.12132 -2.12132 
C -2.683901 -1.55874 -3 -0.795609 -3 0 
C -3 0.795609 -2.683901 1.55874 -2.12132 2.12132 
C -1.55874 2.683901 -0.795609 3 0 3 
z
" style="stroke: #02faf2"/>
    </defs>
    <g clip-path="url(#p96b33efa1d)">
     <use xlink:href="#m0850b597a8" x="310.922137" y="150.429999" style="fill: #02faf2; stroke: #02faf2"/>
     <use xlink:href="#m0850b597a8" x="295.314849" y="88.178363" style="fill: #02faf2; stroke: #02faf2"/>
     <use xlink:href="#m0850b597a8" x="347.363442" y="135.265114" style="fill: #02faf2; stroke: #02faf2"/>
     <use xlink:href="#m0850b597a8" x="188.92478" y="84.244822" style="fill: #02faf2; stroke: #02faf2"/>
     <use xlink:href="#m0850b597a8" x="281.456137" y="175.775334" style="fill: #02faf2; stroke: #02faf2"/>
     <use xlink:href="#m0850b597a8" x="319.984917" y="181.356" style="fill: #02faf2; stroke: #02faf2"/>
     <use xlink:href="#m0850b597a8" x="294.526348" y="102.282794" style="fill: #02faf2; stroke: #02faf2"/>
     <use xlink:href="#m0850b597a8" x="277.437967" y="252.972282" style="fill: #02faf2; stroke: #02faf2"/>
     <use xlink:href="#m0850b597a8" x="193.603051" y="256.313568" style="fill: #02faf2; stroke: #02faf2"/>
     <use xlink:href="#m0850b597a8" x="170.531025" y="70.759437" style="fill: #02faf2; stroke: #02faf2"/>
     <use xlink:href="#m0850b597a8" x="257.112886" y="299.795748" style="fill: #02faf2; stroke: #02faf2"/>
     <use xlink:href="#m0850b597a8" x="290.129436" y="87.228702" style="fill: #02faf2; stroke: #02faf2"/>
     <use xlink:href="#m0850b597a8" x="319.100602" y="188.627846" style="fill: #02faf2; stroke: #02faf2"/>
     <use xlink:href="#m0850b597a8" x="326.321343" y="227.224918" style="fill: #02faf2; stroke: #02faf2"/>
     <use xlink:href="#m0850b597a8" x="232.823604" y="68.587861" style="fill: #02faf2; stroke: #02faf2"/>
     <use xlink:href="#m0850b597a8" x="280.796653" y="259.547831" style="fill: #02faf2; stroke: #02faf2"/>
     <use xlink:href="#m0850b597a8" x="288.549191" y="90.835535" style="fill: #02faf2; stroke: #02faf2"/>
     <use xlink:href="#m0850b597a8" x="190.375587" y="264.570527" style="fill: #02faf2; stroke: #02faf2"/>
     <use xlink:href="#m0850b597a8" x="221.272556" y="67.747925" style="fill: #02faf2; stroke: #02faf2"/>
     <use xlink:href="#m0850b597a8" x="309.83085" y="273.177542" style="fill: #02faf2; stroke: #02faf2"/>
     <use xlink:href="#m0850b597a8" x="279.874556" y="62.712994" style="fill: #02faf2; stroke: #02faf2"/>
     <use xlink:href="#m0850b597a8" x="349.815503" y="199.468836" style="fill: #02faf2; stroke: #02faf2"/>
     <use xlink:href="#m0850b597a8" x="311.071462" y="214.558745" style="fill: #02faf2; stroke: #02faf2"/>
     <use xlink:href="#m0850b597a8" x="281.304106" y="93.517959" style="fill: #02faf2; stroke: #02faf2"/>
     <use xlink:href="#m0850b597a8" x="347.709732" y="182.666208" style="fill: #02faf2; stroke: #02faf2"/>
     <use xlink:href="#m0850b597a8" x="189.899385" y="275.563114" style="fill: #02faf2; stroke: #02faf2"/>
    </g>
   </g>
   <g id="PathCollection_4">
    <defs>
     <path id="mbb4ed63e81" d="M 0 3 
C 0.795609 3 1.55874 2.683901 2.12132 2.12132 
C 2.683901 1.55874 3 0.795609 3 0 
C 3 -0.795609 2.683901 -1.55874 2.12132 -2.12132 
C 1.55874 -2.683901 0.795609 -3 0 -3 
C -0.795609 -3 -1.55874 -2.683901 -2.12132 -2.12132 
C -2.683901 -1.55874 -3 -0.795609 -3 0 
C -3 0.795609 -2.683901 1.55874 -2.12132 2.12132 
C -1.55874 2.683901 -0.795609 3 0 3 
z
" style="stroke: #f5ed05"/>
    </defs>
    <g clip-path="url(#p96b33efa1d)">
     <use xlink:href="#mbb4ed63e81" x="299.404106" y="189.597093" style="fill: #f5ed05; stroke: #f5ed05"/>
     <use xlink:href="#mbb4ed63e81" x="303.863733" y="170.483649" style="fill: #f5ed05; stroke: #f5ed05"/>
     <use xlink:href="#mbb4ed63e81" x="304.954824" y="159.899853" style="fill: #f5ed05; stroke: #f5ed05"/>
     <use xlink:href="#mbb4ed63e81" x="292.611314" y="211.118084" style="fill: #f5ed05; stroke: #f5ed05"/>
     <use xlink:href="#mbb4ed63e81" x="248.878433" y="242.614891" style="fill: #f5ed05; stroke: #f5ed05"/>
     <use xlink:href="#mbb4ed63e81" x="304.498092" y="178.291455" style="fill: #f5ed05; stroke: #f5ed05"/>
     <use xlink:href="#mbb4ed63e81" x="302.323857" y="176.79385" style="fill: #f5ed05; stroke: #f5ed05"/>
     <use xlink:href="#mbb4ed63e81" x="301.308521" y="190.882547" style="fill: #f5ed05; stroke: #f5ed05"/>
     <use xlink:href="#mbb4ed63e81" x="210.685909" y="238.360084" style="fill: #f5ed05; stroke: #f5ed05"/>
     <use xlink:href="#mbb4ed63e81" x="304.225375" y="184.413533" style="fill: #f5ed05; stroke: #f5ed05"/>
     <use xlink:href="#mbb4ed63e81" x="304.208804" y="172.99393" style="fill: #f5ed05; stroke: #f5ed05"/>
     <use xlink:href="#mbb4ed63e81" x="306.297928" y="175.716703" style="fill: #f5ed05; stroke: #f5ed05"/>
     <use xlink:href="#mbb4ed63e81" x="285.785639" y="221.230549" style="fill: #f5ed05; stroke: #f5ed05"/>
     <use xlink:href="#mbb4ed63e81" x="295.995612" y="203.776376" style="fill: #f5ed05; stroke: #f5ed05"/>
     <use xlink:href="#mbb4ed63e81" x="302.659161" y="177.390088" style="fill: #f5ed05; stroke: #f5ed05"/>
     <use xlink:href="#mbb4ed63e81" x="300.056385" y="200.498337" style="fill: #f5ed05; stroke: #f5ed05"/>
     <use xlink:href="#mbb4ed63e81" x="299.694288" y="203.485114" style="fill: #f5ed05; stroke: #f5ed05"/>
     <use xlink:href="#mbb4ed63e81" x="279.29588" y="226.061055" style="fill: #f5ed05; stroke: #f5ed05"/>
     <use xlink:href="#mbb4ed63e81" x="300.793638" y="192.357032" style="fill: #f5ed05; stroke: #f5ed05"/>
     <use xlink:href="#mbb4ed63e81" x="305.058706" y="172.483267" style="fill: #f5ed05; stroke: #f5ed05"/>
     <use xlink:href="#mbb4ed63e81" x="288.120009" y="221.60397" style="fill: #f5ed05; stroke: #f5ed05"/>
     <use xlink:href="#mbb4ed63e81" x="304.682278" y="173.911877" style="fill: #f5ed05; stroke: #f5ed05"/>
     <use xlink:href="#mbb4ed63e81" x="304.876163" y="176.212304" style="fill: #f5ed05; stroke: #f5ed05"/>
     <use xlink:href="#mbb4ed63e81" x="296.520893" y="207.976708" style="fill: #f5ed05; stroke: #f5ed05"/>
     <use xlink:href="#mbb4ed63e81" x="281.455379" y="222.297903" style="fill: #f5ed05; stroke: #f5ed05"/>
     <use xlink:href="#mbb4ed63e81" x="300.953275" y="172.946543" style="fill: #f5ed05; stroke: #f5ed05"/>
    </g>
   </g>
   <g id="matplotlib.axis_1">
    <g id="xtick_1">
     <g id="line2d_1">
      <path d="M 236.16 174.528 
L 369.216 174.528 
" clip-path="url(#p96b33efa1d)" style="fill: none; stroke: #b0b0b0; stroke-width: 0.8; stroke-linecap: square"/>
     </g>
     <g id="text_1">
      <!-- 0° -->
      <g transform="translate(377.53475 177.287375)scale(0.1 -0.1)">
       <defs>
        <path id="DejaVuSans-30" d="M 2034 4250 
Q 1547 4250 1301 3770 
Q 1056 3291 1056 2328 
Q 1056 1369 1301 889 
Q 1547 409 2034 409 
Q 2525 409 2770 889 
Q 3016 1369 3016 2328 
Q 3016 3291 2770 3770 
Q 2525 4250 2034 4250 
z
M 2034 4750 
Q 2819 4750 3233 4129 
Q 3647 3509 3647 2328 
Q 3647 1150 3233 529 
Q 2819 -91 2034 -91 
Q 1250 -91 836 529 
Q 422 1150 422 2328 
Q 422 3509 836 4129 
Q 1250 4750 2034 4750 
z
" transform="scale(0.015625)"/>
        <path id="DejaVuSans-b0" d="M 1600 4347 
Q 1350 4347 1178 4173 
Q 1006 4000 1006 3750 
Q 1006 3503 1178 3333 
Q 1350 3163 1600 3163 
Q 1850 3163 2022 3333 
Q 2194 3503 2194 3750 
Q 2194 3997 2020 4172 
Q 1847 4347 1600 4347 
z
M 1600 4750 
Q 1800 4750 1984 4673 
Q 2169 4597 2303 4453 
Q 2447 4313 2519 4134 
Q 2591 3956 2591 3750 
Q 2591 3338 2302 3052 
Q 2013 2766 1594 2766 
Q 1172 2766 890 3047 
Q 609 3328 609 3750 
Q 609 4169 896 4459 
Q 1184 4750 1600 4750 
z
" transform="scale(0.015625)"/>
       </defs>
       <use xlink:href="#DejaVuSans-30"/>
       <use xlink:href="#DejaVuSans-b0" x="63.623047"/>
      </g>
     </g>
    </g>
    <g id="xtick_2">
     <g id="line2d_2">
      <path d="M 236.16 174.528 
L 330.2448 80.4432 
" clip-path="url(#p96b33efa1d)" style="fill: none; stroke: #b0b0b0; stroke-width: 0.8; stroke-linecap: square"/>
     </g>
     <g id="text_2">
      <!-- 45° -->
      <g transform="translate(331.281795 73.30308)scale(0.1 -0.1)">
       <defs>
        <path id="DejaVuSans-34" d="M 2419 4116 
L 825 1625 
L 2419 1625 
L 2419 4116 
z
M 2253 4666 
L 3047 4666 
L 3047 1625 
L 3713 1625 
L 3713 1100 
L 3047 1100 
L 3047 0 
L 2419 0 
L 2419 1100 
L 313 1100 
L 313 1709 
L 2253 4666 
z
" transform="scale(0.015625)"/>
        <path id="DejaVuSans-35" d="M 691 4666 
L 3169 4666 
L 3169 4134 
L 1269 4134 
L 1269 2991 
Q 1406 3038 1543 3061 
Q 1681 3084 1819 3084 
Q 2600 3084 3056 2656 
Q 3513 2228 3513 1497 
Q 3513 744 3044 326 
Q 2575 -91 1722 -91 
Q 1428 -91 1123 -41 
Q 819 9 494 109 
L 494 744 
Q 775 591 1075 516 
Q 1375 441 1709 441 
Q 2250 441 2565 725 
Q 2881 1009 2881 1497 
Q 2881 1984 2565 2268 
Q 2250 2553 1709 2553 
Q 1456 2553 1204 2497 
Q 953 2441 691 2322 
L 691 4666 
z
" transform="scale(0.015625)"/>
       </defs>
       <use xlink:href="#DejaVuSans-34"/>
       <use xlink:href="#DejaVuSans-35" x="63.623047"/>
       <use xlink:href="#DejaVuSans-b0" x="127.246094"/>
      </g>
     </g>
    </g>
    <g id="xtick_3">
     <g id="line2d_3">
      <path d="M 236.16 174.528 
L 236.16 41.472 
" clip-path="url(#p96b33efa1d)" style="fill: none; stroke: #b0b0b0; stroke-width: 0.8; stroke-linecap: square"/>
     </g>
     <g id="text_3">
      <!-- 90° -->
      <g transform="translate(227.2975 30.231375)scale(0.1 -0.1)">
       <defs>
        <path id="DejaVuSans-39" d="M 703 97 
L 703 672 
Q 941 559 1184 500 
Q 1428 441 1663 441 
Q 2288 441 2617 861 
Q 2947 1281 2994 2138 
Q 2813 1869 2534 1725 
Q 2256 1581 1919 1581 
Q 1219 1581 811 2004 
Q 403 2428 403 3163 
Q 403 3881 828 4315 
Q 1253 4750 1959 4750 
Q 2769 4750 3195 4129 
Q 3622 3509 3622 2328 
Q 3622 1225 3098 567 
Q 2575 -91 1691 -91 
Q 1453 -91 1209 -44 
Q 966 3 703 97 
z
M 1959 2075 
Q 2384 2075 2632 2365 
Q 2881 2656 2881 3163 
Q 2881 3666 2632 3958 
Q 2384 4250 1959 4250 
Q 1534 4250 1286 3958 
Q 1038 3666 1038 3163 
Q 1038 2656 1286 2365 
Q 1534 2075 1959 2075 
z
" transform="scale(0.015625)"/>
       </defs>
       <use xlink:href="#DejaVuSans-39"/>
       <use xlink:href="#DejaVuSans-30" x="63.623047"/>
       <use xlink:href="#DejaVuSans-b0" x="127.246094"/>
      </g>
     </g>
    </g>
    <g id="xtick_4">
     <g id="line2d_4">
      <path d="M 236.16 174.528 
L 142.0752 80.4432 
" clip-path="url(#p96b33efa1d)" style="fill: none; stroke: #b0b0b0; stroke-width: 0.8; stroke-linecap: square"/>
     </g>
     <g id="text_4">
      <!-- 135° -->
      <g transform="translate(120.131955 73.30308)scale(0.1 -0.1)">
       <defs>
        <path id="DejaVuSans-31" d="M 794 531 
L 1825 531 
L 1825 4091 
L 703 3866 
L 703 4441 
L 1819 4666 
L 2450 4666 
L 2450 531 
L 3481 531 
L 3481 0 
L 794 0 
L 794 531 
z
" transform="scale(0.015625)"/>
        <path id="DejaVuSans-33" d="M 2597 2516 
Q 3050 2419 3304 2112 
Q 3559 1806 3559 1356 
Q 3559 666 3084 287 
Q 2609 -91 1734 -91 
Q 1441 -91 1130 -33 
Q 819 25 488 141 
L 488 750 
Q 750 597 1062 519 
Q 1375 441 1716 441 
Q 2309 441 2620 675 
Q 2931 909 2931 1356 
Q 2931 1769 2642 2001 
Q 2353 2234 1838 2234 
L 1294 2234 
L 1294 2753 
L 1863 2753 
Q 2328 2753 2575 2939 
Q 2822 3125 2822 3475 
Q 2822 3834 2567 4026 
Q 2313 4219 1838 4219 
Q 1578 4219 1281 4162 
Q 984 4106 628 3988 
L 628 4550 
Q 988 4650 1302 4700 
Q 1616 4750 1894 4750 
Q 2613 4750 3031 4423 
Q 3450 4097 3450 3541 
Q 3450 3153 3228 2886 
Q 3006 2619 2597 2516 
z
" transform="scale(0.015625)"/>
       </defs>
       <use xlink:href="#DejaVuSans-31"/>
       <use xlink:href="#DejaVuSans-33" x="63.623047"/>
       <use xlink:href="#DejaVuSans-35" x="127.246094"/>
       <use xlink:href="#DejaVuSans-b0" x="190.869141"/>
      </g>
     </g>
    </g>
    <g id="xtick_5">
     <g id="line2d_5">
      <path d="M 236.16 174.528 
L 103.104 174.528 
" clip-path="url(#p96b33efa1d)" style="fill: none; stroke: #b0b0b0; stroke-width: 0.8; stroke-linecap: square"/>
     </g>
     <g id="text_5">
      <!-- 180° -->
      <g transform="translate(77.06025 177.287375)scale(0.1 -0.1)">
       <defs>
        <path id="DejaVuSans-38" d="M 2034 2216 
Q 1584 2216 1326 1975 
Q 1069 1734 1069 1313 
Q 1069 891 1326 650 
Q 1584 409 2034 409 
Q 2484 409 2743 651 
Q 3003 894 3003 1313 
Q 3003 1734 2745 1975 
Q 2488 2216 2034 2216 
z
M 1403 2484 
Q 997 2584 770 2862 
Q 544 3141 544 3541 
Q 544 4100 942 4425 
Q 1341 4750 2034 4750 
Q 2731 4750 3128 4425 
Q 3525 4100 3525 3541 
Q 3525 3141 3298 2862 
Q 3072 2584 2669 2484 
Q 3125 2378 3379 2068 
Q 3634 1759 3634 1313 
Q 3634 634 3220 271 
Q 2806 -91 2034 -91 
Q 1263 -91 848 271 
Q 434 634 434 1313 
Q 434 1759 690 2068 
Q 947 2378 1403 2484 
z
M 1172 3481 
Q 1172 3119 1398 2916 
Q 1625 2713 2034 2713 
Q 2441 2713 2670 2916 
Q 2900 3119 2900 3481 
Q 2900 3844 2670 4047 
Q 2441 4250 2034 4250 
Q 1625 4250 1398 4047 
Q 1172 3844 1172 3481 
z
" transform="scale(0.015625)"/>
       </defs>
       <use xlink:href="#DejaVuSans-31"/>
       <use xlink:href="#DejaVuSans-38" x="63.623047"/>
       <use xlink:href="#DejaVuSans-30" x="127.246094"/>
       <use xlink:href="#DejaVuSans-b0" x="190.869141"/>
      </g>
     </g>
    </g>
    <g id="xtick_6">
     <g id="line2d_6">
      <path d="M 236.16 174.528 
L 142.0752 268.6128 
" clip-path="url(#p96b33efa1d)" style="fill: none; stroke: #b0b0b0; stroke-width: 0.8; stroke-linecap: square"/>
     </g>
     <g id="text_6">
      <!-- 225° -->
      <g transform="translate(120.131955 281.27167)scale(0.1 -0.1)">
       <defs>
        <path id="DejaVuSans-32" d="M 1228 531 
L 3431 531 
L 3431 0 
L 469 0 
L 469 531 
Q 828 903 1448 1529 
Q 2069 2156 2228 2338 
Q 2531 2678 2651 2914 
Q 2772 3150 2772 3378 
Q 2772 3750 2511 3984 
Q 2250 4219 1831 4219 
Q 1534 4219 1204 4116 
Q 875 4013 500 3803 
L 500 4441 
Q 881 4594 1212 4672 
Q 1544 4750 1819 4750 
Q 2544 4750 2975 4387 
Q 3406 4025 3406 3419 
Q 3406 3131 3298 2873 
Q 3191 2616 2906 2266 
Q 2828 2175 2409 1742 
Q 1991 1309 1228 531 
z
" transform="scale(0.015625)"/>
       </defs>
       <use xlink:href="#DejaVuSans-32"/>
       <use xlink:href="#DejaVuSans-32" x="63.623047"/>
       <use xlink:href="#DejaVuSans-35" x="127.246094"/>
       <use xlink:href="#DejaVuSans-b0" x="190.869141"/>
      </g>
     </g>
    </g>
    <g id="xtick_7">
     <g id="line2d_7">
      <path d="M 236.16 174.528 
L 236.16 307.584 
" clip-path="url(#p96b33efa1d)" style="fill: none; stroke: #b0b0b0; stroke-width: 0.8; stroke-linecap: square"/>
     </g>
     <g id="text_7">
      <!-- 270° -->
      <g transform="translate(224.11625 324.343375)scale(0.1 -0.1)">
       <defs>
        <path id="DejaVuSans-37" d="M 525 4666 
L 3525 4666 
L 3525 4397 
L 1831 0 
L 1172 0 
L 2766 4134 
L 525 4134 
L 525 4666 
z
" transform="scale(0.015625)"/>
       </defs>
       <use xlink:href="#DejaVuSans-32"/>
       <use xlink:href="#DejaVuSans-37" x="63.623047"/>
       <use xlink:href="#DejaVuSans-30" x="127.246094"/>
       <use xlink:href="#DejaVuSans-b0" x="190.869141"/>
      </g>
     </g>
    </g>
    <g id="xtick_8">
     <g id="line2d_8">
      <path d="M 236.16 174.528 
L 330.2448 268.6128 
" clip-path="url(#p96b33efa1d)" style="fill: none; stroke: #b0b0b0; stroke-width: 0.8; stroke-linecap: square"/>
     </g>
     <g id="text_8">
      <!-- 315° -->
      <g transform="translate(328.100545 281.27167)scale(0.1 -0.1)">
       <use xlink:href="#DejaVuSans-33"/>
       <use xlink:href="#DejaVuSans-31" x="63.623047"/>
       <use xlink:href="#DejaVuSans-35" x="127.246094"/>
       <use xlink:href="#DejaVuSans-b0" x="190.869141"/>
      </g>
     </g>
    </g>
   </g>
   <g id="matplotlib.axis_2">
    <g id="ytick_1">
     <g id="line2d_9">
      <path d="M 332.289248 174.528 
C 332.289248 161.904423 329.802678 149.403594 324.971844 137.74093 
C 320.141011 126.078265 313.05986 115.480574 304.133643 106.554357 
C 295.207426 97.62814 284.609735 90.546989 272.94707 85.716156 
C 261.284406 80.885322 248.783577 78.398752 236.16 78.398752 
C 223.536423 78.398752 211.035594 80.885322 199.37293 85.716156 
C 187.710265 90.546989 177.112574 97.62814 168.186357 106.554357 
C 159.26014 115.480574 152.178989 126.078265 147.348156 137.74093 
C 142.517322 149.403594 140.030752 161.904423 140.030752 174.528 
C 140.030752 187.151577 142.517322 199.652406 147.348156 211.31507 
C 152.178989 222.977735 159.26014 233.575426 168.186357 242.501643 
C 177.112574 251.42786 187.710265 258.509011 199.37293 263.339844 
C 211.035594 268.170678 223.536423 270.657248 236.16 270.657248 
C 248.783577 270.657248 261.284406 268.170678 272.94707 263.339844 
C 284.609735 258.509011 295.207426 251.42786 304.133643 242.501643 
C 313.05986 233.575426 320.141011 222.977735 324.971844 211.31507 
C 329.802678 199.652406 332.289248 187.151577 332.289248 174.528 
" clip-path="url(#p96b33efa1d)" style="fill: none; stroke: #b0b0b0; stroke-width: 0.8; stroke-linecap: square"/>
     </g>
     <g id="text_9">
      <!-- 0.02 -->
      <g transform="translate(324.971844 135.661242)scale(0.1 -0.1)">
       <defs>
        <path id="DejaVuSans-2e" d="M 684 794 
L 1344 794 
L 1344 0 
L 684 0 
L 684 794 
z
" transform="scale(0.015625)"/>
       </defs>
       <use xlink:href="#DejaVuSans-30"/>
       <use xlink:href="#DejaVuSans-2e" x="63.623047"/>
       <use xlink:href="#DejaVuSans-30" x="95.410156"/>
       <use xlink:href="#DejaVuSans-32" x="159.033203"/>
      </g>
     </g>
    </g>
   </g>
   <g id="patch_3">
    <path d="M 369.216 174.528 
C 369.216 157.055246 365.774248 139.752393 359.087715 123.609673 
C 352.401182 107.466954 342.599903 92.798303 330.2448 80.4432 
C 317.889697 68.088097 303.221046 58.286818 287.078327 51.600285 
C 270.935607 44.913752 253.632754 41.472 236.16 41.472 
C 218.687246 41.472 201.384393 44.913752 185.241673 51.600285 
C 169.098954 58.286818 154.430303 68.088097 142.0752 80.4432 
C 129.720097 92.798303 119.918818 107.466954 113.232285 123.609673 
C 106.545752 139.752393 103.104 157.055246 103.104 174.528 
C 103.104 192.000754 106.545752 209.303607 113.232285 225.446327 
C 119.918818 241.589046 129.720097 256.257697 142.0752 268.6128 
C 154.430303 280.967903 169.098954 290.769182 185.241673 297.455715 
C 201.384393 304.142248 218.687246 307.584 236.16 307.584 
C 253.632754 307.584 270.935607 304.142248 287.078327 297.455715 
C 303.221046 290.769182 317.889697 280.967903 330.2448 268.6128 
C 342.599903 256.257697 352.401182 241.589046 359.087715 225.446327 
C 365.774248 209.303607 369.216 192.000754 369.216 174.528 
" style="fill: none; stroke: #000000; stroke-width: 0.8; stroke-linejoin: miter; stroke-linecap: square"/>
   </g>
  </g>
  <g id="legend_1">
   <g id="patch_4">
    <path d="M 368.839063 66.7125 
L 453.8 66.7125 
Q 455.8 66.7125 455.8 64.7125 
L 455.8 7 
Q 455.8 5 453.8 5 
L 368.839063 5 
Q 366.839063 5 366.839063 7 
L 366.839063 64.7125 
Q 366.839063 66.7125 368.839063 66.7125 
z
" style="fill: #ffffff; opacity: 0.8; stroke: #cccccc; stroke-linejoin: miter"/>
   </g>
   <g id="PathCollection_5">
    <g>
     <use xlink:href="#mefd5ce4a72" x="380.839063" y="13.973438" style="fill: #f50505; stroke: #f50505"/>
    </g>
   </g>
   <g id="text_10">
    <!-- Decoder A -->
    <g transform="translate(398.839063 16.598438)scale(0.1 -0.1)">
     <defs>
      <path id="DejaVuSans-44" d="M 1259 4147 
L 1259 519 
L 2022 519 
Q 2988 519 3436 956 
Q 3884 1394 3884 2338 
Q 3884 3275 3436 3711 
Q 2988 4147 2022 4147 
L 1259 4147 
z
M 628 4666 
L 1925 4666 
Q 3281 4666 3915 4102 
Q 4550 3538 4550 2338 
Q 4550 1131 3912 565 
Q 3275 0 1925 0 
L 628 0 
L 628 4666 
z
" transform="scale(0.015625)"/>
      <path id="DejaVuSans-65" d="M 3597 1894 
L 3597 1613 
L 953 1613 
Q 991 1019 1311 708 
Q 1631 397 2203 397 
Q 2534 397 2845 478 
Q 3156 559 3463 722 
L 3463 178 
Q 3153 47 2828 -22 
Q 2503 -91 2169 -91 
Q 1331 -91 842 396 
Q 353 884 353 1716 
Q 353 2575 817 3079 
Q 1281 3584 2069 3584 
Q 2775 3584 3186 3129 
Q 3597 2675 3597 1894 
z
M 3022 2063 
Q 3016 2534 2758 2815 
Q 2500 3097 2075 3097 
Q 1594 3097 1305 2825 
Q 1016 2553 972 2059 
L 3022 2063 
z
" transform="scale(0.015625)"/>
      <path id="DejaVuSans-63" d="M 3122 3366 
L 3122 2828 
Q 2878 2963 2633 3030 
Q 2388 3097 2138 3097 
Q 1578 3097 1268 2742 
Q 959 2388 959 1747 
Q 959 1106 1268 751 
Q 1578 397 2138 397 
Q 2388 397 2633 464 
Q 2878 531 3122 666 
L 3122 134 
Q 2881 22 2623 -34 
Q 2366 -91 2075 -91 
Q 1284 -91 818 406 
Q 353 903 353 1747 
Q 353 2603 823 3093 
Q 1294 3584 2113 3584 
Q 2378 3584 2631 3529 
Q 2884 3475 3122 3366 
z
" transform="scale(0.015625)"/>
      <path id="DejaVuSans-6f" d="M 1959 3097 
Q 1497 3097 1228 2736 
Q 959 2375 959 1747 
Q 959 1119 1226 758 
Q 1494 397 1959 397 
Q 2419 397 2687 759 
Q 2956 1122 2956 1747 
Q 2956 2369 2687 2733 
Q 2419 3097 1959 3097 
z
M 1959 3584 
Q 2709 3584 3137 3096 
Q 3566 2609 3566 1747 
Q 3566 888 3137 398 
Q 2709 -91 1959 -91 
Q 1206 -91 779 398 
Q 353 888 353 1747 
Q 353 2609 779 3096 
Q 1206 3584 1959 3584 
z
" transform="scale(0.015625)"/>
      <path id="DejaVuSans-64" d="M 2906 2969 
L 2906 4863 
L 3481 4863 
L 3481 0 
L 2906 0 
L 2906 525 
Q 2725 213 2448 61 
Q 2172 -91 1784 -91 
Q 1150 -91 751 415 
Q 353 922 353 1747 
Q 353 2572 751 3078 
Q 1150 3584 1784 3584 
Q 2172 3584 2448 3432 
Q 2725 3281 2906 2969 
z
M 947 1747 
Q 947 1113 1208 752 
Q 1469 391 1925 391 
Q 2381 391 2643 752 
Q 2906 1113 2906 1747 
Q 2906 2381 2643 2742 
Q 2381 3103 1925 3103 
Q 1469 3103 1208 2742 
Q 947 2381 947 1747 
z
" transform="scale(0.015625)"/>
      <path id="DejaVuSans-72" d="M 2631 2963 
Q 2534 3019 2420 3045 
Q 2306 3072 2169 3072 
Q 1681 3072 1420 2755 
Q 1159 2438 1159 1844 
L 1159 0 
L 581 0 
L 581 3500 
L 1159 3500 
L 1159 2956 
Q 1341 3275 1631 3429 
Q 1922 3584 2338 3584 
Q 2397 3584 2469 3576 
Q 2541 3569 2628 3553 
L 2631 2963 
z
" transform="scale(0.015625)"/>
      <path id="DejaVuSans-20" transform="scale(0.015625)"/>
      <path id="DejaVuSans-41" d="M 2188 4044 
L 1331 1722 
L 3047 1722 
L 2188 4044 
z
M 1831 4666 
L 2547 4666 
L 4325 0 
L 3669 0 
L 3244 1197 
L 1141 1197 
L 716 0 
L 50 0 
L 1831 4666 
z
" transform="scale(0.015625)"/>
     </defs>
     <use xlink:href="#DejaVuSans-44"/>
     <use xlink:href="#DejaVuSans-65" x="77.001953"/>
     <use xlink:href="#DejaVuSans-63" x="138.525391"/>
     <use xlink:href="#DejaVuSans-6f" x="193.505859"/>
     <use xlink:href="#DejaVuSans-64" x="254.6875"/>
     <use xlink:href="#DejaVuSans-65" x="318.164062"/>
     <use xlink:href="#DejaVuSans-72" x="379.6875"/>
     <use xlink:href="#DejaVuSans-20" x="420.800781"/>
     <use xlink:href="#DejaVuSans-41" x="452.587891"/>
    </g>
   </g>
   <g id="PathCollection_6">
    <g>
     <use xlink:href="#m6e4dead3b5" x="380.839063" y="28.651563" style="fill: #3505f5; stroke: #3505f5"/>
    </g>
   </g>
   <g id="text_11">
    <!-- Decoder B -->
    <g transform="translate(398.839063 31.276563)scale(0.1 -0.1)">
     <defs>
      <path id="DejaVuSans-42" d="M 1259 2228 
L 1259 519 
L 2272 519 
Q 2781 519 3026 730 
Q 3272 941 3272 1375 
Q 3272 1813 3026 2020 
Q 2781 2228 2272 2228 
L 1259 2228 
z
M 1259 4147 
L 1259 2741 
L 2194 2741 
Q 2656 2741 2882 2914 
Q 3109 3088 3109 3444 
Q 3109 3797 2882 3972 
Q 2656 4147 2194 4147 
L 1259 4147 
z
M 628 4666 
L 2241 4666 
Q 2963 4666 3353 4366 
Q 3744 4066 3744 3513 
Q 3744 3084 3544 2831 
Q 3344 2578 2956 2516 
Q 3422 2416 3680 2098 
Q 3938 1781 3938 1306 
Q 3938 681 3513 340 
Q 3088 0 2303 0 
L 628 0 
L 628 4666 
z
" transform="scale(0.015625)"/>
     </defs>
     <use xlink:href="#DejaVuSans-44"/>
     <use xlink:href="#DejaVuSans-65" x="77.001953"/>
     <use xlink:href="#DejaVuSans-63" x="138.525391"/>
     <use xlink:href="#DejaVuSans-6f" x="193.505859"/>
     <use xlink:href="#DejaVuSans-64" x="254.6875"/>
     <use xlink:href="#DejaVuSans-65" x="318.164062"/>
     <use xlink:href="#DejaVuSans-72" x="379.6875"/>
     <use xlink:href="#DejaVuSans-20" x="420.800781"/>
     <use xlink:href="#DejaVuSans-42" x="452.587891"/>
    </g>
   </g>
   <g id="PathCollection_7">
    <g>
     <use xlink:href="#m0850b597a8" x="380.839063" y="43.329688" style="fill: #02faf2; stroke: #02faf2"/>
    </g>
   </g>
   <g id="text_12">
    <!-- Decoder C -->
    <g transform="translate(398.839063 45.954688)scale(0.1 -0.1)">
     <defs>
      <path id="DejaVuSans-43" d="M 4122 4306 
L 4122 3641 
Q 3803 3938 3442 4084 
Q 3081 4231 2675 4231 
Q 1875 4231 1450 3742 
Q 1025 3253 1025 2328 
Q 1025 1406 1450 917 
Q 1875 428 2675 428 
Q 3081 428 3442 575 
Q 3803 722 4122 1019 
L 4122 359 
Q 3791 134 3420 21 
Q 3050 -91 2638 -91 
Q 1578 -91 968 557 
Q 359 1206 359 2328 
Q 359 3453 968 4101 
Q 1578 4750 2638 4750 
Q 3056 4750 3426 4639 
Q 3797 4528 4122 4306 
z
" transform="scale(0.015625)"/>
     </defs>
     <use xlink:href="#DejaVuSans-44"/>
     <use xlink:href="#DejaVuSans-65" x="77.001953"/>
     <use xlink:href="#DejaVuSans-63" x="138.525391"/>
     <use xlink:href="#DejaVuSans-6f" x="193.505859"/>
     <use xlink:href="#DejaVuSans-64" x="254.6875"/>
     <use xlink:href="#DejaVuSans-65" x="318.164062"/>
     <use xlink:href="#DejaVuSans-72" x="379.6875"/>
     <use xlink:href="#DejaVuSans-20" x="420.800781"/>
     <use xlink:href="#DejaVuSans-43" x="452.587891"/>
    </g>
   </g>
   <g id="PathCollection_8">
    <g>
     <use xlink:href="#mbb4ed63e81" x="380.839063" y="58.007813" style="fill: #f5ed05; stroke: #f5ed05"/>
    </g>
   </g>
   <g id="text_13">
    <!-- Decoder D -->
    <g transform="translate(398.839063 60.632813)scale(0.1 -0.1)">
     <use xlink:href="#DejaVuSans-44"/>
     <use xlink:href="#DejaVuSans-65" x="77.001953"/>
     <use xlink:href="#DejaVuSans-63" x="138.525391"/>
     <use xlink:href="#DejaVuSans-6f" x="193.505859"/>
     <use xlink:href="#DejaVuSans-64" x="254.6875"/>
     <use xlink:href="#DejaVuSans-65" x="318.164062"/>
     <use xlink:href="#DejaVuSans-72" x="379.6875"/>
     <use xlink:href="#DejaVuSans-20" x="420.800781"/>
     <use xlink:href="#DejaVuSans-44" x="452.587891"/>
    </g>
   </g>
  </g>
 </g>
 <defs>
  <clipPath id="p96b33efa1d">
   <path d="M 369.216 174.528 
C 369.216 157.055246 365.774248 139.752393 359.087715 123.609673 
C 352.401182 107.466954 342.599903 92.798303 330.2448 80.4432 
C 317.889697 68.088097 303.221046 58.286818 287.078327 51.600285 
C 270.935607 44.913752 253.632754 41.472 236.16 41.472 
C 218.687246 41.472 201.384393 44.913752 185.241673 51.600285 
C 169.098954 58.286818 154.430303 68.088097 142.0752 80.4432 
C 129.720097 92.798303 119.918818 107.466954 113.232285 123.609673 
C 106.545752 139.752393 103.104 157.055246 103.104 174.528 
C 103.104 192.000754 106.545752 209.303607 113.232285 225.446327 
C 119.918818 241.589046 129.720097 256.257697 142.0752 268.6128 
C 154.430303 280.967903 169.098954 290.769182 185.241673 297.455715 
C 201.384393 304.142248 218.687246 307.584 236.16 307.584 
C 253.632754 307.584 270.935607 304.142248 287.078327 297.455715 
C 303.221046 290.769182 317.889697 280.967903 330.2448 268.6128 
C 342.599903 256.257697 352.401182 241.589046 359.087715 225.446327 
C 365.774248 209.303607 369.216 192.000754 369.216 174.528 
M 236.16 174.528 
C 236.16 174.528 236.16 174.528 236.16 174.528 
C 236.16 174.528 236.16 174.528 236.16 174.528 
C 236.16 174.528 236.16 174.528 236.16 174.528 
C 236.16 174.528 236.16 174.528 236.16 174.528 
C 236.16 174.528 236.16 174.528 236.16 174.528 
C 236.16 174.528 236.16 174.528 236.16 174.528 
C 236.16 174.528 236.16 174.528 236.16 174.528 
C 236.16 174.528 236.16 174.528 236.16 174.528 
C 236.16 174.528 236.16 174.528 236.16 174.528 
C 236.16 174.528 236.16 174.528 236.16 174.528 
C 236.16 174.528 236.16 174.528 236.16 174.528 
C 236.16 174.528 236.16 174.528 236.16 174.528 
C 236.16 174.528 236.16 174.528 236.16 174.528 
C 236.16 174.528 236.16 174.528 236.16 174.528 
C 236.16 174.528 236.16 174.528 236.16 174.528 
C 236.16 174.528 236.16 174.528 236.16 174.528 
M 369.216 174.528 
z
"/>
  </clipPath>
 </defs>
</svg>
