<?xml version="1.0" encoding="utf-8" standalone="no"?>
<!DOCTYPE svg PUBLIC "-//W3C//DTD SVG 1.1//EN"
  "http://www.w3.org/Graphics/SVG/1.1/DTD/svg11.dtd">
<svg xmlns:xlink="http://www.w3.org/1999/xlink" width="460.8pt" height="345.6pt" viewBox="0 0 460.8 345.6" xmlns="http://www.w3.org/2000/svg" version="1.1">
 <metadata>
  <rdf:RDF xmlns:dc="http://purl.org/dc/elements/1.1/" xmlns:cc="http://creativecommons.org/ns#" xmlns:rdf="http://www.w3.org/1999/02/22-rdf-syntax-ns#">
   <cc:Work>
    <dc:type rdf:resource="http://purl.org/dc/dcmitype/StillImage"/>
    <dc:date>2024-02-07T11:31:58.555963</dc:date>
    <dc:format>image/svg+xml</dc:format>
    <dc:creator>
     <cc:Agent>
      <dc:title>Matplotlib v3.5.0, https://matplotlib.org/</dc:title>
     </cc:Agent>
    </dc:creator>
   </cc:Work>
  </rdf:RDF>
 </metadata>
 <defs>
  <style type="text/css">*{stroke-linejoin: round; stroke-linecap: butt}</style>
 </defs>
 <g id="figure_1">
  <g id="patch_1">
   <path d="M 0 345.6 
L 460.8 345.6 
L 460.8 0 
L 0 0 
z
" style="fill: #ffffff"/>
  </g>
  <g id="axes_1">
   <g id="patch_2">
    <path d="M 57.6 307.584 
L 414.72 307.584 
L 414.72 41.472 
L 57.6 41.472 
z
" style="fill: #ffffff"/>
   </g>
   <g id="matplotlib.axis_1">
    <g id="xtick_1">
     <g id="line2d_1">
      <defs>
       <path id="m1d1a755e43" d="M 0 0 
L 0 3.5 
" style="stroke: #000000; stroke-width: 0.8"/>
      </defs>
      <g>
       <use xlink:href="#m1d1a755e43" x="73.832727" y="307.584" style="stroke: #000000; stroke-width: 0.8"/>
      </g>
     </g>
     <g id="text_1">
      <!-- 0 -->
      <g transform="translate(70.651477 322.182437)scale(0.1 -0.1)">
       <defs>
        <path id="DejaVuSans-30" d="M 2034 4250 
Q 1547 4250 1301 3770 
Q 1056 3291 1056 2328 
Q 1056 1369 1301 889 
Q 1547 409 2034 409 
Q 2525 409 2770 889 
Q 3016 1369 3016 2328 
Q 3016 3291 2770 3770 
Q 2525 4250 2034 4250 
z
M 2034 4750 
Q 2819 4750 3233 4129 
Q 3647 3509 3647 2328 
Q 3647 1150 3233 529 
Q 2819 -91 2034 -91 
Q 1250 -91 836 529 
Q 422 1150 422 2328 
Q 422 3509 836 4129 
Q 1250 4750 2034 4750 
z
" transform="scale(0.015625)"/>
       </defs>
       <use xlink:href="#DejaVuSans-30"/>
      </g>
     </g>
    </g>
    <g id="xtick_2">
     <g id="line2d_2">
      <g>
       <use xlink:href="#m1d1a755e43" x="138.828632" y="307.584" style="stroke: #000000; stroke-width: 0.8"/>
      </g>
     </g>
     <g id="text_2">
      <!-- 200 -->
      <g transform="translate(129.284882 322.182437)scale(0.1 -0.1)">
       <defs>
        <path id="DejaVuSans-32" d="M 1228 531 
L 3431 531 
L 3431 0 
L 469 0 
L 469 531 
Q 828 903 1448 1529 
Q 2069 2156 2228 2338 
Q 2531 2678 2651 2914 
Q 2772 3150 2772 3378 
Q 2772 3750 2511 3984 
Q 2250 4219 1831 4219 
Q 1534 4219 1204 4116 
Q 875 4013 500 3803 
L 500 4441 
Q 881 4594 1212 4672 
Q 1544 4750 1819 4750 
Q 2544 4750 2975 4387 
Q 3406 4025 3406 3419 
Q 3406 3131 3298 2873 
Q 3191 2616 2906 2266 
Q 2828 2175 2409 1742 
Q 1991 1309 1228 531 
z
" transform="scale(0.015625)"/>
       </defs>
       <use xlink:href="#DejaVuSans-32"/>
       <use xlink:href="#DejaVuSans-30" x="63.623047"/>
       <use xlink:href="#DejaVuSans-30" x="127.246094"/>
      </g>
     </g>
    </g>
    <g id="xtick_3">
     <g id="line2d_3">
      <g>
       <use xlink:href="#m1d1a755e43" x="203.824537" y="307.584" style="stroke: #000000; stroke-width: 0.8"/>
      </g>
     </g>
     <g id="text_3">
      <!-- 400 -->
      <g transform="translate(194.280787 322.182437)scale(0.1 -0.1)">
       <defs>
        <path id="DejaVuSans-34" d="M 2419 4116 
L 825 1625 
L 2419 1625 
L 2419 4116 
z
M 2253 4666 
L 3047 4666 
L 3047 1625 
L 3713 1625 
L 3713 1100 
L 3047 1100 
L 3047 0 
L 2419 0 
L 2419 1100 
L 313 1100 
L 313 1709 
L 2253 4666 
z
" transform="scale(0.015625)"/>
       </defs>
       <use xlink:href="#DejaVuSans-34"/>
       <use xlink:href="#DejaVuSans-30" x="63.623047"/>
       <use xlink:href="#DejaVuSans-30" x="127.246094"/>
      </g>
     </g>
    </g>
    <g id="xtick_4">
     <g id="line2d_4">
      <g>
       <use xlink:href="#m1d1a755e43" x="268.820442" y="307.584" style="stroke: #000000; stroke-width: 0.8"/>
      </g>
     </g>
     <g id="text_4">
      <!-- 600 -->
      <g transform="translate(259.276692 322.182437)scale(0.1 -0.1)">
       <defs>
        <path id="DejaVuSans-36" d="M 2113 2584 
Q 1688 2584 1439 2293 
Q 1191 2003 1191 1497 
Q 1191 994 1439 701 
Q 1688 409 2113 409 
Q 2538 409 2786 701 
Q 3034 994 3034 1497 
Q 3034 2003 2786 2293 
Q 2538 2584 2113 2584 
z
M 3366 4563 
L 3366 3988 
Q 3128 4100 2886 4159 
Q 2644 4219 2406 4219 
Q 1781 4219 1451 3797 
Q 1122 3375 1075 2522 
Q 1259 2794 1537 2939 
Q 1816 3084 2150 3084 
Q 2853 3084 3261 2657 
Q 3669 2231 3669 1497 
Q 3669 778 3244 343 
Q 2819 -91 2113 -91 
Q 1303 -91 875 529 
Q 447 1150 447 2328 
Q 447 3434 972 4092 
Q 1497 4750 2381 4750 
Q 2619 4750 2861 4703 
Q 3103 4656 3366 4563 
z
" transform="scale(0.015625)"/>
       </defs>
       <use xlink:href="#DejaVuSans-36"/>
       <use xlink:href="#DejaVuSans-30" x="63.623047"/>
       <use xlink:href="#DejaVuSans-30" x="127.246094"/>
      </g>
     </g>
    </g>
    <g id="xtick_5">
     <g id="line2d_5">
      <g>
       <use xlink:href="#m1d1a755e43" x="333.816347" y="307.584" style="stroke: #000000; stroke-width: 0.8"/>
      </g>
     </g>
     <g id="text_5">
      <!-- 800 -->
      <g transform="translate(324.272597 322.182437)scale(0.1 -0.1)">
       <defs>
        <path id="DejaVuSans-38" d="M 2034 2216 
Q 1584 2216 1326 1975 
Q 1069 1734 1069 1313 
Q 1069 891 1326 650 
Q 1584 409 2034 409 
Q 2484 409 2743 651 
Q 3003 894 3003 1313 
Q 3003 1734 2745 1975 
Q 2488 2216 2034 2216 
z
M 1403 2484 
Q 997 2584 770 2862 
Q 544 3141 544 3541 
Q 544 4100 942 4425 
Q 1341 4750 2034 4750 
Q 2731 4750 3128 4425 
Q 3525 4100 3525 3541 
Q 3525 3141 3298 2862 
Q 3072 2584 2669 2484 
Q 3125 2378 3379 2068 
Q 3634 1759 3634 1313 
Q 3634 634 3220 271 
Q 2806 -91 2034 -91 
Q 1263 -91 848 271 
Q 434 634 434 1313 
Q 434 1759 690 2068 
Q 947 2378 1403 2484 
z
M 1172 3481 
Q 1172 3119 1398 2916 
Q 1625 2713 2034 2713 
Q 2441 2713 2670 2916 
Q 2900 3119 2900 3481 
Q 2900 3844 2670 4047 
Q 2441 4250 2034 4250 
Q 1625 4250 1398 4047 
Q 1172 3844 1172 3481 
z
" transform="scale(0.015625)"/>
       </defs>
       <use xlink:href="#DejaVuSans-38"/>
       <use xlink:href="#DejaVuSans-30" x="63.623047"/>
       <use xlink:href="#DejaVuSans-30" x="127.246094"/>
      </g>
     </g>
    </g>
    <g id="xtick_6">
     <g id="line2d_6">
      <g>
       <use xlink:href="#m1d1a755e43" x="398.812252" y="307.584" style="stroke: #000000; stroke-width: 0.8"/>
      </g>
     </g>
     <g id="text_6">
      <!-- 1000 -->
      <g transform="translate(386.087252 322.182437)scale(0.1 -0.1)">
       <defs>
        <path id="DejaVuSans-31" d="M 794 531 
L 1825 531 
L 1825 4091 
L 703 3866 
L 703 4441 
L 1819 4666 
L 2450 4666 
L 2450 531 
L 3481 531 
L 3481 0 
L 794 0 
L 794 531 
z
" transform="scale(0.015625)"/>
       </defs>
       <use xlink:href="#DejaVuSans-31"/>
       <use xlink:href="#DejaVuSans-30" x="63.623047"/>
       <use xlink:href="#DejaVuSans-30" x="127.246094"/>
       <use xlink:href="#DejaVuSans-30" x="190.869141"/>
      </g>
     </g>
    </g>
    <g id="text_7">
     <!-- Timestamps -->
     <g transform="translate(190.392422 339.659781)scale(0.15 -0.15)">
      <defs>
       <path id="DejaVuSans-54" d="M -19 4666 
L 3928 4666 
L 3928 4134 
L 2272 4134 
L 2272 0 
L 1638 0 
L 1638 4134 
L -19 4134 
L -19 4666 
z
" transform="scale(0.015625)"/>
       <path id="DejaVuSans-69" d="M 603 3500 
L 1178 3500 
L 1178 0 
L 603 0 
L 603 3500 
z
M 603 4863 
L 1178 4863 
L 1178 4134 
L 603 4134 
L 603 4863 
z
" transform="scale(0.015625)"/>
       <path id="DejaVuSans-6d" d="M 3328 2828 
Q 3544 3216 3844 3400 
Q 4144 3584 4550 3584 
Q 5097 3584 5394 3201 
Q 5691 2819 5691 2113 
L 5691 0 
L 5113 0 
L 5113 2094 
Q 5113 2597 4934 2840 
Q 4756 3084 4391 3084 
Q 3944 3084 3684 2787 
Q 3425 2491 3425 1978 
L 3425 0 
L 2847 0 
L 2847 2094 
Q 2847 2600 2669 2842 
Q 2491 3084 2119 3084 
Q 1678 3084 1418 2786 
Q 1159 2488 1159 1978 
L 1159 0 
L 581 0 
L 581 3500 
L 1159 3500 
L 1159 2956 
Q 1356 3278 1631 3431 
Q 1906 3584 2284 3584 
Q 2666 3584 2933 3390 
Q 3200 3197 3328 2828 
z
" transform="scale(0.015625)"/>
       <path id="DejaVuSans-65" d="M 3597 1894 
L 3597 1613 
L 953 1613 
Q 991 1019 1311 708 
Q 1631 397 2203 397 
Q 2534 397 2845 478 
Q 3156 559 3463 722 
L 3463 178 
Q 3153 47 2828 -22 
Q 2503 -91 2169 -91 
Q 1331 -91 842 396 
Q 353 884 353 1716 
Q 353 2575 817 3079 
Q 1281 3584 2069 3584 
Q 2775 3584 3186 3129 
Q 3597 2675 3597 1894 
z
M 3022 2063 
Q 3016 2534 2758 2815 
Q 2500 3097 2075 3097 
Q 1594 3097 1305 2825 
Q 1016 2553 972 2059 
L 3022 2063 
z
" transform="scale(0.015625)"/>
       <path id="DejaVuSans-73" d="M 2834 3397 
L 2834 2853 
Q 2591 2978 2328 3040 
Q 2066 3103 1784 3103 
Q 1356 3103 1142 2972 
Q 928 2841 928 2578 
Q 928 2378 1081 2264 
Q 1234 2150 1697 2047 
L 1894 2003 
Q 2506 1872 2764 1633 
Q 3022 1394 3022 966 
Q 3022 478 2636 193 
Q 2250 -91 1575 -91 
Q 1294 -91 989 -36 
Q 684 19 347 128 
L 347 722 
Q 666 556 975 473 
Q 1284 391 1588 391 
Q 1994 391 2212 530 
Q 2431 669 2431 922 
Q 2431 1156 2273 1281 
Q 2116 1406 1581 1522 
L 1381 1569 
Q 847 1681 609 1914 
Q 372 2147 372 2553 
Q 372 3047 722 3315 
Q 1072 3584 1716 3584 
Q 2034 3584 2315 3537 
Q 2597 3491 2834 3397 
z
" transform="scale(0.015625)"/>
       <path id="DejaVuSans-74" d="M 1172 4494 
L 1172 3500 
L 2356 3500 
L 2356 3053 
L 1172 3053 
L 1172 1153 
Q 1172 725 1289 603 
Q 1406 481 1766 481 
L 2356 481 
L 2356 0 
L 1766 0 
Q 1100 0 847 248 
Q 594 497 594 1153 
L 594 3053 
L 172 3053 
L 172 3500 
L 594 3500 
L 594 4494 
L 1172 4494 
z
" transform="scale(0.015625)"/>
       <path id="DejaVuSans-61" d="M 2194 1759 
Q 1497 1759 1228 1600 
Q 959 1441 959 1056 
Q 959 750 1161 570 
Q 1363 391 1709 391 
Q 2188 391 2477 730 
Q 2766 1069 2766 1631 
L 2766 1759 
L 2194 1759 
z
M 3341 1997 
L 3341 0 
L 2766 0 
L 2766 531 
Q 2569 213 2275 61 
Q 1981 -91 1556 -91 
Q 1019 -91 701 211 
Q 384 513 384 1019 
Q 384 1609 779 1909 
Q 1175 2209 1959 2209 
L 2766 2209 
L 2766 2266 
Q 2766 2663 2505 2880 
Q 2244 3097 1772 3097 
Q 1472 3097 1187 3025 
Q 903 2953 641 2809 
L 641 3341 
Q 956 3463 1253 3523 
Q 1550 3584 1831 3584 
Q 2591 3584 2966 3190 
Q 3341 2797 3341 1997 
z
" transform="scale(0.015625)"/>
       <path id="DejaVuSans-70" d="M 1159 525 
L 1159 -1331 
L 581 -1331 
L 581 3500 
L 1159 3500 
L 1159 2969 
Q 1341 3281 1617 3432 
Q 1894 3584 2278 3584 
Q 2916 3584 3314 3078 
Q 3713 2572 3713 1747 
Q 3713 922 3314 415 
Q 2916 -91 2278 -91 
Q 1894 -91 1617 61 
Q 1341 213 1159 525 
z
M 3116 1747 
Q 3116 2381 2855 2742 
Q 2594 3103 2138 3103 
Q 1681 3103 1420 2742 
Q 1159 2381 1159 1747 
Q 1159 1113 1420 752 
Q 1681 391 2138 391 
Q 2594 391 2855 752 
Q 3116 1113 3116 1747 
z
" transform="scale(0.015625)"/>
      </defs>
      <use xlink:href="#DejaVuSans-54"/>
      <use xlink:href="#DejaVuSans-69" x="57.958984"/>
      <use xlink:href="#DejaVuSans-6d" x="85.742188"/>
      <use xlink:href="#DejaVuSans-65" x="183.154297"/>
      <use xlink:href="#DejaVuSans-73" x="244.677734"/>
      <use xlink:href="#DejaVuSans-74" x="296.777344"/>
      <use xlink:href="#DejaVuSans-61" x="335.986328"/>
      <use xlink:href="#DejaVuSans-6d" x="397.265625"/>
      <use xlink:href="#DejaVuSans-70" x="494.677734"/>
      <use xlink:href="#DejaVuSans-73" x="558.154297"/>
     </g>
    </g>
   </g>
   <g id="matplotlib.axis_2">
    <g id="ytick_1">
     <g id="line2d_7">
      <defs>
       <path id="m7bfa66d148" d="M 0 0 
L -3.5 0 
" style="stroke: #000000; stroke-width: 0.8"/>
      </defs>
      <g>
       <use xlink:href="#m7bfa66d148" x="57.6" y="301.464687" style="stroke: #000000; stroke-width: 0.8"/>
      </g>
     </g>
     <g id="text_8">
      <!-- −0.8 -->
      <g transform="translate(26.317187 305.263906)scale(0.1 -0.1)">
       <defs>
        <path id="DejaVuSans-2212" d="M 678 2272 
L 4684 2272 
L 4684 1741 
L 678 1741 
L 678 2272 
z
" transform="scale(0.015625)"/>
        <path id="DejaVuSans-2e" d="M 684 794 
L 1344 794 
L 1344 0 
L 684 0 
L 684 794 
z
" transform="scale(0.015625)"/>
       </defs>
       <use xlink:href="#DejaVuSans-2212"/>
       <use xlink:href="#DejaVuSans-30" x="83.789062"/>
       <use xlink:href="#DejaVuSans-2e" x="147.412109"/>
       <use xlink:href="#DejaVuSans-38" x="179.199219"/>
      </g>
     </g>
    </g>
    <g id="ytick_2">
     <g id="line2d_8">
      <g>
       <use xlink:href="#m7bfa66d148" x="57.6" y="269.786841" style="stroke: #000000; stroke-width: 0.8"/>
      </g>
     </g>
     <g id="text_9">
      <!-- −0.6 -->
      <g transform="translate(26.317187 273.58606)scale(0.1 -0.1)">
       <use xlink:href="#DejaVuSans-2212"/>
       <use xlink:href="#DejaVuSans-30" x="83.789062"/>
       <use xlink:href="#DejaVuSans-2e" x="147.412109"/>
       <use xlink:href="#DejaVuSans-36" x="179.199219"/>
      </g>
     </g>
    </g>
    <g id="ytick_3">
     <g id="line2d_9">
      <g>
       <use xlink:href="#m7bfa66d148" x="57.6" y="238.108995" style="stroke: #000000; stroke-width: 0.8"/>
      </g>
     </g>
     <g id="text_10">
      <!-- −0.4 -->
      <g transform="translate(26.317187 241.908214)scale(0.1 -0.1)">
       <use xlink:href="#DejaVuSans-2212"/>
       <use xlink:href="#DejaVuSans-30" x="83.789062"/>
       <use xlink:href="#DejaVuSans-2e" x="147.412109"/>
       <use xlink:href="#DejaVuSans-34" x="179.199219"/>
      </g>
     </g>
    </g>
    <g id="ytick_4">
     <g id="line2d_10">
      <g>
       <use xlink:href="#m7bfa66d148" x="57.6" y="206.431149" style="stroke: #000000; stroke-width: 0.8"/>
      </g>
     </g>
     <g id="text_11">
      <!-- −0.2 -->
      <g transform="translate(26.317187 210.230368)scale(0.1 -0.1)">
       <use xlink:href="#DejaVuSans-2212"/>
       <use xlink:href="#DejaVuSans-30" x="83.789062"/>
       <use xlink:href="#DejaVuSans-2e" x="147.412109"/>
       <use xlink:href="#DejaVuSans-32" x="179.199219"/>
      </g>
     </g>
    </g>
    <g id="ytick_5">
     <g id="line2d_11">
      <g>
       <use xlink:href="#m7bfa66d148" x="57.6" y="174.753304" style="stroke: #000000; stroke-width: 0.8"/>
      </g>
     </g>
     <g id="text_12">
      <!-- 0.0 -->
      <g transform="translate(34.696875 178.552522)scale(0.1 -0.1)">
       <use xlink:href="#DejaVuSans-30"/>
       <use xlink:href="#DejaVuSans-2e" x="63.623047"/>
       <use xlink:href="#DejaVuSans-30" x="95.410156"/>
      </g>
     </g>
    </g>
    <g id="ytick_6">
     <g id="line2d_12">
      <g>
       <use xlink:href="#m7bfa66d148" x="57.6" y="143.075458" style="stroke: #000000; stroke-width: 0.8"/>
      </g>
     </g>
     <g id="text_13">
      <!-- 0.2 -->
      <g transform="translate(34.696875 146.874676)scale(0.1 -0.1)">
       <use xlink:href="#DejaVuSans-30"/>
       <use xlink:href="#DejaVuSans-2e" x="63.623047"/>
       <use xlink:href="#DejaVuSans-32" x="95.410156"/>
      </g>
     </g>
    </g>
    <g id="ytick_7">
     <g id="line2d_13">
      <g>
       <use xlink:href="#m7bfa66d148" x="57.6" y="111.397612" style="stroke: #000000; stroke-width: 0.8"/>
      </g>
     </g>
     <g id="text_14">
      <!-- 0.4 -->
      <g transform="translate(34.696875 115.19683)scale(0.1 -0.1)">
       <use xlink:href="#DejaVuSans-30"/>
       <use xlink:href="#DejaVuSans-2e" x="63.623047"/>
       <use xlink:href="#DejaVuSans-34" x="95.410156"/>
      </g>
     </g>
    </g>
    <g id="ytick_8">
     <g id="line2d_14">
      <g>
       <use xlink:href="#m7bfa66d148" x="57.6" y="79.719766" style="stroke: #000000; stroke-width: 0.8"/>
      </g>
     </g>
     <g id="text_15">
      <!-- 0.6 -->
      <g transform="translate(34.696875 83.518985)scale(0.1 -0.1)">
       <use xlink:href="#DejaVuSans-30"/>
       <use xlink:href="#DejaVuSans-2e" x="63.623047"/>
       <use xlink:href="#DejaVuSans-36" x="95.410156"/>
      </g>
     </g>
    </g>
    <g id="ytick_9">
     <g id="line2d_15">
      <g>
       <use xlink:href="#m7bfa66d148" x="57.6" y="48.04192" style="stroke: #000000; stroke-width: 0.8"/>
      </g>
     </g>
     <g id="text_16">
      <!-- 0.8 -->
      <g transform="translate(34.696875 51.841139)scale(0.1 -0.1)">
       <use xlink:href="#DejaVuSans-30"/>
       <use xlink:href="#DejaVuSans-2e" x="63.623047"/>
       <use xlink:href="#DejaVuSans-38" x="95.410156"/>
      </g>
     </g>
    </g>
    <g id="text_17">
     <!-- Magnitude -->
     <g transform="translate(19.197656 214.262766)rotate(-90)scale(0.15 -0.15)">
      <defs>
       <path id="DejaVuSans-4d" d="M 628 4666 
L 1569 4666 
L 2759 1491 
L 3956 4666 
L 4897 4666 
L 4897 0 
L 4281 0 
L 4281 4097 
L 3078 897 
L 2444 897 
L 1241 4097 
L 1241 0 
L 628 0 
L 628 4666 
z
" transform="scale(0.015625)"/>
       <path id="DejaVuSans-67" d="M 2906 1791 
Q 2906 2416 2648 2759 
Q 2391 3103 1925 3103 
Q 1463 3103 1205 2759 
Q 947 2416 947 1791 
Q 947 1169 1205 825 
Q 1463 481 1925 481 
Q 2391 481 2648 825 
Q 2906 1169 2906 1791 
z
M 3481 434 
Q 3481 -459 3084 -895 
Q 2688 -1331 1869 -1331 
Q 1566 -1331 1297 -1286 
Q 1028 -1241 775 -1147 
L 775 -588 
Q 1028 -725 1275 -790 
Q 1522 -856 1778 -856 
Q 2344 -856 2625 -561 
Q 2906 -266 2906 331 
L 2906 616 
Q 2728 306 2450 153 
Q 2172 0 1784 0 
Q 1141 0 747 490 
Q 353 981 353 1791 
Q 353 2603 747 3093 
Q 1141 3584 1784 3584 
Q 2172 3584 2450 3431 
Q 2728 3278 2906 2969 
L 2906 3500 
L 3481 3500 
L 3481 434 
z
" transform="scale(0.015625)"/>
       <path id="DejaVuSans-6e" d="M 3513 2113 
L 3513 0 
L 2938 0 
L 2938 2094 
Q 2938 2591 2744 2837 
Q 2550 3084 2163 3084 
Q 1697 3084 1428 2787 
Q 1159 2491 1159 1978 
L 1159 0 
L 581 0 
L 581 3500 
L 1159 3500 
L 1159 2956 
Q 1366 3272 1645 3428 
Q 1925 3584 2291 3584 
Q 2894 3584 3203 3211 
Q 3513 2838 3513 2113 
z
" transform="scale(0.015625)"/>
       <path id="DejaVuSans-75" d="M 544 1381 
L 544 3500 
L 1119 3500 
L 1119 1403 
Q 1119 906 1312 657 
Q 1506 409 1894 409 
Q 2359 409 2629 706 
Q 2900 1003 2900 1516 
L 2900 3500 
L 3475 3500 
L 3475 0 
L 2900 0 
L 2900 538 
Q 2691 219 2414 64 
Q 2138 -91 1772 -91 
Q 1169 -91 856 284 
Q 544 659 544 1381 
z
M 1991 3584 
L 1991 3584 
z
" transform="scale(0.015625)"/>
       <path id="DejaVuSans-64" d="M 2906 2969 
L 2906 4863 
L 3481 4863 
L 3481 0 
L 2906 0 
L 2906 525 
Q 2725 213 2448 61 
Q 2172 -91 1784 -91 
Q 1150 -91 751 415 
Q 353 922 353 1747 
Q 353 2572 751 3078 
Q 1150 3584 1784 3584 
Q 2172 3584 2448 3432 
Q 2725 3281 2906 2969 
z
M 947 1747 
Q 947 1113 1208 752 
Q 1469 391 1925 391 
Q 2381 391 2643 752 
Q 2906 1113 2906 1747 
Q 2906 2381 2643 2742 
Q 2381 3103 1925 3103 
Q 1469 3103 1208 2742 
Q 947 2381 947 1747 
z
" transform="scale(0.015625)"/>
      </defs>
      <use xlink:href="#DejaVuSans-4d"/>
      <use xlink:href="#DejaVuSans-61" x="86.279297"/>
      <use xlink:href="#DejaVuSans-67" x="147.558594"/>
      <use xlink:href="#DejaVuSans-6e" x="211.035156"/>
      <use xlink:href="#DejaVuSans-69" x="274.414062"/>
      <use xlink:href="#DejaVuSans-74" x="302.197266"/>
      <use xlink:href="#DejaVuSans-75" x="341.40625"/>
      <use xlink:href="#DejaVuSans-64" x="404.785156"/>
      <use xlink:href="#DejaVuSans-65" x="468.261719"/>
     </g>
    </g>
   </g>
   <g id="line2d_16">
    <path d="M 73.832727 227.893992 
L 74.807666 231.225736 
L 75.457625 233.984165 
L 75.782604 235.54044 
L 76.107584 239.843933 
L 76.432563 241.567934 
L 76.757543 244.630559 
L 77.082523 246.184245 
L 77.407502 248.842974 
L 77.732482 250.175198 
L 78.057461 252.812309 
L 78.382441 257.512887 
L 81.632236 282.149531 
L 82.282195 284.558523 
L 82.932154 286.334464 
L 83.257133 287.932341 
L 83.907093 289.271412 
L 84.232072 289.206646 
L 84.557052 291.00321 
L 85.53199 291.368396 
L 85.85697 291.729877 
L 86.831908 293.343137 
L 87.156888 294.405187 
L 87.806847 294.930354 
L 88.456806 295.307608 
L 89.106765 295.488 
L 90.406683 295.329031 
L 92.031581 294.827066 
L 92.35656 294.590843 
L 93.006519 293.62209 
L 93.331499 292.943941 
L 93.656478 291.316305 
L 94.306437 290.036117 
L 95.606355 286.856909 
L 95.931335 285.014678 
L 96.906274 281.6169 
L 97.556233 278.933861 
L 97.881212 275.866513 
L 99.50611 267.651746 
L 99.831089 264.420136 
L 101.455987 256.250526 
L 101.780966 251.941812 
L 102.430925 248.778024 
L 102.755905 245.97222 
L 103.080885 244.62252 
L 103.405864 240.304302 
L 103.730844 238.961801 
L 104.380803 234.39867 
L 105.680721 226.795271 
L 106.0057 223.20159 
L 107.955577 212.958235 
L 108.280557 209.603486 
L 108.605536 207.91663 
L 108.930516 206.921654 
L 109.255495 204.361254 
L 109.580475 202.731598 
L 109.905455 199.48212 
L 111.530352 190.267155 
L 111.855332 186.464448 
L 113.15525 177.994152 
L 114.455168 168.604743 
L 114.780147 163.648028 
L 115.105127 163.648028 
L 115.430106 160.073433 
L 115.755086 159.386984 
L 116.080066 167.475895 
L 116.405045 172.533969 
L 118.679902 154.196933 
L 122.904636 141.227096 
L 124.204554 138.656359 
L 124.854513 137.636825 
L 125.179492 136.810509 
L 126.154431 135.935342 
L 127.129369 135.546239 
L 127.779328 135.583099 
L 128.754267 136.670522 
L 129.404226 137.787488 
L 129.729206 138.440863 
L 130.054185 139.994622 
L 131.029124 143.012852 
L 132.329042 147.955403 
L 132.654021 149.376957 
L 132.979001 152.327822 
L 133.30398 152.327822 
L 133.62896 155.462765 
L 134.928878 162.893411 
L 135.578837 167.115613 
L 135.903817 171.642167 
L 137.853694 185.640657 
L 138.178673 190.737713 
L 138.503653 192.736179 
L 138.828632 196.344726 
L 139.153612 198.177748 
L 139.478591 201.917839 
L 139.803571 207.332154 
L 140.778509 215.352784 
L 141.753448 221.121437 
L 142.728387 226.890991 
L 143.053366 231.794862 
L 144.678264 245.429913 
L 145.003243 250.330902 
L 146.303161 258.841098 
L 146.95312 262.50614 
L 147.2781 265.655028 
L 148.253038 269.681866 
L 148.578018 270.956196 
L 148.902998 273.166726 
L 150.852875 279.515993 
L 151.827813 282.217803 
L 152.152793 283.69313 
L 153.452711 286.016491 
L 154.10267 286.925277 
L 154.427649 287.260011 
L 154.752629 287.881821 
L 155.402588 288.200418 
L 156.052547 288.20009 
L 156.377527 288.133961 
L 156.702506 287.913397 
L 157.027486 287.347395 
L 157.352465 287.347395 
L 158.002424 286.02309 
L 158.652383 284.823902 
L 158.977363 283.243939 
L 159.952301 280.052284 
L 160.92724 276.112764 
L 161.252219 272.979746 
L 162.552138 265.670559 
L 163.202097 261.430432 
L 163.527076 257.489667 
L 164.502015 251.248682 
L 164.826994 245.186718 
L 165.151974 242.910671 
L 165.476953 238.92002 
L 165.801933 236.893748 
L 166.126912 233.137936 
L 166.451892 231.160191 
L 166.776871 227.538486 
L 167.101851 225.64552 
L 167.42683 219.279076 
L 169.376708 203.213154 
L 169.701687 198.16187 
L 171.976544 180.471884 
L 172.301523 175.614945 
L 173.601441 166.420696 
L 174.2514 164.593224 
L 174.57638 173.156677 
L 174.90136 176.147836 
L 175.876298 168.833526 
L 176.201278 163.948263 
L 177.501196 153.996525 
L 178.151155 152.992626 
L 179.126093 150.85207 
L 179.451073 149.532523 
L 180.426011 147.948313 
L 181.40095 146.801653 
L 182.375889 145.992238 
L 183.025848 145.923994 
L 183.675807 146.069931 
L 184.325766 146.386687 
L 184.650745 146.633073 
L 185.300704 147.687435 
L 186.275643 149.208045 
L 186.600622 150.064321 
L 186.925602 150.579929 
L 187.575561 152.329473 
L 187.900541 154.15792 
L 188.22552 154.15792 
L 188.5505 156.241669 
L 189.200459 158.681208 
L 189.525438 161.345713 
L 191.150336 169.071497 
L 192.125274 174.293356 
L 192.450254 178.353221 
L 193.750172 188.744017 
L 194.400131 194.908314 
L 194.725111 201.264775 
L 196.025029 213.396424 
L 197.324947 223.653472 
L 197.649926 223.653472 
L 197.974906 227.299123 
L 198.949844 233.77971 
L 200.899722 248.586504 
L 201.224701 253.257511 
L 202.524619 261.33855 
L 203.499558 265.980554 
L 204.474496 269.962547 
L 204.799476 272.3226 
L 206.424373 277.721557 
L 207.074333 279.476842 
L 207.399312 280.911114 
L 208.049271 282.17403 
L 209.02421 283.564989 
L 209.674169 284.199507 
L 210.324128 284.555484 
L 210.974087 284.393374 
L 211.624046 283.846033 
L 211.949025 283.552203 
L 212.274005 283.090328 
L 212.598984 282.079331 
L 213.248943 280.983358 
L 213.898903 279.419046 
L 214.873841 276.587523 
L 215.84878 273.19927 
L 216.173759 270.574407 
L 217.473677 264.633606 
L 218.123636 261.185529 
L 218.448616 257.496087 
L 219.423554 251.26453 
L 219.748534 247.197186 
L 220.398493 243.039575 
L 220.723473 236.770194 
L 221.048452 232.746369 
L 221.373432 230.575556 
L 221.698411 226.506996 
L 222.023391 224.300467 
L 222.34837 216.768367 
L 224.298247 197.381284 
L 224.623227 190.843343 
L 226.248124 173.902476 
L 226.573104 182.001518 
L 226.898084 184.707426 
L 228.847961 163.024935 
L 229.17294 156.460403 
L 229.822899 154.582122 
L 231.122817 149.943188 
L 231.447797 147.784705 
L 232.097756 145.839441 
L 232.422735 145.839441 
L 232.747715 144.014587 
L 233.722654 141.642076 
L 234.047633 140.958555 
L 234.372613 139.731696 
L 234.697592 139.731696 
L 235.022572 138.689958 
L 235.99751 137.540134 
L 236.972449 136.680461 
L 237.622408 136.591236 
L 238.272367 136.75672 
L 238.597346 136.934291 
L 240.547224 140.263404 
L 240.872203 141.739653 
L 241.847142 144.43586 
L 243.14706 148.712189 
L 243.472039 151.287252 
L 244.446978 155.677612 
L 245.746896 162.665503 
L 246.071876 166.537768 
L 247.371794 175.108869 
L 248.346732 182.531261 
L 248.671712 188.444325 
L 251.271548 212.989826 
L 251.596527 215.587039 
L 251.921507 220.069208 
L 252.571466 224.06285 
L 253.221425 226.230637 
L 253.871384 228.191464 
L 254.521343 231.03646 
L 254.846323 235.012345 
L 257.771138 256.119556 
L 258.096118 259.585724 
L 258.746077 262.165273 
L 259.396036 263.982172 
L 260.695954 266.807048 
L 261.020934 267.500404 
L 261.345913 268.816031 
L 261.995872 269.788005 
L 262.645831 270.541263 
L 263.29579 270.846794 
L 263.62077 270.902776 
L 264.595708 270.451494 
L 264.920688 270.277247 
L 265.570647 269.58137 
L 266.220606 268.833286 
L 266.870565 267.814401 
L 267.195545 267.200063 
L 267.520524 265.767862 
L 268.495463 263.138821 
L 269.470401 260.010863 
L 269.795381 257.602704 
L 271.095299 251.931214 
L 272.070238 247.188779 
L 272.395217 242.960309 
L 273.370156 238.017276 
L 273.695135 235.025742 
L 274.345094 231.886854 
L 274.670074 229.021953 
L 274.995053 227.546254 
L 275.320033 223.582512 
L 275.645012 221.07335 
L 275.969992 219.662081 
L 276.294971 217.149399 
L 276.619951 215.748695 
L 277.26991 211.388089 
L 277.594889 209.542562 
L 277.919869 205.966164 
L 280.519705 191.492182 
L 280.844685 187.699456 
L 282.144603 179.773048 
L 282.469582 175.870019 
L 283.7695 167.961719 
L 284.09448 166.997151 
L 284.419459 166.380873 
L 284.744439 179.525589 
L 286.044357 169.485002 
L 286.694316 163.528275 
L 287.019296 157.893741 
L 287.669255 152.711681 
L 288.319214 151.110326 
L 288.644193 150.053955 
L 288.969173 147.909214 
L 290.59407 143.033212 
L 290.91905 142.154108 
L 291.244029 140.583564 
L 291.569009 139.862367 
L 291.893989 139.862367 
L 292.218968 138.567848 
L 293.193907 136.870682 
L 293.843866 135.966037 
L 294.168845 135.206961 
L 295.143784 134.370655 
L 295.793743 134.017408 
L 296.443702 133.813452 
L 297.093661 133.89745 
L 297.74362 134.165321 
L 298.393579 134.604782 
L 299.368518 135.624062 
L 299.693497 136.149702 
L 300.018477 137.098008 
L 300.993415 138.854229 
L 301.318395 140.286934 
L 302.618313 143.817889 
L 303.268272 146.031008 
L 303.593251 148.342168 
L 305.543129 156.463092 
L 305.868108 159.53219 
L 307.493006 167.970811 
L 308.467944 173.696928 
L 309.117903 181.367176 
L 309.767862 187.270207 
L 310.092842 192.786709 
L 311.067781 200.258326 
L 311.71774 204.139637 
L 312.042719 207.352527 
L 312.367699 208.859084 
L 312.692678 209.746735 
L 313.342637 212.742998 
L 314.967535 219.25208 
L 315.292514 221.939057 
L 316.267453 225.898412 
L 316.917412 228.353122 
L 317.242391 230.783253 
L 319.192269 235.521501 
L 319.517248 238.286711 
L 320.492187 243.778525 
L 321.792105 252.70429 
L 322.117084 257.595205 
L 323.417002 266.584429 
L 323.741982 268.377031 
L 324.066962 271.441947 
L 325.0419 275.226303 
L 326.016839 278.585407 
L 326.341818 280.429087 
L 326.991777 281.865014 
L 327.966716 283.44032 
L 328.941654 284.064525 
L 329.591613 284.217325 
L 330.241572 284.108756 
L 331.86647 282.503186 
L 333.491368 279.916768 
L 333.816347 278.818334 
L 335.766224 275.251693 
L 336.741163 272.985034 
L 337.066143 272.130732 
L 337.391122 269.421505 
L 338.041081 267.626151 
L 339.01602 264.049799 
L 339.340999 260.144201 
L 339.990958 257.593109 
L 340.315938 256.080397 
L 340.640917 253.306198 
L 341.290876 250.542516 
L 341.615856 248.88497 
L 341.940835 244.59761 
L 342.265815 242.968151 
L 342.590794 240.055533 
L 343.240753 237.05539 
L 344.215692 227.788425 
L 344.540672 226.29499 
L 344.865651 223.431488 
L 345.190631 221.918694 
L 345.51561 219.113227 
L 345.84059 214.915975 
L 346.165569 213.485364 
L 346.490549 213.485364 
L 346.815528 208.570355 
L 347.465487 204.328273 
L 347.790467 202.966493 
L 348.115446 198.25802 
L 348.440426 196.962141 
L 349.090385 192.461205 
L 350.390303 184.421968 
L 350.715283 180.331733 
L 353.315119 164.803448 
L 353.640098 163.982848 
L 354.290057 177.773943 
L 354.940016 173.731013 
L 355.264996 171.354799 
L 355.589975 166.722822 
L 357.214873 154.550587 
L 357.539853 149.808673 
L 358.514791 142.58804 
L 358.839771 140.872121 
L 359.16475 140.566437 
L 359.814709 139.426844 
L 360.464668 137.958941 
L 360.789648 136.586582 
L 362.089566 134.19475 
L 363.389484 131.98004 
L 363.714464 131.98004 
L 364.039443 131.348687 
L 364.689402 130.905429 
L 365.339361 130.669529 
L 365.98932 130.670688 
L 366.639279 130.891167 
L 366.964259 131.073136 
L 368.264177 132.524448 
L 368.589156 133.017955 
L 368.914136 134.157417 
L 369.889075 136.36355 
L 370.539034 138.16232 
L 370.864013 140.187465 
L 371.838952 143.638011 
L 373.13887 148.718363 
L 373.463849 151.464162 
L 375.088747 158.738939 
L 375.413726 161.767133 
L 376.388665 166.506444 
L 376.713645 170.8412 
L 377.688583 177.618295 
L 378.013563 179.308159 
L 378.663522 184.775535 
L 378.988501 186.240754 
L 379.313481 189.578558 
L 379.63846 194.340772 
L 381.263358 206.058398 
L 381.588337 210.674559 
L 385.163112 233.584799 
L 385.488092 234.574643 
L 385.813071 236.482966 
L 386.78801 239.857207 
L 387.762948 243.992083 
L 388.087928 246.625481 
L 389.712826 252.505039 
L 390.362785 254.628055 
L 390.687764 256.601414 
L 391.987682 260.114091 
L 393.2876 263.024813 
L 393.937559 264.418599 
L 394.262539 265.883839 
L 395.562457 268.971384 
L 396.537396 271.317096 
L 396.862375 272.823194 
L 398.487273 276.241545 
L 398.487273 276.241545 
" clip-path="url(#pfd27614307)" style="fill: none; stroke: #1f77b4; stroke-width: 1.5; stroke-linecap: square"/>
   </g>
   <g id="line2d_17">
    <path d="M 73.832727 288.625966 
L 75.457625 288.306655 
L 77.082523 287.810372 
L 77.732482 287.806177 
L 78.057461 287.681891 
L 78.382441 287.206213 
L 79.682359 286.151382 
L 80.982277 284.371696 
L 81.307256 283.595634 
L 82.607174 282.040665 
L 82.932154 281.70997 
L 83.257133 280.902918 
L 83.907093 280.359343 
L 84.232072 280.904067 
L 84.557052 279.67102 
L 85.53199 279.911087 
L 86.181949 279.405907 
L 86.506929 278.878 
L 86.831908 278.639293 
L 87.156888 277.618734 
L 88.781785 276.705767 
L 89.431744 276.643979 
L 90.731663 276.830926 
L 92.35656 277.252964 
L 93.006519 278.044277 
L 93.331499 278.584926 
L 93.656478 279.819768 
L 94.306437 280.298073 
L 94.956396 280.927344 
L 95.281376 281.048923 
L 97.556233 283.266665 
L 97.881212 284.060402 
L 98.856151 284.987505 
L 99.831089 285.589328 
L 101.455987 286.159878 
L 101.780966 286.676285 
L 102.430925 286.861351 
L 102.755905 287.149616 
L 103.080885 287.194294 
L 103.405864 287.415513 
L 104.055823 287.514031 
L 104.705782 287.665806 
L 105.355741 287.673013 
L 106.33068 287.444682 
L 107.630598 286.960219 
L 107.955577 286.797203 
L 108.280557 286.468889 
L 108.605536 286.317794 
L 108.930516 286.033164 
L 109.580475 285.888706 
L 109.905455 285.448348 
L 110.880393 284.916337 
L 111.530352 284.654301 
L 112.180311 284.009487 
L 113.480229 282.985784 
L 114.455168 281.980657 
L 114.780147 281.207954 
L 115.105127 281.207954 
L 115.430106 280.88594 
L 115.755086 281.096117 
L 116.080066 278.17907 
L 116.405045 278.483096 
L 117.379984 278.842561 
L 118.354922 279.388292 
L 118.679902 281.32854 
L 121.929697 283.542772 
L 122.254676 283.989081 
L 123.554595 284.79922 
L 125.829451 286.146418 
L 127.129369 286.60124 
L 128.429287 286.875593 
L 129.404226 287.752831 
L 130.379165 288.300082 
L 131.029124 288.240729 
L 132.004062 287.881102 
L 132.654021 287.465882 
L 132.979001 286.975804 
L 133.30398 286.975804 
L 133.953939 286.101667 
L 134.928878 284.915673 
L 135.578837 284.04968 
L 135.903817 283.126756 
L 137.528714 281.437667 
L 137.853694 281.235691 
L 138.178673 281.316316 
L 138.503653 281.226639 
L 138.828632 281.374896 
L 139.153612 281.384739 
L 139.478591 281.545683 
L 139.803571 281.908336 
L 141.103489 282.592915 
L 141.753448 283.145365 
L 142.728387 283.822754 
L 143.053366 283.941502 
L 143.703325 283.851041 
L 146.628141 283.137454 
L 147.928059 283.138925 
L 148.253038 283.381822 
L 149.227977 283.187584 
L 149.877936 282.925896 
L 150.852875 282.530589 
L 152.152793 282.157205 
L 153.452711 281.586515 
L 153.77769 281.314277 
L 154.427649 281.235128 
L 154.752629 280.939871 
L 155.727568 280.643609 
L 156.702506 280.598575 
L 157.027486 280.791578 
L 157.352465 280.791578 
L 158.002424 281.169313 
L 158.652383 281.357447 
L 159.952301 282.380556 
L 160.92724 282.935364 
L 161.252219 283.36022 
L 162.227158 283.72565 
L 163.202097 284.095113 
L 163.527076 284.622912 
L 164.502015 284.943219 
L 164.826994 285.414013 
L 165.151974 285.502763 
L 165.476953 285.742341 
L 167.75181 285.845805 
L 168.726749 285.654955 
L 169.376708 285.33993 
L 169.701687 284.896791 
L 171.651564 283.634675 
L 171.976544 283.329471 
L 172.301523 282.658935 
L 173.601441 281.026935 
L 174.2514 281.081071 
L 174.57638 277.826088 
L 174.90136 277.992177 
L 175.551319 278.046877 
L 177.501196 278.321402 
L 178.151155 280.009144 
L 179.126093 280.399987 
L 179.451073 280.69267 
L 181.72593 281.429467 
L 182.375889 281.793297 
L 183.675807 282.21858 
L 184.650745 282.613542 
L 185.300704 282.987302 
L 186.275643 283.329475 
L 186.600622 283.730385 
L 186.925602 283.9253 
L 187.900541 285.162612 
L 188.22552 285.162612 
L 188.5505 285.608136 
L 189.200459 285.860384 
L 189.525438 285.896485 
L 191.150336 285.494709 
L 192.450254 285.346999 
L 194.075152 286.00563 
L 194.400131 286.056656 
L 195.05009 286.263891 
L 196.674988 286.451071 
L 196.999967 286.718931 
L 197.324947 286.837734 
L 197.649926 286.837734 
L 197.974906 286.96812 
L 199.924783 286.858323 
L 202.19964 286.654122 
L 202.849599 286.774119 
L 203.824537 287.012025 
L 204.474496 286.928026 
L 205.774414 286.023312 
L 207.074333 285.344111 
L 208.049271 284.628295 
L 209.02421 284.16861 
L 209.349189 283.957136 
L 210.324128 283.870022 
L 211.299066 284.107605 
L 213.898903 285.912194 
L 214.873841 287.068919 
L 215.84878 288.378476 
L 216.173759 289.338423 
L 216.823718 290.166692 
L 218.773595 292.000901 
L 219.423554 292.293365 
L 219.748534 292.821251 
L 220.398493 293.00864 
L 220.723473 293.290203 
L 221.048452 293.413709 
L 222.023391 293.187391 
L 222.34837 292.798761 
L 222.998329 292.381258 
L 224.298247 291.151993 
L 224.623227 290.567475 
L 225.598165 289.40909 
L 225.923145 288.946737 
L 226.248124 288.927314 
L 226.573104 286.142528 
L 226.898084 286.505712 
L 228.198002 286.030583 
L 228.847961 285.776211 
L 229.17294 285.73809 
L 229.822899 287.46927 
L 231.122817 288.032068 
L 231.772776 288.446951 
L 234.047633 289.302095 
L 234.372613 289.508176 
L 234.697592 289.508176 
L 235.347551 289.805285 
L 236.32249 290.115554 
L 236.972449 290.403085 
L 238.922326 290.877044 
L 240.222244 291.835912 
L 240.547224 292.000637 
L 240.872203 292.296479 
L 241.847142 292.463535 
L 242.82208 292.523954 
L 243.14706 292.485189 
L 243.797019 292.197109 
L 244.446978 291.885041 
L 245.421916 291.245616 
L 245.746896 291.081036 
L 246.071876 290.586653 
L 247.696773 289.883086 
L 248.021753 289.769456 
L 248.346732 289.845567 
L 248.671712 290.271284 
L 252.246486 291.47428 
L 252.896446 291.605176 
L 253.871384 291.987763 
L 254.521343 292.024843 
L 255.821261 291.393168 
L 257.771138 290.675283 
L 259.721016 291.041684 
L 260.695954 290.836483 
L 261.020934 290.709414 
L 261.670893 290.141683 
L 261.995872 290.147395 
L 263.62077 289.627173 
L 265.895627 289.757738 
L 266.220606 289.833424 
L 266.545586 289.77676 
L 267.520524 289.90462 
L 270.770319 289.532143 
L 271.745258 289.401544 
L 272.395217 289.375141 
L 273.370156 289.298845 
L 275.969992 288.795667 
L 276.294971 288.653758 
L 276.94493 288.553273 
L 277.594889 288.319149 
L 277.919869 288.038643 
L 280.519705 287.149735 
L 281.169664 286.690178 
L 282.144603 286.066226 
L 282.469582 285.623644 
L 283.444521 284.810704 
L 283.7695 284.448577 
L 284.09448 284.472341 
L 284.419459 284.62744 
L 284.744439 281.92895 
L 286.694316 282.264083 
L 287.669255 282.950178 
L 288.319214 284.753582 
L 288.644193 285.075842 
L 288.969173 285.648608 
L 290.91905 287.303613 
L 291.244029 287.788808 
L 291.569009 288.010578 
L 291.893989 288.010578 
L 292.218968 288.438328 
L 293.518886 289.260642 
L 293.843866 289.440205 
L 294.168845 289.794964 
L 297.093661 291.133823 
L 298.718559 291.532437 
L 299.368518 291.65101 
L 300.668436 292.707296 
L 301.643374 293.062312 
L 302.618313 292.939695 
L 303.268272 292.657757 
L 303.918231 292.103476 
L 304.56819 291.806174 
L 305.543129 291.097641 
L 305.868108 290.668739 
L 307.817985 289.461316 
L 308.467944 289.235444 
L 308.792924 289.318097 
L 309.442883 289.80713 
L 309.767862 289.92518 
L 310.092842 290.163457 
L 312.042719 290.364995 
L 316.267453 290.126864 
L 316.917412 289.994127 
L 317.242391 289.739432 
L 319.192269 289.929958 
L 320.492187 288.980311 
L 321.467125 287.813237 
L 321.792105 287.345113 
L 322.117084 286.268917 
L 323.417002 284.136426 
L 323.741982 283.761984 
L 324.066962 283.103209 
L 326.016839 280.858516 
L 326.341818 280.240094 
L 326.991777 279.698087 
L 327.966716 278.883318 
L 329.266634 278.289327 
L 330.566552 278.169086 
L 330.891532 278.27283 
L 331.216511 278.239932 
L 331.541491 278.397256 
L 331.86647 278.28709 
L 332.841409 278.607309 
L 333.166388 278.667358 
L 333.816347 278.943121 
L 334.466306 279.160045 
L 334.791286 278.969305 
L 337.066143 278.945167 
L 337.391122 279.204236 
L 338.041081 279.220232 
L 339.01602 279.483887 
L 339.340999 280.029281 
L 340.315938 280.314448 
L 340.640917 280.687067 
L 341.615856 280.960936 
L 341.940835 281.35879 
L 342.265815 281.434613 
L 342.590794 281.685406 
L 343.240753 281.849029 
L 344.540672 282.418604 
L 346.490549 282.65269 
L 347.140508 282.583374 
L 347.790467 282.609063 
L 348.115446 282.458144 
L 348.440426 282.510607 
L 350.390303 281.946164 
L 350.715283 281.626483 
L 352.990139 280.436044 
L 353.315119 280.190669 
L 353.640098 280.300383 
L 353.965078 276.92871 
L 354.290057 276.695181 
L 354.940016 276.836191 
L 355.264996 276.975193 
L 355.589975 277.470987 
L 358.514791 279.695071 
L 358.839771 280.292403 
L 359.48973 282.260934 
L 360.464668 283.132013 
L 360.789648 283.69016 
L 362.414545 285.004285 
L 363.064505 285.466414 
L 363.389484 285.88075 
L 363.714464 285.88075 
L 364.039443 286.287532 
L 365.339361 286.980945 
L 366.964259 287.781971 
L 367.289238 288.164427 
L 367.614218 288.247754 
L 368.914136 289.54164 
L 369.564095 289.761075 
L 370.539034 289.779708 
L 372.163931 289.077537 
L 373.13887 288.518717 
L 373.463849 288.080278 
L 375.088747 287.123027 
L 375.413726 286.751791 
L 376.713645 286.422042 
L 377.038624 286.579392 
L 377.363604 286.600199 
L 377.688583 286.869964 
L 378.013563 286.857876 
L 378.663522 287.249649 
L 379.313481 287.454562 
L 379.63846 287.723065 
L 381.588337 288.186645 
L 383.538215 288.707852 
L 383.863194 289.005114 
L 384.188174 288.814626 
L 384.513153 288.777222 
L 385.163112 289.0652 
L 385.488092 289.284899 
L 385.813071 289.692776 
L 386.46303 289.935614 
L 387.437969 290.096801 
L 388.087928 290.161021 
L 390.037805 290.573586 
L 391.337723 291.076716 
L 393.937559 292.141791 
L 394.587518 292.273571 
L 396.537396 292.081265 
L 397.187355 291.892137 
L 398.487273 291.493571 
L 398.487273 291.493571 
" clip-path="url(#pfd27614307)" style="fill: none; stroke: #ff7f0e; stroke-width: 1.5; stroke-linecap: square"/>
   </g>
   <g id="line2d_18">
    <path d="M 73.832727 78.336323 
L 74.807666 80.034516 
L 75.782604 82.427388 
L 76.107584 85.274694 
L 76.432563 86.353542 
L 76.757543 88.717871 
L 77.082523 89.883547 
L 77.407502 92.226651 
L 77.732482 93.403791 
L 78.057461 95.752836 
L 78.382441 99.971264 
L 79.357379 107.972274 
L 80.982277 123.479213 
L 81.307256 129.626241 
L 81.957215 134.59883 
L 84.882031 151.931787 
L 85.85697 155.046665 
L 86.506929 158.65825 
L 86.831908 159.544573 
L 87.481867 162.190142 
L 88.131826 162.944948 
L 88.781785 163.255252 
L 89.106765 163.304357 
L 89.756724 163.135676 
L 90.731663 162.570084 
L 91.381622 161.634161 
L 92.031581 160.599678 
L 92.35656 159.922969 
L 93.006519 157.772751 
L 93.331499 156.392586 
L 93.981458 151.224138 
L 95.606355 140.754747 
L 95.931335 136.392838 
L 97.556233 125.170943 
L 97.881212 120.760465 
L 99.50611 109.725647 
L 99.831089 105.743271 
L 101.455987 97.074915 
L 101.780966 93.498602 
L 102.430925 90.852903 
L 102.755905 88.834203 
L 103.080885 87.790847 
L 103.405864 84.767538 
L 103.730844 83.816687 
L 104.380803 80.991092 
L 105.680721 76.579119 
L 106.0057 74.65692 
L 107.630598 70.330186 
L 107.955577 69.521649 
L 108.280557 68.01884 
L 109.580475 65.422213 
L 109.905455 64.199033 
L 110.880393 62.591791 
L 111.530352 61.756681 
L 111.855332 60.910819 
L 113.15525 59.412725 
L 114.780147 58.00044 
L 115.430106 58.10207 
L 115.755086 58.382219 
L 116.080066 55.014802 
L 116.730025 55.243407 
L 117.379984 55.829776 
L 118.354922 57.370755 
L 118.679902 59.400363 
L 120.629779 61.881161 
L 121.929697 63.702168 
L 122.254676 64.610951 
L 123.554595 66.307152 
L 125.504472 68.718961 
L 126.47941 69.380194 
L 127.454349 69.782103 
L 128.104308 69.816058 
L 128.429287 69.74368 
L 129.404226 70.102498 
L 129.729206 70.105964 
L 130.379165 69.635661 
L 131.029124 68.921831 
L 132.004062 67.531806 
L 132.654021 66.406357 
L 132.979001 65.252826 
L 133.30398 65.252826 
L 133.62896 64.153315 
L 136.228796 58.903189 
L 136.878755 58.249386 
L 137.528714 57.995106 
L 137.853694 58.005203 
L 138.178673 58.667266 
L 138.503653 58.877502 
L 138.828632 59.632521 
L 139.153612 60.000618 
L 139.478591 60.978839 
L 139.803571 62.755239 
L 142.078428 70.056716 
L 142.728387 72.417224 
L 143.053366 75.197535 
L 144.353284 82.020307 
L 144.678264 83.921184 
L 145.003243 87.738277 
L 146.95312 99.62991 
L 147.2781 103.476143 
L 148.578018 111.151935 
L 148.902998 114.589387 
L 150.852875 124.793414 
L 151.827813 130.409362 
L 152.152793 133.720748 
L 153.452711 138.776684 
L 154.10267 140.638959 
L 154.752629 142.91775 
L 155.077609 143.193198 
L 155.402588 143.275927 
L 155.727568 143.237161 
L 156.052547 143.058193 
L 156.702506 141.909261 
L 157.027486 140.61242 
L 157.352465 140.61242 
L 157.677445 138.765159 
L 158.327404 136.156897 
L 158.652383 134.663778 
L 158.977363 131.23247 
L 160.277281 123.490144 
L 160.92724 118.985437 
L 161.252219 114.39394 
L 163.202097 99.796023 
L 163.527076 96.200648 
L 164.502015 90.528634 
L 164.826994 85.98115 
L 165.151974 84.33051 
L 165.476953 81.741391 
L 165.801933 80.408047 
L 166.126912 78.197269 
L 166.451892 77.028953 
L 166.776871 75.070297 
L 167.101851 74.05738 
L 167.42683 71.024218 
L 168.726749 66.818227 
L 169.376708 64.990889 
L 169.701687 63.363877 
L 170.676626 61.539245 
L 172.951482 58.104241 
L 173.601441 57.605386 
L 174.2514 57.79889 
L 174.57638 54.501047 
L 174.90136 54.641082 
L 175.226339 54.621624 
L 175.876298 54.876687 
L 177.501196 56.728082 
L 178.151155 58.414033 
L 179.126093 59.190945 
L 179.451073 59.74065 
L 181.075971 60.758255 
L 183.025848 61.808115 
L 184.975725 62.311886 
L 186.275643 62.299732 
L 186.925602 62.57367 
L 187.900541 63.071779 
L 189.200459 63.021226 
L 190.175397 62.219525 
L 191.475315 61.539928 
L 192.125274 61.351668 
L 192.450254 61.425384 
L 193.425192 62.233376 
L 194.075152 63.313021 
L 194.400131 63.881832 
L 194.725111 65.395914 
L 195.700049 68.107322 
L 196.674988 71.236041 
L 196.999967 73.167744 
L 197.324947 74.090471 
L 197.649926 74.090471 
L 197.974906 76.092676 
L 198.624865 78.466619 
L 199.599803 82.948884 
L 200.574742 88.483498 
L 200.899722 90.552405 
L 201.224701 94.839646 
L 204.474496 116.10873 
L 204.799476 119.618405 
L 207.074333 131.281415 
L 207.399312 134.205875 
L 208.69923 138.356989 
L 209.674169 140.178796 
L 210.324128 141.224586 
L 210.649107 141.204707 
L 211.299066 140.759949 
L 211.624046 140.384706 
L 212.274005 139.076393 
L 212.923964 136.201925 
L 215.84878 124.904922 
L 216.173759 122.068294 
L 217.148698 117.10533 
L 218.123636 111.306018 
L 218.448616 107.337151 
L 219.423554 101.149485 
L 219.748534 97.948376 
L 220.398493 94.504858 
L 220.723473 89.959098 
L 221.048452 87.325252 
L 221.373432 85.843457 
L 221.698411 83.327004 
L 222.023391 81.98697 
L 222.34837 77.865992 
L 223.323309 73.33751 
L 224.948206 67.092335 
L 225.923145 65.025065 
L 226.248124 64.977546 
L 226.573104 62.383148 
L 226.898084 62.952308 
L 227.548043 62.316407 
L 227.873022 62.161082 
L 228.522981 62.185985 
L 228.847961 62.398914 
L 229.49792 64.320537 
L 229.822899 65.321209 
L 231.122817 66.866628 
L 231.447797 67.676148 
L 232.097756 68.456009 
L 232.422735 68.456009 
L 232.747715 69.23968 
L 234.372613 71.351388 
L 234.697592 71.351388 
L 235.022572 71.948729 
L 236.32249 72.913192 
L 236.647469 73.289874 
L 237.622408 73.667997 
L 238.597346 73.761585 
L 238.922326 73.683933 
L 239.897265 74.005124 
L 240.547224 74.002839 
L 241.522162 73.443376 
L 242.82208 72.39071 
L 243.14706 72.048818 
L 243.472039 71.222769 
L 244.446978 69.8561 
L 245.421916 68.337423 
L 245.746896 67.940884 
L 246.071876 67.039387 
L 247.046814 66.193105 
L 247.696773 66.008558 
L 248.021753 65.97222 
L 248.346732 66.215653 
L 248.671712 67.257697 
L 249.321671 68.498757 
L 250.296609 71.24774 
L 251.596527 75.492285 
L 251.921507 77.703258 
L 252.571466 79.760293 
L 254.521343 84.383236 
L 254.846323 86.747875 
L 255.821261 91.546367 
L 257.446159 101.681448 
L 257.771138 103.83943 
L 258.096118 108.15029 
L 258.746077 111.937145 
L 259.721016 115.883961 
L 261.670893 121.662917 
L 262.320852 122.933089 
L 262.970811 123.292494 
L 263.62077 123.309874 
L 264.595708 122.682808 
L 264.920688 122.230448 
L 265.245667 121.554959 
L 265.570647 121.200713 
L 266.220606 120.047982 
L 267.195545 117.391855 
L 267.520524 115.224511 
L 269.145422 108.32516 
L 269.470401 106.818164 
L 269.795381 103.811364 
L 272.070238 92.852866 
L 272.395217 89.332064 
L 273.370156 85.51129 
L 273.695135 83.390496 
L 274.345094 81.309628 
L 274.670074 79.522817 
L 274.995053 78.647452 
L 275.320033 76.450172 
L 275.645012 75.120194 
L 275.969992 74.430355 
L 276.294971 73.183602 
L 276.619951 72.602596 
L 277.26991 70.758569 
L 277.594889 69.96944 
L 277.919869 68.549042 
L 279.544767 65.677771 
L 281.819623 62.499566 
L 282.144603 62.186057 
L 282.469582 61.644175 
L 283.7695 60.70083 
L 284.419459 60.978434 
L 284.744439 58.22968 
L 285.394398 58.153661 
L 286.369337 58.690897 
L 286.694316 58.983749 
L 287.019296 59.876128 
L 287.344275 60.413816 
L 287.994234 62.219317 
L 288.319214 63.271933 
L 288.644193 63.820771 
L 288.969173 64.895288 
L 290.91905 68.184677 
L 291.244029 69.195037 
L 291.569009 69.669711 
L 291.893989 69.669711 
L 292.218968 70.573285 
L 293.518886 72.265645 
L 293.843866 72.627788 
L 294.168845 73.320293 
L 295.468763 74.422661 
L 297.093661 75.387712 
L 298.0686 75.516206 
L 299.043538 75.364671 
L 299.368518 75.299896 
L 299.693497 75.440948 
L 300.993415 75.516186 
L 302.618313 73.945938 
L 303.268272 72.96568 
L 303.593251 71.985963 
L 304.24321 70.990929 
L 305.543129 68.844767 
L 305.868108 67.893181 
L 306.843047 66.594506 
L 308.142965 65.404201 
L 308.467944 65.300685 
L 308.792924 65.429009 
L 309.767862 66.744443 
L 310.092842 67.783958 
L 311.71774 70.491719 
L 312.042719 71.513904 
L 314.642555 75.405523 
L 314.967535 75.994815 
L 315.292514 77.148444 
L 316.917412 80.234736 
L 317.242391 81.340291 
L 319.192269 84.593936 
L 319.517248 86.217803 
L 320.492187 89.460512 
L 321.467125 93.643863 
L 321.792105 95.167638 
L 322.117084 98.670188 
L 323.741982 108.128524 
L 324.066962 111.517605 
L 325.691859 118.348642 
L 326.016839 119.547029 
L 326.341818 121.910845 
L 326.991777 123.755058 
L 327.641736 124.775337 
L 327.966716 125.445885 
L 328.616675 125.737239 
L 329.266634 125.823375 
L 329.916593 125.726973 
L 330.241572 125.543037 
L 330.566552 124.745773 
L 330.891532 124.358354 
L 331.541491 123.138247 
L 332.516429 120.63666 
L 333.491368 118.245359 
L 333.816347 116.425796 
L 335.441245 111.62185 
L 337.066143 105.841468 
L 337.391122 102.537738 
L 338.366061 98.995123 
L 339.01602 96.364573 
L 339.340999 92.823397 
L 340.315938 89.138454 
L 340.640917 87.034262 
L 341.290876 84.841629 
L 341.615856 83.585418 
L 341.940835 80.709699 
L 342.265815 79.606125 
L 342.590794 77.860113 
L 343.240753 76.081607 
L 344.215692 71.349373 
L 344.540672 70.64383 
L 344.865651 69.332571 
L 345.190631 68.689545 
L 345.51561 67.534018 
L 345.84059 65.960701 
L 346.165569 65.461482 
L 346.490549 65.461482 
L 346.815528 63.781961 
L 347.465487 62.578208 
L 347.790467 62.244201 
L 348.115446 61.02404 
L 348.440426 60.813456 
L 349.090385 59.844606 
L 350.065324 58.850171 
L 350.390303 58.549337 
L 350.715283 57.987909 
L 351.690221 57.449239 
L 352.34018 57.180345 
L 353.315119 56.977619 
L 353.640098 57.148162 
L 353.965078 53.768624 
L 354.290057 53.568 
L 354.940016 53.653402 
L 355.264996 53.814092 
L 355.914955 54.864102 
L 356.239934 55.203744 
L 357.214873 56.889822 
L 357.539853 58.210499 
L 358.514791 60.561487 
L 359.48973 63.724763 
L 360.464668 65.2664 
L 360.789648 66.294953 
L 362.089566 68.258557 
L 363.064505 69.552128 
L 363.389484 70.310525 
L 363.714464 70.310525 
L 364.039443 71.006961 
L 365.014382 71.833318 
L 366.3143 72.622492 
L 366.964259 72.754706 
L 367.289238 73.039798 
L 367.614218 73.026571 
L 368.589156 73.472205 
L 369.239115 73.321487 
L 369.889075 72.872308 
L 370.539034 72.199994 
L 370.864013 71.36509 
L 371.513972 70.353191 
L 373.13887 67.670344 
L 373.463849 66.578596 
L 375.738706 63.23533 
L 376.713645 62.494973 
L 377.363604 62.604269 
L 377.688583 62.910591 
L 378.013563 62.954483 
L 378.663522 63.707047 
L 378.988501 63.930038 
L 379.313481 64.454641 
L 379.63846 65.477011 
L 380.613399 67.151135 
L 381.263358 68.577778 
L 381.588337 70.208136 
L 382.888256 73.794252 
L 383.538215 75.965937 
L 383.863194 77.901031 
L 385.488092 83.150466 
L 385.813071 84.945112 
L 387.112989 88.889538 
L 387.762948 91.14448 
L 388.087928 93.496915 
L 390.362785 102.156849 
L 390.687764 104.628173 
L 393.61258 116.334832 
L 393.937559 117.593672 
L 394.262539 120.14467 
L 395.562457 125.686833 
L 396.537396 130.068464 
L 396.862375 133.098247 
L 398.487273 140.709314 
L 398.487273 140.709314 
" clip-path="url(#pfd27614307)" style="fill: none; stroke: #2ca02c; stroke-width: 1.5; stroke-linecap: square"/>
   </g>
   <g id="patch_3">
    <path d="M 57.6 307.584 
L 57.6 41.472 
" style="fill: none; stroke: #000000; stroke-width: 0.8; stroke-linejoin: miter; stroke-linecap: square"/>
   </g>
   <g id="patch_4">
    <path d="M 414.72 307.584 
L 414.72 41.472 
" style="fill: none; stroke: #000000; stroke-width: 0.8; stroke-linejoin: miter; stroke-linecap: square"/>
   </g>
   <g id="patch_5">
    <path d="M 57.6 307.584 
L 414.72 307.584 
" style="fill: none; stroke: #000000; stroke-width: 0.8; stroke-linejoin: miter; stroke-linecap: square"/>
   </g>
   <g id="patch_6">
    <path d="M 57.6 41.472 
L 414.72 41.472 
" style="fill: none; stroke: #000000; stroke-width: 0.8; stroke-linejoin: miter; stroke-linecap: square"/>
   </g>
   <g id="text_18">
    <!-- Change in rotation components for moving the head up and down starting from down -->
    <g transform="translate(-86.013047 35.472)scale(0.15 -0.15)">
     <defs>
      <path id="DejaVuSans-43" d="M 4122 4306 
L 4122 3641 
Q 3803 3938 3442 4084 
Q 3081 4231 2675 4231 
Q 1875 4231 1450 3742 
Q 1025 3253 1025 2328 
Q 1025 1406 1450 917 
Q 1875 428 2675 428 
Q 3081 428 3442 575 
Q 3803 722 4122 1019 
L 4122 359 
Q 3791 134 3420 21 
Q 3050 -91 2638 -91 
Q 1578 -91 968 557 
Q 359 1206 359 2328 
Q 359 3453 968 4101 
Q 1578 4750 2638 4750 
Q 3056 4750 3426 4639 
Q 3797 4528 4122 4306 
z
" transform="scale(0.015625)"/>
      <path id="DejaVuSans-68" d="M 3513 2113 
L 3513 0 
L 2938 0 
L 2938 2094 
Q 2938 2591 2744 2837 
Q 2550 3084 2163 3084 
Q 1697 3084 1428 2787 
Q 1159 2491 1159 1978 
L 1159 0 
L 581 0 
L 581 4863 
L 1159 4863 
L 1159 2956 
Q 1366 3272 1645 3428 
Q 1925 3584 2291 3584 
Q 2894 3584 3203 3211 
Q 3513 2838 3513 2113 
z
" transform="scale(0.015625)"/>
      <path id="DejaVuSans-20" transform="scale(0.015625)"/>
      <path id="DejaVuSans-72" d="M 2631 2963 
Q 2534 3019 2420 3045 
Q 2306 3072 2169 3072 
Q 1681 3072 1420 2755 
Q 1159 2438 1159 1844 
L 1159 0 
L 581 0 
L 581 3500 
L 1159 3500 
L 1159 2956 
Q 1341 3275 1631 3429 
Q 1922 3584 2338 3584 
Q 2397 3584 2469 3576 
Q 2541 3569 2628 3553 
L 2631 2963 
z
" transform="scale(0.015625)"/>
      <path id="DejaVuSans-6f" d="M 1959 3097 
Q 1497 3097 1228 2736 
Q 959 2375 959 1747 
Q 959 1119 1226 758 
Q 1494 397 1959 397 
Q 2419 397 2687 759 
Q 2956 1122 2956 1747 
Q 2956 2369 2687 2733 
Q 2419 3097 1959 3097 
z
M 1959 3584 
Q 2709 3584 3137 3096 
Q 3566 2609 3566 1747 
Q 3566 888 3137 398 
Q 2709 -91 1959 -91 
Q 1206 -91 779 398 
Q 353 888 353 1747 
Q 353 2609 779 3096 
Q 1206 3584 1959 3584 
z
" transform="scale(0.015625)"/>
      <path id="DejaVuSans-63" d="M 3122 3366 
L 3122 2828 
Q 2878 2963 2633 3030 
Q 2388 3097 2138 3097 
Q 1578 3097 1268 2742 
Q 959 2388 959 1747 
Q 959 1106 1268 751 
Q 1578 397 2138 397 
Q 2388 397 2633 464 
Q 2878 531 3122 666 
L 3122 134 
Q 2881 22 2623 -34 
Q 2366 -91 2075 -91 
Q 1284 -91 818 406 
Q 353 903 353 1747 
Q 353 2603 823 3093 
Q 1294 3584 2113 3584 
Q 2378 3584 2631 3529 
Q 2884 3475 3122 3366 
z
" transform="scale(0.015625)"/>
      <path id="DejaVuSans-66" d="M 2375 4863 
L 2375 4384 
L 1825 4384 
Q 1516 4384 1395 4259 
Q 1275 4134 1275 3809 
L 1275 3500 
L 2222 3500 
L 2222 3053 
L 1275 3053 
L 1275 0 
L 697 0 
L 697 3053 
L 147 3053 
L 147 3500 
L 697 3500 
L 697 3744 
Q 697 4328 969 4595 
Q 1241 4863 1831 4863 
L 2375 4863 
z
" transform="scale(0.015625)"/>
      <path id="DejaVuSans-76" d="M 191 3500 
L 800 3500 
L 1894 563 
L 2988 3500 
L 3597 3500 
L 2284 0 
L 1503 0 
L 191 3500 
z
" transform="scale(0.015625)"/>
      <path id="DejaVuSans-77" d="M 269 3500 
L 844 3500 
L 1563 769 
L 2278 3500 
L 2956 3500 
L 3675 769 
L 4391 3500 
L 4966 3500 
L 4050 0 
L 3372 0 
L 2619 2869 
L 1863 0 
L 1184 0 
L 269 3500 
z
" transform="scale(0.015625)"/>
     </defs>
     <use xlink:href="#DejaVuSans-43"/>
     <use xlink:href="#DejaVuSans-68" x="69.824219"/>
     <use xlink:href="#DejaVuSans-61" x="133.203125"/>
     <use xlink:href="#DejaVuSans-6e" x="194.482422"/>
     <use xlink:href="#DejaVuSans-67" x="257.861328"/>
     <use xlink:href="#DejaVuSans-65" x="321.337891"/>
     <use xlink:href="#DejaVuSans-20" x="382.861328"/>
     <use xlink:href="#DejaVuSans-69" x="414.648438"/>
     <use xlink:href="#DejaVuSans-6e" x="442.431641"/>
     <use xlink:href="#DejaVuSans-20" x="505.810547"/>
     <use xlink:href="#DejaVuSans-72" x="537.597656"/>
     <use xlink:href="#DejaVuSans-6f" x="576.460938"/>
     <use xlink:href="#DejaVuSans-74" x="637.642578"/>
     <use xlink:href="#DejaVuSans-61" x="676.851562"/>
     <use xlink:href="#DejaVuSans-74" x="738.130859"/>
     <use xlink:href="#DejaVuSans-69" x="777.339844"/>
     <use xlink:href="#DejaVuSans-6f" x="805.123047"/>
     <use xlink:href="#DejaVuSans-6e" x="866.304688"/>
     <use xlink:href="#DejaVuSans-20" x="929.683594"/>
     <use xlink:href="#DejaVuSans-63" x="961.470703"/>
     <use xlink:href="#DejaVuSans-6f" x="1016.451172"/>
     <use xlink:href="#DejaVuSans-6d" x="1077.632812"/>
     <use xlink:href="#DejaVuSans-70" x="1175.044922"/>
     <use xlink:href="#DejaVuSans-6f" x="1238.521484"/>
     <use xlink:href="#DejaVuSans-6e" x="1299.703125"/>
     <use xlink:href="#DejaVuSans-65" x="1363.082031"/>
     <use xlink:href="#DejaVuSans-6e" x="1424.605469"/>
     <use xlink:href="#DejaVuSans-74" x="1487.984375"/>
     <use xlink:href="#DejaVuSans-73" x="1527.193359"/>
     <use xlink:href="#DejaVuSans-20" x="1579.292969"/>
     <use xlink:href="#DejaVuSans-66" x="1611.080078"/>
     <use xlink:href="#DejaVuSans-6f" x="1646.285156"/>
     <use xlink:href="#DejaVuSans-72" x="1707.466797"/>
     <use xlink:href="#DejaVuSans-20" x="1748.580078"/>
     <use xlink:href="#DejaVuSans-6d" x="1780.367188"/>
     <use xlink:href="#DejaVuSans-6f" x="1877.779297"/>
     <use xlink:href="#DejaVuSans-76" x="1938.960938"/>
     <use xlink:href="#DejaVuSans-69" x="1998.140625"/>
     <use xlink:href="#DejaVuSans-6e" x="2025.923828"/>
     <use xlink:href="#DejaVuSans-67" x="2089.302734"/>
     <use xlink:href="#DejaVuSans-20" x="2152.779297"/>
     <use xlink:href="#DejaVuSans-74" x="2184.566406"/>
     <use xlink:href="#DejaVuSans-68" x="2223.775391"/>
     <use xlink:href="#DejaVuSans-65" x="2287.154297"/>
     <use xlink:href="#DejaVuSans-20" x="2348.677734"/>
     <use xlink:href="#DejaVuSans-68" x="2380.464844"/>
     <use xlink:href="#DejaVuSans-65" x="2443.84375"/>
     <use xlink:href="#DejaVuSans-61" x="2505.367188"/>
     <use xlink:href="#DejaVuSans-64" x="2566.646484"/>
     <use xlink:href="#DejaVuSans-20" x="2630.123047"/>
     <use xlink:href="#DejaVuSans-75" x="2661.910156"/>
     <use xlink:href="#DejaVuSans-70" x="2725.289062"/>
     <use xlink:href="#DejaVuSans-20" x="2788.765625"/>
     <use xlink:href="#DejaVuSans-61" x="2820.552734"/>
     <use xlink:href="#DejaVuSans-6e" x="2881.832031"/>
     <use xlink:href="#DejaVuSans-64" x="2945.210938"/>
     <use xlink:href="#DejaVuSans-20" x="3008.6875"/>
     <use xlink:href="#DejaVuSans-64" x="3040.474609"/>
     <use xlink:href="#DejaVuSans-6f" x="3103.951172"/>
     <use xlink:href="#DejaVuSans-77" x="3165.132812"/>
     <use xlink:href="#DejaVuSans-6e" x="3246.919922"/>
     <use xlink:href="#DejaVuSans-20" x="3310.298828"/>
     <use xlink:href="#DejaVuSans-73" x="3342.085938"/>
     <use xlink:href="#DejaVuSans-74" x="3394.185547"/>
     <use xlink:href="#DejaVuSans-61" x="3433.394531"/>
     <use xlink:href="#DejaVuSans-72" x="3494.673828"/>
     <use xlink:href="#DejaVuSans-74" x="3535.787109"/>
     <use xlink:href="#DejaVuSans-69" x="3574.996094"/>
     <use xlink:href="#DejaVuSans-6e" x="3602.779297"/>
     <use xlink:href="#DejaVuSans-67" x="3666.158203"/>
     <use xlink:href="#DejaVuSans-20" x="3729.634766"/>
     <use xlink:href="#DejaVuSans-66" x="3761.421875"/>
     <use xlink:href="#DejaVuSans-72" x="3796.626953"/>
     <use xlink:href="#DejaVuSans-6f" x="3835.490234"/>
     <use xlink:href="#DejaVuSans-6d" x="3896.671875"/>
     <use xlink:href="#DejaVuSans-20" x="3994.083984"/>
     <use xlink:href="#DejaVuSans-64" x="4025.871094"/>
     <use xlink:href="#DejaVuSans-6f" x="4089.347656"/>
     <use xlink:href="#DejaVuSans-77" x="4150.529297"/>
     <use xlink:href="#DejaVuSans-6e" x="4232.316406"/>
    </g>
   </g>
   <g id="legend_1">
    <g id="patch_7">
     <path d="M 207.867031 198.045187 
L 264.452969 198.045187 
Q 266.452969 198.045187 266.452969 196.045187 
L 266.452969 153.010812 
Q 266.452969 151.010812 264.452969 151.010812 
L 207.867031 151.010812 
Q 205.867031 151.010812 205.867031 153.010812 
L 205.867031 196.045187 
Q 205.867031 198.045187 207.867031 198.045187 
z
" style="fill: #ffffff; opacity: 0.8; stroke: #cccccc; stroke-linejoin: miter"/>
    </g>
    <g id="line2d_19">
     <path d="M 209.867031 159.10925 
L 219.867031 159.10925 
L 229.867031 159.10925 
" style="fill: none; stroke: #1f77b4; stroke-width: 1.5; stroke-linecap: square"/>
    </g>
    <g id="text_19">
     <!-- idx 0 -->
     <g transform="translate(237.867031 162.60925)scale(0.1 -0.1)">
      <defs>
       <path id="DejaVuSans-78" d="M 3513 3500 
L 2247 1797 
L 3578 0 
L 2900 0 
L 1881 1375 
L 863 0 
L 184 0 
L 1544 1831 
L 300 3500 
L 978 3500 
L 1906 2253 
L 2834 3500 
L 3513 3500 
z
" transform="scale(0.015625)"/>
      </defs>
      <use xlink:href="#DejaVuSans-69"/>
      <use xlink:href="#DejaVuSans-64" x="27.783203"/>
      <use xlink:href="#DejaVuSans-78" x="91.259766"/>
      <use xlink:href="#DejaVuSans-20" x="150.439453"/>
      <use xlink:href="#DejaVuSans-30" x="182.226562"/>
     </g>
    </g>
    <g id="line2d_20">
     <path d="M 209.867031 173.787375 
L 219.867031 173.787375 
L 229.867031 173.787375 
" style="fill: none; stroke: #ff7f0e; stroke-width: 1.5; stroke-linecap: square"/>
    </g>
    <g id="text_20">
     <!-- idx 1 -->
     <g transform="translate(237.867031 177.287375)scale(0.1 -0.1)">
      <use xlink:href="#DejaVuSans-69"/>
      <use xlink:href="#DejaVuSans-64" x="27.783203"/>
      <use xlink:href="#DejaVuSans-78" x="91.259766"/>
      <use xlink:href="#DejaVuSans-20" x="150.439453"/>
      <use xlink:href="#DejaVuSans-31" x="182.226562"/>
     </g>
    </g>
    <g id="line2d_21">
     <path d="M 209.867031 188.4655 
L 219.867031 188.4655 
L 229.867031 188.4655 
" style="fill: none; stroke: #2ca02c; stroke-width: 1.5; stroke-linecap: square"/>
    </g>
    <g id="text_21">
     <!-- idx 2 -->
     <g transform="translate(237.867031 191.9655)scale(0.1 -0.1)">
      <use xlink:href="#DejaVuSans-69"/>
      <use xlink:href="#DejaVuSans-64" x="27.783203"/>
      <use xlink:href="#DejaVuSans-78" x="91.259766"/>
      <use xlink:href="#DejaVuSans-20" x="150.439453"/>
      <use xlink:href="#DejaVuSans-32" x="182.226562"/>
     </g>
    </g>
   </g>
  </g>
 </g>
 <defs>
  <clipPath id="pfd27614307">
   <rect x="57.6" y="41.472" width="357.12" height="266.112"/>
  </clipPath>
 </defs>
</svg>
