<?xml version="1.0" encoding="utf-8" standalone="no"?>
<!DOCTYPE svg PUBLIC "-//W3C//DTD SVG 1.1//EN"
  "http://www.w3.org/Graphics/SVG/1.1/DTD/svg11.dtd">
<svg xmlns:xlink="http://www.w3.org/1999/xlink" width="460.8pt" height="345.6pt" viewBox="0 0 460.8 345.6" xmlns="http://www.w3.org/2000/svg" version="1.1">
 <metadata>
  <rdf:RDF xmlns:dc="http://purl.org/dc/elements/1.1/" xmlns:cc="http://creativecommons.org/ns#" xmlns:rdf="http://www.w3.org/1999/02/22-rdf-syntax-ns#">
   <cc:Work>
    <dc:type rdf:resource="http://purl.org/dc/dcmitype/StillImage"/>
    <dc:date>2024-01-30T14:09:09.945409</dc:date>
    <dc:format>image/svg+xml</dc:format>
    <dc:creator>
     <cc:Agent>
      <dc:title>Matplotlib v3.5.0, https://matplotlib.org/</dc:title>
     </cc:Agent>
    </dc:creator>
   </cc:Work>
  </rdf:RDF>
 </metadata>
 <defs>
  <style type="text/css">*{stroke-linejoin: round; stroke-linecap: butt}</style>
 </defs>
 <g id="figure_1">
  <g id="patch_1">
   <path d="M 0 345.6 
L 460.8 345.6 
L 460.8 0 
L 0 0 
z
" style="fill: #ffffff"/>
  </g>
  <g id="axes_1">
   <g id="patch_2">
    <path d="M 57.6 307.584 
L 414.72 307.584 
L 414.72 41.472 
L 57.6 41.472 
z
" style="fill: #ffffff"/>
   </g>
   <g id="matplotlib.axis_1">
    <g id="xtick_1">
     <g id="line2d_1">
      <defs>
       <path id="m83a3c9c45c" d="M 0 0 
L 0 3.5 
" style="stroke: #000000; stroke-width: 0.8"/>
      </defs>
      <g>
       <use xlink:href="#m83a3c9c45c" x="73.832727" y="307.584" style="stroke: #000000; stroke-width: 0.8"/>
      </g>
     </g>
     <g id="text_1">
      <!-- 0 -->
      <g transform="translate(70.651477 322.182437)scale(0.1 -0.1)">
       <defs>
        <path id="DejaVuSans-30" d="M 2034 4250 
Q 1547 4250 1301 3770 
Q 1056 3291 1056 2328 
Q 1056 1369 1301 889 
Q 1547 409 2034 409 
Q 2525 409 2770 889 
Q 3016 1369 3016 2328 
Q 3016 3291 2770 3770 
Q 2525 4250 2034 4250 
z
M 2034 4750 
Q 2819 4750 3233 4129 
Q 3647 3509 3647 2328 
Q 3647 1150 3233 529 
Q 2819 -91 2034 -91 
Q 1250 -91 836 529 
Q 422 1150 422 2328 
Q 422 3509 836 4129 
Q 1250 4750 2034 4750 
z
" transform="scale(0.015625)"/>
       </defs>
       <use xlink:href="#DejaVuSans-30"/>
      </g>
     </g>
    </g>
    <g id="xtick_2">
     <g id="line2d_2">
      <g>
       <use xlink:href="#m83a3c9c45c" x="138.828632" y="307.584" style="stroke: #000000; stroke-width: 0.8"/>
      </g>
     </g>
     <g id="text_2">
      <!-- 200 -->
      <g transform="translate(129.284882 322.182437)scale(0.1 -0.1)">
       <defs>
        <path id="DejaVuSans-32" d="M 1228 531 
L 3431 531 
L 3431 0 
L 469 0 
L 469 531 
Q 828 903 1448 1529 
Q 2069 2156 2228 2338 
Q 2531 2678 2651 2914 
Q 2772 3150 2772 3378 
Q 2772 3750 2511 3984 
Q 2250 4219 1831 4219 
Q 1534 4219 1204 4116 
Q 875 4013 500 3803 
L 500 4441 
Q 881 4594 1212 4672 
Q 1544 4750 1819 4750 
Q 2544 4750 2975 4387 
Q 3406 4025 3406 3419 
Q 3406 3131 3298 2873 
Q 3191 2616 2906 2266 
Q 2828 2175 2409 1742 
Q 1991 1309 1228 531 
z
" transform="scale(0.015625)"/>
       </defs>
       <use xlink:href="#DejaVuSans-32"/>
       <use xlink:href="#DejaVuSans-30" x="63.623047"/>
       <use xlink:href="#DejaVuSans-30" x="127.246094"/>
      </g>
     </g>
    </g>
    <g id="xtick_3">
     <g id="line2d_3">
      <g>
       <use xlink:href="#m83a3c9c45c" x="203.824537" y="307.584" style="stroke: #000000; stroke-width: 0.8"/>
      </g>
     </g>
     <g id="text_3">
      <!-- 400 -->
      <g transform="translate(194.280787 322.182437)scale(0.1 -0.1)">
       <defs>
        <path id="DejaVuSans-34" d="M 2419 4116 
L 825 1625 
L 2419 1625 
L 2419 4116 
z
M 2253 4666 
L 3047 4666 
L 3047 1625 
L 3713 1625 
L 3713 1100 
L 3047 1100 
L 3047 0 
L 2419 0 
L 2419 1100 
L 313 1100 
L 313 1709 
L 2253 4666 
z
" transform="scale(0.015625)"/>
       </defs>
       <use xlink:href="#DejaVuSans-34"/>
       <use xlink:href="#DejaVuSans-30" x="63.623047"/>
       <use xlink:href="#DejaVuSans-30" x="127.246094"/>
      </g>
     </g>
    </g>
    <g id="xtick_4">
     <g id="line2d_4">
      <g>
       <use xlink:href="#m83a3c9c45c" x="268.820442" y="307.584" style="stroke: #000000; stroke-width: 0.8"/>
      </g>
     </g>
     <g id="text_4">
      <!-- 600 -->
      <g transform="translate(259.276692 322.182437)scale(0.1 -0.1)">
       <defs>
        <path id="DejaVuSans-36" d="M 2113 2584 
Q 1688 2584 1439 2293 
Q 1191 2003 1191 1497 
Q 1191 994 1439 701 
Q 1688 409 2113 409 
Q 2538 409 2786 701 
Q 3034 994 3034 1497 
Q 3034 2003 2786 2293 
Q 2538 2584 2113 2584 
z
M 3366 4563 
L 3366 3988 
Q 3128 4100 2886 4159 
Q 2644 4219 2406 4219 
Q 1781 4219 1451 3797 
Q 1122 3375 1075 2522 
Q 1259 2794 1537 2939 
Q 1816 3084 2150 3084 
Q 2853 3084 3261 2657 
Q 3669 2231 3669 1497 
Q 3669 778 3244 343 
Q 2819 -91 2113 -91 
Q 1303 -91 875 529 
Q 447 1150 447 2328 
Q 447 3434 972 4092 
Q 1497 4750 2381 4750 
Q 2619 4750 2861 4703 
Q 3103 4656 3366 4563 
z
" transform="scale(0.015625)"/>
       </defs>
       <use xlink:href="#DejaVuSans-36"/>
       <use xlink:href="#DejaVuSans-30" x="63.623047"/>
       <use xlink:href="#DejaVuSans-30" x="127.246094"/>
      </g>
     </g>
    </g>
    <g id="xtick_5">
     <g id="line2d_5">
      <g>
       <use xlink:href="#m83a3c9c45c" x="333.816347" y="307.584" style="stroke: #000000; stroke-width: 0.8"/>
      </g>
     </g>
     <g id="text_5">
      <!-- 800 -->
      <g transform="translate(324.272597 322.182437)scale(0.1 -0.1)">
       <defs>
        <path id="DejaVuSans-38" d="M 2034 2216 
Q 1584 2216 1326 1975 
Q 1069 1734 1069 1313 
Q 1069 891 1326 650 
Q 1584 409 2034 409 
Q 2484 409 2743 651 
Q 3003 894 3003 1313 
Q 3003 1734 2745 1975 
Q 2488 2216 2034 2216 
z
M 1403 2484 
Q 997 2584 770 2862 
Q 544 3141 544 3541 
Q 544 4100 942 4425 
Q 1341 4750 2034 4750 
Q 2731 4750 3128 4425 
Q 3525 4100 3525 3541 
Q 3525 3141 3298 2862 
Q 3072 2584 2669 2484 
Q 3125 2378 3379 2068 
Q 3634 1759 3634 1313 
Q 3634 634 3220 271 
Q 2806 -91 2034 -91 
Q 1263 -91 848 271 
Q 434 634 434 1313 
Q 434 1759 690 2068 
Q 947 2378 1403 2484 
z
M 1172 3481 
Q 1172 3119 1398 2916 
Q 1625 2713 2034 2713 
Q 2441 2713 2670 2916 
Q 2900 3119 2900 3481 
Q 2900 3844 2670 4047 
Q 2441 4250 2034 4250 
Q 1625 4250 1398 4047 
Q 1172 3844 1172 3481 
z
" transform="scale(0.015625)"/>
       </defs>
       <use xlink:href="#DejaVuSans-38"/>
       <use xlink:href="#DejaVuSans-30" x="63.623047"/>
       <use xlink:href="#DejaVuSans-30" x="127.246094"/>
      </g>
     </g>
    </g>
    <g id="xtick_6">
     <g id="line2d_6">
      <g>
       <use xlink:href="#m83a3c9c45c" x="398.812252" y="307.584" style="stroke: #000000; stroke-width: 0.8"/>
      </g>
     </g>
     <g id="text_6">
      <!-- 1000 -->
      <g transform="translate(386.087252 322.182437)scale(0.1 -0.1)">
       <defs>
        <path id="DejaVuSans-31" d="M 794 531 
L 1825 531 
L 1825 4091 
L 703 3866 
L 703 4441 
L 1819 4666 
L 2450 4666 
L 2450 531 
L 3481 531 
L 3481 0 
L 794 0 
L 794 531 
z
" transform="scale(0.015625)"/>
       </defs>
       <use xlink:href="#DejaVuSans-31"/>
       <use xlink:href="#DejaVuSans-30" x="63.623047"/>
       <use xlink:href="#DejaVuSans-30" x="127.246094"/>
       <use xlink:href="#DejaVuSans-30" x="190.869141"/>
      </g>
     </g>
    </g>
    <g id="text_7">
     <!-- Timestamps -->
     <g transform="translate(190.392422 339.659781)scale(0.15 -0.15)">
      <defs>
       <path id="DejaVuSans-54" d="M -19 4666 
L 3928 4666 
L 3928 4134 
L 2272 4134 
L 2272 0 
L 1638 0 
L 1638 4134 
L -19 4134 
L -19 4666 
z
" transform="scale(0.015625)"/>
       <path id="DejaVuSans-69" d="M 603 3500 
L 1178 3500 
L 1178 0 
L 603 0 
L 603 3500 
z
M 603 4863 
L 1178 4863 
L 1178 4134 
L 603 4134 
L 603 4863 
z
" transform="scale(0.015625)"/>
       <path id="DejaVuSans-6d" d="M 3328 2828 
Q 3544 3216 3844 3400 
Q 4144 3584 4550 3584 
Q 5097 3584 5394 3201 
Q 5691 2819 5691 2113 
L 5691 0 
L 5113 0 
L 5113 2094 
Q 5113 2597 4934 2840 
Q 4756 3084 4391 3084 
Q 3944 3084 3684 2787 
Q 3425 2491 3425 1978 
L 3425 0 
L 2847 0 
L 2847 2094 
Q 2847 2600 2669 2842 
Q 2491 3084 2119 3084 
Q 1678 3084 1418 2786 
Q 1159 2488 1159 1978 
L 1159 0 
L 581 0 
L 581 3500 
L 1159 3500 
L 1159 2956 
Q 1356 3278 1631 3431 
Q 1906 3584 2284 3584 
Q 2666 3584 2933 3390 
Q 3200 3197 3328 2828 
z
" transform="scale(0.015625)"/>
       <path id="DejaVuSans-65" d="M 3597 1894 
L 3597 1613 
L 953 1613 
Q 991 1019 1311 708 
Q 1631 397 2203 397 
Q 2534 397 2845 478 
Q 3156 559 3463 722 
L 3463 178 
Q 3153 47 2828 -22 
Q 2503 -91 2169 -91 
Q 1331 -91 842 396 
Q 353 884 353 1716 
Q 353 2575 817 3079 
Q 1281 3584 2069 3584 
Q 2775 3584 3186 3129 
Q 3597 2675 3597 1894 
z
M 3022 2063 
Q 3016 2534 2758 2815 
Q 2500 3097 2075 3097 
Q 1594 3097 1305 2825 
Q 1016 2553 972 2059 
L 3022 2063 
z
" transform="scale(0.015625)"/>
       <path id="DejaVuSans-73" d="M 2834 3397 
L 2834 2853 
Q 2591 2978 2328 3040 
Q 2066 3103 1784 3103 
Q 1356 3103 1142 2972 
Q 928 2841 928 2578 
Q 928 2378 1081 2264 
Q 1234 2150 1697 2047 
L 1894 2003 
Q 2506 1872 2764 1633 
Q 3022 1394 3022 966 
Q 3022 478 2636 193 
Q 2250 -91 1575 -91 
Q 1294 -91 989 -36 
Q 684 19 347 128 
L 347 722 
Q 666 556 975 473 
Q 1284 391 1588 391 
Q 1994 391 2212 530 
Q 2431 669 2431 922 
Q 2431 1156 2273 1281 
Q 2116 1406 1581 1522 
L 1381 1569 
Q 847 1681 609 1914 
Q 372 2147 372 2553 
Q 372 3047 722 3315 
Q 1072 3584 1716 3584 
Q 2034 3584 2315 3537 
Q 2597 3491 2834 3397 
z
" transform="scale(0.015625)"/>
       <path id="DejaVuSans-74" d="M 1172 4494 
L 1172 3500 
L 2356 3500 
L 2356 3053 
L 1172 3053 
L 1172 1153 
Q 1172 725 1289 603 
Q 1406 481 1766 481 
L 2356 481 
L 2356 0 
L 1766 0 
Q 1100 0 847 248 
Q 594 497 594 1153 
L 594 3053 
L 172 3053 
L 172 3500 
L 594 3500 
L 594 4494 
L 1172 4494 
z
" transform="scale(0.015625)"/>
       <path id="DejaVuSans-61" d="M 2194 1759 
Q 1497 1759 1228 1600 
Q 959 1441 959 1056 
Q 959 750 1161 570 
Q 1363 391 1709 391 
Q 2188 391 2477 730 
Q 2766 1069 2766 1631 
L 2766 1759 
L 2194 1759 
z
M 3341 1997 
L 3341 0 
L 2766 0 
L 2766 531 
Q 2569 213 2275 61 
Q 1981 -91 1556 -91 
Q 1019 -91 701 211 
Q 384 513 384 1019 
Q 384 1609 779 1909 
Q 1175 2209 1959 2209 
L 2766 2209 
L 2766 2266 
Q 2766 2663 2505 2880 
Q 2244 3097 1772 3097 
Q 1472 3097 1187 3025 
Q 903 2953 641 2809 
L 641 3341 
Q 956 3463 1253 3523 
Q 1550 3584 1831 3584 
Q 2591 3584 2966 3190 
Q 3341 2797 3341 1997 
z
" transform="scale(0.015625)"/>
       <path id="DejaVuSans-70" d="M 1159 525 
L 1159 -1331 
L 581 -1331 
L 581 3500 
L 1159 3500 
L 1159 2969 
Q 1341 3281 1617 3432 
Q 1894 3584 2278 3584 
Q 2916 3584 3314 3078 
Q 3713 2572 3713 1747 
Q 3713 922 3314 415 
Q 2916 -91 2278 -91 
Q 1894 -91 1617 61 
Q 1341 213 1159 525 
z
M 3116 1747 
Q 3116 2381 2855 2742 
Q 2594 3103 2138 3103 
Q 1681 3103 1420 2742 
Q 1159 2381 1159 1747 
Q 1159 1113 1420 752 
Q 1681 391 2138 391 
Q 2594 391 2855 752 
Q 3116 1113 3116 1747 
z
" transform="scale(0.015625)"/>
      </defs>
      <use xlink:href="#DejaVuSans-54"/>
      <use xlink:href="#DejaVuSans-69" x="57.958984"/>
      <use xlink:href="#DejaVuSans-6d" x="85.742188"/>
      <use xlink:href="#DejaVuSans-65" x="183.154297"/>
      <use xlink:href="#DejaVuSans-73" x="244.677734"/>
      <use xlink:href="#DejaVuSans-74" x="296.777344"/>
      <use xlink:href="#DejaVuSans-61" x="335.986328"/>
      <use xlink:href="#DejaVuSans-6d" x="397.265625"/>
      <use xlink:href="#DejaVuSans-70" x="494.677734"/>
      <use xlink:href="#DejaVuSans-73" x="558.154297"/>
     </g>
    </g>
   </g>
   <g id="matplotlib.axis_2">
    <g id="ytick_1">
     <g id="line2d_7">
      <defs>
       <path id="m5d27953b62" d="M 0 0 
L -3.5 0 
" style="stroke: #000000; stroke-width: 0.8"/>
      </defs>
      <g>
       <use xlink:href="#m5d27953b62" x="57.6" y="295.609579" style="stroke: #000000; stroke-width: 0.8"/>
      </g>
     </g>
     <g id="text_8">
      <!-- −1.00 -->
      <g transform="translate(19.954687 299.408798)scale(0.1 -0.1)">
       <defs>
        <path id="DejaVuSans-2212" d="M 678 2272 
L 4684 2272 
L 4684 1741 
L 678 1741 
L 678 2272 
z
" transform="scale(0.015625)"/>
        <path id="DejaVuSans-2e" d="M 684 794 
L 1344 794 
L 1344 0 
L 684 0 
L 684 794 
z
" transform="scale(0.015625)"/>
       </defs>
       <use xlink:href="#DejaVuSans-2212"/>
       <use xlink:href="#DejaVuSans-31" x="83.789062"/>
       <use xlink:href="#DejaVuSans-2e" x="147.412109"/>
       <use xlink:href="#DejaVuSans-30" x="179.199219"/>
       <use xlink:href="#DejaVuSans-30" x="242.822266"/>
      </g>
     </g>
    </g>
    <g id="ytick_2">
     <g id="line2d_8">
      <g>
       <use xlink:href="#m5d27953b62" x="57.6" y="262.436767" style="stroke: #000000; stroke-width: 0.8"/>
      </g>
     </g>
     <g id="text_9">
      <!-- −0.75 -->
      <g transform="translate(19.954687 266.235985)scale(0.1 -0.1)">
       <defs>
        <path id="DejaVuSans-37" d="M 525 4666 
L 3525 4666 
L 3525 4397 
L 1831 0 
L 1172 0 
L 2766 4134 
L 525 4134 
L 525 4666 
z
" transform="scale(0.015625)"/>
        <path id="DejaVuSans-35" d="M 691 4666 
L 3169 4666 
L 3169 4134 
L 1269 4134 
L 1269 2991 
Q 1406 3038 1543 3061 
Q 1681 3084 1819 3084 
Q 2600 3084 3056 2656 
Q 3513 2228 3513 1497 
Q 3513 744 3044 326 
Q 2575 -91 1722 -91 
Q 1428 -91 1123 -41 
Q 819 9 494 109 
L 494 744 
Q 775 591 1075 516 
Q 1375 441 1709 441 
Q 2250 441 2565 725 
Q 2881 1009 2881 1497 
Q 2881 1984 2565 2268 
Q 2250 2553 1709 2553 
Q 1456 2553 1204 2497 
Q 953 2441 691 2322 
L 691 4666 
z
" transform="scale(0.015625)"/>
       </defs>
       <use xlink:href="#DejaVuSans-2212"/>
       <use xlink:href="#DejaVuSans-30" x="83.789062"/>
       <use xlink:href="#DejaVuSans-2e" x="147.412109"/>
       <use xlink:href="#DejaVuSans-37" x="179.199219"/>
       <use xlink:href="#DejaVuSans-35" x="242.822266"/>
      </g>
     </g>
    </g>
    <g id="ytick_3">
     <g id="line2d_9">
      <g>
       <use xlink:href="#m5d27953b62" x="57.6" y="229.263954" style="stroke: #000000; stroke-width: 0.8"/>
      </g>
     </g>
     <g id="text_10">
      <!-- −0.50 -->
      <g transform="translate(19.954687 233.063172)scale(0.1 -0.1)">
       <use xlink:href="#DejaVuSans-2212"/>
       <use xlink:href="#DejaVuSans-30" x="83.789062"/>
       <use xlink:href="#DejaVuSans-2e" x="147.412109"/>
       <use xlink:href="#DejaVuSans-35" x="179.199219"/>
       <use xlink:href="#DejaVuSans-30" x="242.822266"/>
      </g>
     </g>
    </g>
    <g id="ytick_4">
     <g id="line2d_10">
      <g>
       <use xlink:href="#m5d27953b62" x="57.6" y="196.091141" style="stroke: #000000; stroke-width: 0.8"/>
      </g>
     </g>
     <g id="text_11">
      <!-- −0.25 -->
      <g transform="translate(19.954687 199.89036)scale(0.1 -0.1)">
       <use xlink:href="#DejaVuSans-2212"/>
       <use xlink:href="#DejaVuSans-30" x="83.789062"/>
       <use xlink:href="#DejaVuSans-2e" x="147.412109"/>
       <use xlink:href="#DejaVuSans-32" x="179.199219"/>
       <use xlink:href="#DejaVuSans-35" x="242.822266"/>
      </g>
     </g>
    </g>
    <g id="ytick_5">
     <g id="line2d_11">
      <g>
       <use xlink:href="#m5d27953b62" x="57.6" y="162.918328" style="stroke: #000000; stroke-width: 0.8"/>
      </g>
     </g>
     <g id="text_12">
      <!-- 0.00 -->
      <g transform="translate(28.334375 166.717547)scale(0.1 -0.1)">
       <use xlink:href="#DejaVuSans-30"/>
       <use xlink:href="#DejaVuSans-2e" x="63.623047"/>
       <use xlink:href="#DejaVuSans-30" x="95.410156"/>
       <use xlink:href="#DejaVuSans-30" x="159.033203"/>
      </g>
     </g>
    </g>
    <g id="ytick_6">
     <g id="line2d_12">
      <g>
       <use xlink:href="#m5d27953b62" x="57.6" y="129.745515" style="stroke: #000000; stroke-width: 0.8"/>
      </g>
     </g>
     <g id="text_13">
      <!-- 0.25 -->
      <g transform="translate(28.334375 133.544734)scale(0.1 -0.1)">
       <use xlink:href="#DejaVuSans-30"/>
       <use xlink:href="#DejaVuSans-2e" x="63.623047"/>
       <use xlink:href="#DejaVuSans-32" x="95.410156"/>
       <use xlink:href="#DejaVuSans-35" x="159.033203"/>
      </g>
     </g>
    </g>
    <g id="ytick_7">
     <g id="line2d_13">
      <g>
       <use xlink:href="#m5d27953b62" x="57.6" y="96.572702" style="stroke: #000000; stroke-width: 0.8"/>
      </g>
     </g>
     <g id="text_14">
      <!-- 0.50 -->
      <g transform="translate(28.334375 100.371921)scale(0.1 -0.1)">
       <use xlink:href="#DejaVuSans-30"/>
       <use xlink:href="#DejaVuSans-2e" x="63.623047"/>
       <use xlink:href="#DejaVuSans-35" x="95.410156"/>
       <use xlink:href="#DejaVuSans-30" x="159.033203"/>
      </g>
     </g>
    </g>
    <g id="ytick_8">
     <g id="line2d_14">
      <g>
       <use xlink:href="#m5d27953b62" x="57.6" y="63.399889" style="stroke: #000000; stroke-width: 0.8"/>
      </g>
     </g>
     <g id="text_15">
      <!-- 0.75 -->
      <g transform="translate(28.334375 67.199108)scale(0.1 -0.1)">
       <use xlink:href="#DejaVuSans-30"/>
       <use xlink:href="#DejaVuSans-2e" x="63.623047"/>
       <use xlink:href="#DejaVuSans-37" x="95.410156"/>
       <use xlink:href="#DejaVuSans-35" x="159.033203"/>
      </g>
     </g>
    </g>
    <g id="text_16">
     <!-- Magnitude -->
     <g transform="translate(12.835156 214.262766)rotate(-90)scale(0.15 -0.15)">
      <defs>
       <path id="DejaVuSans-4d" d="M 628 4666 
L 1569 4666 
L 2759 1491 
L 3956 4666 
L 4897 4666 
L 4897 0 
L 4281 0 
L 4281 4097 
L 3078 897 
L 2444 897 
L 1241 4097 
L 1241 0 
L 628 0 
L 628 4666 
z
" transform="scale(0.015625)"/>
       <path id="DejaVuSans-67" d="M 2906 1791 
Q 2906 2416 2648 2759 
Q 2391 3103 1925 3103 
Q 1463 3103 1205 2759 
Q 947 2416 947 1791 
Q 947 1169 1205 825 
Q 1463 481 1925 481 
Q 2391 481 2648 825 
Q 2906 1169 2906 1791 
z
M 3481 434 
Q 3481 -459 3084 -895 
Q 2688 -1331 1869 -1331 
Q 1566 -1331 1297 -1286 
Q 1028 -1241 775 -1147 
L 775 -588 
Q 1028 -725 1275 -790 
Q 1522 -856 1778 -856 
Q 2344 -856 2625 -561 
Q 2906 -266 2906 331 
L 2906 616 
Q 2728 306 2450 153 
Q 2172 0 1784 0 
Q 1141 0 747 490 
Q 353 981 353 1791 
Q 353 2603 747 3093 
Q 1141 3584 1784 3584 
Q 2172 3584 2450 3431 
Q 2728 3278 2906 2969 
L 2906 3500 
L 3481 3500 
L 3481 434 
z
" transform="scale(0.015625)"/>
       <path id="DejaVuSans-6e" d="M 3513 2113 
L 3513 0 
L 2938 0 
L 2938 2094 
Q 2938 2591 2744 2837 
Q 2550 3084 2163 3084 
Q 1697 3084 1428 2787 
Q 1159 2491 1159 1978 
L 1159 0 
L 581 0 
L 581 3500 
L 1159 3500 
L 1159 2956 
Q 1366 3272 1645 3428 
Q 1925 3584 2291 3584 
Q 2894 3584 3203 3211 
Q 3513 2838 3513 2113 
z
" transform="scale(0.015625)"/>
       <path id="DejaVuSans-75" d="M 544 1381 
L 544 3500 
L 1119 3500 
L 1119 1403 
Q 1119 906 1312 657 
Q 1506 409 1894 409 
Q 2359 409 2629 706 
Q 2900 1003 2900 1516 
L 2900 3500 
L 3475 3500 
L 3475 0 
L 2900 0 
L 2900 538 
Q 2691 219 2414 64 
Q 2138 -91 1772 -91 
Q 1169 -91 856 284 
Q 544 659 544 1381 
z
M 1991 3584 
L 1991 3584 
z
" transform="scale(0.015625)"/>
       <path id="DejaVuSans-64" d="M 2906 2969 
L 2906 4863 
L 3481 4863 
L 3481 0 
L 2906 0 
L 2906 525 
Q 2725 213 2448 61 
Q 2172 -91 1784 -91 
Q 1150 -91 751 415 
Q 353 922 353 1747 
Q 353 2572 751 3078 
Q 1150 3584 1784 3584 
Q 2172 3584 2448 3432 
Q 2725 3281 2906 2969 
z
M 947 1747 
Q 947 1113 1208 752 
Q 1469 391 1925 391 
Q 2381 391 2643 752 
Q 2906 1113 2906 1747 
Q 2906 2381 2643 2742 
Q 2381 3103 1925 3103 
Q 1469 3103 1208 2742 
Q 947 2381 947 1747 
z
" transform="scale(0.015625)"/>
      </defs>
      <use xlink:href="#DejaVuSans-4d"/>
      <use xlink:href="#DejaVuSans-61" x="86.279297"/>
      <use xlink:href="#DejaVuSans-67" x="147.558594"/>
      <use xlink:href="#DejaVuSans-6e" x="211.035156"/>
      <use xlink:href="#DejaVuSans-69" x="274.414062"/>
      <use xlink:href="#DejaVuSans-74" x="302.197266"/>
      <use xlink:href="#DejaVuSans-75" x="341.40625"/>
      <use xlink:href="#DejaVuSans-64" x="404.785156"/>
      <use xlink:href="#DejaVuSans-65" x="468.261719"/>
     </g>
    </g>
   </g>
   <g id="line2d_15">
    <path d="M 73.832727 274.902371 
L 76.107584 274.994501 
L 76.757543 274.918301 
L 77.407502 274.946684 
L 78.057461 274.872821 
L 78.70742 274.938117 
L 82.282195 276.315993 
L 84.557052 276.461159 
L 87.481867 276.441348 
L 88.456806 276.501084 
L 89.431744 276.518541 
L 90.731663 276.413777 
L 91.706601 276.235619 
L 93.006519 276.003162 
L 93.656478 275.729783 
L 94.956396 275.353268 
L 95.931335 274.907129 
L 98.206192 273.489428 
L 98.531171 273.211523 
L 98.856151 272.554584 
L 99.18113 272.209295 
L 99.50611 272.209295 
L 99.831089 271.394867 
L 101.131007 269.200614 
L 101.780966 267.932807 
L 102.430925 266.399504 
L 103.405864 264.973272 
L 104.055823 264.541273 
L 104.705782 264.301693 
L 105.030762 264.376617 
L 105.355741 264.568964 
L 106.0057 265.759057 
L 106.33068 267.863795 
L 106.655659 267.863795 
L 107.305618 262.708633 
L 108.930516 250.696189 
L 109.255495 245.6207 
L 111.205373 230.036084 
L 112.505291 222.734038 
L 112.83027 218.56755 
L 114.130188 208.468044 
L 115.105127 200.228732 
L 115.430106 192.497472 
L 115.755086 187.635944 
L 116.730025 181.48479 
L 117.704963 176.552078 
L 118.354922 173.979044 
L 118.679902 171.933839 
L 119.004881 171.933839 
L 119.329861 170.446524 
L 119.97982 169.516384 
L 120.629779 169.073358 
L 120.954758 169.047054 
L 121.604717 169.390476 
L 122.254676 170.247264 
L 122.904636 171.544066 
L 123.229615 173.23214 
L 124.204554 176.386775 
L 124.529533 177.560284 
L 124.854513 180.093684 
L 126.154431 186.034994 
L 126.47941 187.691729 
L 126.80439 191.209318 
L 129.079247 205.319501 
L 129.729206 210.762441 
L 130.054185 216.732742 
L 131.679083 231.070296 
L 132.004062 233.639461 
L 132.329042 234.084661 
L 132.654021 239.058201 
L 132.979001 239.058201 
L 133.30398 244.318068 
L 134.603898 255.434812 
L 134.928878 260.361256 
L 136.553776 271.314844 
L 136.878755 275.210598 
L 138.178673 281.868476 
L 139.153612 286.027414 
L 139.478591 288.426999 
L 140.45353 291.302111 
L 142.078428 294.875509 
L 142.728387 295.357941 
L 143.378346 295.488 
L 144.028305 295.256028 
L 144.678264 294.675053 
L 145.328223 292.93658 
L 146.95312 288.547898 
L 148.253038 284.256663 
L 148.578018 282.182524 
L 150.202916 277.112447 
L 150.527895 275.141297 
L 152.802752 268.281304 
L 153.127731 267.320674 
L 153.452711 265.299778 
L 155.077609 260.915781 
L 155.402588 259.748475 
L 155.727568 257.839244 
L 156.702506 255.122734 
L 157.352465 253.767767 
L 157.677445 252.577117 
L 158.327404 251.305573 
L 158.652383 249.863685 
L 158.977363 249.180806 
L 159.302342 247.912514 
L 160.92724 245.2512 
L 162.227158 243.676822 
L 162.552138 243.263372 
L 162.877117 242.624529 
L 164.177035 241.90828 
L 164.826994 241.681544 
L 165.801933 241.600989 
L 166.776871 241.974648 
L 167.42683 242.444811 
L 168.07679 243.434549 
L 170.026667 246.493194 
L 171.001605 248.979273 
L 171.326585 250.916296 
L 172.626503 255.275807 
L 173.601441 259.099379 
L 174.2514 262.157082 
L 174.57638 265.220643 
L 176.201278 273.31526 
L 177.176216 278.818576 
L 177.501196 278.818576 
L 177.826175 281.377045 
L 178.801114 285.339124 
L 180.750991 291.659956 
L 181.72593 293.487997 
L 182.050909 293.967062 
L 182.375889 294.675776 
L 183.025848 295.055039 
L 183.675807 295.124442 
L 184.325766 294.807151 
L 184.975725 294.136163 
L 185.625684 292.400166 
L 186.275643 290.69579 
L 186.925602 288.460153 
L 187.250581 286.024746 
L 187.575561 286.024746 
L 187.900541 283.222323 
L 188.875479 278.41327 
L 189.525438 274.795647 
L 189.850418 271.022772 
L 192.125274 257.094196 
L 192.450254 252.082545 
L 193.425192 244.98902 
L 194.725111 238.170748 
L 195.700049 233.9188 
L 196.025029 230.49394 
L 197.324947 222.448656 
L 197.974906 208.57156 
L 198.299885 208.57156 
L 198.624865 208.398225 
L 199.274824 205.355786 
L 199.599803 202.469923 
L 200.899722 197.670824 
L 201.224701 197.670824 
L 201.549681 195.723435 
L 202.19964 194.037707 
L 202.524619 192.6972 
L 203.174578 191.54319 
L 204.149517 190.29966 
L 204.799476 189.777766 
L 205.449435 189.416548 
L 206.099394 189.445271 
L 206.749353 189.666054 
L 207.399312 190.122969 
L 208.049271 191.333163 
L 209.02421 193.218463 
L 209.349189 193.999069 
L 209.674169 195.693805 
L 210.974087 200.125444 
L 212.274005 205.711437 
L 212.598984 207.233356 
L 212.923964 210.512869 
L 213.573923 213.488302 
L 214.548862 222.07269 
L 214.873841 222.422052 
L 215.198821 223.256193 
L 215.5238 224.566052 
L 216.173759 228.596709 
L 217.148698 236.50641 
L 217.473677 241.713834 
L 217.798657 241.713834 
L 218.123636 246.474766 
L 219.098575 253.453198 
L 220.073514 260.156823 
L 220.398493 264.443879 
L 220.723473 264.443879 
L 221.048452 268.486066 
L 222.34837 275.774696 
L 222.998329 278.998571 
L 223.323309 282.274729 
L 223.973268 285.02866 
L 224.298247 285.02866 
L 224.623227 287.436941 
L 225.598165 290.294823 
L 225.923145 291.096338 
L 226.248124 292.385586 
L 226.573104 292.385586 
L 226.898084 293.475811 
L 227.548043 294.181324 
L 228.198002 294.495327 
L 228.522981 294.459082 
L 228.847961 294.274651 
L 230.147879 292.10638 
L 230.472858 290.636086 
L 231.122817 288.720838 
L 232.097756 285.242545 
L 232.747715 282.499645 
L 233.072695 279.5752 
L 233.722654 276.996599 
L 234.047633 274.463848 
L 234.697592 271.482916 
L 235.022572 269.137452 
L 236.32249 264.487662 
L 236.647469 263.503734 
L 236.972449 261.639814 
L 238.922326 256.02506 
L 240.222244 252.252279 
L 240.547224 250.43191 
L 243.14706 244.169154 
L 243.472039 243.531974 
L 243.797019 242.246742 
L 245.421916 239.2641 
L 246.396855 237.786405 
L 246.721835 236.971578 
L 247.371794 236.36023 
L 247.696773 236.205071 
L 248.021753 235.702572 
L 248.671712 235.389775 
L 249.321671 235.271341 
L 249.97163 235.084497 
L 250.946568 235.141339 
L 251.596527 235.371488 
L 253.871384 237.530583 
L 254.196364 238.629914 
L 254.521343 238.629914 
L 254.846323 239.883316 
L 255.821261 242.434735 
L 256.7962 245.652017 
L 257.121179 248.050105 
L 258.421097 253.456314 
L 259.071057 256.606186 
L 259.396036 259.671242 
L 261.020934 267.367446 
L 261.345913 268.926526 
L 261.670893 272.227772 
L 262.970811 278.080821 
L 263.945749 282.068549 
L 264.270729 284.495931 
L 265.245667 287.690683 
L 266.545586 291.142996 
L 266.870565 292.536598 
L 267.845504 294.191677 
L 268.820442 295.333026 
L 269.470401 295.388785 
L 269.795381 295.267186 
L 270.44534 294.652585 
L 271.095299 293.585823 
L 271.745258 292.137152 
L 272.070238 290.250644 
L 273.045176 286.727249 
L 274.020115 282.545802 
L 274.345094 280.984085 
L 274.670074 277.63528 
L 276.619951 266.505881 
L 276.94493 264.585342 
L 277.26991 260.647891 
L 278.569828 252.575518 
L 278.894808 248.392188 
L 281.169664 233.344765 
L 281.494644 231.105342 
L 281.819623 226.125343 
L 282.794562 219.444875 
L 283.7695 214.976995 
L 284.419459 213.189721 
L 284.744439 211.286632 
L 285.394398 209.133837 
L 287.344275 201.751877 
L 287.669255 199.867696 
L 288.319214 198.493941 
L 288.969173 197.660638 
L 289.294152 197.351389 
L 289.944111 197.448717 
L 290.59407 197.895695 
L 291.569009 199.124848 
L 291.893989 200.371089 
L 292.868927 202.90211 
L 293.193907 201.027448 
L 293.843866 203.068588 
L 294.818804 207.131774 
L 295.143784 210.62139 
L 296.443702 219.908824 
L 297.093661 224.747444 
L 297.41864 229.367902 
L 299.043538 239.806433 
L 299.368518 241.089666 
L 300.018477 245.992696 
L 300.343456 251.092589 
L 302.293333 264.809454 
L 302.618313 269.118127 
L 304.24321 278.264287 
L 304.56819 282.138932 
L 304.89317 282.138932 
L 305.218149 285.157455 
L 306.843047 291.371808 
L 307.817985 293.312423 
L 308.467944 294.258286 
L 308.792924 294.555203 
L 309.117903 294.693941 
L 309.767862 294.590278 
L 310.742801 293.230042 
L 311.39276 291.941297 
L 311.71774 291.175964 
L 312.042719 289.334055 
L 313.017658 286.55006 
L 313.342637 284.572073 
L 314.642555 280.226216 
L 315.292514 273.278488 
L 315.942473 270.335482 
L 316.917412 267.146945 
L 317.892351 265.562826 
L 318.21733 264.949797 
L 318.54231 260.693957 
L 318.867289 259.336462 
L 319.517248 257.884563 
L 319.842228 255.978216 
L 321.792105 250.96428 
L 322.117084 249.271064 
L 323.417002 246.373127 
L 323.741982 245.127565 
L 326.341818 239.992902 
L 328.941654 236.035999 
L 330.891532 234.740207 
L 332.19145 234.773584 
L 332.841409 234.953358 
L 333.491368 235.372936 
L 334.141327 236.006318 
L 334.791286 237.768408 
L 335.116265 238.291366 
L 336.416183 241.877921 
L 336.741163 243.022415 
L 337.066143 242.676714 
L 337.391122 243.85342 
L 337.716102 246.096239 
L 338.366061 248.715137 
L 339.340999 252.886673 
L 339.665979 256.343269 
L 340.965897 263.074456 
L 341.940835 267.944664 
L 342.265815 271.352044 
L 343.890713 279.020989 
L 344.540672 281.809387 
L 344.865651 284.171283 
L 346.165569 288.465115 
L 346.815528 290.288262 
L 347.140508 291.785123 
L 347.790467 292.975674 
L 348.440426 293.841442 
L 349.415364 294.617859 
L 350.065324 294.410854 
L 350.715283 293.850419 
L 351.365242 292.335161 
L 352.015201 290.860158 
L 352.990139 287.918437 
L 353.315119 285.512217 
L 354.290057 281.150956 
L 355.264996 276.066548 
L 355.589975 272.271601 
L 356.889894 263.893949 
L 357.864832 256.88798 
L 358.189812 252.073431 
L 359.16475 245.921572 
L 359.48973 244.458603 
L 359.814709 241.389715 
L 360.464668 237.778846 
L 361.114627 233.015642 
L 362.089566 224.384722 
L 362.739525 211.395733 
L 363.389484 206.32742 
L 364.364423 200.313441 
L 364.689402 196.803799 
L 365.664341 192.297533 
L 366.3143 189.855312 
L 366.639279 187.861631 
L 367.289238 186.34608 
L 367.939197 185.305871 
L 368.589156 184.806934 
L 368.914136 184.757512 
L 369.239115 184.86712 
L 370.539034 187.552689 
L 370.864013 188.542616 
L 371.188993 190.941391 
L 372.163931 195.713181 
L 373.13887 201.659218 
L 373.788829 206.120099 
L 374.113808 211.002045 
L 376.713645 232.010164 
L 377.038624 237.774379 
L 378.988501 253.808055 
L 380.288419 262.893111 
L 380.938378 270.728918 
L 381.588337 275.081708 
L 382.888256 282.20987 
L 383.213235 285.308049 
L 384.188174 288.953206 
L 385.163112 291.690969 
L 385.488092 292.289527 
L 385.813071 293.256549 
L 386.138051 293.640636 
L 386.46303 293.640636 
L 386.78801 294.094246 
L 387.112989 294.122808 
L 387.437969 294.022912 
L 388.087928 293.536851 
L 390.037805 288.992467 
L 390.362785 287.012848 
L 390.687764 286.119891 
L 391.012744 286.119891 
L 391.337723 284.223193 
L 392.637641 280.216404 
L 392.962621 279.052998 
L 393.2876 273.586291 
L 394.587518 268.26456 
L 395.237477 266.162537 
L 395.562457 264.206767 
L 395.887437 263.239093 
L 396.537396 256.184288 
L 397.187355 253.20762 
L 397.512334 252.184504 
L 397.837314 250.578978 
L 398.487273 248.638939 
L 398.487273 248.638939 
" clip-path="url(#p9ac9eac79a)" style="fill: none; stroke: #1f77b4; stroke-width: 1.5; stroke-linecap: square"/>
   </g>
   <g id="line2d_16">
    <path d="M 73.832727 220.959572 
L 74.482686 220.69005 
L 76.757543 219.986438 
L 77.082523 219.807069 
L 77.732482 219.754664 
L 78.382441 219.464286 
L 79.0324 218.660625 
L 79.682359 218.089193 
L 80.982277 216.494415 
L 81.307256 215.759261 
L 81.632236 215.759261 
L 81.957215 215.407289 
L 82.282195 214.828651 
L 82.932154 214.446268 
L 84.882031 213.528791 
L 85.207011 213.528791 
L 85.53199 213.327176 
L 86.831908 213.141836 
L 89.106765 212.881563 
L 90.406683 213.362962 
L 90.731663 213.581669 
L 91.381622 214.297103 
L 93.006519 215.736959 
L 93.331499 216.40049 
L 95.281376 218.730504 
L 96.256314 220.529712 
L 96.581294 221.57909 
L 98.531171 225.487513 
L 98.856151 227.148355 
L 99.18113 228.055588 
L 99.50611 228.055588 
L 99.831089 230.006873 
L 101.780966 236.798493 
L 102.105946 238.719135 
L 103.080885 241.92313 
L 104.380803 244.626311 
L 105.030762 245.585771 
L 105.355741 245.878017 
L 105.680721 246.321782 
L 106.0057 246.010547 
L 106.33068 243.929588 
L 106.655659 243.929588 
L 106.980639 247.841534 
L 108.930516 262.419194 
L 109.255495 266.673551 
L 110.555414 274.459168 
L 111.205373 277.380711 
L 112.180311 280.351867 
L 112.505291 281.242222 
L 112.83027 283.146653 
L 115.105127 290.031116 
L 115.430106 292.242918 
L 115.755086 293.28458 
L 116.405045 294.025016 
L 117.379984 294.738512 
L 118.679902 295.295137 
L 119.329861 295.388942 
L 120.954758 295.463289 
L 122.904636 295.3248 
L 124.529533 294.777199 
L 125.179492 294.268877 
L 126.154431 293.528238 
L 126.47941 293.213194 
L 126.80439 292.480732 
L 127.779328 291.051997 
L 128.754267 289.268638 
L 129.404226 287.619613 
L 129.729206 286.571794 
L 130.054185 284.146263 
L 131.354103 278.290341 
L 132.004062 275.18386 
L 132.329042 274.85979 
L 132.654021 271.512012 
L 132.979001 271.512012 
L 133.30398 267.624598 
L 134.278919 260.584508 
L 134.603898 257.990901 
L 134.928878 252.946488 
L 136.553776 239.422618 
L 136.878755 233.589663 
L 139.153612 212.41761 
L 139.478591 205.977777 
L 141.428468 186.526319 
L 141.753448 179.802121 
L 144.678264 149.340457 
L 145.003243 142.219887 
L 145.978182 131.210843 
L 147.928059 113.541022 
L 148.253038 111.091648 
L 148.578018 106.660321 
L 149.877936 99.038743 
L 150.202916 97.266781 
L 150.527895 94.08537 
L 151.827813 87.954621 
L 152.477772 85.31308 
L 153.127731 82.967922 
L 153.452711 80.358964 
L 155.402588 74.167606 
L 155.727568 72.128066 
L 156.702506 69.4506 
L 157.352465 68.217321 
L 157.677445 67.180341 
L 158.327404 66.106008 
L 158.652383 64.909763 
L 158.977363 64.325694 
L 159.302342 63.27362 
L 160.60226 61.534328 
L 161.902179 60.250461 
L 162.552138 59.675413 
L 162.877117 59.182235 
L 164.502015 58.550903 
L 165.801933 58.428512 
L 166.776871 58.668848 
L 167.42683 58.972537 
L 168.401769 59.999138 
L 169.376708 61.088573 
L 170.351646 62.526121 
L 171.001605 63.862133 
L 171.326585 65.471001 
L 172.301523 68.313806 
L 173.276462 71.753533 
L 173.926421 74.715556 
L 174.2514 76.422743 
L 174.57638 80.034076 
L 175.551319 86.024732 
L 176.526257 94.173723 
L 177.176216 99.85891 
L 177.501196 99.85891 
L 177.826175 105.442652 
L 179.776052 121.882627 
L 180.101032 127.594242 
L 182.050909 145.788096 
L 182.375889 152.227181 
L 184.975725 179.400086 
L 185.300704 186.285828 
L 186.925602 204.635867 
L 187.250581 211.470447 
L 187.575561 211.470447 
L 187.900541 218.159112 
L 189.525438 233.753874 
L 189.850418 239.419861 
L 191.150336 249.783665 
L 191.800295 254.290064 
L 192.125274 256.15527 
L 192.450254 260.914414 
L 193.100213 265.142777 
L 193.750172 268.27053 
L 194.725111 272.033091 
L 195.700049 274.966654 
L 196.025029 277.093102 
L 197.324947 281.491462 
L 197.649926 285.100341 
L 197.974906 286.969192 
L 198.299885 286.969192 
L 198.624865 287.243031 
L 199.274824 288.314333 
L 199.599803 289.26001 
L 200.574742 290.361992 
L 200.899722 290.66541 
L 201.224701 290.66541 
L 201.549681 291.179144 
L 203.174578 292.215331 
L 204.474496 292.589285 
L 206.099394 292.781085 
L 207.399312 292.673114 
L 209.349189 291.809182 
L 209.999148 291.110414 
L 210.974087 290.150267 
L 211.949025 288.857559 
L 212.598984 287.824862 
L 212.923964 286.59674 
L 213.573923 285.372961 
L 214.223882 283.056057 
L 214.548862 281.549594 
L 214.873841 281.265552 
L 215.198821 280.724376 
L 215.84878 278.949377 
L 216.498739 276.253291 
L 217.148698 272.884658 
L 217.473677 269.379277 
L 217.798657 269.379277 
L 218.123636 265.758605 
L 220.073514 252.944231 
L 220.398493 248.049913 
L 220.723473 248.049913 
L 221.048452 242.91458 
L 222.998329 226.438721 
L 223.323309 219.91584 
L 223.973268 213.594211 
L 224.298247 213.594211 
L 224.623227 207.090234 
L 225.923145 194.106586 
L 226.248124 187.698803 
L 226.573104 187.698803 
L 226.898084 180.424181 
L 228.847961 158.05398 
L 229.17294 150.162241 
L 230.147879 139.186019 
L 230.472858 132.254174 
L 232.747715 108.631398 
L 233.072695 102.629325 
L 233.722654 97.974167 
L 234.047633 93.616766 
L 234.697592 89.387194 
L 235.022572 86.251128 
L 236.32249 80.265367 
L 236.647469 79.059815 
L 236.972449 76.901405 
L 238.272367 72.804204 
L 239.897265 68.315408 
L 240.222244 67.514283 
L 240.547224 65.940662 
L 243.14706 60.827579 
L 243.472039 60.359748 
L 243.797019 59.42316 
L 245.421916 57.230166 
L 247.046814 55.519233 
L 248.346732 54.855125 
L 249.97163 54.689142 
L 251.271548 54.87988 
L 251.596527 54.990737 
L 252.246486 55.372127 
L 253.546405 56.184619 
L 253.871384 56.444674 
L 254.196364 57.244902 
L 254.521343 57.244902 
L 254.846323 58.146197 
L 255.821261 59.969761 
L 256.47122 61.427976 
L 256.7962 62.345561 
L 257.121179 64.239123 
L 258.096118 67.548544 
L 259.071057 71.907633 
L 259.396036 74.87202 
L 260.045995 77.970874 
L 261.020934 83.392362 
L 261.345913 85.360188 
L 261.670893 89.869078 
L 263.945749 106.214637 
L 264.270729 111.333956 
L 266.545586 130.363499 
L 266.870565 136.292345 
L 268.170483 148.907613 
L 268.495463 155.64002 
L 270.770319 181.354418 
L 271.745258 192.664893 
L 272.070238 200.008142 
L 274.020115 220.304717 
L 274.345094 223.460487 
L 274.670074 229.599347 
L 276.294971 243.38804 
L 276.94493 248.13143 
L 277.26991 252.561916 
L 278.569828 260.473266 
L 278.894808 264.051514 
L 280.844685 273.410182 
L 281.494644 276.152802 
L 281.819623 279.037148 
L 282.469582 281.537753 
L 283.119541 283.151594 
L 283.7695 284.321009 
L 284.09448 284.623804 
L 284.419459 284.751452 
L 284.744439 285.297294 
L 285.069419 285.537583 
L 286.044357 286.849804 
L 287.994234 289.82235 
L 288.969173 290.375939 
L 289.294152 290.525985 
L 290.269091 290.511457 
L 291.244029 290.283258 
L 291.569009 290.168362 
L 292.218968 289.654644 
L 292.868927 289.165353 
L 293.193907 289.939766 
L 293.843866 289.367557 
L 294.818804 288.023903 
L 295.468763 285.891604 
L 296.443702 282.745653 
L 297.093661 280.321669 
L 297.41864 277.770971 
L 299.368518 270.025167 
L 300.018477 266.214073 
L 300.343456 261.877912 
L 301.643374 252.47765 
L 302.293333 247.398468 
L 302.618313 241.842409 
L 304.24321 227.316365 
L 304.56819 219.738403 
L 304.89317 219.738403 
L 305.218149 212.822617 
L 306.193088 202.780787 
L 306.518067 196.590867 
L 309.767862 158.43579 
L 310.092842 150.533624 
L 311.71774 132.865402 
L 312.042719 125.848511 
L 313.017658 117.367206 
L 313.342637 112.146553 
L 314.642555 102.734538 
L 314.967535 95.012799 
L 315.292514 90.754295 
L 315.942473 86.425622 
L 316.917412 82.106732 
L 318.21733 79.350653 
L 318.54231 74.251933 
L 318.867289 72.844533 
L 319.192269 72.42794 
L 319.517248 71.591947 
L 319.842228 69.716265 
L 321.792105 65.104547 
L 322.117084 63.691988 
L 323.417002 61.337078 
L 323.741982 60.397013 
L 324.716921 59.055702 
L 325.0419 58.651174 
L 325.36688 57.846669 
L 328.616675 54.471277 
L 329.266634 54.142816 
L 329.916593 53.975188 
L 330.891532 53.568 
L 332.516429 53.676325 
L 333.491368 54.034414 
L 334.141327 54.448933 
L 334.791286 55.640464 
L 335.116265 56.007111 
L 336.416183 58.579885 
L 336.741163 59.45257 
L 337.066143 59.073478 
L 337.391122 60.146165 
L 337.716102 61.93509 
L 338.041081 62.864478 
L 339.340999 68.039575 
L 339.665979 71.40259 
L 341.940835 84.862056 
L 342.265815 89.696184 
L 344.215692 105.195383 
L 344.540672 108.11073 
L 344.865651 113.380587 
L 346.490549 127.916345 
L 346.815528 131.096832 
L 347.140508 137.475619 
L 349.090385 156.722656 
L 349.415364 163.772954 
L 350.715283 177.887895 
L 351.040262 184.859134 
L 352.990139 205.582664 
L 353.315119 212.285439 
L 355.264996 231.429486 
L 355.589975 237.368617 
L 358.839771 264.566636 
L 359.48973 267.293535 
L 359.814709 269.770392 
L 360.789648 273.927349 
L 362.089566 280.462197 
L 362.739525 286.030708 
L 363.714464 288.403582 
L 364.364423 289.567851 
L 364.689402 290.497023 
L 365.664341 291.558142 
L 366.964259 292.614488 
L 367.939197 292.906684 
L 369.239115 293.005803 
L 370.539034 292.562971 
L 370.864013 292.367483 
L 371.513972 291.523337 
L 372.488911 290.187287 
L 373.13887 288.973031 
L 373.788829 287.473361 
L 374.113808 285.615568 
L 375.088747 282.173891 
L 376.063686 277.94666 
L 376.713645 274.675192 
L 377.038624 270.872293 
L 378.338542 262.321819 
L 380.288419 247.706366 
L 380.938378 237.85578 
L 382.888256 217.728447 
L 383.213235 210.445664 
L 385.488092 185.174461 
L 385.813071 178.517219 
L 386.138051 174.450401 
L 386.46303 174.450401 
L 386.78801 166.345851 
L 388.087928 151.758506 
L 388.412907 144.444334 
L 389.387846 133.587032 
L 390.037805 127.093401 
L 390.362785 120.874483 
L 390.687764 118.263461 
L 391.012744 118.263461 
L 391.337723 113.351907 
L 392.962621 102.333537 
L 393.2876 93.018408 
L 394.262539 86.946843 
L 395.237477 82.836786 
L 395.562457 80.357536 
L 395.887437 78.958192 
L 396.212416 74.18796 
L 396.537396 71.481313 
L 397.187355 69.628174 
L 397.512334 68.943847 
L 397.837314 67.677468 
L 398.162293 66.941448 
L 398.487273 65.591486 
L 398.487273 65.591486 
" clip-path="url(#p9ac9eac79a)" style="fill: none; stroke: #ff7f0e; stroke-width: 1.5; stroke-linecap: square"/>
   </g>
   <g id="line2d_17">
    <path d="M 73.832727 204.122147 
L 74.482686 204.433467 
L 76.107584 204.968067 
L 76.432563 205.271833 
L 78.382441 206.237593 
L 78.70742 206.638292 
L 79.357379 206.77244 
L 80.332318 207.202555 
L 82.282195 208.231179 
L 82.932154 208.544901 
L 86.506929 209.791241 
L 88.456806 209.913218 
L 89.431744 209.77285 
L 91.056642 209.104706 
L 93.331499 207.684647 
L 94.306437 206.945523 
L 95.281376 206.248156 
L 96.256314 205.210242 
L 96.906274 203.976868 
L 97.556233 203.109642 
L 98.531171 202.001262 
L 99.18113 200.595857 
L 99.50611 200.595857 
L 99.831089 199.509791 
L 100.806028 197.709436 
L 101.455987 196.800316 
L 101.780966 196.394485 
L 102.105946 194.772656 
L 102.430925 194.144139 
L 102.755905 193.25911 
L 103.080885 192.841033 
L 104.055823 189.531338 
L 104.705782 186.628413 
L 105.355741 182.712562 
L 106.33068 168.450139 
L 106.655659 168.450139 
L 106.980639 163.883269 
L 107.630598 162.662367 
L 108.280557 161.96004 
L 109.255495 161.456423 
L 110.230434 161.871484 
L 110.880393 162.826182 
L 111.205373 162.186315 
L 111.855332 160.061217 
L 112.83027 155.483247 
L 113.15525 154.774902 
L 113.480229 154.39526 
L 113.805209 154.296035 
L 114.130188 154.39304 
L 114.780147 154.939693 
L 115.105127 155.352252 
L 115.755086 163.725836 
L 116.080066 164.066998 
L 117.055004 164.258143 
L 118.029943 164.397561 
L 119.329861 164.272234 
L 120.304799 164.087914 
L 122.904636 163.964844 
L 123.879574 164.774714 
L 124.529533 165.330471 
L 125.504472 166.424023 
L 125.829451 166.369176 
L 126.47941 166.979559 
L 126.80439 167.410032 
L 127.129369 167.534366 
L 128.104308 168.359885 
L 128.754267 168.796033 
L 129.079247 169.090455 
L 129.404226 169.016292 
L 129.729206 168.184103 
L 130.054185 166.761268 
L 130.704144 165.164199 
L 131.029124 164.679457 
L 131.679083 164.313966 
L 132.004062 164.312522 
L 132.329042 166.299388 
L 132.654021 167.053219 
L 133.62896 167.008834 
L 133.953939 166.79108 
L 135.253857 165.385777 
L 135.903817 165.252165 
L 136.553776 164.981979 
L 136.878755 164.643698 
L 138.828632 163.720534 
L 139.153612 163.891624 
L 139.478591 163.57191 
L 139.803571 163.642909 
L 140.12855 164.03965 
L 140.45353 164.076172 
L 140.778509 164.629396 
L 141.103489 164.738303 
L 141.428468 165.055965 
L 141.753448 166.017801 
L 142.403407 167.015754 
L 143.378346 168.59546 
L 143.703325 169.061752 
L 144.028305 169.837995 
L 144.678264 170.841296 
L 145.003243 172.370373 
L 145.328223 172.207239 
L 145.653202 172.660049 
L 146.628141 174.697992 
L 147.2781 175.795747 
L 148.253038 176.988462 
L 148.578018 177.685029 
L 149.227977 178.324479 
L 149.552957 178.688745 
L 149.877936 178.719847 
L 150.202916 178.935407 
L 150.527895 179.501505 
L 150.852875 179.587748 
L 151.502834 180.168163 
L 151.827813 180.033496 
L 152.152793 180.268977 
L 152.477772 180.287723 
L 153.127731 180.667933 
L 153.452711 180.495415 
L 154.10267 180.647387 
L 154.427649 180.943111 
L 154.752629 181.06032 
L 155.402588 181.738458 
L 155.727568 181.736282 
L 156.052547 181.943993 
L 156.377527 181.961683 
L 157.352465 182.541527 
L 157.677445 182.981004 
L 158.327404 183.462033 
L 158.652383 183.937211 
L 158.977363 184.019205 
L 159.302342 184.223076 
L 159.952301 184.399607 
L 161.577199 184.957324 
L 162.227158 185.007087 
L 162.877117 185.115596 
L 163.527076 185.224191 
L 164.826994 185.245584 
L 165.801933 185.231693 
L 167.42683 184.776575 
L 167.75181 184.450946 
L 169.051728 183.850473 
L 170.026667 183.008378 
L 170.351646 183.016408 
L 171.001605 182.625118 
L 171.326585 182.084451 
L 172.626503 181.03556 
L 173.926421 179.740503 
L 174.90136 179.268476 
L 175.226339 179.277837 
L 175.876298 179.442552 
L 176.201278 179.354109 
L 176.851237 178.770106 
L 177.176216 176.975776 
L 177.501196 176.975776 
L 177.826175 179.381927 
L 178.801114 177.493822 
L 179.126093 177.30418 
L 179.451073 176.851591 
L 180.101032 176.217763 
L 180.750991 175.709767 
L 182.700868 174.364592 
L 183.350827 174.264003 
L 183.675807 173.946835 
L 184.000786 173.808776 
L 184.650745 173.889875 
L 184.975725 173.744134 
L 185.300704 173.387534 
L 185.625684 173.41553 
L 186.275643 173.110616 
L 186.600622 173.401239 
L 186.925602 173.207549 
L 187.250581 172.637734 
L 187.575561 172.637734 
L 187.900541 171.994679 
L 188.22552 171.626404 
L 188.875479 171.410806 
L 189.525438 171.448458 
L 190.175397 170.725702 
L 190.500377 170.33381 
L 191.475315 169.788615 
L 191.800295 169.918765 
L 192.125274 169.607848 
L 192.450254 170.231291 
L 192.775233 171.176641 
L 193.100213 171.458231 
L 193.425192 171.257916 
L 194.075152 170.325565 
L 194.400131 170.086756 
L 196.025029 165.068576 
L 196.350008 164.680774 
L 196.674988 164.545063 
L 196.999967 164.585156 
L 197.324947 164.794329 
L 197.974906 174.500085 
L 198.299885 174.500085 
L 198.624865 171.969226 
L 202.19964 171.736407 
L 202.849599 171.39348 
L 203.824537 170.95678 
L 204.799476 170.352995 
L 205.124455 170.145925 
L 205.449435 169.66036 
L 206.749353 168.750767 
L 208.049271 168.189833 
L 209.349189 168.219876 
L 209.674169 168.416426 
L 210.649107 168.679481 
L 211.949025 169.089451 
L 212.598984 169.360771 
L 213.573923 170.301409 
L 213.898903 169.81221 
L 214.223882 168.557574 
L 214.548862 168.779579 
L 215.198821 172.301744 
L 215.5238 173.372713 
L 215.84878 173.800836 
L 216.173759 173.864034 
L 216.498739 173.687823 
L 217.148698 172.876795 
L 217.473677 170.937286 
L 217.798657 170.937286 
L 218.123636 169.93003 
L 218.448616 169.482393 
L 218.773595 169.501549 
L 219.098575 169.748176 
L 219.748534 169.621887 
L 220.073514 169.772448 
L 220.398493 170.139911 
L 220.723473 170.139911 
L 221.048452 170.857133 
L 222.023391 171.978258 
L 222.998329 172.792931 
L 223.323309 173.51588 
L 223.973268 174.231543 
L 224.298247 174.231543 
L 224.623227 175.203638 
L 225.923145 177.224424 
L 226.248124 178.121247 
L 226.573104 178.121247 
L 226.898084 178.895268 
L 227.223063 179.28659 
L 228.198002 179.919715 
L 228.522981 180.307666 
L 228.847961 181.051844 
L 229.17294 180.968006 
L 229.49792 181.43706 
L 229.822899 181.680221 
L 231.772776 181.934544 
L 232.747715 181.897417 
L 233.397674 181.990162 
L 233.722654 182.292949 
L 234.047633 181.940909 
L 234.372613 183.007252 
L 234.697592 183.262241 
L 235.022572 184.05141 
L 235.347551 184.307226 
L 235.99751 184.278784 
L 237.297428 184.501229 
L 237.622408 184.799237 
L 240.222244 185.819934 
L 240.547224 186.235171 
L 241.197183 186.544836 
L 241.522162 187.086931 
L 241.847142 186.834409 
L 242.497101 186.930607 
L 242.82208 187.071273 
L 243.14706 187.058552 
L 244.121998 187.560441 
L 244.771957 187.44488 
L 246.396855 187.827893 
L 246.721835 188.084985 
L 247.696773 188.26474 
L 248.346732 188.609995 
L 248.996691 188.771917 
L 249.321671 188.814632 
L 249.97163 189.09961 
L 250.946568 189.391769 
L 252.246486 189.65013 
L 253.871384 189.438939 
L 254.521343 189.52378 
L 255.171302 189.369923 
L 255.821261 189.104332 
L 256.7962 188.358895 
L 257.121179 187.85764 
L 258.421097 186.771799 
L 258.746077 186.385893 
L 259.071057 186.2981 
L 259.721016 184.345472 
L 263.62077 177.460954 
L 263.945749 176.878314 
L 264.270729 175.760128 
L 264.920688 175.085113 
L 265.570647 174.201795 
L 265.895627 173.716392 
L 266.545586 173.193964 
L 267.520524 171.93735 
L 267.845504 171.76729 
L 268.495463 170.69407 
L 268.820442 170.623099 
L 269.470401 169.874326 
L 270.770319 168.706966 
L 271.095299 168.556878 
L 271.745258 167.879159 
L 272.070238 167.137435 
L 274.345094 164.364721 
L 274.670074 163.711162 
L 275.320033 162.904302 
L 276.294971 161.264634 
L 276.94493 159.833351 
L 277.26991 158.453576 
L 278.569828 155.735738 
L 278.894808 154.358589 
L 279.544767 153.29505 
L 280.844685 151.724939 
L 281.494644 151.27983 
L 282.144603 151.847214 
L 282.469582 152.003435 
L 282.794562 151.832277 
L 283.7695 150.338384 
L 284.09448 149.264139 
L 284.744439 145.863605 
L 285.069419 144.793246 
L 285.719378 144.336448 
L 286.044357 144.522337 
L 286.694316 145.446572 
L 287.344275 146.756327 
L 287.669255 148.170869 
L 287.994234 149.016082 
L 288.969173 150.488453 
L 289.294152 151.187267 
L 289.944111 151.691401 
L 291.244029 152.486539 
L 291.569009 152.745302 
L 292.218968 153.754931 
L 292.868927 154.5542 
L 293.193907 158.421415 
L 293.843866 160.568897 
L 294.818804 162.058577 
L 295.143784 162.778058 
L 295.793743 162.709557 
L 296.118722 162.29971 
L 296.443702 162.237715 
L 296.768681 161.919481 
L 297.41864 162.373615 
L 297.74362 162.883532 
L 299.043538 166.264597 
L 299.368518 167.85158 
L 299.693497 168.717115 
L 300.018477 168.885687 
L 300.668436 169.590168 
L 301.318395 170.606913 
L 303.593251 174.411064 
L 303.918231 174.746185 
L 304.24321 175.375029 
L 304.56819 175.759629 
L 304.89317 175.759629 
L 305.218149 176.114113 
L 306.193088 176.698599 
L 306.518067 177.178398 
L 308.142965 178.432425 
L 308.467944 178.32124 
L 308.792924 178.084434 
L 309.117903 178.157968 
L 309.767862 178.709807 
L 310.092842 178.001781 
L 310.417821 178.419587 
L 311.067781 178.841662 
L 311.39276 178.741699 
L 311.71774 178.848571 
L 312.367699 178.691345 
L 312.692678 178.936712 
L 313.017658 178.642985 
L 313.342637 178.069519 
L 313.667617 178.232349 
L 313.992596 177.882632 
L 314.317576 178.02986 
L 314.642555 177.876298 
L 314.967535 175.968798 
L 315.292514 177.74924 
L 315.617494 177.766011 
L 316.267453 177.548427 
L 316.592432 177.665349 
L 316.917412 177.507794 
L 317.242391 177.144046 
L 317.567371 177.36645 
L 317.892351 177.159706 
L 318.21733 177.512492 
L 318.54231 176.525876 
L 318.867289 176.961856 
L 319.192269 178.42496 
L 319.517248 178.662226 
L 319.842228 179.049077 
L 320.492187 179.286205 
L 321.792105 179.869794 
L 322.117084 180.362699 
L 323.092023 180.809116 
L 323.417002 180.904838 
L 323.741982 181.302866 
L 328.941654 184.175659 
L 329.591613 184.667085 
L 330.241572 184.70681 
L 330.566552 185.001249 
L 332.19145 185.356573 
L 335.116265 185.186494 
L 336.741163 184.944296 
L 337.066143 184.408246 
L 337.391122 185.152666 
L 337.716102 185.072159 
L 338.041081 184.836195 
L 339.340999 185.516769 
L 339.665979 185.359827 
L 340.315938 185.524989 
L 340.640917 185.172125 
L 340.965897 185.260402 
L 341.290876 185.220115 
L 341.615856 184.872059 
L 343.240753 185.116886 
L 343.565733 184.740205 
L 343.890713 184.713797 
L 344.215692 184.403023 
L 344.540672 184.552055 
L 345.190631 183.821975 
L 345.84059 183.180947 
L 348.440426 180.448119 
L 348.765405 180.235718 
L 349.415364 179.08831 
L 349.740344 179.112973 
L 350.065324 178.798648 
L 350.390303 178.661884 
L 350.715283 178.399641 
L 351.040262 177.575036 
L 351.365242 177.370369 
L 352.34018 176.3813 
L 352.990139 175.634359 
L 353.315119 174.775613 
L 353.965078 174.018667 
L 354.615037 173.585412 
L 355.914955 173.056783 
L 356.564914 172.586548 
L 358.189812 172.323943 
L 358.514791 172.559115 
L 358.839771 172.608169 
L 359.16475 171.965841 
L 359.48973 170.916605 
L 359.814709 168.562214 
L 360.789648 165.458992 
L 361.114627 164.917743 
L 361.439607 164.641782 
L 361.764586 164.973167 
L 362.414545 168.366645 
L 362.739525 172.93081 
L 363.064505 174.858613 
L 363.389484 175.262602 
L 364.364423 175.898118 
L 364.689402 176.42475 
L 365.664341 176.90521 
L 367.939197 177.368147 
L 368.589156 177.36934 
L 369.239115 177.147556 
L 369.564095 176.886493 
L 370.214054 176.765936 
L 371.188993 176.935228 
L 372.163931 177.223759 
L 373.788829 177.972211 
L 375.738706 180.650386 
L 377.038624 181.612833 
L 379.313481 182.892469 
L 379.96344 183.444438 
L 380.288419 183.485281 
L 380.613399 183.050267 
L 381.263358 181.319629 
L 381.588337 181.494877 
L 382.238296 182.125364 
L 383.213235 182.124559 
L 384.838133 182.132618 
L 385.163112 182.333912 
L 385.813071 182.298438 
L 386.138051 182.556542 
L 386.78801 182.618531 
L 387.112989 182.725291 
L 388.087928 183.442304 
L 388.412907 182.878721 
L 388.737887 182.83543 
L 390.362785 183.890545 
L 390.687764 183.75783 
L 391.337723 183.781408 
L 391.662703 184.062661 
L 391.987682 183.681171 
L 392.312662 183.996343 
L 392.637641 183.74555 
L 392.962621 184.112571 
L 393.61258 185.068216 
L 394.262539 185.42432 
L 394.912498 185.939783 
L 395.237477 186.038656 
L 395.562457 185.969131 
L 396.212416 184.435045 
L 397.512334 191.331683 
L 397.837314 192.10331 
L 398.162293 192.222286 
L 398.487273 190.961716 
L 398.487273 190.961716 
" clip-path="url(#p9ac9eac79a)" style="fill: none; stroke: #2ca02c; stroke-width: 1.5; stroke-linecap: square"/>
   </g>
   <g id="patch_3">
    <path d="M 57.6 307.584 
L 57.6 41.472 
" style="fill: none; stroke: #000000; stroke-width: 0.8; stroke-linejoin: miter; stroke-linecap: square"/>
   </g>
   <g id="patch_4">
    <path d="M 414.72 307.584 
L 414.72 41.472 
" style="fill: none; stroke: #000000; stroke-width: 0.8; stroke-linejoin: miter; stroke-linecap: square"/>
   </g>
   <g id="patch_5">
    <path d="M 57.6 307.584 
L 414.72 307.584 
" style="fill: none; stroke: #000000; stroke-width: 0.8; stroke-linejoin: miter; stroke-linecap: square"/>
   </g>
   <g id="patch_6">
    <path d="M 57.6 41.472 
L 414.72 41.472 
" style="fill: none; stroke: #000000; stroke-width: 0.8; stroke-linejoin: miter; stroke-linecap: square"/>
   </g>
   <g id="text_17">
    <!-- Change in rotation components for moving right hand left and right -->
    <g transform="translate(-17.580234 35.472)scale(0.15 -0.15)">
     <defs>
      <path id="DejaVuSans-43" d="M 4122 4306 
L 4122 3641 
Q 3803 3938 3442 4084 
Q 3081 4231 2675 4231 
Q 1875 4231 1450 3742 
Q 1025 3253 1025 2328 
Q 1025 1406 1450 917 
Q 1875 428 2675 428 
Q 3081 428 3442 575 
Q 3803 722 4122 1019 
L 4122 359 
Q 3791 134 3420 21 
Q 3050 -91 2638 -91 
Q 1578 -91 968 557 
Q 359 1206 359 2328 
Q 359 3453 968 4101 
Q 1578 4750 2638 4750 
Q 3056 4750 3426 4639 
Q 3797 4528 4122 4306 
z
" transform="scale(0.015625)"/>
      <path id="DejaVuSans-68" d="M 3513 2113 
L 3513 0 
L 2938 0 
L 2938 2094 
Q 2938 2591 2744 2837 
Q 2550 3084 2163 3084 
Q 1697 3084 1428 2787 
Q 1159 2491 1159 1978 
L 1159 0 
L 581 0 
L 581 4863 
L 1159 4863 
L 1159 2956 
Q 1366 3272 1645 3428 
Q 1925 3584 2291 3584 
Q 2894 3584 3203 3211 
Q 3513 2838 3513 2113 
z
" transform="scale(0.015625)"/>
      <path id="DejaVuSans-20" transform="scale(0.015625)"/>
      <path id="DejaVuSans-72" d="M 2631 2963 
Q 2534 3019 2420 3045 
Q 2306 3072 2169 3072 
Q 1681 3072 1420 2755 
Q 1159 2438 1159 1844 
L 1159 0 
L 581 0 
L 581 3500 
L 1159 3500 
L 1159 2956 
Q 1341 3275 1631 3429 
Q 1922 3584 2338 3584 
Q 2397 3584 2469 3576 
Q 2541 3569 2628 3553 
L 2631 2963 
z
" transform="scale(0.015625)"/>
      <path id="DejaVuSans-6f" d="M 1959 3097 
Q 1497 3097 1228 2736 
Q 959 2375 959 1747 
Q 959 1119 1226 758 
Q 1494 397 1959 397 
Q 2419 397 2687 759 
Q 2956 1122 2956 1747 
Q 2956 2369 2687 2733 
Q 2419 3097 1959 3097 
z
M 1959 3584 
Q 2709 3584 3137 3096 
Q 3566 2609 3566 1747 
Q 3566 888 3137 398 
Q 2709 -91 1959 -91 
Q 1206 -91 779 398 
Q 353 888 353 1747 
Q 353 2609 779 3096 
Q 1206 3584 1959 3584 
z
" transform="scale(0.015625)"/>
      <path id="DejaVuSans-63" d="M 3122 3366 
L 3122 2828 
Q 2878 2963 2633 3030 
Q 2388 3097 2138 3097 
Q 1578 3097 1268 2742 
Q 959 2388 959 1747 
Q 959 1106 1268 751 
Q 1578 397 2138 397 
Q 2388 397 2633 464 
Q 2878 531 3122 666 
L 3122 134 
Q 2881 22 2623 -34 
Q 2366 -91 2075 -91 
Q 1284 -91 818 406 
Q 353 903 353 1747 
Q 353 2603 823 3093 
Q 1294 3584 2113 3584 
Q 2378 3584 2631 3529 
Q 2884 3475 3122 3366 
z
" transform="scale(0.015625)"/>
      <path id="DejaVuSans-66" d="M 2375 4863 
L 2375 4384 
L 1825 4384 
Q 1516 4384 1395 4259 
Q 1275 4134 1275 3809 
L 1275 3500 
L 2222 3500 
L 2222 3053 
L 1275 3053 
L 1275 0 
L 697 0 
L 697 3053 
L 147 3053 
L 147 3500 
L 697 3500 
L 697 3744 
Q 697 4328 969 4595 
Q 1241 4863 1831 4863 
L 2375 4863 
z
" transform="scale(0.015625)"/>
      <path id="DejaVuSans-76" d="M 191 3500 
L 800 3500 
L 1894 563 
L 2988 3500 
L 3597 3500 
L 2284 0 
L 1503 0 
L 191 3500 
z
" transform="scale(0.015625)"/>
      <path id="DejaVuSans-6c" d="M 603 4863 
L 1178 4863 
L 1178 0 
L 603 0 
L 603 4863 
z
" transform="scale(0.015625)"/>
     </defs>
     <use xlink:href="#DejaVuSans-43"/>
     <use xlink:href="#DejaVuSans-68" x="69.824219"/>
     <use xlink:href="#DejaVuSans-61" x="133.203125"/>
     <use xlink:href="#DejaVuSans-6e" x="194.482422"/>
     <use xlink:href="#DejaVuSans-67" x="257.861328"/>
     <use xlink:href="#DejaVuSans-65" x="321.337891"/>
     <use xlink:href="#DejaVuSans-20" x="382.861328"/>
     <use xlink:href="#DejaVuSans-69" x="414.648438"/>
     <use xlink:href="#DejaVuSans-6e" x="442.431641"/>
     <use xlink:href="#DejaVuSans-20" x="505.810547"/>
     <use xlink:href="#DejaVuSans-72" x="537.597656"/>
     <use xlink:href="#DejaVuSans-6f" x="576.460938"/>
     <use xlink:href="#DejaVuSans-74" x="637.642578"/>
     <use xlink:href="#DejaVuSans-61" x="676.851562"/>
     <use xlink:href="#DejaVuSans-74" x="738.130859"/>
     <use xlink:href="#DejaVuSans-69" x="777.339844"/>
     <use xlink:href="#DejaVuSans-6f" x="805.123047"/>
     <use xlink:href="#DejaVuSans-6e" x="866.304688"/>
     <use xlink:href="#DejaVuSans-20" x="929.683594"/>
     <use xlink:href="#DejaVuSans-63" x="961.470703"/>
     <use xlink:href="#DejaVuSans-6f" x="1016.451172"/>
     <use xlink:href="#DejaVuSans-6d" x="1077.632812"/>
     <use xlink:href="#DejaVuSans-70" x="1175.044922"/>
     <use xlink:href="#DejaVuSans-6f" x="1238.521484"/>
     <use xlink:href="#DejaVuSans-6e" x="1299.703125"/>
     <use xlink:href="#DejaVuSans-65" x="1363.082031"/>
     <use xlink:href="#DejaVuSans-6e" x="1424.605469"/>
     <use xlink:href="#DejaVuSans-74" x="1487.984375"/>
     <use xlink:href="#DejaVuSans-73" x="1527.193359"/>
     <use xlink:href="#DejaVuSans-20" x="1579.292969"/>
     <use xlink:href="#DejaVuSans-66" x="1611.080078"/>
     <use xlink:href="#DejaVuSans-6f" x="1646.285156"/>
     <use xlink:href="#DejaVuSans-72" x="1707.466797"/>
     <use xlink:href="#DejaVuSans-20" x="1748.580078"/>
     <use xlink:href="#DejaVuSans-6d" x="1780.367188"/>
     <use xlink:href="#DejaVuSans-6f" x="1877.779297"/>
     <use xlink:href="#DejaVuSans-76" x="1938.960938"/>
     <use xlink:href="#DejaVuSans-69" x="1998.140625"/>
     <use xlink:href="#DejaVuSans-6e" x="2025.923828"/>
     <use xlink:href="#DejaVuSans-67" x="2089.302734"/>
     <use xlink:href="#DejaVuSans-20" x="2152.779297"/>
     <use xlink:href="#DejaVuSans-72" x="2184.566406"/>
     <use xlink:href="#DejaVuSans-69" x="2225.679688"/>
     <use xlink:href="#DejaVuSans-67" x="2253.462891"/>
     <use xlink:href="#DejaVuSans-68" x="2316.939453"/>
     <use xlink:href="#DejaVuSans-74" x="2380.318359"/>
     <use xlink:href="#DejaVuSans-20" x="2419.527344"/>
     <use xlink:href="#DejaVuSans-68" x="2451.314453"/>
     <use xlink:href="#DejaVuSans-61" x="2514.693359"/>
     <use xlink:href="#DejaVuSans-6e" x="2575.972656"/>
     <use xlink:href="#DejaVuSans-64" x="2639.351562"/>
     <use xlink:href="#DejaVuSans-20" x="2702.828125"/>
     <use xlink:href="#DejaVuSans-6c" x="2734.615234"/>
     <use xlink:href="#DejaVuSans-65" x="2762.398438"/>
     <use xlink:href="#DejaVuSans-66" x="2823.921875"/>
     <use xlink:href="#DejaVuSans-74" x="2857.376953"/>
     <use xlink:href="#DejaVuSans-20" x="2896.585938"/>
     <use xlink:href="#DejaVuSans-61" x="2928.373047"/>
     <use xlink:href="#DejaVuSans-6e" x="2989.652344"/>
     <use xlink:href="#DejaVuSans-64" x="3053.03125"/>
     <use xlink:href="#DejaVuSans-20" x="3116.507812"/>
     <use xlink:href="#DejaVuSans-72" x="3148.294922"/>
     <use xlink:href="#DejaVuSans-69" x="3189.408203"/>
     <use xlink:href="#DejaVuSans-67" x="3217.191406"/>
     <use xlink:href="#DejaVuSans-68" x="3280.667969"/>
     <use xlink:href="#DejaVuSans-74" x="3344.046875"/>
    </g>
   </g>
   <g id="legend_1">
    <g id="patch_7">
     <path d="M 64.6 93.506375 
L 121.185937 93.506375 
Q 123.185937 93.506375 123.185937 91.506375 
L 123.185937 48.472 
Q 123.185937 46.472 121.185937 46.472 
L 64.6 46.472 
Q 62.6 46.472 62.6 48.472 
L 62.6 91.506375 
Q 62.6 93.506375 64.6 93.506375 
z
" style="fill: #ffffff; opacity: 0.8; stroke: #cccccc; stroke-linejoin: miter"/>
    </g>
    <g id="line2d_18">
     <path d="M 66.6 54.570438 
L 76.6 54.570438 
L 86.6 54.570438 
" style="fill: none; stroke: #1f77b4; stroke-width: 1.5; stroke-linecap: square"/>
    </g>
    <g id="text_18">
     <!-- idx 0 -->
     <g transform="translate(94.6 58.070438)scale(0.1 -0.1)">
      <defs>
       <path id="DejaVuSans-78" d="M 3513 3500 
L 2247 1797 
L 3578 0 
L 2900 0 
L 1881 1375 
L 863 0 
L 184 0 
L 1544 1831 
L 300 3500 
L 978 3500 
L 1906 2253 
L 2834 3500 
L 3513 3500 
z
" transform="scale(0.015625)"/>
      </defs>
      <use xlink:href="#DejaVuSans-69"/>
      <use xlink:href="#DejaVuSans-64" x="27.783203"/>
      <use xlink:href="#DejaVuSans-78" x="91.259766"/>
      <use xlink:href="#DejaVuSans-20" x="150.439453"/>
      <use xlink:href="#DejaVuSans-30" x="182.226562"/>
     </g>
    </g>
    <g id="line2d_19">
     <path d="M 66.6 69.248563 
L 76.6 69.248563 
L 86.6 69.248563 
" style="fill: none; stroke: #ff7f0e; stroke-width: 1.5; stroke-linecap: square"/>
    </g>
    <g id="text_19">
     <!-- idx 1 -->
     <g transform="translate(94.6 72.748563)scale(0.1 -0.1)">
      <use xlink:href="#DejaVuSans-69"/>
      <use xlink:href="#DejaVuSans-64" x="27.783203"/>
      <use xlink:href="#DejaVuSans-78" x="91.259766"/>
      <use xlink:href="#DejaVuSans-20" x="150.439453"/>
      <use xlink:href="#DejaVuSans-31" x="182.226562"/>
     </g>
    </g>
    <g id="line2d_20">
     <path d="M 66.6 83.926688 
L 76.6 83.926688 
L 86.6 83.926688 
" style="fill: none; stroke: #2ca02c; stroke-width: 1.5; stroke-linecap: square"/>
    </g>
    <g id="text_20">
     <!-- idx 2 -->
     <g transform="translate(94.6 87.426688)scale(0.1 -0.1)">
      <use xlink:href="#DejaVuSans-69"/>
      <use xlink:href="#DejaVuSans-64" x="27.783203"/>
      <use xlink:href="#DejaVuSans-78" x="91.259766"/>
      <use xlink:href="#DejaVuSans-20" x="150.439453"/>
      <use xlink:href="#DejaVuSans-32" x="182.226562"/>
     </g>
    </g>
   </g>
  </g>
 </g>
 <defs>
  <clipPath id="p9ac9eac79a">
   <rect x="57.6" y="41.472" width="357.12" height="266.112"/>
  </clipPath>
 </defs>
</svg>
