<?xml version="1.0" encoding="utf-8" standalone="no"?>
<!DOCTYPE svg PUBLIC "-//W3C//DTD SVG 1.1//EN"
  "http://www.w3.org/Graphics/SVG/1.1/DTD/svg11.dtd">
<svg xmlns:xlink="http://www.w3.org/1999/xlink" width="460.8pt" height="345.6pt" viewBox="0 0 460.8 345.6" xmlns="http://www.w3.org/2000/svg" version="1.1">
 <metadata>
  <rdf:RDF xmlns:dc="http://purl.org/dc/elements/1.1/" xmlns:cc="http://creativecommons.org/ns#" xmlns:rdf="http://www.w3.org/1999/02/22-rdf-syntax-ns#">
   <cc:Work>
    <dc:type rdf:resource="http://purl.org/dc/dcmitype/StillImage"/>
    <dc:date>2024-02-07T11:34:50.049694</dc:date>
    <dc:format>image/svg+xml</dc:format>
    <dc:creator>
     <cc:Agent>
      <dc:title>Matplotlib v3.5.0, https://matplotlib.org/</dc:title>
     </cc:Agent>
    </dc:creator>
   </cc:Work>
  </rdf:RDF>
 </metadata>
 <defs>
  <style type="text/css">*{stroke-linejoin: round; stroke-linecap: butt}</style>
 </defs>
 <g id="figure_1">
  <g id="patch_1">
   <path d="M 0 345.6 
L 460.8 345.6 
L 460.8 0 
L 0 0 
z
" style="fill: #ffffff"/>
  </g>
  <g id="axes_1">
   <g id="patch_2">
    <path d="M 57.6 307.584 
L 414.72 307.584 
L 414.72 41.472 
L 57.6 41.472 
z
" style="fill: #ffffff"/>
   </g>
   <g id="matplotlib.axis_1">
    <g id="xtick_1">
     <g id="line2d_1">
      <defs>
       <path id="mec03ff5cae" d="M 0 0 
L 0 3.5 
" style="stroke: #000000; stroke-width: 0.8"/>
      </defs>
      <g>
       <use xlink:href="#mec03ff5cae" x="73.832727" y="307.584" style="stroke: #000000; stroke-width: 0.8"/>
      </g>
     </g>
     <g id="text_1">
      <!-- 0 -->
      <g transform="translate(70.651477 322.182437)scale(0.1 -0.1)">
       <defs>
        <path id="DejaVuSans-30" d="M 2034 4250 
Q 1547 4250 1301 3770 
Q 1056 3291 1056 2328 
Q 1056 1369 1301 889 
Q 1547 409 2034 409 
Q 2525 409 2770 889 
Q 3016 1369 3016 2328 
Q 3016 3291 2770 3770 
Q 2525 4250 2034 4250 
z
M 2034 4750 
Q 2819 4750 3233 4129 
Q 3647 3509 3647 2328 
Q 3647 1150 3233 529 
Q 2819 -91 2034 -91 
Q 1250 -91 836 529 
Q 422 1150 422 2328 
Q 422 3509 836 4129 
Q 1250 4750 2034 4750 
z
" transform="scale(0.015625)"/>
       </defs>
       <use xlink:href="#DejaVuSans-30"/>
      </g>
     </g>
    </g>
    <g id="xtick_2">
     <g id="line2d_2">
      <g>
       <use xlink:href="#mec03ff5cae" x="138.828632" y="307.584" style="stroke: #000000; stroke-width: 0.8"/>
      </g>
     </g>
     <g id="text_2">
      <!-- 200 -->
      <g transform="translate(129.284882 322.182437)scale(0.1 -0.1)">
       <defs>
        <path id="DejaVuSans-32" d="M 1228 531 
L 3431 531 
L 3431 0 
L 469 0 
L 469 531 
Q 828 903 1448 1529 
Q 2069 2156 2228 2338 
Q 2531 2678 2651 2914 
Q 2772 3150 2772 3378 
Q 2772 3750 2511 3984 
Q 2250 4219 1831 4219 
Q 1534 4219 1204 4116 
Q 875 4013 500 3803 
L 500 4441 
Q 881 4594 1212 4672 
Q 1544 4750 1819 4750 
Q 2544 4750 2975 4387 
Q 3406 4025 3406 3419 
Q 3406 3131 3298 2873 
Q 3191 2616 2906 2266 
Q 2828 2175 2409 1742 
Q 1991 1309 1228 531 
z
" transform="scale(0.015625)"/>
       </defs>
       <use xlink:href="#DejaVuSans-32"/>
       <use xlink:href="#DejaVuSans-30" x="63.623047"/>
       <use xlink:href="#DejaVuSans-30" x="127.246094"/>
      </g>
     </g>
    </g>
    <g id="xtick_3">
     <g id="line2d_3">
      <g>
       <use xlink:href="#mec03ff5cae" x="203.824537" y="307.584" style="stroke: #000000; stroke-width: 0.8"/>
      </g>
     </g>
     <g id="text_3">
      <!-- 400 -->
      <g transform="translate(194.280787 322.182437)scale(0.1 -0.1)">
       <defs>
        <path id="DejaVuSans-34" d="M 2419 4116 
L 825 1625 
L 2419 1625 
L 2419 4116 
z
M 2253 4666 
L 3047 4666 
L 3047 1625 
L 3713 1625 
L 3713 1100 
L 3047 1100 
L 3047 0 
L 2419 0 
L 2419 1100 
L 313 1100 
L 313 1709 
L 2253 4666 
z
" transform="scale(0.015625)"/>
       </defs>
       <use xlink:href="#DejaVuSans-34"/>
       <use xlink:href="#DejaVuSans-30" x="63.623047"/>
       <use xlink:href="#DejaVuSans-30" x="127.246094"/>
      </g>
     </g>
    </g>
    <g id="xtick_4">
     <g id="line2d_4">
      <g>
       <use xlink:href="#mec03ff5cae" x="268.820442" y="307.584" style="stroke: #000000; stroke-width: 0.8"/>
      </g>
     </g>
     <g id="text_4">
      <!-- 600 -->
      <g transform="translate(259.276692 322.182437)scale(0.1 -0.1)">
       <defs>
        <path id="DejaVuSans-36" d="M 2113 2584 
Q 1688 2584 1439 2293 
Q 1191 2003 1191 1497 
Q 1191 994 1439 701 
Q 1688 409 2113 409 
Q 2538 409 2786 701 
Q 3034 994 3034 1497 
Q 3034 2003 2786 2293 
Q 2538 2584 2113 2584 
z
M 3366 4563 
L 3366 3988 
Q 3128 4100 2886 4159 
Q 2644 4219 2406 4219 
Q 1781 4219 1451 3797 
Q 1122 3375 1075 2522 
Q 1259 2794 1537 2939 
Q 1816 3084 2150 3084 
Q 2853 3084 3261 2657 
Q 3669 2231 3669 1497 
Q 3669 778 3244 343 
Q 2819 -91 2113 -91 
Q 1303 -91 875 529 
Q 447 1150 447 2328 
Q 447 3434 972 4092 
Q 1497 4750 2381 4750 
Q 2619 4750 2861 4703 
Q 3103 4656 3366 4563 
z
" transform="scale(0.015625)"/>
       </defs>
       <use xlink:href="#DejaVuSans-36"/>
       <use xlink:href="#DejaVuSans-30" x="63.623047"/>
       <use xlink:href="#DejaVuSans-30" x="127.246094"/>
      </g>
     </g>
    </g>
    <g id="xtick_5">
     <g id="line2d_5">
      <g>
       <use xlink:href="#mec03ff5cae" x="333.816347" y="307.584" style="stroke: #000000; stroke-width: 0.8"/>
      </g>
     </g>
     <g id="text_5">
      <!-- 800 -->
      <g transform="translate(324.272597 322.182437)scale(0.1 -0.1)">
       <defs>
        <path id="DejaVuSans-38" d="M 2034 2216 
Q 1584 2216 1326 1975 
Q 1069 1734 1069 1313 
Q 1069 891 1326 650 
Q 1584 409 2034 409 
Q 2484 409 2743 651 
Q 3003 894 3003 1313 
Q 3003 1734 2745 1975 
Q 2488 2216 2034 2216 
z
M 1403 2484 
Q 997 2584 770 2862 
Q 544 3141 544 3541 
Q 544 4100 942 4425 
Q 1341 4750 2034 4750 
Q 2731 4750 3128 4425 
Q 3525 4100 3525 3541 
Q 3525 3141 3298 2862 
Q 3072 2584 2669 2484 
Q 3125 2378 3379 2068 
Q 3634 1759 3634 1313 
Q 3634 634 3220 271 
Q 2806 -91 2034 -91 
Q 1263 -91 848 271 
Q 434 634 434 1313 
Q 434 1759 690 2068 
Q 947 2378 1403 2484 
z
M 1172 3481 
Q 1172 3119 1398 2916 
Q 1625 2713 2034 2713 
Q 2441 2713 2670 2916 
Q 2900 3119 2900 3481 
Q 2900 3844 2670 4047 
Q 2441 4250 2034 4250 
Q 1625 4250 1398 4047 
Q 1172 3844 1172 3481 
z
" transform="scale(0.015625)"/>
       </defs>
       <use xlink:href="#DejaVuSans-38"/>
       <use xlink:href="#DejaVuSans-30" x="63.623047"/>
       <use xlink:href="#DejaVuSans-30" x="127.246094"/>
      </g>
     </g>
    </g>
    <g id="xtick_6">
     <g id="line2d_6">
      <g>
       <use xlink:href="#mec03ff5cae" x="398.812252" y="307.584" style="stroke: #000000; stroke-width: 0.8"/>
      </g>
     </g>
     <g id="text_6">
      <!-- 1000 -->
      <g transform="translate(386.087252 322.182437)scale(0.1 -0.1)">
       <defs>
        <path id="DejaVuSans-31" d="M 794 531 
L 1825 531 
L 1825 4091 
L 703 3866 
L 703 4441 
L 1819 4666 
L 2450 4666 
L 2450 531 
L 3481 531 
L 3481 0 
L 794 0 
L 794 531 
z
" transform="scale(0.015625)"/>
       </defs>
       <use xlink:href="#DejaVuSans-31"/>
       <use xlink:href="#DejaVuSans-30" x="63.623047"/>
       <use xlink:href="#DejaVuSans-30" x="127.246094"/>
       <use xlink:href="#DejaVuSans-30" x="190.869141"/>
      </g>
     </g>
    </g>
    <g id="text_7">
     <!-- Timestamps -->
     <g transform="translate(190.392422 339.659781)scale(0.15 -0.15)">
      <defs>
       <path id="DejaVuSans-54" d="M -19 4666 
L 3928 4666 
L 3928 4134 
L 2272 4134 
L 2272 0 
L 1638 0 
L 1638 4134 
L -19 4134 
L -19 4666 
z
" transform="scale(0.015625)"/>
       <path id="DejaVuSans-69" d="M 603 3500 
L 1178 3500 
L 1178 0 
L 603 0 
L 603 3500 
z
M 603 4863 
L 1178 4863 
L 1178 4134 
L 603 4134 
L 603 4863 
z
" transform="scale(0.015625)"/>
       <path id="DejaVuSans-6d" d="M 3328 2828 
Q 3544 3216 3844 3400 
Q 4144 3584 4550 3584 
Q 5097 3584 5394 3201 
Q 5691 2819 5691 2113 
L 5691 0 
L 5113 0 
L 5113 2094 
Q 5113 2597 4934 2840 
Q 4756 3084 4391 3084 
Q 3944 3084 3684 2787 
Q 3425 2491 3425 1978 
L 3425 0 
L 2847 0 
L 2847 2094 
Q 2847 2600 2669 2842 
Q 2491 3084 2119 3084 
Q 1678 3084 1418 2786 
Q 1159 2488 1159 1978 
L 1159 0 
L 581 0 
L 581 3500 
L 1159 3500 
L 1159 2956 
Q 1356 3278 1631 3431 
Q 1906 3584 2284 3584 
Q 2666 3584 2933 3390 
Q 3200 3197 3328 2828 
z
" transform="scale(0.015625)"/>
       <path id="DejaVuSans-65" d="M 3597 1894 
L 3597 1613 
L 953 1613 
Q 991 1019 1311 708 
Q 1631 397 2203 397 
Q 2534 397 2845 478 
Q 3156 559 3463 722 
L 3463 178 
Q 3153 47 2828 -22 
Q 2503 -91 2169 -91 
Q 1331 -91 842 396 
Q 353 884 353 1716 
Q 353 2575 817 3079 
Q 1281 3584 2069 3584 
Q 2775 3584 3186 3129 
Q 3597 2675 3597 1894 
z
M 3022 2063 
Q 3016 2534 2758 2815 
Q 2500 3097 2075 3097 
Q 1594 3097 1305 2825 
Q 1016 2553 972 2059 
L 3022 2063 
z
" transform="scale(0.015625)"/>
       <path id="DejaVuSans-73" d="M 2834 3397 
L 2834 2853 
Q 2591 2978 2328 3040 
Q 2066 3103 1784 3103 
Q 1356 3103 1142 2972 
Q 928 2841 928 2578 
Q 928 2378 1081 2264 
Q 1234 2150 1697 2047 
L 1894 2003 
Q 2506 1872 2764 1633 
Q 3022 1394 3022 966 
Q 3022 478 2636 193 
Q 2250 -91 1575 -91 
Q 1294 -91 989 -36 
Q 684 19 347 128 
L 347 722 
Q 666 556 975 473 
Q 1284 391 1588 391 
Q 1994 391 2212 530 
Q 2431 669 2431 922 
Q 2431 1156 2273 1281 
Q 2116 1406 1581 1522 
L 1381 1569 
Q 847 1681 609 1914 
Q 372 2147 372 2553 
Q 372 3047 722 3315 
Q 1072 3584 1716 3584 
Q 2034 3584 2315 3537 
Q 2597 3491 2834 3397 
z
" transform="scale(0.015625)"/>
       <path id="DejaVuSans-74" d="M 1172 4494 
L 1172 3500 
L 2356 3500 
L 2356 3053 
L 1172 3053 
L 1172 1153 
Q 1172 725 1289 603 
Q 1406 481 1766 481 
L 2356 481 
L 2356 0 
L 1766 0 
Q 1100 0 847 248 
Q 594 497 594 1153 
L 594 3053 
L 172 3053 
L 172 3500 
L 594 3500 
L 594 4494 
L 1172 4494 
z
" transform="scale(0.015625)"/>
       <path id="DejaVuSans-61" d="M 2194 1759 
Q 1497 1759 1228 1600 
Q 959 1441 959 1056 
Q 959 750 1161 570 
Q 1363 391 1709 391 
Q 2188 391 2477 730 
Q 2766 1069 2766 1631 
L 2766 1759 
L 2194 1759 
z
M 3341 1997 
L 3341 0 
L 2766 0 
L 2766 531 
Q 2569 213 2275 61 
Q 1981 -91 1556 -91 
Q 1019 -91 701 211 
Q 384 513 384 1019 
Q 384 1609 779 1909 
Q 1175 2209 1959 2209 
L 2766 2209 
L 2766 2266 
Q 2766 2663 2505 2880 
Q 2244 3097 1772 3097 
Q 1472 3097 1187 3025 
Q 903 2953 641 2809 
L 641 3341 
Q 956 3463 1253 3523 
Q 1550 3584 1831 3584 
Q 2591 3584 2966 3190 
Q 3341 2797 3341 1997 
z
" transform="scale(0.015625)"/>
       <path id="DejaVuSans-70" d="M 1159 525 
L 1159 -1331 
L 581 -1331 
L 581 3500 
L 1159 3500 
L 1159 2969 
Q 1341 3281 1617 3432 
Q 1894 3584 2278 3584 
Q 2916 3584 3314 3078 
Q 3713 2572 3713 1747 
Q 3713 922 3314 415 
Q 2916 -91 2278 -91 
Q 1894 -91 1617 61 
Q 1341 213 1159 525 
z
M 3116 1747 
Q 3116 2381 2855 2742 
Q 2594 3103 2138 3103 
Q 1681 3103 1420 2742 
Q 1159 2381 1159 1747 
Q 1159 1113 1420 752 
Q 1681 391 2138 391 
Q 2594 391 2855 752 
Q 3116 1113 3116 1747 
z
" transform="scale(0.015625)"/>
      </defs>
      <use xlink:href="#DejaVuSans-54"/>
      <use xlink:href="#DejaVuSans-69" x="57.958984"/>
      <use xlink:href="#DejaVuSans-6d" x="85.742188"/>
      <use xlink:href="#DejaVuSans-65" x="183.154297"/>
      <use xlink:href="#DejaVuSans-73" x="244.677734"/>
      <use xlink:href="#DejaVuSans-74" x="296.777344"/>
      <use xlink:href="#DejaVuSans-61" x="335.986328"/>
      <use xlink:href="#DejaVuSans-6d" x="397.265625"/>
      <use xlink:href="#DejaVuSans-70" x="494.677734"/>
      <use xlink:href="#DejaVuSans-73" x="558.154297"/>
     </g>
    </g>
   </g>
   <g id="matplotlib.axis_2">
    <g id="ytick_1">
     <g id="line2d_7">
      <defs>
       <path id="mb43ca4feaf" d="M 0 0 
L -3.5 0 
" style="stroke: #000000; stroke-width: 0.8"/>
      </defs>
      <g>
       <use xlink:href="#mb43ca4feaf" x="57.6" y="306.235074" style="stroke: #000000; stroke-width: 0.8"/>
      </g>
     </g>
     <g id="text_8">
      <!-- −1.00 -->
      <g transform="translate(19.954687 310.034293)scale(0.1 -0.1)">
       <defs>
        <path id="DejaVuSans-2212" d="M 678 2272 
L 4684 2272 
L 4684 1741 
L 678 1741 
L 678 2272 
z
" transform="scale(0.015625)"/>
        <path id="DejaVuSans-2e" d="M 684 794 
L 1344 794 
L 1344 0 
L 684 0 
L 684 794 
z
" transform="scale(0.015625)"/>
       </defs>
       <use xlink:href="#DejaVuSans-2212"/>
       <use xlink:href="#DejaVuSans-31" x="83.789062"/>
       <use xlink:href="#DejaVuSans-2e" x="147.412109"/>
       <use xlink:href="#DejaVuSans-30" x="179.199219"/>
       <use xlink:href="#DejaVuSans-30" x="242.822266"/>
      </g>
     </g>
    </g>
    <g id="ytick_2">
     <g id="line2d_8">
      <g>
       <use xlink:href="#mb43ca4feaf" x="57.6" y="273.11497" style="stroke: #000000; stroke-width: 0.8"/>
      </g>
     </g>
     <g id="text_9">
      <!-- −0.75 -->
      <g transform="translate(19.954687 276.914189)scale(0.1 -0.1)">
       <defs>
        <path id="DejaVuSans-37" d="M 525 4666 
L 3525 4666 
L 3525 4397 
L 1831 0 
L 1172 0 
L 2766 4134 
L 525 4134 
L 525 4666 
z
" transform="scale(0.015625)"/>
        <path id="DejaVuSans-35" d="M 691 4666 
L 3169 4666 
L 3169 4134 
L 1269 4134 
L 1269 2991 
Q 1406 3038 1543 3061 
Q 1681 3084 1819 3084 
Q 2600 3084 3056 2656 
Q 3513 2228 3513 1497 
Q 3513 744 3044 326 
Q 2575 -91 1722 -91 
Q 1428 -91 1123 -41 
Q 819 9 494 109 
L 494 744 
Q 775 591 1075 516 
Q 1375 441 1709 441 
Q 2250 441 2565 725 
Q 2881 1009 2881 1497 
Q 2881 1984 2565 2268 
Q 2250 2553 1709 2553 
Q 1456 2553 1204 2497 
Q 953 2441 691 2322 
L 691 4666 
z
" transform="scale(0.015625)"/>
       </defs>
       <use xlink:href="#DejaVuSans-2212"/>
       <use xlink:href="#DejaVuSans-30" x="83.789062"/>
       <use xlink:href="#DejaVuSans-2e" x="147.412109"/>
       <use xlink:href="#DejaVuSans-37" x="179.199219"/>
       <use xlink:href="#DejaVuSans-35" x="242.822266"/>
      </g>
     </g>
    </g>
    <g id="ytick_3">
     <g id="line2d_9">
      <g>
       <use xlink:href="#mb43ca4feaf" x="57.6" y="239.994866" style="stroke: #000000; stroke-width: 0.8"/>
      </g>
     </g>
     <g id="text_10">
      <!-- −0.50 -->
      <g transform="translate(19.954687 243.794085)scale(0.1 -0.1)">
       <use xlink:href="#DejaVuSans-2212"/>
       <use xlink:href="#DejaVuSans-30" x="83.789062"/>
       <use xlink:href="#DejaVuSans-2e" x="147.412109"/>
       <use xlink:href="#DejaVuSans-35" x="179.199219"/>
       <use xlink:href="#DejaVuSans-30" x="242.822266"/>
      </g>
     </g>
    </g>
    <g id="ytick_4">
     <g id="line2d_10">
      <g>
       <use xlink:href="#mb43ca4feaf" x="57.6" y="206.874762" style="stroke: #000000; stroke-width: 0.8"/>
      </g>
     </g>
     <g id="text_11">
      <!-- −0.25 -->
      <g transform="translate(19.954687 210.673981)scale(0.1 -0.1)">
       <use xlink:href="#DejaVuSans-2212"/>
       <use xlink:href="#DejaVuSans-30" x="83.789062"/>
       <use xlink:href="#DejaVuSans-2e" x="147.412109"/>
       <use xlink:href="#DejaVuSans-32" x="179.199219"/>
       <use xlink:href="#DejaVuSans-35" x="242.822266"/>
      </g>
     </g>
    </g>
    <g id="ytick_5">
     <g id="line2d_11">
      <g>
       <use xlink:href="#mb43ca4feaf" x="57.6" y="173.754658" style="stroke: #000000; stroke-width: 0.8"/>
      </g>
     </g>
     <g id="text_12">
      <!-- 0.00 -->
      <g transform="translate(28.334375 177.553877)scale(0.1 -0.1)">
       <use xlink:href="#DejaVuSans-30"/>
       <use xlink:href="#DejaVuSans-2e" x="63.623047"/>
       <use xlink:href="#DejaVuSans-30" x="95.410156"/>
       <use xlink:href="#DejaVuSans-30" x="159.033203"/>
      </g>
     </g>
    </g>
    <g id="ytick_6">
     <g id="line2d_12">
      <g>
       <use xlink:href="#mb43ca4feaf" x="57.6" y="140.634555" style="stroke: #000000; stroke-width: 0.8"/>
      </g>
     </g>
     <g id="text_13">
      <!-- 0.25 -->
      <g transform="translate(28.334375 144.433773)scale(0.1 -0.1)">
       <use xlink:href="#DejaVuSans-30"/>
       <use xlink:href="#DejaVuSans-2e" x="63.623047"/>
       <use xlink:href="#DejaVuSans-32" x="95.410156"/>
       <use xlink:href="#DejaVuSans-35" x="159.033203"/>
      </g>
     </g>
    </g>
    <g id="ytick_7">
     <g id="line2d_13">
      <g>
       <use xlink:href="#mb43ca4feaf" x="57.6" y="107.514451" style="stroke: #000000; stroke-width: 0.8"/>
      </g>
     </g>
     <g id="text_14">
      <!-- 0.50 -->
      <g transform="translate(28.334375 111.313669)scale(0.1 -0.1)">
       <use xlink:href="#DejaVuSans-30"/>
       <use xlink:href="#DejaVuSans-2e" x="63.623047"/>
       <use xlink:href="#DejaVuSans-35" x="95.410156"/>
       <use xlink:href="#DejaVuSans-30" x="159.033203"/>
      </g>
     </g>
    </g>
    <g id="ytick_8">
     <g id="line2d_14">
      <g>
       <use xlink:href="#mb43ca4feaf" x="57.6" y="74.394347" style="stroke: #000000; stroke-width: 0.8"/>
      </g>
     </g>
     <g id="text_15">
      <!-- 0.75 -->
      <g transform="translate(28.334375 78.193565)scale(0.1 -0.1)">
       <use xlink:href="#DejaVuSans-30"/>
       <use xlink:href="#DejaVuSans-2e" x="63.623047"/>
       <use xlink:href="#DejaVuSans-37" x="95.410156"/>
       <use xlink:href="#DejaVuSans-35" x="159.033203"/>
      </g>
     </g>
    </g>
    <g id="text_16">
     <!-- Magnitude -->
     <g transform="translate(12.835156 214.262766)rotate(-90)scale(0.15 -0.15)">
      <defs>
       <path id="DejaVuSans-4d" d="M 628 4666 
L 1569 4666 
L 2759 1491 
L 3956 4666 
L 4897 4666 
L 4897 0 
L 4281 0 
L 4281 4097 
L 3078 897 
L 2444 897 
L 1241 4097 
L 1241 0 
L 628 0 
L 628 4666 
z
" transform="scale(0.015625)"/>
       <path id="DejaVuSans-67" d="M 2906 1791 
Q 2906 2416 2648 2759 
Q 2391 3103 1925 3103 
Q 1463 3103 1205 2759 
Q 947 2416 947 1791 
Q 947 1169 1205 825 
Q 1463 481 1925 481 
Q 2391 481 2648 825 
Q 2906 1169 2906 1791 
z
M 3481 434 
Q 3481 -459 3084 -895 
Q 2688 -1331 1869 -1331 
Q 1566 -1331 1297 -1286 
Q 1028 -1241 775 -1147 
L 775 -588 
Q 1028 -725 1275 -790 
Q 1522 -856 1778 -856 
Q 2344 -856 2625 -561 
Q 2906 -266 2906 331 
L 2906 616 
Q 2728 306 2450 153 
Q 2172 0 1784 0 
Q 1141 0 747 490 
Q 353 981 353 1791 
Q 353 2603 747 3093 
Q 1141 3584 1784 3584 
Q 2172 3584 2450 3431 
Q 2728 3278 2906 2969 
L 2906 3500 
L 3481 3500 
L 3481 434 
z
" transform="scale(0.015625)"/>
       <path id="DejaVuSans-6e" d="M 3513 2113 
L 3513 0 
L 2938 0 
L 2938 2094 
Q 2938 2591 2744 2837 
Q 2550 3084 2163 3084 
Q 1697 3084 1428 2787 
Q 1159 2491 1159 1978 
L 1159 0 
L 581 0 
L 581 3500 
L 1159 3500 
L 1159 2956 
Q 1366 3272 1645 3428 
Q 1925 3584 2291 3584 
Q 2894 3584 3203 3211 
Q 3513 2838 3513 2113 
z
" transform="scale(0.015625)"/>
       <path id="DejaVuSans-75" d="M 544 1381 
L 544 3500 
L 1119 3500 
L 1119 1403 
Q 1119 906 1312 657 
Q 1506 409 1894 409 
Q 2359 409 2629 706 
Q 2900 1003 2900 1516 
L 2900 3500 
L 3475 3500 
L 3475 0 
L 2900 0 
L 2900 538 
Q 2691 219 2414 64 
Q 2138 -91 1772 -91 
Q 1169 -91 856 284 
Q 544 659 544 1381 
z
M 1991 3584 
L 1991 3584 
z
" transform="scale(0.015625)"/>
       <path id="DejaVuSans-64" d="M 2906 2969 
L 2906 4863 
L 3481 4863 
L 3481 0 
L 2906 0 
L 2906 525 
Q 2725 213 2448 61 
Q 2172 -91 1784 -91 
Q 1150 -91 751 415 
Q 353 922 353 1747 
Q 353 2572 751 3078 
Q 1150 3584 1784 3584 
Q 2172 3584 2448 3432 
Q 2725 3281 2906 2969 
z
M 947 1747 
Q 947 1113 1208 752 
Q 1469 391 1925 391 
Q 2381 391 2643 752 
Q 2906 1113 2906 1747 
Q 2906 2381 2643 2742 
Q 2381 3103 1925 3103 
Q 1469 3103 1208 2742 
Q 947 2381 947 1747 
z
" transform="scale(0.015625)"/>
      </defs>
      <use xlink:href="#DejaVuSans-4d"/>
      <use xlink:href="#DejaVuSans-61" x="86.279297"/>
      <use xlink:href="#DejaVuSans-67" x="147.558594"/>
      <use xlink:href="#DejaVuSans-6e" x="211.035156"/>
      <use xlink:href="#DejaVuSans-69" x="274.414062"/>
      <use xlink:href="#DejaVuSans-74" x="302.197266"/>
      <use xlink:href="#DejaVuSans-75" x="341.40625"/>
      <use xlink:href="#DejaVuSans-64" x="404.785156"/>
      <use xlink:href="#DejaVuSans-65" x="468.261719"/>
     </g>
    </g>
   </g>
   <g id="line2d_15">
    <path d="M 73.832727 215.798859 
L 75.132645 216.148224 
L 75.782604 216.26534 
L 77.082523 216.344086 
L 78.057461 216.653617 
L 83.907093 217.801549 
L 85.207011 217.751568 
L 88.456806 217.465859 
L 90.406683 217.48602 
L 95.281376 217.549266 
L 99.18113 217.95954 
L 100.481048 218.048181 
L 105.680721 218.767765 
L 107.305618 218.929917 
L 109.255495 219.056317 
L 111.530352 219.186297 
L 116.405045 219.327469 
L 120.304799 219.23807 
L 122.904636 219.07329 
L 127.779328 219.051558 
L 130.054185 219.192142 
L 131.354103 219.056352 
L 135.253857 218.494237 
L 135.903817 218.170162 
L 137.528714 217.531395 
L 138.503653 217.008726 
L 138.828632 216.786357 
L 139.153612 216.312179 
L 140.778509 215.099939 
L 142.078428 213.967089 
L 143.703325 212.651123 
L 144.028305 212.373861 
L 144.353284 211.805129 
L 146.628141 209.678017 
L 147.603079 208.346539 
L 147.928059 207.386772 
L 150.852875 202.858327 
L 151.827813 201.071648 
L 152.152793 199.698512 
L 154.427649 194.793487 
L 154.752629 203.728347 
L 156.377527 197.607828 
L 156.702506 195.082339 
L 158.977363 185.576702 
L 159.302342 182.823858 
L 160.60226 177.393342 
L 163.202097 168.36592 
L 163.852056 166.592953 
L 164.177035 165.034575 
L 166.126912 161.001185 
L 166.451892 159.778844 
L 167.42683 158.068389 
L 169.051728 155.43958 
L 169.376708 154.513823 
L 171.326585 151.841196 
L 171.976544 151.146844 
L 172.301523 150.623647 
L 173.926421 149.539874 
L 174.90136 149.082665 
L 175.226339 148.6774 
L 177.176216 147.983693 
L 178.476134 147.931929 
L 179.126093 148.175297 
L 181.075971 148.81325 
L 181.72593 149.389622 
L 183.025848 150.25993 
L 184.000786 151.288235 
L 184.325766 152.036925 
L 185.625684 153.756084 
L 187.575561 156.587487 
L 187.900541 157.622171 
L 188.22552 158.13797 
L 188.5505 158.13797 
L 188.875479 159.066645 
L 191.150336 162.862547 
L 191.475315 163.977314 
L 192.450254 166.06238 
L 193.425192 168.369077 
L 193.750172 170.051464 
L 195.05009 173.216801 
L 195.37507 173.936494 
L 195.700049 175.369671 
L 196.025029 176.114786 
L 196.350008 176.114786 
L 196.674988 177.217266 
L 196.999967 177.759665 
L 197.324947 178.593571 
L 197.974906 179.462575 
L 198.299885 180.806105 
L 198.624865 181.287173 
L 199.274824 182.651755 
L 200.249762 184.6164 
L 200.574742 185.894571 
L 200.899722 185.894571 
L 201.224701 187.455986 
L 202.849599 191.15737 
L 203.174578 192.789302 
L 203.824537 194.275809 
L 204.474496 195.655447 
L 206.099394 200.369024 
L 206.424373 201.169308 
L 206.749353 202.727195 
L 207.074333 202.727195 
L 207.399312 204.114223 
L 209.349189 208.079603 
L 209.674169 209.351045 
L 209.999148 209.864574 
L 210.324128 209.920247 
L 210.649107 209.443655 
L 211.949025 206.796793 
L 212.274005 206.96489 
L 212.598984 207.375293 
L 213.248943 208.793348 
L 213.898903 210.592445 
L 214.223882 212.492133 
L 215.198821 214.796101 
L 215.84878 215.90475 
L 217.148698 217.608132 
L 217.473677 217.608132 
L 217.798657 218.196621 
L 219.748534 219.895022 
L 221.698411 221.743544 
L 222.023391 221.743544 
L 222.34837 222.154369 
L 223.323309 222.544701 
L 223.648288 222.6631 
L 223.973268 222.946119 
L 224.948206 223.276847 
L 226.248124 223.477742 
L 227.548043 223.444329 
L 229.822899 222.729474 
L 230.472858 222.178369 
L 232.097756 220.992874 
L 232.422735 220.456578 
L 233.722654 219.206695 
L 235.022572 217.753795 
L 235.347551 217.004119 
L 237.297428 214.917085 
L 239.572285 213.099642 
L 240.547224 212.356992 
L 240.872203 211.781133 
L 242.82208 209.650387 
L 243.14706 208.866675 
L 244.121998 207.782643 
L 244.771957 206.963646 
L 245.421916 205.879957 
L 245.746896 205.522015 
L 246.396855 204.501064 
L 246.721835 203.583768 
L 247.371794 202.795821 
L 248.021753 201.696501 
L 248.346732 201.31189 
L 248.671712 200.40984 
L 248.996691 200.40984 
L 249.321671 199.23519 
L 250.296609 197.751208 
L 250.946568 196.723909 
L 251.271548 195.411509 
L 253.221425 191.672261 
L 253.546405 190.411758 
L 254.846323 187.970124 
L 255.171302 187.552895 
L 255.496282 195.305075 
L 257.121179 189.908057 
L 257.771138 187.62631 
L 258.096118 185.318141 
L 259.071057 181.964261 
L 260.045995 179.034993 
L 260.370975 177.145855 
L 262.645831 171.146162 
L 262.970811 169.486082 
L 263.62077 167.955997 
L 264.595708 165.42439 
L 265.245667 163.969588 
L 266.870565 162.314143 
L 267.195545 161.588067 
L 269.470401 158.998375 
L 269.795381 158.30747 
L 272.070238 156.199876 
L 272.395217 155.68375 
L 273.695135 154.85381 
L 274.995053 154.216324 
L 276.94493 153.922515 
L 277.919869 153.955316 
L 279.219787 154.32426 
L 280.519705 154.986787 
L 281.169664 155.439686 
L 281.494644 155.969969 
L 282.794562 157.251881 
L 284.419459 159.310435 
L 284.744439 160.252892 
L 286.044357 162.373981 
L 287.019296 164.125604 
L 287.344275 165.298929 
L 288.969173 168.157546 
L 290.59407 172.310304 
L 290.91905 173.89413 
L 291.893989 176.351785 
L 292.543948 177.78174 
L 292.868927 179.135866 
L 294.818804 182.500207 
L 295.468763 183.544618 
L 296.118722 184.622546 
L 296.443702 185.828696 
L 297.41864 187.624001 
L 298.393579 189.539878 
L 299.043538 190.726189 
L 299.368518 191.954813 
L 300.018477 193.159322 
L 300.343456 193.159322 
L 300.668436 194.324262 
L 301.643374 196.103655 
L 302.618313 198.058314 
L 302.943292 198.581681 
L 303.268272 199.739566 
L 305.218149 203.454781 
L 305.543129 204.725083 
L 307.168026 207.99051 
L 307.493006 207.83903 
L 308.792924 205.814813 
L 309.117903 205.739552 
L 309.442883 205.905039 
L 309.767862 206.2849 
L 310.092842 206.867215 
L 310.417821 208.492164 
L 312.367699 213.57012 
L 313.017658 214.179718 
L 314.642555 215.31767 
L 316.592432 217.093819 
L 316.917412 217.66598 
L 317.892351 218.375662 
L 318.21733 218.422707 
L 319.517248 219.08355 
L 319.842228 219.382543 
L 320.167207 219.382543 
L 320.817166 219.770013 
L 322.442064 220.268398 
L 324.066962 220.292847 
L 325.36688 220.053862 
L 326.341818 219.65304 
L 326.991777 219.282466 
L 327.641736 218.93035 
L 327.966716 218.447604 
L 329.266634 217.436288 
L 329.916593 216.756376 
L 331.216511 214.84364 
L 332.841409 213.296342 
L 333.166388 212.668868 
L 335.766224 210.512894 
L 336.416183 209.529045 
L 338.041081 207.633434 
L 338.366061 207.062714 
L 338.69104 206.059514 
L 339.990958 204.092933 
L 341.290876 201.704098 
L 341.615856 200.488009 
L 342.265815 199.072756 
L 343.890713 195.663832 
L 344.215692 194.25416 
L 344.540672 193.527074 
L 344.865651 199.446692 
L 345.190631 201.977079 
L 346.490549 198.247693 
L 346.815528 197.372781 
L 347.140508 195.421966 
L 348.115446 192.565346 
L 349.740344 187.399326 
L 350.065324 186.322835 
L 350.390303 184.141067 
L 350.715283 184.141067 
L 351.040262 182.127645 
L 352.34018 177.827614 
L 352.66516 175.569945 
L 354.615037 169.21715 
L 354.940016 167.393444 
L 355.914955 164.446597 
L 357.214873 160.399685 
L 357.539853 158.620265 
L 358.839771 155.252741 
L 359.814709 153.140598 
L 360.789648 151.417224 
L 361.114627 150.336916 
L 362.739525 147.912617 
L 364.364423 146.783811 
L 366.3143 145.697863 
L 367.614218 145.3876 
L 368.914136 145.294475 
L 370.864013 145.743567 
L 371.513972 145.992119 
L 371.838952 146.279117 
L 372.488911 146.540165 
L 374.113808 147.55635 
L 374.763767 148.271624 
L 376.713645 150.322021 
L 377.038624 151.167724 
L 377.688583 152.120028 
L 379.313481 154.796625 
L 379.63846 156.033062 
L 381.263358 158.907291 
L 381.588337 160.11811 
L 382.238296 161.173489 
L 383.863194 164.002653 
L 384.513153 165.650206 
L 384.838133 165.650206 
L 385.163112 166.71114 
L 387.112989 170.005309 
L 387.762948 171.713172 
L 388.087928 172.212519 
L 390.687764 177.968918 
L 391.012744 179.263665 
L 391.337723 179.908887 
L 393.2876 185.194847 
L 394.912498 188.181684 
L 395.237477 189.318113 
L 395.887437 190.508707 
L 396.537396 191.844073 
L 396.862375 192.409301 
L 397.187355 193.873388 
L 398.487273 196.821399 
L 398.487273 196.821399 
" clip-path="url(#p111f7421ab)" style="fill: none; stroke: #1f77b4; stroke-width: 1.5; stroke-linecap: square"/>
   </g>
   <g id="line2d_16">
    <path d="M 73.832727 225.18276 
L 75.132645 223.62327 
L 75.782604 222.924438 
L 76.107584 222.278264 
L 77.732482 220.836576 
L 79.357379 219.457551 
L 82.282195 217.97334 
L 84.882031 217.181903 
L 87.156888 217.072011 
L 89.756724 217.048563 
L 94.631417 216.877854 
L 96.581294 216.672674 
L 105.030762 215.810776 
L 111.855332 215.660782 
L 115.755086 215.702433 
L 119.97982 215.893419 
L 122.254676 215.997658 
L 125.179492 216.146615 
L 131.029124 216.163701 
L 132.004062 216.319898 
L 132.654021 216.551207 
L 133.953939 216.979391 
L 136.228796 218.111513 
L 137.203735 218.800612 
L 138.503653 219.976909 
L 138.828632 220.335178 
L 139.153612 221.09834 
L 140.45353 222.95438 
L 141.428468 224.662188 
L 141.753448 225.980168 
L 144.028305 231.05864 
L 144.353284 232.549819 
L 145.978182 236.691174 
L 147.603079 241.418013 
L 147.928059 243.364346 
L 151.827813 255.86743 
L 152.152793 257.977531 
L 154.427649 265.341151 
L 154.752629 265.100895 
L 156.377527 271.24371 
L 156.702506 273.667406 
L 158.327404 278.9674 
L 158.977363 280.793032 
L 159.302342 282.413792 
L 161.252219 286.428302 
L 162.877117 288.785353 
L 164.826994 290.732664 
L 167.75181 292.453457 
L 168.726749 292.789836 
L 171.976544 293.892091 
L 172.626503 294.208655 
L 174.57638 294.881144 
L 175.226339 294.978264 
L 179.126093 295.456303 
L 180.750991 295.483694 
L 184.000786 295.261204 
L 184.650745 295.035496 
L 185.625684 294.741877 
L 187.575561 293.873812 
L 188.22552 293.34807 
L 188.5505 293.34807 
L 188.875479 292.908221 
L 190.500377 291.844468 
L 191.150336 291.39144 
L 191.475315 290.89799 
L 192.775233 289.802228 
L 193.425192 289.142447 
L 193.750172 288.409509 
L 195.37507 286.193046 
L 195.700049 285.30646 
L 196.025029 284.76864 
L 196.350008 284.76864 
L 196.674988 283.6441 
L 197.974906 281.30637 
L 198.299885 280.049009 
L 200.249762 275.981927 
L 200.574742 274.532338 
L 200.899722 274.532338 
L 201.224701 273.064818 
L 202.19964 270.771195 
L 202.849599 269.074128 
L 203.174578 267.397432 
L 204.799476 262.933739 
L 205.124455 261.1292 
L 206.424373 257.014206 
L 206.749353 254.879583 
L 207.074333 254.879583 
L 207.399312 252.699398 
L 209.349189 245.908642 
L 209.674169 243.612815 
L 210.324128 241.615332 
L 211.624046 238.741262 
L 211.949025 236.866733 
L 213.248943 232.257885 
L 213.898903 229.799728 
L 214.223882 227.384509 
L 215.5238 222.87963 
L 216.498739 220.102267 
L 216.823718 219.260657 
L 217.148698 217.677754 
L 217.473677 217.677754 
L 217.798657 216.240895 
L 219.423554 213.088231 
L 221.048452 210.314787 
L 221.373432 209.891246 
L 221.698411 208.987564 
L 222.023391 208.987564 
L 222.34837 208.253489 
L 223.973268 206.817035 
L 225.273186 206.23626 
L 226.248124 206.117342 
L 227.223063 206.274283 
L 227.548043 206.382865 
L 228.198002 206.883752 
L 229.49792 207.840683 
L 229.822899 208.163725 
L 230.147879 208.775793 
L 231.447797 210.304886 
L 232.097756 211.207555 
L 232.422735 212.114155 
L 233.397674 213.623298 
L 235.022572 216.495634 
L 235.347551 217.749345 
L 237.297428 221.224744 
L 237.947387 222.208119 
L 238.272367 223.076843 
L 238.597346 223.076843 
L 238.922326 223.956281 
L 240.547224 225.893769 
L 240.872203 226.688828 
L 241.847142 228.011406 
L 242.82208 229.42593 
L 243.14706 230.485135 
L 245.096937 234.091988 
L 246.396855 236.684076 
L 246.721835 238.009953 
L 248.346732 241.540793 
L 248.671712 243.058742 
L 248.996691 243.058742 
L 249.321671 244.515774 
L 250.946568 248.422054 
L 251.271548 249.892113 
L 252.246486 252.095156 
L 253.221425 254.545903 
L 253.546405 256.243158 
L 254.846323 259.750307 
L 255.171302 260.843495 
L 255.496282 260.700831 
L 256.47122 263.725302 
L 257.771138 267.899656 
L 258.096118 269.788683 
L 259.071057 272.089523 
L 260.695954 275.057089 
L 261.995872 276.35101 
L 262.645831 276.917472 
L 262.970811 277.426037 
L 263.945749 278.267143 
L 264.920688 279.239159 
L 265.245667 280.03208 
L 266.870565 281.736784 
L 267.195545 282.397912 
L 269.145422 284.154515 
L 269.470401 284.425325 
L 269.795381 284.917933 
L 271.745258 286.089213 
L 272.070238 286.256348 
L 272.395217 286.552764 
L 274.345094 287.283537 
L 275.969992 287.562398 
L 277.919869 287.661241 
L 279.544767 287.487693 
L 280.844685 287.164679 
L 281.169664 287.059634 
L 281.819623 286.669135 
L 282.794562 286.215381 
L 284.419459 285.220383 
L 284.744439 284.747355 
L 286.694316 282.985409 
L 287.019296 282.659586 
L 287.344275 281.963765 
L 288.969173 280.13386 
L 290.59407 277.492937 
L 290.91905 276.378512 
L 292.543948 273.510431 
L 292.868927 272.270877 
L 293.843866 270.294523 
L 295.143784 267.572335 
L 296.118722 265.38453 
L 296.443702 263.812655 
L 299.043538 257.104474 
L 299.368518 255.294357 
L 300.018477 253.443839 
L 300.343456 253.443839 
L 300.668436 251.599574 
L 302.618313 245.793487 
L 302.943292 244.870813 
L 303.268272 242.969533 
L 305.218149 237.021746 
L 305.543129 234.993067 
L 307.817985 227.760821 
L 308.792924 225.945153 
L 309.767862 223.509801 
L 310.092842 222.574039 
L 310.417821 220.643601 
L 311.71774 217.04824 
L 312.042719 216.320629 
L 312.367699 214.885438 
L 313.342637 213.244862 
L 314.317576 211.963813 
L 314.642555 211.094681 
L 316.592432 208.801258 
L 316.917412 208.212251 
L 319.842228 206.308249 
L 320.167207 206.308249 
L 320.817166 206.094813 
L 322.117084 206.041223 
L 323.417002 206.298414 
L 324.066962 206.544131 
L 324.716921 207.132392 
L 325.691859 207.929311 
L 326.991777 209.217591 
L 327.641736 210.081738 
L 328.291695 211.472837 
L 329.591613 213.847598 
L 330.566552 215.863043 
L 330.891532 217.308348 
L 332.516429 221.240211 
L 332.841409 222.04259 
L 333.166388 223.688979 
L 334.466306 226.824462 
L 335.766224 229.662981 
L 336.091204 231.205223 
L 338.366061 237.455373 
L 338.69104 239.333211 
L 341.290876 247.180246 
L 341.615856 249.163618 
L 343.890713 255.629049 
L 344.215692 257.330058 
L 344.540672 258.144516 
L 344.865651 256.34692 
L 346.815528 261.878263 
L 347.140508 263.828948 
L 348.765405 268.312535 
L 350.065324 271.502836 
L 350.390303 272.963099 
L 350.715283 272.963099 
L 351.040262 274.37355 
L 352.34018 276.876358 
L 352.66516 277.996901 
L 354.290057 280.529113 
L 354.615037 280.974566 
L 354.940016 281.850009 
L 356.564914 283.991969 
L 357.214873 284.609853 
L 357.539853 285.212612 
L 359.48973 286.62624 
L 361.439607 287.746841 
L 364.689402 288.681929 
L 366.639279 288.902364 
L 368.914136 288.888049 
L 372.163931 288.368278 
L 374.113808 287.977372 
L 375.088747 287.586121 
L 376.713645 286.938211 
L 377.363604 286.441586 
L 379.313481 285.564649 
L 379.96344 285.07878 
L 381.263358 284.246743 
L 381.588337 283.645412 
L 383.538215 282.069259 
L 383.863194 281.793155 
L 384.188174 281.026527 
L 384.513153 280.628448 
L 384.838133 280.628448 
L 385.163112 279.806028 
L 387.112989 277.091469 
L 387.437969 276.037462 
L 388.737887 273.641684 
L 390.362785 270.231681 
L 390.687764 269.477349 
L 391.012744 267.999275 
L 391.987682 265.593125 
L 392.312662 264.760465 
L 392.637641 263.007197 
L 394.912498 256.224337 
L 395.237477 254.134111 
L 396.537396 249.69855 
L 396.862375 248.521299 
L 397.187355 246.1537 
L 398.487273 241.303281 
L 398.487273 241.303281 
" clip-path="url(#p111f7421ab)" style="fill: none; stroke: #ff7f0e; stroke-width: 1.5; stroke-linecap: square"/>
   </g>
   <g id="line2d_17">
    <path d="M 73.832727 59.131351 
L 75.132645 58.572351 
L 75.782604 58.315333 
L 76.432563 57.917403 
L 78.057461 57.470293 
L 80.332318 56.995523 
L 83.257133 56.732881 
L 91.706601 56.402843 
L 107.630598 56.512144 
L 119.97982 56.679258 
L 132.654021 56.784629 
L 136.553776 57.080503 
L 138.828632 57.437895 
L 140.12855 57.856224 
L 141.428468 58.471137 
L 142.078428 59.168694 
L 144.028305 60.724255 
L 144.353284 61.298641 
L 145.653202 62.64905 
L 147.603079 65.23678 
L 147.928059 66.170088 
L 149.877936 69.45261 
L 151.827813 73.443469 
L 152.152793 74.83809 
L 153.452711 77.853897 
L 154.427649 80.371875 
L 154.752629 82.603685 
L 156.377527 87.279369 
L 156.702506 89.412263 
L 158.977363 96.5919 
L 159.302342 98.508374 
L 160.277281 101.359921 
L 161.252219 104.085083 
L 162.227158 106.250624 
L 162.552138 107.562862 
L 163.852056 110.065636 
L 164.177035 111.268479 
L 165.801933 113.954509 
L 166.126912 114.422923 
L 166.451892 115.386033 
L 168.07679 117.64714 
L 169.051728 118.779785 
L 169.376708 119.555759 
L 171.976544 122.696408 
L 172.301523 123.41847 
L 174.57638 126.102467 
L 174.90136 126.102467 
L 175.226339 126.563226 
L 177.501196 127.807022 
L 178.801114 128.064183 
L 179.776052 128.05883 
L 180.750991 127.872645 
L 181.075971 127.74671 
L 181.72593 127.347832 
L 183.350827 126.467561 
L 184.000786 125.979319 
L 184.325766 125.246574 
L 185.300704 124.086897 
L 187.250581 121.109196 
L 187.575561 120.578174 
L 187.900541 119.518156 
L 188.22552 118.940492 
L 188.5505 118.940492 
L 188.875479 117.739026 
L 191.150336 113.804558 
L 191.475315 112.657164 
L 192.775233 110.228926 
L 193.425192 108.887725 
L 193.750172 107.485413 
L 195.37507 103.692943 
L 195.700049 102.307845 
L 196.025029 101.49552 
L 196.350008 101.49552 
L 196.674988 99.839984 
L 197.974906 96.61118 
L 198.299885 94.996503 
L 200.249762 90.192295 
L 200.574742 88.622145 
L 200.899722 88.622145 
L 201.224701 87.147336 
L 202.524619 84.170314 
L 202.849599 83.408625 
L 203.174578 81.995339 
L 204.799476 78.500246 
L 205.124455 77.157233 
L 206.424373 74.420114 
L 206.749353 73.104773 
L 207.074333 73.104773 
L 207.399312 71.788561 
L 209.02421 68.647392 
L 209.349189 68.082215 
L 209.674169 66.966078 
L 211.299066 63.943508 
L 211.624046 63.306179 
L 211.949025 62.057998 
L 212.923964 60.566693 
L 214.548862 58.703305 
L 218.123636 56.266012 
L 219.748534 55.76474 
L 222.34837 55.355503 
L 225.923145 55.293386 
L 228.522981 55.451379 
L 232.097756 55.784773 
L 233.722654 56.064332 
L 234.697592 56.264724 
L 235.022572 56.330886 
L 235.672531 56.609677 
L 236.647469 56.91709 
L 239.897265 58.061785 
L 240.547224 58.245198 
L 241.197183 58.481307 
L 242.82208 59.023392 
L 243.472039 59.491163 
L 245.421916 60.625062 
L 246.396855 61.301957 
L 247.046814 62.105857 
L 248.346732 63.315979 
L 248.671712 64.0391 
L 248.996691 64.0391 
L 249.321671 64.691962 
L 250.621589 66.298664 
L 250.946568 66.758132 
L 251.271548 67.523149 
L 252.246486 68.769347 
L 253.221425 70.300328 
L 253.546405 71.435319 
L 254.521343 73.248875 
L 255.171302 74.879953 
L 255.496282 76.148287 
L 256.146241 77.479334 
L 257.771138 81.584396 
L 258.096118 83.229429 
L 259.071057 85.358261 
L 260.695954 88.416758 
L 263.62077 92.127167 
L 264.920688 94.114231 
L 265.245667 95.266275 
L 266.870565 97.859743 
L 267.195545 98.923642 
L 269.470401 102.443246 
L 269.795381 103.361692 
L 272.720197 106.955815 
L 274.670074 108.434407 
L 275.645012 108.787058 
L 277.26991 109.087316 
L 277.919869 109.068163 
L 278.894808 108.850313 
L 280.194726 108.279537 
L 281.169664 107.591145 
L 281.494644 107.009733 
L 282.794562 105.700931 
L 284.419459 103.627477 
L 284.744439 102.695624 
L 287.019296 98.934449 
L 287.344275 97.791814 
L 289.294152 94.267906 
L 290.59407 91.369333 
L 290.91905 89.972869 
L 292.543948 86.670615 
L 292.868927 85.342801 
L 294.168845 82.694611 
L 296.118722 78.691956 
L 296.443702 77.344949 
L 298.718559 72.801814 
L 299.043538 72.187734 
L 299.368518 70.938832 
L 300.018477 69.715426 
L 300.343456 69.715426 
L 300.668436 68.549496 
L 301.968354 66.244183 
L 302.943292 64.772194 
L 303.268272 63.822162 
L 305.218149 61.21026 
L 305.543129 60.433211 
L 307.168026 58.620782 
L 307.493006 57.908067 
L 309.767862 55.360111 
L 310.742801 54.714904 
L 315.292514 53.62949 
L 319.517248 53.665914 
L 322.117084 53.973379 
L 324.391941 54.21613 
L 328.616675 54.903684 
L 330.566552 55.455665 
L 330.891532 55.733915 
L 331.541491 56.032874 
L 332.841409 56.896656 
L 333.166388 57.378932 
L 335.766224 59.412388 
L 336.091204 59.987199 
L 338.041081 62.058151 
L 338.366061 62.471875 
L 338.69104 63.269769 
L 340.640917 66.076575 
L 341.290876 67.084224 
L 341.615856 68.161688 
L 343.890713 71.933077 
L 344.215692 73.027398 
L 344.540672 73.562533 
L 344.865651 73.407775 
L 345.190631 74.844925 
L 345.84059 75.812932 
L 346.815528 77.694914 
L 347.140508 79.053998 
L 349.740344 84.563447 
L 350.065324 85.219956 
L 350.390303 86.571668 
L 350.715283 86.571668 
L 351.040262 87.982897 
L 352.34018 90.686069 
L 352.66516 92.015297 
L 354.615037 96.073475 
L 354.940016 97.426468 
L 357.214873 102.453662 
L 357.539853 103.760831 
L 359.814709 107.871509 
L 361.764586 111.003371 
L 362.414545 111.668666 
L 362.739525 112.28941 
L 364.039443 113.301062 
L 365.98932 114.429829 
L 367.289238 114.707012 
L 368.589156 114.750514 
L 369.239115 114.609473 
L 370.214054 114.321948 
L 371.513972 113.724675 
L 371.838952 113.369864 
L 373.13887 112.636474 
L 374.113808 111.965653 
L 374.763767 111.15839 
L 376.713645 109.0132 
L 377.038624 108.150258 
L 379.313481 105.269722 
L 379.63846 104.441079 
L 381.263358 102.185696 
L 381.588337 101.028287 
L 383.538215 98.172062 
L 383.863194 97.704346 
L 384.188174 96.510608 
L 384.513153 95.887 
L 384.838133 95.887 
L 385.163112 94.668889 
L 387.112989 90.938537 
L 387.437969 89.601068 
L 389.062867 85.997397 
L 390.687764 82.2644 
L 391.012744 80.810235 
L 392.312662 77.864437 
L 392.637641 76.347794 
L 394.912498 71.081974 
L 395.237477 69.600974 
L 396.862375 65.990963 
L 397.187355 64.64609 
L 398.487273 62.14746 
L 398.487273 62.14746 
" clip-path="url(#p111f7421ab)" style="fill: none; stroke: #2ca02c; stroke-width: 1.5; stroke-linecap: square"/>
   </g>
   <g id="patch_3">
    <path d="M 57.6 307.584 
L 57.6 41.472 
" style="fill: none; stroke: #000000; stroke-width: 0.8; stroke-linejoin: miter; stroke-linecap: square"/>
   </g>
   <g id="patch_4">
    <path d="M 414.72 307.584 
L 414.72 41.472 
" style="fill: none; stroke: #000000; stroke-width: 0.8; stroke-linejoin: miter; stroke-linecap: square"/>
   </g>
   <g id="patch_5">
    <path d="M 57.6 307.584 
L 414.72 307.584 
" style="fill: none; stroke: #000000; stroke-width: 0.8; stroke-linejoin: miter; stroke-linecap: square"/>
   </g>
   <g id="patch_6">
    <path d="M 57.6 41.472 
L 414.72 41.472 
" style="fill: none; stroke: #000000; stroke-width: 0.8; stroke-linejoin: miter; stroke-linecap: square"/>
   </g>
   <g id="text_17">
    <!-- Change in rotation components for tilting  head sideways starting from right -->
    <g transform="translate(-50.616563 35.472)scale(0.15 -0.15)">
     <defs>
      <path id="DejaVuSans-43" d="M 4122 4306 
L 4122 3641 
Q 3803 3938 3442 4084 
Q 3081 4231 2675 4231 
Q 1875 4231 1450 3742 
Q 1025 3253 1025 2328 
Q 1025 1406 1450 917 
Q 1875 428 2675 428 
Q 3081 428 3442 575 
Q 3803 722 4122 1019 
L 4122 359 
Q 3791 134 3420 21 
Q 3050 -91 2638 -91 
Q 1578 -91 968 557 
Q 359 1206 359 2328 
Q 359 3453 968 4101 
Q 1578 4750 2638 4750 
Q 3056 4750 3426 4639 
Q 3797 4528 4122 4306 
z
" transform="scale(0.015625)"/>
      <path id="DejaVuSans-68" d="M 3513 2113 
L 3513 0 
L 2938 0 
L 2938 2094 
Q 2938 2591 2744 2837 
Q 2550 3084 2163 3084 
Q 1697 3084 1428 2787 
Q 1159 2491 1159 1978 
L 1159 0 
L 581 0 
L 581 4863 
L 1159 4863 
L 1159 2956 
Q 1366 3272 1645 3428 
Q 1925 3584 2291 3584 
Q 2894 3584 3203 3211 
Q 3513 2838 3513 2113 
z
" transform="scale(0.015625)"/>
      <path id="DejaVuSans-20" transform="scale(0.015625)"/>
      <path id="DejaVuSans-72" d="M 2631 2963 
Q 2534 3019 2420 3045 
Q 2306 3072 2169 3072 
Q 1681 3072 1420 2755 
Q 1159 2438 1159 1844 
L 1159 0 
L 581 0 
L 581 3500 
L 1159 3500 
L 1159 2956 
Q 1341 3275 1631 3429 
Q 1922 3584 2338 3584 
Q 2397 3584 2469 3576 
Q 2541 3569 2628 3553 
L 2631 2963 
z
" transform="scale(0.015625)"/>
      <path id="DejaVuSans-6f" d="M 1959 3097 
Q 1497 3097 1228 2736 
Q 959 2375 959 1747 
Q 959 1119 1226 758 
Q 1494 397 1959 397 
Q 2419 397 2687 759 
Q 2956 1122 2956 1747 
Q 2956 2369 2687 2733 
Q 2419 3097 1959 3097 
z
M 1959 3584 
Q 2709 3584 3137 3096 
Q 3566 2609 3566 1747 
Q 3566 888 3137 398 
Q 2709 -91 1959 -91 
Q 1206 -91 779 398 
Q 353 888 353 1747 
Q 353 2609 779 3096 
Q 1206 3584 1959 3584 
z
" transform="scale(0.015625)"/>
      <path id="DejaVuSans-63" d="M 3122 3366 
L 3122 2828 
Q 2878 2963 2633 3030 
Q 2388 3097 2138 3097 
Q 1578 3097 1268 2742 
Q 959 2388 959 1747 
Q 959 1106 1268 751 
Q 1578 397 2138 397 
Q 2388 397 2633 464 
Q 2878 531 3122 666 
L 3122 134 
Q 2881 22 2623 -34 
Q 2366 -91 2075 -91 
Q 1284 -91 818 406 
Q 353 903 353 1747 
Q 353 2603 823 3093 
Q 1294 3584 2113 3584 
Q 2378 3584 2631 3529 
Q 2884 3475 3122 3366 
z
" transform="scale(0.015625)"/>
      <path id="DejaVuSans-66" d="M 2375 4863 
L 2375 4384 
L 1825 4384 
Q 1516 4384 1395 4259 
Q 1275 4134 1275 3809 
L 1275 3500 
L 2222 3500 
L 2222 3053 
L 1275 3053 
L 1275 0 
L 697 0 
L 697 3053 
L 147 3053 
L 147 3500 
L 697 3500 
L 697 3744 
Q 697 4328 969 4595 
Q 1241 4863 1831 4863 
L 2375 4863 
z
" transform="scale(0.015625)"/>
      <path id="DejaVuSans-6c" d="M 603 4863 
L 1178 4863 
L 1178 0 
L 603 0 
L 603 4863 
z
" transform="scale(0.015625)"/>
      <path id="DejaVuSans-77" d="M 269 3500 
L 844 3500 
L 1563 769 
L 2278 3500 
L 2956 3500 
L 3675 769 
L 4391 3500 
L 4966 3500 
L 4050 0 
L 3372 0 
L 2619 2869 
L 1863 0 
L 1184 0 
L 269 3500 
z
" transform="scale(0.015625)"/>
      <path id="DejaVuSans-79" d="M 2059 -325 
Q 1816 -950 1584 -1140 
Q 1353 -1331 966 -1331 
L 506 -1331 
L 506 -850 
L 844 -850 
Q 1081 -850 1212 -737 
Q 1344 -625 1503 -206 
L 1606 56 
L 191 3500 
L 800 3500 
L 1894 763 
L 2988 3500 
L 3597 3500 
L 2059 -325 
z
" transform="scale(0.015625)"/>
     </defs>
     <use xlink:href="#DejaVuSans-43"/>
     <use xlink:href="#DejaVuSans-68" x="69.824219"/>
     <use xlink:href="#DejaVuSans-61" x="133.203125"/>
     <use xlink:href="#DejaVuSans-6e" x="194.482422"/>
     <use xlink:href="#DejaVuSans-67" x="257.861328"/>
     <use xlink:href="#DejaVuSans-65" x="321.337891"/>
     <use xlink:href="#DejaVuSans-20" x="382.861328"/>
     <use xlink:href="#DejaVuSans-69" x="414.648438"/>
     <use xlink:href="#DejaVuSans-6e" x="442.431641"/>
     <use xlink:href="#DejaVuSans-20" x="505.810547"/>
     <use xlink:href="#DejaVuSans-72" x="537.597656"/>
     <use xlink:href="#DejaVuSans-6f" x="576.460938"/>
     <use xlink:href="#DejaVuSans-74" x="637.642578"/>
     <use xlink:href="#DejaVuSans-61" x="676.851562"/>
     <use xlink:href="#DejaVuSans-74" x="738.130859"/>
     <use xlink:href="#DejaVuSans-69" x="777.339844"/>
     <use xlink:href="#DejaVuSans-6f" x="805.123047"/>
     <use xlink:href="#DejaVuSans-6e" x="866.304688"/>
     <use xlink:href="#DejaVuSans-20" x="929.683594"/>
     <use xlink:href="#DejaVuSans-63" x="961.470703"/>
     <use xlink:href="#DejaVuSans-6f" x="1016.451172"/>
     <use xlink:href="#DejaVuSans-6d" x="1077.632812"/>
     <use xlink:href="#DejaVuSans-70" x="1175.044922"/>
     <use xlink:href="#DejaVuSans-6f" x="1238.521484"/>
     <use xlink:href="#DejaVuSans-6e" x="1299.703125"/>
     <use xlink:href="#DejaVuSans-65" x="1363.082031"/>
     <use xlink:href="#DejaVuSans-6e" x="1424.605469"/>
     <use xlink:href="#DejaVuSans-74" x="1487.984375"/>
     <use xlink:href="#DejaVuSans-73" x="1527.193359"/>
     <use xlink:href="#DejaVuSans-20" x="1579.292969"/>
     <use xlink:href="#DejaVuSans-66" x="1611.080078"/>
     <use xlink:href="#DejaVuSans-6f" x="1646.285156"/>
     <use xlink:href="#DejaVuSans-72" x="1707.466797"/>
     <use xlink:href="#DejaVuSans-20" x="1748.580078"/>
     <use xlink:href="#DejaVuSans-74" x="1780.367188"/>
     <use xlink:href="#DejaVuSans-69" x="1819.576172"/>
     <use xlink:href="#DejaVuSans-6c" x="1847.359375"/>
     <use xlink:href="#DejaVuSans-74" x="1875.142578"/>
     <use xlink:href="#DejaVuSans-69" x="1914.351562"/>
     <use xlink:href="#DejaVuSans-6e" x="1942.134766"/>
     <use xlink:href="#DejaVuSans-67" x="2005.513672"/>
     <use xlink:href="#DejaVuSans-20" x="2068.990234"/>
     <use xlink:href="#DejaVuSans-20" x="2100.777344"/>
     <use xlink:href="#DejaVuSans-68" x="2132.564453"/>
     <use xlink:href="#DejaVuSans-65" x="2195.943359"/>
     <use xlink:href="#DejaVuSans-61" x="2257.466797"/>
     <use xlink:href="#DejaVuSans-64" x="2318.746094"/>
     <use xlink:href="#DejaVuSans-20" x="2382.222656"/>
     <use xlink:href="#DejaVuSans-73" x="2414.009766"/>
     <use xlink:href="#DejaVuSans-69" x="2466.109375"/>
     <use xlink:href="#DejaVuSans-64" x="2493.892578"/>
     <use xlink:href="#DejaVuSans-65" x="2557.369141"/>
     <use xlink:href="#DejaVuSans-77" x="2618.892578"/>
     <use xlink:href="#DejaVuSans-61" x="2700.679688"/>
     <use xlink:href="#DejaVuSans-79" x="2761.958984"/>
     <use xlink:href="#DejaVuSans-73" x="2821.138672"/>
     <use xlink:href="#DejaVuSans-20" x="2873.238281"/>
     <use xlink:href="#DejaVuSans-73" x="2905.025391"/>
     <use xlink:href="#DejaVuSans-74" x="2957.125"/>
     <use xlink:href="#DejaVuSans-61" x="2996.333984"/>
     <use xlink:href="#DejaVuSans-72" x="3057.613281"/>
     <use xlink:href="#DejaVuSans-74" x="3098.726562"/>
     <use xlink:href="#DejaVuSans-69" x="3137.935547"/>
     <use xlink:href="#DejaVuSans-6e" x="3165.71875"/>
     <use xlink:href="#DejaVuSans-67" x="3229.097656"/>
     <use xlink:href="#DejaVuSans-20" x="3292.574219"/>
     <use xlink:href="#DejaVuSans-66" x="3324.361328"/>
     <use xlink:href="#DejaVuSans-72" x="3359.566406"/>
     <use xlink:href="#DejaVuSans-6f" x="3398.429688"/>
     <use xlink:href="#DejaVuSans-6d" x="3459.611328"/>
     <use xlink:href="#DejaVuSans-20" x="3557.023438"/>
     <use xlink:href="#DejaVuSans-72" x="3588.810547"/>
     <use xlink:href="#DejaVuSans-69" x="3629.923828"/>
     <use xlink:href="#DejaVuSans-67" x="3657.707031"/>
     <use xlink:href="#DejaVuSans-68" x="3721.183594"/>
     <use xlink:href="#DejaVuSans-74" x="3784.5625"/>
    </g>
   </g>
   <g id="legend_1">
    <g id="patch_7">
     <path d="M 64.6 302.584 
L 121.185937 302.584 
Q 123.185937 302.584 123.185937 300.584 
L 123.185937 257.549625 
Q 123.185937 255.549625 121.185937 255.549625 
L 64.6 255.549625 
Q 62.6 255.549625 62.6 257.549625 
L 62.6 300.584 
Q 62.6 302.584 64.6 302.584 
z
" style="fill: #ffffff; opacity: 0.8; stroke: #cccccc; stroke-linejoin: miter"/>
    </g>
    <g id="line2d_18">
     <path d="M 66.6 263.648062 
L 76.6 263.648062 
L 86.6 263.648062 
" style="fill: none; stroke: #1f77b4; stroke-width: 1.5; stroke-linecap: square"/>
    </g>
    <g id="text_18">
     <!-- idx 0 -->
     <g transform="translate(94.6 267.148062)scale(0.1 -0.1)">
      <defs>
       <path id="DejaVuSans-78" d="M 3513 3500 
L 2247 1797 
L 3578 0 
L 2900 0 
L 1881 1375 
L 863 0 
L 184 0 
L 1544 1831 
L 300 3500 
L 978 3500 
L 1906 2253 
L 2834 3500 
L 3513 3500 
z
" transform="scale(0.015625)"/>
      </defs>
      <use xlink:href="#DejaVuSans-69"/>
      <use xlink:href="#DejaVuSans-64" x="27.783203"/>
      <use xlink:href="#DejaVuSans-78" x="91.259766"/>
      <use xlink:href="#DejaVuSans-20" x="150.439453"/>
      <use xlink:href="#DejaVuSans-30" x="182.226562"/>
     </g>
    </g>
    <g id="line2d_19">
     <path d="M 66.6 278.326188 
L 76.6 278.326188 
L 86.6 278.326188 
" style="fill: none; stroke: #ff7f0e; stroke-width: 1.5; stroke-linecap: square"/>
    </g>
    <g id="text_19">
     <!-- idx 1 -->
     <g transform="translate(94.6 281.826188)scale(0.1 -0.1)">
      <use xlink:href="#DejaVuSans-69"/>
      <use xlink:href="#DejaVuSans-64" x="27.783203"/>
      <use xlink:href="#DejaVuSans-78" x="91.259766"/>
      <use xlink:href="#DejaVuSans-20" x="150.439453"/>
      <use xlink:href="#DejaVuSans-31" x="182.226562"/>
     </g>
    </g>
    <g id="line2d_20">
     <path d="M 66.6 293.004312 
L 76.6 293.004312 
L 86.6 293.004312 
" style="fill: none; stroke: #2ca02c; stroke-width: 1.5; stroke-linecap: square"/>
    </g>
    <g id="text_20">
     <!-- idx 2 -->
     <g transform="translate(94.6 296.504312)scale(0.1 -0.1)">
      <use xlink:href="#DejaVuSans-69"/>
      <use xlink:href="#DejaVuSans-64" x="27.783203"/>
      <use xlink:href="#DejaVuSans-78" x="91.259766"/>
      <use xlink:href="#DejaVuSans-20" x="150.439453"/>
      <use xlink:href="#DejaVuSans-32" x="182.226562"/>
     </g>
    </g>
   </g>
  </g>
 </g>
 <defs>
  <clipPath id="p111f7421ab">
   <rect x="57.6" y="41.472" width="357.12" height="266.112"/>
  </clipPath>
 </defs>
</svg>
