<?xml version="1.0" encoding="utf-8" standalone="no"?>
<!DOCTYPE svg PUBLIC "-//W3C//DTD SVG 1.1//EN"
  "http://www.w3.org/Graphics/SVG/1.1/DTD/svg11.dtd">
<svg xmlns:xlink="http://www.w3.org/1999/xlink" width="460.8pt" height="345.6pt" viewBox="0 0 460.8 345.6" xmlns="http://www.w3.org/2000/svg" version="1.1">
 <metadata>
  <rdf:RDF xmlns:dc="http://purl.org/dc/elements/1.1/" xmlns:cc="http://creativecommons.org/ns#" xmlns:rdf="http://www.w3.org/1999/02/22-rdf-syntax-ns#">
   <cc:Work>
    <dc:type rdf:resource="http://purl.org/dc/dcmitype/StillImage"/>
    <dc:date>2024-01-30T14:36:35.283511</dc:date>
    <dc:format>image/svg+xml</dc:format>
    <dc:creator>
     <cc:Agent>
      <dc:title>Matplotlib v3.5.0, https://matplotlib.org/</dc:title>
     </cc:Agent>
    </dc:creator>
   </cc:Work>
  </rdf:RDF>
 </metadata>
 <defs>
  <style type="text/css">*{stroke-linejoin: round; stroke-linecap: butt}</style>
 </defs>
 <g id="figure_1">
  <g id="patch_1">
   <path d="M 0 345.6 
L 460.8 345.6 
L 460.8 0 
L 0 0 
z
" style="fill: #ffffff"/>
  </g>
  <g id="axes_1">
   <g id="patch_2">
    <path d="M 57.6 307.584 
L 414.72 307.584 
L 414.72 41.472 
L 57.6 41.472 
z
" style="fill: #ffffff"/>
   </g>
   <g id="matplotlib.axis_1">
    <g id="xtick_1">
     <g id="line2d_1">
      <defs>
       <path id="m2bc365aecf" d="M 0 0 
L 0 3.5 
" style="stroke: #000000; stroke-width: 0.8"/>
      </defs>
      <g>
       <use xlink:href="#m2bc365aecf" x="73.832727" y="307.584" style="stroke: #000000; stroke-width: 0.8"/>
      </g>
     </g>
     <g id="text_1">
      <!-- 0 -->
      <g transform="translate(70.651477 322.182437)scale(0.1 -0.1)">
       <defs>
        <path id="DejaVuSans-30" d="M 2034 4250 
Q 1547 4250 1301 3770 
Q 1056 3291 1056 2328 
Q 1056 1369 1301 889 
Q 1547 409 2034 409 
Q 2525 409 2770 889 
Q 3016 1369 3016 2328 
Q 3016 3291 2770 3770 
Q 2525 4250 2034 4250 
z
M 2034 4750 
Q 2819 4750 3233 4129 
Q 3647 3509 3647 2328 
Q 3647 1150 3233 529 
Q 2819 -91 2034 -91 
Q 1250 -91 836 529 
Q 422 1150 422 2328 
Q 422 3509 836 4129 
Q 1250 4750 2034 4750 
z
" transform="scale(0.015625)"/>
       </defs>
       <use xlink:href="#DejaVuSans-30"/>
      </g>
     </g>
    </g>
    <g id="xtick_2">
     <g id="line2d_2">
      <g>
       <use xlink:href="#m2bc365aecf" x="138.828632" y="307.584" style="stroke: #000000; stroke-width: 0.8"/>
      </g>
     </g>
     <g id="text_2">
      <!-- 200 -->
      <g transform="translate(129.284882 322.182437)scale(0.1 -0.1)">
       <defs>
        <path id="DejaVuSans-32" d="M 1228 531 
L 3431 531 
L 3431 0 
L 469 0 
L 469 531 
Q 828 903 1448 1529 
Q 2069 2156 2228 2338 
Q 2531 2678 2651 2914 
Q 2772 3150 2772 3378 
Q 2772 3750 2511 3984 
Q 2250 4219 1831 4219 
Q 1534 4219 1204 4116 
Q 875 4013 500 3803 
L 500 4441 
Q 881 4594 1212 4672 
Q 1544 4750 1819 4750 
Q 2544 4750 2975 4387 
Q 3406 4025 3406 3419 
Q 3406 3131 3298 2873 
Q 3191 2616 2906 2266 
Q 2828 2175 2409 1742 
Q 1991 1309 1228 531 
z
" transform="scale(0.015625)"/>
       </defs>
       <use xlink:href="#DejaVuSans-32"/>
       <use xlink:href="#DejaVuSans-30" x="63.623047"/>
       <use xlink:href="#DejaVuSans-30" x="127.246094"/>
      </g>
     </g>
    </g>
    <g id="xtick_3">
     <g id="line2d_3">
      <g>
       <use xlink:href="#m2bc365aecf" x="203.824537" y="307.584" style="stroke: #000000; stroke-width: 0.8"/>
      </g>
     </g>
     <g id="text_3">
      <!-- 400 -->
      <g transform="translate(194.280787 322.182437)scale(0.1 -0.1)">
       <defs>
        <path id="DejaVuSans-34" d="M 2419 4116 
L 825 1625 
L 2419 1625 
L 2419 4116 
z
M 2253 4666 
L 3047 4666 
L 3047 1625 
L 3713 1625 
L 3713 1100 
L 3047 1100 
L 3047 0 
L 2419 0 
L 2419 1100 
L 313 1100 
L 313 1709 
L 2253 4666 
z
" transform="scale(0.015625)"/>
       </defs>
       <use xlink:href="#DejaVuSans-34"/>
       <use xlink:href="#DejaVuSans-30" x="63.623047"/>
       <use xlink:href="#DejaVuSans-30" x="127.246094"/>
      </g>
     </g>
    </g>
    <g id="xtick_4">
     <g id="line2d_4">
      <g>
       <use xlink:href="#m2bc365aecf" x="268.820442" y="307.584" style="stroke: #000000; stroke-width: 0.8"/>
      </g>
     </g>
     <g id="text_4">
      <!-- 600 -->
      <g transform="translate(259.276692 322.182437)scale(0.1 -0.1)">
       <defs>
        <path id="DejaVuSans-36" d="M 2113 2584 
Q 1688 2584 1439 2293 
Q 1191 2003 1191 1497 
Q 1191 994 1439 701 
Q 1688 409 2113 409 
Q 2538 409 2786 701 
Q 3034 994 3034 1497 
Q 3034 2003 2786 2293 
Q 2538 2584 2113 2584 
z
M 3366 4563 
L 3366 3988 
Q 3128 4100 2886 4159 
Q 2644 4219 2406 4219 
Q 1781 4219 1451 3797 
Q 1122 3375 1075 2522 
Q 1259 2794 1537 2939 
Q 1816 3084 2150 3084 
Q 2853 3084 3261 2657 
Q 3669 2231 3669 1497 
Q 3669 778 3244 343 
Q 2819 -91 2113 -91 
Q 1303 -91 875 529 
Q 447 1150 447 2328 
Q 447 3434 972 4092 
Q 1497 4750 2381 4750 
Q 2619 4750 2861 4703 
Q 3103 4656 3366 4563 
z
" transform="scale(0.015625)"/>
       </defs>
       <use xlink:href="#DejaVuSans-36"/>
       <use xlink:href="#DejaVuSans-30" x="63.623047"/>
       <use xlink:href="#DejaVuSans-30" x="127.246094"/>
      </g>
     </g>
    </g>
    <g id="xtick_5">
     <g id="line2d_5">
      <g>
       <use xlink:href="#m2bc365aecf" x="333.816347" y="307.584" style="stroke: #000000; stroke-width: 0.8"/>
      </g>
     </g>
     <g id="text_5">
      <!-- 800 -->
      <g transform="translate(324.272597 322.182437)scale(0.1 -0.1)">
       <defs>
        <path id="DejaVuSans-38" d="M 2034 2216 
Q 1584 2216 1326 1975 
Q 1069 1734 1069 1313 
Q 1069 891 1326 650 
Q 1584 409 2034 409 
Q 2484 409 2743 651 
Q 3003 894 3003 1313 
Q 3003 1734 2745 1975 
Q 2488 2216 2034 2216 
z
M 1403 2484 
Q 997 2584 770 2862 
Q 544 3141 544 3541 
Q 544 4100 942 4425 
Q 1341 4750 2034 4750 
Q 2731 4750 3128 4425 
Q 3525 4100 3525 3541 
Q 3525 3141 3298 2862 
Q 3072 2584 2669 2484 
Q 3125 2378 3379 2068 
Q 3634 1759 3634 1313 
Q 3634 634 3220 271 
Q 2806 -91 2034 -91 
Q 1263 -91 848 271 
Q 434 634 434 1313 
Q 434 1759 690 2068 
Q 947 2378 1403 2484 
z
M 1172 3481 
Q 1172 3119 1398 2916 
Q 1625 2713 2034 2713 
Q 2441 2713 2670 2916 
Q 2900 3119 2900 3481 
Q 2900 3844 2670 4047 
Q 2441 4250 2034 4250 
Q 1625 4250 1398 4047 
Q 1172 3844 1172 3481 
z
" transform="scale(0.015625)"/>
       </defs>
       <use xlink:href="#DejaVuSans-38"/>
       <use xlink:href="#DejaVuSans-30" x="63.623047"/>
       <use xlink:href="#DejaVuSans-30" x="127.246094"/>
      </g>
     </g>
    </g>
    <g id="xtick_6">
     <g id="line2d_6">
      <g>
       <use xlink:href="#m2bc365aecf" x="398.812252" y="307.584" style="stroke: #000000; stroke-width: 0.8"/>
      </g>
     </g>
     <g id="text_6">
      <!-- 1000 -->
      <g transform="translate(386.087252 322.182437)scale(0.1 -0.1)">
       <defs>
        <path id="DejaVuSans-31" d="M 794 531 
L 1825 531 
L 1825 4091 
L 703 3866 
L 703 4441 
L 1819 4666 
L 2450 4666 
L 2450 531 
L 3481 531 
L 3481 0 
L 794 0 
L 794 531 
z
" transform="scale(0.015625)"/>
       </defs>
       <use xlink:href="#DejaVuSans-31"/>
       <use xlink:href="#DejaVuSans-30" x="63.623047"/>
       <use xlink:href="#DejaVuSans-30" x="127.246094"/>
       <use xlink:href="#DejaVuSans-30" x="190.869141"/>
      </g>
     </g>
    </g>
    <g id="text_7">
     <!-- Timestamps -->
     <g transform="translate(190.392422 339.659781)scale(0.15 -0.15)">
      <defs>
       <path id="DejaVuSans-54" d="M -19 4666 
L 3928 4666 
L 3928 4134 
L 2272 4134 
L 2272 0 
L 1638 0 
L 1638 4134 
L -19 4134 
L -19 4666 
z
" transform="scale(0.015625)"/>
       <path id="DejaVuSans-69" d="M 603 3500 
L 1178 3500 
L 1178 0 
L 603 0 
L 603 3500 
z
M 603 4863 
L 1178 4863 
L 1178 4134 
L 603 4134 
L 603 4863 
z
" transform="scale(0.015625)"/>
       <path id="DejaVuSans-6d" d="M 3328 2828 
Q 3544 3216 3844 3400 
Q 4144 3584 4550 3584 
Q 5097 3584 5394 3201 
Q 5691 2819 5691 2113 
L 5691 0 
L 5113 0 
L 5113 2094 
Q 5113 2597 4934 2840 
Q 4756 3084 4391 3084 
Q 3944 3084 3684 2787 
Q 3425 2491 3425 1978 
L 3425 0 
L 2847 0 
L 2847 2094 
Q 2847 2600 2669 2842 
Q 2491 3084 2119 3084 
Q 1678 3084 1418 2786 
Q 1159 2488 1159 1978 
L 1159 0 
L 581 0 
L 581 3500 
L 1159 3500 
L 1159 2956 
Q 1356 3278 1631 3431 
Q 1906 3584 2284 3584 
Q 2666 3584 2933 3390 
Q 3200 3197 3328 2828 
z
" transform="scale(0.015625)"/>
       <path id="DejaVuSans-65" d="M 3597 1894 
L 3597 1613 
L 953 1613 
Q 991 1019 1311 708 
Q 1631 397 2203 397 
Q 2534 397 2845 478 
Q 3156 559 3463 722 
L 3463 178 
Q 3153 47 2828 -22 
Q 2503 -91 2169 -91 
Q 1331 -91 842 396 
Q 353 884 353 1716 
Q 353 2575 817 3079 
Q 1281 3584 2069 3584 
Q 2775 3584 3186 3129 
Q 3597 2675 3597 1894 
z
M 3022 2063 
Q 3016 2534 2758 2815 
Q 2500 3097 2075 3097 
Q 1594 3097 1305 2825 
Q 1016 2553 972 2059 
L 3022 2063 
z
" transform="scale(0.015625)"/>
       <path id="DejaVuSans-73" d="M 2834 3397 
L 2834 2853 
Q 2591 2978 2328 3040 
Q 2066 3103 1784 3103 
Q 1356 3103 1142 2972 
Q 928 2841 928 2578 
Q 928 2378 1081 2264 
Q 1234 2150 1697 2047 
L 1894 2003 
Q 2506 1872 2764 1633 
Q 3022 1394 3022 966 
Q 3022 478 2636 193 
Q 2250 -91 1575 -91 
Q 1294 -91 989 -36 
Q 684 19 347 128 
L 347 722 
Q 666 556 975 473 
Q 1284 391 1588 391 
Q 1994 391 2212 530 
Q 2431 669 2431 922 
Q 2431 1156 2273 1281 
Q 2116 1406 1581 1522 
L 1381 1569 
Q 847 1681 609 1914 
Q 372 2147 372 2553 
Q 372 3047 722 3315 
Q 1072 3584 1716 3584 
Q 2034 3584 2315 3537 
Q 2597 3491 2834 3397 
z
" transform="scale(0.015625)"/>
       <path id="DejaVuSans-74" d="M 1172 4494 
L 1172 3500 
L 2356 3500 
L 2356 3053 
L 1172 3053 
L 1172 1153 
Q 1172 725 1289 603 
Q 1406 481 1766 481 
L 2356 481 
L 2356 0 
L 1766 0 
Q 1100 0 847 248 
Q 594 497 594 1153 
L 594 3053 
L 172 3053 
L 172 3500 
L 594 3500 
L 594 4494 
L 1172 4494 
z
" transform="scale(0.015625)"/>
       <path id="DejaVuSans-61" d="M 2194 1759 
Q 1497 1759 1228 1600 
Q 959 1441 959 1056 
Q 959 750 1161 570 
Q 1363 391 1709 391 
Q 2188 391 2477 730 
Q 2766 1069 2766 1631 
L 2766 1759 
L 2194 1759 
z
M 3341 1997 
L 3341 0 
L 2766 0 
L 2766 531 
Q 2569 213 2275 61 
Q 1981 -91 1556 -91 
Q 1019 -91 701 211 
Q 384 513 384 1019 
Q 384 1609 779 1909 
Q 1175 2209 1959 2209 
L 2766 2209 
L 2766 2266 
Q 2766 2663 2505 2880 
Q 2244 3097 1772 3097 
Q 1472 3097 1187 3025 
Q 903 2953 641 2809 
L 641 3341 
Q 956 3463 1253 3523 
Q 1550 3584 1831 3584 
Q 2591 3584 2966 3190 
Q 3341 2797 3341 1997 
z
" transform="scale(0.015625)"/>
       <path id="DejaVuSans-70" d="M 1159 525 
L 1159 -1331 
L 581 -1331 
L 581 3500 
L 1159 3500 
L 1159 2969 
Q 1341 3281 1617 3432 
Q 1894 3584 2278 3584 
Q 2916 3584 3314 3078 
Q 3713 2572 3713 1747 
Q 3713 922 3314 415 
Q 2916 -91 2278 -91 
Q 1894 -91 1617 61 
Q 1341 213 1159 525 
z
M 3116 1747 
Q 3116 2381 2855 2742 
Q 2594 3103 2138 3103 
Q 1681 3103 1420 2742 
Q 1159 2381 1159 1747 
Q 1159 1113 1420 752 
Q 1681 391 2138 391 
Q 2594 391 2855 752 
Q 3116 1113 3116 1747 
z
" transform="scale(0.015625)"/>
      </defs>
      <use xlink:href="#DejaVuSans-54"/>
      <use xlink:href="#DejaVuSans-69" x="57.958984"/>
      <use xlink:href="#DejaVuSans-6d" x="85.742188"/>
      <use xlink:href="#DejaVuSans-65" x="183.154297"/>
      <use xlink:href="#DejaVuSans-73" x="244.677734"/>
      <use xlink:href="#DejaVuSans-74" x="296.777344"/>
      <use xlink:href="#DejaVuSans-61" x="335.986328"/>
      <use xlink:href="#DejaVuSans-6d" x="397.265625"/>
      <use xlink:href="#DejaVuSans-70" x="494.677734"/>
      <use xlink:href="#DejaVuSans-73" x="558.154297"/>
     </g>
    </g>
   </g>
   <g id="matplotlib.axis_2">
    <g id="ytick_1">
     <g id="line2d_7">
      <defs>
       <path id="mbf8c590e3a" d="M 0 0 
L -3.5 0 
" style="stroke: #000000; stroke-width: 0.8"/>
      </defs>
      <g>
       <use xlink:href="#mbf8c590e3a" x="57.6" y="295.518921" style="stroke: #000000; stroke-width: 0.8"/>
      </g>
     </g>
     <g id="text_8">
      <!-- −1.00 -->
      <g transform="translate(19.954687 299.31814)scale(0.1 -0.1)">
       <defs>
        <path id="DejaVuSans-2212" d="M 678 2272 
L 4684 2272 
L 4684 1741 
L 678 1741 
L 678 2272 
z
" transform="scale(0.015625)"/>
        <path id="DejaVuSans-2e" d="M 684 794 
L 1344 794 
L 1344 0 
L 684 0 
L 684 794 
z
" transform="scale(0.015625)"/>
       </defs>
       <use xlink:href="#DejaVuSans-2212"/>
       <use xlink:href="#DejaVuSans-31" x="83.789062"/>
       <use xlink:href="#DejaVuSans-2e" x="147.412109"/>
       <use xlink:href="#DejaVuSans-30" x="179.199219"/>
       <use xlink:href="#DejaVuSans-30" x="242.822266"/>
      </g>
     </g>
    </g>
    <g id="ytick_2">
     <g id="line2d_8">
      <g>
       <use xlink:href="#mbf8c590e3a" x="57.6" y="259.06954" style="stroke: #000000; stroke-width: 0.8"/>
      </g>
     </g>
     <g id="text_9">
      <!-- −0.75 -->
      <g transform="translate(19.954687 262.868758)scale(0.1 -0.1)">
       <defs>
        <path id="DejaVuSans-37" d="M 525 4666 
L 3525 4666 
L 3525 4397 
L 1831 0 
L 1172 0 
L 2766 4134 
L 525 4134 
L 525 4666 
z
" transform="scale(0.015625)"/>
        <path id="DejaVuSans-35" d="M 691 4666 
L 3169 4666 
L 3169 4134 
L 1269 4134 
L 1269 2991 
Q 1406 3038 1543 3061 
Q 1681 3084 1819 3084 
Q 2600 3084 3056 2656 
Q 3513 2228 3513 1497 
Q 3513 744 3044 326 
Q 2575 -91 1722 -91 
Q 1428 -91 1123 -41 
Q 819 9 494 109 
L 494 744 
Q 775 591 1075 516 
Q 1375 441 1709 441 
Q 2250 441 2565 725 
Q 2881 1009 2881 1497 
Q 2881 1984 2565 2268 
Q 2250 2553 1709 2553 
Q 1456 2553 1204 2497 
Q 953 2441 691 2322 
L 691 4666 
z
" transform="scale(0.015625)"/>
       </defs>
       <use xlink:href="#DejaVuSans-2212"/>
       <use xlink:href="#DejaVuSans-30" x="83.789062"/>
       <use xlink:href="#DejaVuSans-2e" x="147.412109"/>
       <use xlink:href="#DejaVuSans-37" x="179.199219"/>
       <use xlink:href="#DejaVuSans-35" x="242.822266"/>
      </g>
     </g>
    </g>
    <g id="ytick_3">
     <g id="line2d_9">
      <g>
       <use xlink:href="#mbf8c590e3a" x="57.6" y="222.620158" style="stroke: #000000; stroke-width: 0.8"/>
      </g>
     </g>
     <g id="text_10">
      <!-- −0.50 -->
      <g transform="translate(19.954687 226.419377)scale(0.1 -0.1)">
       <use xlink:href="#DejaVuSans-2212"/>
       <use xlink:href="#DejaVuSans-30" x="83.789062"/>
       <use xlink:href="#DejaVuSans-2e" x="147.412109"/>
       <use xlink:href="#DejaVuSans-35" x="179.199219"/>
       <use xlink:href="#DejaVuSans-30" x="242.822266"/>
      </g>
     </g>
    </g>
    <g id="ytick_4">
     <g id="line2d_10">
      <g>
       <use xlink:href="#mbf8c590e3a" x="57.6" y="186.170776" style="stroke: #000000; stroke-width: 0.8"/>
      </g>
     </g>
     <g id="text_11">
      <!-- −0.25 -->
      <g transform="translate(19.954687 189.969995)scale(0.1 -0.1)">
       <use xlink:href="#DejaVuSans-2212"/>
       <use xlink:href="#DejaVuSans-30" x="83.789062"/>
       <use xlink:href="#DejaVuSans-2e" x="147.412109"/>
       <use xlink:href="#DejaVuSans-32" x="179.199219"/>
       <use xlink:href="#DejaVuSans-35" x="242.822266"/>
      </g>
     </g>
    </g>
    <g id="ytick_5">
     <g id="line2d_11">
      <g>
       <use xlink:href="#mbf8c590e3a" x="57.6" y="149.721395" style="stroke: #000000; stroke-width: 0.8"/>
      </g>
     </g>
     <g id="text_12">
      <!-- 0.00 -->
      <g transform="translate(28.334375 153.520614)scale(0.1 -0.1)">
       <use xlink:href="#DejaVuSans-30"/>
       <use xlink:href="#DejaVuSans-2e" x="63.623047"/>
       <use xlink:href="#DejaVuSans-30" x="95.410156"/>
       <use xlink:href="#DejaVuSans-30" x="159.033203"/>
      </g>
     </g>
    </g>
    <g id="ytick_6">
     <g id="line2d_12">
      <g>
       <use xlink:href="#mbf8c590e3a" x="57.6" y="113.272013" style="stroke: #000000; stroke-width: 0.8"/>
      </g>
     </g>
     <g id="text_13">
      <!-- 0.25 -->
      <g transform="translate(28.334375 117.071232)scale(0.1 -0.1)">
       <use xlink:href="#DejaVuSans-30"/>
       <use xlink:href="#DejaVuSans-2e" x="63.623047"/>
       <use xlink:href="#DejaVuSans-32" x="95.410156"/>
       <use xlink:href="#DejaVuSans-35" x="159.033203"/>
      </g>
     </g>
    </g>
    <g id="ytick_7">
     <g id="line2d_13">
      <g>
       <use xlink:href="#mbf8c590e3a" x="57.6" y="76.822632" style="stroke: #000000; stroke-width: 0.8"/>
      </g>
     </g>
     <g id="text_14">
      <!-- 0.50 -->
      <g transform="translate(28.334375 80.62185)scale(0.1 -0.1)">
       <use xlink:href="#DejaVuSans-30"/>
       <use xlink:href="#DejaVuSans-2e" x="63.623047"/>
       <use xlink:href="#DejaVuSans-35" x="95.410156"/>
       <use xlink:href="#DejaVuSans-30" x="159.033203"/>
      </g>
     </g>
    </g>
    <g id="text_15">
     <!-- Magnitude -->
     <g transform="translate(12.835156 214.262766)rotate(-90)scale(0.15 -0.15)">
      <defs>
       <path id="DejaVuSans-4d" d="M 628 4666 
L 1569 4666 
L 2759 1491 
L 3956 4666 
L 4897 4666 
L 4897 0 
L 4281 0 
L 4281 4097 
L 3078 897 
L 2444 897 
L 1241 4097 
L 1241 0 
L 628 0 
L 628 4666 
z
" transform="scale(0.015625)"/>
       <path id="DejaVuSans-67" d="M 2906 1791 
Q 2906 2416 2648 2759 
Q 2391 3103 1925 3103 
Q 1463 3103 1205 2759 
Q 947 2416 947 1791 
Q 947 1169 1205 825 
Q 1463 481 1925 481 
Q 2391 481 2648 825 
Q 2906 1169 2906 1791 
z
M 3481 434 
Q 3481 -459 3084 -895 
Q 2688 -1331 1869 -1331 
Q 1566 -1331 1297 -1286 
Q 1028 -1241 775 -1147 
L 775 -588 
Q 1028 -725 1275 -790 
Q 1522 -856 1778 -856 
Q 2344 -856 2625 -561 
Q 2906 -266 2906 331 
L 2906 616 
Q 2728 306 2450 153 
Q 2172 0 1784 0 
Q 1141 0 747 490 
Q 353 981 353 1791 
Q 353 2603 747 3093 
Q 1141 3584 1784 3584 
Q 2172 3584 2450 3431 
Q 2728 3278 2906 2969 
L 2906 3500 
L 3481 3500 
L 3481 434 
z
" transform="scale(0.015625)"/>
       <path id="DejaVuSans-6e" d="M 3513 2113 
L 3513 0 
L 2938 0 
L 2938 2094 
Q 2938 2591 2744 2837 
Q 2550 3084 2163 3084 
Q 1697 3084 1428 2787 
Q 1159 2491 1159 1978 
L 1159 0 
L 581 0 
L 581 3500 
L 1159 3500 
L 1159 2956 
Q 1366 3272 1645 3428 
Q 1925 3584 2291 3584 
Q 2894 3584 3203 3211 
Q 3513 2838 3513 2113 
z
" transform="scale(0.015625)"/>
       <path id="DejaVuSans-75" d="M 544 1381 
L 544 3500 
L 1119 3500 
L 1119 1403 
Q 1119 906 1312 657 
Q 1506 409 1894 409 
Q 2359 409 2629 706 
Q 2900 1003 2900 1516 
L 2900 3500 
L 3475 3500 
L 3475 0 
L 2900 0 
L 2900 538 
Q 2691 219 2414 64 
Q 2138 -91 1772 -91 
Q 1169 -91 856 284 
Q 544 659 544 1381 
z
M 1991 3584 
L 1991 3584 
z
" transform="scale(0.015625)"/>
       <path id="DejaVuSans-64" d="M 2906 2969 
L 2906 4863 
L 3481 4863 
L 3481 0 
L 2906 0 
L 2906 525 
Q 2725 213 2448 61 
Q 2172 -91 1784 -91 
Q 1150 -91 751 415 
Q 353 922 353 1747 
Q 353 2572 751 3078 
Q 1150 3584 1784 3584 
Q 2172 3584 2448 3432 
Q 2725 3281 2906 2969 
z
M 947 1747 
Q 947 1113 1208 752 
Q 1469 391 1925 391 
Q 2381 391 2643 752 
Q 2906 1113 2906 1747 
Q 2906 2381 2643 2742 
Q 2381 3103 1925 3103 
Q 1469 3103 1208 2742 
Q 947 2381 947 1747 
z
" transform="scale(0.015625)"/>
      </defs>
      <use xlink:href="#DejaVuSans-4d"/>
      <use xlink:href="#DejaVuSans-61" x="86.279297"/>
      <use xlink:href="#DejaVuSans-67" x="147.558594"/>
      <use xlink:href="#DejaVuSans-6e" x="211.035156"/>
      <use xlink:href="#DejaVuSans-69" x="274.414062"/>
      <use xlink:href="#DejaVuSans-74" x="302.197266"/>
      <use xlink:href="#DejaVuSans-75" x="341.40625"/>
      <use xlink:href="#DejaVuSans-64" x="404.785156"/>
      <use xlink:href="#DejaVuSans-65" x="468.261719"/>
     </g>
    </g>
   </g>
   <g id="line2d_14">
    <path d="M 73.832727 294.207141 
L 88.131826 293.615786 
L 98.206192 293.494275 
L 104.705782 293.762612 
L 107.305618 294.152989 
L 111.530352 294.84113 
L 112.83027 294.768902 
L 113.480229 294.574301 
L 114.780147 294.038862 
L 115.430106 293.668255 
L 116.080066 292.948844 
L 117.379984 291.649744 
L 117.704963 291.264552 
L 118.029943 290.388362 
L 119.65484 287.825578 
L 119.97982 287.274955 
L 120.304799 286.026217 
L 122.579656 280.91488 
L 123.229615 278.620896 
L 124.204554 276.308973 
L 124.529533 275.670041 
L 125.179492 273.787708 
L 125.504472 272.13127 
L 128.429287 265.166149 
L 128.754267 263.704942 
L 130.704144 259.46422 
L 131.354103 258.328389 
L 131.679083 256.962629 
L 132.004062 256.338314 
L 132.654021 254.242692 
L 132.979001 253.639905 
L 133.30398 252.442369 
L 134.928878 249.890393 
L 135.903817 248.528356 
L 136.228796 247.758192 
L 138.178673 245.806354 
L 138.503653 245.267651 
L 138.828632 245.267651 
L 139.153612 244.780627 
L 140.12855 244.061993 
L 142.078428 243.181444 
L 144.353284 242.56114 
L 145.003243 242.502122 
L 145.653202 242.387582 
L 146.628141 242.301949 
L 149.227977 242.224608 
L 151.827813 241.791952 
L 152.802752 241.609338 
L 154.10267 241.382869 
L 155.077609 241.201228 
L 158.652383 240.857203 
L 160.277281 240.80826 
L 162.227158 240.819797 
L 164.177035 241.14977 
L 164.826994 241.401659 
L 165.476953 241.893093 
L 165.801933 242.16742 
L 166.126912 242.90459 
L 166.451892 243.253015 
L 167.75181 245.341434 
L 168.07679 246.231282 
L 168.401769 247.719206 
L 169.376708 250.303393 
L 170.026667 252.519621 
L 170.351646 255.469374 
L 171.326585 259.739839 
L 172.626503 264.99799 
L 173.276462 267.854828 
L 173.601441 270.652244 
L 175.876298 280.70795 
L 176.201278 283.312896 
L 177.501196 288.274487 
L 177.826175 290.309943 
L 178.801114 292.581489 
L 180.101032 294.918601 
L 180.750991 295.34595 
L 181.075971 295.488 
L 181.72593 295.350441 
L 182.375889 294.943349 
L 183.025848 294.311361 
L 183.350827 293.872216 
L 183.675807 292.89091 
L 185.625684 289.453913 
L 185.950663 288.87449 
L 186.275643 287.76214 
L 187.250581 286.408683 
L 189.200459 284.474066 
L 190.175397 284.102785 
L 191.150336 283.910145 
L 192.125274 283.972309 
L 193.100213 284.218813 
L 193.750172 284.59697 
L 194.725111 284.993376 
L 195.05009 285.284392 
L 198.624865 286.517344 
L 199.599803 286.566661 
L 200.574742 286.34405 
L 201.549681 285.894736 
L 202.19964 285.059687 
L 202.849599 284.298658 
L 203.824537 282.775317 
L 204.474496 281.480729 
L 204.799476 279.940034 
L 205.774414 277.270657 
L 206.099394 275.322256 
L 207.724292 269.707218 
L 208.049271 268.390766 
L 208.374251 265.394818 
L 209.349189 259.505528 
L 209.999148 254.07738 
L 210.324128 247.883095 
L 211.624046 233.594826 
L 211.949025 229.606878 
L 212.274005 221.654573 
L 214.223882 197.281369 
L 214.548862 189.000281 
L 214.873841 189.000281 
L 215.198821 180.989258 
L 216.498739 166.853189 
L 217.148698 160.802139 
L 217.473677 155.160611 
L 218.773595 145.392542 
L 219.423554 141.41578 
L 219.748534 138.08823 
L 220.398493 135.56788 
L 221.048452 133.875513 
L 221.698411 132.787399 
L 222.34837 132.479312 
L 222.67335 132.603079 
L 222.998329 133.517858 
L 223.323309 133.517858 
L 223.648288 135.134986 
L 223.973268 133.097783 
L 224.298247 133.442212 
L 225.273186 136.43353 
L 225.598165 138.560041 
L 227.223063 144.145316 
L 227.548043 146.052249 
L 228.522981 148.628203 
L 229.822899 151.102138 
L 232.097756 152.934021 
L 233.072695 153.052335 
L 234.047633 152.989738 
L 235.672531 152.670058 
L 238.272367 152.260804 
L 239.897265 152.280579 
L 243.14706 152.349504 
L 243.797019 152.18726 
L 244.446978 151.675125 
L 245.096937 151.773736 
L 246.396855 151.121416 
L 247.696773 151.225177 
L 248.346732 151.685466 
L 248.671712 151.680713 
L 249.97163 152.514153 
L 250.296609 153.647375 
L 251.271548 155.803287 
L 251.921507 157.609292 
L 252.246486 160.022917 
L 253.221425 163.379533 
L 253.546405 164.953226 
L 253.871384 168.778257 
L 254.846323 175.974089 
L 255.171302 181.321415 
L 257.771138 202.077891 
L 258.421097 211.057646 
L 260.045995 225.909042 
L 260.370975 230.744588 
L 260.695954 237.89721 
L 261.345913 243.955467 
L 261.670893 249.692211 
L 262.645831 257.174042 
L 264.270729 267.550772 
L 264.920688 269.96415 
L 265.895627 272.615339 
L 266.545586 273.793544 
L 267.520524 275.009649 
L 268.170483 275.275516 
L 269.795381 275.578234 
L 270.44534 275.540453 
L 271.420278 275.162269 
L 273.695135 274.366289 
L 274.345094 273.98278 
L 276.619951 272.833311 
L 278.244848 272.18137 
L 278.569828 272.18137 
L 278.894808 272.015138 
L 280.194726 271.968659 
L 280.844685 272.085628 
L 281.494644 272.328753 
L 281.819623 272.395865 
L 282.144603 272.290204 
L 282.469582 272.061249 
L 282.794562 272.143208 
L 283.119541 272.825385 
L 283.444521 273.224941 
L 283.7695 273.293772 
L 284.09448 273.661892 
L 285.069419 275.663443 
L 285.394398 278.449364 
L 285.719378 279.269791 
L 286.044357 280.695761 
L 287.994234 284.92434 
L 288.319214 286.145522 
L 288.969173 287.077259 
L 289.619132 287.637652 
L 290.269091 287.732797 
L 290.59407 287.581548 
L 291.893989 284.753526 
L 292.218968 282.60306 
L 293.193907 278.143083 
L 293.518886 276.363461 
L 293.843866 272.391804 
L 295.143784 263.186812 
L 295.468763 257.692889 
L 298.0686 233.84159 
L 298.393579 228.808214 
L 299.043538 224.880733 
L 300.343456 219.266614 
L 300.668436 218.090605 
L 300.993415 215.784571 
L 301.968354 212.778251 
L 302.943292 210.464066 
L 304.24321 207.95255 
L 304.89317 207.404262 
L 305.543129 207.051233 
L 306.193088 206.76273 
L 306.518067 206.540645 
L 307.493006 206.497217 
L 308.467944 206.696314 
L 309.117903 206.944942 
L 309.442883 207.1389 
L 310.092842 207.812121 
L 311.067781 208.928122 
L 312.042719 210.42307 
L 312.367699 211.53475 
L 313.342637 213.430439 
L 313.992596 214.974936 
L 314.317576 216.827123 
L 315.617494 221.361782 
L 315.942473 223.790821 
L 318.54231 234.628353 
L 318.867289 238.561074 
L 320.167207 245.577294 
L 320.817166 249.219653 
L 321.142146 253.001046 
L 323.092023 264.435574 
L 323.417002 268.047132 
L 325.36688 278.099932 
L 325.691859 281.184721 
L 327.316757 287.583294 
L 328.941654 292.739581 
L 329.591613 293.733677 
L 330.241572 294.35578 
L 330.891532 294.593584 
L 331.541491 294.335254 
L 332.19145 293.755356 
L 333.166388 292.384946 
L 333.816347 291.283558 
L 334.141327 290.118411 
L 335.766224 287.01602 
L 336.091204 285.912502 
L 337.391122 284.125859 
L 338.69104 282.685104 
L 339.340999 282.399538 
L 340.315938 282.290215 
L 341.290876 282.346363 
L 342.915774 283.20187 
L 343.565733 283.956016 
L 344.540672 284.911587 
L 345.84059 285.921049 
L 346.165569 286.407696 
L 347.465487 287.242806 
L 348.440426 287.752055 
L 350.065324 288.199506 
L 351.040262 288.13599 
L 351.690221 287.905977 
L 353.640098 284.821871 
L 353.965078 284.065362 
L 354.290057 282.236165 
L 355.264996 278.837522 
L 356.239934 274.42666 
L 356.889894 271.039469 
L 357.214873 267.239801 
L 358.514791 258.634108 
L 359.16475 253.592594 
L 359.48973 248.113806 
L 360.789648 236.012193 
L 361.114627 229.955685 
L 363.389484 209.748245 
L 363.714464 207.165868 
L 364.039443 202.230212 
L 365.339361 193.022709 
L 366.3143 187.595948 
L 366.639279 186.120677 
L 366.964259 183.309798 
L 367.614218 180.818987 
L 368.589156 178.292094 
L 368.914136 177.57531 
L 369.239115 176.428824 
L 369.889075 175.57207 
L 370.539034 175.024231 
L 371.513972 174.84572 
L 372.81389 175.677423 
L 373.13887 176.110689 
L 373.463849 177.065104 
L 373.788829 177.587416 
L 374.113808 177.555451 
L 374.438788 178.348728 
L 374.763767 179.633193 
L 375.088747 179.633193 
L 375.413726 181.430799 
L 376.063686 183.37686 
L 376.713645 185.591054 
L 378.013563 191.137264 
L 378.338542 194.295575 
L 378.663522 194.295575 
L 378.988501 197.836286 
L 379.63846 201.680647 
L 380.288419 205.801044 
L 380.613399 210.376871 
L 381.913317 220.050996 
L 382.238296 225.11955 
L 384.188174 240.806753 
L 384.513153 246.002761 
L 386.46303 260.881545 
L 386.78801 265.446146 
L 388.087928 273.569719 
L 388.737887 276.893931 
L 389.062867 279.993875 
L 390.037805 283.937588 
L 391.662703 289.173094 
L 392.637641 290.303153 
L 392.962621 290.530442 
L 393.2876 290.510338 
L 393.937559 290.855159 
L 394.587518 290.947712 
L 395.562457 291.000222 
L 397.837314 290.104237 
L 398.162293 290.152707 
L 398.487273 290.074138 
L 398.487273 290.074138 
" clip-path="url(#p1c5a0d5853)" style="fill: none; stroke: #1f77b4; stroke-width: 1.5; stroke-linecap: square"/>
   </g>
   <g id="line2d_15">
    <path d="M 73.832727 156.989199 
L 74.807666 157.30911 
L 75.457625 157.605981 
L 76.757543 157.834473 
L 77.407502 157.815808 
L 79.357379 158.226006 
L 80.332318 158.337095 
L 80.982277 158.221782 
L 82.282195 158.396492 
L 84.882031 158.674095 
L 89.756724 158.423454 
L 94.306437 158.00452 
L 97.556233 157.935193 
L 98.856151 157.941094 
L 99.50611 157.75544 
L 101.131007 157.426058 
L 101.780966 157.162279 
L 104.705782 156.028703 
L 106.655659 154.414339 
L 107.305618 153.631531 
L 108.605536 151.589052 
L 108.930516 150.42088 
L 109.255495 149.759742 
L 109.905455 148.071286 
L 110.555414 146.516994 
L 110.880393 144.490024 
L 113.15525 136.844346 
L 113.480229 134.360319 
L 115.430106 126.568126 
L 115.755086 123.978533 
L 117.704963 115.923625 
L 118.029943 113.183291 
L 119.97982 105.487235 
L 120.304799 103.002526 
L 121.279738 99.458654 
L 124.204554 89.198497 
L 125.179492 86.471015 
L 125.504472 84.88456 
L 126.47941 82.907318 
L 128.429287 79.570472 
L 128.754267 78.52371 
L 130.054185 76.378815 
L 131.354103 74.687519 
L 131.679083 73.870294 
L 132.004062 73.534219 
L 132.329042 72.010118 
L 133.30398 70.931016 
L 133.953939 70.409357 
L 135.578837 69.488019 
L 135.903817 69.354331 
L 136.228796 69.082383 
L 136.878755 68.910017 
L 137.528714 68.733301 
L 139.478591 68.167406 
L 142.078428 67.97596 
L 145.003243 68.093022 
L 146.95312 68.46405 
L 149.877936 69.01918 
L 151.177854 69.065704 
L 154.10267 68.793822 
L 155.077609 68.641806 
L 157.027486 68.408161 
L 158.002424 68.315655 
L 161.577199 68.308344 
L 163.527076 68.617265 
L 164.177035 68.815686 
L 165.151974 69.135212 
L 165.801933 69.547352 
L 166.451892 70.457209 
L 167.101851 71.266317 
L 168.07679 72.72189 
L 168.401769 73.901932 
L 169.051728 75.090359 
L 169.701687 76.613372 
L 170.026667 77.405192 
L 170.351646 80.084738 
L 171.326585 83.491647 
L 172.301523 87.216069 
L 173.276462 91.258365 
L 173.601441 93.808294 
L 174.57638 98.33168 
L 175.876298 105.907778 
L 176.201278 109.928388 
L 177.501196 118.95991 
L 177.826175 123.763028 
L 179.451073 135.209283 
L 179.776052 139.786199 
L 180.750991 146.759245 
L 181.075971 151.59252 
L 183.350827 169.681935 
L 183.675807 174.741189 
L 184.325766 179.450591 
L 185.625684 187.002633 
L 185.950663 188.745338 
L 186.275643 191.953699 
L 187.250581 195.677128 
L 189.200459 200.725219 
L 189.850418 201.523386 
L 190.500377 202.17959 
L 191.150336 202.611612 
L 191.800295 202.7614 
L 192.450254 202.632768 
L 193.100213 202.27903 
L 193.750172 201.599102 
L 194.725111 200.804234 
L 195.05009 200.183006 
L 196.999967 198.402039 
L 197.324947 197.925669 
L 198.949844 197.039718 
L 199.599803 197.009951 
L 200.249762 197.301779 
L 201.224701 198.175198 
L 201.549681 198.674281 
L 202.19964 200.710276 
L 202.849599 202.558833 
L 203.824537 206.113313 
L 204.474496 208.91113 
L 204.799476 212.04804 
L 205.774414 217.219979 
L 206.099394 220.817866 
L 208.049271 232.18691 
L 208.374251 236.448756 
L 209.674169 246.640891 
L 209.999148 249.512585 
L 210.324128 255.352451 
L 212.923964 277.798777 
L 213.898903 283.051704 
L 214.223882 284.555867 
L 214.548862 287.100777 
L 214.873841 287.100777 
L 215.198821 289.058613 
L 215.84878 290.469917 
L 216.498739 291.410572 
L 217.473677 292.323942 
L 218.123636 292.36944 
L 219.098575 292.099917 
L 219.423554 291.961756 
L 220.073514 291.390107 
L 222.998329 289.615591 
L 223.323309 289.615591 
L 223.648288 289.480132 
L 223.973268 288.632904 
L 224.298247 288.236396 
L 226.248124 287.207917 
L 227.223063 286.828539 
L 227.548043 286.535461 
L 231.122817 285.303228 
L 234.047633 284.84047 
L 241.522162 284.46963 
L 243.14706 284.418309 
L 243.797019 284.479824 
L 245.421916 285.203428 
L 246.071876 285.628782 
L 246.396855 286.09108 
L 246.721835 286.09108 
L 247.046814 286.673062 
L 247.696773 287.341582 
L 248.021753 288.123495 
L 249.64665 290.052124 
L 249.97163 290.397794 
L 250.296609 291.212363 
L 251.271548 292.340634 
L 252.571466 293.642449 
L 253.221425 293.885677 
L 253.546405 293.944152 
L 254.196364 293.689393 
L 254.846323 293.073105 
L 255.171302 292.053201 
L 255.821261 290.770051 
L 256.7962 288.431834 
L 257.771138 285.481362 
L 258.421097 281.429053 
L 259.396036 276.494117 
L 260.045995 272.991739 
L 260.370975 269.516204 
L 260.695954 263.485665 
L 261.345913 258.004982 
L 261.670893 252.058636 
L 263.62077 233.838404 
L 263.945749 228.575075 
L 265.245667 218.559433 
L 266.220606 213.002407 
L 266.870565 210.301363 
L 267.195545 209.218736 
L 267.520524 207.460478 
L 268.170483 206.160129 
L 268.495463 205.675779 
L 268.820442 204.797723 
L 269.795381 204.168737 
L 270.44534 203.841022 
L 272.070238 203.767687 
L 273.695135 203.771776 
L 274.995053 204.069311 
L 276.294971 204.14685 
L 277.919869 203.824169 
L 278.244848 203.523197 
L 278.569828 203.523197 
L 279.544767 202.504005 
L 280.194726 201.73364 
L 280.844685 200.600843 
L 281.494644 198.143495 
L 282.469582 195.439972 
L 282.794562 194.503818 
L 283.444521 190.767569 
L 283.7695 189.919432 
L 284.09448 188.578035 
L 285.069419 182.61157 
L 285.394398 176.81856 
L 285.719378 173.584352 
L 286.044357 167.582284 
L 287.344275 154.403751 
L 287.994234 146.894158 
L 288.319214 139.251088 
L 290.59407 112.160579 
L 290.91905 104.988044 
L 291.893989 95.371413 
L 292.218968 89.728657 
L 294.168845 73.729607 
L 295.143784 68.869431 
L 295.468763 65.82717 
L 296.118722 63.077273 
L 297.093661 60.002344 
L 297.74362 58.783029 
L 298.393579 57.440646 
L 299.043538 57.247283 
L 299.693497 57.301112 
L 300.343456 57.483451 
L 300.993415 57.452109 
L 302.293333 57.321396 
L 302.618313 57.379607 
L 303.268272 57.358933 
L 303.918231 57.398857 
L 306.518067 57.100851 
L 308.142965 56.563827 
L 314.642555 53.568 
L 315.617494 53.822299 
L 317.567371 55.835168 
L 318.21733 57.129557 
L 318.54231 57.532365 
L 318.867289 58.310005 
L 319.192269 58.670838 
L 320.167207 60.936971 
L 320.817166 62.775091 
L 321.142146 64.921939 
L 322.767043 71.153292 
L 323.092023 72.566349 
L 323.417002 75.693352 
L 324.716921 82.907581 
L 325.36688 86.887851 
L 325.691859 91.392699 
L 326.666798 98.586175 
L 328.291695 112.363511 
L 328.616675 118.296143 
L 330.566552 137.757625 
L 330.891532 144.339531 
L 333.491368 169.114114 
L 333.816347 171.869951 
L 334.141327 177.120077 
L 335.441245 186.418454 
L 335.766224 188.46423 
L 336.091204 192.001942 
L 337.066143 196.413139 
L 338.69104 202.234681 
L 339.340999 203.394441 
L 340.640917 204.919323 
L 341.290876 205.401117 
L 342.915774 204.908905 
L 344.540672 202.794261 
L 345.190631 202.116688 
L 345.84059 201.165803 
L 346.165569 200.13927 
L 347.790467 197.560196 
L 348.765405 196.335852 
L 349.090385 195.695369 
L 349.740344 195.390197 
L 350.390303 195.205858 
L 351.040262 195.244758 
L 351.690221 195.563368 
L 353.965078 201.929987 
L 354.290057 204.694806 
L 355.589975 210.713535 
L 356.889894 217.800883 
L 357.214873 221.44971 
L 359.16475 232.541255 
L 359.48973 236.156077 
L 360.139689 239.644845 
L 361.439607 248.445263 
L 362.739525 253.396371 
L 364.364423 258.533804 
L 365.664341 261.195228 
L 366.639279 262.526639 
L 366.964259 263.382833 
L 367.939197 264.605334 
L 368.914136 265.531399 
L 369.239115 266.042803 
L 370.214054 266.849498 
L 371.188993 267.500802 
L 371.838952 267.933701 
L 372.81389 268.239539 
L 373.463849 268.258818 
L 373.788829 268.110736 
L 374.438788 268.017355 
L 374.763767 267.711714 
L 375.088747 267.711714 
L 376.713645 266.755176 
L 378.013563 265.544826 
L 378.338542 264.866183 
L 378.663522 264.866183 
L 378.988501 264.011528 
L 379.63846 263.140905 
L 380.288419 261.946039 
L 380.613399 260.511841 
L 381.588337 258.289009 
L 381.913317 257.371916 
L 382.238296 255.393066 
L 383.213235 251.837118 
L 384.188174 247.774256 
L 384.513153 244.886671 
L 385.813071 237.89597 
L 386.46303 234.069492 
L 386.78801 230.184896 
L 388.737887 217.907191 
L 389.062867 213.528719 
L 390.362785 203.877634 
L 391.012744 198.664958 
L 391.337723 193.438691 
L 392.312662 186.084703 
L 392.962621 181.353085 
L 393.2876 180.206399 
L 395.887437 159.633094 
L 396.537396 157.129108 
L 397.837314 152.871656 
L 398.162293 152.34318 
L 398.487273 152.104675 
L 398.487273 152.104675 
" clip-path="url(#p1c5a0d5853)" style="fill: none; stroke: #ff7f0e; stroke-width: 1.5; stroke-linecap: square"/>
   </g>
   <g id="line2d_16">
    <path d="M 73.832727 167.831379 
L 76.107584 168.553306 
L 77.082523 168.798682 
L 80.007338 169.614622 
L 82.282195 170.446827 
L 83.582113 170.611845 
L 84.882031 170.66475 
L 89.431744 171.758761 
L 90.081704 171.956459 
L 93.981458 172.780655 
L 96.581294 172.800507 
L 99.18113 172.391948 
L 100.806028 172.296355 
L 104.380803 171.50933 
L 105.355741 171.082312 
L 106.0057 170.48843 
L 106.980639 169.706794 
L 107.630598 168.918119 
L 108.280557 168.404516 
L 108.605536 168.020864 
L 109.580475 165.880252 
L 110.555414 164.286988 
L 110.880393 163.150475 
L 112.180311 160.169627 
L 113.15525 157.892716 
L 113.480229 155.933707 
L 115.430106 150.110614 
L 115.755086 148.016556 
L 117.704963 140.767934 
L 118.029943 138.115717 
L 119.65484 131.511401 
L 119.97982 130.246456 
L 120.304799 127.466837 
L 122.579656 117.438519 
L 122.904636 114.883061 
L 123.554595 112.143439 
L 124.204554 110.104729 
L 124.529533 109.475776 
L 125.179492 106.548912 
L 125.504472 104.235917 
L 128.429287 94.873638 
L 128.754267 93.192068 
L 130.379165 89.54135 
L 131.354103 87.823423 
L 131.679083 86.453344 
L 132.004062 85.805275 
L 132.329042 85.569169 
L 133.62896 82.169714 
L 136.878755 77.296396 
L 137.528714 76.631837 
L 138.178673 75.994383 
L 138.503653 75.501148 
L 138.828632 75.501148 
L 139.478591 74.745129 
L 140.12855 74.314679 
L 141.103489 73.865106 
L 141.428468 73.496801 
L 143.378346 72.915146 
L 143.703325 72.674525 
L 150.852875 70.691466 
L 154.10267 70.312187 
L 159.302342 70.188578 
L 161.902179 70.096234 
L 163.852056 69.983702 
L 165.151974 70.222834 
L 165.801933 70.457445 
L 166.126912 70.75852 
L 166.451892 70.816688 
L 166.776871 71.102187 
L 167.42683 71.327047 
L 167.75181 71.546383 
L 169.051728 73.886336 
L 169.701687 75.02452 
L 170.026667 75.830855 
L 170.676626 78.602985 
L 171.651564 81.550306 
L 172.626503 84.699391 
L 173.276462 87.403816 
L 173.601441 90.506755 
L 174.90136 97.479293 
L 175.876298 103.033019 
L 176.201278 106.98098 
L 177.176216 113.965867 
L 177.501196 116.349378 
L 177.826175 121.121709 
L 179.451073 132.099787 
L 179.776052 136.713741 
L 180.750991 143.269342 
L 181.075971 147.371871 
L 182.375889 154.459681 
L 183.350827 158.611848 
L 183.675807 161.272146 
L 184.325766 164.054984 
L 185.625684 168.210695 
L 185.950663 168.968819 
L 186.275643 170.169202 
L 186.925602 170.951386 
L 187.900541 171.592772 
L 188.5505 171.923512 
L 189.200459 172.020365 
L 193.100213 169.847337 
L 193.425192 169.321638 
L 195.37507 167.881726 
L 196.350008 167.36228 
L 198.624865 166.767251 
L 199.599803 166.870204 
L 200.899722 167.183387 
L 201.549681 167.53598 
L 201.87466 167.950158 
L 203.174578 168.735971 
L 203.824537 169.048212 
L 204.474496 169.545043 
L 204.799476 170.103238 
L 205.449435 170.480442 
L 205.774414 170.507139 
L 207.399312 169.73501 
L 208.374251 168.561318 
L 208.69923 168.473436 
L 209.02421 168.549571 
L 209.349189 168.883771 
L 209.999148 169.931812 
L 210.324128 171.245357 
L 211.299066 173.852028 
L 212.598984 177.044788 
L 213.248943 177.718216 
L 213.573923 177.817986 
L 214.548862 178.721315 
L 214.873841 178.721315 
L 215.198821 179.121822 
L 215.84878 179.383791 
L 216.498739 179.513942 
L 217.148698 179.495205 
L 218.123636 179.860093 
L 218.448616 180.111958 
L 218.773595 180.197474 
L 219.423554 180.634423 
L 220.073514 181.621545 
L 220.723473 182.368832 
L 222.34837 185.730777 
L 222.67335 186.300655 
L 222.998329 187.457033 
L 223.323309 187.457033 
L 223.648288 188.601392 
L 224.298247 192.212604 
L 225.923145 196.784952 
L 226.898084 198.488743 
L 227.223063 198.990621 
L 227.548043 199.974499 
L 228.847961 201.414314 
L 229.17294 201.560189 
L 229.822899 202.401179 
L 231.122817 203.274324 
L 231.772776 203.544982 
L 232.097756 203.861545 
L 233.072695 204.15497 
L 234.697592 204.506675 
L 237.622408 204.722966 
L 242.497101 205.473095 
L 243.14706 205.459721 
L 243.797019 205.318211 
L 244.771957 204.42077 
L 246.071876 202.481609 
L 246.396855 201.279778 
L 246.721835 201.279778 
L 247.046814 199.712209 
L 247.696773 197.839461 
L 248.021753 195.532426 
L 249.97163 187.921764 
L 250.296609 184.675814 
L 251.921507 175.66135 
L 252.246486 171.801771 
L 253.546405 164.711611 
L 253.871384 160.580866 
L 254.846323 153.964588 
L 255.171302 149.860066 
L 255.821261 146.441124 
L 256.47122 143.937889 
L 257.121179 142.110802 
L 257.771138 140.504499 
L 258.096118 139.254668 
L 258.421097 137.560857 
L 259.071057 135.977153 
L 259.396036 134.822692 
L 260.045995 133.696854 
L 260.370975 131.245378 
L 260.695954 126.491363 
L 261.345913 124.196524 
L 261.670893 121.617196 
L 263.62077 112.971275 
L 263.945749 110.513723 
L 264.270729 110.198694 
L 264.920688 107.790188 
L 265.895627 105.76098 
L 266.870565 104.062363 
L 267.195545 103.543529 
L 267.520524 102.54124 
L 268.495463 101.320664 
L 268.820442 100.746788 
L 271.095299 99.26405 
L 271.420278 98.742125 
L 275.645012 94.893725 
L 275.969992 94.298808 
L 277.594889 92.754647 
L 277.919869 92.452323 
L 278.244848 91.705571 
L 278.569828 91.705571 
L 278.894808 90.993688 
L 280.844685 88.933277 
L 281.494644 87.434467 
L 281.819623 86.784555 
L 282.469582 84.916348 
L 282.794562 84.419361 
L 283.119541 84.517168 
L 283.7695 83.608551 
L 284.09448 83.49576 
L 285.069419 84.042211 
L 285.394398 86.858229 
L 285.719378 87.233817 
L 286.369337 88.943405 
L 287.019296 90.837426 
L 287.669255 93.554018 
L 287.994234 95.232066 
L 288.319214 99.365145 
L 289.294152 107.232932 
L 290.269091 117.089422 
L 290.59407 120.726856 
L 290.91905 128.727354 
L 291.893989 141.394862 
L 292.218968 150.231425 
L 293.518886 167.708528 
L 293.843866 176.339855 
L 295.143784 192.68047 
L 295.468763 200.326165 
L 297.41864 220.392145 
L 298.0686 225.915768 
L 298.393579 230.259927 
L 299.043538 233.724598 
L 300.343456 238.673883 
L 300.668436 239.59677 
L 300.993415 241.258055 
L 301.968354 243.231048 
L 302.943292 244.746753 
L 304.24321 246.354369 
L 305.543129 246.893071 
L 306.193088 246.986053 
L 307.493006 246.668886 
L 308.467944 246.181003 
L 309.442883 245.517085 
L 309.767862 244.978551 
L 310.742801 244.047949 
L 311.71774 242.778015 
L 312.042719 242.298751 
L 312.367699 241.226464 
L 313.342637 239.443607 
L 313.992596 238.014176 
L 314.317576 236.427653 
L 315.617494 232.955639 
L 315.942473 231.171491 
L 316.917412 228.379099 
L 317.567371 226.714717 
L 318.21733 225.319496 
L 318.54231 224.212421 
L 318.867289 220.491376 
L 320.492187 212.95791 
L 320.817166 211.344115 
L 321.142146 208.024816 
L 322.442064 200.342443 
L 323.092023 196.03208 
L 323.417002 191.861535 
L 325.36688 178.493278 
L 325.691859 173.639465 
L 328.291695 154.501935 
L 328.616675 149.873238 
L 329.916593 141.427305 
L 330.566552 137.608708 
L 330.891532 134.229189 
L 332.19145 128.428962 
L 333.166388 124.608813 
L 334.141327 121.527261 
L 334.791286 120.556359 
L 336.091204 119.36913 
L 337.716102 119.872072 
L 338.041081 120.12095 
L 338.69104 121.087059 
L 339.990958 122.874805 
L 340.640917 124.576753 
L 342.590794 128.908236 
L 342.915774 129.866424 
L 343.240753 131.922589 
L 343.890713 134.398964 
L 345.84059 141.972129 
L 346.165569 144.080895 
L 347.140508 146.584044 
L 348.115446 148.4255 
L 348.440426 148.830237 
L 349.090385 148.67341 
L 349.415364 148.438752 
L 350.065324 147.323011 
L 350.715283 145.656342 
L 351.365242 143.271273 
L 351.690221 141.946574 
L 352.015201 139.063684 
L 352.990139 133.787377 
L 353.965078 127.746792 
L 354.290057 123.746736 
L 356.889894 106.086251 
L 357.214873 101.748529 
L 359.16475 89.65002 
L 359.48973 85.651932 
L 360.139689 81.982104 
L 360.789648 79.310116 
L 361.114627 76.549056 
L 362.089566 72.919576 
L 363.064505 70.080179 
L 363.714464 68.529346 
L 364.039443 67.178913 
L 364.689402 66.234848 
L 365.014382 65.806744 
L 365.664341 65.337438 
L 365.98932 65.00025 
L 366.964259 64.810769 
L 368.589156 65.466418 
L 368.914136 65.643324 
L 369.564095 66.24549 
L 371.188993 67.555727 
L 371.838952 68.225972 
L 373.463849 69.358925 
L 374.113808 69.308927 
L 374.438788 69.450227 
L 375.088747 69.468751 
L 375.413726 69.906916 
L 375.738706 69.975533 
L 376.388665 70.389783 
L 377.038624 70.753487 
L 378.013563 71.448903 
L 378.338542 72.185983 
L 378.663522 72.185983 
L 378.988501 73.042576 
L 379.313481 73.52209 
L 379.63846 74.268318 
L 379.96344 74.714131 
L 380.288419 75.440697 
L 380.613399 76.897572 
L 381.588337 79.66855 
L 381.913317 81.004318 
L 382.238296 83.347186 
L 383.213235 87.166634 
L 384.188174 91.876703 
L 384.513153 95.588276 
L 386.46303 107.463393 
L 386.78801 112.434305 
L 388.737887 128.870415 
L 389.062867 135.071336 
L 391.012744 152.723764 
L 391.337723 158.267984 
L 392.637641 168.187582 
L 393.2876 172.217153 
L 394.912498 181.312755 
L 396.537396 186.552487 
L 397.187355 187.951139 
L 397.512334 188.307421 
L 397.837314 188.959838 
L 398.162293 188.824986 
L 398.487273 189.121283 
L 398.487273 189.121283 
" clip-path="url(#p1c5a0d5853)" style="fill: none; stroke: #2ca02c; stroke-width: 1.5; stroke-linecap: square"/>
   </g>
   <g id="patch_3">
    <path d="M 57.6 307.584 
L 57.6 41.472 
" style="fill: none; stroke: #000000; stroke-width: 0.8; stroke-linejoin: miter; stroke-linecap: square"/>
   </g>
   <g id="patch_4">
    <path d="M 414.72 307.584 
L 414.72 41.472 
" style="fill: none; stroke: #000000; stroke-width: 0.8; stroke-linejoin: miter; stroke-linecap: square"/>
   </g>
   <g id="patch_5">
    <path d="M 57.6 307.584 
L 414.72 307.584 
" style="fill: none; stroke: #000000; stroke-width: 0.8; stroke-linejoin: miter; stroke-linecap: square"/>
   </g>
   <g id="patch_6">
    <path d="M 57.6 41.472 
L 414.72 41.472 
" style="fill: none; stroke: #000000; stroke-width: 0.8; stroke-linejoin: miter; stroke-linecap: square"/>
   </g>
   <g id="text_16">
    <!-- Change in rotation components for moving hand in all four corners -->
    <g transform="translate(-14.767734 35.472)scale(0.15 -0.15)">
     <defs>
      <path id="DejaVuSans-43" d="M 4122 4306 
L 4122 3641 
Q 3803 3938 3442 4084 
Q 3081 4231 2675 4231 
Q 1875 4231 1450 3742 
Q 1025 3253 1025 2328 
Q 1025 1406 1450 917 
Q 1875 428 2675 428 
Q 3081 428 3442 575 
Q 3803 722 4122 1019 
L 4122 359 
Q 3791 134 3420 21 
Q 3050 -91 2638 -91 
Q 1578 -91 968 557 
Q 359 1206 359 2328 
Q 359 3453 968 4101 
Q 1578 4750 2638 4750 
Q 3056 4750 3426 4639 
Q 3797 4528 4122 4306 
z
" transform="scale(0.015625)"/>
      <path id="DejaVuSans-68" d="M 3513 2113 
L 3513 0 
L 2938 0 
L 2938 2094 
Q 2938 2591 2744 2837 
Q 2550 3084 2163 3084 
Q 1697 3084 1428 2787 
Q 1159 2491 1159 1978 
L 1159 0 
L 581 0 
L 581 4863 
L 1159 4863 
L 1159 2956 
Q 1366 3272 1645 3428 
Q 1925 3584 2291 3584 
Q 2894 3584 3203 3211 
Q 3513 2838 3513 2113 
z
" transform="scale(0.015625)"/>
      <path id="DejaVuSans-20" transform="scale(0.015625)"/>
      <path id="DejaVuSans-72" d="M 2631 2963 
Q 2534 3019 2420 3045 
Q 2306 3072 2169 3072 
Q 1681 3072 1420 2755 
Q 1159 2438 1159 1844 
L 1159 0 
L 581 0 
L 581 3500 
L 1159 3500 
L 1159 2956 
Q 1341 3275 1631 3429 
Q 1922 3584 2338 3584 
Q 2397 3584 2469 3576 
Q 2541 3569 2628 3553 
L 2631 2963 
z
" transform="scale(0.015625)"/>
      <path id="DejaVuSans-6f" d="M 1959 3097 
Q 1497 3097 1228 2736 
Q 959 2375 959 1747 
Q 959 1119 1226 758 
Q 1494 397 1959 397 
Q 2419 397 2687 759 
Q 2956 1122 2956 1747 
Q 2956 2369 2687 2733 
Q 2419 3097 1959 3097 
z
M 1959 3584 
Q 2709 3584 3137 3096 
Q 3566 2609 3566 1747 
Q 3566 888 3137 398 
Q 2709 -91 1959 -91 
Q 1206 -91 779 398 
Q 353 888 353 1747 
Q 353 2609 779 3096 
Q 1206 3584 1959 3584 
z
" transform="scale(0.015625)"/>
      <path id="DejaVuSans-63" d="M 3122 3366 
L 3122 2828 
Q 2878 2963 2633 3030 
Q 2388 3097 2138 3097 
Q 1578 3097 1268 2742 
Q 959 2388 959 1747 
Q 959 1106 1268 751 
Q 1578 397 2138 397 
Q 2388 397 2633 464 
Q 2878 531 3122 666 
L 3122 134 
Q 2881 22 2623 -34 
Q 2366 -91 2075 -91 
Q 1284 -91 818 406 
Q 353 903 353 1747 
Q 353 2603 823 3093 
Q 1294 3584 2113 3584 
Q 2378 3584 2631 3529 
Q 2884 3475 3122 3366 
z
" transform="scale(0.015625)"/>
      <path id="DejaVuSans-66" d="M 2375 4863 
L 2375 4384 
L 1825 4384 
Q 1516 4384 1395 4259 
Q 1275 4134 1275 3809 
L 1275 3500 
L 2222 3500 
L 2222 3053 
L 1275 3053 
L 1275 0 
L 697 0 
L 697 3053 
L 147 3053 
L 147 3500 
L 697 3500 
L 697 3744 
Q 697 4328 969 4595 
Q 1241 4863 1831 4863 
L 2375 4863 
z
" transform="scale(0.015625)"/>
      <path id="DejaVuSans-76" d="M 191 3500 
L 800 3500 
L 1894 563 
L 2988 3500 
L 3597 3500 
L 2284 0 
L 1503 0 
L 191 3500 
z
" transform="scale(0.015625)"/>
      <path id="DejaVuSans-6c" d="M 603 4863 
L 1178 4863 
L 1178 0 
L 603 0 
L 603 4863 
z
" transform="scale(0.015625)"/>
     </defs>
     <use xlink:href="#DejaVuSans-43"/>
     <use xlink:href="#DejaVuSans-68" x="69.824219"/>
     <use xlink:href="#DejaVuSans-61" x="133.203125"/>
     <use xlink:href="#DejaVuSans-6e" x="194.482422"/>
     <use xlink:href="#DejaVuSans-67" x="257.861328"/>
     <use xlink:href="#DejaVuSans-65" x="321.337891"/>
     <use xlink:href="#DejaVuSans-20" x="382.861328"/>
     <use xlink:href="#DejaVuSans-69" x="414.648438"/>
     <use xlink:href="#DejaVuSans-6e" x="442.431641"/>
     <use xlink:href="#DejaVuSans-20" x="505.810547"/>
     <use xlink:href="#DejaVuSans-72" x="537.597656"/>
     <use xlink:href="#DejaVuSans-6f" x="576.460938"/>
     <use xlink:href="#DejaVuSans-74" x="637.642578"/>
     <use xlink:href="#DejaVuSans-61" x="676.851562"/>
     <use xlink:href="#DejaVuSans-74" x="738.130859"/>
     <use xlink:href="#DejaVuSans-69" x="777.339844"/>
     <use xlink:href="#DejaVuSans-6f" x="805.123047"/>
     <use xlink:href="#DejaVuSans-6e" x="866.304688"/>
     <use xlink:href="#DejaVuSans-20" x="929.683594"/>
     <use xlink:href="#DejaVuSans-63" x="961.470703"/>
     <use xlink:href="#DejaVuSans-6f" x="1016.451172"/>
     <use xlink:href="#DejaVuSans-6d" x="1077.632812"/>
     <use xlink:href="#DejaVuSans-70" x="1175.044922"/>
     <use xlink:href="#DejaVuSans-6f" x="1238.521484"/>
     <use xlink:href="#DejaVuSans-6e" x="1299.703125"/>
     <use xlink:href="#DejaVuSans-65" x="1363.082031"/>
     <use xlink:href="#DejaVuSans-6e" x="1424.605469"/>
     <use xlink:href="#DejaVuSans-74" x="1487.984375"/>
     <use xlink:href="#DejaVuSans-73" x="1527.193359"/>
     <use xlink:href="#DejaVuSans-20" x="1579.292969"/>
     <use xlink:href="#DejaVuSans-66" x="1611.080078"/>
     <use xlink:href="#DejaVuSans-6f" x="1646.285156"/>
     <use xlink:href="#DejaVuSans-72" x="1707.466797"/>
     <use xlink:href="#DejaVuSans-20" x="1748.580078"/>
     <use xlink:href="#DejaVuSans-6d" x="1780.367188"/>
     <use xlink:href="#DejaVuSans-6f" x="1877.779297"/>
     <use xlink:href="#DejaVuSans-76" x="1938.960938"/>
     <use xlink:href="#DejaVuSans-69" x="1998.140625"/>
     <use xlink:href="#DejaVuSans-6e" x="2025.923828"/>
     <use xlink:href="#DejaVuSans-67" x="2089.302734"/>
     <use xlink:href="#DejaVuSans-20" x="2152.779297"/>
     <use xlink:href="#DejaVuSans-68" x="2184.566406"/>
     <use xlink:href="#DejaVuSans-61" x="2247.945312"/>
     <use xlink:href="#DejaVuSans-6e" x="2309.224609"/>
     <use xlink:href="#DejaVuSans-64" x="2372.603516"/>
     <use xlink:href="#DejaVuSans-20" x="2436.080078"/>
     <use xlink:href="#DejaVuSans-69" x="2467.867188"/>
     <use xlink:href="#DejaVuSans-6e" x="2495.650391"/>
     <use xlink:href="#DejaVuSans-20" x="2559.029297"/>
     <use xlink:href="#DejaVuSans-61" x="2590.816406"/>
     <use xlink:href="#DejaVuSans-6c" x="2652.095703"/>
     <use xlink:href="#DejaVuSans-6c" x="2679.878906"/>
     <use xlink:href="#DejaVuSans-20" x="2707.662109"/>
     <use xlink:href="#DejaVuSans-66" x="2739.449219"/>
     <use xlink:href="#DejaVuSans-6f" x="2774.654297"/>
     <use xlink:href="#DejaVuSans-75" x="2835.835938"/>
     <use xlink:href="#DejaVuSans-72" x="2899.214844"/>
     <use xlink:href="#DejaVuSans-20" x="2940.328125"/>
     <use xlink:href="#DejaVuSans-63" x="2972.115234"/>
     <use xlink:href="#DejaVuSans-6f" x="3027.095703"/>
     <use xlink:href="#DejaVuSans-72" x="3088.277344"/>
     <use xlink:href="#DejaVuSans-6e" x="3127.640625"/>
     <use xlink:href="#DejaVuSans-65" x="3191.019531"/>
     <use xlink:href="#DejaVuSans-72" x="3252.542969"/>
     <use xlink:href="#DejaVuSans-73" x="3293.65625"/>
    </g>
   </g>
   <g id="legend_1">
    <g id="patch_7">
     <path d="M 207.867031 93.506375 
L 264.452969 93.506375 
Q 266.452969 93.506375 266.452969 91.506375 
L 266.452969 48.472 
Q 266.452969 46.472 264.452969 46.472 
L 207.867031 46.472 
Q 205.867031 46.472 205.867031 48.472 
L 205.867031 91.506375 
Q 205.867031 93.506375 207.867031 93.506375 
z
" style="fill: #ffffff; opacity: 0.8; stroke: #cccccc; stroke-linejoin: miter"/>
    </g>
    <g id="line2d_17">
     <path d="M 209.867031 54.570438 
L 219.867031 54.570438 
L 229.867031 54.570438 
" style="fill: none; stroke: #1f77b4; stroke-width: 1.5; stroke-linecap: square"/>
    </g>
    <g id="text_17">
     <!-- idx 0 -->
     <g transform="translate(237.867031 58.070438)scale(0.1 -0.1)">
      <defs>
       <path id="DejaVuSans-78" d="M 3513 3500 
L 2247 1797 
L 3578 0 
L 2900 0 
L 1881 1375 
L 863 0 
L 184 0 
L 1544 1831 
L 300 3500 
L 978 3500 
L 1906 2253 
L 2834 3500 
L 3513 3500 
z
" transform="scale(0.015625)"/>
      </defs>
      <use xlink:href="#DejaVuSans-69"/>
      <use xlink:href="#DejaVuSans-64" x="27.783203"/>
      <use xlink:href="#DejaVuSans-78" x="91.259766"/>
      <use xlink:href="#DejaVuSans-20" x="150.439453"/>
      <use xlink:href="#DejaVuSans-30" x="182.226562"/>
     </g>
    </g>
    <g id="line2d_18">
     <path d="M 209.867031 69.248563 
L 219.867031 69.248563 
L 229.867031 69.248563 
" style="fill: none; stroke: #ff7f0e; stroke-width: 1.5; stroke-linecap: square"/>
    </g>
    <g id="text_18">
     <!-- idx 1 -->
     <g transform="translate(237.867031 72.748563)scale(0.1 -0.1)">
      <use xlink:href="#DejaVuSans-69"/>
      <use xlink:href="#DejaVuSans-64" x="27.783203"/>
      <use xlink:href="#DejaVuSans-78" x="91.259766"/>
      <use xlink:href="#DejaVuSans-20" x="150.439453"/>
      <use xlink:href="#DejaVuSans-31" x="182.226562"/>
     </g>
    </g>
    <g id="line2d_19">
     <path d="M 209.867031 83.926688 
L 219.867031 83.926688 
L 229.867031 83.926688 
" style="fill: none; stroke: #2ca02c; stroke-width: 1.5; stroke-linecap: square"/>
    </g>
    <g id="text_19">
     <!-- idx 2 -->
     <g transform="translate(237.867031 87.426688)scale(0.1 -0.1)">
      <use xlink:href="#DejaVuSans-69"/>
      <use xlink:href="#DejaVuSans-64" x="27.783203"/>
      <use xlink:href="#DejaVuSans-78" x="91.259766"/>
      <use xlink:href="#DejaVuSans-20" x="150.439453"/>
      <use xlink:href="#DejaVuSans-32" x="182.226562"/>
     </g>
    </g>
   </g>
  </g>
 </g>
 <defs>
  <clipPath id="p1c5a0d5853">
   <rect x="57.6" y="41.472" width="357.12" height="266.112"/>
  </clipPath>
 </defs>
</svg>
