<?xml version="1.0" encoding="utf-8" standalone="no"?>
<!DOCTYPE svg PUBLIC "-//W3C//DTD SVG 1.1//EN"
  "http://www.w3.org/Graphics/SVG/1.1/DTD/svg11.dtd">
<svg xmlns:xlink="http://www.w3.org/1999/xlink" width="460.8pt" height="345.6pt" viewBox="0 0 460.8 345.6" xmlns="http://www.w3.org/2000/svg" version="1.1">
 <metadata>
  <rdf:RDF xmlns:dc="http://purl.org/dc/elements/1.1/" xmlns:cc="http://creativecommons.org/ns#" xmlns:rdf="http://www.w3.org/1999/02/22-rdf-syntax-ns#">
   <cc:Work>
    <dc:type rdf:resource="http://purl.org/dc/dcmitype/StillImage"/>
    <dc:date>2024-02-07T11:36:47.968045</dc:date>
    <dc:format>image/svg+xml</dc:format>
    <dc:creator>
     <cc:Agent>
      <dc:title>Matplotlib v3.5.0, https://matplotlib.org/</dc:title>
     </cc:Agent>
    </dc:creator>
   </cc:Work>
  </rdf:RDF>
 </metadata>
 <defs>
  <style type="text/css">*{stroke-linejoin: round; stroke-linecap: butt}</style>
 </defs>
 <g id="figure_1">
  <g id="patch_1">
   <path d="M 0 345.6 
L 460.8 345.6 
L 460.8 0 
L 0 0 
z
" style="fill: #ffffff"/>
  </g>
  <g id="axes_1">
   <g id="patch_2">
    <path d="M 57.6 307.584 
L 414.72 307.584 
L 414.72 41.472 
L 57.6 41.472 
z
" style="fill: #ffffff"/>
   </g>
   <g id="matplotlib.axis_1">
    <g id="xtick_1">
     <g id="line2d_1">
      <defs>
       <path id="m4841401c90" d="M 0 0 
L 0 3.5 
" style="stroke: #000000; stroke-width: 0.8"/>
      </defs>
      <g>
       <use xlink:href="#m4841401c90" x="73.832727" y="307.584" style="stroke: #000000; stroke-width: 0.8"/>
      </g>
     </g>
     <g id="text_1">
      <!-- 0 -->
      <g transform="translate(70.651477 322.182437)scale(0.1 -0.1)">
       <defs>
        <path id="DejaVuSans-30" d="M 2034 4250 
Q 1547 4250 1301 3770 
Q 1056 3291 1056 2328 
Q 1056 1369 1301 889 
Q 1547 409 2034 409 
Q 2525 409 2770 889 
Q 3016 1369 3016 2328 
Q 3016 3291 2770 3770 
Q 2525 4250 2034 4250 
z
M 2034 4750 
Q 2819 4750 3233 4129 
Q 3647 3509 3647 2328 
Q 3647 1150 3233 529 
Q 2819 -91 2034 -91 
Q 1250 -91 836 529 
Q 422 1150 422 2328 
Q 422 3509 836 4129 
Q 1250 4750 2034 4750 
z
" transform="scale(0.015625)"/>
       </defs>
       <use xlink:href="#DejaVuSans-30"/>
      </g>
     </g>
    </g>
    <g id="xtick_2">
     <g id="line2d_2">
      <g>
       <use xlink:href="#m4841401c90" x="138.828632" y="307.584" style="stroke: #000000; stroke-width: 0.8"/>
      </g>
     </g>
     <g id="text_2">
      <!-- 200 -->
      <g transform="translate(129.284882 322.182437)scale(0.1 -0.1)">
       <defs>
        <path id="DejaVuSans-32" d="M 1228 531 
L 3431 531 
L 3431 0 
L 469 0 
L 469 531 
Q 828 903 1448 1529 
Q 2069 2156 2228 2338 
Q 2531 2678 2651 2914 
Q 2772 3150 2772 3378 
Q 2772 3750 2511 3984 
Q 2250 4219 1831 4219 
Q 1534 4219 1204 4116 
Q 875 4013 500 3803 
L 500 4441 
Q 881 4594 1212 4672 
Q 1544 4750 1819 4750 
Q 2544 4750 2975 4387 
Q 3406 4025 3406 3419 
Q 3406 3131 3298 2873 
Q 3191 2616 2906 2266 
Q 2828 2175 2409 1742 
Q 1991 1309 1228 531 
z
" transform="scale(0.015625)"/>
       </defs>
       <use xlink:href="#DejaVuSans-32"/>
       <use xlink:href="#DejaVuSans-30" x="63.623047"/>
       <use xlink:href="#DejaVuSans-30" x="127.246094"/>
      </g>
     </g>
    </g>
    <g id="xtick_3">
     <g id="line2d_3">
      <g>
       <use xlink:href="#m4841401c90" x="203.824537" y="307.584" style="stroke: #000000; stroke-width: 0.8"/>
      </g>
     </g>
     <g id="text_3">
      <!-- 400 -->
      <g transform="translate(194.280787 322.182437)scale(0.1 -0.1)">
       <defs>
        <path id="DejaVuSans-34" d="M 2419 4116 
L 825 1625 
L 2419 1625 
L 2419 4116 
z
M 2253 4666 
L 3047 4666 
L 3047 1625 
L 3713 1625 
L 3713 1100 
L 3047 1100 
L 3047 0 
L 2419 0 
L 2419 1100 
L 313 1100 
L 313 1709 
L 2253 4666 
z
" transform="scale(0.015625)"/>
       </defs>
       <use xlink:href="#DejaVuSans-34"/>
       <use xlink:href="#DejaVuSans-30" x="63.623047"/>
       <use xlink:href="#DejaVuSans-30" x="127.246094"/>
      </g>
     </g>
    </g>
    <g id="xtick_4">
     <g id="line2d_4">
      <g>
       <use xlink:href="#m4841401c90" x="268.820442" y="307.584" style="stroke: #000000; stroke-width: 0.8"/>
      </g>
     </g>
     <g id="text_4">
      <!-- 600 -->
      <g transform="translate(259.276692 322.182437)scale(0.1 -0.1)">
       <defs>
        <path id="DejaVuSans-36" d="M 2113 2584 
Q 1688 2584 1439 2293 
Q 1191 2003 1191 1497 
Q 1191 994 1439 701 
Q 1688 409 2113 409 
Q 2538 409 2786 701 
Q 3034 994 3034 1497 
Q 3034 2003 2786 2293 
Q 2538 2584 2113 2584 
z
M 3366 4563 
L 3366 3988 
Q 3128 4100 2886 4159 
Q 2644 4219 2406 4219 
Q 1781 4219 1451 3797 
Q 1122 3375 1075 2522 
Q 1259 2794 1537 2939 
Q 1816 3084 2150 3084 
Q 2853 3084 3261 2657 
Q 3669 2231 3669 1497 
Q 3669 778 3244 343 
Q 2819 -91 2113 -91 
Q 1303 -91 875 529 
Q 447 1150 447 2328 
Q 447 3434 972 4092 
Q 1497 4750 2381 4750 
Q 2619 4750 2861 4703 
Q 3103 4656 3366 4563 
z
" transform="scale(0.015625)"/>
       </defs>
       <use xlink:href="#DejaVuSans-36"/>
       <use xlink:href="#DejaVuSans-30" x="63.623047"/>
       <use xlink:href="#DejaVuSans-30" x="127.246094"/>
      </g>
     </g>
    </g>
    <g id="xtick_5">
     <g id="line2d_5">
      <g>
       <use xlink:href="#m4841401c90" x="333.816347" y="307.584" style="stroke: #000000; stroke-width: 0.8"/>
      </g>
     </g>
     <g id="text_5">
      <!-- 800 -->
      <g transform="translate(324.272597 322.182437)scale(0.1 -0.1)">
       <defs>
        <path id="DejaVuSans-38" d="M 2034 2216 
Q 1584 2216 1326 1975 
Q 1069 1734 1069 1313 
Q 1069 891 1326 650 
Q 1584 409 2034 409 
Q 2484 409 2743 651 
Q 3003 894 3003 1313 
Q 3003 1734 2745 1975 
Q 2488 2216 2034 2216 
z
M 1403 2484 
Q 997 2584 770 2862 
Q 544 3141 544 3541 
Q 544 4100 942 4425 
Q 1341 4750 2034 4750 
Q 2731 4750 3128 4425 
Q 3525 4100 3525 3541 
Q 3525 3141 3298 2862 
Q 3072 2584 2669 2484 
Q 3125 2378 3379 2068 
Q 3634 1759 3634 1313 
Q 3634 634 3220 271 
Q 2806 -91 2034 -91 
Q 1263 -91 848 271 
Q 434 634 434 1313 
Q 434 1759 690 2068 
Q 947 2378 1403 2484 
z
M 1172 3481 
Q 1172 3119 1398 2916 
Q 1625 2713 2034 2713 
Q 2441 2713 2670 2916 
Q 2900 3119 2900 3481 
Q 2900 3844 2670 4047 
Q 2441 4250 2034 4250 
Q 1625 4250 1398 4047 
Q 1172 3844 1172 3481 
z
" transform="scale(0.015625)"/>
       </defs>
       <use xlink:href="#DejaVuSans-38"/>
       <use xlink:href="#DejaVuSans-30" x="63.623047"/>
       <use xlink:href="#DejaVuSans-30" x="127.246094"/>
      </g>
     </g>
    </g>
    <g id="xtick_6">
     <g id="line2d_6">
      <g>
       <use xlink:href="#m4841401c90" x="398.812252" y="307.584" style="stroke: #000000; stroke-width: 0.8"/>
      </g>
     </g>
     <g id="text_6">
      <!-- 1000 -->
      <g transform="translate(386.087252 322.182437)scale(0.1 -0.1)">
       <defs>
        <path id="DejaVuSans-31" d="M 794 531 
L 1825 531 
L 1825 4091 
L 703 3866 
L 703 4441 
L 1819 4666 
L 2450 4666 
L 2450 531 
L 3481 531 
L 3481 0 
L 794 0 
L 794 531 
z
" transform="scale(0.015625)"/>
       </defs>
       <use xlink:href="#DejaVuSans-31"/>
       <use xlink:href="#DejaVuSans-30" x="63.623047"/>
       <use xlink:href="#DejaVuSans-30" x="127.246094"/>
       <use xlink:href="#DejaVuSans-30" x="190.869141"/>
      </g>
     </g>
    </g>
    <g id="text_7">
     <!-- Timestamps -->
     <g transform="translate(190.392422 339.659781)scale(0.15 -0.15)">
      <defs>
       <path id="DejaVuSans-54" d="M -19 4666 
L 3928 4666 
L 3928 4134 
L 2272 4134 
L 2272 0 
L 1638 0 
L 1638 4134 
L -19 4134 
L -19 4666 
z
" transform="scale(0.015625)"/>
       <path id="DejaVuSans-69" d="M 603 3500 
L 1178 3500 
L 1178 0 
L 603 0 
L 603 3500 
z
M 603 4863 
L 1178 4863 
L 1178 4134 
L 603 4134 
L 603 4863 
z
" transform="scale(0.015625)"/>
       <path id="DejaVuSans-6d" d="M 3328 2828 
Q 3544 3216 3844 3400 
Q 4144 3584 4550 3584 
Q 5097 3584 5394 3201 
Q 5691 2819 5691 2113 
L 5691 0 
L 5113 0 
L 5113 2094 
Q 5113 2597 4934 2840 
Q 4756 3084 4391 3084 
Q 3944 3084 3684 2787 
Q 3425 2491 3425 1978 
L 3425 0 
L 2847 0 
L 2847 2094 
Q 2847 2600 2669 2842 
Q 2491 3084 2119 3084 
Q 1678 3084 1418 2786 
Q 1159 2488 1159 1978 
L 1159 0 
L 581 0 
L 581 3500 
L 1159 3500 
L 1159 2956 
Q 1356 3278 1631 3431 
Q 1906 3584 2284 3584 
Q 2666 3584 2933 3390 
Q 3200 3197 3328 2828 
z
" transform="scale(0.015625)"/>
       <path id="DejaVuSans-65" d="M 3597 1894 
L 3597 1613 
L 953 1613 
Q 991 1019 1311 708 
Q 1631 397 2203 397 
Q 2534 397 2845 478 
Q 3156 559 3463 722 
L 3463 178 
Q 3153 47 2828 -22 
Q 2503 -91 2169 -91 
Q 1331 -91 842 396 
Q 353 884 353 1716 
Q 353 2575 817 3079 
Q 1281 3584 2069 3584 
Q 2775 3584 3186 3129 
Q 3597 2675 3597 1894 
z
M 3022 2063 
Q 3016 2534 2758 2815 
Q 2500 3097 2075 3097 
Q 1594 3097 1305 2825 
Q 1016 2553 972 2059 
L 3022 2063 
z
" transform="scale(0.015625)"/>
       <path id="DejaVuSans-73" d="M 2834 3397 
L 2834 2853 
Q 2591 2978 2328 3040 
Q 2066 3103 1784 3103 
Q 1356 3103 1142 2972 
Q 928 2841 928 2578 
Q 928 2378 1081 2264 
Q 1234 2150 1697 2047 
L 1894 2003 
Q 2506 1872 2764 1633 
Q 3022 1394 3022 966 
Q 3022 478 2636 193 
Q 2250 -91 1575 -91 
Q 1294 -91 989 -36 
Q 684 19 347 128 
L 347 722 
Q 666 556 975 473 
Q 1284 391 1588 391 
Q 1994 391 2212 530 
Q 2431 669 2431 922 
Q 2431 1156 2273 1281 
Q 2116 1406 1581 1522 
L 1381 1569 
Q 847 1681 609 1914 
Q 372 2147 372 2553 
Q 372 3047 722 3315 
Q 1072 3584 1716 3584 
Q 2034 3584 2315 3537 
Q 2597 3491 2834 3397 
z
" transform="scale(0.015625)"/>
       <path id="DejaVuSans-74" d="M 1172 4494 
L 1172 3500 
L 2356 3500 
L 2356 3053 
L 1172 3053 
L 1172 1153 
Q 1172 725 1289 603 
Q 1406 481 1766 481 
L 2356 481 
L 2356 0 
L 1766 0 
Q 1100 0 847 248 
Q 594 497 594 1153 
L 594 3053 
L 172 3053 
L 172 3500 
L 594 3500 
L 594 4494 
L 1172 4494 
z
" transform="scale(0.015625)"/>
       <path id="DejaVuSans-61" d="M 2194 1759 
Q 1497 1759 1228 1600 
Q 959 1441 959 1056 
Q 959 750 1161 570 
Q 1363 391 1709 391 
Q 2188 391 2477 730 
Q 2766 1069 2766 1631 
L 2766 1759 
L 2194 1759 
z
M 3341 1997 
L 3341 0 
L 2766 0 
L 2766 531 
Q 2569 213 2275 61 
Q 1981 -91 1556 -91 
Q 1019 -91 701 211 
Q 384 513 384 1019 
Q 384 1609 779 1909 
Q 1175 2209 1959 2209 
L 2766 2209 
L 2766 2266 
Q 2766 2663 2505 2880 
Q 2244 3097 1772 3097 
Q 1472 3097 1187 3025 
Q 903 2953 641 2809 
L 641 3341 
Q 956 3463 1253 3523 
Q 1550 3584 1831 3584 
Q 2591 3584 2966 3190 
Q 3341 2797 3341 1997 
z
" transform="scale(0.015625)"/>
       <path id="DejaVuSans-70" d="M 1159 525 
L 1159 -1331 
L 581 -1331 
L 581 3500 
L 1159 3500 
L 1159 2969 
Q 1341 3281 1617 3432 
Q 1894 3584 2278 3584 
Q 2916 3584 3314 3078 
Q 3713 2572 3713 1747 
Q 3713 922 3314 415 
Q 2916 -91 2278 -91 
Q 1894 -91 1617 61 
Q 1341 213 1159 525 
z
M 3116 1747 
Q 3116 2381 2855 2742 
Q 2594 3103 2138 3103 
Q 1681 3103 1420 2742 
Q 1159 2381 1159 1747 
Q 1159 1113 1420 752 
Q 1681 391 2138 391 
Q 2594 391 2855 752 
Q 3116 1113 3116 1747 
z
" transform="scale(0.015625)"/>
      </defs>
      <use xlink:href="#DejaVuSans-54"/>
      <use xlink:href="#DejaVuSans-69" x="57.958984"/>
      <use xlink:href="#DejaVuSans-6d" x="85.742188"/>
      <use xlink:href="#DejaVuSans-65" x="183.154297"/>
      <use xlink:href="#DejaVuSans-73" x="244.677734"/>
      <use xlink:href="#DejaVuSans-74" x="296.777344"/>
      <use xlink:href="#DejaVuSans-61" x="335.986328"/>
      <use xlink:href="#DejaVuSans-6d" x="397.265625"/>
      <use xlink:href="#DejaVuSans-70" x="494.677734"/>
      <use xlink:href="#DejaVuSans-73" x="558.154297"/>
     </g>
    </g>
   </g>
   <g id="matplotlib.axis_2">
    <g id="ytick_1">
     <g id="line2d_7">
      <defs>
       <path id="mfd6a49dbd5" d="M 0 0 
L -3.5 0 
" style="stroke: #000000; stroke-width: 0.8"/>
      </defs>
      <g>
       <use xlink:href="#mfd6a49dbd5" x="57.6" y="276.508041" style="stroke: #000000; stroke-width: 0.8"/>
      </g>
     </g>
     <g id="text_8">
      <!-- −0.75 -->
      <g transform="translate(19.954687 280.30726)scale(0.1 -0.1)">
       <defs>
        <path id="DejaVuSans-2212" d="M 678 2272 
L 4684 2272 
L 4684 1741 
L 678 1741 
L 678 2272 
z
" transform="scale(0.015625)"/>
        <path id="DejaVuSans-2e" d="M 684 794 
L 1344 794 
L 1344 0 
L 684 0 
L 684 794 
z
" transform="scale(0.015625)"/>
        <path id="DejaVuSans-37" d="M 525 4666 
L 3525 4666 
L 3525 4397 
L 1831 0 
L 1172 0 
L 2766 4134 
L 525 4134 
L 525 4666 
z
" transform="scale(0.015625)"/>
        <path id="DejaVuSans-35" d="M 691 4666 
L 3169 4666 
L 3169 4134 
L 1269 4134 
L 1269 2991 
Q 1406 3038 1543 3061 
Q 1681 3084 1819 3084 
Q 2600 3084 3056 2656 
Q 3513 2228 3513 1497 
Q 3513 744 3044 326 
Q 2575 -91 1722 -91 
Q 1428 -91 1123 -41 
Q 819 9 494 109 
L 494 744 
Q 775 591 1075 516 
Q 1375 441 1709 441 
Q 2250 441 2565 725 
Q 2881 1009 2881 1497 
Q 2881 1984 2565 2268 
Q 2250 2553 1709 2553 
Q 1456 2553 1204 2497 
Q 953 2441 691 2322 
L 691 4666 
z
" transform="scale(0.015625)"/>
       </defs>
       <use xlink:href="#DejaVuSans-2212"/>
       <use xlink:href="#DejaVuSans-30" x="83.789062"/>
       <use xlink:href="#DejaVuSans-2e" x="147.412109"/>
       <use xlink:href="#DejaVuSans-37" x="179.199219"/>
       <use xlink:href="#DejaVuSans-35" x="242.822266"/>
      </g>
     </g>
    </g>
    <g id="ytick_2">
     <g id="line2d_8">
      <g>
       <use xlink:href="#mfd6a49dbd5" x="57.6" y="241.286494" style="stroke: #000000; stroke-width: 0.8"/>
      </g>
     </g>
     <g id="text_9">
      <!-- −0.50 -->
      <g transform="translate(19.954687 245.085713)scale(0.1 -0.1)">
       <use xlink:href="#DejaVuSans-2212"/>
       <use xlink:href="#DejaVuSans-30" x="83.789062"/>
       <use xlink:href="#DejaVuSans-2e" x="147.412109"/>
       <use xlink:href="#DejaVuSans-35" x="179.199219"/>
       <use xlink:href="#DejaVuSans-30" x="242.822266"/>
      </g>
     </g>
    </g>
    <g id="ytick_3">
     <g id="line2d_9">
      <g>
       <use xlink:href="#mfd6a49dbd5" x="57.6" y="206.064948" style="stroke: #000000; stroke-width: 0.8"/>
      </g>
     </g>
     <g id="text_10">
      <!-- −0.25 -->
      <g transform="translate(19.954687 209.864167)scale(0.1 -0.1)">
       <use xlink:href="#DejaVuSans-2212"/>
       <use xlink:href="#DejaVuSans-30" x="83.789062"/>
       <use xlink:href="#DejaVuSans-2e" x="147.412109"/>
       <use xlink:href="#DejaVuSans-32" x="179.199219"/>
       <use xlink:href="#DejaVuSans-35" x="242.822266"/>
      </g>
     </g>
    </g>
    <g id="ytick_4">
     <g id="line2d_10">
      <g>
       <use xlink:href="#mfd6a49dbd5" x="57.6" y="170.843402" style="stroke: #000000; stroke-width: 0.8"/>
      </g>
     </g>
     <g id="text_11">
      <!-- 0.00 -->
      <g transform="translate(28.334375 174.64262)scale(0.1 -0.1)">
       <use xlink:href="#DejaVuSans-30"/>
       <use xlink:href="#DejaVuSans-2e" x="63.623047"/>
       <use xlink:href="#DejaVuSans-30" x="95.410156"/>
       <use xlink:href="#DejaVuSans-30" x="159.033203"/>
      </g>
     </g>
    </g>
    <g id="ytick_5">
     <g id="line2d_11">
      <g>
       <use xlink:href="#mfd6a49dbd5" x="57.6" y="135.621855" style="stroke: #000000; stroke-width: 0.8"/>
      </g>
     </g>
     <g id="text_12">
      <!-- 0.25 -->
      <g transform="translate(28.334375 139.421074)scale(0.1 -0.1)">
       <use xlink:href="#DejaVuSans-30"/>
       <use xlink:href="#DejaVuSans-2e" x="63.623047"/>
       <use xlink:href="#DejaVuSans-32" x="95.410156"/>
       <use xlink:href="#DejaVuSans-35" x="159.033203"/>
      </g>
     </g>
    </g>
    <g id="ytick_6">
     <g id="line2d_12">
      <g>
       <use xlink:href="#mfd6a49dbd5" x="57.6" y="100.400309" style="stroke: #000000; stroke-width: 0.8"/>
      </g>
     </g>
     <g id="text_13">
      <!-- 0.50 -->
      <g transform="translate(28.334375 104.199528)scale(0.1 -0.1)">
       <use xlink:href="#DejaVuSans-30"/>
       <use xlink:href="#DejaVuSans-2e" x="63.623047"/>
       <use xlink:href="#DejaVuSans-35" x="95.410156"/>
       <use xlink:href="#DejaVuSans-30" x="159.033203"/>
      </g>
     </g>
    </g>
    <g id="ytick_7">
     <g id="line2d_13">
      <g>
       <use xlink:href="#mfd6a49dbd5" x="57.6" y="65.178762" style="stroke: #000000; stroke-width: 0.8"/>
      </g>
     </g>
     <g id="text_14">
      <!-- 0.75 -->
      <g transform="translate(28.334375 68.977981)scale(0.1 -0.1)">
       <use xlink:href="#DejaVuSans-30"/>
       <use xlink:href="#DejaVuSans-2e" x="63.623047"/>
       <use xlink:href="#DejaVuSans-37" x="95.410156"/>
       <use xlink:href="#DejaVuSans-35" x="159.033203"/>
      </g>
     </g>
    </g>
    <g id="text_15">
     <!-- Magnitude -->
     <g transform="translate(12.835156 214.262766)rotate(-90)scale(0.15 -0.15)">
      <defs>
       <path id="DejaVuSans-4d" d="M 628 4666 
L 1569 4666 
L 2759 1491 
L 3956 4666 
L 4897 4666 
L 4897 0 
L 4281 0 
L 4281 4097 
L 3078 897 
L 2444 897 
L 1241 4097 
L 1241 0 
L 628 0 
L 628 4666 
z
" transform="scale(0.015625)"/>
       <path id="DejaVuSans-67" d="M 2906 1791 
Q 2906 2416 2648 2759 
Q 2391 3103 1925 3103 
Q 1463 3103 1205 2759 
Q 947 2416 947 1791 
Q 947 1169 1205 825 
Q 1463 481 1925 481 
Q 2391 481 2648 825 
Q 2906 1169 2906 1791 
z
M 3481 434 
Q 3481 -459 3084 -895 
Q 2688 -1331 1869 -1331 
Q 1566 -1331 1297 -1286 
Q 1028 -1241 775 -1147 
L 775 -588 
Q 1028 -725 1275 -790 
Q 1522 -856 1778 -856 
Q 2344 -856 2625 -561 
Q 2906 -266 2906 331 
L 2906 616 
Q 2728 306 2450 153 
Q 2172 0 1784 0 
Q 1141 0 747 490 
Q 353 981 353 1791 
Q 353 2603 747 3093 
Q 1141 3584 1784 3584 
Q 2172 3584 2450 3431 
Q 2728 3278 2906 2969 
L 2906 3500 
L 3481 3500 
L 3481 434 
z
" transform="scale(0.015625)"/>
       <path id="DejaVuSans-6e" d="M 3513 2113 
L 3513 0 
L 2938 0 
L 2938 2094 
Q 2938 2591 2744 2837 
Q 2550 3084 2163 3084 
Q 1697 3084 1428 2787 
Q 1159 2491 1159 1978 
L 1159 0 
L 581 0 
L 581 3500 
L 1159 3500 
L 1159 2956 
Q 1366 3272 1645 3428 
Q 1925 3584 2291 3584 
Q 2894 3584 3203 3211 
Q 3513 2838 3513 2113 
z
" transform="scale(0.015625)"/>
       <path id="DejaVuSans-75" d="M 544 1381 
L 544 3500 
L 1119 3500 
L 1119 1403 
Q 1119 906 1312 657 
Q 1506 409 1894 409 
Q 2359 409 2629 706 
Q 2900 1003 2900 1516 
L 2900 3500 
L 3475 3500 
L 3475 0 
L 2900 0 
L 2900 538 
Q 2691 219 2414 64 
Q 2138 -91 1772 -91 
Q 1169 -91 856 284 
Q 544 659 544 1381 
z
M 1991 3584 
L 1991 3584 
z
" transform="scale(0.015625)"/>
       <path id="DejaVuSans-64" d="M 2906 2969 
L 2906 4863 
L 3481 4863 
L 3481 0 
L 2906 0 
L 2906 525 
Q 2725 213 2448 61 
Q 2172 -91 1784 -91 
Q 1150 -91 751 415 
Q 353 922 353 1747 
Q 353 2572 751 3078 
Q 1150 3584 1784 3584 
Q 2172 3584 2448 3432 
Q 2725 3281 2906 2969 
z
M 947 1747 
Q 947 1113 1208 752 
Q 1469 391 1925 391 
Q 2381 391 2643 752 
Q 2906 1113 2906 1747 
Q 2906 2381 2643 2742 
Q 2381 3103 1925 3103 
Q 1469 3103 1208 2742 
Q 947 2381 947 1747 
z
" transform="scale(0.015625)"/>
      </defs>
      <use xlink:href="#DejaVuSans-4d"/>
      <use xlink:href="#DejaVuSans-61" x="86.279297"/>
      <use xlink:href="#DejaVuSans-67" x="147.558594"/>
      <use xlink:href="#DejaVuSans-6e" x="211.035156"/>
      <use xlink:href="#DejaVuSans-69" x="274.414062"/>
      <use xlink:href="#DejaVuSans-74" x="302.197266"/>
      <use xlink:href="#DejaVuSans-75" x="341.40625"/>
      <use xlink:href="#DejaVuSans-64" x="404.785156"/>
      <use xlink:href="#DejaVuSans-65" x="468.261719"/>
     </g>
    </g>
   </g>
   <g id="line2d_14">
    <path d="M 73.832727 213.778413 
L 75.132645 213.038501 
L 76.757543 211.749178 
L 78.382441 209.877709 
L 78.70742 209.146693 
L 80.007338 207.553243 
L 80.982277 206.372234 
L 81.307256 206.013845 
L 81.632236 205.423889 
L 81.957215 205.172019 
L 83.257133 204.932264 
L 84.232072 204.605379 
L 84.557052 204.961438 
L 84.882031 204.742092 
L 85.207011 205.121947 
L 85.85697 206.314319 
L 86.506929 207.100106 
L 87.806847 208.087574 
L 88.131826 208.540046 
L 89.106765 208.45376 
L 89.756724 208.278291 
L 91.381622 208.171075 
L 92.031581 208.428903 
L 92.35656 208.547088 
L 93.006519 208.532005 
L 93.981458 209.315748 
L 94.631417 210.155827 
L 95.281376 211.31023 
L 95.606355 212.470682 
L 96.906274 214.922529 
L 97.231253 215.562078 
L 97.556233 216.786475 
L 98.856151 219.180556 
L 99.18113 220.238689 
L 100.806028 222.420567 
L 102.430925 224.186637 
L 103.405864 224.528509 
L 103.730844 224.572547 
L 104.705782 224.23257 
L 105.355741 223.796484 
L 105.680721 223.165245 
L 106.0057 223.165245 
L 106.655659 221.901486 
L 107.630598 220.088996 
L 108.280557 218.712402 
L 108.605536 217.206662 
L 109.905455 214.511697 
L 110.555414 213.314184 
L 110.880393 212.353618 
L 112.180311 210.289027 
L 112.505291 209.703372 
L 112.83027 208.501674 
L 114.130188 206.078928 
L 114.455168 204.708139 
L 114.780147 203.988181 
L 116.405045 201.689733 
L 116.730025 200.689052 
L 117.055004 199.168269 
L 119.329861 194.421096 
L 119.65484 193.161745 
L 120.629779 191.279185 
L 120.954758 190.208456 
L 123.554595 186.575061 
L 123.879574 185.844239 
L 125.829451 184.085115 
L 126.154431 183.662398 
L 127.454349 183.016012 
L 129.079247 182.688997 
L 130.379165 182.806754 
L 132.004062 183.786637 
L 132.329042 184.455834 
L 132.979001 185.222443 
L 133.30398 186.143278 
L 133.62896 186.564749 
L 134.278919 188.352111 
L 134.603898 189.84235 
L 135.578837 192.869348 
L 135.903817 194.136283 
L 136.228796 196.672449 
L 136.553776 196.672449 
L 136.878755 199.394404 
L 138.828632 207.329042 
L 139.153612 209.741644 
L 139.478591 209.741644 
L 139.803571 212.304723 
L 141.103489 216.505159 
L 141.428468 218.332872 
L 141.753448 218.332872 
L 142.078428 220.129624 
L 143.703325 223.915532 
L 144.028305 225.33875 
L 145.328223 227.838403 
L 146.628141 229.97052 
L 147.2781 230.398176 
L 147.928059 230.603452 
L 148.253038 230.613845 
L 148.902998 230.256174 
L 149.877936 229.254577 
L 150.527895 227.944887 
L 151.502834 226.279479 
L 152.802752 223.565165 
L 153.127731 222.868412 
L 153.452711 221.389095 
L 154.752629 218.366631 
L 155.077609 216.827593 
L 156.377527 213.316917 
L 157.677445 209.638164 
L 158.002424 207.744699 
L 159.952301 201.834638 
L 160.277281 201.425247 
L 160.92724 199.559372 
L 161.577199 197.666143 
L 161.902179 196.879945 
L 162.227158 195.309819 
L 163.202097 193.017027 
L 163.852056 191.587425 
L 164.177035 189.853587 
L 165.151974 186.90723 
L 166.776871 183.563017 
L 167.42683 182.430396 
L 167.75181 181.42088 
L 168.726749 180.195256 
L 169.701687 179.329273 
L 170.351646 178.978828 
L 171.651564 179.09897 
L 172.301523 179.284805 
L 173.276462 180.145244 
L 174.2514 181.074298 
L 175.551319 182.795225 
L 175.876298 184.441033 
L 176.201278 184.917088 
L 176.526257 185.934869 
L 176.851237 186.418547 
L 177.176216 187.524932 
L 177.501196 189.478889 
L 177.826175 189.478889 
L 178.151155 191.526255 
L 179.126093 195.811535 
L 179.451073 198.732233 
L 181.075971 208.257155 
L 182.375889 216.864797 
L 182.700868 221.157408 
L 183.675807 227.437631 
L 184.000786 231.531141 
L 185.625684 241.285932 
L 185.950663 244.811647 
L 186.925602 249.324802 
L 188.22552 254.235206 
L 188.875479 255.251777 
L 189.525438 255.779318 
L 190.175397 255.861654 
L 190.500377 255.725637 
L 190.825356 255.013794 
L 191.800295 253.608913 
L 192.775233 251.6544 
L 193.100213 250.130466 
L 194.075152 247.460202 
L 195.05009 244.142672 
L 195.37507 244.107942 
L 196.025029 240.17983 
L 196.674988 234.600162 
L 198.624865 216.694246 
L 198.949844 214.226663 
L 199.274824 209.739973 
L 200.899722 199.521266 
L 201.224701 204.786889 
L 201.549681 203.822061 
L 201.87466 197.600444 
L 202.524619 195.650202 
L 203.174578 191.49813 
L 203.499558 187.872258 
L 204.799476 181.515616 
L 206.424373 174.568158 
L 207.399312 172.397304 
L 208.049271 171.405784 
L 208.374251 170.583946 
L 209.02421 170.085498 
L 209.674169 169.782652 
L 209.999148 169.784812 
L 210.324128 169.924097 
L 211.299066 170.066738 
L 211.949025 170.305718 
L 212.598984 170.869134 
L 213.248943 171.358236 
L 214.223882 172.313499 
L 214.548862 173.091558 
L 215.5238 174.530537 
L 216.498739 176.219452 
L 217.473677 180.086953 
L 218.123636 182.185263 
L 218.448616 183.357429 
L 218.773595 186.121079 
L 219.423554 189.806808 
L 220.073514 194.842732 
L 220.723473 200.864659 
L 221.048452 207.553948 
L 222.023391 217.706137 
L 222.67335 224.802617 
L 222.998329 231.457166 
L 224.623227 246.092676 
L 224.948206 248.560602 
L 225.273186 252.912133 
L 226.248124 258.110544 
L 227.223063 261.76406 
L 227.548043 262.620423 
L 227.873022 264.050632 
L 228.522981 265.159201 
L 229.49792 266.290439 
L 230.472858 267.046582 
L 231.122817 267.120297 
L 231.772776 266.928826 
L 233.072695 264.302295 
L 234.372613 259.167872 
L 234.697592 255.229446 
L 235.347551 250.023833 
L 236.32249 239.049103 
L 236.972449 230.362119 
L 237.297428 221.463105 
L 237.947387 212.763951 
L 238.272367 213.73055 
L 238.597346 206.582452 
L 238.922326 203.041252 
L 239.572285 199.194597 
L 240.222244 194.325927 
L 240.547224 189.511215 
L 241.522162 183.309891 
L 243.14706 174.784219 
L 243.797019 173.231388 
L 244.121998 172.649647 
L 244.446978 171.654877 
L 245.096937 170.89556 
L 245.746896 170.335034 
L 246.396855 170.037812 
L 247.046814 169.97773 
L 247.696773 170.18794 
L 248.671712 170.754751 
L 248.996691 170.990657 
L 249.64665 171.834978 
L 250.621589 172.86412 
L 252.246486 175.197107 
L 252.571466 177.251731 
L 252.896446 178.096482 
L 253.871384 182.052722 
L 254.196364 185.857455 
L 255.171302 192.988187 
L 256.146241 203.330552 
L 257.771138 222.201659 
L 258.421097 226.038327 
L 259.071057 231.134977 
L 259.721016 238.013721 
L 260.045995 246.485968 
L 260.695954 254.563209 
L 261.995872 269.473319 
L 262.645831 274.693624 
L 263.29579 278.095204 
L 263.62077 281.745671 
L 263.945749 283.187748 
L 264.920688 283.235903 
L 265.895627 282.853985 
L 267.520524 281.020687 
L 268.170483 279.763266 
L 268.820442 278.099866 
L 269.145422 275.789125 
L 269.795381 272.663286 
L 270.770319 266.424469 
L 271.420278 261.036653 
L 271.745258 253.360197 
L 272.720197 237.906932 
L 274.020115 217.259843 
L 274.345094 213.409428 
L 274.670074 208.100442 
L 274.995053 206.606904 
L 275.645012 200.908777 
L 275.969992 195.324748 
L 276.94493 187.643234 
L 278.569828 176.867319 
L 278.894808 172.104827 
L 279.544767 168.177737 
L 280.194726 165.557665 
L 280.844685 164.213449 
L 281.169664 163.876237 
L 281.819623 163.956883 
L 282.469582 164.902377 
L 282.794562 164.942992 
L 283.444521 165.341868 
L 283.7695 165.620801 
L 284.09448 166.402113 
L 285.069419 168.043903 
L 286.044357 170.130145 
L 287.019296 172.753166 
L 287.344275 175.108995 
L 288.319214 185.269047 
L 288.969173 190.568712 
L 289.294152 196.554537 
L 290.269091 208.350943 
L 290.91905 216.786426 
L 291.569009 222.321275 
L 291.893989 224.40977 
L 292.218968 228.798358 
L 292.868927 234.588806 
L 293.843866 246.349105 
L 294.168845 250.904696 
L 294.493825 260.175854 
L 296.443702 279.225521 
L 297.093661 280.951448 
L 297.41864 281.347863 
L 297.74362 281.461635 
L 298.0686 281.333355 
L 298.718559 280.624833 
L 299.043538 280.089326 
L 299.368518 278.625128 
L 300.018477 276.970609 
L 300.343456 275.976585 
L 300.668436 273.427755 
L 301.318395 269.981435 
L 301.643374 267.839072 
L 301.968354 262.610705 
L 302.943292 252.261841 
L 303.268272 247.997085 
L 303.593251 238.25005 
L 304.89317 215.149761 
L 305.218149 215.119028 
L 305.543129 201.442101 
L 306.193088 195.110159 
L 307.168026 185.287241 
L 307.493006 178.341457 
L 308.467944 168.663221 
L 309.117903 164.006003 
L 309.767862 161.078542 
L 310.417821 159.096573 
L 310.742801 158.866481 
L 311.067781 158.83947 
L 311.71774 159.288704 
L 312.042719 159.179664 
L 312.367699 159.267583 
L 312.692678 158.980484 
L 313.017658 159.930649 
L 313.342637 161.288868 
L 313.667617 161.505037 
L 314.317576 164.964029 
L 314.642555 166.196853 
L 315.292514 170.483453 
L 315.617494 176.872743 
L 316.917412 194.795351 
L 317.892351 211.194068 
L 318.21733 217.004902 
L 318.54231 227.455381 
L 319.192269 234.280981 
L 320.492187 246.841983 
L 320.817166 255.62701 
L 322.442064 279.618525 
L 323.417002 289.066656 
L 323.741982 289.886992 
L 324.066962 290.366704 
L 324.391941 290.491193 
L 324.716921 290.445372 
L 325.0419 290.243055 
L 325.691859 288.655993 
L 326.016839 288.013041 
L 327.316757 282.965589 
L 327.966716 279.467607 
L 328.291695 274.879878 
L 329.266634 265.919965 
L 329.591613 262.379311 
L 329.916593 254.361799 
L 330.891532 240.160225 
L 331.86647 224.121559 
L 332.19145 212.957755 
L 332.516429 212.158815 
L 333.491368 194.789503 
L 333.816347 193.001931 
L 334.141327 190.399968 
L 334.791286 181.496645 
L 335.441245 175.569988 
L 335.766224 173.467297 
L 336.741163 170.363453 
L 337.066143 170.007164 
L 337.716102 170.678572 
L 338.041081 171.063666 
L 338.69104 172.381029 
L 339.665979 175.899675 
L 340.315938 178.630558 
L 341.290876 187.239332 
L 341.615856 190.348396 
L 341.940835 197.196835 
L 342.590794 205.026258 
L 343.890713 225.825218 
L 344.540672 233.134269 
L 345.51561 241.98184 
L 345.84059 245.702321 
L 346.165569 254.885643 
L 347.790467 282.86177 
L 348.115446 290.122913 
L 348.765405 293.8651 
L 349.090385 294.767173 
L 349.415364 295.290224 
L 349.740344 295.485557 
L 350.065324 295.488 
L 350.390303 295.326118 
L 350.715283 295.009304 
L 351.365242 293.46353 
L 352.015201 291.725207 
L 352.34018 290.819416 
L 353.315119 285.93539 
L 353.640098 281.888522 
L 354.615037 273.981937 
L 355.264996 267.187304 
L 355.589975 259.119255 
L 356.889894 239.940333 
L 357.864832 223.836792 
L 358.189812 223.233101 
L 358.839771 212.123046 
L 359.16475 200.475366 
L 359.48973 196.842223 
L 359.814709 195.296364 
L 361.439607 180.568001 
L 362.089566 176.956155 
L 362.739525 174.538856 
L 363.064505 174.451922 
L 363.389484 174.587781 
L 364.039443 175.608892 
L 364.689402 177.123205 
L 365.014382 177.314845 
L 366.3143 181.565979 
L 368.589156 194.428929 
L 368.914136 198.904491 
L 369.564095 204.457738 
L 371.188993 223.99068 
L 372.163931 231.631202 
L 372.488911 237.747505 
L 373.13887 246.139283 
L 374.113808 263.207858 
L 374.438788 275.724267 
L 375.088747 285.740743 
L 375.738706 291.360356 
L 376.063686 292.696961 
L 376.388665 293.332492 
L 376.713645 294.302345 
L 377.038624 293.826758 
L 377.363604 293.129704 
L 377.688583 292.116502 
L 378.338542 291.498194 
L 379.96344 290.541357 
L 380.613399 290.003823 
L 380.938378 289.514021 
L 381.913317 286.551326 
L 382.563276 279.112209 
L 382.888256 277.080065 
L 383.538215 270.840724 
L 384.188174 264.526735 
L 384.513153 257.046789 
L 386.46303 232.917452 
L 386.78801 228.745992 
L 387.112989 220.896484 
L 388.087928 211.475347 
L 389.387846 201.322697 
L 390.037805 199.221684 
L 390.362785 198.608248 
L 390.687764 198.300101 
L 391.012744 198.38689 
L 392.637641 200.097014 
L 393.61258 201.646292 
L 393.937559 202.642391 
L 394.912498 203.833041 
L 395.887437 204.672782 
L 396.537396 204.813798 
L 397.512334 204.750547 
L 397.837314 204.483359 
L 398.162293 204.389517 
L 398.487273 204.432415 
L 398.487273 204.432415 
" clip-path="url(#pe0251de3ef)" style="fill: none; stroke: #1f77b4; stroke-width: 1.5; stroke-linecap: square"/>
   </g>
   <g id="line2d_15">
    <path d="M 73.832727 247.704492 
L 75.457625 250.236404 
L 75.782604 249.781582 
L 76.432563 251.564524 
L 77.082523 253.120847 
L 78.057461 254.742345 
L 78.382441 255.160003 
L 78.70742 256.112615 
L 79.357379 256.869545 
L 80.332318 258.156566 
L 81.307256 258.968429 
L 81.632236 259.472371 
L 82.607174 260.032545 
L 83.257133 260.196985 
L 83.582113 260.01943 
L 84.557052 260.751086 
L 84.882031 262.040275 
L 85.207011 263.818834 
L 86.181949 264.443035 
L 86.831908 264.536558 
L 87.481867 264.157381 
L 87.806847 264.099926 
L 88.131826 263.29066 
L 89.106765 262.470635 
L 91.056642 261.520027 
L 91.381622 261.403133 
L 91.706601 261.087523 
L 92.031581 260.962211 
L 92.35656 260.442908 
L 92.68154 260.583462 
L 93.006519 260.569183 
L 93.331499 260.373543 
L 93.656478 260.792201 
L 93.981458 260.573536 
L 94.631417 259.62946 
L 95.281376 259.122673 
L 95.606355 258.65834 
L 96.906274 257.615488 
L 97.231253 257.336904 
L 97.556233 256.802052 
L 98.856151 255.822285 
L 99.18113 255.369981 
L 100.806028 254.623928 
L 102.105946 254.292786 
L 103.405864 254.432183 
L 103.730844 254.506953 
L 104.380803 254.906435 
L 105.355741 255.494313 
L 105.680721 255.988885 
L 106.0057 255.988885 
L 106.655659 256.86975 
L 107.955577 258.408989 
L 108.280557 258.84129 
L 108.605536 259.6989 
L 110.555414 262.075683 
L 110.880393 262.912926 
L 112.505291 265.022745 
L 112.83027 265.847929 
L 114.130188 267.24951 
L 114.455168 267.906506 
L 115.430106 268.965811 
L 117.379984 271.142512 
L 120.954758 273.211905 
L 127.454349 273.396401 
L 129.079247 273.126242 
L 131.029124 272.802625 
L 132.004062 272.569174 
L 132.654021 272.258358 
L 133.62896 271.975631 
L 134.278919 271.927543 
L 134.603898 271.791509 
L 135.578837 271.677603 
L 136.553776 271.430242 
L 138.178673 270.114627 
L 138.828632 269.477484 
L 139.153612 268.738841 
L 139.478591 268.738841 
L 139.803571 267.816051 
L 141.103489 266.093426 
L 141.428468 265.24344 
L 141.753448 265.24344 
L 142.078428 264.34284 
L 143.703325 262.311285 
L 144.028305 261.560225 
L 145.653202 259.917256 
L 145.978182 259.663928 
L 146.303161 259.232066 
L 147.2781 258.823932 
L 148.253038 258.730575 
L 149.552957 259.117829 
L 149.877936 259.088141 
L 151.502834 261.165214 
L 152.152793 262.130709 
L 153.127731 263.183177 
L 153.452711 263.857019 
L 154.752629 265.184207 
L 155.077609 265.816102 
L 156.702506 267.331301 
L 158.652383 268.870374 
L 159.627322 269.482257 
L 159.952301 270.072424 
L 160.60226 270.632648 
L 160.92724 270.616248 
L 161.577199 270.917183 
L 163.852056 272.765463 
L 164.177035 273.057161 
L 164.826994 273.255114 
L 166.776871 274.031709 
L 167.75181 274.239522 
L 172.951482 274.375885 
L 175.551319 273.980475 
L 175.876298 274.09781 
L 176.201278 274.008814 
L 176.526257 274.182982 
L 176.851237 274.073541 
L 177.501196 274.261331 
L 177.826175 274.261331 
L 178.476134 274.391736 
L 179.451073 274.188292 
L 180.101032 273.755062 
L 181.075971 272.699414 
L 182.050909 271.127266 
L 182.375889 270.530509 
L 182.700868 269.139821 
L 183.675807 266.723203 
L 184.000786 264.871711 
L 184.650745 262.934927 
L 185.625684 259.576283 
L 185.950663 257.272424 
L 187.250581 252.898005 
L 187.900541 250.98302 
L 188.22552 249.50887 
L 188.875479 248.339141 
L 189.525438 247.589298 
L 190.175397 247.249704 
L 190.500377 247.217843 
L 192.450254 249.437727 
L 192.775233 249.924696 
L 193.100213 250.947003 
L 194.075152 252.829681 
L 195.05009 255.217251 
L 195.37507 255.0503 
L 197.324947 263.662029 
L 197.974906 265.779717 
L 198.624865 267.240205 
L 198.949844 267.777413 
L 199.274824 268.570328 
L 200.249762 269.303231 
L 200.899722 269.652279 
L 201.224701 267.731751 
L 201.549681 268.287395 
L 201.87466 269.605056 
L 203.174578 272.581787 
L 203.499558 273.060076 
L 203.824537 273.064333 
L 204.474496 272.74522 
L 205.449435 271.77935 
L 205.774414 271.345083 
L 206.099394 270.408198 
L 208.374251 267.174964 
L 209.02421 266.706698 
L 209.674169 266.426662 
L 209.999148 266.437524 
L 210.324128 266.317231 
L 211.949025 266.593808 
L 212.923964 267.058572 
L 214.223882 267.578096 
L 214.548862 267.871065 
L 216.173759 268.656252 
L 216.498739 268.867301 
L 216.823718 269.761714 
L 217.148698 270.119997 
L 217.473677 270.86767 
L 217.798657 271.065697 
L 218.448616 272.273595 
L 218.773595 273.339575 
L 219.748534 274.502826 
L 220.073514 274.706952 
L 220.723473 274.698048 
L 221.698411 272.388189 
L 222.67335 268.662044 
L 222.998329 265.584213 
L 223.973268 260.369168 
L 224.948206 254.610061 
L 225.273186 250.984296 
L 226.248124 246.095552 
L 227.223063 242.259111 
L 227.548043 241.340033 
L 227.873022 239.77631 
L 228.847961 237.868007 
L 230.147879 235.773793 
L 230.797838 235.369706 
L 231.447797 235.282788 
L 231.772776 235.416 
L 233.072695 238.739857 
L 234.372613 244.62215 
L 234.697592 248.55486 
L 235.347551 253.031163 
L 236.647469 261.99204 
L 236.972449 263.838626 
L 237.297428 266.686275 
L 237.947387 268.458904 
L 238.272367 267.295891 
L 238.597346 268.743946 
L 239.897265 271.751185 
L 240.222244 272.086992 
L 240.547224 272.111721 
L 240.872203 271.797944 
L 241.197183 271.272895 
L 241.847142 269.596783 
L 242.497101 267.481846 
L 242.82208 265.355987 
L 244.446978 258.847074 
L 245.096937 257.805177 
L 245.746896 257.35452 
L 246.396855 257.392387 
L 247.046814 257.783246 
L 248.671712 258.70761 
L 248.996691 258.926251 
L 249.321671 259.3386 
L 250.946568 260.406964 
L 252.246486 261.826353 
L 252.896446 264.065071 
L 253.221425 264.493318 
L 254.521343 268.248942 
L 255.171302 269.32226 
L 255.496282 269.700519 
L 255.821261 269.904677 
L 256.146241 269.867525 
L 256.47122 269.683697 
L 257.121179 268.67672 
L 257.446159 267.816307 
L 258.096118 266.682634 
L 258.746077 264.726869 
L 259.396036 261.699307 
L 259.721016 259.732328 
L 260.045995 254.704887 
L 261.020934 244.520186 
L 263.29579 216.055558 
L 263.62077 205.606753 
L 263.945749 201.490721 
L 264.595708 199.147029 
L 265.245667 197.663048 
L 265.895627 196.875809 
L 266.220606 196.668177 
L 266.545586 196.876426 
L 266.870565 197.323477 
L 267.195545 198.034802 
L 267.520524 199.028778 
L 268.170483 201.972618 
L 268.820442 206.040966 
L 269.145422 211.408546 
L 270.44534 224.153854 
L 271.420278 234.089657 
L 271.745258 241.711819 
L 272.720197 252.611332 
L 273.370156 257.810564 
L 273.695135 259.700987 
L 274.020115 259.920889 
L 274.670074 262.576258 
L 275.969992 267.580709 
L 276.294971 267.514006 
L 276.619951 267.070491 
L 277.26991 265.326399 
L 277.919869 263.135288 
L 278.244848 262.571199 
L 278.569828 262.636447 
L 279.219787 265.024844 
L 279.869746 266.456952 
L 280.194726 266.828834 
L 280.519705 267.007676 
L 280.844685 266.995434 
L 281.494644 266.381076 
L 281.819623 266.381076 
L 282.144603 266.131233 
L 282.469582 266.119935 
L 283.7695 266.751951 
L 284.09448 267.101296 
L 287.019296 268.534974 
L 287.344275 269.285609 
L 287.994234 267.808597 
L 288.644193 268.182973 
L 288.969173 268.57236 
L 289.294152 269.386281 
L 289.619132 269.687499 
L 289.944111 269.817845 
L 290.269091 269.698668 
L 291.893989 268.010787 
L 293.193907 262.260837 
L 293.843866 257.743718 
L 294.168845 254.875063 
L 294.493825 247.837413 
L 295.468763 236.73483 
L 295.793743 232.874214 
L 296.118722 226.148263 
L 296.768681 221.288388 
L 297.41864 218.654653 
L 297.74362 218.058696 
L 298.0686 217.876634 
L 298.393579 218.041371 
L 298.718559 218.490887 
L 299.043538 219.182227 
L 299.368518 221.269047 
L 300.018477 223.825973 
L 300.343456 225.301652 
L 300.668436 228.718445 
L 301.643374 235.00743 
L 301.968354 239.8048 
L 303.268272 249.974286 
L 303.593251 254.547379 
L 304.24321 258.106109 
L 304.89317 260.309395 
L 305.218149 258.764513 
L 305.543129 260.110548 
L 305.868108 260.668554 
L 306.193088 261.821223 
L 306.518067 262.175351 
L 306.843047 261.755565 
L 307.493006 260.136026 
L 307.817985 260.496667 
L 308.792924 262.335981 
L 309.117903 262.734763 
L 309.767862 262.817737 
L 310.092842 262.558147 
L 310.417821 261.776961 
L 311.067781 261.127908 
L 311.39276 260.928056 
L 311.71774 260.93175 
L 312.692678 261.911413 
L 313.017658 263.088002 
L 313.342637 263.138834 
L 314.317576 263.893036 
L 314.967535 265.466639 
L 315.292514 266.541487 
L 315.942473 269.564781 
L 316.592432 271.850751 
L 317.242391 273.226906 
L 317.567371 273.24315 
L 317.892351 272.948951 
L 318.21733 272.183226 
L 318.54231 270.077997 
L 319.842228 265.441104 
L 320.492187 261.855673 
L 321.142146 252.098517 
L 321.792105 242.47182 
L 322.767043 225.544667 
L 323.092023 216.017841 
L 323.741982 209.583151 
L 324.066962 207.605078 
L 324.391941 206.477523 
L 324.716921 205.938055 
L 325.0419 205.953131 
L 326.341818 211.429013 
L 327.316757 217.239822 
L 327.966716 221.994487 
L 328.291695 227.443639 
L 329.591613 239.110486 
L 329.916593 244.673152 
L 330.891532 251.408367 
L 331.541491 254.114301 
L 331.86647 254.74968 
L 332.19145 254.52009 
L 332.516429 251.742264 
L 332.841409 251.014379 
L 333.491368 247.461203 
L 333.816347 247.152809 
L 334.141327 247.005914 
L 334.466306 247.552219 
L 336.091204 251.843295 
L 336.416183 252.321602 
L 337.716102 253.462529 
L 338.366061 254.409693 
L 338.69104 255.051749 
L 339.665979 258.379131 
L 339.990958 259.35804 
L 340.315938 259.955489 
L 340.640917 260.034023 
L 340.965897 260.709814 
L 341.615856 262.773234 
L 341.940835 264.712621 
L 342.265815 265.482186 
L 342.590794 265.607881 
L 342.915774 266.199108 
L 343.240753 266.14726 
L 344.215692 264.700327 
L 344.865651 264.083216 
L 345.190631 263.615532 
L 345.51561 262.778639 
L 345.84059 261.464 
L 347.140508 244.646494 
L 347.790467 232.488591 
L 348.115446 220.441875 
L 348.765405 211.23888 
L 349.415364 205.871318 
L 349.740344 204.582755 
L 350.065324 203.98857 
L 350.390303 204.041921 
L 350.715283 204.611186 
L 351.365242 208.186369 
L 352.34018 213.487082 
L 353.315119 221.21439 
L 353.640098 226.696089 
L 355.264996 241.345017 
L 355.589975 246.938586 
L 356.564914 253.595725 
L 357.214873 256.360839 
L 357.539853 257.366494 
L 357.864832 257.454083 
L 358.189812 255.385434 
L 358.514791 255.546653 
L 358.839771 255.030366 
L 359.16475 252.823023 
L 359.48973 251.659827 
L 359.814709 251.932777 
L 360.139689 251.940721 
L 360.464668 252.082396 
L 360.789648 252.547765 
L 361.764586 254.92234 
L 362.739525 257.399666 
L 364.364423 259.244317 
L 364.689402 259.804993 
L 365.014382 260.140407 
L 365.98932 262.704959 
L 366.3143 263.147146 
L 366.639279 262.704181 
L 366.964259 262.748876 
L 368.264177 265.328441 
L 368.589156 265.997879 
L 368.914136 267.365507 
L 369.239115 268.00984 
L 369.564095 268.283437 
L 369.889075 269.011407 
L 370.214054 269.344341 
L 370.539034 269.458815 
L 370.864013 269.381737 
L 371.838952 269.563703 
L 372.163931 269.408196 
L 372.81389 266.438613 
L 373.463849 261.198298 
L 374.113808 252.514859 
L 374.438788 239.47499 
L 376.063686 203.547238 
L 376.388665 198.786797 
L 376.713645 188.1438 
L 377.038624 183.845445 
L 377.363604 181.863094 
L 377.688583 178.991219 
L 378.338542 177.075614 
L 378.663522 176.352065 
L 378.988501 175.950215 
L 379.313481 175.784726 
L 379.63846 176.360224 
L 379.96344 177.270909 
L 380.613399 180.122394 
L 380.938378 182.65731 
L 381.913317 195.763835 
L 382.238296 207.382733 
L 382.563276 213.417411 
L 384.188174 232.629363 
L 384.513153 238.902366 
L 385.488092 246.011286 
L 386.138051 249.288861 
L 387.112989 252.637895 
L 388.087928 253.189548 
L 389.062867 253.290554 
L 389.712826 252.897729 
L 391.337723 251.45847 
L 391.662703 250.977092 
L 392.312662 250.628809 
L 392.962621 250.391076 
L 393.61258 250.334356 
L 396.212416 250.997353 
L 397.187355 251.496965 
L 397.512334 251.689273 
L 397.837314 252.250288 
L 398.487273 252.743243 
L 398.487273 252.743243 
" clip-path="url(#pe0251de3ef)" style="fill: none; stroke: #ff7f0e; stroke-width: 1.5; stroke-linecap: square"/>
   </g>
   <g id="line2d_16">
    <path d="M 73.832727 60.853059 
L 75.457625 62.28472 
L 75.782604 61.82991 
L 77.082523 63.894716 
L 78.057461 64.755681 
L 78.382441 64.938004 
L 78.70742 65.434959 
L 79.357379 65.763884 
L 80.332318 66.393533 
L 81.957215 67.03633 
L 82.607174 67.282437 
L 83.257133 67.389052 
L 83.582113 67.193919 
L 84.557052 67.87987 
L 84.882031 68.946757 
L 85.207011 70.696178 
L 86.181949 71.858469 
L 86.831908 72.154267 
L 87.481867 71.972491 
L 87.806847 72.025346 
L 88.131826 71.438209 
L 89.106765 70.649415 
L 89.756724 70.301829 
L 90.081704 70.18736 
L 90.731663 69.800539 
L 91.381622 69.578913 
L 91.706601 69.361579 
L 92.031581 69.281375 
L 92.35656 68.866516 
L 93.006519 68.972028 
L 93.331499 68.880859 
L 93.656478 69.35202 
L 93.981458 69.269319 
L 94.306437 68.897609 
L 94.956396 68.746863 
L 97.231253 69.019849 
L 101.780966 70.41962 
L 104.705782 71.323545 
L 106.33068 71.607967 
L 109.905455 72.025644 
L 110.555414 72.244074 
L 110.880393 72.613957 
L 113.805209 74.220682 
L 114.780147 74.580052 
L 116.405045 75.698415 
L 117.379984 75.848522 
L 120.954758 76.003529 
L 122.254676 75.755959 
L 123.554595 75.534483 
L 124.204554 75.350805 
L 126.47941 75.103368 
L 127.779328 74.926741 
L 129.079247 74.683004 
L 132.004062 74.2346 
L 132.654021 74.049253 
L 132.979001 73.975459 
L 133.30398 74.079916 
L 133.62896 74.023803 
L 135.253857 74.754823 
L 135.903817 75.163431 
L 136.228796 75.638015 
L 136.553776 75.638015 
L 136.878755 76.161783 
L 138.178673 76.819327 
L 139.803571 77.429367 
L 141.428468 77.664513 
L 143.703325 77.752585 
L 145.003243 77.987429 
L 147.603079 78.329862 
L 148.578018 78.349161 
L 149.227977 78.285348 
L 150.202916 77.734237 
L 151.177854 77.906236 
L 152.152793 78.13969 
L 153.127731 78.022711 
L 153.77769 77.80448 
L 155.727568 77.323945 
L 156.702506 76.950712 
L 159.627322 75.508949 
L 160.277281 75.861958 
L 160.60226 75.946442 
L 161.252219 75.396611 
L 162.227158 75.377811 
L 163.202097 75.568528 
L 163.852056 75.814471 
L 165.801933 75.627182 
L 167.42683 75.796529 
L 169.051728 75.569964 
L 170.026667 75.603052 
L 171.651564 75.676186 
L 173.276462 75.694271 
L 175.551319 75.613062 
L 175.876298 75.961605 
L 176.201278 75.934216 
L 176.526257 76.280722 
L 176.851237 76.239638 
L 177.176216 76.541726 
L 177.501196 77.001114 
L 177.826175 77.001114 
L 178.151155 77.566676 
L 179.126093 78.586602 
L 179.451073 79.241172 
L 181.40095 81.367612 
L 182.375889 82.56297 
L 182.700868 83.34918 
L 183.675807 84.512183 
L 184.000786 85.259543 
L 184.975725 86.399252 
L 185.625684 87.098293 
L 185.950663 87.731192 
L 186.925602 88.461095 
L 187.900541 88.871325 
L 188.22552 88.950332 
L 189.525438 88.716213 
L 190.500377 88.315376 
L 190.825356 87.918874 
L 192.775233 86.791906 
L 193.100213 86.310006 
L 195.37507 84.875854 
L 195.700049 84.789879 
L 196.025029 84.457604 
L 196.999967 82.511355 
L 199.599803 76.568812 
L 200.899722 74.597337 
L 201.224701 74.358156 
L 201.549681 74.583365 
L 201.87466 73.997563 
L 202.849599 75.452526 
L 203.174578 75.598463 
L 203.824537 75.112735 
L 204.474496 74.319119 
L 205.774414 72.337227 
L 206.099394 71.271681 
L 208.049271 68.483807 
L 208.374251 68.037351 
L 209.02421 67.603021 
L 209.674169 67.34638 
L 209.999148 67.356395 
L 210.324128 67.24408 
L 211.949025 67.496973 
L 212.923964 67.928319 
L 214.223882 68.426833 
L 214.873841 68.863724 
L 216.173759 69.558686 
L 216.498739 69.79227 
L 216.823718 70.752915 
L 217.148698 71.206708 
L 217.473677 72.057686 
L 217.798657 72.350024 
L 218.448616 73.867959 
L 218.773595 75.396837 
L 219.748534 77.855291 
L 220.723473 80.500426 
L 221.048452 82.149359 
L 222.023391 83.855427 
L 222.67335 85.001492 
L 222.998329 85.996104 
L 223.648288 86.951152 
L 225.598165 89.28786 
L 226.573104 89.98069 
L 228.198002 90.872867 
L 229.17294 90.967546 
L 230.147879 90.853719 
L 233.072695 90.19337 
L 234.372613 89.575905 
L 235.022572 88.678286 
L 235.672531 87.610526 
L 236.32249 85.659753 
L 236.972449 83.331513 
L 237.297428 80.839446 
L 237.947387 78.308 
L 238.272367 77.534609 
L 238.597346 76.042977 
L 238.922326 75.606776 
L 239.572285 76.091812 
L 239.897265 76.009367 
L 240.222244 75.726499 
L 240.872203 73.958976 
L 241.522162 72.034912 
L 242.497101 68.610576 
L 242.82208 66.478752 
L 243.797019 63.140882 
L 244.121998 62.231253 
L 244.446978 60.826967 
L 245.096937 59.998645 
L 245.746896 59.647685 
L 246.396855 59.678917 
L 247.046814 59.984801 
L 248.671712 60.712625 
L 248.996691 60.887476 
L 249.321671 61.221005 
L 250.946568 62.118868 
L 252.246486 63.362869 
L 252.896446 65.45821 
L 253.221425 65.937538 
L 253.871384 67.924088 
L 254.196364 69.55639 
L 255.496282 73.695138 
L 257.121179 79.679855 
L 257.446159 81.432555 
L 258.096118 82.31664 
L 259.071057 83.362362 
L 259.721016 84.612151 
L 260.045995 86.615279 
L 260.370975 87.697725 
L 261.020934 88.761761 
L 261.995872 90.568191 
L 262.645831 91.2456 
L 263.29579 91.459299 
L 263.62077 91.212273 
L 263.945749 91.54391 
L 264.595708 90.788907 
L 268.170483 87.079749 
L 268.820442 86.545736 
L 269.470401 85.755736 
L 270.770319 84.232564 
L 271.420278 83.013995 
L 271.745258 81.302528 
L 272.720197 77.755225 
L 274.020115 72.05254 
L 274.345094 71.695666 
L 274.670074 70.614101 
L 275.320033 71.912722 
L 275.645012 72.081313 
L 276.619951 69.738767 
L 278.244848 64.239363 
L 278.569828 64.135084 
L 279.219787 66.067149 
L 279.869746 67.451915 
L 280.194726 67.849349 
L 280.519705 68.060996 
L 280.844685 68.082749 
L 281.494644 67.52813 
L 281.819623 67.52813 
L 282.144603 67.262401 
L 282.469582 67.228725 
L 287.019296 69.346465 
L 287.344275 70.146564 
L 287.669255 69.522625 
L 287.994234 69.3107 
L 288.644193 70.39977 
L 288.969173 71.30004 
L 289.294152 73.492698 
L 290.59407 79.277183 
L 291.244029 82.137582 
L 292.218968 85.316696 
L 292.868927 86.610797 
L 293.518886 88.396819 
L 294.168845 90.982345 
L 294.493825 93.768389 
L 295.143784 95.182554 
L 296.118722 97.54939 
L 296.443702 97.791125 
L 297.093661 97.816104 
L 297.74362 97.472808 
L 299.043538 96.160022 
L 299.368518 95.416155 
L 300.343456 94.48744 
L 300.993415 92.917104 
L 301.643374 91.321491 
L 301.968354 89.16105 
L 302.943292 85.109351 
L 303.268272 83.46757 
L 303.593251 79.745064 
L 305.218149 70.054177 
L 305.543129 66.229758 
L 305.868108 65.699352 
L 306.193088 66.043206 
L 306.518067 65.666854 
L 307.168026 63.554638 
L 307.493006 62.125784 
L 307.817985 62.237123 
L 308.467944 63.243645 
L 309.117903 64.26879 
L 309.767862 64.568838 
L 310.092842 64.432105 
L 310.417821 63.876053 
L 311.067781 63.356045 
L 311.39276 63.168901 
L 311.71774 63.142426 
L 312.692678 64.0033 
L 313.017658 64.915317 
L 313.342637 64.828381 
L 313.667617 65.006344 
L 313.992596 64.991862 
L 314.317576 65.220902 
L 314.967535 66.498937 
L 315.292514 67.447707 
L 318.21733 84.540001 
L 318.54231 88.402532 
L 319.192269 90.813382 
L 320.492187 94.752001 
L 320.817166 97.271796 
L 322.767043 105.599247 
L 323.092023 106.411266 
L 323.417002 106.437881 
L 324.066962 105.945936 
L 325.0419 104.813523 
L 325.36688 103.909694 
L 326.016839 102.859996 
L 327.966716 97.132664 
L 328.291695 94.543031 
L 329.591613 88.322447 
L 329.916593 84.687952 
L 331.216511 76.021394 
L 331.86647 70.993015 
L 332.19145 65.612637 
L 333.491368 55.062524 
L 334.466306 53.568 
L 334.791286 53.733307 
L 335.441245 54.662977 
L 336.091204 55.579946 
L 336.741163 56.097988 
L 338.366061 57.419645 
L 338.69104 57.90313 
L 339.990958 61.415751 
L 340.315938 61.997997 
L 340.640917 62.279409 
L 340.965897 63.162382 
L 341.615856 65.87969 
L 341.940835 69.142959 
L 342.915774 74.974527 
L 344.865651 87.71769 
L 345.84059 93.171213 
L 346.165569 97.904889 
L 348.115446 114.617857 
L 348.440426 115.215873 
L 348.765405 115.320557 
L 349.415364 114.85277 
L 350.715283 113.471938 
L 351.365242 112.373489 
L 352.015201 111.125356 
L 352.34018 110.542571 
L 353.315119 107.082031 
L 353.640098 104.523143 
L 354.615037 99.835273 
L 355.264996 96.035052 
L 355.589975 91.68649 
L 356.889894 81.634703 
L 358.189812 71.059226 
L 358.839771 65.688894 
L 359.16475 60.162763 
L 359.48973 58.408154 
L 359.814709 58.257934 
L 360.464668 57.164579 
L 360.789648 57.044933 
L 361.114627 57.221647 
L 361.764586 58.058566 
L 362.414545 59.037533 
L 362.739525 59.743099 
L 364.039443 60.885678 
L 365.014382 62.063415 
L 366.3143 64.947385 
L 366.639279 64.772372 
L 366.964259 65.001897 
L 367.614218 66.800275 
L 368.264177 68.621271 
L 368.589156 69.659073 
L 368.914136 72.126751 
L 369.564095 74.799447 
L 371.188993 85.363395 
L 372.163931 90.601612 
L 372.488911 93.712742 
L 373.788829 100.645691 
L 374.113808 102.670829 
L 374.438788 106.511204 
L 374.763767 107.962574 
L 375.088747 108.891764 
L 375.413726 109.179758 
L 375.738706 108.882419 
L 376.063686 108.145024 
L 376.388665 107.08991 
L 377.688583 99.601793 
L 378.338542 98.369265 
L 379.96344 96.816327 
L 380.938378 95.832516 
L 381.263358 95.121069 
L 381.588337 94.868526 
L 381.913317 94.426373 
L 382.563276 91.381202 
L 382.888256 90.776805 
L 383.538215 88.165066 
L 384.188174 85.668031 
L 384.513153 82.60579 
L 386.138051 74.417104 
L 386.78801 70.851007 
L 387.112989 67.628705 
L 387.762948 65.019346 
L 388.412907 63.100029 
L 389.712826 60.117513 
L 390.687764 58.985813 
L 391.012744 58.76783 
L 391.337723 58.711179 
L 391.987682 58.37623 
L 392.962621 58.428128 
L 393.61258 58.677085 
L 393.937559 59.005247 
L 395.237477 59.562738 
L 397.512334 60.556643 
L 397.837314 60.887989 
L 398.487273 61.239024 
L 398.487273 61.239024 
" clip-path="url(#pe0251de3ef)" style="fill: none; stroke: #2ca02c; stroke-width: 1.5; stroke-linecap: square"/>
   </g>
   <g id="patch_3">
    <path d="M 57.6 307.584 
L 57.6 41.472 
" style="fill: none; stroke: #000000; stroke-width: 0.8; stroke-linejoin: miter; stroke-linecap: square"/>
   </g>
   <g id="patch_4">
    <path d="M 414.72 307.584 
L 414.72 41.472 
" style="fill: none; stroke: #000000; stroke-width: 0.8; stroke-linejoin: miter; stroke-linecap: square"/>
   </g>
   <g id="patch_5">
    <path d="M 57.6 307.584 
L 414.72 307.584 
" style="fill: none; stroke: #000000; stroke-width: 0.8; stroke-linejoin: miter; stroke-linecap: square"/>
   </g>
   <g id="patch_6">
    <path d="M 57.6 41.472 
L 414.72 41.472 
" style="fill: none; stroke: #000000; stroke-width: 0.8; stroke-linejoin: miter; stroke-linecap: square"/>
   </g>
   <g id="text_16">
    <!-- Change in rotation components for rotating  head sideways starting from centre moving right -->
    <g transform="translate(-115.209141 35.472)scale(0.15 -0.15)">
     <defs>
      <path id="DejaVuSans-43" d="M 4122 4306 
L 4122 3641 
Q 3803 3938 3442 4084 
Q 3081 4231 2675 4231 
Q 1875 4231 1450 3742 
Q 1025 3253 1025 2328 
Q 1025 1406 1450 917 
Q 1875 428 2675 428 
Q 3081 428 3442 575 
Q 3803 722 4122 1019 
L 4122 359 
Q 3791 134 3420 21 
Q 3050 -91 2638 -91 
Q 1578 -91 968 557 
Q 359 1206 359 2328 
Q 359 3453 968 4101 
Q 1578 4750 2638 4750 
Q 3056 4750 3426 4639 
Q 3797 4528 4122 4306 
z
" transform="scale(0.015625)"/>
      <path id="DejaVuSans-68" d="M 3513 2113 
L 3513 0 
L 2938 0 
L 2938 2094 
Q 2938 2591 2744 2837 
Q 2550 3084 2163 3084 
Q 1697 3084 1428 2787 
Q 1159 2491 1159 1978 
L 1159 0 
L 581 0 
L 581 4863 
L 1159 4863 
L 1159 2956 
Q 1366 3272 1645 3428 
Q 1925 3584 2291 3584 
Q 2894 3584 3203 3211 
Q 3513 2838 3513 2113 
z
" transform="scale(0.015625)"/>
      <path id="DejaVuSans-20" transform="scale(0.015625)"/>
      <path id="DejaVuSans-72" d="M 2631 2963 
Q 2534 3019 2420 3045 
Q 2306 3072 2169 3072 
Q 1681 3072 1420 2755 
Q 1159 2438 1159 1844 
L 1159 0 
L 581 0 
L 581 3500 
L 1159 3500 
L 1159 2956 
Q 1341 3275 1631 3429 
Q 1922 3584 2338 3584 
Q 2397 3584 2469 3576 
Q 2541 3569 2628 3553 
L 2631 2963 
z
" transform="scale(0.015625)"/>
      <path id="DejaVuSans-6f" d="M 1959 3097 
Q 1497 3097 1228 2736 
Q 959 2375 959 1747 
Q 959 1119 1226 758 
Q 1494 397 1959 397 
Q 2419 397 2687 759 
Q 2956 1122 2956 1747 
Q 2956 2369 2687 2733 
Q 2419 3097 1959 3097 
z
M 1959 3584 
Q 2709 3584 3137 3096 
Q 3566 2609 3566 1747 
Q 3566 888 3137 398 
Q 2709 -91 1959 -91 
Q 1206 -91 779 398 
Q 353 888 353 1747 
Q 353 2609 779 3096 
Q 1206 3584 1959 3584 
z
" transform="scale(0.015625)"/>
      <path id="DejaVuSans-63" d="M 3122 3366 
L 3122 2828 
Q 2878 2963 2633 3030 
Q 2388 3097 2138 3097 
Q 1578 3097 1268 2742 
Q 959 2388 959 1747 
Q 959 1106 1268 751 
Q 1578 397 2138 397 
Q 2388 397 2633 464 
Q 2878 531 3122 666 
L 3122 134 
Q 2881 22 2623 -34 
Q 2366 -91 2075 -91 
Q 1284 -91 818 406 
Q 353 903 353 1747 
Q 353 2603 823 3093 
Q 1294 3584 2113 3584 
Q 2378 3584 2631 3529 
Q 2884 3475 3122 3366 
z
" transform="scale(0.015625)"/>
      <path id="DejaVuSans-66" d="M 2375 4863 
L 2375 4384 
L 1825 4384 
Q 1516 4384 1395 4259 
Q 1275 4134 1275 3809 
L 1275 3500 
L 2222 3500 
L 2222 3053 
L 1275 3053 
L 1275 0 
L 697 0 
L 697 3053 
L 147 3053 
L 147 3500 
L 697 3500 
L 697 3744 
Q 697 4328 969 4595 
Q 1241 4863 1831 4863 
L 2375 4863 
z
" transform="scale(0.015625)"/>
      <path id="DejaVuSans-77" d="M 269 3500 
L 844 3500 
L 1563 769 
L 2278 3500 
L 2956 3500 
L 3675 769 
L 4391 3500 
L 4966 3500 
L 4050 0 
L 3372 0 
L 2619 2869 
L 1863 0 
L 1184 0 
L 269 3500 
z
" transform="scale(0.015625)"/>
      <path id="DejaVuSans-79" d="M 2059 -325 
Q 1816 -950 1584 -1140 
Q 1353 -1331 966 -1331 
L 506 -1331 
L 506 -850 
L 844 -850 
Q 1081 -850 1212 -737 
Q 1344 -625 1503 -206 
L 1606 56 
L 191 3500 
L 800 3500 
L 1894 763 
L 2988 3500 
L 3597 3500 
L 2059 -325 
z
" transform="scale(0.015625)"/>
      <path id="DejaVuSans-76" d="M 191 3500 
L 800 3500 
L 1894 563 
L 2988 3500 
L 3597 3500 
L 2284 0 
L 1503 0 
L 191 3500 
z
" transform="scale(0.015625)"/>
     </defs>
     <use xlink:href="#DejaVuSans-43"/>
     <use xlink:href="#DejaVuSans-68" x="69.824219"/>
     <use xlink:href="#DejaVuSans-61" x="133.203125"/>
     <use xlink:href="#DejaVuSans-6e" x="194.482422"/>
     <use xlink:href="#DejaVuSans-67" x="257.861328"/>
     <use xlink:href="#DejaVuSans-65" x="321.337891"/>
     <use xlink:href="#DejaVuSans-20" x="382.861328"/>
     <use xlink:href="#DejaVuSans-69" x="414.648438"/>
     <use xlink:href="#DejaVuSans-6e" x="442.431641"/>
     <use xlink:href="#DejaVuSans-20" x="505.810547"/>
     <use xlink:href="#DejaVuSans-72" x="537.597656"/>
     <use xlink:href="#DejaVuSans-6f" x="576.460938"/>
     <use xlink:href="#DejaVuSans-74" x="637.642578"/>
     <use xlink:href="#DejaVuSans-61" x="676.851562"/>
     <use xlink:href="#DejaVuSans-74" x="738.130859"/>
     <use xlink:href="#DejaVuSans-69" x="777.339844"/>
     <use xlink:href="#DejaVuSans-6f" x="805.123047"/>
     <use xlink:href="#DejaVuSans-6e" x="866.304688"/>
     <use xlink:href="#DejaVuSans-20" x="929.683594"/>
     <use xlink:href="#DejaVuSans-63" x="961.470703"/>
     <use xlink:href="#DejaVuSans-6f" x="1016.451172"/>
     <use xlink:href="#DejaVuSans-6d" x="1077.632812"/>
     <use xlink:href="#DejaVuSans-70" x="1175.044922"/>
     <use xlink:href="#DejaVuSans-6f" x="1238.521484"/>
     <use xlink:href="#DejaVuSans-6e" x="1299.703125"/>
     <use xlink:href="#DejaVuSans-65" x="1363.082031"/>
     <use xlink:href="#DejaVuSans-6e" x="1424.605469"/>
     <use xlink:href="#DejaVuSans-74" x="1487.984375"/>
     <use xlink:href="#DejaVuSans-73" x="1527.193359"/>
     <use xlink:href="#DejaVuSans-20" x="1579.292969"/>
     <use xlink:href="#DejaVuSans-66" x="1611.080078"/>
     <use xlink:href="#DejaVuSans-6f" x="1646.285156"/>
     <use xlink:href="#DejaVuSans-72" x="1707.466797"/>
     <use xlink:href="#DejaVuSans-20" x="1748.580078"/>
     <use xlink:href="#DejaVuSans-72" x="1780.367188"/>
     <use xlink:href="#DejaVuSans-6f" x="1819.230469"/>
     <use xlink:href="#DejaVuSans-74" x="1880.412109"/>
     <use xlink:href="#DejaVuSans-61" x="1919.621094"/>
     <use xlink:href="#DejaVuSans-74" x="1980.900391"/>
     <use xlink:href="#DejaVuSans-69" x="2020.109375"/>
     <use xlink:href="#DejaVuSans-6e" x="2047.892578"/>
     <use xlink:href="#DejaVuSans-67" x="2111.271484"/>
     <use xlink:href="#DejaVuSans-20" x="2174.748047"/>
     <use xlink:href="#DejaVuSans-20" x="2206.535156"/>
     <use xlink:href="#DejaVuSans-68" x="2238.322266"/>
     <use xlink:href="#DejaVuSans-65" x="2301.701172"/>
     <use xlink:href="#DejaVuSans-61" x="2363.224609"/>
     <use xlink:href="#DejaVuSans-64" x="2424.503906"/>
     <use xlink:href="#DejaVuSans-20" x="2487.980469"/>
     <use xlink:href="#DejaVuSans-73" x="2519.767578"/>
     <use xlink:href="#DejaVuSans-69" x="2571.867188"/>
     <use xlink:href="#DejaVuSans-64" x="2599.650391"/>
     <use xlink:href="#DejaVuSans-65" x="2663.126953"/>
     <use xlink:href="#DejaVuSans-77" x="2724.650391"/>
     <use xlink:href="#DejaVuSans-61" x="2806.4375"/>
     <use xlink:href="#DejaVuSans-79" x="2867.716797"/>
     <use xlink:href="#DejaVuSans-73" x="2926.896484"/>
     <use xlink:href="#DejaVuSans-20" x="2978.996094"/>
     <use xlink:href="#DejaVuSans-73" x="3010.783203"/>
     <use xlink:href="#DejaVuSans-74" x="3062.882812"/>
     <use xlink:href="#DejaVuSans-61" x="3102.091797"/>
     <use xlink:href="#DejaVuSans-72" x="3163.371094"/>
     <use xlink:href="#DejaVuSans-74" x="3204.484375"/>
     <use xlink:href="#DejaVuSans-69" x="3243.693359"/>
     <use xlink:href="#DejaVuSans-6e" x="3271.476562"/>
     <use xlink:href="#DejaVuSans-67" x="3334.855469"/>
     <use xlink:href="#DejaVuSans-20" x="3398.332031"/>
     <use xlink:href="#DejaVuSans-66" x="3430.119141"/>
     <use xlink:href="#DejaVuSans-72" x="3465.324219"/>
     <use xlink:href="#DejaVuSans-6f" x="3504.1875"/>
     <use xlink:href="#DejaVuSans-6d" x="3565.369141"/>
     <use xlink:href="#DejaVuSans-20" x="3662.78125"/>
     <use xlink:href="#DejaVuSans-63" x="3694.568359"/>
     <use xlink:href="#DejaVuSans-65" x="3749.548828"/>
     <use xlink:href="#DejaVuSans-6e" x="3811.072266"/>
     <use xlink:href="#DejaVuSans-74" x="3874.451172"/>
     <use xlink:href="#DejaVuSans-72" x="3913.660156"/>
     <use xlink:href="#DejaVuSans-65" x="3952.523438"/>
     <use xlink:href="#DejaVuSans-20" x="4014.046875"/>
     <use xlink:href="#DejaVuSans-6d" x="4045.833984"/>
     <use xlink:href="#DejaVuSans-6f" x="4143.246094"/>
     <use xlink:href="#DejaVuSans-76" x="4204.427734"/>
     <use xlink:href="#DejaVuSans-69" x="4263.607422"/>
     <use xlink:href="#DejaVuSans-6e" x="4291.390625"/>
     <use xlink:href="#DejaVuSans-67" x="4354.769531"/>
     <use xlink:href="#DejaVuSans-20" x="4418.246094"/>
     <use xlink:href="#DejaVuSans-72" x="4450.033203"/>
     <use xlink:href="#DejaVuSans-69" x="4491.146484"/>
     <use xlink:href="#DejaVuSans-67" x="4518.929688"/>
     <use xlink:href="#DejaVuSans-68" x="4582.40625"/>
     <use xlink:href="#DejaVuSans-74" x="4645.785156"/>
    </g>
   </g>
   <g id="legend_1">
    <g id="patch_7">
     <path d="M 64.6 198.045187 
L 121.185937 198.045187 
Q 123.185937 198.045187 123.185937 196.045187 
L 123.185937 153.010812 
Q 123.185937 151.010812 121.185937 151.010812 
L 64.6 151.010812 
Q 62.6 151.010812 62.6 153.010812 
L 62.6 196.045187 
Q 62.6 198.045187 64.6 198.045187 
z
" style="fill: #ffffff; opacity: 0.8; stroke: #cccccc; stroke-linejoin: miter"/>
    </g>
    <g id="line2d_17">
     <path d="M 66.6 159.10925 
L 76.6 159.10925 
L 86.6 159.10925 
" style="fill: none; stroke: #1f77b4; stroke-width: 1.5; stroke-linecap: square"/>
    </g>
    <g id="text_17">
     <!-- idx 0 -->
     <g transform="translate(94.6 162.60925)scale(0.1 -0.1)">
      <defs>
       <path id="DejaVuSans-78" d="M 3513 3500 
L 2247 1797 
L 3578 0 
L 2900 0 
L 1881 1375 
L 863 0 
L 184 0 
L 1544 1831 
L 300 3500 
L 978 3500 
L 1906 2253 
L 2834 3500 
L 3513 3500 
z
" transform="scale(0.015625)"/>
      </defs>
      <use xlink:href="#DejaVuSans-69"/>
      <use xlink:href="#DejaVuSans-64" x="27.783203"/>
      <use xlink:href="#DejaVuSans-78" x="91.259766"/>
      <use xlink:href="#DejaVuSans-20" x="150.439453"/>
      <use xlink:href="#DejaVuSans-30" x="182.226562"/>
     </g>
    </g>
    <g id="line2d_18">
     <path d="M 66.6 173.787375 
L 76.6 173.787375 
L 86.6 173.787375 
" style="fill: none; stroke: #ff7f0e; stroke-width: 1.5; stroke-linecap: square"/>
    </g>
    <g id="text_18">
     <!-- idx 1 -->
     <g transform="translate(94.6 177.287375)scale(0.1 -0.1)">
      <use xlink:href="#DejaVuSans-69"/>
      <use xlink:href="#DejaVuSans-64" x="27.783203"/>
      <use xlink:href="#DejaVuSans-78" x="91.259766"/>
      <use xlink:href="#DejaVuSans-20" x="150.439453"/>
      <use xlink:href="#DejaVuSans-31" x="182.226562"/>
     </g>
    </g>
    <g id="line2d_19">
     <path d="M 66.6 188.4655 
L 76.6 188.4655 
L 86.6 188.4655 
" style="fill: none; stroke: #2ca02c; stroke-width: 1.5; stroke-linecap: square"/>
    </g>
    <g id="text_19">
     <!-- idx 2 -->
     <g transform="translate(94.6 191.9655)scale(0.1 -0.1)">
      <use xlink:href="#DejaVuSans-69"/>
      <use xlink:href="#DejaVuSans-64" x="27.783203"/>
      <use xlink:href="#DejaVuSans-78" x="91.259766"/>
      <use xlink:href="#DejaVuSans-20" x="150.439453"/>
      <use xlink:href="#DejaVuSans-32" x="182.226562"/>
     </g>
    </g>
   </g>
  </g>
 </g>
 <defs>
  <clipPath id="pe0251de3ef">
   <rect x="57.6" y="41.472" width="357.12" height="266.112"/>
  </clipPath>
 </defs>
</svg>
