<?xml version="1.0" encoding="utf-8" standalone="no"?>
<!DOCTYPE svg PUBLIC "-//W3C//DTD SVG 1.1//EN"
  "http://www.w3.org/Graphics/SVG/1.1/DTD/svg11.dtd">
<svg xmlns:xlink="http://www.w3.org/1999/xlink" width="460.8pt" height="345.6pt" viewBox="0 0 460.8 345.6" xmlns="http://www.w3.org/2000/svg" version="1.1">
 <metadata>
  <rdf:RDF xmlns:dc="http://purl.org/dc/elements/1.1/" xmlns:cc="http://creativecommons.org/ns#" xmlns:rdf="http://www.w3.org/1999/02/22-rdf-syntax-ns#">
   <cc:Work>
    <dc:type rdf:resource="http://purl.org/dc/dcmitype/StillImage"/>
    <dc:date>2024-01-30T14:11:32.508708</dc:date>
    <dc:format>image/svg+xml</dc:format>
    <dc:creator>
     <cc:Agent>
      <dc:title>Matplotlib v3.5.0, https://matplotlib.org/</dc:title>
     </cc:Agent>
    </dc:creator>
   </cc:Work>
  </rdf:RDF>
 </metadata>
 <defs>
  <style type="text/css">*{stroke-linejoin: round; stroke-linecap: butt}</style>
 </defs>
 <g id="figure_1">
  <g id="patch_1">
   <path d="M 0 345.6 
L 460.8 345.6 
L 460.8 0 
L 0 0 
z
" style="fill: #ffffff"/>
  </g>
  <g id="axes_1">
   <g id="patch_2">
    <path d="M 57.6 307.584 
L 414.72 307.584 
L 414.72 41.472 
L 57.6 41.472 
z
" style="fill: #ffffff"/>
   </g>
   <g id="matplotlib.axis_1">
    <g id="xtick_1">
     <g id="line2d_1">
      <defs>
       <path id="m9d89d3b06b" d="M 0 0 
L 0 3.5 
" style="stroke: #000000; stroke-width: 0.8"/>
      </defs>
      <g>
       <use xlink:href="#m9d89d3b06b" x="73.832727" y="307.584" style="stroke: #000000; stroke-width: 0.8"/>
      </g>
     </g>
     <g id="text_1">
      <!-- 0 -->
      <g transform="translate(70.651477 322.182437)scale(0.1 -0.1)">
       <defs>
        <path id="DejaVuSans-30" d="M 2034 4250 
Q 1547 4250 1301 3770 
Q 1056 3291 1056 2328 
Q 1056 1369 1301 889 
Q 1547 409 2034 409 
Q 2525 409 2770 889 
Q 3016 1369 3016 2328 
Q 3016 3291 2770 3770 
Q 2525 4250 2034 4250 
z
M 2034 4750 
Q 2819 4750 3233 4129 
Q 3647 3509 3647 2328 
Q 3647 1150 3233 529 
Q 2819 -91 2034 -91 
Q 1250 -91 836 529 
Q 422 1150 422 2328 
Q 422 3509 836 4129 
Q 1250 4750 2034 4750 
z
" transform="scale(0.015625)"/>
       </defs>
       <use xlink:href="#DejaVuSans-30"/>
      </g>
     </g>
    </g>
    <g id="xtick_2">
     <g id="line2d_2">
      <g>
       <use xlink:href="#m9d89d3b06b" x="138.828632" y="307.584" style="stroke: #000000; stroke-width: 0.8"/>
      </g>
     </g>
     <g id="text_2">
      <!-- 200 -->
      <g transform="translate(129.284882 322.182437)scale(0.1 -0.1)">
       <defs>
        <path id="DejaVuSans-32" d="M 1228 531 
L 3431 531 
L 3431 0 
L 469 0 
L 469 531 
Q 828 903 1448 1529 
Q 2069 2156 2228 2338 
Q 2531 2678 2651 2914 
Q 2772 3150 2772 3378 
Q 2772 3750 2511 3984 
Q 2250 4219 1831 4219 
Q 1534 4219 1204 4116 
Q 875 4013 500 3803 
L 500 4441 
Q 881 4594 1212 4672 
Q 1544 4750 1819 4750 
Q 2544 4750 2975 4387 
Q 3406 4025 3406 3419 
Q 3406 3131 3298 2873 
Q 3191 2616 2906 2266 
Q 2828 2175 2409 1742 
Q 1991 1309 1228 531 
z
" transform="scale(0.015625)"/>
       </defs>
       <use xlink:href="#DejaVuSans-32"/>
       <use xlink:href="#DejaVuSans-30" x="63.623047"/>
       <use xlink:href="#DejaVuSans-30" x="127.246094"/>
      </g>
     </g>
    </g>
    <g id="xtick_3">
     <g id="line2d_3">
      <g>
       <use xlink:href="#m9d89d3b06b" x="203.824537" y="307.584" style="stroke: #000000; stroke-width: 0.8"/>
      </g>
     </g>
     <g id="text_3">
      <!-- 400 -->
      <g transform="translate(194.280787 322.182437)scale(0.1 -0.1)">
       <defs>
        <path id="DejaVuSans-34" d="M 2419 4116 
L 825 1625 
L 2419 1625 
L 2419 4116 
z
M 2253 4666 
L 3047 4666 
L 3047 1625 
L 3713 1625 
L 3713 1100 
L 3047 1100 
L 3047 0 
L 2419 0 
L 2419 1100 
L 313 1100 
L 313 1709 
L 2253 4666 
z
" transform="scale(0.015625)"/>
       </defs>
       <use xlink:href="#DejaVuSans-34"/>
       <use xlink:href="#DejaVuSans-30" x="63.623047"/>
       <use xlink:href="#DejaVuSans-30" x="127.246094"/>
      </g>
     </g>
    </g>
    <g id="xtick_4">
     <g id="line2d_4">
      <g>
       <use xlink:href="#m9d89d3b06b" x="268.820442" y="307.584" style="stroke: #000000; stroke-width: 0.8"/>
      </g>
     </g>
     <g id="text_4">
      <!-- 600 -->
      <g transform="translate(259.276692 322.182437)scale(0.1 -0.1)">
       <defs>
        <path id="DejaVuSans-36" d="M 2113 2584 
Q 1688 2584 1439 2293 
Q 1191 2003 1191 1497 
Q 1191 994 1439 701 
Q 1688 409 2113 409 
Q 2538 409 2786 701 
Q 3034 994 3034 1497 
Q 3034 2003 2786 2293 
Q 2538 2584 2113 2584 
z
M 3366 4563 
L 3366 3988 
Q 3128 4100 2886 4159 
Q 2644 4219 2406 4219 
Q 1781 4219 1451 3797 
Q 1122 3375 1075 2522 
Q 1259 2794 1537 2939 
Q 1816 3084 2150 3084 
Q 2853 3084 3261 2657 
Q 3669 2231 3669 1497 
Q 3669 778 3244 343 
Q 2819 -91 2113 -91 
Q 1303 -91 875 529 
Q 447 1150 447 2328 
Q 447 3434 972 4092 
Q 1497 4750 2381 4750 
Q 2619 4750 2861 4703 
Q 3103 4656 3366 4563 
z
" transform="scale(0.015625)"/>
       </defs>
       <use xlink:href="#DejaVuSans-36"/>
       <use xlink:href="#DejaVuSans-30" x="63.623047"/>
       <use xlink:href="#DejaVuSans-30" x="127.246094"/>
      </g>
     </g>
    </g>
    <g id="xtick_5">
     <g id="line2d_5">
      <g>
       <use xlink:href="#m9d89d3b06b" x="333.816347" y="307.584" style="stroke: #000000; stroke-width: 0.8"/>
      </g>
     </g>
     <g id="text_5">
      <!-- 800 -->
      <g transform="translate(324.272597 322.182437)scale(0.1 -0.1)">
       <defs>
        <path id="DejaVuSans-38" d="M 2034 2216 
Q 1584 2216 1326 1975 
Q 1069 1734 1069 1313 
Q 1069 891 1326 650 
Q 1584 409 2034 409 
Q 2484 409 2743 651 
Q 3003 894 3003 1313 
Q 3003 1734 2745 1975 
Q 2488 2216 2034 2216 
z
M 1403 2484 
Q 997 2584 770 2862 
Q 544 3141 544 3541 
Q 544 4100 942 4425 
Q 1341 4750 2034 4750 
Q 2731 4750 3128 4425 
Q 3525 4100 3525 3541 
Q 3525 3141 3298 2862 
Q 3072 2584 2669 2484 
Q 3125 2378 3379 2068 
Q 3634 1759 3634 1313 
Q 3634 634 3220 271 
Q 2806 -91 2034 -91 
Q 1263 -91 848 271 
Q 434 634 434 1313 
Q 434 1759 690 2068 
Q 947 2378 1403 2484 
z
M 1172 3481 
Q 1172 3119 1398 2916 
Q 1625 2713 2034 2713 
Q 2441 2713 2670 2916 
Q 2900 3119 2900 3481 
Q 2900 3844 2670 4047 
Q 2441 4250 2034 4250 
Q 1625 4250 1398 4047 
Q 1172 3844 1172 3481 
z
" transform="scale(0.015625)"/>
       </defs>
       <use xlink:href="#DejaVuSans-38"/>
       <use xlink:href="#DejaVuSans-30" x="63.623047"/>
       <use xlink:href="#DejaVuSans-30" x="127.246094"/>
      </g>
     </g>
    </g>
    <g id="xtick_6">
     <g id="line2d_6">
      <g>
       <use xlink:href="#m9d89d3b06b" x="398.812252" y="307.584" style="stroke: #000000; stroke-width: 0.8"/>
      </g>
     </g>
     <g id="text_6">
      <!-- 1000 -->
      <g transform="translate(386.087252 322.182437)scale(0.1 -0.1)">
       <defs>
        <path id="DejaVuSans-31" d="M 794 531 
L 1825 531 
L 1825 4091 
L 703 3866 
L 703 4441 
L 1819 4666 
L 2450 4666 
L 2450 531 
L 3481 531 
L 3481 0 
L 794 0 
L 794 531 
z
" transform="scale(0.015625)"/>
       </defs>
       <use xlink:href="#DejaVuSans-31"/>
       <use xlink:href="#DejaVuSans-30" x="63.623047"/>
       <use xlink:href="#DejaVuSans-30" x="127.246094"/>
       <use xlink:href="#DejaVuSans-30" x="190.869141"/>
      </g>
     </g>
    </g>
    <g id="text_7">
     <!-- Timestamps -->
     <g transform="translate(190.392422 339.659781)scale(0.15 -0.15)">
      <defs>
       <path id="DejaVuSans-54" d="M -19 4666 
L 3928 4666 
L 3928 4134 
L 2272 4134 
L 2272 0 
L 1638 0 
L 1638 4134 
L -19 4134 
L -19 4666 
z
" transform="scale(0.015625)"/>
       <path id="DejaVuSans-69" d="M 603 3500 
L 1178 3500 
L 1178 0 
L 603 0 
L 603 3500 
z
M 603 4863 
L 1178 4863 
L 1178 4134 
L 603 4134 
L 603 4863 
z
" transform="scale(0.015625)"/>
       <path id="DejaVuSans-6d" d="M 3328 2828 
Q 3544 3216 3844 3400 
Q 4144 3584 4550 3584 
Q 5097 3584 5394 3201 
Q 5691 2819 5691 2113 
L 5691 0 
L 5113 0 
L 5113 2094 
Q 5113 2597 4934 2840 
Q 4756 3084 4391 3084 
Q 3944 3084 3684 2787 
Q 3425 2491 3425 1978 
L 3425 0 
L 2847 0 
L 2847 2094 
Q 2847 2600 2669 2842 
Q 2491 3084 2119 3084 
Q 1678 3084 1418 2786 
Q 1159 2488 1159 1978 
L 1159 0 
L 581 0 
L 581 3500 
L 1159 3500 
L 1159 2956 
Q 1356 3278 1631 3431 
Q 1906 3584 2284 3584 
Q 2666 3584 2933 3390 
Q 3200 3197 3328 2828 
z
" transform="scale(0.015625)"/>
       <path id="DejaVuSans-65" d="M 3597 1894 
L 3597 1613 
L 953 1613 
Q 991 1019 1311 708 
Q 1631 397 2203 397 
Q 2534 397 2845 478 
Q 3156 559 3463 722 
L 3463 178 
Q 3153 47 2828 -22 
Q 2503 -91 2169 -91 
Q 1331 -91 842 396 
Q 353 884 353 1716 
Q 353 2575 817 3079 
Q 1281 3584 2069 3584 
Q 2775 3584 3186 3129 
Q 3597 2675 3597 1894 
z
M 3022 2063 
Q 3016 2534 2758 2815 
Q 2500 3097 2075 3097 
Q 1594 3097 1305 2825 
Q 1016 2553 972 2059 
L 3022 2063 
z
" transform="scale(0.015625)"/>
       <path id="DejaVuSans-73" d="M 2834 3397 
L 2834 2853 
Q 2591 2978 2328 3040 
Q 2066 3103 1784 3103 
Q 1356 3103 1142 2972 
Q 928 2841 928 2578 
Q 928 2378 1081 2264 
Q 1234 2150 1697 2047 
L 1894 2003 
Q 2506 1872 2764 1633 
Q 3022 1394 3022 966 
Q 3022 478 2636 193 
Q 2250 -91 1575 -91 
Q 1294 -91 989 -36 
Q 684 19 347 128 
L 347 722 
Q 666 556 975 473 
Q 1284 391 1588 391 
Q 1994 391 2212 530 
Q 2431 669 2431 922 
Q 2431 1156 2273 1281 
Q 2116 1406 1581 1522 
L 1381 1569 
Q 847 1681 609 1914 
Q 372 2147 372 2553 
Q 372 3047 722 3315 
Q 1072 3584 1716 3584 
Q 2034 3584 2315 3537 
Q 2597 3491 2834 3397 
z
" transform="scale(0.015625)"/>
       <path id="DejaVuSans-74" d="M 1172 4494 
L 1172 3500 
L 2356 3500 
L 2356 3053 
L 1172 3053 
L 1172 1153 
Q 1172 725 1289 603 
Q 1406 481 1766 481 
L 2356 481 
L 2356 0 
L 1766 0 
Q 1100 0 847 248 
Q 594 497 594 1153 
L 594 3053 
L 172 3053 
L 172 3500 
L 594 3500 
L 594 4494 
L 1172 4494 
z
" transform="scale(0.015625)"/>
       <path id="DejaVuSans-61" d="M 2194 1759 
Q 1497 1759 1228 1600 
Q 959 1441 959 1056 
Q 959 750 1161 570 
Q 1363 391 1709 391 
Q 2188 391 2477 730 
Q 2766 1069 2766 1631 
L 2766 1759 
L 2194 1759 
z
M 3341 1997 
L 3341 0 
L 2766 0 
L 2766 531 
Q 2569 213 2275 61 
Q 1981 -91 1556 -91 
Q 1019 -91 701 211 
Q 384 513 384 1019 
Q 384 1609 779 1909 
Q 1175 2209 1959 2209 
L 2766 2209 
L 2766 2266 
Q 2766 2663 2505 2880 
Q 2244 3097 1772 3097 
Q 1472 3097 1187 3025 
Q 903 2953 641 2809 
L 641 3341 
Q 956 3463 1253 3523 
Q 1550 3584 1831 3584 
Q 2591 3584 2966 3190 
Q 3341 2797 3341 1997 
z
" transform="scale(0.015625)"/>
       <path id="DejaVuSans-70" d="M 1159 525 
L 1159 -1331 
L 581 -1331 
L 581 3500 
L 1159 3500 
L 1159 2969 
Q 1341 3281 1617 3432 
Q 1894 3584 2278 3584 
Q 2916 3584 3314 3078 
Q 3713 2572 3713 1747 
Q 3713 922 3314 415 
Q 2916 -91 2278 -91 
Q 1894 -91 1617 61 
Q 1341 213 1159 525 
z
M 3116 1747 
Q 3116 2381 2855 2742 
Q 2594 3103 2138 3103 
Q 1681 3103 1420 2742 
Q 1159 2381 1159 1747 
Q 1159 1113 1420 752 
Q 1681 391 2138 391 
Q 2594 391 2855 752 
Q 3116 1113 3116 1747 
z
" transform="scale(0.015625)"/>
      </defs>
      <use xlink:href="#DejaVuSans-54"/>
      <use xlink:href="#DejaVuSans-69" x="57.958984"/>
      <use xlink:href="#DejaVuSans-6d" x="85.742188"/>
      <use xlink:href="#DejaVuSans-65" x="183.154297"/>
      <use xlink:href="#DejaVuSans-73" x="244.677734"/>
      <use xlink:href="#DejaVuSans-74" x="296.777344"/>
      <use xlink:href="#DejaVuSans-61" x="335.986328"/>
      <use xlink:href="#DejaVuSans-6d" x="397.265625"/>
      <use xlink:href="#DejaVuSans-70" x="494.677734"/>
      <use xlink:href="#DejaVuSans-73" x="558.154297"/>
     </g>
    </g>
   </g>
   <g id="matplotlib.axis_2">
    <g id="ytick_1">
     <g id="line2d_7">
      <defs>
       <path id="m496b8f4d9f" d="M 0 0 
L -3.5 0 
" style="stroke: #000000; stroke-width: 0.8"/>
      </defs>
      <g>
       <use xlink:href="#m496b8f4d9f" x="57.6" y="300.389241" style="stroke: #000000; stroke-width: 0.8"/>
      </g>
     </g>
     <g id="text_8">
      <!-- −1.00 -->
      <g transform="translate(19.954687 304.18846)scale(0.1 -0.1)">
       <defs>
        <path id="DejaVuSans-2212" d="M 678 2272 
L 4684 2272 
L 4684 1741 
L 678 1741 
L 678 2272 
z
" transform="scale(0.015625)"/>
        <path id="DejaVuSans-2e" d="M 684 794 
L 1344 794 
L 1344 0 
L 684 0 
L 684 794 
z
" transform="scale(0.015625)"/>
       </defs>
       <use xlink:href="#DejaVuSans-2212"/>
       <use xlink:href="#DejaVuSans-31" x="83.789062"/>
       <use xlink:href="#DejaVuSans-2e" x="147.412109"/>
       <use xlink:href="#DejaVuSans-30" x="179.199219"/>
       <use xlink:href="#DejaVuSans-30" x="242.822266"/>
      </g>
     </g>
    </g>
    <g id="ytick_2">
     <g id="line2d_8">
      <g>
       <use xlink:href="#m496b8f4d9f" x="57.6" y="265.634841" style="stroke: #000000; stroke-width: 0.8"/>
      </g>
     </g>
     <g id="text_9">
      <!-- −0.75 -->
      <g transform="translate(19.954687 269.43406)scale(0.1 -0.1)">
       <defs>
        <path id="DejaVuSans-37" d="M 525 4666 
L 3525 4666 
L 3525 4397 
L 1831 0 
L 1172 0 
L 2766 4134 
L 525 4134 
L 525 4666 
z
" transform="scale(0.015625)"/>
        <path id="DejaVuSans-35" d="M 691 4666 
L 3169 4666 
L 3169 4134 
L 1269 4134 
L 1269 2991 
Q 1406 3038 1543 3061 
Q 1681 3084 1819 3084 
Q 2600 3084 3056 2656 
Q 3513 2228 3513 1497 
Q 3513 744 3044 326 
Q 2575 -91 1722 -91 
Q 1428 -91 1123 -41 
Q 819 9 494 109 
L 494 744 
Q 775 591 1075 516 
Q 1375 441 1709 441 
Q 2250 441 2565 725 
Q 2881 1009 2881 1497 
Q 2881 1984 2565 2268 
Q 2250 2553 1709 2553 
Q 1456 2553 1204 2497 
Q 953 2441 691 2322 
L 691 4666 
z
" transform="scale(0.015625)"/>
       </defs>
       <use xlink:href="#DejaVuSans-2212"/>
       <use xlink:href="#DejaVuSans-30" x="83.789062"/>
       <use xlink:href="#DejaVuSans-2e" x="147.412109"/>
       <use xlink:href="#DejaVuSans-37" x="179.199219"/>
       <use xlink:href="#DejaVuSans-35" x="242.822266"/>
      </g>
     </g>
    </g>
    <g id="ytick_3">
     <g id="line2d_9">
      <g>
       <use xlink:href="#m496b8f4d9f" x="57.6" y="230.880441" style="stroke: #000000; stroke-width: 0.8"/>
      </g>
     </g>
     <g id="text_10">
      <!-- −0.50 -->
      <g transform="translate(19.954687 234.679659)scale(0.1 -0.1)">
       <use xlink:href="#DejaVuSans-2212"/>
       <use xlink:href="#DejaVuSans-30" x="83.789062"/>
       <use xlink:href="#DejaVuSans-2e" x="147.412109"/>
       <use xlink:href="#DejaVuSans-35" x="179.199219"/>
       <use xlink:href="#DejaVuSans-30" x="242.822266"/>
      </g>
     </g>
    </g>
    <g id="ytick_4">
     <g id="line2d_10">
      <g>
       <use xlink:href="#m496b8f4d9f" x="57.6" y="196.12604" style="stroke: #000000; stroke-width: 0.8"/>
      </g>
     </g>
     <g id="text_11">
      <!-- −0.25 -->
      <g transform="translate(19.954687 199.925259)scale(0.1 -0.1)">
       <use xlink:href="#DejaVuSans-2212"/>
       <use xlink:href="#DejaVuSans-30" x="83.789062"/>
       <use xlink:href="#DejaVuSans-2e" x="147.412109"/>
       <use xlink:href="#DejaVuSans-32" x="179.199219"/>
       <use xlink:href="#DejaVuSans-35" x="242.822266"/>
      </g>
     </g>
    </g>
    <g id="ytick_5">
     <g id="line2d_11">
      <g>
       <use xlink:href="#m496b8f4d9f" x="57.6" y="161.37164" style="stroke: #000000; stroke-width: 0.8"/>
      </g>
     </g>
     <g id="text_12">
      <!-- 0.00 -->
      <g transform="translate(28.334375 165.170859)scale(0.1 -0.1)">
       <use xlink:href="#DejaVuSans-30"/>
       <use xlink:href="#DejaVuSans-2e" x="63.623047"/>
       <use xlink:href="#DejaVuSans-30" x="95.410156"/>
       <use xlink:href="#DejaVuSans-30" x="159.033203"/>
      </g>
     </g>
    </g>
    <g id="ytick_6">
     <g id="line2d_12">
      <g>
       <use xlink:href="#m496b8f4d9f" x="57.6" y="126.61724" style="stroke: #000000; stroke-width: 0.8"/>
      </g>
     </g>
     <g id="text_13">
      <!-- 0.25 -->
      <g transform="translate(28.334375 130.416458)scale(0.1 -0.1)">
       <use xlink:href="#DejaVuSans-30"/>
       <use xlink:href="#DejaVuSans-2e" x="63.623047"/>
       <use xlink:href="#DejaVuSans-32" x="95.410156"/>
       <use xlink:href="#DejaVuSans-35" x="159.033203"/>
      </g>
     </g>
    </g>
    <g id="ytick_7">
     <g id="line2d_13">
      <g>
       <use xlink:href="#m496b8f4d9f" x="57.6" y="91.862839" style="stroke: #000000; stroke-width: 0.8"/>
      </g>
     </g>
     <g id="text_14">
      <!-- 0.50 -->
      <g transform="translate(28.334375 95.662058)scale(0.1 -0.1)">
       <use xlink:href="#DejaVuSans-30"/>
       <use xlink:href="#DejaVuSans-2e" x="63.623047"/>
       <use xlink:href="#DejaVuSans-35" x="95.410156"/>
       <use xlink:href="#DejaVuSans-30" x="159.033203"/>
      </g>
     </g>
    </g>
    <g id="ytick_8">
     <g id="line2d_14">
      <g>
       <use xlink:href="#m496b8f4d9f" x="57.6" y="57.108439" style="stroke: #000000; stroke-width: 0.8"/>
      </g>
     </g>
     <g id="text_15">
      <!-- 0.75 -->
      <g transform="translate(28.334375 60.907658)scale(0.1 -0.1)">
       <use xlink:href="#DejaVuSans-30"/>
       <use xlink:href="#DejaVuSans-2e" x="63.623047"/>
       <use xlink:href="#DejaVuSans-37" x="95.410156"/>
       <use xlink:href="#DejaVuSans-35" x="159.033203"/>
      </g>
     </g>
    </g>
    <g id="text_16">
     <!-- Magnitude -->
     <g transform="translate(12.835156 214.262766)rotate(-90)scale(0.15 -0.15)">
      <defs>
       <path id="DejaVuSans-4d" d="M 628 4666 
L 1569 4666 
L 2759 1491 
L 3956 4666 
L 4897 4666 
L 4897 0 
L 4281 0 
L 4281 4097 
L 3078 897 
L 2444 897 
L 1241 4097 
L 1241 0 
L 628 0 
L 628 4666 
z
" transform="scale(0.015625)"/>
       <path id="DejaVuSans-67" d="M 2906 1791 
Q 2906 2416 2648 2759 
Q 2391 3103 1925 3103 
Q 1463 3103 1205 2759 
Q 947 2416 947 1791 
Q 947 1169 1205 825 
Q 1463 481 1925 481 
Q 2391 481 2648 825 
Q 2906 1169 2906 1791 
z
M 3481 434 
Q 3481 -459 3084 -895 
Q 2688 -1331 1869 -1331 
Q 1566 -1331 1297 -1286 
Q 1028 -1241 775 -1147 
L 775 -588 
Q 1028 -725 1275 -790 
Q 1522 -856 1778 -856 
Q 2344 -856 2625 -561 
Q 2906 -266 2906 331 
L 2906 616 
Q 2728 306 2450 153 
Q 2172 0 1784 0 
Q 1141 0 747 490 
Q 353 981 353 1791 
Q 353 2603 747 3093 
Q 1141 3584 1784 3584 
Q 2172 3584 2450 3431 
Q 2728 3278 2906 2969 
L 2906 3500 
L 3481 3500 
L 3481 434 
z
" transform="scale(0.015625)"/>
       <path id="DejaVuSans-6e" d="M 3513 2113 
L 3513 0 
L 2938 0 
L 2938 2094 
Q 2938 2591 2744 2837 
Q 2550 3084 2163 3084 
Q 1697 3084 1428 2787 
Q 1159 2491 1159 1978 
L 1159 0 
L 581 0 
L 581 3500 
L 1159 3500 
L 1159 2956 
Q 1366 3272 1645 3428 
Q 1925 3584 2291 3584 
Q 2894 3584 3203 3211 
Q 3513 2838 3513 2113 
z
" transform="scale(0.015625)"/>
       <path id="DejaVuSans-75" d="M 544 1381 
L 544 3500 
L 1119 3500 
L 1119 1403 
Q 1119 906 1312 657 
Q 1506 409 1894 409 
Q 2359 409 2629 706 
Q 2900 1003 2900 1516 
L 2900 3500 
L 3475 3500 
L 3475 0 
L 2900 0 
L 2900 538 
Q 2691 219 2414 64 
Q 2138 -91 1772 -91 
Q 1169 -91 856 284 
Q 544 659 544 1381 
z
M 1991 3584 
L 1991 3584 
z
" transform="scale(0.015625)"/>
       <path id="DejaVuSans-64" d="M 2906 2969 
L 2906 4863 
L 3481 4863 
L 3481 0 
L 2906 0 
L 2906 525 
Q 2725 213 2448 61 
Q 2172 -91 1784 -91 
Q 1150 -91 751 415 
Q 353 922 353 1747 
Q 353 2572 751 3078 
Q 1150 3584 1784 3584 
Q 2172 3584 2448 3432 
Q 2725 3281 2906 2969 
z
M 947 1747 
Q 947 1113 1208 752 
Q 1469 391 1925 391 
Q 2381 391 2643 752 
Q 2906 1113 2906 1747 
Q 2906 2381 2643 2742 
Q 2381 3103 1925 3103 
Q 1469 3103 1208 2742 
Q 947 2381 947 1747 
z
" transform="scale(0.015625)"/>
      </defs>
      <use xlink:href="#DejaVuSans-4d"/>
      <use xlink:href="#DejaVuSans-61" x="86.279297"/>
      <use xlink:href="#DejaVuSans-67" x="147.558594"/>
      <use xlink:href="#DejaVuSans-6e" x="211.035156"/>
      <use xlink:href="#DejaVuSans-69" x="274.414062"/>
      <use xlink:href="#DejaVuSans-74" x="302.197266"/>
      <use xlink:href="#DejaVuSans-75" x="341.40625"/>
      <use xlink:href="#DejaVuSans-64" x="404.785156"/>
      <use xlink:href="#DejaVuSans-65" x="468.261719"/>
     </g>
    </g>
   </g>
   <g id="line2d_15">
    <path d="M 73.832727 260.474995 
L 75.457625 260.18117 
L 76.757543 259.976417 
L 83.257133 259.433445 
L 93.656478 259.037381 
L 96.256314 258.798184 
L 100.156069 258.630554 
L 101.780966 258.838849 
L 102.430925 259.142072 
L 103.080885 259.845105 
L 103.730844 260.891665 
L 104.380803 262.438707 
L 104.705782 264.159756 
L 105.355741 266.116448 
L 106.0057 268.701791 
L 106.980639 273.891215 
L 107.305618 278.0171 
L 108.930516 287.438603 
L 109.580475 289.473445 
L 110.230434 290.59065 
L 110.555414 291.684886 
L 111.855332 293.813599 
L 112.505291 294.534952 
L 113.15525 294.935925 
L 115.430106 295.488 
L 116.405045 295.259905 
L 117.055004 294.945786 
L 118.354922 292.925058 
L 119.004881 290.663678 
L 119.329861 288.93806 
L 119.97982 280.093904 
L 120.629779 275.274163 
L 120.954758 270.811722 
L 121.604717 265.308349 
L 121.929697 260.627217 
L 122.254676 257.601418 
L 122.579656 250.635185 
L 122.904636 248.105428 
L 123.879574 246.204803 
L 124.854513 244.6826 
L 125.504472 244.449981 
L 126.154431 244.445929 
L 126.47941 244.442231 
L 127.779328 243.692923 
L 128.429287 243.688249 
L 128.754267 244.10307 
L 129.729206 244.235212 
L 131.354103 244.405227 
L 132.329042 244.528534 
L 136.228796 244.688118 
L 137.528714 244.977889 
L 137.853694 245.241836 
L 138.178673 245.241836 
L 138.828632 245.84725 
L 139.478591 246.356657 
L 140.45353 247.319075 
L 140.778509 248.322374 
L 141.103489 248.322374 
L 141.753448 251.84678 
L 142.728387 256.641454 
L 143.053366 260.859938 
L 144.353284 272.185426 
L 144.678264 275.198835 
L 145.003243 280.424885 
L 145.653202 284.099993 
L 146.303161 286.126637 
L 146.95312 287.348038 
L 147.2781 288.388135 
L 148.578018 290.353257 
L 149.552957 291.308784 
L 150.527895 291.394806 
L 152.802752 291.511667 
L 153.452711 291.283398 
L 154.10267 290.704149 
L 155.077609 289.177205 
L 155.727568 288.206837 
L 156.702506 286.903402 
L 157.027486 286.148164 
L 157.352465 285.065064 
L 157.677445 281.60376 
L 158.652383 275.845062 
L 159.302342 273.208337 
L 159.952301 271.547282 
L 160.60226 270.205796 
L 161.252219 268.072763 
L 161.577199 266.522053 
L 161.902179 262.474218 
L 162.552138 257.201807 
L 162.877117 253.331236 
L 164.177035 246.7935 
L 164.502015 245.354675 
L 164.826994 243.168887 
L 165.801933 239.801996 
L 166.126912 238.579193 
L 166.451892 236.312646 
L 166.776871 235.168267 
L 167.101851 235.684642 
L 167.42683 236.4905 
L 167.75181 236.521056 
L 168.07679 236.293093 
L 169.376708 234.27702 
L 170.026667 234.514295 
L 171.326585 235.354441 
L 171.976544 236.48928 
L 172.951482 238.201125 
L 173.601441 239.007229 
L 173.926421 239.332642 
L 174.2514 239.99945 
L 174.90136 240.458232 
L 175.226339 273.472563 
L 175.551319 277.057711 
L 175.876298 277.680422 
L 176.526257 278.201434 
L 176.851237 278.437134 
L 177.826175 278.437266 
L 179.776052 278.245434 
L 182.375889 278.511851 
L 183.675807 278.583302 
L 184.325766 278.705129 
L 187.575561 278.629704 
L 187.900541 276.713632 
L 188.22552 276.523689 
L 188.5505 275.074151 
L 188.875479 274.843052 
L 189.200459 274.875848 
L 189.850418 274.665832 
L 190.500377 274.73663 
L 191.150336 274.503089 
L 191.800295 273.934834 
L 192.125274 273.905609 
L 192.450254 274.038307 
L 193.100213 274.575687 
L 193.750172 275.166186 
L 194.400131 275.250927 
L 194.725111 275.337935 
L 195.700049 276.39583 
L 196.350008 277.047883 
L 197.324947 277.802081 
L 197.649926 278.121516 
L 197.974906 278.683098 
L 199.599803 280.140023 
L 199.924783 280.48649 
L 200.249762 281.16893 
L 202.524619 282.91595 
L 203.824537 283.331043 
L 204.799476 283.66411 
L 205.774414 283.926451 
L 207.074333 283.909035 
L 207.724292 284.0147 
L 208.69923 284.05701 
L 210.974087 284.004639 
L 214.548862 284.035492 
L 214.873841 283.929924 
L 215.84878 282.958273 
L 216.498739 282.574128 
L 217.473677 282.260975 
L 218.123636 281.451525 
L 218.448616 281.320768 
L 219.098575 279.994891 
L 219.423554 279.81496 
L 219.748534 279.251131 
L 220.073514 278.933654 
L 220.723473 278.74025 
L 221.373432 278.68002 
L 222.023391 278.499718 
L 222.67335 278.070508 
L 222.998329 277.29553 
L 223.648288 276.896813 
L 223.973268 276.459513 
L 224.948206 276.284086 
L 225.598165 276.120369 
L 226.898084 275.591351 
L 227.873022 275.043338 
L 231.447797 275.092365 
L 233.072695 275.61208 
L 234.697592 276.272741 
L 236.32249 276.915195 
L 237.297428 276.975835 
L 238.922326 277.090016 
L 241.197183 277.102968 
L 244.446978 276.939524 
L 246.071876 276.500765 
L 247.371794 276.141997 
L 248.021753 275.651059 
L 248.996691 275.156964 
L 249.97163 275.154659 
L 250.621589 275.08913 
L 251.271548 274.959717 
L 251.921507 275.016769 
L 252.571466 275.711152 
L 253.221425 276.110601 
L 254.196364 276.263871 
L 254.521343 276.252358 
L 255.171302 276.624006 
L 255.496282 276.896447 
L 255.821261 277.491001 
L 256.47122 277.967973 
L 258.096118 278.758097 
L 258.421097 279.224497 
L 259.396036 280.136997 
L 260.370975 281.108941 
L 260.695954 281.305842 
L 261.670893 281.4975 
L 261.995872 281.627009 
L 262.320852 282.07598 
L 263.29579 282.727756 
L 265.245667 283.53585 
L 265.895627 283.937527 
L 266.220606 284.352731 
L 266.545586 284.352731 
L 266.870565 284.593082 
L 268.170483 284.727914 
L 269.145422 284.751006 
L 270.12036 284.901343 
L 270.770319 284.856101 
L 271.420278 284.650432 
L 272.395217 284.632337 
L 274.020115 284.68383 
L 274.995053 284.088381 
L 275.320033 283.576417 
L 275.969992 283.126239 
L 276.294971 283.065022 
L 276.94493 282.271343 
L 277.26991 282.180996 
L 278.569828 279.705942 
L 278.894808 279.46312 
L 279.544767 278.038571 
L 279.869746 277.773137 
L 280.194726 277.168481 
L 280.844685 276.826655 
L 281.494644 276.368343 
L 283.119541 275.455753 
L 283.444521 274.973639 
L 283.7695 274.750543 
L 284.09448 275.357502 
L 284.419459 275.366816 
L 286.044357 274.821103 
L 287.019296 274.639531 
L 287.344275 274.471195 
L 287.994234 274.446224 
L 288.644193 274.649177 
L 289.294152 274.626718 
L 289.944111 274.498454 
L 291.569009 274.598763 
L 293.193907 274.767031 
L 298.0686 274.538008 
L 298.393579 274.802964 
L 299.368518 274.991611 
L 300.018477 275.564091 
L 301.318395 276.752996 
L 302.293333 276.770936 
L 302.943292 276.658277 
L 304.24321 276.153126 
L 304.89317 276.040163 
L 305.543129 276.177724 
L 306.518067 276.606994 
L 307.817985 276.309839 
L 308.142965 276.077453 
L 308.467944 274.161165 
L 309.117903 274.552632 
L 309.442883 273.157777 
L 309.767862 272.932465 
L 311.71774 273.758367 
L 312.367699 274.255948 
L 312.692678 274.439486 
L 313.992596 274.465095 
L 314.317576 274.615542 
L 315.292514 275.451799 
L 315.942473 275.85329 
L 316.917412 276.157346 
L 319.192269 277.929232 
L 320.167207 278.208706 
L 320.817166 278.454972 
L 321.467125 278.863879 
L 321.792105 279.335813 
L 322.442064 279.621049 
L 323.417002 279.775723 
L 324.066962 280.108176 
L 325.0419 280.784429 
L 326.016839 281.085332 
L 326.991777 281.226326 
L 327.641736 281.851411 
L 328.291695 282.277928 
L 328.941654 282.448818 
L 330.241572 282.555368 
L 331.541491 282.691484 
L 333.166388 282.433918 
L 333.816347 282.227401 
L 334.141327 282.143914 
L 334.791286 281.536194 
L 335.116265 281.494994 
L 335.441245 281.302648 
L 336.416183 281.088594 
L 336.741163 280.672065 
L 337.066143 280.575579 
L 337.391122 280.027321 
L 337.716102 279.711911 
L 339.01602 279.707489 
L 339.990958 279.910454 
L 340.640917 279.771225 
L 341.290876 279.3644 
L 341.615856 278.622619 
L 344.215692 277.458515 
L 344.865651 277.0346 
L 345.190631 276.729112 
L 345.51561 275.889564 
L 347.140508 274.8328 
L 347.465487 274.393447 
L 347.790467 274.393447 
L 348.440426 273.781043 
L 350.065324 272.41606 
L 350.715283 272.387015 
L 351.690221 273.110993 
L 352.015201 273.447917 
L 352.66516 274.917562 
L 353.315119 275.500111 
L 353.640098 275.506931 
L 354.290057 275.160507 
L 354.940016 274.921053 
L 355.589975 274.851791 
L 356.239934 274.773087 
L 359.16475 275.06383 
L 362.414545 275.205458 
L 363.064505 275.299724 
L 365.014382 275.398696 
L 365.664341 275.302504 
L 366.3143 275.327081 
L 367.289238 275.497868 
L 367.614218 275.461198 
L 367.939197 275.087313 
L 368.264177 272.381494 
L 368.589156 271.981746 
L 369.239115 272.87249 
L 370.864013 276.265577 
L 371.513972 276.50057 
L 372.488911 276.35577 
L 374.113808 275.898284 
L 376.063686 276.057121 
L 377.363604 276.612688 
L 378.663522 277.017669 
L 379.313481 276.818324 
L 379.63846 274.2378 
L 379.96344 276.541571 
L 380.288419 277.31824 
L 380.938378 278.179106 
L 382.888256 279.245902 
L 383.213235 279.828257 
L 384.188174 280.657201 
L 385.163112 281.125893 
L 386.46303 281.739018 
L 386.78801 282.074395 
L 387.762948 282.380065 
L 389.712826 282.579865 
L 391.012744 282.47233 
L 391.337723 282.318854 
L 391.662703 282.318854 
L 392.312662 282.032745 
L 392.962621 281.943131 
L 394.262539 281.15608 
L 395.237477 281.187933 
L 395.562457 280.910547 
L 395.887437 280.323009 
L 396.212416 280.115072 
L 397.187355 277.99876 
L 397.837314 277.171714 
L 398.487273 276.903433 
L 398.487273 276.903433 
" clip-path="url(#pebb5b78c16)" style="fill: none; stroke: #1f77b4; stroke-width: 1.5; stroke-linecap: square"/>
   </g>
   <g id="line2d_16">
    <path d="M 73.832727 103.740891 
L 75.132645 103.621769 
L 75.782604 103.337631 
L 77.407502 103.119839 
L 78.382441 102.955845 
L 80.982277 102.625921 
L 82.607174 102.404697 
L 83.907093 102.228496 
L 85.53199 102.17874 
L 87.156888 102.003235 
L 89.431744 101.842343 
L 90.406683 101.731253 
L 91.706601 101.680937 
L 93.006519 101.614813 
L 96.581294 101.024718 
L 97.881212 100.863846 
L 99.50611 100.670216 
L 101.455987 100.844628 
L 102.105946 101.279492 
L 102.430925 101.647231 
L 102.755905 102.26049 
L 103.405864 104.033998 
L 104.055823 106.890342 
L 104.380803 108.550412 
L 104.705782 112.203363 
L 105.680721 118.732954 
L 106.33068 124.729958 
L 106.980639 131.647509 
L 107.305618 139.073345 
L 108.605536 152.344455 
L 109.255495 156.66447 
L 109.905455 158.922509 
L 110.230434 159.648124 
L 110.555414 160.903391 
L 111.530352 162.517989 
L 112.180311 163.325413 
L 112.83027 163.785242 
L 113.480229 163.81049 
L 114.130188 163.500811 
L 115.755086 162.907762 
L 116.730025 162.292775 
L 117.055004 162.025563 
L 117.379984 161.337268 
L 118.029943 160.434257 
L 118.354922 159.755404 
L 119.004881 157.414585 
L 119.329861 155.526413 
L 120.304799 140.936562 
L 120.629779 137.193615 
L 120.954758 129.805845 
L 121.604717 121.513977 
L 121.929697 112.569193 
L 122.254676 107.632633 
L 122.579656 93.898779 
L 122.904636 87.058562 
L 123.554595 80.619734 
L 123.879574 78.698831 
L 124.529533 76.546656 
L 124.854513 74.834559 
L 125.504472 73.367767 
L 125.829451 73.002714 
L 126.154431 72.852507 
L 126.47941 73.015539 
L 127.129369 72.32495 
L 127.454349 71.914773 
L 127.779328 71.689067 
L 128.104308 71.612551 
L 128.429287 71.704466 
L 128.754267 72.26299 
L 129.079247 72.393895 
L 129.404226 72.393895 
L 130.054185 72.564652 
L 131.029124 72.719606 
L 131.679083 73.533445 
L 132.004062 73.788981 
L 132.979001 73.883235 
L 133.62896 73.85098 
L 135.903817 74.182893 
L 136.553776 74.282858 
L 136.878755 74.370041 
L 137.528714 74.826183 
L 137.853694 75.525111 
L 138.178673 75.525111 
L 138.828632 77.042769 
L 139.478591 78.457084 
L 140.45353 81.37568 
L 140.778509 84.31007 
L 141.103489 84.31007 
L 141.428468 89.536357 
L 142.728387 103.70324 
L 143.053366 112.490256 
L 144.678264 136.887087 
L 145.003243 144.654976 
L 145.653202 149.803733 
L 146.303161 152.652477 
L 147.603079 155.844809 
L 148.578018 157.140556 
L 149.227977 157.71546 
L 149.877936 157.74254 
L 151.502834 157.342886 
L 152.477772 157.122631 
L 154.10267 156.094215 
L 154.752629 155.23785 
L 156.052547 153.251571 
L 156.702506 152.291492 
L 157.027486 151.54286 
L 157.352465 150.498621 
L 157.677445 147.051451 
L 158.977363 138.560711 
L 159.627322 135.652836 
L 160.92724 131.620417 
L 161.577199 127.952301 
L 161.902179 122.329097 
L 162.552138 114.634496 
L 162.877117 107.474608 
L 164.502015 93.979866 
L 164.826994 88.630614 
L 165.476953 84.663701 
L 166.126912 79.822107 
L 166.776871 71.265642 
L 167.101851 71.127233 
L 167.75181 68.508763 
L 168.726749 64.258118 
L 169.051728 61.975526 
L 169.376708 60.575863 
L 169.701687 57.672744 
L 170.351646 56.272995 
L 171.001605 55.26964 
L 171.976544 53.620874 
L 172.301523 53.568 
L 172.951482 53.778886 
L 173.926421 54.36605 
L 174.2514 54.628475 
L 174.90136 54.780486 
L 175.226339 84.285205 
L 175.551319 88.957887 
L 176.201278 90.601403 
L 176.851237 91.709882 
L 177.501196 91.850538 
L 178.151155 91.726447 
L 180.101032 91.08093 
L 182.375889 91.398043 
L 184.000786 91.436293 
L 184.650745 91.349936 
L 186.600622 90.655265 
L 186.925602 90.83947 
L 187.575561 90.833138 
L 187.900541 86.78437 
L 188.22552 86.320746 
L 188.5505 83.831021 
L 188.875479 83.640407 
L 189.200459 84.02217 
L 190.500377 84.72666 
L 190.825356 84.64296 
L 191.800295 84.137271 
L 192.125274 84.454136 
L 192.775233 85.688283 
L 193.750172 87.572485 
L 194.075152 87.804738 
L 194.400131 87.887555 
L 194.725111 88.089394 
L 195.37507 89.513497 
L 196.350008 91.311284 
L 197.324947 92.633923 
L 197.649926 93.169004 
L 197.974906 94.181057 
L 199.924783 97.125716 
L 200.249762 98.170315 
L 201.549681 99.491356 
L 201.87466 100.17589 
L 202.524619 100.662323 
L 204.149517 101.317737 
L 204.799476 101.580098 
L 205.449435 101.786402 
L 205.774414 101.823529 
L 206.424373 101.688257 
L 207.399312 101.754126 
L 208.049271 101.981044 
L 208.69923 101.937552 
L 209.999148 101.778107 
L 213.248943 102.15497 
L 214.548862 102.499878 
L 214.873841 102.381718 
L 215.84878 101.021675 
L 216.498739 100.587273 
L 217.473677 100.220362 
L 218.123636 98.696833 
L 218.448616 98.53145 
L 219.098575 96.094228 
L 219.423554 95.916671 
L 219.748534 94.839593 
L 220.073514 94.233501 
L 221.698411 93.507388 
L 222.023391 93.253422 
L 222.67335 92.327407 
L 222.998329 90.500725 
L 223.648288 89.821831 
L 223.973268 88.669246 
L 224.623227 88.412841 
L 225.273186 88.198012 
L 226.248124 87.387573 
L 227.223063 86.286979 
L 228.198002 85.341188 
L 229.17294 85.180638 
L 230.472858 84.417988 
L 231.447797 83.851119 
L 234.697592 84.612437 
L 235.347551 84.820098 
L 235.672531 84.843725 
L 235.99751 85.036582 
L 236.32249 85.095043 
L 236.972449 85.02427 
L 244.121998 84.651061 
L 244.771957 84.510982 
L 245.096937 84.285082 
L 246.721835 83.793825 
L 247.371794 83.565324 
L 247.696773 83.161199 
L 248.671712 82.574262 
L 248.996691 82.488839 
L 249.97163 82.811853 
L 250.296609 83.00374 
L 250.946568 82.994544 
L 251.271548 83.065698 
L 251.921507 83.49283 
L 252.246486 84.503482 
L 252.896446 85.648115 
L 253.546405 86.254161 
L 254.521343 86.769012 
L 255.171302 87.66775 
L 255.496282 88.302475 
L 255.821261 89.642623 
L 256.47122 90.664711 
L 258.096118 92.489906 
L 258.421097 93.503445 
L 259.396036 95.252733 
L 260.045995 96.486784 
L 260.695954 97.225459 
L 261.670893 97.819161 
L 261.995872 98.135869 
L 262.320852 99.024933 
L 262.970811 99.823317 
L 263.62077 100.302917 
L 263.945749 100.39233 
L 264.920688 101.38681 
L 265.570647 101.993256 
L 265.895627 102.405428 
L 266.220606 103.083105 
L 266.545586 103.083105 
L 266.870565 103.452073 
L 270.44534 104.440785 
L 272.720197 104.496616 
L 274.020115 104.642352 
L 274.995053 103.685954 
L 275.320033 102.96955 
L 275.969992 102.390285 
L 276.294971 102.377258 
L 276.94493 100.97495 
L 277.26991 100.872776 
L 278.569828 96.065 
L 278.894808 95.832709 
L 279.544767 92.839598 
L 279.869746 92.473065 
L 280.194726 91.013878 
L 280.844685 90.376859 
L 281.169664 89.638134 
L 283.119541 87.139023 
L 283.444521 86.160969 
L 283.7695 85.693471 
L 284.09448 86.678489 
L 284.419459 85.957598 
L 287.019296 84.611716 
L 287.344275 84.244133 
L 287.994234 84.110297 
L 288.644193 84.254714 
L 289.619132 84.029427 
L 291.569009 83.818156 
L 292.218968 83.852371 
L 292.543948 84.022683 
L 294.493825 84.081451 
L 295.143784 84.056003 
L 295.793743 84.099169 
L 298.0686 83.818773 
L 298.393579 84.134188 
L 299.043538 84.190044 
L 299.368518 84.471848 
L 300.018477 85.671812 
L 301.318395 88.471426 
L 301.968354 88.629002 
L 302.618313 88.415452 
L 302.943292 88.223628 
L 303.593251 87.615903 
L 304.56819 87.013498 
L 305.218149 87.17569 
L 306.193088 88.079096 
L 306.843047 88.157559 
L 307.817985 88.123036 
L 308.142965 87.373506 
L 308.467944 84.074081 
L 309.117903 85.19832 
L 309.442883 82.981969 
L 309.767862 83.009902 
L 310.092842 83.46118 
L 310.742801 84.01124 
L 311.71774 85.418999 
L 312.367699 86.597455 
L 312.692678 87.034106 
L 313.667617 87.330941 
L 313.992596 87.618126 
L 314.317576 88.080809 
L 314.967535 89.650205 
L 315.617494 90.754787 
L 316.267453 91.281632 
L 316.917412 91.758279 
L 318.867289 94.993813 
L 319.192269 95.357724 
L 320.817166 96.308751 
L 321.467125 97.086363 
L 321.792105 97.845397 
L 322.442064 98.239131 
L 323.092023 98.41149 
L 323.741982 98.808872 
L 325.36688 100.337914 
L 326.991777 100.897248 
L 327.641736 101.897913 
L 328.291695 102.434331 
L 328.941654 102.615831 
L 329.591613 102.702255 
L 330.891532 103.050146 
L 331.541491 103.04575 
L 333.166388 102.666344 
L 333.491368 102.408026 
L 334.141327 102.227534 
L 334.791286 101.280252 
L 335.116265 101.261606 
L 335.441245 100.963238 
L 336.091204 100.816027 
L 336.416183 100.636996 
L 336.741163 99.784028 
L 337.066143 99.604964 
L 337.391122 98.588871 
L 337.716102 98.016863 
L 338.041081 98.026958 
L 338.69104 97.926552 
L 339.990958 98.032557 
L 340.640917 97.723329 
L 341.290876 97.031987 
L 341.615856 95.517898 
L 343.240753 94.420651 
L 343.565733 93.827472 
L 344.215692 93.070092 
L 344.865651 92.08221 
L 345.190631 91.426119 
L 345.51561 89.202311 
L 347.140508 87.016533 
L 347.465487 86.124451 
L 347.790467 86.124451 
L 348.115446 85.066389 
L 350.065324 81.385213 
L 350.715283 81.153331 
L 352.015201 82.526933 
L 352.34018 83.706902 
L 352.990139 85.036361 
L 353.315119 85.474465 
L 353.640098 85.613042 
L 354.290057 85.29359 
L 354.940016 85.18413 
L 355.264996 85.205264 
L 356.239934 84.927176 
L 358.839771 85.402953 
L 360.139689 85.396191 
L 361.439607 85.249956 
L 364.364423 85.499841 
L 366.3143 85.32069 
L 367.289238 85.553903 
L 367.614218 85.370819 
L 367.939197 84.673761 
L 368.264177 80.123629 
L 368.589156 79.970317 
L 369.239115 81.645876 
L 370.864013 87.988541 
L 371.188993 88.323431 
L 371.513972 88.480978 
L 372.81389 88.501974 
L 374.113808 88.653932 
L 376.063686 89.451497 
L 376.713645 90.273616 
L 377.363604 90.927437 
L 378.338542 91.611594 
L 378.988501 91.750391 
L 379.313481 91.685607 
L 379.63846 86.858394 
L 379.96344 91.718926 
L 380.288419 93.48151 
L 380.938378 95.067188 
L 382.888256 96.760855 
L 383.213235 97.689738 
L 383.863194 98.494429 
L 384.513153 99.074281 
L 385.813071 99.883794 
L 387.112989 100.966311 
L 388.412907 101.363041 
L 389.062867 101.544481 
L 390.037805 101.581903 
L 391.012744 101.533339 
L 391.337723 101.32462 
L 391.662703 101.32462 
L 391.987682 101.063383 
L 392.637641 100.933162 
L 392.962621 100.886858 
L 393.937559 99.865963 
L 394.262539 99.690062 
L 395.237477 99.822206 
L 395.562457 99.305668 
L 395.887437 98.225516 
L 396.212416 97.985301 
L 396.862375 95.323773 
L 397.187355 94.250726 
L 397.837314 93.201396 
L 398.487273 92.782421 
L 398.487273 92.782421 
" clip-path="url(#pebb5b78c16)" style="fill: none; stroke: #ff7f0e; stroke-width: 1.5; stroke-linecap: square"/>
   </g>
   <g id="line2d_17">
    <path d="M 73.832727 240.004415 
L 77.082523 240.211426 
L 79.357379 240.269761 
L 82.607174 240.264696 
L 88.456806 240.149633 
L 93.656478 240.118631 
L 95.606355 240.070144 
L 99.50611 240.048106 
L 101.780966 240.012278 
L 102.755905 240.189284 
L 104.705782 241.014464 
L 105.030762 241.012144 
L 105.680721 240.668092 
L 106.0057 240.2353 
L 106.33068 239.574851 
L 106.980639 237.40925 
L 107.305618 233.63865 
L 107.955577 228.704267 
L 109.255495 217.163128 
L 109.905455 213.845365 
L 110.230434 212.610072 
L 110.555414 209.787881 
L 111.855332 203.591017 
L 112.505291 201.226536 
L 113.15525 199.846633 
L 115.105127 197.984019 
L 115.430106 197.920221 
L 116.080066 198.361039 
L 116.730025 199.272044 
L 117.055004 199.886758 
L 117.704963 202.790879 
L 118.029943 204.275621 
L 118.354922 206.28244 
L 119.004881 212.301002 
L 119.329861 216.312841 
L 119.97982 231.552229 
L 120.629779 237.315929 
L 120.954758 241.073341 
L 121.604717 244.644808 
L 121.929697 245.588918 
L 122.254676 246.093826 
L 122.579656 243.866056 
L 123.229615 237.631317 
L 123.879574 234.134511 
L 124.529533 232.865636 
L 124.854513 231.346737 
L 125.504472 229.776347 
L 126.154431 229.113225 
L 126.47941 229.33024 
L 127.129369 228.943435 
L 127.779328 228.499435 
L 128.104308 228.443675 
L 128.429287 228.525722 
L 128.754267 228.758959 
L 129.729206 228.929642 
L 131.029124 229.076986 
L 131.354103 229.635958 
L 132.004062 230.238019 
L 132.979001 230.344576 
L 133.953939 230.424167 
L 135.253857 230.557591 
L 136.878755 230.630264 
L 137.528714 230.983265 
L 137.853694 231.529006 
L 138.178673 231.529006 
L 138.503653 232.217426 
L 139.153612 233.102242 
L 139.803571 234.34327 
L 140.45353 235.799965 
L 140.778509 237.706294 
L 141.103489 237.706294 
L 141.428468 240.332042 
L 142.403407 243.905763 
L 143.053366 245.267906 
L 143.378346 244.769901 
L 143.703325 243.77428 
L 144.028305 242.293707 
L 144.678264 237.33068 
L 145.003243 231.176862 
L 145.653202 225.635414 
L 146.303161 222.08454 
L 146.95312 219.721795 
L 147.2781 217.555016 
L 149.227977 211.02226 
L 149.552957 210.657163 
L 149.877936 210.657163 
L 150.202916 210.383775 
L 150.852875 210.33877 
L 151.827813 210.014762 
L 152.477772 209.961644 
L 153.127731 210.249629 
L 153.452711 210.628981 
L 154.10267 212.078101 
L 157.027486 221.870491 
L 157.352465 223.882467 
L 157.677445 229.672965 
L 158.327404 235.315367 
L 158.977363 239.033213 
L 159.627322 241.152229 
L 161.252219 244.783783 
L 161.577199 245.943696 
L 161.902179 248.433952 
L 162.552138 250.579927 
L 163.202097 250.657477 
L 163.527076 250.514317 
L 164.177035 249.740547 
L 164.502015 249.298275 
L 164.826994 247.067894 
L 165.476953 245.610472 
L 166.126912 243.314102 
L 166.776871 237.271978 
L 167.101851 236.600746 
L 167.42683 233.911493 
L 168.726749 228.166444 
L 169.051728 225.075652 
L 169.376708 223.427329 
L 169.701687 218.3014 
L 170.351646 215.210644 
L 171.001605 212.618433 
L 171.326585 211.094305 
L 171.976544 206.901956 
L 172.626503 204.927207 
L 173.276462 203.884352 
L 173.926421 203.771916 
L 174.2514 203.198131 
L 174.90136 202.718117 
L 175.226339 189.954109 
L 175.551319 187.807826 
L 175.876298 187.799826 
L 176.526257 188.546252 
L 176.851237 189.098934 
L 177.501196 189.344343 
L 178.151155 189.319275 
L 178.801114 189.068233 
L 179.126093 188.86741 
L 179.451073 188.431904 
L 180.101032 188.115345 
L 180.750991 188.031806 
L 182.050909 188.029901 
L 183.025848 187.805956 
L 184.325766 187.20667 
L 184.650745 187.01687 
L 184.975725 186.551096 
L 185.300704 186.551096 
L 185.625684 185.981442 
L 185.950663 185.746246 
L 186.600622 185.662242 
L 187.575561 185.882167 
L 187.900541 182.792533 
L 188.22552 182.186677 
L 188.5505 180.995377 
L 188.875479 181.570481 
L 189.850418 185.190151 
L 190.175397 185.674259 
L 190.825356 185.958946 
L 191.150336 186.024263 
L 191.475315 186.402946 
L 192.125274 188.679193 
L 192.775233 190.476636 
L 193.100213 191.141385 
L 193.750172 191.87387 
L 194.725111 192.472992 
L 195.05009 192.917413 
L 196.025029 193.50557 
L 197.324947 193.697639 
L 199.274824 193.508014 
L 199.924783 193.152357 
L 200.249762 192.678123 
L 202.849599 190.630399 
L 203.824537 190.231019 
L 204.474496 189.985851 
L 205.124455 189.325717 
L 205.774414 188.94397 
L 206.749353 188.779515 
L 207.399312 188.835416 
L 209.02421 188.565885 
L 209.999148 188.627464 
L 212.274005 189.051141 
L 212.923964 189.454207 
L 213.898903 189.658068 
L 214.873841 190.104016 
L 215.5238 190.97336 
L 216.498739 192.049244 
L 217.473677 192.551495 
L 218.773595 192.884653 
L 219.098575 192.888064 
L 219.423554 193.194913 
L 220.073514 192.955459 
L 220.398493 193.139329 
L 220.723473 193.120044 
L 221.048452 192.830084 
L 222.34837 192.311445 
L 222.67335 192.033719 
L 222.998329 190.780193 
L 223.648288 190.705199 
L 223.973268 189.568182 
L 224.948206 189.432531 
L 225.923145 188.874976 
L 226.573104 188.159047 
L 226.898084 187.972065 
L 227.548043 187.287211 
L 228.198002 186.344677 
L 229.49792 184.953635 
L 230.472858 183.376104 
L 231.122817 182.304328 
L 231.447797 180.969145 
L 232.422735 179.691708 
L 233.072695 178.968594 
L 233.722654 178.339006 
L 234.047633 177.92606 
L 234.372613 177.060743 
L 235.672531 175.365861 
L 235.99751 174.423683 
L 236.647469 173.473816 
L 238.272367 171.860163 
L 239.247305 171.341821 
L 239.897265 171.075803 
L 240.547224 170.595987 
L 241.522162 170.35943 
L 244.446978 170.080434 
L 244.771957 170.212871 
L 245.096937 170.536581 
L 245.746896 170.728134 
L 246.396855 170.954401 
L 247.696773 171.750867 
L 248.671712 173.087571 
L 249.64665 175.266785 
L 249.97163 175.782661 
L 250.296609 176.762962 
L 250.621589 177.184278 
L 251.596527 179.172761 
L 251.921507 179.961235 
L 252.246486 181.705394 
L 252.896446 183.020471 
L 254.196364 184.392956 
L 254.846323 185.532751 
L 255.496282 186.685879 
L 255.821261 187.775062 
L 256.47122 188.422037 
L 258.096118 189.684605 
L 258.421097 190.190196 
L 259.071057 190.467396 
L 259.721016 190.444792 
L 260.370975 190.241014 
L 260.695954 190.128415 
L 262.320852 190.854674 
L 263.945749 190.30954 
L 264.920688 190.512982 
L 265.570647 190.195769 
L 265.895627 190.120315 
L 266.220606 189.726325 
L 266.545586 189.726325 
L 266.870565 189.437589 
L 267.520524 189.412795 
L 268.495463 189.814877 
L 269.145422 190.116362 
L 269.795381 190.057757 
L 270.44534 190.113999 
L 270.770319 190.283627 
L 271.095299 190.731334 
L 271.745258 191.131598 
L 272.395217 191.260153 
L 274.020115 191.401496 
L 274.995053 192.012518 
L 275.320033 192.693937 
L 276.619951 193.836783 
L 277.919869 194.254366 
L 278.569828 193.897469 
L 278.894808 194.310169 
L 279.544767 193.279036 
L 279.869746 193.458602 
L 280.194726 192.46456 
L 280.519705 192.475854 
L 280.844685 192.28728 
L 281.169664 191.700083 
L 283.119541 189.659926 
L 283.444521 189.009249 
L 283.7695 188.646751 
L 284.09448 188.831577 
L 284.419459 186.743284 
L 285.069419 186.771878 
L 286.694316 186.171604 
L 287.019296 185.951963 
L 287.344275 185.573576 
L 288.319214 185.02314 
L 288.969173 184.574112 
L 289.294152 184.732121 
L 290.91905 184.194135 
L 291.569009 183.529431 
L 292.218968 183.127004 
L 292.543948 183.314587 
L 293.193907 183.330721 
L 296.118722 184.349407 
L 297.74362 183.901134 
L 298.0686 183.839872 
L 298.393579 183.588777 
L 299.043538 183.570153 
L 299.368518 183.795262 
L 300.018477 184.941129 
L 301.318395 187.802692 
L 301.643374 187.991777 
L 301.968354 188.032263 
L 302.618313 187.763126 
L 303.268272 187.191317 
L 303.918231 186.731394 
L 304.24321 186.582434 
L 304.56819 186.680151 
L 305.218149 187.205538 
L 305.868108 187.724862 
L 306.518067 187.616862 
L 306.843047 187.797275 
L 307.817985 188.753199 
L 308.467944 186.461517 
L 308.792924 187.476573 
L 309.117903 188.084694 
L 309.442883 187.540521 
L 310.092842 189.274898 
L 310.417821 189.544695 
L 311.067781 190.507384 
L 312.367699 192.865269 
L 313.017658 193.461831 
L 313.667617 194.023802 
L 314.317576 194.989588 
L 314.642555 195.931656 
L 315.292514 196.753897 
L 316.267453 197.217782 
L 316.917412 197.484239 
L 318.21733 198.484095 
L 318.867289 198.643917 
L 319.842228 198.419341 
L 321.467125 198.639269 
L 322.117084 198.308652 
L 322.767043 198.192612 
L 323.741982 198.258086 
L 324.391941 198.019052 
L 325.36688 197.537872 
L 326.016839 197.470681 
L 326.991777 197.477052 
L 327.966716 196.765367 
L 328.616675 196.305248 
L 329.266634 196.209251 
L 329.916593 196.35415 
L 330.891532 196.182094 
L 331.541491 196.091658 
L 334.141327 196.612637 
L 334.791286 197.08432 
L 336.091204 197.473668 
L 338.69104 197.577497 
L 339.340999 197.280149 
L 339.665979 196.987696 
L 340.640917 196.816243 
L 341.290876 196.924592 
L 341.615856 196.604946 
L 342.265815 196.715182 
L 343.240753 196.485166 
L 343.890713 195.960264 
L 344.540672 195.5096 
L 345.190631 194.93016 
L 345.51561 193.043796 
L 347.140508 191.765445 
L 347.465487 191.201624 
L 347.790467 191.201624 
L 348.115446 189.889831 
L 349.090385 187.752791 
L 349.740344 186.712609 
L 350.065324 185.809301 
L 350.390303 185.385071 
L 350.715283 185.172898 
L 351.040262 185.204815 
L 351.690221 184.805318 
L 352.34018 184.826254 
L 352.66516 184.11528 
L 352.990139 184.292124 
L 353.640098 185.028809 
L 353.965078 185.49146 
L 354.290057 185.664034 
L 354.940016 186.429359 
L 355.589975 186.449677 
L 355.914955 186.320229 
L 356.889894 186.366134 
L 357.539853 186.524294 
L 357.864832 186.682026 
L 358.514791 186.603964 
L 359.48973 186.431351 
L 360.789648 186.183898 
L 361.439607 185.947488 
L 363.064505 185.530228 
L 364.039443 185.443499 
L 365.664341 184.991757 
L 366.639279 184.95451 
L 367.289238 184.882626 
L 367.939197 184.000783 
L 368.264177 181.408213 
L 368.589156 182.938357 
L 369.564095 185.523324 
L 369.889075 186.803958 
L 371.188993 188.781439 
L 371.838952 189.057531 
L 372.81389 190.010188 
L 373.463849 190.822463 
L 373.788829 191.472348 
L 375.738706 193.004314 
L 376.063686 193.004314 
L 376.388665 193.545817 
L 377.363604 194.280712 
L 378.013563 194.442041 
L 378.663522 194.540411 
L 379.313481 195.162399 
L 379.63846 193.54146 
L 379.96344 196.160791 
L 380.288419 197.053755 
L 380.938378 197.227254 
L 382.238296 196.866111 
L 382.888256 196.825878 
L 384.838133 195.37733 
L 385.813071 195.112071 
L 386.46303 194.883347 
L 386.78801 194.391431 
L 387.437969 194.040921 
L 388.087928 193.97338 
L 390.362785 194.063478 
L 391.012744 194.233463 
L 391.337723 194.417459 
L 391.662703 194.417459 
L 392.312662 194.785696 
L 393.2876 195.15343 
L 393.937559 195.531873 
L 394.912498 195.730007 
L 395.887437 195.853964 
L 396.212416 196.128899 
L 396.862375 196.150579 
L 397.512334 196.499958 
L 397.837314 196.995471 
L 398.162293 197.112673 
L 398.487273 197.062235 
L 398.487273 197.062235 
" clip-path="url(#pebb5b78c16)" style="fill: none; stroke: #2ca02c; stroke-width: 1.5; stroke-linecap: square"/>
   </g>
   <g id="patch_3">
    <path d="M 57.6 307.584 
L 57.6 41.472 
" style="fill: none; stroke: #000000; stroke-width: 0.8; stroke-linejoin: miter; stroke-linecap: square"/>
   </g>
   <g id="patch_4">
    <path d="M 414.72 307.584 
L 414.72 41.472 
" style="fill: none; stroke: #000000; stroke-width: 0.8; stroke-linejoin: miter; stroke-linecap: square"/>
   </g>
   <g id="patch_5">
    <path d="M 57.6 307.584 
L 414.72 307.584 
" style="fill: none; stroke: #000000; stroke-width: 0.8; stroke-linejoin: miter; stroke-linecap: square"/>
   </g>
   <g id="patch_6">
    <path d="M 57.6 41.472 
L 414.72 41.472 
" style="fill: none; stroke: #000000; stroke-width: 0.8; stroke-linejoin: miter; stroke-linecap: square"/>
   </g>
   <g id="text_17">
    <!-- Change in rotation components for moving right hand twist -->
    <g transform="translate(13.061953 35.472)scale(0.15 -0.15)">
     <defs>
      <path id="DejaVuSans-43" d="M 4122 4306 
L 4122 3641 
Q 3803 3938 3442 4084 
Q 3081 4231 2675 4231 
Q 1875 4231 1450 3742 
Q 1025 3253 1025 2328 
Q 1025 1406 1450 917 
Q 1875 428 2675 428 
Q 3081 428 3442 575 
Q 3803 722 4122 1019 
L 4122 359 
Q 3791 134 3420 21 
Q 3050 -91 2638 -91 
Q 1578 -91 968 557 
Q 359 1206 359 2328 
Q 359 3453 968 4101 
Q 1578 4750 2638 4750 
Q 3056 4750 3426 4639 
Q 3797 4528 4122 4306 
z
" transform="scale(0.015625)"/>
      <path id="DejaVuSans-68" d="M 3513 2113 
L 3513 0 
L 2938 0 
L 2938 2094 
Q 2938 2591 2744 2837 
Q 2550 3084 2163 3084 
Q 1697 3084 1428 2787 
Q 1159 2491 1159 1978 
L 1159 0 
L 581 0 
L 581 4863 
L 1159 4863 
L 1159 2956 
Q 1366 3272 1645 3428 
Q 1925 3584 2291 3584 
Q 2894 3584 3203 3211 
Q 3513 2838 3513 2113 
z
" transform="scale(0.015625)"/>
      <path id="DejaVuSans-20" transform="scale(0.015625)"/>
      <path id="DejaVuSans-72" d="M 2631 2963 
Q 2534 3019 2420 3045 
Q 2306 3072 2169 3072 
Q 1681 3072 1420 2755 
Q 1159 2438 1159 1844 
L 1159 0 
L 581 0 
L 581 3500 
L 1159 3500 
L 1159 2956 
Q 1341 3275 1631 3429 
Q 1922 3584 2338 3584 
Q 2397 3584 2469 3576 
Q 2541 3569 2628 3553 
L 2631 2963 
z
" transform="scale(0.015625)"/>
      <path id="DejaVuSans-6f" d="M 1959 3097 
Q 1497 3097 1228 2736 
Q 959 2375 959 1747 
Q 959 1119 1226 758 
Q 1494 397 1959 397 
Q 2419 397 2687 759 
Q 2956 1122 2956 1747 
Q 2956 2369 2687 2733 
Q 2419 3097 1959 3097 
z
M 1959 3584 
Q 2709 3584 3137 3096 
Q 3566 2609 3566 1747 
Q 3566 888 3137 398 
Q 2709 -91 1959 -91 
Q 1206 -91 779 398 
Q 353 888 353 1747 
Q 353 2609 779 3096 
Q 1206 3584 1959 3584 
z
" transform="scale(0.015625)"/>
      <path id="DejaVuSans-63" d="M 3122 3366 
L 3122 2828 
Q 2878 2963 2633 3030 
Q 2388 3097 2138 3097 
Q 1578 3097 1268 2742 
Q 959 2388 959 1747 
Q 959 1106 1268 751 
Q 1578 397 2138 397 
Q 2388 397 2633 464 
Q 2878 531 3122 666 
L 3122 134 
Q 2881 22 2623 -34 
Q 2366 -91 2075 -91 
Q 1284 -91 818 406 
Q 353 903 353 1747 
Q 353 2603 823 3093 
Q 1294 3584 2113 3584 
Q 2378 3584 2631 3529 
Q 2884 3475 3122 3366 
z
" transform="scale(0.015625)"/>
      <path id="DejaVuSans-66" d="M 2375 4863 
L 2375 4384 
L 1825 4384 
Q 1516 4384 1395 4259 
Q 1275 4134 1275 3809 
L 1275 3500 
L 2222 3500 
L 2222 3053 
L 1275 3053 
L 1275 0 
L 697 0 
L 697 3053 
L 147 3053 
L 147 3500 
L 697 3500 
L 697 3744 
Q 697 4328 969 4595 
Q 1241 4863 1831 4863 
L 2375 4863 
z
" transform="scale(0.015625)"/>
      <path id="DejaVuSans-76" d="M 191 3500 
L 800 3500 
L 1894 563 
L 2988 3500 
L 3597 3500 
L 2284 0 
L 1503 0 
L 191 3500 
z
" transform="scale(0.015625)"/>
      <path id="DejaVuSans-77" d="M 269 3500 
L 844 3500 
L 1563 769 
L 2278 3500 
L 2956 3500 
L 3675 769 
L 4391 3500 
L 4966 3500 
L 4050 0 
L 3372 0 
L 2619 2869 
L 1863 0 
L 1184 0 
L 269 3500 
z
" transform="scale(0.015625)"/>
     </defs>
     <use xlink:href="#DejaVuSans-43"/>
     <use xlink:href="#DejaVuSans-68" x="69.824219"/>
     <use xlink:href="#DejaVuSans-61" x="133.203125"/>
     <use xlink:href="#DejaVuSans-6e" x="194.482422"/>
     <use xlink:href="#DejaVuSans-67" x="257.861328"/>
     <use xlink:href="#DejaVuSans-65" x="321.337891"/>
     <use xlink:href="#DejaVuSans-20" x="382.861328"/>
     <use xlink:href="#DejaVuSans-69" x="414.648438"/>
     <use xlink:href="#DejaVuSans-6e" x="442.431641"/>
     <use xlink:href="#DejaVuSans-20" x="505.810547"/>
     <use xlink:href="#DejaVuSans-72" x="537.597656"/>
     <use xlink:href="#DejaVuSans-6f" x="576.460938"/>
     <use xlink:href="#DejaVuSans-74" x="637.642578"/>
     <use xlink:href="#DejaVuSans-61" x="676.851562"/>
     <use xlink:href="#DejaVuSans-74" x="738.130859"/>
     <use xlink:href="#DejaVuSans-69" x="777.339844"/>
     <use xlink:href="#DejaVuSans-6f" x="805.123047"/>
     <use xlink:href="#DejaVuSans-6e" x="866.304688"/>
     <use xlink:href="#DejaVuSans-20" x="929.683594"/>
     <use xlink:href="#DejaVuSans-63" x="961.470703"/>
     <use xlink:href="#DejaVuSans-6f" x="1016.451172"/>
     <use xlink:href="#DejaVuSans-6d" x="1077.632812"/>
     <use xlink:href="#DejaVuSans-70" x="1175.044922"/>
     <use xlink:href="#DejaVuSans-6f" x="1238.521484"/>
     <use xlink:href="#DejaVuSans-6e" x="1299.703125"/>
     <use xlink:href="#DejaVuSans-65" x="1363.082031"/>
     <use xlink:href="#DejaVuSans-6e" x="1424.605469"/>
     <use xlink:href="#DejaVuSans-74" x="1487.984375"/>
     <use xlink:href="#DejaVuSans-73" x="1527.193359"/>
     <use xlink:href="#DejaVuSans-20" x="1579.292969"/>
     <use xlink:href="#DejaVuSans-66" x="1611.080078"/>
     <use xlink:href="#DejaVuSans-6f" x="1646.285156"/>
     <use xlink:href="#DejaVuSans-72" x="1707.466797"/>
     <use xlink:href="#DejaVuSans-20" x="1748.580078"/>
     <use xlink:href="#DejaVuSans-6d" x="1780.367188"/>
     <use xlink:href="#DejaVuSans-6f" x="1877.779297"/>
     <use xlink:href="#DejaVuSans-76" x="1938.960938"/>
     <use xlink:href="#DejaVuSans-69" x="1998.140625"/>
     <use xlink:href="#DejaVuSans-6e" x="2025.923828"/>
     <use xlink:href="#DejaVuSans-67" x="2089.302734"/>
     <use xlink:href="#DejaVuSans-20" x="2152.779297"/>
     <use xlink:href="#DejaVuSans-72" x="2184.566406"/>
     <use xlink:href="#DejaVuSans-69" x="2225.679688"/>
     <use xlink:href="#DejaVuSans-67" x="2253.462891"/>
     <use xlink:href="#DejaVuSans-68" x="2316.939453"/>
     <use xlink:href="#DejaVuSans-74" x="2380.318359"/>
     <use xlink:href="#DejaVuSans-20" x="2419.527344"/>
     <use xlink:href="#DejaVuSans-68" x="2451.314453"/>
     <use xlink:href="#DejaVuSans-61" x="2514.693359"/>
     <use xlink:href="#DejaVuSans-6e" x="2575.972656"/>
     <use xlink:href="#DejaVuSans-64" x="2639.351562"/>
     <use xlink:href="#DejaVuSans-20" x="2702.828125"/>
     <use xlink:href="#DejaVuSans-74" x="2734.615234"/>
     <use xlink:href="#DejaVuSans-77" x="2773.824219"/>
     <use xlink:href="#DejaVuSans-69" x="2855.611328"/>
     <use xlink:href="#DejaVuSans-73" x="2883.394531"/>
     <use xlink:href="#DejaVuSans-74" x="2935.494141"/>
    </g>
   </g>
   <g id="legend_1">
    <g id="patch_7">
     <path d="M 64.6 93.506375 
L 121.185937 93.506375 
Q 123.185937 93.506375 123.185937 91.506375 
L 123.185937 48.472 
Q 123.185937 46.472 121.185937 46.472 
L 64.6 46.472 
Q 62.6 46.472 62.6 48.472 
L 62.6 91.506375 
Q 62.6 93.506375 64.6 93.506375 
z
" style="fill: #ffffff; opacity: 0.8; stroke: #cccccc; stroke-linejoin: miter"/>
    </g>
    <g id="line2d_18">
     <path d="M 66.6 54.570438 
L 76.6 54.570438 
L 86.6 54.570438 
" style="fill: none; stroke: #1f77b4; stroke-width: 1.5; stroke-linecap: square"/>
    </g>
    <g id="text_18">
     <!-- idx 0 -->
     <g transform="translate(94.6 58.070438)scale(0.1 -0.1)">
      <defs>
       <path id="DejaVuSans-78" d="M 3513 3500 
L 2247 1797 
L 3578 0 
L 2900 0 
L 1881 1375 
L 863 0 
L 184 0 
L 1544 1831 
L 300 3500 
L 978 3500 
L 1906 2253 
L 2834 3500 
L 3513 3500 
z
" transform="scale(0.015625)"/>
      </defs>
      <use xlink:href="#DejaVuSans-69"/>
      <use xlink:href="#DejaVuSans-64" x="27.783203"/>
      <use xlink:href="#DejaVuSans-78" x="91.259766"/>
      <use xlink:href="#DejaVuSans-20" x="150.439453"/>
      <use xlink:href="#DejaVuSans-30" x="182.226562"/>
     </g>
    </g>
    <g id="line2d_19">
     <path d="M 66.6 69.248563 
L 76.6 69.248563 
L 86.6 69.248563 
" style="fill: none; stroke: #ff7f0e; stroke-width: 1.5; stroke-linecap: square"/>
    </g>
    <g id="text_19">
     <!-- idx 1 -->
     <g transform="translate(94.6 72.748563)scale(0.1 -0.1)">
      <use xlink:href="#DejaVuSans-69"/>
      <use xlink:href="#DejaVuSans-64" x="27.783203"/>
      <use xlink:href="#DejaVuSans-78" x="91.259766"/>
      <use xlink:href="#DejaVuSans-20" x="150.439453"/>
      <use xlink:href="#DejaVuSans-31" x="182.226562"/>
     </g>
    </g>
    <g id="line2d_20">
     <path d="M 66.6 83.926688 
L 76.6 83.926688 
L 86.6 83.926688 
" style="fill: none; stroke: #2ca02c; stroke-width: 1.5; stroke-linecap: square"/>
    </g>
    <g id="text_20">
     <!-- idx 2 -->
     <g transform="translate(94.6 87.426688)scale(0.1 -0.1)">
      <use xlink:href="#DejaVuSans-69"/>
      <use xlink:href="#DejaVuSans-64" x="27.783203"/>
      <use xlink:href="#DejaVuSans-78" x="91.259766"/>
      <use xlink:href="#DejaVuSans-20" x="150.439453"/>
      <use xlink:href="#DejaVuSans-32" x="182.226562"/>
     </g>
    </g>
   </g>
  </g>
 </g>
 <defs>
  <clipPath id="pebb5b78c16">
   <rect x="57.6" y="41.472" width="357.12" height="266.112"/>
  </clipPath>
 </defs>
</svg>
