<?xml version="1.0" encoding="utf-8" standalone="no"?>
<!DOCTYPE svg PUBLIC "-//W3C//DTD SVG 1.1//EN"
  "http://www.w3.org/Graphics/SVG/1.1/DTD/svg11.dtd">
<svg xmlns:xlink="http://www.w3.org/1999/xlink" width="460.8pt" height="345.6pt" viewBox="0 0 460.8 345.6" xmlns="http://www.w3.org/2000/svg" version="1.1">
 <metadata>
  <rdf:RDF xmlns:dc="http://purl.org/dc/elements/1.1/" xmlns:cc="http://creativecommons.org/ns#" xmlns:rdf="http://www.w3.org/1999/02/22-rdf-syntax-ns#">
   <cc:Work>
    <dc:type rdf:resource="http://purl.org/dc/dcmitype/StillImage"/>
    <dc:date>2024-02-07T11:32:41.028764</dc:date>
    <dc:format>image/svg+xml</dc:format>
    <dc:creator>
     <cc:Agent>
      <dc:title>Matplotlib v3.5.0, https://matplotlib.org/</dc:title>
     </cc:Agent>
    </dc:creator>
   </cc:Work>
  </rdf:RDF>
 </metadata>
 <defs>
  <style type="text/css">*{stroke-linejoin: round; stroke-linecap: butt}</style>
 </defs>
 <g id="figure_1">
  <g id="patch_1">
   <path d="M 0 345.6 
L 460.8 345.6 
L 460.8 0 
L 0 0 
z
" style="fill: #ffffff"/>
  </g>
  <g id="axes_1">
   <g id="patch_2">
    <path d="M 57.6 307.584 
L 414.72 307.584 
L 414.72 41.472 
L 57.6 41.472 
z
" style="fill: #ffffff"/>
   </g>
   <g id="matplotlib.axis_1">
    <g id="xtick_1">
     <g id="line2d_1">
      <defs>
       <path id="m5315ccbf11" d="M 0 0 
L 0 3.5 
" style="stroke: #000000; stroke-width: 0.8"/>
      </defs>
      <g>
       <use xlink:href="#m5315ccbf11" x="73.832727" y="307.584" style="stroke: #000000; stroke-width: 0.8"/>
      </g>
     </g>
     <g id="text_1">
      <!-- 0 -->
      <g transform="translate(70.651477 322.182437)scale(0.1 -0.1)">
       <defs>
        <path id="DejaVuSans-30" d="M 2034 4250 
Q 1547 4250 1301 3770 
Q 1056 3291 1056 2328 
Q 1056 1369 1301 889 
Q 1547 409 2034 409 
Q 2525 409 2770 889 
Q 3016 1369 3016 2328 
Q 3016 3291 2770 3770 
Q 2525 4250 2034 4250 
z
M 2034 4750 
Q 2819 4750 3233 4129 
Q 3647 3509 3647 2328 
Q 3647 1150 3233 529 
Q 2819 -91 2034 -91 
Q 1250 -91 836 529 
Q 422 1150 422 2328 
Q 422 3509 836 4129 
Q 1250 4750 2034 4750 
z
" transform="scale(0.015625)"/>
       </defs>
       <use xlink:href="#DejaVuSans-30"/>
      </g>
     </g>
    </g>
    <g id="xtick_2">
     <g id="line2d_2">
      <g>
       <use xlink:href="#m5315ccbf11" x="138.828632" y="307.584" style="stroke: #000000; stroke-width: 0.8"/>
      </g>
     </g>
     <g id="text_2">
      <!-- 200 -->
      <g transform="translate(129.284882 322.182437)scale(0.1 -0.1)">
       <defs>
        <path id="DejaVuSans-32" d="M 1228 531 
L 3431 531 
L 3431 0 
L 469 0 
L 469 531 
Q 828 903 1448 1529 
Q 2069 2156 2228 2338 
Q 2531 2678 2651 2914 
Q 2772 3150 2772 3378 
Q 2772 3750 2511 3984 
Q 2250 4219 1831 4219 
Q 1534 4219 1204 4116 
Q 875 4013 500 3803 
L 500 4441 
Q 881 4594 1212 4672 
Q 1544 4750 1819 4750 
Q 2544 4750 2975 4387 
Q 3406 4025 3406 3419 
Q 3406 3131 3298 2873 
Q 3191 2616 2906 2266 
Q 2828 2175 2409 1742 
Q 1991 1309 1228 531 
z
" transform="scale(0.015625)"/>
       </defs>
       <use xlink:href="#DejaVuSans-32"/>
       <use xlink:href="#DejaVuSans-30" x="63.623047"/>
       <use xlink:href="#DejaVuSans-30" x="127.246094"/>
      </g>
     </g>
    </g>
    <g id="xtick_3">
     <g id="line2d_3">
      <g>
       <use xlink:href="#m5315ccbf11" x="203.824537" y="307.584" style="stroke: #000000; stroke-width: 0.8"/>
      </g>
     </g>
     <g id="text_3">
      <!-- 400 -->
      <g transform="translate(194.280787 322.182437)scale(0.1 -0.1)">
       <defs>
        <path id="DejaVuSans-34" d="M 2419 4116 
L 825 1625 
L 2419 1625 
L 2419 4116 
z
M 2253 4666 
L 3047 4666 
L 3047 1625 
L 3713 1625 
L 3713 1100 
L 3047 1100 
L 3047 0 
L 2419 0 
L 2419 1100 
L 313 1100 
L 313 1709 
L 2253 4666 
z
" transform="scale(0.015625)"/>
       </defs>
       <use xlink:href="#DejaVuSans-34"/>
       <use xlink:href="#DejaVuSans-30" x="63.623047"/>
       <use xlink:href="#DejaVuSans-30" x="127.246094"/>
      </g>
     </g>
    </g>
    <g id="xtick_4">
     <g id="line2d_4">
      <g>
       <use xlink:href="#m5315ccbf11" x="268.820442" y="307.584" style="stroke: #000000; stroke-width: 0.8"/>
      </g>
     </g>
     <g id="text_4">
      <!-- 600 -->
      <g transform="translate(259.276692 322.182437)scale(0.1 -0.1)">
       <defs>
        <path id="DejaVuSans-36" d="M 2113 2584 
Q 1688 2584 1439 2293 
Q 1191 2003 1191 1497 
Q 1191 994 1439 701 
Q 1688 409 2113 409 
Q 2538 409 2786 701 
Q 3034 994 3034 1497 
Q 3034 2003 2786 2293 
Q 2538 2584 2113 2584 
z
M 3366 4563 
L 3366 3988 
Q 3128 4100 2886 4159 
Q 2644 4219 2406 4219 
Q 1781 4219 1451 3797 
Q 1122 3375 1075 2522 
Q 1259 2794 1537 2939 
Q 1816 3084 2150 3084 
Q 2853 3084 3261 2657 
Q 3669 2231 3669 1497 
Q 3669 778 3244 343 
Q 2819 -91 2113 -91 
Q 1303 -91 875 529 
Q 447 1150 447 2328 
Q 447 3434 972 4092 
Q 1497 4750 2381 4750 
Q 2619 4750 2861 4703 
Q 3103 4656 3366 4563 
z
" transform="scale(0.015625)"/>
       </defs>
       <use xlink:href="#DejaVuSans-36"/>
       <use xlink:href="#DejaVuSans-30" x="63.623047"/>
       <use xlink:href="#DejaVuSans-30" x="127.246094"/>
      </g>
     </g>
    </g>
    <g id="xtick_5">
     <g id="line2d_5">
      <g>
       <use xlink:href="#m5315ccbf11" x="333.816347" y="307.584" style="stroke: #000000; stroke-width: 0.8"/>
      </g>
     </g>
     <g id="text_5">
      <!-- 800 -->
      <g transform="translate(324.272597 322.182437)scale(0.1 -0.1)">
       <defs>
        <path id="DejaVuSans-38" d="M 2034 2216 
Q 1584 2216 1326 1975 
Q 1069 1734 1069 1313 
Q 1069 891 1326 650 
Q 1584 409 2034 409 
Q 2484 409 2743 651 
Q 3003 894 3003 1313 
Q 3003 1734 2745 1975 
Q 2488 2216 2034 2216 
z
M 1403 2484 
Q 997 2584 770 2862 
Q 544 3141 544 3541 
Q 544 4100 942 4425 
Q 1341 4750 2034 4750 
Q 2731 4750 3128 4425 
Q 3525 4100 3525 3541 
Q 3525 3141 3298 2862 
Q 3072 2584 2669 2484 
Q 3125 2378 3379 2068 
Q 3634 1759 3634 1313 
Q 3634 634 3220 271 
Q 2806 -91 2034 -91 
Q 1263 -91 848 271 
Q 434 634 434 1313 
Q 434 1759 690 2068 
Q 947 2378 1403 2484 
z
M 1172 3481 
Q 1172 3119 1398 2916 
Q 1625 2713 2034 2713 
Q 2441 2713 2670 2916 
Q 2900 3119 2900 3481 
Q 2900 3844 2670 4047 
Q 2441 4250 2034 4250 
Q 1625 4250 1398 4047 
Q 1172 3844 1172 3481 
z
" transform="scale(0.015625)"/>
       </defs>
       <use xlink:href="#DejaVuSans-38"/>
       <use xlink:href="#DejaVuSans-30" x="63.623047"/>
       <use xlink:href="#DejaVuSans-30" x="127.246094"/>
      </g>
     </g>
    </g>
    <g id="xtick_6">
     <g id="line2d_6">
      <g>
       <use xlink:href="#m5315ccbf11" x="398.812252" y="307.584" style="stroke: #000000; stroke-width: 0.8"/>
      </g>
     </g>
     <g id="text_6">
      <!-- 1000 -->
      <g transform="translate(386.087252 322.182437)scale(0.1 -0.1)">
       <defs>
        <path id="DejaVuSans-31" d="M 794 531 
L 1825 531 
L 1825 4091 
L 703 3866 
L 703 4441 
L 1819 4666 
L 2450 4666 
L 2450 531 
L 3481 531 
L 3481 0 
L 794 0 
L 794 531 
z
" transform="scale(0.015625)"/>
       </defs>
       <use xlink:href="#DejaVuSans-31"/>
       <use xlink:href="#DejaVuSans-30" x="63.623047"/>
       <use xlink:href="#DejaVuSans-30" x="127.246094"/>
       <use xlink:href="#DejaVuSans-30" x="190.869141"/>
      </g>
     </g>
    </g>
    <g id="text_7">
     <!-- Timestamps -->
     <g transform="translate(190.392422 339.659781)scale(0.15 -0.15)">
      <defs>
       <path id="DejaVuSans-54" d="M -19 4666 
L 3928 4666 
L 3928 4134 
L 2272 4134 
L 2272 0 
L 1638 0 
L 1638 4134 
L -19 4134 
L -19 4666 
z
" transform="scale(0.015625)"/>
       <path id="DejaVuSans-69" d="M 603 3500 
L 1178 3500 
L 1178 0 
L 603 0 
L 603 3500 
z
M 603 4863 
L 1178 4863 
L 1178 4134 
L 603 4134 
L 603 4863 
z
" transform="scale(0.015625)"/>
       <path id="DejaVuSans-6d" d="M 3328 2828 
Q 3544 3216 3844 3400 
Q 4144 3584 4550 3584 
Q 5097 3584 5394 3201 
Q 5691 2819 5691 2113 
L 5691 0 
L 5113 0 
L 5113 2094 
Q 5113 2597 4934 2840 
Q 4756 3084 4391 3084 
Q 3944 3084 3684 2787 
Q 3425 2491 3425 1978 
L 3425 0 
L 2847 0 
L 2847 2094 
Q 2847 2600 2669 2842 
Q 2491 3084 2119 3084 
Q 1678 3084 1418 2786 
Q 1159 2488 1159 1978 
L 1159 0 
L 581 0 
L 581 3500 
L 1159 3500 
L 1159 2956 
Q 1356 3278 1631 3431 
Q 1906 3584 2284 3584 
Q 2666 3584 2933 3390 
Q 3200 3197 3328 2828 
z
" transform="scale(0.015625)"/>
       <path id="DejaVuSans-65" d="M 3597 1894 
L 3597 1613 
L 953 1613 
Q 991 1019 1311 708 
Q 1631 397 2203 397 
Q 2534 397 2845 478 
Q 3156 559 3463 722 
L 3463 178 
Q 3153 47 2828 -22 
Q 2503 -91 2169 -91 
Q 1331 -91 842 396 
Q 353 884 353 1716 
Q 353 2575 817 3079 
Q 1281 3584 2069 3584 
Q 2775 3584 3186 3129 
Q 3597 2675 3597 1894 
z
M 3022 2063 
Q 3016 2534 2758 2815 
Q 2500 3097 2075 3097 
Q 1594 3097 1305 2825 
Q 1016 2553 972 2059 
L 3022 2063 
z
" transform="scale(0.015625)"/>
       <path id="DejaVuSans-73" d="M 2834 3397 
L 2834 2853 
Q 2591 2978 2328 3040 
Q 2066 3103 1784 3103 
Q 1356 3103 1142 2972 
Q 928 2841 928 2578 
Q 928 2378 1081 2264 
Q 1234 2150 1697 2047 
L 1894 2003 
Q 2506 1872 2764 1633 
Q 3022 1394 3022 966 
Q 3022 478 2636 193 
Q 2250 -91 1575 -91 
Q 1294 -91 989 -36 
Q 684 19 347 128 
L 347 722 
Q 666 556 975 473 
Q 1284 391 1588 391 
Q 1994 391 2212 530 
Q 2431 669 2431 922 
Q 2431 1156 2273 1281 
Q 2116 1406 1581 1522 
L 1381 1569 
Q 847 1681 609 1914 
Q 372 2147 372 2553 
Q 372 3047 722 3315 
Q 1072 3584 1716 3584 
Q 2034 3584 2315 3537 
Q 2597 3491 2834 3397 
z
" transform="scale(0.015625)"/>
       <path id="DejaVuSans-74" d="M 1172 4494 
L 1172 3500 
L 2356 3500 
L 2356 3053 
L 1172 3053 
L 1172 1153 
Q 1172 725 1289 603 
Q 1406 481 1766 481 
L 2356 481 
L 2356 0 
L 1766 0 
Q 1100 0 847 248 
Q 594 497 594 1153 
L 594 3053 
L 172 3053 
L 172 3500 
L 594 3500 
L 594 4494 
L 1172 4494 
z
" transform="scale(0.015625)"/>
       <path id="DejaVuSans-61" d="M 2194 1759 
Q 1497 1759 1228 1600 
Q 959 1441 959 1056 
Q 959 750 1161 570 
Q 1363 391 1709 391 
Q 2188 391 2477 730 
Q 2766 1069 2766 1631 
L 2766 1759 
L 2194 1759 
z
M 3341 1997 
L 3341 0 
L 2766 0 
L 2766 531 
Q 2569 213 2275 61 
Q 1981 -91 1556 -91 
Q 1019 -91 701 211 
Q 384 513 384 1019 
Q 384 1609 779 1909 
Q 1175 2209 1959 2209 
L 2766 2209 
L 2766 2266 
Q 2766 2663 2505 2880 
Q 2244 3097 1772 3097 
Q 1472 3097 1187 3025 
Q 903 2953 641 2809 
L 641 3341 
Q 956 3463 1253 3523 
Q 1550 3584 1831 3584 
Q 2591 3584 2966 3190 
Q 3341 2797 3341 1997 
z
" transform="scale(0.015625)"/>
       <path id="DejaVuSans-70" d="M 1159 525 
L 1159 -1331 
L 581 -1331 
L 581 3500 
L 1159 3500 
L 1159 2969 
Q 1341 3281 1617 3432 
Q 1894 3584 2278 3584 
Q 2916 3584 3314 3078 
Q 3713 2572 3713 1747 
Q 3713 922 3314 415 
Q 2916 -91 2278 -91 
Q 1894 -91 1617 61 
Q 1341 213 1159 525 
z
M 3116 1747 
Q 3116 2381 2855 2742 
Q 2594 3103 2138 3103 
Q 1681 3103 1420 2742 
Q 1159 2381 1159 1747 
Q 1159 1113 1420 752 
Q 1681 391 2138 391 
Q 2594 391 2855 752 
Q 3116 1113 3116 1747 
z
" transform="scale(0.015625)"/>
      </defs>
      <use xlink:href="#DejaVuSans-54"/>
      <use xlink:href="#DejaVuSans-69" x="57.958984"/>
      <use xlink:href="#DejaVuSans-6d" x="85.742188"/>
      <use xlink:href="#DejaVuSans-65" x="183.154297"/>
      <use xlink:href="#DejaVuSans-73" x="244.677734"/>
      <use xlink:href="#DejaVuSans-74" x="296.777344"/>
      <use xlink:href="#DejaVuSans-61" x="335.986328"/>
      <use xlink:href="#DejaVuSans-6d" x="397.265625"/>
      <use xlink:href="#DejaVuSans-70" x="494.677734"/>
      <use xlink:href="#DejaVuSans-73" x="558.154297"/>
     </g>
    </g>
   </g>
   <g id="matplotlib.axis_2">
    <g id="ytick_1">
     <g id="line2d_7">
      <defs>
       <path id="me1554b42dd" d="M 0 0 
L -3.5 0 
" style="stroke: #000000; stroke-width: 0.8"/>
      </defs>
      <g>
       <use xlink:href="#me1554b42dd" x="57.6" y="298.206531" style="stroke: #000000; stroke-width: 0.8"/>
      </g>
     </g>
     <g id="text_8">
      <!-- −0.8 -->
      <g transform="translate(26.317187 302.00575)scale(0.1 -0.1)">
       <defs>
        <path id="DejaVuSans-2212" d="M 678 2272 
L 4684 2272 
L 4684 1741 
L 678 1741 
L 678 2272 
z
" transform="scale(0.015625)"/>
        <path id="DejaVuSans-2e" d="M 684 794 
L 1344 794 
L 1344 0 
L 684 0 
L 684 794 
z
" transform="scale(0.015625)"/>
       </defs>
       <use xlink:href="#DejaVuSans-2212"/>
       <use xlink:href="#DejaVuSans-30" x="83.789062"/>
       <use xlink:href="#DejaVuSans-2e" x="147.412109"/>
       <use xlink:href="#DejaVuSans-38" x="179.199219"/>
      </g>
     </g>
    </g>
    <g id="ytick_2">
     <g id="line2d_8">
      <g>
       <use xlink:href="#me1554b42dd" x="57.6" y="268.161362" style="stroke: #000000; stroke-width: 0.8"/>
      </g>
     </g>
     <g id="text_9">
      <!-- −0.6 -->
      <g transform="translate(26.317187 271.960581)scale(0.1 -0.1)">
       <use xlink:href="#DejaVuSans-2212"/>
       <use xlink:href="#DejaVuSans-30" x="83.789062"/>
       <use xlink:href="#DejaVuSans-2e" x="147.412109"/>
       <use xlink:href="#DejaVuSans-36" x="179.199219"/>
      </g>
     </g>
    </g>
    <g id="ytick_3">
     <g id="line2d_9">
      <g>
       <use xlink:href="#me1554b42dd" x="57.6" y="238.116193" style="stroke: #000000; stroke-width: 0.8"/>
      </g>
     </g>
     <g id="text_10">
      <!-- −0.4 -->
      <g transform="translate(26.317187 241.915412)scale(0.1 -0.1)">
       <use xlink:href="#DejaVuSans-2212"/>
       <use xlink:href="#DejaVuSans-30" x="83.789062"/>
       <use xlink:href="#DejaVuSans-2e" x="147.412109"/>
       <use xlink:href="#DejaVuSans-34" x="179.199219"/>
      </g>
     </g>
    </g>
    <g id="ytick_4">
     <g id="line2d_10">
      <g>
       <use xlink:href="#me1554b42dd" x="57.6" y="208.071024" style="stroke: #000000; stroke-width: 0.8"/>
      </g>
     </g>
     <g id="text_11">
      <!-- −0.2 -->
      <g transform="translate(26.317187 211.870243)scale(0.1 -0.1)">
       <use xlink:href="#DejaVuSans-2212"/>
       <use xlink:href="#DejaVuSans-30" x="83.789062"/>
       <use xlink:href="#DejaVuSans-2e" x="147.412109"/>
       <use xlink:href="#DejaVuSans-32" x="179.199219"/>
      </g>
     </g>
    </g>
    <g id="ytick_5">
     <g id="line2d_11">
      <g>
       <use xlink:href="#me1554b42dd" x="57.6" y="178.025856" style="stroke: #000000; stroke-width: 0.8"/>
      </g>
     </g>
     <g id="text_12">
      <!-- 0.0 -->
      <g transform="translate(34.696875 181.825074)scale(0.1 -0.1)">
       <use xlink:href="#DejaVuSans-30"/>
       <use xlink:href="#DejaVuSans-2e" x="63.623047"/>
       <use xlink:href="#DejaVuSans-30" x="95.410156"/>
      </g>
     </g>
    </g>
    <g id="ytick_6">
     <g id="line2d_12">
      <g>
       <use xlink:href="#me1554b42dd" x="57.6" y="147.980687" style="stroke: #000000; stroke-width: 0.8"/>
      </g>
     </g>
     <g id="text_13">
      <!-- 0.2 -->
      <g transform="translate(34.696875 151.779906)scale(0.1 -0.1)">
       <use xlink:href="#DejaVuSans-30"/>
       <use xlink:href="#DejaVuSans-2e" x="63.623047"/>
       <use xlink:href="#DejaVuSans-32" x="95.410156"/>
      </g>
     </g>
    </g>
    <g id="ytick_7">
     <g id="line2d_13">
      <g>
       <use xlink:href="#me1554b42dd" x="57.6" y="117.935518" style="stroke: #000000; stroke-width: 0.8"/>
      </g>
     </g>
     <g id="text_14">
      <!-- 0.4 -->
      <g transform="translate(34.696875 121.734737)scale(0.1 -0.1)">
       <use xlink:href="#DejaVuSans-30"/>
       <use xlink:href="#DejaVuSans-2e" x="63.623047"/>
       <use xlink:href="#DejaVuSans-34" x="95.410156"/>
      </g>
     </g>
    </g>
    <g id="ytick_8">
     <g id="line2d_14">
      <g>
       <use xlink:href="#me1554b42dd" x="57.6" y="87.890349" style="stroke: #000000; stroke-width: 0.8"/>
      </g>
     </g>
     <g id="text_15">
      <!-- 0.6 -->
      <g transform="translate(34.696875 91.689568)scale(0.1 -0.1)">
       <use xlink:href="#DejaVuSans-30"/>
       <use xlink:href="#DejaVuSans-2e" x="63.623047"/>
       <use xlink:href="#DejaVuSans-36" x="95.410156"/>
      </g>
     </g>
    </g>
    <g id="ytick_9">
     <g id="line2d_15">
      <g>
       <use xlink:href="#me1554b42dd" x="57.6" y="57.845181" style="stroke: #000000; stroke-width: 0.8"/>
      </g>
     </g>
     <g id="text_16">
      <!-- 0.8 -->
      <g transform="translate(34.696875 61.644399)scale(0.1 -0.1)">
       <use xlink:href="#DejaVuSans-30"/>
       <use xlink:href="#DejaVuSans-2e" x="63.623047"/>
       <use xlink:href="#DejaVuSans-38" x="95.410156"/>
      </g>
     </g>
    </g>
    <g id="text_17">
     <!-- Magnitude -->
     <g transform="translate(19.197656 214.262766)rotate(-90)scale(0.15 -0.15)">
      <defs>
       <path id="DejaVuSans-4d" d="M 628 4666 
L 1569 4666 
L 2759 1491 
L 3956 4666 
L 4897 4666 
L 4897 0 
L 4281 0 
L 4281 4097 
L 3078 897 
L 2444 897 
L 1241 4097 
L 1241 0 
L 628 0 
L 628 4666 
z
" transform="scale(0.015625)"/>
       <path id="DejaVuSans-67" d="M 2906 1791 
Q 2906 2416 2648 2759 
Q 2391 3103 1925 3103 
Q 1463 3103 1205 2759 
Q 947 2416 947 1791 
Q 947 1169 1205 825 
Q 1463 481 1925 481 
Q 2391 481 2648 825 
Q 2906 1169 2906 1791 
z
M 3481 434 
Q 3481 -459 3084 -895 
Q 2688 -1331 1869 -1331 
Q 1566 -1331 1297 -1286 
Q 1028 -1241 775 -1147 
L 775 -588 
Q 1028 -725 1275 -790 
Q 1522 -856 1778 -856 
Q 2344 -856 2625 -561 
Q 2906 -266 2906 331 
L 2906 616 
Q 2728 306 2450 153 
Q 2172 0 1784 0 
Q 1141 0 747 490 
Q 353 981 353 1791 
Q 353 2603 747 3093 
Q 1141 3584 1784 3584 
Q 2172 3584 2450 3431 
Q 2728 3278 2906 2969 
L 2906 3500 
L 3481 3500 
L 3481 434 
z
" transform="scale(0.015625)"/>
       <path id="DejaVuSans-6e" d="M 3513 2113 
L 3513 0 
L 2938 0 
L 2938 2094 
Q 2938 2591 2744 2837 
Q 2550 3084 2163 3084 
Q 1697 3084 1428 2787 
Q 1159 2491 1159 1978 
L 1159 0 
L 581 0 
L 581 3500 
L 1159 3500 
L 1159 2956 
Q 1366 3272 1645 3428 
Q 1925 3584 2291 3584 
Q 2894 3584 3203 3211 
Q 3513 2838 3513 2113 
z
" transform="scale(0.015625)"/>
       <path id="DejaVuSans-75" d="M 544 1381 
L 544 3500 
L 1119 3500 
L 1119 1403 
Q 1119 906 1312 657 
Q 1506 409 1894 409 
Q 2359 409 2629 706 
Q 2900 1003 2900 1516 
L 2900 3500 
L 3475 3500 
L 3475 0 
L 2900 0 
L 2900 538 
Q 2691 219 2414 64 
Q 2138 -91 1772 -91 
Q 1169 -91 856 284 
Q 544 659 544 1381 
z
M 1991 3584 
L 1991 3584 
z
" transform="scale(0.015625)"/>
       <path id="DejaVuSans-64" d="M 2906 2969 
L 2906 4863 
L 3481 4863 
L 3481 0 
L 2906 0 
L 2906 525 
Q 2725 213 2448 61 
Q 2172 -91 1784 -91 
Q 1150 -91 751 415 
Q 353 922 353 1747 
Q 353 2572 751 3078 
Q 1150 3584 1784 3584 
Q 2172 3584 2448 3432 
Q 2725 3281 2906 2969 
z
M 947 1747 
Q 947 1113 1208 752 
Q 1469 391 1925 391 
Q 2381 391 2643 752 
Q 2906 1113 2906 1747 
Q 2906 2381 2643 2742 
Q 2381 3103 1925 3103 
Q 1469 3103 1208 2742 
Q 947 2381 947 1747 
z
" transform="scale(0.015625)"/>
      </defs>
      <use xlink:href="#DejaVuSans-4d"/>
      <use xlink:href="#DejaVuSans-61" x="86.279297"/>
      <use xlink:href="#DejaVuSans-67" x="147.558594"/>
      <use xlink:href="#DejaVuSans-6e" x="211.035156"/>
      <use xlink:href="#DejaVuSans-69" x="274.414062"/>
      <use xlink:href="#DejaVuSans-74" x="302.197266"/>
      <use xlink:href="#DejaVuSans-75" x="341.40625"/>
      <use xlink:href="#DejaVuSans-64" x="404.785156"/>
      <use xlink:href="#DejaVuSans-65" x="468.261719"/>
     </g>
    </g>
   </g>
   <g id="line2d_16">
    <path d="M 73.832727 282.873921 
L 74.807666 282.398408 
L 77.407502 281.62765 
L 78.70742 281.518569 
L 79.682359 281.425447 
L 83.257133 280.971087 
L 86.506929 280.871333 
L 87.806847 281.02907 
L 89.106765 281.485014 
L 89.431744 281.678359 
L 90.081704 282.523251 
L 91.056642 283.794873 
L 91.706601 284.758449 
L 92.031581 285.652505 
L 92.35656 286.001221 
L 92.68154 285.987367 
L 93.331499 286.353537 
L 93.656478 285.834901 
L 93.981458 285.830819 
L 94.306437 284.590096 
L 95.606355 276.328072 
L 96.256314 271.087433 
L 96.581294 265.583825 
L 98.856151 245.415634 
L 99.50611 239.114567 
L 99.831089 232.782592 
L 102.430925 208.191163 
L 102.755905 206.518087 
L 103.080885 203.811448 
L 103.405864 202.088084 
L 104.055823 197.001312 
L 104.380803 201.55655 
L 106.0057 185.299563 
L 106.655659 183.73095 
L 107.305618 180.825108 
L 107.630598 177.521821 
L 108.930516 171.028549 
L 109.580475 167.778017 
L 110.880393 160.07835 
L 111.205373 156.480011 
L 112.505291 150.072533 
L 114.130188 142.995461 
L 114.780147 140.438507 
L 115.105127 138.102763 
L 116.405045 134.058912 
L 117.379984 131.615622 
L 117.704963 130.202819 
L 119.65484 126.578541 
L 120.304799 125.821789 
L 120.629779 125.213321 
L 122.254676 124.022577 
L 123.554595 123.360305 
L 125.829451 122.856924 
L 126.47941 122.982872 
L 127.129369 123.2994 
L 127.454349 123.568704 
L 127.779328 124.404393 
L 128.754267 126.153763 
L 129.404226 127.595152 
L 130.704144 133.264915 
L 131.029124 135.199322 
L 131.354103 139.695574 
L 132.654021 150.761567 
L 132.979001 154.122487 
L 133.30398 161.852583 
L 134.278919 174.93598 
L 135.903817 199.416493 
L 136.228796 210.018707 
L 137.528714 227.695999 
L 137.853694 229.631426 
L 138.178673 230.480917 
L 138.503653 230.725111 
L 138.828632 231.41912 
L 139.803571 238.527522 
L 140.45353 246.433932 
L 141.103489 256.359692 
L 141.428468 267.038873 
L 142.078428 275.897683 
L 142.403407 281.926706 
L 143.053366 283.810631 
L 143.378346 284.559927 
L 143.703325 285.919976 
L 144.678264 287.731797 
L 145.653202 289.164535 
L 145.978182 289.931221 
L 148.578018 292.775789 
L 149.552957 293.288241 
L 150.852875 293.767393 
L 152.152793 293.982148 
L 152.802752 293.884855 
L 153.452711 293.512561 
L 153.77769 293.096919 
L 154.427649 291.674601 
L 154.752629 290.533538 
L 155.077609 288.88534 
L 155.727568 280.110688 
L 156.377527 271.333892 
L 157.027486 260.839333 
L 157.352465 249.103552 
L 158.652383 223.044009 
L 158.977363 222.017104 
L 159.302342 217.304851 
L 159.627322 201.352154 
L 159.952301 193.290496 
L 161.902179 171.30619 
L 162.227158 163.656785 
L 163.527076 150.016444 
L 163.852056 147.2 
L 164.177035 142.282249 
L 165.151974 136.366712 
L 166.126912 131.855901 
L 166.776871 129.50537 
L 167.101851 127.657451 
L 167.75181 126.248419 
L 168.726749 124.766979 
L 169.051728 124.433504 
L 169.376708 123.915956 
L 169.701687 123.915956 
L 170.026667 123.58177 
L 171.001605 123.354886 
L 171.651564 123.380559 
L 172.301523 123.572272 
L 172.626503 123.726492 
L 174.2514 125.955895 
L 175.226339 128.092497 
L 175.551319 129.513681 
L 175.876298 130.288189 
L 176.201278 133.521355 
L 176.851237 137.895184 
L 177.501196 143.564377 
L 178.476134 153.916214 
L 178.801114 162.563636 
L 179.776052 177.831922 
L 181.40095 207.175843 
L 181.72593 219.046303 
L 182.375889 229.195769 
L 182.700868 231.850798 
L 183.025848 233.401254 
L 183.350827 234.154095 
L 183.675807 235.726719 
L 184.000786 239.283843 
L 184.325766 239.283843 
L 184.975725 249.93948 
L 185.950663 265.544247 
L 186.600622 276.01747 
L 186.925602 287.356538 
L 187.250581 287.889837 
L 187.900541 288.2793 
L 188.22552 288.321656 
L 188.875479 288.064257 
L 189.200459 287.553234 
L 190.500377 286.27501 
L 191.150336 285.612228 
L 191.475315 284.984368 
L 192.775233 283.879302 
L 193.750172 283.303116 
L 194.400131 283.230243 
L 195.700049 283.386865 
L 196.350008 283.655954 
L 197.324947 283.944868 
L 197.649926 283.852465 
L 198.299885 283.08352 
L 198.949844 281.880184 
L 199.274824 281.032469 
L 199.599803 279.867583 
L 200.249762 276.011509 
L 200.574742 270.096343 
L 201.549681 258.481054 
L 202.849599 241.19429 
L 203.174578 232.016646 
L 205.449435 197.648984 
L 205.774414 196.417701 
L 206.424373 184.527268 
L 207.074333 181.069974 
L 207.724292 175.190416 
L 208.049271 169.890937 
L 209.999148 154.651205 
L 210.324128 150.157129 
L 211.299066 144.496428 
L 212.598984 138.405367 
L 214.223882 132.132005 
L 215.198821 130.062975 
L 216.173759 128.625232 
L 216.498739 128.250981 
L 216.823718 127.589296 
L 217.798657 126.886973 
L 218.773595 126.506511 
L 219.423554 126.494817 
L 220.073514 126.640507 
L 220.723473 127.327825 
L 221.373432 128.034353 
L 222.34837 129.509078 
L 223.648288 134.92651 
L 224.298247 138.496517 
L 224.623227 140.844541 
L 224.948206 146.315713 
L 225.923145 156.684842 
L 226.898084 169.213351 
L 227.548043 178.904036 
L 227.873022 188.870271 
L 230.147879 226.673178 
L 231.447797 232.969809 
L 232.097756 238.973166 
L 232.747715 248.08804 
L 233.072695 259.231784 
L 234.047633 274.713998 
L 234.372613 278.10493 
L 234.697592 283.131768 
L 235.347551 284.550743 
L 235.672531 284.550743 
L 235.99751 284.741596 
L 236.972449 284.506818 
L 237.297428 284.400956 
L 237.947387 284.030515 
L 239.572285 283.67196 
L 239.897265 283.836497 
L 242.82208 284.118058 
L 243.797019 284.360915 
L 244.121998 284.492875 
L 244.771957 285.021405 
L 246.396855 286.425328 
L 246.721835 286.34625 
L 247.046814 286.53029 
L 247.696773 285.705804 
L 248.021753 285.092408 
L 248.996691 278.980378 
L 249.64665 272.572023 
L 250.621589 259.833544 
L 250.946568 255.077093 
L 251.271548 245.024398 
L 252.571466 223.088783 
L 252.896446 217.148128 
L 253.221425 217.264999 
L 253.871384 200.235188 
L 254.521343 186.402714 
L 255.496282 178.525253 
L 255.821261 171.638796 
L 257.446159 155.350318 
L 258.421097 146.852466 
L 258.746077 144.471755 
L 259.071057 140.279888 
L 259.396036 138.445793 
L 259.721016 138.445793 
L 260.045995 136.728147 
L 260.370975 133.703378 
L 261.345913 130.070982 
L 262.645831 126.420764 
L 263.29579 125.70842 
L 263.945749 125.524819 
L 265.245667 125.506139 
L 265.895627 125.715838 
L 266.545586 126.114075 
L 267.195545 126.741423 
L 267.520524 127.537413 
L 268.820442 129.718791 
L 269.470401 132.242665 
L 269.795381 134.789741 
L 270.770319 139.066542 
L 271.420278 142.884364 
L 272.395217 150.2568 
L 272.720197 153.402005 
L 273.045176 160.038115 
L 274.020115 171.797174 
L 274.995053 186.532426 
L 275.969992 202.355702 
L 276.294971 213.009589 
L 277.26991 228.569485 
L 277.919869 233.78049 
L 278.894808 239.583214 
L 279.544767 245.604868 
L 279.869746 253.764382 
L 281.169664 274.971926 
L 281.494644 276.241118 
L 282.144603 277.364894 
L 282.469582 277.2647 
L 283.119541 276.691242 
L 283.7695 275.871695 
L 285.719378 274.498932 
L 286.694316 274.413131 
L 288.319214 274.615254 
L 289.294152 274.973381 
L 290.269091 275.467733 
L 290.59407 275.723144 
L 290.91905 276.283953 
L 291.569009 277.049037 
L 292.543948 278.791 
L 293.843866 281.847285 
L 294.168845 281.714895 
L 294.493825 281.916968 
L 294.818804 281.32692 
L 295.143784 281.246395 
L 295.468763 279.742724 
L 295.793743 279.04976 
L 296.118722 274.730877 
L 296.443702 273.8502 
L 297.74362 261.593467 
L 298.393579 252.777498 
L 299.368518 235.524561 
L 299.693497 223.011104 
L 300.018477 217.024759 
L 300.343456 217.113825 
L 300.668436 214.453911 
L 301.643374 197.962356 
L 301.968354 186.266476 
L 302.293333 186.266476 
L 302.618313 180.364591 
L 304.56819 164.342308 
L 304.89317 158.620729 
L 306.843047 141.963837 
L 307.168026 137.454417 
L 307.493006 137.454417 
L 307.817985 133.767163 
L 308.792924 129.343214 
L 310.092842 124.424921 
L 311.067781 122.725221 
L 311.71774 122.003732 
L 312.692678 121.517851 
L 313.667617 121.510674 
L 314.317576 121.689048 
L 314.967535 122.103927 
L 315.617494 123.234438 
L 316.592432 124.990515 
L 317.242391 126.423837 
L 317.567371 128.769057 
L 318.54231 133.698526 
L 318.867289 136.036877 
L 319.192269 140.926274 
L 320.492187 151.301709 
L 321.792105 166.703759 
L 322.117084 174.64244 
L 323.417002 189.310139 
L 323.741982 196.033943 
L 325.36688 211.339577 
L 325.691859 214.278731 
L 326.016839 219.524309 
L 326.991777 226.015923 
L 327.316757 226.62425 
L 327.641736 226.597653 
L 328.291695 226.18143 
L 328.616675 226.749151 
L 328.941654 227.933924 
L 329.266634 229.698783 
L 329.916593 235.73038 
L 330.566552 244.515532 
L 330.891532 255.591507 
L 331.86647 273.281496 
L 332.19145 283.15925 
L 332.841409 288.933718 
L 333.166388 292.225758 
L 333.491368 292.404977 
L 333.816347 292.268665 
L 334.141327 291.980201 
L 334.466306 291.068563 
L 334.791286 291.068563 
L 335.116265 289.992973 
L 336.741163 287.412331 
L 337.066143 286.976547 
L 337.391122 286.266255 
L 337.716102 286.266255 
L 338.041081 285.861536 
L 338.69104 285.743697 
L 339.665979 285.821266 
L 340.315938 286.001847 
L 340.965897 286.468533 
L 341.615856 286.925511 
L 341.940835 287.416576 
L 342.590794 287.857662 
L 342.915774 287.599849 
L 343.240753 287.697421 
L 343.565733 286.942314 
L 344.540672 281.696653 
L 345.190631 276.207652 
L 346.165569 265.382175 
L 346.490549 257.203349 
L 347.790467 238.860216 
L 348.115446 228.816388 
L 348.440426 228.816388 
L 348.765405 223.748217 
L 349.090385 221.181458 
L 350.065324 207.170229 
L 350.390303 198.541384 
L 351.365242 186.699674 
L 351.690221 184.140872 
L 352.015201 183.104343 
L 352.66516 178.597385 
L 353.965078 170.715058 
L 354.290057 166.063225 
L 355.589975 154.819225 
L 355.914955 149.419887 
L 357.214873 140.234409 
L 357.864832 136.418157 
L 358.189812 133.092377 
L 359.16475 129.092472 
L 360.464668 124.92011 
L 361.439607 123.398131 
L 362.089566 122.813675 
L 362.414545 122.617719 
L 362.739525 122.26182 
L 363.389484 121.955817 
L 364.364423 121.786983 
L 364.689402 121.815217 
L 366.3143 122.756305 
L 366.964259 123.357781 
L 367.289238 124.107802 
L 368.264177 125.636609 
L 368.589156 126.245617 
L 369.239115 127.879237 
L 369.889075 131.41037 
L 370.539034 135.06085 
L 371.188993 139.970666 
L 371.838952 146.649367 
L 372.163931 154.328751 
L 373.13887 168.860257 
L 374.113808 186.42914 
L 374.438788 199.102259 
L 376.063686 231.728756 
L 377.038624 238.021711 
L 377.688583 247.634326 
L 378.663522 263.121483 
L 378.988501 268.841273 
L 379.313481 279.141678 
L 379.96344 288.486479 
L 380.613399 289.444623 
L 381.263358 289.35222 
L 381.913317 288.907357 
L 382.888256 288.168447 
L 383.863194 287.838668 
L 384.513153 287.833746 
L 385.488092 287.85032 
L 386.78801 287.809581 
L 388.737887 287.96089 
L 390.687764 287.092128 
L 391.012744 286.814399 
L 392.312662 282.570778 
L 392.962621 278.880518 
L 393.61258 273.729545 
L 394.262539 266.857097 
L 394.587518 258.375186 
L 395.237477 246.644096 
L 395.887437 231.218443 
L 396.212416 218.951909 
L 396.537396 214.799285 
L 397.512334 190.39586 
L 397.837314 183.148916 
L 398.487273 175.523726 
L 398.487273 175.523726 
" clip-path="url(#p7afecc2bd2)" style="fill: none; stroke: #1f77b4; stroke-width: 1.5; stroke-linecap: square"/>
   </g>
   <g id="line2d_17">
    <path d="M 73.832727 171.462332 
L 74.157707 170.40691 
L 75.132645 169.121654 
L 75.782604 168.196817 
L 76.107584 167.353611 
L 77.407502 165.763093 
L 77.732482 165.763093 
L 78.057461 165.253623 
L 78.70742 164.851816 
L 79.357379 164.547614 
L 80.657297 164.00717 
L 80.982277 163.72179 
L 83.907093 162.575817 
L 85.207011 162.44039 
L 86.506929 162.526833 
L 87.156888 162.640905 
L 89.431744 164.115581 
L 90.081704 165.451927 
L 90.731663 166.984212 
L 91.381622 169.389239 
L 91.706601 170.961758 
L 92.031581 174.823743 
L 92.35656 177.085722 
L 92.68154 181.057733 
L 93.331499 185.498171 
L 93.656478 189.707808 
L 93.981458 191.872718 
L 94.631417 205.544109 
L 95.931335 224.956615 
L 96.256314 228.947838 
L 96.581294 235.916748 
L 97.556233 244.296998 
L 98.856151 253.076036 
L 99.50611 256.908078 
L 99.831089 260.252384 
L 100.806028 264.240928 
L 101.455987 266.314511 
L 101.780966 268.02187 
L 102.755905 270.025103 
L 104.055823 271.980879 
L 104.380803 270.093954 
L 104.705782 271.461192 
L 105.030762 271.668608 
L 105.355741 271.669863 
L 105.680721 271.514014 
L 106.0057 271.778796 
L 106.655659 273.156266 
L 106.980639 273.426128 
L 107.305618 273.522048 
L 107.955577 273.035325 
L 108.605536 272.307477 
L 109.255495 271.307969 
L 109.580475 271.430272 
L 109.905455 271.911204 
L 110.555414 273.409925 
L 111.205373 275.313891 
L 111.530352 275.475176 
L 111.855332 275.35434 
L 112.180311 274.98659 
L 112.83027 273.720547 
L 114.130188 270.087056 
L 114.780147 268.211719 
L 115.105127 266.474595 
L 116.730025 262.707578 
L 117.379984 261.388203 
L 117.704963 260.312737 
L 119.329861 257.957311 
L 120.954758 256.651222 
L 122.904636 255.450396 
L 123.229615 255.03579 
L 124.854513 254.030009 
L 125.179492 253.554687 
L 126.154431 252.95176 
L 126.80439 252.753511 
L 127.454349 252.702731 
L 128.429287 253.068173 
L 129.404226 253.874011 
L 129.729206 255.657409 
L 130.054185 256.353838 
L 131.029124 262.31462 
L 131.354103 266.959991 
L 133.62896 283.097404 
L 134.278919 285.345165 
L 134.928878 286.718154 
L 135.253857 286.992447 
L 135.578837 286.917414 
L 135.903817 286.505812 
L 136.228796 284.568184 
L 136.878755 281.718374 
L 137.528714 278.299531 
L 137.853694 277.503687 
L 138.178673 277.25187 
L 138.503653 277.149454 
L 138.828632 276.822835 
L 139.478591 273.826474 
L 140.12855 268.993764 
L 140.778509 261.423024 
L 141.103489 256.485062 
L 141.428468 244.598229 
L 141.753448 239.089051 
L 142.403407 211.877975 
L 143.053366 204.8193 
L 143.378346 201.817279 
L 143.703325 196.359432 
L 144.678264 189.696391 
L 146.303161 180.797291 
L 147.2781 178.315704 
L 147.928059 177.080133 
L 148.253038 175.915015 
L 149.227977 174.802608 
L 149.877936 174.406682 
L 150.202916 174.369396 
L 150.852875 174.751221 
L 151.502834 175.580587 
L 151.827813 176.369646 
L 152.477772 179.773226 
L 153.127731 183.837984 
L 153.77769 189.827906 
L 154.427649 197.268416 
L 155.077609 207.10606 
L 155.402588 219.186093 
L 156.702506 242.771542 
L 157.027486 247.684813 
L 157.352465 256.10586 
L 158.002424 262.675868 
L 158.652383 267.458982 
L 158.977363 266.383006 
L 159.302342 268.17413 
L 159.627322 271.140478 
L 159.952301 271.595152 
L 160.277281 272.908883 
L 160.92724 276.456824 
L 161.252219 277.412236 
L 161.577199 278.002711 
L 161.902179 277.942108 
L 162.227158 277.392891 
L 162.552138 277.244364 
L 163.527076 277.383209 
L 163.852056 277.16923 
L 165.151974 272.595652 
L 166.776871 265.379544 
L 167.101851 263.112938 
L 167.75181 261.286301 
L 168.726749 259.246506 
L 169.051728 258.660587 
L 169.376708 257.665431 
L 169.701687 257.665431 
L 170.026667 256.769916 
L 171.326585 255.229811 
L 171.976544 254.665389 
L 172.951482 254.20462 
L 173.926421 254.072554 
L 174.57638 254.203962 
L 175.226339 254.582057 
L 175.551319 256.126763 
L 175.876298 256.430497 
L 176.201278 260.134882 
L 176.851237 264.516989 
L 178.476134 277.827775 
L 178.801114 282.255112 
L 179.451073 285.828556 
L 180.101032 288.243435 
L 180.426011 289.025929 
L 180.750991 289.362974 
L 181.075971 289.185674 
L 181.40095 288.593127 
L 182.050909 284.307137 
L 182.375889 282.842264 
L 182.700868 281.945711 
L 183.675807 280.788856 
L 184.000786 278.756331 
L 184.325766 278.756331 
L 185.950663 255.989047 
L 186.600622 242.90407 
L 186.925602 212.193105 
L 187.575561 203.887552 
L 188.5505 194.027065 
L 188.875479 191.296589 
L 189.200459 186.707183 
L 189.850418 183.182453 
L 190.500377 180.585205 
L 191.150336 178.561202 
L 191.475315 176.864724 
L 192.450254 174.684372 
L 193.100213 173.370504 
L 193.425192 172.305484 
L 194.075152 171.52831 
L 194.400131 171.299441 
L 195.05009 171.275336 
L 195.700049 171.595885 
L 196.999967 174.751855 
L 197.324947 176.12849 
L 197.974906 183.772481 
L 199.274824 196.745746 
L 199.924783 205.880584 
L 200.249762 211.226779 
L 200.574742 222.20151 
L 201.549681 236.642193 
L 202.19964 243.981293 
L 202.849599 249.423695 
L 203.174578 253.739446 
L 203.824537 257.099003 
L 204.474496 259.53225 
L 205.449435 261.99402 
L 205.774414 260.9909 
L 206.424373 261.905395 
L 207.399312 266.665151 
L 208.049271 268.177708 
L 208.374251 267.990999 
L 209.02421 267.083793 
L 209.349189 267.043591 
L 209.674169 267.342494 
L 209.999148 267.928076 
L 210.324128 269.105133 
L 210.649107 269.476944 
L 210.974087 269.60748 
L 211.299066 269.456231 
L 211.949025 268.363003 
L 212.923964 265.450071 
L 213.573923 263.351334 
L 213.898903 261.509345 
L 214.873841 259.338466 
L 215.84878 257.848789 
L 216.498739 257.027004 
L 216.823718 256.276277 
L 217.798657 255.331631 
L 218.448616 254.908049 
L 219.423554 254.602653 
L 221.373432 254.437307 
L 222.023391 254.631215 
L 222.34837 254.834335 
L 222.67335 255.456595 
L 224.623227 266.265944 
L 224.948206 270.817234 
L 226.248124 278.343617 
L 226.898084 281.209743 
L 227.873022 284.248398 
L 228.198002 284.247519 
L 228.522981 283.894036 
L 228.847961 283.233655 
L 229.49792 280.712398 
L 230.147879 277.069674 
L 231.122817 275.435851 
L 231.447797 274.253214 
L 231.772776 272.528283 
L 232.422735 266.92187 
L 232.747715 262.791981 
L 233.072695 251.679301 
L 234.047633 230.612228 
L 234.697592 202.972047 
L 235.022572 198.293979 
L 235.347551 190.748832 
L 235.672531 190.748832 
L 235.99751 184.529581 
L 236.647469 179.67539 
L 237.622408 173.655484 
L 238.272367 172.068003 
L 239.247305 170.597959 
L 239.572285 170.220764 
L 239.897265 169.560221 
L 241.197183 168.385615 
L 242.497101 167.67611 
L 243.14706 167.699239 
L 243.797019 168.012206 
L 244.121998 168.340202 
L 244.771957 169.986174 
L 245.421916 171.349387 
L 246.071876 173.681887 
L 246.396855 175.266402 
L 246.721835 181.001081 
L 247.046814 183.038614 
L 248.021753 194.590105 
L 248.346732 203.07911 
L 249.64665 225.952446 
L 250.621589 241.829246 
L 250.946568 246.280283 
L 251.271548 253.502647 
L 252.246486 261.586449 
L 252.896446 265.397716 
L 253.221425 263.946893 
L 253.546405 267.101779 
L 253.871384 268.188366 
L 254.196364 268.818286 
L 254.521343 269.135357 
L 255.496282 273.9933 
L 255.821261 275.606727 
L 256.146241 275.732162 
L 256.47122 275.507176 
L 256.7962 275.440711 
L 257.121179 275.524375 
L 258.421097 276.567037 
L 258.746077 276.49152 
L 259.396036 275.013353 
L 259.721016 275.013353 
L 260.045995 274.299198 
L 260.370975 272.93292 
L 261.020934 271.85292 
L 261.670893 271.064046 
L 261.995872 270.738917 
L 262.320852 270.199315 
L 263.62077 269.259051 
L 264.270729 269.017055 
L 265.570647 268.830021 
L 266.545586 268.831221 
L 267.195545 268.958888 
L 268.820442 270.402309 
L 269.470401 273.343081 
L 269.795381 275.903015 
L 271.095299 281.458233 
L 273.695135 293.471792 
L 274.345094 294.944927 
L 274.670074 295.4063 
L 274.995053 295.488 
L 275.320033 295.222971 
L 275.645012 294.611752 
L 275.969992 293.636642 
L 276.619951 288.575933 
L 277.26991 283.612231 
L 278.244848 278.90059 
L 278.894808 274.991924 
L 279.544767 268.595103 
L 280.194726 252.216748 
L 280.519705 246.108569 
L 281.169664 215.244812 
L 281.819623 204.24108 
L 282.144603 194.654817 
L 283.119541 183.00565 
L 283.7695 177.636848 
L 284.419459 173.847829 
L 285.069419 171.290548 
L 285.394398 170.324926 
L 285.719378 168.742468 
L 287.019296 166.063866 
L 287.669255 164.904611 
L 287.994234 164.002801 
L 288.644193 163.438807 
L 289.294152 163.155559 
L 289.944111 163.092539 
L 290.269091 163.163286 
L 290.59407 163.348863 
L 291.569009 165.005159 
L 292.218968 166.91112 
L 292.868927 169.863402 
L 293.518886 174.143599 
L 294.168845 185.377554 
L 294.493825 188.114187 
L 294.818804 193.219351 
L 295.143784 196.520135 
L 295.468763 202.811525 
L 295.793743 206.876458 
L 296.118722 217.303219 
L 296.443702 220.223944 
L 297.41864 234.782419 
L 299.368518 260.534349 
L 299.693497 266.558857 
L 300.018477 268.797823 
L 300.343456 267.979974 
L 301.968354 275.40491 
L 302.293333 275.40491 
L 302.618313 278.244395 
L 303.268272 280.745784 
L 303.918231 281.774289 
L 304.24321 282.036898 
L 304.56819 282.094775 
L 304.89317 281.300316 
L 305.543129 280.807871 
L 306.518067 280.502353 
L 306.843047 280.110043 
L 307.168026 278.509179 
L 307.493006 278.509179 
L 307.817985 275.929572 
L 309.117903 270.422044 
L 310.092842 267.033794 
L 310.742801 266.176817 
L 311.71774 265.480409 
L 312.692678 264.938084 
L 313.017658 264.520312 
L 314.642555 263.617545 
L 315.942473 263.105314 
L 316.917412 263.208754 
L 317.242391 263.335447 
L 317.892351 264.110748 
L 318.21733 264.734155 
L 318.867289 269.880526 
L 319.192269 275.072245 
L 320.167207 281.838041 
L 320.817166 285.221687 
L 322.117084 290.953092 
L 322.767043 292.094162 
L 323.417002 292.949672 
L 323.741982 292.959159 
L 324.066962 292.725013 
L 325.0419 291.326103 
L 325.691859 289.843291 
L 326.016839 288.257819 
L 326.991777 286.164478 
L 327.316757 286.046965 
L 328.291695 286.278272 
L 328.616675 285.928374 
L 329.266634 284.555191 
L 329.591613 283.255212 
L 330.241572 279.105575 
L 330.566552 276.037618 
L 331.216511 262.174938 
L 331.86647 248.565583 
L 332.19145 232.370569 
L 332.516429 225.039304 
L 333.166388 199.049832 
L 333.816347 188.927595 
L 334.141327 184.926492 
L 334.466306 178.400336 
L 334.791286 178.400336 
L 335.116265 173.690497 
L 335.766224 170.153013 
L 336.741163 166.41972 
L 337.066143 165.385651 
L 337.391122 163.485525 
L 337.716102 163.485525 
L 338.041081 161.861002 
L 338.69104 160.859165 
L 339.01602 160.547469 
L 339.340999 160.397629 
L 339.665979 160.427358 
L 339.990958 160.644376 
L 340.315938 161.102873 
L 341.615856 166.745729 
L 341.940835 171.328934 
L 342.590794 176.462747 
L 342.915774 180.970134 
L 343.240753 183.693402 
L 343.565733 188.752196 
L 343.890713 198.484099 
L 346.815528 251.011071 
L 348.115446 266.280945 
L 348.440426 266.280945 
L 350.715283 275.662991 
L 351.690221 277.318775 
L 352.015201 278.454559 
L 352.34018 280.62852 
L 352.990139 281.922611 
L 353.640098 282.49857 
L 353.965078 282.60925 
L 355.589975 284.000686 
L 355.914955 283.689527 
L 356.239934 283.080011 
L 356.889894 281.005273 
L 357.864832 276.581108 
L 358.189812 273.636664 
L 359.16475 270.050239 
L 360.464668 266.249007 
L 362.089566 263.809482 
L 362.414545 263.401714 
L 362.739525 262.685241 
L 363.714464 261.903411 
L 365.014382 261.187393 
L 366.964259 260.865306 
L 367.614218 260.982666 
L 368.264177 261.245335 
L 368.914136 261.691176 
L 369.239115 262.014711 
L 369.889075 266.234773 
L 370.864013 272.077465 
L 371.838952 279.598084 
L 372.163931 284.275439 
L 373.13887 289.69868 
L 373.788829 291.834538 
L 374.113808 292.506008 
L 374.438788 292.24772 
L 374.763767 291.372759 
L 375.088747 290.083442 
L 375.738706 286.18991 
L 376.063686 283.182601 
L 377.038624 279.911375 
L 378.338542 263.975007 
L 378.988501 251.173556 
L 379.96344 205.893408 
L 380.288419 200.415718 
L 380.613399 191.579618 
L 381.263358 184.711893 
L 381.913317 179.889996 
L 382.888256 174.984058 
L 383.863194 173.373041 
L 384.188174 172.958133 
L 384.513153 172.331638 
L 385.488092 171.733553 
L 386.138051 171.551806 
L 386.78801 171.617463 
L 387.437969 171.983027 
L 387.762948 172.87292 
L 388.412907 173.989237 
L 388.737887 174.685068 
L 389.062867 176.480754 
L 389.712826 178.961434 
L 390.362785 182.606855 
L 391.012744 187.582879 
L 391.337723 194.370989 
L 392.312662 206.851233 
L 394.262539 236.08222 
L 394.587518 245.917951 
L 396.212416 269.552409 
L 397.187355 274.840845 
L 397.512334 275.5476 
L 397.837314 275.765479 
L 398.162293 279.322381 
L 398.487273 280.711637 
L 398.487273 280.711637 
" clip-path="url(#p7afecc2bd2)" style="fill: none; stroke: #ff7f0e; stroke-width: 1.5; stroke-linecap: square"/>
   </g>
   <g id="line2d_18">
    <path d="M 73.832727 70.640526 
L 75.132645 70.239664 
L 76.757543 69.996939 
L 84.557052 69.633393 
L 87.806847 69.712626 
L 89.106765 70.037874 
L 89.431744 70.181228 
L 90.081704 70.834467 
L 91.056642 71.811048 
L 91.706601 72.545732 
L 92.031581 73.268735 
L 92.35656 73.583292 
L 92.68154 73.60877 
L 93.331499 74.213118 
L 93.656478 74.061685 
L 93.981458 74.323586 
L 94.306437 74.359911 
L 94.631417 73.826697 
L 95.281376 73.142876 
L 96.256314 71.657154 
L 96.581294 70.554659 
L 97.556233 69.00937 
L 99.18113 66.178978 
L 99.50611 65.715685 
L 99.831089 64.852084 
L 100.806028 63.748506 
L 102.105946 62.772263 
L 102.430925 62.651423 
L 102.755905 62.734323 
L 103.080885 62.524981 
L 103.405864 62.63246 
L 103.730844 62.42394 
L 104.055823 62.353089 
L 104.380803 61.674794 
L 104.705782 62.136342 
L 105.680721 60.811188 
L 106.0057 60.870886 
L 106.655659 61.898923 
L 106.980639 62.060215 
L 107.305618 62.09293 
L 108.605536 61.202537 
L 108.930516 60.782277 
L 109.255495 60.576074 
L 109.580475 60.814945 
L 110.230434 62.1511 
L 110.880393 64.067675 
L 111.205373 65.604214 
L 111.530352 66.085459 
L 111.855332 66.324074 
L 112.180311 66.360027 
L 112.505291 66.261835 
L 113.15525 65.702753 
L 115.430106 63.122713 
L 116.730025 62.321288 
L 118.354922 61.601795 
L 119.97982 61.522038 
L 120.954758 61.539555 
L 122.254676 61.447001 
L 123.229615 61.155635 
L 124.854513 60.68842 
L 125.504472 60.308686 
L 127.454349 59.596185 
L 127.779328 59.276872 
L 129.404226 58.562029 
L 129.729206 59.129898 
L 130.054185 59.155686 
L 130.704144 60.478323 
L 131.029124 61.282148 
L 131.354103 63.181129 
L 132.979001 68.589423 
L 133.30398 70.448096 
L 134.603898 73.724369 
L 135.578837 75.834 
L 135.903817 76.32852 
L 136.228796 77.065505 
L 136.553776 77.340703 
L 137.528714 77.796769 
L 138.178673 78.173583 
L 138.828632 78.245445 
L 140.45353 76.922212 
L 141.103489 76.656396 
L 141.753448 77.434196 
L 142.078428 74.293531 
L 142.403407 74.941155 
L 143.053366 74.781003 
L 143.378346 74.81602 
L 145.003243 76.379431 
L 145.653202 77.170622 
L 145.978182 77.878778 
L 147.928059 80.158912 
L 148.253038 80.816124 
L 149.227977 81.558169 
L 150.527895 82.231659 
L 151.827813 82.558291 
L 153.452711 82.326723 
L 154.10267 81.965939 
L 154.752629 81.359478 
L 155.077609 80.905713 
L 155.727568 78.508214 
L 156.702506 75.113541 
L 157.027486 73.827195 
L 157.352465 71.164811 
L 158.977363 64.775752 
L 159.302342 64.455382 
L 159.627322 62.469136 
L 159.952301 61.494361 
L 160.277281 62.150883 
L 160.92724 64.661453 
L 161.577199 65.935002 
L 161.902179 66.046394 
L 162.227158 66.278241 
L 162.552138 66.674072 
L 164.177035 69.957071 
L 164.502015 69.814563 
L 165.151974 68.989721 
L 166.776871 65.852357 
L 167.101851 64.928479 
L 168.07679 63.931198 
L 169.051728 63.162007 
L 169.376708 62.711218 
L 169.701687 62.711218 
L 170.026667 62.254464 
L 172.301523 60.729675 
L 172.626503 60.586822 
L 173.276462 60.086628 
L 175.226339 58.805013 
L 175.551319 59.220904 
L 175.876298 59.107258 
L 176.201278 60.35996 
L 176.851237 61.937013 
L 177.501196 64.15244 
L 178.476134 68.362232 
L 178.801114 70.951195 
L 180.750991 78.631248 
L 182.050909 82.728592 
L 182.700868 83.838041 
L 183.025848 84.325864 
L 184.000786 84.920312 
L 184.325766 84.920312 
L 185.300704 84.366186 
L 185.950663 84.057348 
L 186.600622 84.45092 
L 186.925602 80.829063 
L 187.900541 78.450817 
L 188.875479 76.61952 
L 189.200459 75.574909 
L 190.500377 73.894316 
L 191.150336 73.179807 
L 191.475315 72.544414 
L 192.775233 71.504194 
L 193.750172 71.035867 
L 194.725111 71.023986 
L 195.700049 71.135611 
L 196.674988 71.39331 
L 197.324947 71.511209 
L 197.649926 71.429732 
L 199.599803 69.998243 
L 200.249762 69.102409 
L 200.574742 67.847132 
L 202.19964 63.838881 
L 202.849599 61.922878 
L 203.174578 60.041713 
L 204.474496 56.701462 
L 205.124455 55.396135 
L 205.449435 55.01333 
L 205.774414 54.145494 
L 206.099394 53.739156 
L 206.424373 53.568 
L 207.724292 57.400505 
L 208.049271 58.133103 
L 208.374251 58.199095 
L 209.02421 58.082743 
L 209.349189 58.41377 
L 209.674169 59.054456 
L 209.999148 59.962218 
L 210.324128 61.854853 
L 210.974087 63.25878 
L 211.299066 63.640217 
L 211.624046 63.765096 
L 211.949025 63.754579 
L 212.598984 63.260657 
L 213.573923 62.168149 
L 213.898903 61.545323 
L 214.873841 60.922744 
L 217.798657 59.803857 
L 219.423554 59.50012 
L 220.073514 59.378683 
L 220.723473 59.008565 
L 222.67335 58.270838 
L 224.623227 62.271603 
L 224.948206 64.218882 
L 227.223063 69.960395 
L 227.548043 70.764017 
L 227.873022 72.351947 
L 228.847961 74.168846 
L 230.472858 76.345851 
L 231.122817 76.658882 
L 231.772776 76.421791 
L 233.397674 75.221966 
L 234.047633 75.781639 
L 234.372613 72.97541 
L 234.697592 73.631206 
L 235.022572 73.36685 
L 235.347551 72.867004 
L 235.672531 72.867004 
L 235.99751 72.492637 
L 236.972449 72.056391 
L 239.247305 71.468086 
L 239.572285 71.509273 
L 239.897265 71.723219 
L 243.797019 72.38311 
L 244.121998 72.485472 
L 246.071876 73.865417 
L 246.396855 74.055923 
L 246.721835 73.979489 
L 247.046814 74.249829 
L 248.021753 73.957651 
L 248.996691 72.808105 
L 249.97163 70.8931 
L 250.946568 68.608125 
L 251.271548 66.750299 
L 253.546405 60.587923 
L 254.521343 58.875991 
L 254.846323 59.875413 
L 255.821261 63.986431 
L 256.146241 64.339931 
L 256.47122 64.474573 
L 256.7962 64.834026 
L 257.121179 65.416155 
L 258.096118 68.178673 
L 258.746077 69.644853 
L 259.071057 70.307827 
L 260.045995 70.351581 
L 260.695954 70.380302 
L 261.995872 70.83136 
L 262.320852 70.978331 
L 263.29579 70.922257 
L 264.595708 70.608968 
L 265.570647 70.45018 
L 268.495463 69.789796 
L 268.820442 69.855505 
L 269.470401 71.319072 
L 269.795381 72.581546 
L 270.770319 74.769701 
L 271.745258 77.453644 
L 272.070238 78.511628 
L 272.720197 79.782688 
L 273.045176 81.049784 
L 273.695135 82.465411 
L 274.995053 84.762298 
L 275.645012 85.204086 
L 275.969992 85.235724 
L 276.619951 84.634882 
L 277.26991 83.87351 
L 277.919869 83.243503 
L 278.569828 82.041701 
L 279.219787 80.174659 
L 279.544767 79.040537 
L 279.869746 76.486176 
L 280.519705 74.64541 
L 280.844685 70.130501 
L 281.819623 67.99911 
L 282.144603 66.567165 
L 283.119541 64.852763 
L 283.7695 64.035301 
L 285.069419 63.379016 
L 285.719378 63.245347 
L 286.694316 63.359132 
L 288.319214 63.866358 
L 289.944111 64.501681 
L 290.59407 64.855035 
L 290.91905 65.269517 
L 291.569009 65.808754 
L 292.543948 67.039657 
L 293.518886 68.577836 
L 293.843866 69.465594 
L 294.168845 69.571528 
L 294.493825 69.985727 
L 294.818804 70.017277 
L 295.143784 70.455902 
L 295.468763 70.289315 
L 295.793743 70.649824 
L 296.118722 69.983127 
L 296.443702 70.300153 
L 298.0686 68.569294 
L 299.368518 66.428125 
L 299.693497 65.304783 
L 300.343456 64.235733 
L 300.668436 64.54996 
L 300.993415 64.294214 
L 301.643374 64.138636 
L 301.968354 63.93281 
L 302.293333 63.93281 
L 302.618313 66.139417 
L 303.268272 68.448721 
L 303.918231 69.680379 
L 304.56819 70.553851 
L 304.89317 70.668349 
L 305.218149 70.910222 
L 305.543129 71.350521 
L 306.843047 73.880937 
L 307.493006 73.983218 
L 308.142965 72.389622 
L 309.117903 70.59302 
L 309.767862 69.853437 
L 310.092842 69.525471 
L 310.742801 69.422528 
L 311.71774 69.485419 
L 312.692678 69.301843 
L 313.342637 68.821425 
L 314.967535 67.854062 
L 315.617494 67.039276 
L 317.242391 65.654527 
L 317.567371 64.85288 
L 317.892351 64.557056 
L 318.21733 64.475064 
L 318.867289 66.816822 
L 319.192269 69.520466 
L 320.492187 74.682251 
L 321.467125 76.713558 
L 321.792105 77.562364 
L 322.117084 79.011716 
L 323.417002 81.937395 
L 323.741982 82.979264 
L 324.716921 84.064331 
L 325.36688 84.41966 
L 325.691859 84.482298 
L 326.341818 85.011308 
L 327.966716 85.765894 
L 328.941654 85.464013 
L 329.591613 85.592912 
L 330.566552 85.610358 
L 330.891532 85.781456 
L 331.541491 85.786924 
L 331.86647 85.731119 
L 332.19145 85.497864 
L 332.516429 85.472262 
L 332.841409 82.81483 
L 333.166388 82.714904 
L 334.466306 79.086396 
L 334.791286 79.086396 
L 335.116265 77.964011 
L 336.416183 76.116662 
L 337.391122 74.873553 
L 337.716102 74.873553 
L 338.041081 74.691635 
L 339.01602 74.789784 
L 342.265815 75.304891 
L 342.590794 75.544944 
L 342.915774 75.299606 
L 343.240753 75.518133 
L 343.890713 74.867232 
L 344.540672 74.244236 
L 345.190631 73.372643 
L 346.165569 71.740343 
L 346.490549 70.667151 
L 347.790467 68.574964 
L 348.115446 67.575978 
L 348.440426 67.575978 
L 348.765405 66.485862 
L 349.090385 66.684247 
L 349.415364 66.160425 
L 350.715283 65.056265 
L 351.365242 64.991388 
L 351.690221 65.458853 
L 352.015201 66.418982 
L 352.34018 68.328135 
L 352.990139 69.529148 
L 353.640098 70.202351 
L 353.965078 70.430882 
L 355.264996 73.340671 
L 355.914955 75.143876 
L 356.239934 75.237934 
L 356.564914 75.053312 
L 356.889894 74.632592 
L 357.864832 72.558027 
L 358.189812 71.220596 
L 358.839771 70.230818 
L 359.48973 69.505689 
L 359.814709 69.354571 
L 361.114627 68.308327 
L 362.414545 67.532798 
L 362.739525 67.161195 
L 365.339361 66.062179 
L 366.964259 65.256888 
L 367.289238 64.922985 
L 369.239115 64.012747 
L 369.889075 65.713847 
L 370.539034 67.236905 
L 371.188993 69.341668 
L 371.838952 71.882529 
L 372.163931 74.501559 
L 373.463849 78.992988 
L 374.113808 81.116155 
L 374.438788 82.752784 
L 375.088747 83.88614 
L 375.738706 84.571696 
L 376.063686 85.150287 
L 376.713645 85.394792 
L 377.038624 85.35631 
L 377.688583 84.530967 
L 378.988501 83.316967 
L 379.313481 83.321826 
L 379.63846 80.065599 
L 379.96344 80.099047 
L 380.288419 79.34843 
L 380.613399 78.176148 
L 381.263358 77.380221 
L 382.563276 76.172537 
L 383.213235 75.782631 
L 384.188174 75.601248 
L 385.163112 75.727879 
L 387.437969 75.766199 
L 387.762948 75.867998 
L 388.737887 75.69826 
L 389.387846 75.37271 
L 390.687764 74.947968 
L 391.012744 74.868091 
L 392.637641 73.75957 
L 393.61258 72.603264 
L 394.262539 71.694906 
L 394.912498 70.179857 
L 395.887437 68.001692 
L 396.212416 66.152001 
L 396.537396 66.183234 
L 396.862375 65.337045 
L 397.837314 64.058625 
L 398.162293 67.095314 
L 398.487273 68.402944 
L 398.487273 68.402944 
" clip-path="url(#p7afecc2bd2)" style="fill: none; stroke: #2ca02c; stroke-width: 1.5; stroke-linecap: square"/>
   </g>
   <g id="patch_3">
    <path d="M 57.6 307.584 
L 57.6 41.472 
" style="fill: none; stroke: #000000; stroke-width: 0.8; stroke-linejoin: miter; stroke-linecap: square"/>
   </g>
   <g id="patch_4">
    <path d="M 414.72 307.584 
L 414.72 41.472 
" style="fill: none; stroke: #000000; stroke-width: 0.8; stroke-linejoin: miter; stroke-linecap: square"/>
   </g>
   <g id="patch_5">
    <path d="M 57.6 307.584 
L 414.72 307.584 
" style="fill: none; stroke: #000000; stroke-width: 0.8; stroke-linejoin: miter; stroke-linecap: square"/>
   </g>
   <g id="patch_6">
    <path d="M 57.6 41.472 
L 414.72 41.472 
" style="fill: none; stroke: #000000; stroke-width: 0.8; stroke-linejoin: miter; stroke-linecap: square"/>
   </g>
   <g id="text_18">
    <!-- Change in rotation components for moving the head sideways starting from right -->
    <g transform="translate(-69.210703 35.472)scale(0.15 -0.15)">
     <defs>
      <path id="DejaVuSans-43" d="M 4122 4306 
L 4122 3641 
Q 3803 3938 3442 4084 
Q 3081 4231 2675 4231 
Q 1875 4231 1450 3742 
Q 1025 3253 1025 2328 
Q 1025 1406 1450 917 
Q 1875 428 2675 428 
Q 3081 428 3442 575 
Q 3803 722 4122 1019 
L 4122 359 
Q 3791 134 3420 21 
Q 3050 -91 2638 -91 
Q 1578 -91 968 557 
Q 359 1206 359 2328 
Q 359 3453 968 4101 
Q 1578 4750 2638 4750 
Q 3056 4750 3426 4639 
Q 3797 4528 4122 4306 
z
" transform="scale(0.015625)"/>
      <path id="DejaVuSans-68" d="M 3513 2113 
L 3513 0 
L 2938 0 
L 2938 2094 
Q 2938 2591 2744 2837 
Q 2550 3084 2163 3084 
Q 1697 3084 1428 2787 
Q 1159 2491 1159 1978 
L 1159 0 
L 581 0 
L 581 4863 
L 1159 4863 
L 1159 2956 
Q 1366 3272 1645 3428 
Q 1925 3584 2291 3584 
Q 2894 3584 3203 3211 
Q 3513 2838 3513 2113 
z
" transform="scale(0.015625)"/>
      <path id="DejaVuSans-20" transform="scale(0.015625)"/>
      <path id="DejaVuSans-72" d="M 2631 2963 
Q 2534 3019 2420 3045 
Q 2306 3072 2169 3072 
Q 1681 3072 1420 2755 
Q 1159 2438 1159 1844 
L 1159 0 
L 581 0 
L 581 3500 
L 1159 3500 
L 1159 2956 
Q 1341 3275 1631 3429 
Q 1922 3584 2338 3584 
Q 2397 3584 2469 3576 
Q 2541 3569 2628 3553 
L 2631 2963 
z
" transform="scale(0.015625)"/>
      <path id="DejaVuSans-6f" d="M 1959 3097 
Q 1497 3097 1228 2736 
Q 959 2375 959 1747 
Q 959 1119 1226 758 
Q 1494 397 1959 397 
Q 2419 397 2687 759 
Q 2956 1122 2956 1747 
Q 2956 2369 2687 2733 
Q 2419 3097 1959 3097 
z
M 1959 3584 
Q 2709 3584 3137 3096 
Q 3566 2609 3566 1747 
Q 3566 888 3137 398 
Q 2709 -91 1959 -91 
Q 1206 -91 779 398 
Q 353 888 353 1747 
Q 353 2609 779 3096 
Q 1206 3584 1959 3584 
z
" transform="scale(0.015625)"/>
      <path id="DejaVuSans-63" d="M 3122 3366 
L 3122 2828 
Q 2878 2963 2633 3030 
Q 2388 3097 2138 3097 
Q 1578 3097 1268 2742 
Q 959 2388 959 1747 
Q 959 1106 1268 751 
Q 1578 397 2138 397 
Q 2388 397 2633 464 
Q 2878 531 3122 666 
L 3122 134 
Q 2881 22 2623 -34 
Q 2366 -91 2075 -91 
Q 1284 -91 818 406 
Q 353 903 353 1747 
Q 353 2603 823 3093 
Q 1294 3584 2113 3584 
Q 2378 3584 2631 3529 
Q 2884 3475 3122 3366 
z
" transform="scale(0.015625)"/>
      <path id="DejaVuSans-66" d="M 2375 4863 
L 2375 4384 
L 1825 4384 
Q 1516 4384 1395 4259 
Q 1275 4134 1275 3809 
L 1275 3500 
L 2222 3500 
L 2222 3053 
L 1275 3053 
L 1275 0 
L 697 0 
L 697 3053 
L 147 3053 
L 147 3500 
L 697 3500 
L 697 3744 
Q 697 4328 969 4595 
Q 1241 4863 1831 4863 
L 2375 4863 
z
" transform="scale(0.015625)"/>
      <path id="DejaVuSans-76" d="M 191 3500 
L 800 3500 
L 1894 563 
L 2988 3500 
L 3597 3500 
L 2284 0 
L 1503 0 
L 191 3500 
z
" transform="scale(0.015625)"/>
      <path id="DejaVuSans-77" d="M 269 3500 
L 844 3500 
L 1563 769 
L 2278 3500 
L 2956 3500 
L 3675 769 
L 4391 3500 
L 4966 3500 
L 4050 0 
L 3372 0 
L 2619 2869 
L 1863 0 
L 1184 0 
L 269 3500 
z
" transform="scale(0.015625)"/>
      <path id="DejaVuSans-79" d="M 2059 -325 
Q 1816 -950 1584 -1140 
Q 1353 -1331 966 -1331 
L 506 -1331 
L 506 -850 
L 844 -850 
Q 1081 -850 1212 -737 
Q 1344 -625 1503 -206 
L 1606 56 
L 191 3500 
L 800 3500 
L 1894 763 
L 2988 3500 
L 3597 3500 
L 2059 -325 
z
" transform="scale(0.015625)"/>
     </defs>
     <use xlink:href="#DejaVuSans-43"/>
     <use xlink:href="#DejaVuSans-68" x="69.824219"/>
     <use xlink:href="#DejaVuSans-61" x="133.203125"/>
     <use xlink:href="#DejaVuSans-6e" x="194.482422"/>
     <use xlink:href="#DejaVuSans-67" x="257.861328"/>
     <use xlink:href="#DejaVuSans-65" x="321.337891"/>
     <use xlink:href="#DejaVuSans-20" x="382.861328"/>
     <use xlink:href="#DejaVuSans-69" x="414.648438"/>
     <use xlink:href="#DejaVuSans-6e" x="442.431641"/>
     <use xlink:href="#DejaVuSans-20" x="505.810547"/>
     <use xlink:href="#DejaVuSans-72" x="537.597656"/>
     <use xlink:href="#DejaVuSans-6f" x="576.460938"/>
     <use xlink:href="#DejaVuSans-74" x="637.642578"/>
     <use xlink:href="#DejaVuSans-61" x="676.851562"/>
     <use xlink:href="#DejaVuSans-74" x="738.130859"/>
     <use xlink:href="#DejaVuSans-69" x="777.339844"/>
     <use xlink:href="#DejaVuSans-6f" x="805.123047"/>
     <use xlink:href="#DejaVuSans-6e" x="866.304688"/>
     <use xlink:href="#DejaVuSans-20" x="929.683594"/>
     <use xlink:href="#DejaVuSans-63" x="961.470703"/>
     <use xlink:href="#DejaVuSans-6f" x="1016.451172"/>
     <use xlink:href="#DejaVuSans-6d" x="1077.632812"/>
     <use xlink:href="#DejaVuSans-70" x="1175.044922"/>
     <use xlink:href="#DejaVuSans-6f" x="1238.521484"/>
     <use xlink:href="#DejaVuSans-6e" x="1299.703125"/>
     <use xlink:href="#DejaVuSans-65" x="1363.082031"/>
     <use xlink:href="#DejaVuSans-6e" x="1424.605469"/>
     <use xlink:href="#DejaVuSans-74" x="1487.984375"/>
     <use xlink:href="#DejaVuSans-73" x="1527.193359"/>
     <use xlink:href="#DejaVuSans-20" x="1579.292969"/>
     <use xlink:href="#DejaVuSans-66" x="1611.080078"/>
     <use xlink:href="#DejaVuSans-6f" x="1646.285156"/>
     <use xlink:href="#DejaVuSans-72" x="1707.466797"/>
     <use xlink:href="#DejaVuSans-20" x="1748.580078"/>
     <use xlink:href="#DejaVuSans-6d" x="1780.367188"/>
     <use xlink:href="#DejaVuSans-6f" x="1877.779297"/>
     <use xlink:href="#DejaVuSans-76" x="1938.960938"/>
     <use xlink:href="#DejaVuSans-69" x="1998.140625"/>
     <use xlink:href="#DejaVuSans-6e" x="2025.923828"/>
     <use xlink:href="#DejaVuSans-67" x="2089.302734"/>
     <use xlink:href="#DejaVuSans-20" x="2152.779297"/>
     <use xlink:href="#DejaVuSans-74" x="2184.566406"/>
     <use xlink:href="#DejaVuSans-68" x="2223.775391"/>
     <use xlink:href="#DejaVuSans-65" x="2287.154297"/>
     <use xlink:href="#DejaVuSans-20" x="2348.677734"/>
     <use xlink:href="#DejaVuSans-68" x="2380.464844"/>
     <use xlink:href="#DejaVuSans-65" x="2443.84375"/>
     <use xlink:href="#DejaVuSans-61" x="2505.367188"/>
     <use xlink:href="#DejaVuSans-64" x="2566.646484"/>
     <use xlink:href="#DejaVuSans-20" x="2630.123047"/>
     <use xlink:href="#DejaVuSans-73" x="2661.910156"/>
     <use xlink:href="#DejaVuSans-69" x="2714.009766"/>
     <use xlink:href="#DejaVuSans-64" x="2741.792969"/>
     <use xlink:href="#DejaVuSans-65" x="2805.269531"/>
     <use xlink:href="#DejaVuSans-77" x="2866.792969"/>
     <use xlink:href="#DejaVuSans-61" x="2948.580078"/>
     <use xlink:href="#DejaVuSans-79" x="3009.859375"/>
     <use xlink:href="#DejaVuSans-73" x="3069.039062"/>
     <use xlink:href="#DejaVuSans-20" x="3121.138672"/>
     <use xlink:href="#DejaVuSans-73" x="3152.925781"/>
     <use xlink:href="#DejaVuSans-74" x="3205.025391"/>
     <use xlink:href="#DejaVuSans-61" x="3244.234375"/>
     <use xlink:href="#DejaVuSans-72" x="3305.513672"/>
     <use xlink:href="#DejaVuSans-74" x="3346.626953"/>
     <use xlink:href="#DejaVuSans-69" x="3385.835938"/>
     <use xlink:href="#DejaVuSans-6e" x="3413.619141"/>
     <use xlink:href="#DejaVuSans-67" x="3476.998047"/>
     <use xlink:href="#DejaVuSans-20" x="3540.474609"/>
     <use xlink:href="#DejaVuSans-66" x="3572.261719"/>
     <use xlink:href="#DejaVuSans-72" x="3607.466797"/>
     <use xlink:href="#DejaVuSans-6f" x="3646.330078"/>
     <use xlink:href="#DejaVuSans-6d" x="3707.511719"/>
     <use xlink:href="#DejaVuSans-20" x="3804.923828"/>
     <use xlink:href="#DejaVuSans-72" x="3836.710938"/>
     <use xlink:href="#DejaVuSans-69" x="3877.824219"/>
     <use xlink:href="#DejaVuSans-67" x="3905.607422"/>
     <use xlink:href="#DejaVuSans-68" x="3969.083984"/>
     <use xlink:href="#DejaVuSans-74" x="4032.462891"/>
    </g>
   </g>
   <g id="legend_1">
    <g id="patch_7">
     <path d="M 351.134063 198.045187 
L 407.72 198.045187 
Q 409.72 198.045187 409.72 196.045187 
L 409.72 153.010812 
Q 409.72 151.010812 407.72 151.010812 
L 351.134063 151.010812 
Q 349.134063 151.010812 349.134063 153.010812 
L 349.134063 196.045187 
Q 349.134063 198.045187 351.134063 198.045187 
z
" style="fill: #ffffff; opacity: 0.8; stroke: #cccccc; stroke-linejoin: miter"/>
    </g>
    <g id="line2d_19">
     <path d="M 353.134063 159.10925 
L 363.134063 159.10925 
L 373.134063 159.10925 
" style="fill: none; stroke: #1f77b4; stroke-width: 1.5; stroke-linecap: square"/>
    </g>
    <g id="text_19">
     <!-- idx 0 -->
     <g transform="translate(381.134063 162.60925)scale(0.1 -0.1)">
      <defs>
       <path id="DejaVuSans-78" d="M 3513 3500 
L 2247 1797 
L 3578 0 
L 2900 0 
L 1881 1375 
L 863 0 
L 184 0 
L 1544 1831 
L 300 3500 
L 978 3500 
L 1906 2253 
L 2834 3500 
L 3513 3500 
z
" transform="scale(0.015625)"/>
      </defs>
      <use xlink:href="#DejaVuSans-69"/>
      <use xlink:href="#DejaVuSans-64" x="27.783203"/>
      <use xlink:href="#DejaVuSans-78" x="91.259766"/>
      <use xlink:href="#DejaVuSans-20" x="150.439453"/>
      <use xlink:href="#DejaVuSans-30" x="182.226562"/>
     </g>
    </g>
    <g id="line2d_20">
     <path d="M 353.134063 173.787375 
L 363.134063 173.787375 
L 373.134063 173.787375 
" style="fill: none; stroke: #ff7f0e; stroke-width: 1.5; stroke-linecap: square"/>
    </g>
    <g id="text_20">
     <!-- idx 1 -->
     <g transform="translate(381.134063 177.287375)scale(0.1 -0.1)">
      <use xlink:href="#DejaVuSans-69"/>
      <use xlink:href="#DejaVuSans-64" x="27.783203"/>
      <use xlink:href="#DejaVuSans-78" x="91.259766"/>
      <use xlink:href="#DejaVuSans-20" x="150.439453"/>
      <use xlink:href="#DejaVuSans-31" x="182.226562"/>
     </g>
    </g>
    <g id="line2d_21">
     <path d="M 353.134063 188.4655 
L 363.134063 188.4655 
L 373.134063 188.4655 
" style="fill: none; stroke: #2ca02c; stroke-width: 1.5; stroke-linecap: square"/>
    </g>
    <g id="text_21">
     <!-- idx 2 -->
     <g transform="translate(381.134063 191.9655)scale(0.1 -0.1)">
      <use xlink:href="#DejaVuSans-69"/>
      <use xlink:href="#DejaVuSans-64" x="27.783203"/>
      <use xlink:href="#DejaVuSans-78" x="91.259766"/>
      <use xlink:href="#DejaVuSans-20" x="150.439453"/>
      <use xlink:href="#DejaVuSans-32" x="182.226562"/>
     </g>
    </g>
   </g>
  </g>
 </g>
 <defs>
  <clipPath id="p7afecc2bd2">
   <rect x="57.6" y="41.472" width="357.12" height="266.112"/>
  </clipPath>
 </defs>
</svg>
