<?xml version="1.0" encoding="utf-8" standalone="no"?>
<!DOCTYPE svg PUBLIC "-//W3C//DTD SVG 1.1//EN"
  "http://www.w3.org/Graphics/SVG/1.1/DTD/svg11.dtd">
<svg xmlns:xlink="http://www.w3.org/1999/xlink" width="460.8pt" height="345.6pt" viewBox="0 0 460.8 345.6" xmlns="http://www.w3.org/2000/svg" version="1.1">
 <metadata>
  <rdf:RDF xmlns:dc="http://purl.org/dc/elements/1.1/" xmlns:cc="http://creativecommons.org/ns#" xmlns:rdf="http://www.w3.org/1999/02/22-rdf-syntax-ns#">
   <cc:Work>
    <dc:type rdf:resource="http://purl.org/dc/dcmitype/StillImage"/>
    <dc:date>2024-02-07T11:42:49.421685</dc:date>
    <dc:format>image/svg+xml</dc:format>
    <dc:creator>
     <cc:Agent>
      <dc:title>Matplotlib v3.5.0, https://matplotlib.org/</dc:title>
     </cc:Agent>
    </dc:creator>
   </cc:Work>
  </rdf:RDF>
 </metadata>
 <defs>
  <style type="text/css">*{stroke-linejoin: round; stroke-linecap: butt}</style>
 </defs>
 <g id="figure_1">
  <g id="patch_1">
   <path d="M 0 345.6 
L 460.8 345.6 
L 460.8 0 
L 0 0 
z
" style="fill: #ffffff"/>
  </g>
  <g id="axes_1">
   <g id="patch_2">
    <path d="M 57.6 307.584 
L 414.72 307.584 
L 414.72 41.472 
L 57.6 41.472 
z
" style="fill: #ffffff"/>
   </g>
   <g id="matplotlib.axis_1">
    <g id="xtick_1">
     <g id="line2d_1">
      <defs>
       <path id="m8cbe99f97f" d="M 0 0 
L 0 3.5 
" style="stroke: #000000; stroke-width: 0.8"/>
      </defs>
      <g>
       <use xlink:href="#m8cbe99f97f" x="73.832727" y="307.584" style="stroke: #000000; stroke-width: 0.8"/>
      </g>
     </g>
     <g id="text_1">
      <!-- 0 -->
      <g transform="translate(70.651477 322.182437)scale(0.1 -0.1)">
       <defs>
        <path id="DejaVuSans-30" d="M 2034 4250 
Q 1547 4250 1301 3770 
Q 1056 3291 1056 2328 
Q 1056 1369 1301 889 
Q 1547 409 2034 409 
Q 2525 409 2770 889 
Q 3016 1369 3016 2328 
Q 3016 3291 2770 3770 
Q 2525 4250 2034 4250 
z
M 2034 4750 
Q 2819 4750 3233 4129 
Q 3647 3509 3647 2328 
Q 3647 1150 3233 529 
Q 2819 -91 2034 -91 
Q 1250 -91 836 529 
Q 422 1150 422 2328 
Q 422 3509 836 4129 
Q 1250 4750 2034 4750 
z
" transform="scale(0.015625)"/>
       </defs>
       <use xlink:href="#DejaVuSans-30"/>
      </g>
     </g>
    </g>
    <g id="xtick_2">
     <g id="line2d_2">
      <g>
       <use xlink:href="#m8cbe99f97f" x="138.828632" y="307.584" style="stroke: #000000; stroke-width: 0.8"/>
      </g>
     </g>
     <g id="text_2">
      <!-- 200 -->
      <g transform="translate(129.284882 322.182437)scale(0.1 -0.1)">
       <defs>
        <path id="DejaVuSans-32" d="M 1228 531 
L 3431 531 
L 3431 0 
L 469 0 
L 469 531 
Q 828 903 1448 1529 
Q 2069 2156 2228 2338 
Q 2531 2678 2651 2914 
Q 2772 3150 2772 3378 
Q 2772 3750 2511 3984 
Q 2250 4219 1831 4219 
Q 1534 4219 1204 4116 
Q 875 4013 500 3803 
L 500 4441 
Q 881 4594 1212 4672 
Q 1544 4750 1819 4750 
Q 2544 4750 2975 4387 
Q 3406 4025 3406 3419 
Q 3406 3131 3298 2873 
Q 3191 2616 2906 2266 
Q 2828 2175 2409 1742 
Q 1991 1309 1228 531 
z
" transform="scale(0.015625)"/>
       </defs>
       <use xlink:href="#DejaVuSans-32"/>
       <use xlink:href="#DejaVuSans-30" x="63.623047"/>
       <use xlink:href="#DejaVuSans-30" x="127.246094"/>
      </g>
     </g>
    </g>
    <g id="xtick_3">
     <g id="line2d_3">
      <g>
       <use xlink:href="#m8cbe99f97f" x="203.824537" y="307.584" style="stroke: #000000; stroke-width: 0.8"/>
      </g>
     </g>
     <g id="text_3">
      <!-- 400 -->
      <g transform="translate(194.280787 322.182437)scale(0.1 -0.1)">
       <defs>
        <path id="DejaVuSans-34" d="M 2419 4116 
L 825 1625 
L 2419 1625 
L 2419 4116 
z
M 2253 4666 
L 3047 4666 
L 3047 1625 
L 3713 1625 
L 3713 1100 
L 3047 1100 
L 3047 0 
L 2419 0 
L 2419 1100 
L 313 1100 
L 313 1709 
L 2253 4666 
z
" transform="scale(0.015625)"/>
       </defs>
       <use xlink:href="#DejaVuSans-34"/>
       <use xlink:href="#DejaVuSans-30" x="63.623047"/>
       <use xlink:href="#DejaVuSans-30" x="127.246094"/>
      </g>
     </g>
    </g>
    <g id="xtick_4">
     <g id="line2d_4">
      <g>
       <use xlink:href="#m8cbe99f97f" x="268.820442" y="307.584" style="stroke: #000000; stroke-width: 0.8"/>
      </g>
     </g>
     <g id="text_4">
      <!-- 600 -->
      <g transform="translate(259.276692 322.182437)scale(0.1 -0.1)">
       <defs>
        <path id="DejaVuSans-36" d="M 2113 2584 
Q 1688 2584 1439 2293 
Q 1191 2003 1191 1497 
Q 1191 994 1439 701 
Q 1688 409 2113 409 
Q 2538 409 2786 701 
Q 3034 994 3034 1497 
Q 3034 2003 2786 2293 
Q 2538 2584 2113 2584 
z
M 3366 4563 
L 3366 3988 
Q 3128 4100 2886 4159 
Q 2644 4219 2406 4219 
Q 1781 4219 1451 3797 
Q 1122 3375 1075 2522 
Q 1259 2794 1537 2939 
Q 1816 3084 2150 3084 
Q 2853 3084 3261 2657 
Q 3669 2231 3669 1497 
Q 3669 778 3244 343 
Q 2819 -91 2113 -91 
Q 1303 -91 875 529 
Q 447 1150 447 2328 
Q 447 3434 972 4092 
Q 1497 4750 2381 4750 
Q 2619 4750 2861 4703 
Q 3103 4656 3366 4563 
z
" transform="scale(0.015625)"/>
       </defs>
       <use xlink:href="#DejaVuSans-36"/>
       <use xlink:href="#DejaVuSans-30" x="63.623047"/>
       <use xlink:href="#DejaVuSans-30" x="127.246094"/>
      </g>
     </g>
    </g>
    <g id="xtick_5">
     <g id="line2d_5">
      <g>
       <use xlink:href="#m8cbe99f97f" x="333.816347" y="307.584" style="stroke: #000000; stroke-width: 0.8"/>
      </g>
     </g>
     <g id="text_5">
      <!-- 800 -->
      <g transform="translate(324.272597 322.182437)scale(0.1 -0.1)">
       <defs>
        <path id="DejaVuSans-38" d="M 2034 2216 
Q 1584 2216 1326 1975 
Q 1069 1734 1069 1313 
Q 1069 891 1326 650 
Q 1584 409 2034 409 
Q 2484 409 2743 651 
Q 3003 894 3003 1313 
Q 3003 1734 2745 1975 
Q 2488 2216 2034 2216 
z
M 1403 2484 
Q 997 2584 770 2862 
Q 544 3141 544 3541 
Q 544 4100 942 4425 
Q 1341 4750 2034 4750 
Q 2731 4750 3128 4425 
Q 3525 4100 3525 3541 
Q 3525 3141 3298 2862 
Q 3072 2584 2669 2484 
Q 3125 2378 3379 2068 
Q 3634 1759 3634 1313 
Q 3634 634 3220 271 
Q 2806 -91 2034 -91 
Q 1263 -91 848 271 
Q 434 634 434 1313 
Q 434 1759 690 2068 
Q 947 2378 1403 2484 
z
M 1172 3481 
Q 1172 3119 1398 2916 
Q 1625 2713 2034 2713 
Q 2441 2713 2670 2916 
Q 2900 3119 2900 3481 
Q 2900 3844 2670 4047 
Q 2441 4250 2034 4250 
Q 1625 4250 1398 4047 
Q 1172 3844 1172 3481 
z
" transform="scale(0.015625)"/>
       </defs>
       <use xlink:href="#DejaVuSans-38"/>
       <use xlink:href="#DejaVuSans-30" x="63.623047"/>
       <use xlink:href="#DejaVuSans-30" x="127.246094"/>
      </g>
     </g>
    </g>
    <g id="xtick_6">
     <g id="line2d_6">
      <g>
       <use xlink:href="#m8cbe99f97f" x="398.812252" y="307.584" style="stroke: #000000; stroke-width: 0.8"/>
      </g>
     </g>
     <g id="text_6">
      <!-- 1000 -->
      <g transform="translate(386.087252 322.182437)scale(0.1 -0.1)">
       <defs>
        <path id="DejaVuSans-31" d="M 794 531 
L 1825 531 
L 1825 4091 
L 703 3866 
L 703 4441 
L 1819 4666 
L 2450 4666 
L 2450 531 
L 3481 531 
L 3481 0 
L 794 0 
L 794 531 
z
" transform="scale(0.015625)"/>
       </defs>
       <use xlink:href="#DejaVuSans-31"/>
       <use xlink:href="#DejaVuSans-30" x="63.623047"/>
       <use xlink:href="#DejaVuSans-30" x="127.246094"/>
       <use xlink:href="#DejaVuSans-30" x="190.869141"/>
      </g>
     </g>
    </g>
    <g id="text_7">
     <!-- Timestamps -->
     <g transform="translate(190.392422 339.659781)scale(0.15 -0.15)">
      <defs>
       <path id="DejaVuSans-54" d="M -19 4666 
L 3928 4666 
L 3928 4134 
L 2272 4134 
L 2272 0 
L 1638 0 
L 1638 4134 
L -19 4134 
L -19 4666 
z
" transform="scale(0.015625)"/>
       <path id="DejaVuSans-69" d="M 603 3500 
L 1178 3500 
L 1178 0 
L 603 0 
L 603 3500 
z
M 603 4863 
L 1178 4863 
L 1178 4134 
L 603 4134 
L 603 4863 
z
" transform="scale(0.015625)"/>
       <path id="DejaVuSans-6d" d="M 3328 2828 
Q 3544 3216 3844 3400 
Q 4144 3584 4550 3584 
Q 5097 3584 5394 3201 
Q 5691 2819 5691 2113 
L 5691 0 
L 5113 0 
L 5113 2094 
Q 5113 2597 4934 2840 
Q 4756 3084 4391 3084 
Q 3944 3084 3684 2787 
Q 3425 2491 3425 1978 
L 3425 0 
L 2847 0 
L 2847 2094 
Q 2847 2600 2669 2842 
Q 2491 3084 2119 3084 
Q 1678 3084 1418 2786 
Q 1159 2488 1159 1978 
L 1159 0 
L 581 0 
L 581 3500 
L 1159 3500 
L 1159 2956 
Q 1356 3278 1631 3431 
Q 1906 3584 2284 3584 
Q 2666 3584 2933 3390 
Q 3200 3197 3328 2828 
z
" transform="scale(0.015625)"/>
       <path id="DejaVuSans-65" d="M 3597 1894 
L 3597 1613 
L 953 1613 
Q 991 1019 1311 708 
Q 1631 397 2203 397 
Q 2534 397 2845 478 
Q 3156 559 3463 722 
L 3463 178 
Q 3153 47 2828 -22 
Q 2503 -91 2169 -91 
Q 1331 -91 842 396 
Q 353 884 353 1716 
Q 353 2575 817 3079 
Q 1281 3584 2069 3584 
Q 2775 3584 3186 3129 
Q 3597 2675 3597 1894 
z
M 3022 2063 
Q 3016 2534 2758 2815 
Q 2500 3097 2075 3097 
Q 1594 3097 1305 2825 
Q 1016 2553 972 2059 
L 3022 2063 
z
" transform="scale(0.015625)"/>
       <path id="DejaVuSans-73" d="M 2834 3397 
L 2834 2853 
Q 2591 2978 2328 3040 
Q 2066 3103 1784 3103 
Q 1356 3103 1142 2972 
Q 928 2841 928 2578 
Q 928 2378 1081 2264 
Q 1234 2150 1697 2047 
L 1894 2003 
Q 2506 1872 2764 1633 
Q 3022 1394 3022 966 
Q 3022 478 2636 193 
Q 2250 -91 1575 -91 
Q 1294 -91 989 -36 
Q 684 19 347 128 
L 347 722 
Q 666 556 975 473 
Q 1284 391 1588 391 
Q 1994 391 2212 530 
Q 2431 669 2431 922 
Q 2431 1156 2273 1281 
Q 2116 1406 1581 1522 
L 1381 1569 
Q 847 1681 609 1914 
Q 372 2147 372 2553 
Q 372 3047 722 3315 
Q 1072 3584 1716 3584 
Q 2034 3584 2315 3537 
Q 2597 3491 2834 3397 
z
" transform="scale(0.015625)"/>
       <path id="DejaVuSans-74" d="M 1172 4494 
L 1172 3500 
L 2356 3500 
L 2356 3053 
L 1172 3053 
L 1172 1153 
Q 1172 725 1289 603 
Q 1406 481 1766 481 
L 2356 481 
L 2356 0 
L 1766 0 
Q 1100 0 847 248 
Q 594 497 594 1153 
L 594 3053 
L 172 3053 
L 172 3500 
L 594 3500 
L 594 4494 
L 1172 4494 
z
" transform="scale(0.015625)"/>
       <path id="DejaVuSans-61" d="M 2194 1759 
Q 1497 1759 1228 1600 
Q 959 1441 959 1056 
Q 959 750 1161 570 
Q 1363 391 1709 391 
Q 2188 391 2477 730 
Q 2766 1069 2766 1631 
L 2766 1759 
L 2194 1759 
z
M 3341 1997 
L 3341 0 
L 2766 0 
L 2766 531 
Q 2569 213 2275 61 
Q 1981 -91 1556 -91 
Q 1019 -91 701 211 
Q 384 513 384 1019 
Q 384 1609 779 1909 
Q 1175 2209 1959 2209 
L 2766 2209 
L 2766 2266 
Q 2766 2663 2505 2880 
Q 2244 3097 1772 3097 
Q 1472 3097 1187 3025 
Q 903 2953 641 2809 
L 641 3341 
Q 956 3463 1253 3523 
Q 1550 3584 1831 3584 
Q 2591 3584 2966 3190 
Q 3341 2797 3341 1997 
z
" transform="scale(0.015625)"/>
       <path id="DejaVuSans-70" d="M 1159 525 
L 1159 -1331 
L 581 -1331 
L 581 3500 
L 1159 3500 
L 1159 2969 
Q 1341 3281 1617 3432 
Q 1894 3584 2278 3584 
Q 2916 3584 3314 3078 
Q 3713 2572 3713 1747 
Q 3713 922 3314 415 
Q 2916 -91 2278 -91 
Q 1894 -91 1617 61 
Q 1341 213 1159 525 
z
M 3116 1747 
Q 3116 2381 2855 2742 
Q 2594 3103 2138 3103 
Q 1681 3103 1420 2742 
Q 1159 2381 1159 1747 
Q 1159 1113 1420 752 
Q 1681 391 2138 391 
Q 2594 391 2855 752 
Q 3116 1113 3116 1747 
z
" transform="scale(0.015625)"/>
      </defs>
      <use xlink:href="#DejaVuSans-54"/>
      <use xlink:href="#DejaVuSans-69" x="57.958984"/>
      <use xlink:href="#DejaVuSans-6d" x="85.742188"/>
      <use xlink:href="#DejaVuSans-65" x="183.154297"/>
      <use xlink:href="#DejaVuSans-73" x="244.677734"/>
      <use xlink:href="#DejaVuSans-74" x="296.777344"/>
      <use xlink:href="#DejaVuSans-61" x="335.986328"/>
      <use xlink:href="#DejaVuSans-6d" x="397.265625"/>
      <use xlink:href="#DejaVuSans-70" x="494.677734"/>
      <use xlink:href="#DejaVuSans-73" x="558.154297"/>
     </g>
    </g>
   </g>
   <g id="matplotlib.axis_2">
    <g id="ytick_1">
     <g id="line2d_7">
      <defs>
       <path id="m9065d14d1e" d="M 0 0 
L -3.5 0 
" style="stroke: #000000; stroke-width: 0.8"/>
      </defs>
      <g>
       <use xlink:href="#m9065d14d1e" x="57.6" y="281.091619" style="stroke: #000000; stroke-width: 0.8"/>
      </g>
     </g>
     <g id="text_8">
      <!-- −0.75 -->
      <g transform="translate(19.954687 284.890838)scale(0.1 -0.1)">
       <defs>
        <path id="DejaVuSans-2212" d="M 678 2272 
L 4684 2272 
L 4684 1741 
L 678 1741 
L 678 2272 
z
" transform="scale(0.015625)"/>
        <path id="DejaVuSans-2e" d="M 684 794 
L 1344 794 
L 1344 0 
L 684 0 
L 684 794 
z
" transform="scale(0.015625)"/>
        <path id="DejaVuSans-37" d="M 525 4666 
L 3525 4666 
L 3525 4397 
L 1831 0 
L 1172 0 
L 2766 4134 
L 525 4134 
L 525 4666 
z
" transform="scale(0.015625)"/>
        <path id="DejaVuSans-35" d="M 691 4666 
L 3169 4666 
L 3169 4134 
L 1269 4134 
L 1269 2991 
Q 1406 3038 1543 3061 
Q 1681 3084 1819 3084 
Q 2600 3084 3056 2656 
Q 3513 2228 3513 1497 
Q 3513 744 3044 326 
Q 2575 -91 1722 -91 
Q 1428 -91 1123 -41 
Q 819 9 494 109 
L 494 744 
Q 775 591 1075 516 
Q 1375 441 1709 441 
Q 2250 441 2565 725 
Q 2881 1009 2881 1497 
Q 2881 1984 2565 2268 
Q 2250 2553 1709 2553 
Q 1456 2553 1204 2497 
Q 953 2441 691 2322 
L 691 4666 
z
" transform="scale(0.015625)"/>
       </defs>
       <use xlink:href="#DejaVuSans-2212"/>
       <use xlink:href="#DejaVuSans-30" x="83.789062"/>
       <use xlink:href="#DejaVuSans-2e" x="147.412109"/>
       <use xlink:href="#DejaVuSans-37" x="179.199219"/>
       <use xlink:href="#DejaVuSans-35" x="242.822266"/>
      </g>
     </g>
    </g>
    <g id="ytick_2">
     <g id="line2d_8">
      <g>
       <use xlink:href="#m9065d14d1e" x="57.6" y="244.662364" style="stroke: #000000; stroke-width: 0.8"/>
      </g>
     </g>
     <g id="text_9">
      <!-- −0.50 -->
      <g transform="translate(19.954687 248.461583)scale(0.1 -0.1)">
       <use xlink:href="#DejaVuSans-2212"/>
       <use xlink:href="#DejaVuSans-30" x="83.789062"/>
       <use xlink:href="#DejaVuSans-2e" x="147.412109"/>
       <use xlink:href="#DejaVuSans-35" x="179.199219"/>
       <use xlink:href="#DejaVuSans-30" x="242.822266"/>
      </g>
     </g>
    </g>
    <g id="ytick_3">
     <g id="line2d_9">
      <g>
       <use xlink:href="#m9065d14d1e" x="57.6" y="208.23311" style="stroke: #000000; stroke-width: 0.8"/>
      </g>
     </g>
     <g id="text_10">
      <!-- −0.25 -->
      <g transform="translate(19.954687 212.032329)scale(0.1 -0.1)">
       <use xlink:href="#DejaVuSans-2212"/>
       <use xlink:href="#DejaVuSans-30" x="83.789062"/>
       <use xlink:href="#DejaVuSans-2e" x="147.412109"/>
       <use xlink:href="#DejaVuSans-32" x="179.199219"/>
       <use xlink:href="#DejaVuSans-35" x="242.822266"/>
      </g>
     </g>
    </g>
    <g id="ytick_4">
     <g id="line2d_10">
      <g>
       <use xlink:href="#m9065d14d1e" x="57.6" y="171.803855" style="stroke: #000000; stroke-width: 0.8"/>
      </g>
     </g>
     <g id="text_11">
      <!-- 0.00 -->
      <g transform="translate(28.334375 175.603074)scale(0.1 -0.1)">
       <use xlink:href="#DejaVuSans-30"/>
       <use xlink:href="#DejaVuSans-2e" x="63.623047"/>
       <use xlink:href="#DejaVuSans-30" x="95.410156"/>
       <use xlink:href="#DejaVuSans-30" x="159.033203"/>
      </g>
     </g>
    </g>
    <g id="ytick_5">
     <g id="line2d_11">
      <g>
       <use xlink:href="#m9065d14d1e" x="57.6" y="135.374601" style="stroke: #000000; stroke-width: 0.8"/>
      </g>
     </g>
     <g id="text_12">
      <!-- 0.25 -->
      <g transform="translate(28.334375 139.173819)scale(0.1 -0.1)">
       <use xlink:href="#DejaVuSans-30"/>
       <use xlink:href="#DejaVuSans-2e" x="63.623047"/>
       <use xlink:href="#DejaVuSans-32" x="95.410156"/>
       <use xlink:href="#DejaVuSans-35" x="159.033203"/>
      </g>
     </g>
    </g>
    <g id="ytick_6">
     <g id="line2d_12">
      <g>
       <use xlink:href="#m9065d14d1e" x="57.6" y="98.945346" style="stroke: #000000; stroke-width: 0.8"/>
      </g>
     </g>
     <g id="text_13">
      <!-- 0.50 -->
      <g transform="translate(28.334375 102.744565)scale(0.1 -0.1)">
       <use xlink:href="#DejaVuSans-30"/>
       <use xlink:href="#DejaVuSans-2e" x="63.623047"/>
       <use xlink:href="#DejaVuSans-35" x="95.410156"/>
       <use xlink:href="#DejaVuSans-30" x="159.033203"/>
      </g>
     </g>
    </g>
    <g id="ytick_7">
     <g id="line2d_13">
      <g>
       <use xlink:href="#m9065d14d1e" x="57.6" y="62.516091" style="stroke: #000000; stroke-width: 0.8"/>
      </g>
     </g>
     <g id="text_14">
      <!-- 0.75 -->
      <g transform="translate(28.334375 66.31531)scale(0.1 -0.1)">
       <use xlink:href="#DejaVuSans-30"/>
       <use xlink:href="#DejaVuSans-2e" x="63.623047"/>
       <use xlink:href="#DejaVuSans-37" x="95.410156"/>
       <use xlink:href="#DejaVuSans-35" x="159.033203"/>
      </g>
     </g>
    </g>
    <g id="text_15">
     <!-- Magnitude -->
     <g transform="translate(12.835156 214.262766)rotate(-90)scale(0.15 -0.15)">
      <defs>
       <path id="DejaVuSans-4d" d="M 628 4666 
L 1569 4666 
L 2759 1491 
L 3956 4666 
L 4897 4666 
L 4897 0 
L 4281 0 
L 4281 4097 
L 3078 897 
L 2444 897 
L 1241 4097 
L 1241 0 
L 628 0 
L 628 4666 
z
" transform="scale(0.015625)"/>
       <path id="DejaVuSans-67" d="M 2906 1791 
Q 2906 2416 2648 2759 
Q 2391 3103 1925 3103 
Q 1463 3103 1205 2759 
Q 947 2416 947 1791 
Q 947 1169 1205 825 
Q 1463 481 1925 481 
Q 2391 481 2648 825 
Q 2906 1169 2906 1791 
z
M 3481 434 
Q 3481 -459 3084 -895 
Q 2688 -1331 1869 -1331 
Q 1566 -1331 1297 -1286 
Q 1028 -1241 775 -1147 
L 775 -588 
Q 1028 -725 1275 -790 
Q 1522 -856 1778 -856 
Q 2344 -856 2625 -561 
Q 2906 -266 2906 331 
L 2906 616 
Q 2728 306 2450 153 
Q 2172 0 1784 0 
Q 1141 0 747 490 
Q 353 981 353 1791 
Q 353 2603 747 3093 
Q 1141 3584 1784 3584 
Q 2172 3584 2450 3431 
Q 2728 3278 2906 2969 
L 2906 3500 
L 3481 3500 
L 3481 434 
z
" transform="scale(0.015625)"/>
       <path id="DejaVuSans-6e" d="M 3513 2113 
L 3513 0 
L 2938 0 
L 2938 2094 
Q 2938 2591 2744 2837 
Q 2550 3084 2163 3084 
Q 1697 3084 1428 2787 
Q 1159 2491 1159 1978 
L 1159 0 
L 581 0 
L 581 3500 
L 1159 3500 
L 1159 2956 
Q 1366 3272 1645 3428 
Q 1925 3584 2291 3584 
Q 2894 3584 3203 3211 
Q 3513 2838 3513 2113 
z
" transform="scale(0.015625)"/>
       <path id="DejaVuSans-75" d="M 544 1381 
L 544 3500 
L 1119 3500 
L 1119 1403 
Q 1119 906 1312 657 
Q 1506 409 1894 409 
Q 2359 409 2629 706 
Q 2900 1003 2900 1516 
L 2900 3500 
L 3475 3500 
L 3475 0 
L 2900 0 
L 2900 538 
Q 2691 219 2414 64 
Q 2138 -91 1772 -91 
Q 1169 -91 856 284 
Q 544 659 544 1381 
z
M 1991 3584 
L 1991 3584 
z
" transform="scale(0.015625)"/>
       <path id="DejaVuSans-64" d="M 2906 2969 
L 2906 4863 
L 3481 4863 
L 3481 0 
L 2906 0 
L 2906 525 
Q 2725 213 2448 61 
Q 2172 -91 1784 -91 
Q 1150 -91 751 415 
Q 353 922 353 1747 
Q 353 2572 751 3078 
Q 1150 3584 1784 3584 
Q 2172 3584 2448 3432 
Q 2725 3281 2906 2969 
z
M 947 1747 
Q 947 1113 1208 752 
Q 1469 391 1925 391 
Q 2381 391 2643 752 
Q 2906 1113 2906 1747 
Q 2906 2381 2643 2742 
Q 2381 3103 1925 3103 
Q 1469 3103 1208 2742 
Q 947 2381 947 1747 
z
" transform="scale(0.015625)"/>
      </defs>
      <use xlink:href="#DejaVuSans-4d"/>
      <use xlink:href="#DejaVuSans-61" x="86.279297"/>
      <use xlink:href="#DejaVuSans-67" x="147.558594"/>
      <use xlink:href="#DejaVuSans-6e" x="211.035156"/>
      <use xlink:href="#DejaVuSans-69" x="274.414062"/>
      <use xlink:href="#DejaVuSans-74" x="302.197266"/>
      <use xlink:href="#DejaVuSans-75" x="341.40625"/>
      <use xlink:href="#DejaVuSans-64" x="404.785156"/>
      <use xlink:href="#DejaVuSans-65" x="468.261719"/>
     </g>
    </g>
   </g>
   <g id="line2d_14">
    <path d="M 73.832727 282.86854 
L 78.382441 282.782163 
L 80.657297 282.674452 
L 84.232072 282.526338 
L 85.207011 282.275799 
L 86.506929 282.249739 
L 91.056642 281.979594 
L 93.981458 281.878197 
L 97.881212 281.868981 
L 104.380803 280.993876 
L 106.655659 280.62182 
L 109.580475 280.011837 
L 121.929697 278.848666 
L 122.579656 278.707015 
L 123.554595 278.2883 
L 124.529533 277.891773 
L 126.154431 276.856855 
L 126.47941 276.650466 
L 126.80439 276.300075 
L 127.779328 275.683371 
L 128.104308 275.371128 
L 128.754267 274.323333 
L 131.029124 271.560271 
L 131.354103 270.63684 
L 132.329042 269.329013 
L 133.30398 268.074489 
L 133.62896 267.234942 
L 135.903817 263.997203 
L 136.228796 263.022795 
L 137.203735 261.729206 
L 137.853694 260.800134 
L 138.503653 259.877567 
L 138.828632 259.541683 
L 139.153612 258.83475 
L 140.45353 257.458328 
L 142.403407 255.782394 
L 143.378346 255.255221 
L 144.353284 255.070527 
L 145.328223 255.086035 
L 146.628141 255.388431 
L 146.95312 255.726949 
L 147.603079 256.105131 
L 148.902998 257.059369 
L 149.877936 258.380718 
L 150.527895 259.037573 
L 150.852875 260.043528 
L 151.177854 260.404249 
L 151.827813 261.469482 
L 152.152793 261.855402 
L 152.477772 262.718676 
L 154.752629 266.459033 
L 155.077609 267.042263 
L 155.402588 268.103202 
L 157.027486 270.875829 
L 157.352465 271.945165 
L 159.302342 275.659622 
L 159.952301 277.011766 
L 160.277281 278.158019 
L 161.902179 281.240516 
L 162.877117 283.040737 
L 163.202097 283.040737 
L 163.527076 283.806229 
L 164.826994 285.508053 
L 165.151974 286.229478 
L 165.476953 286.229478 
L 165.801933 286.944252 
L 168.07679 288.963612 
L 168.401769 289.460702 
L 169.376708 290.135837 
L 172.951482 292.320275 
L 173.276462 292.659925 
L 174.57638 293.127322 
L 175.551319 293.248216 
L 176.201278 293.175817 
L 177.501196 292.595357 
L 178.151155 292.135561 
L 178.476134 291.612136 
L 178.801114 291.612136 
L 179.126093 290.942431 
L 179.776052 290.17025 
L 181.075971 288.398349 
L 181.40095 287.397147 
L 181.72593 287.397147 
L 182.050909 286.362541 
L 184.325766 282.470405 
L 184.650745 281.874516 
L 184.975725 280.758182 
L 187.575561 275.73919 
L 188.22552 274.557605 
L 188.5505 273.271991 
L 192.450254 266.641575 
L 193.425192 265.455255 
L 193.750172 264.793261 
L 195.05009 263.603963 
L 196.025029 262.963837 
L 196.350008 262.492001 
L 196.999967 262.264965 
L 198.299885 261.900283 
L 198.949844 261.560945 
L 199.274824 261.560945 
L 199.924783 261.324203 
L 201.224701 261.363385 
L 201.549681 261.442287 
L 202.19964 261.971799 
L 203.174578 262.539787 
L 203.824537 263.274713 
L 204.149517 264.014475 
L 205.124455 265.417939 
L 206.424373 267.697665 
L 207.399312 269.554264 
L 207.724292 270.818207 
L 208.049271 270.818207 
L 208.374251 272.114424 
L 209.349189 274.175229 
L 210.324128 276.504855 
L 210.649107 278.028174 
L 212.598984 283.183663 
L 212.923964 284.928999 
L 214.548862 289.065518 
L 214.873841 289.766328 
L 215.198821 291.02635 
L 216.173759 292.580771 
L 216.498739 292.943728 
L 216.823718 293.638017 
L 217.798657 294.392102 
L 218.773595 294.958571 
L 220.073514 295.438439 
L 221.048452 295.479579 
L 221.698411 295.413427 
L 222.67335 295.052643 
L 223.973268 294.437277 
L 224.623227 293.881068 
L 225.923145 292.996103 
L 226.248124 292.638566 
L 226.573104 292.090095 
L 228.522981 290.163613 
L 229.17294 289.086775 
L 230.797838 287.224433 
L 231.122817 286.474447 
L 233.072695 283.953733 
L 233.397674 283.06825 
L 234.697592 281.238259 
L 235.022572 280.325603 
L 235.347551 280.325603 
L 235.672531 279.319974 
L 237.297428 277.101041 
L 237.622408 276.63829 
L 237.947387 275.688957 
L 238.272367 275.688957 
L 238.597346 274.812532 
L 239.247305 273.831006 
L 239.897265 273.051931 
L 240.222244 272.125894 
L 242.82208 268.881655 
L 243.14706 268.033083 
L 243.472039 267.746587 
L 244.121998 266.906636 
L 244.771957 266.270413 
L 245.096937 265.874651 
L 245.421916 265.233126 
L 247.046814 263.722706 
L 248.021753 262.962636 
L 248.346732 262.42254 
L 249.321671 261.827161 
L 251.271548 261.00047 
L 252.896446 260.979768 
L 253.221425 261.02494 
L 254.846323 262.00463 
L 255.496282 262.646473 
L 255.821261 263.60552 
L 257.771138 267.048271 
L 258.096118 268.449487 
L 259.396036 271.385522 
L 260.370975 273.725364 
L 260.695954 275.071399 
L 261.670893 277.278057 
L 262.320852 278.779403 
L 262.645831 280.191205 
L 264.595708 284.833473 
L 264.920688 286.262646 
L 266.870565 289.890486 
L 267.195545 290.923852 
L 267.845504 291.74708 
L 269.145422 292.961793 
L 270.770319 294.346524 
L 271.745258 294.807818 
L 273.045176 295.142764 
L 274.345094 295.117374 
L 274.995053 295.025966 
L 275.969992 294.735433 
L 276.619951 294.52056 
L 276.94493 294.222623 
L 277.594889 293.899516 
L 279.869746 292.334175 
L 280.519705 291.502732 
L 282.469582 289.809859 
L 282.794562 289.15895 
L 284.419459 287.290364 
L 285.394398 285.994714 
L 285.719378 285.025451 
L 287.019296 282.967205 
L 287.669255 281.075643 
L 288.319214 280.008949 
L 290.269091 275.515891 
L 291.244029 273.775273 
L 292.218968 271.9334 
L 292.543948 270.668947 
L 294.818804 266.515451 
L 295.793743 264.707562 
L 296.118722 263.640542 
L 297.41864 261.525569 
L 298.718559 259.748967 
L 299.043538 258.874064 
L 300.993415 256.928184 
L 301.318395 256.336674 
L 301.643374 256.336674 
L 302.293333 255.499073 
L 303.918231 254.000726 
L 304.24321 253.531503 
L 304.56819 253.531503 
L 305.218149 252.674721 
L 306.518067 251.616561 
L 306.843047 251.16361 
L 307.817985 250.68398 
L 308.792924 250.462304 
L 309.442883 250.65178 
L 310.417821 251.249792 
L 311.067781 251.857915 
L 311.39276 252.29518 
L 311.71774 253.143281 
L 312.367699 254.124832 
L 313.342637 255.757901 
L 314.317576 257.636178 
L 314.642555 258.931208 
L 316.917412 263.744328 
L 317.242391 264.502423 
L 317.567371 265.791611 
L 319.517248 269.722934 
L 319.842228 271.052787 
L 320.167207 271.052787 
L 320.492187 272.434421 
L 320.817166 272.434421 
L 321.467125 273.822312 
L 322.117084 274.892485 
L 322.442064 275.205922 
L 323.092023 276.088371 
L 323.417002 276.380869 
L 323.741982 277.257127 
L 325.0419 278.731008 
L 325.36688 279.043267 
L 325.691859 279.641675 
L 326.016839 279.641675 
L 326.341818 280.142597 
L 327.641736 281.035741 
L 327.966716 281.565192 
L 329.591613 282.584619 
L 331.216511 283.330722 
L 332.516429 283.523651 
L 333.816347 283.464187 
L 334.791286 283.262422 
L 335.441245 282.958936 
L 335.766224 282.867149 
L 336.416183 279.074331 
L 337.391122 278.121866 
L 337.716102 277.523429 
L 338.041081 277.523429 
L 338.69104 276.777518 
L 339.665979 275.958889 
L 339.990958 275.357138 
L 341.940835 273.2816 
L 342.265815 272.650411 
L 343.240753 271.6211 
L 344.215692 270.277259 
L 344.540672 269.348454 
L 344.865651 269.348454 
L 345.190631 268.297731 
L 345.84059 267.292103 
L 347.140508 264.838912 
L 347.465487 263.520797 
L 349.090385 260.294666 
L 349.415364 259.847236 
L 349.740344 258.904042 
L 350.715283 257.843069 
L 352.34018 256.035296 
L 353.315119 255.5138 
L 353.640098 255.36975 
L 353.965078 255.012883 
L 354.615037 254.710048 
L 355.589975 254.242256 
L 356.564914 253.741903 
L 356.889894 253.464505 
L 358.514791 252.936632 
L 359.814709 252.881805 
L 361.764586 253.381204 
L 362.739525 253.861345 
L 363.064505 254.353079 
L 364.364423 255.529739 
L 365.014382 256.230036 
L 365.339361 257.09492 
L 367.289238 260.031702 
L 369.239115 263.742026 
L 369.564095 264.482788 
L 369.889075 266.101283 
L 371.188993 269.120847 
L 371.513972 270.839622 
L 373.13887 275.026563 
L 373.463849 276.917038 
L 375.413726 282.650861 
L 375.738706 284.389566 
L 377.038624 287.3813 
L 378.663522 290.962314 
L 379.96344 292.577403 
L 381.588337 294.01612 
L 381.913317 294.21262 
L 382.238296 294.549088 
L 383.213235 294.853574 
L 384.513153 295.002981 
L 386.138051 294.757999 
L 387.437969 294.429675 
L 387.762948 294.318 
L 388.412907 293.913563 
L 389.712826 293.243514 
L 390.687764 292.636812 
L 391.012744 292.101685 
L 392.312662 291.077997 
L 393.61258 289.778215 
L 394.262539 288.667453 
L 395.887437 286.720821 
L 396.537396 285.823763 
L 396.862375 284.902468 
L 398.487273 282.621133 
L 398.487273 282.621133 
" clip-path="url(#p20a37d9ef5)" style="fill: none; stroke: #1f77b4; stroke-width: 1.5; stroke-linecap: square"/>
   </g>
   <g id="line2d_15">
    <path d="M 73.832727 154.614803 
L 79.0324 154.704928 
L 82.282195 154.835455 
L 83.907093 154.757183 
L 84.882031 154.459719 
L 85.53199 154.159664 
L 87.806847 154.053314 
L 88.781785 153.98401 
L 90.081704 153.794093 
L 91.381622 153.57044 
L 92.35656 153.382486 
L 99.18113 152.685379 
L 99.50611 152.482433 
L 102.430925 152.071685 
L 104.055823 151.805649 
L 106.980639 151.332885 
L 107.305618 151.164288 
L 107.955577 150.98948 
L 109.255495 150.739157 
L 110.230434 150.671159 
L 112.180311 150.582519 
L 114.780147 150.500143 
L 117.379984 150.323905 
L 119.004881 150.220437 
L 121.604717 149.948232 
L 124.529533 149.442634 
L 125.179492 149.140558 
L 126.154431 148.914256 
L 126.47941 148.786304 
L 126.80439 148.463515 
L 127.779328 148.303764 
L 128.429287 147.90377 
L 129.404226 147.296637 
L 129.729206 147.260505 
L 130.054185 146.979498 
L 131.029124 146.61721 
L 131.679083 146.062039 
L 132.004062 146.024448 
L 132.654021 145.616696 
L 132.979001 145.612034 
L 133.953939 144.947336 
L 134.278919 144.855473 
L 135.253857 144.239408 
L 135.578837 144.221254 
L 136.878755 143.335766 
L 137.203735 143.267955 
L 137.853694 142.946271 
L 141.103489 141.56379 
L 142.078428 141.491563 
L 143.378346 141.053425 
L 145.328223 140.950616 
L 146.628141 140.865155 
L 147.603079 141.082903 
L 148.578018 141.197736 
L 149.227977 141.104789 
L 149.877936 141.490488 
L 150.527895 141.45547 
L 150.852875 141.830239 
L 151.177854 141.818745 
L 154.10267 142.80067 
L 155.077609 143.356424 
L 155.402588 143.389258 
L 156.052547 143.606405 
L 156.702506 143.68427 
L 157.027486 143.808197 
L 159.302342 143.793917 
L 159.952301 144.032636 
L 160.277281 143.98562 
L 161.902179 144.525757 
L 162.877117 144.650995 
L 164.177035 144.751381 
L 165.801933 144.933827 
L 166.451892 144.904981 
L 170.351646 144.86191 
L 176.526257 142.734884 
L 178.476134 142.081636 
L 178.801114 142.081636 
L 179.126093 141.90918 
L 179.451073 141.883778 
L 180.101032 141.601544 
L 181.075971 141.260136 
L 181.40095 141.040992 
L 181.72593 141.040992 
L 182.375889 140.662581 
L 183.350827 140.270807 
L 184.000786 140.074199 
L 186.275643 139.058375 
L 186.925602 138.891134 
L 187.250581 138.659568 
L 188.22552 138.622693 
L 188.875479 138.443215 
L 190.175397 138.236623 
L 190.825356 138.238609 
L 191.150336 138.007176 
L 192.125274 138.131645 
L 192.450254 138.012468 
L 195.05009 138.057526 
L 196.025029 138.227346 
L 196.350008 138.192286 
L 196.674988 138.295869 
L 197.649926 138.852839 
L 198.299885 139.222032 
L 198.624865 139.245855 
L 198.949844 139.4746 
L 199.274824 139.4746 
L 200.899722 140.127845 
L 201.549681 140.32395 
L 201.87466 140.819943 
L 202.524619 141.067355 
L 203.499558 141.322655 
L 206.099394 142.771077 
L 207.074333 143.358363 
L 207.724292 143.807057 
L 208.049271 143.807057 
L 209.02421 144.302474 
L 210.324128 144.491972 
L 212.274005 144.983088 
L 213.248943 145.308866 
L 214.223882 145.601007 
L 214.873841 145.74792 
L 215.198821 145.965136 
L 217.473677 146.352694 
L 220.723473 146.393399 
L 221.698411 146.254772 
L 222.34837 145.983244 
L 223.323309 145.741214 
L 224.948206 145.045323 
L 225.598165 144.803059 
L 225.923145 144.7222 
L 226.898084 144.049715 
L 227.873022 143.564995 
L 230.797838 141.812409 
L 231.122817 141.461268 
L 232.747715 140.796964 
L 233.072695 140.742802 
L 233.397674 140.464712 
L 235.022572 139.977944 
L 235.347551 139.977944 
L 235.672531 139.814708 
L 236.647469 139.804526 
L 236.972449 139.6693 
L 237.947387 139.69234 
L 238.272367 139.69234 
L 238.597346 139.81699 
L 238.922326 139.694007 
L 239.247305 139.757197 
L 239.572285 139.984726 
L 240.222244 140.062685 
L 240.547224 140.224192 
L 241.197183 140.333716 
L 242.497101 140.574077 
L 242.82208 140.817175 
L 243.14706 140.798848 
L 243.472039 140.996338 
L 243.797019 140.894724 
L 245.096937 141.196003 
L 245.421916 141.467448 
L 247.696773 141.888973 
L 248.021753 141.822693 
L 248.996691 142.049701 
L 249.97163 142.286288 
L 250.296609 142.147726 
L 250.946568 142.262817 
L 251.921507 142.633276 
L 252.896446 142.802184 
L 254.521343 143.001657 
L 255.171302 143.190826 
L 255.496282 143.243905 
L 256.146241 143.616388 
L 256.47122 143.575264 
L 257.121179 143.89318 
L 257.771138 143.965242 
L 258.096118 144.216493 
L 258.421097 144.190724 
L 259.396036 144.418393 
L 259.721016 144.408408 
L 260.045995 144.528068 
L 260.370975 144.468861 
L 260.695954 144.211571 
L 261.345913 144.225463 
L 261.670893 144.021059 
L 264.270729 144.121999 
L 266.545586 144.778987 
L 268.170483 145.401261 
L 270.44534 146.060007 
L 273.695135 147.177553 
L 274.995053 147.376673 
L 277.26991 147.527985 
L 278.244848 147.483624 
L 282.469582 147.108606 
L 283.444521 146.609161 
L 283.7695 146.596391 
L 284.419459 146.264586 
L 285.394398 145.807951 
L 286.044357 145.252939 
L 287.019296 144.780308 
L 287.669255 143.967003 
L 288.319214 143.718366 
L 288.644193 143.338718 
L 288.969173 143.247598 
L 289.619132 142.585307 
L 289.944111 142.499869 
L 290.269091 142.165124 
L 290.59407 142.159768 
L 291.244029 141.833681 
L 291.893989 141.584413 
L 293.193907 141.224738 
L 293.518886 141.359434 
L 294.493825 141.114392 
L 295.468763 141.027845 
L 297.093661 141.038076 
L 298.393579 140.918237 
L 298.718559 141.067124 
L 299.043538 140.939662 
L 299.693497 141.143638 
L 300.343456 140.966426 
L 300.993415 141.134277 
L 301.643374 141.030695 
L 301.968354 141.090725 
L 302.618313 141.026886 
L 302.943292 141.08107 
L 304.24321 140.790274 
L 304.56819 140.790274 
L 305.543129 140.34535 
L 306.518067 139.979506 
L 307.168026 139.68292 
L 308.467944 139.212163 
L 308.792924 138.978495 
L 310.092842 138.676422 
L 311.067781 138.242739 
L 311.39276 138.310511 
L 312.042719 138.060912 
L 312.692678 138.153471 
L 313.017658 137.946345 
L 313.667617 137.98685 
L 314.967535 137.745789 
L 315.292514 137.839384 
L 316.917412 137.584278 
L 317.242391 137.510061 
L 317.567371 137.208574 
L 318.867289 136.748727 
L 319.842228 136.18302 
L 320.167207 136.18302 
L 320.492187 136.050874 
L 320.817166 136.050874 
L 321.142146 135.435356 
L 322.117084 135.355749 
L 322.442064 135.014162 
L 322.767043 135.0072 
L 324.391941 134.063574 
L 325.0419 133.768874 
L 325.36688 133.599437 
L 325.691859 133.281397 
L 326.016839 133.281397 
L 326.341818 132.936829 
L 326.991777 132.664865 
L 328.291695 132.39647 
L 329.266634 132.203855 
L 330.891532 132.122866 
L 333.166388 132.314112 
L 334.791286 132.597264 
L 335.441245 132.871744 
L 335.766224 132.976235 
L 336.091204 130.751345 
L 336.416183 129.47564 
L 337.391122 129.489526 
L 337.716102 129.757857 
L 338.041081 129.757857 
L 338.366061 130.120744 
L 339.340999 130.706799 
L 339.665979 130.957609 
L 339.990958 131.399553 
L 341.940835 132.560682 
L 342.590794 133.338305 
L 344.215692 134.404144 
L 344.540672 134.822256 
L 344.865651 134.822256 
L 345.51561 135.538099 
L 346.490549 136.336295 
L 347.140508 137.039708 
L 347.465487 137.732462 
L 347.790467 138.046291 
L 348.115446 138.19435 
L 348.765405 138.685174 
L 349.740344 139.634598 
L 350.390303 140.267732 
L 350.715283 140.287808 
L 351.040262 140.451841 
L 351.365242 140.996803 
L 351.690221 141.219621 
L 352.34018 141.262947 
L 354.290057 142.558767 
L 354.940016 142.728219 
L 355.914955 143.147015 
L 356.239934 143.270874 
L 356.564914 143.264803 
L 357.214873 143.552709 
L 359.814709 144.082125 
L 361.439607 143.99222 
L 362.739525 143.907798 
L 363.389484 143.994796 
L 364.364423 143.954808 
L 365.98932 143.921502 
L 366.964259 144.054264 
L 367.289238 143.983608 
L 368.264177 144.32431 
L 369.564095 144.502245 
L 369.889075 144.90564 
L 370.214054 144.992416 
L 370.539034 145.379852 
L 371.188993 145.544101 
L 371.513972 145.876731 
L 372.488911 146.007603 
L 373.13887 146.163467 
L 373.463849 146.222376 
L 373.788829 146.397518 
L 374.763767 146.411377 
L 375.088747 146.334736 
L 375.413726 146.382455 
L 376.063686 146.271065 
L 377.363604 146.370798 
L 380.288419 147.476352 
L 380.938378 147.965603 
L 383.213235 149.921231 
L 384.513153 150.607627 
L 387.112989 151.219556 
L 388.412907 151.483719 
L 390.362785 151.795187 
L 391.337723 151.823397 
L 391.987682 151.822117 
L 392.962621 151.853856 
L 395.887437 151.387656 
L 397.187355 151.004647 
L 398.162293 150.799133 
L 398.487273 150.664754 
L 398.487273 150.664754 
" clip-path="url(#p20a37d9ef5)" style="fill: none; stroke: #ff7f0e; stroke-width: 1.5; stroke-linecap: square"/>
   </g>
   <g id="line2d_16">
    <path d="M 73.832727 79.053556 
L 78.057461 78.962476 
L 92.68154 78.131475 
L 98.531171 78.13655 
L 100.481048 77.886237 
L 101.455987 77.726188 
L 102.755905 77.628031 
L 103.730844 77.485328 
L 106.655659 77.055667 
L 109.905455 76.481488 
L 112.180311 76.291888 
L 113.480229 76.201275 
L 121.279738 75.551252 
L 122.579656 75.255166 
L 123.554595 74.84452 
L 124.854513 74.287359 
L 125.504472 73.951193 
L 126.154431 73.450471 
L 127.454349 72.590647 
L 128.104308 72.063298 
L 128.429287 71.457326 
L 131.029124 68.615967 
L 131.354103 67.818809 
L 132.329042 66.709762 
L 133.30398 65.665715 
L 133.62896 64.946086 
L 135.903817 62.441817 
L 136.228796 61.691609 
L 139.803571 58.244036 
L 142.403407 56.675041 
L 143.378346 56.375394 
L 144.678264 56.241052 
L 146.303161 56.437797 
L 146.628141 56.522184 
L 147.2781 56.851919 
L 148.578018 57.506624 
L 148.902998 57.677397 
L 149.552957 58.263046 
L 150.527895 59.097567 
L 150.852875 59.782451 
L 151.502834 60.486001 
L 152.152793 61.152283 
L 152.477772 61.832888 
L 154.427649 64.263355 
L 155.077609 65.249459 
L 155.402588 66.198454 
L 157.027486 68.680421 
L 157.352465 69.722423 
L 159.302342 73.503922 
L 159.952301 74.883754 
L 160.277281 76.156676 
L 162.227158 80.205209 
L 162.552138 80.727867 
L 162.877117 81.678785 
L 163.202097 81.678785 
L 163.527076 82.619334 
L 164.826994 84.730722 
L 165.151974 85.68534 
L 165.476953 85.68534 
L 165.801933 86.632627 
L 168.07679 89.432684 
L 168.401769 90.149036 
L 169.376708 91.115877 
L 170.351646 91.911414 
L 170.676626 92.441855 
L 172.301523 94.029783 
L 172.951482 94.746448 
L 173.276462 95.362882 
L 174.57638 96.222042 
L 175.226339 96.488124 
L 175.876298 96.588144 
L 176.526257 96.390121 
L 177.826175 95.460914 
L 178.151155 95.133566 
L 178.476134 94.369923 
L 178.801114 94.369923 
L 179.126093 93.408992 
L 180.426011 91.181444 
L 181.075971 89.912111 
L 181.40095 88.585568 
L 181.72593 88.585568 
L 182.050909 87.254905 
L 184.650745 81.853466 
L 184.975725 80.583633 
L 187.250581 75.825841 
L 188.22552 73.956373 
L 188.5505 72.674375 
L 191.150336 68.346043 
L 193.100213 65.755767 
L 193.425192 65.410838 
L 193.750172 64.799161 
L 195.05009 63.788206 
L 197.324947 62.407332 
L 198.624865 61.867639 
L 198.949844 61.658787 
L 199.274824 61.658787 
L 199.924783 61.398 
L 201.224701 61.28822 
L 201.87466 61.453123 
L 203.174578 61.973868 
L 203.824537 62.491347 
L 204.149517 63.043783 
L 205.124455 64.120205 
L 206.424373 65.95272 
L 207.399312 67.493379 
L 207.724292 68.625448 
L 208.049271 68.625448 
L 208.374251 69.830386 
L 209.02421 71.035854 
L 210.324128 74.20665 
L 210.649107 75.838608 
L 212.598984 81.734339 
L 212.923964 83.889732 
L 215.84878 93.670527 
L 217.148698 96.487442 
L 218.123636 97.611536 
L 219.423554 98.745397 
L 220.398493 99.037272 
L 221.373432 99.043935 
L 221.698411 98.993313 
L 223.973268 97.625313 
L 224.298247 97.10652 
L 225.923145 95.564271 
L 226.248124 95.090031 
L 226.573104 94.319678 
L 228.522981 91.747791 
L 229.17294 90.380015 
L 230.797838 88.065827 
L 231.122817 87.166769 
L 232.422735 85.122427 
L 233.072695 84.105139 
L 233.397674 83.082113 
L 234.697592 80.96952 
L 235.022572 79.914812 
L 235.347551 79.914812 
L 235.672531 78.79618 
L 237.622408 75.818842 
L 237.947387 74.797748 
L 238.272367 74.797748 
L 238.597346 73.8268 
L 239.572285 72.3973 
L 239.897265 71.944621 
L 240.222244 70.999902 
L 242.172121 68.37105 
L 242.82208 67.644487 
L 243.14706 66.865417 
L 245.096937 64.811798 
L 245.421916 64.174268 
L 247.046814 62.805704 
L 248.021753 62.146871 
L 248.346732 61.668896 
L 249.321671 61.13216 
L 251.271548 60.388244 
L 252.896446 60.269037 
L 253.546405 60.433068 
L 254.521343 60.810681 
L 255.496282 61.506985 
L 255.821261 62.25949 
L 257.446159 64.605075 
L 257.771138 65.094145 
L 258.096118 66.295534 
L 259.396036 69.008068 
L 260.370975 71.313799 
L 260.695954 72.768857 
L 262.320852 76.82732 
L 262.645831 78.468879 
L 264.270729 83.083974 
L 264.595708 84.077408 
L 264.920688 85.921543 
L 266.870565 90.770052 
L 267.195545 92.213391 
L 267.845504 93.376656 
L 269.795381 95.983905 
L 270.12036 96.65607 
L 271.095299 97.492088 
L 272.395217 98.201253 
L 273.370156 98.265447 
L 274.345094 98.130102 
L 274.995053 97.958899 
L 275.645012 97.580904 
L 276.619951 97.082455 
L 276.94493 96.599889 
L 277.594889 96.078521 
L 278.569828 95.051026 
L 279.544767 94.047147 
L 279.869746 93.624285 
L 280.194726 92.857662 
L 281.494644 91.122563 
L 282.469582 89.961463 
L 282.794562 89.081366 
L 284.419459 86.691828 
L 285.394398 85.096804 
L 285.719378 83.939393 
L 287.019296 81.549295 
L 287.669255 79.509536 
L 288.319214 78.335615 
L 290.269091 73.830335 
L 292.218968 70.37485 
L 292.543948 69.206446 
L 295.793743 63.839699 
L 296.118722 62.916594 
L 297.74362 60.803132 
L 298.393579 60.031719 
L 298.718559 59.75758 
L 299.043538 59.111208 
L 300.668436 57.781397 
L 300.993415 57.581816 
L 301.318395 57.171102 
L 301.643374 57.171102 
L 301.968354 56.775413 
L 304.24321 55.218271 
L 304.56819 55.218271 
L 305.218149 54.723113 
L 307.493006 53.691449 
L 308.467944 53.568 
L 309.442883 53.779973 
L 310.417821 54.269457 
L 311.39276 55.044306 
L 311.71774 55.66786 
L 312.692678 56.818588 
L 313.667617 58.057538 
L 314.317576 59.031339 
L 314.642555 60.062102 
L 316.592432 63.451654 
L 317.242391 64.732073 
L 317.567371 65.960018 
L 319.517248 69.836354 
L 319.842228 71.234216 
L 320.167207 71.234216 
L 320.492187 72.664217 
L 320.817166 72.664217 
L 321.142146 73.707503 
L 322.117084 75.482941 
L 323.417002 77.429548 
L 323.741982 78.49082 
L 325.36688 80.844623 
L 325.691859 81.690171 
L 326.016839 81.690171 
L 326.341818 82.442134 
L 327.641736 83.694318 
L 327.966716 84.395422 
L 329.266634 85.595078 
L 330.891532 86.709897 
L 331.86647 86.967773 
L 332.841409 87.031501 
L 334.466306 86.666186 
L 334.791286 86.520319 
L 335.116265 86.163954 
L 335.766224 85.834007 
L 336.091204 84.615759 
L 336.416183 82.726293 
L 337.391122 81.585056 
L 337.716102 80.760122 
L 338.041081 80.760122 
L 338.366061 80.054535 
L 339.665979 78.440245 
L 339.990958 77.582494 
L 341.940835 74.872467 
L 342.265815 74.023601 
L 343.890713 71.612435 
L 344.215692 71.117685 
L 344.540672 70.06462 
L 344.865651 70.06462 
L 345.190631 68.9113 
L 346.165569 67.148013 
L 347.140508 65.176521 
L 347.465487 63.819623 
L 348.765405 61.357596 
L 350.065324 59.152996 
L 351.040262 58.156334 
L 351.365242 57.625009 
L 353.315119 56.322697 
L 353.640098 56.174588 
L 353.965078 55.853323 
L 356.239934 54.879024 
L 358.189812 54.096338 
L 359.48973 53.933652 
L 360.464668 54.033542 
L 361.764586 54.317231 
L 362.739525 54.663655 
L 363.389484 55.177741 
L 365.014382 56.358479 
L 365.339361 56.970763 
L 367.289238 59.219064 
L 368.914136 61.537143 
L 369.564095 62.722765 
L 369.889075 64.017338 
L 371.188993 66.574191 
L 371.513972 68.106458 
L 372.81389 71.249791 
L 373.13887 72.199158 
L 373.463849 74.180843 
L 375.413726 80.6987 
L 375.738706 82.888071 
L 377.363604 87.768968 
L 378.013563 89.466062 
L 378.338542 91.063078 
L 379.313481 92.967039 
L 380.288419 94.466308 
L 381.588337 95.951645 
L 381.913317 96.188464 
L 382.238296 96.578083 
L 383.213235 96.881417 
L 384.513153 96.929635 
L 385.488092 96.591377 
L 386.78801 96.155863 
L 387.762948 95.622069 
L 388.087928 95.178827 
L 389.712826 93.811588 
L 390.687764 92.849174 
L 391.012744 92.054733 
L 392.312662 90.503617 
L 393.61258 88.651368 
L 393.937559 87.708652 
L 395.237477 85.598272 
L 396.537396 83.437438 
L 396.862375 82.290493 
L 398.162293 80.15872 
L 398.487273 79.575258 
L 398.487273 79.575258 
" clip-path="url(#p20a37d9ef5)" style="fill: none; stroke: #2ca02c; stroke-width: 1.5; stroke-linecap: square"/>
   </g>
   <g id="patch_3">
    <path d="M 57.6 307.584 
L 57.6 41.472 
" style="fill: none; stroke: #000000; stroke-width: 0.8; stroke-linejoin: miter; stroke-linecap: square"/>
   </g>
   <g id="patch_4">
    <path d="M 414.72 307.584 
L 414.72 41.472 
" style="fill: none; stroke: #000000; stroke-width: 0.8; stroke-linejoin: miter; stroke-linecap: square"/>
   </g>
   <g id="patch_5">
    <path d="M 57.6 307.584 
L 414.72 307.584 
" style="fill: none; stroke: #000000; stroke-width: 0.8; stroke-linejoin: miter; stroke-linecap: square"/>
   </g>
   <g id="patch_6">
    <path d="M 57.6 41.472 
L 414.72 41.472 
" style="fill: none; stroke: #000000; stroke-width: 0.8; stroke-linejoin: miter; stroke-linecap: square"/>
   </g>
   <g id="text_16">
    <!-- Change in rotation components for rotating  neck up and down starting from centre moving up -->
    <g transform="translate(-120.398203 35.472)scale(0.15 -0.15)">
     <defs>
      <path id="DejaVuSans-43" d="M 4122 4306 
L 4122 3641 
Q 3803 3938 3442 4084 
Q 3081 4231 2675 4231 
Q 1875 4231 1450 3742 
Q 1025 3253 1025 2328 
Q 1025 1406 1450 917 
Q 1875 428 2675 428 
Q 3081 428 3442 575 
Q 3803 722 4122 1019 
L 4122 359 
Q 3791 134 3420 21 
Q 3050 -91 2638 -91 
Q 1578 -91 968 557 
Q 359 1206 359 2328 
Q 359 3453 968 4101 
Q 1578 4750 2638 4750 
Q 3056 4750 3426 4639 
Q 3797 4528 4122 4306 
z
" transform="scale(0.015625)"/>
      <path id="DejaVuSans-68" d="M 3513 2113 
L 3513 0 
L 2938 0 
L 2938 2094 
Q 2938 2591 2744 2837 
Q 2550 3084 2163 3084 
Q 1697 3084 1428 2787 
Q 1159 2491 1159 1978 
L 1159 0 
L 581 0 
L 581 4863 
L 1159 4863 
L 1159 2956 
Q 1366 3272 1645 3428 
Q 1925 3584 2291 3584 
Q 2894 3584 3203 3211 
Q 3513 2838 3513 2113 
z
" transform="scale(0.015625)"/>
      <path id="DejaVuSans-20" transform="scale(0.015625)"/>
      <path id="DejaVuSans-72" d="M 2631 2963 
Q 2534 3019 2420 3045 
Q 2306 3072 2169 3072 
Q 1681 3072 1420 2755 
Q 1159 2438 1159 1844 
L 1159 0 
L 581 0 
L 581 3500 
L 1159 3500 
L 1159 2956 
Q 1341 3275 1631 3429 
Q 1922 3584 2338 3584 
Q 2397 3584 2469 3576 
Q 2541 3569 2628 3553 
L 2631 2963 
z
" transform="scale(0.015625)"/>
      <path id="DejaVuSans-6f" d="M 1959 3097 
Q 1497 3097 1228 2736 
Q 959 2375 959 1747 
Q 959 1119 1226 758 
Q 1494 397 1959 397 
Q 2419 397 2687 759 
Q 2956 1122 2956 1747 
Q 2956 2369 2687 2733 
Q 2419 3097 1959 3097 
z
M 1959 3584 
Q 2709 3584 3137 3096 
Q 3566 2609 3566 1747 
Q 3566 888 3137 398 
Q 2709 -91 1959 -91 
Q 1206 -91 779 398 
Q 353 888 353 1747 
Q 353 2609 779 3096 
Q 1206 3584 1959 3584 
z
" transform="scale(0.015625)"/>
      <path id="DejaVuSans-63" d="M 3122 3366 
L 3122 2828 
Q 2878 2963 2633 3030 
Q 2388 3097 2138 3097 
Q 1578 3097 1268 2742 
Q 959 2388 959 1747 
Q 959 1106 1268 751 
Q 1578 397 2138 397 
Q 2388 397 2633 464 
Q 2878 531 3122 666 
L 3122 134 
Q 2881 22 2623 -34 
Q 2366 -91 2075 -91 
Q 1284 -91 818 406 
Q 353 903 353 1747 
Q 353 2603 823 3093 
Q 1294 3584 2113 3584 
Q 2378 3584 2631 3529 
Q 2884 3475 3122 3366 
z
" transform="scale(0.015625)"/>
      <path id="DejaVuSans-66" d="M 2375 4863 
L 2375 4384 
L 1825 4384 
Q 1516 4384 1395 4259 
Q 1275 4134 1275 3809 
L 1275 3500 
L 2222 3500 
L 2222 3053 
L 1275 3053 
L 1275 0 
L 697 0 
L 697 3053 
L 147 3053 
L 147 3500 
L 697 3500 
L 697 3744 
Q 697 4328 969 4595 
Q 1241 4863 1831 4863 
L 2375 4863 
z
" transform="scale(0.015625)"/>
      <path id="DejaVuSans-6b" d="M 581 4863 
L 1159 4863 
L 1159 1991 
L 2875 3500 
L 3609 3500 
L 1753 1863 
L 3688 0 
L 2938 0 
L 1159 1709 
L 1159 0 
L 581 0 
L 581 4863 
z
" transform="scale(0.015625)"/>
      <path id="DejaVuSans-77" d="M 269 3500 
L 844 3500 
L 1563 769 
L 2278 3500 
L 2956 3500 
L 3675 769 
L 4391 3500 
L 4966 3500 
L 4050 0 
L 3372 0 
L 2619 2869 
L 1863 0 
L 1184 0 
L 269 3500 
z
" transform="scale(0.015625)"/>
      <path id="DejaVuSans-76" d="M 191 3500 
L 800 3500 
L 1894 563 
L 2988 3500 
L 3597 3500 
L 2284 0 
L 1503 0 
L 191 3500 
z
" transform="scale(0.015625)"/>
     </defs>
     <use xlink:href="#DejaVuSans-43"/>
     <use xlink:href="#DejaVuSans-68" x="69.824219"/>
     <use xlink:href="#DejaVuSans-61" x="133.203125"/>
     <use xlink:href="#DejaVuSans-6e" x="194.482422"/>
     <use xlink:href="#DejaVuSans-67" x="257.861328"/>
     <use xlink:href="#DejaVuSans-65" x="321.337891"/>
     <use xlink:href="#DejaVuSans-20" x="382.861328"/>
     <use xlink:href="#DejaVuSans-69" x="414.648438"/>
     <use xlink:href="#DejaVuSans-6e" x="442.431641"/>
     <use xlink:href="#DejaVuSans-20" x="505.810547"/>
     <use xlink:href="#DejaVuSans-72" x="537.597656"/>
     <use xlink:href="#DejaVuSans-6f" x="576.460938"/>
     <use xlink:href="#DejaVuSans-74" x="637.642578"/>
     <use xlink:href="#DejaVuSans-61" x="676.851562"/>
     <use xlink:href="#DejaVuSans-74" x="738.130859"/>
     <use xlink:href="#DejaVuSans-69" x="777.339844"/>
     <use xlink:href="#DejaVuSans-6f" x="805.123047"/>
     <use xlink:href="#DejaVuSans-6e" x="866.304688"/>
     <use xlink:href="#DejaVuSans-20" x="929.683594"/>
     <use xlink:href="#DejaVuSans-63" x="961.470703"/>
     <use xlink:href="#DejaVuSans-6f" x="1016.451172"/>
     <use xlink:href="#DejaVuSans-6d" x="1077.632812"/>
     <use xlink:href="#DejaVuSans-70" x="1175.044922"/>
     <use xlink:href="#DejaVuSans-6f" x="1238.521484"/>
     <use xlink:href="#DejaVuSans-6e" x="1299.703125"/>
     <use xlink:href="#DejaVuSans-65" x="1363.082031"/>
     <use xlink:href="#DejaVuSans-6e" x="1424.605469"/>
     <use xlink:href="#DejaVuSans-74" x="1487.984375"/>
     <use xlink:href="#DejaVuSans-73" x="1527.193359"/>
     <use xlink:href="#DejaVuSans-20" x="1579.292969"/>
     <use xlink:href="#DejaVuSans-66" x="1611.080078"/>
     <use xlink:href="#DejaVuSans-6f" x="1646.285156"/>
     <use xlink:href="#DejaVuSans-72" x="1707.466797"/>
     <use xlink:href="#DejaVuSans-20" x="1748.580078"/>
     <use xlink:href="#DejaVuSans-72" x="1780.367188"/>
     <use xlink:href="#DejaVuSans-6f" x="1819.230469"/>
     <use xlink:href="#DejaVuSans-74" x="1880.412109"/>
     <use xlink:href="#DejaVuSans-61" x="1919.621094"/>
     <use xlink:href="#DejaVuSans-74" x="1980.900391"/>
     <use xlink:href="#DejaVuSans-69" x="2020.109375"/>
     <use xlink:href="#DejaVuSans-6e" x="2047.892578"/>
     <use xlink:href="#DejaVuSans-67" x="2111.271484"/>
     <use xlink:href="#DejaVuSans-20" x="2174.748047"/>
     <use xlink:href="#DejaVuSans-20" x="2206.535156"/>
     <use xlink:href="#DejaVuSans-6e" x="2238.322266"/>
     <use xlink:href="#DejaVuSans-65" x="2301.701172"/>
     <use xlink:href="#DejaVuSans-63" x="2363.224609"/>
     <use xlink:href="#DejaVuSans-6b" x="2418.205078"/>
     <use xlink:href="#DejaVuSans-20" x="2476.115234"/>
     <use xlink:href="#DejaVuSans-75" x="2507.902344"/>
     <use xlink:href="#DejaVuSans-70" x="2571.28125"/>
     <use xlink:href="#DejaVuSans-20" x="2634.757812"/>
     <use xlink:href="#DejaVuSans-61" x="2666.544922"/>
     <use xlink:href="#DejaVuSans-6e" x="2727.824219"/>
     <use xlink:href="#DejaVuSans-64" x="2791.203125"/>
     <use xlink:href="#DejaVuSans-20" x="2854.679688"/>
     <use xlink:href="#DejaVuSans-64" x="2886.466797"/>
     <use xlink:href="#DejaVuSans-6f" x="2949.943359"/>
     <use xlink:href="#DejaVuSans-77" x="3011.125"/>
     <use xlink:href="#DejaVuSans-6e" x="3092.912109"/>
     <use xlink:href="#DejaVuSans-20" x="3156.291016"/>
     <use xlink:href="#DejaVuSans-73" x="3188.078125"/>
     <use xlink:href="#DejaVuSans-74" x="3240.177734"/>
     <use xlink:href="#DejaVuSans-61" x="3279.386719"/>
     <use xlink:href="#DejaVuSans-72" x="3340.666016"/>
     <use xlink:href="#DejaVuSans-74" x="3381.779297"/>
     <use xlink:href="#DejaVuSans-69" x="3420.988281"/>
     <use xlink:href="#DejaVuSans-6e" x="3448.771484"/>
     <use xlink:href="#DejaVuSans-67" x="3512.150391"/>
     <use xlink:href="#DejaVuSans-20" x="3575.626953"/>
     <use xlink:href="#DejaVuSans-66" x="3607.414062"/>
     <use xlink:href="#DejaVuSans-72" x="3642.619141"/>
     <use xlink:href="#DejaVuSans-6f" x="3681.482422"/>
     <use xlink:href="#DejaVuSans-6d" x="3742.664062"/>
     <use xlink:href="#DejaVuSans-20" x="3840.076172"/>
     <use xlink:href="#DejaVuSans-63" x="3871.863281"/>
     <use xlink:href="#DejaVuSans-65" x="3926.84375"/>
     <use xlink:href="#DejaVuSans-6e" x="3988.367188"/>
     <use xlink:href="#DejaVuSans-74" x="4051.746094"/>
     <use xlink:href="#DejaVuSans-72" x="4090.955078"/>
     <use xlink:href="#DejaVuSans-65" x="4129.818359"/>
     <use xlink:href="#DejaVuSans-20" x="4191.341797"/>
     <use xlink:href="#DejaVuSans-6d" x="4223.128906"/>
     <use xlink:href="#DejaVuSans-6f" x="4320.541016"/>
     <use xlink:href="#DejaVuSans-76" x="4381.722656"/>
     <use xlink:href="#DejaVuSans-69" x="4440.902344"/>
     <use xlink:href="#DejaVuSans-6e" x="4468.685547"/>
     <use xlink:href="#DejaVuSans-67" x="4532.064453"/>
     <use xlink:href="#DejaVuSans-20" x="4595.541016"/>
     <use xlink:href="#DejaVuSans-75" x="4627.328125"/>
     <use xlink:href="#DejaVuSans-70" x="4690.707031"/>
    </g>
   </g>
   <g id="legend_1">
    <g id="patch_7">
     <path d="M 207.867031 198.045187 
L 264.452969 198.045187 
Q 266.452969 198.045187 266.452969 196.045187 
L 266.452969 153.010812 
Q 266.452969 151.010812 264.452969 151.010812 
L 207.867031 151.010812 
Q 205.867031 151.010812 205.867031 153.010812 
L 205.867031 196.045187 
Q 205.867031 198.045187 207.867031 198.045187 
z
" style="fill: #ffffff; opacity: 0.8; stroke: #cccccc; stroke-linejoin: miter"/>
    </g>
    <g id="line2d_17">
     <path d="M 209.867031 159.10925 
L 219.867031 159.10925 
L 229.867031 159.10925 
" style="fill: none; stroke: #1f77b4; stroke-width: 1.5; stroke-linecap: square"/>
    </g>
    <g id="text_17">
     <!-- idx 0 -->
     <g transform="translate(237.867031 162.60925)scale(0.1 -0.1)">
      <defs>
       <path id="DejaVuSans-78" d="M 3513 3500 
L 2247 1797 
L 3578 0 
L 2900 0 
L 1881 1375 
L 863 0 
L 184 0 
L 1544 1831 
L 300 3500 
L 978 3500 
L 1906 2253 
L 2834 3500 
L 3513 3500 
z
" transform="scale(0.015625)"/>
      </defs>
      <use xlink:href="#DejaVuSans-69"/>
      <use xlink:href="#DejaVuSans-64" x="27.783203"/>
      <use xlink:href="#DejaVuSans-78" x="91.259766"/>
      <use xlink:href="#DejaVuSans-20" x="150.439453"/>
      <use xlink:href="#DejaVuSans-30" x="182.226562"/>
     </g>
    </g>
    <g id="line2d_18">
     <path d="M 209.867031 173.787375 
L 219.867031 173.787375 
L 229.867031 173.787375 
" style="fill: none; stroke: #ff7f0e; stroke-width: 1.5; stroke-linecap: square"/>
    </g>
    <g id="text_18">
     <!-- idx 1 -->
     <g transform="translate(237.867031 177.287375)scale(0.1 -0.1)">
      <use xlink:href="#DejaVuSans-69"/>
      <use xlink:href="#DejaVuSans-64" x="27.783203"/>
      <use xlink:href="#DejaVuSans-78" x="91.259766"/>
      <use xlink:href="#DejaVuSans-20" x="150.439453"/>
      <use xlink:href="#DejaVuSans-31" x="182.226562"/>
     </g>
    </g>
    <g id="line2d_19">
     <path d="M 209.867031 188.4655 
L 219.867031 188.4655 
L 229.867031 188.4655 
" style="fill: none; stroke: #2ca02c; stroke-width: 1.5; stroke-linecap: square"/>
    </g>
    <g id="text_19">
     <!-- idx 2 -->
     <g transform="translate(237.867031 191.9655)scale(0.1 -0.1)">
      <use xlink:href="#DejaVuSans-69"/>
      <use xlink:href="#DejaVuSans-64" x="27.783203"/>
      <use xlink:href="#DejaVuSans-78" x="91.259766"/>
      <use xlink:href="#DejaVuSans-20" x="150.439453"/>
      <use xlink:href="#DejaVuSans-32" x="182.226562"/>
     </g>
    </g>
   </g>
  </g>
 </g>
 <defs>
  <clipPath id="p20a37d9ef5">
   <rect x="57.6" y="41.472" width="357.12" height="266.112"/>
  </clipPath>
 </defs>
</svg>
