<?xml version="1.0" encoding="utf-8" standalone="no"?>
<!DOCTYPE svg PUBLIC "-//W3C//DTD SVG 1.1//EN"
  "http://www.w3.org/Graphics/SVG/1.1/DTD/svg11.dtd">
<svg xmlns:xlink="http://www.w3.org/1999/xlink" width="460.8pt" height="345.6pt" viewBox="0 0 460.8 345.6" xmlns="http://www.w3.org/2000/svg" version="1.1">
 <metadata>
  <rdf:RDF xmlns:dc="http://purl.org/dc/elements/1.1/" xmlns:cc="http://creativecommons.org/ns#" xmlns:rdf="http://www.w3.org/1999/02/22-rdf-syntax-ns#">
   <cc:Work>
    <dc:type rdf:resource="http://purl.org/dc/dcmitype/StillImage"/>
    <dc:date>2024-01-30T14:10:24.018915</dc:date>
    <dc:format>image/svg+xml</dc:format>
    <dc:creator>
     <cc:Agent>
      <dc:title>Matplotlib v3.5.0, https://matplotlib.org/</dc:title>
     </cc:Agent>
    </dc:creator>
   </cc:Work>
  </rdf:RDF>
 </metadata>
 <defs>
  <style type="text/css">*{stroke-linejoin: round; stroke-linecap: butt}</style>
 </defs>
 <g id="figure_1">
  <g id="patch_1">
   <path d="M 0 345.6 
L 460.8 345.6 
L 460.8 0 
L 0 0 
z
" style="fill: #ffffff"/>
  </g>
  <g id="axes_1">
   <g id="patch_2">
    <path d="M 57.6 307.584 
L 414.72 307.584 
L 414.72 41.472 
L 57.6 41.472 
z
" style="fill: #ffffff"/>
   </g>
   <g id="matplotlib.axis_1">
    <g id="xtick_1">
     <g id="line2d_1">
      <defs>
       <path id="mbc8ac91239" d="M 0 0 
L 0 3.5 
" style="stroke: #000000; stroke-width: 0.8"/>
      </defs>
      <g>
       <use xlink:href="#mbc8ac91239" x="73.832727" y="307.584" style="stroke: #000000; stroke-width: 0.8"/>
      </g>
     </g>
     <g id="text_1">
      <!-- 0 -->
      <g transform="translate(70.651477 322.182437)scale(0.1 -0.1)">
       <defs>
        <path id="DejaVuSans-30" d="M 2034 4250 
Q 1547 4250 1301 3770 
Q 1056 3291 1056 2328 
Q 1056 1369 1301 889 
Q 1547 409 2034 409 
Q 2525 409 2770 889 
Q 3016 1369 3016 2328 
Q 3016 3291 2770 3770 
Q 2525 4250 2034 4250 
z
M 2034 4750 
Q 2819 4750 3233 4129 
Q 3647 3509 3647 2328 
Q 3647 1150 3233 529 
Q 2819 -91 2034 -91 
Q 1250 -91 836 529 
Q 422 1150 422 2328 
Q 422 3509 836 4129 
Q 1250 4750 2034 4750 
z
" transform="scale(0.015625)"/>
       </defs>
       <use xlink:href="#DejaVuSans-30"/>
      </g>
     </g>
    </g>
    <g id="xtick_2">
     <g id="line2d_2">
      <g>
       <use xlink:href="#mbc8ac91239" x="138.828632" y="307.584" style="stroke: #000000; stroke-width: 0.8"/>
      </g>
     </g>
     <g id="text_2">
      <!-- 200 -->
      <g transform="translate(129.284882 322.182437)scale(0.1 -0.1)">
       <defs>
        <path id="DejaVuSans-32" d="M 1228 531 
L 3431 531 
L 3431 0 
L 469 0 
L 469 531 
Q 828 903 1448 1529 
Q 2069 2156 2228 2338 
Q 2531 2678 2651 2914 
Q 2772 3150 2772 3378 
Q 2772 3750 2511 3984 
Q 2250 4219 1831 4219 
Q 1534 4219 1204 4116 
Q 875 4013 500 3803 
L 500 4441 
Q 881 4594 1212 4672 
Q 1544 4750 1819 4750 
Q 2544 4750 2975 4387 
Q 3406 4025 3406 3419 
Q 3406 3131 3298 2873 
Q 3191 2616 2906 2266 
Q 2828 2175 2409 1742 
Q 1991 1309 1228 531 
z
" transform="scale(0.015625)"/>
       </defs>
       <use xlink:href="#DejaVuSans-32"/>
       <use xlink:href="#DejaVuSans-30" x="63.623047"/>
       <use xlink:href="#DejaVuSans-30" x="127.246094"/>
      </g>
     </g>
    </g>
    <g id="xtick_3">
     <g id="line2d_3">
      <g>
       <use xlink:href="#mbc8ac91239" x="203.824537" y="307.584" style="stroke: #000000; stroke-width: 0.8"/>
      </g>
     </g>
     <g id="text_3">
      <!-- 400 -->
      <g transform="translate(194.280787 322.182437)scale(0.1 -0.1)">
       <defs>
        <path id="DejaVuSans-34" d="M 2419 4116 
L 825 1625 
L 2419 1625 
L 2419 4116 
z
M 2253 4666 
L 3047 4666 
L 3047 1625 
L 3713 1625 
L 3713 1100 
L 3047 1100 
L 3047 0 
L 2419 0 
L 2419 1100 
L 313 1100 
L 313 1709 
L 2253 4666 
z
" transform="scale(0.015625)"/>
       </defs>
       <use xlink:href="#DejaVuSans-34"/>
       <use xlink:href="#DejaVuSans-30" x="63.623047"/>
       <use xlink:href="#DejaVuSans-30" x="127.246094"/>
      </g>
     </g>
    </g>
    <g id="xtick_4">
     <g id="line2d_4">
      <g>
       <use xlink:href="#mbc8ac91239" x="268.820442" y="307.584" style="stroke: #000000; stroke-width: 0.8"/>
      </g>
     </g>
     <g id="text_4">
      <!-- 600 -->
      <g transform="translate(259.276692 322.182437)scale(0.1 -0.1)">
       <defs>
        <path id="DejaVuSans-36" d="M 2113 2584 
Q 1688 2584 1439 2293 
Q 1191 2003 1191 1497 
Q 1191 994 1439 701 
Q 1688 409 2113 409 
Q 2538 409 2786 701 
Q 3034 994 3034 1497 
Q 3034 2003 2786 2293 
Q 2538 2584 2113 2584 
z
M 3366 4563 
L 3366 3988 
Q 3128 4100 2886 4159 
Q 2644 4219 2406 4219 
Q 1781 4219 1451 3797 
Q 1122 3375 1075 2522 
Q 1259 2794 1537 2939 
Q 1816 3084 2150 3084 
Q 2853 3084 3261 2657 
Q 3669 2231 3669 1497 
Q 3669 778 3244 343 
Q 2819 -91 2113 -91 
Q 1303 -91 875 529 
Q 447 1150 447 2328 
Q 447 3434 972 4092 
Q 1497 4750 2381 4750 
Q 2619 4750 2861 4703 
Q 3103 4656 3366 4563 
z
" transform="scale(0.015625)"/>
       </defs>
       <use xlink:href="#DejaVuSans-36"/>
       <use xlink:href="#DejaVuSans-30" x="63.623047"/>
       <use xlink:href="#DejaVuSans-30" x="127.246094"/>
      </g>
     </g>
    </g>
    <g id="xtick_5">
     <g id="line2d_5">
      <g>
       <use xlink:href="#mbc8ac91239" x="333.816347" y="307.584" style="stroke: #000000; stroke-width: 0.8"/>
      </g>
     </g>
     <g id="text_5">
      <!-- 800 -->
      <g transform="translate(324.272597 322.182437)scale(0.1 -0.1)">
       <defs>
        <path id="DejaVuSans-38" d="M 2034 2216 
Q 1584 2216 1326 1975 
Q 1069 1734 1069 1313 
Q 1069 891 1326 650 
Q 1584 409 2034 409 
Q 2484 409 2743 651 
Q 3003 894 3003 1313 
Q 3003 1734 2745 1975 
Q 2488 2216 2034 2216 
z
M 1403 2484 
Q 997 2584 770 2862 
Q 544 3141 544 3541 
Q 544 4100 942 4425 
Q 1341 4750 2034 4750 
Q 2731 4750 3128 4425 
Q 3525 4100 3525 3541 
Q 3525 3141 3298 2862 
Q 3072 2584 2669 2484 
Q 3125 2378 3379 2068 
Q 3634 1759 3634 1313 
Q 3634 634 3220 271 
Q 2806 -91 2034 -91 
Q 1263 -91 848 271 
Q 434 634 434 1313 
Q 434 1759 690 2068 
Q 947 2378 1403 2484 
z
M 1172 3481 
Q 1172 3119 1398 2916 
Q 1625 2713 2034 2713 
Q 2441 2713 2670 2916 
Q 2900 3119 2900 3481 
Q 2900 3844 2670 4047 
Q 2441 4250 2034 4250 
Q 1625 4250 1398 4047 
Q 1172 3844 1172 3481 
z
" transform="scale(0.015625)"/>
       </defs>
       <use xlink:href="#DejaVuSans-38"/>
       <use xlink:href="#DejaVuSans-30" x="63.623047"/>
       <use xlink:href="#DejaVuSans-30" x="127.246094"/>
      </g>
     </g>
    </g>
    <g id="xtick_6">
     <g id="line2d_6">
      <g>
       <use xlink:href="#mbc8ac91239" x="398.812252" y="307.584" style="stroke: #000000; stroke-width: 0.8"/>
      </g>
     </g>
     <g id="text_6">
      <!-- 1000 -->
      <g transform="translate(386.087252 322.182437)scale(0.1 -0.1)">
       <defs>
        <path id="DejaVuSans-31" d="M 794 531 
L 1825 531 
L 1825 4091 
L 703 3866 
L 703 4441 
L 1819 4666 
L 2450 4666 
L 2450 531 
L 3481 531 
L 3481 0 
L 794 0 
L 794 531 
z
" transform="scale(0.015625)"/>
       </defs>
       <use xlink:href="#DejaVuSans-31"/>
       <use xlink:href="#DejaVuSans-30" x="63.623047"/>
       <use xlink:href="#DejaVuSans-30" x="127.246094"/>
       <use xlink:href="#DejaVuSans-30" x="190.869141"/>
      </g>
     </g>
    </g>
    <g id="text_7">
     <!-- Timestamps -->
     <g transform="translate(190.392422 339.659781)scale(0.15 -0.15)">
      <defs>
       <path id="DejaVuSans-54" d="M -19 4666 
L 3928 4666 
L 3928 4134 
L 2272 4134 
L 2272 0 
L 1638 0 
L 1638 4134 
L -19 4134 
L -19 4666 
z
" transform="scale(0.015625)"/>
       <path id="DejaVuSans-69" d="M 603 3500 
L 1178 3500 
L 1178 0 
L 603 0 
L 603 3500 
z
M 603 4863 
L 1178 4863 
L 1178 4134 
L 603 4134 
L 603 4863 
z
" transform="scale(0.015625)"/>
       <path id="DejaVuSans-6d" d="M 3328 2828 
Q 3544 3216 3844 3400 
Q 4144 3584 4550 3584 
Q 5097 3584 5394 3201 
Q 5691 2819 5691 2113 
L 5691 0 
L 5113 0 
L 5113 2094 
Q 5113 2597 4934 2840 
Q 4756 3084 4391 3084 
Q 3944 3084 3684 2787 
Q 3425 2491 3425 1978 
L 3425 0 
L 2847 0 
L 2847 2094 
Q 2847 2600 2669 2842 
Q 2491 3084 2119 3084 
Q 1678 3084 1418 2786 
Q 1159 2488 1159 1978 
L 1159 0 
L 581 0 
L 581 3500 
L 1159 3500 
L 1159 2956 
Q 1356 3278 1631 3431 
Q 1906 3584 2284 3584 
Q 2666 3584 2933 3390 
Q 3200 3197 3328 2828 
z
" transform="scale(0.015625)"/>
       <path id="DejaVuSans-65" d="M 3597 1894 
L 3597 1613 
L 953 1613 
Q 991 1019 1311 708 
Q 1631 397 2203 397 
Q 2534 397 2845 478 
Q 3156 559 3463 722 
L 3463 178 
Q 3153 47 2828 -22 
Q 2503 -91 2169 -91 
Q 1331 -91 842 396 
Q 353 884 353 1716 
Q 353 2575 817 3079 
Q 1281 3584 2069 3584 
Q 2775 3584 3186 3129 
Q 3597 2675 3597 1894 
z
M 3022 2063 
Q 3016 2534 2758 2815 
Q 2500 3097 2075 3097 
Q 1594 3097 1305 2825 
Q 1016 2553 972 2059 
L 3022 2063 
z
" transform="scale(0.015625)"/>
       <path id="DejaVuSans-73" d="M 2834 3397 
L 2834 2853 
Q 2591 2978 2328 3040 
Q 2066 3103 1784 3103 
Q 1356 3103 1142 2972 
Q 928 2841 928 2578 
Q 928 2378 1081 2264 
Q 1234 2150 1697 2047 
L 1894 2003 
Q 2506 1872 2764 1633 
Q 3022 1394 3022 966 
Q 3022 478 2636 193 
Q 2250 -91 1575 -91 
Q 1294 -91 989 -36 
Q 684 19 347 128 
L 347 722 
Q 666 556 975 473 
Q 1284 391 1588 391 
Q 1994 391 2212 530 
Q 2431 669 2431 922 
Q 2431 1156 2273 1281 
Q 2116 1406 1581 1522 
L 1381 1569 
Q 847 1681 609 1914 
Q 372 2147 372 2553 
Q 372 3047 722 3315 
Q 1072 3584 1716 3584 
Q 2034 3584 2315 3537 
Q 2597 3491 2834 3397 
z
" transform="scale(0.015625)"/>
       <path id="DejaVuSans-74" d="M 1172 4494 
L 1172 3500 
L 2356 3500 
L 2356 3053 
L 1172 3053 
L 1172 1153 
Q 1172 725 1289 603 
Q 1406 481 1766 481 
L 2356 481 
L 2356 0 
L 1766 0 
Q 1100 0 847 248 
Q 594 497 594 1153 
L 594 3053 
L 172 3053 
L 172 3500 
L 594 3500 
L 594 4494 
L 1172 4494 
z
" transform="scale(0.015625)"/>
       <path id="DejaVuSans-61" d="M 2194 1759 
Q 1497 1759 1228 1600 
Q 959 1441 959 1056 
Q 959 750 1161 570 
Q 1363 391 1709 391 
Q 2188 391 2477 730 
Q 2766 1069 2766 1631 
L 2766 1759 
L 2194 1759 
z
M 3341 1997 
L 3341 0 
L 2766 0 
L 2766 531 
Q 2569 213 2275 61 
Q 1981 -91 1556 -91 
Q 1019 -91 701 211 
Q 384 513 384 1019 
Q 384 1609 779 1909 
Q 1175 2209 1959 2209 
L 2766 2209 
L 2766 2266 
Q 2766 2663 2505 2880 
Q 2244 3097 1772 3097 
Q 1472 3097 1187 3025 
Q 903 2953 641 2809 
L 641 3341 
Q 956 3463 1253 3523 
Q 1550 3584 1831 3584 
Q 2591 3584 2966 3190 
Q 3341 2797 3341 1997 
z
" transform="scale(0.015625)"/>
       <path id="DejaVuSans-70" d="M 1159 525 
L 1159 -1331 
L 581 -1331 
L 581 3500 
L 1159 3500 
L 1159 2969 
Q 1341 3281 1617 3432 
Q 1894 3584 2278 3584 
Q 2916 3584 3314 3078 
Q 3713 2572 3713 1747 
Q 3713 922 3314 415 
Q 2916 -91 2278 -91 
Q 1894 -91 1617 61 
Q 1341 213 1159 525 
z
M 3116 1747 
Q 3116 2381 2855 2742 
Q 2594 3103 2138 3103 
Q 1681 3103 1420 2742 
Q 1159 2381 1159 1747 
Q 1159 1113 1420 752 
Q 1681 391 2138 391 
Q 2594 391 2855 752 
Q 3116 1113 3116 1747 
z
" transform="scale(0.015625)"/>
      </defs>
      <use xlink:href="#DejaVuSans-54"/>
      <use xlink:href="#DejaVuSans-69" x="57.958984"/>
      <use xlink:href="#DejaVuSans-6d" x="85.742188"/>
      <use xlink:href="#DejaVuSans-65" x="183.154297"/>
      <use xlink:href="#DejaVuSans-73" x="244.677734"/>
      <use xlink:href="#DejaVuSans-74" x="296.777344"/>
      <use xlink:href="#DejaVuSans-61" x="335.986328"/>
      <use xlink:href="#DejaVuSans-6d" x="397.265625"/>
      <use xlink:href="#DejaVuSans-70" x="494.677734"/>
      <use xlink:href="#DejaVuSans-73" x="558.154297"/>
     </g>
    </g>
   </g>
   <g id="matplotlib.axis_2">
    <g id="ytick_1">
     <g id="line2d_7">
      <defs>
       <path id="m8a868f92b6" d="M 0 0 
L -3.5 0 
" style="stroke: #000000; stroke-width: 0.8"/>
      </defs>
      <g>
       <use xlink:href="#m8a868f92b6" x="57.6" y="295.490569" style="stroke: #000000; stroke-width: 0.8"/>
      </g>
     </g>
     <g id="text_8">
      <!-- −1.00 -->
      <g transform="translate(19.954687 299.289787)scale(0.1 -0.1)">
       <defs>
        <path id="DejaVuSans-2212" d="M 678 2272 
L 4684 2272 
L 4684 1741 
L 678 1741 
L 678 2272 
z
" transform="scale(0.015625)"/>
        <path id="DejaVuSans-2e" d="M 684 794 
L 1344 794 
L 1344 0 
L 684 0 
L 684 794 
z
" transform="scale(0.015625)"/>
       </defs>
       <use xlink:href="#DejaVuSans-2212"/>
       <use xlink:href="#DejaVuSans-31" x="83.789062"/>
       <use xlink:href="#DejaVuSans-2e" x="147.412109"/>
       <use xlink:href="#DejaVuSans-30" x="179.199219"/>
       <use xlink:href="#DejaVuSans-30" x="242.822266"/>
      </g>
     </g>
    </g>
    <g id="ytick_2">
     <g id="line2d_8">
      <g>
       <use xlink:href="#m8a868f92b6" x="57.6" y="264.68652" style="stroke: #000000; stroke-width: 0.8"/>
      </g>
     </g>
     <g id="text_9">
      <!-- −0.75 -->
      <g transform="translate(19.954687 268.485739)scale(0.1 -0.1)">
       <defs>
        <path id="DejaVuSans-37" d="M 525 4666 
L 3525 4666 
L 3525 4397 
L 1831 0 
L 1172 0 
L 2766 4134 
L 525 4134 
L 525 4666 
z
" transform="scale(0.015625)"/>
        <path id="DejaVuSans-35" d="M 691 4666 
L 3169 4666 
L 3169 4134 
L 1269 4134 
L 1269 2991 
Q 1406 3038 1543 3061 
Q 1681 3084 1819 3084 
Q 2600 3084 3056 2656 
Q 3513 2228 3513 1497 
Q 3513 744 3044 326 
Q 2575 -91 1722 -91 
Q 1428 -91 1123 -41 
Q 819 9 494 109 
L 494 744 
Q 775 591 1075 516 
Q 1375 441 1709 441 
Q 2250 441 2565 725 
Q 2881 1009 2881 1497 
Q 2881 1984 2565 2268 
Q 2250 2553 1709 2553 
Q 1456 2553 1204 2497 
Q 953 2441 691 2322 
L 691 4666 
z
" transform="scale(0.015625)"/>
       </defs>
       <use xlink:href="#DejaVuSans-2212"/>
       <use xlink:href="#DejaVuSans-30" x="83.789062"/>
       <use xlink:href="#DejaVuSans-2e" x="147.412109"/>
       <use xlink:href="#DejaVuSans-37" x="179.199219"/>
       <use xlink:href="#DejaVuSans-35" x="242.822266"/>
      </g>
     </g>
    </g>
    <g id="ytick_3">
     <g id="line2d_9">
      <g>
       <use xlink:href="#m8a868f92b6" x="57.6" y="233.882471" style="stroke: #000000; stroke-width: 0.8"/>
      </g>
     </g>
     <g id="text_10">
      <!-- −0.50 -->
      <g transform="translate(19.954687 237.68169)scale(0.1 -0.1)">
       <use xlink:href="#DejaVuSans-2212"/>
       <use xlink:href="#DejaVuSans-30" x="83.789062"/>
       <use xlink:href="#DejaVuSans-2e" x="147.412109"/>
       <use xlink:href="#DejaVuSans-35" x="179.199219"/>
       <use xlink:href="#DejaVuSans-30" x="242.822266"/>
      </g>
     </g>
    </g>
    <g id="ytick_4">
     <g id="line2d_10">
      <g>
       <use xlink:href="#m8a868f92b6" x="57.6" y="203.078422" style="stroke: #000000; stroke-width: 0.8"/>
      </g>
     </g>
     <g id="text_11">
      <!-- −0.25 -->
      <g transform="translate(19.954687 206.877641)scale(0.1 -0.1)">
       <use xlink:href="#DejaVuSans-2212"/>
       <use xlink:href="#DejaVuSans-30" x="83.789062"/>
       <use xlink:href="#DejaVuSans-2e" x="147.412109"/>
       <use xlink:href="#DejaVuSans-32" x="179.199219"/>
       <use xlink:href="#DejaVuSans-35" x="242.822266"/>
      </g>
     </g>
    </g>
    <g id="ytick_5">
     <g id="line2d_11">
      <g>
       <use xlink:href="#m8a868f92b6" x="57.6" y="172.274373" style="stroke: #000000; stroke-width: 0.8"/>
      </g>
     </g>
     <g id="text_12">
      <!-- 0.00 -->
      <g transform="translate(28.334375 176.073592)scale(0.1 -0.1)">
       <use xlink:href="#DejaVuSans-30"/>
       <use xlink:href="#DejaVuSans-2e" x="63.623047"/>
       <use xlink:href="#DejaVuSans-30" x="95.410156"/>
       <use xlink:href="#DejaVuSans-30" x="159.033203"/>
      </g>
     </g>
    </g>
    <g id="ytick_6">
     <g id="line2d_12">
      <g>
       <use xlink:href="#m8a868f92b6" x="57.6" y="141.470324" style="stroke: #000000; stroke-width: 0.8"/>
      </g>
     </g>
     <g id="text_13">
      <!-- 0.25 -->
      <g transform="translate(28.334375 145.269543)scale(0.1 -0.1)">
       <use xlink:href="#DejaVuSans-30"/>
       <use xlink:href="#DejaVuSans-2e" x="63.623047"/>
       <use xlink:href="#DejaVuSans-32" x="95.410156"/>
       <use xlink:href="#DejaVuSans-35" x="159.033203"/>
      </g>
     </g>
    </g>
    <g id="ytick_7">
     <g id="line2d_13">
      <g>
       <use xlink:href="#m8a868f92b6" x="57.6" y="110.666276" style="stroke: #000000; stroke-width: 0.8"/>
      </g>
     </g>
     <g id="text_14">
      <!-- 0.50 -->
      <g transform="translate(28.334375 114.465494)scale(0.1 -0.1)">
       <use xlink:href="#DejaVuSans-30"/>
       <use xlink:href="#DejaVuSans-2e" x="63.623047"/>
       <use xlink:href="#DejaVuSans-35" x="95.410156"/>
       <use xlink:href="#DejaVuSans-30" x="159.033203"/>
      </g>
     </g>
    </g>
    <g id="ytick_8">
     <g id="line2d_14">
      <g>
       <use xlink:href="#m8a868f92b6" x="57.6" y="79.862227" style="stroke: #000000; stroke-width: 0.8"/>
      </g>
     </g>
     <g id="text_15">
      <!-- 0.75 -->
      <g transform="translate(28.334375 83.661445)scale(0.1 -0.1)">
       <use xlink:href="#DejaVuSans-30"/>
       <use xlink:href="#DejaVuSans-2e" x="63.623047"/>
       <use xlink:href="#DejaVuSans-37" x="95.410156"/>
       <use xlink:href="#DejaVuSans-35" x="159.033203"/>
      </g>
     </g>
    </g>
    <g id="ytick_9">
     <g id="line2d_15">
      <g>
       <use xlink:href="#m8a868f92b6" x="57.6" y="49.058178" style="stroke: #000000; stroke-width: 0.8"/>
      </g>
     </g>
     <g id="text_16">
      <!-- 1.00 -->
      <g transform="translate(28.334375 52.857397)scale(0.1 -0.1)">
       <use xlink:href="#DejaVuSans-31"/>
       <use xlink:href="#DejaVuSans-2e" x="63.623047"/>
       <use xlink:href="#DejaVuSans-30" x="95.410156"/>
       <use xlink:href="#DejaVuSans-30" x="159.033203"/>
      </g>
     </g>
    </g>
    <g id="text_17">
     <!-- Magnitude -->
     <g transform="translate(12.835156 214.262766)rotate(-90)scale(0.15 -0.15)">
      <defs>
       <path id="DejaVuSans-4d" d="M 628 4666 
L 1569 4666 
L 2759 1491 
L 3956 4666 
L 4897 4666 
L 4897 0 
L 4281 0 
L 4281 4097 
L 3078 897 
L 2444 897 
L 1241 4097 
L 1241 0 
L 628 0 
L 628 4666 
z
" transform="scale(0.015625)"/>
       <path id="DejaVuSans-67" d="M 2906 1791 
Q 2906 2416 2648 2759 
Q 2391 3103 1925 3103 
Q 1463 3103 1205 2759 
Q 947 2416 947 1791 
Q 947 1169 1205 825 
Q 1463 481 1925 481 
Q 2391 481 2648 825 
Q 2906 1169 2906 1791 
z
M 3481 434 
Q 3481 -459 3084 -895 
Q 2688 -1331 1869 -1331 
Q 1566 -1331 1297 -1286 
Q 1028 -1241 775 -1147 
L 775 -588 
Q 1028 -725 1275 -790 
Q 1522 -856 1778 -856 
Q 2344 -856 2625 -561 
Q 2906 -266 2906 331 
L 2906 616 
Q 2728 306 2450 153 
Q 2172 0 1784 0 
Q 1141 0 747 490 
Q 353 981 353 1791 
Q 353 2603 747 3093 
Q 1141 3584 1784 3584 
Q 2172 3584 2450 3431 
Q 2728 3278 2906 2969 
L 2906 3500 
L 3481 3500 
L 3481 434 
z
" transform="scale(0.015625)"/>
       <path id="DejaVuSans-6e" d="M 3513 2113 
L 3513 0 
L 2938 0 
L 2938 2094 
Q 2938 2591 2744 2837 
Q 2550 3084 2163 3084 
Q 1697 3084 1428 2787 
Q 1159 2491 1159 1978 
L 1159 0 
L 581 0 
L 581 3500 
L 1159 3500 
L 1159 2956 
Q 1366 3272 1645 3428 
Q 1925 3584 2291 3584 
Q 2894 3584 3203 3211 
Q 3513 2838 3513 2113 
z
" transform="scale(0.015625)"/>
       <path id="DejaVuSans-75" d="M 544 1381 
L 544 3500 
L 1119 3500 
L 1119 1403 
Q 1119 906 1312 657 
Q 1506 409 1894 409 
Q 2359 409 2629 706 
Q 2900 1003 2900 1516 
L 2900 3500 
L 3475 3500 
L 3475 0 
L 2900 0 
L 2900 538 
Q 2691 219 2414 64 
Q 2138 -91 1772 -91 
Q 1169 -91 856 284 
Q 544 659 544 1381 
z
M 1991 3584 
L 1991 3584 
z
" transform="scale(0.015625)"/>
       <path id="DejaVuSans-64" d="M 2906 2969 
L 2906 4863 
L 3481 4863 
L 3481 0 
L 2906 0 
L 2906 525 
Q 2725 213 2448 61 
Q 2172 -91 1784 -91 
Q 1150 -91 751 415 
Q 353 922 353 1747 
Q 353 2572 751 3078 
Q 1150 3584 1784 3584 
Q 2172 3584 2448 3432 
Q 2725 3281 2906 2969 
z
M 947 1747 
Q 947 1113 1208 752 
Q 1469 391 1925 391 
Q 2381 391 2643 752 
Q 2906 1113 2906 1747 
Q 2906 2381 2643 2742 
Q 2381 3103 1925 3103 
Q 1469 3103 1208 2742 
Q 947 2381 947 1747 
z
" transform="scale(0.015625)"/>
      </defs>
      <use xlink:href="#DejaVuSans-4d"/>
      <use xlink:href="#DejaVuSans-61" x="86.279297"/>
      <use xlink:href="#DejaVuSans-67" x="147.558594"/>
      <use xlink:href="#DejaVuSans-6e" x="211.035156"/>
      <use xlink:href="#DejaVuSans-69" x="274.414062"/>
      <use xlink:href="#DejaVuSans-74" x="302.197266"/>
      <use xlink:href="#DejaVuSans-75" x="341.40625"/>
      <use xlink:href="#DejaVuSans-64" x="404.785156"/>
      <use xlink:href="#DejaVuSans-65" x="468.261719"/>
     </g>
    </g>
   </g>
   <g id="line2d_16">
    <path d="M 73.832727 294.030166 
L 76.757543 294.036252 
L 81.632236 294.277258 
L 82.932154 294.475478 
L 83.582113 294.585217 
L 84.232072 294.845823 
L 86.831908 295.25777 
L 88.131826 295.310243 
L 88.781785 295.166526 
L 89.756724 294.762248 
L 90.731663 294.050735 
L 91.381622 293.323515 
L 91.706601 292.916129 
L 92.031581 291.889053 
L 93.006519 289.80722 
L 93.981458 287.082234 
L 94.956396 283.611783 
L 95.931335 279.579858 
L 96.256314 278.057781 
L 96.581294 274.87084 
L 98.531171 264.217921 
L 99.50611 258.500295 
L 99.831089 254.532613 
L 102.755905 236.468275 
L 103.080885 232.474679 
L 105.680721 217.348421 
L 106.0057 215.500318 
L 106.33068 211.885334 
L 107.305618 206.883665 
L 107.630598 203.882803 
L 108.930516 198.458283 
L 109.580475 196.127033 
L 109.905455 194.135423 
L 110.555414 192.545733 
L 111.205373 191.357463 
L 111.855332 190.73306 
L 112.180311 190.618925 
L 112.505291 190.802301 
L 112.83027 191.138981 
L 113.15525 191.138981 
L 113.805209 193.07098 
L 114.455168 195.076505 
L 114.780147 196.2591 
L 115.105127 199.046101 
L 116.080066 204.068333 
L 117.055004 210.018029 
L 117.379984 214.473932 
L 118.679902 224.452532 
L 119.65484 233.040969 
L 119.97982 239.146529 
L 122.904636 265.876171 
L 123.229615 271.54933 
L 124.204554 278.662643 
L 124.529533 280.717275 
L 124.854513 284.415512 
L 125.179492 284.415512 
L 125.504472 287.48887 
L 126.47941 291.024275 
L 127.129369 292.760539 
L 127.779328 293.965962 
L 128.754267 295.033491 
L 129.404226 295.187874 
L 130.379165 295.174665 
L 131.679083 294.972953 
L 132.654021 294.735871 
L 133.953939 294.357646 
L 134.603898 293.989278 
L 136.228796 292.627191 
L 137.528714 291.62581 
L 138.828632 291.384331 
L 140.45353 291.321304 
L 144.028305 291.389818 
L 145.328223 291.673954 
L 145.653202 291.794262 
L 146.303161 292.243134 
L 147.2781 292.668864 
L 147.928059 294.766714 
L 148.253038 294.766714 
L 148.578018 294.993503 
L 149.877936 295.232278 
L 150.852875 294.999995 
L 151.502834 294.63785 
L 152.152793 294.074623 
L 152.802752 292.828328 
L 153.77769 291.222077 
L 154.752629 289.193094 
L 155.077609 287.585857 
L 156.377527 283.600991 
L 157.352465 280.035152 
L 157.677445 277.400719 
L 158.002424 277.400719 
L 158.327404 274.570128 
L 159.627322 268.100845 
L 159.952301 266.325959 
L 160.277281 262.496076 
L 162.877117 247.208287 
L 163.202097 243.407851 
L 164.826994 234.610799 
L 165.151974 231.543789 
L 166.126912 227.828635 
L 166.451892 226.840984 
L 166.776871 225.1152 
L 167.75181 223.111226 
L 168.401769 222.189779 
L 169.051728 221.547329 
L 169.701687 221.288185 
L 170.026667 221.288066 
L 171.326585 222.480202 
L 171.976544 223.33465 
L 172.301523 223.80763 
L 172.626503 224.917696 
L 173.276462 226.296848 
L 174.2514 228.971087 
L 174.57638 229.916541 
L 175.226339 233.816617 
L 175.876298 236.476928 
L 177.176216 241.367968 
L 177.501196 244.22266 
L 178.801114 251.338754 
L 179.451073 255.222214 
L 179.776052 258.95373 
L 180.101032 258.95373 
L 180.426011 260.85306 
L 180.750991 264.791894 
L 182.375889 274.850985 
L 182.700868 278.437805 
L 184.000786 284.896311 
L 184.650745 287.490639 
L 184.975725 289.747193 
L 185.625684 291.519607 
L 185.950663 291.519607 
L 186.275643 292.869961 
L 186.925602 293.837279 
L 187.575561 294.414313 
L 188.22552 294.627986 
L 189.200459 294.455392 
L 189.850418 294.153054 
L 190.500377 293.586998 
L 191.150336 292.833149 
L 191.475315 292.025696 
L 192.450254 290.922202 
L 194.725111 289.15358 
L 196.350008 288.651212 
L 197.324947 288.343082 
L 198.624865 287.948984 
L 202.849599 288.203897 
L 203.499558 288.385228 
L 204.149517 288.805853 
L 205.449435 289.572817 
L 205.774414 289.810931 
L 206.099394 290.611363 
L 206.424373 290.611363 
L 206.749353 291.138573 
L 207.724292 291.862002 
L 208.049271 293.275026 
L 208.374251 294.063503 
L 209.02421 294.266922 
L 209.674169 294.170234 
L 209.999148 294.03693 
L 211.624046 291.572899 
L 212.274005 290.050948 
L 212.598984 288.201809 
L 214.223882 282.412724 
L 215.198821 278.136869 
L 215.5238 274.89667 
L 218.123636 260.671242 
L 218.448616 258.723229 
L 218.773595 254.845552 
L 221.048452 240.948453 
L 221.373432 237.045364 
L 223.648288 224.095573 
L 223.973268 222.394263 
L 224.298247 219.119955 
L 225.598165 213.265819 
L 226.248124 210.798222 
L 226.573104 208.687281 
L 227.548043 206.195205 
L 228.522981 204.555249 
L 229.17294 203.975499 
L 229.49792 203.798418 
L 229.822899 203.757366 
L 230.147879 203.850119 
L 231.447797 205.997499 
L 232.422735 208.663532 
L 232.747715 209.786688 
L 233.072695 212.27005 
L 234.047633 216.698253 
L 235.672531 225.386817 
L 235.99751 229.049951 
L 239.897265 250.130345 
L 240.222244 251.640465 
L 240.547224 254.843489 
L 241.847142 260.934014 
L 242.172121 264.073086 
L 244.446978 274.425613 
L 245.096937 277.282961 
L 245.421916 280.270143 
L 246.396855 284.390557 
L 247.371794 287.709331 
L 248.021753 289.544549 
L 248.346732 291.023642 
L 249.97163 294.318661 
L 250.296609 294.318661 
L 250.621589 294.952943 
L 251.271548 295.283704 
L 252.246486 295.474178 
L 252.896446 295.447351 
L 254.196364 294.998554 
L 258.746077 293.569516 
L 261.020934 293.431148 
L 263.62077 293.524086 
L 266.220606 293.922079 
L 266.870565 294.202432 
L 270.12036 295.442762 
L 270.770319 295.395311 
L 271.420278 295.173282 
L 273.370156 292.403654 
L 274.345094 290.188569 
L 274.995053 287.131186 
L 275.969992 283.599431 
L 276.94493 279.516916 
L 277.26991 276.561701 
L 278.569828 270.285961 
L 278.894808 267.10464 
L 280.844685 258.060901 
L 281.169664 255.201121 
L 283.119541 246.825085 
L 283.444521 246.305646 
L 284.09448 243.447042 
L 284.419459 240.857304 
L 285.719378 236.492632 
L 286.369337 234.581586 
L 286.694316 232.871667 
L 287.669255 230.729165 
L 288.644193 229.031977 
L 289.944111 227.165236 
L 290.59407 226.930668 
L 291.244029 227.022197 
L 291.569009 227.616898 
L 292.218968 228.418194 
L 292.868927 229.697669 
L 293.518886 231.370066 
L 294.493825 234.890278 
L 294.818804 237.907391 
L 296.443702 246.767456 
L 297.093661 250.768204 
L 297.41864 255.231797 
L 298.0686 260.32755 
L 298.393579 260.32755 
L 298.718559 265.224193 
L 300.018477 273.881138 
L 300.343456 277.660397 
L 301.643374 284.195933 
L 302.618313 287.899787 
L 303.593251 290.554859 
L 304.24321 292.007836 
L 304.56819 293.232319 
L 305.218149 294.11269 
L 306.518067 295.201062 
L 307.168026 295.41178 
L 307.817985 295.426784 
L 309.117903 295.162594 
L 311.71774 294.45498 
L 315.617494 294.029768 
L 322.442064 294.51666 
L 323.417002 294.823081 
L 325.691859 295.488 
L 326.666798 295.397322 
L 327.316757 295.173223 
L 328.291695 294.472286 
L 328.941654 293.339965 
L 329.916593 291.705955 
L 330.566552 290.331942 
L 330.891532 288.657559 
L 331.86647 285.823237 
L 333.166388 280.941713 
L 333.491368 278.261575 
L 335.116265 271.186994 
L 335.441245 268.198087 
L 337.391122 258.950447 
L 338.69104 252.664385 
L 339.01602 249.546585 
L 340.315938 243.603566 
L 340.965897 241.296362 
L 341.290876 238.720379 
L 342.590794 234.032497 
L 343.565733 231.158844 
L 343.890713 229.404831 
L 345.190631 226.641419 
L 346.490549 224.288605 
L 347.140508 223.823962 
L 347.790467 223.746341 
L 348.440426 224.130216 
L 349.090385 224.805639 
L 349.415364 225.689093 
L 349.740344 225.689093 
L 350.390303 227.826466 
L 351.040262 229.822687 
L 352.015201 233.833714 
L 352.34018 236.84791 
L 353.315119 241.711681 
L 354.940016 253.791811 
L 355.589975 257.651665 
L 355.914955 261.359985 
L 358.839771 277.509988 
L 359.16475 280.715392 
L 360.139689 284.879879 
L 360.464668 286.07414 
L 360.789648 288.240632 
L 362.089566 291.799205 
L 362.739525 293.200752 
L 363.064505 293.752633 
L 363.389484 294.560072 
L 364.039443 295.024878 
L 364.689402 295.280365 
L 365.339361 295.357504 
L 365.98932 295.214785 
L 368.914136 294.331067 
L 370.864013 293.582599 
L 371.838952 293.572384 
L 373.788829 293.641866 
L 375.738706 293.690022 
L 379.313481 293.889789 
L 379.96344 293.999774 
L 380.288419 294.20904 
L 380.613399 294.241025 
L 381.263358 294.543284 
L 383.863194 295.379354 
L 384.838133 295.444504 
L 385.488092 295.316592 
L 386.138051 294.956531 
L 386.78801 294.084926 
L 387.437969 293.246331 
L 387.762948 292.722255 
L 388.087928 291.493469 
L 389.387846 288.443487 
L 390.037805 286.604216 
L 390.362785 284.612071 
L 391.662703 279.977292 
L 392.637641 276.032859 
L 392.962621 273.3543 
L 394.912498 265.032018 
L 396.212416 259.184178 
L 396.537396 256.473038 
L 397.837314 251.385925 
L 398.162293 248.827543 
L 398.487273 247.591902 
L 398.487273 247.591902 
" clip-path="url(#p25ad6b3065)" style="fill: none; stroke: #1f77b4; stroke-width: 1.5; stroke-linecap: square"/>
   </g>
   <g id="line2d_17">
    <path d="M 73.832727 170.367212 
L 76.107584 170.14669 
L 78.057461 170.289583 
L 78.70742 170.434756 
L 80.657297 170.679415 
L 81.307256 170.94061 
L 81.632236 171.048595 
L 81.957215 171.344468 
L 82.607174 171.529282 
L 83.582113 172.101602 
L 83.907093 173.069307 
L 84.882031 174.269812 
L 85.207011 174.419038 
L 87.156888 178.029709 
L 91.056642 181.952726 
L 91.381622 182.027824 
L 91.706601 182.352838 
L 92.031581 182.985018 
L 93.331499 183.99325 
L 96.256314 185.560909 
L 96.906274 186.174678 
L 98.856151 187.679708 
L 99.50611 188.309303 
L 99.831089 189.040246 
L 102.430925 191.557125 
L 102.755905 191.761012 
L 103.080885 192.247646 
L 106.0057 194.254919 
L 106.655659 194.98438 
L 107.305618 195.592053 
L 107.630598 196.25401 
L 108.930516 197.618345 
L 109.580475 198.212709 
L 109.905455 198.749101 
L 110.880393 199.333221 
L 111.530352 199.62469 
L 113.15525 199.819553 
L 114.455168 199.4695 
L 114.780147 199.316193 
L 115.430106 198.747112 
L 116.405045 197.846064 
L 117.055004 197.202608 
L 117.379984 196.42139 
L 120.304799 192.37166 
L 120.954758 191.828648 
L 121.604717 191.371784 
L 122.254676 190.398431 
L 122.579656 190.517913 
L 123.229615 190.928512 
L 124.204554 191.032714 
L 124.529533 191.045407 
L 124.854513 190.85025 
L 125.179492 190.85025 
L 126.154431 188.914137 
L 127.779328 185.71018 
L 128.429287 184.040102 
L 128.754267 182.380126 
L 130.054185 179.37281 
L 131.029124 177.477528 
L 131.354103 176.473926 
L 131.679083 176.473926 
L 132.004062 175.799421 
L 132.654021 175.164112 
L 133.30398 174.650985 
L 133.62896 174.421819 
L 133.953939 174.354509 
L 134.278919 174.708003 
L 134.928878 175.947091 
L 136.553776 179.527211 
L 137.203735 180.486142 
L 137.528714 180.920446 
L 138.503653 181.14183 
L 139.153612 181.199929 
L 140.45353 180.969353 
L 144.028305 181.144085 
L 145.003243 181.525119 
L 145.653202 182.133057 
L 145.978182 182.794922 
L 147.2781 184.085476 
L 147.603079 180.098766 
L 147.928059 178.666576 
L 148.253038 178.666576 
L 148.578018 179.256165 
L 149.552957 180.12092 
L 149.877936 180.154476 
L 150.527895 180.743796 
L 151.827813 181.342828 
L 152.477772 181.947188 
L 152.802752 181.779105 
L 154.10267 181.985464 
L 155.077609 182.041089 
L 157.352465 182.736219 
L 157.677445 183.117072 
L 158.002424 183.117072 
L 158.327404 183.646148 
L 159.302342 184.478581 
L 159.952301 184.937315 
L 160.277281 185.47421 
L 163.852056 188.315146 
L 164.502015 188.917347 
L 164.826994 189.087246 
L 165.476953 189.755019 
L 168.07679 191.646364 
L 169.376708 192.358612 
L 170.026667 192.658195 
L 170.351646 192.922248 
L 173.276462 193.777442 
L 174.90136 194.336971 
L 175.551319 195.049461 
L 176.201278 195.074133 
L 177.176216 194.760469 
L 177.501196 194.499575 
L 178.476134 194.271716 
L 179.126093 194.064276 
L 179.451073 193.908753 
L 179.776052 193.485402 
L 180.101032 193.485402 
L 180.426011 193.235368 
L 180.750991 193.12864 
L 181.40095 193.240086 
L 181.72593 193.387798 
L 182.375889 193.313555 
L 183.350827 192.663273 
L 184.000786 192.251105 
L 184.325766 191.739876 
L 184.650745 191.450596 
L 185.300704 190.527254 
L 185.625684 190.081089 
L 185.950663 190.081089 
L 186.275643 189.145157 
L 187.250581 187.811465 
L 189.200459 185.680724 
L 189.850418 185.642737 
L 190.175397 185.827143 
L 190.825356 186.57594 
L 191.150336 187.150278 
L 191.475315 188.426291 
L 193.100213 191.331167 
L 193.750172 191.910067 
L 194.725111 192.235321 
L 195.700049 192.264644 
L 197.324947 192.697679 
L 198.299885 192.960369 
L 199.274824 192.855374 
L 200.899722 192.890438 
L 201.549681 192.796409 
L 202.19964 192.588718 
L 203.174578 192.316516 
L 203.499558 192.23568 
L 205.124455 192.791694 
L 205.774414 193.111523 
L 206.424373 193.061431 
L 207.074333 194.461274 
L 207.724292 195.526322 
L 208.049271 191.549749 
L 208.374251 189.901496 
L 209.349189 189.385705 
L 209.999148 189.067882 
L 210.649107 188.514496 
L 211.949025 187.689967 
L 212.274005 187.39757 
L 213.248943 185.751551 
L 213.573923 185.603518 
L 213.898903 185.581684 
L 214.548862 185.045093 
L 215.84878 184.280654 
L 218.123636 184.215451 
L 218.448616 184.343248 
L 219.098575 184.752524 
L 223.973268 187.255622 
L 224.623227 187.702259 
L 227.223063 188.593697 
L 228.198002 188.695818 
L 229.17294 188.67092 
L 230.797838 188.228832 
L 232.097756 187.574677 
L 232.747715 187.050386 
L 233.072695 186.456779 
L 234.047633 185.279522 
L 235.672531 182.792686 
L 235.99751 181.673995 
L 236.647469 180.426194 
L 239.897265 173.48157 
L 240.222244 172.901308 
L 240.547224 171.475823 
L 242.172121 168.222205 
L 243.14706 167.564763 
L 243.797019 167.341792 
L 244.446978 167.246956 
L 245.096937 167.466797 
L 248.671712 172.469159 
L 249.97163 173.709391 
L 250.296609 173.709391 
L 250.621589 174.255248 
L 250.946568 174.379782 
L 252.571466 173.950224 
L 252.896446 173.823833 
L 253.546405 173.237165 
L 254.846323 171.974015 
L 255.171302 171.619592 
L 255.496282 170.724665 
L 256.7962 169.281841 
L 257.446159 168.689683 
L 258.421097 168.239079 
L 261.670893 168.048304 
L 262.970811 168.014255 
L 263.945749 167.992252 
L 264.920688 168.068761 
L 266.220606 168.320218 
L 268.170483 170.540364 
L 269.145422 172.291937 
L 269.795381 173.70329 
L 270.12036 175.162013 
L 271.420278 177.764461 
L 271.745258 179.094131 
L 272.070238 179.385452 
L 274.345094 183.620362 
L 274.670074 184.810533 
L 274.995053 184.890995 
L 275.969992 186.664558 
L 276.94493 188.099134 
L 277.26991 189.144779 
L 278.569828 191.312604 
L 278.894808 192.288384 
L 280.844685 195.556515 
L 281.169664 196.458249 
L 282.144603 197.587762 
L 283.119541 198.661193 
L 283.444521 198.223174 
L 284.09448 198.2322 
L 284.744439 198.524434 
L 285.394398 198.674559 
L 286.369337 198.702109 
L 287.669255 198.578834 
L 288.969173 198.380312 
L 289.294152 198.326092 
L 289.944111 198.029254 
L 291.244029 197.4766 
L 291.569009 197.047476 
L 294.493825 195.17532 
L 294.818804 194.623474 
L 296.443702 193.178933 
L 297.41864 192.842917 
L 297.74362 192.986754 
L 298.393579 192.988447 
L 298.718559 192.490688 
L 299.368518 191.88444 
L 300.018477 190.964117 
L 300.343456 189.85998 
L 301.968354 186.427815 
L 306.193088 176.694238 
L 307.168026 175.431255 
L 307.493006 175.172666 
L 308.142965 174.433464 
L 309.442883 173.173593 
L 309.767862 172.780138 
L 310.092842 171.955032 
L 311.067781 171.027427 
L 313.017658 169.366562 
L 314.317576 168.587691 
L 317.567371 167.961636 
L 319.517248 168.2916 
L 322.117084 168.997884 
L 323.092023 169.560664 
L 323.417002 170.188749 
L 325.36688 171.85064 
L 325.691859 172.579258 
L 326.341818 173.245446 
L 327.316757 174.084585 
L 327.641736 174.0433 
L 328.291695 174.717605 
L 328.616675 175.487785 
L 330.566552 178.169228 
L 331.216511 179.160082 
L 332.19145 180.178066 
L 333.166388 180.873898 
L 333.491368 181.301783 
L 334.466306 181.887982 
L 335.116265 182.43538 
L 335.441245 183.12059 
L 337.066143 184.328039 
L 338.69104 185.313175 
L 339.01602 185.63661 
L 340.315938 185.951328 
L 340.965897 186.314281 
L 341.290876 186.706549 
L 343.565733 187.77028 
L 343.890713 188.1377 
L 346.490549 189.680551 
L 347.465487 189.927137 
L 348.440426 189.973267 
L 349.090385 189.900667 
L 349.415364 189.778457 
L 349.740344 189.778457 
L 350.065324 189.617358 
L 350.715283 189.488855 
L 351.365242 189.187663 
L 352.015201 188.722974 
L 352.34018 188.18432 
L 353.315119 187.405949 
L 353.965078 187.551172 
L 354.615037 186.534746 
L 355.589975 185.328834 
L 355.914955 184.516722 
L 356.564914 184.087821 
L 357.214873 183.044157 
L 358.514791 181.146042 
L 358.839771 180.818924 
L 359.16475 180.144865 
L 360.464668 179.208351 
L 360.789648 178.737365 
L 361.764586 178.235569 
L 362.414545 178.30422 
L 363.064505 178.541672 
L 363.389484 178.842752 
L 363.714464 178.714247 
L 364.039443 178.400747 
L 364.689402 178.302278 
L 367.939197 176.418614 
L 368.264177 176.598542 
L 368.914136 176.120766 
L 371.188993 176.230595 
L 372.488911 176.152881 
L 374.438788 175.51987 
L 377.038624 174.734765 
L 379.313481 174.037792 
L 379.96344 173.860303 
L 380.613399 174.903212 
L 380.938378 173.94623 
L 381.263358 173.686834 
L 381.588337 173.632332 
L 382.238296 173.752439 
L 382.888256 173.971203 
L 383.863194 174.706802 
L 384.513153 175.218435 
L 385.163112 175.901009 
L 385.813071 176.556504 
L 386.138051 176.887718 
L 386.46303 177.864952 
L 387.437969 178.925741 
L 387.762948 179.222846 
L 388.087928 179.776947 
L 388.737887 180.477692 
L 390.037805 181.97457 
L 390.362785 182.731241 
L 391.662703 184.226222 
L 392.637641 185.040681 
L 392.962621 185.689275 
L 393.61258 186.256688 
L 395.237477 188.126942 
L 396.212416 189.245164 
L 396.537396 190.086746 
L 397.837314 191.836183 
L 398.162293 192.744863 
L 398.487273 193.146688 
L 398.487273 193.146688 
" clip-path="url(#p25ad6b3065)" style="fill: none; stroke: #ff7f0e; stroke-width: 1.5; stroke-linecap: square"/>
   </g>
   <g id="line2d_18">
    <path d="M 73.832727 191.092552 
L 75.132645 191.231875 
L 76.107584 191.131383 
L 78.057461 190.787139 
L 78.70742 190.552794 
L 79.682359 190.294084 
L 80.007338 190.061609 
L 80.657297 189.957162 
L 80.982277 189.693336 
L 81.632236 189.479831 
L 81.957215 188.967601 
L 82.282195 188.753187 
L 82.932154 188.049387 
L 83.257133 187.804988 
L 83.582113 187.182836 
L 83.907093 185.490268 
L 85.207011 182.826747 
L 85.53199 181.383762 
L 86.506929 178.838664 
L 87.806847 173.536315 
L 88.456806 170.591952 
L 88.781785 167.299896 
L 90.731663 156.022946 
L 91.706601 149.334728 
L 92.031581 144.709179 
L 93.981458 129.185982 
L 96.256314 110.504083 
L 96.581294 105.422864 
L 98.206192 93.78346 
L 99.50611 85.728413 
L 99.831089 82.081706 
L 101.131007 75.442816 
L 102.105946 71.381364 
L 102.755905 68.922322 
L 103.080885 66.637149 
L 104.380803 62.744228 
L 105.680721 59.686892 
L 106.0057 59.0021 
L 106.33068 57.77703 
L 107.955577 55.318326 
L 108.930516 54.570009 
L 110.230434 53.833119 
L 111.530352 53.601008 
L 112.505291 53.611528 
L 113.480229 53.841468 
L 114.455168 54.279796 
L 114.780147 54.479177 
L 115.430106 55.320558 
L 116.405045 56.538395 
L 117.055004 57.660968 
L 117.379984 59.056219 
L 118.354922 61.779298 
L 119.004881 64.15888 
L 119.65484 67.16915 
L 119.97982 70.805384 
L 120.954758 77.185681 
L 122.254676 86.993486 
L 122.904636 94.30698 
L 123.229615 101.714199 
L 124.529533 116.866641 
L 124.854513 124.718775 
L 125.179492 124.718775 
L 125.504472 132.416523 
L 128.104308 161.54442 
L 128.429287 164.267265 
L 128.754267 169.064749 
L 129.729206 175.070824 
L 130.704144 179.624915 
L 131.029124 180.76486 
L 131.354103 182.74623 
L 131.679083 182.74623 
L 132.004062 184.269368 
L 133.62896 187.505208 
L 136.553776 198.85206 
L 137.528714 201.646299 
L 138.178673 202.173635 
L 138.503653 202.173635 
L 138.828632 202.522542 
L 139.478591 202.764698 
L 141.428468 202.881394 
L 143.378346 202.781205 
L 144.028305 202.52448 
L 144.678264 202.054969 
L 145.003243 201.693575 
L 145.653202 200.559288 
L 145.978182 199.043474 
L 147.2781 195.681599 
L 147.603079 191.21086 
L 147.928059 183.979212 
L 148.253038 183.979212 
L 148.578018 180.847778 
L 149.552957 175.513608 
L 149.877936 173.495579 
L 150.202916 169.607237 
L 151.502834 160.877248 
L 152.152793 156.217413 
L 152.477772 151.44792 
L 153.452711 143.974251 
L 154.752629 134.621014 
L 155.077609 129.964734 
L 157.352465 113.449219 
L 157.677445 108.92517 
L 158.002424 108.92517 
L 158.327404 104.535983 
L 159.952301 93.685689 
L 160.277281 89.400733 
L 161.577199 81.887611 
L 162.552138 77.017941 
L 162.877117 75.649527 
L 163.202097 72.875833 
L 164.502015 68.362598 
L 164.826994 67.32806 
L 165.151974 65.628876 
L 166.126912 63.766279 
L 166.451892 63.30464 
L 166.776871 62.52621 
L 167.75181 61.684607 
L 168.726749 61.219373 
L 169.376708 61.068144 
L 170.026667 61.079096 
L 171.976544 62.143307 
L 172.301523 62.381168 
L 172.626503 62.940641 
L 173.601441 64.063033 
L 174.57638 65.592127 
L 175.551319 68.866226 
L 177.176216 72.76215 
L 177.501196 74.746344 
L 178.476134 78.76779 
L 179.451073 83.765372 
L 179.776052 87.309595 
L 180.101032 87.309595 
L 180.426011 89.228084 
L 180.750991 93.611528 
L 182.050909 104.429794 
L 182.375889 107.331173 
L 182.700868 113.28808 
L 184.325766 129.589426 
L 184.650745 133.03518 
L 184.975725 140.10488 
L 185.625684 146.863234 
L 185.950663 146.863234 
L 186.275643 153.45124 
L 188.875479 179.235392 
L 189.850418 184.485256 
L 191.150336 192.926725 
L 191.475315 196.37765 
L 192.125274 199.10622 
L 193.100213 202.019069 
L 193.750172 203.609119 
L 194.400131 204.791518 
L 194.725111 205.786171 
L 195.700049 206.89789 
L 196.350008 207.37632 
L 196.999967 207.738936 
L 197.649926 208.559788 
L 198.299885 209.198543 
L 198.624865 209.368335 
L 201.549681 209.155364 
L 203.174578 208.574806 
L 203.499558 208.358288 
L 203.824537 207.45847 
L 204.474496 206.269025 
L 205.449435 203.809515 
L 205.774414 202.822753 
L 206.099394 199.59629 
L 206.424373 199.59629 
L 206.749353 196.494468 
L 207.724292 190.723599 
L 208.69923 175.086159 
L 209.999148 163.666865 
L 210.324128 157.896782 
L 212.274005 139.377552 
L 212.598984 133.122462 
L 213.573923 124.058817 
L 215.198821 110.457509 
L 215.5238 105.161321 
L 216.823718 95.679695 
L 218.448616 85.307858 
L 218.773595 81.654439 
L 220.073514 75.073214 
L 221.048452 70.843854 
L 221.373432 68.349339 
L 222.67335 64.049892 
L 223.648288 61.471502 
L 223.973268 60.713676 
L 224.298247 59.338044 
L 225.273186 57.626346 
L 226.898084 55.398794 
L 227.873022 54.785458 
L 228.847961 54.40723 
L 229.822899 54.26404 
L 230.472858 54.40137 
L 231.447797 54.801779 
L 232.422735 55.52175 
L 232.747715 55.841018 
L 233.072695 56.596197 
L 234.047633 58.083234 
L 235.022572 60.023242 
L 235.672531 61.591655 
L 235.99751 63.322938 
L 237.297428 67.177581 
L 238.922326 73.034837 
L 240.222244 78.025432 
L 240.547224 80.8198 
L 241.847142 86.769606 
L 242.172121 90.184105 
L 243.797019 99.448294 
L 245.096937 107.99129 
L 245.421916 113.110604 
L 248.021753 134.464815 
L 248.346732 139.398213 
L 249.64665 149.672138 
L 249.97163 155.381535 
L 250.296609 155.381535 
L 250.621589 160.948664 
L 251.596527 167.467144 
L 252.896446 175.146497 
L 253.221425 178.860156 
L 254.196364 183.26695 
L 255.821261 188.704904 
L 256.7962 190.945415 
L 258.096118 193.124689 
L 259.396036 193.917988 
L 260.370975 194.26253 
L 262.320852 194.153256 
L 263.945749 193.52232 
L 265.570647 192.326752 
L 266.220606 191.468898 
L 266.545586 190.32387 
L 267.195545 188.898061 
L 267.845504 187.019875 
L 268.495463 184.685704 
L 269.470401 179.934917 
L 269.795381 178.073223 
L 270.12036 174.129713 
L 271.420278 165.350066 
L 271.745258 160.396216 
L 274.020115 140.964797 
L 274.345094 138.366525 
L 274.670074 132.869225 
L 275.320033 126.89331 
L 276.94493 113.70095 
L 277.26991 108.856929 
L 278.569828 100.069753 
L 278.894808 96.189613 
L 279.869746 91.112432 
L 280.844685 86.946522 
L 281.169664 84.407849 
L 282.794562 78.784017 
L 283.119541 77.785439 
L 283.444521 77.257191 
L 284.09448 75.099943 
L 284.419459 73.305747 
L 285.719378 70.490961 
L 286.369337 69.310217 
L 286.694316 68.280792 
L 287.669255 67.044416 
L 288.969173 65.800899 
L 289.944111 65.008745 
L 290.91905 64.787616 
L 291.244029 64.804576 
L 292.868927 65.922344 
L 293.518886 66.759843 
L 294.168845 67.953614 
L 294.493825 68.654744 
L 294.818804 70.41634 
L 295.793743 73.756713 
L 297.093661 79.545235 
L 297.41864 83.520612 
L 298.0686 88.609563 
L 298.393579 88.609563 
L 298.718559 93.955372 
L 300.018477 105.125326 
L 300.343456 110.900421 
L 303.593251 139.348855 
L 304.24321 144.59246 
L 304.56819 150.114044 
L 306.518067 164.806697 
L 307.493006 171.446564 
L 307.817985 175.403692 
L 309.117903 181.169096 
L 310.417821 186.261826 
L 311.71774 188.11648 
L 312.042719 188.422603 
L 312.367699 189.054571 
L 313.667617 190.003898 
L 314.967535 190.844393 
L 315.617494 190.759014 
L 317.567371 190.016311 
L 320.817166 189.003223 
L 321.467125 188.556959 
L 322.117084 187.88067 
L 322.767043 186.916935 
L 323.092023 186.260423 
L 323.741982 183.845998 
L 324.716921 180.140168 
L 325.36688 176.434575 
L 325.691859 173.00703 
L 327.316757 163.624331 
L 328.291695 156.656129 
L 328.616675 152.124261 
L 330.566552 137.490887 
L 330.891532 132.32964 
L 332.841409 117.308159 
L 333.166388 114.831427 
L 333.491368 110.08556 
L 335.116265 99.505689 
L 335.441245 95.702594 
L 337.391122 85.558186 
L 338.366061 81.093126 
L 338.69104 79.809976 
L 339.01602 77.233932 
L 340.315938 72.738881 
L 340.965897 71.175044 
L 341.290876 69.518003 
L 342.265815 67.350892 
L 343.240753 65.632738 
L 343.565733 65.154226 
L 343.890713 64.261883 
L 345.190631 62.951131 
L 346.490549 61.939529 
L 347.140508 61.752507 
L 347.790467 61.731338 
L 348.440426 61.911554 
L 349.090385 62.219779 
L 349.415364 62.626255 
L 349.740344 62.626255 
L 350.390303 63.663024 
L 351.040262 64.671147 
L 352.015201 66.812907 
L 352.34018 68.547042 
L 353.315119 71.617902 
L 353.965078 75.18808 
L 354.290057 77.911281 
L 355.264996 82.625272 
L 355.589975 84.396453 
L 355.914955 88.035936 
L 356.889894 94.139274 
L 358.514791 106.080554 
L 358.839771 108.755157 
L 359.16475 114.301682 
L 360.464668 125.543599 
L 360.789648 131.136944 
L 362.089566 142.939415 
L 363.064505 152.62787 
L 363.389484 158.661981 
L 365.014382 170.652539 
L 365.664341 175.041771 
L 365.98932 178.651207 
L 366.639279 181.605758 
L 367.939197 186.134697 
L 368.914136 188.69399 
L 369.564095 190.513996 
L 369.889075 191.267669 
L 370.214054 192.513475 
L 370.539034 193.134311 
L 370.864013 193.512509 
L 371.188993 193.681311 
L 371.513972 193.699832 
L 372.163931 193.385899 
L 372.488911 193.14248 
L 373.13887 193.063631 
L 374.113808 193.329165 
L 376.388665 192.984916 
L 377.363604 192.990824 
L 378.013563 192.862646 
L 378.663522 192.419877 
L 379.313481 191.992811 
L 379.96344 191.317664 
L 380.288419 189.868105 
L 380.613399 189.579156 
L 381.263358 187.458384 
L 382.888256 182.331573 
L 383.213235 179.791035 
L 383.863194 176.908905 
L 384.838133 171.348197 
L 385.488092 167.112809 
L 386.138051 161.784414 
L 386.46303 157.022177 
L 387.762948 147.249268 
L 388.087928 142.062656 
L 390.037805 127.365286 
L 390.362785 122.745283 
L 392.637641 107.056048 
L 392.962621 103.099794 
L 394.587518 94.297088 
L 396.862375 82.956826 
L 397.837314 79.857214 
L 398.162293 77.919715 
L 398.487273 77.017592 
L 398.487273 77.017592 
" clip-path="url(#p25ad6b3065)" style="fill: none; stroke: #2ca02c; stroke-width: 1.5; stroke-linecap: square"/>
   </g>
   <g id="patch_3">
    <path d="M 57.6 307.584 
L 57.6 41.472 
" style="fill: none; stroke: #000000; stroke-width: 0.8; stroke-linejoin: miter; stroke-linecap: square"/>
   </g>
   <g id="patch_4">
    <path d="M 414.72 307.584 
L 414.72 41.472 
" style="fill: none; stroke: #000000; stroke-width: 0.8; stroke-linejoin: miter; stroke-linecap: square"/>
   </g>
   <g id="patch_5">
    <path d="M 57.6 307.584 
L 414.72 307.584 
" style="fill: none; stroke: #000000; stroke-width: 0.8; stroke-linejoin: miter; stroke-linecap: square"/>
   </g>
   <g id="patch_6">
    <path d="M 57.6 41.472 
L 414.72 41.472 
" style="fill: none; stroke: #000000; stroke-width: 0.8; stroke-linejoin: miter; stroke-linecap: square"/>
   </g>
   <g id="text_18">
    <!-- Change in rotation components for moving right hand up and down -->
    <g transform="translate(-17.562656 35.472)scale(0.15 -0.15)">
     <defs>
      <path id="DejaVuSans-43" d="M 4122 4306 
L 4122 3641 
Q 3803 3938 3442 4084 
Q 3081 4231 2675 4231 
Q 1875 4231 1450 3742 
Q 1025 3253 1025 2328 
Q 1025 1406 1450 917 
Q 1875 428 2675 428 
Q 3081 428 3442 575 
Q 3803 722 4122 1019 
L 4122 359 
Q 3791 134 3420 21 
Q 3050 -91 2638 -91 
Q 1578 -91 968 557 
Q 359 1206 359 2328 
Q 359 3453 968 4101 
Q 1578 4750 2638 4750 
Q 3056 4750 3426 4639 
Q 3797 4528 4122 4306 
z
" transform="scale(0.015625)"/>
      <path id="DejaVuSans-68" d="M 3513 2113 
L 3513 0 
L 2938 0 
L 2938 2094 
Q 2938 2591 2744 2837 
Q 2550 3084 2163 3084 
Q 1697 3084 1428 2787 
Q 1159 2491 1159 1978 
L 1159 0 
L 581 0 
L 581 4863 
L 1159 4863 
L 1159 2956 
Q 1366 3272 1645 3428 
Q 1925 3584 2291 3584 
Q 2894 3584 3203 3211 
Q 3513 2838 3513 2113 
z
" transform="scale(0.015625)"/>
      <path id="DejaVuSans-20" transform="scale(0.015625)"/>
      <path id="DejaVuSans-72" d="M 2631 2963 
Q 2534 3019 2420 3045 
Q 2306 3072 2169 3072 
Q 1681 3072 1420 2755 
Q 1159 2438 1159 1844 
L 1159 0 
L 581 0 
L 581 3500 
L 1159 3500 
L 1159 2956 
Q 1341 3275 1631 3429 
Q 1922 3584 2338 3584 
Q 2397 3584 2469 3576 
Q 2541 3569 2628 3553 
L 2631 2963 
z
" transform="scale(0.015625)"/>
      <path id="DejaVuSans-6f" d="M 1959 3097 
Q 1497 3097 1228 2736 
Q 959 2375 959 1747 
Q 959 1119 1226 758 
Q 1494 397 1959 397 
Q 2419 397 2687 759 
Q 2956 1122 2956 1747 
Q 2956 2369 2687 2733 
Q 2419 3097 1959 3097 
z
M 1959 3584 
Q 2709 3584 3137 3096 
Q 3566 2609 3566 1747 
Q 3566 888 3137 398 
Q 2709 -91 1959 -91 
Q 1206 -91 779 398 
Q 353 888 353 1747 
Q 353 2609 779 3096 
Q 1206 3584 1959 3584 
z
" transform="scale(0.015625)"/>
      <path id="DejaVuSans-63" d="M 3122 3366 
L 3122 2828 
Q 2878 2963 2633 3030 
Q 2388 3097 2138 3097 
Q 1578 3097 1268 2742 
Q 959 2388 959 1747 
Q 959 1106 1268 751 
Q 1578 397 2138 397 
Q 2388 397 2633 464 
Q 2878 531 3122 666 
L 3122 134 
Q 2881 22 2623 -34 
Q 2366 -91 2075 -91 
Q 1284 -91 818 406 
Q 353 903 353 1747 
Q 353 2603 823 3093 
Q 1294 3584 2113 3584 
Q 2378 3584 2631 3529 
Q 2884 3475 3122 3366 
z
" transform="scale(0.015625)"/>
      <path id="DejaVuSans-66" d="M 2375 4863 
L 2375 4384 
L 1825 4384 
Q 1516 4384 1395 4259 
Q 1275 4134 1275 3809 
L 1275 3500 
L 2222 3500 
L 2222 3053 
L 1275 3053 
L 1275 0 
L 697 0 
L 697 3053 
L 147 3053 
L 147 3500 
L 697 3500 
L 697 3744 
Q 697 4328 969 4595 
Q 1241 4863 1831 4863 
L 2375 4863 
z
" transform="scale(0.015625)"/>
      <path id="DejaVuSans-76" d="M 191 3500 
L 800 3500 
L 1894 563 
L 2988 3500 
L 3597 3500 
L 2284 0 
L 1503 0 
L 191 3500 
z
" transform="scale(0.015625)"/>
      <path id="DejaVuSans-77" d="M 269 3500 
L 844 3500 
L 1563 769 
L 2278 3500 
L 2956 3500 
L 3675 769 
L 4391 3500 
L 4966 3500 
L 4050 0 
L 3372 0 
L 2619 2869 
L 1863 0 
L 1184 0 
L 269 3500 
z
" transform="scale(0.015625)"/>
     </defs>
     <use xlink:href="#DejaVuSans-43"/>
     <use xlink:href="#DejaVuSans-68" x="69.824219"/>
     <use xlink:href="#DejaVuSans-61" x="133.203125"/>
     <use xlink:href="#DejaVuSans-6e" x="194.482422"/>
     <use xlink:href="#DejaVuSans-67" x="257.861328"/>
     <use xlink:href="#DejaVuSans-65" x="321.337891"/>
     <use xlink:href="#DejaVuSans-20" x="382.861328"/>
     <use xlink:href="#DejaVuSans-69" x="414.648438"/>
     <use xlink:href="#DejaVuSans-6e" x="442.431641"/>
     <use xlink:href="#DejaVuSans-20" x="505.810547"/>
     <use xlink:href="#DejaVuSans-72" x="537.597656"/>
     <use xlink:href="#DejaVuSans-6f" x="576.460938"/>
     <use xlink:href="#DejaVuSans-74" x="637.642578"/>
     <use xlink:href="#DejaVuSans-61" x="676.851562"/>
     <use xlink:href="#DejaVuSans-74" x="738.130859"/>
     <use xlink:href="#DejaVuSans-69" x="777.339844"/>
     <use xlink:href="#DejaVuSans-6f" x="805.123047"/>
     <use xlink:href="#DejaVuSans-6e" x="866.304688"/>
     <use xlink:href="#DejaVuSans-20" x="929.683594"/>
     <use xlink:href="#DejaVuSans-63" x="961.470703"/>
     <use xlink:href="#DejaVuSans-6f" x="1016.451172"/>
     <use xlink:href="#DejaVuSans-6d" x="1077.632812"/>
     <use xlink:href="#DejaVuSans-70" x="1175.044922"/>
     <use xlink:href="#DejaVuSans-6f" x="1238.521484"/>
     <use xlink:href="#DejaVuSans-6e" x="1299.703125"/>
     <use xlink:href="#DejaVuSans-65" x="1363.082031"/>
     <use xlink:href="#DejaVuSans-6e" x="1424.605469"/>
     <use xlink:href="#DejaVuSans-74" x="1487.984375"/>
     <use xlink:href="#DejaVuSans-73" x="1527.193359"/>
     <use xlink:href="#DejaVuSans-20" x="1579.292969"/>
     <use xlink:href="#DejaVuSans-66" x="1611.080078"/>
     <use xlink:href="#DejaVuSans-6f" x="1646.285156"/>
     <use xlink:href="#DejaVuSans-72" x="1707.466797"/>
     <use xlink:href="#DejaVuSans-20" x="1748.580078"/>
     <use xlink:href="#DejaVuSans-6d" x="1780.367188"/>
     <use xlink:href="#DejaVuSans-6f" x="1877.779297"/>
     <use xlink:href="#DejaVuSans-76" x="1938.960938"/>
     <use xlink:href="#DejaVuSans-69" x="1998.140625"/>
     <use xlink:href="#DejaVuSans-6e" x="2025.923828"/>
     <use xlink:href="#DejaVuSans-67" x="2089.302734"/>
     <use xlink:href="#DejaVuSans-20" x="2152.779297"/>
     <use xlink:href="#DejaVuSans-72" x="2184.566406"/>
     <use xlink:href="#DejaVuSans-69" x="2225.679688"/>
     <use xlink:href="#DejaVuSans-67" x="2253.462891"/>
     <use xlink:href="#DejaVuSans-68" x="2316.939453"/>
     <use xlink:href="#DejaVuSans-74" x="2380.318359"/>
     <use xlink:href="#DejaVuSans-20" x="2419.527344"/>
     <use xlink:href="#DejaVuSans-68" x="2451.314453"/>
     <use xlink:href="#DejaVuSans-61" x="2514.693359"/>
     <use xlink:href="#DejaVuSans-6e" x="2575.972656"/>
     <use xlink:href="#DejaVuSans-64" x="2639.351562"/>
     <use xlink:href="#DejaVuSans-20" x="2702.828125"/>
     <use xlink:href="#DejaVuSans-75" x="2734.615234"/>
     <use xlink:href="#DejaVuSans-70" x="2797.994141"/>
     <use xlink:href="#DejaVuSans-20" x="2861.470703"/>
     <use xlink:href="#DejaVuSans-61" x="2893.257812"/>
     <use xlink:href="#DejaVuSans-6e" x="2954.537109"/>
     <use xlink:href="#DejaVuSans-64" x="3017.916016"/>
     <use xlink:href="#DejaVuSans-20" x="3081.392578"/>
     <use xlink:href="#DejaVuSans-64" x="3113.179688"/>
     <use xlink:href="#DejaVuSans-6f" x="3176.65625"/>
     <use xlink:href="#DejaVuSans-77" x="3237.837891"/>
     <use xlink:href="#DejaVuSans-6e" x="3319.625"/>
    </g>
   </g>
   <g id="legend_1">
    <g id="patch_7">
     <path d="M 351.134063 93.506375 
L 407.72 93.506375 
Q 409.72 93.506375 409.72 91.506375 
L 409.72 48.472 
Q 409.72 46.472 407.72 46.472 
L 351.134063 46.472 
Q 349.134063 46.472 349.134063 48.472 
L 349.134063 91.506375 
Q 349.134063 93.506375 351.134063 93.506375 
z
" style="fill: #ffffff; opacity: 0.8; stroke: #cccccc; stroke-linejoin: miter"/>
    </g>
    <g id="line2d_19">
     <path d="M 353.134063 54.570438 
L 363.134063 54.570438 
L 373.134063 54.570438 
" style="fill: none; stroke: #1f77b4; stroke-width: 1.5; stroke-linecap: square"/>
    </g>
    <g id="text_19">
     <!-- idx 0 -->
     <g transform="translate(381.134063 58.070438)scale(0.1 -0.1)">
      <defs>
       <path id="DejaVuSans-78" d="M 3513 3500 
L 2247 1797 
L 3578 0 
L 2900 0 
L 1881 1375 
L 863 0 
L 184 0 
L 1544 1831 
L 300 3500 
L 978 3500 
L 1906 2253 
L 2834 3500 
L 3513 3500 
z
" transform="scale(0.015625)"/>
      </defs>
      <use xlink:href="#DejaVuSans-69"/>
      <use xlink:href="#DejaVuSans-64" x="27.783203"/>
      <use xlink:href="#DejaVuSans-78" x="91.259766"/>
      <use xlink:href="#DejaVuSans-20" x="150.439453"/>
      <use xlink:href="#DejaVuSans-30" x="182.226562"/>
     </g>
    </g>
    <g id="line2d_20">
     <path d="M 353.134063 69.248563 
L 363.134063 69.248563 
L 373.134063 69.248563 
" style="fill: none; stroke: #ff7f0e; stroke-width: 1.5; stroke-linecap: square"/>
    </g>
    <g id="text_20">
     <!-- idx 1 -->
     <g transform="translate(381.134063 72.748563)scale(0.1 -0.1)">
      <use xlink:href="#DejaVuSans-69"/>
      <use xlink:href="#DejaVuSans-64" x="27.783203"/>
      <use xlink:href="#DejaVuSans-78" x="91.259766"/>
      <use xlink:href="#DejaVuSans-20" x="150.439453"/>
      <use xlink:href="#DejaVuSans-31" x="182.226562"/>
     </g>
    </g>
    <g id="line2d_21">
     <path d="M 353.134063 83.926688 
L 363.134063 83.926688 
L 373.134063 83.926688 
" style="fill: none; stroke: #2ca02c; stroke-width: 1.5; stroke-linecap: square"/>
    </g>
    <g id="text_21">
     <!-- idx 2 -->
     <g transform="translate(381.134063 87.426688)scale(0.1 -0.1)">
      <use xlink:href="#DejaVuSans-69"/>
      <use xlink:href="#DejaVuSans-64" x="27.783203"/>
      <use xlink:href="#DejaVuSans-78" x="91.259766"/>
      <use xlink:href="#DejaVuSans-20" x="150.439453"/>
      <use xlink:href="#DejaVuSans-32" x="182.226562"/>
     </g>
    </g>
   </g>
  </g>
 </g>
 <defs>
  <clipPath id="p25ad6b3065">
   <rect x="57.6" y="41.472" width="357.12" height="266.112"/>
  </clipPath>
 </defs>
</svg>
