<?xml version="1.0" encoding="utf-8" standalone="no"?>
<!DOCTYPE svg PUBLIC "-//W3C//DTD SVG 1.1//EN"
  "http://www.w3.org/Graphics/SVG/1.1/DTD/svg11.dtd">
<svg xmlns:xlink="http://www.w3.org/1999/xlink" width="460.8pt" height="345.6pt" viewBox="0 0 460.8 345.6" xmlns="http://www.w3.org/2000/svg" version="1.1">
 <metadata>
  <rdf:RDF xmlns:dc="http://purl.org/dc/elements/1.1/" xmlns:cc="http://creativecommons.org/ns#" xmlns:rdf="http://www.w3.org/1999/02/22-rdf-syntax-ns#">
   <cc:Work>
    <dc:type rdf:resource="http://purl.org/dc/dcmitype/StillImage"/>
    <dc:date>2024-01-30T14:10:54.209375</dc:date>
    <dc:format>image/svg+xml</dc:format>
    <dc:creator>
     <cc:Agent>
      <dc:title>Matplotlib v3.5.0, https://matplotlib.org/</dc:title>
     </cc:Agent>
    </dc:creator>
   </cc:Work>
  </rdf:RDF>
 </metadata>
 <defs>
  <style type="text/css">*{stroke-linejoin: round; stroke-linecap: butt}</style>
 </defs>
 <g id="figure_1">
  <g id="patch_1">
   <path d="M 0 345.6 
L 460.8 345.6 
L 460.8 0 
L 0 0 
z
" style="fill: #ffffff"/>
  </g>
  <g id="axes_1">
   <g id="patch_2">
    <path d="M 57.6 307.584 
L 414.72 307.584 
L 414.72 41.472 
L 57.6 41.472 
z
" style="fill: #ffffff"/>
   </g>
   <g id="matplotlib.axis_1">
    <g id="xtick_1">
     <g id="line2d_1">
      <defs>
       <path id="m31300e820f" d="M 0 0 
L 0 3.5 
" style="stroke: #000000; stroke-width: 0.8"/>
      </defs>
      <g>
       <use xlink:href="#m31300e820f" x="73.832727" y="307.584" style="stroke: #000000; stroke-width: 0.8"/>
      </g>
     </g>
     <g id="text_1">
      <!-- 0 -->
      <g transform="translate(70.651477 322.182437)scale(0.1 -0.1)">
       <defs>
        <path id="DejaVuSans-30" d="M 2034 4250 
Q 1547 4250 1301 3770 
Q 1056 3291 1056 2328 
Q 1056 1369 1301 889 
Q 1547 409 2034 409 
Q 2525 409 2770 889 
Q 3016 1369 3016 2328 
Q 3016 3291 2770 3770 
Q 2525 4250 2034 4250 
z
M 2034 4750 
Q 2819 4750 3233 4129 
Q 3647 3509 3647 2328 
Q 3647 1150 3233 529 
Q 2819 -91 2034 -91 
Q 1250 -91 836 529 
Q 422 1150 422 2328 
Q 422 3509 836 4129 
Q 1250 4750 2034 4750 
z
" transform="scale(0.015625)"/>
       </defs>
       <use xlink:href="#DejaVuSans-30"/>
      </g>
     </g>
    </g>
    <g id="xtick_2">
     <g id="line2d_2">
      <g>
       <use xlink:href="#m31300e820f" x="138.828632" y="307.584" style="stroke: #000000; stroke-width: 0.8"/>
      </g>
     </g>
     <g id="text_2">
      <!-- 200 -->
      <g transform="translate(129.284882 322.182437)scale(0.1 -0.1)">
       <defs>
        <path id="DejaVuSans-32" d="M 1228 531 
L 3431 531 
L 3431 0 
L 469 0 
L 469 531 
Q 828 903 1448 1529 
Q 2069 2156 2228 2338 
Q 2531 2678 2651 2914 
Q 2772 3150 2772 3378 
Q 2772 3750 2511 3984 
Q 2250 4219 1831 4219 
Q 1534 4219 1204 4116 
Q 875 4013 500 3803 
L 500 4441 
Q 881 4594 1212 4672 
Q 1544 4750 1819 4750 
Q 2544 4750 2975 4387 
Q 3406 4025 3406 3419 
Q 3406 3131 3298 2873 
Q 3191 2616 2906 2266 
Q 2828 2175 2409 1742 
Q 1991 1309 1228 531 
z
" transform="scale(0.015625)"/>
       </defs>
       <use xlink:href="#DejaVuSans-32"/>
       <use xlink:href="#DejaVuSans-30" x="63.623047"/>
       <use xlink:href="#DejaVuSans-30" x="127.246094"/>
      </g>
     </g>
    </g>
    <g id="xtick_3">
     <g id="line2d_3">
      <g>
       <use xlink:href="#m31300e820f" x="203.824537" y="307.584" style="stroke: #000000; stroke-width: 0.8"/>
      </g>
     </g>
     <g id="text_3">
      <!-- 400 -->
      <g transform="translate(194.280787 322.182437)scale(0.1 -0.1)">
       <defs>
        <path id="DejaVuSans-34" d="M 2419 4116 
L 825 1625 
L 2419 1625 
L 2419 4116 
z
M 2253 4666 
L 3047 4666 
L 3047 1625 
L 3713 1625 
L 3713 1100 
L 3047 1100 
L 3047 0 
L 2419 0 
L 2419 1100 
L 313 1100 
L 313 1709 
L 2253 4666 
z
" transform="scale(0.015625)"/>
       </defs>
       <use xlink:href="#DejaVuSans-34"/>
       <use xlink:href="#DejaVuSans-30" x="63.623047"/>
       <use xlink:href="#DejaVuSans-30" x="127.246094"/>
      </g>
     </g>
    </g>
    <g id="xtick_4">
     <g id="line2d_4">
      <g>
       <use xlink:href="#m31300e820f" x="268.820442" y="307.584" style="stroke: #000000; stroke-width: 0.8"/>
      </g>
     </g>
     <g id="text_4">
      <!-- 600 -->
      <g transform="translate(259.276692 322.182437)scale(0.1 -0.1)">
       <defs>
        <path id="DejaVuSans-36" d="M 2113 2584 
Q 1688 2584 1439 2293 
Q 1191 2003 1191 1497 
Q 1191 994 1439 701 
Q 1688 409 2113 409 
Q 2538 409 2786 701 
Q 3034 994 3034 1497 
Q 3034 2003 2786 2293 
Q 2538 2584 2113 2584 
z
M 3366 4563 
L 3366 3988 
Q 3128 4100 2886 4159 
Q 2644 4219 2406 4219 
Q 1781 4219 1451 3797 
Q 1122 3375 1075 2522 
Q 1259 2794 1537 2939 
Q 1816 3084 2150 3084 
Q 2853 3084 3261 2657 
Q 3669 2231 3669 1497 
Q 3669 778 3244 343 
Q 2819 -91 2113 -91 
Q 1303 -91 875 529 
Q 447 1150 447 2328 
Q 447 3434 972 4092 
Q 1497 4750 2381 4750 
Q 2619 4750 2861 4703 
Q 3103 4656 3366 4563 
z
" transform="scale(0.015625)"/>
       </defs>
       <use xlink:href="#DejaVuSans-36"/>
       <use xlink:href="#DejaVuSans-30" x="63.623047"/>
       <use xlink:href="#DejaVuSans-30" x="127.246094"/>
      </g>
     </g>
    </g>
    <g id="xtick_5">
     <g id="line2d_5">
      <g>
       <use xlink:href="#m31300e820f" x="333.816347" y="307.584" style="stroke: #000000; stroke-width: 0.8"/>
      </g>
     </g>
     <g id="text_5">
      <!-- 800 -->
      <g transform="translate(324.272597 322.182437)scale(0.1 -0.1)">
       <defs>
        <path id="DejaVuSans-38" d="M 2034 2216 
Q 1584 2216 1326 1975 
Q 1069 1734 1069 1313 
Q 1069 891 1326 650 
Q 1584 409 2034 409 
Q 2484 409 2743 651 
Q 3003 894 3003 1313 
Q 3003 1734 2745 1975 
Q 2488 2216 2034 2216 
z
M 1403 2484 
Q 997 2584 770 2862 
Q 544 3141 544 3541 
Q 544 4100 942 4425 
Q 1341 4750 2034 4750 
Q 2731 4750 3128 4425 
Q 3525 4100 3525 3541 
Q 3525 3141 3298 2862 
Q 3072 2584 2669 2484 
Q 3125 2378 3379 2068 
Q 3634 1759 3634 1313 
Q 3634 634 3220 271 
Q 2806 -91 2034 -91 
Q 1263 -91 848 271 
Q 434 634 434 1313 
Q 434 1759 690 2068 
Q 947 2378 1403 2484 
z
M 1172 3481 
Q 1172 3119 1398 2916 
Q 1625 2713 2034 2713 
Q 2441 2713 2670 2916 
Q 2900 3119 2900 3481 
Q 2900 3844 2670 4047 
Q 2441 4250 2034 4250 
Q 1625 4250 1398 4047 
Q 1172 3844 1172 3481 
z
" transform="scale(0.015625)"/>
       </defs>
       <use xlink:href="#DejaVuSans-38"/>
       <use xlink:href="#DejaVuSans-30" x="63.623047"/>
       <use xlink:href="#DejaVuSans-30" x="127.246094"/>
      </g>
     </g>
    </g>
    <g id="xtick_6">
     <g id="line2d_6">
      <g>
       <use xlink:href="#m31300e820f" x="398.812252" y="307.584" style="stroke: #000000; stroke-width: 0.8"/>
      </g>
     </g>
     <g id="text_6">
      <!-- 1000 -->
      <g transform="translate(386.087252 322.182437)scale(0.1 -0.1)">
       <defs>
        <path id="DejaVuSans-31" d="M 794 531 
L 1825 531 
L 1825 4091 
L 703 3866 
L 703 4441 
L 1819 4666 
L 2450 4666 
L 2450 531 
L 3481 531 
L 3481 0 
L 794 0 
L 794 531 
z
" transform="scale(0.015625)"/>
       </defs>
       <use xlink:href="#DejaVuSans-31"/>
       <use xlink:href="#DejaVuSans-30" x="63.623047"/>
       <use xlink:href="#DejaVuSans-30" x="127.246094"/>
       <use xlink:href="#DejaVuSans-30" x="190.869141"/>
      </g>
     </g>
    </g>
    <g id="text_7">
     <!-- Timestamps -->
     <g transform="translate(190.392422 339.659781)scale(0.15 -0.15)">
      <defs>
       <path id="DejaVuSans-54" d="M -19 4666 
L 3928 4666 
L 3928 4134 
L 2272 4134 
L 2272 0 
L 1638 0 
L 1638 4134 
L -19 4134 
L -19 4666 
z
" transform="scale(0.015625)"/>
       <path id="DejaVuSans-69" d="M 603 3500 
L 1178 3500 
L 1178 0 
L 603 0 
L 603 3500 
z
M 603 4863 
L 1178 4863 
L 1178 4134 
L 603 4134 
L 603 4863 
z
" transform="scale(0.015625)"/>
       <path id="DejaVuSans-6d" d="M 3328 2828 
Q 3544 3216 3844 3400 
Q 4144 3584 4550 3584 
Q 5097 3584 5394 3201 
Q 5691 2819 5691 2113 
L 5691 0 
L 5113 0 
L 5113 2094 
Q 5113 2597 4934 2840 
Q 4756 3084 4391 3084 
Q 3944 3084 3684 2787 
Q 3425 2491 3425 1978 
L 3425 0 
L 2847 0 
L 2847 2094 
Q 2847 2600 2669 2842 
Q 2491 3084 2119 3084 
Q 1678 3084 1418 2786 
Q 1159 2488 1159 1978 
L 1159 0 
L 581 0 
L 581 3500 
L 1159 3500 
L 1159 2956 
Q 1356 3278 1631 3431 
Q 1906 3584 2284 3584 
Q 2666 3584 2933 3390 
Q 3200 3197 3328 2828 
z
" transform="scale(0.015625)"/>
       <path id="DejaVuSans-65" d="M 3597 1894 
L 3597 1613 
L 953 1613 
Q 991 1019 1311 708 
Q 1631 397 2203 397 
Q 2534 397 2845 478 
Q 3156 559 3463 722 
L 3463 178 
Q 3153 47 2828 -22 
Q 2503 -91 2169 -91 
Q 1331 -91 842 396 
Q 353 884 353 1716 
Q 353 2575 817 3079 
Q 1281 3584 2069 3584 
Q 2775 3584 3186 3129 
Q 3597 2675 3597 1894 
z
M 3022 2063 
Q 3016 2534 2758 2815 
Q 2500 3097 2075 3097 
Q 1594 3097 1305 2825 
Q 1016 2553 972 2059 
L 3022 2063 
z
" transform="scale(0.015625)"/>
       <path id="DejaVuSans-73" d="M 2834 3397 
L 2834 2853 
Q 2591 2978 2328 3040 
Q 2066 3103 1784 3103 
Q 1356 3103 1142 2972 
Q 928 2841 928 2578 
Q 928 2378 1081 2264 
Q 1234 2150 1697 2047 
L 1894 2003 
Q 2506 1872 2764 1633 
Q 3022 1394 3022 966 
Q 3022 478 2636 193 
Q 2250 -91 1575 -91 
Q 1294 -91 989 -36 
Q 684 19 347 128 
L 347 722 
Q 666 556 975 473 
Q 1284 391 1588 391 
Q 1994 391 2212 530 
Q 2431 669 2431 922 
Q 2431 1156 2273 1281 
Q 2116 1406 1581 1522 
L 1381 1569 
Q 847 1681 609 1914 
Q 372 2147 372 2553 
Q 372 3047 722 3315 
Q 1072 3584 1716 3584 
Q 2034 3584 2315 3537 
Q 2597 3491 2834 3397 
z
" transform="scale(0.015625)"/>
       <path id="DejaVuSans-74" d="M 1172 4494 
L 1172 3500 
L 2356 3500 
L 2356 3053 
L 1172 3053 
L 1172 1153 
Q 1172 725 1289 603 
Q 1406 481 1766 481 
L 2356 481 
L 2356 0 
L 1766 0 
Q 1100 0 847 248 
Q 594 497 594 1153 
L 594 3053 
L 172 3053 
L 172 3500 
L 594 3500 
L 594 4494 
L 1172 4494 
z
" transform="scale(0.015625)"/>
       <path id="DejaVuSans-61" d="M 2194 1759 
Q 1497 1759 1228 1600 
Q 959 1441 959 1056 
Q 959 750 1161 570 
Q 1363 391 1709 391 
Q 2188 391 2477 730 
Q 2766 1069 2766 1631 
L 2766 1759 
L 2194 1759 
z
M 3341 1997 
L 3341 0 
L 2766 0 
L 2766 531 
Q 2569 213 2275 61 
Q 1981 -91 1556 -91 
Q 1019 -91 701 211 
Q 384 513 384 1019 
Q 384 1609 779 1909 
Q 1175 2209 1959 2209 
L 2766 2209 
L 2766 2266 
Q 2766 2663 2505 2880 
Q 2244 3097 1772 3097 
Q 1472 3097 1187 3025 
Q 903 2953 641 2809 
L 641 3341 
Q 956 3463 1253 3523 
Q 1550 3584 1831 3584 
Q 2591 3584 2966 3190 
Q 3341 2797 3341 1997 
z
" transform="scale(0.015625)"/>
       <path id="DejaVuSans-70" d="M 1159 525 
L 1159 -1331 
L 581 -1331 
L 581 3500 
L 1159 3500 
L 1159 2969 
Q 1341 3281 1617 3432 
Q 1894 3584 2278 3584 
Q 2916 3584 3314 3078 
Q 3713 2572 3713 1747 
Q 3713 922 3314 415 
Q 2916 -91 2278 -91 
Q 1894 -91 1617 61 
Q 1341 213 1159 525 
z
M 3116 1747 
Q 3116 2381 2855 2742 
Q 2594 3103 2138 3103 
Q 1681 3103 1420 2742 
Q 1159 2381 1159 1747 
Q 1159 1113 1420 752 
Q 1681 391 2138 391 
Q 2594 391 2855 752 
Q 3116 1113 3116 1747 
z
" transform="scale(0.015625)"/>
      </defs>
      <use xlink:href="#DejaVuSans-54"/>
      <use xlink:href="#DejaVuSans-69" x="57.958984"/>
      <use xlink:href="#DejaVuSans-6d" x="85.742188"/>
      <use xlink:href="#DejaVuSans-65" x="183.154297"/>
      <use xlink:href="#DejaVuSans-73" x="244.677734"/>
      <use xlink:href="#DejaVuSans-74" x="296.777344"/>
      <use xlink:href="#DejaVuSans-61" x="335.986328"/>
      <use xlink:href="#DejaVuSans-6d" x="397.265625"/>
      <use xlink:href="#DejaVuSans-70" x="494.677734"/>
      <use xlink:href="#DejaVuSans-73" x="558.154297"/>
     </g>
    </g>
   </g>
   <g id="matplotlib.axis_2">
    <g id="ytick_1">
     <g id="line2d_7">
      <defs>
       <path id="mb90af6365e" d="M 0 0 
L -3.5 0 
" style="stroke: #000000; stroke-width: 0.8"/>
      </defs>
      <g>
       <use xlink:href="#mb90af6365e" x="57.6" y="289.043342" style="stroke: #000000; stroke-width: 0.8"/>
      </g>
     </g>
     <g id="text_8">
      <!-- −0.75 -->
      <g transform="translate(19.954687 292.84256)scale(0.1 -0.1)">
       <defs>
        <path id="DejaVuSans-2212" d="M 678 2272 
L 4684 2272 
L 4684 1741 
L 678 1741 
L 678 2272 
z
" transform="scale(0.015625)"/>
        <path id="DejaVuSans-2e" d="M 684 794 
L 1344 794 
L 1344 0 
L 684 0 
L 684 794 
z
" transform="scale(0.015625)"/>
        <path id="DejaVuSans-37" d="M 525 4666 
L 3525 4666 
L 3525 4397 
L 1831 0 
L 1172 0 
L 2766 4134 
L 525 4134 
L 525 4666 
z
" transform="scale(0.015625)"/>
        <path id="DejaVuSans-35" d="M 691 4666 
L 3169 4666 
L 3169 4134 
L 1269 4134 
L 1269 2991 
Q 1406 3038 1543 3061 
Q 1681 3084 1819 3084 
Q 2600 3084 3056 2656 
Q 3513 2228 3513 1497 
Q 3513 744 3044 326 
Q 2575 -91 1722 -91 
Q 1428 -91 1123 -41 
Q 819 9 494 109 
L 494 744 
Q 775 591 1075 516 
Q 1375 441 1709 441 
Q 2250 441 2565 725 
Q 2881 1009 2881 1497 
Q 2881 1984 2565 2268 
Q 2250 2553 1709 2553 
Q 1456 2553 1204 2497 
Q 953 2441 691 2322 
L 691 4666 
z
" transform="scale(0.015625)"/>
       </defs>
       <use xlink:href="#DejaVuSans-2212"/>
       <use xlink:href="#DejaVuSans-30" x="83.789062"/>
       <use xlink:href="#DejaVuSans-2e" x="147.412109"/>
       <use xlink:href="#DejaVuSans-37" x="179.199219"/>
       <use xlink:href="#DejaVuSans-35" x="242.822266"/>
      </g>
     </g>
    </g>
    <g id="ytick_2">
     <g id="line2d_8">
      <g>
       <use xlink:href="#mb90af6365e" x="57.6" y="254.798669" style="stroke: #000000; stroke-width: 0.8"/>
      </g>
     </g>
     <g id="text_9">
      <!-- −0.50 -->
      <g transform="translate(19.954687 258.597887)scale(0.1 -0.1)">
       <use xlink:href="#DejaVuSans-2212"/>
       <use xlink:href="#DejaVuSans-30" x="83.789062"/>
       <use xlink:href="#DejaVuSans-2e" x="147.412109"/>
       <use xlink:href="#DejaVuSans-35" x="179.199219"/>
       <use xlink:href="#DejaVuSans-30" x="242.822266"/>
      </g>
     </g>
    </g>
    <g id="ytick_3">
     <g id="line2d_9">
      <g>
       <use xlink:href="#mb90af6365e" x="57.6" y="220.553996" style="stroke: #000000; stroke-width: 0.8"/>
      </g>
     </g>
     <g id="text_10">
      <!-- −0.25 -->
      <g transform="translate(19.954687 224.353214)scale(0.1 -0.1)">
       <use xlink:href="#DejaVuSans-2212"/>
       <use xlink:href="#DejaVuSans-30" x="83.789062"/>
       <use xlink:href="#DejaVuSans-2e" x="147.412109"/>
       <use xlink:href="#DejaVuSans-32" x="179.199219"/>
       <use xlink:href="#DejaVuSans-35" x="242.822266"/>
      </g>
     </g>
    </g>
    <g id="ytick_4">
     <g id="line2d_10">
      <g>
       <use xlink:href="#mb90af6365e" x="57.6" y="186.309323" style="stroke: #000000; stroke-width: 0.8"/>
      </g>
     </g>
     <g id="text_11">
      <!-- 0.00 -->
      <g transform="translate(28.334375 190.108541)scale(0.1 -0.1)">
       <use xlink:href="#DejaVuSans-30"/>
       <use xlink:href="#DejaVuSans-2e" x="63.623047"/>
       <use xlink:href="#DejaVuSans-30" x="95.410156"/>
       <use xlink:href="#DejaVuSans-30" x="159.033203"/>
      </g>
     </g>
    </g>
    <g id="ytick_5">
     <g id="line2d_11">
      <g>
       <use xlink:href="#mb90af6365e" x="57.6" y="152.06465" style="stroke: #000000; stroke-width: 0.8"/>
      </g>
     </g>
     <g id="text_12">
      <!-- 0.25 -->
      <g transform="translate(28.334375 155.863869)scale(0.1 -0.1)">
       <use xlink:href="#DejaVuSans-30"/>
       <use xlink:href="#DejaVuSans-2e" x="63.623047"/>
       <use xlink:href="#DejaVuSans-32" x="95.410156"/>
       <use xlink:href="#DejaVuSans-35" x="159.033203"/>
      </g>
     </g>
    </g>
    <g id="ytick_6">
     <g id="line2d_12">
      <g>
       <use xlink:href="#mb90af6365e" x="57.6" y="117.819977" style="stroke: #000000; stroke-width: 0.8"/>
      </g>
     </g>
     <g id="text_13">
      <!-- 0.50 -->
      <g transform="translate(28.334375 121.619196)scale(0.1 -0.1)">
       <use xlink:href="#DejaVuSans-30"/>
       <use xlink:href="#DejaVuSans-2e" x="63.623047"/>
       <use xlink:href="#DejaVuSans-35" x="95.410156"/>
       <use xlink:href="#DejaVuSans-30" x="159.033203"/>
      </g>
     </g>
    </g>
    <g id="ytick_7">
     <g id="line2d_13">
      <g>
       <use xlink:href="#mb90af6365e" x="57.6" y="83.575304" style="stroke: #000000; stroke-width: 0.8"/>
      </g>
     </g>
     <g id="text_14">
      <!-- 0.75 -->
      <g transform="translate(28.334375 87.374523)scale(0.1 -0.1)">
       <use xlink:href="#DejaVuSans-30"/>
       <use xlink:href="#DejaVuSans-2e" x="63.623047"/>
       <use xlink:href="#DejaVuSans-37" x="95.410156"/>
       <use xlink:href="#DejaVuSans-35" x="159.033203"/>
      </g>
     </g>
    </g>
    <g id="ytick_8">
     <g id="line2d_14">
      <g>
       <use xlink:href="#mb90af6365e" x="57.6" y="49.330631" style="stroke: #000000; stroke-width: 0.8"/>
      </g>
     </g>
     <g id="text_15">
      <!-- 1.00 -->
      <g transform="translate(28.334375 53.12985)scale(0.1 -0.1)">
       <use xlink:href="#DejaVuSans-31"/>
       <use xlink:href="#DejaVuSans-2e" x="63.623047"/>
       <use xlink:href="#DejaVuSans-30" x="95.410156"/>
       <use xlink:href="#DejaVuSans-30" x="159.033203"/>
      </g>
     </g>
    </g>
    <g id="text_16">
     <!-- Magnitude -->
     <g transform="translate(12.835156 214.262766)rotate(-90)scale(0.15 -0.15)">
      <defs>
       <path id="DejaVuSans-4d" d="M 628 4666 
L 1569 4666 
L 2759 1491 
L 3956 4666 
L 4897 4666 
L 4897 0 
L 4281 0 
L 4281 4097 
L 3078 897 
L 2444 897 
L 1241 4097 
L 1241 0 
L 628 0 
L 628 4666 
z
" transform="scale(0.015625)"/>
       <path id="DejaVuSans-67" d="M 2906 1791 
Q 2906 2416 2648 2759 
Q 2391 3103 1925 3103 
Q 1463 3103 1205 2759 
Q 947 2416 947 1791 
Q 947 1169 1205 825 
Q 1463 481 1925 481 
Q 2391 481 2648 825 
Q 2906 1169 2906 1791 
z
M 3481 434 
Q 3481 -459 3084 -895 
Q 2688 -1331 1869 -1331 
Q 1566 -1331 1297 -1286 
Q 1028 -1241 775 -1147 
L 775 -588 
Q 1028 -725 1275 -790 
Q 1522 -856 1778 -856 
Q 2344 -856 2625 -561 
Q 2906 -266 2906 331 
L 2906 616 
Q 2728 306 2450 153 
Q 2172 0 1784 0 
Q 1141 0 747 490 
Q 353 981 353 1791 
Q 353 2603 747 3093 
Q 1141 3584 1784 3584 
Q 2172 3584 2450 3431 
Q 2728 3278 2906 2969 
L 2906 3500 
L 3481 3500 
L 3481 434 
z
" transform="scale(0.015625)"/>
       <path id="DejaVuSans-6e" d="M 3513 2113 
L 3513 0 
L 2938 0 
L 2938 2094 
Q 2938 2591 2744 2837 
Q 2550 3084 2163 3084 
Q 1697 3084 1428 2787 
Q 1159 2491 1159 1978 
L 1159 0 
L 581 0 
L 581 3500 
L 1159 3500 
L 1159 2956 
Q 1366 3272 1645 3428 
Q 1925 3584 2291 3584 
Q 2894 3584 3203 3211 
Q 3513 2838 3513 2113 
z
" transform="scale(0.015625)"/>
       <path id="DejaVuSans-75" d="M 544 1381 
L 544 3500 
L 1119 3500 
L 1119 1403 
Q 1119 906 1312 657 
Q 1506 409 1894 409 
Q 2359 409 2629 706 
Q 2900 1003 2900 1516 
L 2900 3500 
L 3475 3500 
L 3475 0 
L 2900 0 
L 2900 538 
Q 2691 219 2414 64 
Q 2138 -91 1772 -91 
Q 1169 -91 856 284 
Q 544 659 544 1381 
z
M 1991 3584 
L 1991 3584 
z
" transform="scale(0.015625)"/>
       <path id="DejaVuSans-64" d="M 2906 2969 
L 2906 4863 
L 3481 4863 
L 3481 0 
L 2906 0 
L 2906 525 
Q 2725 213 2448 61 
Q 2172 -91 1784 -91 
Q 1150 -91 751 415 
Q 353 922 353 1747 
Q 353 2572 751 3078 
Q 1150 3584 1784 3584 
Q 2172 3584 2448 3432 
Q 2725 3281 2906 2969 
z
M 947 1747 
Q 947 1113 1208 752 
Q 1469 391 1925 391 
Q 2381 391 2643 752 
Q 2906 1113 2906 1747 
Q 2906 2381 2643 2742 
Q 2381 3103 1925 3103 
Q 1469 3103 1208 2742 
Q 947 2381 947 1747 
z
" transform="scale(0.015625)"/>
      </defs>
      <use xlink:href="#DejaVuSans-4d"/>
      <use xlink:href="#DejaVuSans-61" x="86.279297"/>
      <use xlink:href="#DejaVuSans-67" x="147.558594"/>
      <use xlink:href="#DejaVuSans-6e" x="211.035156"/>
      <use xlink:href="#DejaVuSans-69" x="274.414062"/>
      <use xlink:href="#DejaVuSans-74" x="302.197266"/>
      <use xlink:href="#DejaVuSans-75" x="341.40625"/>
      <use xlink:href="#DejaVuSans-64" x="404.785156"/>
      <use xlink:href="#DejaVuSans-65" x="468.261719"/>
     </g>
    </g>
   </g>
   <g id="line2d_15">
    <path d="M 73.832727 286.410408 
L 80.332318 285.994423 
L 81.307256 286.043514 
L 81.957215 286.210859 
L 83.582113 287.038855 
L 84.232072 288.472264 
L 86.181949 292.436441 
L 87.481867 294.685048 
L 88.131826 295.344873 
L 88.456806 295.488 
L 89.106765 295.331718 
L 89.756724 294.851021 
L 90.406683 294.007969 
L 91.056642 292.872397 
L 91.381622 291.313456 
L 92.35656 288.651343 
L 93.331499 285.454589 
L 93.656478 282.922869 
L 94.306437 280.288592 
L 95.606355 274.314723 
L 95.931335 271.031129 
L 97.231253 263.963405 
L 98.856151 252.320289 
L 99.831089 246.495566 
L 100.156069 242.825995 
L 103.080885 227.721651 
L 103.405864 225.007059 
L 103.730844 225.007059 
L 104.055823 222.496888 
L 105.030762 219.183387 
L 106.0057 216.599578 
L 106.980639 214.685504 
L 107.630598 214.484241 
L 107.955577 214.584299 
L 108.280557 214.809754 
L 109.580475 217.891551 
L 110.230434 220.120035 
L 110.555414 222.91138 
L 111.205373 226.145598 
L 111.530352 226.145598 
L 111.855332 229.731598 
L 112.83027 236.135332 
L 113.15525 240.794665 
L 113.805209 245.725829 
L 115.430106 258.62721 
L 115.755086 263.582127 
L 117.055004 272.731637 
L 117.704963 276.639695 
L 118.029943 278.472763 
L 118.354922 281.448671 
L 119.004881 283.691915 
L 119.65484 285.296862 
L 120.304799 286.185047 
L 120.954758 287.01705 
L 121.279738 287.263534 
L 121.604717 287.329458 
L 121.929697 287.273991 
L 122.579656 286.785846 
L 122.904636 285.630151 
L 123.229615 284.951948 
L 124.204554 281.712254 
L 125.504472 276.460405 
L 125.829451 273.677794 
L 126.80439 270.148874 
L 127.454349 268.613793 
L 127.779328 267.029807 
L 128.754267 265.30576 
L 130.054185 263.485022 
L 131.679083 262.242118 
L 132.654021 261.972708 
L 133.30398 262.089361 
L 134.278919 262.554625 
L 134.928878 263.109239 
L 135.578837 263.849222 
L 135.903817 264.712039 
L 136.878755 266.43298 
L 138.178673 269.510344 
L 138.503653 271.587729 
L 139.478591 275.312729 
L 140.12855 278.18719 
L 140.45353 281.157065 
L 141.753448 286.680938 
L 142.728387 289.784203 
L 144.028305 293.123047 
L 144.353284 293.4759 
L 145.653202 293.749367 
L 145.978182 293.576687 
L 146.303161 293.27395 
L 146.628141 291.899568 
L 146.95312 291.899568 
L 147.603079 290.083289 
L 148.578018 287.33849 
L 148.902998 285.690695 
L 149.227977 284.668128 
L 149.877936 282.081752 
L 150.202916 279.469538 
L 151.502834 273.478712 
L 152.152793 270.210985 
L 152.477772 266.340076 
L 153.452711 261.647665 
L 154.10267 258.185909 
L 154.427649 256.373405 
L 154.752629 253.524058 
L 155.077609 253.524058 
L 155.402588 250.723713 
L 156.377527 246.199145 
L 157.352465 242.940347 
L 157.677445 240.941391 
L 158.002424 240.941391 
L 158.327404 239.323759 
L 159.627322 236.777259 
L 159.952301 236.129551 
L 160.92724 234.938218 
L 161.252219 234.875353 
L 161.902179 235.100438 
L 162.227158 235.369002 
L 162.877117 236.361404 
L 163.202097 237.750147 
L 163.852056 239.53102 
L 164.502015 241.682647 
L 164.826994 242.741671 
L 165.151974 245.681375 
L 166.451892 252.082775 
L 168.401769 262.9414 
L 168.726749 266.849609 
L 169.051728 268.401025 
L 170.026667 274.584978 
L 170.351646 275.882376 
L 171.326585 281.41334 
L 171.976544 282.996953 
L 172.301523 283.252482 
L 172.626503 283.878338 
L 172.951482 284.197901 
L 173.276462 284.344906 
L 173.601441 284.22026 
L 173.926421 283.874822 
L 174.2514 283.193281 
L 174.57638 282.78992 
L 175.226339 280.702557 
L 176.851237 276.847055 
L 177.176216 276.847055 
L 177.826175 274.504214 
L 178.476134 273.564691 
L 179.451073 271.589504 
L 179.776052 270.27838 
L 181.72593 266.119635 
L 182.375889 265.159734 
L 182.700868 264.366193 
L 183.675807 263.294594 
L 184.650745 262.688269 
L 186.275643 262.155171 
L 186.925602 262.227782 
L 187.575561 262.482259 
L 188.5505 263.103397 
L 189.200459 263.991445 
L 190.175397 265.175805 
L 191.150336 266.753886 
L 191.475315 267.388344 
L 191.800295 268.866605 
L 193.425192 272.70924 
L 193.750172 273.60172 
L 194.075152 275.394933 
L 196.025029 280.698348 
L 196.350008 281.545604 
L 196.674988 283.195068 
L 197.324947 284.470964 
L 198.299885 285.896959 
L 198.624865 285.803542 
L 198.949844 286.625526 
L 199.274824 286.940087 
L 200.249762 287.081866 
L 200.574742 286.892022 
L 200.899722 286.514092 
L 201.224701 284.771938 
L 202.19964 282.79404 
L 203.174578 280.005005 
L 204.149517 276.248396 
L 204.474496 273.006918 
L 205.774414 267.958412 
L 206.099394 265.098249 
L 208.049271 255.617078 
L 208.374251 253.249519 
L 210.649107 245.206064 
L 210.974087 243.375428 
L 212.274005 239.997475 
L 214.223882 236.591427 
L 214.873841 235.921867 
L 215.5238 235.508701 
L 215.84878 235.41127 
L 216.498739 235.737979 
L 218.123636 237.428625 
L 218.448616 238.484746 
L 219.098575 239.906778 
L 220.073514 242.707548 
L 221.048452 246.41677 
L 221.373432 249.206136 
L 222.998329 256.895458 
L 223.973268 262.757721 
L 224.298247 266.926516 
L 225.273186 273.278368 
L 225.923145 277.087914 
L 226.573104 280.464305 
L 226.898084 283.222964 
L 227.548043 285.502855 
L 228.522981 287.827471 
L 229.17294 288.181924 
L 229.49792 288.297307 
L 230.147879 288.157474 
L 230.797838 287.738861 
L 231.447797 285.857839 
L 232.422735 282.569871 
L 233.397674 278.549079 
L 233.722654 277.092535 
L 234.047633 274.372075 
L 235.347551 268.969809 
L 235.99751 266.953024 
L 236.647469 265.477314 
L 237.622408 263.718421 
L 237.947387 262.672156 
L 238.597346 261.797578 
L 239.572285 261.087455 
L 240.872203 260.62406 
L 241.847142 260.571568 
L 242.82208 260.807452 
L 243.472039 261.426585 
L 244.121998 261.98273 
L 245.096937 263.138412 
L 245.421916 264.106219 
L 246.396855 265.660747 
L 247.696773 268.164791 
L 248.346732 269.718827 
L 248.671712 271.374389 
L 250.621589 276.237472 
L 250.946568 277.043825 
L 251.271548 278.572824 
L 251.921507 280.006248 
L 253.546405 283.881803 
L 253.871384 285.297104 
L 254.521343 286.635629 
L 256.146241 288.678641 
L 256.7962 288.974833 
L 257.121179 289.084207 
L 257.771138 288.997845 
L 258.421097 288.605587 
L 258.746077 288.266919 
L 259.071057 287.47361 
L 260.045995 286.425191 
L 260.370975 285.482803 
L 261.020934 284.501385 
L 261.995872 281.003204 
L 262.320852 280.167169 
L 262.970811 277.978654 
L 263.29579 277.281158 
L 263.945749 275.582494 
L 264.270729 273.846168 
L 264.920688 271.945496 
L 265.245667 270.513001 
L 265.570647 269.652115 
L 265.895627 267.622879 
L 266.220606 267.622879 
L 266.870565 264.825105 
L 267.195545 264.146509 
L 267.520524 262.592151 
L 268.820442 259.129512 
L 269.145422 257.609035 
L 269.470401 256.966541 
L 269.795381 256.04453 
L 270.44534 254.93907 
L 270.770319 254.336131 
L 271.095299 253.084689 
L 272.070238 251.687117 
L 273.045176 250.890038 
L 274.345094 250.229902 
L 274.995053 250.227075 
L 275.645012 250.491556 
L 276.294971 251.058985 
L 276.619951 251.46364 
L 276.94493 252.361366 
L 277.919869 253.882666 
L 278.569828 255.300103 
L 279.544767 258.139117 
L 279.869746 260.32886 
L 280.844685 264.074162 
L 281.169664 265.483666 
L 281.494644 268.382962 
L 283.444521 277.881147 
L 283.7695 280.813203 
L 284.744439 284.236622 
L 285.394398 286.152488 
L 285.719378 287.666462 
L 286.369337 288.922659 
L 286.694316 289.17868 
L 287.019296 289.22795 
L 287.344275 289.081279 
L 287.994234 287.918152 
L 288.644193 287.154907 
L 289.294152 286.11971 
L 290.269091 283.67267 
L 290.59407 281.765347 
L 292.543948 275.796758 
L 292.868927 273.829243 
L 294.168845 269.657182 
L 294.818804 267.77801 
L 295.793743 264.715982 
L 296.118722 262.941671 
L 296.768681 261.664057 
L 297.093661 261.218831 
L 297.41864 260.485555 
L 298.393579 259.36529 
L 299.043538 258.823879 
L 299.693497 258.406141 
L 300.018477 258.06418 
L 301.318395 257.525841 
L 302.293333 257.40349 
L 303.593251 257.640905 
L 303.918231 257.78345 
L 304.56819 258.452799 
L 305.543129 259.526195 
L 306.518067 261.045028 
L 306.843047 261.620218 
L 307.168026 263.030334 
L 309.117903 267.718827 
L 310.092842 270.686915 
L 310.417821 272.870264 
L 311.71774 277.064453 
L 313.667617 282.593161 
L 314.317576 283.466054 
L 314.967535 284.009917 
L 315.617494 284.071254 
L 316.267453 283.84275 
L 316.917412 283.22239 
L 317.242391 282.334687 
L 317.892351 281.148651 
L 318.867289 278.84005 
L 319.192269 276.682211 
L 320.492187 271.997515 
L 320.817166 270.170552 
L 321.467125 268.231152 
L 321.792105 265.926664 
L 323.417002 259.187552 
L 323.741982 256.463045 
L 325.36688 250.03542 
L 326.016839 246.290177 
L 326.341818 245.00734 
L 326.666798 243.081059 
L 328.291695 238.608537 
L 328.616675 237.061203 
L 329.591613 234.954294 
L 330.241572 233.922851 
L 330.891532 233.282245 
L 331.541491 232.409056 
L 331.86647 232.231248 
L 332.841409 232.226963 
L 333.816347 232.894223 
L 334.141327 233.101958 
L 334.791286 233.943257 
L 336.091204 236.468184 
L 336.416183 237.95928 
L 336.741163 237.95928 
L 337.066143 239.69167 
L 338.041081 242.935203 
L 338.366061 244.19124 
L 338.69104 247.031181 
L 339.990958 253.587848 
L 340.315938 257.107665 
L 342.265815 268.537668 
L 342.590794 272.255522 
L 342.915774 272.255522 
L 343.240753 275.827325 
L 344.215692 280.237858 
L 345.51561 285.046924 
L 345.84059 285.631386 
L 346.165569 285.976047 
L 346.490549 286.109617 
L 347.465487 284.405969 
L 348.115446 282.417879 
L 348.440426 281.239986 
L 348.765405 278.491295 
L 349.740344 274.145094 
L 350.715283 270.885142 
L 351.040262 268.958977 
L 351.365242 268.958977 
L 351.690221 267.063695 
L 352.66516 264.4484 
L 353.315119 263.256602 
L 353.640098 262.921256 
L 354.290057 262.104214 
L 355.264996 261.086209 
L 355.589975 260.244765 
L 356.889894 258.672114 
L 358.189812 257.850561 
L 358.839771 257.545123 
L 359.814709 257.322314 
L 360.789648 257.73287 
L 361.114627 257.923806 
L 361.439607 258.404831 
L 362.739525 259.597292 
L 363.064505 260.033299 
L 363.389484 261.003381 
L 365.014382 263.67996 
L 365.339361 264.338305 
L 365.664341 265.610222 
L 366.964259 268.466907 
L 367.289238 270.00503 
L 368.589156 272.915583 
L 370.539034 277.432332 
L 370.864013 278.840702 
L 371.838952 280.730599 
L 372.163931 281.02881 
L 372.488911 281.899869 
L 373.13887 282.654625 
L 374.113808 283.473116 
L 374.438788 283.473116 
L 374.763767 283.670288 
L 375.413726 283.581643 
L 376.063686 283.246436 
L 376.713645 282.610078 
L 377.038624 281.824359 
L 378.013563 280.391394 
L 378.338542 279.827596 
L 378.663522 278.538852 
L 379.63846 276.367781 
L 379.96344 275.064824 
L 380.613399 273.746153 
L 381.263358 272.156864 
L 381.588337 269.971037 
L 382.238296 267.986656 
L 382.888256 266.581684 
L 383.213235 264.691454 
L 383.538215 264.691454 
L 383.863194 263.179 
L 384.188174 263.179 
L 384.838133 260.384505 
L 386.138051 257.784816 
L 386.46303 256.305023 
L 387.112989 255.313438 
L 387.762948 254.232205 
L 388.087928 253.788365 
L 388.412907 253.024009 
L 389.387846 252.022896 
L 390.362785 251.741931 
L 391.012744 251.736361 
L 391.662703 251.923672 
L 392.312662 252.21837 
L 392.962621 252.72707 
L 393.2876 253.066844 
L 393.61258 254.08021 
L 394.262539 255.206858 
L 395.237477 257.484204 
L 395.887437 259.328933 
L 396.212416 261.380387 
L 398.162293 268.630186 
L 398.487273 271.782144 
L 398.487273 271.782144 
" clip-path="url(#p2adbd7ed1e)" style="fill: none; stroke: #1f77b4; stroke-width: 1.5; stroke-linecap: square"/>
   </g>
   <g id="line2d_16">
    <path d="M 73.832727 95.134903 
L 81.957215 94.85673 
L 83.582113 95.323753 
L 85.53199 98.671054 
L 86.506929 100.469495 
L 88.131826 104.132844 
L 88.456806 105.361713 
L 90.731663 110.173806 
L 91.056642 111.0565 
L 91.381622 112.745293 
L 92.68154 116.912446 
L 93.331499 119.359954 
L 93.656478 122.097202 
L 95.606355 132.161541 
L 95.931335 135.76387 
L 97.881212 147.367299 
L 98.206192 151.331213 
L 99.831089 161.691744 
L 100.156069 165.77548 
L 103.080885 184.170097 
L 103.405864 187.97557 
L 103.730844 187.97557 
L 104.055823 191.664471 
L 105.355741 198.524749 
L 106.33068 202.649923 
L 106.655659 203.742223 
L 106.980639 205.444637 
L 107.630598 206.458702 
L 107.955577 206.743779 
L 108.280557 206.811888 
L 108.930516 205.769247 
L 109.580475 203.919266 
L 110.230434 201.157449 
L 110.555414 197.758326 
L 111.205373 193.612065 
L 111.530352 193.612065 
L 111.855332 188.693281 
L 112.83027 180.413785 
L 113.15525 174.191978 
L 114.780147 157.013872 
L 115.430106 149.621871 
L 115.755086 142.342568 
L 117.704963 121.887279 
L 118.029943 118.923977 
L 118.354922 113.112855 
L 119.65484 103.027641 
L 120.304799 99.201933 
L 121.279738 94.776351 
L 121.929697 93.816823 
L 122.254676 93.459618 
L 122.579656 93.389343 
L 122.904636 93.145035 
L 123.554595 93.245635 
L 124.204554 93.476759 
L 124.854513 93.967194 
L 125.504472 94.679671 
L 126.154431 95.856916 
L 127.454349 98.035177 
L 127.779328 99.362041 
L 129.079247 101.991247 
L 129.404226 102.581411 
L 129.729206 103.783502 
L 131.029124 105.44334 
L 132.004062 106.293104 
L 132.979001 106.896903 
L 133.62896 106.986125 
L 134.603898 106.888988 
L 135.578837 106.426884 
L 135.903817 105.878073 
L 136.228796 105.61889 
L 136.878755 104.933023 
L 137.528714 104.219347 
L 138.178673 103.426909 
L 138.503653 102.609841 
L 139.153612 102.004838 
L 140.12855 101.374863 
L 140.45353 101.041468 
L 143.053366 100.518111 
L 143.703325 100.646569 
L 144.353284 101.093312 
L 144.678264 101.100701 
L 145.328223 101.688171 
L 146.303161 103.001792 
L 146.628141 103.880223 
L 146.95312 103.880223 
L 147.2781 105.655092 
L 147.928059 107.580183 
L 149.877936 115.969914 
L 150.202916 119.445593 
L 151.827813 129.260798 
L 152.152793 131.365795 
L 152.477772 135.337972 
L 154.427649 146.933636 
L 154.752629 150.504669 
L 155.077609 150.504669 
L 155.402588 153.929393 
L 157.027486 161.349063 
L 157.352465 162.639919 
L 157.677445 164.861628 
L 158.002424 164.861628 
L 158.327404 166.868492 
L 159.302342 169.251897 
L 159.952301 170.527433 
L 160.92724 171.738677 
L 161.252219 171.71873 
L 161.577199 171.586744 
L 162.227158 170.945911 
L 162.877117 169.61919 
L 163.202097 167.696928 
L 163.852056 164.996049 
L 164.826994 159.67811 
L 165.151974 155.626906 
L 166.451892 146.032843 
L 168.401769 129.605964 
L 168.726749 124.10728 
L 170.351646 110.737414 
L 170.676626 108.529797 
L 171.001605 104.409479 
L 172.301523 97.298053 
L 172.951482 94.582794 
L 173.276462 92.254174 
L 174.2514 89.538886 
L 175.226339 88.191009 
L 175.876298 88.194611 
L 176.201278 88.608224 
L 176.526257 88.760004 
L 176.851237 89.254824 
L 177.176216 89.254824 
L 178.476134 93.862293 
L 179.451073 96.45382 
L 179.776052 98.418091 
L 180.426011 99.900959 
L 181.075971 101.086531 
L 182.375889 103.136658 
L 182.700868 104.226046 
L 183.675807 105.596809 
L 185.950663 107.652204 
L 186.600622 107.876789 
L 187.900541 107.971938 
L 188.5505 107.869601 
L 189.200459 107.50171 
L 189.850418 107.090777 
L 190.500377 106.486212 
L 191.150336 105.818673 
L 191.475315 105.518 
L 191.800295 104.974041 
L 192.125274 104.651985 
L 193.750172 102.035743 
L 194.400131 100.191606 
L 195.37507 98.457745 
L 195.700049 98.020253 
L 196.025029 97.202715 
L 196.350008 96.705608 
L 196.674988 95.847975 
L 197.974906 93.914035 
L 198.299885 93.595588 
L 198.624865 92.773458 
L 200.249762 94.479613 
L 200.899722 95.55963 
L 202.524619 101.317224 
L 203.824537 107.756033 
L 204.149517 109.599236 
L 204.474496 113.275721 
L 205.774414 121.549765 
L 206.099394 125.820895 
L 208.049271 138.809781 
L 208.374251 142.851414 
L 209.999148 151.925355 
L 210.649107 155.06749 
L 210.974087 157.961723 
L 211.949025 161.669113 
L 212.598984 163.656143 
L 213.898903 166.967382 
L 214.548862 167.704327 
L 215.198821 168.107912 
L 215.5238 168.206754 
L 216.173759 167.708134 
L 216.823718 166.939482 
L 217.798657 165.214526 
L 218.123636 164.503799 
L 218.448616 162.994107 
L 219.098575 161.112771 
L 219.748534 158.793533 
L 221.048452 152.831545 
L 221.373432 149.549859 
L 222.67335 142.168898 
L 223.973268 133.543079 
L 224.298247 128.93901 
L 225.923145 117.663842 
L 226.573104 113.598231 
L 226.898084 109.737814 
L 228.198002 102.633729 
L 228.522981 99.710006 
L 229.17294 97.321518 
L 230.147879 95.042945 
L 231.122817 93.653006 
L 232.422735 93.142214 
L 232.747715 93.251152 
L 233.072695 93.17367 
L 233.397674 93.571313 
L 233.722654 93.725691 
L 234.047633 94.887187 
L 235.022572 96.258972 
L 235.672531 97.008661 
L 236.972449 99.446928 
L 237.622408 100.670112 
L 237.947387 101.868556 
L 238.597346 103.148718 
L 240.547224 106.008232 
L 241.197183 106.583817 
L 243.14706 107.344583 
L 244.121998 107.246338 
L 245.096937 106.851222 
L 246.071876 106.053083 
L 247.046814 105.429559 
L 247.371794 104.950333 
L 248.346732 104.215538 
L 248.996691 103.231823 
L 250.296609 101.983573 
L 252.571466 98.604958 
L 252.896446 98.255165 
L 253.221425 97.645733 
L 253.546405 97.429549 
L 253.871384 97.037132 
L 254.521343 96.5972 
L 255.171302 95.974275 
L 255.821261 95.562268 
L 256.146241 95.469266 
L 256.7962 95.63899 
L 257.771138 96.395524 
L 258.746077 97.452578 
L 259.396036 98.991957 
L 261.020934 103.134391 
L 261.345913 105.083147 
L 263.62077 112.052218 
L 263.945749 113.271861 
L 264.270729 115.958363 
L 265.570647 122.09195 
L 265.895627 125.27924 
L 266.220606 125.27924 
L 266.545586 128.385125 
L 267.195545 131.322531 
L 267.520524 134.172577 
L 268.820442 139.668138 
L 269.145422 142.165489 
L 270.12036 145.324926 
L 270.770319 147.302723 
L 271.095299 149.294984 
L 272.395217 152.680529 
L 273.045176 153.948258 
L 273.370156 154.41155 
L 273.695135 155.264062 
L 274.670074 156.216949 
L 275.320033 156.554678 
L 275.645012 156.602325 
L 276.294971 156.395284 
L 276.619951 156.157949 
L 277.26991 154.80828 
L 277.919869 153.449723 
L 278.894808 150.765042 
L 279.544767 148.490126 
L 279.869746 145.805544 
L 281.169664 139.439253 
L 281.494644 135.872725 
L 283.119541 126.150751 
L 283.444521 123.993828 
L 283.7695 119.380173 
L 285.069419 110.702647 
L 285.394398 108.838396 
L 285.719378 105.418242 
L 287.344275 98.118152 
L 287.669255 95.725475 
L 287.994234 94.700154 
L 288.644193 93.630649 
L 290.269091 91.907228 
L 290.59407 91.363533 
L 291.569009 91.778321 
L 291.893989 92.015234 
L 292.543948 92.973317 
L 293.193907 94.322645 
L 295.793743 98.436135 
L 296.118722 99.412804 
L 297.093661 100.959599 
L 297.41864 102.02196 
L 297.74362 102.53689 
L 298.393579 103.239351 
L 300.018477 105.193232 
L 302.293333 106.251667 
L 303.268272 106.280097 
L 303.918231 106.148509 
L 305.218149 105.360194 
L 306.193088 104.767883 
L 306.843047 104.192864 
L 307.168026 103.518567 
L 308.142965 102.32154 
L 309.442883 100.212563 
L 310.092842 98.98605 
L 310.417821 97.660621 
L 311.067781 96.346512 
L 311.71774 94.841202 
L 313.667617 91.169514 
L 314.317576 90.650251 
L 315.617494 90.388686 
L 316.267453 90.668605 
L 316.917412 91.261151 
L 317.567371 92.989668 
L 318.21733 94.548269 
L 318.867289 96.487438 
L 319.192269 98.644468 
L 320.167207 102.89036 
L 321.467125 109.751927 
L 321.792105 113.689638 
L 323.417002 124.360238 
L 323.741982 128.678511 
L 326.016839 142.448854 
L 326.341818 144.346642 
L 326.666798 147.826314 
L 327.966716 154.169449 
L 328.291695 155.594733 
L 328.616675 158.133968 
L 329.916593 162.504369 
L 331.541491 166.934513 
L 332.516429 168.117671 
L 333.166388 168.728782 
L 334.141327 168.624578 
L 334.466306 168.441654 
L 335.116265 167.623493 
L 335.766224 166.592258 
L 336.091204 165.860573 
L 336.416183 164.182132 
L 336.741163 164.182132 
L 337.066143 162.153037 
L 338.041081 158.074938 
L 338.366061 156.480861 
L 338.69104 153.114588 
L 339.990958 145.462806 
L 340.315938 141.333587 
L 341.940835 129.75139 
L 342.265815 127.368115 
L 342.590794 122.574419 
L 342.915774 122.574419 
L 343.240753 117.860967 
L 344.865651 106.197822 
L 345.190631 101.907703 
L 346.165569 96.64736 
L 346.490549 95.217304 
L 346.815528 92.596272 
L 347.790467 89.894985 
L 348.765405 88.020158 
L 349.415364 87.53034 
L 350.065324 87.777073 
L 350.715283 88.405422 
L 351.040262 89.749426 
L 351.365242 89.749426 
L 351.690221 91.126241 
L 352.990139 93.192568 
L 353.640098 94.731652 
L 353.965078 96.313214 
L 354.615037 97.712325 
L 355.264996 98.959137 
L 355.589975 100.087737 
L 356.889894 102.140873 
L 357.539853 102.982129 
L 357.864832 103.665327 
L 358.514791 104.223471 
L 359.48973 104.836212 
L 360.789648 105.271107 
L 361.439607 105.259377 
L 362.739525 104.665291 
L 363.064505 104.544547 
L 363.714464 104.059376 
L 364.689402 103.286814 
L 365.339361 102.67739 
L 365.664341 101.887624 
L 366.964259 100.32356 
L 367.289238 99.161939 
L 367.939197 98.510422 
L 368.589156 97.52172 
L 370.539034 94.856257 
L 370.864013 93.914989 
L 371.838952 92.741454 
L 372.488911 91.142272 
L 374.113808 89.923694 
L 375.088747 89.959101 
L 376.388665 90.662245 
L 376.713645 90.944242 
L 377.363604 92.222578 
L 378.338542 94.014431 
L 378.663522 95.572341 
L 381.263358 103.14988 
L 381.588337 105.275177 
L 382.563276 108.797045 
L 382.888256 110.053121 
L 383.213235 112.504068 
L 383.538215 112.504068 
L 383.863194 115.002426 
L 384.188174 115.002426 
L 384.513153 117.45172 
L 386.138051 122.900106 
L 386.46303 124.77397 
L 388.087928 129.039695 
L 388.412907 130.461134 
L 389.062867 131.622932 
L 390.037805 132.915203 
L 391.012744 133.695705 
L 391.662703 133.963015 
L 392.312662 133.689679 
L 392.962621 133.034802 
L 393.2876 132.567819 
L 393.61258 131.387164 
L 394.587518 129.035 
L 395.562457 126.014431 
L 395.887437 124.853035 
L 396.212416 122.286726 
L 397.512334 116.225081 
L 398.162293 113.106376 
L 398.487273 110.102613 
L 398.487273 110.102613 
" clip-path="url(#p2adbd7ed1e)" style="fill: none; stroke: #ff7f0e; stroke-width: 1.5; stroke-linecap: square"/>
   </g>
   <g id="line2d_17">
    <path d="M 73.832727 207.04966 
L 77.732482 207.631074 
L 79.682359 207.574768 
L 80.982277 207.237091 
L 81.957215 206.785361 
L 82.607174 205.985119 
L 83.257133 205.176551 
L 83.582113 204.703642 
L 83.907093 202.712706 
L 84.557052 199.931038 
L 85.53199 194.642257 
L 86.506929 188.213381 
L 87.806847 178.18183 
L 88.131826 175.289298 
L 88.456806 169.260276 
L 91.056642 144.542251 
L 91.381622 138.084574 
L 93.331499 119.592336 
L 93.656478 113.468464 
L 95.606355 96.385851 
L 95.931335 91.280182 
L 97.556233 79.40414 
L 97.881212 77.473382 
L 98.206192 73.673665 
L 99.50611 67.072356 
L 99.831089 65.749152 
L 100.156069 63.234587 
L 101.455987 59.063062 
L 102.430925 56.817372 
L 103.080885 55.758148 
L 103.405864 54.921087 
L 103.730844 54.921087 
L 104.055823 54.305721 
L 104.705782 53.889355 
L 105.680721 53.602669 
L 106.655659 53.587117 
L 107.955577 53.847538 
L 109.905455 54.277358 
L 110.230434 54.402034 
L 111.205373 55.454811 
L 111.530352 55.454811 
L 112.180311 57.101499 
L 112.83027 58.850418 
L 113.15525 61.218656 
L 113.805209 64.305121 
L 114.780147 70.564191 
L 115.430106 75.913128 
L 115.755086 82.102791 
L 116.730025 93.109153 
L 118.029943 110.623949 
L 118.354922 120.324888 
L 120.954758 162.116596 
L 121.279738 172.412482 
L 122.579656 192.098075 
L 122.904636 201.10632 
L 124.529533 222.629694 
L 125.504472 233.637452 
L 125.829451 239.843932 
L 126.80439 247.419302 
L 127.454349 251.092139 
L 127.779328 254.77492 
L 128.754267 259.144357 
L 129.404226 261.494309 
L 129.729206 263.443804 
L 130.704144 265.63163 
L 131.679083 267.279886 
L 132.329042 267.935432 
L 132.979001 268.346887 
L 133.62896 268.222982 
L 134.278919 267.8597 
L 134.603898 267.600218 
L 135.578837 266.118617 
L 135.903817 264.712102 
L 136.553776 262.878337 
L 137.203735 260.847736 
L 137.853694 258.309918 
L 138.178673 256.81649 
L 138.503653 253.280642 
L 139.478591 247.147742 
L 140.12855 242.056623 
L 140.45353 236.273915 
L 141.753448 223.423802 
L 143.703325 201.774275 
L 144.028305 194.240971 
L 146.303161 166.775013 
L 146.628141 157.685726 
L 146.95312 157.685726 
L 147.2781 149.907666 
L 149.877936 118.168533 
L 150.202916 111.385544 
L 151.827813 95.790524 
L 152.152793 93.009375 
L 152.477772 87.515786 
L 153.77769 78.946736 
L 154.427649 75.387084 
L 154.752629 72.452535 
L 155.077609 72.452535 
L 155.402588 69.838327 
L 156.052547 67.420119 
L 156.702506 65.405108 
L 157.352465 63.851767 
L 157.677445 62.541406 
L 158.002424 62.541406 
L 158.327404 61.510748 
L 159.302342 60.344642 
L 160.277281 59.490516 
L 161.252219 59.063022 
L 161.902179 59.194654 
L 162.552138 59.575255 
L 162.877117 59.899714 
L 163.202097 60.728321 
L 163.852056 61.905315 
L 164.502015 63.487861 
L 164.826994 64.369468 
L 165.151974 66.740469 
L 165.801933 69.597517 
L 166.776871 75.110093 
L 167.42683 79.656951 
L 168.401769 87.945632 
L 168.726749 94.617803 
L 169.376708 102.33908 
L 170.676626 120.359635 
L 171.001605 129.41009 
L 172.951482 158.610272 
L 173.276462 168.821863 
L 174.57638 187.952639 
L 174.90136 197.022604 
L 176.201278 213.436592 
L 176.851237 220.169363 
L 177.176216 220.169363 
L 177.826175 232.047438 
L 179.451073 244.75969 
L 179.776052 249.455917 
L 181.40095 257.923725 
L 182.375889 261.329892 
L 182.700868 263.332878 
L 183.675807 265.819841 
L 184.975725 267.827932 
L 185.950663 268.898954 
L 186.600622 269.12076 
L 187.250581 269.016851 
L 187.900541 268.748555 
L 188.5505 268.242529 
L 188.875479 267.489145 
L 189.525438 266.502829 
L 190.175397 265.126367 
L 190.825356 263.567424 
L 191.475315 261.556371 
L 191.800295 259.33009 
L 192.450254 256.618834 
L 192.775233 255.218065 
L 193.750172 249.879476 
L 194.075152 245.817309 
L 196.350008 227.106256 
L 196.674988 220.850099 
L 197.974906 206.162205 
L 198.624865 197.038177 
L 198.949844 189.355219 
L 200.574742 168.666117 
L 200.899722 164.248945 
L 201.224701 154.089167 
L 204.149517 117.101759 
L 204.474496 109.414677 
L 205.774414 97.41168 
L 206.099394 91.98744 
L 207.399312 82.414387 
L 208.049271 78.127083 
L 208.374251 74.982869 
L 209.349189 70.971599 
L 210.974087 65.053224 
L 211.949025 63.156231 
L 212.598984 62.085531 
L 214.223882 60.307544 
L 215.198821 59.837817 
L 215.84878 59.752066 
L 216.498739 59.970817 
L 217.798657 60.801878 
L 218.123636 61.111485 
L 218.448616 61.821212 
L 219.098575 62.795709 
L 219.748534 64.01358 
L 220.723473 66.770895 
L 221.048452 67.863152 
L 221.373432 70.309752 
L 222.34837 74.752783 
L 223.323309 80.717756 
L 223.973268 85.638918 
L 224.298247 91.585084 
L 225.923145 110.084574 
L 226.573104 118.404212 
L 226.898084 127.08337 
L 228.198002 145.918037 
L 228.522981 155.361214 
L 230.797838 187.964304 
L 231.122817 197.256305 
L 232.747715 219.096901 
L 233.722654 230.466326 
L 234.047633 237.788541 
L 234.697592 244.079924 
L 235.347551 248.604156 
L 236.32249 254.277284 
L 237.297428 258.74841 
L 237.622408 260.0448 
L 237.947387 262.477825 
L 238.597346 264.724878 
L 239.572285 266.884522 
L 239.897265 267.464011 
L 240.222244 268.307142 
L 241.197183 269.322774 
L 242.172121 269.752467 
L 242.82208 269.767291 
L 244.121998 268.684963 
L 244.771957 267.728692 
L 245.096937 267.222018 
L 245.421916 265.983361 
L 246.396855 263.733856 
L 247.046814 262.032385 
L 248.346732 257.489614 
L 248.671712 254.821912 
L 250.296609 247.242203 
L 250.946568 243.405052 
L 251.271548 239.821949 
L 252.571466 231.231681 
L 253.546405 222.958479 
L 253.871384 217.853846 
L 255.496282 202.166087 
L 255.821261 198.779781 
L 256.146241 191.946058 
L 258.746077 164.577076 
L 259.071057 158.098154 
L 261.020934 139.368839 
L 261.345913 133.74664 
L 263.29579 116.976866 
L 263.945749 112.424304 
L 264.270729 107.879723 
L 265.570647 98.598064 
L 265.895627 94.512807 
L 266.220606 94.512807 
L 266.545586 91.106255 
L 268.170483 82.56581 
L 268.820442 80.078505 
L 269.145422 78.000324 
L 270.44534 74.72415 
L 270.770319 73.997263 
L 271.095299 72.580893 
L 272.070238 70.945545 
L 273.045176 69.925247 
L 273.370156 69.695353 
L 273.695135 69.304815 
L 274.670074 68.938083 
L 275.320033 68.917619 
L 275.969992 69.146864 
L 276.619951 69.651814 
L 276.94493 70.370968 
L 277.919869 71.778764 
L 278.569828 73.141503 
L 279.219787 74.919707 
L 279.544767 75.976409 
L 279.869746 78.403267 
L 280.844685 82.988994 
L 281.169664 84.831338 
L 281.494644 88.927442 
L 282.469582 96.286669 
L 283.444521 105.720605 
L 283.7695 113.147378 
L 285.394398 133.462681 
L 285.719378 142.189865 
L 287.344275 165.732473 
L 287.669255 175.270527 
L 289.619132 199.86627 
L 290.269091 205.591168 
L 290.59407 211.540472 
L 291.893989 225.208948 
L 292.543948 231.515033 
L 292.868927 236.672368 
L 293.843866 244.630644 
L 295.143784 252.847815 
L 295.793743 256.265485 
L 296.118722 259.382197 
L 297.74362 265.700744 
L 300.018477 270.181746 
L 301.318395 271.264761 
L 302.293333 271.746771 
L 302.943292 271.720612 
L 303.593251 271.53113 
L 303.918231 271.332011 
L 304.56819 270.395074 
L 305.543129 268.904839 
L 306.193088 267.62454 
L 306.843047 265.985678 
L 307.168026 263.915649 
L 308.142965 260.278123 
L 309.117903 255.731245 
L 310.092842 249.698874 
L 310.417821 244.719734 
L 311.39276 235.66538 
L 312.367699 226.066879 
L 313.017658 218.716077 
L 313.342637 211.175653 
L 316.917412 167.955337 
L 317.242391 159.82031 
L 318.867289 140.122045 
L 319.192269 132.357746 
L 320.817166 113.557292 
L 321.467125 107.626771 
L 321.792105 101.747972 
L 323.092023 90.710538 
L 323.417002 88.257105 
L 323.741982 83.740778 
L 325.0419 76.364102 
L 326.341818 69.875488 
L 326.666798 67.737875 
L 327.641736 64.952879 
L 328.291695 63.490055 
L 328.616675 62.238555 
L 329.591613 60.67848 
L 330.566552 59.666445 
L 331.86647 58.655593 
L 332.841409 58.501484 
L 334.141327 58.791227 
L 334.791286 59.176541 
L 336.091204 60.49556 
L 336.416183 61.386009 
L 336.741163 61.386009 
L 337.066143 62.495106 
L 338.041081 64.820679 
L 338.366061 65.79744 
L 338.69104 68.097118 
L 339.665979 72.49831 
L 339.990958 74.200789 
L 340.315938 78.013697 
L 341.290876 85.127295 
L 342.265815 93.964313 
L 342.590794 100.785802 
L 342.915774 100.785802 
L 343.240753 108.434348 
L 344.540672 125.858689 
L 344.865651 130.728305 
L 345.190631 141.187986 
L 346.490549 163.830215 
L 346.815528 174.78657 
L 348.440426 201.309115 
L 348.765405 210.903882 
L 349.740344 222.48117 
L 350.715283 231.308468 
L 351.040262 237.381697 
L 351.365242 237.381697 
L 351.690221 242.719263 
L 352.66516 248.445348 
L 353.640098 253.445784 
L 353.965078 256.106455 
L 354.615037 258.543285 
L 355.264996 260.75073 
L 355.589975 262.876639 
L 356.564914 265.843393 
L 357.864832 268.745955 
L 358.839771 269.920672 
L 359.48973 270.443221 
L 360.139689 270.705458 
L 361.114627 270.409235 
L 362.414545 268.76088 
L 363.064505 267.810601 
L 363.389484 266.602462 
L 364.364423 264.417665 
L 365.339361 261.67738 
L 365.664341 259.435981 
L 366.639279 255.691391 
L 366.964259 254.278016 
L 367.289238 250.834708 
L 367.939197 247.926877 
L 369.889075 236.488159 
L 370.539034 232.092496 
L 370.864013 227.106303 
L 371.838952 219.36751 
L 372.163931 215.93804 
L 372.488911 210.159829 
L 373.788829 198.255029 
L 374.113808 191.981002 
L 374.438788 191.981002 
L 374.763767 185.509676 
L 375.088747 185.509676 
L 375.413726 179.269745 
L 376.713645 166.438997 
L 377.038624 159.979154 
L 378.338542 147.590482 
L 378.663522 141.324085 
L 380.288419 126.775918 
L 381.263358 119.392456 
L 381.588337 114.216688 
L 382.563276 107.603725 
L 382.888256 105.658858 
L 383.213235 101.620543 
L 383.538215 101.620543 
L 383.863194 98.164297 
L 384.188174 98.164297 
L 384.513153 94.878327 
L 385.163112 91.770969 
L 386.138051 88.15794 
L 386.46303 85.924211 
L 388.737887 79.953532 
L 389.387846 79.031378 
L 390.362785 78.310377 
L 391.012744 78.076817 
L 391.662703 78.060597 
L 392.312662 78.372624 
L 392.962621 79.00756 
L 393.2876 79.452209 
L 393.61258 80.69762 
L 394.262539 82.235353 
L 394.912498 84.208106 
L 395.562457 86.640175 
L 395.887437 88.052368 
L 396.212416 91.290341 
L 397.187355 97.509733 
L 398.162293 104.898198 
L 398.487273 111.14214 
L 398.487273 111.14214 
" clip-path="url(#p2adbd7ed1e)" style="fill: none; stroke: #2ca02c; stroke-width: 1.5; stroke-linecap: square"/>
   </g>
   <g id="patch_3">
    <path d="M 57.6 307.584 
L 57.6 41.472 
" style="fill: none; stroke: #000000; stroke-width: 0.8; stroke-linejoin: miter; stroke-linecap: square"/>
   </g>
   <g id="patch_4">
    <path d="M 414.72 307.584 
L 414.72 41.472 
" style="fill: none; stroke: #000000; stroke-width: 0.8; stroke-linejoin: miter; stroke-linecap: square"/>
   </g>
   <g id="patch_5">
    <path d="M 57.6 307.584 
L 414.72 307.584 
" style="fill: none; stroke: #000000; stroke-width: 0.8; stroke-linejoin: miter; stroke-linecap: square"/>
   </g>
   <g id="patch_6">
    <path d="M 57.6 41.472 
L 414.72 41.472 
" style="fill: none; stroke: #000000; stroke-width: 0.8; stroke-linejoin: miter; stroke-linecap: square"/>
   </g>
   <g id="text_17">
    <!-- Change in rotation components for moving right hand up and down -->
    <g transform="translate(-17.562656 35.472)scale(0.15 -0.15)">
     <defs>
      <path id="DejaVuSans-43" d="M 4122 4306 
L 4122 3641 
Q 3803 3938 3442 4084 
Q 3081 4231 2675 4231 
Q 1875 4231 1450 3742 
Q 1025 3253 1025 2328 
Q 1025 1406 1450 917 
Q 1875 428 2675 428 
Q 3081 428 3442 575 
Q 3803 722 4122 1019 
L 4122 359 
Q 3791 134 3420 21 
Q 3050 -91 2638 -91 
Q 1578 -91 968 557 
Q 359 1206 359 2328 
Q 359 3453 968 4101 
Q 1578 4750 2638 4750 
Q 3056 4750 3426 4639 
Q 3797 4528 4122 4306 
z
" transform="scale(0.015625)"/>
      <path id="DejaVuSans-68" d="M 3513 2113 
L 3513 0 
L 2938 0 
L 2938 2094 
Q 2938 2591 2744 2837 
Q 2550 3084 2163 3084 
Q 1697 3084 1428 2787 
Q 1159 2491 1159 1978 
L 1159 0 
L 581 0 
L 581 4863 
L 1159 4863 
L 1159 2956 
Q 1366 3272 1645 3428 
Q 1925 3584 2291 3584 
Q 2894 3584 3203 3211 
Q 3513 2838 3513 2113 
z
" transform="scale(0.015625)"/>
      <path id="DejaVuSans-20" transform="scale(0.015625)"/>
      <path id="DejaVuSans-72" d="M 2631 2963 
Q 2534 3019 2420 3045 
Q 2306 3072 2169 3072 
Q 1681 3072 1420 2755 
Q 1159 2438 1159 1844 
L 1159 0 
L 581 0 
L 581 3500 
L 1159 3500 
L 1159 2956 
Q 1341 3275 1631 3429 
Q 1922 3584 2338 3584 
Q 2397 3584 2469 3576 
Q 2541 3569 2628 3553 
L 2631 2963 
z
" transform="scale(0.015625)"/>
      <path id="DejaVuSans-6f" d="M 1959 3097 
Q 1497 3097 1228 2736 
Q 959 2375 959 1747 
Q 959 1119 1226 758 
Q 1494 397 1959 397 
Q 2419 397 2687 759 
Q 2956 1122 2956 1747 
Q 2956 2369 2687 2733 
Q 2419 3097 1959 3097 
z
M 1959 3584 
Q 2709 3584 3137 3096 
Q 3566 2609 3566 1747 
Q 3566 888 3137 398 
Q 2709 -91 1959 -91 
Q 1206 -91 779 398 
Q 353 888 353 1747 
Q 353 2609 779 3096 
Q 1206 3584 1959 3584 
z
" transform="scale(0.015625)"/>
      <path id="DejaVuSans-63" d="M 3122 3366 
L 3122 2828 
Q 2878 2963 2633 3030 
Q 2388 3097 2138 3097 
Q 1578 3097 1268 2742 
Q 959 2388 959 1747 
Q 959 1106 1268 751 
Q 1578 397 2138 397 
Q 2388 397 2633 464 
Q 2878 531 3122 666 
L 3122 134 
Q 2881 22 2623 -34 
Q 2366 -91 2075 -91 
Q 1284 -91 818 406 
Q 353 903 353 1747 
Q 353 2603 823 3093 
Q 1294 3584 2113 3584 
Q 2378 3584 2631 3529 
Q 2884 3475 3122 3366 
z
" transform="scale(0.015625)"/>
      <path id="DejaVuSans-66" d="M 2375 4863 
L 2375 4384 
L 1825 4384 
Q 1516 4384 1395 4259 
Q 1275 4134 1275 3809 
L 1275 3500 
L 2222 3500 
L 2222 3053 
L 1275 3053 
L 1275 0 
L 697 0 
L 697 3053 
L 147 3053 
L 147 3500 
L 697 3500 
L 697 3744 
Q 697 4328 969 4595 
Q 1241 4863 1831 4863 
L 2375 4863 
z
" transform="scale(0.015625)"/>
      <path id="DejaVuSans-76" d="M 191 3500 
L 800 3500 
L 1894 563 
L 2988 3500 
L 3597 3500 
L 2284 0 
L 1503 0 
L 191 3500 
z
" transform="scale(0.015625)"/>
      <path id="DejaVuSans-77" d="M 269 3500 
L 844 3500 
L 1563 769 
L 2278 3500 
L 2956 3500 
L 3675 769 
L 4391 3500 
L 4966 3500 
L 4050 0 
L 3372 0 
L 2619 2869 
L 1863 0 
L 1184 0 
L 269 3500 
z
" transform="scale(0.015625)"/>
     </defs>
     <use xlink:href="#DejaVuSans-43"/>
     <use xlink:href="#DejaVuSans-68" x="69.824219"/>
     <use xlink:href="#DejaVuSans-61" x="133.203125"/>
     <use xlink:href="#DejaVuSans-6e" x="194.482422"/>
     <use xlink:href="#DejaVuSans-67" x="257.861328"/>
     <use xlink:href="#DejaVuSans-65" x="321.337891"/>
     <use xlink:href="#DejaVuSans-20" x="382.861328"/>
     <use xlink:href="#DejaVuSans-69" x="414.648438"/>
     <use xlink:href="#DejaVuSans-6e" x="442.431641"/>
     <use xlink:href="#DejaVuSans-20" x="505.810547"/>
     <use xlink:href="#DejaVuSans-72" x="537.597656"/>
     <use xlink:href="#DejaVuSans-6f" x="576.460938"/>
     <use xlink:href="#DejaVuSans-74" x="637.642578"/>
     <use xlink:href="#DejaVuSans-61" x="676.851562"/>
     <use xlink:href="#DejaVuSans-74" x="738.130859"/>
     <use xlink:href="#DejaVuSans-69" x="777.339844"/>
     <use xlink:href="#DejaVuSans-6f" x="805.123047"/>
     <use xlink:href="#DejaVuSans-6e" x="866.304688"/>
     <use xlink:href="#DejaVuSans-20" x="929.683594"/>
     <use xlink:href="#DejaVuSans-63" x="961.470703"/>
     <use xlink:href="#DejaVuSans-6f" x="1016.451172"/>
     <use xlink:href="#DejaVuSans-6d" x="1077.632812"/>
     <use xlink:href="#DejaVuSans-70" x="1175.044922"/>
     <use xlink:href="#DejaVuSans-6f" x="1238.521484"/>
     <use xlink:href="#DejaVuSans-6e" x="1299.703125"/>
     <use xlink:href="#DejaVuSans-65" x="1363.082031"/>
     <use xlink:href="#DejaVuSans-6e" x="1424.605469"/>
     <use xlink:href="#DejaVuSans-74" x="1487.984375"/>
     <use xlink:href="#DejaVuSans-73" x="1527.193359"/>
     <use xlink:href="#DejaVuSans-20" x="1579.292969"/>
     <use xlink:href="#DejaVuSans-66" x="1611.080078"/>
     <use xlink:href="#DejaVuSans-6f" x="1646.285156"/>
     <use xlink:href="#DejaVuSans-72" x="1707.466797"/>
     <use xlink:href="#DejaVuSans-20" x="1748.580078"/>
     <use xlink:href="#DejaVuSans-6d" x="1780.367188"/>
     <use xlink:href="#DejaVuSans-6f" x="1877.779297"/>
     <use xlink:href="#DejaVuSans-76" x="1938.960938"/>
     <use xlink:href="#DejaVuSans-69" x="1998.140625"/>
     <use xlink:href="#DejaVuSans-6e" x="2025.923828"/>
     <use xlink:href="#DejaVuSans-67" x="2089.302734"/>
     <use xlink:href="#DejaVuSans-20" x="2152.779297"/>
     <use xlink:href="#DejaVuSans-72" x="2184.566406"/>
     <use xlink:href="#DejaVuSans-69" x="2225.679688"/>
     <use xlink:href="#DejaVuSans-67" x="2253.462891"/>
     <use xlink:href="#DejaVuSans-68" x="2316.939453"/>
     <use xlink:href="#DejaVuSans-74" x="2380.318359"/>
     <use xlink:href="#DejaVuSans-20" x="2419.527344"/>
     <use xlink:href="#DejaVuSans-68" x="2451.314453"/>
     <use xlink:href="#DejaVuSans-61" x="2514.693359"/>
     <use xlink:href="#DejaVuSans-6e" x="2575.972656"/>
     <use xlink:href="#DejaVuSans-64" x="2639.351562"/>
     <use xlink:href="#DejaVuSans-20" x="2702.828125"/>
     <use xlink:href="#DejaVuSans-75" x="2734.615234"/>
     <use xlink:href="#DejaVuSans-70" x="2797.994141"/>
     <use xlink:href="#DejaVuSans-20" x="2861.470703"/>
     <use xlink:href="#DejaVuSans-61" x="2893.257812"/>
     <use xlink:href="#DejaVuSans-6e" x="2954.537109"/>
     <use xlink:href="#DejaVuSans-64" x="3017.916016"/>
     <use xlink:href="#DejaVuSans-20" x="3081.392578"/>
     <use xlink:href="#DejaVuSans-64" x="3113.179688"/>
     <use xlink:href="#DejaVuSans-6f" x="3176.65625"/>
     <use xlink:href="#DejaVuSans-77" x="3237.837891"/>
     <use xlink:href="#DejaVuSans-6e" x="3319.625"/>
    </g>
   </g>
   <g id="legend_1">
    <g id="patch_7">
     <path d="M 351.134063 198.045187 
L 407.72 198.045187 
Q 409.72 198.045187 409.72 196.045187 
L 409.72 153.010812 
Q 409.72 151.010812 407.72 151.010812 
L 351.134063 151.010812 
Q 349.134063 151.010812 349.134063 153.010812 
L 349.134063 196.045187 
Q 349.134063 198.045187 351.134063 198.045187 
z
" style="fill: #ffffff; opacity: 0.8; stroke: #cccccc; stroke-linejoin: miter"/>
    </g>
    <g id="line2d_18">
     <path d="M 353.134063 159.10925 
L 363.134063 159.10925 
L 373.134063 159.10925 
" style="fill: none; stroke: #1f77b4; stroke-width: 1.5; stroke-linecap: square"/>
    </g>
    <g id="text_18">
     <!-- idx 0 -->
     <g transform="translate(381.134063 162.60925)scale(0.1 -0.1)">
      <defs>
       <path id="DejaVuSans-78" d="M 3513 3500 
L 2247 1797 
L 3578 0 
L 2900 0 
L 1881 1375 
L 863 0 
L 184 0 
L 1544 1831 
L 300 3500 
L 978 3500 
L 1906 2253 
L 2834 3500 
L 3513 3500 
z
" transform="scale(0.015625)"/>
      </defs>
      <use xlink:href="#DejaVuSans-69"/>
      <use xlink:href="#DejaVuSans-64" x="27.783203"/>
      <use xlink:href="#DejaVuSans-78" x="91.259766"/>
      <use xlink:href="#DejaVuSans-20" x="150.439453"/>
      <use xlink:href="#DejaVuSans-30" x="182.226562"/>
     </g>
    </g>
    <g id="line2d_19">
     <path d="M 353.134063 173.787375 
L 363.134063 173.787375 
L 373.134063 173.787375 
" style="fill: none; stroke: #ff7f0e; stroke-width: 1.5; stroke-linecap: square"/>
    </g>
    <g id="text_19">
     <!-- idx 1 -->
     <g transform="translate(381.134063 177.287375)scale(0.1 -0.1)">
      <use xlink:href="#DejaVuSans-69"/>
      <use xlink:href="#DejaVuSans-64" x="27.783203"/>
      <use xlink:href="#DejaVuSans-78" x="91.259766"/>
      <use xlink:href="#DejaVuSans-20" x="150.439453"/>
      <use xlink:href="#DejaVuSans-31" x="182.226562"/>
     </g>
    </g>
    <g id="line2d_20">
     <path d="M 353.134063 188.4655 
L 363.134063 188.4655 
L 373.134063 188.4655 
" style="fill: none; stroke: #2ca02c; stroke-width: 1.5; stroke-linecap: square"/>
    </g>
    <g id="text_20">
     <!-- idx 2 -->
     <g transform="translate(381.134063 191.9655)scale(0.1 -0.1)">
      <use xlink:href="#DejaVuSans-69"/>
      <use xlink:href="#DejaVuSans-64" x="27.783203"/>
      <use xlink:href="#DejaVuSans-78" x="91.259766"/>
      <use xlink:href="#DejaVuSans-20" x="150.439453"/>
      <use xlink:href="#DejaVuSans-32" x="182.226562"/>
     </g>
    </g>
   </g>
  </g>
 </g>
 <defs>
  <clipPath id="p2adbd7ed1e">
   <rect x="57.6" y="41.472" width="357.12" height="266.112"/>
  </clipPath>
 </defs>
</svg>
