<?xml version="1.0" encoding="utf-8" standalone="no"?>
<!DOCTYPE svg PUBLIC "-//W3C//DTD SVG 1.1//EN"
  "http://www.w3.org/Graphics/SVG/1.1/DTD/svg11.dtd">
<svg xmlns:xlink="http://www.w3.org/1999/xlink" width="460.8pt" height="345.6pt" viewBox="0 0 460.8 345.6" xmlns="http://www.w3.org/2000/svg" version="1.1">
 <metadata>
  <rdf:RDF xmlns:dc="http://purl.org/dc/elements/1.1/" xmlns:cc="http://creativecommons.org/ns#" xmlns:rdf="http://www.w3.org/1999/02/22-rdf-syntax-ns#">
   <cc:Work>
    <dc:type rdf:resource="http://purl.org/dc/dcmitype/StillImage"/>
    <dc:date>2024-01-30T14:37:12.284070</dc:date>
    <dc:format>image/svg+xml</dc:format>
    <dc:creator>
     <cc:Agent>
      <dc:title>Matplotlib v3.5.0, https://matplotlib.org/</dc:title>
     </cc:Agent>
    </dc:creator>
   </cc:Work>
  </rdf:RDF>
 </metadata>
 <defs>
  <style type="text/css">*{stroke-linejoin: round; stroke-linecap: butt}</style>
 </defs>
 <g id="figure_1">
  <g id="patch_1">
   <path d="M 0 345.6 
L 460.8 345.6 
L 460.8 0 
L 0 0 
z
" style="fill: #ffffff"/>
  </g>
  <g id="axes_1">
   <g id="patch_2">
    <path d="M 57.6 307.584 
L 414.72 307.584 
L 414.72 41.472 
L 57.6 41.472 
z
" style="fill: #ffffff"/>
   </g>
   <g id="matplotlib.axis_1">
    <g id="xtick_1">
     <g id="line2d_1">
      <defs>
       <path id="mc94557afb1" d="M 0 0 
L 0 3.5 
" style="stroke: #000000; stroke-width: 0.8"/>
      </defs>
      <g>
       <use xlink:href="#mc94557afb1" x="73.832727" y="307.584" style="stroke: #000000; stroke-width: 0.8"/>
      </g>
     </g>
     <g id="text_1">
      <!-- 0 -->
      <g transform="translate(70.651477 322.182437)scale(0.1 -0.1)">
       <defs>
        <path id="DejaVuSans-30" d="M 2034 4250 
Q 1547 4250 1301 3770 
Q 1056 3291 1056 2328 
Q 1056 1369 1301 889 
Q 1547 409 2034 409 
Q 2525 409 2770 889 
Q 3016 1369 3016 2328 
Q 3016 3291 2770 3770 
Q 2525 4250 2034 4250 
z
M 2034 4750 
Q 2819 4750 3233 4129 
Q 3647 3509 3647 2328 
Q 3647 1150 3233 529 
Q 2819 -91 2034 -91 
Q 1250 -91 836 529 
Q 422 1150 422 2328 
Q 422 3509 836 4129 
Q 1250 4750 2034 4750 
z
" transform="scale(0.015625)"/>
       </defs>
       <use xlink:href="#DejaVuSans-30"/>
      </g>
     </g>
    </g>
    <g id="xtick_2">
     <g id="line2d_2">
      <g>
       <use xlink:href="#mc94557afb1" x="138.828632" y="307.584" style="stroke: #000000; stroke-width: 0.8"/>
      </g>
     </g>
     <g id="text_2">
      <!-- 200 -->
      <g transform="translate(129.284882 322.182437)scale(0.1 -0.1)">
       <defs>
        <path id="DejaVuSans-32" d="M 1228 531 
L 3431 531 
L 3431 0 
L 469 0 
L 469 531 
Q 828 903 1448 1529 
Q 2069 2156 2228 2338 
Q 2531 2678 2651 2914 
Q 2772 3150 2772 3378 
Q 2772 3750 2511 3984 
Q 2250 4219 1831 4219 
Q 1534 4219 1204 4116 
Q 875 4013 500 3803 
L 500 4441 
Q 881 4594 1212 4672 
Q 1544 4750 1819 4750 
Q 2544 4750 2975 4387 
Q 3406 4025 3406 3419 
Q 3406 3131 3298 2873 
Q 3191 2616 2906 2266 
Q 2828 2175 2409 1742 
Q 1991 1309 1228 531 
z
" transform="scale(0.015625)"/>
       </defs>
       <use xlink:href="#DejaVuSans-32"/>
       <use xlink:href="#DejaVuSans-30" x="63.623047"/>
       <use xlink:href="#DejaVuSans-30" x="127.246094"/>
      </g>
     </g>
    </g>
    <g id="xtick_3">
     <g id="line2d_3">
      <g>
       <use xlink:href="#mc94557afb1" x="203.824537" y="307.584" style="stroke: #000000; stroke-width: 0.8"/>
      </g>
     </g>
     <g id="text_3">
      <!-- 400 -->
      <g transform="translate(194.280787 322.182437)scale(0.1 -0.1)">
       <defs>
        <path id="DejaVuSans-34" d="M 2419 4116 
L 825 1625 
L 2419 1625 
L 2419 4116 
z
M 2253 4666 
L 3047 4666 
L 3047 1625 
L 3713 1625 
L 3713 1100 
L 3047 1100 
L 3047 0 
L 2419 0 
L 2419 1100 
L 313 1100 
L 313 1709 
L 2253 4666 
z
" transform="scale(0.015625)"/>
       </defs>
       <use xlink:href="#DejaVuSans-34"/>
       <use xlink:href="#DejaVuSans-30" x="63.623047"/>
       <use xlink:href="#DejaVuSans-30" x="127.246094"/>
      </g>
     </g>
    </g>
    <g id="xtick_4">
     <g id="line2d_4">
      <g>
       <use xlink:href="#mc94557afb1" x="268.820442" y="307.584" style="stroke: #000000; stroke-width: 0.8"/>
      </g>
     </g>
     <g id="text_4">
      <!-- 600 -->
      <g transform="translate(259.276692 322.182437)scale(0.1 -0.1)">
       <defs>
        <path id="DejaVuSans-36" d="M 2113 2584 
Q 1688 2584 1439 2293 
Q 1191 2003 1191 1497 
Q 1191 994 1439 701 
Q 1688 409 2113 409 
Q 2538 409 2786 701 
Q 3034 994 3034 1497 
Q 3034 2003 2786 2293 
Q 2538 2584 2113 2584 
z
M 3366 4563 
L 3366 3988 
Q 3128 4100 2886 4159 
Q 2644 4219 2406 4219 
Q 1781 4219 1451 3797 
Q 1122 3375 1075 2522 
Q 1259 2794 1537 2939 
Q 1816 3084 2150 3084 
Q 2853 3084 3261 2657 
Q 3669 2231 3669 1497 
Q 3669 778 3244 343 
Q 2819 -91 2113 -91 
Q 1303 -91 875 529 
Q 447 1150 447 2328 
Q 447 3434 972 4092 
Q 1497 4750 2381 4750 
Q 2619 4750 2861 4703 
Q 3103 4656 3366 4563 
z
" transform="scale(0.015625)"/>
       </defs>
       <use xlink:href="#DejaVuSans-36"/>
       <use xlink:href="#DejaVuSans-30" x="63.623047"/>
       <use xlink:href="#DejaVuSans-30" x="127.246094"/>
      </g>
     </g>
    </g>
    <g id="xtick_5">
     <g id="line2d_5">
      <g>
       <use xlink:href="#mc94557afb1" x="333.816347" y="307.584" style="stroke: #000000; stroke-width: 0.8"/>
      </g>
     </g>
     <g id="text_5">
      <!-- 800 -->
      <g transform="translate(324.272597 322.182437)scale(0.1 -0.1)">
       <defs>
        <path id="DejaVuSans-38" d="M 2034 2216 
Q 1584 2216 1326 1975 
Q 1069 1734 1069 1313 
Q 1069 891 1326 650 
Q 1584 409 2034 409 
Q 2484 409 2743 651 
Q 3003 894 3003 1313 
Q 3003 1734 2745 1975 
Q 2488 2216 2034 2216 
z
M 1403 2484 
Q 997 2584 770 2862 
Q 544 3141 544 3541 
Q 544 4100 942 4425 
Q 1341 4750 2034 4750 
Q 2731 4750 3128 4425 
Q 3525 4100 3525 3541 
Q 3525 3141 3298 2862 
Q 3072 2584 2669 2484 
Q 3125 2378 3379 2068 
Q 3634 1759 3634 1313 
Q 3634 634 3220 271 
Q 2806 -91 2034 -91 
Q 1263 -91 848 271 
Q 434 634 434 1313 
Q 434 1759 690 2068 
Q 947 2378 1403 2484 
z
M 1172 3481 
Q 1172 3119 1398 2916 
Q 1625 2713 2034 2713 
Q 2441 2713 2670 2916 
Q 2900 3119 2900 3481 
Q 2900 3844 2670 4047 
Q 2441 4250 2034 4250 
Q 1625 4250 1398 4047 
Q 1172 3844 1172 3481 
z
" transform="scale(0.015625)"/>
       </defs>
       <use xlink:href="#DejaVuSans-38"/>
       <use xlink:href="#DejaVuSans-30" x="63.623047"/>
       <use xlink:href="#DejaVuSans-30" x="127.246094"/>
      </g>
     </g>
    </g>
    <g id="xtick_6">
     <g id="line2d_6">
      <g>
       <use xlink:href="#mc94557afb1" x="398.812252" y="307.584" style="stroke: #000000; stroke-width: 0.8"/>
      </g>
     </g>
     <g id="text_6">
      <!-- 1000 -->
      <g transform="translate(386.087252 322.182437)scale(0.1 -0.1)">
       <defs>
        <path id="DejaVuSans-31" d="M 794 531 
L 1825 531 
L 1825 4091 
L 703 3866 
L 703 4441 
L 1819 4666 
L 2450 4666 
L 2450 531 
L 3481 531 
L 3481 0 
L 794 0 
L 794 531 
z
" transform="scale(0.015625)"/>
       </defs>
       <use xlink:href="#DejaVuSans-31"/>
       <use xlink:href="#DejaVuSans-30" x="63.623047"/>
       <use xlink:href="#DejaVuSans-30" x="127.246094"/>
       <use xlink:href="#DejaVuSans-30" x="190.869141"/>
      </g>
     </g>
    </g>
    <g id="text_7">
     <!-- Timestamps -->
     <g transform="translate(190.392422 339.659781)scale(0.15 -0.15)">
      <defs>
       <path id="DejaVuSans-54" d="M -19 4666 
L 3928 4666 
L 3928 4134 
L 2272 4134 
L 2272 0 
L 1638 0 
L 1638 4134 
L -19 4134 
L -19 4666 
z
" transform="scale(0.015625)"/>
       <path id="DejaVuSans-69" d="M 603 3500 
L 1178 3500 
L 1178 0 
L 603 0 
L 603 3500 
z
M 603 4863 
L 1178 4863 
L 1178 4134 
L 603 4134 
L 603 4863 
z
" transform="scale(0.015625)"/>
       <path id="DejaVuSans-6d" d="M 3328 2828 
Q 3544 3216 3844 3400 
Q 4144 3584 4550 3584 
Q 5097 3584 5394 3201 
Q 5691 2819 5691 2113 
L 5691 0 
L 5113 0 
L 5113 2094 
Q 5113 2597 4934 2840 
Q 4756 3084 4391 3084 
Q 3944 3084 3684 2787 
Q 3425 2491 3425 1978 
L 3425 0 
L 2847 0 
L 2847 2094 
Q 2847 2600 2669 2842 
Q 2491 3084 2119 3084 
Q 1678 3084 1418 2786 
Q 1159 2488 1159 1978 
L 1159 0 
L 581 0 
L 581 3500 
L 1159 3500 
L 1159 2956 
Q 1356 3278 1631 3431 
Q 1906 3584 2284 3584 
Q 2666 3584 2933 3390 
Q 3200 3197 3328 2828 
z
" transform="scale(0.015625)"/>
       <path id="DejaVuSans-65" d="M 3597 1894 
L 3597 1613 
L 953 1613 
Q 991 1019 1311 708 
Q 1631 397 2203 397 
Q 2534 397 2845 478 
Q 3156 559 3463 722 
L 3463 178 
Q 3153 47 2828 -22 
Q 2503 -91 2169 -91 
Q 1331 -91 842 396 
Q 353 884 353 1716 
Q 353 2575 817 3079 
Q 1281 3584 2069 3584 
Q 2775 3584 3186 3129 
Q 3597 2675 3597 1894 
z
M 3022 2063 
Q 3016 2534 2758 2815 
Q 2500 3097 2075 3097 
Q 1594 3097 1305 2825 
Q 1016 2553 972 2059 
L 3022 2063 
z
" transform="scale(0.015625)"/>
       <path id="DejaVuSans-73" d="M 2834 3397 
L 2834 2853 
Q 2591 2978 2328 3040 
Q 2066 3103 1784 3103 
Q 1356 3103 1142 2972 
Q 928 2841 928 2578 
Q 928 2378 1081 2264 
Q 1234 2150 1697 2047 
L 1894 2003 
Q 2506 1872 2764 1633 
Q 3022 1394 3022 966 
Q 3022 478 2636 193 
Q 2250 -91 1575 -91 
Q 1294 -91 989 -36 
Q 684 19 347 128 
L 347 722 
Q 666 556 975 473 
Q 1284 391 1588 391 
Q 1994 391 2212 530 
Q 2431 669 2431 922 
Q 2431 1156 2273 1281 
Q 2116 1406 1581 1522 
L 1381 1569 
Q 847 1681 609 1914 
Q 372 2147 372 2553 
Q 372 3047 722 3315 
Q 1072 3584 1716 3584 
Q 2034 3584 2315 3537 
Q 2597 3491 2834 3397 
z
" transform="scale(0.015625)"/>
       <path id="DejaVuSans-74" d="M 1172 4494 
L 1172 3500 
L 2356 3500 
L 2356 3053 
L 1172 3053 
L 1172 1153 
Q 1172 725 1289 603 
Q 1406 481 1766 481 
L 2356 481 
L 2356 0 
L 1766 0 
Q 1100 0 847 248 
Q 594 497 594 1153 
L 594 3053 
L 172 3053 
L 172 3500 
L 594 3500 
L 594 4494 
L 1172 4494 
z
" transform="scale(0.015625)"/>
       <path id="DejaVuSans-61" d="M 2194 1759 
Q 1497 1759 1228 1600 
Q 959 1441 959 1056 
Q 959 750 1161 570 
Q 1363 391 1709 391 
Q 2188 391 2477 730 
Q 2766 1069 2766 1631 
L 2766 1759 
L 2194 1759 
z
M 3341 1997 
L 3341 0 
L 2766 0 
L 2766 531 
Q 2569 213 2275 61 
Q 1981 -91 1556 -91 
Q 1019 -91 701 211 
Q 384 513 384 1019 
Q 384 1609 779 1909 
Q 1175 2209 1959 2209 
L 2766 2209 
L 2766 2266 
Q 2766 2663 2505 2880 
Q 2244 3097 1772 3097 
Q 1472 3097 1187 3025 
Q 903 2953 641 2809 
L 641 3341 
Q 956 3463 1253 3523 
Q 1550 3584 1831 3584 
Q 2591 3584 2966 3190 
Q 3341 2797 3341 1997 
z
" transform="scale(0.015625)"/>
       <path id="DejaVuSans-70" d="M 1159 525 
L 1159 -1331 
L 581 -1331 
L 581 3500 
L 1159 3500 
L 1159 2969 
Q 1341 3281 1617 3432 
Q 1894 3584 2278 3584 
Q 2916 3584 3314 3078 
Q 3713 2572 3713 1747 
Q 3713 922 3314 415 
Q 2916 -91 2278 -91 
Q 1894 -91 1617 61 
Q 1341 213 1159 525 
z
M 3116 1747 
Q 3116 2381 2855 2742 
Q 2594 3103 2138 3103 
Q 1681 3103 1420 2742 
Q 1159 2381 1159 1747 
Q 1159 1113 1420 752 
Q 1681 391 2138 391 
Q 2594 391 2855 752 
Q 3116 1113 3116 1747 
z
" transform="scale(0.015625)"/>
      </defs>
      <use xlink:href="#DejaVuSans-54"/>
      <use xlink:href="#DejaVuSans-69" x="57.958984"/>
      <use xlink:href="#DejaVuSans-6d" x="85.742188"/>
      <use xlink:href="#DejaVuSans-65" x="183.154297"/>
      <use xlink:href="#DejaVuSans-73" x="244.677734"/>
      <use xlink:href="#DejaVuSans-74" x="296.777344"/>
      <use xlink:href="#DejaVuSans-61" x="335.986328"/>
      <use xlink:href="#DejaVuSans-6d" x="397.265625"/>
      <use xlink:href="#DejaVuSans-70" x="494.677734"/>
      <use xlink:href="#DejaVuSans-73" x="558.154297"/>
     </g>
    </g>
   </g>
   <g id="matplotlib.axis_2">
    <g id="ytick_1">
     <g id="line2d_7">
      <defs>
       <path id="mee76b543fe" d="M 0 0 
L -3.5 0 
" style="stroke: #000000; stroke-width: 0.8"/>
      </defs>
      <g>
       <use xlink:href="#mee76b543fe" x="57.6" y="296.412184" style="stroke: #000000; stroke-width: 0.8"/>
      </g>
     </g>
     <g id="text_8">
      <!-- −1.00 -->
      <g transform="translate(19.954687 300.211403)scale(0.1 -0.1)">
       <defs>
        <path id="DejaVuSans-2212" d="M 678 2272 
L 4684 2272 
L 4684 1741 
L 678 1741 
L 678 2272 
z
" transform="scale(0.015625)"/>
        <path id="DejaVuSans-2e" d="M 684 794 
L 1344 794 
L 1344 0 
L 684 0 
L 684 794 
z
" transform="scale(0.015625)"/>
       </defs>
       <use xlink:href="#DejaVuSans-2212"/>
       <use xlink:href="#DejaVuSans-31" x="83.789062"/>
       <use xlink:href="#DejaVuSans-2e" x="147.412109"/>
       <use xlink:href="#DejaVuSans-30" x="179.199219"/>
       <use xlink:href="#DejaVuSans-30" x="242.822266"/>
      </g>
     </g>
    </g>
    <g id="ytick_2">
     <g id="line2d_8">
      <g>
       <use xlink:href="#mee76b543fe" x="57.6" y="261.505926" style="stroke: #000000; stroke-width: 0.8"/>
      </g>
     </g>
     <g id="text_9">
      <!-- −0.75 -->
      <g transform="translate(19.954687 265.305145)scale(0.1 -0.1)">
       <defs>
        <path id="DejaVuSans-37" d="M 525 4666 
L 3525 4666 
L 3525 4397 
L 1831 0 
L 1172 0 
L 2766 4134 
L 525 4134 
L 525 4666 
z
" transform="scale(0.015625)"/>
        <path id="DejaVuSans-35" d="M 691 4666 
L 3169 4666 
L 3169 4134 
L 1269 4134 
L 1269 2991 
Q 1406 3038 1543 3061 
Q 1681 3084 1819 3084 
Q 2600 3084 3056 2656 
Q 3513 2228 3513 1497 
Q 3513 744 3044 326 
Q 2575 -91 1722 -91 
Q 1428 -91 1123 -41 
Q 819 9 494 109 
L 494 744 
Q 775 591 1075 516 
Q 1375 441 1709 441 
Q 2250 441 2565 725 
Q 2881 1009 2881 1497 
Q 2881 1984 2565 2268 
Q 2250 2553 1709 2553 
Q 1456 2553 1204 2497 
Q 953 2441 691 2322 
L 691 4666 
z
" transform="scale(0.015625)"/>
       </defs>
       <use xlink:href="#DejaVuSans-2212"/>
       <use xlink:href="#DejaVuSans-30" x="83.789062"/>
       <use xlink:href="#DejaVuSans-2e" x="147.412109"/>
       <use xlink:href="#DejaVuSans-37" x="179.199219"/>
       <use xlink:href="#DejaVuSans-35" x="242.822266"/>
      </g>
     </g>
    </g>
    <g id="ytick_3">
     <g id="line2d_9">
      <g>
       <use xlink:href="#mee76b543fe" x="57.6" y="226.599669" style="stroke: #000000; stroke-width: 0.8"/>
      </g>
     </g>
     <g id="text_10">
      <!-- −0.50 -->
      <g transform="translate(19.954687 230.398887)scale(0.1 -0.1)">
       <use xlink:href="#DejaVuSans-2212"/>
       <use xlink:href="#DejaVuSans-30" x="83.789062"/>
       <use xlink:href="#DejaVuSans-2e" x="147.412109"/>
       <use xlink:href="#DejaVuSans-35" x="179.199219"/>
       <use xlink:href="#DejaVuSans-30" x="242.822266"/>
      </g>
     </g>
    </g>
    <g id="ytick_4">
     <g id="line2d_10">
      <g>
       <use xlink:href="#mee76b543fe" x="57.6" y="191.693411" style="stroke: #000000; stroke-width: 0.8"/>
      </g>
     </g>
     <g id="text_11">
      <!-- −0.25 -->
      <g transform="translate(19.954687 195.49263)scale(0.1 -0.1)">
       <use xlink:href="#DejaVuSans-2212"/>
       <use xlink:href="#DejaVuSans-30" x="83.789062"/>
       <use xlink:href="#DejaVuSans-2e" x="147.412109"/>
       <use xlink:href="#DejaVuSans-32" x="179.199219"/>
       <use xlink:href="#DejaVuSans-35" x="242.822266"/>
      </g>
     </g>
    </g>
    <g id="ytick_5">
     <g id="line2d_11">
      <g>
       <use xlink:href="#mee76b543fe" x="57.6" y="156.787153" style="stroke: #000000; stroke-width: 0.8"/>
      </g>
     </g>
     <g id="text_12">
      <!-- 0.00 -->
      <g transform="translate(28.334375 160.586372)scale(0.1 -0.1)">
       <use xlink:href="#DejaVuSans-30"/>
       <use xlink:href="#DejaVuSans-2e" x="63.623047"/>
       <use xlink:href="#DejaVuSans-30" x="95.410156"/>
       <use xlink:href="#DejaVuSans-30" x="159.033203"/>
      </g>
     </g>
    </g>
    <g id="ytick_6">
     <g id="line2d_12">
      <g>
       <use xlink:href="#mee76b543fe" x="57.6" y="121.880896" style="stroke: #000000; stroke-width: 0.8"/>
      </g>
     </g>
     <g id="text_13">
      <!-- 0.25 -->
      <g transform="translate(28.334375 125.680114)scale(0.1 -0.1)">
       <use xlink:href="#DejaVuSans-30"/>
       <use xlink:href="#DejaVuSans-2e" x="63.623047"/>
       <use xlink:href="#DejaVuSans-32" x="95.410156"/>
       <use xlink:href="#DejaVuSans-35" x="159.033203"/>
      </g>
     </g>
    </g>
    <g id="ytick_7">
     <g id="line2d_13">
      <g>
       <use xlink:href="#mee76b543fe" x="57.6" y="86.974638" style="stroke: #000000; stroke-width: 0.8"/>
      </g>
     </g>
     <g id="text_14">
      <!-- 0.50 -->
      <g transform="translate(28.334375 90.773857)scale(0.1 -0.1)">
       <use xlink:href="#DejaVuSans-30"/>
       <use xlink:href="#DejaVuSans-2e" x="63.623047"/>
       <use xlink:href="#DejaVuSans-35" x="95.410156"/>
       <use xlink:href="#DejaVuSans-30" x="159.033203"/>
      </g>
     </g>
    </g>
    <g id="ytick_8">
     <g id="line2d_14">
      <g>
       <use xlink:href="#mee76b543fe" x="57.6" y="52.06838" style="stroke: #000000; stroke-width: 0.8"/>
      </g>
     </g>
     <g id="text_15">
      <!-- 0.75 -->
      <g transform="translate(28.334375 55.867599)scale(0.1 -0.1)">
       <use xlink:href="#DejaVuSans-30"/>
       <use xlink:href="#DejaVuSans-2e" x="63.623047"/>
       <use xlink:href="#DejaVuSans-37" x="95.410156"/>
       <use xlink:href="#DejaVuSans-35" x="159.033203"/>
      </g>
     </g>
    </g>
    <g id="text_16">
     <!-- Magnitude -->
     <g transform="translate(12.835156 214.262766)rotate(-90)scale(0.15 -0.15)">
      <defs>
       <path id="DejaVuSans-4d" d="M 628 4666 
L 1569 4666 
L 2759 1491 
L 3956 4666 
L 4897 4666 
L 4897 0 
L 4281 0 
L 4281 4097 
L 3078 897 
L 2444 897 
L 1241 4097 
L 1241 0 
L 628 0 
L 628 4666 
z
" transform="scale(0.015625)"/>
       <path id="DejaVuSans-67" d="M 2906 1791 
Q 2906 2416 2648 2759 
Q 2391 3103 1925 3103 
Q 1463 3103 1205 2759 
Q 947 2416 947 1791 
Q 947 1169 1205 825 
Q 1463 481 1925 481 
Q 2391 481 2648 825 
Q 2906 1169 2906 1791 
z
M 3481 434 
Q 3481 -459 3084 -895 
Q 2688 -1331 1869 -1331 
Q 1566 -1331 1297 -1286 
Q 1028 -1241 775 -1147 
L 775 -588 
Q 1028 -725 1275 -790 
Q 1522 -856 1778 -856 
Q 2344 -856 2625 -561 
Q 2906 -266 2906 331 
L 2906 616 
Q 2728 306 2450 153 
Q 2172 0 1784 0 
Q 1141 0 747 490 
Q 353 981 353 1791 
Q 353 2603 747 3093 
Q 1141 3584 1784 3584 
Q 2172 3584 2450 3431 
Q 2728 3278 2906 2969 
L 2906 3500 
L 3481 3500 
L 3481 434 
z
" transform="scale(0.015625)"/>
       <path id="DejaVuSans-6e" d="M 3513 2113 
L 3513 0 
L 2938 0 
L 2938 2094 
Q 2938 2591 2744 2837 
Q 2550 3084 2163 3084 
Q 1697 3084 1428 2787 
Q 1159 2491 1159 1978 
L 1159 0 
L 581 0 
L 581 3500 
L 1159 3500 
L 1159 2956 
Q 1366 3272 1645 3428 
Q 1925 3584 2291 3584 
Q 2894 3584 3203 3211 
Q 3513 2838 3513 2113 
z
" transform="scale(0.015625)"/>
       <path id="DejaVuSans-75" d="M 544 1381 
L 544 3500 
L 1119 3500 
L 1119 1403 
Q 1119 906 1312 657 
Q 1506 409 1894 409 
Q 2359 409 2629 706 
Q 2900 1003 2900 1516 
L 2900 3500 
L 3475 3500 
L 3475 0 
L 2900 0 
L 2900 538 
Q 2691 219 2414 64 
Q 2138 -91 1772 -91 
Q 1169 -91 856 284 
Q 544 659 544 1381 
z
M 1991 3584 
L 1991 3584 
z
" transform="scale(0.015625)"/>
       <path id="DejaVuSans-64" d="M 2906 2969 
L 2906 4863 
L 3481 4863 
L 3481 0 
L 2906 0 
L 2906 525 
Q 2725 213 2448 61 
Q 2172 -91 1784 -91 
Q 1150 -91 751 415 
Q 353 922 353 1747 
Q 353 2572 751 3078 
Q 1150 3584 1784 3584 
Q 2172 3584 2448 3432 
Q 2725 3281 2906 2969 
z
M 947 1747 
Q 947 1113 1208 752 
Q 1469 391 1925 391 
Q 2381 391 2643 752 
Q 2906 1113 2906 1747 
Q 2906 2381 2643 2742 
Q 2381 3103 1925 3103 
Q 1469 3103 1208 2742 
Q 947 2381 947 1747 
z
" transform="scale(0.015625)"/>
      </defs>
      <use xlink:href="#DejaVuSans-4d"/>
      <use xlink:href="#DejaVuSans-61" x="86.279297"/>
      <use xlink:href="#DejaVuSans-67" x="147.558594"/>
      <use xlink:href="#DejaVuSans-6e" x="211.035156"/>
      <use xlink:href="#DejaVuSans-69" x="274.414062"/>
      <use xlink:href="#DejaVuSans-74" x="302.197266"/>
      <use xlink:href="#DejaVuSans-75" x="341.40625"/>
      <use xlink:href="#DejaVuSans-64" x="404.785156"/>
      <use xlink:href="#DejaVuSans-65" x="468.261719"/>
     </g>
    </g>
   </g>
   <g id="line2d_15">
    <path d="M 73.832727 295.392091 
L 79.0324 295.403781 
L 80.332318 295.305028 
L 81.307256 295.154938 
L 83.257133 294.851645 
L 83.907093 294.720504 
L 84.557052 294.442206 
L 86.181949 293.998717 
L 87.481867 293.417702 
L 89.756724 292.118814 
L 90.731663 291.283615 
L 91.056642 290.925694 
L 91.381622 290.188864 
L 92.35656 288.836065 
L 92.68154 288.356168 
L 93.006519 287.304663 
L 94.306437 285.12137 
L 95.281376 283.360757 
L 95.606355 282.844317 
L 95.931335 281.912439 
L 96.906274 280.513992 
L 97.881212 278.960439 
L 98.206192 277.496168 
L 98.531171 277.496168 
L 98.856151 275.762557 
L 100.806028 270.400957 
L 101.131007 268.728238 
L 101.780966 267.284564 
L 102.105946 267.284564 
L 102.430925 266.61308 
L 102.755905 265.226657 
L 103.730844 262.975018 
L 104.055823 262.41099 
L 104.380803 260.819811 
L 105.355741 258.936261 
L 106.33068 257.245788 
L 107.630598 255.230294 
L 107.955577 254.253095 
L 108.605536 253.539432 
L 109.905455 252.658138 
L 110.230434 252.551063 
L 110.555414 252.710007 
L 110.880393 252.744754 
L 111.530352 253.192987 
L 111.855332 253.54047 
L 112.180311 253.54047 
L 112.505291 254.430931 
L 114.130188 256.970301 
L 114.455168 258.055344 
L 114.780147 258.055344 
L 115.430106 260.03949 
L 116.730025 262.642674 
L 119.004881 266.687742 
L 119.97982 267.557212 
L 120.304799 267.741427 
L 120.954758 268.975104 
L 121.604717 269.167542 
L 122.579656 268.904315 
L 123.554595 267.784713 
L 123.879574 266.757907 
L 124.854513 264.84409 
L 125.504472 263.032157 
L 125.829451 261.875203 
L 126.47941 258.71173 
L 127.454349 254.291861 
L 127.779328 251.341443 
L 128.104308 251.341443 
L 130.379165 239.699937 
L 131.354103 229.929023 
L 132.004062 229.929023 
L 132.329042 228.644233 
L 132.654021 226.475323 
L 133.30398 224.815974 
L 133.62896 224.815974 
L 133.953939 223.976681 
L 134.278919 222.310577 
L 134.603898 221.552381 
L 135.253857 218.442754 
L 135.578837 215.412274 
L 135.903817 215.160777 
L 136.228796 215.067715 
L 136.553776 215.665463 
L 136.878755 215.691934 
L 137.203735 215.244946 
L 137.528714 216.456889 
L 137.853694 216.817392 
L 138.503653 216.741238 
L 139.153612 216.924595 
L 139.478591 217.258114 
L 139.803571 218.460921 
L 142.078428 223.540323 
L 142.403407 225.066395 
L 143.053366 226.515394 
L 145.328223 232.268763 
L 145.653202 233.619051 
L 145.978182 233.619051 
L 146.303161 234.579168 
L 146.95312 235.646913 
L 148.253038 238.946545 
L 148.902998 240.243849 
L 150.527895 244.009989 
L 150.852875 245.601975 
L 151.827813 247.965213 
L 152.802752 250.04639 
L 154.10267 252.396825 
L 154.427649 253.289344 
L 155.402588 254.405274 
L 156.377527 255.08595 
L 157.027486 255.181409 
L 158.002424 254.739649 
L 159.952301 253.764689 
L 160.60226 253.680279 
L 161.252219 254.048782 
L 161.577199 254.363598 
L 161.902179 254.839343 
L 162.227158 255.602083 
L 162.552138 255.602083 
L 162.877117 256.037959 
L 163.202097 256.930628 
L 165.476953 259.704028 
L 166.451892 261.076295 
L 166.776871 262.144131 
L 168.726749 265.658243 
L 169.051728 266.833244 
L 169.376708 266.833244 
L 169.701687 267.408236 
L 170.026667 268.333136 
L 171.976544 270.78548 
L 172.951482 271.241057 
L 173.601441 271.409109 
L 173.926421 271.407818 
L 174.90136 271.0187 
L 175.876298 270.279324 
L 176.201278 269.644162 
L 176.526257 269.644162 
L 177.176216 268.295692 
L 178.151155 266.232457 
L 179.126093 263.523346 
L 179.776052 261.394731 
L 180.101032 260.088377 
L 180.426011 257.498023 
L 181.72593 251.516594 
L 182.375889 248.44622 
L 182.700868 245.430814 
L 184.000786 239.605961 
L 184.650745 235.500429 
L 185.625684 230.630222 
L 185.950663 227.747235 
L 187.250581 221.906374 
L 187.900541 217.830735 
L 189.525438 212.164168 
L 189.850418 212.315053 
L 190.175397 212.654949 
L 190.825356 214.011364 
L 191.800295 216.667207 
L 192.125274 216.417099 
L 192.450254 216.749124 
L 193.100213 218.384371 
L 194.075152 221.642627 
L 194.400131 222.780188 
L 194.725111 224.836915 
L 195.700049 228.221575 
L 196.350008 230.895966 
L 196.674988 233.078143 
L 196.999967 233.078143 
L 197.649926 235.351863 
L 197.974906 237.551546 
L 199.274824 242.153146 
L 199.924783 243.864115 
L 200.249762 245.148477 
L 200.574742 245.785929 
L 201.549681 246.893347 
L 202.524619 248.092207 
L 202.849599 248.092207 
L 203.499558 248.497482 
L 205.124455 248.930471 
L 207.399312 249.259998 
L 208.69923 249.999844 
L 209.02421 250.54951 
L 209.674169 250.655874 
L 209.999148 250.829072 
L 211.299066 250.876984 
L 212.598984 251.117065 
L 212.923964 251.250894 
L 213.898903 251.156475 
L 214.548862 250.70611 
L 215.5238 250.359027 
L 216.173759 250.172496 
L 216.498739 250.127539 
L 216.823718 249.853019 
L 217.148698 249.024445 
L 217.798657 248.301264 
L 218.448616 247.893447 
L 219.098575 247.74903 
L 219.423554 247.867588 
L 219.748534 248.242231 
L 220.073514 248.242231 
L 220.723473 249.791141 
L 221.373432 251.416913 
L 222.023391 253.300567 
L 222.34837 255.441298 
L 224.298247 262.798621 
L 224.623227 265.263394 
L 224.948206 265.263394 
L 225.273186 267.842227 
L 226.248124 271.255178 
L 226.898084 273.141856 
L 227.223063 274.667067 
L 228.198002 276.567733 
L 228.847961 277.407893 
L 229.49792 277.97586 
L 230.147879 278.27675 
L 230.472858 278.244749 
L 231.122817 277.763036 
L 231.772776 276.900911 
L 232.422735 275.800998 
L 232.747715 274.606536 
L 234.047633 271.685714 
L 234.697592 270.025293 
L 235.022572 268.251462 
L 235.347551 268.251462 
L 235.672531 266.515202 
L 237.297428 262.626006 
L 237.622408 261.083855 
L 238.272367 259.576726 
L 239.247305 257.704365 
L 239.572285 256.503682 
L 240.547224 255.012838 
L 240.872203 254.665836 
L 241.197183 252.510861 
L 241.847142 251.39658 
L 243.472039 248.931655 
L 243.797019 248.199687 
L 244.121998 246.93307 
L 244.446978 246.93307 
L 245.421916 245.632495 
L 246.396855 244.411283 
L 247.371794 242.358137 
L 247.696773 241.029499 
L 249.321671 236.925152 
L 250.296609 234.538078 
L 250.946568 232.500585 
L 251.271548 229.713642 
L 251.921507 227.260974 
L 252.571466 225.378576 
L 253.546405 223.399953 
L 253.871384 223.399953 
L 254.521343 222.936018 
L 254.846323 222.861713 
L 255.171302 222.978986 
L 255.821261 223.492689 
L 256.47122 224.432014 
L 257.121179 226.305986 
L 258.096118 228.816146 
L 258.421097 229.722171 
L 258.746077 231.443944 
L 260.045995 235.370075 
L 260.695954 238.253235 
L 261.020934 238.253235 
L 261.345913 240.198943 
L 262.645831 242.245436 
L 262.970811 242.628275 
L 263.29579 242.628275 
L 263.62077 242.865737 
L 263.945749 242.891348 
L 265.570647 242.432061 
L 265.895627 242.212381 
L 266.220606 242.212381 
L 266.545586 241.898597 
L 267.195545 241.750722 
L 267.520524 241.847928 
L 268.170483 242.576267 
L 268.495463 243.136105 
L 268.820442 244.521484 
L 269.145422 244.521484 
L 269.470401 246.175888 
L 271.420278 251.620606 
L 271.745258 253.480357 
L 272.070238 253.480357 
L 272.395217 255.254861 
L 274.020115 259.567765 
L 274.345094 261.169505 
L 274.670074 261.9626 
L 274.995053 261.9626 
L 275.320033 263.35167 
L 275.969992 264.624023 
L 276.619951 265.450595 
L 277.26991 265.90637 
L 277.594889 266.148569 
L 278.244848 266.330331 
L 278.894808 267.085705 
L 279.219787 266.783479 
L 279.544767 266.223267 
L 281.819623 264.973413 
L 282.794562 265.018514 
L 283.119541 265.181741 
L 285.069419 267.54766 
L 285.394398 268.328146 
L 285.719378 268.737686 
L 286.694316 270.826222 
L 287.019296 272.180145 
L 287.994234 273.799641 
L 289.294152 275.589586 
L 289.944111 276.132208 
L 290.269091 276.300498 
L 290.91905 276.274734 
L 291.244029 276.097536 
L 292.218968 274.421176 
L 292.868927 273.053552 
L 293.518886 270.321068 
L 294.168845 267.653808 
L 294.493825 264.754881 
L 296.443702 256.0401 
L 296.768681 253.407177 
L 298.0686 248.816893 
L 298.393579 247.906221 
L 299.043538 244.365497 
L 299.693497 242.159591 
L 300.018477 240.195996 
L 301.968354 235.119357 
L 302.618313 233.640727 
L 302.943292 232.726316 
L 303.268272 230.578257 
L 304.89317 225.069272 
L 305.543129 223.321386 
L 305.868108 221.765309 
L 306.843047 219.766701 
L 307.817985 217.874335 
L 308.792924 216.342538 
L 309.117903 215.677753 
L 309.442883 215.582957 
L 309.767862 215.633137 
L 310.417821 216.409662 
L 311.71774 218.418072 
L 312.042719 218.506612 
L 312.367699 218.975676 
L 314.317576 227.090577 
L 314.642555 229.42593 
L 316.917412 237.215349 
L 317.242391 238.132099 
L 317.567371 239.449677 
L 317.892351 239.790078 
L 318.54231 239.654288 
L 319.517248 240.241314 
L 320.492187 241.072497 
L 321.142146 241.936033 
L 322.117084 243.740902 
L 322.442064 245.085514 
L 324.391941 249.791378 
L 324.716921 251.624955 
L 326.016839 255.971946 
L 327.641736 262.440519 
L 327.966716 265.246919 
L 330.566552 277.197334 
L 330.891532 277.197334 
L 331.216511 278.996457 
L 331.86647 280.16039 
L 332.516429 280.661823 
L 332.841409 280.752807 
L 333.166388 280.699096 
L 333.491368 280.352239 
L 333.816347 280.352239 
L 334.141327 279.630578 
L 336.741163 276.264982 
L 337.391122 275.938032 
L 338.041081 275.898201 
L 338.69104 276.173051 
L 339.340999 277.194122 
L 340.640917 279.126786 
L 341.615856 281.209248 
L 342.265815 283.216129 
L 342.915774 284.655805 
L 343.890713 286.088253 
L 344.215692 286.306942 
L 344.540672 286.358893 
L 344.865651 286.231101 
L 345.190631 285.918579 
L 346.490549 281.062777 
L 346.815528 277.656323 
L 348.115446 269.611832 
L 349.090385 262.882229 
L 349.415364 258.240551 
L 350.390303 251.823133 
L 351.365242 246.858292 
L 352.66516 240.778275 
L 353.315119 237.68119 
L 353.965078 236.225685 
L 354.940016 235.022963 
L 356.239934 234.053022 
L 356.564914 233.861989 
L 356.889894 233.431585 
L 357.864832 232.822408 
L 358.189812 232.62159 
L 358.839771 233.568436 
L 359.16475 233.568436 
L 359.814709 232.857307 
L 360.464668 232.25609 
L 360.789648 231.598813 
L 361.114627 230.554628 
L 361.439607 230.272287 
L 362.414545 228.294944 
L 363.064505 227.386406 
L 363.389484 226.815568 
L 363.714464 225.727027 
L 365.014382 223.499897 
L 365.664341 222.460089 
L 365.98932 221.6417 
L 366.639279 220.513984 
L 367.289238 221.188458 
L 368.264177 222.476768 
L 368.914136 223.772508 
L 369.564095 225.69054 
L 369.889075 228.069536 
L 370.214054 228.069536 
L 370.539034 230.512991 
L 371.838952 234.997718 
L 373.463849 240.231557 
L 375.088747 242.756639 
L 375.738706 242.818776 
L 376.388665 242.701127 
L 377.038624 242.930482 
L 377.363604 243.174813 
L 377.688583 243.725449 
L 378.013563 243.988977 
L 378.338542 243.993468 
L 378.988501 243.754284 
L 379.313481 243.774053 
L 381.588337 245.889031 
L 382.238296 246.476868 
L 382.563276 246.787354 
L 382.888256 247.25443 
L 383.213235 248.32196 
L 383.538215 248.32196 
L 383.863194 249.772159 
L 384.513153 251.517823 
L 385.488092 254.868525 
L 385.813071 256.164394 
L 386.138051 259.059582 
L 386.46303 260.562327 
L 386.78801 260.562327 
L 387.112989 263.636566 
L 388.737887 271.501313 
L 389.062867 271.501313 
L 389.387846 273.156317 
L 390.037805 274.364506 
L 390.362785 274.866683 
L 390.687764 275.015226 
L 391.012744 275.019203 
L 391.337723 274.8902 
L 391.987682 274.369997 
L 392.637641 273.762934 
L 393.2876 273.151172 
L 393.937559 272.63307 
L 394.262539 271.976057 
L 394.912498 271.452782 
L 395.562457 271.204238 
L 395.887437 271.157484 
L 396.862375 271.996615 
L 397.187355 272.543535 
L 397.512334 272.863565 
L 398.487273 275.248293 
L 398.487273 275.248293 
" clip-path="url(#p87fb1f1673)" style="fill: none; stroke: #1f77b4; stroke-width: 1.5; stroke-linecap: square"/>
   </g>
   <g id="line2d_16">
    <path d="M 73.832727 151.638907 
L 74.482686 152.325844 
L 74.807666 152.628853 
L 75.132645 153.212863 
L 76.432563 154.432148 
L 77.082523 154.949631 
L 80.007338 158.282147 
L 80.332318 156.99093 
L 80.982277 158.050061 
L 82.282195 159.59321 
L 83.582113 161.77547 
L 83.907093 162.222942 
L 84.232072 163.142208 
L 85.85697 165.355319 
L 86.181949 166.804592 
L 87.806847 170.769734 
L 88.456806 171.785986 
L 89.756724 173.118137 
L 90.406683 173.8458 
L 91.056642 174.336767 
L 91.381622 174.360381 
L 92.031581 173.814682 
L 92.68154 172.642513 
L 93.006519 171.336694 
L 94.306437 168.475744 
L 94.956396 167.00966 
L 95.606355 164.870339 
L 95.931335 162.327537 
L 97.231253 156.325579 
L 97.881212 152.543352 
L 98.206192 148.722042 
L 98.531171 148.722042 
L 98.856151 144.379626 
L 100.481048 131.971362 
L 100.806028 129.397324 
L 101.131007 124.191318 
L 101.780966 119.451724 
L 102.105946 119.451724 
L 102.430925 117.065127 
L 102.755905 111.709718 
L 104.055823 101.137697 
L 104.380803 95.64568 
L 106.0057 83.366396 
L 107.630598 72.556999 
L 107.955577 68.314707 
L 108.930516 63.607775 
L 109.905455 59.452017 
L 110.230434 57.618328 
L 111.205373 56.181541 
L 111.530352 56.103438 
L 112.180311 56.216153 
L 113.480229 59.3386 
L 114.130188 61.816634 
L 114.455168 64.935306 
L 114.780147 64.935306 
L 115.105127 68.738179 
L 116.405045 78.624715 
L 117.704963 90.798623 
L 118.029943 94.159646 
L 118.354922 101.222524 
L 119.97982 120.302842 
L 120.629779 129.099242 
L 120.954758 137.539559 
L 123.554595 170.881192 
L 123.879574 179.116028 
L 125.829451 203.829726 
L 126.154431 211.134003 
L 127.454349 224.066061 
L 127.779328 229.940851 
L 128.104308 229.940851 
L 128.429287 237.208291 
L 129.079247 246.409353 
L 130.054185 254.942758 
L 130.379165 257.452782 
L 131.354103 270.469497 
L 132.004062 270.469497 
L 132.329042 272.155655 
L 132.654021 274.991714 
L 133.30398 277.156654 
L 133.62896 277.156654 
L 133.953939 278.088939 
L 134.278919 279.705326 
L 134.603898 280.323258 
L 134.928878 281.181761 
L 135.253857 281.516679 
L 135.578837 281.197323 
L 136.228796 279.741004 
L 136.553776 278.568269 
L 136.878755 276.436641 
L 137.203735 275.365421 
L 139.153612 265.336979 
L 139.478591 263.24725 
L 139.803571 258.539823 
L 141.103489 247.367725 
L 142.078428 238.152077 
L 142.403407 231.444971 
L 143.703325 215.968518 
L 145.328223 193.916413 
L 145.653202 184.934331 
L 145.978182 184.934331 
L 146.303161 176.751163 
L 146.95312 168.755061 
L 148.253038 148.084116 
L 150.527895 126.252796 
L 150.852875 120.228506 
L 151.502834 113.939536 
L 154.10267 91.252086 
L 154.427649 86.229697 
L 155.402588 79.642038 
L 156.702506 71.774402 
L 157.027486 69.953928 
L 157.352465 66.524461 
L 158.327404 62.338047 
L 159.627322 57.740005 
L 160.277281 56.788402 
L 160.60226 56.502132 
L 160.92724 56.486824 
L 161.252219 56.615328 
L 161.577199 56.93958 
L 161.902179 57.517981 
L 162.227158 58.773315 
L 162.552138 58.773315 
L 162.877117 59.620273 
L 163.202097 61.647852 
L 164.177035 65.423811 
L 165.151974 70.122934 
L 166.451892 77.922197 
L 166.776871 82.368499 
L 168.401769 94.909673 
L 168.726749 97.7833 
L 169.051728 103.710795 
L 169.376708 103.710795 
L 169.701687 106.797921 
L 170.026667 112.789057 
L 171.001605 121.939385 
L 171.326585 128.320119 
L 173.276462 148.778123 
L 173.926421 155.614586 
L 174.2514 162.554087 
L 175.876298 179.903424 
L 176.201278 186.792025 
L 176.526257 186.792025 
L 176.851237 193.70107 
L 180.101032 227.905106 
L 180.426011 234.398367 
L 182.050909 249.342206 
L 182.375889 251.637083 
L 182.700868 256.421894 
L 184.975725 271.089149 
L 185.625684 274.179805 
L 185.950663 276.620868 
L 186.925602 279.428528 
L 187.900541 281.908695 
L 188.875479 282.561877 
L 189.200459 282.53674 
L 190.175397 280.345663 
L 190.825356 278.258066 
L 191.475315 275.684974 
L 191.800295 273.079378 
L 192.450254 270.396686 
L 193.425192 264.25198 
L 194.400131 256.409959 
L 194.725111 250.800625 
L 195.700049 241.514531 
L 196.350008 234.421544 
L 196.674988 227.466128 
L 196.999967 227.466128 
L 197.649926 220.010417 
L 197.974906 212.055441 
L 199.924783 186.268059 
L 200.249762 176.366738 
L 200.899722 167.145843 
L 201.87466 154.952507 
L 202.19964 146.776753 
L 202.524619 142.90982 
L 202.849599 142.90982 
L 203.174578 135.023435 
L 204.474496 120.064385 
L 206.099394 102.798866 
L 206.424373 96.379287 
L 208.374251 80.30857 
L 208.69923 78.099908 
L 209.02421 73.879893 
L 209.999148 67.897959 
L 210.974087 62.733178 
L 211.299066 59.903652 
L 212.274005 56.667069 
L 212.598984 55.990073 
L 212.923964 54.865263 
L 213.573923 54.084727 
L 214.548862 53.568 
L 214.873841 53.622674 
L 215.5238 54.685156 
L 216.173759 55.748454 
L 217.148698 57.464545 
L 217.798657 58.035035 
L 218.773595 59.072291 
L 219.423554 60.064321 
L 219.748534 61.361874 
L 220.073514 61.361874 
L 220.398493 63.20555 
L 221.373432 67.106983 
L 222.023391 70.094234 
L 222.34837 73.470614 
L 223.648288 81.735047 
L 224.298247 86.562697 
L 224.623227 91.889214 
L 224.948206 91.889214 
L 225.273186 97.831215 
L 226.898084 113.410079 
L 227.223063 119.917647 
L 230.147879 150.144025 
L 230.472858 157.850789 
L 232.422735 180.190127 
L 232.747715 186.672425 
L 234.697592 205.123888 
L 235.022572 210.318657 
L 235.347551 210.318657 
L 235.672531 215.087097 
L 237.297428 225.819787 
L 237.622408 230.167137 
L 237.947387 232.497378 
L 238.922326 236.995757 
L 239.247305 238.731723 
L 239.572285 241.870959 
L 240.547224 245.779564 
L 240.872203 246.889275 
L 241.197183 251.171874 
L 241.847142 253.851538 
L 243.797019 260.437129 
L 244.121998 262.377169 
L 244.446978 262.377169 
L 244.771957 263.382482 
L 245.421916 264.415785 
L 247.046814 266.139738 
L 247.696773 266.540236 
L 248.671712 266.618981 
L 248.996691 266.477294 
L 249.64665 265.808788 
L 250.946568 263.756247 
L 251.271548 263.058975 
L 251.596527 262.662171 
L 252.246486 261.22822 
L 253.221425 257.769036 
L 253.546405 255.219687 
L 253.871384 255.219687 
L 254.846323 251.371997 
L 255.171302 248.874736 
L 255.821261 245.941371 
L 256.47122 242.223478 
L 256.7962 237.982675 
L 258.421097 224.754939 
L 258.746077 218.938768 
L 259.721016 208.883971 
L 260.370975 201.000105 
L 260.695954 193.149305 
L 261.020934 193.149305 
L 261.345913 182.818356 
L 262.645831 166.852188 
L 262.970811 159.125467 
L 263.29579 159.125467 
L 263.62077 150.930956 
L 264.595708 139.280234 
L 265.895627 121.969319 
L 266.220606 121.969319 
L 266.545586 116.240424 
L 267.520524 108.544738 
L 268.495463 102.852957 
L 268.820442 99.570611 
L 269.145422 99.570611 
L 269.470401 96.687674 
L 271.420278 88.386535 
L 271.745258 85.63424 
L 272.070238 85.63424 
L 272.395217 82.902029 
L 274.670074 74.051343 
L 274.995053 74.051343 
L 275.320033 72.619784 
L 275.969992 71.684813 
L 277.26991 70.253856 
L 277.594889 70.02694 
L 277.919869 70.107531 
L 278.244848 70.316059 
L 278.569828 70.953997 
L 278.894808 71.866394 
L 279.219787 71.954359 
L 281.169664 75.898295 
L 281.494644 77.556469 
L 282.469582 80.585193 
L 283.119541 82.951375 
L 285.069419 91.869414 
L 285.394398 95.138515 
L 286.044357 99.389814 
L 286.694316 104.756351 
L 287.019296 110.677101 
L 288.319214 123.443431 
L 289.944111 142.255935 
L 290.269091 146.285843 
L 290.59407 154.530558 
L 290.91905 154.530558 
L 291.244029 158.765892 
L 291.569009 167.237675 
L 292.868927 184.898122 
L 293.193907 194.819841 
L 294.168845 208.289252 
L 294.493825 216.356367 
L 296.118722 233.680089 
L 297.41864 245.394989 
L 298.718559 254.101071 
L 299.368518 258.453108 
L 299.693497 260.108099 
L 300.018477 263.14792 
L 301.643374 269.896542 
L 302.293333 271.494777 
L 302.943292 273.369556 
L 303.268272 275.179259 
L 304.24321 277.379876 
L 304.89317 278.178013 
L 305.218149 278.361509 
L 305.543129 278.390461 
L 306.193088 277.653802 
L 306.843047 276.536383 
L 307.817985 274.250428 
L 308.792924 271.378648 
L 309.117903 268.916419 
L 310.092842 264.449911 
L 312.367699 252.216412 
L 312.692678 249.270526 
L 313.017658 244.070884 
L 313.667617 237.886289 
L 314.317576 230.766463 
L 314.642555 222.983368 
L 315.617494 210.427462 
L 317.242391 185.661723 
L 317.567371 173.857192 
L 318.54231 160.083904 
L 318.867289 151.876553 
L 320.167207 138.291065 
L 321.467125 128.152487 
L 322.117084 124.432557 
L 322.442064 121.160897 
L 323.417002 117.210945 
L 324.391941 113.662691 
L 324.716921 111.700564 
L 326.341818 107.096352 
L 327.641736 102.494894 
L 327.966716 99.956053 
L 329.266634 95.640765 
L 330.566552 92.437507 
L 330.891532 92.437507 
L 331.216511 92.098752 
L 331.541491 92.167792 
L 332.19145 92.149212 
L 332.841409 92.682349 
L 333.166388 93.006329 
L 333.491368 93.883248 
L 333.816347 93.883248 
L 334.141327 94.771762 
L 334.466306 95.300459 
L 335.116265 96.656706 
L 335.766224 97.790202 
L 336.416183 99.199685 
L 336.741163 100.587293 
L 338.041081 102.936169 
L 338.69104 104.050399 
L 339.340999 106.029738 
L 340.315938 108.457667 
L 340.965897 111.324347 
L 341.615856 114.934331 
L 342.265815 122.17209 
L 343.565733 136.946889 
L 344.865651 155.87916 
L 345.190631 161.050984 
L 345.51561 171.523885 
L 346.490549 188.00574 
L 346.815528 199.028669 
L 348.115446 217.36848 
L 349.090385 228.916459 
L 349.415364 235.642321 
L 350.065324 241.340919 
L 351.040262 247.40688 
L 352.015201 252.110128 
L 352.34018 253.40633 
L 353.315119 259.399816 
L 353.965078 261.354382 
L 356.564914 266.683716 
L 356.889894 268.228822 
L 358.189812 271.626519 
L 358.514791 271.688623 
L 358.839771 272.476636 
L 359.16475 272.476636 
L 359.48973 273.499615 
L 359.814709 273.843458 
L 360.464668 274.088797 
L 360.789648 274.181166 
L 361.764586 272.651017 
L 362.414545 271.262482 
L 363.389484 268.101626 
L 363.714464 265.6776 
L 364.689402 262.501538 
L 365.664341 260.179673 
L 366.3143 259.181984 
L 366.639279 258.027649 
L 367.614218 256.007184 
L 368.264177 254.793396 
L 368.914136 253.158014 
L 369.564095 250.619521 
L 369.889075 247.002855 
L 370.214054 247.002855 
L 370.539034 242.437923 
L 371.513972 233.847093 
L 372.488911 222.997338 
L 373.13887 213.916022 
L 373.463849 204.622278 
L 374.438788 189.217441 
L 376.388665 155.09407 
L 377.363604 144.09354 
L 377.688583 137.853301 
L 379.63846 118.711657 
L 380.288419 115.436976 
L 381.263358 111.802979 
L 382.563276 108.000121 
L 382.888256 107.205264 
L 383.213235 105.635111 
L 383.538215 105.635111 
L 383.863194 104.039081 
L 384.838133 100.965627 
L 385.813071 97.00946 
L 386.138051 94.295988 
L 386.46303 92.912854 
L 386.78801 92.912854 
L 387.112989 90.259825 
L 387.762948 87.91295 
L 388.412907 86.116549 
L 388.737887 84.587362 
L 389.062867 84.587362 
L 389.387846 83.455803 
L 390.037805 82.918483 
L 390.362785 82.964076 
L 391.337723 82.354692 
L 391.662703 82.456319 
L 393.2876 83.719196 
L 394.262539 84.930397 
L 394.912498 85.371098 
L 395.887437 86.275098 
L 396.212416 87.419608 
L 396.862375 88.827556 
L 397.512334 90.624806 
L 398.487273 95.902676 
L 398.487273 95.902676 
" clip-path="url(#p87fb1f1673)" style="fill: none; stroke: #ff7f0e; stroke-width: 1.5; stroke-linecap: square"/>
   </g>
   <g id="line2d_17">
    <path d="M 73.832727 172.828352 
L 76.107584 172.998479 
L 76.432563 172.792056 
L 77.407502 172.758116 
L 77.732482 172.820999 
L 78.057461 173.27592 
L 78.382441 173.241525 
L 78.70742 173.665337 
L 79.0324 173.534799 
L 79.357379 173.557591 
L 80.332318 174.334399 
L 80.657297 174.967377 
L 80.982277 175.119956 
L 83.907093 177.763058 
L 84.232072 178.676806 
L 85.207011 179.90509 
L 85.53199 179.995151 
L 85.85697 180.204782 
L 87.481867 182.292421 
L 88.781785 184.837329 
L 89.756724 187.016184 
L 90.731663 190.026017 
L 91.056642 191.34159 
L 91.381622 194.074102 
L 92.35656 199.049443 
L 92.68154 200.757116 
L 93.006519 204.207051 
L 96.256314 219.451704 
L 97.881212 224.246984 
L 98.206192 226.496812 
L 98.531171 226.496812 
L 98.856151 228.801439 
L 99.831089 231.5425 
L 100.481048 232.762592 
L 101.131007 233.610713 
L 102.105946 233.543527 
L 102.430925 233.308913 
L 102.755905 232.312328 
L 103.405864 231.137699 
L 104.055823 229.18807 
L 104.380803 227.03012 
L 105.355741 222.826294 
L 106.33068 217.4127 
L 107.630598 208.83883 
L 107.955577 203.350708 
L 109.255495 192.624746 
L 109.905455 185.593036 
L 110.230434 178.92248 
L 111.855332 161.193563 
L 112.180311 161.193563 
L 112.505291 154.153831 
L 114.130188 135.832766 
L 114.455168 128.447435 
L 114.780147 128.447435 
L 115.105127 121.436428 
L 117.055004 102.73028 
L 118.029943 94.510953 
L 118.354922 89.691663 
L 119.329861 83.467371 
L 120.304799 78.488685 
L 120.629779 77.644998 
L 120.954758 75.925893 
L 121.604717 74.644038 
L 122.254676 73.796177 
L 123.229615 73.227255 
L 123.554595 73.264363 
L 124.204554 74.169891 
L 124.854513 75.480307 
L 125.829451 77.802052 
L 126.154431 80.128845 
L 127.454349 82.884963 
L 127.779328 84.654095 
L 128.104308 84.654095 
L 128.429287 90.400365 
L 129.404226 100.239969 
L 130.379165 106.916812 
L 131.029124 115.187938 
L 131.354103 121.833721 
L 132.004062 121.833721 
L 132.329042 124.821283 
L 132.654021 130.972556 
L 133.30398 137.334382 
L 133.62896 137.334382 
L 133.953939 140.459423 
L 134.278919 147.145483 
L 134.603898 150.506233 
L 134.928878 157.343115 
L 135.578837 180.877779 
L 136.553776 191.397188 
L 136.878755 198.131812 
L 137.528714 204.253069 
L 139.478591 223.903935 
L 139.803571 229.84806 
L 141.428468 243.786226 
L 142.078428 248.541796 
L 142.403407 253.012419 
L 143.378346 259.262242 
L 144.353284 264.492515 
L 145.653202 269.923126 
L 145.978182 269.923126 
L 146.303161 271.00184 
L 146.628141 271.266669 
L 146.95312 271.386695 
L 147.2781 271.232159 
L 147.603079 270.771787 
L 148.902998 267.666803 
L 150.202916 262.919861 
L 150.527895 261.45319 
L 150.852875 258.130861 
L 153.127731 242.698974 
L 154.10267 234.627368 
L 154.427649 228.926746 
L 157.027486 204.470658 
L 157.352465 198.056396 
L 159.302342 179.254953 
L 159.627322 173.203892 
L 161.902179 151.634278 
L 162.227158 145.649492 
L 162.552138 145.649492 
L 162.877117 142.538323 
L 163.202097 136.416885 
L 165.476953 115.457143 
L 166.451892 107.805046 
L 166.776871 103.336949 
L 168.07679 95.600035 
L 168.726749 92.283025 
L 169.051728 89.200866 
L 169.376708 89.200866 
L 169.701687 87.800203 
L 170.026667 85.255283 
L 171.001605 81.98667 
L 171.326585 80.132094 
L 172.626503 77.993705 
L 173.276462 77.390454 
L 173.926421 77.063381 
L 174.2514 77.096747 
L 174.57638 77.24672 
L 175.551319 78.230801 
L 175.876298 78.810756 
L 176.201278 80.248611 
L 176.526257 80.248611 
L 176.851237 82.086629 
L 177.826175 85.325522 
L 178.801114 89.219521 
L 179.776052 93.436039 
L 180.101032 95.417385 
L 180.426011 99.089878 
L 181.40095 104.797647 
L 182.375889 110.991279 
L 182.700868 115.430509 
L 184.000786 124.816591 
L 185.625684 140.621912 
L 185.950663 146.801961 
L 187.250581 159.864612 
L 188.22552 170.661049 
L 189.200459 179.480449 
L 189.525438 185.003251 
L 191.475315 200.084108 
L 191.800295 205.630302 
L 194.400131 229.004648 
L 194.725111 234.413499 
L 196.350008 246.095262 
L 196.674988 249.950012 
L 196.999967 249.950012 
L 197.649926 253.3561 
L 197.974906 256.374725 
L 198.949844 259.650228 
L 199.924783 261.875831 
L 200.249762 263.107752 
L 200.899722 263.584777 
L 201.224701 263.584969 
L 201.549681 263.420976 
L 201.87466 263.05717 
L 202.524619 261.505657 
L 202.849599 261.505657 
L 203.499558 258.872323 
L 204.149517 256.500153 
L 205.124455 252.280469 
L 206.099394 246.560709 
L 206.424373 242.417445 
L 207.399312 235.610179 
L 208.374251 227.524413 
L 208.69923 224.71988 
L 209.02421 218.67537 
L 210.974087 199.222613 
L 211.299066 192.225047 
L 212.598984 177.690945 
L 212.923964 170.34007 
L 214.873841 148.996668 
L 215.198821 142.314995 
L 216.498739 130.265603 
L 216.823718 127.713184 
L 217.148698 123.28419 
L 217.798657 119.796096 
L 218.773595 116.008194 
L 219.423554 113.842984 
L 219.748534 111.785624 
L 220.073514 111.785624 
L 220.398493 109.726729 
L 222.998329 102.212819 
L 223.973268 100.006282 
L 224.298247 99.122211 
L 224.623227 97.488609 
L 224.948206 97.488609 
L 225.273186 96.073723 
L 226.573104 93.546758 
L 226.898084 92.950124 
L 227.223063 91.670947 
L 228.198002 90.19976 
L 228.847961 89.409456 
L 229.822899 88.530736 
L 231.122817 87.64086 
L 232.097756 87.513435 
L 232.422735 87.626778 
L 233.072695 88.358574 
L 233.722654 89.192106 
L 235.022572 91.939319 
L 235.347551 91.939319 
L 235.672531 93.100236 
L 236.32249 94.53263 
L 236.972449 96.283125 
L 237.297428 97.392017 
L 237.622408 99.930061 
L 237.947387 101.527103 
L 238.597346 103.072044 
L 239.247305 105.836603 
L 239.572285 108.698571 
L 240.872203 114.401713 
L 241.197183 119.055929 
L 243.797019 136.89776 
L 244.121998 141.967716 
L 244.446978 141.967716 
L 244.771957 147.065715 
L 247.046814 166.837037 
L 247.371794 169.787478 
L 247.696773 175.565806 
L 250.946568 204.956029 
L 251.271548 210.482428 
L 253.221425 225.77922 
L 253.546405 230.060064 
L 253.871384 230.060064 
L 255.496282 239.622407 
L 256.47122 244.079512 
L 256.7962 247.272544 
L 259.396036 259.37151 
L 260.370975 262.448742 
L 260.695954 264.193968 
L 261.020934 264.193968 
L 261.345913 265.690795 
L 261.995872 266.524007 
L 262.970811 266.882502 
L 263.29579 266.882502 
L 264.270729 265.895428 
L 264.595708 265.451966 
L 265.245667 264.05683 
L 265.570647 262.544916 
L 265.895627 261.598402 
L 266.220606 261.598402 
L 266.545586 259.778182 
L 267.520524 256.449006 
L 268.495463 252.338761 
L 268.820442 249.113206 
L 269.145422 249.113206 
L 269.470401 245.628866 
L 270.770319 237.599999 
L 271.420278 233.096533 
L 271.745258 228.081208 
L 272.070238 228.081208 
L 272.395217 222.667702 
L 273.695135 210.34679 
L 274.020115 207.050959 
L 274.345094 200.21226 
L 274.670074 196.637674 
L 274.995053 196.637674 
L 275.320033 189.268085 
L 277.26991 166.794103 
L 277.594889 159.597076 
L 279.219787 142.667889 
L 279.544767 136.05782 
L 280.844685 125.041051 
L 281.169664 122.642222 
L 281.494644 118.122053 
L 282.794562 110.487085 
L 283.7695 106.078998 
L 284.419459 103.725381 
L 285.069419 101.896812 
L 285.394398 99.750329 
L 286.369337 96.418183 
L 286.694316 95.28071 
L 287.019296 93.120294 
L 288.644193 88.290545 
L 289.619132 86.341334 
L 290.59407 84.587552 
L 290.91905 84.587552 
L 291.244029 84.287019 
L 292.218968 83.985564 
L 292.543948 83.988162 
L 292.868927 84.766011 
L 293.193907 86.811633 
L 294.168845 89.324093 
L 294.493825 91.291914 
L 295.143784 93.54758 
L 295.793743 96.379439 
L 297.093661 102.763712 
L 298.393579 108.534125 
L 299.043538 113.626576 
L 299.693497 117.653064 
L 300.018477 121.779999 
L 300.993415 128.646405 
L 302.943292 145.085039 
L 303.268272 151.01369 
L 305.218149 170.024412 
L 305.543129 173.549713 
L 305.868108 180.539737 
L 308.142965 204.068716 
L 308.792924 209.86353 
L 309.117903 215.558557 
L 310.417821 225.472786 
L 311.71774 233.946975 
L 312.042719 235.214797 
L 312.692678 239.850067 
L 313.017658 243.981606 
L 314.317576 252.074334 
L 314.642555 255.9679 
L 316.267453 263.79173 
L 316.917412 265.784894 
L 317.242391 266.534177 
L 317.567371 268.010676 
L 318.54231 269.113998 
L 318.867289 268.927345 
L 319.517248 268.09861 
L 320.492187 266.060477 
L 322.117084 261.129761 
L 322.442064 258.911222 
L 324.391941 251.579805 
L 324.716921 248.809657 
L 325.691859 243.993175 
L 326.666798 237.874291 
L 327.641736 230.168795 
L 327.966716 223.882999 
L 328.941654 213.006398 
L 330.241572 195.643421 
L 330.566552 186.03883 
L 330.891532 186.03883 
L 331.216511 176.163502 
L 333.491368 140.357839 
L 333.816347 140.357839 
L 334.141327 133.149559 
L 335.116265 123.789813 
L 336.091204 116.546711 
L 336.416183 114.593321 
L 336.741163 111.380334 
L 337.391122 109.057778 
L 338.041081 107.718029 
L 338.366061 107.361354 
L 338.69104 107.178756 
L 340.315938 108.340805 
L 340.965897 108.919854 
L 341.615856 109.219979 
L 342.265815 108.696969 
L 342.915774 108.03102 
L 344.215692 105.76722 
L 345.190631 103.852731 
L 345.51561 102.696245 
L 346.165569 101.519592 
L 347.140508 100.963743 
L 347.790467 101.019542 
L 348.765405 101.475729 
L 349.090385 101.68407 
L 349.740344 102.486659 
L 350.065324 102.573746 
L 350.390303 102.501211 
L 350.715283 102.686403 
L 352.66516 104.725201 
L 353.315119 107.57384 
L 355.264996 112.950628 
L 356.239934 116.856065 
L 356.564914 118.35068 
L 356.889894 122.123993 
L 357.539853 127.077241 
L 358.514791 135.511155 
L 358.839771 142.099347 
L 359.16475 142.099347 
L 359.48973 150.070931 
L 360.789648 167.604343 
L 361.114627 176.258986 
L 363.389484 203.694118 
L 363.714464 210.502315 
L 364.689402 218.359364 
L 365.664341 223.811027 
L 366.3143 226.548595 
L 366.639279 228.789939 
L 367.289238 230.169411 
L 369.239115 233.093437 
L 369.564095 233.877785 
L 369.889075 236.002678 
L 370.214054 236.002678 
L 370.539034 238.784702 
L 371.513972 243.982891 
L 373.13887 254.216234 
L 373.463849 257.999716 
L 374.438788 262.538509 
L 375.088747 264.655684 
L 375.738706 266.521278 
L 376.063686 266.770413 
L 376.388665 266.837469 
L 376.713645 266.642562 
L 377.363604 265.742173 
L 377.688583 264.39011 
L 378.988501 261.353601 
L 379.313481 260.563646 
L 379.63846 258.884358 
L 381.263358 254.722305 
L 382.888256 250.874664 
L 383.213235 248.982559 
L 383.538215 248.982559 
L 383.863194 246.601338 
L 384.513153 243.570537 
L 385.163112 239.58705 
L 385.813071 234.54278 
L 386.138051 228.413602 
L 386.46303 224.948275 
L 386.78801 224.948275 
L 387.112989 217.222809 
L 388.412907 199.648321 
L 388.737887 190.298358 
L 389.062867 190.298358 
L 389.387846 180.784679 
L 391.012744 158.282449 
L 391.337723 154.212686 
L 391.662703 146.738991 
L 392.637641 137.154111 
L 393.61258 129.728506 
L 393.937559 127.703222 
L 394.262539 124.179371 
L 394.912498 121.478644 
L 395.562457 119.568099 
L 395.887437 118.805182 
L 396.212416 117.617242 
L 396.862375 116.744331 
L 397.512334 116.241441 
L 397.837314 115.664735 
L 398.162293 115.366748 
L 398.487273 114.892173 
L 398.487273 114.892173 
" clip-path="url(#p87fb1f1673)" style="fill: none; stroke: #2ca02c; stroke-width: 1.5; stroke-linecap: square"/>
   </g>
   <g id="patch_3">
    <path d="M 57.6 307.584 
L 57.6 41.472 
" style="fill: none; stroke: #000000; stroke-width: 0.8; stroke-linejoin: miter; stroke-linecap: square"/>
   </g>
   <g id="patch_4">
    <path d="M 414.72 307.584 
L 414.72 41.472 
" style="fill: none; stroke: #000000; stroke-width: 0.8; stroke-linejoin: miter; stroke-linecap: square"/>
   </g>
   <g id="patch_5">
    <path d="M 57.6 307.584 
L 414.72 307.584 
" style="fill: none; stroke: #000000; stroke-width: 0.8; stroke-linejoin: miter; stroke-linecap: square"/>
   </g>
   <g id="patch_6">
    <path d="M 57.6 41.472 
L 414.72 41.472 
" style="fill: none; stroke: #000000; stroke-width: 0.8; stroke-linejoin: miter; stroke-linecap: square"/>
   </g>
   <g id="text_17">
    <!-- Change in rotation components for moving hand in circle -->
    <g transform="translate(21.907266 35.472)scale(0.15 -0.15)">
     <defs>
      <path id="DejaVuSans-43" d="M 4122 4306 
L 4122 3641 
Q 3803 3938 3442 4084 
Q 3081 4231 2675 4231 
Q 1875 4231 1450 3742 
Q 1025 3253 1025 2328 
Q 1025 1406 1450 917 
Q 1875 428 2675 428 
Q 3081 428 3442 575 
Q 3803 722 4122 1019 
L 4122 359 
Q 3791 134 3420 21 
Q 3050 -91 2638 -91 
Q 1578 -91 968 557 
Q 359 1206 359 2328 
Q 359 3453 968 4101 
Q 1578 4750 2638 4750 
Q 3056 4750 3426 4639 
Q 3797 4528 4122 4306 
z
" transform="scale(0.015625)"/>
      <path id="DejaVuSans-68" d="M 3513 2113 
L 3513 0 
L 2938 0 
L 2938 2094 
Q 2938 2591 2744 2837 
Q 2550 3084 2163 3084 
Q 1697 3084 1428 2787 
Q 1159 2491 1159 1978 
L 1159 0 
L 581 0 
L 581 4863 
L 1159 4863 
L 1159 2956 
Q 1366 3272 1645 3428 
Q 1925 3584 2291 3584 
Q 2894 3584 3203 3211 
Q 3513 2838 3513 2113 
z
" transform="scale(0.015625)"/>
      <path id="DejaVuSans-20" transform="scale(0.015625)"/>
      <path id="DejaVuSans-72" d="M 2631 2963 
Q 2534 3019 2420 3045 
Q 2306 3072 2169 3072 
Q 1681 3072 1420 2755 
Q 1159 2438 1159 1844 
L 1159 0 
L 581 0 
L 581 3500 
L 1159 3500 
L 1159 2956 
Q 1341 3275 1631 3429 
Q 1922 3584 2338 3584 
Q 2397 3584 2469 3576 
Q 2541 3569 2628 3553 
L 2631 2963 
z
" transform="scale(0.015625)"/>
      <path id="DejaVuSans-6f" d="M 1959 3097 
Q 1497 3097 1228 2736 
Q 959 2375 959 1747 
Q 959 1119 1226 758 
Q 1494 397 1959 397 
Q 2419 397 2687 759 
Q 2956 1122 2956 1747 
Q 2956 2369 2687 2733 
Q 2419 3097 1959 3097 
z
M 1959 3584 
Q 2709 3584 3137 3096 
Q 3566 2609 3566 1747 
Q 3566 888 3137 398 
Q 2709 -91 1959 -91 
Q 1206 -91 779 398 
Q 353 888 353 1747 
Q 353 2609 779 3096 
Q 1206 3584 1959 3584 
z
" transform="scale(0.015625)"/>
      <path id="DejaVuSans-63" d="M 3122 3366 
L 3122 2828 
Q 2878 2963 2633 3030 
Q 2388 3097 2138 3097 
Q 1578 3097 1268 2742 
Q 959 2388 959 1747 
Q 959 1106 1268 751 
Q 1578 397 2138 397 
Q 2388 397 2633 464 
Q 2878 531 3122 666 
L 3122 134 
Q 2881 22 2623 -34 
Q 2366 -91 2075 -91 
Q 1284 -91 818 406 
Q 353 903 353 1747 
Q 353 2603 823 3093 
Q 1294 3584 2113 3584 
Q 2378 3584 2631 3529 
Q 2884 3475 3122 3366 
z
" transform="scale(0.015625)"/>
      <path id="DejaVuSans-66" d="M 2375 4863 
L 2375 4384 
L 1825 4384 
Q 1516 4384 1395 4259 
Q 1275 4134 1275 3809 
L 1275 3500 
L 2222 3500 
L 2222 3053 
L 1275 3053 
L 1275 0 
L 697 0 
L 697 3053 
L 147 3053 
L 147 3500 
L 697 3500 
L 697 3744 
Q 697 4328 969 4595 
Q 1241 4863 1831 4863 
L 2375 4863 
z
" transform="scale(0.015625)"/>
      <path id="DejaVuSans-76" d="M 191 3500 
L 800 3500 
L 1894 563 
L 2988 3500 
L 3597 3500 
L 2284 0 
L 1503 0 
L 191 3500 
z
" transform="scale(0.015625)"/>
      <path id="DejaVuSans-6c" d="M 603 4863 
L 1178 4863 
L 1178 0 
L 603 0 
L 603 4863 
z
" transform="scale(0.015625)"/>
     </defs>
     <use xlink:href="#DejaVuSans-43"/>
     <use xlink:href="#DejaVuSans-68" x="69.824219"/>
     <use xlink:href="#DejaVuSans-61" x="133.203125"/>
     <use xlink:href="#DejaVuSans-6e" x="194.482422"/>
     <use xlink:href="#DejaVuSans-67" x="257.861328"/>
     <use xlink:href="#DejaVuSans-65" x="321.337891"/>
     <use xlink:href="#DejaVuSans-20" x="382.861328"/>
     <use xlink:href="#DejaVuSans-69" x="414.648438"/>
     <use xlink:href="#DejaVuSans-6e" x="442.431641"/>
     <use xlink:href="#DejaVuSans-20" x="505.810547"/>
     <use xlink:href="#DejaVuSans-72" x="537.597656"/>
     <use xlink:href="#DejaVuSans-6f" x="576.460938"/>
     <use xlink:href="#DejaVuSans-74" x="637.642578"/>
     <use xlink:href="#DejaVuSans-61" x="676.851562"/>
     <use xlink:href="#DejaVuSans-74" x="738.130859"/>
     <use xlink:href="#DejaVuSans-69" x="777.339844"/>
     <use xlink:href="#DejaVuSans-6f" x="805.123047"/>
     <use xlink:href="#DejaVuSans-6e" x="866.304688"/>
     <use xlink:href="#DejaVuSans-20" x="929.683594"/>
     <use xlink:href="#DejaVuSans-63" x="961.470703"/>
     <use xlink:href="#DejaVuSans-6f" x="1016.451172"/>
     <use xlink:href="#DejaVuSans-6d" x="1077.632812"/>
     <use xlink:href="#DejaVuSans-70" x="1175.044922"/>
     <use xlink:href="#DejaVuSans-6f" x="1238.521484"/>
     <use xlink:href="#DejaVuSans-6e" x="1299.703125"/>
     <use xlink:href="#DejaVuSans-65" x="1363.082031"/>
     <use xlink:href="#DejaVuSans-6e" x="1424.605469"/>
     <use xlink:href="#DejaVuSans-74" x="1487.984375"/>
     <use xlink:href="#DejaVuSans-73" x="1527.193359"/>
     <use xlink:href="#DejaVuSans-20" x="1579.292969"/>
     <use xlink:href="#DejaVuSans-66" x="1611.080078"/>
     <use xlink:href="#DejaVuSans-6f" x="1646.285156"/>
     <use xlink:href="#DejaVuSans-72" x="1707.466797"/>
     <use xlink:href="#DejaVuSans-20" x="1748.580078"/>
     <use xlink:href="#DejaVuSans-6d" x="1780.367188"/>
     <use xlink:href="#DejaVuSans-6f" x="1877.779297"/>
     <use xlink:href="#DejaVuSans-76" x="1938.960938"/>
     <use xlink:href="#DejaVuSans-69" x="1998.140625"/>
     <use xlink:href="#DejaVuSans-6e" x="2025.923828"/>
     <use xlink:href="#DejaVuSans-67" x="2089.302734"/>
     <use xlink:href="#DejaVuSans-20" x="2152.779297"/>
     <use xlink:href="#DejaVuSans-68" x="2184.566406"/>
     <use xlink:href="#DejaVuSans-61" x="2247.945312"/>
     <use xlink:href="#DejaVuSans-6e" x="2309.224609"/>
     <use xlink:href="#DejaVuSans-64" x="2372.603516"/>
     <use xlink:href="#DejaVuSans-20" x="2436.080078"/>
     <use xlink:href="#DejaVuSans-69" x="2467.867188"/>
     <use xlink:href="#DejaVuSans-6e" x="2495.650391"/>
     <use xlink:href="#DejaVuSans-20" x="2559.029297"/>
     <use xlink:href="#DejaVuSans-63" x="2590.816406"/>
     <use xlink:href="#DejaVuSans-69" x="2645.796875"/>
     <use xlink:href="#DejaVuSans-72" x="2673.580078"/>
     <use xlink:href="#DejaVuSans-63" x="2712.443359"/>
     <use xlink:href="#DejaVuSans-6c" x="2767.423828"/>
     <use xlink:href="#DejaVuSans-65" x="2795.207031"/>
    </g>
   </g>
   <g id="legend_1">
    <g id="patch_7">
     <path d="M 351.134063 198.045187 
L 407.72 198.045187 
Q 409.72 198.045187 409.72 196.045187 
L 409.72 153.010812 
Q 409.72 151.010812 407.72 151.010812 
L 351.134063 151.010812 
Q 349.134063 151.010812 349.134063 153.010812 
L 349.134063 196.045187 
Q 349.134063 198.045187 351.134063 198.045187 
z
" style="fill: #ffffff; opacity: 0.8; stroke: #cccccc; stroke-linejoin: miter"/>
    </g>
    <g id="line2d_18">
     <path d="M 353.134063 159.10925 
L 363.134063 159.10925 
L 373.134063 159.10925 
" style="fill: none; stroke: #1f77b4; stroke-width: 1.5; stroke-linecap: square"/>
    </g>
    <g id="text_18">
     <!-- idx 0 -->
     <g transform="translate(381.134063 162.60925)scale(0.1 -0.1)">
      <defs>
       <path id="DejaVuSans-78" d="M 3513 3500 
L 2247 1797 
L 3578 0 
L 2900 0 
L 1881 1375 
L 863 0 
L 184 0 
L 1544 1831 
L 300 3500 
L 978 3500 
L 1906 2253 
L 2834 3500 
L 3513 3500 
z
" transform="scale(0.015625)"/>
      </defs>
      <use xlink:href="#DejaVuSans-69"/>
      <use xlink:href="#DejaVuSans-64" x="27.783203"/>
      <use xlink:href="#DejaVuSans-78" x="91.259766"/>
      <use xlink:href="#DejaVuSans-20" x="150.439453"/>
      <use xlink:href="#DejaVuSans-30" x="182.226562"/>
     </g>
    </g>
    <g id="line2d_19">
     <path d="M 353.134063 173.787375 
L 363.134063 173.787375 
L 373.134063 173.787375 
" style="fill: none; stroke: #ff7f0e; stroke-width: 1.5; stroke-linecap: square"/>
    </g>
    <g id="text_19">
     <!-- idx 1 -->
     <g transform="translate(381.134063 177.287375)scale(0.1 -0.1)">
      <use xlink:href="#DejaVuSans-69"/>
      <use xlink:href="#DejaVuSans-64" x="27.783203"/>
      <use xlink:href="#DejaVuSans-78" x="91.259766"/>
      <use xlink:href="#DejaVuSans-20" x="150.439453"/>
      <use xlink:href="#DejaVuSans-31" x="182.226562"/>
     </g>
    </g>
    <g id="line2d_20">
     <path d="M 353.134063 188.4655 
L 363.134063 188.4655 
L 373.134063 188.4655 
" style="fill: none; stroke: #2ca02c; stroke-width: 1.5; stroke-linecap: square"/>
    </g>
    <g id="text_20">
     <!-- idx 2 -->
     <g transform="translate(381.134063 191.9655)scale(0.1 -0.1)">
      <use xlink:href="#DejaVuSans-69"/>
      <use xlink:href="#DejaVuSans-64" x="27.783203"/>
      <use xlink:href="#DejaVuSans-78" x="91.259766"/>
      <use xlink:href="#DejaVuSans-20" x="150.439453"/>
      <use xlink:href="#DejaVuSans-32" x="182.226562"/>
     </g>
    </g>
   </g>
  </g>
 </g>
 <defs>
  <clipPath id="p87fb1f1673">
   <rect x="57.6" y="41.472" width="357.12" height="266.112"/>
  </clipPath>
 </defs>
</svg>
