<?xml version="1.0" encoding="utf-8" standalone="no"?>
<!DOCTYPE svg PUBLIC "-//W3C//DTD SVG 1.1//EN"
  "http://www.w3.org/Graphics/SVG/1.1/DTD/svg11.dtd">
<svg xmlns:xlink="http://www.w3.org/1999/xlink" width="460.8pt" height="345.6pt" viewBox="0 0 460.8 345.6" xmlns="http://www.w3.org/2000/svg" version="1.1">
 <metadata>
  <rdf:RDF xmlns:dc="http://purl.org/dc/elements/1.1/" xmlns:cc="http://creativecommons.org/ns#" xmlns:rdf="http://www.w3.org/1999/02/22-rdf-syntax-ns#">
   <cc:Work>
    <dc:type rdf:resource="http://purl.org/dc/dcmitype/StillImage"/>
    <dc:date>2024-02-07T11:37:35.687698</dc:date>
    <dc:format>image/svg+xml</dc:format>
    <dc:creator>
     <cc:Agent>
      <dc:title>Matplotlib v3.5.0, https://matplotlib.org/</dc:title>
     </cc:Agent>
    </dc:creator>
   </cc:Work>
  </rdf:RDF>
 </metadata>
 <defs>
  <style type="text/css">*{stroke-linejoin: round; stroke-linecap: butt}</style>
 </defs>
 <g id="figure_1">
  <g id="patch_1">
   <path d="M 0 345.6 
L 460.8 345.6 
L 460.8 0 
L 0 0 
z
" style="fill: #ffffff"/>
  </g>
  <g id="axes_1">
   <g id="patch_2">
    <path d="M 57.6 307.584 
L 414.72 307.584 
L 414.72 41.472 
L 57.6 41.472 
z
" style="fill: #ffffff"/>
   </g>
   <g id="matplotlib.axis_1">
    <g id="xtick_1">
     <g id="line2d_1">
      <defs>
       <path id="m6b1137acd3" d="M 0 0 
L 0 3.5 
" style="stroke: #000000; stroke-width: 0.8"/>
      </defs>
      <g>
       <use xlink:href="#m6b1137acd3" x="73.832727" y="307.584" style="stroke: #000000; stroke-width: 0.8"/>
      </g>
     </g>
     <g id="text_1">
      <!-- 0 -->
      <g transform="translate(70.651477 322.182437)scale(0.1 -0.1)">
       <defs>
        <path id="DejaVuSans-30" d="M 2034 4250 
Q 1547 4250 1301 3770 
Q 1056 3291 1056 2328 
Q 1056 1369 1301 889 
Q 1547 409 2034 409 
Q 2525 409 2770 889 
Q 3016 1369 3016 2328 
Q 3016 3291 2770 3770 
Q 2525 4250 2034 4250 
z
M 2034 4750 
Q 2819 4750 3233 4129 
Q 3647 3509 3647 2328 
Q 3647 1150 3233 529 
Q 2819 -91 2034 -91 
Q 1250 -91 836 529 
Q 422 1150 422 2328 
Q 422 3509 836 4129 
Q 1250 4750 2034 4750 
z
" transform="scale(0.015625)"/>
       </defs>
       <use xlink:href="#DejaVuSans-30"/>
      </g>
     </g>
    </g>
    <g id="xtick_2">
     <g id="line2d_2">
      <g>
       <use xlink:href="#m6b1137acd3" x="138.828632" y="307.584" style="stroke: #000000; stroke-width: 0.8"/>
      </g>
     </g>
     <g id="text_2">
      <!-- 200 -->
      <g transform="translate(129.284882 322.182437)scale(0.1 -0.1)">
       <defs>
        <path id="DejaVuSans-32" d="M 1228 531 
L 3431 531 
L 3431 0 
L 469 0 
L 469 531 
Q 828 903 1448 1529 
Q 2069 2156 2228 2338 
Q 2531 2678 2651 2914 
Q 2772 3150 2772 3378 
Q 2772 3750 2511 3984 
Q 2250 4219 1831 4219 
Q 1534 4219 1204 4116 
Q 875 4013 500 3803 
L 500 4441 
Q 881 4594 1212 4672 
Q 1544 4750 1819 4750 
Q 2544 4750 2975 4387 
Q 3406 4025 3406 3419 
Q 3406 3131 3298 2873 
Q 3191 2616 2906 2266 
Q 2828 2175 2409 1742 
Q 1991 1309 1228 531 
z
" transform="scale(0.015625)"/>
       </defs>
       <use xlink:href="#DejaVuSans-32"/>
       <use xlink:href="#DejaVuSans-30" x="63.623047"/>
       <use xlink:href="#DejaVuSans-30" x="127.246094"/>
      </g>
     </g>
    </g>
    <g id="xtick_3">
     <g id="line2d_3">
      <g>
       <use xlink:href="#m6b1137acd3" x="203.824537" y="307.584" style="stroke: #000000; stroke-width: 0.8"/>
      </g>
     </g>
     <g id="text_3">
      <!-- 400 -->
      <g transform="translate(194.280787 322.182437)scale(0.1 -0.1)">
       <defs>
        <path id="DejaVuSans-34" d="M 2419 4116 
L 825 1625 
L 2419 1625 
L 2419 4116 
z
M 2253 4666 
L 3047 4666 
L 3047 1625 
L 3713 1625 
L 3713 1100 
L 3047 1100 
L 3047 0 
L 2419 0 
L 2419 1100 
L 313 1100 
L 313 1709 
L 2253 4666 
z
" transform="scale(0.015625)"/>
       </defs>
       <use xlink:href="#DejaVuSans-34"/>
       <use xlink:href="#DejaVuSans-30" x="63.623047"/>
       <use xlink:href="#DejaVuSans-30" x="127.246094"/>
      </g>
     </g>
    </g>
    <g id="xtick_4">
     <g id="line2d_4">
      <g>
       <use xlink:href="#m6b1137acd3" x="268.820442" y="307.584" style="stroke: #000000; stroke-width: 0.8"/>
      </g>
     </g>
     <g id="text_4">
      <!-- 600 -->
      <g transform="translate(259.276692 322.182437)scale(0.1 -0.1)">
       <defs>
        <path id="DejaVuSans-36" d="M 2113 2584 
Q 1688 2584 1439 2293 
Q 1191 2003 1191 1497 
Q 1191 994 1439 701 
Q 1688 409 2113 409 
Q 2538 409 2786 701 
Q 3034 994 3034 1497 
Q 3034 2003 2786 2293 
Q 2538 2584 2113 2584 
z
M 3366 4563 
L 3366 3988 
Q 3128 4100 2886 4159 
Q 2644 4219 2406 4219 
Q 1781 4219 1451 3797 
Q 1122 3375 1075 2522 
Q 1259 2794 1537 2939 
Q 1816 3084 2150 3084 
Q 2853 3084 3261 2657 
Q 3669 2231 3669 1497 
Q 3669 778 3244 343 
Q 2819 -91 2113 -91 
Q 1303 -91 875 529 
Q 447 1150 447 2328 
Q 447 3434 972 4092 
Q 1497 4750 2381 4750 
Q 2619 4750 2861 4703 
Q 3103 4656 3366 4563 
z
" transform="scale(0.015625)"/>
       </defs>
       <use xlink:href="#DejaVuSans-36"/>
       <use xlink:href="#DejaVuSans-30" x="63.623047"/>
       <use xlink:href="#DejaVuSans-30" x="127.246094"/>
      </g>
     </g>
    </g>
    <g id="xtick_5">
     <g id="line2d_5">
      <g>
       <use xlink:href="#m6b1137acd3" x="333.816347" y="307.584" style="stroke: #000000; stroke-width: 0.8"/>
      </g>
     </g>
     <g id="text_5">
      <!-- 800 -->
      <g transform="translate(324.272597 322.182437)scale(0.1 -0.1)">
       <defs>
        <path id="DejaVuSans-38" d="M 2034 2216 
Q 1584 2216 1326 1975 
Q 1069 1734 1069 1313 
Q 1069 891 1326 650 
Q 1584 409 2034 409 
Q 2484 409 2743 651 
Q 3003 894 3003 1313 
Q 3003 1734 2745 1975 
Q 2488 2216 2034 2216 
z
M 1403 2484 
Q 997 2584 770 2862 
Q 544 3141 544 3541 
Q 544 4100 942 4425 
Q 1341 4750 2034 4750 
Q 2731 4750 3128 4425 
Q 3525 4100 3525 3541 
Q 3525 3141 3298 2862 
Q 3072 2584 2669 2484 
Q 3125 2378 3379 2068 
Q 3634 1759 3634 1313 
Q 3634 634 3220 271 
Q 2806 -91 2034 -91 
Q 1263 -91 848 271 
Q 434 634 434 1313 
Q 434 1759 690 2068 
Q 947 2378 1403 2484 
z
M 1172 3481 
Q 1172 3119 1398 2916 
Q 1625 2713 2034 2713 
Q 2441 2713 2670 2916 
Q 2900 3119 2900 3481 
Q 2900 3844 2670 4047 
Q 2441 4250 2034 4250 
Q 1625 4250 1398 4047 
Q 1172 3844 1172 3481 
z
" transform="scale(0.015625)"/>
       </defs>
       <use xlink:href="#DejaVuSans-38"/>
       <use xlink:href="#DejaVuSans-30" x="63.623047"/>
       <use xlink:href="#DejaVuSans-30" x="127.246094"/>
      </g>
     </g>
    </g>
    <g id="xtick_6">
     <g id="line2d_6">
      <g>
       <use xlink:href="#m6b1137acd3" x="398.812252" y="307.584" style="stroke: #000000; stroke-width: 0.8"/>
      </g>
     </g>
     <g id="text_6">
      <!-- 1000 -->
      <g transform="translate(386.087252 322.182437)scale(0.1 -0.1)">
       <defs>
        <path id="DejaVuSans-31" d="M 794 531 
L 1825 531 
L 1825 4091 
L 703 3866 
L 703 4441 
L 1819 4666 
L 2450 4666 
L 2450 531 
L 3481 531 
L 3481 0 
L 794 0 
L 794 531 
z
" transform="scale(0.015625)"/>
       </defs>
       <use xlink:href="#DejaVuSans-31"/>
       <use xlink:href="#DejaVuSans-30" x="63.623047"/>
       <use xlink:href="#DejaVuSans-30" x="127.246094"/>
       <use xlink:href="#DejaVuSans-30" x="190.869141"/>
      </g>
     </g>
    </g>
    <g id="text_7">
     <!-- Timestamps -->
     <g transform="translate(190.392422 339.659781)scale(0.15 -0.15)">
      <defs>
       <path id="DejaVuSans-54" d="M -19 4666 
L 3928 4666 
L 3928 4134 
L 2272 4134 
L 2272 0 
L 1638 0 
L 1638 4134 
L -19 4134 
L -19 4666 
z
" transform="scale(0.015625)"/>
       <path id="DejaVuSans-69" d="M 603 3500 
L 1178 3500 
L 1178 0 
L 603 0 
L 603 3500 
z
M 603 4863 
L 1178 4863 
L 1178 4134 
L 603 4134 
L 603 4863 
z
" transform="scale(0.015625)"/>
       <path id="DejaVuSans-6d" d="M 3328 2828 
Q 3544 3216 3844 3400 
Q 4144 3584 4550 3584 
Q 5097 3584 5394 3201 
Q 5691 2819 5691 2113 
L 5691 0 
L 5113 0 
L 5113 2094 
Q 5113 2597 4934 2840 
Q 4756 3084 4391 3084 
Q 3944 3084 3684 2787 
Q 3425 2491 3425 1978 
L 3425 0 
L 2847 0 
L 2847 2094 
Q 2847 2600 2669 2842 
Q 2491 3084 2119 3084 
Q 1678 3084 1418 2786 
Q 1159 2488 1159 1978 
L 1159 0 
L 581 0 
L 581 3500 
L 1159 3500 
L 1159 2956 
Q 1356 3278 1631 3431 
Q 1906 3584 2284 3584 
Q 2666 3584 2933 3390 
Q 3200 3197 3328 2828 
z
" transform="scale(0.015625)"/>
       <path id="DejaVuSans-65" d="M 3597 1894 
L 3597 1613 
L 953 1613 
Q 991 1019 1311 708 
Q 1631 397 2203 397 
Q 2534 397 2845 478 
Q 3156 559 3463 722 
L 3463 178 
Q 3153 47 2828 -22 
Q 2503 -91 2169 -91 
Q 1331 -91 842 396 
Q 353 884 353 1716 
Q 353 2575 817 3079 
Q 1281 3584 2069 3584 
Q 2775 3584 3186 3129 
Q 3597 2675 3597 1894 
z
M 3022 2063 
Q 3016 2534 2758 2815 
Q 2500 3097 2075 3097 
Q 1594 3097 1305 2825 
Q 1016 2553 972 2059 
L 3022 2063 
z
" transform="scale(0.015625)"/>
       <path id="DejaVuSans-73" d="M 2834 3397 
L 2834 2853 
Q 2591 2978 2328 3040 
Q 2066 3103 1784 3103 
Q 1356 3103 1142 2972 
Q 928 2841 928 2578 
Q 928 2378 1081 2264 
Q 1234 2150 1697 2047 
L 1894 2003 
Q 2506 1872 2764 1633 
Q 3022 1394 3022 966 
Q 3022 478 2636 193 
Q 2250 -91 1575 -91 
Q 1294 -91 989 -36 
Q 684 19 347 128 
L 347 722 
Q 666 556 975 473 
Q 1284 391 1588 391 
Q 1994 391 2212 530 
Q 2431 669 2431 922 
Q 2431 1156 2273 1281 
Q 2116 1406 1581 1522 
L 1381 1569 
Q 847 1681 609 1914 
Q 372 2147 372 2553 
Q 372 3047 722 3315 
Q 1072 3584 1716 3584 
Q 2034 3584 2315 3537 
Q 2597 3491 2834 3397 
z
" transform="scale(0.015625)"/>
       <path id="DejaVuSans-74" d="M 1172 4494 
L 1172 3500 
L 2356 3500 
L 2356 3053 
L 1172 3053 
L 1172 1153 
Q 1172 725 1289 603 
Q 1406 481 1766 481 
L 2356 481 
L 2356 0 
L 1766 0 
Q 1100 0 847 248 
Q 594 497 594 1153 
L 594 3053 
L 172 3053 
L 172 3500 
L 594 3500 
L 594 4494 
L 1172 4494 
z
" transform="scale(0.015625)"/>
       <path id="DejaVuSans-61" d="M 2194 1759 
Q 1497 1759 1228 1600 
Q 959 1441 959 1056 
Q 959 750 1161 570 
Q 1363 391 1709 391 
Q 2188 391 2477 730 
Q 2766 1069 2766 1631 
L 2766 1759 
L 2194 1759 
z
M 3341 1997 
L 3341 0 
L 2766 0 
L 2766 531 
Q 2569 213 2275 61 
Q 1981 -91 1556 -91 
Q 1019 -91 701 211 
Q 384 513 384 1019 
Q 384 1609 779 1909 
Q 1175 2209 1959 2209 
L 2766 2209 
L 2766 2266 
Q 2766 2663 2505 2880 
Q 2244 3097 1772 3097 
Q 1472 3097 1187 3025 
Q 903 2953 641 2809 
L 641 3341 
Q 956 3463 1253 3523 
Q 1550 3584 1831 3584 
Q 2591 3584 2966 3190 
Q 3341 2797 3341 1997 
z
" transform="scale(0.015625)"/>
       <path id="DejaVuSans-70" d="M 1159 525 
L 1159 -1331 
L 581 -1331 
L 581 3500 
L 1159 3500 
L 1159 2969 
Q 1341 3281 1617 3432 
Q 1894 3584 2278 3584 
Q 2916 3584 3314 3078 
Q 3713 2572 3713 1747 
Q 3713 922 3314 415 
Q 2916 -91 2278 -91 
Q 1894 -91 1617 61 
Q 1341 213 1159 525 
z
M 3116 1747 
Q 3116 2381 2855 2742 
Q 2594 3103 2138 3103 
Q 1681 3103 1420 2742 
Q 1159 2381 1159 1747 
Q 1159 1113 1420 752 
Q 1681 391 2138 391 
Q 2594 391 2855 752 
Q 3116 1113 3116 1747 
z
" transform="scale(0.015625)"/>
      </defs>
      <use xlink:href="#DejaVuSans-54"/>
      <use xlink:href="#DejaVuSans-69" x="57.958984"/>
      <use xlink:href="#DejaVuSans-6d" x="85.742188"/>
      <use xlink:href="#DejaVuSans-65" x="183.154297"/>
      <use xlink:href="#DejaVuSans-73" x="244.677734"/>
      <use xlink:href="#DejaVuSans-74" x="296.777344"/>
      <use xlink:href="#DejaVuSans-61" x="335.986328"/>
      <use xlink:href="#DejaVuSans-6d" x="397.265625"/>
      <use xlink:href="#DejaVuSans-70" x="494.677734"/>
      <use xlink:href="#DejaVuSans-73" x="558.154297"/>
     </g>
    </g>
   </g>
   <g id="matplotlib.axis_2">
    <g id="ytick_1">
     <g id="line2d_7">
      <defs>
       <path id="m3e89ac5906" d="M 0 0 
L -3.5 0 
" style="stroke: #000000; stroke-width: 0.8"/>
      </defs>
      <g>
       <use xlink:href="#m3e89ac5906" x="57.6" y="303.864358" style="stroke: #000000; stroke-width: 0.8"/>
      </g>
     </g>
     <g id="text_8">
      <!-- −0.8 -->
      <g transform="translate(26.317187 307.663577)scale(0.1 -0.1)">
       <defs>
        <path id="DejaVuSans-2212" d="M 678 2272 
L 4684 2272 
L 4684 1741 
L 678 1741 
L 678 2272 
z
" transform="scale(0.015625)"/>
        <path id="DejaVuSans-2e" d="M 684 794 
L 1344 794 
L 1344 0 
L 684 0 
L 684 794 
z
" transform="scale(0.015625)"/>
       </defs>
       <use xlink:href="#DejaVuSans-2212"/>
       <use xlink:href="#DejaVuSans-30" x="83.789062"/>
       <use xlink:href="#DejaVuSans-2e" x="147.412109"/>
       <use xlink:href="#DejaVuSans-38" x="179.199219"/>
      </g>
     </g>
    </g>
    <g id="ytick_2">
     <g id="line2d_8">
      <g>
       <use xlink:href="#m3e89ac5906" x="57.6" y="272.69854" style="stroke: #000000; stroke-width: 0.8"/>
      </g>
     </g>
     <g id="text_9">
      <!-- −0.6 -->
      <g transform="translate(26.317187 276.497759)scale(0.1 -0.1)">
       <use xlink:href="#DejaVuSans-2212"/>
       <use xlink:href="#DejaVuSans-30" x="83.789062"/>
       <use xlink:href="#DejaVuSans-2e" x="147.412109"/>
       <use xlink:href="#DejaVuSans-36" x="179.199219"/>
      </g>
     </g>
    </g>
    <g id="ytick_3">
     <g id="line2d_9">
      <g>
       <use xlink:href="#m3e89ac5906" x="57.6" y="241.532722" style="stroke: #000000; stroke-width: 0.8"/>
      </g>
     </g>
     <g id="text_10">
      <!-- −0.4 -->
      <g transform="translate(26.317187 245.331941)scale(0.1 -0.1)">
       <use xlink:href="#DejaVuSans-2212"/>
       <use xlink:href="#DejaVuSans-30" x="83.789062"/>
       <use xlink:href="#DejaVuSans-2e" x="147.412109"/>
       <use xlink:href="#DejaVuSans-34" x="179.199219"/>
      </g>
     </g>
    </g>
    <g id="ytick_4">
     <g id="line2d_10">
      <g>
       <use xlink:href="#m3e89ac5906" x="57.6" y="210.366904" style="stroke: #000000; stroke-width: 0.8"/>
      </g>
     </g>
     <g id="text_11">
      <!-- −0.2 -->
      <g transform="translate(26.317187 214.166122)scale(0.1 -0.1)">
       <use xlink:href="#DejaVuSans-2212"/>
       <use xlink:href="#DejaVuSans-30" x="83.789062"/>
       <use xlink:href="#DejaVuSans-2e" x="147.412109"/>
       <use xlink:href="#DejaVuSans-32" x="179.199219"/>
      </g>
     </g>
    </g>
    <g id="ytick_5">
     <g id="line2d_11">
      <g>
       <use xlink:href="#m3e89ac5906" x="57.6" y="179.201085" style="stroke: #000000; stroke-width: 0.8"/>
      </g>
     </g>
     <g id="text_12">
      <!-- 0.0 -->
      <g transform="translate(34.696875 183.000304)scale(0.1 -0.1)">
       <use xlink:href="#DejaVuSans-30"/>
       <use xlink:href="#DejaVuSans-2e" x="63.623047"/>
       <use xlink:href="#DejaVuSans-30" x="95.410156"/>
      </g>
     </g>
    </g>
    <g id="ytick_6">
     <g id="line2d_12">
      <g>
       <use xlink:href="#m3e89ac5906" x="57.6" y="148.035267" style="stroke: #000000; stroke-width: 0.8"/>
      </g>
     </g>
     <g id="text_13">
      <!-- 0.2 -->
      <g transform="translate(34.696875 151.834486)scale(0.1 -0.1)">
       <use xlink:href="#DejaVuSans-30"/>
       <use xlink:href="#DejaVuSans-2e" x="63.623047"/>
       <use xlink:href="#DejaVuSans-32" x="95.410156"/>
      </g>
     </g>
    </g>
    <g id="ytick_7">
     <g id="line2d_13">
      <g>
       <use xlink:href="#m3e89ac5906" x="57.6" y="116.869449" style="stroke: #000000; stroke-width: 0.8"/>
      </g>
     </g>
     <g id="text_14">
      <!-- 0.4 -->
      <g transform="translate(34.696875 120.668667)scale(0.1 -0.1)">
       <use xlink:href="#DejaVuSans-30"/>
       <use xlink:href="#DejaVuSans-2e" x="63.623047"/>
       <use xlink:href="#DejaVuSans-34" x="95.410156"/>
      </g>
     </g>
    </g>
    <g id="ytick_8">
     <g id="line2d_14">
      <g>
       <use xlink:href="#m3e89ac5906" x="57.6" y="85.70363" style="stroke: #000000; stroke-width: 0.8"/>
      </g>
     </g>
     <g id="text_15">
      <!-- 0.6 -->
      <g transform="translate(34.696875 89.502849)scale(0.1 -0.1)">
       <use xlink:href="#DejaVuSans-30"/>
       <use xlink:href="#DejaVuSans-2e" x="63.623047"/>
       <use xlink:href="#DejaVuSans-36" x="95.410156"/>
      </g>
     </g>
    </g>
    <g id="ytick_9">
     <g id="line2d_15">
      <g>
       <use xlink:href="#m3e89ac5906" x="57.6" y="54.537812" style="stroke: #000000; stroke-width: 0.8"/>
      </g>
     </g>
     <g id="text_16">
      <!-- 0.8 -->
      <g transform="translate(34.696875 58.337031)scale(0.1 -0.1)">
       <use xlink:href="#DejaVuSans-30"/>
       <use xlink:href="#DejaVuSans-2e" x="63.623047"/>
       <use xlink:href="#DejaVuSans-38" x="95.410156"/>
      </g>
     </g>
    </g>
    <g id="text_17">
     <!-- Magnitude -->
     <g transform="translate(19.197656 214.262766)rotate(-90)scale(0.15 -0.15)">
      <defs>
       <path id="DejaVuSans-4d" d="M 628 4666 
L 1569 4666 
L 2759 1491 
L 3956 4666 
L 4897 4666 
L 4897 0 
L 4281 0 
L 4281 4097 
L 3078 897 
L 2444 897 
L 1241 4097 
L 1241 0 
L 628 0 
L 628 4666 
z
" transform="scale(0.015625)"/>
       <path id="DejaVuSans-67" d="M 2906 1791 
Q 2906 2416 2648 2759 
Q 2391 3103 1925 3103 
Q 1463 3103 1205 2759 
Q 947 2416 947 1791 
Q 947 1169 1205 825 
Q 1463 481 1925 481 
Q 2391 481 2648 825 
Q 2906 1169 2906 1791 
z
M 3481 434 
Q 3481 -459 3084 -895 
Q 2688 -1331 1869 -1331 
Q 1566 -1331 1297 -1286 
Q 1028 -1241 775 -1147 
L 775 -588 
Q 1028 -725 1275 -790 
Q 1522 -856 1778 -856 
Q 2344 -856 2625 -561 
Q 2906 -266 2906 331 
L 2906 616 
Q 2728 306 2450 153 
Q 2172 0 1784 0 
Q 1141 0 747 490 
Q 353 981 353 1791 
Q 353 2603 747 3093 
Q 1141 3584 1784 3584 
Q 2172 3584 2450 3431 
Q 2728 3278 2906 2969 
L 2906 3500 
L 3481 3500 
L 3481 434 
z
" transform="scale(0.015625)"/>
       <path id="DejaVuSans-6e" d="M 3513 2113 
L 3513 0 
L 2938 0 
L 2938 2094 
Q 2938 2591 2744 2837 
Q 2550 3084 2163 3084 
Q 1697 3084 1428 2787 
Q 1159 2491 1159 1978 
L 1159 0 
L 581 0 
L 581 3500 
L 1159 3500 
L 1159 2956 
Q 1366 3272 1645 3428 
Q 1925 3584 2291 3584 
Q 2894 3584 3203 3211 
Q 3513 2838 3513 2113 
z
" transform="scale(0.015625)"/>
       <path id="DejaVuSans-75" d="M 544 1381 
L 544 3500 
L 1119 3500 
L 1119 1403 
Q 1119 906 1312 657 
Q 1506 409 1894 409 
Q 2359 409 2629 706 
Q 2900 1003 2900 1516 
L 2900 3500 
L 3475 3500 
L 3475 0 
L 2900 0 
L 2900 538 
Q 2691 219 2414 64 
Q 2138 -91 1772 -91 
Q 1169 -91 856 284 
Q 544 659 544 1381 
z
M 1991 3584 
L 1991 3584 
z
" transform="scale(0.015625)"/>
       <path id="DejaVuSans-64" d="M 2906 2969 
L 2906 4863 
L 3481 4863 
L 3481 0 
L 2906 0 
L 2906 525 
Q 2725 213 2448 61 
Q 2172 -91 1784 -91 
Q 1150 -91 751 415 
Q 353 922 353 1747 
Q 353 2572 751 3078 
Q 1150 3584 1784 3584 
Q 2172 3584 2448 3432 
Q 2725 3281 2906 2969 
z
M 947 1747 
Q 947 1113 1208 752 
Q 1469 391 1925 391 
Q 2381 391 2643 752 
Q 2906 1113 2906 1747 
Q 2906 2381 2643 2742 
Q 2381 3103 1925 3103 
Q 1469 3103 1208 2742 
Q 947 2381 947 1747 
z
" transform="scale(0.015625)"/>
      </defs>
      <use xlink:href="#DejaVuSans-4d"/>
      <use xlink:href="#DejaVuSans-61" x="86.279297"/>
      <use xlink:href="#DejaVuSans-67" x="147.558594"/>
      <use xlink:href="#DejaVuSans-6e" x="211.035156"/>
      <use xlink:href="#DejaVuSans-69" x="274.414062"/>
      <use xlink:href="#DejaVuSans-74" x="302.197266"/>
      <use xlink:href="#DejaVuSans-75" x="341.40625"/>
      <use xlink:href="#DejaVuSans-64" x="404.785156"/>
      <use xlink:href="#DejaVuSans-65" x="468.261719"/>
     </g>
    </g>
   </g>
   <g id="line2d_16">
    <path d="M 73.832727 219.794696 
L 78.70742 220.072963 
L 83.907093 220.273418 
L 86.181949 220.724414 
L 87.806847 220.81599 
L 89.431744 220.621046 
L 90.406683 220.396354 
L 90.731663 220.09801 
L 92.35656 219.3185 
L 93.331499 218.642687 
L 93.981458 218.142532 
L 94.631417 217.603192 
L 94.956396 217.043856 
L 96.906274 215.039241 
L 97.556233 214.262005 
L 97.881212 213.52062 
L 98.531171 212.706007 
L 98.856151 212.706007 
L 99.18113 211.842905 
L 99.831089 210.931503 
L 100.806028 209.513278 
L 101.131007 208.571259 
L 103.405864 204.767955 
L 103.730844 203.557483 
L 106.980639 198.400213 
L 107.305618 197.597868 
L 108.930516 196.177971 
L 109.580475 196.045649 
L 110.230434 196.128988 
L 110.880393 196.410948 
L 111.855332 197.173352 
L 112.83027 198.265473 
L 113.480229 199.166603 
L 113.805209 200.131309 
L 115.105127 202.145465 
L 115.430106 203.22509 
L 117.379984 206.890403 
L 117.704963 208.214255 
L 119.65484 212.091136 
L 120.304799 213.544117 
L 120.629779 215.021338 
L 123.879574 222.33743 
L 124.204554 223.971525 
L 124.529533 223.971525 
L 124.854513 225.673201 
L 126.47941 230.198773 
L 126.80439 232.029492 
L 127.454349 233.910851 
L 127.779328 235.138901 
L 128.429287 236.870963 
L 128.754267 238.369052 
L 129.729206 239.902116 
L 130.379165 240.557376 
L 131.029124 241.1437 
L 131.679083 241.931754 
L 132.004062 241.931754 
L 132.654021 242.397846 
L 133.62896 242.594412 
L 134.278919 242.5702 
L 136.228796 241.673559 
L 136.553776 241.460123 
L 136.878755 240.899059 
L 137.203735 240.899059 
L 137.528714 240.136309 
L 140.12855 236.640328 
L 140.45353 235.526963 
L 141.103489 234.547781 
L 142.728387 232.051549 
L 143.053366 231.022066 
L 144.028305 229.272932 
L 145.003243 227.412733 
L 145.328223 226.199565 
L 146.95312 222.933626 
L 147.2781 221.460295 
L 149.227977 216.971058 
L 149.877936 215.009004 
L 150.202916 213.055747 
L 150.527895 213.055747 
L 151.177854 211.020741 
L 151.502834 208.965218 
L 154.10267 201.205208 
L 154.427649 200.328569 
L 154.752629 198.743329 
L 156.377527 195.03736 
L 157.027486 193.761763 
L 157.352465 192.644826 
L 158.652383 190.791312 
L 159.627322 189.687138 
L 159.952301 189.375322 
L 160.277281 188.840269 
L 161.252219 188.123511 
L 162.552138 187.191297 
L 163.527076 186.866966 
L 164.177035 186.93791 
L 164.826994 187.215556 
L 165.151974 187.488434 
L 165.801933 188.675109 
L 167.101851 191.106879 
L 167.75181 192.565405 
L 168.07679 194.193493 
L 169.701687 198.913525 
L 170.026667 200.845909 
L 170.351646 200.845909 
L 170.676626 202.750475 
L 172.301523 207.28883 
L 173.926421 211.137903 
L 174.2514 211.593668 
L 174.57638 211.593668 
L 174.90136 212.454343 
L 176.201278 214.26056 
L 176.526257 215.205945 
L 176.851237 215.205945 
L 177.176216 216.204151 
L 178.476134 218.591418 
L 179.451073 220.549244 
L 179.776052 221.750856 
L 181.72593 225.007112 
L 182.700868 226.327176 
L 183.025848 227.162058 
L 184.325766 228.269002 
L 185.300704 228.854075 
L 186.275643 228.939996 
L 187.250581 228.761215 
L 187.900541 228.527081 
L 188.875479 227.828393 
L 189.200459 227.828393 
L 189.525438 227.28456 
L 190.825356 226.008548 
L 191.150336 225.110487 
L 192.450254 223.369468 
L 193.100213 222.088174 
L 193.750172 220.748387 
L 194.075152 219.045725 
L 194.400131 219.045725 
L 194.725111 217.334799 
L 195.05009 217.334799 
L 195.37507 215.478629 
L 196.999967 210.35275 
L 197.324947 208.35926 
L 200.249762 199.329082 
L 200.574742 197.332228 
L 201.224701 195.322263 
L 201.549681 195.322263 
L 201.87466 193.278487 
L 203.174578 189.445318 
L 203.499558 187.733548 
L 204.799476 184.661629 
L 205.449435 183.275851 
L 205.774414 182.117192 
L 206.099394 182.117192 
L 206.424373 181.172553 
L 207.074333 180.408307 
L 207.724292 180.025641 
L 208.374251 179.921104 
L 209.02421 180.160294 
L 209.674169 181.126821 
L 209.999148 181.606804 
L 210.324128 181.606804 
L 210.649107 182.911984 
L 211.624046 185.474987 
L 211.949025 186.4646 
L 212.274005 188.711623 
L 212.598984 188.711623 
L 212.923964 191.211816 
L 213.898903 195.470565 
L 215.198821 202.328615 
L 215.5238 204.241173 
L 215.84878 208.283037 
L 217.798657 221.45512 
L 218.123636 225.685142 
L 219.423554 232.807934 
L 220.723473 238.820549 
L 221.048452 241.652478 
L 222.67335 248.089927 
L 222.998329 249.266624 
L 223.323309 251.484104 
L 223.648288 251.484104 
L 223.973268 253.925031 
L 224.623227 256.233489 
L 226.573104 261.260841 
L 228.198002 263.985277 
L 228.522981 264.156179 
L 228.847961 264.195715 
L 229.17294 264.109619 
L 229.49792 263.896067 
L 229.822899 263.52679 
L 230.147879 262.563108 
L 230.472858 262.563108 
L 230.797838 261.897302 
L 231.122817 260.332474 
L 231.772776 258.245736 
L 232.422735 255.707411 
L 233.722654 249.07645 
L 234.047633 247.183239 
L 234.697592 242.236843 
L 235.022572 237.630483 
L 235.672531 233.351182 
L 236.32249 228.222149 
L 236.972449 222.938804 
L 237.297428 218.128055 
L 237.622408 218.128055 
L 237.947387 216.114824 
L 238.272367 213.294374 
L 238.597346 208.219421 
L 240.872203 190.403247 
L 241.197183 185.246484 
L 242.82208 173.614502 
L 243.472039 171.693309 
L 243.797019 189.459893 
L 244.771957 181.804681 
L 246.396855 170.437395 
L 246.721835 170.773562 
L 247.371794 170.488705 
L 247.696773 170.488705 
L 248.671712 171.402017 
L 249.321671 172.543362 
L 249.64665 174.010135 
L 250.296609 175.954738 
L 250.946568 178.159797 
L 252.246486 183.704458 
L 252.571466 186.964547 
L 253.546405 192.777172 
L 255.171302 202.932415 
L 255.496282 207.309901 
L 257.446159 221.771957 
L 257.771138 226.624949 
L 258.421097 229.762844 
L 259.396036 234.091674 
L 260.370975 239.627426 
L 260.695954 244.157931 
L 262.645831 257.677115 
L 263.29579 261.374191 
L 264.270729 265.911186 
L 265.895627 269.317752 
L 266.220606 269.931036 
L 266.545586 271.026278 
L 267.195545 271.6693 
L 267.520524 271.816624 
L 268.170483 271.689194 
L 268.495463 271.196252 
L 268.820442 271.196252 
L 269.145422 270.806345 
L 269.470401 269.665064 
L 269.795381 269.665064 
L 270.12036 268.211954 
L 271.095299 265.318475 
L 272.395217 260.272565 
L 272.720197 258.802378 
L 273.045176 255.63357 
L 273.370156 255.63357 
L 273.695135 252.249746 
L 274.995053 244.752989 
L 275.969992 238.247917 
L 276.294971 232.861768 
L 276.619951 230.781945 
L 277.919869 219.688122 
L 278.569828 214.215343 
L 278.894808 208.786159 
L 281.494644 187.544558 
L 282.144603 182.74663 
L 282.469582 179.066429 
L 283.7695 172.833502 
L 284.09448 170.098459 
L 284.744439 168.055938 
L 285.069419 180.130623 
L 285.394398 181.880069 
L 285.719378 178.246328 
L 286.044357 176.197268 
L 286.369337 175.980121 
L 287.019296 174.903769 
L 287.344275 173.766434 
L 288.319214 172.722879 
L 288.969173 172.528562 
L 289.619132 173.208363 
L 290.269091 174.291159 
L 290.59407 174.900024 
L 291.244029 176.913262 
L 292.218968 180.780354 
L 292.543948 182.195395 
L 292.868927 185.819189 
L 293.518886 189.972657 
L 294.818804 199.979796 
L 295.143784 205.495119 
L 296.443702 218.06808 
L 297.41864 228.6024 
L 297.74362 231.723548 
L 298.0686 237.697289 
L 299.368518 248.077687 
L 299.693497 252.723251 
L 300.668436 258.685293 
L 301.318395 261.533528 
L 301.643374 262.703218 
L 301.968354 264.457756 
L 302.293333 264.457756 
L 302.618313 265.534392 
L 302.943292 265.890982 
L 303.593251 266.150877 
L 303.918231 266.112118 
L 304.24321 265.934935 
L 304.56819 265.622544 
L 305.218149 263.918917 
L 305.868108 262.203395 
L 306.518067 259.968122 
L 306.843047 257.104067 
L 307.493006 253.342023 
L 308.467944 246.105484 
L 308.792924 243.280375 
L 309.442883 232.236333 
L 310.092842 225.520162 
L 310.742801 217.460181 
L 311.39276 208.818275 
L 311.71774 200.525333 
L 313.667617 176.779914 
L 314.642555 170.80829 
L 314.967535 169.04796 
L 315.292514 166.228949 
L 315.617494 177.20906 
L 315.942473 177.985046 
L 316.267453 174.095217 
L 316.592432 173.820358 
L 317.242391 172.447052 
L 318.21733 170.509881 
L 319.192269 169.276466 
L 319.517248 169.34578 
L 319.842228 169.619305 
L 320.817166 171.645055 
L 321.142146 172.516114 
L 321.467125 174.819728 
L 321.792105 174.819728 
L 322.117084 177.763255 
L 322.767043 181.318565 
L 323.741982 188.150038 
L 325.0419 199.688145 
L 325.36688 202.775807 
L 325.691859 209.622456 
L 326.016839 209.622456 
L 326.341818 216.712498 
L 327.316757 228.631955 
L 327.641736 231.755618 
L 327.966716 237.340241 
L 328.291695 237.340241 
L 328.616675 242.109152 
L 330.566552 255.160281 
L 330.891532 258.809559 
L 331.541491 261.68638 
L 332.516429 264.896464 
L 333.166388 266.328037 
L 333.491368 266.827359 
L 334.141327 267.280211 
L 334.466306 267.31835 
L 335.116265 266.713161 
L 335.766224 265.814598 
L 336.416183 264.629627 
L 337.066143 263.138792 
L 337.391122 261.422821 
L 338.366061 258.320714 
L 339.340999 254.165581 
L 340.315938 248.672288 
L 340.640917 244.564617 
L 341.940835 234.791592 
L 342.590794 228.660367 
L 342.915774 225.962531 
L 343.240753 219.90742 
L 344.215692 210.314346 
L 346.165569 193.17423 
L 346.490549 190.550904 
L 346.815528 185.467794 
L 347.140508 185.467794 
L 347.465487 180.594324 
L 348.440426 174.26115 
L 348.765405 173.153821 
L 349.090385 172.614758 
L 349.415364 191.339604 
L 350.390303 180.387885 
L 350.715283 179.991094 
L 352.015201 177.320681 
L 352.34018 176.074476 
L 352.990139 175.17648 
L 353.640098 174.608797 
L 353.965078 174.477943 
L 354.290057 174.496399 
L 354.940016 174.872516 
L 355.264996 175.182775 
L 356.889894 180.157293 
L 357.539853 183.088531 
L 358.189812 186.675658 
L 358.514791 191.175548 
L 359.48973 198.900112 
L 360.139689 204.658641 
L 360.464668 210.947672 
L 362.089566 227.651724 
L 362.414545 234.103759 
L 363.714464 244.902108 
L 364.689402 251.16977 
L 365.98932 258.361633 
L 366.639279 260.062705 
L 367.289238 261.094682 
L 367.939197 261.631521 
L 368.589156 261.352849 
L 368.914136 260.655444 
L 369.239115 260.655444 
L 369.564095 259.651978 
L 370.539034 257.607793 
L 370.864013 256.773215 
L 371.188993 254.954587 
L 371.513972 254.954587 
L 371.838952 252.756154 
L 372.81389 248.816944 
L 373.13887 245.660384 
L 374.438788 237.844983 
L 376.063686 225.135538 
L 376.388665 219.213005 
L 377.038624 213.009898 
L 377.363604 208.684413 
L 378.013563 202.71862 
L 378.663522 194.826182 
L 378.988501 191.207528 
L 379.313481 184.028835 
L 380.938378 173.585459 
L 381.588337 170.682783 
L 381.913317 180.3 
L 382.238296 176.503877 
L 382.888256 174.788155 
L 384.513153 169.796499 
L 384.838133 168.953435 
L 385.163112 167.337925 
L 385.813071 166.121806 
L 386.46303 165.283305 
L 387.112989 164.858999 
L 387.762948 164.857411 
L 388.087928 165.002319 
L 390.037805 169.364398 
L 390.687764 171.45174 
L 391.012744 173.974025 
L 391.987682 178.413555 
L 392.962621 184.296337 
L 393.937559 191.774194 
L 394.262539 194.607185 
L 394.587518 200.851384 
L 395.562457 211.533688 
L 398.487273 245.721407 
L 398.487273 245.721407 
" clip-path="url(#pe1251f39ce)" style="fill: none; stroke: #1f77b4; stroke-width: 1.5; stroke-linecap: square"/>
   </g>
   <g id="line2d_17">
    <path d="M 73.832727 280.537488 
L 76.107584 280.231524 
L 77.732482 280.247004 
L 82.282195 280.47859 
L 94.631417 279.94993 
L 96.256314 279.673511 
L 97.231253 279.469845 
L 98.531171 279.059486 
L 98.856151 279.059486 
L 99.50611 278.811294 
L 103.405864 277.581737 
L 104.055823 277.24328 
L 106.655659 276.366317 
L 108.930516 275.894961 
L 110.230434 275.908974 
L 112.505291 276.23939 
L 115.755086 277.063387 
L 117.379984 277.521381 
L 118.029943 277.822165 
L 120.304799 278.433167 
L 120.954758 278.664674 
L 122.579656 279.109002 
L 123.879574 279.442764 
L 124.204554 279.654842 
L 124.529533 279.654842 
L 124.854513 279.891605 
L 126.47941 280.447003 
L 126.80439 280.714654 
L 128.429287 281.417504 
L 129.079247 281.705918 
L 131.679083 282.16116 
L 132.329042 282.259976 
L 134.603898 282.358404 
L 137.528714 282.197628 
L 138.178673 282.305152 
L 140.778509 282.213196 
L 143.053366 281.665417 
L 146.628141 280.675152 
L 149.877936 279.397465 
L 150.202916 279.171673 
L 150.527895 279.171673 
L 153.452711 277.964525 
L 158.977363 275.664884 
L 160.92724 275.161451 
L 162.227158 274.933238 
L 164.502015 274.739465 
L 165.476953 274.805047 
L 167.101851 275.168952 
L 168.401769 275.648665 
L 174.2514 277.908625 
L 174.57638 277.908625 
L 175.551319 278.242393 
L 177.176216 278.801381 
L 182.375889 280.529987 
L 184.325766 280.77367 
L 185.300704 280.755858 
L 190.825356 280.474871 
L 191.475315 280.275522 
L 192.775233 279.906766 
L 194.725111 279.29032 
L 195.05009 279.29032 
L 195.700049 278.926349 
L 196.999967 278.433813 
L 197.649926 278.135861 
L 200.249762 277.133104 
L 200.899722 276.668565 
L 201.224701 276.483278 
L 201.549681 276.483278 
L 202.19964 275.972891 
L 203.174578 275.551252 
L 203.499558 275.260196 
L 207.074333 273.864481 
L 209.02421 273.736027 
L 210.649107 273.949724 
L 211.949025 274.28498 
L 212.274005 274.565216 
L 212.598984 274.565216 
L 213.248943 275.062363 
L 214.548862 275.878315 
L 215.5238 276.54304 
L 215.84878 276.99886 
L 217.798657 278.648362 
L 218.123636 279.225834 
L 219.098575 280.242996 
L 220.723473 281.897119 
L 221.048452 282.652507 
L 222.34837 283.941857 
L 222.998329 284.533257 
L 223.323309 285.065538 
L 223.648288 285.065538 
L 223.973268 285.448668 
L 224.948206 285.678904 
L 225.598165 285.761646 
L 227.223063 285.450224 
L 227.548043 285.396645 
L 228.198002 285.089148 
L 229.49792 284.80774 
L 229.822899 284.77145 
L 230.147879 284.594776 
L 230.797838 284.498768 
L 231.447797 284.131653 
L 234.697592 282.680002 
L 235.022572 282.24555 
L 235.672531 281.971661 
L 236.32249 281.539874 
L 236.647469 281.328229 
L 237.297428 280.387564 
L 237.622408 280.387564 
L 237.947387 280.260397 
L 238.272367 279.947599 
L 238.597346 279.42609 
L 240.872203 277.357924 
L 241.197183 276.670931 
L 242.172121 275.85898 
L 242.82208 275.451854 
L 243.14706 275.646181 
L 243.472039 276.051248 
L 243.797019 270.81875 
L 244.771957 273.485356 
L 246.396855 277.419847 
L 246.721835 279.192819 
L 247.046814 279.585498 
L 247.371794 280.401581 
L 247.696773 280.401581 
L 248.021753 281.151504 
L 249.321671 282.380384 
L 249.64665 282.926722 
L 249.97163 283.189522 
L 250.296609 283.896048 
L 250.621589 284.12409 
L 251.271548 285.151273 
L 251.596527 285.618491 
L 252.246486 286.177491 
L 252.571466 286.64577 
L 252.896446 286.789628 
L 253.221425 286.762466 
L 254.196364 287.002229 
L 255.496282 286.706274 
L 255.821261 286.502902 
L 256.7962 286.394197 
L 257.121179 286.611001 
L 257.446159 286.692971 
L 258.096118 287.401947 
L 258.746077 288.033475 
L 259.721016 288.442961 
L 261.020934 289.08604 
L 262.645831 289.548239 
L 264.270729 289.562805 
L 264.920688 289.471504 
L 266.545586 288.869661 
L 267.845504 288.338332 
L 268.170483 288.282204 
L 268.495463 288.010688 
L 269.145422 287.931688 
L 270.12036 287.71723 
L 271.420278 287.701064 
L 272.070238 287.683125 
L 274.020115 287.257796 
L 275.320033 286.790959 
L 275.969992 286.476771 
L 276.294971 286.118555 
L 276.619951 286.009911 
L 277.594889 285.428202 
L 278.569828 284.830438 
L 278.894808 284.353116 
L 280.194726 283.355478 
L 282.469582 281.391807 
L 283.119541 281.33523 
L 283.7695 281.115398 
L 284.09448 280.882446 
L 284.744439 280.913439 
L 285.069419 276.233746 
L 285.719378 278.052053 
L 286.044357 279.555247 
L 286.369337 281.750006 
L 287.019296 282.5882 
L 287.344275 283.489739 
L 288.319214 284.615674 
L 288.969173 285.318816 
L 289.294152 285.909189 
L 290.91905 286.960171 
L 291.569009 288.049661 
L 291.893989 288.391103 
L 292.543948 288.697305 
L 294.818804 287.378012 
L 295.793743 286.455896 
L 296.768681 286.418878 
L 297.74362 287.193769 
L 298.0686 287.678574 
L 300.668436 289.364577 
L 303.268272 290.094591 
L 304.56819 290.130877 
L 306.193088 289.764319 
L 306.518067 289.618827 
L 307.168026 289.184084 
L 308.467944 288.652752 
L 308.792924 288.441272 
L 309.442883 287.560917 
L 310.092842 287.080431 
L 310.417821 286.545429 
L 310.742801 286.258475 
L 311.39276 285.303356 
L 311.71774 284.303033 
L 312.367699 283.106696 
L 313.342637 281.200075 
L 313.992596 280.990243 
L 315.292514 280.224475 
L 315.617494 275.25162 
L 315.942473 275.682686 
L 316.267453 276.548566 
L 316.917412 281.395074 
L 317.892351 282.803384 
L 318.867289 284.251108 
L 319.192269 284.969944 
L 319.842228 285.69061 
L 320.492187 286.101665 
L 321.142146 286.598919 
L 321.467125 287.520624 
L 321.792105 287.520624 
L 322.117084 288.298373 
L 322.442064 288.579451 
L 323.417002 288.678439 
L 324.391941 288.497163 
L 325.0419 288.341547 
L 325.36688 288.368671 
L 325.691859 288.204154 
L 326.341818 288.21807 
L 327.316757 288.801428 
L 327.966716 289.170215 
L 328.291695 289.170215 
L 328.616675 289.360968 
L 330.241572 289.515014 
L 330.566552 289.481787 
L 331.86647 288.94562 
L 332.841409 288.517625 
L 334.141327 287.963888 
L 334.466306 287.832205 
L 334.791286 287.545653 
L 336.091204 286.986916 
L 338.69104 285.369658 
L 340.640917 284.447938 
L 342.265815 283.517298 
L 342.915774 283.256802 
L 343.565733 282.576015 
L 345.190631 281.704442 
L 346.490549 281.246915 
L 346.815528 281.03768 
L 347.140508 281.03768 
L 347.790467 280.796322 
L 348.115446 280.723504 
L 348.440426 280.869643 
L 348.765405 281.171299 
L 349.090385 281.65374 
L 349.415364 279.178391 
L 350.065324 282.135862 
L 350.390303 283.271498 
L 351.040262 287.6237 
L 351.365242 289.280404 
L 352.015201 290.145902 
L 352.34018 291.121105 
L 353.640098 292.765607 
L 354.290057 293.382945 
L 354.940016 293.90556 
L 355.914955 295.431188 
L 356.564914 295.443731 
L 357.214873 295.43812 
L 357.864832 295.156901 
L 358.189812 295.027827 
L 358.514791 294.478553 
L 359.814709 293.735279 
L 360.139689 293.708747 
L 360.464668 293.488046 
L 361.114627 293.596029 
L 361.439607 293.775963 
L 362.089566 294.460836 
L 362.414545 294.882837 
L 363.064505 295.116176 
L 363.714464 295.041114 
L 365.014382 294.818335 
L 365.98932 294.49379 
L 366.639279 294.23933 
L 368.264177 293.981934 
L 369.239115 294.006602 
L 370.539034 293.66251 
L 370.864013 293.518875 
L 371.188993 293.213286 
L 371.513972 293.213286 
L 372.163931 292.655214 
L 372.81389 292.214554 
L 373.13887 291.753958 
L 374.438788 290.559618 
L 375.738706 289.156117 
L 376.063686 288.782308 
L 376.388665 287.942059 
L 377.038624 286.9418 
L 377.363604 286.222203 
L 378.013563 285.354451 
L 379.313481 282.203128 
L 380.613399 281.606098 
L 381.588337 280.909471 
L 381.913317 276.23122 
L 382.238296 277.659628 
L 382.563276 279.839038 
L 383.213235 280.463685 
L 384.838133 282.320912 
L 385.163112 283.169936 
L 387.762948 285.81421 
L 388.087928 286.107203 
L 388.412907 286.554662 
L 389.062867 286.967233 
L 389.387846 287.127864 
L 389.712826 287.462613 
L 390.037805 288.036106 
L 391.012744 288.686423 
L 391.337723 288.745747 
L 392.637641 288.136231 
L 394.262539 286.551764 
L 394.587518 285.756058 
L 394.912498 285.452806 
L 395.887437 284.158969 
L 397.187355 283.099588 
L 397.837314 282.960698 
L 398.487273 282.575579 
L 398.487273 282.575579 
" clip-path="url(#pe1251f39ce)" style="fill: none; stroke: #ff7f0e; stroke-width: 1.5; stroke-linecap: square"/>
   </g>
   <g id="line2d_18">
    <path d="M 73.832727 67.99947 
L 76.432563 67.770679 
L 80.332318 68.004938 
L 81.307256 68.090206 
L 90.406683 67.941185 
L 91.056642 67.744279 
L 93.006519 67.250394 
L 94.631417 66.69481 
L 95.281376 66.296842 
L 97.231253 65.295185 
L 97.556233 65.090187 
L 97.881212 64.731333 
L 98.531171 64.360218 
L 98.856151 64.360218 
L 99.18113 63.954761 
L 100.156069 63.345687 
L 103.405864 61.089714 
L 103.730844 60.643735 
L 106.655659 58.967678 
L 108.605536 58.271396 
L 109.255495 58.159951 
L 110.555414 58.231468 
L 112.180311 58.601582 
L 113.480229 59.081654 
L 114.130188 59.49365 
L 115.105127 59.931089 
L 115.755086 60.457747 
L 117.379984 61.518735 
L 117.704963 62.012807 
L 119.65484 63.490705 
L 120.304799 64.065286 
L 120.629779 64.662766 
L 121.929697 65.889566 
L 123.879574 67.964549 
L 124.204554 68.804726 
L 124.529533 68.804726 
L 124.854513 69.727471 
L 126.47941 72.284237 
L 126.80439 73.433094 
L 127.454349 74.645886 
L 127.779328 75.478637 
L 128.104308 75.970774 
L 128.429287 76.689119 
L 128.754267 77.752042 
L 129.729206 78.878765 
L 130.379165 79.378374 
L 131.354103 80.101971 
L 131.679083 80.475237 
L 132.004062 80.475237 
L 132.654021 80.904723 
L 133.953939 81.08107 
L 134.603898 81.005524 
L 136.228796 80.393856 
L 136.553776 80.240476 
L 136.878755 79.852237 
L 137.203735 79.852237 
L 137.528714 79.39471 
L 138.828632 78.483089 
L 140.12855 77.405203 
L 140.45353 76.750642 
L 140.778509 76.516933 
L 141.753448 75.539068 
L 142.728387 74.504023 
L 143.053366 73.852373 
L 144.678264 72.036104 
L 145.003243 71.664746 
L 145.328223 71.016534 
L 146.95312 69.215287 
L 147.2781 68.447338 
L 148.902998 66.587118 
L 149.227977 66.259282 
L 150.202916 64.560565 
L 150.527895 64.560565 
L 151.177854 63.7931 
L 151.502834 63.0711 
L 154.10267 60.48378 
L 154.427649 60.218993 
L 154.752629 59.749985 
L 156.052547 58.890172 
L 158.977363 57.331222 
L 160.60226 56.849945 
L 162.227158 56.51721 
L 164.177035 56.321851 
L 165.476953 56.475741 
L 166.776871 56.887116 
L 167.75181 57.298777 
L 168.401769 57.841397 
L 169.701687 58.795768 
L 170.026667 59.333534 
L 170.351646 59.333534 
L 170.676626 59.884179 
L 173.276462 62.126278 
L 173.601441 62.60593 
L 174.2514 63.053568 
L 174.57638 63.053568 
L 175.226339 63.63619 
L 176.201278 64.275632 
L 176.526257 64.719091 
L 176.851237 64.719091 
L 177.176216 65.213076 
L 178.801114 66.753697 
L 179.451073 67.422189 
L 179.776052 68.05014 
L 182.375889 70.420295 
L 182.700868 70.650871 
L 183.025848 71.165348 
L 184.650745 71.802238 
L 185.625684 71.957352 
L 187.250581 71.820153 
L 188.22552 71.559035 
L 189.200459 71.364304 
L 189.850418 70.926517 
L 190.825356 70.410491 
L 191.150336 69.885493 
L 191.800295 69.429557 
L 193.750172 67.572328 
L 194.075152 66.778189 
L 194.400131 66.778189 
L 194.725111 66.016843 
L 195.05009 66.016843 
L 195.37507 65.203648 
L 198.299885 61.469818 
L 200.249762 59.67329 
L 200.574742 59.122805 
L 201.224701 58.540432 
L 201.549681 58.540432 
L 201.87466 58.018856 
L 202.849599 57.351499 
L 203.174578 57.158417 
L 203.499558 56.797834 
L 205.124455 56.084074 
L 206.749353 55.475309 
L 208.049271 55.354894 
L 210.324128 55.410968 
L 211.949025 55.957407 
L 212.274005 56.327439 
L 212.598984 56.327439 
L 213.248943 57.073234 
L 213.898903 57.736842 
L 214.873841 59.0325 
L 215.5238 60.120222 
L 215.84878 61.419299 
L 216.823718 63.899504 
L 217.798657 66.917721 
L 218.123636 69.123873 
L 220.723473 78.296399 
L 221.048452 80.812354 
L 222.998329 88.213904 
L 223.323309 90.597544 
L 223.648288 90.597544 
L 223.973268 93.116879 
L 224.623227 95.384682 
L 226.248124 99.680234 
L 227.873022 102.353547 
L 228.522981 102.566832 
L 229.17294 102.344258 
L 229.822899 101.568728 
L 230.147879 100.298313 
L 230.472858 100.298313 
L 230.797838 99.473807 
L 231.122817 97.576468 
L 232.097756 93.945517 
L 233.397674 88.00713 
L 234.697592 81.21474 
L 235.022572 77.956094 
L 235.672531 75.332516 
L 235.99751 73.554197 
L 236.647469 71.181437 
L 236.972449 69.568295 
L 237.297428 67.269443 
L 237.622408 67.269443 
L 237.947387 66.4753 
L 238.272367 65.312985 
L 238.597346 63.461756 
L 239.572285 61.131608 
L 241.522162 57.437481 
L 242.172121 56.977909 
L 242.82208 56.778488 
L 243.14706 56.990067 
L 243.472039 57.355347 
L 243.797019 53.568 
L 245.096937 55.697948 
L 246.071876 57.607411 
L 246.396855 58.540478 
L 246.721835 59.981363 
L 247.046814 60.322886 
L 247.371794 61.026354 
L 247.696773 61.026354 
L 248.021753 61.653134 
L 249.97163 63.226494 
L 250.296609 63.827231 
L 250.621589 64.010344 
L 251.596527 65.37779 
L 252.246486 65.982368 
L 252.571466 66.60411 
L 254.521343 68.345076 
L 255.171302 69.111261 
L 255.496282 69.952591 
L 256.146241 71.033251 
L 256.47122 71.673447 
L 257.121179 73.611241 
L 257.446159 74.721797 
L 257.771138 77.271777 
L 258.746077 80.463767 
L 259.396036 82.40082 
L 260.045995 84.866021 
L 260.370975 86.3517 
L 260.695954 89.691631 
L 261.995872 97.757134 
L 263.29579 106.05499 
L 264.595708 112.429643 
L 266.870565 117.652455 
L 267.520524 117.7424 
L 268.170483 117.314374 
L 268.495463 116.113273 
L 268.820442 116.113273 
L 269.145422 115.41361 
L 269.470401 113.630568 
L 269.795381 113.630568 
L 270.12036 111.495743 
L 271.420278 106.429575 
L 272.395217 102.044423 
L 272.720197 100.490068 
L 273.045176 97.288329 
L 273.370156 97.288329 
L 273.695135 94.061362 
L 275.969992 82.826248 
L 276.294971 79.341721 
L 276.619951 78.136746 
L 276.94493 76.419373 
L 277.26991 75.30006 
L 277.919869 72.457648 
L 278.569828 70.117849 
L 278.894808 68.068344 
L 279.869746 65.520752 
L 280.844685 63.509046 
L 281.494644 62.462144 
L 282.144603 61.663183 
L 282.469582 61.558615 
L 283.444521 61.520856 
L 284.09448 61.469385 
L 284.744439 61.672004 
L 285.069419 57.272799 
L 285.719378 58.742458 
L 286.044357 60.025866 
L 286.369337 61.914915 
L 287.019296 62.687834 
L 287.344275 63.541875 
L 288.319214 64.621373 
L 288.969173 65.283546 
L 289.294152 65.818651 
L 290.91905 66.68696 
L 291.569009 67.695442 
L 292.218968 68.204784 
L 292.543948 68.366435 
L 293.843866 68.402351 
L 294.818804 68.979903 
L 295.468763 70.371803 
L 295.793743 70.947714 
L 296.443702 72.976841 
L 297.093661 76.230723 
L 297.74362 79.895093 
L 298.0686 83.84106 
L 299.368518 92.209816 
L 299.693497 96.53642 
L 300.993415 104.671473 
L 301.643374 107.755188 
L 301.968354 110.042558 
L 302.293333 110.042558 
L 302.618313 111.63459 
L 303.268272 112.565631 
L 303.593251 112.728005 
L 303.918231 112.67211 
L 304.56819 112.054803 
L 305.218149 109.747798 
L 305.868108 107.424606 
L 306.518067 104.586609 
L 306.843047 101.209199 
L 308.142965 92.983389 
L 308.792924 88.409404 
L 309.117903 83.583742 
L 309.442883 80.569842 
L 310.092842 76.734981 
L 310.417821 74.145349 
L 310.742801 72.628737 
L 312.042719 64.936021 
L 313.017658 61.983102 
L 313.342637 61.392497 
L 314.967535 61.169231 
L 315.292514 61.26589 
L 315.617494 56.510236 
L 315.942473 56.838765 
L 316.267453 57.627625 
L 316.917412 61.71372 
L 318.21733 63.526871 
L 318.867289 64.514376 
L 319.192269 65.195987 
L 319.842228 65.839346 
L 320.492187 66.125682 
L 321.142146 66.49031 
L 321.467125 67.26183 
L 321.792105 67.26183 
L 322.117084 67.942744 
L 322.442064 68.209935 
L 323.741982 68.640042 
L 324.391941 69.072391 
L 325.0419 69.878874 
L 325.36688 70.530123 
L 325.691859 72.076956 
L 326.016839 72.076956 
L 326.666798 76.122109 
L 327.641736 81.918866 
L 327.966716 85.343007 
L 328.291695 85.343007 
L 328.616675 88.702019 
L 329.916593 95.75993 
L 330.566552 99.50744 
L 330.891532 102.926737 
L 331.541491 105.680983 
L 332.516429 108.827403 
L 333.166388 110.086128 
L 333.491368 110.51666 
L 333.816347 110.687681 
L 334.141327 110.677893 
L 334.466306 110.518192 
L 335.116265 109.130131 
L 335.766224 107.575712 
L 336.416183 105.632943 
L 337.066143 103.402442 
L 337.391122 101.017659 
L 338.69104 95.842472 
L 339.990958 89.706823 
L 340.315938 88.033551 
L 340.640917 84.684317 
L 343.890713 67.540299 
L 344.540672 65.505718 
L 345.190631 63.958626 
L 346.165569 62.35362 
L 346.490549 61.981065 
L 346.815528 61.418442 
L 347.140508 61.418442 
L 347.465487 61.112195 
L 348.115446 61.023848 
L 348.765405 61.522655 
L 349.090385 61.971485 
L 349.415364 60.289773 
L 350.390303 63.224146 
L 351.040262 67.275996 
L 351.365242 68.907177 
L 352.015201 69.791637 
L 352.34018 70.818257 
L 353.640098 72.595675 
L 354.290057 73.262035 
L 354.940016 73.812005 
L 355.914955 75.434071 
L 356.889894 75.465477 
L 357.214873 75.439166 
L 357.539853 75.268754 
L 358.189812 75.225119 
L 358.514791 75.035701 
L 359.16475 75.302335 
L 359.814709 75.978047 
L 360.139689 76.62127 
L 360.789648 79.246311 
L 361.439607 82.094863 
L 362.089566 86.193385 
L 362.414545 90.397156 
L 364.039443 100.064033 
L 365.339361 106.775347 
L 365.664341 108.145505 
L 365.98932 110.470384 
L 366.964259 112.672112 
L 367.614218 113.373097 
L 367.939197 113.506663 
L 368.264177 113.420656 
L 368.589156 113.209113 
L 368.914136 112.361066 
L 369.239115 112.361066 
L 369.564095 111.042354 
L 370.539034 108.252673 
L 370.864013 107.11289 
L 371.188993 104.734123 
L 371.513972 104.734123 
L 371.838952 102.048444 
L 372.81389 97.565947 
L 373.13887 94.361727 
L 376.063686 78.381014 
L 376.388665 75.003425 
L 377.688583 68.757066 
L 378.988501 64.002476 
L 379.313481 62.36798 
L 379.96344 62.050996 
L 381.588337 61.448997 
L 381.913317 57.272216 
L 382.238296 58.447811 
L 382.563276 60.278124 
L 383.213235 60.885604 
L 384.838133 62.822395 
L 385.163112 63.734852 
L 387.112989 65.891779 
L 388.737887 67.246224 
L 389.387846 67.405964 
L 389.712826 67.619442 
L 390.037805 68.111547 
L 391.012744 68.438536 
L 391.337723 68.441897 
L 393.61258 67.337653 
L 394.262539 67.302925 
L 394.912498 67.974879 
L 395.237477 68.393355 
L 395.887437 69.858242 
L 396.537396 72.201791 
L 397.187355 75.181559 
L 397.837314 78.545828 
L 398.162293 81.774769 
L 398.487273 83.433272 
L 398.487273 83.433272 
" clip-path="url(#pe1251f39ce)" style="fill: none; stroke: #2ca02c; stroke-width: 1.5; stroke-linecap: square"/>
   </g>
   <g id="patch_3">
    <path d="M 57.6 307.584 
L 57.6 41.472 
" style="fill: none; stroke: #000000; stroke-width: 0.8; stroke-linejoin: miter; stroke-linecap: square"/>
   </g>
   <g id="patch_4">
    <path d="M 414.72 307.584 
L 414.72 41.472 
" style="fill: none; stroke: #000000; stroke-width: 0.8; stroke-linejoin: miter; stroke-linecap: square"/>
   </g>
   <g id="patch_5">
    <path d="M 57.6 307.584 
L 414.72 307.584 
" style="fill: none; stroke: #000000; stroke-width: 0.8; stroke-linejoin: miter; stroke-linecap: square"/>
   </g>
   <g id="patch_6">
    <path d="M 57.6 41.472 
L 414.72 41.472 
" style="fill: none; stroke: #000000; stroke-width: 0.8; stroke-linejoin: miter; stroke-linecap: square"/>
   </g>
   <g id="text_18">
    <!-- Change in rotation components for rotating  head up and down starting from centre moving up -->
    <g transform="translate(-121.288828 35.472)scale(0.15 -0.15)">
     <defs>
      <path id="DejaVuSans-43" d="M 4122 4306 
L 4122 3641 
Q 3803 3938 3442 4084 
Q 3081 4231 2675 4231 
Q 1875 4231 1450 3742 
Q 1025 3253 1025 2328 
Q 1025 1406 1450 917 
Q 1875 428 2675 428 
Q 3081 428 3442 575 
Q 3803 722 4122 1019 
L 4122 359 
Q 3791 134 3420 21 
Q 3050 -91 2638 -91 
Q 1578 -91 968 557 
Q 359 1206 359 2328 
Q 359 3453 968 4101 
Q 1578 4750 2638 4750 
Q 3056 4750 3426 4639 
Q 3797 4528 4122 4306 
z
" transform="scale(0.015625)"/>
      <path id="DejaVuSans-68" d="M 3513 2113 
L 3513 0 
L 2938 0 
L 2938 2094 
Q 2938 2591 2744 2837 
Q 2550 3084 2163 3084 
Q 1697 3084 1428 2787 
Q 1159 2491 1159 1978 
L 1159 0 
L 581 0 
L 581 4863 
L 1159 4863 
L 1159 2956 
Q 1366 3272 1645 3428 
Q 1925 3584 2291 3584 
Q 2894 3584 3203 3211 
Q 3513 2838 3513 2113 
z
" transform="scale(0.015625)"/>
      <path id="DejaVuSans-20" transform="scale(0.015625)"/>
      <path id="DejaVuSans-72" d="M 2631 2963 
Q 2534 3019 2420 3045 
Q 2306 3072 2169 3072 
Q 1681 3072 1420 2755 
Q 1159 2438 1159 1844 
L 1159 0 
L 581 0 
L 581 3500 
L 1159 3500 
L 1159 2956 
Q 1341 3275 1631 3429 
Q 1922 3584 2338 3584 
Q 2397 3584 2469 3576 
Q 2541 3569 2628 3553 
L 2631 2963 
z
" transform="scale(0.015625)"/>
      <path id="DejaVuSans-6f" d="M 1959 3097 
Q 1497 3097 1228 2736 
Q 959 2375 959 1747 
Q 959 1119 1226 758 
Q 1494 397 1959 397 
Q 2419 397 2687 759 
Q 2956 1122 2956 1747 
Q 2956 2369 2687 2733 
Q 2419 3097 1959 3097 
z
M 1959 3584 
Q 2709 3584 3137 3096 
Q 3566 2609 3566 1747 
Q 3566 888 3137 398 
Q 2709 -91 1959 -91 
Q 1206 -91 779 398 
Q 353 888 353 1747 
Q 353 2609 779 3096 
Q 1206 3584 1959 3584 
z
" transform="scale(0.015625)"/>
      <path id="DejaVuSans-63" d="M 3122 3366 
L 3122 2828 
Q 2878 2963 2633 3030 
Q 2388 3097 2138 3097 
Q 1578 3097 1268 2742 
Q 959 2388 959 1747 
Q 959 1106 1268 751 
Q 1578 397 2138 397 
Q 2388 397 2633 464 
Q 2878 531 3122 666 
L 3122 134 
Q 2881 22 2623 -34 
Q 2366 -91 2075 -91 
Q 1284 -91 818 406 
Q 353 903 353 1747 
Q 353 2603 823 3093 
Q 1294 3584 2113 3584 
Q 2378 3584 2631 3529 
Q 2884 3475 3122 3366 
z
" transform="scale(0.015625)"/>
      <path id="DejaVuSans-66" d="M 2375 4863 
L 2375 4384 
L 1825 4384 
Q 1516 4384 1395 4259 
Q 1275 4134 1275 3809 
L 1275 3500 
L 2222 3500 
L 2222 3053 
L 1275 3053 
L 1275 0 
L 697 0 
L 697 3053 
L 147 3053 
L 147 3500 
L 697 3500 
L 697 3744 
Q 697 4328 969 4595 
Q 1241 4863 1831 4863 
L 2375 4863 
z
" transform="scale(0.015625)"/>
      <path id="DejaVuSans-77" d="M 269 3500 
L 844 3500 
L 1563 769 
L 2278 3500 
L 2956 3500 
L 3675 769 
L 4391 3500 
L 4966 3500 
L 4050 0 
L 3372 0 
L 2619 2869 
L 1863 0 
L 1184 0 
L 269 3500 
z
" transform="scale(0.015625)"/>
      <path id="DejaVuSans-76" d="M 191 3500 
L 800 3500 
L 1894 563 
L 2988 3500 
L 3597 3500 
L 2284 0 
L 1503 0 
L 191 3500 
z
" transform="scale(0.015625)"/>
     </defs>
     <use xlink:href="#DejaVuSans-43"/>
     <use xlink:href="#DejaVuSans-68" x="69.824219"/>
     <use xlink:href="#DejaVuSans-61" x="133.203125"/>
     <use xlink:href="#DejaVuSans-6e" x="194.482422"/>
     <use xlink:href="#DejaVuSans-67" x="257.861328"/>
     <use xlink:href="#DejaVuSans-65" x="321.337891"/>
     <use xlink:href="#DejaVuSans-20" x="382.861328"/>
     <use xlink:href="#DejaVuSans-69" x="414.648438"/>
     <use xlink:href="#DejaVuSans-6e" x="442.431641"/>
     <use xlink:href="#DejaVuSans-20" x="505.810547"/>
     <use xlink:href="#DejaVuSans-72" x="537.597656"/>
     <use xlink:href="#DejaVuSans-6f" x="576.460938"/>
     <use xlink:href="#DejaVuSans-74" x="637.642578"/>
     <use xlink:href="#DejaVuSans-61" x="676.851562"/>
     <use xlink:href="#DejaVuSans-74" x="738.130859"/>
     <use xlink:href="#DejaVuSans-69" x="777.339844"/>
     <use xlink:href="#DejaVuSans-6f" x="805.123047"/>
     <use xlink:href="#DejaVuSans-6e" x="866.304688"/>
     <use xlink:href="#DejaVuSans-20" x="929.683594"/>
     <use xlink:href="#DejaVuSans-63" x="961.470703"/>
     <use xlink:href="#DejaVuSans-6f" x="1016.451172"/>
     <use xlink:href="#DejaVuSans-6d" x="1077.632812"/>
     <use xlink:href="#DejaVuSans-70" x="1175.044922"/>
     <use xlink:href="#DejaVuSans-6f" x="1238.521484"/>
     <use xlink:href="#DejaVuSans-6e" x="1299.703125"/>
     <use xlink:href="#DejaVuSans-65" x="1363.082031"/>
     <use xlink:href="#DejaVuSans-6e" x="1424.605469"/>
     <use xlink:href="#DejaVuSans-74" x="1487.984375"/>
     <use xlink:href="#DejaVuSans-73" x="1527.193359"/>
     <use xlink:href="#DejaVuSans-20" x="1579.292969"/>
     <use xlink:href="#DejaVuSans-66" x="1611.080078"/>
     <use xlink:href="#DejaVuSans-6f" x="1646.285156"/>
     <use xlink:href="#DejaVuSans-72" x="1707.466797"/>
     <use xlink:href="#DejaVuSans-20" x="1748.580078"/>
     <use xlink:href="#DejaVuSans-72" x="1780.367188"/>
     <use xlink:href="#DejaVuSans-6f" x="1819.230469"/>
     <use xlink:href="#DejaVuSans-74" x="1880.412109"/>
     <use xlink:href="#DejaVuSans-61" x="1919.621094"/>
     <use xlink:href="#DejaVuSans-74" x="1980.900391"/>
     <use xlink:href="#DejaVuSans-69" x="2020.109375"/>
     <use xlink:href="#DejaVuSans-6e" x="2047.892578"/>
     <use xlink:href="#DejaVuSans-67" x="2111.271484"/>
     <use xlink:href="#DejaVuSans-20" x="2174.748047"/>
     <use xlink:href="#DejaVuSans-20" x="2206.535156"/>
     <use xlink:href="#DejaVuSans-68" x="2238.322266"/>
     <use xlink:href="#DejaVuSans-65" x="2301.701172"/>
     <use xlink:href="#DejaVuSans-61" x="2363.224609"/>
     <use xlink:href="#DejaVuSans-64" x="2424.503906"/>
     <use xlink:href="#DejaVuSans-20" x="2487.980469"/>
     <use xlink:href="#DejaVuSans-75" x="2519.767578"/>
     <use xlink:href="#DejaVuSans-70" x="2583.146484"/>
     <use xlink:href="#DejaVuSans-20" x="2646.623047"/>
     <use xlink:href="#DejaVuSans-61" x="2678.410156"/>
     <use xlink:href="#DejaVuSans-6e" x="2739.689453"/>
     <use xlink:href="#DejaVuSans-64" x="2803.068359"/>
     <use xlink:href="#DejaVuSans-20" x="2866.544922"/>
     <use xlink:href="#DejaVuSans-64" x="2898.332031"/>
     <use xlink:href="#DejaVuSans-6f" x="2961.808594"/>
     <use xlink:href="#DejaVuSans-77" x="3022.990234"/>
     <use xlink:href="#DejaVuSans-6e" x="3104.777344"/>
     <use xlink:href="#DejaVuSans-20" x="3168.15625"/>
     <use xlink:href="#DejaVuSans-73" x="3199.943359"/>
     <use xlink:href="#DejaVuSans-74" x="3252.042969"/>
     <use xlink:href="#DejaVuSans-61" x="3291.251953"/>
     <use xlink:href="#DejaVuSans-72" x="3352.53125"/>
     <use xlink:href="#DejaVuSans-74" x="3393.644531"/>
     <use xlink:href="#DejaVuSans-69" x="3432.853516"/>
     <use xlink:href="#DejaVuSans-6e" x="3460.636719"/>
     <use xlink:href="#DejaVuSans-67" x="3524.015625"/>
     <use xlink:href="#DejaVuSans-20" x="3587.492188"/>
     <use xlink:href="#DejaVuSans-66" x="3619.279297"/>
     <use xlink:href="#DejaVuSans-72" x="3654.484375"/>
     <use xlink:href="#DejaVuSans-6f" x="3693.347656"/>
     <use xlink:href="#DejaVuSans-6d" x="3754.529297"/>
     <use xlink:href="#DejaVuSans-20" x="3851.941406"/>
     <use xlink:href="#DejaVuSans-63" x="3883.728516"/>
     <use xlink:href="#DejaVuSans-65" x="3938.708984"/>
     <use xlink:href="#DejaVuSans-6e" x="4000.232422"/>
     <use xlink:href="#DejaVuSans-74" x="4063.611328"/>
     <use xlink:href="#DejaVuSans-72" x="4102.820312"/>
     <use xlink:href="#DejaVuSans-65" x="4141.683594"/>
     <use xlink:href="#DejaVuSans-20" x="4203.207031"/>
     <use xlink:href="#DejaVuSans-6d" x="4234.994141"/>
     <use xlink:href="#DejaVuSans-6f" x="4332.40625"/>
     <use xlink:href="#DejaVuSans-76" x="4393.587891"/>
     <use xlink:href="#DejaVuSans-69" x="4452.767578"/>
     <use xlink:href="#DejaVuSans-6e" x="4480.550781"/>
     <use xlink:href="#DejaVuSans-67" x="4543.929688"/>
     <use xlink:href="#DejaVuSans-20" x="4607.40625"/>
     <use xlink:href="#DejaVuSans-75" x="4639.193359"/>
     <use xlink:href="#DejaVuSans-70" x="4702.572266"/>
    </g>
   </g>
   <g id="legend_1">
    <g id="patch_7">
     <path d="M 64.6 198.045187 
L 121.185937 198.045187 
Q 123.185937 198.045187 123.185937 196.045187 
L 123.185937 153.010812 
Q 123.185937 151.010812 121.185937 151.010812 
L 64.6 151.010812 
Q 62.6 151.010812 62.6 153.010812 
L 62.6 196.045187 
Q 62.6 198.045187 64.6 198.045187 
z
" style="fill: #ffffff; opacity: 0.8; stroke: #cccccc; stroke-linejoin: miter"/>
    </g>
    <g id="line2d_19">
     <path d="M 66.6 159.10925 
L 76.6 159.10925 
L 86.6 159.10925 
" style="fill: none; stroke: #1f77b4; stroke-width: 1.5; stroke-linecap: square"/>
    </g>
    <g id="text_19">
     <!-- idx 0 -->
     <g transform="translate(94.6 162.60925)scale(0.1 -0.1)">
      <defs>
       <path id="DejaVuSans-78" d="M 3513 3500 
L 2247 1797 
L 3578 0 
L 2900 0 
L 1881 1375 
L 863 0 
L 184 0 
L 1544 1831 
L 300 3500 
L 978 3500 
L 1906 2253 
L 2834 3500 
L 3513 3500 
z
" transform="scale(0.015625)"/>
      </defs>
      <use xlink:href="#DejaVuSans-69"/>
      <use xlink:href="#DejaVuSans-64" x="27.783203"/>
      <use xlink:href="#DejaVuSans-78" x="91.259766"/>
      <use xlink:href="#DejaVuSans-20" x="150.439453"/>
      <use xlink:href="#DejaVuSans-30" x="182.226562"/>
     </g>
    </g>
    <g id="line2d_20">
     <path d="M 66.6 173.787375 
L 76.6 173.787375 
L 86.6 173.787375 
" style="fill: none; stroke: #ff7f0e; stroke-width: 1.5; stroke-linecap: square"/>
    </g>
    <g id="text_20">
     <!-- idx 1 -->
     <g transform="translate(94.6 177.287375)scale(0.1 -0.1)">
      <use xlink:href="#DejaVuSans-69"/>
      <use xlink:href="#DejaVuSans-64" x="27.783203"/>
      <use xlink:href="#DejaVuSans-78" x="91.259766"/>
      <use xlink:href="#DejaVuSans-20" x="150.439453"/>
      <use xlink:href="#DejaVuSans-31" x="182.226562"/>
     </g>
    </g>
    <g id="line2d_21">
     <path d="M 66.6 188.4655 
L 76.6 188.4655 
L 86.6 188.4655 
" style="fill: none; stroke: #2ca02c; stroke-width: 1.5; stroke-linecap: square"/>
    </g>
    <g id="text_21">
     <!-- idx 2 -->
     <g transform="translate(94.6 191.9655)scale(0.1 -0.1)">
      <use xlink:href="#DejaVuSans-69"/>
      <use xlink:href="#DejaVuSans-64" x="27.783203"/>
      <use xlink:href="#DejaVuSans-78" x="91.259766"/>
      <use xlink:href="#DejaVuSans-20" x="150.439453"/>
      <use xlink:href="#DejaVuSans-32" x="182.226562"/>
     </g>
    </g>
   </g>
  </g>
 </g>
 <defs>
  <clipPath id="pe1251f39ce">
   <rect x="57.6" y="41.472" width="357.12" height="266.112"/>
  </clipPath>
 </defs>
</svg>
