<?xml version="1.0" encoding="utf-8" standalone="no"?>
<!DOCTYPE svg PUBLIC "-//W3C//DTD SVG 1.1//EN"
  "http://www.w3.org/Graphics/SVG/1.1/DTD/svg11.dtd">
<svg xmlns:xlink="http://www.w3.org/1999/xlink" width="460.8pt" height="345.6pt" viewBox="0 0 460.8 345.6" xmlns="http://www.w3.org/2000/svg" version="1.1">
 <metadata>
  <rdf:RDF xmlns:dc="http://purl.org/dc/elements/1.1/" xmlns:cc="http://creativecommons.org/ns#" xmlns:rdf="http://www.w3.org/1999/02/22-rdf-syntax-ns#">
   <cc:Work>
    <dc:type rdf:resource="http://purl.org/dc/dcmitype/StillImage"/>
    <dc:date>2024-02-07T11:43:31.827121</dc:date>
    <dc:format>image/svg+xml</dc:format>
    <dc:creator>
     <cc:Agent>
      <dc:title>Matplotlib v3.5.0, https://matplotlib.org/</dc:title>
     </cc:Agent>
    </dc:creator>
   </cc:Work>
  </rdf:RDF>
 </metadata>
 <defs>
  <style type="text/css">*{stroke-linejoin: round; stroke-linecap: butt}</style>
 </defs>
 <g id="figure_1">
  <g id="patch_1">
   <path d="M 0 345.6 
L 460.8 345.6 
L 460.8 0 
L 0 0 
z
" style="fill: #ffffff"/>
  </g>
  <g id="axes_1">
   <g id="patch_2">
    <path d="M 57.6 307.584 
L 414.72 307.584 
L 414.72 41.472 
L 57.6 41.472 
z
" style="fill: #ffffff"/>
   </g>
   <g id="matplotlib.axis_1">
    <g id="xtick_1">
     <g id="line2d_1">
      <defs>
       <path id="m6bb3dfcb2b" d="M 0 0 
L 0 3.5 
" style="stroke: #000000; stroke-width: 0.8"/>
      </defs>
      <g>
       <use xlink:href="#m6bb3dfcb2b" x="73.832727" y="307.584" style="stroke: #000000; stroke-width: 0.8"/>
      </g>
     </g>
     <g id="text_1">
      <!-- 0 -->
      <g transform="translate(70.651477 322.182437)scale(0.1 -0.1)">
       <defs>
        <path id="DejaVuSans-30" d="M 2034 4250 
Q 1547 4250 1301 3770 
Q 1056 3291 1056 2328 
Q 1056 1369 1301 889 
Q 1547 409 2034 409 
Q 2525 409 2770 889 
Q 3016 1369 3016 2328 
Q 3016 3291 2770 3770 
Q 2525 4250 2034 4250 
z
M 2034 4750 
Q 2819 4750 3233 4129 
Q 3647 3509 3647 2328 
Q 3647 1150 3233 529 
Q 2819 -91 2034 -91 
Q 1250 -91 836 529 
Q 422 1150 422 2328 
Q 422 3509 836 4129 
Q 1250 4750 2034 4750 
z
" transform="scale(0.015625)"/>
       </defs>
       <use xlink:href="#DejaVuSans-30"/>
      </g>
     </g>
    </g>
    <g id="xtick_2">
     <g id="line2d_2">
      <g>
       <use xlink:href="#m6bb3dfcb2b" x="138.828632" y="307.584" style="stroke: #000000; stroke-width: 0.8"/>
      </g>
     </g>
     <g id="text_2">
      <!-- 200 -->
      <g transform="translate(129.284882 322.182437)scale(0.1 -0.1)">
       <defs>
        <path id="DejaVuSans-32" d="M 1228 531 
L 3431 531 
L 3431 0 
L 469 0 
L 469 531 
Q 828 903 1448 1529 
Q 2069 2156 2228 2338 
Q 2531 2678 2651 2914 
Q 2772 3150 2772 3378 
Q 2772 3750 2511 3984 
Q 2250 4219 1831 4219 
Q 1534 4219 1204 4116 
Q 875 4013 500 3803 
L 500 4441 
Q 881 4594 1212 4672 
Q 1544 4750 1819 4750 
Q 2544 4750 2975 4387 
Q 3406 4025 3406 3419 
Q 3406 3131 3298 2873 
Q 3191 2616 2906 2266 
Q 2828 2175 2409 1742 
Q 1991 1309 1228 531 
z
" transform="scale(0.015625)"/>
       </defs>
       <use xlink:href="#DejaVuSans-32"/>
       <use xlink:href="#DejaVuSans-30" x="63.623047"/>
       <use xlink:href="#DejaVuSans-30" x="127.246094"/>
      </g>
     </g>
    </g>
    <g id="xtick_3">
     <g id="line2d_3">
      <g>
       <use xlink:href="#m6bb3dfcb2b" x="203.824537" y="307.584" style="stroke: #000000; stroke-width: 0.8"/>
      </g>
     </g>
     <g id="text_3">
      <!-- 400 -->
      <g transform="translate(194.280787 322.182437)scale(0.1 -0.1)">
       <defs>
        <path id="DejaVuSans-34" d="M 2419 4116 
L 825 1625 
L 2419 1625 
L 2419 4116 
z
M 2253 4666 
L 3047 4666 
L 3047 1625 
L 3713 1625 
L 3713 1100 
L 3047 1100 
L 3047 0 
L 2419 0 
L 2419 1100 
L 313 1100 
L 313 1709 
L 2253 4666 
z
" transform="scale(0.015625)"/>
       </defs>
       <use xlink:href="#DejaVuSans-34"/>
       <use xlink:href="#DejaVuSans-30" x="63.623047"/>
       <use xlink:href="#DejaVuSans-30" x="127.246094"/>
      </g>
     </g>
    </g>
    <g id="xtick_4">
     <g id="line2d_4">
      <g>
       <use xlink:href="#m6bb3dfcb2b" x="268.820442" y="307.584" style="stroke: #000000; stroke-width: 0.8"/>
      </g>
     </g>
     <g id="text_4">
      <!-- 600 -->
      <g transform="translate(259.276692 322.182437)scale(0.1 -0.1)">
       <defs>
        <path id="DejaVuSans-36" d="M 2113 2584 
Q 1688 2584 1439 2293 
Q 1191 2003 1191 1497 
Q 1191 994 1439 701 
Q 1688 409 2113 409 
Q 2538 409 2786 701 
Q 3034 994 3034 1497 
Q 3034 2003 2786 2293 
Q 2538 2584 2113 2584 
z
M 3366 4563 
L 3366 3988 
Q 3128 4100 2886 4159 
Q 2644 4219 2406 4219 
Q 1781 4219 1451 3797 
Q 1122 3375 1075 2522 
Q 1259 2794 1537 2939 
Q 1816 3084 2150 3084 
Q 2853 3084 3261 2657 
Q 3669 2231 3669 1497 
Q 3669 778 3244 343 
Q 2819 -91 2113 -91 
Q 1303 -91 875 529 
Q 447 1150 447 2328 
Q 447 3434 972 4092 
Q 1497 4750 2381 4750 
Q 2619 4750 2861 4703 
Q 3103 4656 3366 4563 
z
" transform="scale(0.015625)"/>
       </defs>
       <use xlink:href="#DejaVuSans-36"/>
       <use xlink:href="#DejaVuSans-30" x="63.623047"/>
       <use xlink:href="#DejaVuSans-30" x="127.246094"/>
      </g>
     </g>
    </g>
    <g id="xtick_5">
     <g id="line2d_5">
      <g>
       <use xlink:href="#m6bb3dfcb2b" x="333.816347" y="307.584" style="stroke: #000000; stroke-width: 0.8"/>
      </g>
     </g>
     <g id="text_5">
      <!-- 800 -->
      <g transform="translate(324.272597 322.182437)scale(0.1 -0.1)">
       <defs>
        <path id="DejaVuSans-38" d="M 2034 2216 
Q 1584 2216 1326 1975 
Q 1069 1734 1069 1313 
Q 1069 891 1326 650 
Q 1584 409 2034 409 
Q 2484 409 2743 651 
Q 3003 894 3003 1313 
Q 3003 1734 2745 1975 
Q 2488 2216 2034 2216 
z
M 1403 2484 
Q 997 2584 770 2862 
Q 544 3141 544 3541 
Q 544 4100 942 4425 
Q 1341 4750 2034 4750 
Q 2731 4750 3128 4425 
Q 3525 4100 3525 3541 
Q 3525 3141 3298 2862 
Q 3072 2584 2669 2484 
Q 3125 2378 3379 2068 
Q 3634 1759 3634 1313 
Q 3634 634 3220 271 
Q 2806 -91 2034 -91 
Q 1263 -91 848 271 
Q 434 634 434 1313 
Q 434 1759 690 2068 
Q 947 2378 1403 2484 
z
M 1172 3481 
Q 1172 3119 1398 2916 
Q 1625 2713 2034 2713 
Q 2441 2713 2670 2916 
Q 2900 3119 2900 3481 
Q 2900 3844 2670 4047 
Q 2441 4250 2034 4250 
Q 1625 4250 1398 4047 
Q 1172 3844 1172 3481 
z
" transform="scale(0.015625)"/>
       </defs>
       <use xlink:href="#DejaVuSans-38"/>
       <use xlink:href="#DejaVuSans-30" x="63.623047"/>
       <use xlink:href="#DejaVuSans-30" x="127.246094"/>
      </g>
     </g>
    </g>
    <g id="xtick_6">
     <g id="line2d_6">
      <g>
       <use xlink:href="#m6bb3dfcb2b" x="398.812252" y="307.584" style="stroke: #000000; stroke-width: 0.8"/>
      </g>
     </g>
     <g id="text_6">
      <!-- 1000 -->
      <g transform="translate(386.087252 322.182437)scale(0.1 -0.1)">
       <defs>
        <path id="DejaVuSans-31" d="M 794 531 
L 1825 531 
L 1825 4091 
L 703 3866 
L 703 4441 
L 1819 4666 
L 2450 4666 
L 2450 531 
L 3481 531 
L 3481 0 
L 794 0 
L 794 531 
z
" transform="scale(0.015625)"/>
       </defs>
       <use xlink:href="#DejaVuSans-31"/>
       <use xlink:href="#DejaVuSans-30" x="63.623047"/>
       <use xlink:href="#DejaVuSans-30" x="127.246094"/>
       <use xlink:href="#DejaVuSans-30" x="190.869141"/>
      </g>
     </g>
    </g>
    <g id="text_7">
     <!-- Timestamps -->
     <g transform="translate(190.392422 339.659781)scale(0.15 -0.15)">
      <defs>
       <path id="DejaVuSans-54" d="M -19 4666 
L 3928 4666 
L 3928 4134 
L 2272 4134 
L 2272 0 
L 1638 0 
L 1638 4134 
L -19 4134 
L -19 4666 
z
" transform="scale(0.015625)"/>
       <path id="DejaVuSans-69" d="M 603 3500 
L 1178 3500 
L 1178 0 
L 603 0 
L 603 3500 
z
M 603 4863 
L 1178 4863 
L 1178 4134 
L 603 4134 
L 603 4863 
z
" transform="scale(0.015625)"/>
       <path id="DejaVuSans-6d" d="M 3328 2828 
Q 3544 3216 3844 3400 
Q 4144 3584 4550 3584 
Q 5097 3584 5394 3201 
Q 5691 2819 5691 2113 
L 5691 0 
L 5113 0 
L 5113 2094 
Q 5113 2597 4934 2840 
Q 4756 3084 4391 3084 
Q 3944 3084 3684 2787 
Q 3425 2491 3425 1978 
L 3425 0 
L 2847 0 
L 2847 2094 
Q 2847 2600 2669 2842 
Q 2491 3084 2119 3084 
Q 1678 3084 1418 2786 
Q 1159 2488 1159 1978 
L 1159 0 
L 581 0 
L 581 3500 
L 1159 3500 
L 1159 2956 
Q 1356 3278 1631 3431 
Q 1906 3584 2284 3584 
Q 2666 3584 2933 3390 
Q 3200 3197 3328 2828 
z
" transform="scale(0.015625)"/>
       <path id="DejaVuSans-65" d="M 3597 1894 
L 3597 1613 
L 953 1613 
Q 991 1019 1311 708 
Q 1631 397 2203 397 
Q 2534 397 2845 478 
Q 3156 559 3463 722 
L 3463 178 
Q 3153 47 2828 -22 
Q 2503 -91 2169 -91 
Q 1331 -91 842 396 
Q 353 884 353 1716 
Q 353 2575 817 3079 
Q 1281 3584 2069 3584 
Q 2775 3584 3186 3129 
Q 3597 2675 3597 1894 
z
M 3022 2063 
Q 3016 2534 2758 2815 
Q 2500 3097 2075 3097 
Q 1594 3097 1305 2825 
Q 1016 2553 972 2059 
L 3022 2063 
z
" transform="scale(0.015625)"/>
       <path id="DejaVuSans-73" d="M 2834 3397 
L 2834 2853 
Q 2591 2978 2328 3040 
Q 2066 3103 1784 3103 
Q 1356 3103 1142 2972 
Q 928 2841 928 2578 
Q 928 2378 1081 2264 
Q 1234 2150 1697 2047 
L 1894 2003 
Q 2506 1872 2764 1633 
Q 3022 1394 3022 966 
Q 3022 478 2636 193 
Q 2250 -91 1575 -91 
Q 1294 -91 989 -36 
Q 684 19 347 128 
L 347 722 
Q 666 556 975 473 
Q 1284 391 1588 391 
Q 1994 391 2212 530 
Q 2431 669 2431 922 
Q 2431 1156 2273 1281 
Q 2116 1406 1581 1522 
L 1381 1569 
Q 847 1681 609 1914 
Q 372 2147 372 2553 
Q 372 3047 722 3315 
Q 1072 3584 1716 3584 
Q 2034 3584 2315 3537 
Q 2597 3491 2834 3397 
z
" transform="scale(0.015625)"/>
       <path id="DejaVuSans-74" d="M 1172 4494 
L 1172 3500 
L 2356 3500 
L 2356 3053 
L 1172 3053 
L 1172 1153 
Q 1172 725 1289 603 
Q 1406 481 1766 481 
L 2356 481 
L 2356 0 
L 1766 0 
Q 1100 0 847 248 
Q 594 497 594 1153 
L 594 3053 
L 172 3053 
L 172 3500 
L 594 3500 
L 594 4494 
L 1172 4494 
z
" transform="scale(0.015625)"/>
       <path id="DejaVuSans-61" d="M 2194 1759 
Q 1497 1759 1228 1600 
Q 959 1441 959 1056 
Q 959 750 1161 570 
Q 1363 391 1709 391 
Q 2188 391 2477 730 
Q 2766 1069 2766 1631 
L 2766 1759 
L 2194 1759 
z
M 3341 1997 
L 3341 0 
L 2766 0 
L 2766 531 
Q 2569 213 2275 61 
Q 1981 -91 1556 -91 
Q 1019 -91 701 211 
Q 384 513 384 1019 
Q 384 1609 779 1909 
Q 1175 2209 1959 2209 
L 2766 2209 
L 2766 2266 
Q 2766 2663 2505 2880 
Q 2244 3097 1772 3097 
Q 1472 3097 1187 3025 
Q 903 2953 641 2809 
L 641 3341 
Q 956 3463 1253 3523 
Q 1550 3584 1831 3584 
Q 2591 3584 2966 3190 
Q 3341 2797 3341 1997 
z
" transform="scale(0.015625)"/>
       <path id="DejaVuSans-70" d="M 1159 525 
L 1159 -1331 
L 581 -1331 
L 581 3500 
L 1159 3500 
L 1159 2969 
Q 1341 3281 1617 3432 
Q 1894 3584 2278 3584 
Q 2916 3584 3314 3078 
Q 3713 2572 3713 1747 
Q 3713 922 3314 415 
Q 2916 -91 2278 -91 
Q 1894 -91 1617 61 
Q 1341 213 1159 525 
z
M 3116 1747 
Q 3116 2381 2855 2742 
Q 2594 3103 2138 3103 
Q 1681 3103 1420 2742 
Q 1159 2381 1159 1747 
Q 1159 1113 1420 752 
Q 1681 391 2138 391 
Q 2594 391 2855 752 
Q 3116 1113 3116 1747 
z
" transform="scale(0.015625)"/>
      </defs>
      <use xlink:href="#DejaVuSans-54"/>
      <use xlink:href="#DejaVuSans-69" x="57.958984"/>
      <use xlink:href="#DejaVuSans-6d" x="85.742188"/>
      <use xlink:href="#DejaVuSans-65" x="183.154297"/>
      <use xlink:href="#DejaVuSans-73" x="244.677734"/>
      <use xlink:href="#DejaVuSans-74" x="296.777344"/>
      <use xlink:href="#DejaVuSans-61" x="335.986328"/>
      <use xlink:href="#DejaVuSans-6d" x="397.265625"/>
      <use xlink:href="#DejaVuSans-70" x="494.677734"/>
      <use xlink:href="#DejaVuSans-73" x="558.154297"/>
     </g>
    </g>
   </g>
   <g id="matplotlib.axis_2">
    <g id="ytick_1">
     <g id="line2d_7">
      <defs>
       <path id="m1c25c18e1f" d="M 0 0 
L -3.5 0 
" style="stroke: #000000; stroke-width: 0.8"/>
      </defs>
      <g>
       <use xlink:href="#m1c25c18e1f" x="57.6" y="306.101826" style="stroke: #000000; stroke-width: 0.8"/>
      </g>
     </g>
     <g id="text_8">
      <!-- −0.8 -->
      <g transform="translate(26.317187 309.901045)scale(0.1 -0.1)">
       <defs>
        <path id="DejaVuSans-2212" d="M 678 2272 
L 4684 2272 
L 4684 1741 
L 678 1741 
L 678 2272 
z
" transform="scale(0.015625)"/>
        <path id="DejaVuSans-2e" d="M 684 794 
L 1344 794 
L 1344 0 
L 684 0 
L 684 794 
z
" transform="scale(0.015625)"/>
       </defs>
       <use xlink:href="#DejaVuSans-2212"/>
       <use xlink:href="#DejaVuSans-30" x="83.789062"/>
       <use xlink:href="#DejaVuSans-2e" x="147.412109"/>
       <use xlink:href="#DejaVuSans-38" x="179.199219"/>
      </g>
     </g>
    </g>
    <g id="ytick_2">
     <g id="line2d_8">
      <g>
       <use xlink:href="#m1c25c18e1f" x="57.6" y="274.989459" style="stroke: #000000; stroke-width: 0.8"/>
      </g>
     </g>
     <g id="text_9">
      <!-- −0.6 -->
      <g transform="translate(26.317187 278.788677)scale(0.1 -0.1)">
       <use xlink:href="#DejaVuSans-2212"/>
       <use xlink:href="#DejaVuSans-30" x="83.789062"/>
       <use xlink:href="#DejaVuSans-2e" x="147.412109"/>
       <use xlink:href="#DejaVuSans-36" x="179.199219"/>
      </g>
     </g>
    </g>
    <g id="ytick_3">
     <g id="line2d_9">
      <g>
       <use xlink:href="#m1c25c18e1f" x="57.6" y="243.877091" style="stroke: #000000; stroke-width: 0.8"/>
      </g>
     </g>
     <g id="text_10">
      <!-- −0.4 -->
      <g transform="translate(26.317187 247.67631)scale(0.1 -0.1)">
       <use xlink:href="#DejaVuSans-2212"/>
       <use xlink:href="#DejaVuSans-30" x="83.789062"/>
       <use xlink:href="#DejaVuSans-2e" x="147.412109"/>
       <use xlink:href="#DejaVuSans-34" x="179.199219"/>
      </g>
     </g>
    </g>
    <g id="ytick_4">
     <g id="line2d_10">
      <g>
       <use xlink:href="#m1c25c18e1f" x="57.6" y="212.764724" style="stroke: #000000; stroke-width: 0.8"/>
      </g>
     </g>
     <g id="text_11">
      <!-- −0.2 -->
      <g transform="translate(26.317187 216.563943)scale(0.1 -0.1)">
       <use xlink:href="#DejaVuSans-2212"/>
       <use xlink:href="#DejaVuSans-30" x="83.789062"/>
       <use xlink:href="#DejaVuSans-2e" x="147.412109"/>
       <use xlink:href="#DejaVuSans-32" x="179.199219"/>
      </g>
     </g>
    </g>
    <g id="ytick_5">
     <g id="line2d_11">
      <g>
       <use xlink:href="#m1c25c18e1f" x="57.6" y="181.652357" style="stroke: #000000; stroke-width: 0.8"/>
      </g>
     </g>
     <g id="text_12">
      <!-- 0.0 -->
      <g transform="translate(34.696875 185.451576)scale(0.1 -0.1)">
       <use xlink:href="#DejaVuSans-30"/>
       <use xlink:href="#DejaVuSans-2e" x="63.623047"/>
       <use xlink:href="#DejaVuSans-30" x="95.410156"/>
      </g>
     </g>
    </g>
    <g id="ytick_6">
     <g id="line2d_12">
      <g>
       <use xlink:href="#m1c25c18e1f" x="57.6" y="150.539989" style="stroke: #000000; stroke-width: 0.8"/>
      </g>
     </g>
     <g id="text_13">
      <!-- 0.2 -->
      <g transform="translate(34.696875 154.339208)scale(0.1 -0.1)">
       <use xlink:href="#DejaVuSans-30"/>
       <use xlink:href="#DejaVuSans-2e" x="63.623047"/>
       <use xlink:href="#DejaVuSans-32" x="95.410156"/>
      </g>
     </g>
    </g>
    <g id="ytick_7">
     <g id="line2d_13">
      <g>
       <use xlink:href="#m1c25c18e1f" x="57.6" y="119.427622" style="stroke: #000000; stroke-width: 0.8"/>
      </g>
     </g>
     <g id="text_14">
      <!-- 0.4 -->
      <g transform="translate(34.696875 123.226841)scale(0.1 -0.1)">
       <use xlink:href="#DejaVuSans-30"/>
       <use xlink:href="#DejaVuSans-2e" x="63.623047"/>
       <use xlink:href="#DejaVuSans-34" x="95.410156"/>
      </g>
     </g>
    </g>
    <g id="ytick_8">
     <g id="line2d_14">
      <g>
       <use xlink:href="#m1c25c18e1f" x="57.6" y="88.315255" style="stroke: #000000; stroke-width: 0.8"/>
      </g>
     </g>
     <g id="text_15">
      <!-- 0.6 -->
      <g transform="translate(34.696875 92.114474)scale(0.1 -0.1)">
       <use xlink:href="#DejaVuSans-30"/>
       <use xlink:href="#DejaVuSans-2e" x="63.623047"/>
       <use xlink:href="#DejaVuSans-36" x="95.410156"/>
      </g>
     </g>
    </g>
    <g id="ytick_9">
     <g id="line2d_15">
      <g>
       <use xlink:href="#m1c25c18e1f" x="57.6" y="57.202888" style="stroke: #000000; stroke-width: 0.8"/>
      </g>
     </g>
     <g id="text_16">
      <!-- 0.8 -->
      <g transform="translate(34.696875 61.002106)scale(0.1 -0.1)">
       <use xlink:href="#DejaVuSans-30"/>
       <use xlink:href="#DejaVuSans-2e" x="63.623047"/>
       <use xlink:href="#DejaVuSans-38" x="95.410156"/>
      </g>
     </g>
    </g>
    <g id="text_17">
     <!-- Magnitude -->
     <g transform="translate(19.197656 214.262766)rotate(-90)scale(0.15 -0.15)">
      <defs>
       <path id="DejaVuSans-4d" d="M 628 4666 
L 1569 4666 
L 2759 1491 
L 3956 4666 
L 4897 4666 
L 4897 0 
L 4281 0 
L 4281 4097 
L 3078 897 
L 2444 897 
L 1241 4097 
L 1241 0 
L 628 0 
L 628 4666 
z
" transform="scale(0.015625)"/>
       <path id="DejaVuSans-67" d="M 2906 1791 
Q 2906 2416 2648 2759 
Q 2391 3103 1925 3103 
Q 1463 3103 1205 2759 
Q 947 2416 947 1791 
Q 947 1169 1205 825 
Q 1463 481 1925 481 
Q 2391 481 2648 825 
Q 2906 1169 2906 1791 
z
M 3481 434 
Q 3481 -459 3084 -895 
Q 2688 -1331 1869 -1331 
Q 1566 -1331 1297 -1286 
Q 1028 -1241 775 -1147 
L 775 -588 
Q 1028 -725 1275 -790 
Q 1522 -856 1778 -856 
Q 2344 -856 2625 -561 
Q 2906 -266 2906 331 
L 2906 616 
Q 2728 306 2450 153 
Q 2172 0 1784 0 
Q 1141 0 747 490 
Q 353 981 353 1791 
Q 353 2603 747 3093 
Q 1141 3584 1784 3584 
Q 2172 3584 2450 3431 
Q 2728 3278 2906 2969 
L 2906 3500 
L 3481 3500 
L 3481 434 
z
" transform="scale(0.015625)"/>
       <path id="DejaVuSans-6e" d="M 3513 2113 
L 3513 0 
L 2938 0 
L 2938 2094 
Q 2938 2591 2744 2837 
Q 2550 3084 2163 3084 
Q 1697 3084 1428 2787 
Q 1159 2491 1159 1978 
L 1159 0 
L 581 0 
L 581 3500 
L 1159 3500 
L 1159 2956 
Q 1366 3272 1645 3428 
Q 1925 3584 2291 3584 
Q 2894 3584 3203 3211 
Q 3513 2838 3513 2113 
z
" transform="scale(0.015625)"/>
       <path id="DejaVuSans-75" d="M 544 1381 
L 544 3500 
L 1119 3500 
L 1119 1403 
Q 1119 906 1312 657 
Q 1506 409 1894 409 
Q 2359 409 2629 706 
Q 2900 1003 2900 1516 
L 2900 3500 
L 3475 3500 
L 3475 0 
L 2900 0 
L 2900 538 
Q 2691 219 2414 64 
Q 2138 -91 1772 -91 
Q 1169 -91 856 284 
Q 544 659 544 1381 
z
M 1991 3584 
L 1991 3584 
z
" transform="scale(0.015625)"/>
       <path id="DejaVuSans-64" d="M 2906 2969 
L 2906 4863 
L 3481 4863 
L 3481 0 
L 2906 0 
L 2906 525 
Q 2725 213 2448 61 
Q 2172 -91 1784 -91 
Q 1150 -91 751 415 
Q 353 922 353 1747 
Q 353 2572 751 3078 
Q 1150 3584 1784 3584 
Q 2172 3584 2448 3432 
Q 2725 3281 2906 2969 
z
M 947 1747 
Q 947 1113 1208 752 
Q 1469 391 1925 391 
Q 2381 391 2643 752 
Q 2906 1113 2906 1747 
Q 2906 2381 2643 2742 
Q 2381 3103 1925 3103 
Q 1469 3103 1208 2742 
Q 947 2381 947 1747 
z
" transform="scale(0.015625)"/>
      </defs>
      <use xlink:href="#DejaVuSans-4d"/>
      <use xlink:href="#DejaVuSans-61" x="86.279297"/>
      <use xlink:href="#DejaVuSans-67" x="147.558594"/>
      <use xlink:href="#DejaVuSans-6e" x="211.035156"/>
      <use xlink:href="#DejaVuSans-69" x="274.414062"/>
      <use xlink:href="#DejaVuSans-74" x="302.197266"/>
      <use xlink:href="#DejaVuSans-75" x="341.40625"/>
      <use xlink:href="#DejaVuSans-64" x="404.785156"/>
      <use xlink:href="#DejaVuSans-65" x="468.261719"/>
     </g>
    </g>
   </g>
   <g id="line2d_16">
    <path d="M 73.832727 288.026107 
L 74.807666 287.863919 
L 75.457625 287.685419 
L 76.432563 287.453012 
L 77.732482 287.14692 
L 79.682359 286.909088 
L 80.657297 286.456137 
L 80.982277 286.3532 
L 81.307256 285.93634 
L 83.582113 284.923714 
L 84.882031 283.617178 
L 85.53199 283.057759 
L 85.85697 282.343097 
L 86.831908 281.216071 
L 88.131826 278.958301 
L 88.456806 277.6619 
L 89.431744 275.323213 
L 90.731663 272.00239 
L 91.056642 271.344967 
L 91.381622 270.110179 
L 92.031581 268.834483 
L 92.68154 265.221488 
L 93.331499 263.745471 
L 94.306437 260.622774 
L 94.631417 259.363655 
L 95.281376 253.325318 
L 95.606355 248.218176 
L 95.931335 247.187777 
L 96.256314 244.35227 
L 96.581294 243.326519 
L 96.906274 240.691187 
L 99.18113 233.924267 
L 99.831089 233.329205 
L 100.156069 233.236477 
L 100.481048 233.262763 
L 100.806028 233.475728 
L 101.455987 234.396946 
L 102.105946 235.796525 
L 102.430925 236.702278 
L 102.755905 238.790901 
L 103.730844 242.717191 
L 105.355741 250.576077 
L 105.680721 253.946661 
L 107.955577 265.557222 
L 108.605536 274.820422 
L 108.930516 276.442534 
L 109.255495 279.178483 
L 111.855332 288.747362 
L 112.505291 290.39665 
L 115.105127 292.01913 
L 115.755086 292.323243 
L 116.080066 292.607377 
L 119.004881 293.722523 
L 120.629779 294.14481 
L 121.604717 294.645709 
L 122.904636 294.881455 
L 123.879574 294.79754 
L 124.529533 294.72318 
L 126.154431 294.597267 
L 126.80439 294.460509 
L 127.129369 293.929607 
L 128.429287 292.851719 
L 129.079247 292.241813 
L 129.404226 291.561863 
L 129.729206 291.561863 
L 130.054185 290.599873 
L 130.379165 290.23101 
L 130.704144 289.597223 
L 131.029124 287.773106 
L 131.354103 287.126106 
L 131.679083 286.199456 
L 132.654021 280.038263 
L 133.30398 278.26981 
L 133.62896 275.904009 
L 134.603898 273.940747 
L 134.928878 272.7018 
L 136.228796 270.29861 
L 136.553776 268.920604 
L 136.878755 266.86515 
L 137.853694 264.910642 
L 139.478591 261.253066 
L 139.803571 259.850564 
L 141.103489 257.326826 
L 141.428468 256.25316 
L 142.403407 254.925817 
L 143.378346 253.975656 
L 144.353284 253.405136 
L 144.678264 253.227554 
L 145.328223 253.241918 
L 146.303161 253.609585 
L 148.253038 256.347717 
L 148.578018 257.814741 
L 148.902998 257.814741 
L 149.227977 258.516208 
L 149.552957 260.024688 
L 150.852875 263.442756 
L 151.827813 266.306142 
L 152.152793 268.316618 
L 153.452711 272.382109 
L 154.10267 279.545201 
L 155.402588 283.718724 
L 155.727568 285.884669 
L 156.702506 289.083256 
L 157.352465 291.067443 
L 157.677445 292.678274 
L 158.002424 292.678274 
L 158.327404 293.147116 
L 159.627322 293.619115 
L 161.577199 294.005568 
L 162.877117 293.970115 
L 164.826994 293.746853 
L 165.476953 293.537793 
L 166.451892 293.382459 
L 167.75181 293.551606 
L 169.051728 293.420448 
L 170.351646 293.18302 
L 171.651564 292.814288 
L 173.276462 292.302415 
L 173.601441 292.190334 
L 174.2514 291.702013 
L 175.226339 291.143791 
L 175.551319 290.761451 
L 176.526257 290.118064 
L 176.851237 290.118064 
L 177.826175 289.204442 
L 178.151155 288.433786 
L 178.476134 288.433786 
L 179.126093 286.843395 
L 180.101032 284.98106 
L 180.426011 283.739959 
L 182.375889 279.894053 
L 182.700868 279.434407 
L 183.025848 278.751074 
L 184.975725 277.18037 
L 185.950663 273.980564 
L 186.275643 272.095643 
L 187.900541 268.025794 
L 188.5505 266.64172 
L 188.875479 265.417111 
L 189.850418 263.670512 
L 191.150336 262.77934 
L 191.475315 262.358728 
L 194.075152 260.800011 
L 195.05009 260.68 
L 195.700049 260.840125 
L 196.350008 261.766258 
L 196.999967 262.783517 
L 197.974906 264.902363 
L 198.299885 266.622597 
L 199.599803 270.60416 
L 200.899722 274.942113 
L 201.224701 275.397253 
L 201.549681 276.149798 
L 201.87466 278.961496 
L 202.19964 278.961496 
L 202.524619 281.710689 
L 204.474496 289.823416 
L 204.799476 289.823416 
L 205.124455 291.548384 
L 205.449435 292.32279 
L 206.424373 292.788106 
L 209.674169 293.898293 
L 212.923964 294.27669 
L 213.248943 294.298626 
L 214.548862 294.800429 
L 215.84878 294.90067 
L 217.798657 294.918564 
L 219.423554 294.875866 
L 220.398493 294.763713 
L 221.373432 294.661118 
L 222.34837 294.420325 
L 223.973268 293.316011 
L 224.623227 292.765746 
L 225.598165 292.079784 
L 226.573104 290.683461 
L 227.223063 289.139158 
L 228.847961 275.40322 
L 229.17294 274.509223 
L 229.49792 272.727211 
L 229.822899 272.727211 
L 230.147879 269.467182 
L 232.097756 257.200487 
L 232.422735 252.964588 
L 233.072695 248.932384 
L 233.722654 247.23693 
L 234.047633 245.045371 
L 234.372613 244.352185 
L 234.697592 242.845039 
L 235.022572 242.845039 
L 235.347551 241.517473 
L 235.99751 240.501826 
L 236.647469 239.846396 
L 236.972449 239.663509 
L 237.297428 239.60905 
L 237.622408 239.776736 
L 238.272367 240.734851 
L 239.247305 242.849104 
L 240.222244 245.51368 
L 240.547224 247.531248 
L 242.497101 253.7981 
L 242.82208 255.677629 
L 244.121998 259.013745 
L 244.446978 260.446881 
L 245.746896 263.007789 
L 247.371794 265.868501 
L 247.696773 266.420719 
L 248.021753 267.613482 
L 248.346732 268.226973 
L 248.996691 270.444071 
L 249.97163 273.093914 
L 250.296609 275.014702 
L 250.621589 275.014702 
L 250.946568 277.135452 
L 252.896446 283.024717 
L 253.221425 284.9476 
L 254.196364 287.456368 
L 254.521343 287.831826 
L 255.821261 288.560779 
L 256.146241 288.877725 
L 257.446159 289.451637 
L 258.421097 290.613818 
L 259.396036 291.003873 
L 260.695954 291.062041 
L 262.320852 290.876509 
L 263.945749 290.556874 
L 264.270729 290.468394 
L 264.595708 290.262314 
L 264.920688 290.262314 
L 265.570647 289.833569 
L 267.195545 289.104594 
L 267.845504 288.56375 
L 269.795381 287.317903 
L 270.44534 286.650224 
L 271.095299 285.787192 
L 272.070238 282.527186 
L 272.720197 281.623146 
L 273.695135 279.766428 
L 274.020115 278.998554 
L 274.345094 277.455162 
L 274.670074 276.625089 
L 274.995053 276.625089 
L 275.320033 274.977789 
L 276.294971 272.294347 
L 277.26991 270.333297 
L 277.919869 269.264446 
L 278.244848 267.016285 
L 278.569828 267.016285 
L 278.894808 264.164302 
L 280.844685 255.74871 
L 281.169664 253.271003 
L 281.819623 251.081197 
L 283.119541 249.358195 
L 283.444521 248.565934 
L 284.09448 247.958372 
L 284.744439 247.583735 
L 285.394398 247.446473 
L 285.719378 247.4397 
L 286.369337 247.710934 
L 287.669255 249.391134 
L 287.994234 250.453439 
L 288.969173 252.487824 
L 289.944111 255.072636 
L 290.269091 257.069673 
L 291.569009 261.615459 
L 291.893989 264.090192 
L 292.218968 264.090192 
L 292.543948 266.607206 
L 292.868927 267.861377 
L 293.518886 274.069962 
L 293.843866 275.508744 
L 294.168845 278.253859 
L 294.493825 278.253859 
L 294.818804 281.006415 
L 297.093661 289.742472 
L 298.0686 290.602572 
L 298.393579 291.162085 
L 300.668436 293.311841 
L 300.993415 293.311841 
L 301.318395 293.735141 
L 302.943292 294.531874 
L 304.56819 295.030769 
L 307.168026 295.368048 
L 311.71774 295.380487 
L 312.367699 295.223165 
L 313.017658 294.873893 
L 314.317576 294.189919 
L 314.642555 293.967818 
L 314.967535 293.523998 
L 316.267453 292.430242 
L 316.917412 291.765855 
L 317.242391 290.986811 
L 318.21733 289.780266 
L 319.192269 288.116439 
L 319.517248 285.855886 
L 320.167207 284.258011 
L 320.492187 282.048788 
L 321.467125 279.431868 
L 321.792105 277.17789 
L 322.117084 276.484046 
L 322.442064 274.586802 
L 324.391941 269.048629 
L 325.0419 267.725314 
L 325.36688 266.591925 
L 325.691859 266.591925 
L 326.016839 265.473962 
L 327.966716 261.85451 
L 328.291695 260.675162 
L 328.616675 260.675162 
L 328.941654 259.579792 
L 330.566552 256.847027 
L 330.891532 256.847027 
L 331.216511 256.1682 
L 332.19145 255.363099 
L 333.166388 254.842643 
L 333.491368 254.69612 
L 335.116265 254.772965 
L 335.441245 254.864183 
L 335.766224 255.255053 
L 336.741163 255.995458 
L 337.391122 256.698038 
L 337.716102 257.133479 
L 338.041081 258.114275 
L 339.340999 260.609664 
L 340.315938 262.898718 
L 340.640917 263.739689 
L 340.965897 267.967049 
L 341.290876 270.731202 
L 342.915774 276.776941 
L 344.865651 284.895051 
L 345.190631 287.305894 
L 345.51561 288.149245 
L 348.115446 289.924371 
L 351.365242 291.235067 
L 351.690221 291.285154 
L 352.015201 291.72377 
L 352.990139 292.027833 
L 353.965078 292.119937 
L 355.589975 291.890128 
L 357.214873 291.433135 
L 358.514791 291.065514 
L 359.16475 290.735626 
L 360.139689 290.292417 
L 360.789648 289.819083 
L 362.089566 289.124455 
L 362.414545 288.898063 
L 362.739525 288.394598 
L 363.064505 288.394598 
L 363.389484 287.875422 
L 364.364423 287.019415 
L 364.689402 286.710728 
L 365.014382 286.032303 
L 365.339361 286.032303 
L 365.664341 284.996245 
L 365.98932 283.404686 
L 366.3143 282.928438 
L 366.639279 282.147957 
L 367.289238 278.857968 
L 367.614218 277.95963 
L 367.939197 275.885753 
L 368.589156 274.419449 
L 369.239115 272.536944 
L 369.564095 270.347586 
L 369.889075 269.225656 
L 370.864013 267.61444 
L 371.188993 266.500305 
L 371.513972 266.500305 
L 371.838952 265.263355 
L 372.163931 263.431666 
L 372.488911 262.849253 
L 372.81389 261.069731 
L 373.13887 260.458727 
L 373.463849 258.66436 
L 373.788829 258.048989 
L 374.763767 252.741795 
L 376.063686 250.478375 
L 376.388665 249.420135 
L 376.713645 249.420135 
L 377.363604 247.573926 
L 378.013563 247.074945 
L 378.338542 246.487842 
L 378.663522 246.328847 
L 379.313481 245.551878 
L 379.96344 245.393094 
L 380.288419 245.402933 
L 381.263358 246.303572 
L 381.913317 247.256358 
L 382.888256 249.276323 
L 383.213235 250.958325 
L 384.188174 253.971061 
L 385.163112 257.373343 
L 385.488092 259.792445 
L 386.78801 264.723527 
L 387.437969 270.920329 
L 388.412907 274.715118 
L 388.737887 276.015557 
L 389.062867 278.526412 
L 391.337723 287.136587 
L 393.2876 288.922067 
L 393.61258 289.422264 
L 393.937559 289.422264 
L 394.262539 289.911138 
L 394.587518 289.911138 
L 394.912498 290.39074 
L 395.887437 290.955038 
L 397.837314 291.884336 
L 398.487273 292.018859 
L 398.487273 292.018859 
" clip-path="url(#p5e3510f329)" style="fill: none; stroke: #1f77b4; stroke-width: 1.5; stroke-linecap: square"/>
   </g>
   <g id="line2d_17">
    <path d="M 73.832727 153.677661 
L 74.157707 153.549646 
L 74.482686 153.549646 
L 75.132645 153.006074 
L 78.057461 151.554493 
L 79.682359 151.111391 
L 80.332318 150.594569 
L 80.982277 150.287056 
L 81.307256 149.682704 
L 83.582113 148.032027 
L 84.882031 146.059044 
L 85.53199 145.320048 
L 85.85697 144.32958 
L 86.831908 142.877598 
L 88.131826 140.053905 
L 88.456806 138.567477 
L 89.431744 135.951113 
L 90.406683 133.26349 
L 91.056642 131.998958 
L 91.381622 130.908965 
L 92.031581 129.79107 
L 92.68154 127.420776 
L 93.656478 125.318418 
L 94.631417 122.630193 
L 95.606355 117.203608 
L 95.931335 116.580545 
L 96.256314 115.478003 
L 96.581294 114.91413 
L 96.906274 113.949004 
L 98.206192 112.02953 
L 98.856151 111.250862 
L 99.18113 110.507926 
L 100.156069 109.661478 
L 100.481048 109.4697 
L 101.780966 107.177421 
L 102.755905 105.866679 
L 103.405864 105.836847 
L 104.055823 106.227124 
L 104.705782 107.029168 
L 105.355741 108.191187 
L 105.680721 109.673819 
L 106.655659 112.411155 
L 107.955577 116.945148 
L 108.605536 125.058051 
L 108.930516 126.940141 
L 109.255495 130.644885 
L 110.230434 136.240121 
L 112.180311 149.079146 
L 112.505291 151.613267 
L 114.780147 158.453075 
L 115.755086 161.068448 
L 116.080066 162.673861 
L 117.704963 166.27542 
L 118.029943 166.87681 
L 118.354922 168.086815 
L 119.97982 170.99427 
L 120.629779 171.662907 
L 121.279738 172.695012 
L 122.254676 173.73335 
L 122.904636 173.834926 
L 123.554595 173.748213 
L 123.879574 173.659488 
L 124.854513 172.938413 
L 125.179492 172.938413 
L 125.504472 172.698835 
L 125.829451 172.174433 
L 126.80439 171.28436 
L 127.129369 170.512561 
L 128.429287 168.856472 
L 129.079247 167.790448 
L 129.404226 166.623155 
L 129.729206 166.623155 
L 130.054185 164.815228 
L 130.379165 163.689119 
L 130.704144 162.07589 
L 131.029124 159.404486 
L 131.679083 156.190829 
L 132.654021 148.345647 
L 133.30398 145.622981 
L 133.62896 143.42815 
L 134.603898 140.752471 
L 134.928878 139.18717 
L 136.228796 136.182431 
L 136.878755 133.280201 
L 139.478591 127.422516 
L 139.803571 126.13218 
L 141.753448 122.486063 
L 143.053366 121.035637 
L 144.028305 120.174518 
L 144.353284 119.938162 
L 144.678264 119.500625 
L 145.653202 119.030161 
L 147.2781 118.359642 
L 147.928059 117.983536 
L 148.578018 118.029827 
L 149.227977 118.103803 
L 150.852875 119.617254 
L 151.827813 121.018752 
L 152.152793 122.207717 
L 153.127731 124.351116 
L 153.452711 125.170515 
L 153.77769 129.161645 
L 154.10267 131.708413 
L 155.402588 137.36629 
L 155.727568 140.607499 
L 157.352465 150.092288 
L 157.677445 153.83026 
L 158.002424 153.83026 
L 158.327404 155.960832 
L 160.60226 161.859445 
L 160.92724 162.633505 
L 161.252219 164.029861 
L 162.877117 167.154248 
L 165.801933 171.897007 
L 166.451892 172.484761 
L 166.776871 173.048189 
L 167.101851 173.871029 
L 167.75181 174.425893 
L 168.726749 174.877296 
L 169.376708 174.946504 
L 170.026667 174.780521 
L 170.351646 174.665581 
L 171.001605 174.211194 
L 172.626503 173.1231 
L 173.601441 172.314566 
L 173.926421 171.596247 
L 175.226339 170.000559 
L 175.551319 169.087198 
L 176.526257 167.442052 
L 176.851237 167.442052 
L 177.501196 164.96073 
L 177.826175 163.8698 
L 178.151155 161.497225 
L 178.476134 161.497225 
L 178.801114 159.001379 
L 179.776052 154.976442 
L 180.101032 153.669454 
L 180.426011 151.277253 
L 181.72593 146.422091 
L 182.375889 144.431194 
L 182.700868 143.677394 
L 183.025848 142.435282 
L 184.975725 139.307935 
L 185.950663 136.191497 
L 186.275643 134.189688 
L 187.900541 129.554211 
L 188.5505 127.865515 
L 188.875479 126.278869 
L 189.850418 124.047195 
L 191.150336 122.608426 
L 191.475315 121.908054 
L 193.750172 119.714055 
L 194.725111 119.252729 
L 196.350008 118.873055 
L 196.999967 118.948678 
L 197.649926 119.334666 
L 197.974906 119.652236 
L 198.299885 120.47783 
L 198.949844 121.581103 
L 199.924783 123.698945 
L 201.549681 127.459993 
L 201.87466 130.093134 
L 202.19964 130.093134 
L 202.524619 132.973248 
L 203.824537 139.23985 
L 204.149517 142.106741 
L 204.474496 143.588191 
L 204.799476 143.588191 
L 205.124455 146.383874 
L 205.449435 147.719648 
L 206.749353 149.419785 
L 208.049271 150.849531 
L 208.374251 151.19601 
L 208.69923 151.860544 
L 210.649107 153.683052 
L 211.624046 154.476133 
L 211.949025 155.026944 
L 213.248943 156.026505 
L 213.898903 156.796648 
L 214.223882 157.105794 
L 214.548862 157.60077 
L 214.873841 157.60077 
L 215.198821 157.989175 
L 216.498739 158.468634 
L 219.423554 158.410596 
L 220.073514 158.270178 
L 221.048452 158.270178 
L 222.023391 157.800903 
L 222.34837 157.800903 
L 223.648288 156.652112 
L 224.623227 155.182065 
L 225.598165 154.014916 
L 226.573104 151.598353 
L 226.898084 149.738157 
L 227.223063 148.598191 
L 227.873022 141.36219 
L 228.198002 139.168307 
L 228.522981 134.870569 
L 228.847961 133.322954 
L 229.17294 132.661056 
L 229.49792 131.49389 
L 229.822899 131.49389 
L 230.147879 129.753482 
L 232.097756 123.464418 
L 232.422735 121.384525 
L 233.072695 119.412112 
L 233.722654 118.382853 
L 234.047633 117.422556 
L 234.372613 116.953419 
L 234.697592 115.951833 
L 235.022572 115.951833 
L 235.347551 115.022411 
L 236.647469 113.484298 
L 237.622408 112.348806 
L 238.272367 111.272977 
L 238.922326 110.550806 
L 239.572285 110.151064 
L 240.222244 110.055962 
L 241.197183 110.688071 
L 241.847142 111.354605 
L 242.497101 112.208848 
L 242.82208 113.230762 
L 244.121998 115.547508 
L 244.446978 116.756318 
L 247.696773 122.618275 
L 248.021753 123.834616 
L 248.346732 124.444848 
L 248.996691 126.464044 
L 249.97163 129.088212 
L 250.296609 131.136824 
L 250.621589 131.136824 
L 250.946568 133.556926 
L 252.246486 138.471683 
L 252.896446 141.498338 
L 253.221425 144.62121 
L 254.521343 150.369314 
L 255.821261 153.082367 
L 256.146241 154.357421 
L 258.096118 158.456586 
L 258.421097 159.748889 
L 260.045995 162.483628 
L 261.020934 163.251671 
L 261.995872 163.628394 
L 262.645831 163.756871 
L 263.62077 163.678541 
L 264.920688 163.334736 
L 265.570647 162.669688 
L 267.195545 161.364001 
L 267.845504 160.308042 
L 269.145422 158.873399 
L 270.12036 156.885702 
L 271.095299 154.465787 
L 272.070238 149.667641 
L 272.720197 148.229428 
L 273.695135 145.742619 
L 274.020115 144.761639 
L 274.345094 142.975691 
L 274.670074 142.029125 
L 274.995053 142.029125 
L 275.320033 140.254944 
L 276.294971 137.418259 
L 276.94493 136.144502 
L 277.919869 134.637455 
L 278.244848 133.086969 
L 278.569828 133.086969 
L 278.894808 131.144843 
L 280.844685 125.271758 
L 281.169664 123.471437 
L 281.819623 121.831662 
L 283.119541 120.326399 
L 283.444521 119.699166 
L 284.744439 118.677329 
L 286.694316 117.434084 
L 287.344275 116.994499 
L 287.994234 116.783729 
L 288.644193 116.91114 
L 289.619132 117.469645 
L 289.944111 117.747943 
L 290.269091 118.442751 
L 291.244029 119.866996 
L 291.569009 120.435446 
L 291.893989 121.716512 
L 292.218968 121.716512 
L 292.543948 123.202026 
L 292.868927 124.028458 
L 293.518886 129.092069 
L 293.843866 130.396047 
L 294.168845 133.248881 
L 294.493825 133.248881 
L 294.818804 136.301225 
L 295.793743 141.025507 
L 296.443702 144.674284 
L 297.093661 148.567542 
L 298.0686 150.593785 
L 298.393579 151.895931 
L 300.343456 155.564825 
L 300.668436 156.649575 
L 300.993415 156.649575 
L 301.318395 157.675298 
L 302.943292 159.923216 
L 303.268272 160.29337 
L 303.593251 161.023474 
L 305.218149 162.928943 
L 305.543129 162.928943 
L 305.868108 163.355533 
L 307.493006 164.254125 
L 307.817985 164.413678 
L 308.142965 164.719342 
L 309.117903 165.030801 
L 311.067781 165.382132 
L 311.71774 165.296494 
L 312.367699 165.16173 
L 313.017658 164.719529 
L 313.992596 164.169808 
L 314.642555 163.677636 
L 315.292514 162.748182 
L 316.917412 160.778612 
L 317.242391 159.798318 
L 318.21733 158.284118 
L 319.192269 155.318513 
L 319.517248 152.184863 
L 320.167207 149.873937 
L 320.492187 147.647537 
L 321.467125 144.848034 
L 321.792105 143.037586 
L 322.117084 142.405359 
L 322.442064 140.816883 
L 324.066962 137.374031 
L 325.36688 135.567838 
L 325.691859 135.567838 
L 326.016839 134.862929 
L 327.966716 132.432761 
L 328.291695 131.590204 
L 328.616675 131.590204 
L 328.941654 130.783992 
L 330.566552 128.650298 
L 330.891532 128.650298 
L 331.216511 128.078688 
L 332.516429 127.143874 
L 334.791286 125.901717 
L 335.441245 125.670195 
L 335.766224 125.10901 
L 336.741163 124.613918 
L 337.716102 124.479712 
L 338.69104 124.76329 
L 339.665979 125.352062 
L 340.315938 125.965114 
L 340.640917 126.350294 
L 340.965897 129.590933 
L 341.290876 131.474044 
L 342.265815 134.546569 
L 342.915774 137.353636 
L 343.890713 142.019688 
L 344.865651 147.958542 
L 345.190631 152.03642 
L 345.51561 153.675885 
L 346.815528 157.2188 
L 347.140508 158.129366 
L 347.465487 159.98881 
L 349.090385 164.042978 
L 350.065324 166.05442 
L 350.390303 167.231811 
L 351.365242 168.711937 
L 351.690221 169.111155 
L 352.015201 170.436987 
L 352.66516 171.387075 
L 353.315119 172.051249 
L 354.290057 172.797248 
L 354.615037 172.797248 
L 355.264996 172.997959 
L 356.239934 172.944839 
L 356.889894 172.668308 
L 357.539853 172.385815 
L 358.514791 171.721694 
L 358.839771 171.238185 
L 359.814709 170.365907 
L 360.139689 170.071618 
L 360.464668 169.401074 
L 362.089566 167.734201 
L 362.414545 167.285875 
L 362.739525 166.35108 
L 363.064505 166.35108 
L 363.389484 165.399274 
L 364.039443 164.316422 
L 364.689402 163.042932 
L 365.014382 161.347463 
L 365.339361 161.347463 
L 365.98932 156.908356 
L 366.3143 155.88168 
L 366.639279 154.33695 
L 367.289238 149.590376 
L 367.614218 148.236863 
L 367.939197 146.096711 
L 368.914136 142.7075 
L 369.239115 141.356601 
L 369.889075 137.882079 
L 370.864013 135.712588 
L 371.188993 134.322367 
L 371.513972 134.322367 
L 372.163931 131.506015 
L 372.488911 130.804343 
L 372.81389 129.47721 
L 373.13887 128.794031 
L 373.463849 127.482569 
L 373.788829 126.832867 
L 375.088747 122.18561 
L 376.063686 120.608483 
L 376.388665 119.663107 
L 376.713645 119.663107 
L 377.363604 117.979082 
L 378.013563 117.293416 
L 378.338542 116.567563 
L 378.663522 116.301195 
L 378.988501 115.658109 
L 379.313481 114.59186 
L 380.613399 112.878875 
L 381.588337 112.406303 
L 382.238296 112.331322 
L 382.888256 112.465431 
L 383.538215 113.096002 
L 384.188174 113.799793 
L 385.163112 115.258754 
L 385.488092 116.519143 
L 386.46303 118.718517 
L 386.78801 119.538135 
L 387.437969 124.386627 
L 388.737887 129.389629 
L 389.062867 132.080155 
L 390.687764 139.807636 
L 391.012744 141.466874 
L 391.337723 143.860272 
L 392.962621 147.402281 
L 393.2876 148.131911 
L 393.61258 149.620103 
L 393.937559 149.620103 
L 394.262539 151.069263 
L 394.587518 151.069263 
L 394.912498 152.442235 
L 397.187355 157.092933 
L 397.512334 157.65123 
L 397.837314 158.680446 
L 398.487273 159.580377 
L 398.487273 159.580377 
" clip-path="url(#p5e3510f329)" style="fill: none; stroke: #ff7f0e; stroke-width: 1.5; stroke-linecap: square"/>
   </g>
   <g id="line2d_18">
    <path d="M 73.832727 71.645432 
L 74.807666 71.599432 
L 75.782604 71.527236 
L 80.007338 71.172655 
L 81.957215 70.601919 
L 83.582113 70.278287 
L 84.882031 69.689083 
L 85.53199 69.418691 
L 85.85697 69.100743 
L 87.156888 68.364428 
L 88.131826 67.632158 
L 88.456806 67.086443 
L 89.756724 65.837265 
L 91.706601 63.942953 
L 92.031581 63.715222 
L 92.68154 62.175927 
L 93.331499 61.77111 
L 94.631417 60.504396 
L 95.606355 56.693031 
L 95.931335 56.471491 
L 96.256314 55.600114 
L 96.581294 55.391556 
L 96.906274 54.647754 
L 99.18113 53.568 
L 100.156069 53.762263 
L 100.481048 53.880988 
L 101.455987 55.361858 
L 102.430925 57.178427 
L 102.755905 58.399766 
L 105.355741 63.109253 
L 105.680721 64.212544 
L 107.630598 67.301894 
L 107.955577 67.755729 
L 108.605536 70.673616 
L 110.230434 72.688326 
L 111.530352 74.01746 
L 112.180311 74.55539 
L 113.15525 74.429308 
L 114.455168 74.313077 
L 117.704963 74.376076 
L 120.629779 74.670376 
L 121.604717 75.077281 
L 122.904636 75.268404 
L 123.879574 75.192192 
L 124.529533 75.150425 
L 126.154431 75.126807 
L 126.80439 75.039465 
L 127.129369 74.557975 
L 128.754267 73.380944 
L 129.079247 73.129042 
L 129.404226 72.595006 
L 129.729206 72.595006 
L 130.054185 71.896086 
L 130.379165 71.709277 
L 130.704144 71.361142 
L 131.029124 70.104563 
L 131.354103 69.785662 
L 131.679083 69.308658 
L 132.004062 67.834074 
L 132.329042 67.134778 
L 132.654021 65.849217 
L 133.30398 65.177317 
L 133.62896 63.945001 
L 134.603898 63.290474 
L 134.928878 62.882871 
L 136.228796 62.179312 
L 136.553776 61.74653 
L 136.878755 60.828508 
L 137.853694 60.367818 
L 140.778509 58.768171 
L 142.403407 58.207374 
L 143.703325 58.147425 
L 144.353284 58.192302 
L 146.303161 58.883376 
L 147.603079 60.357408 
L 147.928059 60.77118 
L 148.253038 60.927033 
L 148.578018 61.856929 
L 148.902998 61.856929 
L 149.227977 62.266349 
L 149.552957 63.093695 
L 151.827813 66.08081 
L 152.152793 66.956558 
L 153.452711 68.615178 
L 154.10267 71.552034 
L 154.752629 72.218266 
L 155.402588 72.929391 
L 155.727568 73.715199 
L 157.677445 76.302181 
L 158.327404 76.256229 
L 160.92724 75.658185 
L 161.577199 75.404597 
L 163.852056 74.683394 
L 164.826994 74.395103 
L 165.476953 74.048092 
L 166.451892 73.801438 
L 168.07679 73.81091 
L 169.701687 73.556992 
L 172.626503 72.869982 
L 173.601441 72.594354 
L 174.2514 72.201952 
L 175.226339 71.764502 
L 175.876298 71.344168 
L 176.526257 71.050609 
L 176.851237 71.050609 
L 177.826175 70.675707 
L 178.151155 70.337554 
L 178.476134 70.337554 
L 179.126093 69.624198 
L 180.101032 68.782415 
L 180.426011 68.272634 
L 182.375889 66.923823 
L 183.350827 66.570738 
L 184.975725 66.409854 
L 186.275643 64.320388 
L 187.575561 63.394028 
L 188.875479 62.838511 
L 190.825356 62.754583 
L 195.05009 63.12393 
L 195.700049 63.282701 
L 196.350008 64.008763 
L 197.649926 65.393015 
L 197.974906 65.78647 
L 198.299885 66.599229 
L 200.249762 69.25732 
L 200.899722 70.162513 
L 201.549681 70.598757 
L 201.87466 71.779397 
L 202.19964 71.779397 
L 202.524619 72.941005 
L 203.824537 75.188746 
L 204.149517 76.094822 
L 204.474496 76.535151 
L 204.799476 76.535151 
L 205.124455 77.352362 
L 205.449435 77.728783 
L 206.424373 77.804461 
L 210.324128 77.821337 
L 212.598984 77.542311 
L 213.573923 77.53372 
L 214.873841 77.640221 
L 217.148698 77.571748 
L 219.748534 77.480771 
L 222.34837 77.182344 
L 225.923145 75.338158 
L 227.223063 74.165145 
L 227.873022 71.466707 
L 228.198002 70.144419 
L 228.522981 68.053519 
L 228.847961 67.308465 
L 229.17294 66.861472 
L 229.49792 65.941589 
L 229.822899 65.941589 
L 230.147879 64.202153 
L 231.772776 59.576023 
L 232.097756 58.745344 
L 232.422735 57.226335 
L 233.072695 55.958136 
L 233.722654 55.576498 
L 234.047633 54.942675 
L 235.672531 54.429434 
L 236.647469 54.506555 
L 237.297428 54.738915 
L 237.622408 55.089854 
L 240.222244 59.197572 
L 240.547224 60.160596 
L 242.172121 62.270399 
L 242.497101 62.605844 
L 242.82208 63.169298 
L 244.446978 64.266577 
L 246.071876 64.843196 
L 247.696773 65.33901 
L 249.97163 67.30664 
L 250.296609 67.937214 
L 250.621589 67.937214 
L 250.946568 68.651061 
L 252.896446 70.698363 
L 253.221425 71.387796 
L 254.196364 72.292174 
L 254.846323 72.32975 
L 257.446159 72.281722 
L 258.421097 72.807827 
L 259.396036 72.890871 
L 261.670893 72.493643 
L 263.62077 72.11723 
L 264.920688 71.798662 
L 265.570647 71.488965 
L 269.145422 70.272106 
L 271.095299 69.330011 
L 272.395217 67.467524 
L 273.370156 66.712222 
L 274.020115 66.057036 
L 274.345094 65.353474 
L 274.670074 64.991892 
L 274.995053 64.991892 
L 275.320033 64.280712 
L 276.619951 62.917505 
L 277.594889 62.209375 
L 277.919869 62.014568 
L 278.244848 61.012857 
L 278.569828 61.012857 
L 278.894808 59.831759 
L 280.194726 57.836263 
L 281.494644 56.16439 
L 281.819623 55.951882 
L 283.119541 55.737589 
L 283.7695 55.58423 
L 284.744439 55.609934 
L 285.719378 55.804888 
L 286.694316 56.518765 
L 287.669255 57.492786 
L 287.994234 58.129224 
L 289.619132 59.903265 
L 289.944111 60.305012 
L 290.269091 61.168877 
L 291.569009 63.086415 
L 291.893989 64.13132 
L 292.218968 64.13132 
L 292.543948 65.180403 
L 292.868927 65.691275 
L 293.518886 68.092261 
L 293.843866 68.677773 
L 294.168845 69.738359 
L 294.493825 69.738359 
L 294.818804 70.875398 
L 297.093661 74.78134 
L 300.343456 75.994479 
L 300.668436 76.264918 
L 300.993415 76.264918 
L 301.643374 76.555843 
L 303.593251 76.958829 
L 307.493006 76.942503 
L 309.767862 76.848318 
L 312.042719 76.704243 
L 312.367699 76.632289 
L 313.017658 76.325938 
L 314.317576 75.723048 
L 314.642555 75.53151 
L 314.967535 75.160693 
L 316.592432 74.039666 
L 316.917412 73.769129 
L 317.242391 73.17259 
L 319.192269 71.32823 
L 319.517248 69.970783 
L 320.167207 69.128125 
L 320.492187 67.794064 
L 321.142146 66.913314 
L 321.467125 66.395709 
L 321.792105 65.105138 
L 322.117084 64.750207 
L 322.442064 63.774732 
L 324.391941 60.97193 
L 325.36688 59.746741 
L 325.691859 59.746741 
L 326.016839 59.242476 
L 329.266634 56.833987 
L 330.566552 56.209011 
L 330.891532 56.209011 
L 331.541491 55.980081 
L 332.841409 55.833085 
L 333.816347 55.888202 
L 335.441245 56.330721 
L 335.766224 56.81252 
L 337.716102 58.228766 
L 338.041081 58.800019 
L 339.990958 60.858869 
L 340.640917 61.640551 
L 341.290876 64.406564 
L 343.240753 67.380593 
L 344.540672 69.688923 
L 344.865651 70.273876 
L 345.190631 71.381289 
L 345.51561 71.765079 
L 347.140508 71.787947 
L 348.765405 71.773772 
L 351.690221 72.003577 
L 352.015201 72.29977 
L 352.990139 72.478349 
L 353.965078 72.508348 
L 356.239934 72.100869 
L 356.889894 71.879228 
L 358.514791 71.517736 
L 359.16475 71.259287 
L 360.139689 70.91523 
L 360.789648 70.559851 
L 362.414545 69.887203 
L 362.739525 69.52985 
L 363.064505 69.52985 
L 363.389484 69.171299 
L 364.689402 68.444965 
L 365.014382 68.109312 
L 365.339361 68.109312 
L 365.664341 67.585134 
L 365.98932 66.614601 
L 366.3143 66.419911 
L 366.639279 66.092882 
L 366.964259 65.01814 
L 367.614218 64.145739 
L 367.939197 63.097108 
L 368.589156 62.636412 
L 369.239115 62.003988 
L 369.564095 61.025269 
L 370.214054 60.63123 
L 370.864013 60.410665 
L 371.188993 60.160841 
L 371.513972 60.160841 
L 371.838952 59.877014 
L 372.163931 59.19022 
L 372.488911 59.092035 
L 372.81389 58.485337 
L 373.13887 58.384193 
L 373.463849 57.820721 
L 373.788829 57.725527 
L 374.438788 56.853515 
L 374.763767 56.455817 
L 378.013563 56.044648 
L 378.988501 56.312947 
L 379.313481 56.67546 
L 380.288419 57.234827 
L 380.613399 57.670313 
L 381.588337 58.489913 
L 382.888256 59.834244 
L 383.213235 60.569658 
L 385.163112 63.087159 
L 385.488092 63.960928 
L 386.78801 65.719247 
L 387.437969 67.848343 
L 388.087928 68.710364 
L 388.737887 69.564529 
L 389.062867 70.488028 
L 391.337723 73.743524 
L 394.262539 74.208431 
L 394.912498 74.310752 
L 396.212416 74.342456 
L 398.487273 74.267301 
L 398.487273 74.267301 
" clip-path="url(#p5e3510f329)" style="fill: none; stroke: #2ca02c; stroke-width: 1.5; stroke-linecap: square"/>
   </g>
   <g id="patch_3">
    <path d="M 57.6 307.584 
L 57.6 41.472 
" style="fill: none; stroke: #000000; stroke-width: 0.8; stroke-linejoin: miter; stroke-linecap: square"/>
   </g>
   <g id="patch_4">
    <path d="M 414.72 307.584 
L 414.72 41.472 
" style="fill: none; stroke: #000000; stroke-width: 0.8; stroke-linejoin: miter; stroke-linecap: square"/>
   </g>
   <g id="patch_5">
    <path d="M 57.6 307.584 
L 414.72 307.584 
" style="fill: none; stroke: #000000; stroke-width: 0.8; stroke-linejoin: miter; stroke-linecap: square"/>
   </g>
   <g id="patch_6">
    <path d="M 57.6 41.472 
L 414.72 41.472 
" style="fill: none; stroke: #000000; stroke-width: 0.8; stroke-linejoin: miter; stroke-linecap: square"/>
   </g>
   <g id="text_18">
    <!-- Change in rotation components for rotating  neck left and right starting from centre moving right -->
    <g transform="translate(-128.522813 35.472)scale(0.15 -0.15)">
     <defs>
      <path id="DejaVuSans-43" d="M 4122 4306 
L 4122 3641 
Q 3803 3938 3442 4084 
Q 3081 4231 2675 4231 
Q 1875 4231 1450 3742 
Q 1025 3253 1025 2328 
Q 1025 1406 1450 917 
Q 1875 428 2675 428 
Q 3081 428 3442 575 
Q 3803 722 4122 1019 
L 4122 359 
Q 3791 134 3420 21 
Q 3050 -91 2638 -91 
Q 1578 -91 968 557 
Q 359 1206 359 2328 
Q 359 3453 968 4101 
Q 1578 4750 2638 4750 
Q 3056 4750 3426 4639 
Q 3797 4528 4122 4306 
z
" transform="scale(0.015625)"/>
      <path id="DejaVuSans-68" d="M 3513 2113 
L 3513 0 
L 2938 0 
L 2938 2094 
Q 2938 2591 2744 2837 
Q 2550 3084 2163 3084 
Q 1697 3084 1428 2787 
Q 1159 2491 1159 1978 
L 1159 0 
L 581 0 
L 581 4863 
L 1159 4863 
L 1159 2956 
Q 1366 3272 1645 3428 
Q 1925 3584 2291 3584 
Q 2894 3584 3203 3211 
Q 3513 2838 3513 2113 
z
" transform="scale(0.015625)"/>
      <path id="DejaVuSans-20" transform="scale(0.015625)"/>
      <path id="DejaVuSans-72" d="M 2631 2963 
Q 2534 3019 2420 3045 
Q 2306 3072 2169 3072 
Q 1681 3072 1420 2755 
Q 1159 2438 1159 1844 
L 1159 0 
L 581 0 
L 581 3500 
L 1159 3500 
L 1159 2956 
Q 1341 3275 1631 3429 
Q 1922 3584 2338 3584 
Q 2397 3584 2469 3576 
Q 2541 3569 2628 3553 
L 2631 2963 
z
" transform="scale(0.015625)"/>
      <path id="DejaVuSans-6f" d="M 1959 3097 
Q 1497 3097 1228 2736 
Q 959 2375 959 1747 
Q 959 1119 1226 758 
Q 1494 397 1959 397 
Q 2419 397 2687 759 
Q 2956 1122 2956 1747 
Q 2956 2369 2687 2733 
Q 2419 3097 1959 3097 
z
M 1959 3584 
Q 2709 3584 3137 3096 
Q 3566 2609 3566 1747 
Q 3566 888 3137 398 
Q 2709 -91 1959 -91 
Q 1206 -91 779 398 
Q 353 888 353 1747 
Q 353 2609 779 3096 
Q 1206 3584 1959 3584 
z
" transform="scale(0.015625)"/>
      <path id="DejaVuSans-63" d="M 3122 3366 
L 3122 2828 
Q 2878 2963 2633 3030 
Q 2388 3097 2138 3097 
Q 1578 3097 1268 2742 
Q 959 2388 959 1747 
Q 959 1106 1268 751 
Q 1578 397 2138 397 
Q 2388 397 2633 464 
Q 2878 531 3122 666 
L 3122 134 
Q 2881 22 2623 -34 
Q 2366 -91 2075 -91 
Q 1284 -91 818 406 
Q 353 903 353 1747 
Q 353 2603 823 3093 
Q 1294 3584 2113 3584 
Q 2378 3584 2631 3529 
Q 2884 3475 3122 3366 
z
" transform="scale(0.015625)"/>
      <path id="DejaVuSans-66" d="M 2375 4863 
L 2375 4384 
L 1825 4384 
Q 1516 4384 1395 4259 
Q 1275 4134 1275 3809 
L 1275 3500 
L 2222 3500 
L 2222 3053 
L 1275 3053 
L 1275 0 
L 697 0 
L 697 3053 
L 147 3053 
L 147 3500 
L 697 3500 
L 697 3744 
Q 697 4328 969 4595 
Q 1241 4863 1831 4863 
L 2375 4863 
z
" transform="scale(0.015625)"/>
      <path id="DejaVuSans-6b" d="M 581 4863 
L 1159 4863 
L 1159 1991 
L 2875 3500 
L 3609 3500 
L 1753 1863 
L 3688 0 
L 2938 0 
L 1159 1709 
L 1159 0 
L 581 0 
L 581 4863 
z
" transform="scale(0.015625)"/>
      <path id="DejaVuSans-6c" d="M 603 4863 
L 1178 4863 
L 1178 0 
L 603 0 
L 603 4863 
z
" transform="scale(0.015625)"/>
      <path id="DejaVuSans-76" d="M 191 3500 
L 800 3500 
L 1894 563 
L 2988 3500 
L 3597 3500 
L 2284 0 
L 1503 0 
L 191 3500 
z
" transform="scale(0.015625)"/>
     </defs>
     <use xlink:href="#DejaVuSans-43"/>
     <use xlink:href="#DejaVuSans-68" x="69.824219"/>
     <use xlink:href="#DejaVuSans-61" x="133.203125"/>
     <use xlink:href="#DejaVuSans-6e" x="194.482422"/>
     <use xlink:href="#DejaVuSans-67" x="257.861328"/>
     <use xlink:href="#DejaVuSans-65" x="321.337891"/>
     <use xlink:href="#DejaVuSans-20" x="382.861328"/>
     <use xlink:href="#DejaVuSans-69" x="414.648438"/>
     <use xlink:href="#DejaVuSans-6e" x="442.431641"/>
     <use xlink:href="#DejaVuSans-20" x="505.810547"/>
     <use xlink:href="#DejaVuSans-72" x="537.597656"/>
     <use xlink:href="#DejaVuSans-6f" x="576.460938"/>
     <use xlink:href="#DejaVuSans-74" x="637.642578"/>
     <use xlink:href="#DejaVuSans-61" x="676.851562"/>
     <use xlink:href="#DejaVuSans-74" x="738.130859"/>
     <use xlink:href="#DejaVuSans-69" x="777.339844"/>
     <use xlink:href="#DejaVuSans-6f" x="805.123047"/>
     <use xlink:href="#DejaVuSans-6e" x="866.304688"/>
     <use xlink:href="#DejaVuSans-20" x="929.683594"/>
     <use xlink:href="#DejaVuSans-63" x="961.470703"/>
     <use xlink:href="#DejaVuSans-6f" x="1016.451172"/>
     <use xlink:href="#DejaVuSans-6d" x="1077.632812"/>
     <use xlink:href="#DejaVuSans-70" x="1175.044922"/>
     <use xlink:href="#DejaVuSans-6f" x="1238.521484"/>
     <use xlink:href="#DejaVuSans-6e" x="1299.703125"/>
     <use xlink:href="#DejaVuSans-65" x="1363.082031"/>
     <use xlink:href="#DejaVuSans-6e" x="1424.605469"/>
     <use xlink:href="#DejaVuSans-74" x="1487.984375"/>
     <use xlink:href="#DejaVuSans-73" x="1527.193359"/>
     <use xlink:href="#DejaVuSans-20" x="1579.292969"/>
     <use xlink:href="#DejaVuSans-66" x="1611.080078"/>
     <use xlink:href="#DejaVuSans-6f" x="1646.285156"/>
     <use xlink:href="#DejaVuSans-72" x="1707.466797"/>
     <use xlink:href="#DejaVuSans-20" x="1748.580078"/>
     <use xlink:href="#DejaVuSans-72" x="1780.367188"/>
     <use xlink:href="#DejaVuSans-6f" x="1819.230469"/>
     <use xlink:href="#DejaVuSans-74" x="1880.412109"/>
     <use xlink:href="#DejaVuSans-61" x="1919.621094"/>
     <use xlink:href="#DejaVuSans-74" x="1980.900391"/>
     <use xlink:href="#DejaVuSans-69" x="2020.109375"/>
     <use xlink:href="#DejaVuSans-6e" x="2047.892578"/>
     <use xlink:href="#DejaVuSans-67" x="2111.271484"/>
     <use xlink:href="#DejaVuSans-20" x="2174.748047"/>
     <use xlink:href="#DejaVuSans-20" x="2206.535156"/>
     <use xlink:href="#DejaVuSans-6e" x="2238.322266"/>
     <use xlink:href="#DejaVuSans-65" x="2301.701172"/>
     <use xlink:href="#DejaVuSans-63" x="2363.224609"/>
     <use xlink:href="#DejaVuSans-6b" x="2418.205078"/>
     <use xlink:href="#DejaVuSans-20" x="2476.115234"/>
     <use xlink:href="#DejaVuSans-6c" x="2507.902344"/>
     <use xlink:href="#DejaVuSans-65" x="2535.685547"/>
     <use xlink:href="#DejaVuSans-66" x="2597.208984"/>
     <use xlink:href="#DejaVuSans-74" x="2630.664062"/>
     <use xlink:href="#DejaVuSans-20" x="2669.873047"/>
     <use xlink:href="#DejaVuSans-61" x="2701.660156"/>
     <use xlink:href="#DejaVuSans-6e" x="2762.939453"/>
     <use xlink:href="#DejaVuSans-64" x="2826.318359"/>
     <use xlink:href="#DejaVuSans-20" x="2889.794922"/>
     <use xlink:href="#DejaVuSans-72" x="2921.582031"/>
     <use xlink:href="#DejaVuSans-69" x="2962.695312"/>
     <use xlink:href="#DejaVuSans-67" x="2990.478516"/>
     <use xlink:href="#DejaVuSans-68" x="3053.955078"/>
     <use xlink:href="#DejaVuSans-74" x="3117.333984"/>
     <use xlink:href="#DejaVuSans-20" x="3156.542969"/>
     <use xlink:href="#DejaVuSans-73" x="3188.330078"/>
     <use xlink:href="#DejaVuSans-74" x="3240.429688"/>
     <use xlink:href="#DejaVuSans-61" x="3279.638672"/>
     <use xlink:href="#DejaVuSans-72" x="3340.917969"/>
     <use xlink:href="#DejaVuSans-74" x="3382.03125"/>
     <use xlink:href="#DejaVuSans-69" x="3421.240234"/>
     <use xlink:href="#DejaVuSans-6e" x="3449.023438"/>
     <use xlink:href="#DejaVuSans-67" x="3512.402344"/>
     <use xlink:href="#DejaVuSans-20" x="3575.878906"/>
     <use xlink:href="#DejaVuSans-66" x="3607.666016"/>
     <use xlink:href="#DejaVuSans-72" x="3642.871094"/>
     <use xlink:href="#DejaVuSans-6f" x="3681.734375"/>
     <use xlink:href="#DejaVuSans-6d" x="3742.916016"/>
     <use xlink:href="#DejaVuSans-20" x="3840.328125"/>
     <use xlink:href="#DejaVuSans-63" x="3872.115234"/>
     <use xlink:href="#DejaVuSans-65" x="3927.095703"/>
     <use xlink:href="#DejaVuSans-6e" x="3988.619141"/>
     <use xlink:href="#DejaVuSans-74" x="4051.998047"/>
     <use xlink:href="#DejaVuSans-72" x="4091.207031"/>
     <use xlink:href="#DejaVuSans-65" x="4130.070312"/>
     <use xlink:href="#DejaVuSans-20" x="4191.59375"/>
     <use xlink:href="#DejaVuSans-6d" x="4223.380859"/>
     <use xlink:href="#DejaVuSans-6f" x="4320.792969"/>
     <use xlink:href="#DejaVuSans-76" x="4381.974609"/>
     <use xlink:href="#DejaVuSans-69" x="4441.154297"/>
     <use xlink:href="#DejaVuSans-6e" x="4468.9375"/>
     <use xlink:href="#DejaVuSans-67" x="4532.316406"/>
     <use xlink:href="#DejaVuSans-20" x="4595.792969"/>
     <use xlink:href="#DejaVuSans-72" x="4627.580078"/>
     <use xlink:href="#DejaVuSans-69" x="4668.693359"/>
     <use xlink:href="#DejaVuSans-67" x="4696.476562"/>
     <use xlink:href="#DejaVuSans-68" x="4759.953125"/>
     <use xlink:href="#DejaVuSans-74" x="4823.332031"/>
    </g>
   </g>
   <g id="legend_1">
    <g id="patch_7">
     <path d="M 64.6 198.045187 
L 121.185937 198.045187 
Q 123.185937 198.045187 123.185937 196.045187 
L 123.185937 153.010812 
Q 123.185937 151.010812 121.185937 151.010812 
L 64.6 151.010812 
Q 62.6 151.010812 62.6 153.010812 
L 62.6 196.045187 
Q 62.6 198.045187 64.6 198.045187 
z
" style="fill: #ffffff; opacity: 0.8; stroke: #cccccc; stroke-linejoin: miter"/>
    </g>
    <g id="line2d_19">
     <path d="M 66.6 159.10925 
L 76.6 159.10925 
L 86.6 159.10925 
" style="fill: none; stroke: #1f77b4; stroke-width: 1.5; stroke-linecap: square"/>
    </g>
    <g id="text_19">
     <!-- idx 0 -->
     <g transform="translate(94.6 162.60925)scale(0.1 -0.1)">
      <defs>
       <path id="DejaVuSans-78" d="M 3513 3500 
L 2247 1797 
L 3578 0 
L 2900 0 
L 1881 1375 
L 863 0 
L 184 0 
L 1544 1831 
L 300 3500 
L 978 3500 
L 1906 2253 
L 2834 3500 
L 3513 3500 
z
" transform="scale(0.015625)"/>
      </defs>
      <use xlink:href="#DejaVuSans-69"/>
      <use xlink:href="#DejaVuSans-64" x="27.783203"/>
      <use xlink:href="#DejaVuSans-78" x="91.259766"/>
      <use xlink:href="#DejaVuSans-20" x="150.439453"/>
      <use xlink:href="#DejaVuSans-30" x="182.226562"/>
     </g>
    </g>
    <g id="line2d_20">
     <path d="M 66.6 173.787375 
L 76.6 173.787375 
L 86.6 173.787375 
" style="fill: none; stroke: #ff7f0e; stroke-width: 1.5; stroke-linecap: square"/>
    </g>
    <g id="text_20">
     <!-- idx 1 -->
     <g transform="translate(94.6 177.287375)scale(0.1 -0.1)">
      <use xlink:href="#DejaVuSans-69"/>
      <use xlink:href="#DejaVuSans-64" x="27.783203"/>
      <use xlink:href="#DejaVuSans-78" x="91.259766"/>
      <use xlink:href="#DejaVuSans-20" x="150.439453"/>
      <use xlink:href="#DejaVuSans-31" x="182.226562"/>
     </g>
    </g>
    <g id="line2d_21">
     <path d="M 66.6 188.4655 
L 76.6 188.4655 
L 86.6 188.4655 
" style="fill: none; stroke: #2ca02c; stroke-width: 1.5; stroke-linecap: square"/>
    </g>
    <g id="text_21">
     <!-- idx 2 -->
     <g transform="translate(94.6 191.9655)scale(0.1 -0.1)">
      <use xlink:href="#DejaVuSans-69"/>
      <use xlink:href="#DejaVuSans-64" x="27.783203"/>
      <use xlink:href="#DejaVuSans-78" x="91.259766"/>
      <use xlink:href="#DejaVuSans-20" x="150.439453"/>
      <use xlink:href="#DejaVuSans-32" x="182.226562"/>
     </g>
    </g>
   </g>
  </g>
 </g>
 <defs>
  <clipPath id="p5e3510f329">
   <rect x="57.6" y="41.472" width="357.12" height="266.112"/>
  </clipPath>
 </defs>
</svg>
