<?xml version="1.0" encoding="utf-8" standalone="no"?>
<!DOCTYPE svg PUBLIC "-//W3C//DTD SVG 1.1//EN"
  "http://www.w3.org/Graphics/SVG/1.1/DTD/svg11.dtd">
<svg xmlns:xlink="http://www.w3.org/1999/xlink" width="460.8pt" height="345.6pt" viewBox="0 0 460.8 345.6" xmlns="http://www.w3.org/2000/svg" version="1.1">
 <metadata>
  <rdf:RDF xmlns:dc="http://purl.org/dc/elements/1.1/" xmlns:cc="http://creativecommons.org/ns#" xmlns:rdf="http://www.w3.org/1999/02/22-rdf-syntax-ns#">
   <cc:Work>
    <dc:type rdf:resource="http://purl.org/dc/dcmitype/StillImage"/>
    <dc:date>2024-01-30T14:09:35.624560</dc:date>
    <dc:format>image/svg+xml</dc:format>
    <dc:creator>
     <cc:Agent>
      <dc:title>Matplotlib v3.5.0, https://matplotlib.org/</dc:title>
     </cc:Agent>
    </dc:creator>
   </cc:Work>
  </rdf:RDF>
 </metadata>
 <defs>
  <style type="text/css">*{stroke-linejoin: round; stroke-linecap: butt}</style>
 </defs>
 <g id="figure_1">
  <g id="patch_1">
   <path d="M 0 345.6 
L 460.8 345.6 
L 460.8 0 
L 0 0 
z
" style="fill: #ffffff"/>
  </g>
  <g id="axes_1">
   <g id="patch_2">
    <path d="M 57.6 307.584 
L 414.72 307.584 
L 414.72 41.472 
L 57.6 41.472 
z
" style="fill: #ffffff"/>
   </g>
   <g id="matplotlib.axis_1">
    <g id="xtick_1">
     <g id="line2d_1">
      <defs>
       <path id="m1798c5cc62" d="M 0 0 
L 0 3.5 
" style="stroke: #000000; stroke-width: 0.8"/>
      </defs>
      <g>
       <use xlink:href="#m1798c5cc62" x="73.832727" y="307.584" style="stroke: #000000; stroke-width: 0.8"/>
      </g>
     </g>
     <g id="text_1">
      <!-- 0 -->
      <g transform="translate(70.651477 322.182437)scale(0.1 -0.1)">
       <defs>
        <path id="DejaVuSans-30" d="M 2034 4250 
Q 1547 4250 1301 3770 
Q 1056 3291 1056 2328 
Q 1056 1369 1301 889 
Q 1547 409 2034 409 
Q 2525 409 2770 889 
Q 3016 1369 3016 2328 
Q 3016 3291 2770 3770 
Q 2525 4250 2034 4250 
z
M 2034 4750 
Q 2819 4750 3233 4129 
Q 3647 3509 3647 2328 
Q 3647 1150 3233 529 
Q 2819 -91 2034 -91 
Q 1250 -91 836 529 
Q 422 1150 422 2328 
Q 422 3509 836 4129 
Q 1250 4750 2034 4750 
z
" transform="scale(0.015625)"/>
       </defs>
       <use xlink:href="#DejaVuSans-30"/>
      </g>
     </g>
    </g>
    <g id="xtick_2">
     <g id="line2d_2">
      <g>
       <use xlink:href="#m1798c5cc62" x="138.828632" y="307.584" style="stroke: #000000; stroke-width: 0.8"/>
      </g>
     </g>
     <g id="text_2">
      <!-- 200 -->
      <g transform="translate(129.284882 322.182437)scale(0.1 -0.1)">
       <defs>
        <path id="DejaVuSans-32" d="M 1228 531 
L 3431 531 
L 3431 0 
L 469 0 
L 469 531 
Q 828 903 1448 1529 
Q 2069 2156 2228 2338 
Q 2531 2678 2651 2914 
Q 2772 3150 2772 3378 
Q 2772 3750 2511 3984 
Q 2250 4219 1831 4219 
Q 1534 4219 1204 4116 
Q 875 4013 500 3803 
L 500 4441 
Q 881 4594 1212 4672 
Q 1544 4750 1819 4750 
Q 2544 4750 2975 4387 
Q 3406 4025 3406 3419 
Q 3406 3131 3298 2873 
Q 3191 2616 2906 2266 
Q 2828 2175 2409 1742 
Q 1991 1309 1228 531 
z
" transform="scale(0.015625)"/>
       </defs>
       <use xlink:href="#DejaVuSans-32"/>
       <use xlink:href="#DejaVuSans-30" x="63.623047"/>
       <use xlink:href="#DejaVuSans-30" x="127.246094"/>
      </g>
     </g>
    </g>
    <g id="xtick_3">
     <g id="line2d_3">
      <g>
       <use xlink:href="#m1798c5cc62" x="203.824537" y="307.584" style="stroke: #000000; stroke-width: 0.8"/>
      </g>
     </g>
     <g id="text_3">
      <!-- 400 -->
      <g transform="translate(194.280787 322.182437)scale(0.1 -0.1)">
       <defs>
        <path id="DejaVuSans-34" d="M 2419 4116 
L 825 1625 
L 2419 1625 
L 2419 4116 
z
M 2253 4666 
L 3047 4666 
L 3047 1625 
L 3713 1625 
L 3713 1100 
L 3047 1100 
L 3047 0 
L 2419 0 
L 2419 1100 
L 313 1100 
L 313 1709 
L 2253 4666 
z
" transform="scale(0.015625)"/>
       </defs>
       <use xlink:href="#DejaVuSans-34"/>
       <use xlink:href="#DejaVuSans-30" x="63.623047"/>
       <use xlink:href="#DejaVuSans-30" x="127.246094"/>
      </g>
     </g>
    </g>
    <g id="xtick_4">
     <g id="line2d_4">
      <g>
       <use xlink:href="#m1798c5cc62" x="268.820442" y="307.584" style="stroke: #000000; stroke-width: 0.8"/>
      </g>
     </g>
     <g id="text_4">
      <!-- 600 -->
      <g transform="translate(259.276692 322.182437)scale(0.1 -0.1)">
       <defs>
        <path id="DejaVuSans-36" d="M 2113 2584 
Q 1688 2584 1439 2293 
Q 1191 2003 1191 1497 
Q 1191 994 1439 701 
Q 1688 409 2113 409 
Q 2538 409 2786 701 
Q 3034 994 3034 1497 
Q 3034 2003 2786 2293 
Q 2538 2584 2113 2584 
z
M 3366 4563 
L 3366 3988 
Q 3128 4100 2886 4159 
Q 2644 4219 2406 4219 
Q 1781 4219 1451 3797 
Q 1122 3375 1075 2522 
Q 1259 2794 1537 2939 
Q 1816 3084 2150 3084 
Q 2853 3084 3261 2657 
Q 3669 2231 3669 1497 
Q 3669 778 3244 343 
Q 2819 -91 2113 -91 
Q 1303 -91 875 529 
Q 447 1150 447 2328 
Q 447 3434 972 4092 
Q 1497 4750 2381 4750 
Q 2619 4750 2861 4703 
Q 3103 4656 3366 4563 
z
" transform="scale(0.015625)"/>
       </defs>
       <use xlink:href="#DejaVuSans-36"/>
       <use xlink:href="#DejaVuSans-30" x="63.623047"/>
       <use xlink:href="#DejaVuSans-30" x="127.246094"/>
      </g>
     </g>
    </g>
    <g id="xtick_5">
     <g id="line2d_5">
      <g>
       <use xlink:href="#m1798c5cc62" x="333.816347" y="307.584" style="stroke: #000000; stroke-width: 0.8"/>
      </g>
     </g>
     <g id="text_5">
      <!-- 800 -->
      <g transform="translate(324.272597 322.182437)scale(0.1 -0.1)">
       <defs>
        <path id="DejaVuSans-38" d="M 2034 2216 
Q 1584 2216 1326 1975 
Q 1069 1734 1069 1313 
Q 1069 891 1326 650 
Q 1584 409 2034 409 
Q 2484 409 2743 651 
Q 3003 894 3003 1313 
Q 3003 1734 2745 1975 
Q 2488 2216 2034 2216 
z
M 1403 2484 
Q 997 2584 770 2862 
Q 544 3141 544 3541 
Q 544 4100 942 4425 
Q 1341 4750 2034 4750 
Q 2731 4750 3128 4425 
Q 3525 4100 3525 3541 
Q 3525 3141 3298 2862 
Q 3072 2584 2669 2484 
Q 3125 2378 3379 2068 
Q 3634 1759 3634 1313 
Q 3634 634 3220 271 
Q 2806 -91 2034 -91 
Q 1263 -91 848 271 
Q 434 634 434 1313 
Q 434 1759 690 2068 
Q 947 2378 1403 2484 
z
M 1172 3481 
Q 1172 3119 1398 2916 
Q 1625 2713 2034 2713 
Q 2441 2713 2670 2916 
Q 2900 3119 2900 3481 
Q 2900 3844 2670 4047 
Q 2441 4250 2034 4250 
Q 1625 4250 1398 4047 
Q 1172 3844 1172 3481 
z
" transform="scale(0.015625)"/>
       </defs>
       <use xlink:href="#DejaVuSans-38"/>
       <use xlink:href="#DejaVuSans-30" x="63.623047"/>
       <use xlink:href="#DejaVuSans-30" x="127.246094"/>
      </g>
     </g>
    </g>
    <g id="xtick_6">
     <g id="line2d_6">
      <g>
       <use xlink:href="#m1798c5cc62" x="398.812252" y="307.584" style="stroke: #000000; stroke-width: 0.8"/>
      </g>
     </g>
     <g id="text_6">
      <!-- 1000 -->
      <g transform="translate(386.087252 322.182437)scale(0.1 -0.1)">
       <defs>
        <path id="DejaVuSans-31" d="M 794 531 
L 1825 531 
L 1825 4091 
L 703 3866 
L 703 4441 
L 1819 4666 
L 2450 4666 
L 2450 531 
L 3481 531 
L 3481 0 
L 794 0 
L 794 531 
z
" transform="scale(0.015625)"/>
       </defs>
       <use xlink:href="#DejaVuSans-31"/>
       <use xlink:href="#DejaVuSans-30" x="63.623047"/>
       <use xlink:href="#DejaVuSans-30" x="127.246094"/>
       <use xlink:href="#DejaVuSans-30" x="190.869141"/>
      </g>
     </g>
    </g>
    <g id="text_7">
     <!-- Timestamps -->
     <g transform="translate(190.392422 339.659781)scale(0.15 -0.15)">
      <defs>
       <path id="DejaVuSans-54" d="M -19 4666 
L 3928 4666 
L 3928 4134 
L 2272 4134 
L 2272 0 
L 1638 0 
L 1638 4134 
L -19 4134 
L -19 4666 
z
" transform="scale(0.015625)"/>
       <path id="DejaVuSans-69" d="M 603 3500 
L 1178 3500 
L 1178 0 
L 603 0 
L 603 3500 
z
M 603 4863 
L 1178 4863 
L 1178 4134 
L 603 4134 
L 603 4863 
z
" transform="scale(0.015625)"/>
       <path id="DejaVuSans-6d" d="M 3328 2828 
Q 3544 3216 3844 3400 
Q 4144 3584 4550 3584 
Q 5097 3584 5394 3201 
Q 5691 2819 5691 2113 
L 5691 0 
L 5113 0 
L 5113 2094 
Q 5113 2597 4934 2840 
Q 4756 3084 4391 3084 
Q 3944 3084 3684 2787 
Q 3425 2491 3425 1978 
L 3425 0 
L 2847 0 
L 2847 2094 
Q 2847 2600 2669 2842 
Q 2491 3084 2119 3084 
Q 1678 3084 1418 2786 
Q 1159 2488 1159 1978 
L 1159 0 
L 581 0 
L 581 3500 
L 1159 3500 
L 1159 2956 
Q 1356 3278 1631 3431 
Q 1906 3584 2284 3584 
Q 2666 3584 2933 3390 
Q 3200 3197 3328 2828 
z
" transform="scale(0.015625)"/>
       <path id="DejaVuSans-65" d="M 3597 1894 
L 3597 1613 
L 953 1613 
Q 991 1019 1311 708 
Q 1631 397 2203 397 
Q 2534 397 2845 478 
Q 3156 559 3463 722 
L 3463 178 
Q 3153 47 2828 -22 
Q 2503 -91 2169 -91 
Q 1331 -91 842 396 
Q 353 884 353 1716 
Q 353 2575 817 3079 
Q 1281 3584 2069 3584 
Q 2775 3584 3186 3129 
Q 3597 2675 3597 1894 
z
M 3022 2063 
Q 3016 2534 2758 2815 
Q 2500 3097 2075 3097 
Q 1594 3097 1305 2825 
Q 1016 2553 972 2059 
L 3022 2063 
z
" transform="scale(0.015625)"/>
       <path id="DejaVuSans-73" d="M 2834 3397 
L 2834 2853 
Q 2591 2978 2328 3040 
Q 2066 3103 1784 3103 
Q 1356 3103 1142 2972 
Q 928 2841 928 2578 
Q 928 2378 1081 2264 
Q 1234 2150 1697 2047 
L 1894 2003 
Q 2506 1872 2764 1633 
Q 3022 1394 3022 966 
Q 3022 478 2636 193 
Q 2250 -91 1575 -91 
Q 1294 -91 989 -36 
Q 684 19 347 128 
L 347 722 
Q 666 556 975 473 
Q 1284 391 1588 391 
Q 1994 391 2212 530 
Q 2431 669 2431 922 
Q 2431 1156 2273 1281 
Q 2116 1406 1581 1522 
L 1381 1569 
Q 847 1681 609 1914 
Q 372 2147 372 2553 
Q 372 3047 722 3315 
Q 1072 3584 1716 3584 
Q 2034 3584 2315 3537 
Q 2597 3491 2834 3397 
z
" transform="scale(0.015625)"/>
       <path id="DejaVuSans-74" d="M 1172 4494 
L 1172 3500 
L 2356 3500 
L 2356 3053 
L 1172 3053 
L 1172 1153 
Q 1172 725 1289 603 
Q 1406 481 1766 481 
L 2356 481 
L 2356 0 
L 1766 0 
Q 1100 0 847 248 
Q 594 497 594 1153 
L 594 3053 
L 172 3053 
L 172 3500 
L 594 3500 
L 594 4494 
L 1172 4494 
z
" transform="scale(0.015625)"/>
       <path id="DejaVuSans-61" d="M 2194 1759 
Q 1497 1759 1228 1600 
Q 959 1441 959 1056 
Q 959 750 1161 570 
Q 1363 391 1709 391 
Q 2188 391 2477 730 
Q 2766 1069 2766 1631 
L 2766 1759 
L 2194 1759 
z
M 3341 1997 
L 3341 0 
L 2766 0 
L 2766 531 
Q 2569 213 2275 61 
Q 1981 -91 1556 -91 
Q 1019 -91 701 211 
Q 384 513 384 1019 
Q 384 1609 779 1909 
Q 1175 2209 1959 2209 
L 2766 2209 
L 2766 2266 
Q 2766 2663 2505 2880 
Q 2244 3097 1772 3097 
Q 1472 3097 1187 3025 
Q 903 2953 641 2809 
L 641 3341 
Q 956 3463 1253 3523 
Q 1550 3584 1831 3584 
Q 2591 3584 2966 3190 
Q 3341 2797 3341 1997 
z
" transform="scale(0.015625)"/>
       <path id="DejaVuSans-70" d="M 1159 525 
L 1159 -1331 
L 581 -1331 
L 581 3500 
L 1159 3500 
L 1159 2969 
Q 1341 3281 1617 3432 
Q 1894 3584 2278 3584 
Q 2916 3584 3314 3078 
Q 3713 2572 3713 1747 
Q 3713 922 3314 415 
Q 2916 -91 2278 -91 
Q 1894 -91 1617 61 
Q 1341 213 1159 525 
z
M 3116 1747 
Q 3116 2381 2855 2742 
Q 2594 3103 2138 3103 
Q 1681 3103 1420 2742 
Q 1159 2381 1159 1747 
Q 1159 1113 1420 752 
Q 1681 391 2138 391 
Q 2594 391 2855 752 
Q 3116 1113 3116 1747 
z
" transform="scale(0.015625)"/>
      </defs>
      <use xlink:href="#DejaVuSans-54"/>
      <use xlink:href="#DejaVuSans-69" x="57.958984"/>
      <use xlink:href="#DejaVuSans-6d" x="85.742188"/>
      <use xlink:href="#DejaVuSans-65" x="183.154297"/>
      <use xlink:href="#DejaVuSans-73" x="244.677734"/>
      <use xlink:href="#DejaVuSans-74" x="296.777344"/>
      <use xlink:href="#DejaVuSans-61" x="335.986328"/>
      <use xlink:href="#DejaVuSans-6d" x="397.265625"/>
      <use xlink:href="#DejaVuSans-70" x="494.677734"/>
      <use xlink:href="#DejaVuSans-73" x="558.154297"/>
     </g>
    </g>
   </g>
   <g id="matplotlib.axis_2">
    <g id="ytick_1">
     <g id="line2d_7">
      <defs>
       <path id="m80934f477f" d="M 0 0 
L -3.5 0 
" style="stroke: #000000; stroke-width: 0.8"/>
      </defs>
      <g>
       <use xlink:href="#m80934f477f" x="57.6" y="295.526589" style="stroke: #000000; stroke-width: 0.8"/>
      </g>
     </g>
     <g id="text_8">
      <!-- −1.00 -->
      <g transform="translate(19.954687 299.325808)scale(0.1 -0.1)">
       <defs>
        <path id="DejaVuSans-2212" d="M 678 2272 
L 4684 2272 
L 4684 1741 
L 678 1741 
L 678 2272 
z
" transform="scale(0.015625)"/>
        <path id="DejaVuSans-2e" d="M 684 794 
L 1344 794 
L 1344 0 
L 684 0 
L 684 794 
z
" transform="scale(0.015625)"/>
       </defs>
       <use xlink:href="#DejaVuSans-2212"/>
       <use xlink:href="#DejaVuSans-31" x="83.789062"/>
       <use xlink:href="#DejaVuSans-2e" x="147.412109"/>
       <use xlink:href="#DejaVuSans-30" x="179.199219"/>
       <use xlink:href="#DejaVuSans-30" x="242.822266"/>
      </g>
     </g>
    </g>
    <g id="ytick_2">
     <g id="line2d_8">
      <g>
       <use xlink:href="#m80934f477f" x="57.6" y="264.088773" style="stroke: #000000; stroke-width: 0.8"/>
      </g>
     </g>
     <g id="text_9">
      <!-- −0.75 -->
      <g transform="translate(19.954687 267.887991)scale(0.1 -0.1)">
       <defs>
        <path id="DejaVuSans-37" d="M 525 4666 
L 3525 4666 
L 3525 4397 
L 1831 0 
L 1172 0 
L 2766 4134 
L 525 4134 
L 525 4666 
z
" transform="scale(0.015625)"/>
        <path id="DejaVuSans-35" d="M 691 4666 
L 3169 4666 
L 3169 4134 
L 1269 4134 
L 1269 2991 
Q 1406 3038 1543 3061 
Q 1681 3084 1819 3084 
Q 2600 3084 3056 2656 
Q 3513 2228 3513 1497 
Q 3513 744 3044 326 
Q 2575 -91 1722 -91 
Q 1428 -91 1123 -41 
Q 819 9 494 109 
L 494 744 
Q 775 591 1075 516 
Q 1375 441 1709 441 
Q 2250 441 2565 725 
Q 2881 1009 2881 1497 
Q 2881 1984 2565 2268 
Q 2250 2553 1709 2553 
Q 1456 2553 1204 2497 
Q 953 2441 691 2322 
L 691 4666 
z
" transform="scale(0.015625)"/>
       </defs>
       <use xlink:href="#DejaVuSans-2212"/>
       <use xlink:href="#DejaVuSans-30" x="83.789062"/>
       <use xlink:href="#DejaVuSans-2e" x="147.412109"/>
       <use xlink:href="#DejaVuSans-37" x="179.199219"/>
       <use xlink:href="#DejaVuSans-35" x="242.822266"/>
      </g>
     </g>
    </g>
    <g id="ytick_3">
     <g id="line2d_9">
      <g>
       <use xlink:href="#m80934f477f" x="57.6" y="232.650956" style="stroke: #000000; stroke-width: 0.8"/>
      </g>
     </g>
     <g id="text_10">
      <!-- −0.50 -->
      <g transform="translate(19.954687 236.450175)scale(0.1 -0.1)">
       <use xlink:href="#DejaVuSans-2212"/>
       <use xlink:href="#DejaVuSans-30" x="83.789062"/>
       <use xlink:href="#DejaVuSans-2e" x="147.412109"/>
       <use xlink:href="#DejaVuSans-35" x="179.199219"/>
       <use xlink:href="#DejaVuSans-30" x="242.822266"/>
      </g>
     </g>
    </g>
    <g id="ytick_4">
     <g id="line2d_10">
      <g>
       <use xlink:href="#m80934f477f" x="57.6" y="201.21314" style="stroke: #000000; stroke-width: 0.8"/>
      </g>
     </g>
     <g id="text_11">
      <!-- −0.25 -->
      <g transform="translate(19.954687 205.012359)scale(0.1 -0.1)">
       <use xlink:href="#DejaVuSans-2212"/>
       <use xlink:href="#DejaVuSans-30" x="83.789062"/>
       <use xlink:href="#DejaVuSans-2e" x="147.412109"/>
       <use xlink:href="#DejaVuSans-32" x="179.199219"/>
       <use xlink:href="#DejaVuSans-35" x="242.822266"/>
      </g>
     </g>
    </g>
    <g id="ytick_5">
     <g id="line2d_11">
      <g>
       <use xlink:href="#m80934f477f" x="57.6" y="169.775324" style="stroke: #000000; stroke-width: 0.8"/>
      </g>
     </g>
     <g id="text_12">
      <!-- 0.00 -->
      <g transform="translate(28.334375 173.574542)scale(0.1 -0.1)">
       <use xlink:href="#DejaVuSans-30"/>
       <use xlink:href="#DejaVuSans-2e" x="63.623047"/>
       <use xlink:href="#DejaVuSans-30" x="95.410156"/>
       <use xlink:href="#DejaVuSans-30" x="159.033203"/>
      </g>
     </g>
    </g>
    <g id="ytick_6">
     <g id="line2d_12">
      <g>
       <use xlink:href="#m80934f477f" x="57.6" y="138.337507" style="stroke: #000000; stroke-width: 0.8"/>
      </g>
     </g>
     <g id="text_13">
      <!-- 0.25 -->
      <g transform="translate(28.334375 142.136726)scale(0.1 -0.1)">
       <use xlink:href="#DejaVuSans-30"/>
       <use xlink:href="#DejaVuSans-2e" x="63.623047"/>
       <use xlink:href="#DejaVuSans-32" x="95.410156"/>
       <use xlink:href="#DejaVuSans-35" x="159.033203"/>
      </g>
     </g>
    </g>
    <g id="ytick_7">
     <g id="line2d_13">
      <g>
       <use xlink:href="#m80934f477f" x="57.6" y="106.899691" style="stroke: #000000; stroke-width: 0.8"/>
      </g>
     </g>
     <g id="text_14">
      <!-- 0.50 -->
      <g transform="translate(28.334375 110.69891)scale(0.1 -0.1)">
       <use xlink:href="#DejaVuSans-30"/>
       <use xlink:href="#DejaVuSans-2e" x="63.623047"/>
       <use xlink:href="#DejaVuSans-35" x="95.410156"/>
       <use xlink:href="#DejaVuSans-30" x="159.033203"/>
      </g>
     </g>
    </g>
    <g id="ytick_8">
     <g id="line2d_14">
      <g>
       <use xlink:href="#m80934f477f" x="57.6" y="75.461875" style="stroke: #000000; stroke-width: 0.8"/>
      </g>
     </g>
     <g id="text_15">
      <!-- 0.75 -->
      <g transform="translate(28.334375 79.261093)scale(0.1 -0.1)">
       <use xlink:href="#DejaVuSans-30"/>
       <use xlink:href="#DejaVuSans-2e" x="63.623047"/>
       <use xlink:href="#DejaVuSans-37" x="95.410156"/>
       <use xlink:href="#DejaVuSans-35" x="159.033203"/>
      </g>
     </g>
    </g>
    <g id="ytick_9">
     <g id="line2d_15">
      <g>
       <use xlink:href="#m80934f477f" x="57.6" y="44.024058" style="stroke: #000000; stroke-width: 0.8"/>
      </g>
     </g>
     <g id="text_16">
      <!-- 1.00 -->
      <g transform="translate(28.334375 47.823277)scale(0.1 -0.1)">
       <use xlink:href="#DejaVuSans-31"/>
       <use xlink:href="#DejaVuSans-2e" x="63.623047"/>
       <use xlink:href="#DejaVuSans-30" x="95.410156"/>
       <use xlink:href="#DejaVuSans-30" x="159.033203"/>
      </g>
     </g>
    </g>
    <g id="text_17">
     <!-- Magnitude -->
     <g transform="translate(12.835156 214.262766)rotate(-90)scale(0.15 -0.15)">
      <defs>
       <path id="DejaVuSans-4d" d="M 628 4666 
L 1569 4666 
L 2759 1491 
L 3956 4666 
L 4897 4666 
L 4897 0 
L 4281 0 
L 4281 4097 
L 3078 897 
L 2444 897 
L 1241 4097 
L 1241 0 
L 628 0 
L 628 4666 
z
" transform="scale(0.015625)"/>
       <path id="DejaVuSans-67" d="M 2906 1791 
Q 2906 2416 2648 2759 
Q 2391 3103 1925 3103 
Q 1463 3103 1205 2759 
Q 947 2416 947 1791 
Q 947 1169 1205 825 
Q 1463 481 1925 481 
Q 2391 481 2648 825 
Q 2906 1169 2906 1791 
z
M 3481 434 
Q 3481 -459 3084 -895 
Q 2688 -1331 1869 -1331 
Q 1566 -1331 1297 -1286 
Q 1028 -1241 775 -1147 
L 775 -588 
Q 1028 -725 1275 -790 
Q 1522 -856 1778 -856 
Q 2344 -856 2625 -561 
Q 2906 -266 2906 331 
L 2906 616 
Q 2728 306 2450 153 
Q 2172 0 1784 0 
Q 1141 0 747 490 
Q 353 981 353 1791 
Q 353 2603 747 3093 
Q 1141 3584 1784 3584 
Q 2172 3584 2450 3431 
Q 2728 3278 2906 2969 
L 2906 3500 
L 3481 3500 
L 3481 434 
z
" transform="scale(0.015625)"/>
       <path id="DejaVuSans-6e" d="M 3513 2113 
L 3513 0 
L 2938 0 
L 2938 2094 
Q 2938 2591 2744 2837 
Q 2550 3084 2163 3084 
Q 1697 3084 1428 2787 
Q 1159 2491 1159 1978 
L 1159 0 
L 581 0 
L 581 3500 
L 1159 3500 
L 1159 2956 
Q 1366 3272 1645 3428 
Q 1925 3584 2291 3584 
Q 2894 3584 3203 3211 
Q 3513 2838 3513 2113 
z
" transform="scale(0.015625)"/>
       <path id="DejaVuSans-75" d="M 544 1381 
L 544 3500 
L 1119 3500 
L 1119 1403 
Q 1119 906 1312 657 
Q 1506 409 1894 409 
Q 2359 409 2629 706 
Q 2900 1003 2900 1516 
L 2900 3500 
L 3475 3500 
L 3475 0 
L 2900 0 
L 2900 538 
Q 2691 219 2414 64 
Q 2138 -91 1772 -91 
Q 1169 -91 856 284 
Q 544 659 544 1381 
z
M 1991 3584 
L 1991 3584 
z
" transform="scale(0.015625)"/>
       <path id="DejaVuSans-64" d="M 2906 2969 
L 2906 4863 
L 3481 4863 
L 3481 0 
L 2906 0 
L 2906 525 
Q 2725 213 2448 61 
Q 2172 -91 1784 -91 
Q 1150 -91 751 415 
Q 353 922 353 1747 
Q 353 2572 751 3078 
Q 1150 3584 1784 3584 
Q 2172 3584 2448 3432 
Q 2725 3281 2906 2969 
z
M 947 1747 
Q 947 1113 1208 752 
Q 1469 391 1925 391 
Q 2381 391 2643 752 
Q 2906 1113 2906 1747 
Q 2906 2381 2643 2742 
Q 2381 3103 1925 3103 
Q 1469 3103 1208 2742 
Q 947 2381 947 1747 
z
" transform="scale(0.015625)"/>
      </defs>
      <use xlink:href="#DejaVuSans-4d"/>
      <use xlink:href="#DejaVuSans-61" x="86.279297"/>
      <use xlink:href="#DejaVuSans-67" x="147.558594"/>
      <use xlink:href="#DejaVuSans-6e" x="211.035156"/>
      <use xlink:href="#DejaVuSans-69" x="274.414062"/>
      <use xlink:href="#DejaVuSans-74" x="302.197266"/>
      <use xlink:href="#DejaVuSans-75" x="341.40625"/>
      <use xlink:href="#DejaVuSans-64" x="404.785156"/>
      <use xlink:href="#DejaVuSans-65" x="468.261719"/>
     </g>
    </g>
   </g>
   <g id="line2d_16">
    <path d="M 73.832727 250.112779 
L 75.132645 251.132277 
L 76.107584 251.511692 
L 77.082523 252.527958 
L 77.407502 252.527958 
L 78.057461 254.046061 
L 78.382441 254.67685 
L 78.70742 255.948356 
L 79.357379 257.444638 
L 80.332318 262.162722 
L 81.307256 265.46751 
L 81.632236 267.923316 
L 82.282195 270.47961 
L 82.607174 275.560602 
L 83.907093 281.267488 
L 85.207011 287.233783 
L 85.53199 287.468929 
L 86.506929 290.216811 
L 86.831908 291.789009 
L 87.806847 293.515359 
L 88.456806 294.262271 
L 89.106765 294.723192 
L 89.756724 294.904593 
L 91.056642 293.729753 
L 91.706601 292.822 
L 92.68154 291.006589 
L 93.006519 290.307679 
L 93.331499 288.707206 
L 94.631417 284.998111 
L 95.281376 282.997954 
L 95.606355 280.981972 
L 96.906274 276.950498 
L 97.231253 274.938368 
L 97.556233 274.938368 
L 97.881212 272.959153 
L 100.806028 264.357062 
L 102.430925 261.450173 
L 102.755905 261.202774 
L 103.080885 261.202774 
L 103.405864 260.880089 
L 103.730844 260.756789 
L 104.380803 260.906607 
L 105.355741 261.468584 
L 106.33068 262.400822 
L 106.655659 263.4689 
L 106.980639 264.115618 
L 107.305618 264.115618 
L 107.630598 265.537705 
L 109.255495 269.731913 
L 109.580475 271.608639 
L 110.555414 274.893405 
L 111.530352 278.053631 
L 112.83027 282.184513 
L 113.15525 284.327973 
L 114.455168 288.440808 
L 115.430106 291.008966 
L 116.080066 292.377916 
L 116.405045 293.465542 
L 117.055004 294.194576 
L 117.704963 294.53016 
L 118.354922 294.367389 
L 118.679902 294.147847 
L 119.004881 293.718393 
L 119.65484 291.9407 
L 120.629779 289.576934 
L 120.954758 288.591397 
L 121.279738 286.305707 
L 121.604717 286.305707 
L 121.929697 283.778683 
L 122.254676 282.416777 
L 122.579656 282.416777 
L 122.904636 279.501864 
L 124.529533 271.580935 
L 124.854513 268.421119 
L 125.829451 263.498235 
L 126.47941 256.262965 
L 127.454349 248.785688 
L 127.779328 243.524082 
L 128.104308 243.524082 
L 128.429287 237.964447 
L 128.754267 237.964447 
L 129.079247 232.934753 
L 131.679083 213.489862 
L 132.004062 209.143934 
L 133.30398 201.352007 
L 134.278919 196.696478 
L 134.928878 194.258917 
L 135.253857 193.275118 
L 135.578837 191.751237 
L 136.228796 190.887895 
L 136.553776 190.727108 
L 136.878755 190.706618 
L 137.203735 190.876429 
L 137.528714 191.239112 
L 138.178673 192.558353 
L 138.828632 194.672795 
L 139.153612 197.456643 
L 140.12855 203.195012 
L 141.103489 210.769725 
L 142.728387 224.293816 
L 143.703325 238.643309 
L 145.328223 255.210168 
L 145.653202 260.902288 
L 146.95312 270.653978 
L 147.603079 274.950081 
L 147.928059 278.802483 
L 148.902998 283.933943 
L 150.527895 291.64896 
L 150.852875 291.64896 
L 151.177854 293.27163 
L 151.827813 294.385212 
L 152.477772 294.964387 
L 152.802752 295.040899 
L 153.127731 294.980684 
L 153.452711 294.794919 
L 154.427649 292.556834 
L 154.752629 292.556834 
L 155.077609 290.729062 
L 156.052547 287.136305 
L 157.027486 282.449636 
L 158.327404 274.722195 
L 158.652383 270.863727 
L 160.277281 261.723752 
L 160.60226 260.012444 
L 160.92724 256.743381 
L 164.177035 241.267716 
L 164.502015 238.119355 
L 164.826994 238.119355 
L 165.151974 234.987658 
L 165.476953 234.987658 
L 165.801933 231.99464 
L 167.42683 225.285876 
L 167.75181 224.091109 
L 168.07679 221.950974 
L 169.701687 216.803556 
L 170.026667 216.803556 
L 170.351646 216.221067 
L 170.676626 215.194805 
L 171.326585 214.386354 
L 171.976544 213.767028 
L 172.626503 213.353796 
L 173.276462 213.255272 
L 173.926421 213.548182 
L 174.2514 213.774544 
L 174.90136 214.995984 
L 175.551319 216.371892 
L 176.201278 218.373696 
L 176.851237 221.089161 
L 177.826175 226.387139 
L 178.151155 230.514582 
L 178.801114 235.176262 
L 181.075971 254.13886 
L 181.40095 259.338899 
L 182.700868 269.534197 
L 183.025848 274.185889 
L 184.650745 284.451524 
L 186.275643 292.9084 
L 186.925602 294.448758 
L 187.575561 295.389479 
L 187.900541 295.351072 
L 188.22552 295.14061 
L 188.875479 294.173376 
L 189.525438 292.550242 
L 189.850418 291.494963 
L 190.175397 288.96417 
L 190.500377 288.96417 
L 190.825356 287.535358 
L 191.150336 284.303918 
L 192.450254 276.704476 
L 192.775233 274.603437 
L 193.100213 270.300435 
L 194.400131 260.8328 
L 195.700049 249.302878 
L 196.025029 246.1228 
L 196.350008 240.585205 
L 196.999967 236.070816 
L 197.974906 229.763232 
L 198.299885 227.216072 
L 198.624865 221.504834 
L 199.924783 208.154241 
L 200.249762 204.636363 
L 200.574742 195.354524 
L 201.224701 188.092335 
L 201.549681 185.262962 
L 201.87466 179.778104 
L 203.174578 169.988919 
L 203.499558 167.764467 
L 203.824537 163.684825 
L 204.149517 163.684825 
L 204.474496 161.868209 
L 204.799476 158.600096 
L 205.774414 154.714839 
L 206.424373 152.788282 
L 207.074333 151.432573 
L 207.724292 150.541876 
L 208.049271 150.541876 
L 208.374251 150.760149 
L 209.02421 151.679654 
L 209.674169 153.322345 
L 210.324128 155.618111 
L 210.649107 157.053587 
L 210.974087 160.495775 
L 211.949025 167.069839 
L 212.923964 175.299782 
L 213.898903 185.031926 
L 214.223882 191.994391 
L 215.5238 207.778523 
L 217.473677 234.98363 
L 217.798657 243.648827 
L 219.748534 268.506981 
L 220.073514 275.121012 
L 221.373432 285.765529 
L 222.023391 289.563654 
L 222.998329 293.184965 
L 223.648288 294.323657 
L 223.973268 294.07844 
L 224.298247 293.601511 
L 224.948206 291.575796 
L 225.598165 288.483477 
L 226.573104 282.176588 
L 226.898084 276.977172 
L 227.223063 276.977172 
L 227.548043 271.553515 
L 228.522981 265.212869 
L 229.17294 262.536337 
L 230.147879 258.526055 
L 231.122817 253.046302 
L 231.447797 248.642499 
L 231.772776 248.642499 
L 232.097756 243.915456 
L 232.747715 239.360432 
L 233.072695 233.774974 
L 233.722654 231.006877 
L 234.047633 227.720677 
L 235.022572 223.617387 
L 235.99751 220.155314 
L 236.32249 218.17781 
L 237.297428 215.545082 
L 237.622408 215.490436 
L 237.947387 214.74955 
L 238.597346 214.002324 
L 238.922326 213.164808 
L 239.897265 212.554004 
L 240.872203 212.306836 
L 241.522162 212.457383 
L 244.446978 215.12027 
L 244.771957 215.995237 
L 246.071876 217.900429 
L 246.396855 219.056144 
L 247.371794 220.783825 
L 248.671712 223.248917 
L 248.996691 224.703702 
L 249.97163 226.930382 
L 251.596527 231.037408 
L 251.921507 232.730459 
L 253.546405 237.38822 
L 254.521343 240.493063 
L 254.846323 241.688772 
L 255.171302 244.075728 
L 256.7962 249.738764 
L 257.121179 251.002985 
L 257.446159 253.172499 
L 257.771138 253.172499 
L 258.096118 254.42545 
L 258.421097 257.212161 
L 259.071057 259.472278 
L 260.370975 265.063232 
L 260.695954 267.747902 
L 262.320852 274.401537 
L 262.645831 277.011257 
L 263.29579 279.702432 
L 263.62077 279.702432 
L 263.945749 282.365199 
L 265.570647 288.432562 
L 266.870565 291.462493 
L 268.170483 293.72766 
L 268.495463 293.72766 
L 268.820442 294.14647 
L 269.470401 294.153991 
L 270.12036 293.746853 
L 270.770319 293.032637 
L 271.420278 291.949941 
L 271.745258 290.394312 
L 272.395217 288.392996 
L 273.045176 285.87971 
L 273.370156 282.877253 
L 274.995053 273.277039 
L 275.320033 269.080338 
L 275.645012 267.135435 
L 275.969992 267.135435 
L 276.294971 263.124734 
L 277.594889 254.528802 
L 278.244848 249.360889 
L 278.569828 244.350229 
L 278.894808 241.713873 
L 279.219787 241.713873 
L 279.544767 236.351683 
L 280.519705 228.299492 
L 280.844685 223.079248 
L 281.494644 218.148355 
L 281.819623 211.780349 
L 283.119541 199.37757 
L 284.09448 192.986432 
L 284.419459 188.938858 
L 286.044357 179.690394 
L 287.019296 174.857992 
L 287.344275 171.924889 
L 288.319214 168.092601 
L 289.944111 162.841315 
L 290.59407 161.703172 
L 290.91905 161.27896 
L 291.244029 160.658593 
L 291.893989 160.392829 
L 292.543948 160.461341 
L 293.193907 160.945395 
L 293.843866 161.852291 
L 294.493825 163.163104 
L 294.818804 165.031005 
L 295.468763 167.515975 
L 296.443702 172.499394 
L 296.768681 176.68225 
L 297.74362 184.28774 
L 299.043538 196.36273 
L 300.668436 213.232271 
L 300.993415 220.188376 
L 301.318395 220.188376 
L 301.643374 227.139832 
L 302.943292 240.391299 
L 303.268272 246.544267 
L 304.56819 257.502689 
L 304.89317 262.629749 
L 305.218149 262.629749 
L 305.543129 267.712276 
L 306.843047 276.647037 
L 307.493006 280.367538 
L 307.817985 283.568492 
L 308.792924 287.802824 
L 309.767862 290.630778 
L 310.417821 291.917625 
L 311.067781 292.645163 
L 311.39276 292.830879 
L 311.71774 292.830879 
L 312.367699 292.27598 
L 313.017658 291.076294 
L 313.992596 288.305891 
L 314.642555 285.907489 
L 315.292514 282.817663 
L 315.617494 279.182437 
L 315.942473 279.182437 
L 316.267453 274.989288 
L 317.892351 266.103675 
L 320.167207 257.964917 
L 320.817166 255.067015 
L 321.142146 252.587965 
L 322.442064 247.869908 
L 323.092023 245.799766 
L 323.417002 242.885553 
L 323.741982 241.010564 
L 326.341818 236.030697 
L 326.991777 235.405161 
L 327.641736 234.963164 
L 328.616675 234.39066 
L 329.591613 234.494024 
L 330.566552 235.592294 
L 331.216511 236.643702 
L 332.516429 239.643686 
L 333.166388 241.609372 
L 333.491368 242.758487 
L 333.816347 245.116139 
L 334.466306 247.723587 
L 335.766224 253.382091 
L 336.091204 256.765169 
L 338.366061 268.605254 
L 338.69104 272.224242 
L 340.315938 280.412653 
L 340.965897 283.313682 
L 341.290876 285.994542 
L 341.615856 285.994542 
L 341.940835 288.423303 
L 342.915774 291.262846 
L 343.565733 292.706282 
L 343.890713 293.15558 
L 344.215692 293.928075 
L 344.865651 294.127796 
L 345.51561 293.976536 
L 345.84059 293.737121 
L 346.165569 293.316614 
L 346.815528 291.993671 
L 347.140508 290.005514 
L 348.115446 285.706391 
L 348.440426 283.932097 
L 348.765405 280.009664 
L 349.415364 275.176626 
L 350.715283 264.939049 
L 351.040262 259.324208 
L 352.990139 242.180432 
L 353.315119 239.934125 
L 353.640098 235.556035 
L 354.290057 230.217599 
L 355.264996 221.720047 
L 355.589975 215.626727 
L 356.564914 206.297749 
L 356.889894 198.805077 
L 357.539853 193.12663 
L 358.514791 186.454974 
L 358.839771 184.456074 
L 359.16475 180.911652 
L 360.139689 176.306052 
L 361.114627 172.663055 
L 361.764586 170.793222 
L 362.089566 169.245233 
L 363.064505 167.423742 
L 364.364423 165.620773 
L 365.014382 165.381432 
L 365.664341 165.521592 
L 366.3143 166.077721 
L 366.639279 166.525053 
L 366.964259 167.84341 
L 367.289238 167.84341 
L 367.614218 168.73933 
L 367.939197 170.794205 
L 368.914136 174.94201 
L 369.239115 176.59841 
L 369.564095 180.452646 
L 370.864013 189.703195 
L 371.188993 194.964341 
L 372.81389 209.511952 
L 373.13887 212.52528 
L 373.463849 218.168077 
L 374.763767 232.20361 
L 375.738706 243.214603 
L 376.063686 249.785708 
L 377.363604 263.646367 
L 378.338542 272.424134 
L 378.988501 277.473241 
L 379.313481 282.109439 
L 380.288419 287.766909 
L 380.938378 290.517827 
L 381.588337 292.437058 
L 382.238296 293.535223 
L 382.563276 293.786686 
L 382.888256 293.651798 
L 383.213235 293.217079 
L 383.863194 291.737677 
L 384.513153 289.617713 
L 385.488092 285.061623 
L 386.138051 279.298751 
L 387.112989 273.294608 
L 387.437969 270.010207 
L 388.412907 265.93205 
L 388.737887 264.725383 
L 389.062867 262.636595 
L 389.712826 260.214887 
L 390.037805 255.34433 
L 390.687764 252.042745 
L 391.337723 249.377493 
L 391.662703 247.001574 
L 392.312662 244.727428 
L 393.2876 242.087346 
L 394.262539 238.596677 
L 394.587518 238.022843 
L 395.237477 236.429486 
L 396.212416 234.513359 
L 396.537396 234.513359 
L 396.862375 233.881506 
L 397.512334 233.408667 
L 398.487273 232.800557 
L 398.487273 232.800557 
" clip-path="url(#p4c4c9464a4)" style="fill: none; stroke: #1f77b4; stroke-width: 1.5; stroke-linecap: square"/>
   </g>
   <g id="line2d_17">
    <path d="M 73.832727 266.467847 
L 75.132645 265.541968 
L 76.107584 265.194788 
L 77.082523 264.274182 
L 77.407502 264.274182 
L 78.057461 262.870421 
L 78.382441 262.273869 
L 78.70742 261.038356 
L 79.357379 259.564152 
L 80.332318 254.638654 
L 81.307256 250.764265 
L 81.632236 247.671649 
L 82.282195 244.168169 
L 82.607174 237.069557 
L 84.232072 223.776592 
L 85.207011 213.34601 
L 85.53199 212.474076 
L 86.506929 203.939836 
L 86.831908 197.874215 
L 89.431744 173.371218 
L 89.756724 169.496673 
L 90.081704 162.715002 
L 93.006519 137.62652 
L 93.331499 132.373991 
L 95.281376 118.007837 
L 95.606355 113.927649 
L 96.906274 106.729499 
L 97.231253 103.484216 
L 97.556233 103.484216 
L 97.881212 100.497983 
L 99.18113 95.375613 
L 99.831089 93.051126 
L 100.156069 91.039883 
L 101.131007 88.872764 
L 102.430925 86.541591 
L 102.755905 86.294261 
L 103.080885 86.294261 
L 103.405864 86.025572 
L 103.730844 85.950271 
L 104.380803 86.168391 
L 105.030762 86.580271 
L 106.0057 87.435801 
L 106.33068 87.880709 
L 106.655659 89.102285 
L 106.980639 89.845729 
L 107.305618 89.845729 
L 107.630598 91.567414 
L 108.930516 95.720011 
L 109.255495 96.871944 
L 109.580475 99.46218 
L 110.230434 102.613092 
L 112.180311 113.237463 
L 112.83027 117.297647 
L 113.15525 121.850068 
L 115.105127 138.421378 
L 116.080066 147.702902 
L 116.405045 154.289238 
L 118.029943 172.155183 
L 119.004881 183.605228 
L 119.329861 190.919724 
L 120.304799 201.448745 
L 120.954758 208.005993 
L 121.279738 214.566185 
L 121.604717 214.566185 
L 121.929697 220.826628 
L 122.254676 223.844785 
L 122.579656 223.844785 
L 122.904636 229.653413 
L 124.204554 240.331249 
L 124.529533 242.687638 
L 124.854513 247.120214 
L 125.829451 253.296796 
L 126.154431 257.723922 
L 126.80439 262.746312 
L 127.454349 267.043274 
L 127.779328 271.077526 
L 128.104308 271.077526 
L 128.429287 274.877472 
L 128.754267 274.877472 
L 129.079247 278.051365 
L 130.379165 283.295953 
L 131.354103 286.563298 
L 131.679083 287.483802 
L 132.004062 289.069462 
L 132.979001 290.947506 
L 133.953939 292.259493 
L 134.928878 293.108904 
L 135.903817 293.679854 
L 136.878755 293.77193 
L 137.853694 293.579323 
L 138.503653 293.262817 
L 138.828632 293.033776 
L 139.478591 292.03626 
L 140.12855 291.000257 
L 140.778509 289.583875 
L 141.753448 286.535527 
L 142.728387 283.072201 
L 145.328223 262.008823 
L 145.653202 256.353063 
L 147.603079 238.415101 
L 147.928059 232.082789 
L 149.877936 211.248226 
L 150.202916 203.530765 
L 150.527895 199.575977 
L 150.852875 199.575977 
L 151.177854 191.631231 
L 153.452711 162.540596 
L 153.77769 153.809301 
L 154.427649 145.27506 
L 154.752629 145.27506 
L 155.077609 137.748693 
L 157.677445 108.815696 
L 158.327404 102.484858 
L 158.652383 97.000024 
L 159.627322 89.782773 
L 160.60226 84.193897 
L 160.92724 80.987072 
L 162.877117 72.934309 
L 164.177035 68.116015 
L 164.502015 66.026877 
L 164.826994 66.026877 
L 165.151974 64.1773 
L 165.476953 64.1773 
L 165.801933 62.45139 
L 167.101851 59.592474 
L 167.75181 58.476724 
L 168.07679 57.515391 
L 169.701687 55.36779 
L 170.026667 55.36779 
L 170.351646 55.1403 
L 170.676626 54.742967 
L 171.651564 54.313361 
L 172.626503 54.077671 
L 173.601441 54.055927 
L 174.2514 54.170069 
L 176.201278 55.847622 
L 176.851237 56.891722 
L 177.826175 59.176829 
L 178.151155 61.171709 
L 178.801114 63.692567 
L 179.776052 68.605336 
L 181.075971 77.322741 
L 181.40095 82.184356 
L 182.375889 90.702374 
L 182.700868 93.760415 
L 183.025848 100.188255 
L 184.325766 114.696312 
L 185.625684 131.210822 
L 185.950663 140.335066 
L 187.250581 159.161808 
L 187.575561 168.615177 
L 189.850418 200.681477 
L 190.175397 209.29996 
L 190.500377 209.29996 
L 190.825356 213.362211 
L 191.150336 221.268649 
L 192.450254 235.585577 
L 192.775233 238.866772 
L 193.100213 245.035705 
L 195.05009 261.723128 
L 196.025029 269.445292 
L 196.350008 273.474466 
L 196.999967 276.521119 
L 198.299885 281.62999 
L 198.624865 284.327125 
L 199.924783 289.406399 
L 200.249762 290.480354 
L 200.574742 292.895946 
L 201.224701 294.082083 
L 201.549681 294.474969 
L 201.87466 295.045533 
L 202.524619 295.35356 
L 203.174578 295.456837 
L 203.499558 295.442529 
L 203.824537 295.310773 
L 204.474496 295.208753 
L 205.124455 294.811544 
L 207.074333 294.072779 
L 208.049271 293.927621 
L 209.02421 294.086955 
L 210.324128 294.585979 
L 210.649107 294.738008 
L 210.974087 295.055712 
L 211.949025 295.377426 
L 212.598984 295.375569 
L 213.248943 295.096835 
L 213.898903 294.445319 
L 215.5238 289.456043 
L 216.498739 284.45625 
L 217.473677 277.052029 
L 217.798657 271.194047 
L 218.773595 260.730213 
L 219.748534 246.981577 
L 220.073514 237.464205 
L 221.048452 222.361521 
L 223.323309 182.509053 
L 223.648288 170.37068 
L 226.573104 118.760848 
L 226.898084 108.97794 
L 227.223063 108.97794 
L 227.548043 100.541072 
L 228.522981 92.138263 
L 229.17294 88.97233 
L 230.472858 82.444812 
L 231.122817 78.803786 
L 231.447797 74.8388 
L 231.772776 74.8388 
L 232.097756 70.98709 
L 232.747715 67.631267 
L 233.072695 63.647493 
L 233.397674 63.493577 
L 233.722654 62.718264 
L 234.047633 60.932776 
L 235.022572 58.847317 
L 236.647469 55.873022 
L 237.297428 55.111852 
L 237.622408 54.992808 
L 237.947387 54.585535 
L 238.597346 54.328377 
L 238.922326 53.984513 
L 240.547224 53.588429 
L 241.522162 53.608153 
L 244.121998 54.486833 
L 244.446978 54.635253 
L 245.096937 55.199327 
L 245.746896 55.598599 
L 246.071876 55.855297 
L 246.396855 56.401151 
L 248.671712 58.448993 
L 248.996691 59.207216 
L 249.97163 60.400482 
L 251.271548 62.146377 
L 251.596527 62.611145 
L 251.921507 63.596529 
L 252.896446 65.317323 
L 254.196364 67.690667 
L 254.846323 69.297059 
L 255.171302 70.999565 
L 256.47122 74.280051 
L 257.121179 76.438476 
L 257.446159 78.291098 
L 257.771138 78.291098 
L 258.096118 79.401611 
L 258.421097 81.925938 
L 259.071057 84.147867 
L 260.370975 90.172854 
L 260.695954 93.432784 
L 261.670893 99.077042 
L 262.320852 102.818442 
L 262.645831 107.090385 
L 263.29579 111.963252 
L 263.62077 111.963252 
L 263.945749 117.320518 
L 264.920688 125.958811 
L 265.245667 130.746228 
L 266.220606 138.87434 
L 267.845504 153.908363 
L 268.170483 160.096599 
L 268.495463 160.096599 
L 268.820442 166.402682 
L 271.420278 194.421338 
L 271.745258 201.406509 
L 273.045176 215.613424 
L 273.370156 222.838319 
L 274.670074 236.982996 
L 274.995053 240.10108 
L 275.320033 246.069 
L 275.645012 248.629094 
L 275.969992 248.629094 
L 276.294971 253.57347 
L 278.244848 267.007285 
L 278.569828 270.929462 
L 278.894808 272.82703 
L 279.219787 272.82703 
L 279.544767 276.380711 
L 280.519705 281.013868 
L 280.844685 283.613357 
L 281.494644 285.801808 
L 281.819623 288.090242 
L 283.119541 291.680573 
L 284.419459 293.768401 
L 285.394398 294.499728 
L 286.369337 294.97217 
L 287.344275 295.225826 
L 288.969173 295.183984 
L 292.868927 294.885285 
L 294.818804 295.091574 
L 296.118722 295.118114 
L 296.443702 295.06889 
L 297.74362 294.114175 
L 298.393579 293.28144 
L 299.043538 291.998574 
L 300.018477 289.263268 
L 300.668436 286.874231 
L 300.993415 283.955939 
L 301.318395 283.955939 
L 301.643374 280.525974 
L 302.943292 272.24838 
L 303.268272 267.547525 
L 304.56819 257.456944 
L 304.89317 251.741228 
L 305.218149 251.741228 
L 305.543129 245.4381 
L 307.168026 229.113661 
L 307.493006 225.155058 
L 307.817985 217.801578 
L 309.442883 198.184305 
L 311.067781 177.315052 
L 311.39276 169.266615 
L 311.71774 169.266615 
L 312.042719 161.044852 
L 313.342637 143.896651 
L 315.292514 120.391228 
L 315.617494 112.898372 
L 315.942473 112.898372 
L 316.267453 105.634316 
L 316.917412 100.406167 
L 317.242391 98.35767 
L 317.567371 94.74929 
L 318.54231 90.756141 
L 319.517248 86.956711 
L 320.817166 80.971696 
L 321.142146 78.668371 
L 322.442064 74.447214 
L 323.092023 72.712596 
L 323.417002 70.366493 
L 323.741982 69.433447 
L 326.341818 66.150662 
L 327.966716 65.339676 
L 328.616675 65.091494 
L 329.591613 65.090895 
L 330.566552 65.691512 
L 331.216511 66.281237 
L 332.19145 67.649132 
L 332.841409 68.798231 
L 333.491368 70.388877 
L 333.816347 72.112477 
L 334.466306 74.23154 
L 335.766224 79.152954 
L 336.091204 82.433813 
L 337.716102 91.838821 
L 338.366061 96.702381 
L 338.69104 101.979939 
L 340.965897 122.410139 
L 341.290876 128.988517 
L 341.615856 128.988517 
L 341.940835 135.88761 
L 343.240753 150.987537 
L 343.890713 158.318673 
L 344.215692 165.297285 
L 346.490549 191.220491 
L 346.815528 195.251423 
L 347.140508 203.971091 
L 348.440426 221.216362 
L 348.765405 229.368654 
L 350.715283 251.714888 
L 351.040262 257.922286 
L 352.34018 268.653734 
L 352.990139 272.590064 
L 353.315119 274.1215 
L 353.640098 276.777916 
L 355.264996 283.737551 
L 355.589975 286.291086 
L 356.564914 289.66168 
L 356.889894 292.016626 
L 357.539853 293.332041 
L 358.189812 294.11735 
L 359.48973 295.161823 
L 360.464668 295.405512 
L 361.764586 295.488 
L 366.639279 295.31391 
L 368.264177 295.396902 
L 369.239115 295.277563 
L 370.864013 293.936548 
L 371.188993 292.974769 
L 371.838952 291.676512 
L 372.81389 289.005417 
L 373.13887 287.92956 
L 373.463849 285.646397 
L 374.113808 282.559655 
L 375.088747 276.429425 
L 375.738706 271.518514 
L 376.063686 266.371807 
L 377.688583 249.316387 
L 378.988501 233.73832 
L 379.313481 224.964592 
L 381.913317 186.643229 
L 382.563276 176.712896 
L 382.888256 166.518659 
L 385.163112 131.8278 
L 385.488092 127.410723 
L 385.813071 119.437349 
L 386.138051 114.201858 
L 387.112989 103.807594 
L 387.437969 98.931039 
L 388.412907 93.413495 
L 388.737887 91.927634 
L 389.062867 89.49844 
L 389.712826 86.819665 
L 390.037805 81.075785 
L 391.337723 76.631223 
L 391.662703 74.744935 
L 392.312662 73.018962 
L 393.2876 70.97295 
L 394.262539 68.444903 
L 394.587518 68.03782 
L 395.237477 66.985896 
L 396.212416 65.830381 
L 396.537396 65.830381 
L 396.862375 65.469198 
L 397.837314 65.078133 
L 398.487273 64.843437 
L 398.487273 64.843437 
" clip-path="url(#p4c4c9464a4)" style="fill: none; stroke: #ff7f0e; stroke-width: 1.5; stroke-linecap: square"/>
   </g>
   <g id="line2d_18">
    <path d="M 73.832727 172.909979 
L 75.132645 174.589439 
L 75.457625 174.702668 
L 75.782604 175.007562 
L 76.107584 175.035455 
L 76.757543 175.613508 
L 77.407502 175.721108 
L 77.732482 176.25741 
L 78.382441 176.7845 
L 78.70742 177.433359 
L 79.0324 177.491488 
L 80.007338 178.54121 
L 80.332318 178.502992 
L 80.657297 178.999402 
L 80.982277 179.011165 
L 82.282195 181.511196 
L 82.607174 179.488462 
L 83.257133 180.104795 
L 83.907093 181.142271 
L 84.557052 181.069861 
L 85.207011 180.660514 
L 85.53199 181.540236 
L 85.85697 181.658148 
L 86.831908 181.458395 
L 89.431744 182.428821 
L 89.756724 182.264073 
L 90.081704 183.02982 
L 91.706601 184.664028 
L 93.006519 185.643181 
L 93.656478 186.548254 
L 97.231253 188.738538 
L 97.556233 188.738538 
L 99.50611 189.924472 
L 99.831089 189.928208 
L 100.806028 190.39666 
L 102.105946 191.228874 
L 102.430925 191.712729 
L 103.080885 191.805198 
L 103.730844 192.338909 
L 104.055823 192.513885 
L 104.705782 192.600847 
L 105.680721 192.852351 
L 108.930516 192.392617 
L 109.580475 192.123021 
L 109.905455 191.8675 
L 110.230434 191.883629 
L 110.555414 191.641566 
L 110.880393 191.859396 
L 112.505291 190.733751 
L 112.83027 190.358085 
L 113.15525 189.630825 
L 113.480229 189.532554 
L 113.805209 189.271122 
L 114.780147 188.194204 
L 117.379984 185.574349 
L 117.704963 185.501383 
L 118.354922 185.690058 
L 118.679902 185.566186 
L 119.004881 185.906891 
L 119.329861 185.645328 
L 119.65484 186.043538 
L 121.279738 184.869453 
L 121.604717 184.869453 
L 121.929697 184.279848 
L 122.254676 183.980206 
L 122.579656 183.980206 
L 122.904636 183.489641 
L 123.229615 183.346807 
L 124.529533 181.298937 
L 124.854513 179.783011 
L 125.829451 177.093768 
L 126.47941 180.105379 
L 126.80439 180.291294 
L 127.454349 180.248397 
L 127.779328 180.375758 
L 128.104308 180.375758 
L 128.429287 180.599354 
L 128.754267 180.599354 
L 129.079247 179.803542 
L 129.404226 179.613669 
L 131.679083 176.640968 
L 132.004062 175.467661 
L 132.654021 174.248111 
L 132.979001 174.016328 
L 133.30398 173.513526 
L 133.62896 173.245959 
L 133.953939 172.704587 
L 134.278919 172.418913 
L 135.903817 170.153798 
L 137.203735 169.26439 
L 138.178673 168.903584 
L 138.828632 168.851013 
L 139.153612 168.533881 
L 140.45353 168.909563 
L 142.078428 170.2776 
L 142.403407 170.773846 
L 142.728387 171.996474 
L 143.053366 174.601178 
L 143.378346 172.584655 
L 143.703325 171.733334 
L 144.028305 171.80683 
L 144.353284 172.134482 
L 144.678264 172.203191 
L 145.003243 172.056596 
L 145.328223 172.468192 
L 145.653202 173.457177 
L 146.628141 174.917829 
L 147.928059 176.4263 
L 149.552957 177.329485 
L 150.527895 178.267697 
L 150.852875 178.267697 
L 151.177854 178.960099 
L 152.152793 179.947107 
L 153.127731 181.074747 
L 153.452711 181.227082 
L 153.77769 180.831675 
L 154.10267 181.076276 
L 154.427649 181.515013 
L 154.752629 181.515013 
L 155.077609 182.339851 
L 156.702506 183.569829 
L 157.027486 183.905222 
L 158.652383 187.045945 
L 158.977363 187.143209 
L 160.277281 188.185783 
L 160.60226 188.388791 
L 160.92724 188.921727 
L 161.577199 189.040662 
L 162.877117 189.152989 
L 163.852056 188.952989 
L 164.177035 188.948321 
L 164.502015 189.236479 
L 164.826994 189.236479 
L 165.151974 190.018545 
L 165.476953 190.018545 
L 166.126912 190.544397 
L 167.75181 191.588153 
L 168.07679 191.884005 
L 169.701687 192.416923 
L 170.351646 192.468701 
L 171.326585 192.581993 
L 173.276462 192.718243 
L 175.876298 191.828444 
L 176.851237 190.693366 
L 177.501196 189.766517 
L 177.826175 189.177864 
L 178.151155 187.924146 
L 181.075971 181.969625 
L 181.40095 180.710303 
L 182.050909 179.653294 
L 182.700868 178.901136 
L 183.025848 178.109037 
L 183.350827 177.656025 
L 183.675807 177.475289 
L 184.000786 176.995849 
L 184.325766 176.819973 
L 185.300704 175.692161 
L 186.275643 175.646454 
L 187.900541 175.428018 
L 188.22552 175.33415 
L 188.875479 175.610568 
L 190.175397 176.498783 
L 192.125274 176.582994 
L 192.775233 176.904181 
L 193.100213 176.405376 
L 193.425192 176.247873 
L 194.075152 175.458953 
L 196.025029 176.870916 
L 196.350008 176.544779 
L 196.674988 176.009524 
L 197.324947 173.034304 
L 198.949844 165.139003 
L 199.274824 164.678358 
L 199.924783 164.404107 
L 200.249762 164.447423 
L 200.899722 174.928204 
L 201.224701 174.844842 
L 202.19964 174.249644 
L 203.824537 173.915347 
L 204.474496 173.936553 
L 205.124455 174.256886 
L 207.724292 175.221277 
L 208.049271 175.221277 
L 209.02421 175.480586 
L 210.649107 175.764216 
L 210.974087 175.441213 
L 211.949025 175.268799 
L 212.274005 175.244159 
L 213.248943 175.681164 
L 213.898903 175.940562 
L 214.223882 174.51023 
L 214.873841 175.719027 
L 215.5238 176.532702 
L 216.173759 176.780455 
L 216.498739 177.146218 
L 216.823718 176.85182 
L 217.148698 176.730789 
L 217.473677 177.053362 
L 217.798657 178.161802 
L 218.448616 178.978991 
L 218.773595 179.320555 
L 219.098575 179.295318 
L 219.423554 179.506169 
L 219.748534 180.004487 
L 220.073514 181.346159 
L 220.398493 182.070805 
L 221.373432 183.32536 
L 221.698411 183.505722 
L 222.34837 184.11086 
L 223.323309 185.952676 
L 223.973268 188.075208 
L 224.298247 188.36929 
L 225.923145 192.540315 
L 226.898084 194.771711 
L 227.223063 194.771711 
L 227.548043 195.489135 
L 227.873022 195.872424 
L 228.522981 195.804949 
L 228.847961 196.023337 
L 229.822899 195.438823 
L 230.147879 194.613355 
L 230.472858 194.484713 
L 230.797838 194.514834 
L 231.122817 194.341596 
L 231.447797 193.866891 
L 231.772776 193.866891 
L 232.097756 193.38693 
L 232.747715 192.967682 
L 233.072695 191.089938 
L 233.397674 194.069565 
L 234.047633 194.453655 
L 234.372613 194.643791 
L 234.697592 194.627675 
L 235.99751 193.97567 
L 236.972449 193.774403 
L 237.297428 193.666801 
L 237.947387 192.622922 
L 238.597346 192.783081 
L 239.897265 192.33231 
L 241.847142 192.019897 
L 243.797019 192.03727 
L 245.096937 192.280645 
L 248.021753 193.209048 
L 248.671712 193.448276 
L 248.996691 193.669897 
L 250.296609 193.941364 
L 251.596527 193.779075 
L 252.246486 193.721406 
L 253.546405 193.34771 
L 253.871384 193.171083 
L 254.846323 193.140992 
L 255.496282 192.677013 
L 255.821261 192.374204 
L 256.47122 192.09718 
L 256.7962 192.241456 
L 257.121179 192.218175 
L 257.446159 191.887135 
L 257.771138 191.887135 
L 258.096118 191.691725 
L 258.421097 191.004315 
L 258.746077 190.908781 
L 259.396036 190.334702 
L 259.721016 189.884543 
L 260.045995 189.870658 
L 260.695954 189.436764 
L 261.020934 189.171846 
L 263.62077 189.452128 
L 263.945749 189.406878 
L 265.570647 189.726709 
L 265.895627 189.75002 
L 266.220606 189.652857 
L 266.870565 189.226684 
L 267.520524 189.176564 
L 267.845504 189.059263 
L 268.170483 188.630587 
L 268.495463 188.630587 
L 268.820442 188.046247 
L 270.12036 187.828223 
L 270.770319 187.293975 
L 272.070238 185.783116 
L 272.720197 185.332351 
L 273.045176 185.007495 
L 273.370156 184.115984 
L 273.695135 184.213186 
L 274.020115 183.704278 
L 274.345094 183.446647 
L 274.995053 182.227753 
L 275.645012 180.567768 
L 275.969992 180.567768 
L 276.294971 178.558197 
L 277.594889 175.24138 
L 277.919869 175.136904 
L 278.244848 174.821284 
L 278.569828 174.225826 
L 278.894808 174.085147 
L 279.219787 174.085147 
L 279.544767 173.807919 
L 281.494644 173.13408 
L 281.819623 176.884494 
L 282.144603 178.721514 
L 282.469582 178.981697 
L 283.444521 178.321849 
L 284.09448 178.157475 
L 285.394398 178.466365 
L 287.669255 178.235133 
L 289.619132 178.344194 
L 293.193907 178.635477 
L 294.493825 178.865303 
L 295.143784 179.178206 
L 295.793743 179.584831 
L 296.443702 180.142854 
L 296.768681 180.765683 
L 298.0686 181.942205 
L 298.393579 181.748232 
L 299.693497 183.71815 
L 300.018477 183.783341 
L 300.343456 184.315895 
L 300.668436 184.36028 
L 300.993415 185.095139 
L 301.318395 185.095139 
L 301.968354 186.378995 
L 302.293333 186.682803 
L 302.618313 187.457233 
L 302.943292 187.831911 
L 303.268272 188.762462 
L 303.593251 189.051319 
L 304.24321 190.039312 
L 304.56819 190.493038 
L 304.89317 191.524609 
L 305.218149 191.524609 
L 305.543129 192.066089 
L 306.193088 192.450484 
L 306.518067 191.613414 
L 306.843047 191.31376 
L 307.168026 191.759969 
L 307.817985 193.396785 
L 308.142965 193.267833 
L 308.792924 193.70701 
L 309.767862 194.467005 
L 310.417821 195.125175 
L 310.742801 195.223316 
L 311.39276 195.668433 
L 312.042719 195.651251 
L 312.367699 194.875669 
L 312.692678 194.613911 
L 313.017658 194.697043 
L 313.342637 195.056134 
L 314.967535 194.065161 
L 315.292514 194.188967 
L 315.617494 194.442633 
L 315.942473 194.442633 
L 316.592432 195.133561 
L 317.242391 195.839106 
L 317.567371 195.761071 
L 317.892351 195.870924 
L 319.842228 195.638964 
L 321.142146 195.367799 
L 321.792105 195.334641 
L 322.767043 194.620853 
L 323.092023 194.523908 
L 323.417002 193.98596 
L 323.741982 195.667988 
L 324.391941 195.862844 
L 324.716921 195.793756 
L 325.36688 195.86933 
L 325.691859 195.744707 
L 326.016839 195.777326 
L 326.666798 196.029725 
L 327.316757 196.070822 
L 329.266634 195.707383 
L 332.841409 194.452613 
L 333.491368 194.456768 
L 333.816347 194.252047 
L 334.141327 194.264612 
L 334.791286 194.600434 
L 335.441245 194.565128 
L 335.766224 194.4912 
L 336.091204 194.627061 
L 337.066143 195.80239 
L 337.391122 195.731352 
L 337.716102 195.845578 
L 339.01602 196.992219 
L 340.315938 196.542519 
L 340.965897 195.832158 
L 341.290876 195.131073 
L 341.615856 195.131073 
L 341.940835 194.017119 
L 342.265815 193.509848 
L 342.915774 192.962384 
L 343.890713 191.209876 
L 344.215692 189.254155 
L 344.540672 189.03031 
L 345.84059 186.41601 
L 346.815528 184.842706 
L 347.140508 183.51346 
L 347.465487 183.139311 
L 348.115446 181.798709 
L 348.440426 181.412944 
L 349.090385 179.532226 
L 349.740344 179.648659 
L 350.715283 176.344306 
L 351.040262 174.724434 
L 352.66516 171.156784 
L 352.990139 169.905278 
L 353.315119 168.042047 
L 353.640098 163.715222 
L 354.290057 161.03569 
L 354.940016 159.100296 
L 355.264996 158.473266 
L 355.589975 158.151566 
L 355.914955 158.434329 
L 356.564914 159.442922 
L 356.889894 164.510248 
L 357.214873 167.695091 
L 357.539853 168.420907 
L 357.864832 168.642268 
L 358.839771 168.624577 
L 359.48973 168.380391 
L 360.464668 167.967432 
L 361.114627 167.49149 
L 361.764586 166.830947 
L 362.089566 166.04253 
L 363.389484 164.74172 
L 364.039443 164.217466 
L 364.364423 163.732189 
L 365.339361 163.261102 
L 365.98932 163.174316 
L 366.639279 163.226757 
L 366.964259 163.431141 
L 367.289238 163.431141 
L 367.614218 163.632909 
L 367.939197 164.217324 
L 368.914136 165.315751 
L 369.239115 165.773249 
L 369.889075 167.376804 
L 370.864013 169.271776 
L 371.188993 170.666473 
L 373.13887 174.815144 
L 373.463849 176.514756 
L 374.113808 177.926306 
L 374.438788 178.292857 
L 374.763767 177.877113 
L 375.088747 178.188044 
L 375.413726 177.844723 
L 375.738706 178.044117 
L 376.063686 178.766577 
L 376.388665 178.51563 
L 377.363604 178.451933 
L 377.688583 178.603089 
L 378.013563 178.933882 
L 378.988501 180.878208 
L 379.313481 181.964468 
L 379.96344 183.247222 
L 382.563276 189.433303 
L 382.888256 191.162245 
L 384.188174 195.320423 
L 384.513153 195.329288 
L 384.838133 195.672628 
L 385.488092 196.751045 
L 385.813071 197.100214 
L 386.138051 196.786189 
L 386.46303 197.41273 
L 387.112989 197.0774 
L 387.762948 197.158222 
L 388.737887 196.9342 
L 389.387846 197.132805 
L 389.712826 197.205745 
L 390.037805 194.749724 
L 390.362785 197.032307 
L 390.687764 197.571559 
L 392.312662 198.650364 
L 392.637641 198.725885 
L 394.587518 198.150211 
L 395.237477 198.146742 
L 396.212416 198.372813 
L 396.862375 198.480992 
L 398.487273 198.593756 
L 398.487273 198.593756 
" clip-path="url(#p4c4c9464a4)" style="fill: none; stroke: #2ca02c; stroke-width: 1.5; stroke-linecap: square"/>
   </g>
   <g id="patch_3">
    <path d="M 57.6 307.584 
L 57.6 41.472 
" style="fill: none; stroke: #000000; stroke-width: 0.8; stroke-linejoin: miter; stroke-linecap: square"/>
   </g>
   <g id="patch_4">
    <path d="M 414.72 307.584 
L 414.72 41.472 
" style="fill: none; stroke: #000000; stroke-width: 0.8; stroke-linejoin: miter; stroke-linecap: square"/>
   </g>
   <g id="patch_5">
    <path d="M 57.6 307.584 
L 414.72 307.584 
" style="fill: none; stroke: #000000; stroke-width: 0.8; stroke-linejoin: miter; stroke-linecap: square"/>
   </g>
   <g id="patch_6">
    <path d="M 57.6 41.472 
L 414.72 41.472 
" style="fill: none; stroke: #000000; stroke-width: 0.8; stroke-linejoin: miter; stroke-linecap: square"/>
   </g>
   <g id="text_18">
    <!-- Change in rotation components for moving right hand left and right -->
    <g transform="translate(-17.580234 35.472)scale(0.15 -0.15)">
     <defs>
      <path id="DejaVuSans-43" d="M 4122 4306 
L 4122 3641 
Q 3803 3938 3442 4084 
Q 3081 4231 2675 4231 
Q 1875 4231 1450 3742 
Q 1025 3253 1025 2328 
Q 1025 1406 1450 917 
Q 1875 428 2675 428 
Q 3081 428 3442 575 
Q 3803 722 4122 1019 
L 4122 359 
Q 3791 134 3420 21 
Q 3050 -91 2638 -91 
Q 1578 -91 968 557 
Q 359 1206 359 2328 
Q 359 3453 968 4101 
Q 1578 4750 2638 4750 
Q 3056 4750 3426 4639 
Q 3797 4528 4122 4306 
z
" transform="scale(0.015625)"/>
      <path id="DejaVuSans-68" d="M 3513 2113 
L 3513 0 
L 2938 0 
L 2938 2094 
Q 2938 2591 2744 2837 
Q 2550 3084 2163 3084 
Q 1697 3084 1428 2787 
Q 1159 2491 1159 1978 
L 1159 0 
L 581 0 
L 581 4863 
L 1159 4863 
L 1159 2956 
Q 1366 3272 1645 3428 
Q 1925 3584 2291 3584 
Q 2894 3584 3203 3211 
Q 3513 2838 3513 2113 
z
" transform="scale(0.015625)"/>
      <path id="DejaVuSans-20" transform="scale(0.015625)"/>
      <path id="DejaVuSans-72" d="M 2631 2963 
Q 2534 3019 2420 3045 
Q 2306 3072 2169 3072 
Q 1681 3072 1420 2755 
Q 1159 2438 1159 1844 
L 1159 0 
L 581 0 
L 581 3500 
L 1159 3500 
L 1159 2956 
Q 1341 3275 1631 3429 
Q 1922 3584 2338 3584 
Q 2397 3584 2469 3576 
Q 2541 3569 2628 3553 
L 2631 2963 
z
" transform="scale(0.015625)"/>
      <path id="DejaVuSans-6f" d="M 1959 3097 
Q 1497 3097 1228 2736 
Q 959 2375 959 1747 
Q 959 1119 1226 758 
Q 1494 397 1959 397 
Q 2419 397 2687 759 
Q 2956 1122 2956 1747 
Q 2956 2369 2687 2733 
Q 2419 3097 1959 3097 
z
M 1959 3584 
Q 2709 3584 3137 3096 
Q 3566 2609 3566 1747 
Q 3566 888 3137 398 
Q 2709 -91 1959 -91 
Q 1206 -91 779 398 
Q 353 888 353 1747 
Q 353 2609 779 3096 
Q 1206 3584 1959 3584 
z
" transform="scale(0.015625)"/>
      <path id="DejaVuSans-63" d="M 3122 3366 
L 3122 2828 
Q 2878 2963 2633 3030 
Q 2388 3097 2138 3097 
Q 1578 3097 1268 2742 
Q 959 2388 959 1747 
Q 959 1106 1268 751 
Q 1578 397 2138 397 
Q 2388 397 2633 464 
Q 2878 531 3122 666 
L 3122 134 
Q 2881 22 2623 -34 
Q 2366 -91 2075 -91 
Q 1284 -91 818 406 
Q 353 903 353 1747 
Q 353 2603 823 3093 
Q 1294 3584 2113 3584 
Q 2378 3584 2631 3529 
Q 2884 3475 3122 3366 
z
" transform="scale(0.015625)"/>
      <path id="DejaVuSans-66" d="M 2375 4863 
L 2375 4384 
L 1825 4384 
Q 1516 4384 1395 4259 
Q 1275 4134 1275 3809 
L 1275 3500 
L 2222 3500 
L 2222 3053 
L 1275 3053 
L 1275 0 
L 697 0 
L 697 3053 
L 147 3053 
L 147 3500 
L 697 3500 
L 697 3744 
Q 697 4328 969 4595 
Q 1241 4863 1831 4863 
L 2375 4863 
z
" transform="scale(0.015625)"/>
      <path id="DejaVuSans-76" d="M 191 3500 
L 800 3500 
L 1894 563 
L 2988 3500 
L 3597 3500 
L 2284 0 
L 1503 0 
L 191 3500 
z
" transform="scale(0.015625)"/>
      <path id="DejaVuSans-6c" d="M 603 4863 
L 1178 4863 
L 1178 0 
L 603 0 
L 603 4863 
z
" transform="scale(0.015625)"/>
     </defs>
     <use xlink:href="#DejaVuSans-43"/>
     <use xlink:href="#DejaVuSans-68" x="69.824219"/>
     <use xlink:href="#DejaVuSans-61" x="133.203125"/>
     <use xlink:href="#DejaVuSans-6e" x="194.482422"/>
     <use xlink:href="#DejaVuSans-67" x="257.861328"/>
     <use xlink:href="#DejaVuSans-65" x="321.337891"/>
     <use xlink:href="#DejaVuSans-20" x="382.861328"/>
     <use xlink:href="#DejaVuSans-69" x="414.648438"/>
     <use xlink:href="#DejaVuSans-6e" x="442.431641"/>
     <use xlink:href="#DejaVuSans-20" x="505.810547"/>
     <use xlink:href="#DejaVuSans-72" x="537.597656"/>
     <use xlink:href="#DejaVuSans-6f" x="576.460938"/>
     <use xlink:href="#DejaVuSans-74" x="637.642578"/>
     <use xlink:href="#DejaVuSans-61" x="676.851562"/>
     <use xlink:href="#DejaVuSans-74" x="738.130859"/>
     <use xlink:href="#DejaVuSans-69" x="777.339844"/>
     <use xlink:href="#DejaVuSans-6f" x="805.123047"/>
     <use xlink:href="#DejaVuSans-6e" x="866.304688"/>
     <use xlink:href="#DejaVuSans-20" x="929.683594"/>
     <use xlink:href="#DejaVuSans-63" x="961.470703"/>
     <use xlink:href="#DejaVuSans-6f" x="1016.451172"/>
     <use xlink:href="#DejaVuSans-6d" x="1077.632812"/>
     <use xlink:href="#DejaVuSans-70" x="1175.044922"/>
     <use xlink:href="#DejaVuSans-6f" x="1238.521484"/>
     <use xlink:href="#DejaVuSans-6e" x="1299.703125"/>
     <use xlink:href="#DejaVuSans-65" x="1363.082031"/>
     <use xlink:href="#DejaVuSans-6e" x="1424.605469"/>
     <use xlink:href="#DejaVuSans-74" x="1487.984375"/>
     <use xlink:href="#DejaVuSans-73" x="1527.193359"/>
     <use xlink:href="#DejaVuSans-20" x="1579.292969"/>
     <use xlink:href="#DejaVuSans-66" x="1611.080078"/>
     <use xlink:href="#DejaVuSans-6f" x="1646.285156"/>
     <use xlink:href="#DejaVuSans-72" x="1707.466797"/>
     <use xlink:href="#DejaVuSans-20" x="1748.580078"/>
     <use xlink:href="#DejaVuSans-6d" x="1780.367188"/>
     <use xlink:href="#DejaVuSans-6f" x="1877.779297"/>
     <use xlink:href="#DejaVuSans-76" x="1938.960938"/>
     <use xlink:href="#DejaVuSans-69" x="1998.140625"/>
     <use xlink:href="#DejaVuSans-6e" x="2025.923828"/>
     <use xlink:href="#DejaVuSans-67" x="2089.302734"/>
     <use xlink:href="#DejaVuSans-20" x="2152.779297"/>
     <use xlink:href="#DejaVuSans-72" x="2184.566406"/>
     <use xlink:href="#DejaVuSans-69" x="2225.679688"/>
     <use xlink:href="#DejaVuSans-67" x="2253.462891"/>
     <use xlink:href="#DejaVuSans-68" x="2316.939453"/>
     <use xlink:href="#DejaVuSans-74" x="2380.318359"/>
     <use xlink:href="#DejaVuSans-20" x="2419.527344"/>
     <use xlink:href="#DejaVuSans-68" x="2451.314453"/>
     <use xlink:href="#DejaVuSans-61" x="2514.693359"/>
     <use xlink:href="#DejaVuSans-6e" x="2575.972656"/>
     <use xlink:href="#DejaVuSans-64" x="2639.351562"/>
     <use xlink:href="#DejaVuSans-20" x="2702.828125"/>
     <use xlink:href="#DejaVuSans-6c" x="2734.615234"/>
     <use xlink:href="#DejaVuSans-65" x="2762.398438"/>
     <use xlink:href="#DejaVuSans-66" x="2823.921875"/>
     <use xlink:href="#DejaVuSans-74" x="2857.376953"/>
     <use xlink:href="#DejaVuSans-20" x="2896.585938"/>
     <use xlink:href="#DejaVuSans-61" x="2928.373047"/>
     <use xlink:href="#DejaVuSans-6e" x="2989.652344"/>
     <use xlink:href="#DejaVuSans-64" x="3053.03125"/>
     <use xlink:href="#DejaVuSans-20" x="3116.507812"/>
     <use xlink:href="#DejaVuSans-72" x="3148.294922"/>
     <use xlink:href="#DejaVuSans-69" x="3189.408203"/>
     <use xlink:href="#DejaVuSans-67" x="3217.191406"/>
     <use xlink:href="#DejaVuSans-68" x="3280.667969"/>
     <use xlink:href="#DejaVuSans-74" x="3344.046875"/>
    </g>
   </g>
   <g id="legend_1">
    <g id="patch_7">
     <path d="M 64.6 93.506375 
L 121.185937 93.506375 
Q 123.185937 93.506375 123.185937 91.506375 
L 123.185937 48.472 
Q 123.185937 46.472 121.185937 46.472 
L 64.6 46.472 
Q 62.6 46.472 62.6 48.472 
L 62.6 91.506375 
Q 62.6 93.506375 64.6 93.506375 
z
" style="fill: #ffffff; opacity: 0.8; stroke: #cccccc; stroke-linejoin: miter"/>
    </g>
    <g id="line2d_19">
     <path d="M 66.6 54.570438 
L 76.6 54.570438 
L 86.6 54.570438 
" style="fill: none; stroke: #1f77b4; stroke-width: 1.5; stroke-linecap: square"/>
    </g>
    <g id="text_19">
     <!-- idx 0 -->
     <g transform="translate(94.6 58.070438)scale(0.1 -0.1)">
      <defs>
       <path id="DejaVuSans-78" d="M 3513 3500 
L 2247 1797 
L 3578 0 
L 2900 0 
L 1881 1375 
L 863 0 
L 184 0 
L 1544 1831 
L 300 3500 
L 978 3500 
L 1906 2253 
L 2834 3500 
L 3513 3500 
z
" transform="scale(0.015625)"/>
      </defs>
      <use xlink:href="#DejaVuSans-69"/>
      <use xlink:href="#DejaVuSans-64" x="27.783203"/>
      <use xlink:href="#DejaVuSans-78" x="91.259766"/>
      <use xlink:href="#DejaVuSans-20" x="150.439453"/>
      <use xlink:href="#DejaVuSans-30" x="182.226562"/>
     </g>
    </g>
    <g id="line2d_20">
     <path d="M 66.6 69.248563 
L 76.6 69.248563 
L 86.6 69.248563 
" style="fill: none; stroke: #ff7f0e; stroke-width: 1.5; stroke-linecap: square"/>
    </g>
    <g id="text_20">
     <!-- idx 1 -->
     <g transform="translate(94.6 72.748563)scale(0.1 -0.1)">
      <use xlink:href="#DejaVuSans-69"/>
      <use xlink:href="#DejaVuSans-64" x="27.783203"/>
      <use xlink:href="#DejaVuSans-78" x="91.259766"/>
      <use xlink:href="#DejaVuSans-20" x="150.439453"/>
      <use xlink:href="#DejaVuSans-31" x="182.226562"/>
     </g>
    </g>
    <g id="line2d_21">
     <path d="M 66.6 83.926688 
L 76.6 83.926688 
L 86.6 83.926688 
" style="fill: none; stroke: #2ca02c; stroke-width: 1.5; stroke-linecap: square"/>
    </g>
    <g id="text_21">
     <!-- idx 2 -->
     <g transform="translate(94.6 87.426688)scale(0.1 -0.1)">
      <use xlink:href="#DejaVuSans-69"/>
      <use xlink:href="#DejaVuSans-64" x="27.783203"/>
      <use xlink:href="#DejaVuSans-78" x="91.259766"/>
      <use xlink:href="#DejaVuSans-20" x="150.439453"/>
      <use xlink:href="#DejaVuSans-32" x="182.226562"/>
     </g>
    </g>
   </g>
  </g>
 </g>
 <defs>
  <clipPath id="p4c4c9464a4">
   <rect x="57.6" y="41.472" width="357.12" height="266.112"/>
  </clipPath>
 </defs>
</svg>
