<?xml version="1.0" encoding="utf-8" standalone="no"?>
<!DOCTYPE svg PUBLIC "-//W3C//DTD SVG 1.1//EN"
  "http://www.w3.org/Graphics/SVG/1.1/DTD/svg11.dtd">
<svg xmlns:xlink="http://www.w3.org/1999/xlink" width="460.8pt" height="345.6pt" viewBox="0 0 460.8 345.6" xmlns="http://www.w3.org/2000/svg" version="1.1">
 <metadata>
  <rdf:RDF xmlns:dc="http://purl.org/dc/elements/1.1/" xmlns:cc="http://creativecommons.org/ns#" xmlns:rdf="http://www.w3.org/1999/02/22-rdf-syntax-ns#">
   <cc:Work>
    <dc:type rdf:resource="http://purl.org/dc/dcmitype/StillImage"/>
    <dc:date>2024-01-30T14:12:02.864725</dc:date>
    <dc:format>image/svg+xml</dc:format>
    <dc:creator>
     <cc:Agent>
      <dc:title>Matplotlib v3.5.0, https://matplotlib.org/</dc:title>
     </cc:Agent>
    </dc:creator>
   </cc:Work>
  </rdf:RDF>
 </metadata>
 <defs>
  <style type="text/css">*{stroke-linejoin: round; stroke-linecap: butt}</style>
 </defs>
 <g id="figure_1">
  <g id="patch_1">
   <path d="M 0 345.6 
L 460.8 345.6 
L 460.8 0 
L 0 0 
z
" style="fill: #ffffff"/>
  </g>
  <g id="axes_1">
   <g id="patch_2">
    <path d="M 57.6 307.584 
L 414.72 307.584 
L 414.72 41.472 
L 57.6 41.472 
z
" style="fill: #ffffff"/>
   </g>
   <g id="matplotlib.axis_1">
    <g id="xtick_1">
     <g id="line2d_1">
      <defs>
       <path id="m08537378ee" d="M 0 0 
L 0 3.5 
" style="stroke: #000000; stroke-width: 0.8"/>
      </defs>
      <g>
       <use xlink:href="#m08537378ee" x="73.832727" y="307.584" style="stroke: #000000; stroke-width: 0.8"/>
      </g>
     </g>
     <g id="text_1">
      <!-- 0 -->
      <g transform="translate(70.651477 322.182437)scale(0.1 -0.1)">
       <defs>
        <path id="DejaVuSans-30" d="M 2034 4250 
Q 1547 4250 1301 3770 
Q 1056 3291 1056 2328 
Q 1056 1369 1301 889 
Q 1547 409 2034 409 
Q 2525 409 2770 889 
Q 3016 1369 3016 2328 
Q 3016 3291 2770 3770 
Q 2525 4250 2034 4250 
z
M 2034 4750 
Q 2819 4750 3233 4129 
Q 3647 3509 3647 2328 
Q 3647 1150 3233 529 
Q 2819 -91 2034 -91 
Q 1250 -91 836 529 
Q 422 1150 422 2328 
Q 422 3509 836 4129 
Q 1250 4750 2034 4750 
z
" transform="scale(0.015625)"/>
       </defs>
       <use xlink:href="#DejaVuSans-30"/>
      </g>
     </g>
    </g>
    <g id="xtick_2">
     <g id="line2d_2">
      <g>
       <use xlink:href="#m08537378ee" x="138.828632" y="307.584" style="stroke: #000000; stroke-width: 0.8"/>
      </g>
     </g>
     <g id="text_2">
      <!-- 200 -->
      <g transform="translate(129.284882 322.182437)scale(0.1 -0.1)">
       <defs>
        <path id="DejaVuSans-32" d="M 1228 531 
L 3431 531 
L 3431 0 
L 469 0 
L 469 531 
Q 828 903 1448 1529 
Q 2069 2156 2228 2338 
Q 2531 2678 2651 2914 
Q 2772 3150 2772 3378 
Q 2772 3750 2511 3984 
Q 2250 4219 1831 4219 
Q 1534 4219 1204 4116 
Q 875 4013 500 3803 
L 500 4441 
Q 881 4594 1212 4672 
Q 1544 4750 1819 4750 
Q 2544 4750 2975 4387 
Q 3406 4025 3406 3419 
Q 3406 3131 3298 2873 
Q 3191 2616 2906 2266 
Q 2828 2175 2409 1742 
Q 1991 1309 1228 531 
z
" transform="scale(0.015625)"/>
       </defs>
       <use xlink:href="#DejaVuSans-32"/>
       <use xlink:href="#DejaVuSans-30" x="63.623047"/>
       <use xlink:href="#DejaVuSans-30" x="127.246094"/>
      </g>
     </g>
    </g>
    <g id="xtick_3">
     <g id="line2d_3">
      <g>
       <use xlink:href="#m08537378ee" x="203.824537" y="307.584" style="stroke: #000000; stroke-width: 0.8"/>
      </g>
     </g>
     <g id="text_3">
      <!-- 400 -->
      <g transform="translate(194.280787 322.182437)scale(0.1 -0.1)">
       <defs>
        <path id="DejaVuSans-34" d="M 2419 4116 
L 825 1625 
L 2419 1625 
L 2419 4116 
z
M 2253 4666 
L 3047 4666 
L 3047 1625 
L 3713 1625 
L 3713 1100 
L 3047 1100 
L 3047 0 
L 2419 0 
L 2419 1100 
L 313 1100 
L 313 1709 
L 2253 4666 
z
" transform="scale(0.015625)"/>
       </defs>
       <use xlink:href="#DejaVuSans-34"/>
       <use xlink:href="#DejaVuSans-30" x="63.623047"/>
       <use xlink:href="#DejaVuSans-30" x="127.246094"/>
      </g>
     </g>
    </g>
    <g id="xtick_4">
     <g id="line2d_4">
      <g>
       <use xlink:href="#m08537378ee" x="268.820442" y="307.584" style="stroke: #000000; stroke-width: 0.8"/>
      </g>
     </g>
     <g id="text_4">
      <!-- 600 -->
      <g transform="translate(259.276692 322.182437)scale(0.1 -0.1)">
       <defs>
        <path id="DejaVuSans-36" d="M 2113 2584 
Q 1688 2584 1439 2293 
Q 1191 2003 1191 1497 
Q 1191 994 1439 701 
Q 1688 409 2113 409 
Q 2538 409 2786 701 
Q 3034 994 3034 1497 
Q 3034 2003 2786 2293 
Q 2538 2584 2113 2584 
z
M 3366 4563 
L 3366 3988 
Q 3128 4100 2886 4159 
Q 2644 4219 2406 4219 
Q 1781 4219 1451 3797 
Q 1122 3375 1075 2522 
Q 1259 2794 1537 2939 
Q 1816 3084 2150 3084 
Q 2853 3084 3261 2657 
Q 3669 2231 3669 1497 
Q 3669 778 3244 343 
Q 2819 -91 2113 -91 
Q 1303 -91 875 529 
Q 447 1150 447 2328 
Q 447 3434 972 4092 
Q 1497 4750 2381 4750 
Q 2619 4750 2861 4703 
Q 3103 4656 3366 4563 
z
" transform="scale(0.015625)"/>
       </defs>
       <use xlink:href="#DejaVuSans-36"/>
       <use xlink:href="#DejaVuSans-30" x="63.623047"/>
       <use xlink:href="#DejaVuSans-30" x="127.246094"/>
      </g>
     </g>
    </g>
    <g id="xtick_5">
     <g id="line2d_5">
      <g>
       <use xlink:href="#m08537378ee" x="333.816347" y="307.584" style="stroke: #000000; stroke-width: 0.8"/>
      </g>
     </g>
     <g id="text_5">
      <!-- 800 -->
      <g transform="translate(324.272597 322.182437)scale(0.1 -0.1)">
       <defs>
        <path id="DejaVuSans-38" d="M 2034 2216 
Q 1584 2216 1326 1975 
Q 1069 1734 1069 1313 
Q 1069 891 1326 650 
Q 1584 409 2034 409 
Q 2484 409 2743 651 
Q 3003 894 3003 1313 
Q 3003 1734 2745 1975 
Q 2488 2216 2034 2216 
z
M 1403 2484 
Q 997 2584 770 2862 
Q 544 3141 544 3541 
Q 544 4100 942 4425 
Q 1341 4750 2034 4750 
Q 2731 4750 3128 4425 
Q 3525 4100 3525 3541 
Q 3525 3141 3298 2862 
Q 3072 2584 2669 2484 
Q 3125 2378 3379 2068 
Q 3634 1759 3634 1313 
Q 3634 634 3220 271 
Q 2806 -91 2034 -91 
Q 1263 -91 848 271 
Q 434 634 434 1313 
Q 434 1759 690 2068 
Q 947 2378 1403 2484 
z
M 1172 3481 
Q 1172 3119 1398 2916 
Q 1625 2713 2034 2713 
Q 2441 2713 2670 2916 
Q 2900 3119 2900 3481 
Q 2900 3844 2670 4047 
Q 2441 4250 2034 4250 
Q 1625 4250 1398 4047 
Q 1172 3844 1172 3481 
z
" transform="scale(0.015625)"/>
       </defs>
       <use xlink:href="#DejaVuSans-38"/>
       <use xlink:href="#DejaVuSans-30" x="63.623047"/>
       <use xlink:href="#DejaVuSans-30" x="127.246094"/>
      </g>
     </g>
    </g>
    <g id="xtick_6">
     <g id="line2d_6">
      <g>
       <use xlink:href="#m08537378ee" x="398.812252" y="307.584" style="stroke: #000000; stroke-width: 0.8"/>
      </g>
     </g>
     <g id="text_6">
      <!-- 1000 -->
      <g transform="translate(386.087252 322.182437)scale(0.1 -0.1)">
       <defs>
        <path id="DejaVuSans-31" d="M 794 531 
L 1825 531 
L 1825 4091 
L 703 3866 
L 703 4441 
L 1819 4666 
L 2450 4666 
L 2450 531 
L 3481 531 
L 3481 0 
L 794 0 
L 794 531 
z
" transform="scale(0.015625)"/>
       </defs>
       <use xlink:href="#DejaVuSans-31"/>
       <use xlink:href="#DejaVuSans-30" x="63.623047"/>
       <use xlink:href="#DejaVuSans-30" x="127.246094"/>
       <use xlink:href="#DejaVuSans-30" x="190.869141"/>
      </g>
     </g>
    </g>
    <g id="text_7">
     <!-- Timestamps -->
     <g transform="translate(190.392422 339.659781)scale(0.15 -0.15)">
      <defs>
       <path id="DejaVuSans-54" d="M -19 4666 
L 3928 4666 
L 3928 4134 
L 2272 4134 
L 2272 0 
L 1638 0 
L 1638 4134 
L -19 4134 
L -19 4666 
z
" transform="scale(0.015625)"/>
       <path id="DejaVuSans-69" d="M 603 3500 
L 1178 3500 
L 1178 0 
L 603 0 
L 603 3500 
z
M 603 4863 
L 1178 4863 
L 1178 4134 
L 603 4134 
L 603 4863 
z
" transform="scale(0.015625)"/>
       <path id="DejaVuSans-6d" d="M 3328 2828 
Q 3544 3216 3844 3400 
Q 4144 3584 4550 3584 
Q 5097 3584 5394 3201 
Q 5691 2819 5691 2113 
L 5691 0 
L 5113 0 
L 5113 2094 
Q 5113 2597 4934 2840 
Q 4756 3084 4391 3084 
Q 3944 3084 3684 2787 
Q 3425 2491 3425 1978 
L 3425 0 
L 2847 0 
L 2847 2094 
Q 2847 2600 2669 2842 
Q 2491 3084 2119 3084 
Q 1678 3084 1418 2786 
Q 1159 2488 1159 1978 
L 1159 0 
L 581 0 
L 581 3500 
L 1159 3500 
L 1159 2956 
Q 1356 3278 1631 3431 
Q 1906 3584 2284 3584 
Q 2666 3584 2933 3390 
Q 3200 3197 3328 2828 
z
" transform="scale(0.015625)"/>
       <path id="DejaVuSans-65" d="M 3597 1894 
L 3597 1613 
L 953 1613 
Q 991 1019 1311 708 
Q 1631 397 2203 397 
Q 2534 397 2845 478 
Q 3156 559 3463 722 
L 3463 178 
Q 3153 47 2828 -22 
Q 2503 -91 2169 -91 
Q 1331 -91 842 396 
Q 353 884 353 1716 
Q 353 2575 817 3079 
Q 1281 3584 2069 3584 
Q 2775 3584 3186 3129 
Q 3597 2675 3597 1894 
z
M 3022 2063 
Q 3016 2534 2758 2815 
Q 2500 3097 2075 3097 
Q 1594 3097 1305 2825 
Q 1016 2553 972 2059 
L 3022 2063 
z
" transform="scale(0.015625)"/>
       <path id="DejaVuSans-73" d="M 2834 3397 
L 2834 2853 
Q 2591 2978 2328 3040 
Q 2066 3103 1784 3103 
Q 1356 3103 1142 2972 
Q 928 2841 928 2578 
Q 928 2378 1081 2264 
Q 1234 2150 1697 2047 
L 1894 2003 
Q 2506 1872 2764 1633 
Q 3022 1394 3022 966 
Q 3022 478 2636 193 
Q 2250 -91 1575 -91 
Q 1294 -91 989 -36 
Q 684 19 347 128 
L 347 722 
Q 666 556 975 473 
Q 1284 391 1588 391 
Q 1994 391 2212 530 
Q 2431 669 2431 922 
Q 2431 1156 2273 1281 
Q 2116 1406 1581 1522 
L 1381 1569 
Q 847 1681 609 1914 
Q 372 2147 372 2553 
Q 372 3047 722 3315 
Q 1072 3584 1716 3584 
Q 2034 3584 2315 3537 
Q 2597 3491 2834 3397 
z
" transform="scale(0.015625)"/>
       <path id="DejaVuSans-74" d="M 1172 4494 
L 1172 3500 
L 2356 3500 
L 2356 3053 
L 1172 3053 
L 1172 1153 
Q 1172 725 1289 603 
Q 1406 481 1766 481 
L 2356 481 
L 2356 0 
L 1766 0 
Q 1100 0 847 248 
Q 594 497 594 1153 
L 594 3053 
L 172 3053 
L 172 3500 
L 594 3500 
L 594 4494 
L 1172 4494 
z
" transform="scale(0.015625)"/>
       <path id="DejaVuSans-61" d="M 2194 1759 
Q 1497 1759 1228 1600 
Q 959 1441 959 1056 
Q 959 750 1161 570 
Q 1363 391 1709 391 
Q 2188 391 2477 730 
Q 2766 1069 2766 1631 
L 2766 1759 
L 2194 1759 
z
M 3341 1997 
L 3341 0 
L 2766 0 
L 2766 531 
Q 2569 213 2275 61 
Q 1981 -91 1556 -91 
Q 1019 -91 701 211 
Q 384 513 384 1019 
Q 384 1609 779 1909 
Q 1175 2209 1959 2209 
L 2766 2209 
L 2766 2266 
Q 2766 2663 2505 2880 
Q 2244 3097 1772 3097 
Q 1472 3097 1187 3025 
Q 903 2953 641 2809 
L 641 3341 
Q 956 3463 1253 3523 
Q 1550 3584 1831 3584 
Q 2591 3584 2966 3190 
Q 3341 2797 3341 1997 
z
" transform="scale(0.015625)"/>
       <path id="DejaVuSans-70" d="M 1159 525 
L 1159 -1331 
L 581 -1331 
L 581 3500 
L 1159 3500 
L 1159 2969 
Q 1341 3281 1617 3432 
Q 1894 3584 2278 3584 
Q 2916 3584 3314 3078 
Q 3713 2572 3713 1747 
Q 3713 922 3314 415 
Q 2916 -91 2278 -91 
Q 1894 -91 1617 61 
Q 1341 213 1159 525 
z
M 3116 1747 
Q 3116 2381 2855 2742 
Q 2594 3103 2138 3103 
Q 1681 3103 1420 2742 
Q 1159 2381 1159 1747 
Q 1159 1113 1420 752 
Q 1681 391 2138 391 
Q 2594 391 2855 752 
Q 3116 1113 3116 1747 
z
" transform="scale(0.015625)"/>
      </defs>
      <use xlink:href="#DejaVuSans-54"/>
      <use xlink:href="#DejaVuSans-69" x="57.958984"/>
      <use xlink:href="#DejaVuSans-6d" x="85.742188"/>
      <use xlink:href="#DejaVuSans-65" x="183.154297"/>
      <use xlink:href="#DejaVuSans-73" x="244.677734"/>
      <use xlink:href="#DejaVuSans-74" x="296.777344"/>
      <use xlink:href="#DejaVuSans-61" x="335.986328"/>
      <use xlink:href="#DejaVuSans-6d" x="397.265625"/>
      <use xlink:href="#DejaVuSans-70" x="494.677734"/>
      <use xlink:href="#DejaVuSans-73" x="558.154297"/>
     </g>
    </g>
   </g>
   <g id="matplotlib.axis_2">
    <g id="ytick_1">
     <g id="line2d_7">
      <defs>
       <path id="m7527e50c29" d="M 0 0 
L -3.5 0 
" style="stroke: #000000; stroke-width: 0.8"/>
      </defs>
      <g>
       <use xlink:href="#m7527e50c29" x="57.6" y="297.376743" style="stroke: #000000; stroke-width: 0.8"/>
      </g>
     </g>
     <g id="text_8">
      <!-- −1.0 -->
      <g transform="translate(26.317187 301.175961)scale(0.1 -0.1)">
       <defs>
        <path id="DejaVuSans-2212" d="M 678 2272 
L 4684 2272 
L 4684 1741 
L 678 1741 
L 678 2272 
z
" transform="scale(0.015625)"/>
        <path id="DejaVuSans-2e" d="M 684 794 
L 1344 794 
L 1344 0 
L 684 0 
L 684 794 
z
" transform="scale(0.015625)"/>
       </defs>
       <use xlink:href="#DejaVuSans-2212"/>
       <use xlink:href="#DejaVuSans-31" x="83.789062"/>
       <use xlink:href="#DejaVuSans-2e" x="147.412109"/>
       <use xlink:href="#DejaVuSans-30" x="179.199219"/>
      </g>
     </g>
    </g>
    <g id="ytick_2">
     <g id="line2d_8">
      <g>
       <use xlink:href="#m7527e50c29" x="57.6" y="247.126592" style="stroke: #000000; stroke-width: 0.8"/>
      </g>
     </g>
     <g id="text_9">
      <!-- −0.8 -->
      <g transform="translate(26.317187 250.925811)scale(0.1 -0.1)">
       <use xlink:href="#DejaVuSans-2212"/>
       <use xlink:href="#DejaVuSans-30" x="83.789062"/>
       <use xlink:href="#DejaVuSans-2e" x="147.412109"/>
       <use xlink:href="#DejaVuSans-38" x="179.199219"/>
      </g>
     </g>
    </g>
    <g id="ytick_3">
     <g id="line2d_9">
      <g>
       <use xlink:href="#m7527e50c29" x="57.6" y="196.876442" style="stroke: #000000; stroke-width: 0.8"/>
      </g>
     </g>
     <g id="text_10">
      <!-- −0.6 -->
      <g transform="translate(26.317187 200.675661)scale(0.1 -0.1)">
       <use xlink:href="#DejaVuSans-2212"/>
       <use xlink:href="#DejaVuSans-30" x="83.789062"/>
       <use xlink:href="#DejaVuSans-2e" x="147.412109"/>
       <use xlink:href="#DejaVuSans-36" x="179.199219"/>
      </g>
     </g>
    </g>
    <g id="ytick_4">
     <g id="line2d_10">
      <g>
       <use xlink:href="#m7527e50c29" x="57.6" y="146.626291" style="stroke: #000000; stroke-width: 0.8"/>
      </g>
     </g>
     <g id="text_11">
      <!-- −0.4 -->
      <g transform="translate(26.317187 150.42551)scale(0.1 -0.1)">
       <use xlink:href="#DejaVuSans-2212"/>
       <use xlink:href="#DejaVuSans-30" x="83.789062"/>
       <use xlink:href="#DejaVuSans-2e" x="147.412109"/>
       <use xlink:href="#DejaVuSans-34" x="179.199219"/>
      </g>
     </g>
    </g>
    <g id="ytick_5">
     <g id="line2d_11">
      <g>
       <use xlink:href="#m7527e50c29" x="57.6" y="96.376141" style="stroke: #000000; stroke-width: 0.8"/>
      </g>
     </g>
     <g id="text_12">
      <!-- −0.2 -->
      <g transform="translate(26.317187 100.17536)scale(0.1 -0.1)">
       <use xlink:href="#DejaVuSans-2212"/>
       <use xlink:href="#DejaVuSans-30" x="83.789062"/>
       <use xlink:href="#DejaVuSans-2e" x="147.412109"/>
       <use xlink:href="#DejaVuSans-32" x="179.199219"/>
      </g>
     </g>
    </g>
    <g id="ytick_6">
     <g id="line2d_12">
      <g>
       <use xlink:href="#m7527e50c29" x="57.6" y="46.125991" style="stroke: #000000; stroke-width: 0.8"/>
      </g>
     </g>
     <g id="text_13">
      <!-- 0.0 -->
      <g transform="translate(34.696875 49.925209)scale(0.1 -0.1)">
       <use xlink:href="#DejaVuSans-30"/>
       <use xlink:href="#DejaVuSans-2e" x="63.623047"/>
       <use xlink:href="#DejaVuSans-30" x="95.410156"/>
      </g>
     </g>
    </g>
    <g id="text_14">
     <!-- Magnitude -->
     <g transform="translate(19.197656 214.262766)rotate(-90)scale(0.15 -0.15)">
      <defs>
       <path id="DejaVuSans-4d" d="M 628 4666 
L 1569 4666 
L 2759 1491 
L 3956 4666 
L 4897 4666 
L 4897 0 
L 4281 0 
L 4281 4097 
L 3078 897 
L 2444 897 
L 1241 4097 
L 1241 0 
L 628 0 
L 628 4666 
z
" transform="scale(0.015625)"/>
       <path id="DejaVuSans-67" d="M 2906 1791 
Q 2906 2416 2648 2759 
Q 2391 3103 1925 3103 
Q 1463 3103 1205 2759 
Q 947 2416 947 1791 
Q 947 1169 1205 825 
Q 1463 481 1925 481 
Q 2391 481 2648 825 
Q 2906 1169 2906 1791 
z
M 3481 434 
Q 3481 -459 3084 -895 
Q 2688 -1331 1869 -1331 
Q 1566 -1331 1297 -1286 
Q 1028 -1241 775 -1147 
L 775 -588 
Q 1028 -725 1275 -790 
Q 1522 -856 1778 -856 
Q 2344 -856 2625 -561 
Q 2906 -266 2906 331 
L 2906 616 
Q 2728 306 2450 153 
Q 2172 0 1784 0 
Q 1141 0 747 490 
Q 353 981 353 1791 
Q 353 2603 747 3093 
Q 1141 3584 1784 3584 
Q 2172 3584 2450 3431 
Q 2728 3278 2906 2969 
L 2906 3500 
L 3481 3500 
L 3481 434 
z
" transform="scale(0.015625)"/>
       <path id="DejaVuSans-6e" d="M 3513 2113 
L 3513 0 
L 2938 0 
L 2938 2094 
Q 2938 2591 2744 2837 
Q 2550 3084 2163 3084 
Q 1697 3084 1428 2787 
Q 1159 2491 1159 1978 
L 1159 0 
L 581 0 
L 581 3500 
L 1159 3500 
L 1159 2956 
Q 1366 3272 1645 3428 
Q 1925 3584 2291 3584 
Q 2894 3584 3203 3211 
Q 3513 2838 3513 2113 
z
" transform="scale(0.015625)"/>
       <path id="DejaVuSans-75" d="M 544 1381 
L 544 3500 
L 1119 3500 
L 1119 1403 
Q 1119 906 1312 657 
Q 1506 409 1894 409 
Q 2359 409 2629 706 
Q 2900 1003 2900 1516 
L 2900 3500 
L 3475 3500 
L 3475 0 
L 2900 0 
L 2900 538 
Q 2691 219 2414 64 
Q 2138 -91 1772 -91 
Q 1169 -91 856 284 
Q 544 659 544 1381 
z
M 1991 3584 
L 1991 3584 
z
" transform="scale(0.015625)"/>
       <path id="DejaVuSans-64" d="M 2906 2969 
L 2906 4863 
L 3481 4863 
L 3481 0 
L 2906 0 
L 2906 525 
Q 2725 213 2448 61 
Q 2172 -91 1784 -91 
Q 1150 -91 751 415 
Q 353 922 353 1747 
Q 353 2572 751 3078 
Q 1150 3584 1784 3584 
Q 2172 3584 2448 3432 
Q 2725 3281 2906 2969 
z
M 947 1747 
Q 947 1113 1208 752 
Q 1469 391 1925 391 
Q 2381 391 2643 752 
Q 2906 1113 2906 1747 
Q 2906 2381 2643 2742 
Q 2381 3103 1925 3103 
Q 1469 3103 1208 2742 
Q 947 2381 947 1747 
z
" transform="scale(0.015625)"/>
      </defs>
      <use xlink:href="#DejaVuSans-4d"/>
      <use xlink:href="#DejaVuSans-61" x="86.279297"/>
      <use xlink:href="#DejaVuSans-67" x="147.558594"/>
      <use xlink:href="#DejaVuSans-6e" x="211.035156"/>
      <use xlink:href="#DejaVuSans-69" x="274.414062"/>
      <use xlink:href="#DejaVuSans-74" x="302.197266"/>
      <use xlink:href="#DejaVuSans-75" x="341.40625"/>
      <use xlink:href="#DejaVuSans-64" x="404.785156"/>
      <use xlink:href="#DejaVuSans-65" x="468.261719"/>
     </g>
    </g>
   </g>
   <g id="line2d_13">
    <path d="M 73.832727 243.198736 
L 74.157707 243.927348 
L 74.482686 245.428373 
L 75.782604 249.020821 
L 76.107584 251.150013 
L 78.70742 260.672226 
L 79.0324 262.305243 
L 79.357379 266.022698 
L 80.007338 270.582698 
L 80.657297 274.76497 
L 80.982277 273.047826 
L 81.307256 273.741587 
L 81.632236 275.797374 
L 81.957215 278.610484 
L 83.907093 285.460885 
L 84.232072 286.305737 
L 84.557052 287.869487 
L 85.207011 289.106101 
L 85.53199 289.440855 
L 86.181949 290.9692 
L 88.131826 292.385395 
L 88.781785 292.542583 
L 89.106765 292.822525 
L 89.431744 292.95252 
L 89.756724 292.95252 
L 90.406683 293.354604 
L 92.68154 294.007411 
L 94.306437 294.396608 
L 94.631417 294.866965 
L 94.956396 295.113112 
L 98.531171 295.436547 
L 100.806028 295.210584 
L 101.780966 294.656911 
L 102.105946 294.357129 
L 102.430925 294.357129 
L 102.755905 294.061315 
L 105.680721 292.796709 
L 108.280557 291.570799 
L 110.555414 290.949315 
L 112.83027 290.561243 
L 113.15525 290.667564 
L 113.805209 290.509396 
L 114.130188 290.599939 
L 114.455168 290.537468 
L 114.780147 290.736938 
L 115.105127 290.685703 
L 116.080066 291.744359 
L 116.405045 292.367585 
L 116.730025 292.367585 
L 117.055004 293.12722 
L 118.029943 294.099328 
L 118.354922 293.986403 
L 118.679902 294.382014 
L 119.004881 294.576704 
L 119.65484 294.53698 
L 120.304799 294.45275 
L 120.954758 293.606598 
L 121.604717 293.04553 
L 122.254676 293.787124 
L 122.904636 293.982932 
L 123.879574 293.873896 
L 127.454349 293.808236 
L 127.779328 293.703817 
L 128.429287 294.053491 
L 129.729206 294.050721 
L 130.704144 292.624781 
L 131.679083 291.423746 
L 132.654021 290.72171 
L 133.953939 290.470398 
L 135.253857 290.031279 
L 135.903817 290.195601 
L 137.203735 290.23714 
L 138.178673 290.38152 
L 139.153612 290.216958 
L 140.12855 289.586408 
L 140.778509 289.769144 
L 141.103489 289.53802 
L 141.428468 289.497558 
L 143.053366 289.824283 
L 144.353284 289.855753 
L 144.678264 290.214239 
L 145.978182 290.792108 
L 146.95312 290.808987 
L 147.603079 290.804448 
L 148.253038 290.80701 
L 148.902998 290.47925 
L 149.877936 289.916596 
L 150.852875 289.688474 
L 152.152793 289.918697 
L 153.452711 290.115583 
L 154.752629 289.928507 
L 155.077609 289.815513 
L 155.402588 289.990526 
L 155.727568 290.313341 
L 156.377527 289.957761 
L 157.352465 291.403913 
L 158.327404 292.372716 
L 158.652383 292.084243 
L 159.627322 293.089089 
L 159.952301 293.247853 
L 160.92724 291.756709 
L 161.252219 291.566747 
L 162.552138 291.625178 
L 163.527076 291.841723 
L 163.852056 292.121238 
L 165.151974 292.303759 
L 168.401769 292.642757 
L 169.051728 292.811475 
L 170.351646 292.877348 
L 173.276462 293.156424 
L 173.601441 293.219807 
L 174.90136 291.760546 
L 175.226339 291.172097 
L 175.551319 290.082377 
L 176.851237 289.017697 
L 177.176216 288.427902 
L 177.826175 287.842163 
L 179.126093 286.515785 
L 179.776052 286.254334 
L 180.101032 286.206498 
L 181.075971 285.681522 
L 184.325766 285.391241 
L 186.600622 284.952441 
L 187.250581 286.480796 
L 187.900541 286.986614 
L 188.875479 289.029651 
L 189.525438 291.027534 
L 189.850418 291.712599 
L 190.500377 291.875029 
L 190.825356 291.761726 
L 192.450254 292.669355 
L 193.425192 293.532758 
L 193.750172 293.93281 
L 195.700049 294.632452 
L 197.649926 294.960428 
L 200.574742 294.956542 
L 200.899722 294.453447 
L 201.224701 294.604622 
L 201.549681 294.616006 
L 201.87466 294.386397 
L 203.174578 291.054959 
L 203.824537 290.172167 
L 204.149517 289.395634 
L 204.799476 288.984898 
L 205.449435 288.330961 
L 206.099394 287.457613 
L 206.424373 286.819518 
L 206.749353 286.650157 
L 208.374251 286.421485 
L 208.69923 286.239428 
L 209.02421 285.910757 
L 209.349189 285.333612 
L 209.674169 285.191471 
L 210.324128 285.575227 
L 212.274005 284.886252 
L 212.923964 286.303439 
L 213.248943 286.50707 
L 213.573923 286.50707 
L 214.223882 287.363753 
L 214.873841 288.623044 
L 215.198821 289.408679 
L 215.5238 291.157654 
L 215.84878 291.157654 
L 216.173759 292.627322 
L 217.148698 292.092927 
L 217.798657 292.167509 
L 218.448616 292.487868 
L 218.773595 292.739378 
L 219.098575 293.269292 
L 219.748534 293.767942 
L 220.398493 293.950348 
L 221.698411 294.318441 
L 223.973268 294.644448 
L 224.298247 294.637175 
L 224.623227 294.363836 
L 225.273186 294.764561 
L 225.598165 294.560797 
L 225.923145 294.509939 
L 226.248124 294.647938 
L 226.898084 294.498453 
L 227.548043 293.148922 
L 228.198002 291.851927 
L 229.49792 290.114621 
L 229.822899 289.768515 
L 230.147879 289.958069 
L 230.472858 289.631499 
L 231.447797 289.291776 
L 231.772776 289.079327 
L 232.097756 289.053129 
L 232.422735 289.160645 
L 233.072695 289.084797 
L 234.697592 288.098969 
L 235.022572 287.747813 
L 236.647469 287.024017 
L 236.972449 286.68895 
L 237.297428 286.15004 
L 238.272367 287.915672 
L 238.922326 287.470781 
L 239.247305 287.220507 
L 239.572285 287.124525 
L 240.222244 288.193521 
L 240.547224 288.285398 
L 240.872203 288.493358 
L 241.847142 288.372765 
L 242.497101 287.921625 
L 243.14706 287.909298 
L 244.771957 288.377307 
L 245.421916 288.896112 
L 246.071876 288.926352 
L 246.396855 289.112267 
L 246.721835 289.104117 
L 247.371794 289.880721 
L 248.021753 291.908552 
L 248.346732 291.908552 
L 248.671712 293.088572 
L 249.64665 294.297711 
L 249.97163 294.497377 
L 250.621589 294.563191 
L 251.921507 294.513783 
L 252.571466 294.854119 
L 253.546405 295.124555 
L 254.846323 295.172305 
L 257.121179 295.209963 
L 258.746077 295.093999 
L 259.071057 295.041397 
L 259.396036 294.875559 
L 259.721016 294.491334 
L 260.370975 294.910491 
L 261.995872 294.59362 
L 263.62077 294.47742 
L 266.545586 294.416921 
L 267.195545 294.204881 
L 267.520524 294.189012 
L 268.170483 294.337417 
L 269.795381 294.346922 
L 270.770319 294.573719 
L 271.420278 294.484342 
L 272.070238 294.285379 
L 273.045176 294.253305 
L 274.020115 294.15333 
L 274.670074 294.380121 
L 274.995053 294.043403 
L 277.26991 293.982013 
L 277.919869 294.045183 
L 278.569828 294.000005 
L 278.894808 293.869518 
L 279.869746 293.850513 
L 280.194726 293.519757 
L 281.819623 292.839988 
L 283.7695 292.396769 
L 284.744439 292.190724 
L 287.019296 291.627713 
L 287.994234 291.543283 
L 288.644193 291.362657 
L 288.969173 291.078047 
L 289.619132 290.876005 
L 292.218968 290.548849 
L 293.843866 290.267387 
L 294.493825 290.190825 
L 295.143784 289.499893 
L 295.468763 289.499893 
L 295.793743 289.030099 
L 296.443702 289.052696 
L 297.41864 289.015343 
L 298.393579 289.017051 
L 299.368518 288.635049 
L 300.018477 288.340875 
L 301.968354 287.986006 
L 307.493006 286.941558 
L 308.142965 287.35349 
L 308.792924 287.199586 
L 309.442883 286.783585 
L 310.417821 286.010502 
L 311.067781 285.987421 
L 312.042719 286.08906 
L 313.667617 285.905224 
L 314.317576 285.625372 
L 314.642555 285.338854 
L 314.967535 285.256451 
L 315.617494 285.412831 
L 317.242391 285.837772 
L 317.892351 286.958945 
L 319.192269 287.375024 
L 320.167207 287.524518 
L 321.142146 287.791305 
L 322.442064 287.820941 
L 323.417002 287.955256 
L 324.066962 287.994384 
L 324.716921 287.963393 
L 326.341818 288.15504 
L 326.991777 287.980906 
L 327.316757 287.769952 
L 328.291695 287.860022 
L 328.941654 287.972106 
L 329.916593 287.861865 
L 330.566552 287.784672 
L 332.841409 287.850726 
L 334.466306 287.786909 
L 334.791286 287.387494 
L 335.116265 287.198228 
L 335.766224 287.18104 
L 336.416183 287.238831 
L 336.741163 287.217338 
L 337.391122 286.72244 
L 337.716102 286.335671 
L 338.041081 287.237447 
L 338.366061 287.762975 
L 339.990958 287.929152 
L 340.640917 287.919819 
L 340.965897 288.0669 
L 342.915774 287.71498 
L 343.240753 287.610965 
L 343.565733 287.701743 
L 343.890713 287.633401 
L 344.215692 288.007807 
L 344.540672 288.009529 
L 344.865651 288.388839 
L 345.51561 288.365023 
L 345.84059 288.904374 
L 346.165569 288.892914 
L 346.490549 289.388046 
L 347.465487 289.457113 
L 348.115446 289.663423 
L 350.715283 290.232016 
L 352.990139 291.001755 
L 353.640098 291.273967 
L 353.965078 291.908659 
L 354.940016 292.132048 
L 355.589975 292.398841 
L 356.239934 292.659639 
L 357.214873 293.030484 
L 357.539853 293.168683 
L 357.864832 293.453155 
L 359.48973 293.936206 
L 360.139689 293.992918 
L 361.114627 293.497333 
L 361.439607 293.488168 
L 362.089566 293.900818 
L 363.064505 293.844848 
L 363.389484 293.778438 
L 364.039443 294.129151 
L 366.3143 294.060791 
L 367.614218 293.965339 
L 370.214054 294.062276 
L 373.13887 293.833097 
L 375.738706 293.532628 
L 379.96344 293.335381 
L 384.838133 293.590523 
L 385.488092 293.652201 
L 386.46303 293.941126 
L 387.437969 294.418992 
L 387.762948 294.097046 
L 388.087928 294.0087 
L 388.737887 294.109192 
L 390.037805 294.644648 
L 391.012744 294.657447 
L 392.637641 294.16497 
L 392.962621 293.927655 
L 394.262539 293.521304 
L 395.562457 292.820514 
L 395.887437 292.512939 
L 397.512334 291.969444 
L 398.487273 291.297377 
L 398.487273 291.297377 
" clip-path="url(#p56945a24ef)" style="fill: none; stroke: #1f77b4; stroke-width: 1.5; stroke-linecap: square"/>
   </g>
   <g id="line2d_14">
    <path d="M 73.832727 192.02866 
L 74.157707 190.592292 
L 74.482686 187.913195 
L 75.457625 183.889055 
L 75.782604 182.18737 
L 76.107584 178.698602 
L 77.732482 168.972424 
L 78.382441 164.93088 
L 79.0324 159.849234 
L 79.357379 153.914863 
L 79.682359 150.587625 
L 80.332318 141.50459 
L 80.657297 137.739526 
L 80.982277 140.003031 
L 81.307256 138.884321 
L 81.632236 134.994869 
L 81.957215 128.424593 
L 83.257133 115.225238 
L 83.907093 107.274185 
L 84.232072 104.031697 
L 84.557052 97.338601 
L 86.831908 75.366605 
L 87.481867 71.66657 
L 88.131826 68.955979 
L 88.456806 69.317557 
L 88.781785 68.923385 
L 89.106765 67.649455 
L 89.431744 67.151941 
L 89.756724 67.151941 
L 90.081704 66.035744 
L 90.731663 65.133379 
L 91.381622 64.410759 
L 91.706601 63.909964 
L 92.031581 64.653767 
L 92.68154 64.244358 
L 93.656478 63.117368 
L 93.981458 62.945302 
L 94.306437 62.489643 
L 94.631417 58.611757 
L 94.956396 56.799893 
L 95.606355 56.3229 
L 96.581294 55.639748 
L 97.231253 55.480191 
L 97.556233 55.372897 
L 97.881212 53.568 
L 98.531171 54.824757 
L 98.856151 55.454632 
L 99.831089 55.708255 
L 100.481048 55.802038 
L 100.806028 56.132975 
L 101.131007 57.220916 
L 101.780966 60.554224 
L 102.105946 63.262659 
L 102.430925 63.262659 
L 102.755905 66.40595 
L 104.380803 74.617154 
L 104.705782 76.884848 
L 106.0057 80.916085 
L 106.655659 83.181624 
L 106.980639 83.844778 
L 107.305618 85.245983 
L 107.955577 86.300989 
L 108.605536 86.90787 
L 109.580475 87.34527 
L 110.230434 87.824212 
L 111.205373 88.670423 
L 111.530352 88.727082 
L 112.505291 87.895144 
L 112.83027 87.403633 
L 113.15525 85.96757 
L 113.805209 85.434234 
L 114.130188 84.192528 
L 114.455168 83.798421 
L 114.780147 81.808935 
L 115.105127 81.077764 
L 116.405045 68.49926 
L 116.730025 68.49926 
L 117.055004 65.167359 
L 117.704963 62.447944 
L 118.029943 61.510597 
L 118.354922 64.18644 
L 118.679902 63.861541 
L 119.004881 63.309451 
L 119.329861 64.311777 
L 120.304799 64.730658 
L 120.629779 66.253088 
L 120.954758 66.793765 
L 121.604717 68.660634 
L 121.929697 64.541644 
L 122.254676 64.589896 
L 122.579656 63.960874 
L 122.904636 63.884816 
L 123.554595 63.972012 
L 124.854513 63.788107 
L 125.179492 64.057987 
L 125.504472 64.173717 
L 125.829451 63.989349 
L 126.47941 63.153352 
L 126.80439 63.469909 
L 127.129369 63.601078 
L 127.779328 62.985351 
L 128.104308 61.28646 
L 128.754267 59.9368 
L 129.079247 59.175348 
L 129.404226 58.764357 
L 129.729206 58.564471 
L 130.054185 58.913557 
L 130.704144 62.984167 
L 131.679083 71.385826 
L 133.30398 85.183563 
L 133.953939 87.304537 
L 135.578837 94.051326 
L 136.228796 94.964366 
L 136.553776 95.478806 
L 136.878755 95.747959 
L 137.203735 95.673809 
L 137.853694 95.270891 
L 138.178673 95.364166 
L 138.503653 96.295427 
L 139.153612 97.503091 
L 139.803571 100.019998 
L 140.12855 100.499558 
L 140.778509 98.891799 
L 141.103489 99.073538 
L 141.428468 99.083701 
L 141.753448 98.786066 
L 142.078428 98.728859 
L 142.403407 98.988712 
L 142.728387 98.899584 
L 143.703325 98.144715 
L 144.353284 97.808331 
L 144.678264 96.795568 
L 145.328223 96.146679 
L 147.603079 95.108195 
L 147.928059 95.117143 
L 148.253038 95.446648 
L 149.227977 97.355962 
L 149.877936 98.310339 
L 150.527895 98.878976 
L 150.852875 98.886636 
L 151.502834 98.579131 
L 153.127731 97.303203 
L 153.77769 97.478537 
L 154.752629 97.94631 
L 155.077609 97.968076 
L 155.402588 97.005779 
L 155.727568 94.417198 
L 156.377527 93.200062 
L 156.702506 90.236531 
L 157.027486 84.206067 
L 157.677445 77.426637 
L 158.002424 71.227013 
L 158.977363 65.509249 
L 159.302342 67.16836 
L 159.627322 65.422819 
L 159.952301 64.964346 
L 160.277281 67.021987 
L 160.60226 66.914959 
L 160.92724 67.532989 
L 161.252219 66.799479 
L 161.577199 66.382546 
L 162.227158 67.706095 
L 162.552138 68.284474 
L 162.877117 68.155511 
L 163.202097 68.566718 
L 163.527076 68.482116 
L 163.852056 67.84154 
L 164.177035 67.993118 
L 164.826994 68.008591 
L 165.476953 67.56811 
L 166.126912 67.572038 
L 166.451892 67.871862 
L 166.776871 67.892212 
L 167.101851 68.043996 
L 167.42683 68.043996 
L 167.75181 68.18637 
L 168.07679 68.650268 
L 168.401769 68.520046 
L 168.726749 68.240693 
L 169.376708 68.714898 
L 169.701687 69.26002 
L 170.676626 69.864524 
L 171.326585 69.83969 
L 171.651564 70.490688 
L 171.976544 70.068525 
L 172.301523 69.408845 
L 172.951482 67.018561 
L 173.601441 62.05991 
L 173.926421 62.426557 
L 174.2514 63.031338 
L 174.57638 63.88285 
L 174.90136 62.495097 
L 175.226339 65.923486 
L 175.551319 73.259283 
L 176.526257 85.844158 
L 176.851237 88.745871 
L 177.176216 92.887666 
L 178.801114 99.239223 
L 179.451073 101.245539 
L 181.075971 104.83704 
L 181.72593 104.636527 
L 182.700868 104.135075 
L 183.675807 104.179164 
L 186.275643 104.085929 
L 186.600622 104.452164 
L 187.575561 92.268834 
L 188.22552 83.810796 
L 189.200459 71.274366 
L 189.525438 67.408939 
L 189.850418 64.906541 
L 190.175397 66.346246 
L 190.825356 67.422045 
L 191.150336 65.915828 
L 191.800295 66.083068 
L 192.125274 65.869263 
L 192.450254 65.437198 
L 192.775233 65.504826 
L 193.425192 64.579376 
L 193.750172 63.515002 
L 194.075152 63.469504 
L 194.400131 62.962494 
L 194.725111 62.766273 
L 195.05009 62.923038 
L 195.37507 62.56538 
L 195.700049 62.523313 
L 196.025029 62.839952 
L 196.674988 63.008049 
L 196.999967 63.299683 
L 197.324947 63.086241 
L 197.649926 63.106541 
L 198.949844 63.616029 
L 199.274824 63.298731 
L 199.599803 63.363378 
L 199.924783 62.763093 
L 200.249762 62.533782 
L 200.574742 62.096098 
L 200.899722 62.118159 
L 201.224701 56.982515 
L 201.549681 56.733099 
L 201.87466 58.200218 
L 203.824537 87.946791 
L 204.149517 94.817247 
L 204.474496 96.596217 
L 206.099394 102.164258 
L 206.424373 104.200771 
L 207.074333 105.647823 
L 207.399312 105.896641 
L 208.049271 106.132809 
L 208.69923 106.767299 
L 209.02421 107.442558 
L 209.349189 109.07105 
L 209.674169 109.403469 
L 209.999148 109.327221 
L 210.324128 108.656726 
L 210.649107 108.809569 
L 211.299066 108.851735 
L 211.949025 108.923006 
L 212.274005 108.830852 
L 212.923964 102.303318 
L 213.248943 99.125491 
L 213.573923 99.125491 
L 214.223882 89.597756 
L 215.198821 76.36976 
L 215.5238 69.819086 
L 215.84878 69.819086 
L 216.173759 65.168345 
L 216.498739 69.081097 
L 216.823718 70.023632 
L 217.473677 69.425065 
L 218.123636 67.961965 
L 218.773595 66.928869 
L 219.098575 65.836694 
L 219.423554 65.257623 
L 220.073514 63.743367 
L 220.398493 63.897869 
L 221.048452 63.417911 
L 221.698411 62.715636 
L 222.34837 62.571803 
L 222.67335 62.319683 
L 222.998329 62.401989 
L 223.648288 63.132248 
L 223.973268 62.543236 
L 224.298247 62.615857 
L 224.623227 63.862508 
L 224.948206 61.067243 
L 225.273186 60.138193 
L 225.598165 59.793653 
L 225.923145 59.794189 
L 226.248124 57.381279 
L 226.573104 56.922579 
L 226.898084 56.270989 
L 227.548043 64.938854 
L 227.873022 70.891521 
L 228.198002 80.541954 
L 228.847961 92.033267 
L 229.49792 98.914088 
L 229.822899 101.503124 
L 230.147879 102.328795 
L 230.472858 103.690726 
L 230.797838 103.805075 
L 231.122817 103.579816 
L 231.447797 103.870111 
L 232.097756 105.184493 
L 232.422735 105.121302 
L 233.072695 105.697396 
L 234.697592 108.402111 
L 235.022572 109.253658 
L 235.99751 109.46276 
L 236.32249 109.506111 
L 236.647469 109.834822 
L 236.972449 110.407828 
L 237.297428 110.587366 
L 237.622408 107.847208 
L 237.947387 103.109637 
L 238.597346 98.992893 
L 238.922326 99.180539 
L 239.572285 100.573098 
L 239.897265 100.088387 
L 240.222244 98.590512 
L 240.547224 98.219891 
L 240.872203 96.983788 
L 241.197183 96.499782 
L 241.522162 95.763143 
L 241.847142 95.688064 
L 242.172121 96.413309 
L 242.497101 97.857259 
L 242.82208 98.344346 
L 243.14706 98.584022 
L 243.472039 98.546622 
L 244.121998 97.765725 
L 244.446978 96.350423 
L 244.771957 95.676664 
L 245.421916 92.301483 
L 246.071876 91.842384 
L 246.396855 90.687052 
L 246.721835 90.381522 
L 247.371794 85.516438 
L 247.696773 78.595046 
L 248.021753 74.050824 
L 248.346732 74.050824 
L 248.671712 67.647458 
L 249.321671 63.472889 
L 249.97163 60.930182 
L 250.296609 60.031927 
L 250.621589 59.611523 
L 250.946568 59.712569 
L 251.596527 60.211435 
L 251.921507 60.09726 
L 252.246486 58.785164 
L 252.896446 57.352564 
L 253.221425 56.853574 
L 253.546405 57.618398 
L 253.871384 57.459488 
L 254.196364 57.515941 
L 254.846323 57.406954 
L 255.496282 57.834731 
L 255.821261 58.040411 
L 256.146241 58.025811 
L 256.7962 57.516454 
L 257.121179 57.061576 
L 257.446159 56.976855 
L 257.771138 57.22525 
L 259.071057 58.835302 
L 259.721016 62.389574 
L 260.045995 59.294517 
L 260.370975 60.41535 
L 260.695954 60.490652 
L 261.020934 60.247723 
L 261.345913 61.07882 
L 261.995872 61.838451 
L 262.645831 61.670351 
L 262.970811 61.88328 
L 263.29579 61.950837 
L 263.945749 62.581558 
L 264.270729 63.311055 
L 264.595708 63.65079 
L 264.920688 63.40563 
L 265.570647 64.13308 
L 265.895627 64.13308 
L 266.220606 65.140634 
L 266.545586 65.737079 
L 266.870565 67.165104 
L 267.195545 67.984773 
L 268.170483 68.721595 
L 268.495463 69.306237 
L 269.470401 69.9327 
L 269.795381 69.932588 
L 270.12036 69.600554 
L 270.44534 69.534504 
L 271.420278 70.395442 
L 271.745258 70.02422 
L 272.070238 69.073978 
L 272.395217 68.967109 
L 272.720197 69.078944 
L 273.045176 69.312054 
L 273.695135 69.246051 
L 274.020115 68.548584 
L 274.670074 66.623251 
L 274.995053 69.613529 
L 276.294971 69.541538 
L 276.94493 68.492967 
L 277.26991 67.788302 
L 277.594889 67.417805 
L 277.919869 67.449853 
L 278.244848 67.044924 
L 278.569828 67.254391 
L 278.894808 67.048342 
L 279.219787 65.899293 
L 279.544767 65.721543 
L 279.869746 65.721543 
L 280.519705 66.420875 
L 280.844685 66.489758 
L 281.494644 66.916476 
L 282.144603 67.202548 
L 282.469582 67.078668 
L 284.419459 67.912727 
L 285.069419 67.130738 
L 285.394398 67.28273 
L 285.719378 67.28273 
L 286.044357 68.887087 
L 286.369337 69.208067 
L 287.994234 69.490124 
L 288.319214 69.683978 
L 288.644193 70.151716 
L 288.969173 71.11746 
L 289.619132 72.085775 
L 290.269091 72.535429 
L 291.569009 73.16041 
L 291.893989 73.516625 
L 292.218968 74.478224 
L 293.193907 75.976741 
L 293.518886 76.579323 
L 294.168845 77.046662 
L 294.493825 77.154415 
L 294.818804 78.862133 
L 295.143784 79.587936 
L 295.468763 79.587936 
L 296.118722 81.576399 
L 296.768681 82.35757 
L 297.093661 82.619563 
L 298.393579 82.662654 
L 298.718559 82.931247 
L 299.043538 83.379042 
L 300.668436 86.747475 
L 301.318395 87.388018 
L 301.968354 87.644706 
L 302.293333 87.866499 
L 302.943292 88.813265 
L 304.24321 90.865216 
L 305.218149 92.006585 
L 305.543129 92.172987 
L 305.868108 92.476153 
L 306.518067 93.613 
L 307.817985 96.311522 
L 308.142965 96.155871 
L 308.467944 96.187442 
L 308.792924 96.539542 
L 309.117903 97.142782 
L 309.767862 99.124591 
L 310.092842 101.45546 
L 310.742801 103.266588 
L 311.39276 104.104399 
L 312.042719 104.553562 
L 313.667617 108.105457 
L 314.317576 109.757786 
L 314.642555 111.187513 
L 314.967535 111.705892 
L 315.292514 111.677285 
L 317.242391 112.822216 
L 317.567371 112.424663 
L 317.892351 111.080599 
L 318.21733 111.032981 
L 318.867289 110.575112 
L 319.517248 110.942937 
L 320.167207 111.000351 
L 321.142146 110.798223 
L 322.117084 111.016653 
L 322.767043 110.750597 
L 324.066962 110.756307 
L 324.391941 110.92771 
L 325.0419 110.677736 
L 326.016839 110.249208 
L 326.666798 110.545647 
L 326.991777 110.793285 
L 327.316757 111.226689 
L 327.641736 111.226689 
L 328.941654 110.593423 
L 329.916593 110.660938 
L 330.241572 110.454723 
L 330.566552 110.454723 
L 331.216511 110.037245 
L 331.86647 109.758527 
L 332.19145 109.706188 
L 332.516429 109.507632 
L 332.841409 109.507632 
L 333.491368 108.614149 
L 333.816347 108.139775 
L 334.141327 107.140664 
L 334.791286 107.121255 
L 335.116265 107.333302 
L 335.441245 107.26612 
L 336.416183 106.451747 
L 336.741163 106.203329 
L 337.391122 105.062366 
L 337.716102 104.806191 
L 338.366061 96.306496 
L 338.69104 94.427061 
L 339.01602 93.200136 
L 339.340999 91.369922 
L 340.315938 90.315044 
L 340.640917 90.235756 
L 340.965897 89.199134 
L 341.290876 89.017518 
L 341.615856 87.674089 
L 341.940835 86.938582 
L 342.265815 86.998786 
L 342.590794 86.420458 
L 343.240753 86.231853 
L 343.565733 85.285975 
L 343.890713 85.076726 
L 344.215692 82.834276 
L 344.540672 82.356778 
L 344.865651 80.70456 
L 345.51561 80.216885 
L 345.84059 77.632949 
L 346.165569 77.526994 
L 346.490549 75.510976 
L 346.815528 75.267166 
L 347.140508 74.577181 
L 347.790467 73.93178 
L 348.765405 72.952413 
L 349.740344 71.598361 
L 350.390303 70.045527 
L 350.715283 69.574492 
L 351.365242 68.428175 
L 352.34018 67.139279 
L 352.66516 66.461793 
L 352.990139 66.161165 
L 353.640098 65.813664 
L 353.965078 64.815877 
L 354.290057 64.592568 
L 354.940016 63.733241 
L 355.264996 62.935321 
L 356.564914 61.536894 
L 356.889894 62.760478 
L 357.214873 62.566238 
L 357.539853 62.119221 
L 357.864832 61.047362 
L 358.839771 59.868671 
L 359.16475 59.9545 
L 360.139689 59.807451 
L 360.464668 60.93649 
L 360.789648 62.667033 
L 361.114627 63.541303 
L 361.439607 63.613828 
L 361.764586 60.648022 
L 362.089566 60.185641 
L 362.414545 60.22422 
L 362.739525 61.945661 
L 363.064505 62.51333 
L 363.389484 63.310824 
L 363.714464 61.559773 
L 364.039443 61.630472 
L 365.98932 64.157113 
L 367.289238 63.949295 
L 367.614218 64.128918 
L 368.264177 63.781849 
L 368.589156 63.781011 
L 368.914136 64.426512 
L 369.239115 64.530055 
L 369.889075 64.408851 
L 370.214054 64.14538 
L 370.864013 64.190082 
L 371.188993 64.409453 
L 371.513972 64.90955 
L 371.838952 65.200839 
L 372.488911 65.472412 
L 372.81389 65.429972 
L 374.113808 66.449331 
L 374.438788 66.367466 
L 375.088747 67.185367 
L 375.413726 67.344275 
L 376.063686 67.923328 
L 376.388665 68.182741 
L 377.363604 69.236397 
L 378.013563 69.611037 
L 378.663522 70.096545 
L 378.988501 70.721493 
L 379.96344 71.231675 
L 380.613399 70.899658 
L 380.938378 70.919108 
L 381.913317 71.915958 
L 382.238296 72.209274 
L 382.563276 72.130843 
L 382.888256 72.23624 
L 383.213235 71.934258 
L 383.538215 71.895872 
L 383.863194 71.611445 
L 384.188174 71.065975 
L 384.513153 71.003138 
L 385.163112 72.517281 
L 386.138051 73.499272 
L 386.46303 73.352169 
L 387.112989 71.609047 
L 387.437969 68.012805 
L 387.762948 69.836961 
L 388.412907 69.597951 
L 389.387846 69.137182 
L 389.712826 68.757288 
L 390.362785 68.469823 
L 391.012744 67.675427 
L 391.337723 67.494761 
L 391.662703 67.717933 
L 391.987682 65.856732 
L 392.312662 65.814611 
L 393.2876 66.647073 
L 393.61258 66.709742 
L 394.262539 66.690135 
L 394.587518 66.849795 
L 394.912498 66.602754 
L 395.562457 66.733368 
L 395.887437 67.153182 
L 396.537396 67.275661 
L 397.187355 67.63995 
L 397.837314 68.403851 
L 398.487273 69.67751 
L 398.487273 69.67751 
" clip-path="url(#p56945a24ef)" style="fill: none; stroke: #ff7f0e; stroke-width: 1.5; stroke-linecap: square"/>
   </g>
   <g id="line2d_15">
    <path d="M 73.832727 100.913743 
L 74.482686 103.588164 
L 74.807666 103.869299 
L 75.132645 104.377297 
L 75.782604 104.845029 
L 76.107584 105.426872 
L 76.432563 105.507581 
L 76.757543 105.976674 
L 77.082523 106.187204 
L 77.732482 106.103301 
L 78.057461 105.965467 
L 78.70742 105.937101 
L 79.0324 104.952006 
L 79.357379 102.286005 
L 80.332318 97.735027 
L 80.657297 95.705248 
L 80.982277 99.234744 
L 81.307256 98.221755 
L 81.957215 94.134785 
L 82.932154 92.507088 
L 83.257133 92.171579 
L 83.582113 92.215129 
L 84.557052 91.560539 
L 84.882031 91.744693 
L 85.207011 91.787292 
L 85.53199 93.290064 
L 85.85697 91.285085 
L 86.181949 91.354646 
L 86.831908 91.68726 
L 87.156888 91.825427 
L 88.781785 89.555164 
L 89.106765 88.605765 
L 89.431744 88.096419 
L 89.756724 88.096419 
L 90.081704 87.038756 
L 91.381622 84.984242 
L 91.706601 84.602134 
L 92.031581 83.500953 
L 92.35656 83.302897 
L 94.306437 81.067012 
L 94.956396 78.039027 
L 97.231253 76.630998 
L 97.556233 76.29469 
L 97.881212 76.15977 
L 98.206192 75.75891 
L 98.531171 76.051268 
L 98.856151 76.113957 
L 99.18113 76.504443 
L 99.50611 76.504443 
L 99.831089 76.783211 
L 100.156069 76.783211 
L 100.806028 77.48955 
L 102.105946 80.977024 
L 102.430925 80.977024 
L 102.755905 81.392652 
L 103.405864 81.36367 
L 104.055823 80.804683 
L 104.705782 79.834514 
L 105.030762 79.721261 
L 105.355741 79.760432 
L 106.33068 80.189281 
L 107.630598 80.61496 
L 108.280557 81.318962 
L 109.905455 83.456125 
L 110.555414 83.863901 
L 111.205373 84.083568 
L 111.530352 84.349801 
L 112.180311 85.66608 
L 113.480229 88.511926 
L 114.455168 90.518981 
L 114.780147 91.061064 
L 115.105127 91.90676 
L 115.430106 92.047576 
L 115.755086 91.995003 
L 116.080066 91.689947 
L 116.405045 90.751654 
L 116.730025 90.751654 
L 117.055004 88.016008 
L 118.029943 83.535435 
L 118.354922 83.085017 
L 118.679902 80.496444 
L 119.329861 78.608398 
L 119.97982 79.512335 
L 120.304799 79.512335 
L 120.954758 84.245874 
L 121.604717 86.744685 
L 121.929697 86.677554 
L 122.254676 84.204606 
L 122.904636 83.254168 
L 123.554595 83.860313 
L 124.204554 83.955582 
L 124.854513 83.750542 
L 126.154431 84.25912 
L 126.47941 84.120234 
L 126.80439 84.19598 
L 127.454349 84.640966 
L 127.779328 85.469569 
L 128.429287 84.241357 
L 129.079247 84.843303 
L 129.404226 84.620533 
L 129.729206 84.927419 
L 130.379165 90.212823 
L 131.029124 92.956661 
L 131.354103 93.873644 
L 131.679083 94.27043 
L 132.004062 94.070297 
L 132.329042 93.500598 
L 132.654021 92.518592 
L 132.979001 91.002641 
L 133.30398 88.796845 
L 134.928878 85.78088 
L 135.253857 84.813447 
L 135.578837 82.054129 
L 136.228796 80.379986 
L 137.203735 79.015555 
L 138.178673 78.402936 
L 138.503653 77.314033 
L 139.153612 76.241269 
L 139.803571 75.852057 
L 140.12855 76.084362 
L 140.45353 76.548023 
L 140.778509 77.442307 
L 141.103489 78.899117 
L 141.428468 79.181837 
L 141.753448 79.06811 
L 142.078428 78.773807 
L 142.728387 77.537042 
L 143.053366 77.505221 
L 143.703325 78.224808 
L 144.028305 78.575335 
L 144.353284 78.555738 
L 145.003243 76.691424 
L 145.978182 74.340855 
L 146.303161 74.288083 
L 146.628141 74.56344 
L 147.2781 75.577088 
L 147.603079 75.45423 
L 148.253038 74.85956 
L 148.578018 75.044535 
L 149.227977 76.107074 
L 150.202916 77.715323 
L 150.527895 78.118384 
L 151.177854 77.980527 
L 151.827813 77.765766 
L 152.477772 77.683819 
L 152.802752 77.464812 
L 153.77769 77.278965 
L 154.427649 77.457225 
L 154.752629 77.779501 
L 155.077609 78.603369 
L 155.402588 78.810562 
L 156.052547 82.196533 
L 156.377527 84.297202 
L 156.702506 84.618985 
L 157.352465 88.224972 
L 157.677445 89.147019 
L 158.002424 90.790649 
L 158.327404 90.338046 
L 158.652383 92.644899 
L 158.977363 91.815171 
L 159.302342 89.027011 
L 159.952301 87.391481 
L 160.92724 94.440114 
L 161.252219 95.70828 
L 161.577199 95.899219 
L 162.227158 95.168733 
L 162.552138 94.768497 
L 162.877117 94.573562 
L 163.202097 94.199855 
L 163.527076 93.569831 
L 163.852056 92.404659 
L 164.502015 91.656547 
L 165.151974 91.436584 
L 166.126912 91.200482 
L 167.101851 90.399968 
L 167.42683 90.399968 
L 167.75181 90.124676 
L 169.051728 88.237034 
L 169.376708 88.179044 
L 170.026667 87.500745 
L 171.001605 86.601238 
L 171.326585 86.059388 
L 171.651564 86.208967 
L 172.301523 86.161132 
L 172.626503 86.517174 
L 172.951482 87.132751 
L 173.276462 88.271531 
L 173.601441 88.760374 
L 175.551319 99.754402 
L 177.176216 93.349536 
L 177.501196 93.294359 
L 178.801114 94.992327 
L 179.126093 95.128132 
L 179.776052 94.517778 
L 180.101032 93.798079 
L 180.426011 93.751432 
L 181.40095 94.181496 
L 182.700868 95.729181 
L 183.675807 95.923386 
L 184.325766 96.241409 
L 184.650745 96.592288 
L 185.950663 97.395547 
L 186.600622 97.961476 
L 186.925602 98.690114 
L 187.575561 101.807378 
L 187.900541 103.610009 
L 188.22552 104.109072 
L 188.5505 104.319977 
L 188.875479 102.995164 
L 189.850418 95.739254 
L 190.175397 94.490585 
L 190.500377 94.075621 
L 190.825356 94.463513 
L 191.150336 94.230872 
L 191.800295 92.907354 
L 192.450254 90.515057 
L 193.425192 85.828824 
L 193.750172 83.760504 
L 194.400131 82.231282 
L 195.37507 80.433538 
L 195.700049 79.331737 
L 196.025029 78.650904 
L 196.350008 78.347227 
L 196.999967 77.315243 
L 197.649926 76.457947 
L 198.299885 76.24465 
L 198.624865 76.184163 
L 198.949844 75.69818 
L 199.274824 75.966993 
L 199.924783 76.70039 
L 200.249762 76.513668 
L 200.574742 77.033176 
L 200.899722 80.834325 
L 201.224701 81.727072 
L 201.549681 81.723231 
L 201.87466 82.840305 
L 202.849599 92.78502 
L 203.174578 92.524957 
L 204.474496 84.743613 
L 204.799476 84.666099 
L 205.124455 84.974632 
L 205.449435 85.715513 
L 206.099394 87.907626 
L 206.424373 88.798068 
L 206.749353 88.621134 
L 207.074333 87.884304 
L 207.399312 87.540493 
L 208.049271 87.680124 
L 208.374251 87.963264 
L 208.69923 88.494877 
L 209.349189 90.223503 
L 209.674169 90.517554 
L 209.999148 89.58745 
L 210.324128 89.495704 
L 210.649107 89.830397 
L 210.974087 90.855171 
L 212.274005 92.908259 
L 212.598984 92.757845 
L 212.923964 93.936494 
L 213.248943 96.474157 
L 213.573923 96.474157 
L 213.898903 99.896412 
L 214.223882 101.275801 
L 214.548862 101.780119 
L 214.873841 101.609044 
L 215.198821 101.133426 
L 215.5238 96.376187 
L 215.84878 96.376187 
L 216.173759 90.863345 
L 216.498739 90.126948 
L 217.148698 91.670644 
L 217.473677 91.824926 
L 217.798657 91.76774 
L 218.123636 91.352299 
L 218.448616 90.62296 
L 218.773595 89.438939 
L 219.098575 86.852324 
L 219.748534 84.418222 
L 220.723473 82.839068 
L 221.048452 82.425706 
L 221.373432 82.323799 
L 221.698411 81.512962 
L 222.34837 80.809947 
L 222.998329 80.282369 
L 223.648288 79.358446 
L 223.973268 79.231951 
L 224.298247 79.250305 
L 224.623227 80.627331 
L 225.273186 79.434626 
L 225.598165 81.058682 
L 225.923145 81.41826 
L 226.248124 81.298652 
L 226.573104 81.833228 
L 226.898084 82.665494 
L 227.873022 89.524714 
L 228.522981 82.686839 
L 229.17294 76.807389 
L 229.822899 72.557633 
L 230.147879 68.800027 
L 230.472858 68.892949 
L 230.797838 69.539138 
L 231.447797 71.874226 
L 231.772776 72.62839 
L 232.097756 71.135244 
L 232.422735 70.222852 
L 232.747715 69.758229 
L 233.072695 69.561619 
L 234.697592 72.540225 
L 235.347551 74.624589 
L 235.99751 76.149604 
L 236.972449 79.655744 
L 237.297428 83.006058 
L 237.622408 83.355244 
L 238.272367 86.728052 
L 238.597346 90.321172 
L 238.922326 91.566433 
L 239.247305 91.934628 
L 239.572285 91.756658 
L 240.222244 88.289218 
L 240.547224 88.221151 
L 240.872203 88.53471 
L 241.197183 89.213867 
L 241.522162 90.188639 
L 242.172121 91.010534 
L 243.14706 89.897508 
L 243.472039 89.488212 
L 243.797019 89.35446 
L 244.121998 89.478767 
L 245.096937 91.161179 
L 245.746896 91.662668 
L 246.396855 91.939975 
L 247.046814 92.757211 
L 247.371794 92.590508 
L 247.696773 91.809001 
L 248.021753 90.149566 
L 248.346732 90.149566 
L 248.671712 87.031676 
L 249.97163 81.046279 
L 250.296609 80.971384 
L 251.271548 81.307015 
L 251.596527 81.369324 
L 251.921507 81.272126 
L 252.246486 80.190361 
L 253.871384 77.412689 
L 254.196364 77.500601 
L 254.846323 77.361113 
L 255.821261 77.255975 
L 256.146241 77.110794 
L 256.47122 77.232116 
L 257.446159 77.25009 
L 258.421097 77.383646 
L 259.396036 78.237284 
L 259.721016 80.434823 
L 260.045995 80.184585 
L 260.370975 78.20461 
L 261.020934 79.320935 
L 261.345913 79.198507 
L 261.670893 79.735784 
L 261.995872 79.947615 
L 262.320852 80.299607 
L 262.645831 80.402816 
L 262.970811 80.694164 
L 263.62077 80.575717 
L 263.945749 80.48387 
L 264.270729 79.992487 
L 264.595708 80.027643 
L 265.570647 79.648955 
L 265.895627 79.648955 
L 266.545586 79.201157 
L 266.870565 79.221982 
L 267.195545 79.382618 
L 267.520524 79.31619 
L 267.845504 78.337306 
L 268.495463 77.545595 
L 268.820442 77.294896 
L 269.470401 77.425307 
L 270.12036 76.236262 
L 270.770319 75.091182 
L 271.095299 74.955975 
L 271.420278 75.38462 
L 272.070238 78.020633 
L 272.720197 77.906701 
L 273.045176 78.097577 
L 273.370156 78.428771 
L 274.020115 79.391727 
L 274.345094 79.542836 
L 274.670074 78.939184 
L 274.995053 79.476135 
L 275.645012 79.881804 
L 276.619951 80.914066 
L 276.94493 81.159443 
L 277.26991 81.127108 
L 277.594889 80.831676 
L 277.919869 80.886942 
L 278.244848 81.194978 
L 278.569828 81.325536 
L 278.894808 82.352413 
L 279.219787 82.973323 
L 279.544767 83.21413 
L 279.869746 83.21413 
L 280.194726 85.161304 
L 281.494644 88.236184 
L 282.469582 89.913159 
L 283.119541 90.602915 
L 284.09448 91.17504 
L 284.419459 91.48489 
L 285.394398 93.605063 
L 285.719378 93.605063 
L 286.369337 94.01455 
L 287.344275 94.336485 
L 287.669255 94.402188 
L 287.994234 94.617271 
L 288.319214 95.018138 
L 288.644193 95.204326 
L 288.969173 96.134695 
L 289.294152 96.50658 
L 289.944111 96.639855 
L 291.244029 96.749354 
L 293.193907 97.182099 
L 293.518886 96.970639 
L 294.168845 96.952902 
L 294.493825 97.082233 
L 295.143784 98.817523 
L 295.468763 98.817523 
L 295.793743 100.239741 
L 296.118722 99.505568 
L 296.443702 99.300465 
L 296.768681 99.266609 
L 297.41864 99.018014 
L 298.393579 99.002849 
L 299.693497 99.940309 
L 300.343456 99.825836 
L 300.993415 99.752689 
L 302.618313 100.149776 
L 303.918231 99.511229 
L 304.89317 99.298589 
L 306.193088 99.228625 
L 306.843047 98.72657 
L 307.168026 98.418821 
L 307.493006 97.928817 
L 307.817985 96.19842 
L 308.142965 95.454081 
L 309.117903 96.073258 
L 309.442883 96.332451 
L 309.767862 96.424548 
L 311.39276 93.104313 
L 312.042719 92.28752 
L 313.992596 87.683009 
L 314.317576 87.574634 
L 314.967535 86.658158 
L 315.292514 86.483892 
L 316.267453 83.724373 
L 316.592432 82.940317 
L 317.242391 81.009148 
L 317.567371 77.713547 
L 317.892351 76.247935 
L 318.54231 74.706026 
L 319.842228 72.491246 
L 320.817166 69.885667 
L 321.142146 69.413613 
L 321.467125 69.192866 
L 322.117084 69.098746 
L 322.442064 68.897361 
L 322.767043 68.415757 
L 324.066962 67.328647 
L 324.391941 67.495671 
L 325.0419 67.323401 
L 326.016839 66.68781 
L 326.341818 66.735149 
L 326.666798 66.95707 
L 326.991777 67.369439 
L 327.316757 68.420499 
L 327.641736 68.420499 
L 327.966716 68.710137 
L 328.941654 68.065951 
L 329.266634 68.139389 
L 329.591613 68.409616 
L 329.916593 69.059946 
L 330.241572 70.412766 
L 330.566552 70.412766 
L 330.891532 70.825928 
L 331.541491 70.695991 
L 331.86647 70.842763 
L 332.19145 71.139785 
L 332.516429 72.1811 
L 332.841409 72.1811 
L 333.166388 73.604017 
L 333.816347 75.4181 
L 334.141327 77.814641 
L 334.466306 77.814641 
L 334.791286 80.758341 
L 335.116265 81.689801 
L 335.441245 82.204283 
L 336.416183 82.900426 
L 336.741163 83.443841 
L 337.716102 90.655555 
L 338.041081 91.593805 
L 339.01602 96.08435 
L 339.340999 97.460291 
L 339.990958 98.027977 
L 340.640917 98.251014 
L 340.965897 98.435057 
L 341.290876 98.772448 
L 341.615856 99.716774 
L 343.240753 102.725297 
L 343.565733 102.999621 
L 343.890713 103.431697 
L 344.215692 103.333085 
L 344.540672 103.629311 
L 344.865651 103.04676 
L 345.51561 103.440983 
L 345.84059 102.631914 
L 346.165569 102.739942 
L 346.490549 101.68728 
L 346.815528 101.776433 
L 347.140508 102.343068 
L 347.465487 102.064632 
L 347.790467 101.62413 
L 348.440426 101.249649 
L 348.765405 101.398985 
L 349.740344 101.46021 
L 350.390303 100.985922 
L 351.690221 100.145583 
L 352.66516 99.159379 
L 353.640098 97.524419 
L 353.965078 94.793242 
L 354.615037 94.376617 
L 354.940016 94.063081 
L 355.264996 93.442029 
L 355.914955 92.751367 
L 357.214873 89.655624 
L 357.539853 89.033456 
L 357.864832 87.762232 
L 358.514791 86.864149 
L 359.16475 85.477965 
L 359.814709 85.081569 
L 360.139689 84.878406 
L 360.464668 85.593677 
L 360.789648 85.947238 
L 361.114627 86.512654 
L 361.439607 86.537298 
L 361.764586 86.052083 
L 362.089566 85.32922 
L 362.414545 85.261773 
L 362.739525 84.575297 
L 363.389484 84.854301 
L 364.039443 83.287631 
L 364.364423 83.095102 
L 365.014382 83.026829 
L 365.339361 82.082089 
L 365.664341 82.022368 
L 365.98932 82.177181 
L 366.639279 82.911689 
L 367.289238 83.169565 
L 367.614218 83.254012 
L 368.264177 83.065697 
L 368.589156 82.888155 
L 368.914136 82.160762 
L 369.239115 82.09454 
L 369.889075 82.252917 
L 370.214054 82.59298 
L 371.188993 82.861665 
L 371.513972 82.786542 
L 372.488911 83.32318 
L 372.81389 83.249184 
L 373.463849 83.527297 
L 374.113808 83.962629 
L 374.763767 83.919917 
L 375.088747 84.15459 
L 375.738706 84.219121 
L 376.388665 84.256719 
L 377.038624 83.94543 
L 378.338542 83.824682 
L 379.63846 83.322564 
L 380.288419 83.287474 
L 380.938378 82.92447 
L 381.263358 82.4585 
L 381.913317 82.299118 
L 382.563276 82.074638 
L 383.213235 81.830935 
L 383.863194 81.508548 
L 384.188174 81.871723 
L 384.838133 81.231461 
L 385.163112 80.800063 
L 385.813071 79.087569 
L 386.138051 78.601886 
L 386.46303 77.324535 
L 387.112989 76.155776 
L 387.762948 78.914699 
L 388.087928 79.690573 
L 388.412907 79.516517 
L 388.737887 79.078597 
L 389.062867 77.960995 
L 389.387846 76.31176 
L 389.712826 75.626473 
L 390.362785 75.245608 
L 390.687764 75.272625 
L 391.337723 76.923476 
L 392.637641 80.83439 
L 392.962621 82.266001 
L 393.61258 83.254854 
L 394.262539 84.850668 
L 395.562457 89.069067 
L 395.887437 90.603926 
L 397.187355 92.493226 
L 397.837314 93.900029 
L 398.162293 95.095857 
L 398.487273 95.757206 
L 398.487273 95.757206 
" clip-path="url(#p56945a24ef)" style="fill: none; stroke: #2ca02c; stroke-width: 1.5; stroke-linecap: square"/>
   </g>
   <g id="patch_3">
    <path d="M 57.6 307.584 
L 57.6 41.472 
" style="fill: none; stroke: #000000; stroke-width: 0.8; stroke-linejoin: miter; stroke-linecap: square"/>
   </g>
   <g id="patch_4">
    <path d="M 414.72 307.584 
L 414.72 41.472 
" style="fill: none; stroke: #000000; stroke-width: 0.8; stroke-linejoin: miter; stroke-linecap: square"/>
   </g>
   <g id="patch_5">
    <path d="M 57.6 307.584 
L 414.72 307.584 
" style="fill: none; stroke: #000000; stroke-width: 0.8; stroke-linejoin: miter; stroke-linecap: square"/>
   </g>
   <g id="patch_6">
    <path d="M 57.6 41.472 
L 414.72 41.472 
" style="fill: none; stroke: #000000; stroke-width: 0.8; stroke-linejoin: miter; stroke-linecap: square"/>
   </g>
   <g id="text_15">
    <!-- Change in rotation components for moving right hand twist -->
    <g transform="translate(13.061953 35.472)scale(0.15 -0.15)">
     <defs>
      <path id="DejaVuSans-43" d="M 4122 4306 
L 4122 3641 
Q 3803 3938 3442 4084 
Q 3081 4231 2675 4231 
Q 1875 4231 1450 3742 
Q 1025 3253 1025 2328 
Q 1025 1406 1450 917 
Q 1875 428 2675 428 
Q 3081 428 3442 575 
Q 3803 722 4122 1019 
L 4122 359 
Q 3791 134 3420 21 
Q 3050 -91 2638 -91 
Q 1578 -91 968 557 
Q 359 1206 359 2328 
Q 359 3453 968 4101 
Q 1578 4750 2638 4750 
Q 3056 4750 3426 4639 
Q 3797 4528 4122 4306 
z
" transform="scale(0.015625)"/>
      <path id="DejaVuSans-68" d="M 3513 2113 
L 3513 0 
L 2938 0 
L 2938 2094 
Q 2938 2591 2744 2837 
Q 2550 3084 2163 3084 
Q 1697 3084 1428 2787 
Q 1159 2491 1159 1978 
L 1159 0 
L 581 0 
L 581 4863 
L 1159 4863 
L 1159 2956 
Q 1366 3272 1645 3428 
Q 1925 3584 2291 3584 
Q 2894 3584 3203 3211 
Q 3513 2838 3513 2113 
z
" transform="scale(0.015625)"/>
      <path id="DejaVuSans-20" transform="scale(0.015625)"/>
      <path id="DejaVuSans-72" d="M 2631 2963 
Q 2534 3019 2420 3045 
Q 2306 3072 2169 3072 
Q 1681 3072 1420 2755 
Q 1159 2438 1159 1844 
L 1159 0 
L 581 0 
L 581 3500 
L 1159 3500 
L 1159 2956 
Q 1341 3275 1631 3429 
Q 1922 3584 2338 3584 
Q 2397 3584 2469 3576 
Q 2541 3569 2628 3553 
L 2631 2963 
z
" transform="scale(0.015625)"/>
      <path id="DejaVuSans-6f" d="M 1959 3097 
Q 1497 3097 1228 2736 
Q 959 2375 959 1747 
Q 959 1119 1226 758 
Q 1494 397 1959 397 
Q 2419 397 2687 759 
Q 2956 1122 2956 1747 
Q 2956 2369 2687 2733 
Q 2419 3097 1959 3097 
z
M 1959 3584 
Q 2709 3584 3137 3096 
Q 3566 2609 3566 1747 
Q 3566 888 3137 398 
Q 2709 -91 1959 -91 
Q 1206 -91 779 398 
Q 353 888 353 1747 
Q 353 2609 779 3096 
Q 1206 3584 1959 3584 
z
" transform="scale(0.015625)"/>
      <path id="DejaVuSans-63" d="M 3122 3366 
L 3122 2828 
Q 2878 2963 2633 3030 
Q 2388 3097 2138 3097 
Q 1578 3097 1268 2742 
Q 959 2388 959 1747 
Q 959 1106 1268 751 
Q 1578 397 2138 397 
Q 2388 397 2633 464 
Q 2878 531 3122 666 
L 3122 134 
Q 2881 22 2623 -34 
Q 2366 -91 2075 -91 
Q 1284 -91 818 406 
Q 353 903 353 1747 
Q 353 2603 823 3093 
Q 1294 3584 2113 3584 
Q 2378 3584 2631 3529 
Q 2884 3475 3122 3366 
z
" transform="scale(0.015625)"/>
      <path id="DejaVuSans-66" d="M 2375 4863 
L 2375 4384 
L 1825 4384 
Q 1516 4384 1395 4259 
Q 1275 4134 1275 3809 
L 1275 3500 
L 2222 3500 
L 2222 3053 
L 1275 3053 
L 1275 0 
L 697 0 
L 697 3053 
L 147 3053 
L 147 3500 
L 697 3500 
L 697 3744 
Q 697 4328 969 4595 
Q 1241 4863 1831 4863 
L 2375 4863 
z
" transform="scale(0.015625)"/>
      <path id="DejaVuSans-76" d="M 191 3500 
L 800 3500 
L 1894 563 
L 2988 3500 
L 3597 3500 
L 2284 0 
L 1503 0 
L 191 3500 
z
" transform="scale(0.015625)"/>
      <path id="DejaVuSans-77" d="M 269 3500 
L 844 3500 
L 1563 769 
L 2278 3500 
L 2956 3500 
L 3675 769 
L 4391 3500 
L 4966 3500 
L 4050 0 
L 3372 0 
L 2619 2869 
L 1863 0 
L 1184 0 
L 269 3500 
z
" transform="scale(0.015625)"/>
     </defs>
     <use xlink:href="#DejaVuSans-43"/>
     <use xlink:href="#DejaVuSans-68" x="69.824219"/>
     <use xlink:href="#DejaVuSans-61" x="133.203125"/>
     <use xlink:href="#DejaVuSans-6e" x="194.482422"/>
     <use xlink:href="#DejaVuSans-67" x="257.861328"/>
     <use xlink:href="#DejaVuSans-65" x="321.337891"/>
     <use xlink:href="#DejaVuSans-20" x="382.861328"/>
     <use xlink:href="#DejaVuSans-69" x="414.648438"/>
     <use xlink:href="#DejaVuSans-6e" x="442.431641"/>
     <use xlink:href="#DejaVuSans-20" x="505.810547"/>
     <use xlink:href="#DejaVuSans-72" x="537.597656"/>
     <use xlink:href="#DejaVuSans-6f" x="576.460938"/>
     <use xlink:href="#DejaVuSans-74" x="637.642578"/>
     <use xlink:href="#DejaVuSans-61" x="676.851562"/>
     <use xlink:href="#DejaVuSans-74" x="738.130859"/>
     <use xlink:href="#DejaVuSans-69" x="777.339844"/>
     <use xlink:href="#DejaVuSans-6f" x="805.123047"/>
     <use xlink:href="#DejaVuSans-6e" x="866.304688"/>
     <use xlink:href="#DejaVuSans-20" x="929.683594"/>
     <use xlink:href="#DejaVuSans-63" x="961.470703"/>
     <use xlink:href="#DejaVuSans-6f" x="1016.451172"/>
     <use xlink:href="#DejaVuSans-6d" x="1077.632812"/>
     <use xlink:href="#DejaVuSans-70" x="1175.044922"/>
     <use xlink:href="#DejaVuSans-6f" x="1238.521484"/>
     <use xlink:href="#DejaVuSans-6e" x="1299.703125"/>
     <use xlink:href="#DejaVuSans-65" x="1363.082031"/>
     <use xlink:href="#DejaVuSans-6e" x="1424.605469"/>
     <use xlink:href="#DejaVuSans-74" x="1487.984375"/>
     <use xlink:href="#DejaVuSans-73" x="1527.193359"/>
     <use xlink:href="#DejaVuSans-20" x="1579.292969"/>
     <use xlink:href="#DejaVuSans-66" x="1611.080078"/>
     <use xlink:href="#DejaVuSans-6f" x="1646.285156"/>
     <use xlink:href="#DejaVuSans-72" x="1707.466797"/>
     <use xlink:href="#DejaVuSans-20" x="1748.580078"/>
     <use xlink:href="#DejaVuSans-6d" x="1780.367188"/>
     <use xlink:href="#DejaVuSans-6f" x="1877.779297"/>
     <use xlink:href="#DejaVuSans-76" x="1938.960938"/>
     <use xlink:href="#DejaVuSans-69" x="1998.140625"/>
     <use xlink:href="#DejaVuSans-6e" x="2025.923828"/>
     <use xlink:href="#DejaVuSans-67" x="2089.302734"/>
     <use xlink:href="#DejaVuSans-20" x="2152.779297"/>
     <use xlink:href="#DejaVuSans-72" x="2184.566406"/>
     <use xlink:href="#DejaVuSans-69" x="2225.679688"/>
     <use xlink:href="#DejaVuSans-67" x="2253.462891"/>
     <use xlink:href="#DejaVuSans-68" x="2316.939453"/>
     <use xlink:href="#DejaVuSans-74" x="2380.318359"/>
     <use xlink:href="#DejaVuSans-20" x="2419.527344"/>
     <use xlink:href="#DejaVuSans-68" x="2451.314453"/>
     <use xlink:href="#DejaVuSans-61" x="2514.693359"/>
     <use xlink:href="#DejaVuSans-6e" x="2575.972656"/>
     <use xlink:href="#DejaVuSans-64" x="2639.351562"/>
     <use xlink:href="#DejaVuSans-20" x="2702.828125"/>
     <use xlink:href="#DejaVuSans-74" x="2734.615234"/>
     <use xlink:href="#DejaVuSans-77" x="2773.824219"/>
     <use xlink:href="#DejaVuSans-69" x="2855.611328"/>
     <use xlink:href="#DejaVuSans-73" x="2883.394531"/>
     <use xlink:href="#DejaVuSans-74" x="2935.494141"/>
    </g>
   </g>
   <g id="legend_1">
    <g id="patch_7">
     <path d="M 351.134063 198.045187 
L 407.72 198.045187 
Q 409.72 198.045187 409.72 196.045187 
L 409.72 153.010812 
Q 409.72 151.010812 407.72 151.010812 
L 351.134063 151.010812 
Q 349.134063 151.010812 349.134063 153.010812 
L 349.134063 196.045187 
Q 349.134063 198.045187 351.134063 198.045187 
z
" style="fill: #ffffff; opacity: 0.8; stroke: #cccccc; stroke-linejoin: miter"/>
    </g>
    <g id="line2d_16">
     <path d="M 353.134063 159.10925 
L 363.134063 159.10925 
L 373.134063 159.10925 
" style="fill: none; stroke: #1f77b4; stroke-width: 1.5; stroke-linecap: square"/>
    </g>
    <g id="text_16">
     <!-- idx 0 -->
     <g transform="translate(381.134063 162.60925)scale(0.1 -0.1)">
      <defs>
       <path id="DejaVuSans-78" d="M 3513 3500 
L 2247 1797 
L 3578 0 
L 2900 0 
L 1881 1375 
L 863 0 
L 184 0 
L 1544 1831 
L 300 3500 
L 978 3500 
L 1906 2253 
L 2834 3500 
L 3513 3500 
z
" transform="scale(0.015625)"/>
      </defs>
      <use xlink:href="#DejaVuSans-69"/>
      <use xlink:href="#DejaVuSans-64" x="27.783203"/>
      <use xlink:href="#DejaVuSans-78" x="91.259766"/>
      <use xlink:href="#DejaVuSans-20" x="150.439453"/>
      <use xlink:href="#DejaVuSans-30" x="182.226562"/>
     </g>
    </g>
    <g id="line2d_17">
     <path d="M 353.134063 173.787375 
L 363.134063 173.787375 
L 373.134063 173.787375 
" style="fill: none; stroke: #ff7f0e; stroke-width: 1.5; stroke-linecap: square"/>
    </g>
    <g id="text_17">
     <!-- idx 1 -->
     <g transform="translate(381.134063 177.287375)scale(0.1 -0.1)">
      <use xlink:href="#DejaVuSans-69"/>
      <use xlink:href="#DejaVuSans-64" x="27.783203"/>
      <use xlink:href="#DejaVuSans-78" x="91.259766"/>
      <use xlink:href="#DejaVuSans-20" x="150.439453"/>
      <use xlink:href="#DejaVuSans-31" x="182.226562"/>
     </g>
    </g>
    <g id="line2d_18">
     <path d="M 353.134063 188.4655 
L 363.134063 188.4655 
L 373.134063 188.4655 
" style="fill: none; stroke: #2ca02c; stroke-width: 1.5; stroke-linecap: square"/>
    </g>
    <g id="text_18">
     <!-- idx 2 -->
     <g transform="translate(381.134063 191.9655)scale(0.1 -0.1)">
      <use xlink:href="#DejaVuSans-69"/>
      <use xlink:href="#DejaVuSans-64" x="27.783203"/>
      <use xlink:href="#DejaVuSans-78" x="91.259766"/>
      <use xlink:href="#DejaVuSans-20" x="150.439453"/>
      <use xlink:href="#DejaVuSans-32" x="182.226562"/>
     </g>
    </g>
   </g>
  </g>
 </g>
 <defs>
  <clipPath id="p56945a24ef">
   <rect x="57.6" y="41.472" width="357.12" height="266.112"/>
  </clipPath>
 </defs>
</svg>
