<?xml version="1.0" encoding="utf-8" standalone="no"?>
<!DOCTYPE svg PUBLIC "-//W3C//DTD SVG 1.1//EN"
  "http://www.w3.org/Graphics/SVG/1.1/DTD/svg11.dtd">
<svg xmlns:xlink="http://www.w3.org/1999/xlink" width="460.8pt" height="345.6pt" viewBox="0 0 460.8 345.6" xmlns="http://www.w3.org/2000/svg" version="1.1">
 <metadata>
  <rdf:RDF xmlns:dc="http://purl.org/dc/elements/1.1/" xmlns:cc="http://creativecommons.org/ns#" xmlns:rdf="http://www.w3.org/1999/02/22-rdf-syntax-ns#">
   <cc:Work>
    <dc:type rdf:resource="http://purl.org/dc/dcmitype/StillImage"/>
    <dc:date>2024-02-14T16:35:43.062193</dc:date>
    <dc:format>image/svg+xml</dc:format>
    <dc:creator>
     <cc:Agent>
      <dc:title>Matplotlib v3.5.0, https://matplotlib.org/</dc:title>
     </cc:Agent>
    </dc:creator>
   </cc:Work>
  </rdf:RDF>
 </metadata>
 <defs>
  <style type="text/css">*{stroke-linejoin: round; stroke-linecap: butt}</style>
 </defs>
 <g id="figure_1">
  <g id="patch_1">
   <path d="M 0 345.6 
L 460.8 345.6 
L 460.8 0 
L 0 0 
z
" style="fill: #ffffff"/>
  </g>
  <g id="axes_1">
   <g id="patch_2">
    <path d="M 57.6 307.584 
L 414.72 307.584 
L 414.72 41.472 
L 57.6 41.472 
z
" style="fill: #ffffff"/>
   </g>
   <g id="matplotlib.axis_1">
    <g id="xtick_1">
     <g id="line2d_1">
      <defs>
       <path id="me0e240ba49" d="M 0 0 
L 0 3.5 
" style="stroke: #000000; stroke-width: 0.8"/>
      </defs>
      <g>
       <use xlink:href="#me0e240ba49" x="73.832727" y="307.584" style="stroke: #000000; stroke-width: 0.8"/>
      </g>
     </g>
     <g id="text_1">
      <!-- 0 -->
      <g transform="translate(67.470227 329.780875)scale(0.2 -0.2)">
       <defs>
        <path id="DejaVuSans-30" d="M 2034 4250 
Q 1547 4250 1301 3770 
Q 1056 3291 1056 2328 
Q 1056 1369 1301 889 
Q 1547 409 2034 409 
Q 2525 409 2770 889 
Q 3016 1369 3016 2328 
Q 3016 3291 2770 3770 
Q 2525 4250 2034 4250 
z
M 2034 4750 
Q 2819 4750 3233 4129 
Q 3647 3509 3647 2328 
Q 3647 1150 3233 529 
Q 2819 -91 2034 -91 
Q 1250 -91 836 529 
Q 422 1150 422 2328 
Q 422 3509 836 4129 
Q 1250 4750 2034 4750 
z
" transform="scale(0.015625)"/>
       </defs>
       <use xlink:href="#DejaVuSans-30"/>
      </g>
     </g>
    </g>
    <g id="xtick_2">
     <g id="line2d_2">
      <g>
       <use xlink:href="#me0e240ba49" x="399.962975" y="307.584" style="stroke: #000000; stroke-width: 0.8"/>
      </g>
     </g>
     <g id="text_2">
      <!-- 1 -->
      <g transform="translate(393.600475 329.780875)scale(0.2 -0.2)">
       <defs>
        <path id="DejaVuSans-31" d="M 794 531 
L 1825 531 
L 1825 4091 
L 703 3866 
L 703 4441 
L 1819 4666 
L 2450 4666 
L 2450 531 
L 3481 531 
L 3481 0 
L 794 0 
L 794 531 
z
" transform="scale(0.015625)"/>
       </defs>
       <use xlink:href="#DejaVuSans-31"/>
      </g>
     </g>
    </g>
    <g id="text_3">
     <!-- Normalised X position -->
     <g transform="translate(111.795937 353.137125)scale(0.2 -0.2)">
      <defs>
       <path id="DejaVuSans-Bold-4e" d="M 588 4666 
L 1931 4666 
L 3628 1466 
L 3628 4666 
L 4769 4666 
L 4769 0 
L 3425 0 
L 1728 3200 
L 1728 0 
L 588 0 
L 588 4666 
z
" transform="scale(0.015625)"/>
       <path id="DejaVuSans-Bold-6f" d="M 2203 2784 
Q 1831 2784 1636 2517 
Q 1441 2250 1441 1747 
Q 1441 1244 1636 976 
Q 1831 709 2203 709 
Q 2569 709 2762 976 
Q 2956 1244 2956 1747 
Q 2956 2250 2762 2517 
Q 2569 2784 2203 2784 
z
M 2203 3584 
Q 3106 3584 3614 3096 
Q 4122 2609 4122 1747 
Q 4122 884 3614 396 
Q 3106 -91 2203 -91 
Q 1297 -91 786 396 
Q 275 884 275 1747 
Q 275 2609 786 3096 
Q 1297 3584 2203 3584 
z
" transform="scale(0.015625)"/>
       <path id="DejaVuSans-Bold-72" d="M 3138 2547 
Q 2991 2616 2845 2648 
Q 2700 2681 2553 2681 
Q 2122 2681 1889 2404 
Q 1656 2128 1656 1613 
L 1656 0 
L 538 0 
L 538 3500 
L 1656 3500 
L 1656 2925 
Q 1872 3269 2151 3426 
Q 2431 3584 2822 3584 
Q 2878 3584 2943 3579 
Q 3009 3575 3134 3559 
L 3138 2547 
z
" transform="scale(0.015625)"/>
       <path id="DejaVuSans-Bold-6d" d="M 3781 2919 
Q 3994 3244 4286 3414 
Q 4578 3584 4928 3584 
Q 5531 3584 5847 3212 
Q 6163 2841 6163 2131 
L 6163 0 
L 5038 0 
L 5038 1825 
Q 5041 1866 5042 1909 
Q 5044 1953 5044 2034 
Q 5044 2406 4934 2573 
Q 4825 2741 4581 2741 
Q 4263 2741 4089 2478 
Q 3916 2216 3909 1719 
L 3909 0 
L 2784 0 
L 2784 1825 
Q 2784 2406 2684 2573 
Q 2584 2741 2328 2741 
Q 2006 2741 1831 2477 
Q 1656 2213 1656 1722 
L 1656 0 
L 531 0 
L 531 3500 
L 1656 3500 
L 1656 2988 
Q 1863 3284 2130 3434 
Q 2397 3584 2719 3584 
Q 3081 3584 3359 3409 
Q 3638 3234 3781 2919 
z
" transform="scale(0.015625)"/>
       <path id="DejaVuSans-Bold-61" d="M 2106 1575 
Q 1756 1575 1579 1456 
Q 1403 1338 1403 1106 
Q 1403 894 1545 773 
Q 1688 653 1941 653 
Q 2256 653 2472 879 
Q 2688 1106 2688 1447 
L 2688 1575 
L 2106 1575 
z
M 3816 1997 
L 3816 0 
L 2688 0 
L 2688 519 
Q 2463 200 2181 54 
Q 1900 -91 1497 -91 
Q 953 -91 614 226 
Q 275 544 275 1050 
Q 275 1666 698 1953 
Q 1122 2241 2028 2241 
L 2688 2241 
L 2688 2328 
Q 2688 2594 2478 2717 
Q 2269 2841 1825 2841 
Q 1466 2841 1156 2769 
Q 847 2697 581 2553 
L 581 3406 
Q 941 3494 1303 3539 
Q 1666 3584 2028 3584 
Q 2975 3584 3395 3211 
Q 3816 2838 3816 1997 
z
" transform="scale(0.015625)"/>
       <path id="DejaVuSans-Bold-6c" d="M 538 4863 
L 1656 4863 
L 1656 0 
L 538 0 
L 538 4863 
z
" transform="scale(0.015625)"/>
       <path id="DejaVuSans-Bold-69" d="M 538 3500 
L 1656 3500 
L 1656 0 
L 538 0 
L 538 3500 
z
M 538 4863 
L 1656 4863 
L 1656 3950 
L 538 3950 
L 538 4863 
z
" transform="scale(0.015625)"/>
       <path id="DejaVuSans-Bold-73" d="M 3272 3391 
L 3272 2541 
Q 2913 2691 2578 2766 
Q 2244 2841 1947 2841 
Q 1628 2841 1473 2761 
Q 1319 2681 1319 2516 
Q 1319 2381 1436 2309 
Q 1553 2238 1856 2203 
L 2053 2175 
Q 2913 2066 3209 1816 
Q 3506 1566 3506 1031 
Q 3506 472 3093 190 
Q 2681 -91 1863 -91 
Q 1516 -91 1145 -36 
Q 775 19 384 128 
L 384 978 
Q 719 816 1070 734 
Q 1422 653 1784 653 
Q 2113 653 2278 743 
Q 2444 834 2444 1013 
Q 2444 1163 2330 1236 
Q 2216 1309 1875 1350 
L 1678 1375 
Q 931 1469 631 1722 
Q 331 1975 331 2491 
Q 331 3047 712 3315 
Q 1094 3584 1881 3584 
Q 2191 3584 2531 3537 
Q 2872 3491 3272 3391 
z
" transform="scale(0.015625)"/>
       <path id="DejaVuSans-Bold-65" d="M 4031 1759 
L 4031 1441 
L 1416 1441 
Q 1456 1047 1700 850 
Q 1944 653 2381 653 
Q 2734 653 3104 758 
Q 3475 863 3866 1075 
L 3866 213 
Q 3469 63 3072 -14 
Q 2675 -91 2278 -91 
Q 1328 -91 801 392 
Q 275 875 275 1747 
Q 275 2603 792 3093 
Q 1309 3584 2216 3584 
Q 3041 3584 3536 3087 
Q 4031 2591 4031 1759 
z
M 2881 2131 
Q 2881 2450 2695 2645 
Q 2509 2841 2209 2841 
Q 1884 2841 1681 2658 
Q 1478 2475 1428 2131 
L 2881 2131 
z
" transform="scale(0.015625)"/>
       <path id="DejaVuSans-Bold-64" d="M 2919 2988 
L 2919 4863 
L 4044 4863 
L 4044 0 
L 2919 0 
L 2919 506 
Q 2688 197 2409 53 
Q 2131 -91 1766 -91 
Q 1119 -91 703 423 
Q 288 938 288 1747 
Q 288 2556 703 3070 
Q 1119 3584 1766 3584 
Q 2128 3584 2408 3439 
Q 2688 3294 2919 2988 
z
M 2181 722 
Q 2541 722 2730 984 
Q 2919 1247 2919 1747 
Q 2919 2247 2730 2509 
Q 2541 2772 2181 2772 
Q 1825 2772 1636 2509 
Q 1447 2247 1447 1747 
Q 1447 1247 1636 984 
Q 1825 722 2181 722 
z
" transform="scale(0.015625)"/>
       <path id="DejaVuSans-Bold-20" transform="scale(0.015625)"/>
       <path id="DejaVuSans-Bold-58" d="M 3188 2381 
L 4806 0 
L 3553 0 
L 2463 1594 
L 1381 0 
L 122 0 
L 1741 2381 
L 184 4666 
L 1441 4666 
L 2463 3163 
L 3481 4666 
L 4744 4666 
L 3188 2381 
z
" transform="scale(0.015625)"/>
       <path id="DejaVuSans-Bold-70" d="M 1656 506 
L 1656 -1331 
L 538 -1331 
L 538 3500 
L 1656 3500 
L 1656 2988 
Q 1888 3294 2169 3439 
Q 2450 3584 2816 3584 
Q 3463 3584 3878 3070 
Q 4294 2556 4294 1747 
Q 4294 938 3878 423 
Q 3463 -91 2816 -91 
Q 2450 -91 2169 54 
Q 1888 200 1656 506 
z
M 2400 2772 
Q 2041 2772 1848 2508 
Q 1656 2244 1656 1747 
Q 1656 1250 1848 986 
Q 2041 722 2400 722 
Q 2759 722 2948 984 
Q 3138 1247 3138 1747 
Q 3138 2247 2948 2509 
Q 2759 2772 2400 2772 
z
" transform="scale(0.015625)"/>
       <path id="DejaVuSans-Bold-74" d="M 1759 4494 
L 1759 3500 
L 2913 3500 
L 2913 2700 
L 1759 2700 
L 1759 1216 
Q 1759 972 1856 886 
Q 1953 800 2241 800 
L 2816 800 
L 2816 0 
L 1856 0 
Q 1194 0 917 276 
Q 641 553 641 1216 
L 641 2700 
L 84 2700 
L 84 3500 
L 641 3500 
L 641 4494 
L 1759 4494 
z
" transform="scale(0.015625)"/>
       <path id="DejaVuSans-Bold-6e" d="M 4056 2131 
L 4056 0 
L 2931 0 
L 2931 347 
L 2931 1631 
Q 2931 2084 2911 2256 
Q 2891 2428 2841 2509 
Q 2775 2619 2662 2680 
Q 2550 2741 2406 2741 
Q 2056 2741 1856 2470 
Q 1656 2200 1656 1722 
L 1656 0 
L 538 0 
L 538 3500 
L 1656 3500 
L 1656 2988 
Q 1909 3294 2193 3439 
Q 2478 3584 2822 3584 
Q 3428 3584 3742 3212 
Q 4056 2841 4056 2131 
z
" transform="scale(0.015625)"/>
      </defs>
      <use xlink:href="#DejaVuSans-Bold-4e"/>
      <use xlink:href="#DejaVuSans-Bold-6f" x="83.691406"/>
      <use xlink:href="#DejaVuSans-Bold-72" x="152.392578"/>
      <use xlink:href="#DejaVuSans-Bold-6d" x="201.708984"/>
      <use xlink:href="#DejaVuSans-Bold-61" x="305.908203"/>
      <use xlink:href="#DejaVuSans-Bold-6c" x="373.388672"/>
      <use xlink:href="#DejaVuSans-Bold-69" x="407.666016"/>
      <use xlink:href="#DejaVuSans-Bold-73" x="441.943359"/>
      <use xlink:href="#DejaVuSans-Bold-65" x="501.464844"/>
      <use xlink:href="#DejaVuSans-Bold-64" x="569.287109"/>
      <use xlink:href="#DejaVuSans-Bold-20" x="640.869141"/>
      <use xlink:href="#DejaVuSans-Bold-58" x="675.683594"/>
      <use xlink:href="#DejaVuSans-Bold-20" x="752.783203"/>
      <use xlink:href="#DejaVuSans-Bold-70" x="787.597656"/>
      <use xlink:href="#DejaVuSans-Bold-6f" x="859.179688"/>
      <use xlink:href="#DejaVuSans-Bold-73" x="927.880859"/>
      <use xlink:href="#DejaVuSans-Bold-69" x="987.402344"/>
      <use xlink:href="#DejaVuSans-Bold-74" x="1021.679688"/>
      <use xlink:href="#DejaVuSans-Bold-69" x="1069.482422"/>
      <use xlink:href="#DejaVuSans-Bold-6f" x="1103.759766"/>
      <use xlink:href="#DejaVuSans-Bold-6e" x="1172.460938"/>
     </g>
    </g>
   </g>
   <g id="matplotlib.axis_2">
    <g id="ytick_1">
     <g id="line2d_3">
      <defs>
       <path id="m091d1c38e5" d="M 0 0 
L -3.5 0 
" style="stroke: #000000; stroke-width: 0.8"/>
      </defs>
      <g>
       <use xlink:href="#m091d1c38e5" x="57.6" y="297" style="stroke: #000000; stroke-width: 0.8"/>
      </g>
     </g>
     <g id="text_4">
      <!-- 0 -->
      <g transform="translate(37.875 304.598437)scale(0.2 -0.2)">
       <use xlink:href="#DejaVuSans-30"/>
      </g>
     </g>
    </g>
    <g id="ytick_2">
     <g id="line2d_4">
      <g>
       <use xlink:href="#m091d1c38e5" x="57.6" y="53.568" style="stroke: #000000; stroke-width: 0.8"/>
      </g>
     </g>
     <g id="text_5">
      <!-- 1 -->
      <g transform="translate(37.875 61.166438)scale(0.2 -0.2)">
       <use xlink:href="#DejaVuSans-31"/>
      </g>
     </g>
    </g>
    <g id="text_6">
     <!-- Normalised Y position -->
     <g transform="translate(29.715625 298.423313)rotate(-90)scale(0.2 -0.2)">
      <defs>
       <path id="DejaVuSans-Bold-59" d="M -63 4666 
L 1253 4666 
L 2316 3003 
L 3378 4666 
L 4697 4666 
L 2919 1966 
L 2919 0 
L 1716 0 
L 1716 1966 
L -63 4666 
z
" transform="scale(0.015625)"/>
      </defs>
      <use xlink:href="#DejaVuSans-Bold-4e"/>
      <use xlink:href="#DejaVuSans-Bold-6f" x="83.691406"/>
      <use xlink:href="#DejaVuSans-Bold-72" x="152.392578"/>
      <use xlink:href="#DejaVuSans-Bold-6d" x="201.708984"/>
      <use xlink:href="#DejaVuSans-Bold-61" x="305.908203"/>
      <use xlink:href="#DejaVuSans-Bold-6c" x="373.388672"/>
      <use xlink:href="#DejaVuSans-Bold-69" x="407.666016"/>
      <use xlink:href="#DejaVuSans-Bold-73" x="441.943359"/>
      <use xlink:href="#DejaVuSans-Bold-65" x="501.464844"/>
      <use xlink:href="#DejaVuSans-Bold-64" x="569.287109"/>
      <use xlink:href="#DejaVuSans-Bold-20" x="640.869141"/>
      <use xlink:href="#DejaVuSans-Bold-59" x="675.683594"/>
      <use xlink:href="#DejaVuSans-Bold-20" x="748.095703"/>
      <use xlink:href="#DejaVuSans-Bold-70" x="782.910156"/>
      <use xlink:href="#DejaVuSans-Bold-6f" x="854.492188"/>
      <use xlink:href="#DejaVuSans-Bold-73" x="923.193359"/>
      <use xlink:href="#DejaVuSans-Bold-69" x="982.714844"/>
      <use xlink:href="#DejaVuSans-Bold-74" x="1016.992188"/>
      <use xlink:href="#DejaVuSans-Bold-69" x="1064.794922"/>
      <use xlink:href="#DejaVuSans-Bold-6f" x="1099.072266"/>
      <use xlink:href="#DejaVuSans-Bold-6e" x="1167.773438"/>
     </g>
    </g>
   </g>
   <g id="line2d_5">
    <path d="M 73.832727 295.488 
L 77.669554 295.488 
L 73.832727 294.2784 
L 117.513521 295.488 
L 115.447537 287.6256 
L 124.892033 261.9216 
L 215.205025 224.1216 
L 214.909884 169.6896 
L 219.041851 111.3264 
L 226.125223 53.568 
L 281.316496 53.568 
L 294.892959 56.2896 
L 257.410116 72.6192 
L 238.521124 75.0384 
L 233.208595 79.5744 
L 234.684298 87.1344 
L 257.705256 97.416 
L 280.431074 107.0928 
L 306.403438 117.072 
L 327.358413 122.5152 
L 347.723107 130.0752 
L 363.365554 129.7728 
L 374.580893 129.168 
L 373.10519 128.5632 
L 361.00443 122.2128 
L 342.410579 113.4432 
L 317.028496 103.464 
L 296.368661 91.6704 
L 286.333884 84.7152 
L 280.726215 80.1792 
L 275.413686 75.0384 
L 270.101157 69.5952 
L 262.132364 64.152 
L 255.344132 59.9184 
L 249.146182 57.1968 
L 287.514446 60.2208 
L 315.847934 66.8736 
L 341.525157 75.6432 
L 367.497521 88.6464 
L 384.025388 101.6496 
L 398.487273 115.8624 
L 398.487273 254.0592 
L 396.421289 253.7568 
L 395.240727 251.64 
L 391.10876 246.8016 
L 391.994182 249.2208 
L 392.584463 248.0112 
L 390.81362 247.4064 
L 389.337917 247.4064 
L 390.81362 247.7088 
L 398.487273 247.7088 
L 398.487273 247.7088 
L 398.487273 176.04 
L 394.945587 142.4736 
L 383.435107 102.2544 
L 366.90724 71.4096 
L 348.313388 53.568 
L 289.87557 53.568 
L 258.885818 58.104 
L 234.979438 58.7088 
L 216.680727 60.8256 
L 204.284826 65.3616 
L 193.954909 71.1072 
L 179.197884 87.1344 
L 172.114512 98.0208 
L 168.277686 111.024 
L 169.458248 123.4224 
L 172.114512 136.1232 
L 175.951339 147.6144 
L 176.54162 155.1744 
L 179.788165 166.6656 
L 183.034711 172.7136 
L 189.232661 177.2496 
L 195.430612 188.136 
L 203.989686 194.184 
L 213.139041 194.184 
L 218.15643 196.3008 
L 220.812694 192.672 
L 223.468959 180.2736 
L 224.649521 167.5728 
L 218.15643 152.4528 
L 206.941091 137.6352 
L 190.413223 130.0752 
L 176.54162 127.0512 
L 167.097124 125.8416 
L 154.996364 128.5632 
L 150.864397 133.0992 
L 149.683835 137.6352 
L 152.044959 144.288 
L 155.586645 146.7072 
L 155.586645 148.824 
L 156.767207 150.9408 
L 160.308893 152.1504 
L 166.211702 152.1504 
L 174.180496 152.4528 
L 182.44443 151.5456 
L 187.461818 151.5456 
L 192.479207 152.4528 
L 196.611174 154.5696 
L 200.15286 156.0816 
L 200.448 159.408 
L 199.562579 161.2224 
L 199.562579 162.7344 
L 200.15286 161.8272 
L 201.923702 155.7792 
L 203.989686 149.1264 
L 205.170248 141.8688 
L 206.64595 136.4256 
L 208.121653 129.168 
L 208.711934 122.5152 
L 209.007074 112.8384 
L 209.892496 106.488 
L 212.25362 99.8352 
L 213.434182 92.2752 
L 213.139041 82.296 
L 209.302215 72.3168 
L 204.579967 66.5712 
L 201.333421 63.2448 
L 196.316033 61.7328 
L 175.065917 59.0112 
L 161.784595 53.568 
L 127.253157 53.568 
L 398.487273 53.568 
L 398.487273 53.568 
L 372.514909 62.3376 
L 300.205488 73.5264 
L 301.38605 76.8528 
L 278.660231 76.248 
L 236.750281 79.272 
L 197.496595 89.5536 
L 172.999934 99.2304 
L 155.291504 111.6288 
L 151.749818 124.3296 
L 161.194314 132.192 
L 169.753388 136.728 
L 181.263868 141.5664 
L 186.871537 145.8 
L 192.184066 165.1536 
L 209.302215 179.064 
L 211.073058 191.16 
L 211.073058 204.4656 
L 210.777917 211.1184 
L 207.826512 215.9568 
L 206.055669 219.888 
L 198.086876 222.3072 
L 197.496595 221.7024 
L 193.954909 222.3072 
L 189.822942 222.0048 
L 185.395835 221.0976 
L 180.378446 220.7952 
L 178.902744 221.4 
L 176.246479 221.4 
L 172.999934 220.7952 
L 169.458248 218.376 
L 165.03114 216.5616 
L 161.489455 215.352 
L 158.83319 215.352 
L 158.242909 215.0496 
L 159.423471 213.2352 
L 160.308893 210.5136 
L 162.965157 205.9776 
L 168.572826 198.72 
L 183.920132 192.0672 
L 188.937521 182.9952 
L 192.774347 174.2256 
L 195.430612 167.8752 
L 198.972298 161.8272 
L 203.399405 157.896 
L 199.562579 157.2912 
L 196.611174 156.6864 
L 180.673587 157.5936 
L 167.687405 157.896 
L 158.242909 158.5008 
L 150.864397 161.2224 
L 145.847008 161.5248 
L 141.715041 161.2224 
L 134.631669 162.1296 
L 130.204562 162.1296 
L 125.777455 162.432 
L 122.235769 161.2224 
L 117.21838 162.432 
L 117.513521 161.8272 
L 125.482314 159.1056 
L 120.464926 155.4768 
L 112.496132 149.1264 
L 99.805091 141.5664 
L 88.294612 134.3088 
L 77.374413 128.5632 
L 73.832727 122.8176 
L 73.832727 60.5232 
L 73.832727 64.7568 
L 76.488992 69.8976 
L 80.325818 75.0384 
L 98.624529 90.4608 
L 107.183603 90.4608 
L 108.659306 89.856 
L 111.02043 90.4608 
L 116.628099 90.4608 
L 124.006612 93.7872 
L 127.253157 94.9968 
L 133.155967 101.3472 
L 138.763636 112.536 
L 153.225521 126.4464 
L 157.947769 127.9584 
L 168.867967 131.5872 
L 172.704793 139.1472 
L 182.149289 145.4976 
L 194.54519 154.2672 
L 207.826512 161.2224 
L 218.45157 168.7824 
L 224.05924 170.8992 
L 222.288397 181.1808 
L 224.35438 187.5312 
L 227.305785 191.16 
L 231.142612 189.9504 
L 231.732893 189.3456 
L 232.913455 187.5312 
L 235.569719 184.8096 
L 225.830083 180.2736 
L 229.666909 178.4592 
L 237.635702 179.3664 
L 242.653091 179.6688 
L 244.128793 182.6928 
L 245.899636 185.7168 
L 247.080198 188.4384 
L 247.080198 190.8576 
L 245.309355 193.5792 
L 244.719074 195.3936 
L 246.785058 196.9056 
L 251.802446 195.3936 
L 260.06638 192.3696 
L 269.215736 189.648 
L 278.660231 186.3216 
L 289.58043 183.2976 
L 299.615207 180.8784 
L 307.87914 180.2736 
L 314.962512 181.4832 
L 320.275041 184.5072 
L 324.997289 186.624 
L 328.834116 187.8336 
L 331.19524 189.9504 
L 332.080661 191.4624 
L 332.080661 192.672 
L 331.49038 194.4864 
L 330.309818 195.696 
L 329.129256 198.4176 
L 329.129256 199.6272 
L 328.834116 203.8608 
L 328.243835 206.5824 
L 327.063273 209.6064 
L 326.472992 213.2352 
L 325.29243 216.864 
L 324.702149 219.2832 
L 322.931306 223.5168 
L 322.045884 224.424 
L 320.865322 225.3312 
L 320.865322 225.0288 
L 321.160463 224.7264 
L 321.750744 225.0288 
L 322.045884 225.6336 
L 322.341025 225.936 
L 323.226446 226.5408 
L 324.997289 225.6336 
L 326.177851 225.3312 
L 330.900099 225.0288 
L 337.688331 224.7264 
L 345.361983 225.0288 
L 332.670942 227.1456 
L 317.028496 225.936 
L 302.271471 224.1216 
L 289.87557 220.1904 
L 280.135934 216.2592 
L 271.872 215.0496 
L 276.299107 214.7472 
L 276.299107 214.7472 
" clip-path="url(#p60b8209490)" style="fill: none; stroke: #000000; stroke-width: 1.5; stroke-linecap: square"/>
   </g>
   <g id="line2d_6">
    <path d="M 73.832727 295.488 
" clip-path="url(#p60b8209490)" style="fill: none; stroke: #000000; stroke-width: 1.5; stroke-linecap: square"/>
    <defs>
     <path id="m47274130ef" d="M 0 5 
C 1.326016 5 2.597899 4.473168 3.535534 3.535534 
C 4.473168 2.597899 5 1.326016 5 0 
C 5 -1.326016 4.473168 -2.597899 3.535534 -3.535534 
C 2.597899 -4.473168 1.326016 -5 0 -5 
C -1.326016 -5 -2.597899 -4.473168 -3.535534 -3.535534 
C -4.473168 -2.597899 -5 -1.326016 -5 0 
C -5 1.326016 -4.473168 2.597899 -3.535534 3.535534 
C -2.597899 4.473168 -1.326016 5 0 5 
z
" style="stroke: #000000"/>
    </defs>
    <g clip-path="url(#p60b8209490)">
     <use xlink:href="#m47274130ef" x="73.832727" y="295.488" style="stroke: #000000"/>
    </g>
   </g>
   <g id="line2d_7">
    <path d="M 276.299107 214.7472 
" clip-path="url(#p60b8209490)" style="fill: none; stroke: #000000; stroke-width: 1.5; stroke-linecap: square"/>
    <defs>
     <path id="mf90f14340e" d="M -5 5 
L 5 5 
L 5 -5 
L -5 -5 
z
" style="stroke: #000000; stroke-linejoin: miter"/>
    </defs>
    <g clip-path="url(#p60b8209490)">
     <use xlink:href="#mf90f14340e" x="276.299107" y="214.7472" style="stroke: #000000; stroke-linejoin: miter"/>
    </g>
   </g>
   <g id="line2d_8">
    <path d="M 291.941554 167.2704 
L 292.236694 170.5968 
L 292.826975 174.2256 
L 294.007537 176.9472 
L 294.892959 178.7616 
L 294.892959 179.6688 
L 295.48324 180.576 
L 295.48324 180.8784 
L 295.77838 180.8784 
L 296.073521 180.8784 
L 295.77838 180.576 
L 294.892959 179.3664 
L 294.302678 176.6448 
L 292.826975 173.3184 
L 288.695008 170.2944 
L 286.038744 166.6656 
L 283.382479 162.432 
L 281.906777 154.872 
L 280.135934 141.8688 
L 278.660231 120.7008 
L 278.955372 88.6464 
L 282.792198 53.568 
L 292.236694 53.568 
L 300.205488 53.568 
L 294.007537 53.568 
L 266.559471 53.568 
L 233.798876 53.568 
L 193.954909 53.568 
L 151.159537 53.568 
L 111.905851 53.568 
L 79.145256 53.568 
L 73.832727 53.568 
L 73.832727 53.568 
L 77.079273 53.568 
L 87.40919 53.568 
L 112.200992 59.0112 
L 134.92681 65.3616 
L 158.53805 71.1072 
L 180.673587 75.9456 
L 198.972298 81.3888 
L 209.892496 88.0416 
L 214.319603 95.2992 
L 214.319603 102.8592 
L 214.024463 110.4192 
L 214.024463 118.2816 
L 213.729322 125.8416 
L 213.139041 132.4944 
L 211.073058 137.0304 
L 217.271008 141.5664 
L 223.468959 143.0784 
L 227.305785 144.288 
L 229.076628 145.4976 
L 228.781488 146.1024 
L 223.468959 147.6144 
L 217.566149 148.824 
L 210.187636 150.0336 
L 203.399405 151.2432 
L 197.201455 153.0576 
L 196.020893 154.2672 
L 197.496595 155.1744 
L 199.562579 156.6864 
L 203.694545 157.896 
L 207.531372 159.7104 
L 211.073058 161.2224 
L 216.090446 162.432 
L 221.107835 163.944 
L 226.715504 164.2464 
L 231.437752 165.1536 
L 234.094017 165.456 
L 236.16 165.7584 
L 237.635702 166.3632 
L 238.521124 166.6656 
L 237.340562 166.3632 
L 236.16 166.3632 
L 236.750281 165.456 
L 236.750281 164.5488 
L 237.930843 163.3392 
L 237.930843 162.432 
L 236.750281 162.1296 
L 233.798876 162.432 
L 232.618314 161.8272 
L 232.028033 161.5248 
L 230.25719 161.5248 
L 231.142612 161.5248 
L 229.371769 160.6176 
L 229.076628 159.1056 
L 229.666909 157.896 
L 228.781488 157.2912 
L 226.715504 157.5936 
L 224.05924 157.896 
L 221.698116 158.5008 
L 218.746711 158.8032 
L 214.909884 159.1056 
L 210.187636 159.1056 
L 202.809124 159.7104 
L 192.774347 160.3152 
L 182.44443 160.92 
" clip-path="url(#p60b8209490)" style="fill: none; stroke: #ffa07a; stroke-width: 1.5; stroke-linecap: square"/>
   </g>
   <g id="line2d_9">
    <path d="M 291.941554 167.2704 
" clip-path="url(#p60b8209490)" style="fill: none; stroke: #ffa07a; stroke-width: 1.5; stroke-linecap: square"/>
    <defs>
     <path id="md41992d113" d="M 0 5 
C 1.326016 5 2.597899 4.473168 3.535534 3.535534 
C 4.473168 2.597899 5 1.326016 5 0 
C 5 -1.326016 4.473168 -2.597899 3.535534 -3.535534 
C 2.597899 -4.473168 1.326016 -5 0 -5 
C -1.326016 -5 -2.597899 -4.473168 -3.535534 -3.535534 
C -4.473168 -2.597899 -5 -1.326016 -5 0 
C -5 1.326016 -4.473168 2.597899 -3.535534 3.535534 
C -2.597899 4.473168 -1.326016 5 0 5 
z
" style="stroke: #ffa07a"/>
    </defs>
    <g clip-path="url(#p60b8209490)">
     <use xlink:href="#md41992d113" x="291.941554" y="167.2704" style="fill: #ffa07a; stroke: #ffa07a"/>
    </g>
   </g>
   <g id="line2d_10">
    <path d="M 182.44443 160.92 
" clip-path="url(#p60b8209490)" style="fill: none; stroke: #ffa07a; stroke-width: 1.5; stroke-linecap: square"/>
    <defs>
     <path id="m5bae3d4fd5" d="M -5 5 
L 5 5 
L 5 -5 
L -5 -5 
z
" style="stroke: #ffa07a; stroke-linejoin: miter"/>
    </defs>
    <g clip-path="url(#p60b8209490)">
     <use xlink:href="#m5bae3d4fd5" x="182.44443" y="160.92" style="fill: #ffa07a; stroke: #ffa07a; stroke-linejoin: miter"/>
    </g>
   </g>
   <g id="line2d_11">
    <path d="M 160.899174 123.4224 
L 160.604033 123.4224 
L 160.604033 123.7248 
L 160.604033 123.7248 
L 160.899174 123.7248 
L 160.604033 123.7248 
L 160.604033 124.0272 
L 159.718612 124.0272 
L 158.53805 124.3296 
L 157.947769 124.632 
L 156.176926 124.632 
L 154.996364 125.2368 
L 155.291504 124.9344 
L 155.586645 124.9344 
L 156.176926 124.3296 
L 155.881785 124.632 
L 155.291504 124.632 
L 152.93038 125.5392 
L 152.340099 125.2368 
L 152.044959 124.9344 
L 152.044959 124.3296 
L 151.454678 123.4224 
L 149.093554 123.12 
L 144.076165 124.3296 
L 130.794843 131.8896 
L 123.711471 136.728 
L 119.284364 140.9616 
L 113.676694 146.1024 
L 108.659306 151.848 
L 103.641917 157.896 
L 93.312 173.6208 
L 89.770314 181.4832 
L 87.704331 189.648 
L 95.082843 198.1152 
L 99.805091 203.8608 
L 105.11762 209.0016 
L 112.791273 212.328 
L 115.152397 218.0736 
L 138.468496 218.6784 
L 147.617851 218.6784 
L 154.701223 218.376 
L 160.308893 217.7712 
L 136.992793 231.3792 
L 129.31914 231.3792 
L 126.662876 229.5648 
L 126.367736 227.7504 
L 127.843438 226.5408 
L 128.72886 225.3312 
L 130.499702 223.8192 
L 131.680264 223.2144 
L 135.22195 222.0048 
L 138.763636 222.0048 
L 140.82962 221.7024 
L 142.305322 221.4 
L 141.12476 221.7024 
L 142.305322 221.0976 
L 143.781025 220.4928 
L 148.798413 219.2832 
L 150.274116 218.6784 
L 152.93038 217.7712 
L 154.701223 216.864 
L 157.652628 215.6544 
L 158.83319 215.352 
L 161.194314 215.352 
L 162.965157 215.9568 
L 164.736 217.1664 
L 170.93395 218.376 
L 173.885355 219.2832 
L 177.722182 219.888 
L 182.73957 222.0048 
L 186.281256 225.0288 
L 190.413223 228.0528 
L 195.725752 230.7744 
L 198.382017 232.2864 
L 201.333421 234.4032 
L 204.875107 235.9152 
L 212.843901 237.1248 
L 217.271008 238.3344 
L 219.336992 239.8464 
L 219.927273 239.8464 
L 216.975868 238.9392 
L 214.909884 236.8224 
L 211.663339 232.8912 
L 214.024463 232.2864 
L 207.826512 230.7744 
L 206.941091 229.5648 
L 202.218843 227.7504 
L 199.562579 225.6336 
L 198.972298 222.6096 
L 197.791736 220.1904 
L 201.628562 217.7712 
L 208.416793 215.6544 
L 214.024463 214.1424 
L 217.271008 212.6304 
L 217.566149 211.7232 
L 216.090446 210.816 
L 213.139041 209.9088 
L 210.482777 208.6992 
L 209.007074 207.792 
L 209.007074 207.1872 
L 209.007074 207.4896 
L 210.777917 208.3968 
L 214.024463 209.6064 
L 227.600926 212.6304 
L 233.503736 214.7472 
L 238.521124 215.352 
L 243.243372 215.6544 
L 249.736463 215.0496 
L 249.736463 215.9568 
L 260.361521 217.4688 
L 264.198347 217.1664 
L 274.233124 214.7472 
L 285.448463 213.5376 
L 303.747174 209.304 
L 324.702149 207.792 
L 330.309818 210.5136 
L 347.723107 205.6752 
L 363.955835 207.792 
L 368.973223 207.792 
L 378.122579 207.1872 
L 384.615669 207.1872 
L 389.928198 206.8848 
L 398.487273 205.6752 
L 398.487273 204.4656 
L 398.487273 204.4656 
L 394.945587 205.3728 
L 383.139967 207.1872 
L 364.841256 210.2112 
L 340.934876 213.5376 
L 293.712397 225.0288 
L 271.57686 229.5648 
L 245.604496 236.8224 
L 228.486347 242.8704 
L 215.205025 244.3824 
L 207.236231 244.08 
L 180.378446 236.52 
L 150.864397 232.5888 
L 150.864397 231.6816 
L 148.798413 227.7504 
L 138.763636 223.5168 
L 130.499702 219.2832 
L 106.888463 211.1184 
L 88.294612 205.0704 
L 78.259835 202.0464 
L 79.145256 198.4176 
L 78.554975 193.8816 
L 77.964694 190.2528 
L 74.127868 188.136 
L 73.832727 190.5552 
L 73.832727 189.0432 
L 76.193851 186.9264 
L 82.096661 186.0192 
L 88.589752 186.624 
L 89.475174 187.5312 
L 92.426579 189.9504 
L 96.853686 195.9984 
L 99.50995 198.4176 
L 104.232198 203.5584 
L 110.135008 209.304 
L 118.103802 214.7472 
L 123.711471 220.4928 
L 131.089983 225.3312 
L 135.812231 230.7744 
L 142.600463 235.3104 
L 152.044959 240.4512 
L 165.916562 244.08 
L 175.361058 248.9184 
L 185.986116 253.7568 
L 205.170248 258.8976 
L 208.711934 261.0144 
L 207.826512 261.3168 
L 214.909884 260.712 
L 222.583537 259.2 
L 229.666909 259.8048 
L 234.684298 261.0144 
L 239.996826 261.6192 
L 243.833653 262.8288 
L 247.375339 263.4336 
L 250.621884 263.736 
L 255.048992 262.224 
L 255.934413 261.0144 
L 254.458711 259.2 
L 252.687868 257.688 
L 247.96562 256.7808 
L 235.274579 255.5712 
L 227.305785 253.7568 
L 219.336992 252.8496 
L 209.892496 251.9424 
L 193.364628 250.7328 
L 193.954909 251.64 
L 188.937521 251.0352 
L 197.201455 252.5472 
L 199.562579 252.5472 
L 193.364628 251.64 
L 191.003504 252.5472 
L 191.888926 252.5472 
L 191.593785 252.5472 
L 187.166678 251.9424 
L 188.64238 251.9424 
L 198.382017 252.2448 
L 201.333421 251.9424 
L 198.086876 251.3376 
L 195.725752 251.3376 
L 193.069488 251.64 
L 191.888926 251.9424 
L 189.232661 252.2448 
L 187.756959 251.64 
L 186.281256 251.64 
L 183.624992 250.4304 
L 182.44443 250.4304 
L 179.788165 250.128 
L 175.951339 249.5232 
L 169.753388 248.3136 
L 174.475636 247.104 
L 179.788165 245.2896 
L 180.083306 242.2656 
L 178.607603 236.8224 
L 184.215273 234.4032 
L 184.215273 230.1696 
L 183.329851 226.5408 
L 184.510413 219.2832 
L 188.052099 212.6304 
L 194.840331 209.9088 
L 203.694545 205.0704 
L 216.680727 199.3248 
L 220.222413 198.1152 
L 226.715504 196.3008 
L 229.666909 195.9984 
L 233.798876 197.5104 
L 241.472529 201.1392 
L 246.785058 203.256 
L 253.573289 205.3728 
L 262.722645 211.1184 
L 264.198347 214.1424 
L 264.493488 217.4688 
L 265.67405 221.4 
L 265.378909 226.2384 
L 267.740033 231.3792 
L 271.872 235.9152 
L 274.528264 239.8464 
L 276.594248 243.7776 
L 278.955372 246.8016 
L 280.726215 249.5232 
L 283.97276 252.5472 
L 287.514446 254.9664 
L 290.465851 257.688 
L 292.531835 261.0144 
L 299.615207 263.1312 
L 305.222876 264.9456 
L 308.764562 266.4576 
L 312.306248 268.272 
L 314.667372 269.784 
L 316.733355 270.3888 
L 317.323636 270.6912 
L 316.733355 270.0864 
L 316.733355 269.784 
L 331.785521 269.4816 
L 329.424397 267.0624 
L 323.521587 264.6432 
L 330.604959 262.224 
L 332.670942 259.8048 
L 329.424397 256.7808 
L 321.160463 253.152 
L 307.28886 248.3136 
L 269.215736 234.1008 
L 239.996826 225.3312 
L 215.500165 213.5376 
L 187.756959 201.744 
L 161.489455 189.0432 
L 138.468496 177.552 
L 123.416331 165.1536 
L 117.513521 150.9408 
L 115.742678 137.0304 
L 117.21838 123.4224 
L 124.006612 110.4192 
L 133.746248 99.2304 
L 143.190744 89.856 
L 148.208132 83.2032 
L 149.093554 78.3648 
L 151.159537 72.3168 
L 152.340099 70.8048 
L 144.666446 64.4544 
L 135.812231 54.7776 
L 138.763636 53.568 
L 176.83676 74.736 
L 165.03114 101.952 
L 151.749818 112.8384 
L 146.73243 112.2336 
L 182.149289 109.2096 
L 233.798876 124.632 
L 242.35795 151.848 
L 237.635702 168.1776 
L 243.833653 177.552 
L 247.375339 186.3216 
L 256.229554 193.8816 
L 260.951802 202.0464 
L 259.476099 208.6992 
L 257.705256 213.84 
L 261.246942 219.5856 
L 267.444893 224.7264 
L 274.528264 228.6576 
L 278.955372 228.6576 
L 281.906777 229.5648 
L 284.267901 228.96 
L 285.743603 227.7504 
L 286.038744 225.936 
L 283.67762 223.8192 
L 284.563041 218.6784 
L 288.399868 211.1184 
L 291.351273 202.0464 
L 294.892959 192.3696 
L 296.073521 187.5312 
L 296.958942 177.8544 
L 300.500628 167.8752 
L 301.090909 152.7552 
L 303.156893 147.9168 
L 301.090909 137.6352 
L 301.68119 126.144 
L 305.222876 113.4432 
L 312.896529 99.2304 
L 323.226446 85.9248 
L 335.032066 73.5264 
L 347.723107 62.9424 
L 357.167603 55.6848 
L 368.382942 53.568 
L 378.71286 53.568 
L 390.223339 55.6848 
L 398.487273 60.8256 
L 398.487273 229.2624 
L 397.601851 229.5648 
L 396.421289 231.0768 
L 392.879603 232.8912 
L 390.223339 233.496 
L 382.844826 232.8912 
L 373.10519 230.7744 
L 359.823868 228.0528 
L 342.410579 225.0288 
L 325.29243 220.7952 
L 306.993719 216.864 
L 288.990149 213.84 
L 240.291967 198.72 
L 227.896066 189.648 
L 216.090446 179.9712 
L 209.597355 175.7376 
L 193.659769 165.1536 
L 174.770777 153.36 
L 170.63881 149.7312 
L 162.374876 136.1232 
L 160.013752 127.9584 
L 158.83319 125.5392 
L 157.652628 122.2128 
L 157.947769 120.3984 
L 129.909421 112.8384 
L 135.517091 113.1408 
L 144.961587 113.4432 
L 154.701223 113.4432 
L 149.093554 111.3264 
L 146.142149 109.512 
L 143.190744 110.4192 
L 141.12476 112.536 
L 152.63524 116.4672 
L 163.555438 118.584 
L 179.197884 120.7008 
L 183.329851 123.12 
L 185.395835 124.0272 
L 188.34724 125.5392 
L 190.118083 128.2608 
L 192.479207 131.2848 
L 193.659769 134.3088 
L 193.954909 138.5424 
L 193.954909 143.6832 
L 194.54519 149.1264 
L 192.774347 156.384 
L 193.659769 161.8272 
L 192.774347 169.6896 
L 192.184066 177.552 
L 192.479207 183.9024 
L 191.888926 190.5552 
L 192.479207 196.6032 
L 196.020893 206.28 
L 198.677157 211.7232 
L 201.628562 217.1664 
L 207.236231 221.7024 
L 214.614744 225.0288 
L 224.35438 226.8432 
L 233.798876 228.0528 
L 242.06281 229.5648 
L 249.441322 231.6816 
L 257.114975 235.008 
L 260.951802 237.1248 
L 269.215736 240.4512 
L 276.299107 241.6608 
L 283.382479 244.3824 
L 290.170711 244.9872 
L 294.302678 248.3136 
L 296.958942 249.8256 
L 297.254083 250.4304 
L 298.139504 250.4304 
L 296.663802 249.8256 
L 292.826975 248.616 
L 289.285289 248.3136 
L 283.97276 247.7088 
L 278.660231 246.4992 
L 272.16714 244.6848 
L 257.410116 242.2656 
L 245.899636 243.7776 
L 241.767669 243.1728 
L 236.45514 240.4512 
L 230.552331 237.1248 
L 227.896066 236.52 
L 222.878678 233.496 
L 218.746711 229.5648 
L 211.958479 222.3072 
L 203.694545 218.9808 
L 190.708364 214.1424 
L 183.329851 210.816 
L 188.34724 210.2112 
L 180.673587 210.5136 
L 182.44443 206.5824 
L 183.034711 204.1632 
L 171.229091 194.4864 
L 166.801983 189.3456 
L 158.53805 179.064 
L 154.701223 175.1328 
L 151.159537 172.1088 
L 148.798413 169.6896 
L 146.73243 168.1776 
L 144.961587 167.2704 
L 143.781025 166.968 
L 142.895603 167.2704 
L 142.600463 167.8752 
L 142.010182 168.7824 
L 141.419901 170.2944 
L 140.534479 171.8064 
L 139.649058 172.7136 
L 138.763636 172.7136 
L 138.468496 172.1088 
L 137.878215 171.2016 
L 138.763636 169.992 
L 140.239339 168.1776 
L 142.305322 166.3632 
L 143.485884 163.944 
L 144.961587 161.2224 
L 147.912992 157.5936 
L 150.274116 153.6624 
L 151.454678 150.0336 
L 150.569256 146.1024 
L 148.503273 144.8928 
L 150.274116 140.0544 
L 150.569256 135.8208 
L 147.617851 128.8656 
L 136.992793 117.9792 
L 108.659306 104.976 
L 84.752926 94.9968 
L 77.964694 85.0176 
L 73.832727 73.8288 
L 73.832727 53.568 
L 73.832727 53.568 
L 85.343207 53.568 
L 89.180033 64.7568 
L 96.558545 90.1584 
L 100.690512 101.6496 
L 109.839868 123.12 
L 115.742678 132.7968 
L 119.579504 143.0784 
L 121.645488 153.36 
L 125.482314 162.1296 
L 129.024 170.5968 
L 133.155967 178.1568 
L 136.107372 184.8096 
L 137.878215 191.4624 
L 138.468496 197.5104 
L 137.878215 203.8608 
L 138.763636 208.6992 
L 139.649058 212.6304 
L 140.534479 215.9568 
L 141.715041 218.376 
L 142.305322 219.888 
L 142.305322 221.7024 
L 143.485884 222.912 
L 141.419901 221.7024 
L 140.82962 222.6096 
L 139.649058 223.5168 
L 138.763636 224.424 
L 137.583074 225.3312 
L 136.697653 226.5408 
L 135.22195 228.0528 
L 135.517091 229.2624 
L 136.402512 229.2624 
L 139.058777 229.8672 
L 140.239339 230.472 
L 140.82962 231.3792 
L 141.12476 232.5888 
L 141.12476 233.7984 
L 140.534479 234.7056 
L 140.534479 234.7056 
" clip-path="url(#p60b8209490)" style="fill: none; stroke: #00fa9a; stroke-width: 1.5; stroke-linecap: square"/>
   </g>
   <g id="line2d_12">
    <path d="M 160.899174 123.4224 
" clip-path="url(#p60b8209490)" style="fill: none; stroke: #00fa9a; stroke-width: 1.5; stroke-linecap: square"/>
    <defs>
     <path id="mca5ca31402" d="M 0 5 
C 1.326016 5 2.597899 4.473168 3.535534 3.535534 
C 4.473168 2.597899 5 1.326016 5 0 
C 5 -1.326016 4.473168 -2.597899 3.535534 -3.535534 
C 2.597899 -4.473168 1.326016 -5 0 -5 
C -1.326016 -5 -2.597899 -4.473168 -3.535534 -3.535534 
C -4.473168 -2.597899 -5 -1.326016 -5 0 
C -5 1.326016 -4.473168 2.597899 -3.535534 3.535534 
C -2.597899 4.473168 -1.326016 5 0 5 
z
" style="stroke: #00fa9a"/>
    </defs>
    <g clip-path="url(#p60b8209490)">
     <use xlink:href="#mca5ca31402" x="160.899174" y="123.4224" style="fill: #00fa9a; stroke: #00fa9a"/>
    </g>
   </g>
   <g id="line2d_13">
    <path d="M 140.534479 234.7056 
" clip-path="url(#p60b8209490)" style="fill: none; stroke: #00fa9a; stroke-width: 1.5; stroke-linecap: square"/>
    <defs>
     <path id="m0f677a4188" d="M -5 5 
L 5 5 
L 5 -5 
L -5 -5 
z
" style="stroke: #00fa9a; stroke-linejoin: miter"/>
    </defs>
    <g clip-path="url(#p60b8209490)">
     <use xlink:href="#m0f677a4188" x="140.534479" y="234.7056" style="fill: #00fa9a; stroke: #00fa9a; stroke-linejoin: miter"/>
    </g>
   </g>
   <g id="line2d_14">
    <path d="M 179.493025 239.2416 
L 179.493025 239.544 
L 179.493025 239.544 
L 179.788165 239.544 
L 180.083306 239.2416 
L 179.493025 239.2416 
L 179.493025 238.9392 
L 179.197884 238.9392 
L 178.607603 239.2416 
L 178.017322 239.2416 
L 178.017322 239.2416 
L 178.312463 238.6368 
L 178.607603 237.7296 
L 178.902744 235.6128 
L 178.017322 233.1936 
L 178.017322 225.0288 
L 178.312463 215.9568 
L 178.017322 203.256 
L 177.427041 186.9264 
L 175.951339 166.968 
L 171.819372 144.8928 
L 162.965157 122.2128 
L 150.864397 99.5328 
L 136.992793 75.9456 
L 122.82605 63.8496 
L 111.31557 58.104 
L 101.871074 55.6848 
L 94.197421 54.4752 
L 86.523769 53.8704 
L 78.259835 53.8704 
L 73.832727 53.568 
L 73.832727 53.568 
L 197.201455 53.568 
L 207.826512 58.104 
L 213.434182 75.3408 
L 214.909884 87.4368 
L 227.305785 99.2304 
L 234.094017 107.0928 
L 239.406545 114.048 
L 247.96562 121.3056 
L 254.16357 127.9584 
L 258.885818 134.0064 
L 261.837223 139.1472 
L 263.903207 143.0784 
L 258.000397 147.312 
L 248.851041 148.5216 
L 245.604496 148.824 
L 247.96562 151.5456 
L 249.146182 157.2912 
L 249.441322 158.5008 
L 250.917025 157.896 
L 252.687868 156.9888 
L 253.86843 156.0816 
L 253.86843 156.0816 
L 250.917025 155.1744 
L 244.423934 155.1744 
L 233.503736 154.2672 
L 232.913455 153.0576 
L 231.732893 149.4288 
L 232.028033 146.4048 
L 232.913455 143.0784 
L 234.979438 139.752 
L 237.930843 136.728 
L 239.406545 135.5184 
L 245.309355 131.2848 
L 248.26076 129.7728 
L 250.917025 128.8656 
L 251.802446 127.656 
L 251.802446 126.7488 
L 248.851041 126.7488 
L 247.080198 124.0272 
L 245.014215 121.9104 
L 242.06281 119.7936 
L 237.635702 117.6768 
L 232.618314 116.7696 
L 223.173818 116.1648 
L 219.632132 116.4672 
L 216.090446 115.8624 
L 215.500165 115.2576 
L 214.909884 115.2576 
L 215.500165 114.048 
L 216.975868 112.536 
L 216.385587 113.7456 
L 213.434182 113.7456 
L 211.958479 112.8384 
L 210.777917 111.6288 
L 209.302215 110.4192 
L 207.826512 109.8144 
L 206.055669 110.1168 
L 203.989686 110.7216 
L 202.809124 111.6288 
L 201.628562 112.2336 
L 200.74314 114.048 
L 201.923702 116.4672 
L 201.038281 118.8864 
L 200.15286 121.9104 
L 201.923702 124.3296 
L 203.694545 127.0512 
L 200.448 129.168 
L 198.382017 130.0752 
L 200.448 132.192 
L 201.628562 133.704 
L 201.333421 135.216 
L 200.15286 136.4256 
L 198.677157 136.4256 
L 196.316033 135.216 
L 192.184066 133.704 
L 183.329851 130.0752 
L 180.968727 127.9584 
L 180.083306 124.3296 
L 179.493025 120.7008 
L 179.197884 116.1648 
L 178.607603 111.3264 
L 177.722182 106.488 
L 175.656198 101.952 
L 173.295074 97.7184 
L 170.63881 93.4848 
L 168.277686 88.9488 
L 166.801983 83.5056 
L 165.326281 78.6672 
L 163.555438 74.4336 
L 162.670017 70.8048 
L 162.670017 67.176 
L 162.965157 64.152 
L 162.670017 62.64 
L 163.850579 61.128 
L 162.374876 60.2208 
L 159.423471 59.616 
L 157.062347 59.616 
L 154.996364 59.9184 
L 153.225521 59.9184 
L 151.749818 59.616 
L 154.110942 60.2208 
L 156.767207 60.5232 
L 156.767207 59.9184 
L 162.965157 62.3376 
L 163.260298 63.2448 
L 162.965157 64.7568 
L 162.374876 67.176 
L 163.555438 70.5024 
L 166.211702 74.4336 
L 170.63881 79.272 
L 175.951339 84.7152 
L 182.149289 90.7632 
L 189.232661 97.416 
L 193.954909 103.464 
L 194.54519 109.2096 
L 198.677157 115.8624 
L 203.104264 120.7008 
L 204.284826 124.9344 
L 206.64595 128.2608 
L 209.007074 130.9824 
L 211.958479 133.0992 
L 213.139041 135.5184 
L 216.680727 138.24 
L 216.090446 140.9616 
L 215.205025 142.1712 
L 214.614744 141.5664 
L 213.434182 141.264 
L 214.614744 141.5664 
L 213.729322 140.9616 
L 212.54876 140.3568 
L 211.073058 139.1472 
L 209.892496 137.9376 
L 207.531372 136.728 
L 203.694545 135.8208 
L 200.74314 134.6112 
L 199.562579 134.3088 
L 196.611174 133.4016 
L 191.593785 132.192 
L 190.118083 131.2848 
L 188.64238 130.68 
L 187.461818 130.0752 
L 186.871537 129.168 
L 186.871537 128.2608 
L 187.166678 127.656 
L 187.756959 126.144 
L 188.052099 124.0272 
L 188.052099 121.0032 
L 187.756959 117.9792 
L 188.34724 113.7456 
L 188.052099 109.8144 
L 185.690975 102.5568 
L 185.100694 98.3232 
L 185.690975 94.6944 
L 186.281256 92.88 
L 189.822942 92.5776 
L 195.135471 93.1824 
L 199.267438 92.5776 
L 202.218843 91.0656 
L 202.809124 89.5536 
L 200.74314 88.0416 
L 195.135471 87.1344 
L 186.871537 87.1344 
L 178.017322 88.344 
L 170.63881 87.1344 
L 167.982545 84.1104 
L 165.326281 79.5744 
L 162.374876 73.8288 
L 159.423471 67.4784 
L 155.586645 60.8256 
L 151.749818 56.8944 
L 149.093554 55.08 
L 147.02757 54.1728 
L 143.190744 53.568 
L 124.301752 53.568 
L 398.487273 53.568 
L 255.344132 53.568 
L 256.819835 60.8256 
L 256.819835 60.8256 
" clip-path="url(#p60b8209490)" style="fill: none; stroke: #008000; stroke-width: 1.5; stroke-linecap: square"/>
   </g>
   <g id="line2d_15">
    <path d="M 179.493025 239.2416 
" clip-path="url(#p60b8209490)" style="fill: none; stroke: #008000; stroke-width: 1.5; stroke-linecap: square"/>
    <defs>
     <path id="m19bca703d4" d="M 0 5 
C 1.326016 5 2.597899 4.473168 3.535534 3.535534 
C 4.473168 2.597899 5 1.326016 5 0 
C 5 -1.326016 4.473168 -2.597899 3.535534 -3.535534 
C 2.597899 -4.473168 1.326016 -5 0 -5 
C -1.326016 -5 -2.597899 -4.473168 -3.535534 -3.535534 
C -4.473168 -2.597899 -5 -1.326016 -5 0 
C -5 1.326016 -4.473168 2.597899 -3.535534 3.535534 
C -2.597899 4.473168 -1.326016 5 0 5 
z
" style="stroke: #008000"/>
    </defs>
    <g clip-path="url(#p60b8209490)">
     <use xlink:href="#m19bca703d4" x="179.493025" y="239.2416" style="fill: #008000; stroke: #008000"/>
    </g>
   </g>
   <g id="line2d_16">
    <path d="M 256.819835 60.8256 
" clip-path="url(#p60b8209490)" style="fill: none; stroke: #008000; stroke-width: 1.5; stroke-linecap: square"/>
    <defs>
     <path id="m3f2ff951dc" d="M -5 5 
L 5 5 
L 5 -5 
L -5 -5 
z
" style="stroke: #008000; stroke-linejoin: miter"/>
    </defs>
    <g clip-path="url(#p60b8209490)">
     <use xlink:href="#m3f2ff951dc" x="256.819835" y="60.8256" style="fill: #008000; stroke: #008000; stroke-linejoin: miter"/>
    </g>
   </g>
   <g id="line2d_17">
    <path d="M 236.45514 81.6912 
L 235.569719 84.4128 
L 234.389157 89.2512 
L 232.618314 99.8352 
L 232.323174 105.2784 
L 231.437752 111.3264 
L 229.371769 117.9792 
L 226.125223 134.9136 
L 225.534942 139.752 
L 225.239802 143.9856 
L 224.649521 147.6144 
L 225.239802 153.36 
L 226.420364 157.896 
L 227.305785 158.1984 
L 227.896066 159.1056 
L 228.191207 160.92 
L 229.076628 162.432 
L 229.96205 163.3392 
L 230.847471 165.456 
L 232.028033 166.968 
L 233.208595 170.2944 
L 233.503736 172.7136 
L 233.798876 176.3424 
L 234.389157 179.064 
L 234.684298 179.3664 
L 232.323174 183.9024 
L 232.323174 186.624 
L 234.979438 192.3696 
L 237.930843 196.9056 
L 238.521124 199.0224 
L 237.635702 203.256 
L 239.406545 206.28 
L 240.882248 211.1184 
L 242.653091 213.2352 
L 242.948231 213.2352 
L 73.832727 126.7488 
L 142.895603 158.8032 
L 202.513983 189.9504 
L 214.909884 195.3936 
L 232.323174 202.0464 
L 242.948231 205.3728 
L 248.851041 206.5824 
L 254.16357 206.8848 
L 258.885818 206.8848 
L 263.903207 206.5824 
L 268.035174 205.0704 
L 270.986579 204.1632 
L 273.642843 202.6512 
L 270.986579 198.1152 
L 268.330314 194.7888 
L 266.559471 191.16 
L 264.788628 188.4384 
L 265.378909 186.3216 
L 269.806017 184.8096 
L 270.986579 184.2048 
L 272.16714 183.2976 
L 271.872 183.6 
L 270.691438 184.2048 
L 269.510876 184.2048 
L 265.96919 183.9024 
L 261.246942 184.5072 
L 257.705256 186.3216 
L 255.048992 188.4384 
L 252.392727 191.7648 
L 250.917025 194.184 
L 248.851041 196.6032 
L 245.899636 200.5344 
L 244.128793 203.8608 
L 241.472529 208.0944 
L 237.340562 215.352 
L 236.45514 218.9808 
L 236.16 222.0048 
L 236.16 224.7264 
L 235.86486 226.8432 
L 234.979438 230.7744 
L 233.798876 233.496 
L 233.503736 233.496 
L 232.913455 233.7984 
L 232.913455 233.7984 
L 232.618314 234.7056 
L 233.208595 235.9152 
L 233.503736 236.8224 
L 234.389157 237.1248 
L 235.274579 237.1248 
L 238.225983 237.7296 
L 240.291967 237.7296 
L 244.423934 236.2176 
L 247.080198 235.6128 
L 249.146182 235.008 
L 254.458711 232.2864 
L 256.524694 231.0768 
L 265.378909 226.5408 
L 263.312926 224.424 
L 260.361521 222.3072 
L 260.951802 222.0048 
L 261.542083 220.4928 
L 262.427504 220.1904 
L 262.722645 218.9808 
L 264.493488 218.6784 
L 267.740033 218.6784 
L 270.986579 218.9808 
L 273.347702 218.376 
L 274.528264 218.6784 
L 278.365091 218.6784 
L 279.545653 217.1664 
L 279.840793 216.5616 
L 279.840793 215.6544 
L 279.545653 214.7472 
L 278.955372 214.4448 
L 280.431074 213.84 
L 281.906777 213.84 
L 282.792198 212.9328 
L 283.382479 211.4208 
L 282.792198 209.304 
L 281.021355 208.0944 
L 280.135934 206.8848 
L 277.184529 206.28 
L 276.889388 205.3728 
L 275.708826 203.8608 
L 274.528264 203.256 
L 273.052562 201.1392 
L 273.052562 200.232 
L 274.233124 199.0224 
L 275.118545 197.5104 
L 276.003967 196.3008 
L 279.250512 193.8816 
L 277.479669 189.3456 
L 277.479669 188.4384 
L 276.594248 186.3216 
L 276.889388 185.112 
L 276.299107 182.6928 
L 277.184529 180.8784 
L 278.06995 178.7616 
L 276.889388 175.1328 
L 275.118545 172.1088 
L 272.462281 164.2464 
L 272.16714 160.0128 
L 271.57686 156.384 
L 271.57686 154.2672 
L 270.986579 149.7312 
L 270.396298 142.4736 
L 269.806017 140.6592 
L 268.035174 126.4464 
L 268.035174 114.6528 
L 268.625455 113.7456 
L 268.330314 114.6528 
L 268.035174 116.4672 
L 267.444893 119.1888 
L 267.149752 125.5392 
L 267.149752 131.2848 
L 264.788628 146.1024 
L 264.788628 154.2672 
L 264.198347 162.432 
L 263.017785 170.2944 
L 261.837223 176.9472 
L 259.77124 182.9952 
L 257.114975 189.0432 
L 254.16357 194.7888 
L 250.031603 200.5344 
L 244.423934 206.28 
L 239.406545 211.1184 
L 235.569719 216.864 
L 233.503736 221.0976 
L 230.847471 224.1216 
L 223.764099 226.2384 
L 219.336992 226.8432 
L 215.500165 227.7504 
L 212.25362 229.5648 
L 209.892496 231.6816 
L 205.760529 231.984 
L 199.562579 229.8672 
L 200.15286 228.0528 
L 199.267438 223.2144 
L 197.201455 218.376 
L 195.430612 213.5376 
L 193.954909 208.3968 
L 192.774347 194.4864 
L 191.888926 186.9264 
L 190.708364 179.6688 
L 190.413223 172.1088 
L 191.003504 157.2912 
L 191.888926 150.6384 
L 193.069488 144.8928 
L 193.659769 140.6592 
L 193.954909 137.0304 
L 194.54519 134.3088 
L 196.020893 131.2848 
L 198.086876 128.8656 
L 199.267438 126.7488 
L 200.15286 123.7248 
L 201.038281 119.7936 
L 202.218843 116.1648 
L 204.284826 112.2336 
L 207.531372 108.6048 
L 212.25362 106.1856 
L 215.795306 104.976 
L 218.746711 104.6736 
L 221.107835 103.464 
L 223.173818 100.7424 
L 227.305785 95.6016 
L 232.028033 88.6464 
L 244.128793 73.224 
L 248.555901 65.3616 
L 251.802446 59.0112 
L 255.344132 55.9872 
L 260.361521 54.7776 
L 266.854612 54.1728 
L 281.021355 53.568 
L 329.719537 53.568 
L 333.261223 57.1968 
L 332.966083 74.1312 
L 333.851504 94.0896 
L 333.556364 114.9552 
L 333.556364 135.216 
L 332.670942 153.9648 
L 331.49038 172.1088 
L 331.785521 187.2288 
L 332.966083 203.5584 
L 333.261223 215.9568 
L 334.441785 240.7536 
L 334.736926 251.0352 
L 335.327207 258.8976 
L 337.688331 265.5504 
L 342.410579 271.296 
L 345.952264 275.832 
L 343.886281 279.4608 
L 339.164033 280.6704 
L 333.851504 280.368 
L 332.375802 279.4608 
L 333.261223 279.1584 
L 334.146645 278.5536 
L 334.146645 277.9488 
L 333.851504 276.4368 
L 331.49038 274.0176 
L 330.900099 272.5056 
L 330.014678 270.6912 
L 328.538975 268.8768 
L 327.358413 266.76 
L 324.702149 263.1312 
L 322.636165 261.3168 
L 322.045884 258.5952 
L 321.160463 255.5712 
L 319.68476 252.5472 
L 319.68476 252.5472 
" clip-path="url(#p60b8209490)" style="fill: none; stroke: #ffd700; stroke-width: 1.5; stroke-linecap: square"/>
   </g>
   <g id="line2d_18">
    <path d="M 236.45514 81.6912 
" clip-path="url(#p60b8209490)" style="fill: none; stroke: #ffd700; stroke-width: 1.5; stroke-linecap: square"/>
    <defs>
     <path id="me71c85d351" d="M 0 5 
C 1.326016 5 2.597899 4.473168 3.535534 3.535534 
C 4.473168 2.597899 5 1.326016 5 0 
C 5 -1.326016 4.473168 -2.597899 3.535534 -3.535534 
C 2.597899 -4.473168 1.326016 -5 0 -5 
C -1.326016 -5 -2.597899 -4.473168 -3.535534 -3.535534 
C -4.473168 -2.597899 -5 -1.326016 -5 0 
C -5 1.326016 -4.473168 2.597899 -3.535534 3.535534 
C -2.597899 4.473168 -1.326016 5 0 5 
z
" style="stroke: #ffd700"/>
    </defs>
    <g clip-path="url(#p60b8209490)">
     <use xlink:href="#me71c85d351" x="236.45514" y="81.6912" style="fill: #ffd700; stroke: #ffd700"/>
    </g>
   </g>
   <g id="line2d_19">
    <path d="M 319.68476 252.5472 
" clip-path="url(#p60b8209490)" style="fill: none; stroke: #ffd700; stroke-width: 1.5; stroke-linecap: square"/>
    <defs>
     <path id="m82f27dddd0" d="M -5 5 
L 5 5 
L 5 -5 
L -5 -5 
z
" style="stroke: #ffd700; stroke-linejoin: miter"/>
    </defs>
    <g clip-path="url(#p60b8209490)">
     <use xlink:href="#m82f27dddd0" x="319.68476" y="252.5472" style="fill: #ffd700; stroke: #ffd700; stroke-linejoin: miter"/>
    </g>
   </g>
   <g id="line2d_20">
    <path d="M 234.684298 279.4608 
L 232.028033 276.7392 
L 227.305785 274.0176 
L 221.993256 269.784 
L 215.500165 265.5504 
L 202.218843 258.2928 
L 197.201455 256.4784 
L 194.25005 255.8736 
L 193.364628 255.2688 
L 193.659769 255.5712 
L 195.135471 255.5712 
L 197.791736 255.2688 
L 201.038281 255.8736 
L 206.055669 257.0832 
L 211.663339 258.2928 
L 218.45157 261.0144 
L 235.274579 268.8768 
L 244.128793 272.2032 
L 252.392727 274.9248 
L 260.361521 275.2272 
L 265.083769 275.2272 
L 268.920595 274.9248 
L 272.757421 274.32 
L 275.708826 273.7152 
L 278.365091 272.2032 
L 280.726215 270.0864 
L 282.792198 267.0624 
L 284.858182 263.1312 
L 286.924165 257.688 
L 287.514446 251.64 
L 288.990149 245.592 
L 290.760992 238.9392 
L 293.122116 232.5888 
L 295.77838 226.5408 
L 298.729785 220.7952 
L 301.38605 215.352 
L 303.452033 209.6064 
L 304.632595 203.8608 
L 306.108298 197.8128 
L 307.28886 191.16 
L 308.174281 185.112 
L 308.469421 179.6688 
L 308.469421 175.1328 
L 309.059702 170.2944 
L 309.354843 166.6656 
L 309.649983 164.5488 
L 309.945124 163.944 
L 309.945124 165.456 
L 309.059702 168.7824 
L 307.28886 173.016 
L 306.108298 176.3424 
L 305.518017 178.4592 
L 304.927736 179.064 
L 303.452033 178.7616 
L 301.38605 176.9472 
L 295.188099 171.8064 
L 292.236694 168.48 
L 289.285289 164.2464 
L 287.219306 159.408 
L 284.267901 154.2672 
L 280.431074 149.1264 
L 276.594248 143.3808 
L 272.757421 137.0304 
L 268.920595 130.9824 
L 260.361521 116.7696 
L 256.229554 109.2096 
L 253.86843 101.3472 
L 252.097587 91.9728 
L 252.097587 86.2272 
L 252.392727 81.0864 
L 252.097587 79.272 
L 252.392727 77.4576 
L 252.097587 73.8288 
L 252.392727 73.5264 
L 252.097587 73.8288 
L 252.097587 74.1312 
L 251.507306 75.6432 
L 251.802446 76.5504 
L 249.441322 75.9456 
L 249.146182 76.248 
L 247.080198 78.9696 
L 243.538512 82.5984 
L 241.767669 84.1104 
L 236.16 89.856 
L 236.750281 92.88 
L 239.701686 96.5088 
L 238.816264 99.8352 
L 238.225983 101.6496 
L 238.816264 102.8592 
L 237.340562 102.8592 
L 236.45514 101.3472 
L 234.094017 97.416 
L 232.618314 96.2064 
L 230.552331 95.6016 
L 228.486347 94.0896 
L 226.420364 92.88 
L 224.05924 91.0656 
L 221.402975 89.2512 
L 219.336992 86.2272 
L 217.566149 83.2032 
L 214.614744 80.4816 
L 208.121653 75.0384 
L 205.465388 72.0144 
L 203.104264 68.688 
L 199.562579 62.64 
L 197.791736 60.5232 
L 196.020893 59.0112 
L 196.611174 59.3136 
L 198.086876 60.5232 
L 201.038281 61.7328 
L 205.170248 63.2448 
L 209.597355 65.9664 
L 214.024463 69.5952 
L 218.15643 74.736 
L 221.402975 81.9936 
L 223.764099 90.4608 
L 225.830083 99.2304 
L 227.600926 108.3024 
L 227.305785 117.6768 
L 227.305785 117.6768 
" clip-path="url(#p60b8209490)" style="fill: none; stroke: #800080; stroke-width: 1.5; stroke-linecap: square"/>
   </g>
   <g id="line2d_21">
    <path d="M 234.684298 279.4608 
" clip-path="url(#p60b8209490)" style="fill: none; stroke: #800080; stroke-width: 1.5; stroke-linecap: square"/>
    <defs>
     <path id="mc17957e639" d="M 0 5 
C 1.326016 5 2.597899 4.473168 3.535534 3.535534 
C 4.473168 2.597899 5 1.326016 5 0 
C 5 -1.326016 4.473168 -2.597899 3.535534 -3.535534 
C 2.597899 -4.473168 1.326016 -5 0 -5 
C -1.326016 -5 -2.597899 -4.473168 -3.535534 -3.535534 
C -4.473168 -2.597899 -5 -1.326016 -5 0 
C -5 1.326016 -4.473168 2.597899 -3.535534 3.535534 
C -2.597899 4.473168 -1.326016 5 0 5 
z
" style="stroke: #800080"/>
    </defs>
    <g clip-path="url(#p60b8209490)">
     <use xlink:href="#mc17957e639" x="234.684298" y="279.4608" style="fill: #800080; stroke: #800080"/>
    </g>
   </g>
   <g id="line2d_22">
    <path d="M 227.305785 117.6768 
" clip-path="url(#p60b8209490)" style="fill: none; stroke: #800080; stroke-width: 1.5; stroke-linecap: square"/>
    <defs>
     <path id="ma116688b7a" d="M -5 5 
L 5 5 
L 5 -5 
L -5 -5 
z
" style="stroke: #800080; stroke-linejoin: miter"/>
    </defs>
    <g clip-path="url(#p60b8209490)">
     <use xlink:href="#ma116688b7a" x="227.305785" y="117.6768" style="fill: #800080; stroke: #800080; stroke-linejoin: miter"/>
    </g>
   </g>
   <g id="line2d_23">
    <path d="M 299.320066 146.1024 
L 298.139504 145.8 
L 295.188099 146.4048 
L 292.236694 148.5216 
L 288.695008 151.848 
L 286.629025 155.4768 
L 289.87557 159.1056 
L 293.417256 159.408 
L 295.188099 164.8512 
L 298.729785 183.9024 
L 300.795769 189.0432 
L 302.271471 193.2768 
L 301.68119 195.9984 
L 301.68119 196.6032 
L 302.861752 195.0912 
L 314.077091 182.3904 
L 322.341025 171.2016 
L 325.58757 167.8752 
L 328.243835 164.8512 
L 330.309818 162.1296 
L 331.49038 160.3152 
L 331.785521 157.896 
L 331.785521 155.4768 
L 329.424397 154.872 
L 325.882711 154.5696 
L 320.865322 155.1744 
L 307.87914 159.1056 
L 304.927736 160.92 
L 303.156893 163.6416 
L 303.452033 166.6656 
L 302.861752 169.6896 
L 299.910347 172.4112 
L 295.188099 173.6208 
L 293.122116 173.6208 
L 291.056132 171.8064 
L 288.990149 170.2944 
L 286.629025 168.1776 
L 283.382479 164.8512 
L 278.660231 160.6176 
L 276.299107 155.4768 
L 273.347702 149.7312 
L 270.691438 143.3808 
L 267.740033 137.0304 
L 264.493488 130.9824 
L 261.837223 123.4224 
L 260.951802 119.4912 
L 259.180959 108.3024 
L 258.885818 101.3472 
L 259.476099 94.0896 
L 260.951802 87.1344 
L 263.017785 81.0864 
L 264.788628 76.8528 
L 264.788628 74.736 
L 265.083769 74.1312 
L 263.903207 75.6432 
L 262.427504 78.3648 
L 262.427504 81.3888 
L 263.608066 85.0176 
L 264.493488 89.856 
L 265.083769 99.8352 
L 264.493488 103.7664 
L 263.608066 106.7904 
L 261.246942 109.2096 
L 257.705256 111.3264 
L 253.278149 113.7456 
L 248.26076 115.56 
L 242.948231 116.7696 
L 238.816264 116.4672 
L 236.16 115.56 
L 234.094017 113.1408 
L 230.847471 105.8832 
L 227.896066 101.952 
L 225.239802 96.2064 
L 221.107835 91.6704 
L 218.45157 85.32 
L 216.090446 78.6672 
L 214.614744 72.6192 
L 212.54876 62.64 
L 210.777917 59.0112 
L 205.465388 54.1728 
L 206.055669 53.568 
L 213.139041 53.568 
L 210.482777 53.568 
L 209.597355 62.3376 
L 209.597355 103.1616 
L 209.007074 109.512 
L 208.121653 120.7008 
L 208.416793 131.2848 
L 210.777917 145.4976 
L 212.843901 154.5696 
L 216.090446 162.7344 
L 219.632132 170.2944 
L 223.468959 177.2496 
L 229.666909 190.5552 
L 232.028033 196.3008 
L 234.389157 201.744 
L 236.750281 210.2112 
L 238.816264 213.5376 
L 240.882248 215.9568 
L 242.948231 218.0736 
L 245.014215 219.2832 
L 248.555901 220.7952 
L 249.736463 220.1904 
L 250.031603 219.2832 
L 250.031603 216.864 
L 249.441322 213.84 
L 246.194777 205.9776 
L 243.538512 201.1392 
L 241.177388 196.3008 
L 239.111405 191.7648 
L 237.340562 186.9264 
L 235.86486 181.4832 
L 231.437752 169.992 
L 228.486347 163.6416 
L 225.830083 156.9888 
L 224.35438 153.9648 
L 221.993256 147.6144 
L 219.336992 141.5664 
L 216.385587 135.8208 
L 214.024463 130.3776 
L 208.416793 121.608 
L 205.170248 118.584 
L 201.038281 116.4672 
L 197.496595 113.4432 
L 194.25005 110.4192 
L 191.298645 107.3952 
L 188.937521 105.5808 
L 187.461818 103.1616 
L 184.805554 102.5568 
L 181.559008 98.6256 
L 180.083306 97.416 
L 180.083306 96.8112 
L 179.788165 97.1136 
L 179.788165 97.416 
L 180.083306 98.0208 
L 180.673587 98.6256 
L 181.263868 99.8352 
L 182.44443 100.1376 
L 183.624992 101.0448 
L 184.510413 102.2544 
L 185.690975 104.0688 
L 186.871537 106.1856 
L 188.64238 108.3024 
L 193.069488 112.2336 
L 195.725752 114.3504 
L 197.791736 116.7696 
L 199.857719 119.4912 
L 202.218843 122.2128 
L 203.989686 125.2368 
L 204.875107 128.2608 
L 205.760529 130.3776 
L 205.465388 132.7968 
L 204.875107 134.9136 
L 203.989686 137.3328 
L 202.809124 139.1472 
L 201.923702 140.9616 
L 200.448 142.4736 
L 199.267438 143.0784 
L 198.086876 143.3808 
L 196.020893 142.4736 
L 194.25005 139.752 
L 190.118083 131.8896 
L 184.215273 112.536 
L 182.149289 104.976 
L 179.493025 97.416 
L 178.017322 91.368 
L 174.770777 85.6224 
L 173.295074 79.5744 
L 172.409653 74.4336 
L 172.114512 69.8976 
L 171.524231 65.664 
L 170.93395 58.7088 
L 170.93395 55.9872 
L 170.63881 54.7776 
L 171.524231 54.1728 
L 172.409653 53.8704 
L 173.885355 53.568 
L 179.493025 53.568 
L 180.083306 56.592 
L 180.378446 64.4544 
L 180.378446 74.1312 
L 179.197884 85.6224 
L 175.951339 95.904 
L 173.590215 104.3712 
L 172.114512 109.2096 
L 168.867967 121.9104 
L 168.277686 128.5632 
L 167.982545 134.6112 
L 168.277686 140.3568 
L 168.277686 140.3568 
" clip-path="url(#p60b8209490)" style="fill: none; stroke: #87cefa; stroke-width: 1.5; stroke-linecap: square"/>
   </g>
   <g id="line2d_24">
    <path d="M 299.320066 146.1024 
" clip-path="url(#p60b8209490)" style="fill: none; stroke: #87cefa; stroke-width: 1.5; stroke-linecap: square"/>
    <defs>
     <path id="m8c929a8daf" d="M 0 5 
C 1.326016 5 2.597899 4.473168 3.535534 3.535534 
C 4.473168 2.597899 5 1.326016 5 0 
C 5 -1.326016 4.473168 -2.597899 3.535534 -3.535534 
C 2.597899 -4.473168 1.326016 -5 0 -5 
C -1.326016 -5 -2.597899 -4.473168 -3.535534 -3.535534 
C -4.473168 -2.597899 -5 -1.326016 -5 0 
C -5 1.326016 -4.473168 2.597899 -3.535534 3.535534 
C -2.597899 4.473168 -1.326016 5 0 5 
z
" style="stroke: #87cefa"/>
    </defs>
    <g clip-path="url(#p60b8209490)">
     <use xlink:href="#m8c929a8daf" x="299.320066" y="146.1024" style="fill: #87cefa; stroke: #87cefa"/>
    </g>
   </g>
   <g id="line2d_25">
    <path d="M 168.277686 140.3568 
" clip-path="url(#p60b8209490)" style="fill: none; stroke: #87cefa; stroke-width: 1.5; stroke-linecap: square"/>
    <defs>
     <path id="m0d44f59994" d="M -5 5 
L 5 5 
L 5 -5 
L -5 -5 
z
" style="stroke: #87cefa; stroke-linejoin: miter"/>
    </defs>
    <g clip-path="url(#p60b8209490)">
     <use xlink:href="#m0d44f59994" x="168.277686" y="140.3568" style="fill: #87cefa; stroke: #87cefa; stroke-linejoin: miter"/>
    </g>
   </g>
   <g id="line2d_26">
    <path d="M 277.479669 159.7104 
L 277.479669 160.3152 
L 278.06995 160.6176 
L 278.660231 161.5248 
L 279.250512 162.7344 
L 279.840793 163.6416 
L 280.726215 164.5488 
L 281.021355 165.456 
L 282.792198 167.2704 
L 283.67762 167.8752 
L 284.858182 168.48 
L 284.267901 169.6896 
L 284.563041 170.8992 
L 285.153322 170.8992 
L 285.448463 170.2944 
L 285.448463 166.6656 
L 284.858182 164.8512 
L 284.563041 162.7344 
L 283.97276 161.8272 
L 283.087339 160.0128 
L 281.611636 158.5008 
L 279.840793 157.5936 
L 278.365091 156.6864 
L 277.479669 155.7792 
L 276.594248 154.2672 
L 274.528264 152.1504 
L 273.052562 151.2432 
L 270.396298 150.6384 
L 266.854612 150.6384 
L 262.722645 151.2432 
L 258.000397 152.1504 
L 253.278149 153.36 
L 248.851041 153.9648 
L 245.899636 156.6864 
L 242.06281 156.6864 
L 244.128793 159.7104 
L 252.392727 159.7104 
L 251.507306 160.3152 
L 250.326744 161.8272 
L 250.326744 163.3392 
L 255.934413 163.3392 
L 260.361521 162.7344 
L 266.264331 163.3392 
L 272.757421 162.1296 
L 278.660231 162.7344 
L 286.333884 163.3392 
L 292.531835 163.944 
L 297.844364 164.8512 
L 300.795769 166.968 
L 304.632595 169.992 
L 307.87914 169.992 
L 310.240264 170.2944 
L 312.011107 170.2944 
L 314.077091 168.1776 
L 314.962512 166.0608 
L 317.618777 164.8512 
L 317.913917 160.6176 
L 316.733355 157.896 
L 315.552793 154.5696 
L 312.601388 149.7312 
L 309.649983 144.5904 
L 307.584 138.24 
L 306.108298 131.5872 
L 302.566612 118.584 
L 303.156893 114.3504 
L 301.68119 111.024 
L 298.139504 108.6048 
L 293.417256 106.7904 
L 286.629025 105.5808 
L 278.955372 107.3952 
L 273.937983 106.488 
L 270.396298 104.3712 
L 266.264331 101.3472 
L 262.722645 96.5088 
L 260.361521 90.7632 
L 256.524694 79.5744 
L 254.458711 74.736 
L 247.375339 59.0112 
L 245.899636 56.2896 
L 244.128793 54.7776 
L 242.35795 53.8704 
L 240.587107 53.8704 
L 239.111405 53.568 
L 189.822942 53.568 
L 267.149752 53.568 
L 258.295537 53.568 
L 265.083769 60.8256 
L 270.396298 74.1312 
L 273.642843 87.7392 
L 274.823405 100.1376 
L 275.118545 106.488 
L 277.479669 122.2128 
L 278.365091 125.8416 
L 281.906777 138.24 
L 284.267901 143.9856 
L 286.629025 150.9408 
L 288.104727 152.4528 
L 290.760992 152.4528 
L 293.417256 151.2432 
L 294.597818 150.336 
L 295.188099 149.1264 
L 296.663802 144.8928 
L 297.254083 141.264 
L 299.320066 134.3088 
L 300.795769 131.5872 
L 302.271471 129.168 
L 306.698579 123.4224 
L 309.354843 120.7008 
L 314.962512 111.9312 
L 316.733355 109.8144 
L 318.209058 108.3024 
L 318.504198 106.7904 
L 317.913917 105.8832 
L 317.028496 105.2784 
L 315.847934 104.976 
L 314.372231 105.8832 
L 313.78195 105.8832 
L 313.191669 106.1856 
L 309.649983 107.0928 
L 306.993719 108 
L 303.747174 108.6048 
L 300.500628 109.512 
L 296.663802 109.8144 
L 294.597818 112.536 
L 295.188099 113.4432 
L 296.958942 112.8384 
L 297.844364 112.8384 
L 299.024926 114.048 
L 301.090909 115.2576 
L 303.452033 116.4672 
L 306.403438 117.3744 
L 309.354843 117.6768 
L 312.306248 117.072 
L 314.962512 116.1648 
L 316.438215 115.2576 
L 317.028496 114.3504 
L 314.962512 113.7456 
L 313.48681 111.9312 
L 311.420826 110.4192 
L 308.174281 108.6048 
L 304.927736 106.488 
L 300.500628 103.464 
L 295.77838 100.7424 
L 291.646413 97.7184 
L 283.087339 101.952 
L 272.16714 101.0448 
L 266.854612 98.3232 
L 263.608066 96.2064 
L 260.361521 94.6944 
L 259.180959 94.9968 
L 257.410116 95.904 
L 257.410116 99.2304 
L 256.524694 100.1376 
L 257.114975 104.976 
L 258.885818 108 
L 276.003967 119.1888 
L 258.000397 112.2336 
L 258.885818 114.3504 
L 259.77124 116.1648 
L 264.493488 116.7696 
L 266.264331 115.8624 
L 269.510876 114.9552 
L 270.101157 120.3984 
L 269.510876 124.632 
L 268.330314 129.168 
L 266.854612 135.8208 
L 266.559471 135.5184 
L 264.788628 136.1232 
L 262.722645 137.9376 
L 260.361521 139.4496 
L 257.410116 141.8688 
L 256.229554 143.3808 
L 256.819835 143.0784 
L 257.114975 143.0784 
L 256.819835 142.4736 
L 255.639273 141.8688 
L 254.458711 139.752 
L 253.86843 135.5184 
L 253.278149 128.5632 
L 252.687868 119.7936 
L 251.507306 111.024 
L 248.555901 104.0688 
L 241.767669 90.1584 
L 237.340562 85.9248 
L 234.094017 80.784 
L 231.437752 70.2 
L 228.781488 60.2208 
L 226.715504 56.2896 
L 224.35438 54.7776 
L 219.632132 53.8704 
L 214.909884 53.8704 
L 211.073058 53.568 
L 202.218843 53.568 
L 308.174281 53.568 
L 306.108298 53.568 
L 302.566612 56.592 
L 288.104727 75.3408 
L 279.840793 83.5056 
L 269.510876 95.904 
L 258.885818 108.3024 
L 247.96562 119.7936 
L 238.225983 132.7968 
L 230.552331 139.752 
L 220.812694 146.4048 
L 209.302215 153.36 
L 198.382017 156.9888 
L 188.34724 157.2912 
L 179.788165 153.9648 
L 175.951339 151.2432 
L 175.951339 151.2432 
" clip-path="url(#p60b8209490)" style="fill: none; stroke: #ffa500; stroke-width: 1.5; stroke-linecap: square"/>
   </g>
   <g id="line2d_27">
    <path d="M 277.479669 159.7104 
" clip-path="url(#p60b8209490)" style="fill: none; stroke: #ffa500; stroke-width: 1.5; stroke-linecap: square"/>
    <defs>
     <path id="m947d689a0c" d="M 0 5 
C 1.326016 5 2.597899 4.473168 3.535534 3.535534 
C 4.473168 2.597899 5 1.326016 5 0 
C 5 -1.326016 4.473168 -2.597899 3.535534 -3.535534 
C 2.597899 -4.473168 1.326016 -5 0 -5 
C -1.326016 -5 -2.597899 -4.473168 -3.535534 -3.535534 
C -4.473168 -2.597899 -5 -1.326016 -5 0 
C -5 1.326016 -4.473168 2.597899 -3.535534 3.535534 
C -2.597899 4.473168 -1.326016 5 0 5 
z
" style="stroke: #ffa500"/>
    </defs>
    <g clip-path="url(#p60b8209490)">
     <use xlink:href="#m947d689a0c" x="277.479669" y="159.7104" style="fill: #ffa500; stroke: #ffa500"/>
    </g>
   </g>
   <g id="line2d_28">
    <path d="M 175.951339 151.2432 
" clip-path="url(#p60b8209490)" style="fill: none; stroke: #ffa500; stroke-width: 1.5; stroke-linecap: square"/>
    <defs>
     <path id="m824cd23682" d="M -5 5 
L 5 5 
L 5 -5 
L -5 -5 
z
" style="stroke: #ffa500; stroke-linejoin: miter"/>
    </defs>
    <g clip-path="url(#p60b8209490)">
     <use xlink:href="#m824cd23682" x="175.951339" y="151.2432" style="fill: #ffa500; stroke: #ffa500; stroke-linejoin: miter"/>
    </g>
   </g>
   <g id="patch_3">
    <path d="M 57.6 307.584 
L 57.6 41.472 
" style="fill: none; stroke: #000000; stroke-width: 0.8; stroke-linejoin: miter; stroke-linecap: square"/>
   </g>
   <g id="patch_4">
    <path d="M 57.6 307.584 
L 414.72 307.584 
" style="fill: none; stroke: #000000; stroke-width: 0.8; stroke-linejoin: miter; stroke-linecap: square"/>
   </g>
   <g id="legend_1">
    <g id="patch_5">
     <path d="M 282.164531 119.523563 
L 404.22 119.523563 
Q 407.22 119.523563 407.22 116.523563 
L 407.22 51.972 
Q 407.22 48.972 404.22 48.972 
L 282.164531 48.972 
Q 279.164531 48.972 279.164531 51.972 
L 279.164531 116.523563 
Q 279.164531 119.523563 282.164531 119.523563 
z
" style="fill: #ffffff; opacity: 0.8; stroke: #cccccc; stroke-linejoin: miter"/>
    </g>
    <g id="line2d_29">
     <path d="M 285.164531 61.119656 
L 300.164531 61.119656 
L 315.164531 61.119656 
" style="fill: none; stroke: #000000; stroke-width: 1.5; stroke-linecap: square"/>
    </g>
    <g id="text_7">
     <!-- Trajectory -->
     <g transform="translate(327.164531 66.369656)scale(0.15 -0.15)">
      <defs>
       <path id="DejaVuSans-54" d="M -19 4666 
L 3928 4666 
L 3928 4134 
L 2272 4134 
L 2272 0 
L 1638 0 
L 1638 4134 
L -19 4134 
L -19 4666 
z
" transform="scale(0.015625)"/>
       <path id="DejaVuSans-72" d="M 2631 2963 
Q 2534 3019 2420 3045 
Q 2306 3072 2169 3072 
Q 1681 3072 1420 2755 
Q 1159 2438 1159 1844 
L 1159 0 
L 581 0 
L 581 3500 
L 1159 3500 
L 1159 2956 
Q 1341 3275 1631 3429 
Q 1922 3584 2338 3584 
Q 2397 3584 2469 3576 
Q 2541 3569 2628 3553 
L 2631 2963 
z
" transform="scale(0.015625)"/>
       <path id="DejaVuSans-61" d="M 2194 1759 
Q 1497 1759 1228 1600 
Q 959 1441 959 1056 
Q 959 750 1161 570 
Q 1363 391 1709 391 
Q 2188 391 2477 730 
Q 2766 1069 2766 1631 
L 2766 1759 
L 2194 1759 
z
M 3341 1997 
L 3341 0 
L 2766 0 
L 2766 531 
Q 2569 213 2275 61 
Q 1981 -91 1556 -91 
Q 1019 -91 701 211 
Q 384 513 384 1019 
Q 384 1609 779 1909 
Q 1175 2209 1959 2209 
L 2766 2209 
L 2766 2266 
Q 2766 2663 2505 2880 
Q 2244 3097 1772 3097 
Q 1472 3097 1187 3025 
Q 903 2953 641 2809 
L 641 3341 
Q 956 3463 1253 3523 
Q 1550 3584 1831 3584 
Q 2591 3584 2966 3190 
Q 3341 2797 3341 1997 
z
" transform="scale(0.015625)"/>
       <path id="DejaVuSans-6a" d="M 603 3500 
L 1178 3500 
L 1178 -63 
Q 1178 -731 923 -1031 
Q 669 -1331 103 -1331 
L -116 -1331 
L -116 -844 
L 38 -844 
Q 366 -844 484 -692 
Q 603 -541 603 -63 
L 603 3500 
z
M 603 4863 
L 1178 4863 
L 1178 4134 
L 603 4134 
L 603 4863 
z
" transform="scale(0.015625)"/>
       <path id="DejaVuSans-65" d="M 3597 1894 
L 3597 1613 
L 953 1613 
Q 991 1019 1311 708 
Q 1631 397 2203 397 
Q 2534 397 2845 478 
Q 3156 559 3463 722 
L 3463 178 
Q 3153 47 2828 -22 
Q 2503 -91 2169 -91 
Q 1331 -91 842 396 
Q 353 884 353 1716 
Q 353 2575 817 3079 
Q 1281 3584 2069 3584 
Q 2775 3584 3186 3129 
Q 3597 2675 3597 1894 
z
M 3022 2063 
Q 3016 2534 2758 2815 
Q 2500 3097 2075 3097 
Q 1594 3097 1305 2825 
Q 1016 2553 972 2059 
L 3022 2063 
z
" transform="scale(0.015625)"/>
       <path id="DejaVuSans-63" d="M 3122 3366 
L 3122 2828 
Q 2878 2963 2633 3030 
Q 2388 3097 2138 3097 
Q 1578 3097 1268 2742 
Q 959 2388 959 1747 
Q 959 1106 1268 751 
Q 1578 397 2138 397 
Q 2388 397 2633 464 
Q 2878 531 3122 666 
L 3122 134 
Q 2881 22 2623 -34 
Q 2366 -91 2075 -91 
Q 1284 -91 818 406 
Q 353 903 353 1747 
Q 353 2603 823 3093 
Q 1294 3584 2113 3584 
Q 2378 3584 2631 3529 
Q 2884 3475 3122 3366 
z
" transform="scale(0.015625)"/>
       <path id="DejaVuSans-74" d="M 1172 4494 
L 1172 3500 
L 2356 3500 
L 2356 3053 
L 1172 3053 
L 1172 1153 
Q 1172 725 1289 603 
Q 1406 481 1766 481 
L 2356 481 
L 2356 0 
L 1766 0 
Q 1100 0 847 248 
Q 594 497 594 1153 
L 594 3053 
L 172 3053 
L 172 3500 
L 594 3500 
L 594 4494 
L 1172 4494 
z
" transform="scale(0.015625)"/>
       <path id="DejaVuSans-6f" d="M 1959 3097 
Q 1497 3097 1228 2736 
Q 959 2375 959 1747 
Q 959 1119 1226 758 
Q 1494 397 1959 397 
Q 2419 397 2687 759 
Q 2956 1122 2956 1747 
Q 2956 2369 2687 2733 
Q 2419 3097 1959 3097 
z
M 1959 3584 
Q 2709 3584 3137 3096 
Q 3566 2609 3566 1747 
Q 3566 888 3137 398 
Q 2709 -91 1959 -91 
Q 1206 -91 779 398 
Q 353 888 353 1747 
Q 353 2609 779 3096 
Q 1206 3584 1959 3584 
z
" transform="scale(0.015625)"/>
       <path id="DejaVuSans-79" d="M 2059 -325 
Q 1816 -950 1584 -1140 
Q 1353 -1331 966 -1331 
L 506 -1331 
L 506 -850 
L 844 -850 
Q 1081 -850 1212 -737 
Q 1344 -625 1503 -206 
L 1606 56 
L 191 3500 
L 800 3500 
L 1894 763 
L 2988 3500 
L 3597 3500 
L 2059 -325 
z
" transform="scale(0.015625)"/>
      </defs>
      <use xlink:href="#DejaVuSans-54"/>
      <use xlink:href="#DejaVuSans-72" x="46.333984"/>
      <use xlink:href="#DejaVuSans-61" x="87.447266"/>
      <use xlink:href="#DejaVuSans-6a" x="148.726562"/>
      <use xlink:href="#DejaVuSans-65" x="176.509766"/>
      <use xlink:href="#DejaVuSans-63" x="238.033203"/>
      <use xlink:href="#DejaVuSans-74" x="293.013672"/>
      <use xlink:href="#DejaVuSans-6f" x="332.222656"/>
      <use xlink:href="#DejaVuSans-72" x="393.404297"/>
      <use xlink:href="#DejaVuSans-79" x="434.517578"/>
     </g>
    </g>
    <g id="line2d_30">
     <path d="M 285.164531 83.136844 
L 300.164531 83.136844 
L 315.164531 83.136844 
" style="fill: none; stroke: #000000; stroke-width: 1.5; stroke-linecap: square"/>
     <g>
      <use xlink:href="#m47274130ef" x="300.164531" y="83.136844" style="stroke: #000000"/>
     </g>
    </g>
    <g id="text_8">
     <!-- Start -->
     <g transform="translate(327.164531 88.386844)scale(0.15 -0.15)">
      <defs>
       <path id="DejaVuSans-53" d="M 3425 4513 
L 3425 3897 
Q 3066 4069 2747 4153 
Q 2428 4238 2131 4238 
Q 1616 4238 1336 4038 
Q 1056 3838 1056 3469 
Q 1056 3159 1242 3001 
Q 1428 2844 1947 2747 
L 2328 2669 
Q 3034 2534 3370 2195 
Q 3706 1856 3706 1288 
Q 3706 609 3251 259 
Q 2797 -91 1919 -91 
Q 1588 -91 1214 -16 
Q 841 59 441 206 
L 441 856 
Q 825 641 1194 531 
Q 1563 422 1919 422 
Q 2459 422 2753 634 
Q 3047 847 3047 1241 
Q 3047 1584 2836 1778 
Q 2625 1972 2144 2069 
L 1759 2144 
Q 1053 2284 737 2584 
Q 422 2884 422 3419 
Q 422 4038 858 4394 
Q 1294 4750 2059 4750 
Q 2388 4750 2728 4690 
Q 3069 4631 3425 4513 
z
" transform="scale(0.015625)"/>
      </defs>
      <use xlink:href="#DejaVuSans-53"/>
      <use xlink:href="#DejaVuSans-74" x="63.476562"/>
      <use xlink:href="#DejaVuSans-61" x="102.685547"/>
      <use xlink:href="#DejaVuSans-72" x="163.964844"/>
      <use xlink:href="#DejaVuSans-74" x="205.078125"/>
     </g>
    </g>
    <g id="line2d_31">
     <path d="M 285.164531 105.154031 
L 300.164531 105.154031 
L 315.164531 105.154031 
" style="fill: none; stroke: #000000; stroke-width: 1.5; stroke-linecap: square"/>
     <g>
      <use xlink:href="#mf90f14340e" x="300.164531" y="105.154031" style="stroke: #000000; stroke-linejoin: miter"/>
     </g>
    </g>
    <g id="text_9">
     <!-- End -->
     <g transform="translate(327.164531 110.404031)scale(0.15 -0.15)">
      <defs>
       <path id="DejaVuSans-45" d="M 628 4666 
L 3578 4666 
L 3578 4134 
L 1259 4134 
L 1259 2753 
L 3481 2753 
L 3481 2222 
L 1259 2222 
L 1259 531 
L 3634 531 
L 3634 0 
L 628 0 
L 628 4666 
z
" transform="scale(0.015625)"/>
       <path id="DejaVuSans-6e" d="M 3513 2113 
L 3513 0 
L 2938 0 
L 2938 2094 
Q 2938 2591 2744 2837 
Q 2550 3084 2163 3084 
Q 1697 3084 1428 2787 
Q 1159 2491 1159 1978 
L 1159 0 
L 581 0 
L 581 3500 
L 1159 3500 
L 1159 2956 
Q 1366 3272 1645 3428 
Q 1925 3584 2291 3584 
Q 2894 3584 3203 3211 
Q 3513 2838 3513 2113 
z
" transform="scale(0.015625)"/>
       <path id="DejaVuSans-64" d="M 2906 2969 
L 2906 4863 
L 3481 4863 
L 3481 0 
L 2906 0 
L 2906 525 
Q 2725 213 2448 61 
Q 2172 -91 1784 -91 
Q 1150 -91 751 415 
Q 353 922 353 1747 
Q 353 2572 751 3078 
Q 1150 3584 1784 3584 
Q 2172 3584 2448 3432 
Q 2725 3281 2906 2969 
z
M 947 1747 
Q 947 1113 1208 752 
Q 1469 391 1925 391 
Q 2381 391 2643 752 
Q 2906 1113 2906 1747 
Q 2906 2381 2643 2742 
Q 2381 3103 1925 3103 
Q 1469 3103 1208 2742 
Q 947 2381 947 1747 
z
" transform="scale(0.015625)"/>
      </defs>
      <use xlink:href="#DejaVuSans-45"/>
      <use xlink:href="#DejaVuSans-6e" x="63.183594"/>
      <use xlink:href="#DejaVuSans-64" x="126.5625"/>
     </g>
    </g>
   </g>
  </g>
 </g>
 <defs>
  <clipPath id="p60b8209490">
   <rect x="57.6" y="41.472" width="357.12" height="266.112"/>
  </clipPath>
 </defs>
</svg>
