<?xml version="1.0" encoding="utf-8" standalone="no"?>
<!DOCTYPE svg PUBLIC "-//W3C//DTD SVG 1.1//EN"
  "http://www.w3.org/Graphics/SVG/1.1/DTD/svg11.dtd">
<svg xmlns:xlink="http://www.w3.org/1999/xlink" width="460.8pt" height="345.6pt" viewBox="0 0 460.8 345.6" xmlns="http://www.w3.org/2000/svg" version="1.1">
 <metadata>
  <rdf:RDF xmlns:dc="http://purl.org/dc/elements/1.1/" xmlns:cc="http://creativecommons.org/ns#" xmlns:rdf="http://www.w3.org/1999/02/22-rdf-syntax-ns#">
   <cc:Work>
    <dc:type rdf:resource="http://purl.org/dc/dcmitype/StillImage"/>
    <dc:date>2024-02-14T16:35:47.660996</dc:date>
    <dc:format>image/svg+xml</dc:format>
    <dc:creator>
     <cc:Agent>
      <dc:title>Matplotlib v3.5.0, https://matplotlib.org/</dc:title>
     </cc:Agent>
    </dc:creator>
   </cc:Work>
  </rdf:RDF>
 </metadata>
 <defs>
  <style type="text/css">*{stroke-linejoin: round; stroke-linecap: butt}</style>
 </defs>
 <g id="figure_1">
  <g id="patch_1">
   <path d="M 0 345.6 
L 460.8 345.6 
L 460.8 0 
L 0 0 
z
" style="fill: #ffffff"/>
  </g>
  <g id="axes_1">
   <g id="patch_2">
    <path d="M 57.6 307.584 
L 414.72 307.584 
L 414.72 41.472 
L 57.6 41.472 
z
" style="fill: #ffffff"/>
   </g>
   <g id="matplotlib.axis_1">
    <g id="xtick_1">
     <g id="line2d_1">
      <defs>
       <path id="mf04cf06f03" d="M 0 0 
L 0 3.5 
" style="stroke: #000000; stroke-width: 0.8"/>
      </defs>
      <g>
       <use xlink:href="#mf04cf06f03" x="73.832727" y="307.584" style="stroke: #000000; stroke-width: 0.8"/>
      </g>
     </g>
     <g id="text_1">
      <!-- 0 -->
      <g transform="translate(67.470227 329.780875)scale(0.2 -0.2)">
       <defs>
        <path id="DejaVuSans-30" d="M 2034 4250 
Q 1547 4250 1301 3770 
Q 1056 3291 1056 2328 
Q 1056 1369 1301 889 
Q 1547 409 2034 409 
Q 2525 409 2770 889 
Q 3016 1369 3016 2328 
Q 3016 3291 2770 3770 
Q 2525 4250 2034 4250 
z
M 2034 4750 
Q 2819 4750 3233 4129 
Q 3647 3509 3647 2328 
Q 3647 1150 3233 529 
Q 2819 -91 2034 -91 
Q 1250 -91 836 529 
Q 422 1150 422 2328 
Q 422 3509 836 4129 
Q 1250 4750 2034 4750 
z
" transform="scale(0.015625)"/>
       </defs>
       <use xlink:href="#DejaVuSans-30"/>
      </g>
     </g>
    </g>
    <g id="xtick_2">
     <g id="line2d_2">
      <g>
       <use xlink:href="#mf04cf06f03" x="399.962975" y="307.584" style="stroke: #000000; stroke-width: 0.8"/>
      </g>
     </g>
     <g id="text_2">
      <!-- 1 -->
      <g transform="translate(393.600475 329.780875)scale(0.2 -0.2)">
       <defs>
        <path id="DejaVuSans-31" d="M 794 531 
L 1825 531 
L 1825 4091 
L 703 3866 
L 703 4441 
L 1819 4666 
L 2450 4666 
L 2450 531 
L 3481 531 
L 3481 0 
L 794 0 
L 794 531 
z
" transform="scale(0.015625)"/>
       </defs>
       <use xlink:href="#DejaVuSans-31"/>
      </g>
     </g>
    </g>
    <g id="text_3">
     <!-- Normalised X position -->
     <g transform="translate(111.795937 353.137125)scale(0.2 -0.2)">
      <defs>
       <path id="DejaVuSans-Bold-4e" d="M 588 4666 
L 1931 4666 
L 3628 1466 
L 3628 4666 
L 4769 4666 
L 4769 0 
L 3425 0 
L 1728 3200 
L 1728 0 
L 588 0 
L 588 4666 
z
" transform="scale(0.015625)"/>
       <path id="DejaVuSans-Bold-6f" d="M 2203 2784 
Q 1831 2784 1636 2517 
Q 1441 2250 1441 1747 
Q 1441 1244 1636 976 
Q 1831 709 2203 709 
Q 2569 709 2762 976 
Q 2956 1244 2956 1747 
Q 2956 2250 2762 2517 
Q 2569 2784 2203 2784 
z
M 2203 3584 
Q 3106 3584 3614 3096 
Q 4122 2609 4122 1747 
Q 4122 884 3614 396 
Q 3106 -91 2203 -91 
Q 1297 -91 786 396 
Q 275 884 275 1747 
Q 275 2609 786 3096 
Q 1297 3584 2203 3584 
z
" transform="scale(0.015625)"/>
       <path id="DejaVuSans-Bold-72" d="M 3138 2547 
Q 2991 2616 2845 2648 
Q 2700 2681 2553 2681 
Q 2122 2681 1889 2404 
Q 1656 2128 1656 1613 
L 1656 0 
L 538 0 
L 538 3500 
L 1656 3500 
L 1656 2925 
Q 1872 3269 2151 3426 
Q 2431 3584 2822 3584 
Q 2878 3584 2943 3579 
Q 3009 3575 3134 3559 
L 3138 2547 
z
" transform="scale(0.015625)"/>
       <path id="DejaVuSans-Bold-6d" d="M 3781 2919 
Q 3994 3244 4286 3414 
Q 4578 3584 4928 3584 
Q 5531 3584 5847 3212 
Q 6163 2841 6163 2131 
L 6163 0 
L 5038 0 
L 5038 1825 
Q 5041 1866 5042 1909 
Q 5044 1953 5044 2034 
Q 5044 2406 4934 2573 
Q 4825 2741 4581 2741 
Q 4263 2741 4089 2478 
Q 3916 2216 3909 1719 
L 3909 0 
L 2784 0 
L 2784 1825 
Q 2784 2406 2684 2573 
Q 2584 2741 2328 2741 
Q 2006 2741 1831 2477 
Q 1656 2213 1656 1722 
L 1656 0 
L 531 0 
L 531 3500 
L 1656 3500 
L 1656 2988 
Q 1863 3284 2130 3434 
Q 2397 3584 2719 3584 
Q 3081 3584 3359 3409 
Q 3638 3234 3781 2919 
z
" transform="scale(0.015625)"/>
       <path id="DejaVuSans-Bold-61" d="M 2106 1575 
Q 1756 1575 1579 1456 
Q 1403 1338 1403 1106 
Q 1403 894 1545 773 
Q 1688 653 1941 653 
Q 2256 653 2472 879 
Q 2688 1106 2688 1447 
L 2688 1575 
L 2106 1575 
z
M 3816 1997 
L 3816 0 
L 2688 0 
L 2688 519 
Q 2463 200 2181 54 
Q 1900 -91 1497 -91 
Q 953 -91 614 226 
Q 275 544 275 1050 
Q 275 1666 698 1953 
Q 1122 2241 2028 2241 
L 2688 2241 
L 2688 2328 
Q 2688 2594 2478 2717 
Q 2269 2841 1825 2841 
Q 1466 2841 1156 2769 
Q 847 2697 581 2553 
L 581 3406 
Q 941 3494 1303 3539 
Q 1666 3584 2028 3584 
Q 2975 3584 3395 3211 
Q 3816 2838 3816 1997 
z
" transform="scale(0.015625)"/>
       <path id="DejaVuSans-Bold-6c" d="M 538 4863 
L 1656 4863 
L 1656 0 
L 538 0 
L 538 4863 
z
" transform="scale(0.015625)"/>
       <path id="DejaVuSans-Bold-69" d="M 538 3500 
L 1656 3500 
L 1656 0 
L 538 0 
L 538 3500 
z
M 538 4863 
L 1656 4863 
L 1656 3950 
L 538 3950 
L 538 4863 
z
" transform="scale(0.015625)"/>
       <path id="DejaVuSans-Bold-73" d="M 3272 3391 
L 3272 2541 
Q 2913 2691 2578 2766 
Q 2244 2841 1947 2841 
Q 1628 2841 1473 2761 
Q 1319 2681 1319 2516 
Q 1319 2381 1436 2309 
Q 1553 2238 1856 2203 
L 2053 2175 
Q 2913 2066 3209 1816 
Q 3506 1566 3506 1031 
Q 3506 472 3093 190 
Q 2681 -91 1863 -91 
Q 1516 -91 1145 -36 
Q 775 19 384 128 
L 384 978 
Q 719 816 1070 734 
Q 1422 653 1784 653 
Q 2113 653 2278 743 
Q 2444 834 2444 1013 
Q 2444 1163 2330 1236 
Q 2216 1309 1875 1350 
L 1678 1375 
Q 931 1469 631 1722 
Q 331 1975 331 2491 
Q 331 3047 712 3315 
Q 1094 3584 1881 3584 
Q 2191 3584 2531 3537 
Q 2872 3491 3272 3391 
z
" transform="scale(0.015625)"/>
       <path id="DejaVuSans-Bold-65" d="M 4031 1759 
L 4031 1441 
L 1416 1441 
Q 1456 1047 1700 850 
Q 1944 653 2381 653 
Q 2734 653 3104 758 
Q 3475 863 3866 1075 
L 3866 213 
Q 3469 63 3072 -14 
Q 2675 -91 2278 -91 
Q 1328 -91 801 392 
Q 275 875 275 1747 
Q 275 2603 792 3093 
Q 1309 3584 2216 3584 
Q 3041 3584 3536 3087 
Q 4031 2591 4031 1759 
z
M 2881 2131 
Q 2881 2450 2695 2645 
Q 2509 2841 2209 2841 
Q 1884 2841 1681 2658 
Q 1478 2475 1428 2131 
L 2881 2131 
z
" transform="scale(0.015625)"/>
       <path id="DejaVuSans-Bold-64" d="M 2919 2988 
L 2919 4863 
L 4044 4863 
L 4044 0 
L 2919 0 
L 2919 506 
Q 2688 197 2409 53 
Q 2131 -91 1766 -91 
Q 1119 -91 703 423 
Q 288 938 288 1747 
Q 288 2556 703 3070 
Q 1119 3584 1766 3584 
Q 2128 3584 2408 3439 
Q 2688 3294 2919 2988 
z
M 2181 722 
Q 2541 722 2730 984 
Q 2919 1247 2919 1747 
Q 2919 2247 2730 2509 
Q 2541 2772 2181 2772 
Q 1825 2772 1636 2509 
Q 1447 2247 1447 1747 
Q 1447 1247 1636 984 
Q 1825 722 2181 722 
z
" transform="scale(0.015625)"/>
       <path id="DejaVuSans-Bold-20" transform="scale(0.015625)"/>
       <path id="DejaVuSans-Bold-58" d="M 3188 2381 
L 4806 0 
L 3553 0 
L 2463 1594 
L 1381 0 
L 122 0 
L 1741 2381 
L 184 4666 
L 1441 4666 
L 2463 3163 
L 3481 4666 
L 4744 4666 
L 3188 2381 
z
" transform="scale(0.015625)"/>
       <path id="DejaVuSans-Bold-70" d="M 1656 506 
L 1656 -1331 
L 538 -1331 
L 538 3500 
L 1656 3500 
L 1656 2988 
Q 1888 3294 2169 3439 
Q 2450 3584 2816 3584 
Q 3463 3584 3878 3070 
Q 4294 2556 4294 1747 
Q 4294 938 3878 423 
Q 3463 -91 2816 -91 
Q 2450 -91 2169 54 
Q 1888 200 1656 506 
z
M 2400 2772 
Q 2041 2772 1848 2508 
Q 1656 2244 1656 1747 
Q 1656 1250 1848 986 
Q 2041 722 2400 722 
Q 2759 722 2948 984 
Q 3138 1247 3138 1747 
Q 3138 2247 2948 2509 
Q 2759 2772 2400 2772 
z
" transform="scale(0.015625)"/>
       <path id="DejaVuSans-Bold-74" d="M 1759 4494 
L 1759 3500 
L 2913 3500 
L 2913 2700 
L 1759 2700 
L 1759 1216 
Q 1759 972 1856 886 
Q 1953 800 2241 800 
L 2816 800 
L 2816 0 
L 1856 0 
Q 1194 0 917 276 
Q 641 553 641 1216 
L 641 2700 
L 84 2700 
L 84 3500 
L 641 3500 
L 641 4494 
L 1759 4494 
z
" transform="scale(0.015625)"/>
       <path id="DejaVuSans-Bold-6e" d="M 4056 2131 
L 4056 0 
L 2931 0 
L 2931 347 
L 2931 1631 
Q 2931 2084 2911 2256 
Q 2891 2428 2841 2509 
Q 2775 2619 2662 2680 
Q 2550 2741 2406 2741 
Q 2056 2741 1856 2470 
Q 1656 2200 1656 1722 
L 1656 0 
L 538 0 
L 538 3500 
L 1656 3500 
L 1656 2988 
Q 1909 3294 2193 3439 
Q 2478 3584 2822 3584 
Q 3428 3584 3742 3212 
Q 4056 2841 4056 2131 
z
" transform="scale(0.015625)"/>
      </defs>
      <use xlink:href="#DejaVuSans-Bold-4e"/>
      <use xlink:href="#DejaVuSans-Bold-6f" x="83.691406"/>
      <use xlink:href="#DejaVuSans-Bold-72" x="152.392578"/>
      <use xlink:href="#DejaVuSans-Bold-6d" x="201.708984"/>
      <use xlink:href="#DejaVuSans-Bold-61" x="305.908203"/>
      <use xlink:href="#DejaVuSans-Bold-6c" x="373.388672"/>
      <use xlink:href="#DejaVuSans-Bold-69" x="407.666016"/>
      <use xlink:href="#DejaVuSans-Bold-73" x="441.943359"/>
      <use xlink:href="#DejaVuSans-Bold-65" x="501.464844"/>
      <use xlink:href="#DejaVuSans-Bold-64" x="569.287109"/>
      <use xlink:href="#DejaVuSans-Bold-20" x="640.869141"/>
      <use xlink:href="#DejaVuSans-Bold-58" x="675.683594"/>
      <use xlink:href="#DejaVuSans-Bold-20" x="752.783203"/>
      <use xlink:href="#DejaVuSans-Bold-70" x="787.597656"/>
      <use xlink:href="#DejaVuSans-Bold-6f" x="859.179688"/>
      <use xlink:href="#DejaVuSans-Bold-73" x="927.880859"/>
      <use xlink:href="#DejaVuSans-Bold-69" x="987.402344"/>
      <use xlink:href="#DejaVuSans-Bold-74" x="1021.679688"/>
      <use xlink:href="#DejaVuSans-Bold-69" x="1069.482422"/>
      <use xlink:href="#DejaVuSans-Bold-6f" x="1103.759766"/>
      <use xlink:href="#DejaVuSans-Bold-6e" x="1172.460938"/>
     </g>
    </g>
   </g>
   <g id="matplotlib.axis_2">
    <g id="ytick_1">
     <g id="line2d_3">
      <defs>
       <path id="mac289dca5b" d="M 0 0 
L -3.5 0 
" style="stroke: #000000; stroke-width: 0.8"/>
      </defs>
      <g>
       <use xlink:href="#mac289dca5b" x="57.6" y="297" style="stroke: #000000; stroke-width: 0.8"/>
      </g>
     </g>
     <g id="text_4">
      <!-- 0 -->
      <g transform="translate(37.875 304.598437)scale(0.2 -0.2)">
       <use xlink:href="#DejaVuSans-30"/>
      </g>
     </g>
    </g>
    <g id="ytick_2">
     <g id="line2d_4">
      <g>
       <use xlink:href="#mac289dca5b" x="57.6" y="53.568" style="stroke: #000000; stroke-width: 0.8"/>
      </g>
     </g>
     <g id="text_5">
      <!-- 1 -->
      <g transform="translate(37.875 61.166438)scale(0.2 -0.2)">
       <use xlink:href="#DejaVuSans-31"/>
      </g>
     </g>
    </g>
    <g id="text_6">
     <!-- Normalised Y position -->
     <g transform="translate(29.715625 298.423313)rotate(-90)scale(0.2 -0.2)">
      <defs>
       <path id="DejaVuSans-Bold-59" d="M -63 4666 
L 1253 4666 
L 2316 3003 
L 3378 4666 
L 4697 4666 
L 2919 1966 
L 2919 0 
L 1716 0 
L 1716 1966 
L -63 4666 
z
" transform="scale(0.015625)"/>
      </defs>
      <use xlink:href="#DejaVuSans-Bold-4e"/>
      <use xlink:href="#DejaVuSans-Bold-6f" x="83.691406"/>
      <use xlink:href="#DejaVuSans-Bold-72" x="152.392578"/>
      <use xlink:href="#DejaVuSans-Bold-6d" x="201.708984"/>
      <use xlink:href="#DejaVuSans-Bold-61" x="305.908203"/>
      <use xlink:href="#DejaVuSans-Bold-6c" x="373.388672"/>
      <use xlink:href="#DejaVuSans-Bold-69" x="407.666016"/>
      <use xlink:href="#DejaVuSans-Bold-73" x="441.943359"/>
      <use xlink:href="#DejaVuSans-Bold-65" x="501.464844"/>
      <use xlink:href="#DejaVuSans-Bold-64" x="569.287109"/>
      <use xlink:href="#DejaVuSans-Bold-20" x="640.869141"/>
      <use xlink:href="#DejaVuSans-Bold-59" x="675.683594"/>
      <use xlink:href="#DejaVuSans-Bold-20" x="748.095703"/>
      <use xlink:href="#DejaVuSans-Bold-70" x="782.910156"/>
      <use xlink:href="#DejaVuSans-Bold-6f" x="854.492188"/>
      <use xlink:href="#DejaVuSans-Bold-73" x="923.193359"/>
      <use xlink:href="#DejaVuSans-Bold-69" x="982.714844"/>
      <use xlink:href="#DejaVuSans-Bold-74" x="1016.992188"/>
      <use xlink:href="#DejaVuSans-Bold-69" x="1064.794922"/>
      <use xlink:href="#DejaVuSans-Bold-6f" x="1099.072266"/>
      <use xlink:href="#DejaVuSans-Bold-6e" x="1167.773438"/>
     </g>
    </g>
   </g>
   <g id="line2d_5">
    <path d="M 342.410579 148.2192 
L 343.00086 147.9168 
L 343.886281 147.312 
L 345.952264 146.4048 
L 346.247405 146.7072 
L 346.247405 146.7072 
L 348.313388 146.1024 
L 348.903669 146.4048 
L 350.674512 145.8 
L 352.445355 145.8 
L 352.445355 147.0096 
L 351.855074 148.824 
L 352.445355 149.4288 
L 353.625917 150.336 
L 352.150215 152.4528 
L 349.789091 155.4768 
L 358.938446 151.5456 
L 362.184992 150.9408 
L 370.153785 147.0096 
L 373.695471 146.1024 
L 375.171174 145.1952 
L 373.990612 146.7072 
L 372.514909 146.7072 
L 368.382942 148.2192 
L 364.250975 149.1264 
L 362.480132 147.9168 
L 359.233587 148.2192 
L 359.528727 147.6144 
L 349.789091 152.1504 
L 342.410579 154.872 
L 332.375802 160.3152 
L 326.768132 163.3392 
L 320.275041 166.6656 
L 318.504198 168.1776 
L 317.323636 167.8752 
L 314.077091 171.2016 
L 312.601388 170.5968 
L 310.535405 170.5968 
L 307.87914 173.3184 
L 307.87914 176.9472 
L 312.306248 174.2256 
L 312.011107 175.4352 
L 306.108298 180.8784 
L 304.337455 187.5312 
L 312.601388 184.2048 
L 309.945124 186.0192 
L 306.698579 188.4384 
L 303.747174 189.648 
L 301.090909 190.2528 
L 297.549223 190.8576 
L 296.958942 188.7408 
L 284.563041 194.4864 
L 272.757421 198.72 
L 262.427504 202.0464 
L 258.885818 203.5584 
L 250.326744 205.9776 
L 244.128793 206.5824 
L 238.816264 207.792 
L 234.389157 209.304 
L 231.437752 209.0016 
L 238.816264 204.4656 
L 245.309355 199.9296 
L 247.080198 199.6272 
L 244.423934 202.0464 
L 239.996826 207.4896 
L 236.45514 215.0496 
L 238.816264 219.888 
L 247.670479 222.6096 
L 281.316496 216.2592 
L 303.747174 208.3968 
L 299.024926 217.4688 
L 300.795769 222.0048 
L 302.861752 224.7264 
L 296.368661 232.5888 
L 286.038744 240.7536 
L 281.611636 241.9632 
L 274.528264 241.6608 
L 263.312926 238.3344 
L 267.149752 223.5168 
L 277.184529 214.1424 
L 285.448463 207.1872 
L 304.042314 192.3696 
L 309.059702 186.3216 
L 315.552793 181.7856 
L 317.323636 181.4832 
L 315.257653 186.0192 
L 332.375802 182.3904 
L 340.639736 183.6 
L 355.987041 178.7616 
L 362.184992 176.6448 
L 366.90724 172.1088 
L 369.563504 167.5728 
L 371.629488 163.3392 
L 373.695471 161.2224 
L 373.695471 160.3152 
L 374.580893 160.0128 
L 379.008 158.1984 
L 392.289322 151.2432 
L 397.01157 150.9408 
L 398.487273 152.1504 
L 397.896992 156.384 
L 396.71643 159.408 
L 394.650446 159.7104 
L 390.81362 160.92 
L 382.254545 163.944 
L 373.400331 166.0608 
L 366.612099 168.7824 
L 356.577322 174.2256 
L 353.035636 176.3424 
L 347.723107 179.9712 
L 344.476562 181.4832 
L 341.230017 182.6928 
L 339.164033 182.9952 
L 337.39319 182.6928 
L 337.39319 181.7856 
L 337.09805 179.6688 
L 331.785521 179.3664 
L 327.653554 178.4592 
L 322.931306 177.8544 
L 316.733355 179.064 
L 308.764562 179.064 
L 301.976331 180.576 
L 296.368661 181.4832 
L 295.48324 181.1808 
L 292.236694 181.7856 
L 283.97276 182.6928 
L 282.201917 182.6928 
L 276.889388 182.9952 
L 273.642843 183.6 
L 270.691438 183.2976 
L 269.215736 183.2976 
L 267.444893 182.6928 
L 264.788628 182.6928 
L 263.312926 183.6 
L 263.608066 183.2976 
L 263.312926 183.2976 
L 263.312926 182.9952 
L 265.083769 181.1808 
L 266.264331 180.576 
L 269.215736 178.7616 
L 270.691438 178.1568 
L 271.872 177.8544 
L 272.757421 177.2496 
L 273.937983 176.6448 
L 273.937983 176.3424 
L 273.052562 176.9472 
L 273.052562 177.2496 
L 273.642843 177.2496 
L 274.528264 177.552 
L 275.413686 177.552 
L 273.052562 175.7376 
L 273.052562 175.7376 
L 272.462281 175.4352 
L 272.462281 173.6208 
L 271.57686 172.1088 
L 271.281719 172.1088 
L 271.872 170.5968 
L 271.872 170.5968 
L 272.16714 170.5968 
L 272.757421 170.2944 
L 273.052562 170.5968 
L 274.233124 170.5968 
L 275.708826 170.8992 
L 275.118545 172.7136 
L 275.413686 173.9232 
L 275.413686 178.7616 
L 274.823405 180.8784 
L 274.823405 183.6 
L 274.233124 186.9264 
L 274.528264 190.5552 
L 273.052562 195.3936 
L 272.757421 199.9296 
L 271.872 204.1632 
L 273.937983 207.1872 
L 275.708826 210.2112 
L 279.250512 211.4208 
L 289.58043 206.28 
L 288.990149 210.816 
L 291.646413 213.5376 
L 296.368661 214.7472 
L 299.615207 215.9568 
L 305.518017 215.352 
L 310.240264 214.7472 
L 311.715967 217.4688 
L 313.48681 219.5856 
L 318.799339 219.2832 
L 324.702149 217.1664 
L 330.604959 214.4448 
L 333.556364 213.2352 
L 335.327207 212.6304 
L 337.39319 210.816 
L 337.688331 209.0016 
L 338.573752 207.1872 
L 337.983471 205.0704 
L 336.507769 203.256 
L 333.851504 202.0464 
L 331.785521 200.232 
L 329.129256 198.72 
L 319.094479 196.3008 
L 314.077091 196.9056 
L 310.240264 197.208 
L 306.993719 197.8128 
L 304.337455 198.1152 
L 302.271471 197.8128 
L 299.024926 199.0224 
L 296.368661 200.8368 
L 296.073521 198.72 
L 295.48324 199.3248 
L 294.892959 198.72 
L 295.188099 198.1152 
L 298.729785 199.0224 
L 301.976331 195.696 
L 305.518017 195.696 
L 309.945124 191.16 
L 313.78195 191.4624 
L 318.799339 186.9264 
L 321.455603 184.8096 
L 326.472992 186.3216 
L 330.900099 182.088 
L 335.622347 182.3904 
L 339.459174 177.8544 
L 344.181421 176.6448 
L 346.837686 177.2496 
L 350.674512 176.9472 
L 359.528727 175.7376 
L 361.889851 176.04 
L 362.480132 178.7616 
L 357.757884 182.6928 
L 353.625917 187.2288 
L 347.132826 193.2768 
L 340.344595 199.9296 
L 333.851504 204.1632 
L 328.243835 210.2112 
L 324.407008 211.4208 
L 321.160463 213.2352 
L 321.455603 214.4448 
L 324.997289 214.1424 
L 331.19524 212.328 
L 347.427967 205.9776 
L 356.872463 201.4416 
L 366.90724 196.9056 
L 376.942017 191.7648 
L 397.01157 180.576 
L 398.487273 172.1088 
L 398.487273 127.9584 
L 397.601851 127.3536 
L 396.421289 127.3536 
L 394.650446 127.9584 
L 393.765025 127.3536 
L 391.994182 127.0512 
L 386.386512 128.8656 
L 378.71286 133.4016 
L 374.876033 134.6112 
L 367.497521 139.4496 
L 362.184992 143.9856 
L 358.348165 147.9168 
L 353.625917 152.4528 
L 348.018248 157.5936 
L 342.410579 163.0368 
L 335.917488 169.6896 
L 331.49038 174.8304 
L 326.177851 180.2736 
L 322.045884 185.112 
L 318.799339 188.7408 
L 316.733355 191.7648 
L 314.667372 194.4864 
L 312.306248 198.4176 
L 306.108298 207.1872 
L 301.976331 212.0256 
L 297.254083 216.5616 
L 293.712397 218.0736 
L 285.153322 223.8192 
L 281.611636 227.448 
L 277.77481 231.6816 
L 271.872 236.52 
L 260.951802 244.08 
L 252.687868 250.7328 
L 244.719074 257.688 
L 229.96205 271.296 
L 203.104264 291.2544 
L 193.659769 295.488 
L 73.832727 295.488 
L 73.832727 295.488 
L 73.832727 274.32 
L 78.850116 267.3648 
L 92.426579 257.9904 
L 100.690512 254.0592 
L 104.822479 254.664 
L 103.641917 260.1072 
L 98.624529 270.3888 
L 89.770314 283.392 
L 82.096661 289.44 
L 75.898711 293.976 
L 75.013289 294.8832 
L 74.423008 295.1856 
L 74.127868 295.1856 
L 74.127868 295.488 
L 73.832727 295.488 
L 73.832727 295.488 
L 73.832727 177.8544 
L 73.832727 205.9776 
L 80.030678 204.1632 
L 85.343207 204.4656 
L 93.60714 203.5584 
L 101.575934 202.3488 
L 103.937058 201.744 
L 113.971835 197.8128 
L 118.398942 195.0912 
L 121.350347 192.3696 
L 123.711471 190.5552 
L 126.958017 186.9264 
L 129.909421 182.3904 
L 133.746248 176.04 
L 135.22195 172.4112 
L 137.583074 169.0848 
L 140.534479 165.456 
L 143.190744 161.5248 
L 146.142149 160.0128 
L 147.617851 160.92 
L 148.503273 163.3392 
L 148.208132 166.0608 
L 148.503273 168.7824 
L 149.388694 170.8992 
L 151.454678 171.2016 
L 156.472066 169.3872 
L 165.621421 164.8512 
L 170.343669 161.5248 
L 180.968727 154.5696 
L 184.805554 151.5456 
L 187.756959 148.2192 
L 191.003504 145.4976 
L 192.479207 143.6832 
L 201.628562 136.728 
L 205.760529 131.8896 
L 209.892496 126.4464 
L 213.434182 122.2128 
L 214.614744 119.7936 
L 214.909884 117.9792 
L 215.795306 116.7696 
L 215.795306 116.1648 
L 214.319603 117.072 
L 213.434182 117.3744 
L 211.663339 117.6768 
L 212.54876 116.7696 
L 213.729322 115.8624 
L 216.680727 114.3504 
L 224.35438 111.024 
L 233.503736 108 
L 239.996826 106.1856 
L 241.767669 106.488 
L 241.177388 109.2096 
L 238.225983 112.2336 
L 236.16 113.4432 
L 235.274579 113.7456 
L 233.798876 113.7456 
L 234.094017 112.8384 
L 234.684298 112.2336 
L 233.798876 111.6288 
L 234.094017 110.7216 
L 234.094017 111.024 
L 234.979438 111.024 
L 235.86486 111.3264 
L 237.045421 113.1408 
L 236.16 114.9552 
L 237.340562 115.8624 
L 238.521124 116.4672 
L 237.930843 118.8864 
L 234.094017 119.7936 
L 234.389157 118.8864 
L 233.503736 118.8864 
L 231.437752 119.1888 
L 225.239802 121.9104 
L 221.107835 124.632 
L 218.45157 127.656 
L 217.566149 128.5632 
L 215.205025 130.0752 
L 209.892496 133.0992 
L 208.121653 134.3088 
L 207.826512 134.9136 
L 205.760529 136.728 
L 203.104264 138.24 
L 201.333421 138.8448 
L 192.774347 143.0784 
L 189.232661 144.8928 
L 185.100694 147.6144 
L 179.788165 150.336 
L 177.131901 151.848 
L 176.83676 152.4528 
L 176.83676 153.36 
L 178.607603 152.7552 
L 178.607603 151.2432 
L 179.197884 150.0336 
L 181.559008 149.1264 
L 186.281256 147.6144 
L 190.708364 146.4048 
L 194.840331 145.4976 
L 197.496595 145.4976 
L 199.267438 146.1024 
L 199.562579 147.6144 
L 199.267438 149.7312 
L 198.677157 152.1504 
L 193.364628 158.8032 
L 190.118083 161.8272 
L 188.64238 163.944 
L 188.64238 164.5488 
L 189.527802 164.8512 
L 189.527802 165.456 
L 190.708364 165.456 
L 193.364628 164.5488 
L 195.725752 160.3152 
L 196.611174 159.7104 
L 198.086876 159.1056 
L 201.333421 158.5008 
L 206.35081 157.896 
L 209.597355 157.5936 
L 213.434182 157.5936 
L 215.500165 158.1984 
L 218.15643 158.5008 
L 219.927273 158.1984 
L 221.993256 157.5936 
L 223.173818 156.6864 
L 222.288397 156.0816 
L 223.764099 154.2672 
L 224.649521 151.848 
L 224.944661 149.7312 
L 225.239802 148.5216 
L 225.239802 148.5216 
L 224.649521 146.1024 
L 224.649521 142.1712 
L 224.05924 139.752 
L 224.05924 139.752 
L 223.468959 138.8448 
L 223.468959 138.8448 
L 222.583537 138.24 
L 220.812694 138.24 
L 220.812694 138.24 
L 219.927273 137.9376 
L 219.041851 137.9376 
L 217.861289 137.6352 
L 217.861289 137.6352 
L 216.090446 138.5424 
L 215.205025 138.8448 
L 215.205025 138.8448 
L 212.843901 140.0544 
L 212.843901 140.0544 
L 211.958479 140.6592 
L 211.958479 140.6592 
" clip-path="url(#p2d28f458b2)" style="fill: none; stroke: #000000; stroke-width: 1.5; stroke-linecap: square"/>
   </g>
   <g id="line2d_6">
    <path d="M 342.410579 148.2192 
" clip-path="url(#p2d28f458b2)" style="fill: none; stroke: #000000; stroke-width: 1.5; stroke-linecap: square"/>
    <defs>
     <path id="m29f56a110f" d="M 0 5 
C 1.326016 5 2.597899 4.473168 3.535534 3.535534 
C 4.473168 2.597899 5 1.326016 5 0 
C 5 -1.326016 4.473168 -2.597899 3.535534 -3.535534 
C 2.597899 -4.473168 1.326016 -5 0 -5 
C -1.326016 -5 -2.597899 -4.473168 -3.535534 -3.535534 
C -4.473168 -2.597899 -5 -1.326016 -5 0 
C -5 1.326016 -4.473168 2.597899 -3.535534 3.535534 
C -2.597899 4.473168 -1.326016 5 0 5 
z
" style="stroke: #000000"/>
    </defs>
    <g clip-path="url(#p2d28f458b2)">
     <use xlink:href="#m29f56a110f" x="342.410579" y="148.2192" style="stroke: #000000"/>
    </g>
   </g>
   <g id="line2d_7">
    <path d="M 211.958479 140.6592 
" clip-path="url(#p2d28f458b2)" style="fill: none; stroke: #000000; stroke-width: 1.5; stroke-linecap: square"/>
    <defs>
     <path id="m9baa1e5aa2" d="M -5 5 
L 5 5 
L 5 -5 
L -5 -5 
z
" style="stroke: #000000; stroke-linejoin: miter"/>
    </defs>
    <g clip-path="url(#p2d28f458b2)">
     <use xlink:href="#m9baa1e5aa2" x="211.958479" y="140.6592" style="stroke: #000000; stroke-linejoin: miter"/>
    </g>
   </g>
   <g id="line2d_8">
    <path d="M 74.127868 117.3744 
L 73.832727 124.0272 
L 73.832727 268.272 
L 73.832727 227.448 
L 77.964694 225.936 
L 88.589752 223.5168 
L 102.166215 219.2832 
L 117.513521 214.1424 
L 132.270545 208.0944 
L 162.374876 193.5792 
L 199.857719 175.1328 
L 224.35438 163.944 
L 250.621884 153.0576 
L 282.201917 140.3568 
L 321.160463 126.144 
L 363.955835 111.6288 
L 398.487273 95.904 
L 398.487273 53.568 
L 398.487273 135.216 
L 398.487273 109.2096 
L 337.09805 143.0784 
L 246.785058 181.4832 
L 143.190744 226.5408 
L 98.329388 274.32 
L 82.686942 289.44 
L 77.079273 293.6736 
L 73.832727 295.488 
L 73.832727 295.488 
L 73.832727 273.7152 
L 80.325818 276.7392 
L 102.461355 275.832 
L 124.596893 277.9488 
L 122.82605 287.928 
L 121.350347 293.3712 
L 111.610711 294.8832 
L 87.11405 295.1856 
L 75.60357 295.488 
L 73.832727 295.488 
L 225.239802 295.488 
L 73.832727 295.488 
L 73.832727 267.3648 
L 173.885355 224.1216 
L 237.340562 201.4416 
L 233.798876 199.3248 
L 225.534942 199.3248 
L 217.861289 200.8368 
L 208.711934 203.5584 
L 199.562579 206.8848 
L 189.527802 210.2112 
L 180.673587 212.6304 
L 171.229091 215.6544 
L 161.784595 218.376 
L 142.600463 224.424 
L 131.975405 228.3552 
L 124.892033 230.1696 
L 119.579504 231.0768 
L 115.152397 231.0768 
L 112.200992 230.1696 
L 107.773884 230.1696 
L 101.280793 231.0768 
L 91.541157 232.8912 
L 82.391802 232.8912 
L 81.21124 233.1936 
L 81.21124 232.8912 
L 81.21124 232.8912 
L 80.620959 233.1936 
L 80.325818 232.8912 
L 76.488992 234.1008 
L 75.60357 234.4032 
L 74.423008 234.4032 
L 74.127868 235.008 
L 73.832727 233.7984 
L 73.832727 233.7984 
L 73.832727 237.7296 
L 73.832727 237.7296 
L 74.718149 238.3344 
L 76.488992 238.9392 
L 77.669554 239.8464 
L 81.801521 240.4512 
L 85.343207 240.4512 
L 97.148826 237.7296 
L 106.003041 235.3104 
L 114.266975 230.472 
L 120.760066 230.1696 
L 131.089983 226.2384 
L 144.076165 222.0048 
L 150.864397 222.0048 
L 164.44086 216.864 
L 178.017322 212.0256 
L 186.871537 209.304 
L 197.201455 205.0704 
L 212.843901 199.3248 
L 220.517554 196.6032 
L 230.25719 192.9744 
L 233.798876 191.16 
L 237.340562 189.648 
L 242.06281 186.624 
L 243.833653 185.112 
L 244.719074 184.2048 
L 248.851041 182.088 
L 251.507306 180.576 
L 252.687868 179.6688 
L 254.16357 179.064 
L 254.753851 179.064 
L 254.753851 178.7616 
L 256.524694 178.1568 
L 258.885818 177.552 
L 264.198347 175.1328 
L 268.035174 173.3184 
L 271.57686 171.8064 
L 274.823405 169.992 
L 277.479669 168.1776 
L 278.660231 167.5728 
L 278.955372 166.968 
L 278.955372 166.968 
L 279.250512 166.968 
L 280.431074 166.0608 
L 286.924165 162.7344 
L 291.941554 160.92 
L 294.597818 159.408 
L 296.368661 159.1056 
L 295.48324 159.7104 
L 294.007537 160.0128 
L 292.531835 160.6176 
L 289.285289 161.8272 
L 287.219306 161.8272 
L 284.267901 162.432 
L 281.906777 163.0368 
L 281.021355 163.6416 
L 281.021355 163.944 
L 281.611636 163.6416 
L 281.611636 163.3392 
L 282.497058 162.432 
L 282.497058 161.8272 
L 281.906777 160.92 
L 281.021355 160.6176 
L 280.726215 159.7104 
L 278.955372 159.1056 
L 272.757421 160.0128 
L 265.083769 161.5248 
L 263.608066 161.5248 
L 261.246942 162.432 
L 260.06638 163.3392 
L 258.295537 164.5488 
L 255.934413 166.3632 
L 250.917025 169.6896 
L 247.96562 171.2016 
L 245.309355 172.4112 
L 242.948231 173.6208 
L 238.225983 174.8304 
L 235.86486 175.7376 
L 232.028033 176.9472 
L 223.764099 179.9712 
L 217.861289 182.3904 
L 214.909884 183.6 
L 212.54876 185.112 
L 204.875107 189.0432 
L 200.74314 191.4624 
L 200.448 191.7648 
L 199.857719 192.0672 
L 198.677157 192.3696 
L 197.791736 192.9744 
L 196.906314 193.2768 
L 195.135471 194.184 
L 194.54519 194.7888 
L 193.659769 195.0912 
L 193.954909 195.0912 
L 193.954909 195.3936 
L 195.430612 195.0912 
L 196.611174 195.0912 
L 198.677157 194.7888 
L 201.628562 193.8816 
L 203.104264 193.5792 
L 206.64595 192.0672 
L 209.302215 191.16 
L 214.909884 189.0432 
L 216.680727 188.7408 
L 218.15643 188.7408 
L 219.927273 188.4384 
L 220.812694 188.136 
L 221.698116 187.5312 
L 221.698116 187.2288 
L 223.173818 185.7168 
L 224.649521 184.8096 
L 226.125223 184.2048 
L 228.781488 182.6928 
L 229.666909 182.3904 
L 230.25719 182.3904 
L 231.142612 182.088 
L 231.142612 182.3904 
L 231.437752 182.6928 
L 230.847471 183.2976 
L 230.847471 183.2976 
" clip-path="url(#p2d28f458b2)" style="fill: none; stroke: #ffa07a; stroke-width: 1.5; stroke-linecap: square"/>
   </g>
   <g id="line2d_9">
    <path d="M 74.127868 117.3744 
" clip-path="url(#p2d28f458b2)" style="fill: none; stroke: #ffa07a; stroke-width: 1.5; stroke-linecap: square"/>
    <defs>
     <path id="m0089623791" d="M 0 5 
C 1.326016 5 2.597899 4.473168 3.535534 3.535534 
C 4.473168 2.597899 5 1.326016 5 0 
C 5 -1.326016 4.473168 -2.597899 3.535534 -3.535534 
C 2.597899 -4.473168 1.326016 -5 0 -5 
C -1.326016 -5 -2.597899 -4.473168 -3.535534 -3.535534 
C -4.473168 -2.597899 -5 -1.326016 -5 0 
C -5 1.326016 -4.473168 2.597899 -3.535534 3.535534 
C -2.597899 4.473168 -1.326016 5 0 5 
z
" style="stroke: #ffa07a"/>
    </defs>
    <g clip-path="url(#p2d28f458b2)">
     <use xlink:href="#m0089623791" x="74.127868" y="117.3744" style="fill: #ffa07a; stroke: #ffa07a"/>
    </g>
   </g>
   <g id="line2d_10">
    <path d="M 230.847471 183.2976 
" clip-path="url(#p2d28f458b2)" style="fill: none; stroke: #ffa07a; stroke-width: 1.5; stroke-linecap: square"/>
    <defs>
     <path id="mf70dc83f73" d="M -5 5 
L 5 5 
L 5 -5 
L -5 -5 
z
" style="stroke: #ffa07a; stroke-linejoin: miter"/>
    </defs>
    <g clip-path="url(#p2d28f458b2)">
     <use xlink:href="#mf70dc83f73" x="230.847471" y="183.2976" style="fill: #ffa07a; stroke: #ffa07a; stroke-linejoin: miter"/>
    </g>
   </g>
   <g id="line2d_11">
    <path d="M 73.832727 295.488 
L 73.832727 285.8112 
L 74.127868 281.2752 
L 81.50638 279.4608 
L 82.982083 280.0656 
L 77.079273 284.6016 
L 75.013289 285.2064 
L 74.718149 284.2992 
L 78.259835 283.0896 
L 82.391802 282.1824 
L 80.916099 283.6944 
L 83.572364 281.2752 
L 89.475174 279.1584 
L 98.919669 276.4368 
L 105.707901 274.0176 
L 108.364165 272.808 
L 108.659306 269.1792 
L 111.02043 268.8768 
L 114.857256 267.9696 
L 115.742678 265.5504 
L 118.989223 265.248 
L 136.697653 260.1072 
L 141.12476 259.5024 
L 146.142149 257.9904 
L 150.569256 256.176 
L 154.110942 254.3616 
L 157.652628 251.64 
L 159.718612 248.9184 
L 160.604033 248.0112 
L 161.194314 247.104 
L 160.899174 246.1968 
L 161.489455 244.9872 
L 162.079736 244.08 
L 164.736 242.2656 
L 168.867967 239.8464 
L 171.524231 238.6368 
L 172.114512 238.9392 
L 171.819372 239.8464 
L 171.819372 241.056 
L 172.114512 241.056 
L 172.999934 240.7536 
L 175.951339 239.2416 
L 177.427041 238.9392 
L 177.427041 240.1488 
L 180.378446 239.544 
L 182.73957 239.2416 
L 189.527802 236.8224 
L 193.659769 235.3104 
L 197.496595 233.496 
L 203.104264 231.0768 
L 211.368198 226.8432 
L 216.385587 224.424 
L 220.222413 222.3072 
L 234.094017 213.5376 
L 235.86486 211.7232 
L 237.340562 209.9088 
L 235.86486 209.9088 
L 241.767669 206.8848 
L 244.719074 205.6752 
L 247.96562 204.1632 
L 247.375339 204.768 
L 246.194777 205.6752 
L 244.719074 206.28 
L 237.045421 211.1184 
L 231.437752 215.0496 
L 226.715504 218.0736 
L 224.944661 218.9808 
L 224.05924 219.2832 
L 223.468959 219.888 
L 221.993256 220.1904 
L 221.993256 219.888 
L 221.698116 219.5856 
L 221.698116 218.9808 
L 222.878678 218.376 
L 223.173818 218.0736 
L 222.878678 218.0736 
L 225.830083 216.5616 
L 227.896066 215.352 
L 228.191207 214.4448 
L 229.96205 213.2352 
L 229.96205 212.0256 
L 229.076628 211.1184 
L 232.028033 208.6992 
L 235.569719 206.28 
L 240.882248 203.256 
L 242.06281 201.744 
L 243.538512 200.232 
L 244.128793 198.72 
L 247.375339 195.3936 
L 248.26076 193.8816 
L 249.146182 191.16 
L 248.851041 189.9504 
L 247.670479 189.9504 
L 247.670479 187.2288 
L 247.080198 186.9264 
L 247.080198 185.7168 
L 246.489917 183.9024 
L 247.080198 183.6 
L 247.670479 182.6928 
L 247.080198 182.6928 
L 245.899636 182.9952 
L 244.719074 182.9952 
L 243.243372 183.2976 
L 241.177388 183.2976 
L 240.291967 182.9952 
L 239.406545 182.9952 
L 236.16 183.9024 
L 233.798876 184.8096 
L 232.028033 185.7168 
L 229.666909 186.624 
L 229.96205 186.9264 
L 227.305785 188.4384 
L 226.125223 189.0432 
L 221.402975 190.8576 
L 218.746711 192.0672 
L 216.090446 192.9744 
L 213.434182 194.184 
L 216.090446 192.9744 
L 215.795306 193.2768 
L 216.090446 192.9744 
L 216.385587 192.9744 
L 216.680727 192.3696 
L 216.385587 192.0672 
L 216.385587 191.7648 
L 217.271008 191.16 
L 217.566149 190.2528 
L 218.746711 189.0432 
L 219.041851 188.136 
L 217.861289 187.5312 
L 216.680727 186.624 
L 216.385587 185.7168 
L 216.090446 184.2048 
L 214.909884 181.1808 
L 213.729322 179.9712 
L 213.139041 178.7616 
L 211.958479 177.8544 
L 211.663339 176.3424 
L 211.958479 175.1328 
L 213.139041 173.3184 
L 213.729322 171.8064 
L 214.614744 169.992 
L 216.090446 167.8752 
L 215.205025 166.6656 
L 214.909884 165.1536 
L 215.205025 164.2464 
L 215.205025 162.432 
L 212.843901 160.92 
L 212.25362 160.3152 
L 207.826512 159.7104 
L 206.64595 159.408 
L 206.35081 159.1056 
L 205.170248 158.1984 
L 210.482777 155.4768 
L 210.482777 154.872 
L 212.25362 154.2672 
L 214.614744 152.4528 
L 215.795306 150.9408 
L 218.45157 148.5216 
L 217.861289 147.9168 
L 217.271008 147.6144 
L 216.975868 147.312 
L 222.288397 145.8 
L 221.402975 146.4048 
L 223.468959 146.4048 
L 225.830083 145.8 
L 231.142612 143.3808 
L 233.798876 142.776 
L 239.406545 140.3568 
L 246.785058 136.4256 
L 250.326744 134.0064 
L 252.097587 131.8896 
L 257.410116 128.2608 
L 259.476099 126.4464 
L 261.246942 124.3296 
L 262.132364 122.5152 
L 263.903207 120.7008 
L 266.264331 118.8864 
L 270.396298 116.1648 
L 270.691438 114.3504 
L 276.299107 111.6288 
L 280.726215 109.8144 
L 284.858182 108.3024 
L 287.219306 108 
L 288.104727 108.9072 
L 288.104727 111.3264 
L 286.629025 116.4672 
L 287.219306 121.3056 
L 289.285289 125.5392 
L 290.760992 129.4704 
L 292.531835 133.704 
L 292.826975 138.24 
L 289.87557 141.5664 
L 291.941554 146.4048 
L 292.531835 150.9408 
L 291.351273 156.384 
L 292.531835 159.1056 
L 296.958942 159.1056 
L 300.205488 160.92 
L 300.500628 162.7344 
L 302.271471 163.944 
L 302.861752 164.5488 
L 303.747174 165.7584 
L 304.337455 166.968 
L 304.632595 168.1776 
L 308.174281 166.968 
L 308.174281 167.8752 
L 309.354843 167.5728 
L 307.87914 169.0848 
L 309.649983 169.0848 
L 313.48681 166.968 
L 313.191669 167.2704 
L 310.830545 168.1776 
L 309.649983 168.48 
L 309.945124 168.48 
L 310.830545 167.8752 
L 312.011107 167.5728 
L 313.48681 166.6656 
L 317.028496 165.1536 
L 322.341025 163.0368 
L 319.094479 163.944 
L 320.570182 163.3392 
L 322.341025 162.1296 
L 323.226446 161.2224 
L 323.226446 160.92 
L 324.111868 159.408 
L 325.29243 158.1984 
L 325.58757 157.2912 
L 327.358413 155.1744 
L 330.309818 152.7552 
L 334.146645 149.1264 
L 340.639736 144.5904 
L 345.361983 141.5664 
L 354.216198 135.216 
L 356.872463 133.704 
L 372.219769 125.2368 
L 383.139967 118.8864 
L 396.126149 111.6288 
L 397.601851 103.1616 
L 398.192132 97.1136 
L 398.487273 91.368 
L 398.487273 64.4544 
L 398.487273 101.3472 
L 392.584463 106.488 
L 377.532298 118.584 
L 368.678083 125.2368 
L 358.348165 132.4944 
L 347.723107 140.3568 
L 333.556364 151.5456 
L 328.834116 155.4768 
L 316.733355 163.6416 
L 299.615207 173.9232 
L 284.858182 182.088 
L 272.757421 189.9504 
L 261.246942 197.208 
L 251.507306 203.8608 
L 240.587107 210.816 
L 230.25719 217.7712 
L 219.041851 224.7264 
L 206.35081 232.2864 
L 192.479207 240.1488 
L 178.017322 248.0112 
L 161.489455 255.8736 
L 126.367736 272.2032 
L 110.430149 279.1584 
L 96.558545 285.8112 
L 86.818909 290.952 
L 80.030678 294.2784 
L 80.325818 294.5808 
L 82.982083 293.6736 
L 83.572364 293.6736 
L 86.818909 291.2544 
L 88.294612 289.44 
L 90.065455 287.0208 
L 90.655736 285.5088 
L 90.360595 284.6016 
L 91.246017 283.6944 
L 94.787702 281.5776 
L 95.673124 281.2752 
L 98.329388 280.0656 
L 100.690512 280.0656 
L 102.461355 279.7632 
L 105.41276 278.856 
L 112.200992 276.1344 
L 121.940628 270.9936 
L 116.037818 273.1104 
L 120.464926 269.784 
L 124.596893 265.8528 
L 134.92681 257.0832 
L 142.305322 251.64 
L 149.683835 245.2896 
L 159.718612 238.032 
L 165.03114 231.6816 
L 197.201455 223.2144 
L 211.958479 216.864 
L 225.239802 210.816 
L 235.86486 206.28 
L 248.26076 201.4416 
L 255.048992 199.6272 
L 259.77124 198.1152 
L 263.608066 196.6032 
L 266.854612 195.0912 
L 269.510876 193.5792 
L 270.691438 192.3696 
L 278.365091 188.4384 
L 280.431074 186.9264 
L 284.858182 184.8096 
L 288.104727 183.2976 
L 288.695008 182.3904 
L 293.417256 181.4832 
L 295.188099 181.4832 
L 296.958942 182.3904 
L 301.976331 181.4832 
L 302.566612 180.8784 
L 301.68119 180.576 
L 300.205488 180.576 
L 297.844364 181.1808 
L 290.170711 183.6 
L 285.153322 184.8096 
L 280.431074 185.7168 
L 273.052562 185.7168 
L 268.330314 186.3216 
L 262.427504 187.8336 
L 249.736463 192.3696 
L 243.243372 195.0912 
L 237.930843 197.5104 
L 232.323174 200.232 
L 227.600926 203.256 
L 223.468959 206.28 
L 220.812694 208.6992 
L 219.927273 209.9088 
L 221.698116 210.2112 
L 223.468959 210.2112 
L 225.534942 209.6064 
L 224.35438 211.1184 
L 224.35438 211.4208 
L 227.305785 210.816 
L 231.142612 208.6992 
L 236.45514 207.4896 
L 240.882248 206.8848 
L 242.948231 207.4896 
L 244.128793 207.4896 
L 244.423934 207.792 
L 242.948231 208.0944 
L 239.111405 210.2112 
L 236.45514 210.816 
L 232.618314 212.328 
L 229.96205 211.7232 
L 228.781488 211.1184 
L 224.05924 211.7232 
L 219.336992 211.4208 
L 216.385587 211.7232 
L 214.024463 212.328 
L 209.597355 213.84 
L 204.284826 216.2592 
L 198.972298 218.9808 
L 195.725752 221.7024 
L 193.954909 223.5168 
L 193.659769 224.424 
L 195.135471 224.424 
L 197.201455 223.8192 
L 200.15286 222.6096 
L 195.725752 225.0288 
L 197.496595 223.5168 
L 202.218843 220.7952 
L 205.465388 217.4688 
L 209.597355 214.1424 
L 211.368198 211.7232 
L 211.368198 210.2112 
L 211.663339 209.304 
L 211.958479 209.0016 
L 214.024463 208.6992 
L 216.385587 208.0944 
L 216.385587 208.3968 
L 222.583537 205.3728 
L 227.010645 202.0464 
L 227.600926 198.1152 
L 228.486347 195.9984 
L 228.781488 193.5792 
L 229.371769 192.3696 
L 228.781488 189.3456 
L 229.371769 187.2288 
L 228.486347 185.4144 
L 227.010645 184.2048 
L 224.35438 183.6 
L 222.878678 182.3904 
L 218.746711 182.9952 
L 214.909884 183.9024 
L 211.073058 186.0192 
L 204.875107 189.9504 
L 204.875107 191.16 
L 205.760529 191.4624 
L 205.465388 191.7648 
L 208.711934 189.9504 
L 211.663339 188.136 
L 207.531372 190.2528 
L 206.055669 190.5552 
L 206.055669 189.9504 
L 209.302215 187.8336 
L 215.205025 184.8096 
L 217.861289 182.9952 
L 218.15643 182.9952 
L 217.566149 183.2976 
L 216.385587 184.5072 
L 217.271008 184.5072 
L 217.861289 184.2048 
L 221.107835 182.9952 
L 231.142612 178.7616 
L 235.569719 176.3424 
L 232.618314 174.528 
L 211.073058 177.2496 
L 208.711934 175.1328 
L 208.121653 172.7136 
L 208.711934 169.3872 
L 208.711934 165.456 
L 201.628562 160.92 
L 196.316033 159.7104 
L 188.052099 160.0128 
L 176.83676 161.8272 
L 164.44086 165.1536 
L 149.093554 170.5968 
L 133.746248 176.9472 
L 122.235769 182.088 
L 115.742678 185.7168 
L 112.200992 188.136 
L 114.562116 187.8336 
L 119.579504 186.0192 
L 125.187174 183.2976 
L 130.794843 179.9712 
L 143.781025 173.016 
L 144.371306 172.1088 
L 142.010182 172.7136 
L 138.763636 174.2256 
L 136.402512 176.04 
L 133.451107 178.1568 
L 131.680264 180.8784 
L 130.499702 183.2976 
L 130.204562 185.7168 
L 132.270545 186.9264 
L 138.763636 186.9264 
L 144.076165 186.3216 
L 145.551868 186.9264 
L 150.569256 185.4144 
L 153.225521 185.112 
L 154.701223 185.7168 
L 154.996364 186.9264 
L 154.701223 188.4384 
L 155.291504 189.648 
L 157.062347 190.2528 
L 157.357488 192.3696 
L 156.176926 195.0912 
L 146.142149 205.6752 
L 149.683835 207.792 
L 154.996364 206.5824 
L 156.767207 209.9088 
L 161.784595 209.0016 
L 157.652628 215.352 
L 160.013752 215.6544 
L 157.357488 218.376 
L 149.388694 226.2384 
L 148.208132 228.3552 
L 142.895603 232.5888 
L 138.468496 236.8224 
L 134.631669 241.056 
L 133.155967 243.7776 
L 133.451107 245.8944 
L 134.631669 246.8016 
L 137.878215 246.1968 
L 139.649058 246.1968 
L 142.010182 245.592 
L 144.961587 244.9872 
L 148.798413 243.7776 
L 152.044959 243.1728 
L 156.472066 241.6608 
L 158.83319 241.056 
L 162.374876 239.8464 
L 165.03114 238.6368 
L 168.572826 237.4272 
L 172.409653 235.6128 
L 175.951339 233.7984 
L 180.968727 231.6816 
L 185.690975 229.8672 
L 187.756959 228.6576 
L 192.184066 226.5408 
L 195.430612 223.8192 
L 198.677157 221.4 
L 203.104264 219.2832 
L 207.826512 216.5616 
L 212.843901 213.5376 
L 216.680727 210.5136 
L 222.288397 207.4896 
L 226.420364 204.1632 
L 231.732893 200.8368 
L 236.16 197.5104 
L 252.392727 186.9264 
L 252.392727 186.9264 
" clip-path="url(#p2d28f458b2)" style="fill: none; stroke: #0000ff; stroke-width: 1.5; stroke-linecap: square"/>
   </g>
   <g id="line2d_12">
    <path d="M 73.832727 295.488 
" clip-path="url(#p2d28f458b2)" style="fill: none; stroke: #0000ff; stroke-width: 1.5; stroke-linecap: square"/>
    <defs>
     <path id="m3b94e11637" d="M 0 5 
C 1.326016 5 2.597899 4.473168 3.535534 3.535534 
C 4.473168 2.597899 5 1.326016 5 0 
C 5 -1.326016 4.473168 -2.597899 3.535534 -3.535534 
C 2.597899 -4.473168 1.326016 -5 0 -5 
C -1.326016 -5 -2.597899 -4.473168 -3.535534 -3.535534 
C -4.473168 -2.597899 -5 -1.326016 -5 0 
C -5 1.326016 -4.473168 2.597899 -3.535534 3.535534 
C -2.597899 4.473168 -1.326016 5 0 5 
z
" style="stroke: #0000ff"/>
    </defs>
    <g clip-path="url(#p2d28f458b2)">
     <use xlink:href="#m3b94e11637" x="73.832727" y="295.488" style="fill: #0000ff; stroke: #0000ff"/>
    </g>
   </g>
   <g id="line2d_13">
    <path d="M 252.392727 186.9264 
" clip-path="url(#p2d28f458b2)" style="fill: none; stroke: #0000ff; stroke-width: 1.5; stroke-linecap: square"/>
    <defs>
     <path id="m0ba108d0b2" d="M -5 5 
L 5 5 
L 5 -5 
L -5 -5 
z
" style="stroke: #0000ff; stroke-linejoin: miter"/>
    </defs>
    <g clip-path="url(#p2d28f458b2)">
     <use xlink:href="#m0ba108d0b2" x="252.392727" y="186.9264" style="fill: #0000ff; stroke: #0000ff; stroke-linejoin: miter"/>
    </g>
   </g>
   <g id="line2d_14">
    <path d="M 142.600463 239.2416 
L 144.961587 238.032 
L 147.617851 236.52 
L 151.454678 233.7984 
L 151.454678 232.8912 
L 151.159537 231.0768 
L 152.93038 229.8672 
L 154.701223 228.3552 
L 156.176926 227.448 
L 157.062347 226.2384 
L 159.423471 224.7264 
L 158.53805 224.1216 
L 156.472066 224.7264 
L 154.110942 225.0288 
L 151.454678 225.936 
L 148.208132 227.448 
L 148.503273 227.448 
L 150.864397 226.5408 
L 154.406083 225.0288 
L 160.013752 222.912 
L 167.097124 219.888 
L 182.44443 212.9328 
L 185.395835 211.7232 
L 184.805554 211.7232 
L 172.999934 219.888 
L 168.572826 223.2144 
L 162.965157 226.8432 
L 157.652628 230.7744 
L 152.63524 234.7056 
L 149.683835 238.3344 
L 149.978975 240.1488 
L 150.864397 241.3584 
L 150.569256 242.8704 
L 147.02757 244.9872 
L 143.485884 246.8016 
L 136.992793 249.2208 
L 131.975405 249.8256 
L 126.072595 250.128 
L 116.628099 248.9184 
L 110.725289 248.616 
L 106.298182 248.616 
L 103.937058 248.0112 
L 102.756496 248.0112 
L 100.395372 248.9184 
L 98.034248 250.4304 
L 96.558545 251.9424 
L 93.01686 253.7568 
L 88.884893 254.664 
L 86.228628 254.664 
L 80.030678 256.4784 
L 74.718149 257.3856 
L 74.127868 257.0832 
L 73.832727 257.3856 
L 73.832727 254.0592 
L 73.832727 267.6672 
L 73.832727 267.0624 
L 77.669554 265.5504 
L 85.933488 263.4336 
L 93.60714 261.6192 
L 109.839868 256.7808 
L 122.530909 252.8496 
L 129.909421 250.7328 
L 138.173355 248.616 
L 148.208132 245.592 
L 162.374876 240.4512 
L 170.343669 237.1248 
L 177.427041 233.7984 
L 191.003504 228.3552 
L 207.236231 222.6096 
L 224.649521 215.9568 
L 232.618314 213.5376 
L 239.996826 211.1184 
L 245.604496 208.6992 
L 259.476099 203.5584 
L 265.67405 201.4416 
L 270.101157 199.3248 
L 281.021355 195.696 
L 280.726215 196.3008 
L 276.299107 199.0224 
L 273.052562 199.3248 
L 274.233124 198.72 
L 273.347702 199.3248 
L 268.920595 202.0464 
L 267.149752 202.9536 
L 265.96919 204.1632 
L 266.854612 204.4656 
L 273.347702 202.0464 
L 281.021355 197.208 
L 281.316496 196.3008 
L 280.726215 195.696 
L 277.479669 196.6032 
L 275.413686 197.5104 
L 273.642843 198.1152 
L 270.396298 200.232 
L 270.396298 200.8368 
L 270.986579 201.4416 
L 274.528264 202.0464 
L 274.528264 202.9536 
L 272.462281 203.8608 
L 270.396298 205.0704 
L 270.691438 204.768 
L 270.691438 204.768 
L 273.642843 202.3488 
L 273.347702 201.4416 
L 273.642843 200.8368 
L 275.118545 199.6272 
L 275.413686 198.72 
L 276.003967 198.1152 
L 275.708826 197.5104 
L 274.823405 197.5104 
L 274.528264 196.9056 
L 272.757421 197.5104 
L 272.757421 197.208 
L 271.57686 197.208 
L 267.444893 198.4176 
L 264.493488 199.9296 
L 263.903207 199.9296 
L 263.903207 200.232 
L 263.017785 200.8368 
L 262.427504 200.5344 
L 261.837223 200.8368 
L 260.361521 201.4416 
L 253.278149 205.6752 
L 257.114975 203.5584 
L 256.819835 202.6512 
L 257.114975 201.744 
L 255.048992 201.744 
L 255.344132 201.4416 
L 256.819835 201.1392 
L 260.06638 199.0224 
L 265.378909 198.1152 
L 260.951802 199.9296 
L 255.344132 201.1392 
L 255.639273 200.232 
L 254.458711 200.232 
L 253.278149 200.8368 
L 251.212165 202.3488 
L 250.621884 202.3488 
L 248.555901 202.9536 
L 244.128793 202.3488 
L 242.35795 201.744 
L 238.521124 201.1392 
L 230.847471 202.6512 
L 219.632132 206.5824 
L 215.205025 208.6992 
L 213.434182 209.304 
L 215.205025 208.3968 
L 217.861289 207.4896 
L 220.222413 206.8848 
L 219.041851 206.8848 
L 211.958479 208.0944 
L 208.121653 208.6992 
L 203.104264 208.6992 
L 203.694545 208.3968 
L 203.989686 208.3968 
L 206.35081 207.4896 
L 209.302215 205.6752 
L 211.958479 203.5584 
L 213.434182 202.3488 
L 215.205025 201.1392 
L 216.975868 199.3248 
L 219.927273 196.9056 
L 224.649521 193.5792 
L 229.666909 189.648 
L 234.979438 185.112 
L 244.128793 179.6688 
L 249.736463 175.4352 
L 254.753851 171.8064 
L 261.837223 167.5728 
L 267.149752 164.2464 
L 270.101157 161.5248 
L 271.281719 160.6176 
L 274.233124 158.8032 
L 276.594248 157.5936 
L 278.660231 156.9888 
L 280.135934 156.6864 
L 281.316496 156.6864 
L 282.201917 156.9888 
L 281.906777 157.896 
L 279.840793 159.1056 
L 273.937983 163.944 
L 272.757421 165.7584 
L 273.052562 166.3632 
L 273.052562 166.968 
L 272.757421 167.5728 
L 274.233124 167.2704 
L 278.06995 166.0608 
L 279.545653 165.7584 
L 280.431074 166.0608 
L 280.726215 166.3632 
L 282.792198 165.7584 
L 282.792198 166.0608 
L 282.497058 166.0608 
L 281.906777 165.7584 
L 280.135934 166.6656 
L 279.840793 166.968 
L 286.629025 166.968 
L 290.465851 166.3632 
L 290.170711 167.2704 
L 288.990149 168.1776 
L 285.743603 169.3872 
L 283.67762 171.2016 
L 282.201917 171.8064 
L 278.955372 173.3184 
L 278.660231 173.6208 
L 276.299107 173.9232 
L 273.052562 174.528 
L 268.035174 176.04 
L 262.132364 177.552 
L 252.983008 179.6688 
L 243.243372 182.3904 
L 238.225983 183.9024 
L 234.684298 185.112 
L 229.96205 186.3216 
L 227.010645 187.2288 
L 229.96205 186.9264 
L 228.781488 187.2288 
L 226.420364 187.5312 
L 219.927273 188.136 
L 216.385587 188.7408 
L 200.74314 192.3696 
L 198.382017 192.9744 
L 195.430612 193.5792 
L 191.888926 194.184 
L 185.100694 195.696 
L 182.44443 196.9056 
L 181.263868 198.1152 
L 180.673587 199.3248 
L 179.493025 200.5344 
L 177.427041 201.4416 
L 175.361058 202.6512 
L 167.687405 205.9776 
L 164.44086 207.792 
L 162.079736 209.6064 
L 160.604033 211.4208 
L 158.83319 212.6304 
L 157.947769 213.5376 
L 156.176926 215.6544 
L 155.881785 216.5616 
L 154.996364 218.376 
L 152.63524 220.4928 
L 151.749818 221.0976 
L 148.503273 223.5168 
L 146.142149 223.8192 
L 144.666446 225.936 
L 143.190744 226.5408 
L 141.715041 227.7504 
L 141.12476 228.96 
L 141.12476 231.0768 
L 140.82962 230.7744 
L 142.010182 231.3792 
L 143.485884 231.6816 
L 144.961587 232.2864 
L 146.142149 232.8912 
L 147.322711 233.7984 
L 147.322711 235.3104 
L 147.02757 235.6128 
L 147.617851 237.4272 
L 147.912992 238.9392 
L 146.437289 239.2416 
L 148.503273 240.1488 
L 150.274116 241.056 
L 152.044959 241.056 
L 152.93038 239.544 
L 153.815802 239.8464 
L 154.701223 239.544 
L 153.225521 240.7536 
L 149.978975 244.9872 
L 147.617851 245.8944 
L 147.912992 247.4064 
L 149.683835 248.616 
L 147.02757 249.5232 
L 149.093554 248.0112 
L 151.454678 246.4992 
L 153.815802 244.6848 
L 157.652628 242.2656 
L 163.850579 238.9392 
L 169.753388 235.9152 
L 175.951339 233.1936 
L 183.920132 229.5648 
L 188.937521 228.3552 
L 199.857719 223.8192 
L 204.875107 222.3072 
L 214.319603 217.7712 
L 219.927273 214.7472 
L 229.96205 211.1184 
L 239.111405 206.5824 
L 247.670479 203.5584 
L 254.753851 200.5344 
L 260.951802 198.1152 
L 266.559471 196.3008 
L 271.872 194.7888 
L 278.955372 192.9744 
L 286.629025 190.2528 
L 291.056132 188.4384 
L 294.597818 186.0192 
L 293.417256 186.9264 
L 292.826975 187.5312 
L 289.87557 189.3456 
L 284.858182 192.0672 
L 280.135934 194.184 
L 276.299107 196.3008 
L 271.57686 198.4176 
L 268.625455 199.3248 
L 264.788628 200.8368 
L 260.951802 201.4416 
L 255.344132 202.6512 
L 251.507306 202.9536 
L 248.851041 202.6512 
L 244.719074 203.256 
L 243.833653 202.3488 
L 239.701686 203.256 
L 241.472529 201.744 
L 240.587107 201.4416 
L 239.111405 202.0464 
L 237.930843 202.6512 
L 238.225983 203.5584 
L 238.225983 204.1632 
L 241.767669 205.6752 
L 242.35795 206.28 
L 243.538512 206.5824 
L 243.833653 206.8848 
L 244.128793 206.8848 
L 244.423934 206.5824 
L 243.538512 206.8848 
L 243.538512 206.5824 
L 244.128793 205.6752 
L 244.128793 204.4656 
L 243.538512 203.8608 
L 242.948231 202.9536 
L 242.06281 202.3488 
L 239.996826 201.4416 
L 239.406545 200.5344 
L 235.86486 200.232 
L 232.618314 200.232 
L 230.25719 199.9296 
L 228.486347 199.3248 
L 226.420364 199.3248 
L 223.764099 199.0224 
L 220.222413 199.3248 
L 219.632132 198.1152 
L 221.107835 196.9056 
L 226.715504 194.4864 
L 244.423934 189.3456 
L 258.295537 186.3216 
L 274.233124 183.2976 
L 291.056132 181.1808 
L 304.632595 182.088 
L 308.174281 188.7408 
L 299.615207 201.1392 
L 275.708826 221.0976 
L 238.225983 247.104 
L 192.774347 276.1344 
L 143.781025 290.0448 
L 98.624529 293.976 
L 82.686942 295.1856 
L 77.079273 295.488 
L 73.832727 295.488 
L 157.357488 295.488 
L 203.989686 267.0624 
L 239.111405 244.3824 
L 263.312926 227.448 
L 276.299107 217.1664 
L 279.250512 211.1184 
L 278.365091 206.8848 
L 273.937983 206.5824 
L 268.035174 205.0704 
L 263.017785 202.3488 
L 260.656661 199.3248 
L 261.246942 195.3936 
L 263.608066 191.4624 
L 267.149752 186.9264 
L 273.937983 181.4832 
L 281.611636 176.6448 
L 286.038744 173.3184 
L 288.990149 171.504 
L 288.104727 171.8064 
L 277.77481 177.8544 
L 269.510876 182.9952 
L 258.885818 189.0432 
L 247.96562 195.696 
L 233.503736 202.9536 
L 222.288397 211.4208 
L 208.711934 219.888 
L 196.316033 228.6576 
L 190.413223 235.008 
L 192.479207 240.1488 
L 185.690975 247.7088 
L 180.378446 254.9664 
L 180.378446 262.5264 
L 167.982545 272.808 
L 151.159537 286.416 
L 133.746248 292.7664 
L 113.971835 294.8832 
L 92.721719 295.1856 
L 76.193851 295.488 
L 73.832727 295.488 
L 73.832727 295.488 
L 253.86843 240.4512 
L 347.132826 130.0752 
L 380.188562 75.3408 
L 391.994182 59.9184 
L 396.126149 55.3824 
L 398.487273 53.568 
L 398.487273 53.568 
L 398.487273 78.0624 
L 398.487273 72.9216 
" clip-path="url(#p2d28f458b2)" style="fill: none; stroke: #00fa9a; stroke-width: 1.5; stroke-linecap: square"/>
   </g>
   <g id="line2d_15">
    <path d="M 142.600463 239.2416 
" clip-path="url(#p2d28f458b2)" style="fill: none; stroke: #00fa9a; stroke-width: 1.5; stroke-linecap: square"/>
    <defs>
     <path id="m6870c29d60" d="M 0 5 
C 1.326016 5 2.597899 4.473168 3.535534 3.535534 
C 4.473168 2.597899 5 1.326016 5 0 
C 5 -1.326016 4.473168 -2.597899 3.535534 -3.535534 
C 2.597899 -4.473168 1.326016 -5 0 -5 
C -1.326016 -5 -2.597899 -4.473168 -3.535534 -3.535534 
C -4.473168 -2.597899 -5 -1.326016 -5 0 
C -5 1.326016 -4.473168 2.597899 -3.535534 3.535534 
C -2.597899 4.473168 -1.326016 5 0 5 
z
" style="stroke: #00fa9a"/>
    </defs>
    <g clip-path="url(#p2d28f458b2)">
     <use xlink:href="#m6870c29d60" x="142.600463" y="239.2416" style="fill: #00fa9a; stroke: #00fa9a"/>
    </g>
   </g>
   <g id="line2d_16">
    <path d="M 398.487273 72.9216 
" clip-path="url(#p2d28f458b2)" style="fill: none; stroke: #00fa9a; stroke-width: 1.5; stroke-linecap: square"/>
    <defs>
     <path id="md866d60397" d="M -5 5 
L 5 5 
L 5 -5 
L -5 -5 
z
" style="stroke: #00fa9a; stroke-linejoin: miter"/>
    </defs>
    <g clip-path="url(#p2d28f458b2)">
     <use xlink:href="#md866d60397" x="398.487273" y="72.9216" style="fill: #00fa9a; stroke: #00fa9a; stroke-linejoin: miter"/>
    </g>
   </g>
   <g id="line2d_17">
    <path d="M 201.91297 261.09378 
" clip-path="url(#p2d28f458b2)" style="fill: none; stroke: #ff0000; stroke-width: 1.5; stroke-linecap: square"/>
    <defs>
     <path id="mdef80e9f75" d="M -2.5 5 
L 0 2.5 
L 2.5 5 
L 5 2.5 
L 2.5 0 
L 5 -2.5 
L 2.5 -5 
L 0 -2.5 
L -2.5 -5 
L -5 -2.5 
L -2.5 0 
L -5 2.5 
z
" style="stroke: #ff0000; stroke-linejoin: miter"/>
    </defs>
    <g clip-path="url(#p2d28f458b2)">
     <use xlink:href="#mdef80e9f75" x="201.91297" y="261.09378" style="fill: #ff0000; stroke: #ff0000; stroke-linejoin: miter"/>
    </g>
   </g>
   <g id="line2d_18">
    <path d="M 238.973226 226.70901 
" clip-path="url(#p2d28f458b2)" style="fill: none; stroke: #ffa07a; stroke-width: 1.5; stroke-linecap: square"/>
    <defs>
     <path id="m449f530a5c" d="M -2.5 5 
L 0 2.5 
L 2.5 5 
L 5 2.5 
L 2.5 0 
L 5 -2.5 
L 2.5 -5 
L 0 -2.5 
L -2.5 -5 
L -5 -2.5 
L -2.5 0 
L -5 2.5 
z
" style="stroke: #ffa07a; stroke-linejoin: miter"/>
    </defs>
    <g clip-path="url(#p2d28f458b2)">
     <use xlink:href="#m449f530a5c" x="238.973226" y="226.70901" style="fill: #ffa07a; stroke: #ffa07a; stroke-linejoin: miter"/>
    </g>
   </g>
   <g id="line2d_19">
    <path d="M 171.37532 157.33089 
" clip-path="url(#p2d28f458b2)" style="fill: none; stroke: #0000ff; stroke-width: 1.5; stroke-linecap: square"/>
    <defs>
     <path id="mf179cebf1f" d="M -2.5 5 
L 0 2.5 
L 2.5 5 
L 5 2.5 
L 2.5 0 
L 5 -2.5 
L 2.5 -5 
L 0 -2.5 
L -2.5 -5 
L -5 -2.5 
L -2.5 0 
L -5 2.5 
z
" style="stroke: #0000ff; stroke-linejoin: miter"/>
    </defs>
    <g clip-path="url(#p2d28f458b2)">
     <use xlink:href="#mf179cebf1f" x="171.37532" y="157.33089" style="fill: #0000ff; stroke: #0000ff; stroke-linejoin: miter"/>
    </g>
   </g>
   <g id="line2d_20">
    <path d="M 250.536025 240.40206 
" clip-path="url(#p2d28f458b2)" style="fill: none; stroke: #00fa9a; stroke-width: 1.5; stroke-linecap: square"/>
    <defs>
     <path id="m25b27f2ca1" d="M -2.5 5 
L 0 2.5 
L 2.5 5 
L 5 2.5 
L 2.5 0 
L 5 -2.5 
L 2.5 -5 
L 0 -2.5 
L -2.5 -5 
L -5 -2.5 
L -2.5 0 
L -5 2.5 
z
" style="stroke: #00fa9a; stroke-linejoin: miter"/>
    </defs>
    <g clip-path="url(#p2d28f458b2)">
     <use xlink:href="#m25b27f2ca1" x="250.536025" y="240.40206" style="fill: #00fa9a; stroke: #00fa9a; stroke-linejoin: miter"/>
    </g>
   </g>
   <g id="patch_3">
    <path d="M 57.6 307.584 
L 57.6 41.472 
" style="fill: none; stroke: #000000; stroke-width: 0.8; stroke-linejoin: miter; stroke-linecap: square"/>
   </g>
   <g id="patch_4">
    <path d="M 57.6 307.584 
L 414.72 307.584 
" style="fill: none; stroke: #000000; stroke-width: 0.8; stroke-linejoin: miter; stroke-linecap: square"/>
   </g>
   <g id="legend_1">
    <g id="patch_5">
     <path d="M 241.591875 141.54075 
L 404.22 141.54075 
Q 407.22 141.54075 407.22 138.54075 
L 407.22 51.972 
Q 407.22 48.972 404.22 48.972 
L 241.591875 48.972 
Q 238.591875 48.972 238.591875 51.972 
L 238.591875 138.54075 
Q 238.591875 141.54075 241.591875 141.54075 
z
" style="fill: #ffffff; opacity: 0.8; stroke: #cccccc; stroke-linejoin: miter"/>
    </g>
    <g id="line2d_21">
     <path d="M 244.591875 61.119656 
L 259.591875 61.119656 
L 274.591875 61.119656 
" style="fill: none; stroke: #000000; stroke-width: 1.5; stroke-linecap: square"/>
    </g>
    <g id="text_7">
     <!-- Trajectory -->
     <g transform="translate(286.591875 66.369656)scale(0.15 -0.15)">
      <defs>
       <path id="DejaVuSans-54" d="M -19 4666 
L 3928 4666 
L 3928 4134 
L 2272 4134 
L 2272 0 
L 1638 0 
L 1638 4134 
L -19 4134 
L -19 4666 
z
" transform="scale(0.015625)"/>
       <path id="DejaVuSans-72" d="M 2631 2963 
Q 2534 3019 2420 3045 
Q 2306 3072 2169 3072 
Q 1681 3072 1420 2755 
Q 1159 2438 1159 1844 
L 1159 0 
L 581 0 
L 581 3500 
L 1159 3500 
L 1159 2956 
Q 1341 3275 1631 3429 
Q 1922 3584 2338 3584 
Q 2397 3584 2469 3576 
Q 2541 3569 2628 3553 
L 2631 2963 
z
" transform="scale(0.015625)"/>
       <path id="DejaVuSans-61" d="M 2194 1759 
Q 1497 1759 1228 1600 
Q 959 1441 959 1056 
Q 959 750 1161 570 
Q 1363 391 1709 391 
Q 2188 391 2477 730 
Q 2766 1069 2766 1631 
L 2766 1759 
L 2194 1759 
z
M 3341 1997 
L 3341 0 
L 2766 0 
L 2766 531 
Q 2569 213 2275 61 
Q 1981 -91 1556 -91 
Q 1019 -91 701 211 
Q 384 513 384 1019 
Q 384 1609 779 1909 
Q 1175 2209 1959 2209 
L 2766 2209 
L 2766 2266 
Q 2766 2663 2505 2880 
Q 2244 3097 1772 3097 
Q 1472 3097 1187 3025 
Q 903 2953 641 2809 
L 641 3341 
Q 956 3463 1253 3523 
Q 1550 3584 1831 3584 
Q 2591 3584 2966 3190 
Q 3341 2797 3341 1997 
z
" transform="scale(0.015625)"/>
       <path id="DejaVuSans-6a" d="M 603 3500 
L 1178 3500 
L 1178 -63 
Q 1178 -731 923 -1031 
Q 669 -1331 103 -1331 
L -116 -1331 
L -116 -844 
L 38 -844 
Q 366 -844 484 -692 
Q 603 -541 603 -63 
L 603 3500 
z
M 603 4863 
L 1178 4863 
L 1178 4134 
L 603 4134 
L 603 4863 
z
" transform="scale(0.015625)"/>
       <path id="DejaVuSans-65" d="M 3597 1894 
L 3597 1613 
L 953 1613 
Q 991 1019 1311 708 
Q 1631 397 2203 397 
Q 2534 397 2845 478 
Q 3156 559 3463 722 
L 3463 178 
Q 3153 47 2828 -22 
Q 2503 -91 2169 -91 
Q 1331 -91 842 396 
Q 353 884 353 1716 
Q 353 2575 817 3079 
Q 1281 3584 2069 3584 
Q 2775 3584 3186 3129 
Q 3597 2675 3597 1894 
z
M 3022 2063 
Q 3016 2534 2758 2815 
Q 2500 3097 2075 3097 
Q 1594 3097 1305 2825 
Q 1016 2553 972 2059 
L 3022 2063 
z
" transform="scale(0.015625)"/>
       <path id="DejaVuSans-63" d="M 3122 3366 
L 3122 2828 
Q 2878 2963 2633 3030 
Q 2388 3097 2138 3097 
Q 1578 3097 1268 2742 
Q 959 2388 959 1747 
Q 959 1106 1268 751 
Q 1578 397 2138 397 
Q 2388 397 2633 464 
Q 2878 531 3122 666 
L 3122 134 
Q 2881 22 2623 -34 
Q 2366 -91 2075 -91 
Q 1284 -91 818 406 
Q 353 903 353 1747 
Q 353 2603 823 3093 
Q 1294 3584 2113 3584 
Q 2378 3584 2631 3529 
Q 2884 3475 3122 3366 
z
" transform="scale(0.015625)"/>
       <path id="DejaVuSans-74" d="M 1172 4494 
L 1172 3500 
L 2356 3500 
L 2356 3053 
L 1172 3053 
L 1172 1153 
Q 1172 725 1289 603 
Q 1406 481 1766 481 
L 2356 481 
L 2356 0 
L 1766 0 
Q 1100 0 847 248 
Q 594 497 594 1153 
L 594 3053 
L 172 3053 
L 172 3500 
L 594 3500 
L 594 4494 
L 1172 4494 
z
" transform="scale(0.015625)"/>
       <path id="DejaVuSans-6f" d="M 1959 3097 
Q 1497 3097 1228 2736 
Q 959 2375 959 1747 
Q 959 1119 1226 758 
Q 1494 397 1959 397 
Q 2419 397 2687 759 
Q 2956 1122 2956 1747 
Q 2956 2369 2687 2733 
Q 2419 3097 1959 3097 
z
M 1959 3584 
Q 2709 3584 3137 3096 
Q 3566 2609 3566 1747 
Q 3566 888 3137 398 
Q 2709 -91 1959 -91 
Q 1206 -91 779 398 
Q 353 888 353 1747 
Q 353 2609 779 3096 
Q 1206 3584 1959 3584 
z
" transform="scale(0.015625)"/>
       <path id="DejaVuSans-79" d="M 2059 -325 
Q 1816 -950 1584 -1140 
Q 1353 -1331 966 -1331 
L 506 -1331 
L 506 -850 
L 844 -850 
Q 1081 -850 1212 -737 
Q 1344 -625 1503 -206 
L 1606 56 
L 191 3500 
L 800 3500 
L 1894 763 
L 2988 3500 
L 3597 3500 
L 2059 -325 
z
" transform="scale(0.015625)"/>
      </defs>
      <use xlink:href="#DejaVuSans-54"/>
      <use xlink:href="#DejaVuSans-72" x="46.333984"/>
      <use xlink:href="#DejaVuSans-61" x="87.447266"/>
      <use xlink:href="#DejaVuSans-6a" x="148.726562"/>
      <use xlink:href="#DejaVuSans-65" x="176.509766"/>
      <use xlink:href="#DejaVuSans-63" x="238.033203"/>
      <use xlink:href="#DejaVuSans-74" x="293.013672"/>
      <use xlink:href="#DejaVuSans-6f" x="332.222656"/>
      <use xlink:href="#DejaVuSans-72" x="393.404297"/>
      <use xlink:href="#DejaVuSans-79" x="434.517578"/>
     </g>
    </g>
    <g id="line2d_22">
     <path d="M 244.591875 83.136844 
L 259.591875 83.136844 
L 274.591875 83.136844 
" style="fill: none; stroke: #000000; stroke-width: 1.5; stroke-linecap: square"/>
     <g>
      <use xlink:href="#m29f56a110f" x="259.591875" y="83.136844" style="stroke: #000000"/>
     </g>
    </g>
    <g id="text_8">
     <!-- Start -->
     <g transform="translate(286.591875 88.386844)scale(0.15 -0.15)">
      <defs>
       <path id="DejaVuSans-53" d="M 3425 4513 
L 3425 3897 
Q 3066 4069 2747 4153 
Q 2428 4238 2131 4238 
Q 1616 4238 1336 4038 
Q 1056 3838 1056 3469 
Q 1056 3159 1242 3001 
Q 1428 2844 1947 2747 
L 2328 2669 
Q 3034 2534 3370 2195 
Q 3706 1856 3706 1288 
Q 3706 609 3251 259 
Q 2797 -91 1919 -91 
Q 1588 -91 1214 -16 
Q 841 59 441 206 
L 441 856 
Q 825 641 1194 531 
Q 1563 422 1919 422 
Q 2459 422 2753 634 
Q 3047 847 3047 1241 
Q 3047 1584 2836 1778 
Q 2625 1972 2144 2069 
L 1759 2144 
Q 1053 2284 737 2584 
Q 422 2884 422 3419 
Q 422 4038 858 4394 
Q 1294 4750 2059 4750 
Q 2388 4750 2728 4690 
Q 3069 4631 3425 4513 
z
" transform="scale(0.015625)"/>
      </defs>
      <use xlink:href="#DejaVuSans-53"/>
      <use xlink:href="#DejaVuSans-74" x="63.476562"/>
      <use xlink:href="#DejaVuSans-61" x="102.685547"/>
      <use xlink:href="#DejaVuSans-72" x="163.964844"/>
      <use xlink:href="#DejaVuSans-74" x="205.078125"/>
     </g>
    </g>
    <g id="line2d_23">
     <path d="M 244.591875 105.154031 
L 259.591875 105.154031 
L 274.591875 105.154031 
" style="fill: none; stroke: #000000; stroke-width: 1.5; stroke-linecap: square"/>
     <g>
      <use xlink:href="#m9baa1e5aa2" x="259.591875" y="105.154031" style="stroke: #000000; stroke-linejoin: miter"/>
     </g>
    </g>
    <g id="text_9">
     <!-- End -->
     <g transform="translate(286.591875 110.404031)scale(0.15 -0.15)">
      <defs>
       <path id="DejaVuSans-45" d="M 628 4666 
L 3578 4666 
L 3578 4134 
L 1259 4134 
L 1259 2753 
L 3481 2753 
L 3481 2222 
L 1259 2222 
L 1259 531 
L 3634 531 
L 3634 0 
L 628 0 
L 628 4666 
z
" transform="scale(0.015625)"/>
       <path id="DejaVuSans-6e" d="M 3513 2113 
L 3513 0 
L 2938 0 
L 2938 2094 
Q 2938 2591 2744 2837 
Q 2550 3084 2163 3084 
Q 1697 3084 1428 2787 
Q 1159 2491 1159 1978 
L 1159 0 
L 581 0 
L 581 3500 
L 1159 3500 
L 1159 2956 
Q 1366 3272 1645 3428 
Q 1925 3584 2291 3584 
Q 2894 3584 3203 3211 
Q 3513 2838 3513 2113 
z
" transform="scale(0.015625)"/>
       <path id="DejaVuSans-64" d="M 2906 2969 
L 2906 4863 
L 3481 4863 
L 3481 0 
L 2906 0 
L 2906 525 
Q 2725 213 2448 61 
Q 2172 -91 1784 -91 
Q 1150 -91 751 415 
Q 353 922 353 1747 
Q 353 2572 751 3078 
Q 1150 3584 1784 3584 
Q 2172 3584 2448 3432 
Q 2725 3281 2906 2969 
z
M 947 1747 
Q 947 1113 1208 752 
Q 1469 391 1925 391 
Q 2381 391 2643 752 
Q 2906 1113 2906 1747 
Q 2906 2381 2643 2742 
Q 2381 3103 1925 3103 
Q 1469 3103 1208 2742 
Q 947 2381 947 1747 
z
" transform="scale(0.015625)"/>
      </defs>
      <use xlink:href="#DejaVuSans-45"/>
      <use xlink:href="#DejaVuSans-6e" x="63.183594"/>
      <use xlink:href="#DejaVuSans-64" x="126.5625"/>
     </g>
    </g>
    <g id="line2d_24">
     <path d="M 244.591875 127.171219 
L 259.591875 127.171219 
L 274.591875 127.171219 
" style="fill: none; stroke: #ff0000; stroke-width: 1.5; stroke-linecap: square"/>
     <g>
      <use xlink:href="#mdef80e9f75" x="259.591875" y="127.171219" style="fill: #ff0000; stroke: #ff0000; stroke-linejoin: miter"/>
     </g>
    </g>
    <g id="text_10">
     <!-- Target Location -->
     <g transform="translate(286.591875 132.421219)scale(0.15 -0.15)">
      <defs>
       <path id="DejaVuSans-67" d="M 2906 1791 
Q 2906 2416 2648 2759 
Q 2391 3103 1925 3103 
Q 1463 3103 1205 2759 
Q 947 2416 947 1791 
Q 947 1169 1205 825 
Q 1463 481 1925 481 
Q 2391 481 2648 825 
Q 2906 1169 2906 1791 
z
M 3481 434 
Q 3481 -459 3084 -895 
Q 2688 -1331 1869 -1331 
Q 1566 -1331 1297 -1286 
Q 1028 -1241 775 -1147 
L 775 -588 
Q 1028 -725 1275 -790 
Q 1522 -856 1778 -856 
Q 2344 -856 2625 -561 
Q 2906 -266 2906 331 
L 2906 616 
Q 2728 306 2450 153 
Q 2172 0 1784 0 
Q 1141 0 747 490 
Q 353 981 353 1791 
Q 353 2603 747 3093 
Q 1141 3584 1784 3584 
Q 2172 3584 2450 3431 
Q 2728 3278 2906 2969 
L 2906 3500 
L 3481 3500 
L 3481 434 
z
" transform="scale(0.015625)"/>
       <path id="DejaVuSans-20" transform="scale(0.015625)"/>
       <path id="DejaVuSans-4c" d="M 628 4666 
L 1259 4666 
L 1259 531 
L 3531 531 
L 3531 0 
L 628 0 
L 628 4666 
z
" transform="scale(0.015625)"/>
       <path id="DejaVuSans-69" d="M 603 3500 
L 1178 3500 
L 1178 0 
L 603 0 
L 603 3500 
z
M 603 4863 
L 1178 4863 
L 1178 4134 
L 603 4134 
L 603 4863 
z
" transform="scale(0.015625)"/>
      </defs>
      <use xlink:href="#DejaVuSans-54"/>
      <use xlink:href="#DejaVuSans-61" x="44.583984"/>
      <use xlink:href="#DejaVuSans-72" x="105.863281"/>
      <use xlink:href="#DejaVuSans-67" x="145.226562"/>
      <use xlink:href="#DejaVuSans-65" x="208.703125"/>
      <use xlink:href="#DejaVuSans-74" x="270.226562"/>
      <use xlink:href="#DejaVuSans-20" x="309.435547"/>
      <use xlink:href="#DejaVuSans-4c" x="341.222656"/>
      <use xlink:href="#DejaVuSans-6f" x="395.185547"/>
      <use xlink:href="#DejaVuSans-63" x="456.367188"/>
      <use xlink:href="#DejaVuSans-61" x="511.347656"/>
      <use xlink:href="#DejaVuSans-74" x="572.626953"/>
      <use xlink:href="#DejaVuSans-69" x="611.835938"/>
      <use xlink:href="#DejaVuSans-6f" x="639.619141"/>
      <use xlink:href="#DejaVuSans-6e" x="700.800781"/>
     </g>
    </g>
   </g>
  </g>
 </g>
 <defs>
  <clipPath id="p2d28f458b2">
   <rect x="57.6" y="41.472" width="357.12" height="266.112"/>
  </clipPath>
 </defs>
</svg>
