<?xml version="1.0" encoding="utf-8" standalone="no"?>
<!DOCTYPE svg PUBLIC "-//W3C//DTD SVG 1.1//EN"
  "http://www.w3.org/Graphics/SVG/1.1/DTD/svg11.dtd">
<svg xmlns:xlink="http://www.w3.org/1999/xlink" width="460.8pt" height="345.6pt" viewBox="0 0 460.8 345.6" xmlns="http://www.w3.org/2000/svg" version="1.1">
 <metadata>
  <rdf:RDF xmlns:dc="http://purl.org/dc/elements/1.1/" xmlns:cc="http://creativecommons.org/ns#" xmlns:rdf="http://www.w3.org/1999/02/22-rdf-syntax-ns#">
   <cc:Work>
    <dc:type rdf:resource="http://purl.org/dc/dcmitype/StillImage"/>
    <dc:date>2024-02-14T16:35:45.117684</dc:date>
    <dc:format>image/svg+xml</dc:format>
    <dc:creator>
     <cc:Agent>
      <dc:title>Matplotlib v3.5.0, https://matplotlib.org/</dc:title>
     </cc:Agent>
    </dc:creator>
   </cc:Work>
  </rdf:RDF>
 </metadata>
 <defs>
  <style type="text/css">*{stroke-linejoin: round; stroke-linecap: butt}</style>
 </defs>
 <g id="figure_1">
  <g id="patch_1">
   <path d="M 0 345.6 
L 460.8 345.6 
L 460.8 0 
L 0 0 
z
" style="fill: #ffffff"/>
  </g>
  <g id="axes_1">
   <g id="patch_2">
    <path d="M 57.6 307.584 
L 414.72 307.584 
L 414.72 41.472 
L 57.6 41.472 
z
" style="fill: #ffffff"/>
   </g>
   <g id="matplotlib.axis_1">
    <g id="xtick_1">
     <g id="line2d_1">
      <defs>
       <path id="m8040beadb5" d="M 0 0 
L 0 3.5 
" style="stroke: #000000; stroke-width: 0.8"/>
      </defs>
      <g>
       <use xlink:href="#m8040beadb5" x="73.832727" y="307.584" style="stroke: #000000; stroke-width: 0.8"/>
      </g>
     </g>
     <g id="text_1">
      <!-- 0 -->
      <g transform="translate(67.470227 329.780875)scale(0.2 -0.2)">
       <defs>
        <path id="DejaVuSans-30" d="M 2034 4250 
Q 1547 4250 1301 3770 
Q 1056 3291 1056 2328 
Q 1056 1369 1301 889 
Q 1547 409 2034 409 
Q 2525 409 2770 889 
Q 3016 1369 3016 2328 
Q 3016 3291 2770 3770 
Q 2525 4250 2034 4250 
z
M 2034 4750 
Q 2819 4750 3233 4129 
Q 3647 3509 3647 2328 
Q 3647 1150 3233 529 
Q 2819 -91 2034 -91 
Q 1250 -91 836 529 
Q 422 1150 422 2328 
Q 422 3509 836 4129 
Q 1250 4750 2034 4750 
z
" transform="scale(0.015625)"/>
       </defs>
       <use xlink:href="#DejaVuSans-30"/>
      </g>
     </g>
    </g>
    <g id="xtick_2">
     <g id="line2d_2">
      <g>
       <use xlink:href="#m8040beadb5" x="399.962975" y="307.584" style="stroke: #000000; stroke-width: 0.8"/>
      </g>
     </g>
     <g id="text_2">
      <!-- 1 -->
      <g transform="translate(393.600475 329.780875)scale(0.2 -0.2)">
       <defs>
        <path id="DejaVuSans-31" d="M 794 531 
L 1825 531 
L 1825 4091 
L 703 3866 
L 703 4441 
L 1819 4666 
L 2450 4666 
L 2450 531 
L 3481 531 
L 3481 0 
L 794 0 
L 794 531 
z
" transform="scale(0.015625)"/>
       </defs>
       <use xlink:href="#DejaVuSans-31"/>
      </g>
     </g>
    </g>
    <g id="text_3">
     <!-- Normalised X position -->
     <g transform="translate(111.795937 353.137125)scale(0.2 -0.2)">
      <defs>
       <path id="DejaVuSans-Bold-4e" d="M 588 4666 
L 1931 4666 
L 3628 1466 
L 3628 4666 
L 4769 4666 
L 4769 0 
L 3425 0 
L 1728 3200 
L 1728 0 
L 588 0 
L 588 4666 
z
" transform="scale(0.015625)"/>
       <path id="DejaVuSans-Bold-6f" d="M 2203 2784 
Q 1831 2784 1636 2517 
Q 1441 2250 1441 1747 
Q 1441 1244 1636 976 
Q 1831 709 2203 709 
Q 2569 709 2762 976 
Q 2956 1244 2956 1747 
Q 2956 2250 2762 2517 
Q 2569 2784 2203 2784 
z
M 2203 3584 
Q 3106 3584 3614 3096 
Q 4122 2609 4122 1747 
Q 4122 884 3614 396 
Q 3106 -91 2203 -91 
Q 1297 -91 786 396 
Q 275 884 275 1747 
Q 275 2609 786 3096 
Q 1297 3584 2203 3584 
z
" transform="scale(0.015625)"/>
       <path id="DejaVuSans-Bold-72" d="M 3138 2547 
Q 2991 2616 2845 2648 
Q 2700 2681 2553 2681 
Q 2122 2681 1889 2404 
Q 1656 2128 1656 1613 
L 1656 0 
L 538 0 
L 538 3500 
L 1656 3500 
L 1656 2925 
Q 1872 3269 2151 3426 
Q 2431 3584 2822 3584 
Q 2878 3584 2943 3579 
Q 3009 3575 3134 3559 
L 3138 2547 
z
" transform="scale(0.015625)"/>
       <path id="DejaVuSans-Bold-6d" d="M 3781 2919 
Q 3994 3244 4286 3414 
Q 4578 3584 4928 3584 
Q 5531 3584 5847 3212 
Q 6163 2841 6163 2131 
L 6163 0 
L 5038 0 
L 5038 1825 
Q 5041 1866 5042 1909 
Q 5044 1953 5044 2034 
Q 5044 2406 4934 2573 
Q 4825 2741 4581 2741 
Q 4263 2741 4089 2478 
Q 3916 2216 3909 1719 
L 3909 0 
L 2784 0 
L 2784 1825 
Q 2784 2406 2684 2573 
Q 2584 2741 2328 2741 
Q 2006 2741 1831 2477 
Q 1656 2213 1656 1722 
L 1656 0 
L 531 0 
L 531 3500 
L 1656 3500 
L 1656 2988 
Q 1863 3284 2130 3434 
Q 2397 3584 2719 3584 
Q 3081 3584 3359 3409 
Q 3638 3234 3781 2919 
z
" transform="scale(0.015625)"/>
       <path id="DejaVuSans-Bold-61" d="M 2106 1575 
Q 1756 1575 1579 1456 
Q 1403 1338 1403 1106 
Q 1403 894 1545 773 
Q 1688 653 1941 653 
Q 2256 653 2472 879 
Q 2688 1106 2688 1447 
L 2688 1575 
L 2106 1575 
z
M 3816 1997 
L 3816 0 
L 2688 0 
L 2688 519 
Q 2463 200 2181 54 
Q 1900 -91 1497 -91 
Q 953 -91 614 226 
Q 275 544 275 1050 
Q 275 1666 698 1953 
Q 1122 2241 2028 2241 
L 2688 2241 
L 2688 2328 
Q 2688 2594 2478 2717 
Q 2269 2841 1825 2841 
Q 1466 2841 1156 2769 
Q 847 2697 581 2553 
L 581 3406 
Q 941 3494 1303 3539 
Q 1666 3584 2028 3584 
Q 2975 3584 3395 3211 
Q 3816 2838 3816 1997 
z
" transform="scale(0.015625)"/>
       <path id="DejaVuSans-Bold-6c" d="M 538 4863 
L 1656 4863 
L 1656 0 
L 538 0 
L 538 4863 
z
" transform="scale(0.015625)"/>
       <path id="DejaVuSans-Bold-69" d="M 538 3500 
L 1656 3500 
L 1656 0 
L 538 0 
L 538 3500 
z
M 538 4863 
L 1656 4863 
L 1656 3950 
L 538 3950 
L 538 4863 
z
" transform="scale(0.015625)"/>
       <path id="DejaVuSans-Bold-73" d="M 3272 3391 
L 3272 2541 
Q 2913 2691 2578 2766 
Q 2244 2841 1947 2841 
Q 1628 2841 1473 2761 
Q 1319 2681 1319 2516 
Q 1319 2381 1436 2309 
Q 1553 2238 1856 2203 
L 2053 2175 
Q 2913 2066 3209 1816 
Q 3506 1566 3506 1031 
Q 3506 472 3093 190 
Q 2681 -91 1863 -91 
Q 1516 -91 1145 -36 
Q 775 19 384 128 
L 384 978 
Q 719 816 1070 734 
Q 1422 653 1784 653 
Q 2113 653 2278 743 
Q 2444 834 2444 1013 
Q 2444 1163 2330 1236 
Q 2216 1309 1875 1350 
L 1678 1375 
Q 931 1469 631 1722 
Q 331 1975 331 2491 
Q 331 3047 712 3315 
Q 1094 3584 1881 3584 
Q 2191 3584 2531 3537 
Q 2872 3491 3272 3391 
z
" transform="scale(0.015625)"/>
       <path id="DejaVuSans-Bold-65" d="M 4031 1759 
L 4031 1441 
L 1416 1441 
Q 1456 1047 1700 850 
Q 1944 653 2381 653 
Q 2734 653 3104 758 
Q 3475 863 3866 1075 
L 3866 213 
Q 3469 63 3072 -14 
Q 2675 -91 2278 -91 
Q 1328 -91 801 392 
Q 275 875 275 1747 
Q 275 2603 792 3093 
Q 1309 3584 2216 3584 
Q 3041 3584 3536 3087 
Q 4031 2591 4031 1759 
z
M 2881 2131 
Q 2881 2450 2695 2645 
Q 2509 2841 2209 2841 
Q 1884 2841 1681 2658 
Q 1478 2475 1428 2131 
L 2881 2131 
z
" transform="scale(0.015625)"/>
       <path id="DejaVuSans-Bold-64" d="M 2919 2988 
L 2919 4863 
L 4044 4863 
L 4044 0 
L 2919 0 
L 2919 506 
Q 2688 197 2409 53 
Q 2131 -91 1766 -91 
Q 1119 -91 703 423 
Q 288 938 288 1747 
Q 288 2556 703 3070 
Q 1119 3584 1766 3584 
Q 2128 3584 2408 3439 
Q 2688 3294 2919 2988 
z
M 2181 722 
Q 2541 722 2730 984 
Q 2919 1247 2919 1747 
Q 2919 2247 2730 2509 
Q 2541 2772 2181 2772 
Q 1825 2772 1636 2509 
Q 1447 2247 1447 1747 
Q 1447 1247 1636 984 
Q 1825 722 2181 722 
z
" transform="scale(0.015625)"/>
       <path id="DejaVuSans-Bold-20" transform="scale(0.015625)"/>
       <path id="DejaVuSans-Bold-58" d="M 3188 2381 
L 4806 0 
L 3553 0 
L 2463 1594 
L 1381 0 
L 122 0 
L 1741 2381 
L 184 4666 
L 1441 4666 
L 2463 3163 
L 3481 4666 
L 4744 4666 
L 3188 2381 
z
" transform="scale(0.015625)"/>
       <path id="DejaVuSans-Bold-70" d="M 1656 506 
L 1656 -1331 
L 538 -1331 
L 538 3500 
L 1656 3500 
L 1656 2988 
Q 1888 3294 2169 3439 
Q 2450 3584 2816 3584 
Q 3463 3584 3878 3070 
Q 4294 2556 4294 1747 
Q 4294 938 3878 423 
Q 3463 -91 2816 -91 
Q 2450 -91 2169 54 
Q 1888 200 1656 506 
z
M 2400 2772 
Q 2041 2772 1848 2508 
Q 1656 2244 1656 1747 
Q 1656 1250 1848 986 
Q 2041 722 2400 722 
Q 2759 722 2948 984 
Q 3138 1247 3138 1747 
Q 3138 2247 2948 2509 
Q 2759 2772 2400 2772 
z
" transform="scale(0.015625)"/>
       <path id="DejaVuSans-Bold-74" d="M 1759 4494 
L 1759 3500 
L 2913 3500 
L 2913 2700 
L 1759 2700 
L 1759 1216 
Q 1759 972 1856 886 
Q 1953 800 2241 800 
L 2816 800 
L 2816 0 
L 1856 0 
Q 1194 0 917 276 
Q 641 553 641 1216 
L 641 2700 
L 84 2700 
L 84 3500 
L 641 3500 
L 641 4494 
L 1759 4494 
z
" transform="scale(0.015625)"/>
       <path id="DejaVuSans-Bold-6e" d="M 4056 2131 
L 4056 0 
L 2931 0 
L 2931 347 
L 2931 1631 
Q 2931 2084 2911 2256 
Q 2891 2428 2841 2509 
Q 2775 2619 2662 2680 
Q 2550 2741 2406 2741 
Q 2056 2741 1856 2470 
Q 1656 2200 1656 1722 
L 1656 0 
L 538 0 
L 538 3500 
L 1656 3500 
L 1656 2988 
Q 1909 3294 2193 3439 
Q 2478 3584 2822 3584 
Q 3428 3584 3742 3212 
Q 4056 2841 4056 2131 
z
" transform="scale(0.015625)"/>
      </defs>
      <use xlink:href="#DejaVuSans-Bold-4e"/>
      <use xlink:href="#DejaVuSans-Bold-6f" x="83.691406"/>
      <use xlink:href="#DejaVuSans-Bold-72" x="152.392578"/>
      <use xlink:href="#DejaVuSans-Bold-6d" x="201.708984"/>
      <use xlink:href="#DejaVuSans-Bold-61" x="305.908203"/>
      <use xlink:href="#DejaVuSans-Bold-6c" x="373.388672"/>
      <use xlink:href="#DejaVuSans-Bold-69" x="407.666016"/>
      <use xlink:href="#DejaVuSans-Bold-73" x="441.943359"/>
      <use xlink:href="#DejaVuSans-Bold-65" x="501.464844"/>
      <use xlink:href="#DejaVuSans-Bold-64" x="569.287109"/>
      <use xlink:href="#DejaVuSans-Bold-20" x="640.869141"/>
      <use xlink:href="#DejaVuSans-Bold-58" x="675.683594"/>
      <use xlink:href="#DejaVuSans-Bold-20" x="752.783203"/>
      <use xlink:href="#DejaVuSans-Bold-70" x="787.597656"/>
      <use xlink:href="#DejaVuSans-Bold-6f" x="859.179688"/>
      <use xlink:href="#DejaVuSans-Bold-73" x="927.880859"/>
      <use xlink:href="#DejaVuSans-Bold-69" x="987.402344"/>
      <use xlink:href="#DejaVuSans-Bold-74" x="1021.679688"/>
      <use xlink:href="#DejaVuSans-Bold-69" x="1069.482422"/>
      <use xlink:href="#DejaVuSans-Bold-6f" x="1103.759766"/>
      <use xlink:href="#DejaVuSans-Bold-6e" x="1172.460938"/>
     </g>
    </g>
   </g>
   <g id="matplotlib.axis_2">
    <g id="ytick_1">
     <g id="line2d_3">
      <defs>
       <path id="m518b19ffdc" d="M 0 0 
L -3.5 0 
" style="stroke: #000000; stroke-width: 0.8"/>
      </defs>
      <g>
       <use xlink:href="#m518b19ffdc" x="57.6" y="297" style="stroke: #000000; stroke-width: 0.8"/>
      </g>
     </g>
     <g id="text_4">
      <!-- 0 -->
      <g transform="translate(37.875 304.598437)scale(0.2 -0.2)">
       <use xlink:href="#DejaVuSans-30"/>
      </g>
     </g>
    </g>
    <g id="ytick_2">
     <g id="line2d_4">
      <g>
       <use xlink:href="#m518b19ffdc" x="57.6" y="53.568" style="stroke: #000000; stroke-width: 0.8"/>
      </g>
     </g>
     <g id="text_5">
      <!-- 1 -->
      <g transform="translate(37.875 61.166438)scale(0.2 -0.2)">
       <use xlink:href="#DejaVuSans-31"/>
      </g>
     </g>
    </g>
    <g id="text_6">
     <!-- Normalised Y position -->
     <g transform="translate(29.715625 298.423313)rotate(-90)scale(0.2 -0.2)">
      <defs>
       <path id="DejaVuSans-Bold-59" d="M -63 4666 
L 1253 4666 
L 2316 3003 
L 3378 4666 
L 4697 4666 
L 2919 1966 
L 2919 0 
L 1716 0 
L 1716 1966 
L -63 4666 
z
" transform="scale(0.015625)"/>
      </defs>
      <use xlink:href="#DejaVuSans-Bold-4e"/>
      <use xlink:href="#DejaVuSans-Bold-6f" x="83.691406"/>
      <use xlink:href="#DejaVuSans-Bold-72" x="152.392578"/>
      <use xlink:href="#DejaVuSans-Bold-6d" x="201.708984"/>
      <use xlink:href="#DejaVuSans-Bold-61" x="305.908203"/>
      <use xlink:href="#DejaVuSans-Bold-6c" x="373.388672"/>
      <use xlink:href="#DejaVuSans-Bold-69" x="407.666016"/>
      <use xlink:href="#DejaVuSans-Bold-73" x="441.943359"/>
      <use xlink:href="#DejaVuSans-Bold-65" x="501.464844"/>
      <use xlink:href="#DejaVuSans-Bold-64" x="569.287109"/>
      <use xlink:href="#DejaVuSans-Bold-20" x="640.869141"/>
      <use xlink:href="#DejaVuSans-Bold-59" x="675.683594"/>
      <use xlink:href="#DejaVuSans-Bold-20" x="748.095703"/>
      <use xlink:href="#DejaVuSans-Bold-70" x="782.910156"/>
      <use xlink:href="#DejaVuSans-Bold-6f" x="854.492188"/>
      <use xlink:href="#DejaVuSans-Bold-73" x="923.193359"/>
      <use xlink:href="#DejaVuSans-Bold-69" x="982.714844"/>
      <use xlink:href="#DejaVuSans-Bold-74" x="1016.992188"/>
      <use xlink:href="#DejaVuSans-Bold-69" x="1064.794922"/>
      <use xlink:href="#DejaVuSans-Bold-6f" x="1099.072266"/>
      <use xlink:href="#DejaVuSans-Bold-6e" x="1167.773438"/>
     </g>
    </g>
   </g>
   <g id="line2d_5">
    <path d="M 132.860826 143.3808 
L 132.565686 143.0784 
L 133.451107 142.776 
L 133.746248 142.4736 
L 133.451107 142.1712 
L 134.041388 141.5664 
L 132.860826 141.5664 
L 131.680264 142.1712 
L 130.794843 142.1712 
L 132.860826 142.1712 
L 134.92681 141.8688 
L 138.468496 140.9616 
L 149.388694 138.5424 
L 158.242909 135.8208 
L 170.93395 130.3776 
L 187.461818 121.3056 
L 212.25362 106.7904 
L 239.406545 90.7632 
L 274.528264 72.6192 
L 300.795769 55.9872 
L 319.094479 53.568 
L 369.563504 53.568 
L 375.466314 55.3824 
L 379.598281 58.7088 
L 381.664264 62.9424 
L 379.30314 70.2 
L 375.171174 83.808 
L 372.81005 89.856 
L 369.268364 95.6016 
L 363.365554 101.6496 
L 357.167603 107.3952 
L 351.264793 113.1408 
L 345.066843 118.8864 
L 335.032066 129.7728 
L 328.834116 136.1232 
L 322.045884 141.8688 
L 318.799339 145.4976 
L 314.667372 149.1264 
L 304.337455 156.6864 
L 302.566612 158.5008 
L 301.38605 160.6176 
L 300.205488 163.0368 
L 301.38605 164.5488 
L 303.452033 166.0608 
L 304.927736 168.48 
L 305.222876 171.8064 
L 308.174281 175.7376 
L 310.535405 176.3424 
L 316.438215 175.1328 
L 319.979901 173.6208 
L 324.702149 171.2016 
L 329.719537 168.48 
L 335.032066 165.456 
L 339.754314 162.432 
L 343.59114 159.7104 
L 346.837686 157.896 
L 349.49395 155.7792 
L 353.035636 153.6624 
L 356.282182 151.5456 
L 359.233587 150.0336 
L 362.480132 148.5216 
L 364.546116 147.9168 
L 365.136397 148.5216 
L 365.136397 149.7312 
L 363.660694 152.7552 
L 362.775273 154.2672 
L 360.709289 156.9888 
L 357.462744 160.6176 
L 353.330777 164.5488 
L 337.688331 177.8544 
L 336.507769 179.064 
L 337.09805 178.7616 
L 336.802909 178.7616 
L 332.966083 181.1808 
L 330.309818 183.2976 
L 327.653554 185.112 
L 326.177851 186.3216 
L 324.407008 187.5312 
L 323.521587 188.4384 
L 323.226446 189.0432 
L 323.816727 189.0432 
L 325.58757 188.136 
L 330.309818 186.0192 
L 336.802909 182.6928 
L 340.344595 180.2736 
L 342.410579 179.064 
L 352.740496 172.1088 
L 360.414149 166.0608 
L 366.316959 161.2224 
L 366.612099 160.92 
L 366.612099 160.92 
L 366.316959 161.5248 
L 365.726678 161.8272 
L 363.660694 163.944 
L 361.594711 165.456 
L 360.119008 166.6656 
L 358.053025 168.1776 
L 343.00086 180.576 
L 341.525157 181.4832 
L 340.344595 182.3904 
L 338.868893 183.2976 
L 337.983471 184.2048 
L 335.917488 185.7168 
L 336.507769 185.112 
L 342.115438 180.576 
L 343.00086 179.9712 
L 343.59114 179.3664 
L 345.066843 178.1568 
L 346.247405 176.9472 
L 346.837686 176.6448 
L 348.018248 175.7376 
L 349.789091 174.2256 
L 350.674512 173.6208 
L 352.445355 172.1088 
L 355.691901 169.6896 
L 356.577322 168.7824 
L 358.643306 167.2704 
L 359.233587 166.6656 
L 359.233587 166.968 
L 358.643306 167.2704 
L 358.348165 167.8752 
L 357.462744 168.48 
L 360.414149 166.3632 
L 361.594711 165.456 
L 358.938446 167.5728 
L 359.233587 167.5728 
L 360.119008 166.6656 
L 364.250975 163.3392 
L 363.070413 164.2464 
L 360.709289 166.3632 
L 354.511339 170.8992 
L 353.035636 171.504 
L 352.445355 171.2016 
L 352.445355 170.5968 
L 352.150215 170.2944 
L 350.084231 171.2016 
L 346.247405 173.3184 
L 342.115438 176.04 
L 337.688331 178.7616 
L 330.014678 182.3904 
L 326.768132 183.6 
L 323.816727 184.5072 
L 321.160463 185.112 
L 319.68476 184.5072 
L 318.799339 183.9024 
L 318.209058 183.2976 
L 317.913917 182.3904 
L 318.504198 181.1808 
L 319.68476 179.6688 
L 323.816727 174.8304 
L 329.424397 169.0848 
L 332.080661 166.0608 
L 343.59114 155.4768 
L 348.313388 151.848 
L 352.740496 148.2192 
L 357.167603 145.4976 
L 362.480132 141.8688 
L 367.20238 138.8448 
L 371.924628 135.5184 
L 377.532298 131.8896 
L 381.664264 130.3776 
L 385.501091 129.4704 
L 389.928198 127.9584 
L 396.421289 126.144 
L 398.487273 126.4464 
L 398.487273 128.5632 
L 398.192132 130.3776 
L 397.306711 132.4944 
L 395.831008 134.6112 
L 393.174744 137.6352 
L 389.042777 141.8688 
L 371.629488 156.9888 
L 360.414149 166.0608 
L 346.542545 176.6448 
L 337.983471 182.6928 
L 329.129256 188.4384 
L 324.997289 190.5552 
L 314.372231 195.696 
L 307.28886 198.1152 
L 299.024926 200.5344 
L 292.826975 200.5344 
L 288.399868 199.0224 
L 286.924165 195.9984 
L 285.153322 192.9744 
L 282.792198 190.8576 
L 282.497058 187.8336 
L 282.497058 184.8096 
L 282.201917 181.7856 
L 282.497058 179.9712 
L 286.924165 170.8992 
L 287.514446 168.1776 
L 288.104727 166.6656 
L 286.924165 164.2464 
L 285.743603 163.3392 
L 283.67762 163.3392 
L 279.545653 165.7584 
L 273.937983 169.6896 
L 263.312926 177.552 
L 253.573289 185.4144 
L 240.882248 194.7888 
L 227.896066 205.3728 
L 212.843901 217.4688 
L 193.954909 231.984 
L 171.524231 248.9184 
L 146.437289 267.3648 
L 117.513521 287.0208 
L 87.11405 295.488 
L 73.832727 295.488 
L 73.832727 295.488 
L 75.30843 295.1856 
L 81.21124 292.7664 
L 92.131438 287.6256 
L 112.200992 278.5536 
L 134.92681 267.3648 
L 159.718612 254.664 
L 188.34724 239.544 
L 230.847471 215.6544 
L 269.510876 192.9744 
L 293.417256 178.1568 
L 317.618777 162.1296 
L 340.934876 146.4048 
L 362.775273 130.9824 
L 379.30314 118.584 
L 391.403901 109.8144 
L 398.487273 103.1616 
L 398.487273 90.1584 
L 382.844826 106.1856 
L 380.778843 108 
L 359.823868 127.0512 
L 352.445355 133.0992 
L 340.639736 143.0784 
L 330.309818 150.9408 
L 325.882711 154.5696 
L 323.816727 156.0816 
L 322.931306 156.9888 
L 323.816727 156.0816 
L 330.014678 150.6384 
L 331.49038 149.4288 
L 340.639736 141.5664 
L 343.00086 139.1472 
L 350.379372 132.4944 
L 352.445355 130.3776 
L 356.282182 126.144 
L 360.119008 121.608 
L 361.889851 118.8864 
L 360.414149 119.1888 
L 359.233587 119.7936 
L 354.216198 124.3296 
L 346.542545 130.3776 
L 339.164033 134.9136 
L 327.063273 142.776 
L 326.768132 142.776 
L 327.358413 142.1712 
L 327.948694 141.264 
L 332.080661 138.5424 
L 339.754314 134.6112 
L 346.542545 130.68 
L 363.955835 118.8864 
L 374.580893 110.4192 
L 391.699041 95.6016 
L 397.896992 89.856 
L 398.487273 85.32 
L 398.487273 80.4816 
L 397.306711 80.784 
L 394.355306 82.296 
L 387.271934 87.7392 
L 378.71286 94.0896 
L 369.268364 100.7424 
L 342.410579 117.9792 
L 313.48681 134.9136 
L 303.452033 141.8688 
L 293.122116 150.0336 
L 286.038744 156.384 
L 274.823405 171.2016 
L 271.281719 175.1328 
L 268.625455 177.8544 
L 267.444893 178.7616 
L 267.740033 178.4592 
L 270.101157 176.3424 
L 273.642843 173.3184 
L 279.250512 168.1776 
L 282.201917 164.5488 
L 283.67762 161.8272 
L 283.67762 160.6176 
L 282.792198 159.7104 
L 282.792198 159.7104 
L 280.726215 158.8032 
L 277.77481 158.1984 
L 273.347702 158.1984 
L 265.96919 158.8032 
L 257.705256 160.92 
L 251.507306 162.7344 
L 244.719074 165.1536 
L 222.583537 174.528 
L 214.909884 178.1568 
L 206.64595 181.7856 
L 183.920132 192.672 
L 167.687405 199.9296 
L 148.798413 208.0944 
L 101.575934 227.1456 
L 87.999471 232.2864 
L 73.832727 238.3344 
L 73.832727 256.176 
L 74.127868 256.176 
L 77.374413 254.3616 
L 85.638347 249.2208 
L 100.395372 240.4512 
L 141.12476 215.352 
L 159.423471 203.5584 
L 175.656198 193.2768 
L 209.597355 172.7136 
L 228.191207 161.8272 
L 245.899636 151.2432 
L 261.837223 142.776 
L 275.118545 136.4256 
L 286.333884 131.8896 
L 296.958942 128.2608 
L 308.174281 125.2368 
L 319.38962 123.12 
L 331.19524 120.7008 
L 339.459174 120.7008 
L 345.066843 122.5152 
L 349.19881 124.632 
L 353.035636 125.8416 
L 355.39676 127.3536 
L 354.806479 130.0752 
L 353.625917 132.7968 
L 349.789091 137.9376 
L 347.427967 140.3568 
L 346.247405 141.8688 
L 343.886281 143.6832 
L 340.344595 146.7072 
L 337.39319 148.824 
L 336.507769 149.7312 
L 335.032066 150.9408 
L 333.261223 152.1504 
L 330.604959 154.2672 
L 328.834116 155.4768 
L 327.653554 155.7792 
L 330.309818 151.848 
L 331.785521 150.336 
L 333.261223 149.1264 
L 335.032066 147.312 
L 336.507769 146.1024 
L 337.983471 144.288 
L 339.754314 142.776 
L 341.820298 140.6592 
L 348.903669 134.3088 
L 359.233587 125.8416 
L 370.448926 115.2576 
L 376.056595 109.512 
L 381.664264 102.5568 
L 382.254545 100.7424 
L 381.664264 99.8352 
L 381.369124 98.3232 
L 380.778843 96.5088 
L 379.598281 94.9968 
L 377.532298 94.6944 
L 373.990612 95.6016 
L 369.563504 97.7184 
L 363.660694 102.2544 
L 358.938446 106.1856 
L 354.511339 111.024 
L 350.379372 116.4672 
L 347.427967 121.9104 
L 346.837686 125.2368 
L 345.952264 129.4704 
L 346.542545 131.2848 
L 346.542545 133.4016 
L 347.427967 134.3088 
L 348.608529 134.0064 
L 350.379372 131.8896 
L 354.216198 126.144 
L 359.233587 116.4672 
L 362.184992 108.6048 
L 361.29957 105.8832 
L 360.414149 104.0688 
L 360.414149 101.952 
L 358.643306 101.3472 
L 357.167603 101.0448 
L 356.577322 99.8352 
L 355.39676 99.5328 
L 354.806479 98.928 
L 355.39676 96.8112 
L 354.216198 95.6016 
L 353.921058 94.392 
L 354.216198 92.88 
L 354.216198 91.368 
L 353.921058 89.856 
L 353.921058 87.7392 
L 353.330777 83.2032 
L 353.330777 80.1792 
L 352.150215 73.8288 
L 348.313388 68.688 
L 347.132826 67.4784 
L 344.771702 65.3616 
L 341.230017 64.4544 
L 337.09805 63.8496 
L 327.358413 63.2448 
L 317.028496 61.4304 
L 311.420826 60.2208 
L 306.108298 58.7088 
L 296.073521 54.4752 
L 290.760992 53.568 
L 281.611636 53.568 
L 287.219306 53.568 
L 291.351273 53.8704 
L 296.073521 54.7776 
L 300.795769 56.592 
L 304.632595 59.3136 
L 306.108298 62.9424 
L 307.584 66.2688 
L 309.059702 68.688 
L 309.354843 70.5024 
L 308.174281 71.712 
L 304.927736 72.3168 
L 296.663802 72.9216 
L 290.465851 73.8288 
L 282.497058 76.248 
L 273.347702 79.8768 
L 263.608066 84.7152 
L 253.278149 91.0656 
L 242.948231 98.0208 
L 232.618314 105.5808 
L 213.434182 120.3984 
L 204.579967 127.9584 
L 196.020893 135.5184 
L 187.166678 143.0784 
L 178.017322 150.0336 
L 168.277686 156.9888 
L 150.864397 170.5968 
L 137.287934 181.7856 
L 132.270545 186.624 
L 127.548298 190.8576 
L 121.645488 196.6032 
L 115.447537 202.0464 
L 110.430149 207.1872 
L 106.593322 211.7232 
L 102.756496 215.6544 
L 99.805091 218.9808 
L 98.329388 221.4 
L 96.853686 223.5168 
L 95.968264 225.3312 
L 95.673124 226.5408 
L 96.558545 226.5408 
L 100.395372 225.0288 
L 107.183603 222.0048 
L 115.152397 218.0736 
L 127.253157 211.4208 
L 139.353917 204.4656 
L 153.225521 195.696 
L 177.427041 180.8784 
L 189.822942 173.9232 
L 199.857719 168.48 
L 215.795306 159.7104 
L 233.798876 148.5216 
L 233.798876 148.5216 
" clip-path="url(#pc29de26786)" style="fill: none; stroke: #000000; stroke-width: 1.5; stroke-linecap: square"/>
   </g>
   <g id="line2d_6">
    <path d="M 132.860826 143.3808 
" clip-path="url(#pc29de26786)" style="fill: none; stroke: #000000; stroke-width: 1.5; stroke-linecap: square"/>
    <defs>
     <path id="m964294b0e4" d="M 0 5 
C 1.326016 5 2.597899 4.473168 3.535534 3.535534 
C 4.473168 2.597899 5 1.326016 5 0 
C 5 -1.326016 4.473168 -2.597899 3.535534 -3.535534 
C 2.597899 -4.473168 1.326016 -5 0 -5 
C -1.326016 -5 -2.597899 -4.473168 -3.535534 -3.535534 
C -4.473168 -2.597899 -5 -1.326016 -5 0 
C -5 1.326016 -4.473168 2.597899 -3.535534 3.535534 
C -2.597899 4.473168 -1.326016 5 0 5 
z
" style="stroke: #000000"/>
    </defs>
    <g clip-path="url(#pc29de26786)">
     <use xlink:href="#m964294b0e4" x="132.860826" y="143.3808" style="stroke: #000000"/>
    </g>
   </g>
   <g id="line2d_7">
    <path d="M 233.798876 148.5216 
" clip-path="url(#pc29de26786)" style="fill: none; stroke: #000000; stroke-width: 1.5; stroke-linecap: square"/>
    <defs>
     <path id="m12ca90e2f9" d="M -5 5 
L 5 5 
L 5 -5 
L -5 -5 
z
" style="stroke: #000000; stroke-linejoin: miter"/>
    </defs>
    <g clip-path="url(#pc29de26786)">
     <use xlink:href="#m12ca90e2f9" x="233.798876" y="148.5216" style="stroke: #000000; stroke-linejoin: miter"/>
    </g>
   </g>
   <g id="line2d_8">
    <path d="M 247.375339 90.4608 
L 246.785058 90.4608 
L 246.489917 90.7632 
L 245.309355 90.7632 
L 245.309355 90.7632 
L 245.014215 91.0656 
L 244.719074 91.0656 
L 244.719074 91.0656 
L 245.014215 90.7632 
L 245.604496 90.7632 
L 246.489917 90.1584 
L 247.670479 89.856 
L 248.851041 89.2512 
L 250.917025 88.6464 
L 253.573289 87.7392 
L 256.229554 87.4368 
L 260.361521 86.5296 
L 266.559471 85.9248 
L 274.233124 85.32 
L 283.97276 84.1104 
L 292.236694 82.9008 
L 299.615207 82.5984 
L 308.469421 81.9936 
L 317.618777 81.0864 
L 326.472992 79.5744 
L 336.212628 77.76 
L 343.59114 76.5504 
L 350.969653 75.0384 
L 356.872463 74.736 
L 361.889851 75.3408 
L 366.316959 76.5504 
L 369.858645 78.6672 
L 372.81005 81.0864 
L 375.466314 84.7152 
L 376.646876 89.5536 
L 376.056595 95.904 
L 374.285752 102.5568 
L 370.744066 110.1168 
L 367.20238 117.3744 
L 362.184992 124.632 
L 358.053025 130.0752 
L 354.806479 134.9136 
L 350.379372 140.3568 
L 342.410579 149.7312 
L 338.573752 153.9648 
L 337.09805 155.7792 
L 333.851504 160.0128 
L 333.556364 160.92 
L 332.670942 162.1296 
L 334.146645 161.8272 
L 335.327207 160.92 
L 336.802909 160.0128 
L 337.983471 159.1056 
L 338.868893 158.1984 
L 339.459174 157.2912 
L 341.525157 155.1744 
L 341.525157 155.4768 
L 340.344595 156.6864 
L 340.049455 157.2912 
L 338.573752 158.8032 
L 337.39319 160.3152 
L 335.917488 161.8272 
L 335.032066 163.0368 
L 333.851504 163.944 
L 331.19524 166.6656 
L 329.424397 167.8752 
L 327.948694 169.3872 
L 324.702149 172.1088 
L 324.702149 172.1088 
L 324.407008 172.1088 
L 324.407008 172.1088 
L 324.997289 171.504 
L 327.948694 169.0848 
L 331.19524 165.7584 
L 337.39319 160.3152 
L 340.934876 156.9888 
L 346.837686 151.2432 
L 359.233587 138.5424 
L 362.775273 134.6112 
L 367.497521 129.168 
L 370.448926 126.144 
L 373.400331 122.8176 
L 380.188562 113.1408 
L 380.188562 112.8384 
L 379.893421 113.4432 
L 377.827438 115.56 
L 373.990612 120.096 
L 371.039207 123.12 
L 367.497521 126.4464 
L 362.775273 131.2848 
L 355.10162 138.5424 
L 347.723107 145.1952 
L 339.754314 151.848 
L 332.080661 157.5936 
L 323.226446 163.6416 
L 317.323636 166.3632 
L 313.191669 167.8752 
L 310.830545 168.1776 
L 311.125686 166.6656 
L 313.78195 163.944 
L 314.667372 163.3392 
L 317.323636 160.92 
L 322.341025 156.6864 
L 325.58757 153.6624 
L 329.719537 149.4288 
L 334.736926 144.5904 
L 339.164033 139.4496 
L 342.705719 135.5184 
L 345.361983 132.192 
L 349.19881 128.2608 
L 351.855074 125.2368 
L 353.921058 122.2128 
L 355.39676 118.584 
L 357.167603 116.1648 
L 357.167603 115.56 
L 356.872463 115.2576 
L 355.10162 116.1648 
L 351.559934 118.8864 
L 345.952264 124.0272 
L 334.146645 135.5184 
L 321.750744 146.4048 
L 314.667372 152.1504 
L 299.615207 165.7584 
L 293.122116 171.2016 
L 285.448463 178.1568 
L 279.545653 182.9952 
L 274.528264 187.5312 
L 272.16714 190.2528 
L 271.281719 191.7648 
L 271.872 193.5792 
L 275.413686 194.184 
L 277.77481 195.3936 
L 278.365091 197.5104 
L 278.660231 200.232 
L 278.365091 202.3488 
L 278.660231 203.5584 
L 280.431074 203.5584 
L 285.153322 201.1392 
L 289.58043 198.4176 
L 296.663802 193.5792 
L 305.518017 187.2288 
L 314.962512 179.9712 
L 325.29243 171.504 
L 335.622347 162.7344 
L 346.542545 152.7552 
L 356.282182 143.0784 
L 364.841256 134.3088 
L 372.514909 126.144 
L 379.008 118.2816 
L 385.501091 110.7216 
L 396.71643 96.8112 
L 398.487273 93.7872 
L 398.487273 83.808 
L 398.192132 84.1104 
L 397.01157 85.6224 
L 393.174744 90.1584 
L 387.862215 96.8112 
L 381.073983 104.6736 
L 372.514909 113.7456 
L 362.775273 123.7248 
L 351.559934 134.6112 
L 339.164033 145.4976 
L 326.768132 155.7792 
L 315.847934 164.2464 
L 305.518017 171.504 
L 288.399868 183.9024 
L 283.087339 187.2288 
L 279.545653 189.0432 
L 278.955372 188.4384 
L 281.316496 185.112 
L 291.941554 174.2256 
L 307.584 158.8032 
L 313.191669 153.0576 
L 319.094479 146.7072 
L 325.882711 138.5424 
L 331.785521 132.4944 
L 338.278612 125.2368 
L 344.476562 117.6768 
L 350.379372 110.7216 
L 356.282182 104.0688 
L 359.233587 100.44 
L 367.497521 90.1584 
L 370.153785 86.5296 
L 373.695471 82.296 
L 373.990612 81.6912 
L 373.695471 81.9936 
L 372.514909 83.808 
L 370.448926 86.5296 
L 365.431537 93.4848 
L 355.39676 106.488 
L 348.313388 114.9552 
L 340.639736 124.632 
L 322.636165 144.8928 
L 312.011107 156.384 
L 301.68119 167.2704 
L 289.285289 179.6688 
L 276.889388 191.16 
L 265.378909 201.1392 
L 255.048992 209.0016 
L 247.080198 215.352 
L 240.291967 220.4928 
L 234.979438 225.0288 
L 231.142612 228.6576 
L 229.076628 231.0768 
L 228.781488 232.5888 
L 229.666909 233.1936 
L 233.503736 231.6816 
L 239.701686 228.3552 
L 247.96562 223.2144 
L 258.590678 216.2592 
L 270.691438 207.792 
L 284.563041 197.8128 
L 298.434645 186.9264 
L 312.601388 174.8304 
L 327.358413 161.5248 
L 340.344595 148.824 
L 350.084231 138.24 
L 358.053025 128.8656 
L 364.250975 120.7008 
L 369.268364 112.536 
L 372.514909 105.2784 
L 374.285752 99.2304 
L 373.990612 95.904 
L 373.400331 94.0896 
L 372.219769 93.7872 
L 370.448926 94.392 
L 365.726678 97.1136 
L 359.233587 102.5568 
L 351.264793 109.512 
L 347.427967 113.1408 
L 339.164033 119.7936 
L 331.49038 125.2368 
L 327.358413 128.5632 
L 322.931306 132.4944 
L 319.094479 136.4256 
L 314.962512 140.0544 
L 310.535405 144.288 
L 306.993719 148.5216 
L 304.927736 150.6384 
L 300.500628 156.6864 
L 299.024926 159.1056 
L 297.549223 164.8512 
L 296.368661 168.7824 
L 296.368661 172.7136 
L 297.844364 174.8304 
L 299.615207 176.3424 
L 302.566612 176.3424 
L 306.403438 175.1328 
L 314.667372 171.8064 
L 316.438215 172.4112 
L 315.257653 174.528 
L 314.077091 175.7376 
L 311.125686 176.6448 
L 308.469421 176.04 
L 302.271471 175.4352 
L 299.320066 175.7376 
L 287.514446 178.4592 
L 253.573289 189.648 
L 229.076628 195.9984 
L 207.531372 202.0464 
L 192.479207 206.28 
L 162.965157 215.352 
L 139.353917 223.5168 
L 129.024 227.448 
L 119.874645 231.0768 
L 113.086413 234.1008 
L 107.478744 236.8224 
L 108.069025 238.3344 
L 123.12119 232.8912 
L 132.860826 228.96 
L 157.947769 218.0736 
L 201.038281 197.5104 
L 216.090446 189.9504 
L 258.590678 166.0608 
L 294.597818 143.3808 
L 313.48681 130.68 
L 329.424397 119.1888 
L 342.705719 108.9072 
L 353.921058 99.2304 
L 384.91081 69.2928 
L 390.518479 63.5472 
L 394.650446 59.0112 
L 398.192132 55.3824 
L 398.487273 53.568 
L 398.487273 54.1728 
L 397.896992 55.6848 
L 395.535868 59.3136 
L 392.584463 64.152 
L 383.139967 81.3888 
L 379.30314 88.9488 
L 368.382942 107.0928 
L 362.775273 115.56 
L 355.691901 125.2368 
L 354.216198 128.8656 
L 357.167603 127.3536 
L 365.136397 121.0032 
L 374.580893 111.3264 
L 382.254545 102.8592 
L 388.157355 95.6016 
L 392.879603 88.9488 
L 397.01157 82.296 
L 398.487273 76.248 
L 398.487273 66.5712 
L 397.601851 66.2688 
L 396.71643 66.5712 
L 393.469884 70.2 
L 392.584463 71.4096 
L 382.549686 87.7392 
L 372.81005 102.2544 
L 367.792661 108.9072 
L 363.070413 114.9552 
L 357.462744 121.0032 
L 351.855074 126.7488 
L 342.115438 137.3328 
L 341.230017 138.5424 
L 344.181421 135.5184 
L 346.247405 132.4944 
L 348.018248 129.4704 
L 348.903669 126.7488 
L 349.19881 124.632 
L 350.084231 116.1648 
L 351.559934 111.3264 
L 351.855074 109.2096 
L 353.921058 105.5808 
L 355.10162 104.3712 
L 354.511339 105.2784 
L 348.608529 111.9312 
L 345.657124 113.1408 
L 343.59114 113.7456 
L 341.230017 115.8624 
L 344.771702 112.8384 
L 348.903669 111.3264 
L 356.282182 107.3952 
L 366.021818 100.44 
L 378.71286 88.9488 
L 394.650446 74.1312 
L 398.487273 68.688 
L 398.487273 65.0592 
L 397.896992 64.152 
L 396.421289 64.7568 
L 392.584463 65.9664 
L 387.567074 68.0832 
L 379.008 68.688 
L 373.990612 68.688 
L 369.268364 68.3856 
L 361.29957 68.3856 
L 359.233587 68.0832 
L 355.10162 68.0832 
L 351.559934 68.3856 
L 348.608529 69.5952 
L 345.361983 71.712 
L 342.410579 75.0384 
L 335.917488 85.32 
L 331.785521 93.4848 
L 332.966083 104.976 
L 333.556364 113.4432 
L 332.080661 122.5152 
L 330.014678 131.2848 
L 328.834116 139.4496 
L 327.358413 147.312 
L 326.472992 150.9408 
L 324.111868 156.9888 
L 319.68476 162.7344 
L 314.667372 168.1776 
L 308.469421 173.9232 
L 308.469421 173.6208 
L 314.077091 167.8752 
L 317.913917 164.2464 
L 322.341025 160.3152 
L 326.768132 155.7792 
L 331.19524 151.5456 
L 333.261223 149.7312 
L 337.39319 145.4976 
L 340.639736 142.4736 
L 343.296 139.4496 
L 345.361983 137.6352 
L 347.723107 135.216 
L 344.476562 138.5424 
L 341.820298 141.5664 
L 328.538975 154.2672 
L 323.816727 158.5008 
L 320.865322 160.3152 
L 320.865322 159.1056 
L 322.045884 156.6864 
L 324.407008 153.0576 
L 327.063273 149.4288 
L 328.834116 146.1024 
L 330.900099 143.0784 
L 331.49038 141.5664 
L 334.736926 136.4256 
L 340.344595 129.7728 
L 346.837686 123.12 
L 350.674512 119.7936 
L 354.806479 116.4672 
L 359.233587 113.1408 
L 362.480132 111.024 
L 365.136397 109.512 
L 366.021818 109.8144 
L 364.841256 112.536 
L 361.29957 117.3744 
L 353.330777 127.0512 
L 340.049455 141.264 
L 330.604959 150.6384 
L 328.538975 153.0576 
L 321.750744 159.408 
L 318.504198 163.3392 
L 316.438215 165.456 
L 314.667372 167.8752 
L 311.420826 171.2016 
L 310.830545 171.504 
L 310.535405 171.2016 
L 310.535405 170.5968 
L 311.125686 168.7824 
L 314.372231 164.2464 
L 317.028496 162.1296 
L 324.997289 156.6864 
L 328.243835 153.9648 
L 331.785521 150.6384 
L 335.622347 147.312 
L 337.688331 145.1952 
L 341.525157 141.5664 
L 344.476562 138.24 
L 347.427967 135.216 
L 350.674512 131.5872 
L 354.511339 127.656 
L 360.119008 120.7008 
L 362.184992 117.9792 
L 368.087802 108.9072 
L 369.563504 106.1856 
L 370.448926 104.0688 
L 370.744066 101.952 
L 371.334347 99.8352 
L 373.10519 94.0896 
L 374.580893 91.0656 
L 376.351736 87.7392 
L 378.71286 84.1104 
L 381.959405 79.8768 
L 388.157355 72.3168 
L 390.518479 69.8976 
L 392.879603 68.0832 
L 394.945587 66.8736 
L 397.01157 67.4784 
L 396.126149 69.2928 
L 393.469884 72.9216 
L 389.042777 77.76 
L 382.254545 84.7152 
L 373.695471 92.88 
L 362.480132 102.2544 
L 348.903669 113.4432 
L 333.556364 124.9344 
L 316.143074 137.3328 
L 297.844364 149.4288 
L 279.545653 160.92 
L 261.837223 171.8064 
L 243.833653 182.088 
L 224.944661 192.0672 
L 207.236231 200.8368 
L 191.298645 208.3968 
L 165.621421 220.1904 
L 156.472066 225.3312 
L 149.093554 229.8672 
L 144.076165 233.1936 
L 140.82962 235.6128 
L 139.649058 237.4272 
L 141.12476 237.7296 
L 144.371306 237.7296 
L 149.683835 236.52 
L 156.176926 235.3104 
L 163.260298 233.7984 
L 170.63881 232.5888 
L 178.017322 231.0768 
L 185.690975 229.2624 
L 192.774347 227.448 
L 200.15286 225.3312 
L 208.416793 223.2144 
L 218.746711 219.2832 
L 233.208595 212.6304 
L 250.621884 203.256 
L 268.330314 193.2768 
L 277.77481 187.5312 
L 295.77838 176.04 
L 310.830545 165.456 
L 328.243835 152.4528 
L 333.261223 148.5216 
L 338.278612 144.288 
L 344.476562 138.5424 
L 343.886281 139.1472 
L 342.705719 140.0544 
L 342.115438 140.6592 
L 342.115438 140.0544 
L 342.410579 138.8448 
L 343.296 137.6352 
L 344.181421 135.8208 
L 346.247405 132.192 
L 346.837686 131.5872 
L 347.132826 131.8896 
L 346.542545 133.4016 
L 342.705719 139.1472 
L 342.705719 139.1472 
" clip-path="url(#pc29de26786)" style="fill: none; stroke: #ffa07a; stroke-width: 1.5; stroke-linecap: square"/>
   </g>
   <g id="line2d_9">
    <path d="M 247.375339 90.4608 
" clip-path="url(#pc29de26786)" style="fill: none; stroke: #ffa07a; stroke-width: 1.5; stroke-linecap: square"/>
    <defs>
     <path id="m065b8d94b5" d="M 0 5 
C 1.326016 5 2.597899 4.473168 3.535534 3.535534 
C 4.473168 2.597899 5 1.326016 5 0 
C 5 -1.326016 4.473168 -2.597899 3.535534 -3.535534 
C 2.597899 -4.473168 1.326016 -5 0 -5 
C -1.326016 -5 -2.597899 -4.473168 -3.535534 -3.535534 
C -4.473168 -2.597899 -5 -1.326016 -5 0 
C -5 1.326016 -4.473168 2.597899 -3.535534 3.535534 
C -2.597899 4.473168 -1.326016 5 0 5 
z
" style="stroke: #ffa07a"/>
    </defs>
    <g clip-path="url(#pc29de26786)">
     <use xlink:href="#m065b8d94b5" x="247.375339" y="90.4608" style="fill: #ffa07a; stroke: #ffa07a"/>
    </g>
   </g>
   <g id="line2d_10">
    <path d="M 342.705719 139.1472 
" clip-path="url(#pc29de26786)" style="fill: none; stroke: #ffa07a; stroke-width: 1.5; stroke-linecap: square"/>
    <defs>
     <path id="m6eaf4b6945" d="M -5 5 
L 5 5 
L 5 -5 
L -5 -5 
z
" style="stroke: #ffa07a; stroke-linejoin: miter"/>
    </defs>
    <g clip-path="url(#pc29de26786)">
     <use xlink:href="#m6eaf4b6945" x="342.705719" y="139.1472" style="fill: #ffa07a; stroke: #ffa07a; stroke-linejoin: miter"/>
    </g>
   </g>
   <g id="line2d_11">
    <path d="M 224.35438 144.8928 
L 226.125223 143.0784 
L 226.715504 142.1712 
L 226.715504 141.264 
L 226.420364 139.752 
L 226.125223 139.1472 
L 226.125223 137.0304 
L 226.420364 136.1232 
L 228.486347 134.6112 
L 230.847471 134.0064 
L 233.208595 132.7968 
L 241.472529 129.4704 
L 247.080198 126.7488 
L 255.048992 123.12 
L 262.427504 120.7008 
L 270.396298 117.6768 
L 285.448463 112.8384 
L 293.122116 111.024 
L 298.729785 110.1168 
L 303.452033 110.7216 
L 307.28886 112.536 
L 309.059702 116.4672 
L 308.764562 122.8176 
L 306.108298 130.9824 
L 301.976331 140.3568 
L 297.254083 150.336 
L 291.646413 161.2224 
L 276.889388 187.8336 
L 275.118545 192.672 
L 273.052562 196.9056 
L 272.16714 199.9296 
L 271.872 202.0464 
L 272.462281 202.9536 
L 274.823405 202.0464 
L 277.77481 199.6272 
L 281.021355 197.208 
L 285.448463 192.672 
L 288.990149 189.648 
L 301.68119 177.8544 
L 301.68119 177.8544 
L 303.747174 176.04 
L 307.28886 172.7136 
L 313.191669 166.3632 
L 313.191669 166.3632 
L 319.094479 160.3152 
L 322.341025 156.384 
L 330.014678 146.4048 
L 333.556364 140.9616 
L 334.736926 138.5424 
L 335.032066 137.3328 
L 334.736926 137.0304 
L 334.146645 137.6352 
L 333.851504 137.3328 
L 332.966083 138.24 
L 332.375802 139.4496 
L 332.670942 140.0544 
L 333.556364 140.3568 
L 338.573752 140.3568 
L 340.344595 140.0544 
L 342.410579 139.4496 
L 344.476562 138.24 
L 346.247405 136.728 
L 347.132826 135.216 
L 346.837686 133.704 
L 345.066843 132.4944 
L 343.00086 130.68 
L 338.868893 129.7728 
L 333.556364 129.168 
L 328.243835 128.2608 
L 322.636165 127.0512 
L 315.552793 126.144 
L 308.469421 124.3296 
L 300.205488 122.8176 
L 284.267901 117.6768 
L 278.955372 116.4672 
L 273.937983 114.9552 
L 268.625455 113.7456 
L 258.885818 111.3264 
L 253.573289 110.1168 
L 248.851041 108.9072 
L 243.833653 108.3024 
L 238.816264 108.6048 
L 234.684298 110.1168 
L 232.323174 112.536 
L 232.323174 114.6528 
L 233.798876 117.6768 
L 245.899636 127.0512 
L 253.278149 133.704 
L 261.246942 140.6592 
L 276.299107 152.4528 
L 284.267901 157.5936 
L 291.351273 161.8272 
L 297.549223 164.8512 
L 305.518017 167.2704 
L 309.354843 167.8752 
L 312.601388 168.7824 
L 313.191669 169.3872 
L 313.48681 169.3872 
L 313.191669 169.3872 
L 312.896529 168.7824 
L 312.306248 168.48 
L 312.011107 167.8752 
L 312.011107 166.3632 
L 312.601388 165.1536 
L 313.48681 163.944 
L 314.077091 163.3392 
L 314.962512 161.8272 
L 317.028496 160.0128 
L 318.209058 159.408 
L 320.570182 157.5936 
L 325.29243 154.872 
L 327.063273 153.6624 
L 332.670942 150.0336 
L 338.573752 144.8928 
L 341.820298 140.9616 
L 344.476562 136.728 
L 345.952264 132.192 
L 346.247405 127.656 
L 343.886281 121.3056 
L 340.344595 117.9792 
L 336.212628 114.9552 
L 334.146645 113.7456 
L 327.358413 110.4192 
L 323.226446 109.2096 
L 319.38962 108.6048 
L 314.962512 109.8144 
L 312.011107 111.3264 
L 309.945124 112.8384 
L 309.945124 114.6528 
L 311.125686 115.8624 
L 313.48681 117.3744 
L 317.028496 118.8864 
L 319.094479 119.4912 
L 330.309818 121.3056 
L 336.212628 121.608 
L 340.344595 122.5152 
L 346.247405 124.632 
L 350.969653 124.0272 
L 352.740496 123.12 
L 356.577322 121.3056 
L 359.233587 119.4912 
L 360.709289 119.1888 
L 361.29957 119.4912 
L 361.00443 120.096 
L 359.233587 121.9104 
L 355.39676 126.4464 
L 352.740496 129.168 
L 350.084231 132.192 
L 348.313388 133.704 
L 343.59114 138.8448 
L 338.278612 144.288 
L 335.622347 147.6144 
L 335.622347 147.6144 
L 343.00086 140.0544 
L 349.19881 133.0992 
L 352.740496 128.2608 
L 353.035636 127.0512 
L 353.035636 125.8416 
L 351.855074 125.2368 
L 349.19881 125.8416 
L 345.066843 127.656 
L 340.344595 129.4704 
L 327.653554 134.6112 
L 321.160463 137.6352 
L 314.077091 140.6592 
L 307.584 143.6832 
L 301.68119 146.7072 
L 297.254083 148.824 
L 293.712397 150.9408 
L 290.170711 153.6624 
L 283.67762 160.3152 
L 282.792198 161.5248 
L 282.792198 162.1296 
L 283.087339 162.432 
L 283.087339 162.7344 
L 283.97276 163.0368 
L 285.153322 162.1296 
L 288.695008 160.6176 
L 291.351273 159.7104 
L 293.417256 158.8032 
L 294.597818 158.5008 
L 296.368661 157.896 
L 298.139504 157.5936 
L 299.910347 157.896 
L 300.795769 157.896 
L 301.68119 158.1984 
L 304.042314 158.1984 
L 305.518017 157.896 
L 306.993719 157.2912 
L 309.059702 156.6864 
L 310.240264 156.6864 
L 311.715967 155.7792 
L 314.077091 154.5696 
L 316.438215 152.7552 
L 318.209058 151.2432 
L 321.750744 148.824 
L 322.341025 147.9168 
L 323.226446 147.0096 
L 324.111868 145.8 
L 324.997289 144.8928 
L 325.29243 144.288 
L 324.702149 142.776 
L 324.407008 142.1712 
L 323.521587 141.5664 
L 323.521587 140.3568 
L 323.816727 138.8448 
L 323.816727 135.216 
L 323.521587 133.704 
L 323.521587 131.8896 
L 322.931306 130.68 
L 322.045884 129.4704 
L 317.913917 127.9584 
L 315.847934 127.0512 
L 312.601388 126.144 
L 309.649983 125.5392 
L 303.452033 123.7248 
L 298.729785 121.9104 
L 296.073521 120.3984 
L 293.122116 119.1888 
L 287.219306 116.1648 
L 283.087339 115.8624 
L 279.545653 114.3504 
L 275.118545 112.8384 
L 270.691438 110.7216 
L 266.264331 107.6976 
L 261.837223 104.3712 
L 258.295537 99.5328 
L 255.344132 93.4848 
L 252.687868 87.7392 
L 246.194777 84.7152 
L 237.635702 81.9936 
L 232.618314 80.784 
L 212.843901 78.9696 
L 196.611174 79.272 
L 179.788165 80.4816 
L 162.374876 81.9936 
L 144.961587 85.0176 
L 127.548298 88.6464 
L 109.839868 94.0896 
L 92.131438 100.1376 
L 74.127868 107.6976 
L 73.832727 111.3264 
L 73.832727 190.5552 
L 75.013289 201.1392 
L 78.850116 210.816 
L 83.277223 220.7952 
L 89.770314 229.8672 
L 100.395372 237.4272 
L 113.676694 243.7776 
L 127.843438 248.9184 
L 142.305322 251.9424 
L 158.242909 252.8496 
L 173.590215 251.9424 
L 187.461818 250.128 
L 203.399405 246.4992 
L 221.107835 240.4512 
L 239.996826 232.5888 
L 258.885818 223.2144 
L 277.479669 212.0256 
L 292.826975 201.4416 
L 304.337455 192.3696 
L 314.667372 183.2976 
L 323.226446 175.1328 
L 330.900099 167.2704 
L 342.410579 154.872 
L 354.806479 139.1472 
L 360.709289 131.2848 
L 367.792661 120.3984 
L 366.612099 122.2128 
L 366.021818 122.8176 
L 363.955835 125.8416 
L 363.365554 127.0512 
L 361.594711 129.168 
L 357.757884 134.9136 
L 353.921058 139.752 
L 350.084231 145.1952 
L 347.132826 148.5216 
L 344.476562 152.1504 
L 341.230017 156.0816 
L 338.278612 160.0128 
L 334.146645 164.5488 
L 330.900099 168.48 
L 327.358413 172.4112 
L 324.407008 176.04 
L 321.455603 179.064 
L 318.799339 182.088 
L 311.125686 189.9504 
L 309.059702 191.7648 
L 307.28886 193.5792 
L 303.156893 196.9056 
L 301.976331 197.5104 
L 300.795769 198.4176 
L 298.434645 199.6272 
L 297.549223 199.9296 
L 297.844364 199.3248 
L 300.795769 195.696 
L 302.566612 193.8816 
L 304.927736 191.16 
L 307.87914 188.4384 
L 311.420826 184.8096 
L 326.472992 167.2704 
L 330.604959 162.1296 
L 335.032066 156.384 
L 340.049455 150.336 
L 345.657124 143.0784 
L 366.021818 118.584 
L 368.973223 115.8624 
L 377.532298 105.2784 
L 380.188562 101.0448 
L 381.664264 98.3232 
L 381.959405 96.8112 
L 381.369124 96.2064 
L 379.893421 96.5088 
L 378.417719 98.0208 
L 376.056595 100.7424 
L 373.10519 105.2784 
L 366.90724 116.7696 
L 362.775273 124.0272 
L 357.757884 132.4944 
L 352.445355 140.9616 
L 346.837686 149.1264 
L 334.736926 164.2464 
L 320.865322 179.6688 
L 314.372231 186.3216 
L 301.976331 197.8128 
L 296.663802 202.3488 
L 294.302678 204.1632 
L 290.170711 207.4896 
L 288.104727 208.6992 
L 287.809587 207.4896 
L 291.056132 202.3488 
L 293.712397 199.0224 
L 297.844364 194.7888 
L 304.042314 187.8336 
L 316.438215 173.6208 
L 318.799339 170.5968 
L 326.472992 161.8272 
L 331.19524 156.0816 
L 332.966083 153.36 
L 336.507769 148.824 
L 340.344595 143.3808 
L 345.657124 136.1232 
L 350.084231 128.8656 
L 353.035636 124.632 
L 356.577322 121.0032 
L 358.348165 120.3984 
L 362.184992 117.9792 
L 367.497521 115.56 
L 373.400331 112.2336 
L 373.400331 112.536 
L 371.924628 114.048 
L 362.775273 122.8176 
L 347.132826 137.0304 
L 339.459174 143.9856 
L 330.900099 151.5456 
L 307.28886 173.016 
L 299.615207 180.2736 
L 284.563041 193.8816 
L 278.365091 199.3248 
L 269.215736 208.0944 
L 254.458711 223.2144 
L 252.097587 225.3312 
L 250.031603 226.5408 
L 249.146182 226.8432 
L 248.555901 226.2384 
L 248.851041 225.3312 
L 249.441322 224.1216 
L 250.326744 222.0048 
L 251.802446 219.5856 
L 253.86843 216.5616 
L 258.590678 211.1184 
L 261.246942 207.4896 
L 268.330314 199.0224 
L 272.462281 194.184 
L 277.184529 189.3456 
L 282.201917 183.9024 
L 294.597818 172.4112 
L 301.976331 166.3632 
L 309.354843 161.2224 
L 316.438215 156.6864 
L 329.719537 149.4288 
L 335.327207 146.7072 
L 340.344595 143.9856 
L 345.361983 140.9616 
L 349.49395 137.9376 
L 357.462744 130.9824 
L 360.709289 127.656 
L 366.316959 121.3056 
L 368.678083 118.2816 
L 370.744066 115.8624 
L 372.81005 113.1408 
L 376.942017 106.7904 
L 374.285752 111.024 
L 372.219769 114.3504 
L 366.316959 122.5152 
L 357.462744 132.7968 
L 343.886281 146.1024 
L 325.29243 162.7344 
L 314.372231 171.504 
L 301.976331 180.8784 
L 289.285289 190.2528 
L 275.708826 199.6272 
L 261.837223 208.6992 
L 247.96562 218.0736 
L 220.222413 235.9152 
L 207.826512 244.3824 
L 175.361058 265.5504 
L 166.506843 271.9008 
L 160.899174 276.4368 
L 156.176926 280.6704 
L 151.159537 284.904 
L 147.912992 287.928 
L 144.961587 290.3472 
L 140.82962 292.7664 
L 136.107372 294.5808 
L 132.270545 295.1856 
L 129.909421 294.8832 
L 128.138579 293.6736 
L 126.958017 292.1616 
L 126.662876 289.7424 
L 127.253157 286.416 
L 129.024 282.1824 
L 132.565686 277.0416 
L 137.878215 271.296 
L 142.600463 265.8528 
L 147.912992 260.1072 
L 157.652628 248.9184 
L 164.44086 242.568 
L 172.999934 235.6128 
L 183.034711 227.7504 
L 195.135471 218.9808 
L 218.746711 202.3488 
L 229.371769 194.4864 
L 240.882248 186.624 
L 252.392727 178.1568 
L 263.608066 169.6896 
L 273.347702 161.5248 
L 281.021355 154.2672 
L 287.514446 148.5216 
L 292.826975 145.1952 
L 296.663802 143.9856 
L 299.024926 145.1952 
L 300.205488 147.6144 
L 300.795769 153.6624 
L 301.976331 155.7792 
L 303.747174 156.9888 
L 307.87914 158.1984 
L 309.945124 158.1984 
L 312.011107 157.896 
L 315.257653 156.9888 
L 319.094479 154.872 
L 322.636165 152.4528 
L 325.58757 150.0336 
L 327.358413 148.2192 
L 328.834116 147.0096 
L 328.834116 146.4048 
L 328.834116 146.7072 
L 327.358413 147.6144 
L 324.997289 150.0336 
L 313.78195 160.3152 
L 312.896529 161.5248 
L 312.601388 162.432 
L 312.896529 162.7344 
L 315.257653 162.7344 
L 318.504198 161.5248 
L 321.750744 160.6176 
L 322.341025 160.3152 
L 323.521587 160.0128 
L 323.816727 160.3152 
L 323.226446 161.2224 
L 322.636165 162.432 
L 320.865322 164.2464 
L 320.865322 164.2464 
" clip-path="url(#pc29de26786)" style="fill: none; stroke: #0000ff; stroke-width: 1.5; stroke-linecap: square"/>
   </g>
   <g id="line2d_12">
    <path d="M 224.35438 144.8928 
" clip-path="url(#pc29de26786)" style="fill: none; stroke: #0000ff; stroke-width: 1.5; stroke-linecap: square"/>
    <defs>
     <path id="meb61d12deb" d="M 0 5 
C 1.326016 5 2.597899 4.473168 3.535534 3.535534 
C 4.473168 2.597899 5 1.326016 5 0 
C 5 -1.326016 4.473168 -2.597899 3.535534 -3.535534 
C 2.597899 -4.473168 1.326016 -5 0 -5 
C -1.326016 -5 -2.597899 -4.473168 -3.535534 -3.535534 
C -4.473168 -2.597899 -5 -1.326016 -5 0 
C -5 1.326016 -4.473168 2.597899 -3.535534 3.535534 
C -2.597899 4.473168 -1.326016 5 0 5 
z
" style="stroke: #0000ff"/>
    </defs>
    <g clip-path="url(#pc29de26786)">
     <use xlink:href="#meb61d12deb" x="224.35438" y="144.8928" style="fill: #0000ff; stroke: #0000ff"/>
    </g>
   </g>
   <g id="line2d_13">
    <path d="M 320.865322 164.2464 
" clip-path="url(#pc29de26786)" style="fill: none; stroke: #0000ff; stroke-width: 1.5; stroke-linecap: square"/>
    <defs>
     <path id="m7eb43ebe5f" d="M -5 5 
L 5 5 
L 5 -5 
L -5 -5 
z
" style="stroke: #0000ff; stroke-linejoin: miter"/>
    </defs>
    <g clip-path="url(#pc29de26786)">
     <use xlink:href="#m7eb43ebe5f" x="320.865322" y="164.2464" style="fill: #0000ff; stroke: #0000ff; stroke-linejoin: miter"/>
    </g>
   </g>
   <g id="line2d_14">
    <path d="M 364.681612 139.07349 
" clip-path="url(#pc29de26786)" style="fill: none; stroke: #ff0000; stroke-width: 1.5; stroke-linecap: square"/>
    <defs>
     <path id="m40c617be77" d="M -2.5 5 
L 0 2.5 
L 2.5 5 
L 5 2.5 
L 2.5 0 
L 5 -2.5 
L 2.5 -5 
L 0 -2.5 
L -2.5 -5 
L -5 -2.5 
L -2.5 0 
L -5 2.5 
z
" style="stroke: #ff0000; stroke-linejoin: miter"/>
    </defs>
    <g clip-path="url(#pc29de26786)">
     <use xlink:href="#m40c617be77" x="364.681612" y="139.07349" style="fill: #ff0000; stroke: #ff0000; stroke-linejoin: miter"/>
    </g>
   </g>
   <g id="line2d_15">
    <path d="M 365.274576 179.84835 
" clip-path="url(#pc29de26786)" style="fill: none; stroke: #ffa07a; stroke-width: 1.5; stroke-linecap: square"/>
    <defs>
     <path id="maa1a45dba0" d="M -2.5 5 
L 0 2.5 
L 2.5 5 
L 5 2.5 
L 2.5 0 
L 5 -2.5 
L 2.5 -5 
L 0 -2.5 
L -2.5 -5 
L -5 -2.5 
L -2.5 0 
L -5 2.5 
z
" style="stroke: #ffa07a; stroke-linejoin: miter"/>
    </defs>
    <g clip-path="url(#pc29de26786)">
     <use xlink:href="#maa1a45dba0" x="365.274576" y="179.84835" style="fill: #ffa07a; stroke: #ffa07a; stroke-linejoin: miter"/>
    </g>
   </g>
   <g id="line2d_16">
    <path d="M 327.917839 127.20618 
" clip-path="url(#pc29de26786)" style="fill: none; stroke: #0000ff; stroke-width: 1.5; stroke-linecap: square"/>
    <defs>
     <path id="m4ae611ff98" d="M -2.5 5 
L 0 2.5 
L 2.5 5 
L 5 2.5 
L 2.5 0 
L 5 -2.5 
L 2.5 -5 
L 0 -2.5 
L -2.5 -5 
L -5 -2.5 
L -2.5 0 
L -5 2.5 
z
" style="stroke: #0000ff; stroke-linejoin: miter"/>
    </defs>
    <g clip-path="url(#pc29de26786)">
     <use xlink:href="#m4ae611ff98" x="327.917839" y="127.20618" style="fill: #0000ff; stroke: #0000ff; stroke-linejoin: miter"/>
    </g>
   </g>
   <g id="patch_3">
    <path d="M 57.6 307.584 
L 57.6 41.472 
" style="fill: none; stroke: #000000; stroke-width: 0.8; stroke-linejoin: miter; stroke-linecap: square"/>
   </g>
   <g id="patch_4">
    <path d="M 57.6 307.584 
L 414.72 307.584 
" style="fill: none; stroke: #000000; stroke-width: 0.8; stroke-linejoin: miter; stroke-linecap: square"/>
   </g>
   <g id="legend_1">
    <g id="patch_5">
     <path d="M 241.591875 141.54075 
L 404.22 141.54075 
Q 407.22 141.54075 407.22 138.54075 
L 407.22 51.972 
Q 407.22 48.972 404.22 48.972 
L 241.591875 48.972 
Q 238.591875 48.972 238.591875 51.972 
L 238.591875 138.54075 
Q 238.591875 141.54075 241.591875 141.54075 
z
" style="fill: #ffffff; opacity: 0.8; stroke: #cccccc; stroke-linejoin: miter"/>
    </g>
    <g id="line2d_17">
     <path d="M 244.591875 61.119656 
L 259.591875 61.119656 
L 274.591875 61.119656 
" style="fill: none; stroke: #000000; stroke-width: 1.5; stroke-linecap: square"/>
    </g>
    <g id="text_7">
     <!-- Trajectory -->
     <g transform="translate(286.591875 66.369656)scale(0.15 -0.15)">
      <defs>
       <path id="DejaVuSans-54" d="M -19 4666 
L 3928 4666 
L 3928 4134 
L 2272 4134 
L 2272 0 
L 1638 0 
L 1638 4134 
L -19 4134 
L -19 4666 
z
" transform="scale(0.015625)"/>
       <path id="DejaVuSans-72" d="M 2631 2963 
Q 2534 3019 2420 3045 
Q 2306 3072 2169 3072 
Q 1681 3072 1420 2755 
Q 1159 2438 1159 1844 
L 1159 0 
L 581 0 
L 581 3500 
L 1159 3500 
L 1159 2956 
Q 1341 3275 1631 3429 
Q 1922 3584 2338 3584 
Q 2397 3584 2469 3576 
Q 2541 3569 2628 3553 
L 2631 2963 
z
" transform="scale(0.015625)"/>
       <path id="DejaVuSans-61" d="M 2194 1759 
Q 1497 1759 1228 1600 
Q 959 1441 959 1056 
Q 959 750 1161 570 
Q 1363 391 1709 391 
Q 2188 391 2477 730 
Q 2766 1069 2766 1631 
L 2766 1759 
L 2194 1759 
z
M 3341 1997 
L 3341 0 
L 2766 0 
L 2766 531 
Q 2569 213 2275 61 
Q 1981 -91 1556 -91 
Q 1019 -91 701 211 
Q 384 513 384 1019 
Q 384 1609 779 1909 
Q 1175 2209 1959 2209 
L 2766 2209 
L 2766 2266 
Q 2766 2663 2505 2880 
Q 2244 3097 1772 3097 
Q 1472 3097 1187 3025 
Q 903 2953 641 2809 
L 641 3341 
Q 956 3463 1253 3523 
Q 1550 3584 1831 3584 
Q 2591 3584 2966 3190 
Q 3341 2797 3341 1997 
z
" transform="scale(0.015625)"/>
       <path id="DejaVuSans-6a" d="M 603 3500 
L 1178 3500 
L 1178 -63 
Q 1178 -731 923 -1031 
Q 669 -1331 103 -1331 
L -116 -1331 
L -116 -844 
L 38 -844 
Q 366 -844 484 -692 
Q 603 -541 603 -63 
L 603 3500 
z
M 603 4863 
L 1178 4863 
L 1178 4134 
L 603 4134 
L 603 4863 
z
" transform="scale(0.015625)"/>
       <path id="DejaVuSans-65" d="M 3597 1894 
L 3597 1613 
L 953 1613 
Q 991 1019 1311 708 
Q 1631 397 2203 397 
Q 2534 397 2845 478 
Q 3156 559 3463 722 
L 3463 178 
Q 3153 47 2828 -22 
Q 2503 -91 2169 -91 
Q 1331 -91 842 396 
Q 353 884 353 1716 
Q 353 2575 817 3079 
Q 1281 3584 2069 3584 
Q 2775 3584 3186 3129 
Q 3597 2675 3597 1894 
z
M 3022 2063 
Q 3016 2534 2758 2815 
Q 2500 3097 2075 3097 
Q 1594 3097 1305 2825 
Q 1016 2553 972 2059 
L 3022 2063 
z
" transform="scale(0.015625)"/>
       <path id="DejaVuSans-63" d="M 3122 3366 
L 3122 2828 
Q 2878 2963 2633 3030 
Q 2388 3097 2138 3097 
Q 1578 3097 1268 2742 
Q 959 2388 959 1747 
Q 959 1106 1268 751 
Q 1578 397 2138 397 
Q 2388 397 2633 464 
Q 2878 531 3122 666 
L 3122 134 
Q 2881 22 2623 -34 
Q 2366 -91 2075 -91 
Q 1284 -91 818 406 
Q 353 903 353 1747 
Q 353 2603 823 3093 
Q 1294 3584 2113 3584 
Q 2378 3584 2631 3529 
Q 2884 3475 3122 3366 
z
" transform="scale(0.015625)"/>
       <path id="DejaVuSans-74" d="M 1172 4494 
L 1172 3500 
L 2356 3500 
L 2356 3053 
L 1172 3053 
L 1172 1153 
Q 1172 725 1289 603 
Q 1406 481 1766 481 
L 2356 481 
L 2356 0 
L 1766 0 
Q 1100 0 847 248 
Q 594 497 594 1153 
L 594 3053 
L 172 3053 
L 172 3500 
L 594 3500 
L 594 4494 
L 1172 4494 
z
" transform="scale(0.015625)"/>
       <path id="DejaVuSans-6f" d="M 1959 3097 
Q 1497 3097 1228 2736 
Q 959 2375 959 1747 
Q 959 1119 1226 758 
Q 1494 397 1959 397 
Q 2419 397 2687 759 
Q 2956 1122 2956 1747 
Q 2956 2369 2687 2733 
Q 2419 3097 1959 3097 
z
M 1959 3584 
Q 2709 3584 3137 3096 
Q 3566 2609 3566 1747 
Q 3566 888 3137 398 
Q 2709 -91 1959 -91 
Q 1206 -91 779 398 
Q 353 888 353 1747 
Q 353 2609 779 3096 
Q 1206 3584 1959 3584 
z
" transform="scale(0.015625)"/>
       <path id="DejaVuSans-79" d="M 2059 -325 
Q 1816 -950 1584 -1140 
Q 1353 -1331 966 -1331 
L 506 -1331 
L 506 -850 
L 844 -850 
Q 1081 -850 1212 -737 
Q 1344 -625 1503 -206 
L 1606 56 
L 191 3500 
L 800 3500 
L 1894 763 
L 2988 3500 
L 3597 3500 
L 2059 -325 
z
" transform="scale(0.015625)"/>
      </defs>
      <use xlink:href="#DejaVuSans-54"/>
      <use xlink:href="#DejaVuSans-72" x="46.333984"/>
      <use xlink:href="#DejaVuSans-61" x="87.447266"/>
      <use xlink:href="#DejaVuSans-6a" x="148.726562"/>
      <use xlink:href="#DejaVuSans-65" x="176.509766"/>
      <use xlink:href="#DejaVuSans-63" x="238.033203"/>
      <use xlink:href="#DejaVuSans-74" x="293.013672"/>
      <use xlink:href="#DejaVuSans-6f" x="332.222656"/>
      <use xlink:href="#DejaVuSans-72" x="393.404297"/>
      <use xlink:href="#DejaVuSans-79" x="434.517578"/>
     </g>
    </g>
    <g id="line2d_18">
     <path d="M 244.591875 83.136844 
L 259.591875 83.136844 
L 274.591875 83.136844 
" style="fill: none; stroke: #000000; stroke-width: 1.5; stroke-linecap: square"/>
     <g>
      <use xlink:href="#m964294b0e4" x="259.591875" y="83.136844" style="stroke: #000000"/>
     </g>
    </g>
    <g id="text_8">
     <!-- Start -->
     <g transform="translate(286.591875 88.386844)scale(0.15 -0.15)">
      <defs>
       <path id="DejaVuSans-53" d="M 3425 4513 
L 3425 3897 
Q 3066 4069 2747 4153 
Q 2428 4238 2131 4238 
Q 1616 4238 1336 4038 
Q 1056 3838 1056 3469 
Q 1056 3159 1242 3001 
Q 1428 2844 1947 2747 
L 2328 2669 
Q 3034 2534 3370 2195 
Q 3706 1856 3706 1288 
Q 3706 609 3251 259 
Q 2797 -91 1919 -91 
Q 1588 -91 1214 -16 
Q 841 59 441 206 
L 441 856 
Q 825 641 1194 531 
Q 1563 422 1919 422 
Q 2459 422 2753 634 
Q 3047 847 3047 1241 
Q 3047 1584 2836 1778 
Q 2625 1972 2144 2069 
L 1759 2144 
Q 1053 2284 737 2584 
Q 422 2884 422 3419 
Q 422 4038 858 4394 
Q 1294 4750 2059 4750 
Q 2388 4750 2728 4690 
Q 3069 4631 3425 4513 
z
" transform="scale(0.015625)"/>
      </defs>
      <use xlink:href="#DejaVuSans-53"/>
      <use xlink:href="#DejaVuSans-74" x="63.476562"/>
      <use xlink:href="#DejaVuSans-61" x="102.685547"/>
      <use xlink:href="#DejaVuSans-72" x="163.964844"/>
      <use xlink:href="#DejaVuSans-74" x="205.078125"/>
     </g>
    </g>
    <g id="line2d_19">
     <path d="M 244.591875 105.154031 
L 259.591875 105.154031 
L 274.591875 105.154031 
" style="fill: none; stroke: #000000; stroke-width: 1.5; stroke-linecap: square"/>
     <g>
      <use xlink:href="#m12ca90e2f9" x="259.591875" y="105.154031" style="stroke: #000000; stroke-linejoin: miter"/>
     </g>
    </g>
    <g id="text_9">
     <!-- End -->
     <g transform="translate(286.591875 110.404031)scale(0.15 -0.15)">
      <defs>
       <path id="DejaVuSans-45" d="M 628 4666 
L 3578 4666 
L 3578 4134 
L 1259 4134 
L 1259 2753 
L 3481 2753 
L 3481 2222 
L 1259 2222 
L 1259 531 
L 3634 531 
L 3634 0 
L 628 0 
L 628 4666 
z
" transform="scale(0.015625)"/>
       <path id="DejaVuSans-6e" d="M 3513 2113 
L 3513 0 
L 2938 0 
L 2938 2094 
Q 2938 2591 2744 2837 
Q 2550 3084 2163 3084 
Q 1697 3084 1428 2787 
Q 1159 2491 1159 1978 
L 1159 0 
L 581 0 
L 581 3500 
L 1159 3500 
L 1159 2956 
Q 1366 3272 1645 3428 
Q 1925 3584 2291 3584 
Q 2894 3584 3203 3211 
Q 3513 2838 3513 2113 
z
" transform="scale(0.015625)"/>
       <path id="DejaVuSans-64" d="M 2906 2969 
L 2906 4863 
L 3481 4863 
L 3481 0 
L 2906 0 
L 2906 525 
Q 2725 213 2448 61 
Q 2172 -91 1784 -91 
Q 1150 -91 751 415 
Q 353 922 353 1747 
Q 353 2572 751 3078 
Q 1150 3584 1784 3584 
Q 2172 3584 2448 3432 
Q 2725 3281 2906 2969 
z
M 947 1747 
Q 947 1113 1208 752 
Q 1469 391 1925 391 
Q 2381 391 2643 752 
Q 2906 1113 2906 1747 
Q 2906 2381 2643 2742 
Q 2381 3103 1925 3103 
Q 1469 3103 1208 2742 
Q 947 2381 947 1747 
z
" transform="scale(0.015625)"/>
      </defs>
      <use xlink:href="#DejaVuSans-45"/>
      <use xlink:href="#DejaVuSans-6e" x="63.183594"/>
      <use xlink:href="#DejaVuSans-64" x="126.5625"/>
     </g>
    </g>
    <g id="line2d_20">
     <path d="M 244.591875 127.171219 
L 259.591875 127.171219 
L 274.591875 127.171219 
" style="fill: none; stroke: #ff0000; stroke-width: 1.5; stroke-linecap: square"/>
     <g>
      <use xlink:href="#m40c617be77" x="259.591875" y="127.171219" style="fill: #ff0000; stroke: #ff0000; stroke-linejoin: miter"/>
     </g>
    </g>
    <g id="text_10">
     <!-- Target Location -->
     <g transform="translate(286.591875 132.421219)scale(0.15 -0.15)">
      <defs>
       <path id="DejaVuSans-67" d="M 2906 1791 
Q 2906 2416 2648 2759 
Q 2391 3103 1925 3103 
Q 1463 3103 1205 2759 
Q 947 2416 947 1791 
Q 947 1169 1205 825 
Q 1463 481 1925 481 
Q 2391 481 2648 825 
Q 2906 1169 2906 1791 
z
M 3481 434 
Q 3481 -459 3084 -895 
Q 2688 -1331 1869 -1331 
Q 1566 -1331 1297 -1286 
Q 1028 -1241 775 -1147 
L 775 -588 
Q 1028 -725 1275 -790 
Q 1522 -856 1778 -856 
Q 2344 -856 2625 -561 
Q 2906 -266 2906 331 
L 2906 616 
Q 2728 306 2450 153 
Q 2172 0 1784 0 
Q 1141 0 747 490 
Q 353 981 353 1791 
Q 353 2603 747 3093 
Q 1141 3584 1784 3584 
Q 2172 3584 2450 3431 
Q 2728 3278 2906 2969 
L 2906 3500 
L 3481 3500 
L 3481 434 
z
" transform="scale(0.015625)"/>
       <path id="DejaVuSans-20" transform="scale(0.015625)"/>
       <path id="DejaVuSans-4c" d="M 628 4666 
L 1259 4666 
L 1259 531 
L 3531 531 
L 3531 0 
L 628 0 
L 628 4666 
z
" transform="scale(0.015625)"/>
       <path id="DejaVuSans-69" d="M 603 3500 
L 1178 3500 
L 1178 0 
L 603 0 
L 603 3500 
z
M 603 4863 
L 1178 4863 
L 1178 4134 
L 603 4134 
L 603 4863 
z
" transform="scale(0.015625)"/>
      </defs>
      <use xlink:href="#DejaVuSans-54"/>
      <use xlink:href="#DejaVuSans-61" x="44.583984"/>
      <use xlink:href="#DejaVuSans-72" x="105.863281"/>
      <use xlink:href="#DejaVuSans-67" x="145.226562"/>
      <use xlink:href="#DejaVuSans-65" x="208.703125"/>
      <use xlink:href="#DejaVuSans-74" x="270.226562"/>
      <use xlink:href="#DejaVuSans-20" x="309.435547"/>
      <use xlink:href="#DejaVuSans-4c" x="341.222656"/>
      <use xlink:href="#DejaVuSans-6f" x="395.185547"/>
      <use xlink:href="#DejaVuSans-63" x="456.367188"/>
      <use xlink:href="#DejaVuSans-61" x="511.347656"/>
      <use xlink:href="#DejaVuSans-74" x="572.626953"/>
      <use xlink:href="#DejaVuSans-69" x="611.835938"/>
      <use xlink:href="#DejaVuSans-6f" x="639.619141"/>
      <use xlink:href="#DejaVuSans-6e" x="700.800781"/>
     </g>
    </g>
   </g>
  </g>
 </g>
 <defs>
  <clipPath id="pc29de26786">
   <rect x="57.6" y="41.472" width="357.12" height="266.112"/>
  </clipPath>
 </defs>
</svg>
