<?xml version="1.0" encoding="utf-8" standalone="no"?>
<!DOCTYPE svg PUBLIC "-//W3C//DTD SVG 1.1//EN"
  "http://www.w3.org/Graphics/SVG/1.1/DTD/svg11.dtd">
<svg xmlns:xlink="http://www.w3.org/1999/xlink" width="460.8pt" height="345.6pt" viewBox="0 0 460.8 345.6" xmlns="http://www.w3.org/2000/svg" version="1.1">
 <metadata>
  <rdf:RDF xmlns:dc="http://purl.org/dc/elements/1.1/" xmlns:cc="http://creativecommons.org/ns#" xmlns:rdf="http://www.w3.org/1999/02/22-rdf-syntax-ns#">
   <cc:Work>
    <dc:type rdf:resource="http://purl.org/dc/dcmitype/StillImage"/>
    <dc:date>2024-02-14T16:35:43.578402</dc:date>
    <dc:format>image/svg+xml</dc:format>
    <dc:creator>
     <cc:Agent>
      <dc:title>Matplotlib v3.5.0, https://matplotlib.org/</dc:title>
     </cc:Agent>
    </dc:creator>
   </cc:Work>
  </rdf:RDF>
 </metadata>
 <defs>
  <style type="text/css">*{stroke-linejoin: round; stroke-linecap: butt}</style>
 </defs>
 <g id="figure_1">
  <g id="patch_1">
   <path d="M 0 345.6 
L 460.8 345.6 
L 460.8 0 
L 0 0 
z
" style="fill: #ffffff"/>
  </g>
  <g id="axes_1">
   <g id="patch_2">
    <path d="M 57.6 307.584 
L 414.72 307.584 
L 414.72 41.472 
L 57.6 41.472 
z
" style="fill: #ffffff"/>
   </g>
   <g id="matplotlib.axis_1">
    <g id="xtick_1">
     <g id="line2d_1">
      <defs>
       <path id="m6a64434972" d="M 0 0 
L 0 3.5 
" style="stroke: #000000; stroke-width: 0.8"/>
      </defs>
      <g>
       <use xlink:href="#m6a64434972" x="57.6" y="307.584" style="stroke: #000000; stroke-width: 0.8"/>
      </g>
     </g>
     <g id="text_1">
      <!-- 0 -->
      <g transform="translate(51.2375 329.780875)scale(0.2 -0.2)">
       <defs>
        <path id="DejaVuSans-30" d="M 2034 4250 
Q 1547 4250 1301 3770 
Q 1056 3291 1056 2328 
Q 1056 1369 1301 889 
Q 1547 409 2034 409 
Q 2525 409 2770 889 
Q 3016 1369 3016 2328 
Q 3016 3291 2770 3770 
Q 2525 4250 2034 4250 
z
M 2034 4750 
Q 2819 4750 3233 4129 
Q 3647 3509 3647 2328 
Q 3647 1150 3233 529 
Q 2819 -91 2034 -91 
Q 1250 -91 836 529 
Q 422 1150 422 2328 
Q 422 3509 836 4129 
Q 1250 4750 2034 4750 
z
" transform="scale(0.015625)"/>
       </defs>
       <use xlink:href="#DejaVuSans-30"/>
      </g>
     </g>
    </g>
    <g id="xtick_2">
     <g id="line2d_2">
      <g>
       <use xlink:href="#m6a64434972" x="400.179738" y="307.584" style="stroke: #000000; stroke-width: 0.8"/>
      </g>
     </g>
     <g id="text_2">
      <!-- 1 -->
      <g transform="translate(393.817238 329.780875)scale(0.2 -0.2)">
       <defs>
        <path id="DejaVuSans-31" d="M 794 531 
L 1825 531 
L 1825 4091 
L 703 3866 
L 703 4441 
L 1819 4666 
L 2450 4666 
L 2450 531 
L 3481 531 
L 3481 0 
L 794 0 
L 794 531 
z
" transform="scale(0.015625)"/>
       </defs>
       <use xlink:href="#DejaVuSans-31"/>
      </g>
     </g>
    </g>
    <g id="text_3">
     <!-- Normalised X position -->
     <g transform="translate(111.795937 353.137125)scale(0.2 -0.2)">
      <defs>
       <path id="DejaVuSans-Bold-4e" d="M 588 4666 
L 1931 4666 
L 3628 1466 
L 3628 4666 
L 4769 4666 
L 4769 0 
L 3425 0 
L 1728 3200 
L 1728 0 
L 588 0 
L 588 4666 
z
" transform="scale(0.015625)"/>
       <path id="DejaVuSans-Bold-6f" d="M 2203 2784 
Q 1831 2784 1636 2517 
Q 1441 2250 1441 1747 
Q 1441 1244 1636 976 
Q 1831 709 2203 709 
Q 2569 709 2762 976 
Q 2956 1244 2956 1747 
Q 2956 2250 2762 2517 
Q 2569 2784 2203 2784 
z
M 2203 3584 
Q 3106 3584 3614 3096 
Q 4122 2609 4122 1747 
Q 4122 884 3614 396 
Q 3106 -91 2203 -91 
Q 1297 -91 786 396 
Q 275 884 275 1747 
Q 275 2609 786 3096 
Q 1297 3584 2203 3584 
z
" transform="scale(0.015625)"/>
       <path id="DejaVuSans-Bold-72" d="M 3138 2547 
Q 2991 2616 2845 2648 
Q 2700 2681 2553 2681 
Q 2122 2681 1889 2404 
Q 1656 2128 1656 1613 
L 1656 0 
L 538 0 
L 538 3500 
L 1656 3500 
L 1656 2925 
Q 1872 3269 2151 3426 
Q 2431 3584 2822 3584 
Q 2878 3584 2943 3579 
Q 3009 3575 3134 3559 
L 3138 2547 
z
" transform="scale(0.015625)"/>
       <path id="DejaVuSans-Bold-6d" d="M 3781 2919 
Q 3994 3244 4286 3414 
Q 4578 3584 4928 3584 
Q 5531 3584 5847 3212 
Q 6163 2841 6163 2131 
L 6163 0 
L 5038 0 
L 5038 1825 
Q 5041 1866 5042 1909 
Q 5044 1953 5044 2034 
Q 5044 2406 4934 2573 
Q 4825 2741 4581 2741 
Q 4263 2741 4089 2478 
Q 3916 2216 3909 1719 
L 3909 0 
L 2784 0 
L 2784 1825 
Q 2784 2406 2684 2573 
Q 2584 2741 2328 2741 
Q 2006 2741 1831 2477 
Q 1656 2213 1656 1722 
L 1656 0 
L 531 0 
L 531 3500 
L 1656 3500 
L 1656 2988 
Q 1863 3284 2130 3434 
Q 2397 3584 2719 3584 
Q 3081 3584 3359 3409 
Q 3638 3234 3781 2919 
z
" transform="scale(0.015625)"/>
       <path id="DejaVuSans-Bold-61" d="M 2106 1575 
Q 1756 1575 1579 1456 
Q 1403 1338 1403 1106 
Q 1403 894 1545 773 
Q 1688 653 1941 653 
Q 2256 653 2472 879 
Q 2688 1106 2688 1447 
L 2688 1575 
L 2106 1575 
z
M 3816 1997 
L 3816 0 
L 2688 0 
L 2688 519 
Q 2463 200 2181 54 
Q 1900 -91 1497 -91 
Q 953 -91 614 226 
Q 275 544 275 1050 
Q 275 1666 698 1953 
Q 1122 2241 2028 2241 
L 2688 2241 
L 2688 2328 
Q 2688 2594 2478 2717 
Q 2269 2841 1825 2841 
Q 1466 2841 1156 2769 
Q 847 2697 581 2553 
L 581 3406 
Q 941 3494 1303 3539 
Q 1666 3584 2028 3584 
Q 2975 3584 3395 3211 
Q 3816 2838 3816 1997 
z
" transform="scale(0.015625)"/>
       <path id="DejaVuSans-Bold-6c" d="M 538 4863 
L 1656 4863 
L 1656 0 
L 538 0 
L 538 4863 
z
" transform="scale(0.015625)"/>
       <path id="DejaVuSans-Bold-69" d="M 538 3500 
L 1656 3500 
L 1656 0 
L 538 0 
L 538 3500 
z
M 538 4863 
L 1656 4863 
L 1656 3950 
L 538 3950 
L 538 4863 
z
" transform="scale(0.015625)"/>
       <path id="DejaVuSans-Bold-73" d="M 3272 3391 
L 3272 2541 
Q 2913 2691 2578 2766 
Q 2244 2841 1947 2841 
Q 1628 2841 1473 2761 
Q 1319 2681 1319 2516 
Q 1319 2381 1436 2309 
Q 1553 2238 1856 2203 
L 2053 2175 
Q 2913 2066 3209 1816 
Q 3506 1566 3506 1031 
Q 3506 472 3093 190 
Q 2681 -91 1863 -91 
Q 1516 -91 1145 -36 
Q 775 19 384 128 
L 384 978 
Q 719 816 1070 734 
Q 1422 653 1784 653 
Q 2113 653 2278 743 
Q 2444 834 2444 1013 
Q 2444 1163 2330 1236 
Q 2216 1309 1875 1350 
L 1678 1375 
Q 931 1469 631 1722 
Q 331 1975 331 2491 
Q 331 3047 712 3315 
Q 1094 3584 1881 3584 
Q 2191 3584 2531 3537 
Q 2872 3491 3272 3391 
z
" transform="scale(0.015625)"/>
       <path id="DejaVuSans-Bold-65" d="M 4031 1759 
L 4031 1441 
L 1416 1441 
Q 1456 1047 1700 850 
Q 1944 653 2381 653 
Q 2734 653 3104 758 
Q 3475 863 3866 1075 
L 3866 213 
Q 3469 63 3072 -14 
Q 2675 -91 2278 -91 
Q 1328 -91 801 392 
Q 275 875 275 1747 
Q 275 2603 792 3093 
Q 1309 3584 2216 3584 
Q 3041 3584 3536 3087 
Q 4031 2591 4031 1759 
z
M 2881 2131 
Q 2881 2450 2695 2645 
Q 2509 2841 2209 2841 
Q 1884 2841 1681 2658 
Q 1478 2475 1428 2131 
L 2881 2131 
z
" transform="scale(0.015625)"/>
       <path id="DejaVuSans-Bold-64" d="M 2919 2988 
L 2919 4863 
L 4044 4863 
L 4044 0 
L 2919 0 
L 2919 506 
Q 2688 197 2409 53 
Q 2131 -91 1766 -91 
Q 1119 -91 703 423 
Q 288 938 288 1747 
Q 288 2556 703 3070 
Q 1119 3584 1766 3584 
Q 2128 3584 2408 3439 
Q 2688 3294 2919 2988 
z
M 2181 722 
Q 2541 722 2730 984 
Q 2919 1247 2919 1747 
Q 2919 2247 2730 2509 
Q 2541 2772 2181 2772 
Q 1825 2772 1636 2509 
Q 1447 2247 1447 1747 
Q 1447 1247 1636 984 
Q 1825 722 2181 722 
z
" transform="scale(0.015625)"/>
       <path id="DejaVuSans-Bold-20" transform="scale(0.015625)"/>
       <path id="DejaVuSans-Bold-58" d="M 3188 2381 
L 4806 0 
L 3553 0 
L 2463 1594 
L 1381 0 
L 122 0 
L 1741 2381 
L 184 4666 
L 1441 4666 
L 2463 3163 
L 3481 4666 
L 4744 4666 
L 3188 2381 
z
" transform="scale(0.015625)"/>
       <path id="DejaVuSans-Bold-70" d="M 1656 506 
L 1656 -1331 
L 538 -1331 
L 538 3500 
L 1656 3500 
L 1656 2988 
Q 1888 3294 2169 3439 
Q 2450 3584 2816 3584 
Q 3463 3584 3878 3070 
Q 4294 2556 4294 1747 
Q 4294 938 3878 423 
Q 3463 -91 2816 -91 
Q 2450 -91 2169 54 
Q 1888 200 1656 506 
z
M 2400 2772 
Q 2041 2772 1848 2508 
Q 1656 2244 1656 1747 
Q 1656 1250 1848 986 
Q 2041 722 2400 722 
Q 2759 722 2948 984 
Q 3138 1247 3138 1747 
Q 3138 2247 2948 2509 
Q 2759 2772 2400 2772 
z
" transform="scale(0.015625)"/>
       <path id="DejaVuSans-Bold-74" d="M 1759 4494 
L 1759 3500 
L 2913 3500 
L 2913 2700 
L 1759 2700 
L 1759 1216 
Q 1759 972 1856 886 
Q 1953 800 2241 800 
L 2816 800 
L 2816 0 
L 1856 0 
Q 1194 0 917 276 
Q 641 553 641 1216 
L 641 2700 
L 84 2700 
L 84 3500 
L 641 3500 
L 641 4494 
L 1759 4494 
z
" transform="scale(0.015625)"/>
       <path id="DejaVuSans-Bold-6e" d="M 4056 2131 
L 4056 0 
L 2931 0 
L 2931 347 
L 2931 1631 
Q 2931 2084 2911 2256 
Q 2891 2428 2841 2509 
Q 2775 2619 2662 2680 
Q 2550 2741 2406 2741 
Q 2056 2741 1856 2470 
Q 1656 2200 1656 1722 
L 1656 0 
L 538 0 
L 538 3500 
L 1656 3500 
L 1656 2988 
Q 1909 3294 2193 3439 
Q 2478 3584 2822 3584 
Q 3428 3584 3742 3212 
Q 4056 2841 4056 2131 
z
" transform="scale(0.015625)"/>
      </defs>
      <use xlink:href="#DejaVuSans-Bold-4e"/>
      <use xlink:href="#DejaVuSans-Bold-6f" x="83.691406"/>
      <use xlink:href="#DejaVuSans-Bold-72" x="152.392578"/>
      <use xlink:href="#DejaVuSans-Bold-6d" x="201.708984"/>
      <use xlink:href="#DejaVuSans-Bold-61" x="305.908203"/>
      <use xlink:href="#DejaVuSans-Bold-6c" x="373.388672"/>
      <use xlink:href="#DejaVuSans-Bold-69" x="407.666016"/>
      <use xlink:href="#DejaVuSans-Bold-73" x="441.943359"/>
      <use xlink:href="#DejaVuSans-Bold-65" x="501.464844"/>
      <use xlink:href="#DejaVuSans-Bold-64" x="569.287109"/>
      <use xlink:href="#DejaVuSans-Bold-20" x="640.869141"/>
      <use xlink:href="#DejaVuSans-Bold-58" x="675.683594"/>
      <use xlink:href="#DejaVuSans-Bold-20" x="752.783203"/>
      <use xlink:href="#DejaVuSans-Bold-70" x="787.597656"/>
      <use xlink:href="#DejaVuSans-Bold-6f" x="859.179688"/>
      <use xlink:href="#DejaVuSans-Bold-73" x="927.880859"/>
      <use xlink:href="#DejaVuSans-Bold-69" x="987.402344"/>
      <use xlink:href="#DejaVuSans-Bold-74" x="1021.679688"/>
      <use xlink:href="#DejaVuSans-Bold-69" x="1069.482422"/>
      <use xlink:href="#DejaVuSans-Bold-6f" x="1103.759766"/>
      <use xlink:href="#DejaVuSans-Bold-6e" x="1172.460938"/>
     </g>
    </g>
   </g>
   <g id="matplotlib.axis_2">
    <g id="ytick_1">
     <g id="line2d_3">
      <defs>
       <path id="mca82eaad0f" d="M 0 0 
L -3.5 0 
" style="stroke: #000000; stroke-width: 0.8"/>
      </defs>
      <g>
       <use xlink:href="#mca82eaad0f" x="57.6" y="302.922161" style="stroke: #000000; stroke-width: 0.8"/>
      </g>
     </g>
     <g id="text_4">
      <!-- 0 -->
      <g transform="translate(37.875 310.520599)scale(0.2 -0.2)">
       <use xlink:href="#DejaVuSans-30"/>
      </g>
     </g>
    </g>
    <g id="ytick_2">
     <g id="line2d_4">
      <g>
       <use xlink:href="#mca82eaad0f" x="57.6" y="53.568" style="stroke: #000000; stroke-width: 0.8"/>
      </g>
     </g>
     <g id="text_5">
      <!-- 1 -->
      <g transform="translate(37.875 61.166438)scale(0.2 -0.2)">
       <use xlink:href="#DejaVuSans-31"/>
      </g>
     </g>
    </g>
    <g id="text_6">
     <!-- Normalised Y position -->
     <g transform="translate(29.715625 298.423313)rotate(-90)scale(0.2 -0.2)">
      <defs>
       <path id="DejaVuSans-Bold-59" d="M -63 4666 
L 1253 4666 
L 2316 3003 
L 3378 4666 
L 4697 4666 
L 2919 1966 
L 2919 0 
L 1716 0 
L 1716 1966 
L -63 4666 
z
" transform="scale(0.015625)"/>
      </defs>
      <use xlink:href="#DejaVuSans-Bold-4e"/>
      <use xlink:href="#DejaVuSans-Bold-6f" x="83.691406"/>
      <use xlink:href="#DejaVuSans-Bold-72" x="152.392578"/>
      <use xlink:href="#DejaVuSans-Bold-6d" x="201.708984"/>
      <use xlink:href="#DejaVuSans-Bold-61" x="305.908203"/>
      <use xlink:href="#DejaVuSans-Bold-6c" x="373.388672"/>
      <use xlink:href="#DejaVuSans-Bold-69" x="407.666016"/>
      <use xlink:href="#DejaVuSans-Bold-73" x="441.943359"/>
      <use xlink:href="#DejaVuSans-Bold-65" x="501.464844"/>
      <use xlink:href="#DejaVuSans-Bold-64" x="569.287109"/>
      <use xlink:href="#DejaVuSans-Bold-20" x="640.869141"/>
      <use xlink:href="#DejaVuSans-Bold-59" x="675.683594"/>
      <use xlink:href="#DejaVuSans-Bold-20" x="748.095703"/>
      <use xlink:href="#DejaVuSans-Bold-70" x="782.910156"/>
      <use xlink:href="#DejaVuSans-Bold-6f" x="854.492188"/>
      <use xlink:href="#DejaVuSans-Bold-73" x="923.193359"/>
      <use xlink:href="#DejaVuSans-Bold-69" x="982.714844"/>
      <use xlink:href="#DejaVuSans-Bold-74" x="1016.992188"/>
      <use xlink:href="#DejaVuSans-Bold-69" x="1064.794922"/>
      <use xlink:href="#DejaVuSans-Bold-6f" x="1099.072266"/>
      <use xlink:href="#DejaVuSans-Bold-6e" x="1167.773438"/>
     </g>
    </g>
   </g>
   <g id="line2d_5">
    <path d="M 298.180884 213.402469 
L 298.490911 214.021982 
L 298.800938 214.951252 
L 298.180884 215.570766 
L 297.870857 215.570766 
L 297.56083 215.880522 
L 297.56083 216.190279 
L 297.250803 216.190279 
L 296.940776 216.500036 
L 296.630749 216.500036 
L 295.700668 216.809793 
L 295.700668 216.500036 
L 295.390642 216.190279 
L 295.390642 215.570766 
L 295.700668 215.570766 
L 295.390642 214.951252 
L 295.080615 214.641496 
L 294.770588 214.641496 
L 295.390642 214.021982 
L 296.940776 213.712225 
L 298.800938 212.782955 
L 299.731018 212.473198 
L 300.971126 213.092712 
L 300.971126 214.021982 
L 300.661099 214.331739 
L 300.041045 214.331739 
L 299.110964 214.641496 
L 298.180884 214.641496 
L 297.56083 214.951252 
L 296.010695 214.641496 
L 295.390642 214.021982 
L 294.770588 213.712225 
L 294.460561 213.712225 
L 293.53048 212.782955 
L 292.290372 211.853685 
L 291.670319 211.543928 
L 290.740238 210.924415 
L 289.810157 209.995145 
L 288.880076 209.375631 
L 288.570049 208.756118 
L 287.639969 207.826848 
L 287.329942 206.587821 
L 287.329942 205.348794 
L 287.019915 204.109767 
L 286.709888 203.490254 
L 286.709888 203.180497 
L 286.399861 202.251227 
L 284.849727 200.702443 
L 285.159753 200.08293 
L 286.709888 200.08293 
L 289.810157 199.463416 
L 290.740238 199.153659 
L 290.740238 199.153659 
L 290.740238 198.843903 
L 290.120184 197.604876 
L 289.810157 196.675606 
L 289.190103 195.746335 
L 288.570049 194.507309 
L 286.709888 193.268282 
L 284.849727 192.958525 
L 282.059484 192.339012 
L 279.269242 191.409741 
L 278.649188 191.719498 
L 277.099054 191.099985 
L 276.479 190.480471 
L 276.168973 189.860958 
L 275.858946 187.382904 
L 273.998785 184.595093 
L 275.858946 180.258499 
L 277.719108 176.851175 
L 282.059484 172.204825 
L 270.588489 164.770663 
L 261.907735 162.602366 
L 248.266551 157.646259 
L 232.455178 148.353557 
L 223.154371 140.919396 
L 211.993402 123.263262 
L 195.251949 108.085183 
L 187.191249 98.172968 
L 167.349527 67.507052 
L 159.908881 60.072891 
L 150.298047 56.35581 
L 145.027589 54.807027 
L 144.407535 54.187513 
L 145.337616 53.877757 
L 144.407535 53.568 
L 132.626513 53.568 
L 274.618838 53.568 
L 276.789027 77.419268 
L 273.378731 120.165695 
L 269.968435 145.875503 
L 265.628058 162.292609 
L 258.497439 184.595093 
L 250.436739 203.490254 
L 234.625367 229.200061 
L 231.835125 234.775682 
L 230.28499 236.634223 
L 228.734855 237.87325 
L 227.494748 238.492763 
L 225.324559 237.87325 
L 222.22429 236.324466 
L 219.124021 232.297629 
L 214.783644 226.412251 
L 211.063321 218.668333 
L 206.722945 209.375631 
L 202.072541 198.534146 
L 197.732164 187.692661 
L 188.12133 167.248717 
L 183.780953 158.575529 
L 179.13055 151.451124 
L 174.790173 146.18526 
L 171.379877 142.468179 
L 168.899661 140.299882 
L 167.659554 138.751099 
L 167.659554 138.131585 
L 170.449796 140.919396 
L 183.780953 145.25599 
L 191.841653 149.592584 
L 195.561976 152.380394 
L 202.072541 158.885286 
L 208.583106 166.93896 
L 215.403698 174.373122 
L 220.984183 183.04631 
L 226.564667 191.099985 
L 231.215071 198.224389 
L 234.625367 205.658551 
L 237.725636 212.782955 
L 239.895824 218.358576 
L 241.755986 223.62444 
L 243.30612 227.651278 
L 244.856255 230.748845 
L 245.786336 233.536656 
L 246.096363 235.704953 
L 245.786336 236.94398 
L 245.476309 237.253736 
L 245.476309 237.253736 
L 246.096363 237.253736 
L 247.956524 236.324466 
L 248.266551 235.704953 
L 247.956524 234.465926 
L 247.33647 233.536656 
L 244.546228 230.748845 
L 242.686066 228.270791 
L 240.515878 225.792738 
L 238.035663 222.69517 
L 231.525098 216.809793 
L 227.184721 214.331739 
L 223.154371 210.924415 
L 218.19394 207.207334 
L 213.543537 203.490254 
L 205.792864 198.224389 
L 206.722945 186.453634 
L 206.102891 181.807283 
L 204.242729 177.780446 
L 199.592326 170.965798 
L 197.11211 168.177987 
L 195.251949 165.390177 
L 189.671465 161.982853 
L 180.990711 158.265772 
L 179.13055 160.434069 
L 177.270388 161.363339 
L 175.720253 161.363339 
L 173.550065 161.673096 
L 170.449796 162.292609 
L 167.659554 163.22188 
L 164.869312 163.841393 
L 162.389096 164.15115 
L 159.598854 163.841393 
L 157.118639 163.22188 
L 156.808612 160.434069 
L 156.808612 157.336502 
L 156.188558 153.619421 
L 153.398316 148.0438 
L 154.638423 141.229152 
L 155.258477 135.963288 
L 156.188558 131.626694 
L 156.188558 129.458397 
L 155.258477 127.599857 
L 154.94845 126.36083 
L 154.01837 125.43156 
L 153.708343 124.812046 
L 152.778262 124.812046 
L 152.778262 124.192533 
L 150.298047 122.024236 
L 149.057939 118.307155 
L 151.538154 114.280318 
L 154.328397 109.32421 
L 156.498585 104.058346 
L 158.9788 98.792481 
L 161.459016 94.146131 
L 163.00915 90.738807 
L 165.489365 89.190023 
L 166.419446 91.048563 
L 167.349527 96.624184 
L 170.139769 105.916886 
L 171.06985 119.236425 
L 171.06985 134.414504 
L 172.930011 150.521854 
L 175.1002 166.319447 
L 177.890442 181.497526 
L 181.300738 195.436579 
L 191.221599 225.482981 
L 195.872003 242.829357 
L 199.282299 252.741572 
L 202.692595 261.724517 
L 205.482837 269.778192 
L 207.032972 276.59284 
L 208.893133 279.070894 
L 214.783644 283.717245 
L 219.744075 288.053839 
L 226.874694 291.461163 
L 231.835125 287.744082 
L 234.005313 288.053839 
L 244.236201 291.151406 
L 250.436739 291.770919 
L 253.226982 291.770919 
L 257.877385 291.151406 
L 262.837816 288.673352 
L 264.38795 287.744082 
L 260.977654 280.929434 
L 261.597708 279.070894 
L 259.737547 275.044056 
L 257.257331 271.636732 
L 255.087143 268.229408 
L 254.467089 266.990382 
L 252.296901 263.273301 
L 251.36682 256.76841 
L 248.266551 240.66106 
L 247.33647 237.87325 
L 245.476309 231.678115 
L 242.996093 224.243954 
L 235.245421 208.756118 
L 223.464398 191.099985 
L 220.674156 180.878013 
L 216.023752 166.93896 
L 212.303429 162.602366 
L 206.722945 153.619421 
L 202.072541 143.397449 
L 190.911572 124.192533 
L 186.261169 113.970561 
L 182.540846 101.890049 
L 178.820523 88.880266 
L 176.03028 74.941214 
L 174.170119 63.170458 
L 171.999931 57.904594 
L 169.519715 55.736297 
L 168.899661 54.49727 
L 168.279608 53.877757 
L 167.349527 53.877757 
L 167.349527 53.568 
L 149.367966 53.568 
L 151.848181 53.568 
L 150.298047 64.719242 
L 152.778262 71.53389 
L 156.188558 76.799754 
L 160.838962 78.968051 
L 166.729473 78.658294 
L 172.930011 75.560727 
L 180.680684 69.365593 
L 187.501276 62.241188 
L 194.631895 57.594837 
L 201.762514 55.42654 
L 210.443268 54.49727 
L 220.054102 53.877757 
L 230.28499 53.877757 
L 239.585797 53.568 
L 255.39717 53.568 
L 214.473618 53.568 
L 219.434048 53.568 
L 217.883914 68.746079 
L 218.503967 100.651022 
L 220.364129 129.14864 
L 223.154371 155.168205 
L 227.184721 177.780446 
L 231.835125 196.985362 
L 237.105582 213.402469 
L 243.616147 226.722008 
L 250.436739 238.183006 
L 257.877385 247.475708 
L 265.318031 255.219626 
L 273.378731 262.344031 
L 286.709888 272.875759 
L 291.360292 276.902597 
L 296.010695 280.619677 
L 300.041045 283.097731 
L 304.071395 285.885542 
L 307.481691 287.124569 
L 313.062176 289.292866 
L 316.782498 290.222136 
L 320.192795 291.461163 
L 323.603091 294.55873 
L 326.393333 295.488 
L 328.253494 295.178243 
L 329.183575 294.248973 
L 328.563521 291.770919 
L 327.943467 290.222136 
L 324.843198 286.505055 
L 319.882768 281.858704 
L 313.992256 276.902597 
L 307.791718 271.946489 
L 300.971126 266.990382 
L 285.779807 255.529383 
L 277.719108 249.024492 
L 269.348381 241.900087 
L 264.077923 237.87325 
L 255.39717 223.934197 
L 250.436739 216.809793 
L 241.755986 205.658551 
L 232.455178 196.056092 
L 223.774425 186.763391 
L 218.813994 181.807283 
L 217.883914 175.612149 
L 216.023752 168.487744 
L 212.923483 161.363339 
L 209.20316 154.238935 
L 205.792864 149.282827 
L 201.452487 143.707206 
L 196.802084 138.751099 
L 193.081761 133.175478 
L 188.741384 129.458397 
L 185.951142 124.812046 
L 183.470926 120.165695 
L 180.990711 115.209588 
L 177.580415 109.633967 
L 174.480146 98.792481 
L 173.240038 92.28759 
L 171.999931 79.277808 
L 170.139769 74.3217 
L 169.519715 68.126566 
L 169.519715 62.241188 
L 168.589635 57.904594 
L 167.0395 55.42654 
L 165.489365 54.49727 
L 163.629204 53.877757 
L 160.528935 53.877757 
L 161.769042 53.568 
L 158.9788 53.568 
L 211.373348 53.568 
L 219.744075 63.170458 
L 227.804775 77.109511 
L 235.245421 92.28759 
L 240.515878 104.677859 
L 240.515878 117.068128 
L 243.616147 133.175478 
L 243.926174 145.875503 
L 247.33647 157.956015 
L 254.157062 168.487744 
L 262.527789 178.399959 
L 272.758677 188.621931 
L 282.679538 194.817065 
L 293.840507 201.94147 
L 307.791718 208.446361 
L 318.64266 209.065875 
L 326.393333 211.234172 
L 328.873548 212.782955 
L 336.934248 214.021982 
L 345.925028 215.880522 
L 356.155916 218.97809 
L 364.83667 222.075657 
L 372.277316 225.482981 
L 385.298446 230.129332 
L 390.568904 233.226899 
L 395.529334 236.324466 
L 398.009549 238.80252 
L 398.629603 241.59033 
L 398.629603 244.068384 
L 398.629603 243.448871 
L 396.149388 241.59033 
L 391.809011 237.563493 
L 381.578123 226.102494 
L 375.377585 219.287846 
L 368.246966 211.853685 
L 360.186266 203.180497 
L 351.195486 192.958525 
L 341.274625 182.426796 
L 329.493602 171.895068 
L 318.022606 160.743826 
L 306.241583 148.663314 
L 292.290372 137.202315 
L 278.959215 124.812046 
L 266.558139 111.492507 
L 252.916955 98.482725 
L 240.825905 85.163186 
L 227.804775 71.843647 
L 216.023752 61.931431 
L 204.242729 57.285081 
L 194.011841 55.42654 
L 183.470926 54.49727 
L 175.1002 53.877757 
L 167.0395 53.877757 
L 161.459016 53.568 
L 76.821669 53.568 
L 207.342999 53.568 
L 218.19394 66.887539 
L 229.664936 86.092456 
L 238.965744 103.748589 
L 247.33647 121.404722 
L 250.436739 131.007181 
L 255.39717 150.212097 
L 256.947304 159.814556 
L 260.667627 188.621931 
L 262.217762 205.348794 
L 266.868166 224.863467 
L 270.898515 233.846412 
L 276.479 242.209844 
L 283.609619 249.334248 
L 288.880076 255.219626 
L 293.220453 259.865977 
L 295.080615 264.512328 
L 297.250803 271.326976 
L 298.800938 273.495273 
L 301.59118 275.66357 
L 304.381422 275.66357 
L 306.861637 273.185516 
L 309.341853 272.875759 
L 310.271933 270.707462 
L 311.512041 269.778192 
L 313.372202 268.229408 
L 314.61231 266.061111 
L 315.542391 263.583058 
L 315.852418 260.795247 
L 315.542391 257.69768 
L 313.992256 255.219626 
L 311.202014 253.361086 
L 307.171664 251.502545 
L 301.901207 249.334248 
L 295.700668 247.165951 
L 288.260023 248.095222 
L 279.579269 244.378141 
L 276.168973 241.280574 
L 272.758677 238.492763 
L 272.758677 238.492763 
" clip-path="url(#paa8f4b9934)" style="fill: none; stroke: #000000; stroke-width: 1.5; stroke-linecap: square"/>
   </g>
   <g id="line2d_6">
    <path d="M 298.180884 213.402469 
" clip-path="url(#paa8f4b9934)" style="fill: none; stroke: #000000; stroke-width: 1.5; stroke-linecap: square"/>
    <defs>
     <path id="m4a5fa6f022" d="M 0 5 
C 1.326016 5 2.597899 4.473168 3.535534 3.535534 
C 4.473168 2.597899 5 1.326016 5 0 
C 5 -1.326016 4.473168 -2.597899 3.535534 -3.535534 
C 2.597899 -4.473168 1.326016 -5 0 -5 
C -1.326016 -5 -2.597899 -4.473168 -3.535534 -3.535534 
C -4.473168 -2.597899 -5 -1.326016 -5 0 
C -5 1.326016 -4.473168 2.597899 -3.535534 3.535534 
C -2.597899 4.473168 -1.326016 5 0 5 
z
" style="stroke: #000000"/>
    </defs>
    <g clip-path="url(#paa8f4b9934)">
     <use xlink:href="#m4a5fa6f022" x="298.180884" y="213.402469" style="stroke: #000000"/>
    </g>
   </g>
   <g id="line2d_7">
    <path d="M 272.758677 238.492763 
" clip-path="url(#paa8f4b9934)" style="fill: none; stroke: #000000; stroke-width: 1.5; stroke-linecap: square"/>
    <defs>
     <path id="m3e7877b3b7" d="M -5 5 
L 5 5 
L 5 -5 
L -5 -5 
z
" style="stroke: #000000; stroke-linejoin: miter"/>
    </defs>
    <g clip-path="url(#paa8f4b9934)">
     <use xlink:href="#m3e7877b3b7" x="272.758677" y="238.492763" style="stroke: #000000; stroke-linejoin: miter"/>
    </g>
   </g>
   <g id="line2d_8">
    <path d="M 336.624221 152.690151 
L 344.064867 148.0438 
L 352.125566 142.158423 
L 358.636132 135.343775 
L 361.736401 127.2901 
L 361.116347 118.926668 
L 356.77597 112.731534 
L 349.335324 107.155913 
L 339.72449 103.129076 
L 328.873548 101.890049 
L 315.852418 103.129076 
L 300.971126 106.536399 
L 285.159753 111.18275 
L 271.518569 117.068128 
L 260.047574 123.263262 
L 249.196632 130.07791 
L 238.655717 137.202315 
L 230.595017 144.946233 
L 221.29421 151.141367 
L 211.993402 153.619421 
L 204.242729 152.070638 
L 198.662245 147.11453 
L 192.461707 137.821828 
L 189.051411 127.909613 
L 182.540846 114.590074 
L 183.780953 106.846156 
L 176.650334 91.048563 
L 168.589635 77.729024 
L 159.908881 65.028999 
L 151.848181 58.833864 
L 144.407535 56.046054 
L 142.547374 54.807027 
L 149.677993 54.187513 
L 139.137078 53.568 
L 139.137078 53.568 
L 197.422137 53.568 
L 200.832433 60.382648 
L 205.792864 78.038781 
L 213.853564 96.624184 
L 224.084452 114.590074 
L 232.455178 132.246207 
L 239.27577 147.734044 
L 242.686066 160.434069 
L 248.576578 171.585311 
L 254.157062 180.878013 
L 259.117493 188.002417 
L 264.077923 192.958525 
L 268.728327 196.056092 
L 271.828596 197.914633 
L 275.238892 198.843903 
L 279.579269 197.604876 
L 284.5397 195.436579 
L 291.360292 191.719498 
L 298.800938 187.073147 
L 307.481691 181.18777 
L 314.61231 175.921905 
L 325.463252 165.08042 
L 328.873548 160.434069 
L 331.043736 156.097475 
L 332.593871 151.451124 
L 329.183575 145.875503 
L 326.083306 141.848666 
L 323.293064 139.060855 
L 321.432902 136.582802 
L 321.432902 134.414504 
L 321.122875 132.865721 
L 321.122875 132.865721 
L 321.122875 133.485234 
L 322.362983 134.724261 
L 323.603091 136.273045 
L 324.533171 138.441342 
L 325.773279 140.919396 
L 326.70336 144.946233 
L 325.773279 148.353557 
L 322.052956 151.760881 
L 317.402552 155.477962 
L 312.442122 159.814556 
L 309.031826 164.15115 
L 308.721799 171.275554 
L 309.961906 177.780446 
L 309.341853 183.356067 
L 309.65188 188.931688 
L 310.271933 194.507309 
L 312.132095 199.153659 
L 316.472472 206.278064 
L 322.052956 211.234172 
L 325.153225 210.614658 
L 329.183575 213.712225 
L 331.043736 217.739063 
L 334.454032 221.7659 
L 337.864329 226.412251 
L 341.274625 230.748845 
L 343.444813 235.395196 
L 345.925028 240.041547 
L 349.335324 245.926924 
L 351.81554 250.883032 
L 354.915809 255.529383 
L 359.566212 260.795247 
L 363.596562 262.653787 
L 366.076777 265.751355 
L 367.936939 269.158679 
L 370.727181 273.805029 
L 375.067558 276.902597 
L 378.787881 280.000164 
L 378.167827 279.38065 
L 376.927719 278.141624 
L 374.447504 275.353813 
L 371.347235 270.707462 
L 367.626912 264.512328 
L 364.216616 256.76841 
L 353.055647 239.73179 
L 345.925028 230.129332 
L 336.004167 219.597603 
L 327.323413 208.756118 
L 318.332633 197.295119 
L 309.341853 184.595093 
L 299.731018 170.656041 
L 290.430211 155.787718 
L 281.129404 140.299882 
L 272.138623 124.812046 
L 262.527789 109.633967 
L 256.637278 97.243698 
L 247.956524 66.577782 
L 244.546228 59.453378 
L 240.825905 56.35581 
L 236.175501 54.807027 
L 232.145151 54.187513 
L 224.084452 53.568 
L 92.323014 53.568 
L 295.390642 53.568 
L 299.110964 65.028999 
L 303.141314 91.977834 
L 305.001476 116.138858 
L 305.001476 137.821828 
L 304.071395 156.407232 
L 304.691449 170.965798 
L 306.55161 184.285337 
L 309.65188 195.436579 
L 314.302283 214.021982 
L 315.852418 221.7659 
L 316.162445 230.439088 
L 317.402552 238.183006 
L 319.262714 244.687898 
L 321.742929 249.953762 
L 324.533171 254.290356 
L 327.943467 257.387923 
L 331.043736 259.55622 
L 334.764059 261.105004 
L 339.104436 260.795247 
L 339.104436 260.795247 
L 339.414463 262.034274 
L 340.964598 262.653787 
L 347.78519 263.583058 
L 349.645351 263.892814 
L 350.885459 262.963544 
L 351.505513 262.034274 
L 351.505513 262.034274 
L 352.74562 261.724517 
L 355.845889 258.62695 
L 357.396024 256.76841 
L 358.636132 254.909869 
L 356.465943 253.051329 
L 353.985728 252.431816 
L 352.435593 251.502545 
L 351.81554 249.644005 
L 351.81554 248.404978 
L 352.435593 247.165951 
L 351.81554 244.997654 
L 350.885459 244.378141 
L 351.195486 243.448871 
L 350.885459 242.209844 
L 351.505513 240.041547 
L 351.195486 238.492763 
L 348.405244 236.014709 
L 346.855109 235.085439 
L 339.414463 231.368359 
L 329.493602 227.341521 
L 320.502821 224.243954 
L 321.432902 223.934197 
L 322.983037 223.004927 
L 322.362983 221.7659 
L 320.812848 220.217117 
L 319.572741 217.739063 
L 313.992256 213.402469 
L 313.992256 213.402469 
L 304.381422 208.136604 
L 304.071395 206.278064 
L 291.050265 194.507309 
L 275.548919 184.595093 
L 270.588489 179.948743 
L 265.628058 174.682878 
L 255.707197 165.390177 
L 251.056793 160.124312 
L 244.856255 151.760881 
L 240.825905 145.25599 
L 237.105582 137.821828 
L 230.28499 119.855939 
L 233.385259 112.11202 
L 240.825905 103.748589 
L 245.786336 95.694914 
L 251.986874 86.092456 
L 256.947304 75.560727 
L 253.847035 63.789972 
L 250.746766 58.214351 
L 248.576578 55.736297 
L 246.716416 54.49727 
L 245.166282 53.877757 
L 244.546228 53.877757 
L 243.926174 53.568 
L 236.485528 53.568 
L 272.758677 53.568 
L 286.089834 82.685132 
L 292.600399 98.482725 
L 300.351072 113.970561 
L 306.861637 129.14864 
L 313.062176 144.32672 
L 320.192795 158.265772 
L 327.63344 170.656041 
L 335.384113 181.497526 
L 349.645351 198.224389 
L 353.055647 205.658551 
L 358.636132 214.021982 
L 358.636132 230.748845 
L 360.186266 237.87325 
L 361.116347 245.307411 
L 361.736401 251.502545 
L 360.496293 261.724517 
L 360.80632 266.061111 
L 362.046428 268.848922 
L 365.456724 272.256246 
L 373.517423 279.690407 
L 376.927719 281.239191 
L 379.097908 281.858704 
L 381.268096 281.239191 
L 381.88815 280.619677 
L 382.198177 278.761137 
L 381.88815 276.59284 
L 380.958069 274.424543 
L 376.307666 271.946489 
L 374.447504 268.848922 
L 370.107127 266.370868 
L 364.216616 263.892814 
L 356.155916 261.105004 
L 353.365674 259.55622 
L 351.81554 257.69768 
L 351.195486 256.148896 
L 351.81554 253.980599 
L 352.435593 250.883032 
L 353.055647 243.758627 
L 353.365674 239.112277 
L 353.365674 224.553711 
L 354.295755 219.90736 
L 355.225836 214.021982 
L 355.535862 212.782955 
L 355.535862 214.021982 
L 355.225836 214.951252 
L 354.915809 216.809793 
L 354.915809 222.69517 
L 355.845889 225.792738 
L 357.085997 228.580548 
L 356.77597 230.748845 
L 354.605782 232.607385 
L 355.535862 236.014709 
L 356.77597 237.87325 
L 357.396024 239.112277 
L 352.125566 236.324466 
L 346.855109 237.253736 
L 346.235055 238.80252 
L 346.235055 238.183006 
L 344.994947 237.87325 
L 344.684921 236.634223 
L 343.134786 233.536656 
L 340.964598 232.297629 
L 338.794409 231.368359 
L 336.934248 230.748845 
L 335.384113 229.509818 
L 333.523952 228.580548 
L 332.903898 228.580548 
L 332.903898 226.722008 
L 333.523952 226.102494 
L 333.833979 224.863467 
L 333.523952 223.004927 
L 332.593871 220.217117 
L 330.73371 217.429306 
L 325.153225 208.446361 
L 321.432902 201.94147 
L 316.782498 194.197552 
L 303.451341 176.231662 
L 295.080615 166.00969 
L 285.46978 155.168205 
L 273.998785 143.087693 
L 261.287681 130.07791 
L 247.33647 117.068128 
L 232.455178 102.819319 
L 217.26386 87.641239 
L 202.382568 72.153403 
L 187.191249 61.931431 
L 171.379877 57.594837 
L 155.878531 55.42654 
L 140.687212 54.49727 
L 126.736001 53.877757 
L 114.954979 53.877757 
L 106.274225 53.568 
L 92.943068 53.568 
L 94.493203 53.568 
L 97.903499 54.807027 
L 100.383714 67.197296 
L 105.034118 77.729024 
L 109.374494 87.021726 
L 114.644952 95.075401 
L 118.985329 100.341265 
L 122.395625 104.987616 
L 125.805921 108.085183 
L 128.286136 111.18275 
L 130.766351 113.660804 
L 132.93654 117.068128 
L 134.486674 120.785209 
L 134.486674 126.36083 
L 133.556593 133.175478 
L 133.86662 139.680369 
L 138.827051 143.397449 
L 142.237347 148.97307 
L 148.747912 153.929178 
L 161.769042 163.22188 
L 173.860092 170.965798 
L 178.820523 173.753608 
L 182.850872 176.541419 
L 185.951142 178.090202 
L 187.501276 180.258499 
L 188.12133 181.807283 
L 188.12133 182.11704 
L 187.811303 183.04631 
L 186.881222 183.665823 
L 185.951142 184.595093 
L 184.711034 185.524364 
L 183.780953 185.524364 
L 182.850872 185.83412 
L 182.230819 185.83412 
L 180.990711 183.97558 
L 180.370657 183.356067 
L 180.370657 182.426796 
L 179.750603 181.807283 
L 180.06063 180.878013 
L 180.370657 179.329229 
L 180.990711 176.851175 
L 183.780953 170.346284 
L 186.261169 163.531636 
L 187.811303 160.434069 
L 188.741384 157.956015 
L 190.291518 154.858448 
L 193.081761 147.734044 
L 194.321868 145.25599 
L 195.872003 142.468179 
L 198.042191 138.131585 
L 199.902353 133.794991 
L 200.522406 131.316937 
L 202.382568 126.980343 
L 204.862783 123.882776 
L 205.792864 123.882776 
L 205.792864 124.812046 
L 206.102891 125.741316 
L 206.102891 127.909613 
L 204.862783 129.14864 
L 203.622676 130.07791 
L 203.002622 130.387667 
L 202.072541 131.316937 
L 199.902353 134.724261 
L 196.18203 140.609639 
L 191.531626 147.424287 
L 189.671465 149.592584 
L 188.12133 150.831611 
L 185.021061 152.070638 
L 180.990711 153.309665 
L 179.13055 152.999908 
L 177.890442 151.451124 
L 179.13055 148.97307 
L 179.13055 147.11453 
L 178.820523 145.875503 
L 178.820523 142.777936 
L 179.13055 142.468179 
L 180.370657 141.848666 
L 181.610765 140.609639 
L 183.160899 138.751099 
L 184.09098 136.892558 
L 184.711034 135.034018 
L 184.401007 134.104748 
L 184.711034 132.865721 
L 185.021061 132.246207 
L 185.641115 131.936451 
L 187.191249 131.007181 
L 188.12133 131.316937 
L 189.981491 133.175478 
L 190.601545 134.414504 
L 190.601545 136.892558 
L 190.911572 138.441342 
L 190.911572 144.636476 
L 190.601545 147.11453 
L 189.981491 150.212097 
L 189.981491 154.548691 
L 189.671465 156.716988 
L 188.741384 158.265772 
L 188.12133 158.575529 
L 186.881222 158.885286 
L 185.021061 159.504799 
L 184.401007 159.195042 
L 182.850872 159.195042 
L 180.990711 158.885286 
L 177.270388 159.504799 
L 176.650334 158.575529 
L 176.960361 157.336502 
L 180.990711 152.380394 
L 183.780953 148.97307 
L 186.881222 145.875503 
L 192.771734 140.609639 
L 198.352218 136.273045 
L 200.21238 134.414504 
L 201.762514 132.246207 
L 203.312649 130.387667 
L 207.032972 128.529127 
L 209.20316 128.529127 
L 211.063321 128.838883 
L 212.613456 130.07791 
L 213.543537 131.936451 
L 214.783644 133.175478 
L 215.093671 135.963288 
L 215.093671 141.538909 
L 215.713725 146.18526 
L 216.333779 152.690151 
L 216.333779 161.363339 
L 216.333779 161.363339 
" clip-path="url(#paa8f4b9934)" style="fill: none; stroke: #ffa07a; stroke-width: 1.5; stroke-linecap: square"/>
   </g>
   <g id="line2d_9">
    <path d="M 336.624221 152.690151 
" clip-path="url(#paa8f4b9934)" style="fill: none; stroke: #ffa07a; stroke-width: 1.5; stroke-linecap: square"/>
    <defs>
     <path id="m9f94965149" d="M 0 5 
C 1.326016 5 2.597899 4.473168 3.535534 3.535534 
C 4.473168 2.597899 5 1.326016 5 0 
C 5 -1.326016 4.473168 -2.597899 3.535534 -3.535534 
C 2.597899 -4.473168 1.326016 -5 0 -5 
C -1.326016 -5 -2.597899 -4.473168 -3.535534 -3.535534 
C -4.473168 -2.597899 -5 -1.326016 -5 0 
C -5 1.326016 -4.473168 2.597899 -3.535534 3.535534 
C -2.597899 4.473168 -1.326016 5 0 5 
z
" style="stroke: #ffa07a"/>
    </defs>
    <g clip-path="url(#paa8f4b9934)">
     <use xlink:href="#m9f94965149" x="336.624221" y="152.690151" style="fill: #ffa07a; stroke: #ffa07a"/>
    </g>
   </g>
   <g id="line2d_10">
    <path d="M 216.333779 161.363339 
" clip-path="url(#paa8f4b9934)" style="fill: none; stroke: #ffa07a; stroke-width: 1.5; stroke-linecap: square"/>
    <defs>
     <path id="m1944e5de01" d="M -5 5 
L 5 5 
L 5 -5 
L -5 -5 
z
" style="stroke: #ffa07a; stroke-linejoin: miter"/>
    </defs>
    <g clip-path="url(#paa8f4b9934)">
     <use xlink:href="#m1944e5de01" x="216.333779" y="161.363339" style="fill: #ffa07a; stroke: #ffa07a; stroke-linejoin: miter"/>
    </g>
   </g>
   <g id="line2d_11">
    <path d="M 93.103718 102.503754 
" clip-path="url(#paa8f4b9934)" style="fill: none; stroke: #ff0000; stroke-width: 1.5; stroke-linecap: square"/>
    <defs>
     <path id="me09f863851" d="M -2.5 5 
L 0 2.5 
L 2.5 5 
L 5 2.5 
L 2.5 0 
L 5 -2.5 
L 2.5 -5 
L 0 -2.5 
L -2.5 -5 
L -5 -2.5 
L -2.5 0 
L -5 2.5 
z
" style="stroke: #ff0000; stroke-linejoin: miter"/>
    </defs>
    <g clip-path="url(#paa8f4b9934)">
     <use xlink:href="#me09f863851" x="93.103718" y="102.503754" style="fill: #ff0000; stroke: #ff0000; stroke-linejoin: miter"/>
    </g>
   </g>
   <g id="line2d_12">
    <path d="M 108.986961 93.464666 
" clip-path="url(#paa8f4b9934)" style="fill: none; stroke: #ffa07a; stroke-width: 1.5; stroke-linecap: square"/>
    <defs>
     <path id="m1e10303b46" d="M -2.5 5 
L 0 2.5 
L 2.5 5 
L 5 2.5 
L 2.5 0 
L 5 -2.5 
L 2.5 -5 
L 0 -2.5 
L -2.5 -5 
L -5 -2.5 
L -2.5 0 
L -5 2.5 
z
" style="stroke: #ffa07a; stroke-linejoin: miter"/>
    </defs>
    <g clip-path="url(#paa8f4b9934)">
     <use xlink:href="#m1e10303b46" x="108.986961" y="93.464666" style="fill: #ffa07a; stroke: #ffa07a; stroke-linejoin: miter"/>
    </g>
   </g>
   <g id="patch_3">
    <path d="M 57.6 307.584 
L 57.6 41.472 
" style="fill: none; stroke: #000000; stroke-width: 0.8; stroke-linejoin: miter; stroke-linecap: square"/>
   </g>
   <g id="patch_4">
    <path d="M 57.6 307.584 
L 414.72 307.584 
" style="fill: none; stroke: #000000; stroke-width: 0.8; stroke-linejoin: miter; stroke-linecap: square"/>
   </g>
   <g id="legend_1">
    <g id="patch_5">
     <path d="M 241.591875 141.54075 
L 404.22 141.54075 
Q 407.22 141.54075 407.22 138.54075 
L 407.22 51.972 
Q 407.22 48.972 404.22 48.972 
L 241.591875 48.972 
Q 238.591875 48.972 238.591875 51.972 
L 238.591875 138.54075 
Q 238.591875 141.54075 241.591875 141.54075 
z
" style="fill: #ffffff; opacity: 0.8; stroke: #cccccc; stroke-linejoin: miter"/>
    </g>
    <g id="line2d_13">
     <path d="M 244.591875 61.119656 
L 259.591875 61.119656 
L 274.591875 61.119656 
" style="fill: none; stroke: #000000; stroke-width: 1.5; stroke-linecap: square"/>
    </g>
    <g id="text_7">
     <!-- Trajectory -->
     <g transform="translate(286.591875 66.369656)scale(0.15 -0.15)">
      <defs>
       <path id="DejaVuSans-54" d="M -19 4666 
L 3928 4666 
L 3928 4134 
L 2272 4134 
L 2272 0 
L 1638 0 
L 1638 4134 
L -19 4134 
L -19 4666 
z
" transform="scale(0.015625)"/>
       <path id="DejaVuSans-72" d="M 2631 2963 
Q 2534 3019 2420 3045 
Q 2306 3072 2169 3072 
Q 1681 3072 1420 2755 
Q 1159 2438 1159 1844 
L 1159 0 
L 581 0 
L 581 3500 
L 1159 3500 
L 1159 2956 
Q 1341 3275 1631 3429 
Q 1922 3584 2338 3584 
Q 2397 3584 2469 3576 
Q 2541 3569 2628 3553 
L 2631 2963 
z
" transform="scale(0.015625)"/>
       <path id="DejaVuSans-61" d="M 2194 1759 
Q 1497 1759 1228 1600 
Q 959 1441 959 1056 
Q 959 750 1161 570 
Q 1363 391 1709 391 
Q 2188 391 2477 730 
Q 2766 1069 2766 1631 
L 2766 1759 
L 2194 1759 
z
M 3341 1997 
L 3341 0 
L 2766 0 
L 2766 531 
Q 2569 213 2275 61 
Q 1981 -91 1556 -91 
Q 1019 -91 701 211 
Q 384 513 384 1019 
Q 384 1609 779 1909 
Q 1175 2209 1959 2209 
L 2766 2209 
L 2766 2266 
Q 2766 2663 2505 2880 
Q 2244 3097 1772 3097 
Q 1472 3097 1187 3025 
Q 903 2953 641 2809 
L 641 3341 
Q 956 3463 1253 3523 
Q 1550 3584 1831 3584 
Q 2591 3584 2966 3190 
Q 3341 2797 3341 1997 
z
" transform="scale(0.015625)"/>
       <path id="DejaVuSans-6a" d="M 603 3500 
L 1178 3500 
L 1178 -63 
Q 1178 -731 923 -1031 
Q 669 -1331 103 -1331 
L -116 -1331 
L -116 -844 
L 38 -844 
Q 366 -844 484 -692 
Q 603 -541 603 -63 
L 603 3500 
z
M 603 4863 
L 1178 4863 
L 1178 4134 
L 603 4134 
L 603 4863 
z
" transform="scale(0.015625)"/>
       <path id="DejaVuSans-65" d="M 3597 1894 
L 3597 1613 
L 953 1613 
Q 991 1019 1311 708 
Q 1631 397 2203 397 
Q 2534 397 2845 478 
Q 3156 559 3463 722 
L 3463 178 
Q 3153 47 2828 -22 
Q 2503 -91 2169 -91 
Q 1331 -91 842 396 
Q 353 884 353 1716 
Q 353 2575 817 3079 
Q 1281 3584 2069 3584 
Q 2775 3584 3186 3129 
Q 3597 2675 3597 1894 
z
M 3022 2063 
Q 3016 2534 2758 2815 
Q 2500 3097 2075 3097 
Q 1594 3097 1305 2825 
Q 1016 2553 972 2059 
L 3022 2063 
z
" transform="scale(0.015625)"/>
       <path id="DejaVuSans-63" d="M 3122 3366 
L 3122 2828 
Q 2878 2963 2633 3030 
Q 2388 3097 2138 3097 
Q 1578 3097 1268 2742 
Q 959 2388 959 1747 
Q 959 1106 1268 751 
Q 1578 397 2138 397 
Q 2388 397 2633 464 
Q 2878 531 3122 666 
L 3122 134 
Q 2881 22 2623 -34 
Q 2366 -91 2075 -91 
Q 1284 -91 818 406 
Q 353 903 353 1747 
Q 353 2603 823 3093 
Q 1294 3584 2113 3584 
Q 2378 3584 2631 3529 
Q 2884 3475 3122 3366 
z
" transform="scale(0.015625)"/>
       <path id="DejaVuSans-74" d="M 1172 4494 
L 1172 3500 
L 2356 3500 
L 2356 3053 
L 1172 3053 
L 1172 1153 
Q 1172 725 1289 603 
Q 1406 481 1766 481 
L 2356 481 
L 2356 0 
L 1766 0 
Q 1100 0 847 248 
Q 594 497 594 1153 
L 594 3053 
L 172 3053 
L 172 3500 
L 594 3500 
L 594 4494 
L 1172 4494 
z
" transform="scale(0.015625)"/>
       <path id="DejaVuSans-6f" d="M 1959 3097 
Q 1497 3097 1228 2736 
Q 959 2375 959 1747 
Q 959 1119 1226 758 
Q 1494 397 1959 397 
Q 2419 397 2687 759 
Q 2956 1122 2956 1747 
Q 2956 2369 2687 2733 
Q 2419 3097 1959 3097 
z
M 1959 3584 
Q 2709 3584 3137 3096 
Q 3566 2609 3566 1747 
Q 3566 888 3137 398 
Q 2709 -91 1959 -91 
Q 1206 -91 779 398 
Q 353 888 353 1747 
Q 353 2609 779 3096 
Q 1206 3584 1959 3584 
z
" transform="scale(0.015625)"/>
       <path id="DejaVuSans-79" d="M 2059 -325 
Q 1816 -950 1584 -1140 
Q 1353 -1331 966 -1331 
L 506 -1331 
L 506 -850 
L 844 -850 
Q 1081 -850 1212 -737 
Q 1344 -625 1503 -206 
L 1606 56 
L 191 3500 
L 800 3500 
L 1894 763 
L 2988 3500 
L 3597 3500 
L 2059 -325 
z
" transform="scale(0.015625)"/>
      </defs>
      <use xlink:href="#DejaVuSans-54"/>
      <use xlink:href="#DejaVuSans-72" x="46.333984"/>
      <use xlink:href="#DejaVuSans-61" x="87.447266"/>
      <use xlink:href="#DejaVuSans-6a" x="148.726562"/>
      <use xlink:href="#DejaVuSans-65" x="176.509766"/>
      <use xlink:href="#DejaVuSans-63" x="238.033203"/>
      <use xlink:href="#DejaVuSans-74" x="293.013672"/>
      <use xlink:href="#DejaVuSans-6f" x="332.222656"/>
      <use xlink:href="#DejaVuSans-72" x="393.404297"/>
      <use xlink:href="#DejaVuSans-79" x="434.517578"/>
     </g>
    </g>
    <g id="line2d_14">
     <path d="M 244.591875 83.136844 
L 259.591875 83.136844 
L 274.591875 83.136844 
" style="fill: none; stroke: #000000; stroke-width: 1.5; stroke-linecap: square"/>
     <g>
      <use xlink:href="#m4a5fa6f022" x="259.591875" y="83.136844" style="stroke: #000000"/>
     </g>
    </g>
    <g id="text_8">
     <!-- Start -->
     <g transform="translate(286.591875 88.386844)scale(0.15 -0.15)">
      <defs>
       <path id="DejaVuSans-53" d="M 3425 4513 
L 3425 3897 
Q 3066 4069 2747 4153 
Q 2428 4238 2131 4238 
Q 1616 4238 1336 4038 
Q 1056 3838 1056 3469 
Q 1056 3159 1242 3001 
Q 1428 2844 1947 2747 
L 2328 2669 
Q 3034 2534 3370 2195 
Q 3706 1856 3706 1288 
Q 3706 609 3251 259 
Q 2797 -91 1919 -91 
Q 1588 -91 1214 -16 
Q 841 59 441 206 
L 441 856 
Q 825 641 1194 531 
Q 1563 422 1919 422 
Q 2459 422 2753 634 
Q 3047 847 3047 1241 
Q 3047 1584 2836 1778 
Q 2625 1972 2144 2069 
L 1759 2144 
Q 1053 2284 737 2584 
Q 422 2884 422 3419 
Q 422 4038 858 4394 
Q 1294 4750 2059 4750 
Q 2388 4750 2728 4690 
Q 3069 4631 3425 4513 
z
" transform="scale(0.015625)"/>
      </defs>
      <use xlink:href="#DejaVuSans-53"/>
      <use xlink:href="#DejaVuSans-74" x="63.476562"/>
      <use xlink:href="#DejaVuSans-61" x="102.685547"/>
      <use xlink:href="#DejaVuSans-72" x="163.964844"/>
      <use xlink:href="#DejaVuSans-74" x="205.078125"/>
     </g>
    </g>
    <g id="line2d_15">
     <path d="M 244.591875 105.154031 
L 259.591875 105.154031 
L 274.591875 105.154031 
" style="fill: none; stroke: #000000; stroke-width: 1.5; stroke-linecap: square"/>
     <g>
      <use xlink:href="#m3e7877b3b7" x="259.591875" y="105.154031" style="stroke: #000000; stroke-linejoin: miter"/>
     </g>
    </g>
    <g id="text_9">
     <!-- End -->
     <g transform="translate(286.591875 110.404031)scale(0.15 -0.15)">
      <defs>
       <path id="DejaVuSans-45" d="M 628 4666 
L 3578 4666 
L 3578 4134 
L 1259 4134 
L 1259 2753 
L 3481 2753 
L 3481 2222 
L 1259 2222 
L 1259 531 
L 3634 531 
L 3634 0 
L 628 0 
L 628 4666 
z
" transform="scale(0.015625)"/>
       <path id="DejaVuSans-6e" d="M 3513 2113 
L 3513 0 
L 2938 0 
L 2938 2094 
Q 2938 2591 2744 2837 
Q 2550 3084 2163 3084 
Q 1697 3084 1428 2787 
Q 1159 2491 1159 1978 
L 1159 0 
L 581 0 
L 581 3500 
L 1159 3500 
L 1159 2956 
Q 1366 3272 1645 3428 
Q 1925 3584 2291 3584 
Q 2894 3584 3203 3211 
Q 3513 2838 3513 2113 
z
" transform="scale(0.015625)"/>
       <path id="DejaVuSans-64" d="M 2906 2969 
L 2906 4863 
L 3481 4863 
L 3481 0 
L 2906 0 
L 2906 525 
Q 2725 213 2448 61 
Q 2172 -91 1784 -91 
Q 1150 -91 751 415 
Q 353 922 353 1747 
Q 353 2572 751 3078 
Q 1150 3584 1784 3584 
Q 2172 3584 2448 3432 
Q 2725 3281 2906 2969 
z
M 947 1747 
Q 947 1113 1208 752 
Q 1469 391 1925 391 
Q 2381 391 2643 752 
Q 2906 1113 2906 1747 
Q 2906 2381 2643 2742 
Q 2381 3103 1925 3103 
Q 1469 3103 1208 2742 
Q 947 2381 947 1747 
z
" transform="scale(0.015625)"/>
      </defs>
      <use xlink:href="#DejaVuSans-45"/>
      <use xlink:href="#DejaVuSans-6e" x="63.183594"/>
      <use xlink:href="#DejaVuSans-64" x="126.5625"/>
     </g>
    </g>
    <g id="line2d_16">
     <path d="M 244.591875 127.171219 
L 259.591875 127.171219 
L 274.591875 127.171219 
" style="fill: none; stroke: #ff0000; stroke-width: 1.5; stroke-linecap: square"/>
     <g>
      <use xlink:href="#me09f863851" x="259.591875" y="127.171219" style="fill: #ff0000; stroke: #ff0000; stroke-linejoin: miter"/>
     </g>
    </g>
    <g id="text_10">
     <!-- Target Location -->
     <g transform="translate(286.591875 132.421219)scale(0.15 -0.15)">
      <defs>
       <path id="DejaVuSans-67" d="M 2906 1791 
Q 2906 2416 2648 2759 
Q 2391 3103 1925 3103 
Q 1463 3103 1205 2759 
Q 947 2416 947 1791 
Q 947 1169 1205 825 
Q 1463 481 1925 481 
Q 2391 481 2648 825 
Q 2906 1169 2906 1791 
z
M 3481 434 
Q 3481 -459 3084 -895 
Q 2688 -1331 1869 -1331 
Q 1566 -1331 1297 -1286 
Q 1028 -1241 775 -1147 
L 775 -588 
Q 1028 -725 1275 -790 
Q 1522 -856 1778 -856 
Q 2344 -856 2625 -561 
Q 2906 -266 2906 331 
L 2906 616 
Q 2728 306 2450 153 
Q 2172 0 1784 0 
Q 1141 0 747 490 
Q 353 981 353 1791 
Q 353 2603 747 3093 
Q 1141 3584 1784 3584 
Q 2172 3584 2450 3431 
Q 2728 3278 2906 2969 
L 2906 3500 
L 3481 3500 
L 3481 434 
z
" transform="scale(0.015625)"/>
       <path id="DejaVuSans-20" transform="scale(0.015625)"/>
       <path id="DejaVuSans-4c" d="M 628 4666 
L 1259 4666 
L 1259 531 
L 3531 531 
L 3531 0 
L 628 0 
L 628 4666 
z
" transform="scale(0.015625)"/>
       <path id="DejaVuSans-69" d="M 603 3500 
L 1178 3500 
L 1178 0 
L 603 0 
L 603 3500 
z
M 603 4863 
L 1178 4863 
L 1178 4134 
L 603 4134 
L 603 4863 
z
" transform="scale(0.015625)"/>
      </defs>
      <use xlink:href="#DejaVuSans-54"/>
      <use xlink:href="#DejaVuSans-61" x="44.583984"/>
      <use xlink:href="#DejaVuSans-72" x="105.863281"/>
      <use xlink:href="#DejaVuSans-67" x="145.226562"/>
      <use xlink:href="#DejaVuSans-65" x="208.703125"/>
      <use xlink:href="#DejaVuSans-74" x="270.226562"/>
      <use xlink:href="#DejaVuSans-20" x="309.435547"/>
      <use xlink:href="#DejaVuSans-4c" x="341.222656"/>
      <use xlink:href="#DejaVuSans-6f" x="395.185547"/>
      <use xlink:href="#DejaVuSans-63" x="456.367188"/>
      <use xlink:href="#DejaVuSans-61" x="511.347656"/>
      <use xlink:href="#DejaVuSans-74" x="572.626953"/>
      <use xlink:href="#DejaVuSans-69" x="611.835938"/>
      <use xlink:href="#DejaVuSans-6f" x="639.619141"/>
      <use xlink:href="#DejaVuSans-6e" x="700.800781"/>
     </g>
    </g>
   </g>
  </g>
 </g>
 <defs>
  <clipPath id="paa8f4b9934">
   <rect x="57.6" y="41.472" width="357.12" height="266.112"/>
  </clipPath>
 </defs>
</svg>
