<?xml version="1.0" encoding="utf-8" standalone="no"?>
<!DOCTYPE svg PUBLIC "-//W3C//DTD SVG 1.1//EN"
  "http://www.w3.org/Graphics/SVG/1.1/DTD/svg11.dtd">
<svg xmlns:xlink="http://www.w3.org/1999/xlink" width="460.8pt" height="345.6pt" viewBox="0 0 460.8 345.6" xmlns="http://www.w3.org/2000/svg" version="1.1">
 <metadata>
  <rdf:RDF xmlns:dc="http://purl.org/dc/elements/1.1/" xmlns:cc="http://creativecommons.org/ns#" xmlns:rdf="http://www.w3.org/1999/02/22-rdf-syntax-ns#">
   <cc:Work>
    <dc:type rdf:resource="http://purl.org/dc/dcmitype/StillImage"/>
    <dc:date>2024-02-14T16:35:48.643996</dc:date>
    <dc:format>image/svg+xml</dc:format>
    <dc:creator>
     <cc:Agent>
      <dc:title>Matplotlib v3.5.0, https://matplotlib.org/</dc:title>
     </cc:Agent>
    </dc:creator>
   </cc:Work>
  </rdf:RDF>
 </metadata>
 <defs>
  <style type="text/css">*{stroke-linejoin: round; stroke-linecap: butt}</style>
 </defs>
 <g id="figure_1">
  <g id="patch_1">
   <path d="M 0 345.6 
L 460.8 345.6 
L 460.8 0 
L 0 0 
z
" style="fill: #ffffff"/>
  </g>
  <g id="axes_1">
   <g id="patch_2">
    <path d="M 57.6 307.584 
L 414.72 307.584 
L 414.72 41.472 
L 57.6 41.472 
z
" style="fill: #ffffff"/>
   </g>
   <g id="matplotlib.axis_1">
    <g id="xtick_1">
     <g id="line2d_1">
      <defs>
       <path id="ma495bda612" d="M 0 0 
L 0 3.5 
" style="stroke: #000000; stroke-width: 0.8"/>
      </defs>
      <g>
       <use xlink:href="#ma495bda612" x="73.832727" y="307.584" style="stroke: #000000; stroke-width: 0.8"/>
      </g>
     </g>
     <g id="text_1">
      <!-- 0 -->
      <g transform="translate(67.470227 329.780875)scale(0.2 -0.2)">
       <defs>
        <path id="DejaVuSans-30" d="M 2034 4250 
Q 1547 4250 1301 3770 
Q 1056 3291 1056 2328 
Q 1056 1369 1301 889 
Q 1547 409 2034 409 
Q 2525 409 2770 889 
Q 3016 1369 3016 2328 
Q 3016 3291 2770 3770 
Q 2525 4250 2034 4250 
z
M 2034 4750 
Q 2819 4750 3233 4129 
Q 3647 3509 3647 2328 
Q 3647 1150 3233 529 
Q 2819 -91 2034 -91 
Q 1250 -91 836 529 
Q 422 1150 422 2328 
Q 422 3509 836 4129 
Q 1250 4750 2034 4750 
z
" transform="scale(0.015625)"/>
       </defs>
       <use xlink:href="#DejaVuSans-30"/>
      </g>
     </g>
    </g>
    <g id="xtick_2">
     <g id="line2d_2">
      <g>
       <use xlink:href="#ma495bda612" x="399.962975" y="307.584" style="stroke: #000000; stroke-width: 0.8"/>
      </g>
     </g>
     <g id="text_2">
      <!-- 1 -->
      <g transform="translate(393.600475 329.780875)scale(0.2 -0.2)">
       <defs>
        <path id="DejaVuSans-31" d="M 794 531 
L 1825 531 
L 1825 4091 
L 703 3866 
L 703 4441 
L 1819 4666 
L 2450 4666 
L 2450 531 
L 3481 531 
L 3481 0 
L 794 0 
L 794 531 
z
" transform="scale(0.015625)"/>
       </defs>
       <use xlink:href="#DejaVuSans-31"/>
      </g>
     </g>
    </g>
    <g id="text_3">
     <!-- Normalised X position -->
     <g transform="translate(111.795937 353.137125)scale(0.2 -0.2)">
      <defs>
       <path id="DejaVuSans-Bold-4e" d="M 588 4666 
L 1931 4666 
L 3628 1466 
L 3628 4666 
L 4769 4666 
L 4769 0 
L 3425 0 
L 1728 3200 
L 1728 0 
L 588 0 
L 588 4666 
z
" transform="scale(0.015625)"/>
       <path id="DejaVuSans-Bold-6f" d="M 2203 2784 
Q 1831 2784 1636 2517 
Q 1441 2250 1441 1747 
Q 1441 1244 1636 976 
Q 1831 709 2203 709 
Q 2569 709 2762 976 
Q 2956 1244 2956 1747 
Q 2956 2250 2762 2517 
Q 2569 2784 2203 2784 
z
M 2203 3584 
Q 3106 3584 3614 3096 
Q 4122 2609 4122 1747 
Q 4122 884 3614 396 
Q 3106 -91 2203 -91 
Q 1297 -91 786 396 
Q 275 884 275 1747 
Q 275 2609 786 3096 
Q 1297 3584 2203 3584 
z
" transform="scale(0.015625)"/>
       <path id="DejaVuSans-Bold-72" d="M 3138 2547 
Q 2991 2616 2845 2648 
Q 2700 2681 2553 2681 
Q 2122 2681 1889 2404 
Q 1656 2128 1656 1613 
L 1656 0 
L 538 0 
L 538 3500 
L 1656 3500 
L 1656 2925 
Q 1872 3269 2151 3426 
Q 2431 3584 2822 3584 
Q 2878 3584 2943 3579 
Q 3009 3575 3134 3559 
L 3138 2547 
z
" transform="scale(0.015625)"/>
       <path id="DejaVuSans-Bold-6d" d="M 3781 2919 
Q 3994 3244 4286 3414 
Q 4578 3584 4928 3584 
Q 5531 3584 5847 3212 
Q 6163 2841 6163 2131 
L 6163 0 
L 5038 0 
L 5038 1825 
Q 5041 1866 5042 1909 
Q 5044 1953 5044 2034 
Q 5044 2406 4934 2573 
Q 4825 2741 4581 2741 
Q 4263 2741 4089 2478 
Q 3916 2216 3909 1719 
L 3909 0 
L 2784 0 
L 2784 1825 
Q 2784 2406 2684 2573 
Q 2584 2741 2328 2741 
Q 2006 2741 1831 2477 
Q 1656 2213 1656 1722 
L 1656 0 
L 531 0 
L 531 3500 
L 1656 3500 
L 1656 2988 
Q 1863 3284 2130 3434 
Q 2397 3584 2719 3584 
Q 3081 3584 3359 3409 
Q 3638 3234 3781 2919 
z
" transform="scale(0.015625)"/>
       <path id="DejaVuSans-Bold-61" d="M 2106 1575 
Q 1756 1575 1579 1456 
Q 1403 1338 1403 1106 
Q 1403 894 1545 773 
Q 1688 653 1941 653 
Q 2256 653 2472 879 
Q 2688 1106 2688 1447 
L 2688 1575 
L 2106 1575 
z
M 3816 1997 
L 3816 0 
L 2688 0 
L 2688 519 
Q 2463 200 2181 54 
Q 1900 -91 1497 -91 
Q 953 -91 614 226 
Q 275 544 275 1050 
Q 275 1666 698 1953 
Q 1122 2241 2028 2241 
L 2688 2241 
L 2688 2328 
Q 2688 2594 2478 2717 
Q 2269 2841 1825 2841 
Q 1466 2841 1156 2769 
Q 847 2697 581 2553 
L 581 3406 
Q 941 3494 1303 3539 
Q 1666 3584 2028 3584 
Q 2975 3584 3395 3211 
Q 3816 2838 3816 1997 
z
" transform="scale(0.015625)"/>
       <path id="DejaVuSans-Bold-6c" d="M 538 4863 
L 1656 4863 
L 1656 0 
L 538 0 
L 538 4863 
z
" transform="scale(0.015625)"/>
       <path id="DejaVuSans-Bold-69" d="M 538 3500 
L 1656 3500 
L 1656 0 
L 538 0 
L 538 3500 
z
M 538 4863 
L 1656 4863 
L 1656 3950 
L 538 3950 
L 538 4863 
z
" transform="scale(0.015625)"/>
       <path id="DejaVuSans-Bold-73" d="M 3272 3391 
L 3272 2541 
Q 2913 2691 2578 2766 
Q 2244 2841 1947 2841 
Q 1628 2841 1473 2761 
Q 1319 2681 1319 2516 
Q 1319 2381 1436 2309 
Q 1553 2238 1856 2203 
L 2053 2175 
Q 2913 2066 3209 1816 
Q 3506 1566 3506 1031 
Q 3506 472 3093 190 
Q 2681 -91 1863 -91 
Q 1516 -91 1145 -36 
Q 775 19 384 128 
L 384 978 
Q 719 816 1070 734 
Q 1422 653 1784 653 
Q 2113 653 2278 743 
Q 2444 834 2444 1013 
Q 2444 1163 2330 1236 
Q 2216 1309 1875 1350 
L 1678 1375 
Q 931 1469 631 1722 
Q 331 1975 331 2491 
Q 331 3047 712 3315 
Q 1094 3584 1881 3584 
Q 2191 3584 2531 3537 
Q 2872 3491 3272 3391 
z
" transform="scale(0.015625)"/>
       <path id="DejaVuSans-Bold-65" d="M 4031 1759 
L 4031 1441 
L 1416 1441 
Q 1456 1047 1700 850 
Q 1944 653 2381 653 
Q 2734 653 3104 758 
Q 3475 863 3866 1075 
L 3866 213 
Q 3469 63 3072 -14 
Q 2675 -91 2278 -91 
Q 1328 -91 801 392 
Q 275 875 275 1747 
Q 275 2603 792 3093 
Q 1309 3584 2216 3584 
Q 3041 3584 3536 3087 
Q 4031 2591 4031 1759 
z
M 2881 2131 
Q 2881 2450 2695 2645 
Q 2509 2841 2209 2841 
Q 1884 2841 1681 2658 
Q 1478 2475 1428 2131 
L 2881 2131 
z
" transform="scale(0.015625)"/>
       <path id="DejaVuSans-Bold-64" d="M 2919 2988 
L 2919 4863 
L 4044 4863 
L 4044 0 
L 2919 0 
L 2919 506 
Q 2688 197 2409 53 
Q 2131 -91 1766 -91 
Q 1119 -91 703 423 
Q 288 938 288 1747 
Q 288 2556 703 3070 
Q 1119 3584 1766 3584 
Q 2128 3584 2408 3439 
Q 2688 3294 2919 2988 
z
M 2181 722 
Q 2541 722 2730 984 
Q 2919 1247 2919 1747 
Q 2919 2247 2730 2509 
Q 2541 2772 2181 2772 
Q 1825 2772 1636 2509 
Q 1447 2247 1447 1747 
Q 1447 1247 1636 984 
Q 1825 722 2181 722 
z
" transform="scale(0.015625)"/>
       <path id="DejaVuSans-Bold-20" transform="scale(0.015625)"/>
       <path id="DejaVuSans-Bold-58" d="M 3188 2381 
L 4806 0 
L 3553 0 
L 2463 1594 
L 1381 0 
L 122 0 
L 1741 2381 
L 184 4666 
L 1441 4666 
L 2463 3163 
L 3481 4666 
L 4744 4666 
L 3188 2381 
z
" transform="scale(0.015625)"/>
       <path id="DejaVuSans-Bold-70" d="M 1656 506 
L 1656 -1331 
L 538 -1331 
L 538 3500 
L 1656 3500 
L 1656 2988 
Q 1888 3294 2169 3439 
Q 2450 3584 2816 3584 
Q 3463 3584 3878 3070 
Q 4294 2556 4294 1747 
Q 4294 938 3878 423 
Q 3463 -91 2816 -91 
Q 2450 -91 2169 54 
Q 1888 200 1656 506 
z
M 2400 2772 
Q 2041 2772 1848 2508 
Q 1656 2244 1656 1747 
Q 1656 1250 1848 986 
Q 2041 722 2400 722 
Q 2759 722 2948 984 
Q 3138 1247 3138 1747 
Q 3138 2247 2948 2509 
Q 2759 2772 2400 2772 
z
" transform="scale(0.015625)"/>
       <path id="DejaVuSans-Bold-74" d="M 1759 4494 
L 1759 3500 
L 2913 3500 
L 2913 2700 
L 1759 2700 
L 1759 1216 
Q 1759 972 1856 886 
Q 1953 800 2241 800 
L 2816 800 
L 2816 0 
L 1856 0 
Q 1194 0 917 276 
Q 641 553 641 1216 
L 641 2700 
L 84 2700 
L 84 3500 
L 641 3500 
L 641 4494 
L 1759 4494 
z
" transform="scale(0.015625)"/>
       <path id="DejaVuSans-Bold-6e" d="M 4056 2131 
L 4056 0 
L 2931 0 
L 2931 347 
L 2931 1631 
Q 2931 2084 2911 2256 
Q 2891 2428 2841 2509 
Q 2775 2619 2662 2680 
Q 2550 2741 2406 2741 
Q 2056 2741 1856 2470 
Q 1656 2200 1656 1722 
L 1656 0 
L 538 0 
L 538 3500 
L 1656 3500 
L 1656 2988 
Q 1909 3294 2193 3439 
Q 2478 3584 2822 3584 
Q 3428 3584 3742 3212 
Q 4056 2841 4056 2131 
z
" transform="scale(0.015625)"/>
      </defs>
      <use xlink:href="#DejaVuSans-Bold-4e"/>
      <use xlink:href="#DejaVuSans-Bold-6f" x="83.691406"/>
      <use xlink:href="#DejaVuSans-Bold-72" x="152.392578"/>
      <use xlink:href="#DejaVuSans-Bold-6d" x="201.708984"/>
      <use xlink:href="#DejaVuSans-Bold-61" x="305.908203"/>
      <use xlink:href="#DejaVuSans-Bold-6c" x="373.388672"/>
      <use xlink:href="#DejaVuSans-Bold-69" x="407.666016"/>
      <use xlink:href="#DejaVuSans-Bold-73" x="441.943359"/>
      <use xlink:href="#DejaVuSans-Bold-65" x="501.464844"/>
      <use xlink:href="#DejaVuSans-Bold-64" x="569.287109"/>
      <use xlink:href="#DejaVuSans-Bold-20" x="640.869141"/>
      <use xlink:href="#DejaVuSans-Bold-58" x="675.683594"/>
      <use xlink:href="#DejaVuSans-Bold-20" x="752.783203"/>
      <use xlink:href="#DejaVuSans-Bold-70" x="787.597656"/>
      <use xlink:href="#DejaVuSans-Bold-6f" x="859.179688"/>
      <use xlink:href="#DejaVuSans-Bold-73" x="927.880859"/>
      <use xlink:href="#DejaVuSans-Bold-69" x="987.402344"/>
      <use xlink:href="#DejaVuSans-Bold-74" x="1021.679688"/>
      <use xlink:href="#DejaVuSans-Bold-69" x="1069.482422"/>
      <use xlink:href="#DejaVuSans-Bold-6f" x="1103.759766"/>
      <use xlink:href="#DejaVuSans-Bold-6e" x="1172.460938"/>
     </g>
    </g>
   </g>
   <g id="matplotlib.axis_2">
    <g id="ytick_1">
     <g id="line2d_3">
      <defs>
       <path id="m870efedaa7" d="M 0 0 
L -3.5 0 
" style="stroke: #000000; stroke-width: 0.8"/>
      </defs>
      <g>
       <use xlink:href="#m870efedaa7" x="57.6" y="297" style="stroke: #000000; stroke-width: 0.8"/>
      </g>
     </g>
     <g id="text_4">
      <!-- 0 -->
      <g transform="translate(37.875 304.598437)scale(0.2 -0.2)">
       <use xlink:href="#DejaVuSans-30"/>
      </g>
     </g>
    </g>
    <g id="ytick_2">
     <g id="line2d_4">
      <g>
       <use xlink:href="#m870efedaa7" x="57.6" y="53.568" style="stroke: #000000; stroke-width: 0.8"/>
      </g>
     </g>
     <g id="text_5">
      <!-- 1 -->
      <g transform="translate(37.875 61.166438)scale(0.2 -0.2)">
       <use xlink:href="#DejaVuSans-31"/>
      </g>
     </g>
    </g>
    <g id="text_6">
     <!-- Normalised Y position -->
     <g transform="translate(29.715625 298.423313)rotate(-90)scale(0.2 -0.2)">
      <defs>
       <path id="DejaVuSans-Bold-59" d="M -63 4666 
L 1253 4666 
L 2316 3003 
L 3378 4666 
L 4697 4666 
L 2919 1966 
L 2919 0 
L 1716 0 
L 1716 1966 
L -63 4666 
z
" transform="scale(0.015625)"/>
      </defs>
      <use xlink:href="#DejaVuSans-Bold-4e"/>
      <use xlink:href="#DejaVuSans-Bold-6f" x="83.691406"/>
      <use xlink:href="#DejaVuSans-Bold-72" x="152.392578"/>
      <use xlink:href="#DejaVuSans-Bold-6d" x="201.708984"/>
      <use xlink:href="#DejaVuSans-Bold-61" x="305.908203"/>
      <use xlink:href="#DejaVuSans-Bold-6c" x="373.388672"/>
      <use xlink:href="#DejaVuSans-Bold-69" x="407.666016"/>
      <use xlink:href="#DejaVuSans-Bold-73" x="441.943359"/>
      <use xlink:href="#DejaVuSans-Bold-65" x="501.464844"/>
      <use xlink:href="#DejaVuSans-Bold-64" x="569.287109"/>
      <use xlink:href="#DejaVuSans-Bold-20" x="640.869141"/>
      <use xlink:href="#DejaVuSans-Bold-59" x="675.683594"/>
      <use xlink:href="#DejaVuSans-Bold-20" x="748.095703"/>
      <use xlink:href="#DejaVuSans-Bold-70" x="782.910156"/>
      <use xlink:href="#DejaVuSans-Bold-6f" x="854.492188"/>
      <use xlink:href="#DejaVuSans-Bold-73" x="923.193359"/>
      <use xlink:href="#DejaVuSans-Bold-69" x="982.714844"/>
      <use xlink:href="#DejaVuSans-Bold-74" x="1016.992188"/>
      <use xlink:href="#DejaVuSans-Bold-69" x="1064.794922"/>
      <use xlink:href="#DejaVuSans-Bold-6f" x="1099.072266"/>
      <use xlink:href="#DejaVuSans-Bold-6e" x="1167.773438"/>
     </g>
    </g>
   </g>
   <g id="line2d_5">
    <path d="M 398.487273 53.568 
L 398.487273 53.568 
L 398.487273 53.568 
L 398.487273 53.568 
L 398.487273 53.568 
L 398.487273 55.08 
L 398.487273 60.2208 
L 398.487273 72.0144 
L 396.71643 83.2032 
L 391.994182 96.5088 
L 383.435107 111.6288 
L 371.924628 128.8656 
L 356.577322 146.7072 
L 339.459174 163.6416 
L 320.865322 179.3664 
L 304.337455 192.0672 
" clip-path="url(#pf515ed39d3)" style="fill: none; stroke: #000000; stroke-width: 1.5; stroke-linecap: square"/>
   </g>
   <g id="line2d_6">
    <path d="M 398.487273 53.568 
" clip-path="url(#pf515ed39d3)" style="fill: none; stroke: #000000; stroke-width: 1.5; stroke-linecap: square"/>
    <defs>
     <path id="m4adba9521f" d="M 0 5 
C 1.326016 5 2.597899 4.473168 3.535534 3.535534 
C 4.473168 2.597899 5 1.326016 5 0 
C 5 -1.326016 4.473168 -2.597899 3.535534 -3.535534 
C 2.597899 -4.473168 1.326016 -5 0 -5 
C -1.326016 -5 -2.597899 -4.473168 -3.535534 -3.535534 
C -4.473168 -2.597899 -5 -1.326016 -5 0 
C -5 1.326016 -4.473168 2.597899 -3.535534 3.535534 
C -2.597899 4.473168 -1.326016 5 0 5 
z
" style="stroke: #000000"/>
    </defs>
    <g clip-path="url(#pf515ed39d3)">
     <use xlink:href="#m4adba9521f" x="398.487273" y="53.568" style="stroke: #000000"/>
    </g>
   </g>
   <g id="line2d_7">
    <path d="M 304.337455 192.0672 
" clip-path="url(#pf515ed39d3)" style="fill: none; stroke: #000000; stroke-width: 1.5; stroke-linecap: square"/>
    <defs>
     <path id="m4f3b2d7b76" d="M -5 5 
L 5 5 
L 5 -5 
L -5 -5 
z
" style="stroke: #000000; stroke-linejoin: miter"/>
    </defs>
    <g clip-path="url(#pf515ed39d3)">
     <use xlink:href="#m4f3b2d7b76" x="304.337455" y="192.0672" style="stroke: #000000; stroke-linejoin: miter"/>
    </g>
   </g>
   <g id="line2d_8">
    <path d="M 210.777917 249.5232 
L 210.777917 248.616 
L 210.482777 247.104 
L 209.597355 243.1728 
L 208.121653 239.8464 
L 206.35081 236.52 
L 204.579967 232.8912 
L 202.809124 229.2624 
L 202.809124 227.1456 
L 203.989686 221.4 
L 205.170248 217.1664 
L 206.055669 213.84 
L 206.055669 208.3968 
L 209.007074 206.28 
L 211.958479 205.3728 
L 213.434182 205.0704 
L 214.909884 205.6752 
L 216.090446 206.8848 
L 216.975868 208.3968 
L 216.975868 209.6064 
L 216.385587 212.0256 
L 215.500165 214.1424 
L 215.205025 214.7472 
L 214.024463 215.0496 
L 212.54876 215.0496 
L 211.073058 214.1424 
L 209.007074 212.9328 
L 206.64595 211.1184 
L 203.399405 209.0016 
L 200.15286 205.9776 
L 196.611174 202.9536 
L 192.774347 199.6272 
L 188.64238 196.3008 
L 184.805554 192.672 
L 180.673587 188.7408 
L 177.131901 183.9024 
L 174.475636 178.1568 
L 170.048529 172.1088 
L 166.801983 165.7584 
L 163.555438 159.1056 
L 159.718612 152.7552 
L 156.472066 145.8 
L 153.520661 139.752 
L 150.274116 134.6112 
L 147.912992 129.4704 
L 144.961587 125.5392 
L 142.895603 121.608 
L 140.82962 117.9792 
L 140.534479 114.048 
L 140.82962 110.1168 
L 142.305322 105.8832 
L 143.781025 102.2544 
L 145.847008 98.6256 
L 146.142149 96.8112 
L 147.617851 94.9968 
L 149.683835 94.0896 
L 156.176926 92.2752 
L 162.374876 90.1584 
L 169.163107 88.344 
L 175.951339 86.832 
L 183.034711 85.9248 
L 189.527802 85.0176 
L 195.725752 84.4128 
L 200.448 84.1104 
L 204.875107 84.4128 
L 206.941091 85.9248 
L 207.826512 87.1344 
L 207.531372 89.856 
L 206.941091 93.4848 
L 205.465388 97.1136 
L 203.399405 101.3472 
L 200.15286 105.5808 
L 196.611174 110.4192 
L 192.774347 114.9552 
L 190.118083 119.1888 
L 189.232661 122.8176 
L 188.64238 126.4464 
L 188.34724 129.168 
L 187.756959 131.8896 
L 186.871537 133.704 
L 185.986116 134.9136 
L 184.510413 135.216 
L 183.329851 134.9136 
L 181.559008 134.3088 
L 180.083306 132.7968 
L 178.902744 131.2848 
" clip-path="url(#pf515ed39d3)" style="fill: none; stroke: #0000ff; stroke-width: 1.5; stroke-linecap: square"/>
   </g>
   <g id="line2d_9">
    <path d="M 210.777917 249.5232 
" clip-path="url(#pf515ed39d3)" style="fill: none; stroke: #0000ff; stroke-width: 1.5; stroke-linecap: square"/>
    <defs>
     <path id="mea15146add" d="M 0 5 
C 1.326016 5 2.597899 4.473168 3.535534 3.535534 
C 4.473168 2.597899 5 1.326016 5 0 
C 5 -1.326016 4.473168 -2.597899 3.535534 -3.535534 
C 2.597899 -4.473168 1.326016 -5 0 -5 
C -1.326016 -5 -2.597899 -4.473168 -3.535534 -3.535534 
C -4.473168 -2.597899 -5 -1.326016 -5 0 
C -5 1.326016 -4.473168 2.597899 -3.535534 3.535534 
C -2.597899 4.473168 -1.326016 5 0 5 
z
" style="stroke: #0000ff"/>
    </defs>
    <g clip-path="url(#pf515ed39d3)">
     <use xlink:href="#mea15146add" x="210.777917" y="249.5232" style="fill: #0000ff; stroke: #0000ff"/>
    </g>
   </g>
   <g id="line2d_10">
    <path d="M 178.902744 131.2848 
" clip-path="url(#pf515ed39d3)" style="fill: none; stroke: #0000ff; stroke-width: 1.5; stroke-linecap: square"/>
    <defs>
     <path id="m52c63ba2ee" d="M -5 5 
L 5 5 
L 5 -5 
L -5 -5 
z
" style="stroke: #0000ff; stroke-linejoin: miter"/>
    </defs>
    <g clip-path="url(#pf515ed39d3)">
     <use xlink:href="#m52c63ba2ee" x="178.902744" y="131.2848" style="fill: #0000ff; stroke: #0000ff; stroke-linejoin: miter"/>
    </g>
   </g>
   <g id="line2d_11">
    <path d="M 322.931306 293.976 
L 319.68476 293.976 
L 315.257653 292.7664 
L 308.469421 289.7424 
L 300.795769 285.8112 
L 292.236694 280.6704 
L 283.087339 274.6224 
L 272.757421 268.272 
L 262.132364 261.6192 
L 251.802446 254.664 
L 247.080198 251.0352 
L 238.225983 244.3824 
L 226.420364 235.3104 
L 219.632132 229.8672 
L 213.139041 224.7264 
L 206.35081 220.1904 
L 199.562579 216.2592 
L 192.774347 212.9328 
L 189.527802 211.1184 
L 183.034711 208.3968 
L 173.590215 205.0704 
L 167.687405 203.256 
L 164.736 202.6512 
L 159.423471 201.1392 
L 154.110942 199.9296 
L 150.864397 197.8128 
L 148.798413 194.7888 
L 150.274116 192.3696 
L 154.110942 189.0432 
L 157.062347 186.9264 
L 161.194314 184.5072 
L 165.916562 181.7856 
L 168.572826 180.2736 
L 170.63881 179.3664 
L 171.229091 179.064 
L 171.229091 178.7616 
L 171.229091 177.8544 
L 170.63881 176.6448 
L 169.458248 174.8304 
L 167.982545 172.7136 
L 165.916562 170.5968 
L 163.260298 168.48 
L 160.013752 166.3632 
L 156.472066 164.8512 
L 152.63524 163.3392 
L 149.978975 161.8272 
L 149.093554 159.7104 
L 149.093554 157.5936 
L 149.978975 155.7792 
L 151.749818 153.6624 
L 153.815802 152.4528 
L 157.652628 150.6384 
L 160.604033 149.7312 
L 162.079736 150.336 
L 162.079736 151.848 
L 161.194314 153.9648 
L 159.718612 156.0816 
L 157.947769 158.1984 
L 157.357488 159.1056 
L 157.652628 159.7104 
L 156.176926 162.432 
L 157.652628 163.3392 
L 160.308893 162.7344 
L 160.899174 165.1536 
L 162.374876 166.6656 
L 165.03114 167.2704 
L 167.392264 167.5728 
L 168.572826 167.8752 
L 167.097124 169.3872 
L 161.784595 172.4112 
" clip-path="url(#pf515ed39d3)" style="fill: none; stroke: #00fa9a; stroke-width: 1.5; stroke-linecap: square"/>
   </g>
   <g id="line2d_12">
    <path d="M 322.931306 293.976 
" clip-path="url(#pf515ed39d3)" style="fill: none; stroke: #00fa9a; stroke-width: 1.5; stroke-linecap: square"/>
    <defs>
     <path id="m5c373c1e6a" d="M 0 5 
C 1.326016 5 2.597899 4.473168 3.535534 3.535534 
C 4.473168 2.597899 5 1.326016 5 0 
C 5 -1.326016 4.473168 -2.597899 3.535534 -3.535534 
C 2.597899 -4.473168 1.326016 -5 0 -5 
C -1.326016 -5 -2.597899 -4.473168 -3.535534 -3.535534 
C -4.473168 -2.597899 -5 -1.326016 -5 0 
C -5 1.326016 -4.473168 2.597899 -3.535534 3.535534 
C -2.597899 4.473168 -1.326016 5 0 5 
z
" style="stroke: #00fa9a"/>
    </defs>
    <g clip-path="url(#pf515ed39d3)">
     <use xlink:href="#m5c373c1e6a" x="322.931306" y="293.976" style="fill: #00fa9a; stroke: #00fa9a"/>
    </g>
   </g>
   <g id="line2d_13">
    <path d="M 161.784595 172.4112 
" clip-path="url(#pf515ed39d3)" style="fill: none; stroke: #00fa9a; stroke-width: 1.5; stroke-linecap: square"/>
    <defs>
     <path id="m9efd36b1f3" d="M -5 5 
L 5 5 
L 5 -5 
L -5 -5 
z
" style="stroke: #00fa9a; stroke-linejoin: miter"/>
    </defs>
    <g clip-path="url(#pf515ed39d3)">
     <use xlink:href="#m9efd36b1f3" x="161.784595" y="172.4112" style="fill: #00fa9a; stroke: #00fa9a; stroke-linejoin: miter"/>
    </g>
   </g>
   <g id="line2d_14">
    <path d="M 175.065917 122.5152 
L 182.44443 121.608 
L 190.118083 121.3056 
L 198.382017 121.608 
L 205.760529 122.5152 
L 212.54876 123.7248 
L 214.909884 128.2608 
L 221.698116 129.7728 
L 226.715504 130.9824 
L 231.142612 131.5872 
L 233.798876 132.7968 
L 234.979438 134.3088 
L 234.684298 136.4256 
L 232.913455 139.1472 
L 230.25719 141.8688 
L 227.010645 144.5904 
L 223.173818 147.0096 
L 220.222413 148.5216 
L 217.566149 149.1264 
L 216.090446 148.824 
L 216.385587 147.9168 
L 217.271008 147.0096 
L 219.927273 145.4976 
L 223.764099 143.9856 
L 228.191207 143.0784 
L 233.503736 141.8688 
L 239.111405 140.9616 
L 244.128793 140.0544 
L 248.555901 138.8448 
L 252.392727 137.3328 
L 255.344132 136.1232 
L 256.819835 134.9136 
L 257.114975 134.0064 
L 256.524694 133.4016 
L 255.048992 133.704 
L 252.983008 134.6112 
L 250.917025 136.728 
L 249.441322 138.5424 
L 248.851041 139.4496 
L 248.851041 140.0544 
L 249.736463 140.6592 
L 250.917025 141.264 
L 253.573289 141.5664 
L 257.410116 141.5664 
L 262.427504 140.9616 
L 268.330314 140.0544 
L 274.528264 139.752 
L 280.726215 139.4496 
L 286.629025 140.0544 
L 292.531835 140.9616 
L 298.729785 141.8688 
L 304.337455 143.0784 
L 310.240264 145.1952 
L 316.733355 148.5216 
L 320.275041 153.9648 
L 324.111868 159.408 
L 327.653554 165.1536 
L 330.309818 171.504 
L 332.375802 178.1568 
L 333.851504 184.5072 
L 334.146645 190.5552 
L 332.966083 196.3008 
L 332.080661 198.72 
L 329.129256 203.5584 
L 324.702149 207.4896 
L 315.552793 213.2352 
L 309.059702 216.2592 
L 306.108298 217.4688 
L 300.205488 219.5856 
L 293.122116 221.7024 
L 288.695008 222.6096 
L 284.563041 223.2144 
L 279.840793 223.8192 
" clip-path="url(#pf515ed39d3)" style="fill: none; stroke: #008000; stroke-width: 1.5; stroke-linecap: square"/>
   </g>
   <g id="line2d_15">
    <path d="M 175.065917 122.5152 
" clip-path="url(#pf515ed39d3)" style="fill: none; stroke: #008000; stroke-width: 1.5; stroke-linecap: square"/>
    <defs>
     <path id="m3d6de24aec" d="M 0 5 
C 1.326016 5 2.597899 4.473168 3.535534 3.535534 
C 4.473168 2.597899 5 1.326016 5 0 
C 5 -1.326016 4.473168 -2.597899 3.535534 -3.535534 
C 2.597899 -4.473168 1.326016 -5 0 -5 
C -1.326016 -5 -2.597899 -4.473168 -3.535534 -3.535534 
C -4.473168 -2.597899 -5 -1.326016 -5 0 
C -5 1.326016 -4.473168 2.597899 -3.535534 3.535534 
C -2.597899 4.473168 -1.326016 5 0 5 
z
" style="stroke: #008000"/>
    </defs>
    <g clip-path="url(#pf515ed39d3)">
     <use xlink:href="#m3d6de24aec" x="175.065917" y="122.5152" style="fill: #008000; stroke: #008000"/>
    </g>
   </g>
   <g id="line2d_16">
    <path d="M 279.840793 223.8192 
" clip-path="url(#pf515ed39d3)" style="fill: none; stroke: #008000; stroke-width: 1.5; stroke-linecap: square"/>
    <defs>
     <path id="m0c9e98bb2f" d="M -5 5 
L 5 5 
L 5 -5 
L -5 -5 
z
" style="stroke: #008000; stroke-linejoin: miter"/>
    </defs>
    <g clip-path="url(#pf515ed39d3)">
     <use xlink:href="#m0c9e98bb2f" x="279.840793" y="223.8192" style="fill: #008000; stroke: #008000; stroke-linejoin: miter"/>
    </g>
   </g>
   <g id="line2d_17">
    <path d="M 185.395835 181.4832 
L 172.704793 185.7168 
L 162.374876 189.3456 
L 152.63524 193.5792 
L 135.22195 200.5344 
L 139.058777 199.3248 
L 162.670017 189.0432 
L 183.329851 180.576 
L 190.118083 177.2496 
L 196.611174 173.9232 
L 203.399405 170.5968 
L 209.597355 167.8752 
L 216.680727 165.456 
L 220.517554 164.8512 
L 222.878678 165.456 
L 222.878678 167.2704 
L 220.517554 170.5968 
L 215.205025 174.8304 
L 207.826512 179.6688 
L 198.972298 184.5072 
L 178.902744 195.0912 
L 168.277686 200.5344 
L 156.472066 205.9776 
L 131.680264 216.864 
L 119.284364 221.7024 
L 107.478744 225.936 
L 95.968264 229.8672 
L 76.488992 236.2176 
L 73.832727 238.6368 
L 73.832727 248.3136 
L 74.127868 249.8256 
L 75.60357 250.4304 
L 78.850116 250.4304 
L 83.572364 249.8256 
L 89.475174 248.3136 
L 97.443967 246.4992 
L 106.593322 244.08 
L 127.253157 238.032 
L 139.058777 234.7056 
L 164.44086 228.6576 
L 178.017322 225.936 
L 191.888926 222.912 
L 206.055669 220.4928 
L 234.389157 216.864 
L 245.899636 215.9568 
L 259.180959 215.0496 
L 273.347702 214.7472 
L 281.021355 215.6544 
L 292.236694 216.2592 
L 298.434645 218.376 
L 311.420826 223.5168 
L 314.962512 227.1456 
L 318.504198 231.0768 
L 320.865322 234.7056 
L 322.341025 238.032 
L 324.407008 241.3584 
L 325.882711 247.4064 
L 326.472992 250.7328 
L 327.358413 253.4544 
L 327.948694 259.2 
L 329.129256 261.6192 
L 329.719537 263.1312 
L 331.19524 265.248 
L 331.785521 268.5744 
L 332.670942 270.0864 
L 333.851504 273.1104 
L 334.146645 274.32 
L 332.966083 277.344 
L 330.900099 281.2752 
L 329.129256 276.1344 
L 327.653554 273.1104 
L 326.177851 269.4816 
L 324.111868 265.248 
L 322.045884 260.4096 
L 320.865322 257.9904 
L 316.438215 249.8256 
L 313.191669 244.3824 
L 309.649983 238.9392 
L 306.108298 232.8912 
L 303.156893 227.1456 
L 301.976331 224.424 
L 298.139504 214.1424 
L 296.663802 209.6064 
L 294.302678 207.1872 
L 293.712397 205.0704 
L 294.007537 202.3488 
L 294.007537 199.0224 
L 294.892959 195.0912 
L 296.663802 190.2528 
L 299.024926 184.5072 
L 302.861752 177.552 
L 315.257653 161.2224 
L 321.160463 153.6624 
L 324.407008 148.2192 
L 331.49038 140.3568 
L 336.802909 135.8208 
L 341.820298 131.8896 
L 346.247405 129.4704 
L 350.674512 127.9584 
L 354.216198 127.3536 
L 358.053025 127.0512 
L 361.00443 127.656 
L 363.365554 129.168 
L 365.431537 131.8896 
L 366.90724 135.5184 
L 367.792661 139.752 
L 368.678083 145.8 
L 368.973223 152.7552 
L 368.973223 159.7104 
L 368.678083 166.968 
L 368.678083 179.6688 
L 368.382942 185.112 
L 368.382942 185.112 
" clip-path="url(#pf515ed39d3)" style="fill: none; stroke: #800080; stroke-width: 1.5; stroke-linecap: square"/>
   </g>
   <g id="line2d_18">
    <path d="M 185.395835 181.4832 
" clip-path="url(#pf515ed39d3)" style="fill: none; stroke: #800080; stroke-width: 1.5; stroke-linecap: square"/>
    <defs>
     <path id="mac0a3c143f" d="M 0 5 
C 1.326016 5 2.597899 4.473168 3.535534 3.535534 
C 4.473168 2.597899 5 1.326016 5 0 
C 5 -1.326016 4.473168 -2.597899 3.535534 -3.535534 
C 2.597899 -4.473168 1.326016 -5 0 -5 
C -1.326016 -5 -2.597899 -4.473168 -3.535534 -3.535534 
C -4.473168 -2.597899 -5 -1.326016 -5 0 
C -5 1.326016 -4.473168 2.597899 -3.535534 3.535534 
C -2.597899 4.473168 -1.326016 5 0 5 
z
" style="stroke: #800080"/>
    </defs>
    <g clip-path="url(#pf515ed39d3)">
     <use xlink:href="#mac0a3c143f" x="185.395835" y="181.4832" style="fill: #800080; stroke: #800080"/>
    </g>
   </g>
   <g id="line2d_19">
    <path d="M 368.382942 185.112 
" clip-path="url(#pf515ed39d3)" style="fill: none; stroke: #800080; stroke-width: 1.5; stroke-linecap: square"/>
    <defs>
     <path id="m1aff73a1fe" d="M -5 5 
L 5 5 
L 5 -5 
L -5 -5 
z
" style="stroke: #800080; stroke-linejoin: miter"/>
    </defs>
    <g clip-path="url(#pf515ed39d3)">
     <use xlink:href="#m1aff73a1fe" x="368.382942" y="185.112" style="fill: #800080; stroke: #800080; stroke-linejoin: miter"/>
    </g>
   </g>
   <g id="line2d_20">
    <path d="M 274.233124 170.8992 
L 274.528264 170.8992 
L 274.528264 170.8992 
L 274.528264 171.2016 
L 274.233124 171.2016 
L 274.233124 171.2016 
L 274.233124 171.504 
L 274.528264 171.8064 
L 274.528264 172.4112 
L 274.528264 172.7136 
L 274.233124 173.016 
L 273.937983 173.6208 
L 273.937983 174.2256 
L 273.642843 174.2256 
L 273.347702 174.8304 
L 273.052562 175.4352 
L 273.052562 176.04 
L 272.757421 176.3424 
L 272.16714 176.3424 
L 272.16714 176.04 
L 271.281719 175.4352 
L 270.396298 174.8304 
L 268.920595 174.2256 
L 266.559471 173.9232 
L 263.312926 173.6208 
L 258.295537 173.6208 
L 252.097587 173.3184 
L 244.719074 173.3184 
L 236.45514 172.1088 
L 222.878678 171.504 
L 212.843901 169.6896 
L 202.809124 167.2704 
L 197.201455 163.6416 
L 188.052099 160.92 
L 180.378446 157.896 
L 174.180496 154.872 
L 170.63881 151.5456 
L 167.097124 148.824 
L 161.784595 147.0096 
L 158.83319 144.8928 
L 156.767207 142.776 
L 155.881785 140.9616 
L 155.881785 139.1472 
L 156.472066 137.3328 
L 157.652628 135.5184 
L 160.013752 133.704 
L 162.965157 131.8896 
L 167.687405 129.7728 
L 173.885355 127.9584 
L 178.902744 125.8416 
L 184.510413 123.7248 
L 191.003504 121.3056 
L 196.906314 118.8864 
L 203.399405 117.072 
L 207.236231 115.56 
L 211.073058 114.048 
L 214.614744 112.8384 
L 216.975868 111.6288 
L 217.861289 111.024 
L 218.15643 110.1168 
L 217.861289 109.512 
L 216.680727 109.2096 
L 215.500165 109.2096 
L 211.663339 112.2336 
L 208.416793 114.6528 
L 204.875107 116.7696 
L 201.923702 118.8864 
L 198.677157 120.3984 
L 194.25005 122.5152 
L 188.34724 124.9344 
L 180.083306 127.656 
L 170.343669 130.3776 
L 160.604033 132.4944 
L 151.454678 134.3088 
L 143.485884 135.5184 
L 136.992793 135.8208 
L 134.336529 135.8208 
L 129.024 135.216 
L 128.433719 134.0064 
L 129.31914 132.7968 
L 131.089983 131.5872 
L 133.746248 130.0752 
L 135.812231 129.168 
L 139.944198 127.3536 
L 144.961587 125.5392 
L 150.569256 123.4224 
L 156.472066 121.3056 
L 162.079736 119.1888 
L 166.801983 117.3744 
L 170.63881 115.56 
L 173.885355 114.048 
L 176.83676 112.536 
" clip-path="url(#pf515ed39d3)" style="fill: none; stroke: #ffa500; stroke-width: 1.5; stroke-linecap: square"/>
   </g>
   <g id="line2d_21">
    <path d="M 274.233124 170.8992 
" clip-path="url(#pf515ed39d3)" style="fill: none; stroke: #ffa500; stroke-width: 1.5; stroke-linecap: square"/>
    <defs>
     <path id="mb12346fa1d" d="M 0 5 
C 1.326016 5 2.597899 4.473168 3.535534 3.535534 
C 4.473168 2.597899 5 1.326016 5 0 
C 5 -1.326016 4.473168 -2.597899 3.535534 -3.535534 
C 2.597899 -4.473168 1.326016 -5 0 -5 
C -1.326016 -5 -2.597899 -4.473168 -3.535534 -3.535534 
C -4.473168 -2.597899 -5 -1.326016 -5 0 
C -5 1.326016 -4.473168 2.597899 -3.535534 3.535534 
C -2.597899 4.473168 -1.326016 5 0 5 
z
" style="stroke: #ffa500"/>
    </defs>
    <g clip-path="url(#pf515ed39d3)">
     <use xlink:href="#mb12346fa1d" x="274.233124" y="170.8992" style="fill: #ffa500; stroke: #ffa500"/>
    </g>
   </g>
   <g id="line2d_22">
    <path d="M 176.83676 112.536 
" clip-path="url(#pf515ed39d3)" style="fill: none; stroke: #ffa500; stroke-width: 1.5; stroke-linecap: square"/>
    <defs>
     <path id="m411a8547b9" d="M -5 5 
L 5 5 
L 5 -5 
L -5 -5 
z
" style="stroke: #ffa500; stroke-linejoin: miter"/>
    </defs>
    <g clip-path="url(#pf515ed39d3)">
     <use xlink:href="#m411a8547b9" x="176.83676" y="112.536" style="fill: #ffa500; stroke: #ffa500; stroke-linejoin: miter"/>
    </g>
   </g>
   <g id="line2d_23">
    <path d="M 206.64595 92.2752 
L 206.64595 91.6704 
L 206.64595 91.6704 
L 207.236231 91.0656 
L 208.121653 90.4608 
L 209.892496 88.6464 
L 210.482777 87.7392 
L 211.073058 87.1344 
L 211.368198 86.2272 
L 211.958479 85.32 
L 212.54876 84.7152 
L 213.434182 83.5056 
L 214.909884 82.5984 
L 215.500165 81.9936 
L 216.385587 81.6912 
L 217.566149 81.6912 
L 228.191207 83.5056 
L 234.979438 83.5056 
L 239.996826 84.1104 
L 244.719074 85.6224 
L 250.326744 87.1344 
L 256.229554 88.9488 
L 262.722645 90.4608 
L 275.708826 94.0896 
L 281.611636 96.2064 
L 287.219306 98.6256 
L 292.236694 101.6496 
L 296.958942 105.2784 
L 304.632595 108 
L 309.059702 112.2336 
L 313.191669 116.7696 
L 316.438215 122.2128 
L 318.504198 128.2608 
L 320.275041 141.8688 
L 320.570182 148.2192 
L 320.275041 154.5696 
L 319.094479 164.8512 
L 317.913917 169.3872 
L 317.323636 171.2016 
L 313.78195 176.04 
L 310.830545 178.1568 
L 307.584 179.6688 
L 303.452033 180.2736 
L 299.024926 180.576 
L 290.760992 180.576 
L 283.97276 180.8784 
L 255.934413 180.8784 
L 250.326744 180.2736 
L 245.899636 179.9712 
L 241.767669 179.3664 
L 238.816264 178.4592 
L 237.045421 177.552 
L 234.979438 174.8304 
L 235.86486 173.9232 
L 236.16 173.9232 
L 238.521124 172.4112 
L 240.882248 170.5968 
L 243.243372 169.0848 
L 245.899636 167.5728 
L 249.146182 166.968 
L 252.097587 166.968 
L 254.753851 167.8752 
L 257.114975 168.48 
L 258.590678 169.3872 
L 260.06638 170.5968 
L 261.542083 172.1088 
L 262.722645 173.9232 
L 263.608066 176.3424 
L 264.198347 179.064 
L 264.493488 181.7856 
L 264.493488 187.5312 
L 263.903207 192.9744 
L 263.312926 195.9984 
L 262.427504 198.72 
L 261.542083 202.0464 
L 260.361521 205.9776 
L 258.590678 210.5136 
L 256.524694 215.352 
L 254.458711 220.7952 
L 252.983008 226.2384 
L 250.917025 232.5888 
L 248.26076 239.2416 
L 245.309355 246.1968 
L 242.06281 252.8496 
L 237.635702 262.5264 
L 233.798876 271.296 
L 231.732893 275.5296 
L 231.142612 278.5536 
L 231.437752 279.1584 
L 232.618314 279.7632 
L 236.45514 278.5536 
L 240.291967 276.7392 
L 244.128793 274.6224 
L 259.476099 266.76 
L 270.691438 261.6192 
L 276.594248 259.5024 
L 281.906777 258.2928 
L 286.924165 257.9904 
L 291.351273 257.9904 
L 298.729785 259.2 
L 300.795769 263.736 
L 301.38605 267.3648 
L 302.566612 273.4128 
L 303.747174 277.9488 
L 304.927736 281.2752 
L 306.993719 283.6944 
L 308.764562 283.0896 
L 309.945124 281.88 
L 312.011107 279.4608 
L 314.077091 276.7392 
L 318.799339 267.9696 
L 320.865322 262.224 
L 324.407008 249.5232 
L 326.177851 242.8704 
L 328.243835 235.6128 
L 330.014678 228.3552 
L 330.604959 222.3072 
L 332.375802 210.5136 
L 333.261223 203.8608 
L 333.851504 190.8576 
L 334.146645 187.5312 
L 333.851504 178.7616 
L 332.966083 170.8992 
L 331.785521 163.6416 
L 331.19524 161.5248 
L 329.129256 152.1504 
L 328.538975 150.6384 
L 327.358413 148.2192 
L 325.882711 146.7072 
L 321.455603 145.4976 
L 316.143074 144.8928 
L 314.077091 143.9856 
L 311.715967 142.776 
L 309.649983 141.8688 
L 306.108298 139.752 
L 304.927736 138.8448 
L 303.747174 138.5424 
L 302.271471 138.5424 
L 300.500628 139.1472 
L 296.073521 142.4736 
L 292.826975 145.4976 
L 282.201917 156.384 
L 278.660231 160.3152 
L 275.413686 163.6416 
L 272.462281 166.968 
L 269.806017 169.6896 
L 268.330314 172.1088 
L 267.444893 173.3184 
L 267.444893 173.9232 
L 268.035174 173.6208 
L 268.920595 172.7136 
L 270.396298 171.8064 
L 288.990149 152.7552 
L 291.941554 150.0336 
L 294.302678 147.6144 
L 298.434645 144.8928 
L 299.320066 144.8928 
L 299.615207 145.8 
L 299.320066 148.2192 
L 297.549223 151.848 
L 292.236694 160.6176 
L 278.06995 180.2736 
L 270.396298 189.9504 
L 265.67405 194.4864 
L 256.819835 202.3488 
L 252.097587 206.8848 
L 247.375339 212.328 
L 242.06281 218.0736 
L 236.750281 224.424 
L 232.028033 229.8672 
L 224.944661 238.9392 
L 222.878678 241.9632 
L 220.812694 245.2896 
L 219.632132 248.616 
L 220.812694 248.3136 
L 222.878678 246.4992 
L 226.125223 244.08 
L 229.666909 241.056 
L 238.521124 234.4032 
L 242.653091 231.984 
L 246.785058 229.8672 
L 250.621884 228.6576 
L 254.16357 228.3552 
L 257.705256 228.3552 
L 260.656661 229.2624 
L 263.608066 232.5888 
L 265.67405 236.2176 
L 266.854612 238.9392 
L 268.035174 242.8704 
L 269.215736 248.616 
L 269.510876 253.7568 
L 268.920595 258.2928 
L 266.264331 269.4816 
L 266.264331 270.0864 
L 266.559471 270.0864 
L 267.740033 268.8768 
L 271.281719 265.8528 
L 275.118545 262.224 
L 278.365091 259.8048 
L 294.597818 248.616 
L 299.615207 244.6848 
L 311.420826 234.1008 
L 317.618777 227.448 
L 327.063273 216.864 
L 332.966083 209.9088 
L 335.622347 206.28 
L 340.344595 200.232 
L 345.952264 192.3696 
L 353.330777 182.6928 
L 353.921058 182.088 
L 353.625917 182.3904 
L 351.855074 182.3904 
L 350.674512 182.088 
L 349.49395 181.4832 
L 348.018248 181.1808 
L 345.952264 180.8784 
L 342.705719 178.7616 
L 340.344595 178.1568 
L 337.983471 177.2496 
L 335.327207 176.04 
L 332.080661 175.7376 
L 328.243835 175.1328 
L 324.997289 175.4352 
L 320.865322 176.3424 
L 316.143074 178.4592 
L 310.240264 180.576 
L 295.77838 184.5072 
L 291.646413 185.7168 
L 288.399868 186.3216 
L 285.448463 186.624 
L 283.382479 186.3216 
L 279.840793 185.112 
L 276.889388 185.112 
L 275.118545 185.4144 
L 272.462281 187.5312 
L 270.986579 189.3456 
L 267.444893 194.7888 
L 267.444893 195.3936 
L 267.149752 196.6032 
L 264.788628 202.3488 
L 261.246942 210.5136 
L 257.114975 221.4 
L 255.344132 227.1456 
L 254.753851 229.8672 
L 255.344132 231.984 
L 256.229554 233.1936 
L 258.000397 233.7984 
L 260.361521 233.7984 
L 263.017785 233.496 
L 265.96919 232.5888 
L 265.96919 232.5888 
" clip-path="url(#pf515ed39d3)" style="fill: none; stroke: #ff69b4; stroke-width: 1.5; stroke-linecap: square"/>
   </g>
   <g id="line2d_24">
    <path d="M 206.64595 92.2752 
" clip-path="url(#pf515ed39d3)" style="fill: none; stroke: #ff69b4; stroke-width: 1.5; stroke-linecap: square"/>
    <defs>
     <path id="m4692091b43" d="M 0 5 
C 1.326016 5 2.597899 4.473168 3.535534 3.535534 
C 4.473168 2.597899 5 1.326016 5 0 
C 5 -1.326016 4.473168 -2.597899 3.535534 -3.535534 
C 2.597899 -4.473168 1.326016 -5 0 -5 
C -1.326016 -5 -2.597899 -4.473168 -3.535534 -3.535534 
C -4.473168 -2.597899 -5 -1.326016 -5 0 
C -5 1.326016 -4.473168 2.597899 -3.535534 3.535534 
C -2.597899 4.473168 -1.326016 5 0 5 
z
" style="stroke: #ff69b4"/>
    </defs>
    <g clip-path="url(#pf515ed39d3)">
     <use xlink:href="#m4692091b43" x="206.64595" y="92.2752" style="fill: #ff69b4; stroke: #ff69b4"/>
    </g>
   </g>
   <g id="line2d_25">
    <path d="M 265.96919 232.5888 
" clip-path="url(#pf515ed39d3)" style="fill: none; stroke: #ff69b4; stroke-width: 1.5; stroke-linecap: square"/>
    <defs>
     <path id="m2e00535c05" d="M -5 5 
L 5 5 
L 5 -5 
L -5 -5 
z
" style="stroke: #ff69b4; stroke-linejoin: miter"/>
    </defs>
    <g clip-path="url(#pf515ed39d3)">
     <use xlink:href="#m2e00535c05" x="265.96919" y="232.5888" style="fill: #ff69b4; stroke: #ff69b4; stroke-linejoin: miter"/>
    </g>
   </g>
   <g id="line2d_26">
    <path d="M 165.621421 175.1328 
L 171.819372 172.1088 
L 178.312463 169.0848 
L 184.805554 166.3632 
L 191.888926 163.3392 
L 199.562579 160.3152 
L 207.531372 156.9888 
L 215.795306 153.9648 
L 224.35438 150.6384 
L 233.798876 147.312 
L 243.243372 143.6832 
L 257.705256 140.6592 
L 268.625455 138.8448 
L 279.250512 137.0304 
L 288.990149 135.8208 
L 297.844364 134.6112 
L 306.108298 133.704 
L 313.48681 133.0992 
L 319.979901 132.192 
L 325.882711 131.8896 
L 331.19524 131.5872 
L 335.622347 131.2848 
L 339.754314 131.2848 
L 343.00086 131.8896 
L 345.066843 133.4016 
L 346.247405 134.9136 
L 346.837686 137.3328 
L 346.247405 140.3568 
L 345.066843 143.6832 
L 343.886281 147.0096 
L 342.115438 150.0336 
L 339.754314 152.7552 
L 338.278612 154.2672 
L 332.966083 157.896 
L 329.129256 160.3152 
L 327.063273 161.8272 
L 322.931306 164.5488 
L 315.552793 168.48 
L 311.125686 172.1088 
L 306.403438 175.4352 
L 303.747174 177.2496 
L 298.434645 180.576 
L 293.122116 183.9024 
L 285.743603 186.9264 
L 280.431074 189.0432 
L 274.528264 191.7648 
L 268.625455 194.7888 
L 262.722645 198.1152 
L 256.229554 202.0464 
L 250.326744 206.28 
L 244.719074 211.1184 
L 239.406545 215.6544 
L 234.684298 219.888 
L 229.96205 224.7264 
L 225.534942 229.5648 
L 221.402975 234.7056 
L 217.861289 240.1488 
L 214.319603 245.8944 
L 210.482777 252.8496 
L 206.35081 260.1072 
L 202.218843 267.9696 
L 199.267438 275.5296 
L 195.725752 282.4848 
L 193.364628 289.1376 
L 192.184066 294.2784 
L 192.184066 295.488 
L 193.954909 295.488 
L 195.135471 295.488 
L 198.677157 295.488 
L 202.809124 295.1856 
L 206.941091 294.5808 
L 211.073058 293.976 
L 214.614744 293.3712 
L 218.15643 293.0688 
L 220.812694 292.7664 
L 222.878678 292.7664 
L 224.35438 293.3712 
L 225.239802 293.976 
L 226.125223 294.5808 
L 226.420364 294.5808 
L 227.010645 294.5808 
L 227.896066 294.2784 
L 228.781488 293.976 
L 229.96205 293.3712 
L 230.847471 294.2784 
L 232.028033 295.488 
L 233.503736 295.488 
L 234.979438 295.488 
L 236.45514 295.488 
L 237.340562 294.8832 
L 239.111405 293.6736 
L 240.587107 290.952 
L 242.948231 287.928 
L 245.309355 283.9968 
L 248.555901 279.4608 
L 252.392727 274.6224 
L 256.524694 269.1792 
" clip-path="url(#pf515ed39d3)" style="fill: none; stroke: #00ffff; stroke-width: 1.5; stroke-linecap: square"/>
   </g>
   <g id="line2d_27">
    <path d="M 165.621421 175.1328 
" clip-path="url(#pf515ed39d3)" style="fill: none; stroke: #00ffff; stroke-width: 1.5; stroke-linecap: square"/>
    <defs>
     <path id="me0f5a15662" d="M 0 5 
C 1.326016 5 2.597899 4.473168 3.535534 3.535534 
C 4.473168 2.597899 5 1.326016 5 0 
C 5 -1.326016 4.473168 -2.597899 3.535534 -3.535534 
C 2.597899 -4.473168 1.326016 -5 0 -5 
C -1.326016 -5 -2.597899 -4.473168 -3.535534 -3.535534 
C -4.473168 -2.597899 -5 -1.326016 -5 0 
C -5 1.326016 -4.473168 2.597899 -3.535534 3.535534 
C -2.597899 4.473168 -1.326016 5 0 5 
z
" style="stroke: #00ffff"/>
    </defs>
    <g clip-path="url(#pf515ed39d3)">
     <use xlink:href="#me0f5a15662" x="165.621421" y="175.1328" style="fill: #00ffff; stroke: #00ffff"/>
    </g>
   </g>
   <g id="line2d_28">
    <path d="M 256.524694 269.1792 
" clip-path="url(#pf515ed39d3)" style="fill: none; stroke: #00ffff; stroke-width: 1.5; stroke-linecap: square"/>
    <defs>
     <path id="m2004ab268e" d="M -5 5 
L 5 5 
L 5 -5 
L -5 -5 
z
" style="stroke: #00ffff; stroke-linejoin: miter"/>
    </defs>
    <g clip-path="url(#pf515ed39d3)">
     <use xlink:href="#m2004ab268e" x="256.524694" y="269.1792" style="fill: #00ffff; stroke: #00ffff; stroke-linejoin: miter"/>
    </g>
   </g>
   <g id="line2d_29">
    <path d="M 215.205025 180.576 
L 223.173818 184.2048 
L 230.25719 188.7408 
L 237.045421 193.5792 
L 240.882248 196.9056 
L 245.014215 200.5344 
L 249.736463 202.6512 
L 253.573289 203.8608 
L 259.77124 205.0704 
L 270.986579 206.5824 
L 278.365091 210.5136 
L 283.67762 213.84 
L 289.58043 216.864 
L 293.417256 219.888 
L 296.663802 225.6336 
L 300.205488 231.984 
L 302.861752 236.8224 
L 305.813157 241.6608 
L 308.764562 247.7088 
L 310.535405 252.5472 
L 311.125686 257.688 
L 311.715967 267.3648 
L 310.830545 276.7392 
L 310.535405 281.5776 
L 309.354843 295.488 
L 309.059702 295.488 
L 309.354843 295.488 
L 311.125686 295.488 
L 313.48681 295.488 
L 316.438215 295.488 
L 322.045884 295.488 
L 328.538975 295.488 
L 332.966083 295.488 
L 343.00086 295.488 
L 348.903669 295.488 
L 354.511339 295.488 
L 361.00443 295.488 
L 365.136397 292.7664 
L 368.973223 288.5328 
L 373.400331 279.1584 
L 376.646876 264.6432 
L 377.827438 255.8736 
L 379.008 238.3344 
L 378.71286 220.7952 
L 378.122579 209.0016 
L 376.351736 192.3696 
L 375.761455 180.2736 
L 375.466314 174.8304 
L 375.761455 161.2224 
L 376.351736 150.6384 
L 377.532298 139.4496 
L 377.532298 126.7488 
L 375.761455 120.3984 
L 373.695471 116.4672 
L 370.153785 111.9312 
L 368.382942 109.8144 
L 366.021818 108.6048 
L 362.184992 108 
L 360.709289 108 
L 357.757884 108 
L 354.806479 108.3024 
L 352.740496 108.3024 
L 350.674512 108.3024 
L 348.903669 107.3952 
L 348.608529 107.0928 
L 348.313388 106.488 
L 348.018248 104.976 
L 348.313388 104.6736 
L 348.313388 104.0688 
L 348.903669 103.464 
L 348.903669 103.1616 
L 348.313388 103.464 
L 347.427967 104.3712 
L 345.952264 105.8832 
L 343.886281 107.3952 
L 341.525157 109.2096 
L 337.983471 111.9312 
L 334.146645 114.6528 
L 330.014678 117.3744 
L 325.29243 120.3984 
L 320.570182 123.4224 
L 315.257653 126.4464 
L 309.059702 129.4704 
L 299.024926 131.8896 
L 291.351273 132.7968 
L 283.97276 132.192 
L 276.889388 131.2848 
L 270.396298 131.2848 
L 265.96919 131.2848 
L 260.951802 131.2848 
L 255.934413 131.2848 
L 252.097587 130.9824 
L 249.146182 130.3776 
L 247.375339 129.4704 
L 247.080198 128.2608 
L 247.96562 127.0512 
L 250.326744 125.2368 
L 252.983008 123.4224 
L 256.819835 121.3056 
L 261.246942 118.8864 
L 266.559471 116.4672 
L 272.16714 113.7456 
L 278.06995 111.024 
L 283.97276 108.3024 
" clip-path="url(#pf515ed39d3)" style="fill: none; stroke: #8a2be2; stroke-width: 1.5; stroke-linecap: square"/>
   </g>
   <g id="line2d_30">
    <path d="M 215.205025 180.576 
" clip-path="url(#pf515ed39d3)" style="fill: none; stroke: #8a2be2; stroke-width: 1.5; stroke-linecap: square"/>
    <defs>
     <path id="m8d3b80e822" d="M 0 5 
C 1.326016 5 2.597899 4.473168 3.535534 3.535534 
C 4.473168 2.597899 5 1.326016 5 0 
C 5 -1.326016 4.473168 -2.597899 3.535534 -3.535534 
C 2.597899 -4.473168 1.326016 -5 0 -5 
C -1.326016 -5 -2.597899 -4.473168 -3.535534 -3.535534 
C -4.473168 -2.597899 -5 -1.326016 -5 0 
C -5 1.326016 -4.473168 2.597899 -3.535534 3.535534 
C -2.597899 4.473168 -1.326016 5 0 5 
z
" style="stroke: #8a2be2"/>
    </defs>
    <g clip-path="url(#pf515ed39d3)">
     <use xlink:href="#m8d3b80e822" x="215.205025" y="180.576" style="fill: #8a2be2; stroke: #8a2be2"/>
    </g>
   </g>
   <g id="line2d_31">
    <path d="M 283.97276 108.3024 
" clip-path="url(#pf515ed39d3)" style="fill: none; stroke: #8a2be2; stroke-width: 1.5; stroke-linecap: square"/>
    <defs>
     <path id="m320d33bb4e" d="M -5 5 
L 5 5 
L 5 -5 
L -5 -5 
z
" style="stroke: #8a2be2; stroke-linejoin: miter"/>
    </defs>
    <g clip-path="url(#pf515ed39d3)">
     <use xlink:href="#m320d33bb4e" x="283.97276" y="108.3024" style="fill: #8a2be2; stroke: #8a2be2; stroke-linejoin: miter"/>
    </g>
   </g>
   <g id="line2d_32">
    <path d="M 138.173355 182.6928 
L 134.631669 182.6928 
L 126.367736 181.7856 
L 124.892033 181.1808 
L 123.416331 179.3664 
L 126.072595 176.04 
L 130.794843 173.6208 
L 136.697653 170.5968 
L 144.076165 167.2704 
L 152.340099 163.944 
L 161.194314 160.3152 
L 170.63881 156.6864 
L 180.083306 153.36 
L 189.822942 150.0336 
L 199.562579 147.312 
L 208.711934 144.5904 
L 217.271008 142.776 
L 225.830083 141.264 
L 234.389157 140.3568 
L 246.194777 140.9616 
L 253.86843 142.1712 
L 261.542083 143.6832 
L 268.330314 145.1952 
L 274.528264 147.0096 
L 279.840793 148.824 
L 284.267901 150.6384 
L 288.695008 151.848 
L 293.417256 152.1504 
L 299.320066 152.1504 
L 304.927736 151.848 
L 310.535405 151.2432 
L 317.618777 150.0336 
L 323.816727 149.4288 
L 329.424397 149.1264 
L 337.09805 148.824 
L 341.525157 149.7312 
L 344.771702 150.9408 
L 346.837686 152.7552 
L 348.608529 154.5696 
L 349.789091 156.9888 
L 350.674512 159.1056 
L 351.264793 161.5248 
L 350.969653 163.944 
L 350.674512 166.3632 
L 349.19881 169.992 
L 347.723107 173.016 
L 345.361983 176.3424 
L 342.705719 179.3664 
L 340.049455 181.7856 
L 336.802909 184.5072 
L 333.261223 186.624 
L 329.129256 189.0432 
L 324.407008 191.4624 
L 319.38962 193.2768 
L 314.667372 194.4864 
L 310.240264 195.3936 
L 306.108298 195.9984 
L 302.271471 196.6032 
L 299.024926 196.9056 
L 296.073521 197.208 
L 294.007537 197.208 
L 292.826975 197.208 
L 291.941554 197.208 
L 291.941554 196.9056 
L 292.531835 196.9056 
L 293.417256 197.208 
L 294.597818 196.9056 
L 296.663802 196.6032 
L 299.024926 195.696 
L 301.68119 194.4864 
L 304.632595 193.2768 
L 307.28886 192.0672 
L 311.125686 191.16 
L 312.896529 190.5552 
L 315.552793 190.5552 
L 317.028496 190.2528 
L 318.799339 189.9504 
L 320.570182 189.9504 
L 322.636165 190.2528 
L 324.702149 190.5552 
L 327.358413 191.7648 
L 329.129256 193.8816 
L 330.900099 196.3008 
L 332.375802 198.4176 
" clip-path="url(#pf515ed39d3)" style="fill: none; stroke: #20b2aa; stroke-width: 1.5; stroke-linecap: square"/>
   </g>
   <g id="line2d_33">
    <path d="M 138.173355 182.6928 
" clip-path="url(#pf515ed39d3)" style="fill: none; stroke: #20b2aa; stroke-width: 1.5; stroke-linecap: square"/>
    <defs>
     <path id="m991ae84f5b" d="M 0 5 
C 1.326016 5 2.597899 4.473168 3.535534 3.535534 
C 4.473168 2.597899 5 1.326016 5 0 
C 5 -1.326016 4.473168 -2.597899 3.535534 -3.535534 
C 2.597899 -4.473168 1.326016 -5 0 -5 
C -1.326016 -5 -2.597899 -4.473168 -3.535534 -3.535534 
C -4.473168 -2.597899 -5 -1.326016 -5 0 
C -5 1.326016 -4.473168 2.597899 -3.535534 3.535534 
C -2.597899 4.473168 -1.326016 5 0 5 
z
" style="stroke: #20b2aa"/>
    </defs>
    <g clip-path="url(#pf515ed39d3)">
     <use xlink:href="#m991ae84f5b" x="138.173355" y="182.6928" style="fill: #20b2aa; stroke: #20b2aa"/>
    </g>
   </g>
   <g id="line2d_34">
    <path d="M 332.375802 198.4176 
" clip-path="url(#pf515ed39d3)" style="fill: none; stroke: #20b2aa; stroke-width: 1.5; stroke-linecap: square"/>
    <defs>
     <path id="md381ef4bfe" d="M -5 5 
L 5 5 
L 5 -5 
L -5 -5 
z
" style="stroke: #20b2aa; stroke-linejoin: miter"/>
    </defs>
    <g clip-path="url(#pf515ed39d3)">
     <use xlink:href="#md381ef4bfe" x="332.375802" y="198.4176" style="fill: #20b2aa; stroke: #20b2aa; stroke-linejoin: miter"/>
    </g>
   </g>
   <g id="line2d_35">
    <path d="M 245.604496 144.8928 
L 242.35795 147.0096 
L 238.816264 149.4288 
L 235.274579 152.1504 
L 232.323174 154.872 
L 229.666909 157.5936 
L 227.305785 160.6176 
L 225.534942 163.6416 
L 223.764099 166.6656 
L 222.583537 169.3872 
L 221.107835 172.1088 
L 219.632132 174.528 
L 218.746711 175.7376 
L 216.975868 177.552 
L 215.205025 180.576 
L 213.729322 182.9952 
L 212.843901 184.5072 
L 212.25362 186.0192 
L 211.368198 187.2288 
L 209.597355 187.5312 
L 205.465388 188.136 
L 199.562579 188.136 
L 192.184066 189.3456 
L 185.100694 191.4624 
L 175.361058 193.2768 
L 165.03114 194.7888 
L 154.406083 195.696 
L 143.485884 196.3008 
L 132.860826 196.3008 
L 123.12119 195.9984 
L 114.266975 195.696 
L 105.707901 195.0912 
L 97.739107 194.7888 
L 90.655736 194.4864 
L 82.391802 194.7888 
L 77.374413 194.7888 
L 74.423008 195.0912 
L 73.832727 195.0912 
L 73.832727 194.7888 
L 75.013289 194.7888 
L 77.669554 194.7888 
L 82.096661 194.7888 
L 87.11405 194.7888 
L 93.01686 194.4864 
L 99.21481 194.184 
L 106.003041 193.8816 
L 112.200992 193.8816 
L 118.398942 193.8816 
L 124.301752 193.5792 
L 130.204562 193.5792 
L 135.517091 193.2768 
L 140.82962 193.2768 
L 145.256727 193.2768 
L 148.503273 193.2768 
L 150.569256 193.5792 
L 152.044959 194.184 
L 152.340099 194.4864 
L 152.340099 194.7888 
L 151.454678 195.0912 
L 149.978975 195.3936 
L 148.798413 195.696 
L 147.02757 195.9984 
L 144.961587 196.3008 
L 141.715041 196.9056 
L 137.878215 197.5104 
L 133.155967 198.4176 
L 127.843438 199.3248 
L 122.235769 200.5344 
L 116.332959 202.0464 
L 108.069025 203.8608 
L 101.280793 205.6752 
L 95.082843 207.792 
L 88.884893 210.2112 
L 83.277223 212.9328 
L 77.374413 216.2592 
L 73.832727 220.1904 
L 73.832727 224.7264 
L 73.832727 230.1696 
L 73.832727 235.9152 
L 73.832727 241.3584 
L 73.832727 246.1968 
L 73.832727 250.7328 
L 73.832727 254.664 
L 73.832727 257.688 
L 73.832727 260.4096 
L 73.832727 262.5264 
L 75.30843 264.0384 
L 78.850116 264.0384 
L 83.867504 263.1312 
L 86.818909 262.224 
L 93.01686 259.8048 
L 102.756496 255.5712 
L 109.249587 252.5472 
L 112.200992 250.7328 
L 117.808661 247.4064 
L 122.82605 243.7776 
L 126.958017 240.1488 
L 130.499702 236.2176 
L 133.451107 232.5888 
L 136.402512 228.96 
L 139.649058 225.3312 
L 144.371306 220.7952 
L 146.142149 219.2832 
L 148.503273 216.864 
L 150.274116 214.7472 
L 151.159537 213.2352 
L 151.159537 212.0256 
L 150.569256 211.4208 
L 149.683835 211.4208 
L 148.503273 211.7232 
L 146.73243 212.6304 
L 144.666446 213.2352 
L 142.305322 214.4448 
L 139.944198 215.9568 
L 136.992793 218.0736 
L 133.451107 221.0976 
L 131.385124 222.6096 
L 128.72886 224.1216 
" clip-path="url(#pf515ed39d3)" style="fill: none; stroke: #d2691e; stroke-width: 1.5; stroke-linecap: square"/>
   </g>
   <g id="line2d_36">
    <path d="M 245.604496 144.8928 
" clip-path="url(#pf515ed39d3)" style="fill: none; stroke: #d2691e; stroke-width: 1.5; stroke-linecap: square"/>
    <defs>
     <path id="m457c2d954d" d="M 0 5 
C 1.326016 5 2.597899 4.473168 3.535534 3.535534 
C 4.473168 2.597899 5 1.326016 5 0 
C 5 -1.326016 4.473168 -2.597899 3.535534 -3.535534 
C 2.597899 -4.473168 1.326016 -5 0 -5 
C -1.326016 -5 -2.597899 -4.473168 -3.535534 -3.535534 
C -4.473168 -2.597899 -5 -1.326016 -5 0 
C -5 1.326016 -4.473168 2.597899 -3.535534 3.535534 
C -2.597899 4.473168 -1.326016 5 0 5 
z
" style="stroke: #d2691e"/>
    </defs>
    <g clip-path="url(#pf515ed39d3)">
     <use xlink:href="#m457c2d954d" x="245.604496" y="144.8928" style="fill: #d2691e; stroke: #d2691e"/>
    </g>
   </g>
   <g id="line2d_37">
    <path d="M 128.72886 224.1216 
" clip-path="url(#pf515ed39d3)" style="fill: none; stroke: #d2691e; stroke-width: 1.5; stroke-linecap: square"/>
    <defs>
     <path id="mae594e85c2" d="M -5 5 
L 5 5 
L 5 -5 
L -5 -5 
z
" style="stroke: #d2691e; stroke-linejoin: miter"/>
    </defs>
    <g clip-path="url(#pf515ed39d3)">
     <use xlink:href="#mae594e85c2" x="128.72886" y="224.1216" style="fill: #d2691e; stroke: #d2691e; stroke-linejoin: miter"/>
    </g>
   </g>
   <g id="line2d_38">
    <path d="M 240.291967 176.04 
L 242.653091 175.4352 
L 244.719074 175.1328 
L 246.489917 174.8304 
L 247.670479 174.528 
L 250.031603 174.528 
L 252.392727 174.528 
L 252.983008 174.528 
L 254.16357 174.8304 
L 255.048992 174.8304 
L 255.344132 174.8304 
L 255.934413 175.1328 
L 255.934413 175.1328 
L 255.934413 175.4352 
L 255.934413 175.4352 
L 255.934413 175.4352 
L 256.229554 175.1328 
L 256.819835 174.8304 
L 257.705256 174.528 
L 258.590678 173.9232 
L 260.06638 173.016 
L 261.542083 172.1088 
L 263.017785 170.5968 
L 264.493488 168.7824 
L 265.67405 166.3632 
L 266.854612 162.7344 
L 267.740033 158.8032 
L 268.625455 154.5696 
L 269.215736 150.0336 
L 269.510876 147.6144 
L 270.396298 141.264 
L 270.986579 137.3328 
L 271.872 133.704 
L 272.16714 132.192 
L 273.052562 129.168 
L 273.937983 126.7488 
L 274.528264 124.632 
L 275.413686 122.2128 
L 275.708826 121.608 
L 277.184529 120.096 
L 277.77481 119.1888 
L 278.365091 120.7008 
L 278.955372 121.608 
L 279.250512 121.9104 
L 281.021355 121.608 
L 285.448463 120.3984 
L 287.219306 119.4912 
L 294.892959 116.4672 
L 297.549223 115.56 
L 303.156893 113.1408 
L 308.174281 111.3264 
L 312.601388 109.8144 
L 316.733355 108.6048 
L 319.979901 108 
L 322.341025 107.6976 
L 324.407008 107.3952 
L 326.472992 107.3952 
L 328.243835 107.6976 
L 329.424397 108.3024 
L 330.604959 109.2096 
L 331.19524 110.4192 
L 330.604959 113.7456 
L 330.014678 116.4672 
L 329.719537 118.8864 
L 328.834116 121.0032 
L 327.653554 122.8176 
L 326.177851 124.3296 
L 324.407008 125.5392 
L 322.636165 126.4464 
L 321.160463 127.0512 
L 319.68476 127.0512 
L 318.504198 126.7488 
L 317.913917 126.144 
L 317.618777 125.2368 
L 317.028496 124.0272 
L 316.733355 122.8176 
L 316.143074 121.9104 
L 315.552793 120.3984 
L 314.962512 119.1888 
L 314.372231 117.3744 
L 313.78195 115.56 
L 313.191669 113.4432 
L 312.306248 111.3264 
L 311.715967 109.512 
L 311.125686 107.6976 
L 311.125686 105.8832 
L 311.125686 104.3712 
L 312.306248 102.5568 
L 313.78195 100.7424 
L 316.143074 98.3232 
" clip-path="url(#pf515ed39d3)" style="fill: none; stroke: #ffc0cb; stroke-width: 1.5; stroke-linecap: square"/>
   </g>
   <g id="line2d_39">
    <path d="M 240.291967 176.04 
" clip-path="url(#pf515ed39d3)" style="fill: none; stroke: #ffc0cb; stroke-width: 1.5; stroke-linecap: square"/>
    <defs>
     <path id="m746679d2fc" d="M 0 5 
C 1.326016 5 2.597899 4.473168 3.535534 3.535534 
C 4.473168 2.597899 5 1.326016 5 0 
C 5 -1.326016 4.473168 -2.597899 3.535534 -3.535534 
C 2.597899 -4.473168 1.326016 -5 0 -5 
C -1.326016 -5 -2.597899 -4.473168 -3.535534 -3.535534 
C -4.473168 -2.597899 -5 -1.326016 -5 0 
C -5 1.326016 -4.473168 2.597899 -3.535534 3.535534 
C -2.597899 4.473168 -1.326016 5 0 5 
z
" style="stroke: #ffc0cb"/>
    </defs>
    <g clip-path="url(#pf515ed39d3)">
     <use xlink:href="#m746679d2fc" x="240.291967" y="176.04" style="fill: #ffc0cb; stroke: #ffc0cb"/>
    </g>
   </g>
   <g id="line2d_40">
    <path d="M 316.143074 98.3232 
" clip-path="url(#pf515ed39d3)" style="fill: none; stroke: #ffc0cb; stroke-width: 1.5; stroke-linecap: square"/>
    <defs>
     <path id="m48a74a555e" d="M -5 5 
L 5 5 
L 5 -5 
L -5 -5 
z
" style="stroke: #ffc0cb; stroke-linejoin: miter"/>
    </defs>
    <g clip-path="url(#pf515ed39d3)">
     <use xlink:href="#m48a74a555e" x="316.143074" y="98.3232" style="fill: #ffc0cb; stroke: #ffc0cb; stroke-linejoin: miter"/>
    </g>
   </g>
   <g id="line2d_41">
    <path d="M 268.625455 162.432 
L 268.330314 162.7344 
L 268.625455 162.432 
L 269.215736 162.7344 
L 269.806017 162.7344 
L 270.986579 163.0368 
L 274.528264 164.2464 
L 275.413686 164.8512 
L 278.955372 166.968 
L 279.840793 168.1776 
L 280.726215 171.8064 
L 280.726215 173.3184 
L 280.431074 176.3424 
L 279.250512 183.2976 
L 276.889388 186.624 
L 273.642843 189.9504 
L 267.740033 193.8816 
L 263.017785 196.3008 
L 257.410116 198.1152 
L 250.621884 199.9296 
L 243.243372 201.4416 
L 228.191207 203.256 
L 219.927273 203.8608 
L 211.368198 203.8608 
L 203.399405 203.5584 
L 196.906314 203.8608 
L 180.968727 205.9776 
L 175.361058 206.28 
L 167.687405 206.28 
L 160.899174 205.6752 
L 159.128331 205.0704 
L 158.242909 203.5584 
L 158.242909 200.232 
L 158.83319 197.5104 
L 158.83319 195.696 
L 158.242909 194.7888 
L 156.472066 193.5792 
L 154.406083 192.9744 
L 152.044959 192.9744 
L 149.683835 193.5792 
L 147.02757 194.4864 
L 144.666446 195.9984 
L 142.010182 198.4176 
L 139.944198 201.744 
L 138.763636 205.0704 
L 138.763636 207.792 
L 137.878215 210.2112 
L 137.287934 210.5136 
L 136.402512 210.816 
L 136.697653 210.816 
L 137.583074 209.9088 
L 142.600463 205.6752 
L 144.961587 203.5584 
L 148.503273 200.5344 
L 152.63524 197.208 
L 156.767207 193.5792 
L 161.489455 190.5552 
L 165.916562 187.2288 
L 170.343669 184.5072 
L 175.065917 182.3904 
L 178.607603 182.9952 
L 183.034711 184.8096 
L 187.166678 186.624 
L 191.003504 188.4384 
L 193.659769 190.2528 
L 196.611174 192.0672 
L 199.267438 194.7888 
L 200.15286 196.9056 
L 200.74314 199.9296 
L 199.857719 201.4416 
L 198.382017 202.9536 
L 197.791736 202.3488 
L 197.791736 195.9984 
L 198.382017 192.3696 
L 201.038281 181.1808 
L 201.038281 178.1568 
L 200.15286 176.04 
L 198.086876 174.8304 
L 195.430612 174.528 
L 186.281256 177.552 
L 174.770777 181.4832 
L 164.736 185.112 
L 158.53805 187.5312 
L 152.63524 189.3456 
L 147.02757 190.2528 
L 142.010182 190.2528 
L 136.697653 189.3456 
L 131.089983 188.136 
L 126.072595 186.624 
L 122.82605 184.8096 
L 121.940628 183.9024 
L 120.760066 182.088 
L 120.760066 179.9712 
L 121.940628 178.1568 
L 124.301752 177.2496 
L 127.548298 176.6448 
L 129.909421 176.9472 
L 132.565686 178.4592 
L 135.22195 180.576 
L 136.992793 183.9024 
L 138.173355 188.4384 
L 138.763636 199.9296 
L 138.763636 205.9776 
L 138.173355 212.0256 
L 136.992793 218.0736 
L 135.22195 224.1216 
L 131.975405 237.7296 
L 131.089983 244.3824 
L 128.72886 249.8256 
L 122.82605 265.248 
L 121.055207 269.4816 
L 119.874645 272.808 
L 118.989223 276.1344 
L 118.398942 278.856 
L 119.579504 281.2752 
L 123.12119 284.2992 
L 126.072595 285.5088 
L 130.499702 286.416 
L 135.812231 286.7184 
L 141.715041 286.7184 
L 147.617851 286.416 
L 153.520661 286.7184 
L 158.53805 285.2064 
L 168.867967 278.856 
L 179.197884 271.9008 
L 184.510413 267.9696 
L 189.527802 264.0384 
L 198.972298 255.5712 
L 206.941091 248.0112 
L 213.139041 241.6608 
L 217.566149 236.52 
L 218.746711 235.008 
L 219.041851 234.1008 
L 218.15643 233.496 
L 215.500165 233.7984 
L 208.711934 236.52 
L 201.333421 240.7536 
L 193.659769 244.08 
L 186.871537 246.1968 
L 175.065917 248.9184 
L 154.701223 252.2448 
L 140.534479 253.4544 
L 128.433719 253.7568 
L 116.628099 253.7568 
L 103.937058 254.3616 
L 94.492562 254.664 
L 89.475174 254.664 
L 77.669554 253.7568 
L 73.832727 251.9424 
L 73.832727 246.4992 
L 75.013289 243.7776 
L 76.488992 242.2656 
L 85.638347 235.9152 
L 92.721719 232.8912 
L 100.690512 229.8672 
L 109.249587 227.1456 
L 122.530909 223.5168 
L 122.530909 223.5168 
" clip-path="url(#pf515ed39d3)" style="fill: none; stroke: #ff0000; stroke-width: 1.5; stroke-linecap: square"/>
   </g>
   <g id="line2d_42">
    <path d="M 268.625455 162.432 
" clip-path="url(#pf515ed39d3)" style="fill: none; stroke: #ff0000; stroke-width: 1.5; stroke-linecap: square"/>
    <defs>
     <path id="ma2c9ff3ee0" d="M 0 5 
C 1.326016 5 2.597899 4.473168 3.535534 3.535534 
C 4.473168 2.597899 5 1.326016 5 0 
C 5 -1.326016 4.473168 -2.597899 3.535534 -3.535534 
C 2.597899 -4.473168 1.326016 -5 0 -5 
C -1.326016 -5 -2.597899 -4.473168 -3.535534 -3.535534 
C -4.473168 -2.597899 -5 -1.326016 -5 0 
C -5 1.326016 -4.473168 2.597899 -3.535534 3.535534 
C -2.597899 4.473168 -1.326016 5 0 5 
z
" style="stroke: #ff0000"/>
    </defs>
    <g clip-path="url(#pf515ed39d3)">
     <use xlink:href="#ma2c9ff3ee0" x="268.625455" y="162.432" style="fill: #ff0000; stroke: #ff0000"/>
    </g>
   </g>
   <g id="line2d_43">
    <path d="M 122.530909 223.5168 
" clip-path="url(#pf515ed39d3)" style="fill: none; stroke: #ff0000; stroke-width: 1.5; stroke-linecap: square"/>
    <defs>
     <path id="mb05881d814" d="M -5 5 
L 5 5 
L 5 -5 
L -5 -5 
z
" style="stroke: #ff0000; stroke-linejoin: miter"/>
    </defs>
    <g clip-path="url(#pf515ed39d3)">
     <use xlink:href="#mb05881d814" x="122.530909" y="223.5168" style="fill: #ff0000; stroke: #ff0000; stroke-linejoin: miter"/>
    </g>
   </g>
   <g id="patch_3">
    <path d="M 57.6 307.584 
L 57.6 41.472 
" style="fill: none; stroke: #000000; stroke-width: 0.8; stroke-linejoin: miter; stroke-linecap: square"/>
   </g>
   <g id="patch_4">
    <path d="M 57.6 307.584 
L 414.72 307.584 
" style="fill: none; stroke: #000000; stroke-width: 0.8; stroke-linejoin: miter; stroke-linecap: square"/>
   </g>
   <g id="legend_1">
    <g id="patch_5">
     <path d="M 282.164531 119.523563 
L 404.22 119.523563 
Q 407.22 119.523563 407.22 116.523563 
L 407.22 51.972 
Q 407.22 48.972 404.22 48.972 
L 282.164531 48.972 
Q 279.164531 48.972 279.164531 51.972 
L 279.164531 116.523563 
Q 279.164531 119.523563 282.164531 119.523563 
z
" style="fill: #ffffff; opacity: 0.8; stroke: #cccccc; stroke-linejoin: miter"/>
    </g>
    <g id="line2d_44">
     <path d="M 285.164531 61.119656 
L 300.164531 61.119656 
L 315.164531 61.119656 
" style="fill: none; stroke: #000000; stroke-width: 1.5; stroke-linecap: square"/>
    </g>
    <g id="text_7">
     <!-- Trajectory -->
     <g transform="translate(327.164531 66.369656)scale(0.15 -0.15)">
      <defs>
       <path id="DejaVuSans-54" d="M -19 4666 
L 3928 4666 
L 3928 4134 
L 2272 4134 
L 2272 0 
L 1638 0 
L 1638 4134 
L -19 4134 
L -19 4666 
z
" transform="scale(0.015625)"/>
       <path id="DejaVuSans-72" d="M 2631 2963 
Q 2534 3019 2420 3045 
Q 2306 3072 2169 3072 
Q 1681 3072 1420 2755 
Q 1159 2438 1159 1844 
L 1159 0 
L 581 0 
L 581 3500 
L 1159 3500 
L 1159 2956 
Q 1341 3275 1631 3429 
Q 1922 3584 2338 3584 
Q 2397 3584 2469 3576 
Q 2541 3569 2628 3553 
L 2631 2963 
z
" transform="scale(0.015625)"/>
       <path id="DejaVuSans-61" d="M 2194 1759 
Q 1497 1759 1228 1600 
Q 959 1441 959 1056 
Q 959 750 1161 570 
Q 1363 391 1709 391 
Q 2188 391 2477 730 
Q 2766 1069 2766 1631 
L 2766 1759 
L 2194 1759 
z
M 3341 1997 
L 3341 0 
L 2766 0 
L 2766 531 
Q 2569 213 2275 61 
Q 1981 -91 1556 -91 
Q 1019 -91 701 211 
Q 384 513 384 1019 
Q 384 1609 779 1909 
Q 1175 2209 1959 2209 
L 2766 2209 
L 2766 2266 
Q 2766 2663 2505 2880 
Q 2244 3097 1772 3097 
Q 1472 3097 1187 3025 
Q 903 2953 641 2809 
L 641 3341 
Q 956 3463 1253 3523 
Q 1550 3584 1831 3584 
Q 2591 3584 2966 3190 
Q 3341 2797 3341 1997 
z
" transform="scale(0.015625)"/>
       <path id="DejaVuSans-6a" d="M 603 3500 
L 1178 3500 
L 1178 -63 
Q 1178 -731 923 -1031 
Q 669 -1331 103 -1331 
L -116 -1331 
L -116 -844 
L 38 -844 
Q 366 -844 484 -692 
Q 603 -541 603 -63 
L 603 3500 
z
M 603 4863 
L 1178 4863 
L 1178 4134 
L 603 4134 
L 603 4863 
z
" transform="scale(0.015625)"/>
       <path id="DejaVuSans-65" d="M 3597 1894 
L 3597 1613 
L 953 1613 
Q 991 1019 1311 708 
Q 1631 397 2203 397 
Q 2534 397 2845 478 
Q 3156 559 3463 722 
L 3463 178 
Q 3153 47 2828 -22 
Q 2503 -91 2169 -91 
Q 1331 -91 842 396 
Q 353 884 353 1716 
Q 353 2575 817 3079 
Q 1281 3584 2069 3584 
Q 2775 3584 3186 3129 
Q 3597 2675 3597 1894 
z
M 3022 2063 
Q 3016 2534 2758 2815 
Q 2500 3097 2075 3097 
Q 1594 3097 1305 2825 
Q 1016 2553 972 2059 
L 3022 2063 
z
" transform="scale(0.015625)"/>
       <path id="DejaVuSans-63" d="M 3122 3366 
L 3122 2828 
Q 2878 2963 2633 3030 
Q 2388 3097 2138 3097 
Q 1578 3097 1268 2742 
Q 959 2388 959 1747 
Q 959 1106 1268 751 
Q 1578 397 2138 397 
Q 2388 397 2633 464 
Q 2878 531 3122 666 
L 3122 134 
Q 2881 22 2623 -34 
Q 2366 -91 2075 -91 
Q 1284 -91 818 406 
Q 353 903 353 1747 
Q 353 2603 823 3093 
Q 1294 3584 2113 3584 
Q 2378 3584 2631 3529 
Q 2884 3475 3122 3366 
z
" transform="scale(0.015625)"/>
       <path id="DejaVuSans-74" d="M 1172 4494 
L 1172 3500 
L 2356 3500 
L 2356 3053 
L 1172 3053 
L 1172 1153 
Q 1172 725 1289 603 
Q 1406 481 1766 481 
L 2356 481 
L 2356 0 
L 1766 0 
Q 1100 0 847 248 
Q 594 497 594 1153 
L 594 3053 
L 172 3053 
L 172 3500 
L 594 3500 
L 594 4494 
L 1172 4494 
z
" transform="scale(0.015625)"/>
       <path id="DejaVuSans-6f" d="M 1959 3097 
Q 1497 3097 1228 2736 
Q 959 2375 959 1747 
Q 959 1119 1226 758 
Q 1494 397 1959 397 
Q 2419 397 2687 759 
Q 2956 1122 2956 1747 
Q 2956 2369 2687 2733 
Q 2419 3097 1959 3097 
z
M 1959 3584 
Q 2709 3584 3137 3096 
Q 3566 2609 3566 1747 
Q 3566 888 3137 398 
Q 2709 -91 1959 -91 
Q 1206 -91 779 398 
Q 353 888 353 1747 
Q 353 2609 779 3096 
Q 1206 3584 1959 3584 
z
" transform="scale(0.015625)"/>
       <path id="DejaVuSans-79" d="M 2059 -325 
Q 1816 -950 1584 -1140 
Q 1353 -1331 966 -1331 
L 506 -1331 
L 506 -850 
L 844 -850 
Q 1081 -850 1212 -737 
Q 1344 -625 1503 -206 
L 1606 56 
L 191 3500 
L 800 3500 
L 1894 763 
L 2988 3500 
L 3597 3500 
L 2059 -325 
z
" transform="scale(0.015625)"/>
      </defs>
      <use xlink:href="#DejaVuSans-54"/>
      <use xlink:href="#DejaVuSans-72" x="46.333984"/>
      <use xlink:href="#DejaVuSans-61" x="87.447266"/>
      <use xlink:href="#DejaVuSans-6a" x="148.726562"/>
      <use xlink:href="#DejaVuSans-65" x="176.509766"/>
      <use xlink:href="#DejaVuSans-63" x="238.033203"/>
      <use xlink:href="#DejaVuSans-74" x="293.013672"/>
      <use xlink:href="#DejaVuSans-6f" x="332.222656"/>
      <use xlink:href="#DejaVuSans-72" x="393.404297"/>
      <use xlink:href="#DejaVuSans-79" x="434.517578"/>
     </g>
    </g>
    <g id="line2d_45">
     <path d="M 285.164531 83.136844 
L 300.164531 83.136844 
L 315.164531 83.136844 
" style="fill: none; stroke: #000000; stroke-width: 1.5; stroke-linecap: square"/>
     <g>
      <use xlink:href="#m4adba9521f" x="300.164531" y="83.136844" style="stroke: #000000"/>
     </g>
    </g>
    <g id="text_8">
     <!-- Start -->
     <g transform="translate(327.164531 88.386844)scale(0.15 -0.15)">
      <defs>
       <path id="DejaVuSans-53" d="M 3425 4513 
L 3425 3897 
Q 3066 4069 2747 4153 
Q 2428 4238 2131 4238 
Q 1616 4238 1336 4038 
Q 1056 3838 1056 3469 
Q 1056 3159 1242 3001 
Q 1428 2844 1947 2747 
L 2328 2669 
Q 3034 2534 3370 2195 
Q 3706 1856 3706 1288 
Q 3706 609 3251 259 
Q 2797 -91 1919 -91 
Q 1588 -91 1214 -16 
Q 841 59 441 206 
L 441 856 
Q 825 641 1194 531 
Q 1563 422 1919 422 
Q 2459 422 2753 634 
Q 3047 847 3047 1241 
Q 3047 1584 2836 1778 
Q 2625 1972 2144 2069 
L 1759 2144 
Q 1053 2284 737 2584 
Q 422 2884 422 3419 
Q 422 4038 858 4394 
Q 1294 4750 2059 4750 
Q 2388 4750 2728 4690 
Q 3069 4631 3425 4513 
z
" transform="scale(0.015625)"/>
      </defs>
      <use xlink:href="#DejaVuSans-53"/>
      <use xlink:href="#DejaVuSans-74" x="63.476562"/>
      <use xlink:href="#DejaVuSans-61" x="102.685547"/>
      <use xlink:href="#DejaVuSans-72" x="163.964844"/>
      <use xlink:href="#DejaVuSans-74" x="205.078125"/>
     </g>
    </g>
    <g id="line2d_46">
     <path d="M 285.164531 105.154031 
L 300.164531 105.154031 
L 315.164531 105.154031 
" style="fill: none; stroke: #000000; stroke-width: 1.5; stroke-linecap: square"/>
     <g>
      <use xlink:href="#m4f3b2d7b76" x="300.164531" y="105.154031" style="stroke: #000000; stroke-linejoin: miter"/>
     </g>
    </g>
    <g id="text_9">
     <!-- End -->
     <g transform="translate(327.164531 110.404031)scale(0.15 -0.15)">
      <defs>
       <path id="DejaVuSans-45" d="M 628 4666 
L 3578 4666 
L 3578 4134 
L 1259 4134 
L 1259 2753 
L 3481 2753 
L 3481 2222 
L 1259 2222 
L 1259 531 
L 3634 531 
L 3634 0 
L 628 0 
L 628 4666 
z
" transform="scale(0.015625)"/>
       <path id="DejaVuSans-6e" d="M 3513 2113 
L 3513 0 
L 2938 0 
L 2938 2094 
Q 2938 2591 2744 2837 
Q 2550 3084 2163 3084 
Q 1697 3084 1428 2787 
Q 1159 2491 1159 1978 
L 1159 0 
L 581 0 
L 581 3500 
L 1159 3500 
L 1159 2956 
Q 1366 3272 1645 3428 
Q 1925 3584 2291 3584 
Q 2894 3584 3203 3211 
Q 3513 2838 3513 2113 
z
" transform="scale(0.015625)"/>
       <path id="DejaVuSans-64" d="M 2906 2969 
L 2906 4863 
L 3481 4863 
L 3481 0 
L 2906 0 
L 2906 525 
Q 2725 213 2448 61 
Q 2172 -91 1784 -91 
Q 1150 -91 751 415 
Q 353 922 353 1747 
Q 353 2572 751 3078 
Q 1150 3584 1784 3584 
Q 2172 3584 2448 3432 
Q 2725 3281 2906 2969 
z
M 947 1747 
Q 947 1113 1208 752 
Q 1469 391 1925 391 
Q 2381 391 2643 752 
Q 2906 1113 2906 1747 
Q 2906 2381 2643 2742 
Q 2381 3103 1925 3103 
Q 1469 3103 1208 2742 
Q 947 2381 947 1747 
z
" transform="scale(0.015625)"/>
      </defs>
      <use xlink:href="#DejaVuSans-45"/>
      <use xlink:href="#DejaVuSans-6e" x="63.183594"/>
      <use xlink:href="#DejaVuSans-64" x="126.5625"/>
     </g>
    </g>
   </g>
  </g>
 </g>
 <defs>
  <clipPath id="pf515ed39d3">
   <rect x="57.6" y="41.472" width="357.12" height="266.112"/>
  </clipPath>
 </defs>
</svg>
