<?xml version="1.0" encoding="utf-8" standalone="no"?>
<!DOCTYPE svg PUBLIC "-//W3C//DTD SVG 1.1//EN"
  "http://www.w3.org/Graphics/SVG/1.1/DTD/svg11.dtd">
<svg xmlns:xlink="http://www.w3.org/1999/xlink" width="460.8pt" height="345.6pt" viewBox="0 0 460.8 345.6" xmlns="http://www.w3.org/2000/svg" version="1.1">
 <metadata>
  <rdf:RDF xmlns:dc="http://purl.org/dc/elements/1.1/" xmlns:cc="http://creativecommons.org/ns#" xmlns:rdf="http://www.w3.org/1999/02/22-rdf-syntax-ns#">
   <cc:Work>
    <dc:type rdf:resource="http://purl.org/dc/dcmitype/StillImage"/>
    <dc:date>2024-02-14T16:35:25.716812</dc:date>
    <dc:format>image/svg+xml</dc:format>
    <dc:creator>
     <cc:Agent>
      <dc:title>Matplotlib v3.5.0, https://matplotlib.org/</dc:title>
     </cc:Agent>
    </dc:creator>
   </cc:Work>
  </rdf:RDF>
 </metadata>
 <defs>
  <style type="text/css">*{stroke-linejoin: round; stroke-linecap: butt}</style>
 </defs>
 <g id="figure_1">
  <g id="patch_1">
   <path d="M 0 345.6 
L 460.8 345.6 
L 460.8 0 
L 0 0 
z
" style="fill: #ffffff"/>
  </g>
  <g id="axes_1">
   <g id="patch_2">
    <path d="M 369.216 174.528 
C 369.216 157.055246 365.774248 139.752393 359.087715 123.609673 
C 352.401182 107.466954 342.599903 92.798303 330.2448 80.4432 
C 317.889697 68.088097 303.221046 58.286818 287.078327 51.600285 
C 270.935607 44.913752 253.632754 41.472 236.16 41.472 
C 218.687246 41.472 201.384393 44.913752 185.241673 51.600285 
C 169.098954 58.286818 154.430303 68.088097 142.0752 80.4432 
C 129.720097 92.798303 119.918818 107.466954 113.232285 123.609673 
C 106.545752 139.752393 103.104 157.055246 103.104 174.528 
C 103.104 192.000754 106.545752 209.303607 113.232285 225.446327 
C 119.918818 241.589046 129.720097 256.257697 142.0752 268.6128 
C 154.430303 280.967903 169.098954 290.769182 185.241673 297.455715 
C 201.384393 304.142248 218.687246 307.584 236.16 307.584 
C 253.632754 307.584 270.935607 304.142248 287.078327 297.455715 
C 303.221046 290.769182 317.889697 280.967903 330.2448 268.6128 
C 342.599903 256.257697 352.401182 241.589046 359.087715 225.446327 
C 365.774248 209.303607 369.216 192.000754 369.216 174.528 
M 236.16 174.528 
C 236.16 174.528 236.16 174.528 236.16 174.528 
C 236.16 174.528 236.16 174.528 236.16 174.528 
C 236.16 174.528 236.16 174.528 236.16 174.528 
C 236.16 174.528 236.16 174.528 236.16 174.528 
C 236.16 174.528 236.16 174.528 236.16 174.528 
C 236.16 174.528 236.16 174.528 236.16 174.528 
C 236.16 174.528 236.16 174.528 236.16 174.528 
C 236.16 174.528 236.16 174.528 236.16 174.528 
C 236.16 174.528 236.16 174.528 236.16 174.528 
C 236.16 174.528 236.16 174.528 236.16 174.528 
C 236.16 174.528 236.16 174.528 236.16 174.528 
C 236.16 174.528 236.16 174.528 236.16 174.528 
C 236.16 174.528 236.16 174.528 236.16 174.528 
C 236.16 174.528 236.16 174.528 236.16 174.528 
C 236.16 174.528 236.16 174.528 236.16 174.528 
C 236.16 174.528 236.16 174.528 236.16 174.528 
M 369.216 174.528 
z
" style="fill: #ffffff"/>
   </g>
   <g id="PathCollection_1">
    <defs>
     <path id="m8ed2fa77c2" d="M 0 3 
C 0.795609 3 1.55874 2.683901 2.12132 2.12132 
C 2.683901 1.55874 3 0.795609 3 0 
C 3 -0.795609 2.683901 -1.55874 2.12132 -2.12132 
C 1.55874 -2.683901 0.795609 -3 0 -3 
C -0.795609 -3 -1.55874 -2.683901 -2.12132 -2.12132 
C -2.683901 -1.55874 -3 -0.795609 -3 0 
C -3 0.795609 -2.683901 1.55874 -2.12132 2.12132 
C -1.55874 2.683901 -0.795609 3 0 3 
z
" style="stroke: #f50505"/>
    </defs>
    <g clip-path="url(#pe2060821b8)">
     <use xlink:href="#m8ed2fa77c2" x="282.518457" y="174.135322" style="fill: #f50505; stroke: #f50505"/>
     <use xlink:href="#m8ed2fa77c2" x="247.198879" y="134.068245" style="fill: #f50505; stroke: #f50505"/>
     <use xlink:href="#m8ed2fa77c2" x="262.997302" y="212.62044" style="fill: #f50505; stroke: #f50505"/>
     <use xlink:href="#m8ed2fa77c2" x="231.890391" y="218.415668" style="fill: #f50505; stroke: #f50505"/>
     <use xlink:href="#m8ed2fa77c2" x="286.053596" y="184.06484" style="fill: #f50505; stroke: #f50505"/>
     <use xlink:href="#m8ed2fa77c2" x="292.877227" y="178.974018" style="fill: #f50505; stroke: #f50505"/>
     <use xlink:href="#m8ed2fa77c2" x="268.802012" y="161.956483" style="fill: #f50505; stroke: #f50505"/>
     <use xlink:href="#m8ed2fa77c2" x="275.265049" y="170.247748" style="fill: #f50505; stroke: #f50505"/>
     <use xlink:href="#m8ed2fa77c2" x="279.653959" y="180.631876" style="fill: #f50505; stroke: #f50505"/>
     <use xlink:href="#m8ed2fa77c2" x="285.877456" y="169.404197" style="fill: #f50505; stroke: #f50505"/>
     <use xlink:href="#m8ed2fa77c2" x="275.579272" y="193.286672" style="fill: #f50505; stroke: #f50505"/>
     <use xlink:href="#m8ed2fa77c2" x="275.210647" y="157.658644" style="fill: #f50505; stroke: #f50505"/>
     <use xlink:href="#m8ed2fa77c2" x="264.330656" y="209.926548" style="fill: #f50505; stroke: #f50505"/>
     <use xlink:href="#m8ed2fa77c2" x="261.03501" y="221.176824" style="fill: #f50505; stroke: #f50505"/>
     <use xlink:href="#m8ed2fa77c2" x="236.741231" y="216.471132" style="fill: #f50505; stroke: #f50505"/>
     <use xlink:href="#m8ed2fa77c2" x="256.556085" y="210.796196" style="fill: #f50505; stroke: #f50505"/>
     <use xlink:href="#m8ed2fa77c2" x="263.347194" y="210.434464" style="fill: #f50505; stroke: #f50505"/>
     <use xlink:href="#m8ed2fa77c2" x="273.000598" y="141.370139" style="fill: #f50505; stroke: #f50505"/>
     <use xlink:href="#m8ed2fa77c2" x="286.855471" y="181.640224" style="fill: #f50505; stroke: #f50505"/>
     <use xlink:href="#m8ed2fa77c2" x="269.264474" y="163.871419" style="fill: #f50505; stroke: #f50505"/>
     <use xlink:href="#m8ed2fa77c2" x="270.993265" y="187.554519" style="fill: #f50505; stroke: #f50505"/>
     <use xlink:href="#m8ed2fa77c2" x="278.677773" y="217.409462" style="fill: #f50505; stroke: #f50505"/>
     <use xlink:href="#m8ed2fa77c2" x="253.432716" y="206.550939" style="fill: #f50505; stroke: #f50505"/>
     <use xlink:href="#m8ed2fa77c2" x="276.584362" y="106.533955" style="fill: #f50505; stroke: #f50505"/>
     <use xlink:href="#m8ed2fa77c2" x="280.408828" y="173.508177" style="fill: #f50505; stroke: #f50505"/>
     <use xlink:href="#m8ed2fa77c2" x="275.371693" y="172.368761" style="fill: #f50505; stroke: #f50505"/>
     <use xlink:href="#m8ed2fa77c2" x="292.248667" y="185.221837" style="fill: #f50505; stroke: #f50505"/>
     <use xlink:href="#m8ed2fa77c2" x="221.371247" y="213.737551" style="fill: #f50505; stroke: #f50505"/>
     <use xlink:href="#m8ed2fa77c2" x="266.554982" y="194.369688" style="fill: #f50505; stroke: #f50505"/>
     <use xlink:href="#m8ed2fa77c2" x="275.855329" y="189.19309" style="fill: #f50505; stroke: #f50505"/>
     <use xlink:href="#m8ed2fa77c2" x="276.632198" y="178.161657" style="fill: #f50505; stroke: #f50505"/>
     <use xlink:href="#m8ed2fa77c2" x="274.945369" y="166.812622" style="fill: #f50505; stroke: #f50505"/>
     <use xlink:href="#m8ed2fa77c2" x="269.991801" y="185.220993" style="fill: #f50505; stroke: #f50505"/>
     <use xlink:href="#m8ed2fa77c2" x="244.181008" y="222.880738" style="fill: #f50505; stroke: #f50505"/>
    </g>
   </g>
   <g id="PathCollection_2">
    <defs>
     <path id="m2fcf1cc948" d="M 0 3 
C 0.795609 3 1.55874 2.683901 2.12132 2.12132 
C 2.683901 1.55874 3 0.795609 3 0 
C 3 -0.795609 2.683901 -1.55874 2.12132 -2.12132 
C 1.55874 -2.683901 0.795609 -3 0 -3 
C -0.795609 -3 -1.55874 -2.683901 -2.12132 -2.12132 
C -2.683901 -1.55874 -3 -0.795609 -3 0 
C -3 0.795609 -2.683901 1.55874 -2.12132 2.12132 
C -1.55874 2.683901 -0.795609 3 0 3 
z
" style="stroke: #3505f5"/>
    </defs>
    <g clip-path="url(#pe2060821b8)">
     <use xlink:href="#m2fcf1cc948" x="278.976132" y="174.528" style="fill: #3505f5; stroke: #3505f5"/>
     <use xlink:href="#m2fcf1cc948" x="278.976132" y="174.528" style="fill: #3505f5; stroke: #3505f5"/>
     <use xlink:href="#m2fcf1cc948" x="301.033588" y="189.944017" style="fill: #3505f5; stroke: #3505f5"/>
     <use xlink:href="#m2fcf1cc948" x="234.295927" y="256.10933" style="fill: #3505f5; stroke: #3505f5"/>
     <use xlink:href="#m2fcf1cc948" x="278.976132" y="174.528" style="fill: #3505f5; stroke: #3505f5"/>
     <use xlink:href="#m2fcf1cc948" x="278.976132" y="174.528" style="fill: #3505f5; stroke: #3505f5"/>
     <use xlink:href="#m2fcf1cc948" x="239.896905" y="179.283401" style="fill: #3505f5; stroke: #3505f5"/>
     <use xlink:href="#m2fcf1cc948" x="272.727266" y="177.163309" style="fill: #3505f5; stroke: #3505f5"/>
     <use xlink:href="#m2fcf1cc948" x="271.422846" y="198.113297" style="fill: #3505f5; stroke: #3505f5"/>
     <use xlink:href="#m2fcf1cc948" x="241.469219" y="160.554585" style="fill: #3505f5; stroke: #3505f5"/>
     <use xlink:href="#m2fcf1cc948" x="290.17211" y="211.893113" style="fill: #3505f5; stroke: #3505f5"/>
     <use xlink:href="#m2fcf1cc948" x="267.723143" y="218.257741" style="fill: #3505f5; stroke: #3505f5"/>
     <use xlink:href="#m2fcf1cc948" x="271.647845" y="193.355515" style="fill: #3505f5; stroke: #3505f5"/>
     <use xlink:href="#m2fcf1cc948" x="278.976132" y="174.528" style="fill: #3505f5; stroke: #3505f5"/>
     <use xlink:href="#m2fcf1cc948" x="228.518838" y="211.370799" style="fill: #3505f5; stroke: #3505f5"/>
     <use xlink:href="#m2fcf1cc948" x="278.976132" y="174.528" style="fill: #3505f5; stroke: #3505f5"/>
     <use xlink:href="#m2fcf1cc948" x="278.976132" y="174.528" style="fill: #3505f5; stroke: #3505f5"/>
     <use xlink:href="#m2fcf1cc948" x="278.976132" y="174.528" style="fill: #3505f5; stroke: #3505f5"/>
     <use xlink:href="#m2fcf1cc948" x="247.600592" y="101.38338" style="fill: #3505f5; stroke: #3505f5"/>
     <use xlink:href="#m2fcf1cc948" x="278.976132" y="174.528" style="fill: #3505f5; stroke: #3505f5"/>
     <use xlink:href="#m2fcf1cc948" x="278.976132" y="174.528" style="fill: #3505f5; stroke: #3505f5"/>
     <use xlink:href="#m2fcf1cc948" x="310.062535" y="150.243219" style="fill: #3505f5; stroke: #3505f5"/>
     <use xlink:href="#m2fcf1cc948" x="278.976132" y="174.528" style="fill: #3505f5; stroke: #3505f5"/>
     <use xlink:href="#m2fcf1cc948" x="278.976132" y="174.528" style="fill: #3505f5; stroke: #3505f5"/>
     <use xlink:href="#m2fcf1cc948" x="278.976132" y="174.528" style="fill: #3505f5; stroke: #3505f5"/>
     <use xlink:href="#m2fcf1cc948" x="292.608299" y="182.825295" style="fill: #3505f5; stroke: #3505f5"/>
     <use xlink:href="#m2fcf1cc948" x="304.271302" y="179.963405" style="fill: #3505f5; stroke: #3505f5"/>
     <use xlink:href="#m2fcf1cc948" x="278.976132" y="174.528" style="fill: #3505f5; stroke: #3505f5"/>
     <use xlink:href="#m2fcf1cc948" x="278.976132" y="174.528" style="fill: #3505f5; stroke: #3505f5"/>
     <use xlink:href="#m2fcf1cc948" x="278.976132" y="174.528" style="fill: #3505f5; stroke: #3505f5"/>
     <use xlink:href="#m2fcf1cc948" x="278.976132" y="174.528" style="fill: #3505f5; stroke: #3505f5"/>
     <use xlink:href="#m2fcf1cc948" x="294.681639" y="169.808741" style="fill: #3505f5; stroke: #3505f5"/>
     <use xlink:href="#m2fcf1cc948" x="278.976132" y="174.528" style="fill: #3505f5; stroke: #3505f5"/>
     <use xlink:href="#m2fcf1cc948" x="284.521337" y="219.956577" style="fill: #3505f5; stroke: #3505f5"/>
    </g>
   </g>
   <g id="PathCollection_3">
    <defs>
     <path id="mbe6e677ee6" d="M 0 3 
C 0.795609 3 1.55874 2.683901 2.12132 2.12132 
C 2.683901 1.55874 3 0.795609 3 0 
C 3 -0.795609 2.683901 -1.55874 2.12132 -2.12132 
C 1.55874 -2.683901 0.795609 -3 0 -3 
C -0.795609 -3 -1.55874 -2.683901 -2.12132 -2.12132 
C -2.683901 -1.55874 -3 -0.795609 -3 0 
C -3 0.795609 -2.683901 1.55874 -2.12132 2.12132 
C -1.55874 2.683901 -0.795609 3 0 3 
z
" style="stroke: #02faf2"/>
    </defs>
    <g clip-path="url(#pe2060821b8)">
     <use xlink:href="#mbe6e677ee6" x="178.602298" y="267.344557" style="fill: #02faf2; stroke: #02faf2"/>
     <use xlink:href="#mbe6e677ee6" x="310.14959" y="147.403844" style="fill: #02faf2; stroke: #02faf2"/>
     <use xlink:href="#mbe6e677ee6" x="131.736235" y="207.858132" style="fill: #02faf2; stroke: #02faf2"/>
     <use xlink:href="#mbe6e677ee6" x="150.215518" y="103.846469" style="fill: #02faf2; stroke: #02faf2"/>
     <use xlink:href="#mbe6e677ee6" x="287.330006" y="105.926784" style="fill: #02faf2; stroke: #02faf2"/>
     <use xlink:href="#mbe6e677ee6" x="176.019879" y="280.986555" style="fill: #02faf2; stroke: #02faf2"/>
     <use xlink:href="#mbe6e677ee6" x="266.469216" y="266.013124" style="fill: #02faf2; stroke: #02faf2"/>
     <use xlink:href="#mbe6e677ee6" x="286.74955" y="143.800714" style="fill: #02faf2; stroke: #02faf2"/>
     <use xlink:href="#mbe6e677ee6" x="174.926589" y="138.443083" style="fill: #02faf2; stroke: #02faf2"/>
     <use xlink:href="#mbe6e677ee6" x="284.972603" y="231.234492" style="fill: #02faf2; stroke: #02faf2"/>
     <use xlink:href="#mbe6e677ee6" x="214.703684" y="284.996099" style="fill: #02faf2; stroke: #02faf2"/>
     <use xlink:href="#mbe6e677ee6" x="336.998162" y="97.309497" style="fill: #02faf2; stroke: #02faf2"/>
     <use xlink:href="#mbe6e677ee6" x="146.270119" y="193.59506" style="fill: #02faf2; stroke: #02faf2"/>
     <use xlink:href="#mbe6e677ee6" x="204.256628" y="274.226" style="fill: #02faf2; stroke: #02faf2"/>
     <use xlink:href="#mbe6e677ee6" x="198.202642" y="121.995279" style="fill: #02faf2; stroke: #02faf2"/>
     <use xlink:href="#mbe6e677ee6" x="174.220152" y="252.680328" style="fill: #02faf2; stroke: #02faf2"/>
     <use xlink:href="#mbe6e677ee6" x="160.567242" y="195.6508" style="fill: #02faf2; stroke: #02faf2"/>
     <use xlink:href="#mbe6e677ee6" x="297.98335" y="86.165136" style="fill: #02faf2; stroke: #02faf2"/>
     <use xlink:href="#mbe6e677ee6" x="287.313265" y="288.871711" style="fill: #02faf2; stroke: #02faf2"/>
     <use xlink:href="#mbe6e677ee6" x="313.103175" y="217.223527" style="fill: #02faf2; stroke: #02faf2"/>
     <use xlink:href="#mbe6e677ee6" x="311.892164" y="188.399169" style="fill: #02faf2; stroke: #02faf2"/>
     <use xlink:href="#mbe6e677ee6" x="276.594418" y="290.885889" style="fill: #02faf2; stroke: #02faf2"/>
     <use xlink:href="#mbe6e677ee6" x="148.911038" y="184.232374" style="fill: #02faf2; stroke: #02faf2"/>
     <use xlink:href="#mbe6e677ee6" x="289.770909" y="273.806676" style="fill: #02faf2; stroke: #02faf2"/>
     <use xlink:href="#mbe6e677ee6" x="275.33457" y="226.720854" style="fill: #02faf2; stroke: #02faf2"/>
     <use xlink:href="#mbe6e677ee6" x="320.276483" y="129.139924" style="fill: #02faf2; stroke: #02faf2"/>
     <use xlink:href="#mbe6e677ee6" x="309.055369" y="253.937546" style="fill: #02faf2; stroke: #02faf2"/>
     <use xlink:href="#mbe6e677ee6" x="266.558697" y="228.242105" style="fill: #02faf2; stroke: #02faf2"/>
     <use xlink:href="#mbe6e677ee6" x="209.033894" y="252.747809" style="fill: #02faf2; stroke: #02faf2"/>
     <use xlink:href="#mbe6e677ee6" x="292.685396" y="95.082297" style="fill: #02faf2; stroke: #02faf2"/>
     <use xlink:href="#mbe6e677ee6" x="132.756426" y="127.823259" style="fill: #02faf2; stroke: #02faf2"/>
     <use xlink:href="#mbe6e677ee6" x="233.548341" y="72.121965" style="fill: #02faf2; stroke: #02faf2"/>
     <use xlink:href="#mbe6e677ee6" x="222.742153" y="248.82858" style="fill: #02faf2; stroke: #02faf2"/>
     <use xlink:href="#mbe6e677ee6" x="206.132165" y="262.854705" style="fill: #02faf2; stroke: #02faf2"/>
    </g>
   </g>
   <g id="PathCollection_4">
    <defs>
     <path id="me7c3a8006a" d="M 0 3 
C 0.795609 3 1.55874 2.683901 2.12132 2.12132 
C 2.683901 1.55874 3 0.795609 3 0 
C 3 -0.795609 2.683901 -1.55874 2.12132 -2.12132 
C 1.55874 -2.683901 0.795609 -3 0 -3 
C -0.795609 -3 -1.55874 -2.683901 -2.12132 -2.12132 
C -2.683901 -1.55874 -3 -0.795609 -3 0 
C -3 0.795609 -2.683901 1.55874 -2.12132 2.12132 
C -1.55874 2.683901 -0.795609 3 0 3 
z
" style="stroke: #f5ed05"/>
    </defs>
    <g clip-path="url(#pe2060821b8)">
     <use xlink:href="#me7c3a8006a" x="278.039787" y="174.837437" style="fill: #f5ed05; stroke: #f5ed05"/>
     <use xlink:href="#me7c3a8006a" x="277.293793" y="173.769933" style="fill: #f5ed05; stroke: #f5ed05"/>
     <use xlink:href="#me7c3a8006a" x="266.049638" y="204.329068" style="fill: #f5ed05; stroke: #f5ed05"/>
     <use xlink:href="#me7c3a8006a" x="269.735952" y="197.835472" style="fill: #f5ed05; stroke: #f5ed05"/>
     <use xlink:href="#me7c3a8006a" x="277.432009" y="177.208102" style="fill: #f5ed05; stroke: #f5ed05"/>
     <use xlink:href="#me7c3a8006a" x="274.331987" y="184.947599" style="fill: #f5ed05; stroke: #f5ed05"/>
     <use xlink:href="#me7c3a8006a" x="279.000348" y="176.113898" style="fill: #f5ed05; stroke: #f5ed05"/>
     <use xlink:href="#me7c3a8006a" x="277.966282" y="175.150951" style="fill: #f5ed05; stroke: #f5ed05"/>
     <use xlink:href="#me7c3a8006a" x="276.275651" y="175.980879" style="fill: #f5ed05; stroke: #f5ed05"/>
     <use xlink:href="#me7c3a8006a" x="276.951457" y="174.466303" style="fill: #f5ed05; stroke: #f5ed05"/>
     <use xlink:href="#me7c3a8006a" x="276.632609" y="186.31163" style="fill: #f5ed05; stroke: #f5ed05"/>
     <use xlink:href="#me7c3a8006a" x="264.606816" y="202.783874" style="fill: #f5ed05; stroke: #f5ed05"/>
     <use xlink:href="#me7c3a8006a" x="275.265168" y="179.175304" style="fill: #f5ed05; stroke: #f5ed05"/>
     <use xlink:href="#me7c3a8006a" x="237.827287" y="213.722032" style="fill: #f5ed05; stroke: #f5ed05"/>
     <use xlink:href="#me7c3a8006a" x="223.075829" y="213.509611" style="fill: #f5ed05; stroke: #f5ed05"/>
     <use xlink:href="#me7c3a8006a" x="258.386933" y="206.531548" style="fill: #f5ed05; stroke: #f5ed05"/>
     <use xlink:href="#me7c3a8006a" x="275.593177" y="174.18011" style="fill: #f5ed05; stroke: #f5ed05"/>
     <use xlink:href="#me7c3a8006a" x="274.891732" y="173.22297" style="fill: #f5ed05; stroke: #f5ed05"/>
     <use xlink:href="#me7c3a8006a" x="275.12148" y="179.360615" style="fill: #f5ed05; stroke: #f5ed05"/>
     <use xlink:href="#me7c3a8006a" x="221.171942" y="214.225982" style="fill: #f5ed05; stroke: #f5ed05"/>
     <use xlink:href="#me7c3a8006a" x="277.637168" y="175.239659" style="fill: #f5ed05; stroke: #f5ed05"/>
     <use xlink:href="#me7c3a8006a" x="273.856527" y="171.250801" style="fill: #f5ed05; stroke: #f5ed05"/>
     <use xlink:href="#me7c3a8006a" x="260.648498" y="206.953285" style="fill: #f5ed05; stroke: #f5ed05"/>
     <use xlink:href="#me7c3a8006a" x="273.629437" y="182.270426" style="fill: #f5ed05; stroke: #f5ed05"/>
     <use xlink:href="#me7c3a8006a" x="276.893519" y="177.731707" style="fill: #f5ed05; stroke: #f5ed05"/>
     <use xlink:href="#me7c3a8006a" x="274.849981" y="178.913994" style="fill: #f5ed05; stroke: #f5ed05"/>
     <use xlink:href="#me7c3a8006a" x="269.739447" y="194.058273" style="fill: #f5ed05; stroke: #f5ed05"/>
     <use xlink:href="#me7c3a8006a" x="277.782553" y="175.913756" style="fill: #f5ed05; stroke: #f5ed05"/>
     <use xlink:href="#me7c3a8006a" x="278.799963" y="172.252209" style="fill: #f5ed05; stroke: #f5ed05"/>
     <use xlink:href="#me7c3a8006a" x="266.511344" y="203.416258" style="fill: #f5ed05; stroke: #f5ed05"/>
     <use xlink:href="#me7c3a8006a" x="278.449545" y="177.473853" style="fill: #f5ed05; stroke: #f5ed05"/>
     <use xlink:href="#me7c3a8006a" x="278.692812" y="176.356201" style="fill: #f5ed05; stroke: #f5ed05"/>
     <use xlink:href="#me7c3a8006a" x="260.318439" y="209.601746" style="fill: #f5ed05; stroke: #f5ed05"/>
     <use xlink:href="#me7c3a8006a" x="258.813836" y="210.980403" style="fill: #f5ed05; stroke: #f5ed05"/>
    </g>
   </g>
   <g id="PathCollection_5">
    <defs>
     <path id="m8c6573d281" d="M 0 3 
C 0.795609 3 1.55874 2.683901 2.12132 2.12132 
C 2.683901 1.55874 3 0.795609 3 0 
C 3 -0.795609 2.683901 -1.55874 2.12132 -2.12132 
C 1.55874 -2.683901 0.795609 -3 0 -3 
C -0.795609 -3 -1.55874 -2.683901 -2.12132 -2.12132 
C -2.683901 -1.55874 -3 -0.795609 -3 0 
C -3 0.795609 -2.683901 1.55874 -2.12132 2.12132 
C -1.55874 2.683901 -0.795609 3 0 3 
z
" style="stroke: #518e37"/>
    </defs>
    <g clip-path="url(#pe2060821b8)">
     <use xlink:href="#m8c6573d281" x="304.289187" y="251.635434" style="fill: #518e37; stroke: #518e37"/>
     <use xlink:href="#m8c6573d281" x="243.426373" y="120.096137" style="fill: #518e37; stroke: #518e37"/>
     <use xlink:href="#m8c6573d281" x="336.639491" y="181.483205" style="fill: #518e37; stroke: #518e37"/>
     <use xlink:href="#m8c6573d281" x="286.01393" y="247.603545" style="fill: #518e37; stroke: #518e37"/>
     <use xlink:href="#m8c6573d281" x="245.650176" y="128.364692" style="fill: #518e37; stroke: #518e37"/>
     <use xlink:href="#m8c6573d281" x="270.252526" y="78.830919" style="fill: #518e37; stroke: #518e37"/>
     <use xlink:href="#m8c6573d281" x="256.4185" y="221.433543" style="fill: #518e37; stroke: #518e37"/>
     <use xlink:href="#m8c6573d281" x="292.459816" y="231.863942" style="fill: #518e37; stroke: #518e37"/>
     <use xlink:href="#m8c6573d281" x="177.074232" y="214.715823" style="fill: #518e37; stroke: #518e37"/>
     <use xlink:href="#m8c6573d281" x="300.779873" y="172.415059" style="fill: #518e37; stroke: #518e37"/>
     <use xlink:href="#m8c6573d281" x="307.147522" y="246.13585" style="fill: #518e37; stroke: #518e37"/>
     <use xlink:href="#m8c6573d281" x="328.186896" y="105.716253" style="fill: #518e37; stroke: #518e37"/>
     <use xlink:href="#m8c6573d281" x="203.864333" y="236.143267" style="fill: #518e37; stroke: #518e37"/>
     <use xlink:href="#m8c6573d281" x="210.432503" y="249.616731" style="fill: #518e37; stroke: #518e37"/>
     <use xlink:href="#m8c6573d281" x="181.760633" y="174.030759" style="fill: #518e37; stroke: #518e37"/>
     <use xlink:href="#m8c6573d281" x="300.696638" y="216.497244" style="fill: #518e37; stroke: #518e37"/>
     <use xlink:href="#m8c6573d281" x="291.833687" y="222.161422" style="fill: #518e37; stroke: #518e37"/>
     <use xlink:href="#m8c6573d281" x="296.738288" y="191.670761" style="fill: #518e37; stroke: #518e37"/>
     <use xlink:href="#m8c6573d281" x="343.353635" y="222.686441" style="fill: #518e37; stroke: #518e37"/>
     <use xlink:href="#m8c6573d281" x="258.420492" y="240.975631" style="fill: #518e37; stroke: #518e37"/>
     <use xlink:href="#m8c6573d281" x="209.47906" y="108.909752" style="fill: #518e37; stroke: #518e37"/>
     <use xlink:href="#m8c6573d281" x="342.172246" y="157.538293" style="fill: #518e37; stroke: #518e37"/>
     <use xlink:href="#m8c6573d281" x="177.571902" y="222.550918" style="fill: #518e37; stroke: #518e37"/>
     <use xlink:href="#m8c6573d281" x="327.399733" y="221.967782" style="fill: #518e37; stroke: #518e37"/>
     <use xlink:href="#m8c6573d281" x="291.715104" y="157.32145" style="fill: #518e37; stroke: #518e37"/>
     <use xlink:href="#m8c6573d281" x="324.316008" y="193.748763" style="fill: #518e37; stroke: #518e37"/>
     <use xlink:href="#m8c6573d281" x="307.278694" y="98.551726" style="fill: #518e37; stroke: #518e37"/>
     <use xlink:href="#m8c6573d281" x="285.087588" y="169.95318" style="fill: #518e37; stroke: #518e37"/>
     <use xlink:href="#m8c6573d281" x="209.556047" y="251.164515" style="fill: #518e37; stroke: #518e37"/>
     <use xlink:href="#m8c6573d281" x="298.144587" y="183.413293" style="fill: #518e37; stroke: #518e37"/>
     <use xlink:href="#m8c6573d281" x="210.029351" y="276.386363" style="fill: #518e37; stroke: #518e37"/>
     <use xlink:href="#m8c6573d281" x="281.34386" y="90.192021" style="fill: #518e37; stroke: #518e37"/>
     <use xlink:href="#m8c6573d281" x="260.137711" y="242.492498" style="fill: #518e37; stroke: #518e37"/>
     <use xlink:href="#m8c6573d281" x="324.674844" y="185.786439" style="fill: #518e37; stroke: #518e37"/>
    </g>
   </g>
   <g id="PathCollection_6">
    <defs>
     <path id="mf2ba496033" d="M 0 3 
C 0.795609 3 1.55874 2.683901 2.12132 2.12132 
C 2.683901 1.55874 3 0.795609 3 0 
C 3 -0.795609 2.683901 -1.55874 2.12132 -2.12132 
C 1.55874 -2.683901 0.795609 -3 0 -3 
C -0.795609 -3 -1.55874 -2.683901 -2.12132 -2.12132 
C -2.683901 -1.55874 -3 -0.795609 -3 0 
C -3 0.795609 -2.683901 1.55874 -2.12132 2.12132 
C -1.55874 2.683901 -0.795609 3 0 3 
z
" style="stroke: #ff14f2"/>
    </defs>
    <g clip-path="url(#pe2060821b8)">
     <use xlink:href="#mf2ba496033" x="294.050892" y="84.271826" style="fill: #ff14f2; stroke: #ff14f2"/>
     <use xlink:href="#mf2ba496033" x="290.947406" y="130.056396" style="fill: #ff14f2; stroke: #ff14f2"/>
     <use xlink:href="#mf2ba496033" x="336.051895" y="209.728716" style="fill: #ff14f2; stroke: #ff14f2"/>
     <use xlink:href="#mf2ba496033" x="232.817443" y="287.832761" style="fill: #ff14f2; stroke: #ff14f2"/>
     <use xlink:href="#mf2ba496033" x="278.638704" y="104.601391" style="fill: #ff14f2; stroke: #ff14f2"/>
     <use xlink:href="#mf2ba496033" x="294.473825" y="64.640595" style="fill: #ff14f2; stroke: #ff14f2"/>
     <use xlink:href="#mf2ba496033" x="306.895525" y="229.696806" style="fill: #ff14f2; stroke: #ff14f2"/>
     <use xlink:href="#mf2ba496033" x="317.313578" y="168.884835" style="fill: #ff14f2; stroke: #ff14f2"/>
     <use xlink:href="#mf2ba496033" x="265.841421" y="258.494613" style="fill: #ff14f2; stroke: #ff14f2"/>
     <use xlink:href="#mf2ba496033" x="296.296773" y="228.445747" style="fill: #ff14f2; stroke: #ff14f2"/>
     <use xlink:href="#mf2ba496033" x="241.794566" y="287.600812" style="fill: #ff14f2; stroke: #ff14f2"/>
     <use xlink:href="#mf2ba496033" x="352.522594" y="209.428655" style="fill: #ff14f2; stroke: #ff14f2"/>
     <use xlink:href="#mf2ba496033" x="336.575213" y="193.451609" style="fill: #ff14f2; stroke: #ff14f2"/>
     <use xlink:href="#mf2ba496033" x="309.870467" y="244.406364" style="fill: #ff14f2; stroke: #ff14f2"/>
     <use xlink:href="#mf2ba496033" x="178.894965" y="146.173735" style="fill: #ff14f2; stroke: #ff14f2"/>
     <use xlink:href="#mf2ba496033" x="284.436364" y="241.370453" style="fill: #ff14f2; stroke: #ff14f2"/>
     <use xlink:href="#mf2ba496033" x="243.917719" y="256.711092" style="fill: #ff14f2; stroke: #ff14f2"/>
     <use xlink:href="#mf2ba496033" x="250.685152" y="75.676276" style="fill: #ff14f2; stroke: #ff14f2"/>
     <use xlink:href="#mf2ba496033" x="128.331042" y="107.930612" style="fill: #ff14f2; stroke: #ff14f2"/>
     <use xlink:href="#mf2ba496033" x="289.44316" y="240.442905" style="fill: #ff14f2; stroke: #ff14f2"/>
     <use xlink:href="#mf2ba496033" x="241.794001" y="97.549068" style="fill: #ff14f2; stroke: #ff14f2"/>
     <use xlink:href="#mf2ba496033" x="344.942045" y="213.049643" style="fill: #ff14f2; stroke: #ff14f2"/>
     <use xlink:href="#mf2ba496033" x="176.938112" y="116.006452" style="fill: #ff14f2; stroke: #ff14f2"/>
     <use xlink:href="#mf2ba496033" x="283.385783" y="81.568418" style="fill: #ff14f2; stroke: #ff14f2"/>
     <use xlink:href="#mf2ba496033" x="296.637202" y="195.77722" style="fill: #ff14f2; stroke: #ff14f2"/>
     <use xlink:href="#mf2ba496033" x="322.278536" y="213.924579" style="fill: #ff14f2; stroke: #ff14f2"/>
     <use xlink:href="#mf2ba496033" x="334.176836" y="218.527309" style="fill: #ff14f2; stroke: #ff14f2"/>
     <use xlink:href="#mf2ba496033" x="288.683156" y="206.099245" style="fill: #ff14f2; stroke: #ff14f2"/>
     <use xlink:href="#mf2ba496033" x="174.967088" y="215.498719" style="fill: #ff14f2; stroke: #ff14f2"/>
     <use xlink:href="#mf2ba496033" x="286.072402" y="95.967458" style="fill: #ff14f2; stroke: #ff14f2"/>
     <use xlink:href="#mf2ba496033" x="276.941413" y="279.550808" style="fill: #ff14f2; stroke: #ff14f2"/>
     <use xlink:href="#mf2ba496033" x="318.575781" y="116.560526" style="fill: #ff14f2; stroke: #ff14f2"/>
     <use xlink:href="#mf2ba496033" x="309.663006" y="186.492401" style="fill: #ff14f2; stroke: #ff14f2"/>
     <use xlink:href="#mf2ba496033" x="302.790679" y="243.892297" style="fill: #ff14f2; stroke: #ff14f2"/>
    </g>
   </g>
   <g id="matplotlib.axis_1">
    <g id="xtick_1">
     <g id="line2d_1">
      <path d="M 236.16 174.528 
L 369.216 174.528 
" clip-path="url(#pe2060821b8)" style="fill: none; stroke: #b0b0b0; stroke-width: 0.8; stroke-linecap: square"/>
     </g>
     <g id="text_1">
      <!-- 0° -->
      <g transform="translate(377.53475 177.287375)scale(0.1 -0.1)">
       <defs>
        <path id="DejaVuSans-30" d="M 2034 4250 
Q 1547 4250 1301 3770 
Q 1056 3291 1056 2328 
Q 1056 1369 1301 889 
Q 1547 409 2034 409 
Q 2525 409 2770 889 
Q 3016 1369 3016 2328 
Q 3016 3291 2770 3770 
Q 2525 4250 2034 4250 
z
M 2034 4750 
Q 2819 4750 3233 4129 
Q 3647 3509 3647 2328 
Q 3647 1150 3233 529 
Q 2819 -91 2034 -91 
Q 1250 -91 836 529 
Q 422 1150 422 2328 
Q 422 3509 836 4129 
Q 1250 4750 2034 4750 
z
" transform="scale(0.015625)"/>
        <path id="DejaVuSans-b0" d="M 1600 4347 
Q 1350 4347 1178 4173 
Q 1006 4000 1006 3750 
Q 1006 3503 1178 3333 
Q 1350 3163 1600 3163 
Q 1850 3163 2022 3333 
Q 2194 3503 2194 3750 
Q 2194 3997 2020 4172 
Q 1847 4347 1600 4347 
z
M 1600 4750 
Q 1800 4750 1984 4673 
Q 2169 4597 2303 4453 
Q 2447 4313 2519 4134 
Q 2591 3956 2591 3750 
Q 2591 3338 2302 3052 
Q 2013 2766 1594 2766 
Q 1172 2766 890 3047 
Q 609 3328 609 3750 
Q 609 4169 896 4459 
Q 1184 4750 1600 4750 
z
" transform="scale(0.015625)"/>
       </defs>
       <use xlink:href="#DejaVuSans-30"/>
       <use xlink:href="#DejaVuSans-b0" x="63.623047"/>
      </g>
     </g>
    </g>
    <g id="xtick_2">
     <g id="line2d_2">
      <path d="M 236.16 174.528 
L 330.2448 80.4432 
" clip-path="url(#pe2060821b8)" style="fill: none; stroke: #b0b0b0; stroke-width: 0.8; stroke-linecap: square"/>
     </g>
     <g id="text_2">
      <!-- 45° -->
      <g transform="translate(331.281795 73.30308)scale(0.1 -0.1)">
       <defs>
        <path id="DejaVuSans-34" d="M 2419 4116 
L 825 1625 
L 2419 1625 
L 2419 4116 
z
M 2253 4666 
L 3047 4666 
L 3047 1625 
L 3713 1625 
L 3713 1100 
L 3047 1100 
L 3047 0 
L 2419 0 
L 2419 1100 
L 313 1100 
L 313 1709 
L 2253 4666 
z
" transform="scale(0.015625)"/>
        <path id="DejaVuSans-35" d="M 691 4666 
L 3169 4666 
L 3169 4134 
L 1269 4134 
L 1269 2991 
Q 1406 3038 1543 3061 
Q 1681 3084 1819 3084 
Q 2600 3084 3056 2656 
Q 3513 2228 3513 1497 
Q 3513 744 3044 326 
Q 2575 -91 1722 -91 
Q 1428 -91 1123 -41 
Q 819 9 494 109 
L 494 744 
Q 775 591 1075 516 
Q 1375 441 1709 441 
Q 2250 441 2565 725 
Q 2881 1009 2881 1497 
Q 2881 1984 2565 2268 
Q 2250 2553 1709 2553 
Q 1456 2553 1204 2497 
Q 953 2441 691 2322 
L 691 4666 
z
" transform="scale(0.015625)"/>
       </defs>
       <use xlink:href="#DejaVuSans-34"/>
       <use xlink:href="#DejaVuSans-35" x="63.623047"/>
       <use xlink:href="#DejaVuSans-b0" x="127.246094"/>
      </g>
     </g>
    </g>
    <g id="xtick_3">
     <g id="line2d_3">
      <path d="M 236.16 174.528 
L 236.16 41.472 
" clip-path="url(#pe2060821b8)" style="fill: none; stroke: #b0b0b0; stroke-width: 0.8; stroke-linecap: square"/>
     </g>
     <g id="text_3">
      <!-- 90° -->
      <g transform="translate(227.2975 30.231375)scale(0.1 -0.1)">
       <defs>
        <path id="DejaVuSans-39" d="M 703 97 
L 703 672 
Q 941 559 1184 500 
Q 1428 441 1663 441 
Q 2288 441 2617 861 
Q 2947 1281 2994 2138 
Q 2813 1869 2534 1725 
Q 2256 1581 1919 1581 
Q 1219 1581 811 2004 
Q 403 2428 403 3163 
Q 403 3881 828 4315 
Q 1253 4750 1959 4750 
Q 2769 4750 3195 4129 
Q 3622 3509 3622 2328 
Q 3622 1225 3098 567 
Q 2575 -91 1691 -91 
Q 1453 -91 1209 -44 
Q 966 3 703 97 
z
M 1959 2075 
Q 2384 2075 2632 2365 
Q 2881 2656 2881 3163 
Q 2881 3666 2632 3958 
Q 2384 4250 1959 4250 
Q 1534 4250 1286 3958 
Q 1038 3666 1038 3163 
Q 1038 2656 1286 2365 
Q 1534 2075 1959 2075 
z
" transform="scale(0.015625)"/>
       </defs>
       <use xlink:href="#DejaVuSans-39"/>
       <use xlink:href="#DejaVuSans-30" x="63.623047"/>
       <use xlink:href="#DejaVuSans-b0" x="127.246094"/>
      </g>
     </g>
    </g>
    <g id="xtick_4">
     <g id="line2d_4">
      <path d="M 236.16 174.528 
L 142.0752 80.4432 
" clip-path="url(#pe2060821b8)" style="fill: none; stroke: #b0b0b0; stroke-width: 0.8; stroke-linecap: square"/>
     </g>
     <g id="text_4">
      <!-- 135° -->
      <g transform="translate(120.131955 73.30308)scale(0.1 -0.1)">
       <defs>
        <path id="DejaVuSans-31" d="M 794 531 
L 1825 531 
L 1825 4091 
L 703 3866 
L 703 4441 
L 1819 4666 
L 2450 4666 
L 2450 531 
L 3481 531 
L 3481 0 
L 794 0 
L 794 531 
z
" transform="scale(0.015625)"/>
        <path id="DejaVuSans-33" d="M 2597 2516 
Q 3050 2419 3304 2112 
Q 3559 1806 3559 1356 
Q 3559 666 3084 287 
Q 2609 -91 1734 -91 
Q 1441 -91 1130 -33 
Q 819 25 488 141 
L 488 750 
Q 750 597 1062 519 
Q 1375 441 1716 441 
Q 2309 441 2620 675 
Q 2931 909 2931 1356 
Q 2931 1769 2642 2001 
Q 2353 2234 1838 2234 
L 1294 2234 
L 1294 2753 
L 1863 2753 
Q 2328 2753 2575 2939 
Q 2822 3125 2822 3475 
Q 2822 3834 2567 4026 
Q 2313 4219 1838 4219 
Q 1578 4219 1281 4162 
Q 984 4106 628 3988 
L 628 4550 
Q 988 4650 1302 4700 
Q 1616 4750 1894 4750 
Q 2613 4750 3031 4423 
Q 3450 4097 3450 3541 
Q 3450 3153 3228 2886 
Q 3006 2619 2597 2516 
z
" transform="scale(0.015625)"/>
       </defs>
       <use xlink:href="#DejaVuSans-31"/>
       <use xlink:href="#DejaVuSans-33" x="63.623047"/>
       <use xlink:href="#DejaVuSans-35" x="127.246094"/>
       <use xlink:href="#DejaVuSans-b0" x="190.869141"/>
      </g>
     </g>
    </g>
    <g id="xtick_5">
     <g id="line2d_5">
      <path d="M 236.16 174.528 
L 103.104 174.528 
" clip-path="url(#pe2060821b8)" style="fill: none; stroke: #b0b0b0; stroke-width: 0.8; stroke-linecap: square"/>
     </g>
     <g id="text_5">
      <!-- 180° -->
      <g transform="translate(77.06025 177.287375)scale(0.1 -0.1)">
       <defs>
        <path id="DejaVuSans-38" d="M 2034 2216 
Q 1584 2216 1326 1975 
Q 1069 1734 1069 1313 
Q 1069 891 1326 650 
Q 1584 409 2034 409 
Q 2484 409 2743 651 
Q 3003 894 3003 1313 
Q 3003 1734 2745 1975 
Q 2488 2216 2034 2216 
z
M 1403 2484 
Q 997 2584 770 2862 
Q 544 3141 544 3541 
Q 544 4100 942 4425 
Q 1341 4750 2034 4750 
Q 2731 4750 3128 4425 
Q 3525 4100 3525 3541 
Q 3525 3141 3298 2862 
Q 3072 2584 2669 2484 
Q 3125 2378 3379 2068 
Q 3634 1759 3634 1313 
Q 3634 634 3220 271 
Q 2806 -91 2034 -91 
Q 1263 -91 848 271 
Q 434 634 434 1313 
Q 434 1759 690 2068 
Q 947 2378 1403 2484 
z
M 1172 3481 
Q 1172 3119 1398 2916 
Q 1625 2713 2034 2713 
Q 2441 2713 2670 2916 
Q 2900 3119 2900 3481 
Q 2900 3844 2670 4047 
Q 2441 4250 2034 4250 
Q 1625 4250 1398 4047 
Q 1172 3844 1172 3481 
z
" transform="scale(0.015625)"/>
       </defs>
       <use xlink:href="#DejaVuSans-31"/>
       <use xlink:href="#DejaVuSans-38" x="63.623047"/>
       <use xlink:href="#DejaVuSans-30" x="127.246094"/>
       <use xlink:href="#DejaVuSans-b0" x="190.869141"/>
      </g>
     </g>
    </g>
    <g id="xtick_6">
     <g id="line2d_6">
      <path d="M 236.16 174.528 
L 142.0752 268.6128 
" clip-path="url(#pe2060821b8)" style="fill: none; stroke: #b0b0b0; stroke-width: 0.8; stroke-linecap: square"/>
     </g>
     <g id="text_6">
      <!-- 225° -->
      <g transform="translate(120.131955 281.27167)scale(0.1 -0.1)">
       <defs>
        <path id="DejaVuSans-32" d="M 1228 531 
L 3431 531 
L 3431 0 
L 469 0 
L 469 531 
Q 828 903 1448 1529 
Q 2069 2156 2228 2338 
Q 2531 2678 2651 2914 
Q 2772 3150 2772 3378 
Q 2772 3750 2511 3984 
Q 2250 4219 1831 4219 
Q 1534 4219 1204 4116 
Q 875 4013 500 3803 
L 500 4441 
Q 881 4594 1212 4672 
Q 1544 4750 1819 4750 
Q 2544 4750 2975 4387 
Q 3406 4025 3406 3419 
Q 3406 3131 3298 2873 
Q 3191 2616 2906 2266 
Q 2828 2175 2409 1742 
Q 1991 1309 1228 531 
z
" transform="scale(0.015625)"/>
       </defs>
       <use xlink:href="#DejaVuSans-32"/>
       <use xlink:href="#DejaVuSans-32" x="63.623047"/>
       <use xlink:href="#DejaVuSans-35" x="127.246094"/>
       <use xlink:href="#DejaVuSans-b0" x="190.869141"/>
      </g>
     </g>
    </g>
    <g id="xtick_7">
     <g id="line2d_7">
      <path d="M 236.16 174.528 
L 236.16 307.584 
" clip-path="url(#pe2060821b8)" style="fill: none; stroke: #b0b0b0; stroke-width: 0.8; stroke-linecap: square"/>
     </g>
     <g id="text_7">
      <!-- 270° -->
      <g transform="translate(224.11625 324.343375)scale(0.1 -0.1)">
       <defs>
        <path id="DejaVuSans-37" d="M 525 4666 
L 3525 4666 
L 3525 4397 
L 1831 0 
L 1172 0 
L 2766 4134 
L 525 4134 
L 525 4666 
z
" transform="scale(0.015625)"/>
       </defs>
       <use xlink:href="#DejaVuSans-32"/>
       <use xlink:href="#DejaVuSans-37" x="63.623047"/>
       <use xlink:href="#DejaVuSans-30" x="127.246094"/>
       <use xlink:href="#DejaVuSans-b0" x="190.869141"/>
      </g>
     </g>
    </g>
    <g id="xtick_8">
     <g id="line2d_8">
      <path d="M 236.16 174.528 
L 330.2448 268.6128 
" clip-path="url(#pe2060821b8)" style="fill: none; stroke: #b0b0b0; stroke-width: 0.8; stroke-linecap: square"/>
     </g>
     <g id="text_8">
      <!-- 315° -->
      <g transform="translate(328.100545 281.27167)scale(0.1 -0.1)">
       <use xlink:href="#DejaVuSans-33"/>
       <use xlink:href="#DejaVuSans-31" x="63.623047"/>
       <use xlink:href="#DejaVuSans-35" x="127.246094"/>
       <use xlink:href="#DejaVuSans-b0" x="190.869141"/>
      </g>
     </g>
    </g>
   </g>
   <g id="matplotlib.axis_2">
    <g id="ytick_1">
     <g id="line2d_9">
      <path d="M 297.547738 174.528 
C 297.547738 166.466636 295.959825 158.483659 292.874875 151.03593 
C 289.789924 143.588201 285.267931 136.820559 279.567686 131.120314 
C 273.867441 125.420069 267.099799 120.898076 259.65207 117.813125 
C 252.204341 114.728175 244.221364 113.140262 236.16 113.140262 
C 228.098636 113.140262 220.115659 114.728175 212.66793 117.813125 
C 205.220201 120.898076 198.452559 125.420069 192.752314 131.120314 
C 187.052069 136.820559 182.530076 143.588201 179.445125 151.03593 
C 176.360175 158.483659 174.772262 166.466636 174.772262 174.528 
C 174.772262 182.589364 176.360175 190.572341 179.445125 198.02007 
C 182.530076 205.467799 187.052069 212.235441 192.752314 217.935686 
C 198.452559 223.635931 205.220201 228.157924 212.66793 231.242875 
C 220.115659 234.327825 228.098636 235.915738 236.16 235.915738 
C 244.221364 235.915738 252.204341 234.327825 259.65207 231.242875 
C 267.099799 228.157924 273.867441 223.635931 279.567686 217.935686 
C 285.267931 212.235441 289.789924 205.467799 292.874875 198.02007 
C 295.959825 190.572341 297.547738 182.589364 297.547738 174.528 
" clip-path="url(#pe2060821b8)" style="fill: none; stroke: #b0b0b0; stroke-width: 0.8; stroke-linecap: square"/>
     </g>
     <g id="text_9">
      <!-- 0.02 -->
      <g transform="translate(292.874875 148.956242)scale(0.1 -0.1)">
       <defs>
        <path id="DejaVuSans-2e" d="M 684 794 
L 1344 794 
L 1344 0 
L 684 0 
L 684 794 
z
" transform="scale(0.015625)"/>
       </defs>
       <use xlink:href="#DejaVuSans-30"/>
       <use xlink:href="#DejaVuSans-2e" x="63.623047"/>
       <use xlink:href="#DejaVuSans-30" x="95.410156"/>
       <use xlink:href="#DejaVuSans-32" x="159.033203"/>
      </g>
     </g>
    </g>
   </g>
   <g id="patch_3">
    <path d="M 369.216 174.528 
C 369.216 157.055246 365.774248 139.752393 359.087715 123.609673 
C 352.401182 107.466954 342.599903 92.798303 330.2448 80.4432 
C 317.889697 68.088097 303.221046 58.286818 287.078327 51.600285 
C 270.935607 44.913752 253.632754 41.472 236.16 41.472 
C 218.687246 41.472 201.384393 44.913752 185.241673 51.600285 
C 169.098954 58.286818 154.430303 68.088097 142.0752 80.4432 
C 129.720097 92.798303 119.918818 107.466954 113.232285 123.609673 
C 106.545752 139.752393 103.104 157.055246 103.104 174.528 
C 103.104 192.000754 106.545752 209.303607 113.232285 225.446327 
C 119.918818 241.589046 129.720097 256.257697 142.0752 268.6128 
C 154.430303 280.967903 169.098954 290.769182 185.241673 297.455715 
C 201.384393 304.142248 218.687246 307.584 236.16 307.584 
C 253.632754 307.584 270.935607 304.142248 287.078327 297.455715 
C 303.221046 290.769182 317.889697 280.967903 330.2448 268.6128 
C 342.599903 256.257697 352.401182 241.589046 359.087715 225.446327 
C 365.774248 209.303607 369.216 192.000754 369.216 174.528 
" style="fill: none; stroke: #000000; stroke-width: 0.8; stroke-linejoin: miter; stroke-linecap: square"/>
   </g>
  </g>
  <g id="legend_1">
   <g id="patch_4">
    <path d="M 368.790625 96.06875 
L 453.8 96.06875 
Q 455.8 96.06875 455.8 94.06875 
L 455.8 7 
Q 455.8 5 453.8 5 
L 368.790625 5 
Q 366.790625 5 366.790625 7 
L 366.790625 94.06875 
Q 366.790625 96.06875 368.790625 96.06875 
z
" style="fill: #ffffff; opacity: 0.8; stroke: #cccccc; stroke-linejoin: miter"/>
   </g>
   <g id="PathCollection_7">
    <g>
     <use xlink:href="#m8ed2fa77c2" x="380.790625" y="13.973437" style="fill: #f50505; stroke: #f50505"/>
    </g>
   </g>
   <g id="text_10">
    <!-- Decoder E -->
    <g transform="translate(398.790625 16.598437)scale(0.1 -0.1)">
     <defs>
      <path id="DejaVuSans-44" d="M 1259 4147 
L 1259 519 
L 2022 519 
Q 2988 519 3436 956 
Q 3884 1394 3884 2338 
Q 3884 3275 3436 3711 
Q 2988 4147 2022 4147 
L 1259 4147 
z
M 628 4666 
L 1925 4666 
Q 3281 4666 3915 4102 
Q 4550 3538 4550 2338 
Q 4550 1131 3912 565 
Q 3275 0 1925 0 
L 628 0 
L 628 4666 
z
" transform="scale(0.015625)"/>
      <path id="DejaVuSans-65" d="M 3597 1894 
L 3597 1613 
L 953 1613 
Q 991 1019 1311 708 
Q 1631 397 2203 397 
Q 2534 397 2845 478 
Q 3156 559 3463 722 
L 3463 178 
Q 3153 47 2828 -22 
Q 2503 -91 2169 -91 
Q 1331 -91 842 396 
Q 353 884 353 1716 
Q 353 2575 817 3079 
Q 1281 3584 2069 3584 
Q 2775 3584 3186 3129 
Q 3597 2675 3597 1894 
z
M 3022 2063 
Q 3016 2534 2758 2815 
Q 2500 3097 2075 3097 
Q 1594 3097 1305 2825 
Q 1016 2553 972 2059 
L 3022 2063 
z
" transform="scale(0.015625)"/>
      <path id="DejaVuSans-63" d="M 3122 3366 
L 3122 2828 
Q 2878 2963 2633 3030 
Q 2388 3097 2138 3097 
Q 1578 3097 1268 2742 
Q 959 2388 959 1747 
Q 959 1106 1268 751 
Q 1578 397 2138 397 
Q 2388 397 2633 464 
Q 2878 531 3122 666 
L 3122 134 
Q 2881 22 2623 -34 
Q 2366 -91 2075 -91 
Q 1284 -91 818 406 
Q 353 903 353 1747 
Q 353 2603 823 3093 
Q 1294 3584 2113 3584 
Q 2378 3584 2631 3529 
Q 2884 3475 3122 3366 
z
" transform="scale(0.015625)"/>
      <path id="DejaVuSans-6f" d="M 1959 3097 
Q 1497 3097 1228 2736 
Q 959 2375 959 1747 
Q 959 1119 1226 758 
Q 1494 397 1959 397 
Q 2419 397 2687 759 
Q 2956 1122 2956 1747 
Q 2956 2369 2687 2733 
Q 2419 3097 1959 3097 
z
M 1959 3584 
Q 2709 3584 3137 3096 
Q 3566 2609 3566 1747 
Q 3566 888 3137 398 
Q 2709 -91 1959 -91 
Q 1206 -91 779 398 
Q 353 888 353 1747 
Q 353 2609 779 3096 
Q 1206 3584 1959 3584 
z
" transform="scale(0.015625)"/>
      <path id="DejaVuSans-64" d="M 2906 2969 
L 2906 4863 
L 3481 4863 
L 3481 0 
L 2906 0 
L 2906 525 
Q 2725 213 2448 61 
Q 2172 -91 1784 -91 
Q 1150 -91 751 415 
Q 353 922 353 1747 
Q 353 2572 751 3078 
Q 1150 3584 1784 3584 
Q 2172 3584 2448 3432 
Q 2725 3281 2906 2969 
z
M 947 1747 
Q 947 1113 1208 752 
Q 1469 391 1925 391 
Q 2381 391 2643 752 
Q 2906 1113 2906 1747 
Q 2906 2381 2643 2742 
Q 2381 3103 1925 3103 
Q 1469 3103 1208 2742 
Q 947 2381 947 1747 
z
" transform="scale(0.015625)"/>
      <path id="DejaVuSans-72" d="M 2631 2963 
Q 2534 3019 2420 3045 
Q 2306 3072 2169 3072 
Q 1681 3072 1420 2755 
Q 1159 2438 1159 1844 
L 1159 0 
L 581 0 
L 581 3500 
L 1159 3500 
L 1159 2956 
Q 1341 3275 1631 3429 
Q 1922 3584 2338 3584 
Q 2397 3584 2469 3576 
Q 2541 3569 2628 3553 
L 2631 2963 
z
" transform="scale(0.015625)"/>
      <path id="DejaVuSans-20" transform="scale(0.015625)"/>
      <path id="DejaVuSans-45" d="M 628 4666 
L 3578 4666 
L 3578 4134 
L 1259 4134 
L 1259 2753 
L 3481 2753 
L 3481 2222 
L 1259 2222 
L 1259 531 
L 3634 531 
L 3634 0 
L 628 0 
L 628 4666 
z
" transform="scale(0.015625)"/>
     </defs>
     <use xlink:href="#DejaVuSans-44"/>
     <use xlink:href="#DejaVuSans-65" x="77.001953"/>
     <use xlink:href="#DejaVuSans-63" x="138.525391"/>
     <use xlink:href="#DejaVuSans-6f" x="193.505859"/>
     <use xlink:href="#DejaVuSans-64" x="254.6875"/>
     <use xlink:href="#DejaVuSans-65" x="318.164062"/>
     <use xlink:href="#DejaVuSans-72" x="379.6875"/>
     <use xlink:href="#DejaVuSans-20" x="420.800781"/>
     <use xlink:href="#DejaVuSans-45" x="452.587891"/>
    </g>
   </g>
   <g id="PathCollection_8">
    <g>
     <use xlink:href="#m2fcf1cc948" x="380.790625" y="28.651563" style="fill: #3505f5; stroke: #3505f5"/>
    </g>
   </g>
   <g id="text_11">
    <!-- Decoder F -->
    <g transform="translate(398.790625 31.276563)scale(0.1 -0.1)">
     <defs>
      <path id="DejaVuSans-46" d="M 628 4666 
L 3309 4666 
L 3309 4134 
L 1259 4134 
L 1259 2759 
L 3109 2759 
L 3109 2228 
L 1259 2228 
L 1259 0 
L 628 0 
L 628 4666 
z
" transform="scale(0.015625)"/>
     </defs>
     <use xlink:href="#DejaVuSans-44"/>
     <use xlink:href="#DejaVuSans-65" x="77.001953"/>
     <use xlink:href="#DejaVuSans-63" x="138.525391"/>
     <use xlink:href="#DejaVuSans-6f" x="193.505859"/>
     <use xlink:href="#DejaVuSans-64" x="254.6875"/>
     <use xlink:href="#DejaVuSans-65" x="318.164062"/>
     <use xlink:href="#DejaVuSans-72" x="379.6875"/>
     <use xlink:href="#DejaVuSans-20" x="420.800781"/>
     <use xlink:href="#DejaVuSans-46" x="452.587891"/>
    </g>
   </g>
   <g id="PathCollection_9">
    <g>
     <use xlink:href="#mbe6e677ee6" x="380.790625" y="43.329687" style="fill: #02faf2; stroke: #02faf2"/>
    </g>
   </g>
   <g id="text_12">
    <!-- Decoder G -->
    <g transform="translate(398.790625 45.954687)scale(0.1 -0.1)">
     <defs>
      <path id="DejaVuSans-47" d="M 3809 666 
L 3809 1919 
L 2778 1919 
L 2778 2438 
L 4434 2438 
L 4434 434 
Q 4069 175 3628 42 
Q 3188 -91 2688 -91 
Q 1594 -91 976 548 
Q 359 1188 359 2328 
Q 359 3472 976 4111 
Q 1594 4750 2688 4750 
Q 3144 4750 3555 4637 
Q 3966 4525 4313 4306 
L 4313 3634 
Q 3963 3931 3569 4081 
Q 3175 4231 2741 4231 
Q 1884 4231 1454 3753 
Q 1025 3275 1025 2328 
Q 1025 1384 1454 906 
Q 1884 428 2741 428 
Q 3075 428 3337 486 
Q 3600 544 3809 666 
z
" transform="scale(0.015625)"/>
     </defs>
     <use xlink:href="#DejaVuSans-44"/>
     <use xlink:href="#DejaVuSans-65" x="77.001953"/>
     <use xlink:href="#DejaVuSans-63" x="138.525391"/>
     <use xlink:href="#DejaVuSans-6f" x="193.505859"/>
     <use xlink:href="#DejaVuSans-64" x="254.6875"/>
     <use xlink:href="#DejaVuSans-65" x="318.164062"/>
     <use xlink:href="#DejaVuSans-72" x="379.6875"/>
     <use xlink:href="#DejaVuSans-20" x="420.800781"/>
     <use xlink:href="#DejaVuSans-47" x="452.587891"/>
    </g>
   </g>
   <g id="PathCollection_10">
    <g>
     <use xlink:href="#me7c3a8006a" x="380.790625" y="58.007812" style="fill: #f5ed05; stroke: #f5ed05"/>
    </g>
   </g>
   <g id="text_13">
    <!-- Decoder H -->
    <g transform="translate(398.790625 60.632812)scale(0.1 -0.1)">
     <defs>
      <path id="DejaVuSans-48" d="M 628 4666 
L 1259 4666 
L 1259 2753 
L 3553 2753 
L 3553 4666 
L 4184 4666 
L 4184 0 
L 3553 0 
L 3553 2222 
L 1259 2222 
L 1259 0 
L 628 0 
L 628 4666 
z
" transform="scale(0.015625)"/>
     </defs>
     <use xlink:href="#DejaVuSans-44"/>
     <use xlink:href="#DejaVuSans-65" x="77.001953"/>
     <use xlink:href="#DejaVuSans-63" x="138.525391"/>
     <use xlink:href="#DejaVuSans-6f" x="193.505859"/>
     <use xlink:href="#DejaVuSans-64" x="254.6875"/>
     <use xlink:href="#DejaVuSans-65" x="318.164062"/>
     <use xlink:href="#DejaVuSans-72" x="379.6875"/>
     <use xlink:href="#DejaVuSans-20" x="420.800781"/>
     <use xlink:href="#DejaVuSans-48" x="452.587891"/>
    </g>
   </g>
   <g id="PathCollection_11">
    <g>
     <use xlink:href="#m8c6573d281" x="380.790625" y="72.685937" style="fill: #518e37; stroke: #518e37"/>
    </g>
   </g>
   <g id="text_14">
    <!-- Decoder I -->
    <g transform="translate(398.790625 75.310937)scale(0.1 -0.1)">
     <defs>
      <path id="DejaVuSans-49" d="M 628 4666 
L 1259 4666 
L 1259 0 
L 628 0 
L 628 4666 
z
" transform="scale(0.015625)"/>
     </defs>
     <use xlink:href="#DejaVuSans-44"/>
     <use xlink:href="#DejaVuSans-65" x="77.001953"/>
     <use xlink:href="#DejaVuSans-63" x="138.525391"/>
     <use xlink:href="#DejaVuSans-6f" x="193.505859"/>
     <use xlink:href="#DejaVuSans-64" x="254.6875"/>
     <use xlink:href="#DejaVuSans-65" x="318.164062"/>
     <use xlink:href="#DejaVuSans-72" x="379.6875"/>
     <use xlink:href="#DejaVuSans-20" x="420.800781"/>
     <use xlink:href="#DejaVuSans-49" x="452.587891"/>
    </g>
   </g>
   <g id="PathCollection_12">
    <g>
     <use xlink:href="#mf2ba496033" x="380.790625" y="87.364062" style="fill: #ff14f2; stroke: #ff14f2"/>
    </g>
   </g>
   <g id="text_15">
    <!-- Decoder J -->
    <g transform="translate(398.790625 89.989062)scale(0.1 -0.1)">
     <defs>
      <path id="DejaVuSans-4a" d="M 628 4666 
L 1259 4666 
L 1259 325 
Q 1259 -519 939 -900 
Q 619 -1281 -91 -1281 
L -331 -1281 
L -331 -750 
L -134 -750 
Q 284 -750 456 -515 
Q 628 -281 628 325 
L 628 4666 
z
" transform="scale(0.015625)"/>
     </defs>
     <use xlink:href="#DejaVuSans-44"/>
     <use xlink:href="#DejaVuSans-65" x="77.001953"/>
     <use xlink:href="#DejaVuSans-63" x="138.525391"/>
     <use xlink:href="#DejaVuSans-6f" x="193.505859"/>
     <use xlink:href="#DejaVuSans-64" x="254.6875"/>
     <use xlink:href="#DejaVuSans-65" x="318.164062"/>
     <use xlink:href="#DejaVuSans-72" x="379.6875"/>
     <use xlink:href="#DejaVuSans-20" x="420.800781"/>
     <use xlink:href="#DejaVuSans-4a" x="452.587891"/>
    </g>
   </g>
  </g>
 </g>
 <defs>
  <clipPath id="pe2060821b8">
   <path d="M 369.216 174.528 
C 369.216 157.055246 365.774248 139.752393 359.087715 123.609673 
C 352.401182 107.466954 342.599903 92.798303 330.2448 80.4432 
C 317.889697 68.088097 303.221046 58.286818 287.078327 51.600285 
C 270.935607 44.913752 253.632754 41.472 236.16 41.472 
C 218.687246 41.472 201.384393 44.913752 185.241673 51.600285 
C 169.098954 58.286818 154.430303 68.088097 142.0752 80.4432 
C 129.720097 92.798303 119.918818 107.466954 113.232285 123.609673 
C 106.545752 139.752393 103.104 157.055246 103.104 174.528 
C 103.104 192.000754 106.545752 209.303607 113.232285 225.446327 
C 119.918818 241.589046 129.720097 256.257697 142.0752 268.6128 
C 154.430303 280.967903 169.098954 290.769182 185.241673 297.455715 
C 201.384393 304.142248 218.687246 307.584 236.16 307.584 
C 253.632754 307.584 270.935607 304.142248 287.078327 297.455715 
C 303.221046 290.769182 317.889697 280.967903 330.2448 268.6128 
C 342.599903 256.257697 352.401182 241.589046 359.087715 225.446327 
C 365.774248 209.303607 369.216 192.000754 369.216 174.528 
M 236.16 174.528 
C 236.16 174.528 236.16 174.528 236.16 174.528 
C 236.16 174.528 236.16 174.528 236.16 174.528 
C 236.16 174.528 236.16 174.528 236.16 174.528 
C 236.16 174.528 236.16 174.528 236.16 174.528 
C 236.16 174.528 236.16 174.528 236.16 174.528 
C 236.16 174.528 236.16 174.528 236.16 174.528 
C 236.16 174.528 236.16 174.528 236.16 174.528 
C 236.16 174.528 236.16 174.528 236.16 174.528 
C 236.16 174.528 236.16 174.528 236.16 174.528 
C 236.16 174.528 236.16 174.528 236.16 174.528 
C 236.16 174.528 236.16 174.528 236.16 174.528 
C 236.16 174.528 236.16 174.528 236.16 174.528 
C 236.16 174.528 236.16 174.528 236.16 174.528 
C 236.16 174.528 236.16 174.528 236.16 174.528 
C 236.16 174.528 236.16 174.528 236.16 174.528 
C 236.16 174.528 236.16 174.528 236.16 174.528 
M 369.216 174.528 
z
"/>
  </clipPath>
 </defs>
</svg>
