<?xml version="1.0" encoding="utf-8" standalone="no"?>
<!DOCTYPE svg PUBLIC "-//W3C//DTD SVG 1.1//EN"
  "http://www.w3.org/Graphics/SVG/1.1/DTD/svg11.dtd">
<svg xmlns:xlink="http://www.w3.org/1999/xlink" width="460.8pt" height="345.6pt" viewBox="0 0 460.8 345.6" xmlns="http://www.w3.org/2000/svg" version="1.1">
 <metadata>
  <rdf:RDF xmlns:dc="http://purl.org/dc/elements/1.1/" xmlns:cc="http://creativecommons.org/ns#" xmlns:rdf="http://www.w3.org/1999/02/22-rdf-syntax-ns#">
   <cc:Work>
    <dc:type rdf:resource="http://purl.org/dc/dcmitype/StillImage"/>
    <dc:date>2024-02-14T16:35:44.632662</dc:date>
    <dc:format>image/svg+xml</dc:format>
    <dc:creator>
     <cc:Agent>
      <dc:title>Matplotlib v3.5.0, https://matplotlib.org/</dc:title>
     </cc:Agent>
    </dc:creator>
   </cc:Work>
  </rdf:RDF>
 </metadata>
 <defs>
  <style type="text/css">*{stroke-linejoin: round; stroke-linecap: butt}</style>
 </defs>
 <g id="figure_1">
  <g id="patch_1">
   <path d="M 0 345.6 
L 460.8 345.6 
L 460.8 0 
L 0 0 
z
" style="fill: #ffffff"/>
  </g>
  <g id="axes_1">
   <g id="patch_2">
    <path d="M 57.6 307.584 
L 414.72 307.584 
L 414.72 41.472 
L 57.6 41.472 
z
" style="fill: #ffffff"/>
   </g>
   <g id="matplotlib.axis_1">
    <g id="xtick_1">
     <g id="line2d_1">
      <defs>
       <path id="m46de8aafc7" d="M 0 0 
L 0 3.5 
" style="stroke: #000000; stroke-width: 0.8"/>
      </defs>
      <g>
       <use xlink:href="#m46de8aafc7" x="73.832727" y="307.584" style="stroke: #000000; stroke-width: 0.8"/>
      </g>
     </g>
     <g id="text_1">
      <!-- 0 -->
      <g transform="translate(67.470227 329.780875)scale(0.2 -0.2)">
       <defs>
        <path id="DejaVuSans-30" d="M 2034 4250 
Q 1547 4250 1301 3770 
Q 1056 3291 1056 2328 
Q 1056 1369 1301 889 
Q 1547 409 2034 409 
Q 2525 409 2770 889 
Q 3016 1369 3016 2328 
Q 3016 3291 2770 3770 
Q 2525 4250 2034 4250 
z
M 2034 4750 
Q 2819 4750 3233 4129 
Q 3647 3509 3647 2328 
Q 3647 1150 3233 529 
Q 2819 -91 2034 -91 
Q 1250 -91 836 529 
Q 422 1150 422 2328 
Q 422 3509 836 4129 
Q 1250 4750 2034 4750 
z
" transform="scale(0.015625)"/>
       </defs>
       <use xlink:href="#DejaVuSans-30"/>
      </g>
     </g>
    </g>
    <g id="xtick_2">
     <g id="line2d_2">
      <g>
       <use xlink:href="#m46de8aafc7" x="399.962975" y="307.584" style="stroke: #000000; stroke-width: 0.8"/>
      </g>
     </g>
     <g id="text_2">
      <!-- 1 -->
      <g transform="translate(393.600475 329.780875)scale(0.2 -0.2)">
       <defs>
        <path id="DejaVuSans-31" d="M 794 531 
L 1825 531 
L 1825 4091 
L 703 3866 
L 703 4441 
L 1819 4666 
L 2450 4666 
L 2450 531 
L 3481 531 
L 3481 0 
L 794 0 
L 794 531 
z
" transform="scale(0.015625)"/>
       </defs>
       <use xlink:href="#DejaVuSans-31"/>
      </g>
     </g>
    </g>
    <g id="text_3">
     <!-- Normalised X position -->
     <g transform="translate(111.795937 353.137125)scale(0.2 -0.2)">
      <defs>
       <path id="DejaVuSans-Bold-4e" d="M 588 4666 
L 1931 4666 
L 3628 1466 
L 3628 4666 
L 4769 4666 
L 4769 0 
L 3425 0 
L 1728 3200 
L 1728 0 
L 588 0 
L 588 4666 
z
" transform="scale(0.015625)"/>
       <path id="DejaVuSans-Bold-6f" d="M 2203 2784 
Q 1831 2784 1636 2517 
Q 1441 2250 1441 1747 
Q 1441 1244 1636 976 
Q 1831 709 2203 709 
Q 2569 709 2762 976 
Q 2956 1244 2956 1747 
Q 2956 2250 2762 2517 
Q 2569 2784 2203 2784 
z
M 2203 3584 
Q 3106 3584 3614 3096 
Q 4122 2609 4122 1747 
Q 4122 884 3614 396 
Q 3106 -91 2203 -91 
Q 1297 -91 786 396 
Q 275 884 275 1747 
Q 275 2609 786 3096 
Q 1297 3584 2203 3584 
z
" transform="scale(0.015625)"/>
       <path id="DejaVuSans-Bold-72" d="M 3138 2547 
Q 2991 2616 2845 2648 
Q 2700 2681 2553 2681 
Q 2122 2681 1889 2404 
Q 1656 2128 1656 1613 
L 1656 0 
L 538 0 
L 538 3500 
L 1656 3500 
L 1656 2925 
Q 1872 3269 2151 3426 
Q 2431 3584 2822 3584 
Q 2878 3584 2943 3579 
Q 3009 3575 3134 3559 
L 3138 2547 
z
" transform="scale(0.015625)"/>
       <path id="DejaVuSans-Bold-6d" d="M 3781 2919 
Q 3994 3244 4286 3414 
Q 4578 3584 4928 3584 
Q 5531 3584 5847 3212 
Q 6163 2841 6163 2131 
L 6163 0 
L 5038 0 
L 5038 1825 
Q 5041 1866 5042 1909 
Q 5044 1953 5044 2034 
Q 5044 2406 4934 2573 
Q 4825 2741 4581 2741 
Q 4263 2741 4089 2478 
Q 3916 2216 3909 1719 
L 3909 0 
L 2784 0 
L 2784 1825 
Q 2784 2406 2684 2573 
Q 2584 2741 2328 2741 
Q 2006 2741 1831 2477 
Q 1656 2213 1656 1722 
L 1656 0 
L 531 0 
L 531 3500 
L 1656 3500 
L 1656 2988 
Q 1863 3284 2130 3434 
Q 2397 3584 2719 3584 
Q 3081 3584 3359 3409 
Q 3638 3234 3781 2919 
z
" transform="scale(0.015625)"/>
       <path id="DejaVuSans-Bold-61" d="M 2106 1575 
Q 1756 1575 1579 1456 
Q 1403 1338 1403 1106 
Q 1403 894 1545 773 
Q 1688 653 1941 653 
Q 2256 653 2472 879 
Q 2688 1106 2688 1447 
L 2688 1575 
L 2106 1575 
z
M 3816 1997 
L 3816 0 
L 2688 0 
L 2688 519 
Q 2463 200 2181 54 
Q 1900 -91 1497 -91 
Q 953 -91 614 226 
Q 275 544 275 1050 
Q 275 1666 698 1953 
Q 1122 2241 2028 2241 
L 2688 2241 
L 2688 2328 
Q 2688 2594 2478 2717 
Q 2269 2841 1825 2841 
Q 1466 2841 1156 2769 
Q 847 2697 581 2553 
L 581 3406 
Q 941 3494 1303 3539 
Q 1666 3584 2028 3584 
Q 2975 3584 3395 3211 
Q 3816 2838 3816 1997 
z
" transform="scale(0.015625)"/>
       <path id="DejaVuSans-Bold-6c" d="M 538 4863 
L 1656 4863 
L 1656 0 
L 538 0 
L 538 4863 
z
" transform="scale(0.015625)"/>
       <path id="DejaVuSans-Bold-69" d="M 538 3500 
L 1656 3500 
L 1656 0 
L 538 0 
L 538 3500 
z
M 538 4863 
L 1656 4863 
L 1656 3950 
L 538 3950 
L 538 4863 
z
" transform="scale(0.015625)"/>
       <path id="DejaVuSans-Bold-73" d="M 3272 3391 
L 3272 2541 
Q 2913 2691 2578 2766 
Q 2244 2841 1947 2841 
Q 1628 2841 1473 2761 
Q 1319 2681 1319 2516 
Q 1319 2381 1436 2309 
Q 1553 2238 1856 2203 
L 2053 2175 
Q 2913 2066 3209 1816 
Q 3506 1566 3506 1031 
Q 3506 472 3093 190 
Q 2681 -91 1863 -91 
Q 1516 -91 1145 -36 
Q 775 19 384 128 
L 384 978 
Q 719 816 1070 734 
Q 1422 653 1784 653 
Q 2113 653 2278 743 
Q 2444 834 2444 1013 
Q 2444 1163 2330 1236 
Q 2216 1309 1875 1350 
L 1678 1375 
Q 931 1469 631 1722 
Q 331 1975 331 2491 
Q 331 3047 712 3315 
Q 1094 3584 1881 3584 
Q 2191 3584 2531 3537 
Q 2872 3491 3272 3391 
z
" transform="scale(0.015625)"/>
       <path id="DejaVuSans-Bold-65" d="M 4031 1759 
L 4031 1441 
L 1416 1441 
Q 1456 1047 1700 850 
Q 1944 653 2381 653 
Q 2734 653 3104 758 
Q 3475 863 3866 1075 
L 3866 213 
Q 3469 63 3072 -14 
Q 2675 -91 2278 -91 
Q 1328 -91 801 392 
Q 275 875 275 1747 
Q 275 2603 792 3093 
Q 1309 3584 2216 3584 
Q 3041 3584 3536 3087 
Q 4031 2591 4031 1759 
z
M 2881 2131 
Q 2881 2450 2695 2645 
Q 2509 2841 2209 2841 
Q 1884 2841 1681 2658 
Q 1478 2475 1428 2131 
L 2881 2131 
z
" transform="scale(0.015625)"/>
       <path id="DejaVuSans-Bold-64" d="M 2919 2988 
L 2919 4863 
L 4044 4863 
L 4044 0 
L 2919 0 
L 2919 506 
Q 2688 197 2409 53 
Q 2131 -91 1766 -91 
Q 1119 -91 703 423 
Q 288 938 288 1747 
Q 288 2556 703 3070 
Q 1119 3584 1766 3584 
Q 2128 3584 2408 3439 
Q 2688 3294 2919 2988 
z
M 2181 722 
Q 2541 722 2730 984 
Q 2919 1247 2919 1747 
Q 2919 2247 2730 2509 
Q 2541 2772 2181 2772 
Q 1825 2772 1636 2509 
Q 1447 2247 1447 1747 
Q 1447 1247 1636 984 
Q 1825 722 2181 722 
z
" transform="scale(0.015625)"/>
       <path id="DejaVuSans-Bold-20" transform="scale(0.015625)"/>
       <path id="DejaVuSans-Bold-58" d="M 3188 2381 
L 4806 0 
L 3553 0 
L 2463 1594 
L 1381 0 
L 122 0 
L 1741 2381 
L 184 4666 
L 1441 4666 
L 2463 3163 
L 3481 4666 
L 4744 4666 
L 3188 2381 
z
" transform="scale(0.015625)"/>
       <path id="DejaVuSans-Bold-70" d="M 1656 506 
L 1656 -1331 
L 538 -1331 
L 538 3500 
L 1656 3500 
L 1656 2988 
Q 1888 3294 2169 3439 
Q 2450 3584 2816 3584 
Q 3463 3584 3878 3070 
Q 4294 2556 4294 1747 
Q 4294 938 3878 423 
Q 3463 -91 2816 -91 
Q 2450 -91 2169 54 
Q 1888 200 1656 506 
z
M 2400 2772 
Q 2041 2772 1848 2508 
Q 1656 2244 1656 1747 
Q 1656 1250 1848 986 
Q 2041 722 2400 722 
Q 2759 722 2948 984 
Q 3138 1247 3138 1747 
Q 3138 2247 2948 2509 
Q 2759 2772 2400 2772 
z
" transform="scale(0.015625)"/>
       <path id="DejaVuSans-Bold-74" d="M 1759 4494 
L 1759 3500 
L 2913 3500 
L 2913 2700 
L 1759 2700 
L 1759 1216 
Q 1759 972 1856 886 
Q 1953 800 2241 800 
L 2816 800 
L 2816 0 
L 1856 0 
Q 1194 0 917 276 
Q 641 553 641 1216 
L 641 2700 
L 84 2700 
L 84 3500 
L 641 3500 
L 641 4494 
L 1759 4494 
z
" transform="scale(0.015625)"/>
       <path id="DejaVuSans-Bold-6e" d="M 4056 2131 
L 4056 0 
L 2931 0 
L 2931 347 
L 2931 1631 
Q 2931 2084 2911 2256 
Q 2891 2428 2841 2509 
Q 2775 2619 2662 2680 
Q 2550 2741 2406 2741 
Q 2056 2741 1856 2470 
Q 1656 2200 1656 1722 
L 1656 0 
L 538 0 
L 538 3500 
L 1656 3500 
L 1656 2988 
Q 1909 3294 2193 3439 
Q 2478 3584 2822 3584 
Q 3428 3584 3742 3212 
Q 4056 2841 4056 2131 
z
" transform="scale(0.015625)"/>
      </defs>
      <use xlink:href="#DejaVuSans-Bold-4e"/>
      <use xlink:href="#DejaVuSans-Bold-6f" x="83.691406"/>
      <use xlink:href="#DejaVuSans-Bold-72" x="152.392578"/>
      <use xlink:href="#DejaVuSans-Bold-6d" x="201.708984"/>
      <use xlink:href="#DejaVuSans-Bold-61" x="305.908203"/>
      <use xlink:href="#DejaVuSans-Bold-6c" x="373.388672"/>
      <use xlink:href="#DejaVuSans-Bold-69" x="407.666016"/>
      <use xlink:href="#DejaVuSans-Bold-73" x="441.943359"/>
      <use xlink:href="#DejaVuSans-Bold-65" x="501.464844"/>
      <use xlink:href="#DejaVuSans-Bold-64" x="569.287109"/>
      <use xlink:href="#DejaVuSans-Bold-20" x="640.869141"/>
      <use xlink:href="#DejaVuSans-Bold-58" x="675.683594"/>
      <use xlink:href="#DejaVuSans-Bold-20" x="752.783203"/>
      <use xlink:href="#DejaVuSans-Bold-70" x="787.597656"/>
      <use xlink:href="#DejaVuSans-Bold-6f" x="859.179688"/>
      <use xlink:href="#DejaVuSans-Bold-73" x="927.880859"/>
      <use xlink:href="#DejaVuSans-Bold-69" x="987.402344"/>
      <use xlink:href="#DejaVuSans-Bold-74" x="1021.679688"/>
      <use xlink:href="#DejaVuSans-Bold-69" x="1069.482422"/>
      <use xlink:href="#DejaVuSans-Bold-6f" x="1103.759766"/>
      <use xlink:href="#DejaVuSans-Bold-6e" x="1172.460938"/>
     </g>
    </g>
   </g>
   <g id="matplotlib.axis_2">
    <g id="ytick_1">
     <g id="line2d_3">
      <defs>
       <path id="mf54d89c785" d="M 0 0 
L -3.5 0 
" style="stroke: #000000; stroke-width: 0.8"/>
      </defs>
      <g>
       <use xlink:href="#mf54d89c785" x="57.6" y="297" style="stroke: #000000; stroke-width: 0.8"/>
      </g>
     </g>
     <g id="text_4">
      <!-- 0 -->
      <g transform="translate(37.875 304.598437)scale(0.2 -0.2)">
       <use xlink:href="#DejaVuSans-30"/>
      </g>
     </g>
    </g>
    <g id="ytick_2">
     <g id="line2d_4">
      <g>
       <use xlink:href="#mf54d89c785" x="57.6" y="53.568" style="stroke: #000000; stroke-width: 0.8"/>
      </g>
     </g>
     <g id="text_5">
      <!-- 1 -->
      <g transform="translate(37.875 61.166438)scale(0.2 -0.2)">
       <use xlink:href="#DejaVuSans-31"/>
      </g>
     </g>
    </g>
    <g id="text_6">
     <!-- Normalised Y position -->
     <g transform="translate(29.715625 298.423313)rotate(-90)scale(0.2 -0.2)">
      <defs>
       <path id="DejaVuSans-Bold-59" d="M -63 4666 
L 1253 4666 
L 2316 3003 
L 3378 4666 
L 4697 4666 
L 2919 1966 
L 2919 0 
L 1716 0 
L 1716 1966 
L -63 4666 
z
" transform="scale(0.015625)"/>
      </defs>
      <use xlink:href="#DejaVuSans-Bold-4e"/>
      <use xlink:href="#DejaVuSans-Bold-6f" x="83.691406"/>
      <use xlink:href="#DejaVuSans-Bold-72" x="152.392578"/>
      <use xlink:href="#DejaVuSans-Bold-6d" x="201.708984"/>
      <use xlink:href="#DejaVuSans-Bold-61" x="305.908203"/>
      <use xlink:href="#DejaVuSans-Bold-6c" x="373.388672"/>
      <use xlink:href="#DejaVuSans-Bold-69" x="407.666016"/>
      <use xlink:href="#DejaVuSans-Bold-73" x="441.943359"/>
      <use xlink:href="#DejaVuSans-Bold-65" x="501.464844"/>
      <use xlink:href="#DejaVuSans-Bold-64" x="569.287109"/>
      <use xlink:href="#DejaVuSans-Bold-20" x="640.869141"/>
      <use xlink:href="#DejaVuSans-Bold-59" x="675.683594"/>
      <use xlink:href="#DejaVuSans-Bold-20" x="748.095703"/>
      <use xlink:href="#DejaVuSans-Bold-70" x="782.910156"/>
      <use xlink:href="#DejaVuSans-Bold-6f" x="854.492188"/>
      <use xlink:href="#DejaVuSans-Bold-73" x="923.193359"/>
      <use xlink:href="#DejaVuSans-Bold-69" x="982.714844"/>
      <use xlink:href="#DejaVuSans-Bold-74" x="1016.992188"/>
      <use xlink:href="#DejaVuSans-Bold-69" x="1064.794922"/>
      <use xlink:href="#DejaVuSans-Bold-6f" x="1099.072266"/>
      <use xlink:href="#DejaVuSans-Bold-6e" x="1167.773438"/>
     </g>
    </g>
   </g>
   <g id="line2d_5">
    <path d="M 236.16 174.528 
L 73.832727 53.568 
L 73.832727 295.488 
L 73.832727 295.488 
L 80.620959 287.928 
L 73.832727 295.488 
L 75.013289 294.8832 
L 73.832727 295.488 
L 77.964694 291.8592 
L 78.850116 290.0448 
L 74.423008 291.2544 
L 73.832727 289.44 
L 73.832727 287.3232 
L 75.013289 281.88 
L 73.832727 279.1584 
L 73.832727 276.7392 
L 79.735537 268.5744 
L 88.884893 258.8976 
L 90.950876 253.4544 
L 96.263405 244.9872 
L 97.148826 238.6368 
L 108.659306 222.3072 
L 113.971835 211.7232 
L 124.596893 196.6032 
L 150.864397 161.2224 
L 168.867967 137.9376 
L 188.34724 113.7456 
L 213.139041 85.9248 
L 243.243372 53.568 
L 208.416793 75.9456 
L 196.611174 82.9008 
L 209.597355 71.1072 
L 224.05924 60.2208 
L 240.291967 53.568 
L 398.487273 53.568 
L 398.487273 53.568 
L 392.879603 53.8704 
L 384.615669 57.1968 
L 373.400331 62.3376 
L 358.938446 69.2928 
L 344.476562 75.9456 
L 328.243835 83.808 
L 312.306248 91.368 
L 295.188099 100.1376 
L 276.889388 109.2096 
L 256.524694 120.096 
L 239.111405 128.5632 
L 223.764099 136.728 
L 210.777917 143.3808 
L 201.628562 148.5216 
L 193.069488 153.6624 
L 190.118083 156.384 
L 188.64238 158.8032 
L 189.822942 160.92 
L 192.184066 162.7344 
L 193.364628 164.8512 
L 195.430612 166.3632 
L 198.972298 166.968 
L 201.038281 167.8752 
L 203.694545 168.7824 
L 207.531372 168.48 
L 209.597355 169.3872 
L 211.958479 169.992 
L 213.434182 171.2016 
L 213.729322 172.4112 
L 212.54876 174.2256 
L 211.073058 176.04 
L 207.236231 179.3664 
L 205.465388 181.1808 
L 203.399405 182.9952 
L 197.496595 187.5312 
L 191.003504 191.7648 
L 184.215273 195.9984 
L 178.312463 199.9296 
L 171.229091 204.4656 
L 164.145719 208.6992 
L 148.208132 218.6784 
L 140.239339 223.5168 
L 130.499702 228.6576 
L 119.874645 234.4032 
L 111.31557 239.2416 
L 102.461355 244.08 
L 94.197421 248.9184 
L 86.523769 252.8496 
L 78.554975 257.3856 
L 73.832727 263.1312 
L 73.832727 295.488 
L 73.832727 294.2784 
L 77.079273 290.952 
L 101.280793 270.3888 
L 117.21838 257.3856 
L 139.944198 239.544 
L 161.489455 221.4 
L 183.624992 202.3488 
L 203.694545 183.6 
L 228.781488 161.2224 
L 250.917025 140.6592 
L 271.281719 120.7008 
L 309.945124 80.4816 
L 327.948694 60.5232 
L 345.361983 53.568 
L 394.945587 53.568 
L 385.796231 62.9424 
L 381.073983 68.688 
L 375.466314 75.9456 
L 363.955835 85.9248 
L 355.10162 94.9968 
L 347.723107 103.1616 
L 330.309818 120.3984 
L 320.570182 129.4704 
L 310.240264 138.5424 
L 299.024926 147.9168 
L 299.024926 147.9168 
" clip-path="url(#p2740c276aa)" style="fill: none; stroke: #000000; stroke-width: 1.5; stroke-linecap: square"/>
   </g>
   <g id="line2d_6">
    <path d="M 236.16 174.528 
" clip-path="url(#p2740c276aa)" style="fill: none; stroke: #000000; stroke-width: 1.5; stroke-linecap: square"/>
    <defs>
     <path id="m0a17bd080a" d="M 0 5 
C 1.326016 5 2.597899 4.473168 3.535534 3.535534 
C 4.473168 2.597899 5 1.326016 5 0 
C 5 -1.326016 4.473168 -2.597899 3.535534 -3.535534 
C 2.597899 -4.473168 1.326016 -5 0 -5 
C -1.326016 -5 -2.597899 -4.473168 -3.535534 -3.535534 
C -4.473168 -2.597899 -5 -1.326016 -5 0 
C -5 1.326016 -4.473168 2.597899 -3.535534 3.535534 
C -2.597899 4.473168 -1.326016 5 0 5 
z
" style="stroke: #000000"/>
    </defs>
    <g clip-path="url(#p2740c276aa)">
     <use xlink:href="#m0a17bd080a" x="236.16" y="174.528" style="stroke: #000000"/>
    </g>
   </g>
   <g id="line2d_7">
    <path d="M 299.024926 147.9168 
" clip-path="url(#p2740c276aa)" style="fill: none; stroke: #000000; stroke-width: 1.5; stroke-linecap: square"/>
    <defs>
     <path id="mae23258361" d="M -5 5 
L 5 5 
L 5 -5 
L -5 -5 
z
" style="stroke: #000000; stroke-linejoin: miter"/>
    </defs>
    <g clip-path="url(#p2740c276aa)">
     <use xlink:href="#mae23258361" x="299.024926" y="147.9168" style="stroke: #000000; stroke-linejoin: miter"/>
    </g>
   </g>
   <g id="line2d_8">
    <path d="M 314.962512 122.8176 
L 314.962512 122.8176 
L 314.962512 122.5152 
L 315.257653 122.2128 
L 314.962512 122.2128 
L 314.372231 122.5152 
L 314.077091 122.8176 
L 314.077091 122.8176 
L 313.78195 123.12 
L 313.191669 123.4224 
L 312.601388 123.7248 
L 312.011107 124.0272 
L 311.715967 124.3296 
L 311.420826 124.632 
L 309.354843 126.144 
L 305.222876 128.2608 
L 300.205488 131.2848 
L 293.417256 135.216 
L 280.431074 143.3808 
L 275.413686 147.0096 
L 260.06638 158.5008 
L 248.26076 167.2704 
L 233.798876 177.8544 
L 226.715504 182.6928 
L 203.104264 198.1152 
L 187.166678 208.3968 
L 171.229091 218.376 
L 154.701223 229.2624 
L 140.239339 238.6368 
L 133.451107 242.8704 
L 116.037818 254.0592 
L 107.183603 259.5024 
L 100.690512 263.4336 
L 95.968264 265.8528 
L 94.197421 266.76 
L 91.836298 267.6672 
L 90.065455 267.6672 
L 89.770314 267.3648 
L 90.950876 265.5504 
L 93.60714 263.1312 
L 95.082843 261.6192 
L 99.21481 257.9904 
L 105.707901 251.64 
L 110.430149 247.104 
L 113.381554 244.3824 
L 122.82605 236.8224 
L 129.31914 231.984 
L 131.975405 229.8672 
L 139.649058 223.5168 
L 141.419901 221.7024 
L 144.371306 218.6784 
L 144.666446 216.5616 
L 142.600463 215.6544 
L 139.944198 215.0496 
L 137.583074 214.4448 
L 134.336529 215.0496 
L 131.089983 215.6544 
L 127.548298 216.864 
L 123.711471 218.376 
L 119.579504 219.2832 
L 116.332959 219.5856 
L 113.381554 219.5856 
L 111.31557 218.9808 
L 109.544727 218.376 
L 108.069025 217.4688 
L 107.183603 216.864 
L 107.183603 215.352 
L 107.183603 214.1424 
L 108.364165 211.7232 
L 110.430149 209.304 
L 112.200992 206.5824 
L 113.971835 203.5584 
L 115.447537 200.5344 
L 117.21838 197.208 
L 118.398942 193.5792 
L 118.398942 190.2528 
L 118.694083 186.3216 
L 118.398942 182.6928 
L 118.398942 179.3664 
L 118.694083 176.04 
L 119.284364 173.016 
L 117.513521 171.504 
L 114.857256 170.5968 
L 113.381554 169.992 
L 112.200992 168.7824 
L 111.610711 168.1776 
L 110.430149 167.5728 
L 109.839868 166.6656 
L 108.659306 165.7584 
L 108.069025 164.5488 
L 108.364165 163.3392 
L 107.773884 162.1296 
L 107.773884 160.92 
L 107.773884 160.3152 
L 107.773884 159.408 
L 108.364165 158.5008 
L 109.249587 157.5936 
L 110.135008 156.384 
" clip-path="url(#p2740c276aa)" style="fill: none; stroke: #0000ff; stroke-width: 1.5; stroke-linecap: square"/>
   </g>
   <g id="line2d_9">
    <path d="M 314.962512 122.8176 
" clip-path="url(#p2740c276aa)" style="fill: none; stroke: #0000ff; stroke-width: 1.5; stroke-linecap: square"/>
    <defs>
     <path id="mac47fcb69a" d="M 0 5 
C 1.326016 5 2.597899 4.473168 3.535534 3.535534 
C 4.473168 2.597899 5 1.326016 5 0 
C 5 -1.326016 4.473168 -2.597899 3.535534 -3.535534 
C 2.597899 -4.473168 1.326016 -5 0 -5 
C -1.326016 -5 -2.597899 -4.473168 -3.535534 -3.535534 
C -4.473168 -2.597899 -5 -1.326016 -5 0 
C -5 1.326016 -4.473168 2.597899 -3.535534 3.535534 
C -2.597899 4.473168 -1.326016 5 0 5 
z
" style="stroke: #0000ff"/>
    </defs>
    <g clip-path="url(#p2740c276aa)">
     <use xlink:href="#mac47fcb69a" x="314.962512" y="122.8176" style="fill: #0000ff; stroke: #0000ff"/>
    </g>
   </g>
   <g id="line2d_10">
    <path d="M 110.135008 156.384 
" clip-path="url(#p2740c276aa)" style="fill: none; stroke: #0000ff; stroke-width: 1.5; stroke-linecap: square"/>
    <defs>
     <path id="m8e04987cf1" d="M -5 5 
L 5 5 
L 5 -5 
L -5 -5 
z
" style="stroke: #0000ff; stroke-linejoin: miter"/>
    </defs>
    <g clip-path="url(#p2740c276aa)">
     <use xlink:href="#m8e04987cf1" x="110.135008" y="156.384" style="fill: #0000ff; stroke: #0000ff; stroke-linejoin: miter"/>
    </g>
   </g>
   <g id="line2d_11">
    <path d="M 103.346777 185.4144 
L 97.148826 185.112 
L 92.426579 184.2048 
L 87.999471 182.9952 
L 84.162645 181.7856 
L 81.21124 180.576 
L 79.735537 179.9712 
L 76.488992 177.552 
L 75.30843 176.6448 
L 74.423008 175.1328 
L 73.832727 172.1088 
L 73.832727 171.2016 
L 73.832727 170.2944 
L 74.127868 168.1776 
L 74.127868 167.2704 
L 76.488992 164.2464 
L 80.620959 160.92 
L 92.721719 152.1504 
L 100.395372 146.7072 
L 108.364165 141.5664 
L 118.398942 135.5184 
L 127.253157 129.7728 
L 135.517091 124.3296 
L 142.895603 118.584 
L 148.503273 113.1408 
L 152.340099 108.3024 
L 154.996364 104.0688 
L 157.062347 100.1376 
L 159.423471 96.5088 
L 162.670017 92.5776 
L 169.458248 88.6464 
L 173.885355 85.32 
L 177.131901 82.296 
L 179.197884 79.8768 
L 180.083306 78.3648 
L 178.312463 77.4576 
L 178.017322 76.8528 
L 180.083306 76.248 
L 181.559008 76.248 
L 183.920132 76.5504 
L 187.756959 76.8528 
L 192.184066 77.1552 
L 196.316033 78.3648 
L 200.15286 79.5744 
L 205.170248 80.1792 
L 211.073058 80.1792 
L 218.45157 79.5744 
L 225.830083 79.272 
L 232.028033 79.5744 
L 237.930843 79.272 
L 244.128793 78.6672 
L 252.097587 77.1552 
L 261.246942 75.6432 
L 267.444893 73.8288 
L 270.986579 72.6192 
L 273.347702 72.0144 
L 275.118545 71.1072 
L 276.889388 69.8976 
L 278.06995 68.9904 
L 279.250512 68.0832 
L 279.840793 67.4784 
L 279.840793 67.4784 
L 279.840793 67.7808 
L 279.250512 68.688 
L 277.77481 69.8976 
L 276.594248 71.4096 
L 274.823405 73.8288 
L 273.642843 75.9456 
L 273.052562 78.3648 
L 272.462281 81.0864 
" clip-path="url(#p2740c276aa)" style="fill: none; stroke: #00fa9a; stroke-width: 1.5; stroke-linecap: square"/>
   </g>
   <g id="line2d_12">
    <path d="M 103.346777 185.4144 
" clip-path="url(#p2740c276aa)" style="fill: none; stroke: #00fa9a; stroke-width: 1.5; stroke-linecap: square"/>
    <defs>
     <path id="m073ed4ad72" d="M 0 5 
C 1.326016 5 2.597899 4.473168 3.535534 3.535534 
C 4.473168 2.597899 5 1.326016 5 0 
C 5 -1.326016 4.473168 -2.597899 3.535534 -3.535534 
C 2.597899 -4.473168 1.326016 -5 0 -5 
C -1.326016 -5 -2.597899 -4.473168 -3.535534 -3.535534 
C -4.473168 -2.597899 -5 -1.326016 -5 0 
C -5 1.326016 -4.473168 2.597899 -3.535534 3.535534 
C -2.597899 4.473168 -1.326016 5 0 5 
z
" style="stroke: #00fa9a"/>
    </defs>
    <g clip-path="url(#p2740c276aa)">
     <use xlink:href="#m073ed4ad72" x="103.346777" y="185.4144" style="fill: #00fa9a; stroke: #00fa9a"/>
    </g>
   </g>
   <g id="line2d_13">
    <path d="M 272.462281 81.0864 
" clip-path="url(#p2740c276aa)" style="fill: none; stroke: #00fa9a; stroke-width: 1.5; stroke-linecap: square"/>
    <defs>
     <path id="md6403c3747" d="M -5 5 
L 5 5 
L 5 -5 
L -5 -5 
z
" style="stroke: #00fa9a; stroke-linejoin: miter"/>
    </defs>
    <g clip-path="url(#p2740c276aa)">
     <use xlink:href="#md6403c3747" x="272.462281" y="81.0864" style="fill: #00fa9a; stroke: #00fa9a; stroke-linejoin: miter"/>
    </g>
   </g>
   <g id="line2d_14">
    <path d="M 190.708364 253.7568 
L 190.708364 253.7568 
L 190.413223 253.7568 
L 190.413223 253.7568 
L 190.118083 253.7568 
L 190.708364 253.7568 
L 190.708364 253.7568 
L 190.413223 253.7568 
L 190.413223 253.7568 
L 190.413223 253.7568 
L 190.118083 253.7568 
L 189.822942 254.0592 
L 189.232661 254.0592 
L 188.64238 254.3616 
L 187.756959 254.9664 
L 186.281256 255.8736 
L 185.690975 256.176 
L 183.920132 256.7808 
L 182.149289 257.688 
L 180.083306 258.5952 
L 178.017322 259.5024 
L 176.246479 259.8048 
L 174.180496 259.2 
L 172.114512 257.688 
L 170.63881 255.8736 
L 169.163107 253.4544 
L 167.687405 251.3376 
L 165.621421 250.128 
L 162.374876 249.8256 
L 158.53805 250.4304 
L 154.110942 251.64 
L 150.864397 252.2448 
L 147.912992 252.5472 
L 145.847008 252.2448 
L 144.371306 251.3376 
L 143.190744 249.8256 
L 142.600463 248.3136 
L 142.305322 246.4992 
L 142.305322 244.6848 
L 142.305322 243.1728 
L 142.600463 241.6608 
L 142.600463 240.4512 
L 142.895603 238.9392 
L 143.485884 237.1248 
L 146.437289 232.8912 
L 146.73243 231.3792 
L 149.388694 227.7504 
L 151.454678 224.1216 
L 152.93038 220.7952 
L 154.406083 217.7712 
L 155.291504 215.0496 
L 155.586645 212.6304 
L 155.586645 210.5136 
L 154.996364 208.3968 
L 154.110942 206.5824 
L 152.63524 205.3728 
L 150.864397 204.4656 
L 148.798413 203.8608 
L 146.73243 203.5584 
L 144.371306 203.5584 
L 142.010182 203.5584 
L 139.353917 204.1632 
L 136.697653 204.768 
L 134.631669 205.0704 
L 132.270545 205.3728 
L 130.204562 205.9776 
L 128.138579 206.8848 
L 126.072595 207.792 
L 124.301752 208.3968 
L 122.82605 209.0016 
L 121.350347 209.304 
L 120.169785 209.0016 
L 119.579504 208.3968 
L 119.284364 208.0944 
L 118.989223 207.4896 
L 118.989223 206.28 
L 118.989223 205.3728 
L 119.874645 204.1632 
L 119.874645 202.3488 
L 119.874645 200.8368 
L 120.169785 199.3248 
L 120.169785 197.5104 
L 120.169785 195.696 
L 120.464926 193.8816 
L 120.464926 192.0672 
L 120.464926 191.16 
L 120.464926 189.3456 
L 119.874645 188.136 
L 119.284364 187.2288 
L 118.398942 186.3216 
L 117.513521 185.4144 
L 116.628099 185.112 
L 116.037818 184.2048 
L 115.742678 183.6 
L 115.447537 182.9952 
L 115.152397 182.3904 
L 114.857256 182.088 
L 114.562116 181.4832 
L 114.562116 180.8784 
L 114.857256 179.9712 
L 114.857256 179.064 
L 115.152397 178.1568 
L 115.152397 177.2496 
L 115.152397 176.04 
L 115.152397 174.8304 
" clip-path="url(#p2740c276aa)" style="fill: none; stroke: #ffd700; stroke-width: 1.5; stroke-linecap: square"/>
   </g>
   <g id="line2d_15">
    <path d="M 190.708364 253.7568 
" clip-path="url(#p2740c276aa)" style="fill: none; stroke: #ffd700; stroke-width: 1.5; stroke-linecap: square"/>
    <defs>
     <path id="me273cf166d" d="M 0 5 
C 1.326016 5 2.597899 4.473168 3.535534 3.535534 
C 4.473168 2.597899 5 1.326016 5 0 
C 5 -1.326016 4.473168 -2.597899 3.535534 -3.535534 
C 2.597899 -4.473168 1.326016 -5 0 -5 
C -1.326016 -5 -2.597899 -4.473168 -3.535534 -3.535534 
C -4.473168 -2.597899 -5 -1.326016 -5 0 
C -5 1.326016 -4.473168 2.597899 -3.535534 3.535534 
C -2.597899 4.473168 -1.326016 5 0 5 
z
" style="stroke: #ffd700"/>
    </defs>
    <g clip-path="url(#p2740c276aa)">
     <use xlink:href="#me273cf166d" x="190.708364" y="253.7568" style="fill: #ffd700; stroke: #ffd700"/>
    </g>
   </g>
   <g id="line2d_16">
    <path d="M 115.152397 174.8304 
" clip-path="url(#p2740c276aa)" style="fill: none; stroke: #ffd700; stroke-width: 1.5; stroke-linecap: square"/>
    <defs>
     <path id="m8d94d0b4e1" d="M -5 5 
L 5 5 
L 5 -5 
L -5 -5 
z
" style="stroke: #ffd700; stroke-linejoin: miter"/>
    </defs>
    <g clip-path="url(#p2740c276aa)">
     <use xlink:href="#m8d94d0b4e1" x="115.152397" y="174.8304" style="fill: #ffd700; stroke: #ffd700; stroke-linejoin: miter"/>
    </g>
   </g>
   <g id="line2d_17">
    <path d="M 350.674512 130.0752 
L 366.90724 112.2336 
L 378.122579 97.7184 
L 385.796231 85.9248 
L 389.928198 77.76 
L 392.879603 69.8976 
L 393.174744 68.3856 
L 393.765025 66.5712 
L 393.174744 67.7808 
L 392.584463 68.688 
L 390.223339 74.1312 
L 387.271934 79.272 
L 383.139967 86.2272 
L 377.532298 94.6944 
L 370.744066 104.976 
L 361.889851 116.4672 
L 351.264793 129.4704 
L 338.573752 143.0784 
L 324.407008 156.9888 
L 308.764562 171.8064 
L 292.826975 186.0192 
L 276.889388 199.3248 
L 262.722645 210.816 
L 250.917025 219.888 
L 240.882248 227.448 
L 231.732893 234.1008 
L 224.944661 238.9392 
L 220.222413 242.2656 
L 218.746711 243.1728 
L 219.927273 242.2656 
L 223.468959 239.8464 
L 229.666909 235.008 
L 234.389157 231.3792 
L 239.406545 227.448 
L 243.833653 223.8192 
L 247.080198 220.7952 
L 250.326744 217.7712 
L 252.687868 215.0496 
L 253.278149 213.5376 
L 253.573289 212.0256 
L 254.16357 209.9088 
L 254.16357 208.0944 
L 253.573289 206.8848 
L 250.917025 206.8848 
L 246.194777 207.792 
L 242.35795 208.3968 
L 239.406545 208.6992 
L 235.569719 209.6064 
L 230.25719 211.4208 
L 224.649521 214.1424 
L 219.041851 216.2592 
L 214.024463 218.0736 
L 209.597355 219.5856 
L 205.465388 220.4928 
L 201.038281 222.0048 
L 196.611174 223.2144 
L 192.479207 224.1216 
L 189.232661 224.424 
L 186.281256 224.1216 
L 183.034711 223.8192 
L 179.493025 223.8192 
L 176.54162 223.8192 
L 173.885355 223.8192 
L 171.819372 223.2144 
L 170.93395 221.4 
L 170.048529 219.2832 
L 168.867967 217.1664 
L 167.982545 215.352 
L 167.687405 213.84 
L 167.392264 212.328 
L 166.801983 211.1184 
L 166.506843 209.6064 
L 166.506843 207.4896 
L 166.801983 205.3728 
L 167.392264 202.6512 
L 168.277686 199.9296 
L 170.343669 196.9056 
L 171.229091 194.7888 
L 172.114512 192.3696 
L 172.409653 190.5552 
L 172.999934 188.4384 
" clip-path="url(#p2740c276aa)" style="fill: none; stroke: #87cefa; stroke-width: 1.5; stroke-linecap: square"/>
   </g>
   <g id="line2d_18">
    <path d="M 350.674512 130.0752 
" clip-path="url(#p2740c276aa)" style="fill: none; stroke: #87cefa; stroke-width: 1.5; stroke-linecap: square"/>
    <defs>
     <path id="mb06d77fec9" d="M 0 5 
C 1.326016 5 2.597899 4.473168 3.535534 3.535534 
C 4.473168 2.597899 5 1.326016 5 0 
C 5 -1.326016 4.473168 -2.597899 3.535534 -3.535534 
C 2.597899 -4.473168 1.326016 -5 0 -5 
C -1.326016 -5 -2.597899 -4.473168 -3.535534 -3.535534 
C -4.473168 -2.597899 -5 -1.326016 -5 0 
C -5 1.326016 -4.473168 2.597899 -3.535534 3.535534 
C -2.597899 4.473168 -1.326016 5 0 5 
z
" style="stroke: #87cefa"/>
    </defs>
    <g clip-path="url(#p2740c276aa)">
     <use xlink:href="#mb06d77fec9" x="350.674512" y="130.0752" style="fill: #87cefa; stroke: #87cefa"/>
    </g>
   </g>
   <g id="line2d_19">
    <path d="M 172.999934 188.4384 
" clip-path="url(#p2740c276aa)" style="fill: none; stroke: #87cefa; stroke-width: 1.5; stroke-linecap: square"/>
    <defs>
     <path id="m0464e7ce08" d="M -5 5 
L 5 5 
L 5 -5 
L -5 -5 
z
" style="stroke: #87cefa; stroke-linejoin: miter"/>
    </defs>
    <g clip-path="url(#p2740c276aa)">
     <use xlink:href="#m0464e7ce08" x="172.999934" y="188.4384" style="fill: #87cefa; stroke: #87cefa; stroke-linejoin: miter"/>
    </g>
   </g>
   <g id="line2d_20">
    <path d="M 168.277686 166.0608 
L 168.277686 166.0608 
L 168.277686 166.0608 
L 168.277686 166.0608 
L 168.277686 166.0608 
L 168.572826 165.7584 
L 168.867967 165.7584 
L 169.163107 165.456 
L 169.458248 165.1536 
L 169.753388 164.8512 
L 170.048529 164.8512 
L 169.753388 164.8512 
L 170.048529 164.5488 
L 170.343669 164.2464 
L 171.524231 163.6416 
L 173.590215 162.432 
L 176.54162 160.92 
L 180.378446 159.1056 
L 185.395835 156.384 
L 192.184066 153.0576 
L 199.267438 149.1264 
L 208.121653 143.6832 
L 219.632132 137.0304 
L 231.142612 130.0752 
L 242.35795 123.12 
L 253.573289 116.1648 
L 263.903207 109.8144 
L 273.052562 104.3712 
L 281.611636 100.1376 
L 291.056132 95.6016 
L 299.320066 91.6704 
L 306.403438 89.2512 
L 312.306248 87.4368 
L 318.504198 86.2272 
L 321.455603 87.1344 
L 325.29243 87.7392 
L 329.424397 88.6464 
L 332.670942 89.856 
L 335.327207 91.6704 
L 337.09805 93.7872 
L 338.573752 96.2064 
L 340.344595 98.3232 
L 341.820298 100.44 
L 343.59114 102.2544 
L 345.361983 103.7664 
L 347.132826 104.976 
L 349.19881 105.8832 
L 350.969653 106.488 
L 353.330777 106.7904 
L 355.691901 106.7904 
L 358.348165 106.488 
L 360.119008 106.488 
L 361.29957 106.7904 
L 361.889851 107.3952 
L 362.184992 107.6976 
L 362.184992 108.3024 
L 361.594711 109.512 
L 361.29957 110.4192 
L 360.119008 112.2336 
L 358.938446 113.7456 
L 358.053025 115.56 
L 357.462744 117.072 
L 356.872463 118.2816 
L 356.577322 119.4912 
L 356.282182 120.3984 
L 356.282182 121.3056 
L 355.691901 122.5152 
L 354.511339 124.3296 
L 353.625917 125.8416 
L 352.740496 127.3536 
L 351.559934 129.168 
L 350.674512 130.3776 
L 350.084231 130.9824 
L 349.19881 132.192 
L 348.903669 132.7968 
L 348.608529 133.0992 
L 349.49395 132.4944 
L 350.084231 131.5872 
L 351.264793 130.68 
L 352.150215 129.7728 
L 353.035636 128.5632 
L 354.511339 127.3536 
" clip-path="url(#p2740c276aa)" style="fill: none; stroke: #ffa500; stroke-width: 1.5; stroke-linecap: square"/>
   </g>
   <g id="line2d_21">
    <path d="M 168.277686 166.0608 
" clip-path="url(#p2740c276aa)" style="fill: none; stroke: #ffa500; stroke-width: 1.5; stroke-linecap: square"/>
    <defs>
     <path id="m2109490096" d="M 0 5 
C 1.326016 5 2.597899 4.473168 3.535534 3.535534 
C 4.473168 2.597899 5 1.326016 5 0 
C 5 -1.326016 4.473168 -2.597899 3.535534 -3.535534 
C 2.597899 -4.473168 1.326016 -5 0 -5 
C -1.326016 -5 -2.597899 -4.473168 -3.535534 -3.535534 
C -4.473168 -2.597899 -5 -1.326016 -5 0 
C -5 1.326016 -4.473168 2.597899 -3.535534 3.535534 
C -2.597899 4.473168 -1.326016 5 0 5 
z
" style="stroke: #ffa500"/>
    </defs>
    <g clip-path="url(#p2740c276aa)">
     <use xlink:href="#m2109490096" x="168.277686" y="166.0608" style="fill: #ffa500; stroke: #ffa500"/>
    </g>
   </g>
   <g id="line2d_22">
    <path d="M 354.511339 127.3536 
" clip-path="url(#p2740c276aa)" style="fill: none; stroke: #ffa500; stroke-width: 1.5; stroke-linecap: square"/>
    <defs>
     <path id="me860ef9099" d="M -5 5 
L 5 5 
L 5 -5 
L -5 -5 
z
" style="stroke: #ffa500; stroke-linejoin: miter"/>
    </defs>
    <g clip-path="url(#p2740c276aa)">
     <use xlink:href="#me860ef9099" x="354.511339" y="127.3536" style="fill: #ffa500; stroke: #ffa500; stroke-linejoin: miter"/>
    </g>
   </g>
   <g id="line2d_23">
    <path d="M 356.577322 137.9376 
L 348.018248 148.824 
L 338.278612 160.6176 
L 327.358413 172.4112 
L 316.438215 183.6 
L 305.222876 194.4864 
L 293.712397 205.0704 
L 283.087339 214.1424 
L 273.347702 222.3072 
L 263.903207 229.5648 
L 255.344132 236.2176 
L 247.96562 241.6608 
L 242.06281 245.8944 
L 236.750281 250.128 
L 233.208595 253.152 
L 231.142612 255.2688 
L 230.552331 256.4784 
L 230.847471 256.4784 
L 232.618314 255.8736 
L 234.094017 255.5712 
L 236.45514 254.664 
L 238.816264 253.7568 
L 241.472529 252.8496 
L 243.243372 251.9424 
L 243.833653 251.0352 
L 243.833653 249.8256 
L 244.128793 247.7088 
L 243.833653 245.2896 
L 242.35795 243.7776 
L 241.177388 241.3584 
L 239.701686 239.2416 
L 237.930843 237.1248 
L 235.86486 235.008 
L 233.798876 232.8912 
L 231.732893 230.7744 
L 230.847471 227.7504 
L 229.371769 225.0288 
L 227.896066 222.0048 
L 226.125223 218.9808 
L 225.239802 215.6544 
L 224.05924 212.328 
L 222.878678 209.0016 
L 221.698116 205.3728 
L 221.107835 201.4416 
L 220.517554 197.8128 
L 220.222413 193.8816 
L 219.632132 190.5552 
L 219.041851 187.2288 
L 218.45157 184.2048 
L 218.746711 181.1808 
L 219.041851 177.8544 
L 219.336992 175.1328 
L 219.041851 172.7136 
L 218.15643 170.5968 
L 217.271008 168.48 
L 215.500165 166.0608 
L 213.729322 163.944 
L 211.663339 162.1296 
L 210.482777 161.2224 
L 207.236231 159.408 
L 205.170248 158.5008 
L 203.104264 157.896 
L 200.74314 157.2912 
L 198.382017 156.6864 
L 197.201455 156.384 
L 192.774347 155.7792 
L 189.822942 155.4768 
L 186.871537 155.4768 
L 184.510413 155.1744 
L 182.44443 154.872 
L 181.263868 154.2672 
L 179.493025 153.6624 
L 178.312463 153.0576 
L 177.722182 151.5456 
L 177.427041 150.0336 
L 177.427041 148.2192 
L 177.131901 146.4048 
L 176.54162 144.288 
L 175.951339 142.1712 
L 175.361058 139.752 
L 174.770777 138.24 
L 173.885355 135.8208 
L 172.704793 133.0992 
L 170.048529 129.4704 
L 168.867967 126.4464 
L 167.982545 123.12 
L 167.097124 119.7936 
L 165.916562 116.7696 
L 165.326281 115.56 
L 164.145719 111.6288 
" clip-path="url(#p2740c276aa)" style="fill: none; stroke: #8a2be2; stroke-width: 1.5; stroke-linecap: square"/>
   </g>
   <g id="line2d_24">
    <path d="M 356.577322 137.9376 
" clip-path="url(#p2740c276aa)" style="fill: none; stroke: #8a2be2; stroke-width: 1.5; stroke-linecap: square"/>
    <defs>
     <path id="mc532f48608" d="M 0 5 
C 1.326016 5 2.597899 4.473168 3.535534 3.535534 
C 4.473168 2.597899 5 1.326016 5 0 
C 5 -1.326016 4.473168 -2.597899 3.535534 -3.535534 
C 2.597899 -4.473168 1.326016 -5 0 -5 
C -1.326016 -5 -2.597899 -4.473168 -3.535534 -3.535534 
C -4.473168 -2.597899 -5 -1.326016 -5 0 
C -5 1.326016 -4.473168 2.597899 -3.535534 3.535534 
C -2.597899 4.473168 -1.326016 5 0 5 
z
" style="stroke: #8a2be2"/>
    </defs>
    <g clip-path="url(#p2740c276aa)">
     <use xlink:href="#mc532f48608" x="356.577322" y="137.9376" style="fill: #8a2be2; stroke: #8a2be2"/>
    </g>
   </g>
   <g id="line2d_25">
    <path d="M 164.145719 111.6288 
" clip-path="url(#p2740c276aa)" style="fill: none; stroke: #8a2be2; stroke-width: 1.5; stroke-linecap: square"/>
    <defs>
     <path id="mf46c34aa83" d="M -5 5 
L 5 5 
L 5 -5 
L -5 -5 
z
" style="stroke: #8a2be2; stroke-linejoin: miter"/>
    </defs>
    <g clip-path="url(#p2740c276aa)">
     <use xlink:href="#mf46c34aa83" x="164.145719" y="111.6288" style="fill: #8a2be2; stroke: #8a2be2; stroke-linejoin: miter"/>
    </g>
   </g>
   <g id="patch_3">
    <path d="M 57.6 307.584 
L 57.6 41.472 
" style="fill: none; stroke: #000000; stroke-width: 0.8; stroke-linejoin: miter; stroke-linecap: square"/>
   </g>
   <g id="patch_4">
    <path d="M 57.6 307.584 
L 414.72 307.584 
" style="fill: none; stroke: #000000; stroke-width: 0.8; stroke-linejoin: miter; stroke-linecap: square"/>
   </g>
   <g id="legend_1">
    <g id="patch_5">
     <path d="M 282.164531 119.523563 
L 404.22 119.523563 
Q 407.22 119.523563 407.22 116.523563 
L 407.22 51.972 
Q 407.22 48.972 404.22 48.972 
L 282.164531 48.972 
Q 279.164531 48.972 279.164531 51.972 
L 279.164531 116.523563 
Q 279.164531 119.523563 282.164531 119.523563 
z
" style="fill: #ffffff; opacity: 0.8; stroke: #cccccc; stroke-linejoin: miter"/>
    </g>
    <g id="line2d_26">
     <path d="M 285.164531 61.119656 
L 300.164531 61.119656 
L 315.164531 61.119656 
" style="fill: none; stroke: #000000; stroke-width: 1.5; stroke-linecap: square"/>
    </g>
    <g id="text_7">
     <!-- Trajectory -->
     <g transform="translate(327.164531 66.369656)scale(0.15 -0.15)">
      <defs>
       <path id="DejaVuSans-54" d="M -19 4666 
L 3928 4666 
L 3928 4134 
L 2272 4134 
L 2272 0 
L 1638 0 
L 1638 4134 
L -19 4134 
L -19 4666 
z
" transform="scale(0.015625)"/>
       <path id="DejaVuSans-72" d="M 2631 2963 
Q 2534 3019 2420 3045 
Q 2306 3072 2169 3072 
Q 1681 3072 1420 2755 
Q 1159 2438 1159 1844 
L 1159 0 
L 581 0 
L 581 3500 
L 1159 3500 
L 1159 2956 
Q 1341 3275 1631 3429 
Q 1922 3584 2338 3584 
Q 2397 3584 2469 3576 
Q 2541 3569 2628 3553 
L 2631 2963 
z
" transform="scale(0.015625)"/>
       <path id="DejaVuSans-61" d="M 2194 1759 
Q 1497 1759 1228 1600 
Q 959 1441 959 1056 
Q 959 750 1161 570 
Q 1363 391 1709 391 
Q 2188 391 2477 730 
Q 2766 1069 2766 1631 
L 2766 1759 
L 2194 1759 
z
M 3341 1997 
L 3341 0 
L 2766 0 
L 2766 531 
Q 2569 213 2275 61 
Q 1981 -91 1556 -91 
Q 1019 -91 701 211 
Q 384 513 384 1019 
Q 384 1609 779 1909 
Q 1175 2209 1959 2209 
L 2766 2209 
L 2766 2266 
Q 2766 2663 2505 2880 
Q 2244 3097 1772 3097 
Q 1472 3097 1187 3025 
Q 903 2953 641 2809 
L 641 3341 
Q 956 3463 1253 3523 
Q 1550 3584 1831 3584 
Q 2591 3584 2966 3190 
Q 3341 2797 3341 1997 
z
" transform="scale(0.015625)"/>
       <path id="DejaVuSans-6a" d="M 603 3500 
L 1178 3500 
L 1178 -63 
Q 1178 -731 923 -1031 
Q 669 -1331 103 -1331 
L -116 -1331 
L -116 -844 
L 38 -844 
Q 366 -844 484 -692 
Q 603 -541 603 -63 
L 603 3500 
z
M 603 4863 
L 1178 4863 
L 1178 4134 
L 603 4134 
L 603 4863 
z
" transform="scale(0.015625)"/>
       <path id="DejaVuSans-65" d="M 3597 1894 
L 3597 1613 
L 953 1613 
Q 991 1019 1311 708 
Q 1631 397 2203 397 
Q 2534 397 2845 478 
Q 3156 559 3463 722 
L 3463 178 
Q 3153 47 2828 -22 
Q 2503 -91 2169 -91 
Q 1331 -91 842 396 
Q 353 884 353 1716 
Q 353 2575 817 3079 
Q 1281 3584 2069 3584 
Q 2775 3584 3186 3129 
Q 3597 2675 3597 1894 
z
M 3022 2063 
Q 3016 2534 2758 2815 
Q 2500 3097 2075 3097 
Q 1594 3097 1305 2825 
Q 1016 2553 972 2059 
L 3022 2063 
z
" transform="scale(0.015625)"/>
       <path id="DejaVuSans-63" d="M 3122 3366 
L 3122 2828 
Q 2878 2963 2633 3030 
Q 2388 3097 2138 3097 
Q 1578 3097 1268 2742 
Q 959 2388 959 1747 
Q 959 1106 1268 751 
Q 1578 397 2138 397 
Q 2388 397 2633 464 
Q 2878 531 3122 666 
L 3122 134 
Q 2881 22 2623 -34 
Q 2366 -91 2075 -91 
Q 1284 -91 818 406 
Q 353 903 353 1747 
Q 353 2603 823 3093 
Q 1294 3584 2113 3584 
Q 2378 3584 2631 3529 
Q 2884 3475 3122 3366 
z
" transform="scale(0.015625)"/>
       <path id="DejaVuSans-74" d="M 1172 4494 
L 1172 3500 
L 2356 3500 
L 2356 3053 
L 1172 3053 
L 1172 1153 
Q 1172 725 1289 603 
Q 1406 481 1766 481 
L 2356 481 
L 2356 0 
L 1766 0 
Q 1100 0 847 248 
Q 594 497 594 1153 
L 594 3053 
L 172 3053 
L 172 3500 
L 594 3500 
L 594 4494 
L 1172 4494 
z
" transform="scale(0.015625)"/>
       <path id="DejaVuSans-6f" d="M 1959 3097 
Q 1497 3097 1228 2736 
Q 959 2375 959 1747 
Q 959 1119 1226 758 
Q 1494 397 1959 397 
Q 2419 397 2687 759 
Q 2956 1122 2956 1747 
Q 2956 2369 2687 2733 
Q 2419 3097 1959 3097 
z
M 1959 3584 
Q 2709 3584 3137 3096 
Q 3566 2609 3566 1747 
Q 3566 888 3137 398 
Q 2709 -91 1959 -91 
Q 1206 -91 779 398 
Q 353 888 353 1747 
Q 353 2609 779 3096 
Q 1206 3584 1959 3584 
z
" transform="scale(0.015625)"/>
       <path id="DejaVuSans-79" d="M 2059 -325 
Q 1816 -950 1584 -1140 
Q 1353 -1331 966 -1331 
L 506 -1331 
L 506 -850 
L 844 -850 
Q 1081 -850 1212 -737 
Q 1344 -625 1503 -206 
L 1606 56 
L 191 3500 
L 800 3500 
L 1894 763 
L 2988 3500 
L 3597 3500 
L 2059 -325 
z
" transform="scale(0.015625)"/>
      </defs>
      <use xlink:href="#DejaVuSans-54"/>
      <use xlink:href="#DejaVuSans-72" x="46.333984"/>
      <use xlink:href="#DejaVuSans-61" x="87.447266"/>
      <use xlink:href="#DejaVuSans-6a" x="148.726562"/>
      <use xlink:href="#DejaVuSans-65" x="176.509766"/>
      <use xlink:href="#DejaVuSans-63" x="238.033203"/>
      <use xlink:href="#DejaVuSans-74" x="293.013672"/>
      <use xlink:href="#DejaVuSans-6f" x="332.222656"/>
      <use xlink:href="#DejaVuSans-72" x="393.404297"/>
      <use xlink:href="#DejaVuSans-79" x="434.517578"/>
     </g>
    </g>
    <g id="line2d_27">
     <path d="M 285.164531 83.136844 
L 300.164531 83.136844 
L 315.164531 83.136844 
" style="fill: none; stroke: #000000; stroke-width: 1.5; stroke-linecap: square"/>
     <g>
      <use xlink:href="#m0a17bd080a" x="300.164531" y="83.136844" style="stroke: #000000"/>
     </g>
    </g>
    <g id="text_8">
     <!-- Start -->
     <g transform="translate(327.164531 88.386844)scale(0.15 -0.15)">
      <defs>
       <path id="DejaVuSans-53" d="M 3425 4513 
L 3425 3897 
Q 3066 4069 2747 4153 
Q 2428 4238 2131 4238 
Q 1616 4238 1336 4038 
Q 1056 3838 1056 3469 
Q 1056 3159 1242 3001 
Q 1428 2844 1947 2747 
L 2328 2669 
Q 3034 2534 3370 2195 
Q 3706 1856 3706 1288 
Q 3706 609 3251 259 
Q 2797 -91 1919 -91 
Q 1588 -91 1214 -16 
Q 841 59 441 206 
L 441 856 
Q 825 641 1194 531 
Q 1563 422 1919 422 
Q 2459 422 2753 634 
Q 3047 847 3047 1241 
Q 3047 1584 2836 1778 
Q 2625 1972 2144 2069 
L 1759 2144 
Q 1053 2284 737 2584 
Q 422 2884 422 3419 
Q 422 4038 858 4394 
Q 1294 4750 2059 4750 
Q 2388 4750 2728 4690 
Q 3069 4631 3425 4513 
z
" transform="scale(0.015625)"/>
      </defs>
      <use xlink:href="#DejaVuSans-53"/>
      <use xlink:href="#DejaVuSans-74" x="63.476562"/>
      <use xlink:href="#DejaVuSans-61" x="102.685547"/>
      <use xlink:href="#DejaVuSans-72" x="163.964844"/>
      <use xlink:href="#DejaVuSans-74" x="205.078125"/>
     </g>
    </g>
    <g id="line2d_28">
     <path d="M 285.164531 105.154031 
L 300.164531 105.154031 
L 315.164531 105.154031 
" style="fill: none; stroke: #000000; stroke-width: 1.5; stroke-linecap: square"/>
     <g>
      <use xlink:href="#mae23258361" x="300.164531" y="105.154031" style="stroke: #000000; stroke-linejoin: miter"/>
     </g>
    </g>
    <g id="text_9">
     <!-- End -->
     <g transform="translate(327.164531 110.404031)scale(0.15 -0.15)">
      <defs>
       <path id="DejaVuSans-45" d="M 628 4666 
L 3578 4666 
L 3578 4134 
L 1259 4134 
L 1259 2753 
L 3481 2753 
L 3481 2222 
L 1259 2222 
L 1259 531 
L 3634 531 
L 3634 0 
L 628 0 
L 628 4666 
z
" transform="scale(0.015625)"/>
       <path id="DejaVuSans-6e" d="M 3513 2113 
L 3513 0 
L 2938 0 
L 2938 2094 
Q 2938 2591 2744 2837 
Q 2550 3084 2163 3084 
Q 1697 3084 1428 2787 
Q 1159 2491 1159 1978 
L 1159 0 
L 581 0 
L 581 3500 
L 1159 3500 
L 1159 2956 
Q 1366 3272 1645 3428 
Q 1925 3584 2291 3584 
Q 2894 3584 3203 3211 
Q 3513 2838 3513 2113 
z
" transform="scale(0.015625)"/>
       <path id="DejaVuSans-64" d="M 2906 2969 
L 2906 4863 
L 3481 4863 
L 3481 0 
L 2906 0 
L 2906 525 
Q 2725 213 2448 61 
Q 2172 -91 1784 -91 
Q 1150 -91 751 415 
Q 353 922 353 1747 
Q 353 2572 751 3078 
Q 1150 3584 1784 3584 
Q 2172 3584 2448 3432 
Q 2725 3281 2906 2969 
z
M 947 1747 
Q 947 1113 1208 752 
Q 1469 391 1925 391 
Q 2381 391 2643 752 
Q 2906 1113 2906 1747 
Q 2906 2381 2643 2742 
Q 2381 3103 1925 3103 
Q 1469 3103 1208 2742 
Q 947 2381 947 1747 
z
" transform="scale(0.015625)"/>
      </defs>
      <use xlink:href="#DejaVuSans-45"/>
      <use xlink:href="#DejaVuSans-6e" x="63.183594"/>
      <use xlink:href="#DejaVuSans-64" x="126.5625"/>
     </g>
    </g>
   </g>
  </g>
 </g>
 <defs>
  <clipPath id="p2740c276aa">
   <rect x="57.6" y="41.472" width="357.12" height="266.112"/>
  </clipPath>
 </defs>
</svg>
