<?xml version="1.0" encoding="utf-8" standalone="no"?>
<!DOCTYPE svg PUBLIC "-//W3C//DTD SVG 1.1//EN"
  "http://www.w3.org/Graphics/SVG/1.1/DTD/svg11.dtd">
<svg xmlns:xlink="http://www.w3.org/1999/xlink" width="460.8pt" height="345.6pt" viewBox="0 0 460.8 345.6" xmlns="http://www.w3.org/2000/svg" version="1.1">
 <metadata>
  <rdf:RDF xmlns:dc="http://purl.org/dc/elements/1.1/" xmlns:cc="http://creativecommons.org/ns#" xmlns:rdf="http://www.w3.org/1999/02/22-rdf-syntax-ns#">
   <cc:Work>
    <dc:type rdf:resource="http://purl.org/dc/dcmitype/StillImage"/>
    <dc:date>2024-02-14T16:35:47.166413</dc:date>
    <dc:format>image/svg+xml</dc:format>
    <dc:creator>
     <cc:Agent>
      <dc:title>Matplotlib v3.5.0, https://matplotlib.org/</dc:title>
     </cc:Agent>
    </dc:creator>
   </cc:Work>
  </rdf:RDF>
 </metadata>
 <defs>
  <style type="text/css">*{stroke-linejoin: round; stroke-linecap: butt}</style>
 </defs>
 <g id="figure_1">
  <g id="patch_1">
   <path d="M 0 345.6 
L 460.8 345.6 
L 460.8 0 
L 0 0 
z
" style="fill: #ffffff"/>
  </g>
  <g id="axes_1">
   <g id="patch_2">
    <path d="M 57.6 307.584 
L 414.72 307.584 
L 414.72 41.472 
L 57.6 41.472 
z
" style="fill: #ffffff"/>
   </g>
   <g id="matplotlib.axis_1">
    <g id="xtick_1">
     <g id="line2d_1">
      <defs>
       <path id="m63b5c90d0a" d="M 0 0 
L 0 3.5 
" style="stroke: #000000; stroke-width: 0.8"/>
      </defs>
      <g>
       <use xlink:href="#m63b5c90d0a" x="73.832727" y="307.584" style="stroke: #000000; stroke-width: 0.8"/>
      </g>
     </g>
     <g id="text_1">
      <!-- 0 -->
      <g transform="translate(67.470227 329.780875)scale(0.2 -0.2)">
       <defs>
        <path id="DejaVuSans-30" d="M 2034 4250 
Q 1547 4250 1301 3770 
Q 1056 3291 1056 2328 
Q 1056 1369 1301 889 
Q 1547 409 2034 409 
Q 2525 409 2770 889 
Q 3016 1369 3016 2328 
Q 3016 3291 2770 3770 
Q 2525 4250 2034 4250 
z
M 2034 4750 
Q 2819 4750 3233 4129 
Q 3647 3509 3647 2328 
Q 3647 1150 3233 529 
Q 2819 -91 2034 -91 
Q 1250 -91 836 529 
Q 422 1150 422 2328 
Q 422 3509 836 4129 
Q 1250 4750 2034 4750 
z
" transform="scale(0.015625)"/>
       </defs>
       <use xlink:href="#DejaVuSans-30"/>
      </g>
     </g>
    </g>
    <g id="xtick_2">
     <g id="line2d_2">
      <g>
       <use xlink:href="#m63b5c90d0a" x="399.962975" y="307.584" style="stroke: #000000; stroke-width: 0.8"/>
      </g>
     </g>
     <g id="text_2">
      <!-- 1 -->
      <g transform="translate(393.600475 329.780875)scale(0.2 -0.2)">
       <defs>
        <path id="DejaVuSans-31" d="M 794 531 
L 1825 531 
L 1825 4091 
L 703 3866 
L 703 4441 
L 1819 4666 
L 2450 4666 
L 2450 531 
L 3481 531 
L 3481 0 
L 794 0 
L 794 531 
z
" transform="scale(0.015625)"/>
       </defs>
       <use xlink:href="#DejaVuSans-31"/>
      </g>
     </g>
    </g>
    <g id="text_3">
     <!-- Normalised X position -->
     <g transform="translate(111.795937 353.137125)scale(0.2 -0.2)">
      <defs>
       <path id="DejaVuSans-Bold-4e" d="M 588 4666 
L 1931 4666 
L 3628 1466 
L 3628 4666 
L 4769 4666 
L 4769 0 
L 3425 0 
L 1728 3200 
L 1728 0 
L 588 0 
L 588 4666 
z
" transform="scale(0.015625)"/>
       <path id="DejaVuSans-Bold-6f" d="M 2203 2784 
Q 1831 2784 1636 2517 
Q 1441 2250 1441 1747 
Q 1441 1244 1636 976 
Q 1831 709 2203 709 
Q 2569 709 2762 976 
Q 2956 1244 2956 1747 
Q 2956 2250 2762 2517 
Q 2569 2784 2203 2784 
z
M 2203 3584 
Q 3106 3584 3614 3096 
Q 4122 2609 4122 1747 
Q 4122 884 3614 396 
Q 3106 -91 2203 -91 
Q 1297 -91 786 396 
Q 275 884 275 1747 
Q 275 2609 786 3096 
Q 1297 3584 2203 3584 
z
" transform="scale(0.015625)"/>
       <path id="DejaVuSans-Bold-72" d="M 3138 2547 
Q 2991 2616 2845 2648 
Q 2700 2681 2553 2681 
Q 2122 2681 1889 2404 
Q 1656 2128 1656 1613 
L 1656 0 
L 538 0 
L 538 3500 
L 1656 3500 
L 1656 2925 
Q 1872 3269 2151 3426 
Q 2431 3584 2822 3584 
Q 2878 3584 2943 3579 
Q 3009 3575 3134 3559 
L 3138 2547 
z
" transform="scale(0.015625)"/>
       <path id="DejaVuSans-Bold-6d" d="M 3781 2919 
Q 3994 3244 4286 3414 
Q 4578 3584 4928 3584 
Q 5531 3584 5847 3212 
Q 6163 2841 6163 2131 
L 6163 0 
L 5038 0 
L 5038 1825 
Q 5041 1866 5042 1909 
Q 5044 1953 5044 2034 
Q 5044 2406 4934 2573 
Q 4825 2741 4581 2741 
Q 4263 2741 4089 2478 
Q 3916 2216 3909 1719 
L 3909 0 
L 2784 0 
L 2784 1825 
Q 2784 2406 2684 2573 
Q 2584 2741 2328 2741 
Q 2006 2741 1831 2477 
Q 1656 2213 1656 1722 
L 1656 0 
L 531 0 
L 531 3500 
L 1656 3500 
L 1656 2988 
Q 1863 3284 2130 3434 
Q 2397 3584 2719 3584 
Q 3081 3584 3359 3409 
Q 3638 3234 3781 2919 
z
" transform="scale(0.015625)"/>
       <path id="DejaVuSans-Bold-61" d="M 2106 1575 
Q 1756 1575 1579 1456 
Q 1403 1338 1403 1106 
Q 1403 894 1545 773 
Q 1688 653 1941 653 
Q 2256 653 2472 879 
Q 2688 1106 2688 1447 
L 2688 1575 
L 2106 1575 
z
M 3816 1997 
L 3816 0 
L 2688 0 
L 2688 519 
Q 2463 200 2181 54 
Q 1900 -91 1497 -91 
Q 953 -91 614 226 
Q 275 544 275 1050 
Q 275 1666 698 1953 
Q 1122 2241 2028 2241 
L 2688 2241 
L 2688 2328 
Q 2688 2594 2478 2717 
Q 2269 2841 1825 2841 
Q 1466 2841 1156 2769 
Q 847 2697 581 2553 
L 581 3406 
Q 941 3494 1303 3539 
Q 1666 3584 2028 3584 
Q 2975 3584 3395 3211 
Q 3816 2838 3816 1997 
z
" transform="scale(0.015625)"/>
       <path id="DejaVuSans-Bold-6c" d="M 538 4863 
L 1656 4863 
L 1656 0 
L 538 0 
L 538 4863 
z
" transform="scale(0.015625)"/>
       <path id="DejaVuSans-Bold-69" d="M 538 3500 
L 1656 3500 
L 1656 0 
L 538 0 
L 538 3500 
z
M 538 4863 
L 1656 4863 
L 1656 3950 
L 538 3950 
L 538 4863 
z
" transform="scale(0.015625)"/>
       <path id="DejaVuSans-Bold-73" d="M 3272 3391 
L 3272 2541 
Q 2913 2691 2578 2766 
Q 2244 2841 1947 2841 
Q 1628 2841 1473 2761 
Q 1319 2681 1319 2516 
Q 1319 2381 1436 2309 
Q 1553 2238 1856 2203 
L 2053 2175 
Q 2913 2066 3209 1816 
Q 3506 1566 3506 1031 
Q 3506 472 3093 190 
Q 2681 -91 1863 -91 
Q 1516 -91 1145 -36 
Q 775 19 384 128 
L 384 978 
Q 719 816 1070 734 
Q 1422 653 1784 653 
Q 2113 653 2278 743 
Q 2444 834 2444 1013 
Q 2444 1163 2330 1236 
Q 2216 1309 1875 1350 
L 1678 1375 
Q 931 1469 631 1722 
Q 331 1975 331 2491 
Q 331 3047 712 3315 
Q 1094 3584 1881 3584 
Q 2191 3584 2531 3537 
Q 2872 3491 3272 3391 
z
" transform="scale(0.015625)"/>
       <path id="DejaVuSans-Bold-65" d="M 4031 1759 
L 4031 1441 
L 1416 1441 
Q 1456 1047 1700 850 
Q 1944 653 2381 653 
Q 2734 653 3104 758 
Q 3475 863 3866 1075 
L 3866 213 
Q 3469 63 3072 -14 
Q 2675 -91 2278 -91 
Q 1328 -91 801 392 
Q 275 875 275 1747 
Q 275 2603 792 3093 
Q 1309 3584 2216 3584 
Q 3041 3584 3536 3087 
Q 4031 2591 4031 1759 
z
M 2881 2131 
Q 2881 2450 2695 2645 
Q 2509 2841 2209 2841 
Q 1884 2841 1681 2658 
Q 1478 2475 1428 2131 
L 2881 2131 
z
" transform="scale(0.015625)"/>
       <path id="DejaVuSans-Bold-64" d="M 2919 2988 
L 2919 4863 
L 4044 4863 
L 4044 0 
L 2919 0 
L 2919 506 
Q 2688 197 2409 53 
Q 2131 -91 1766 -91 
Q 1119 -91 703 423 
Q 288 938 288 1747 
Q 288 2556 703 3070 
Q 1119 3584 1766 3584 
Q 2128 3584 2408 3439 
Q 2688 3294 2919 2988 
z
M 2181 722 
Q 2541 722 2730 984 
Q 2919 1247 2919 1747 
Q 2919 2247 2730 2509 
Q 2541 2772 2181 2772 
Q 1825 2772 1636 2509 
Q 1447 2247 1447 1747 
Q 1447 1247 1636 984 
Q 1825 722 2181 722 
z
" transform="scale(0.015625)"/>
       <path id="DejaVuSans-Bold-20" transform="scale(0.015625)"/>
       <path id="DejaVuSans-Bold-58" d="M 3188 2381 
L 4806 0 
L 3553 0 
L 2463 1594 
L 1381 0 
L 122 0 
L 1741 2381 
L 184 4666 
L 1441 4666 
L 2463 3163 
L 3481 4666 
L 4744 4666 
L 3188 2381 
z
" transform="scale(0.015625)"/>
       <path id="DejaVuSans-Bold-70" d="M 1656 506 
L 1656 -1331 
L 538 -1331 
L 538 3500 
L 1656 3500 
L 1656 2988 
Q 1888 3294 2169 3439 
Q 2450 3584 2816 3584 
Q 3463 3584 3878 3070 
Q 4294 2556 4294 1747 
Q 4294 938 3878 423 
Q 3463 -91 2816 -91 
Q 2450 -91 2169 54 
Q 1888 200 1656 506 
z
M 2400 2772 
Q 2041 2772 1848 2508 
Q 1656 2244 1656 1747 
Q 1656 1250 1848 986 
Q 2041 722 2400 722 
Q 2759 722 2948 984 
Q 3138 1247 3138 1747 
Q 3138 2247 2948 2509 
Q 2759 2772 2400 2772 
z
" transform="scale(0.015625)"/>
       <path id="DejaVuSans-Bold-74" d="M 1759 4494 
L 1759 3500 
L 2913 3500 
L 2913 2700 
L 1759 2700 
L 1759 1216 
Q 1759 972 1856 886 
Q 1953 800 2241 800 
L 2816 800 
L 2816 0 
L 1856 0 
Q 1194 0 917 276 
Q 641 553 641 1216 
L 641 2700 
L 84 2700 
L 84 3500 
L 641 3500 
L 641 4494 
L 1759 4494 
z
" transform="scale(0.015625)"/>
       <path id="DejaVuSans-Bold-6e" d="M 4056 2131 
L 4056 0 
L 2931 0 
L 2931 347 
L 2931 1631 
Q 2931 2084 2911 2256 
Q 2891 2428 2841 2509 
Q 2775 2619 2662 2680 
Q 2550 2741 2406 2741 
Q 2056 2741 1856 2470 
Q 1656 2200 1656 1722 
L 1656 0 
L 538 0 
L 538 3500 
L 1656 3500 
L 1656 2988 
Q 1909 3294 2193 3439 
Q 2478 3584 2822 3584 
Q 3428 3584 3742 3212 
Q 4056 2841 4056 2131 
z
" transform="scale(0.015625)"/>
      </defs>
      <use xlink:href="#DejaVuSans-Bold-4e"/>
      <use xlink:href="#DejaVuSans-Bold-6f" x="83.691406"/>
      <use xlink:href="#DejaVuSans-Bold-72" x="152.392578"/>
      <use xlink:href="#DejaVuSans-Bold-6d" x="201.708984"/>
      <use xlink:href="#DejaVuSans-Bold-61" x="305.908203"/>
      <use xlink:href="#DejaVuSans-Bold-6c" x="373.388672"/>
      <use xlink:href="#DejaVuSans-Bold-69" x="407.666016"/>
      <use xlink:href="#DejaVuSans-Bold-73" x="441.943359"/>
      <use xlink:href="#DejaVuSans-Bold-65" x="501.464844"/>
      <use xlink:href="#DejaVuSans-Bold-64" x="569.287109"/>
      <use xlink:href="#DejaVuSans-Bold-20" x="640.869141"/>
      <use xlink:href="#DejaVuSans-Bold-58" x="675.683594"/>
      <use xlink:href="#DejaVuSans-Bold-20" x="752.783203"/>
      <use xlink:href="#DejaVuSans-Bold-70" x="787.597656"/>
      <use xlink:href="#DejaVuSans-Bold-6f" x="859.179688"/>
      <use xlink:href="#DejaVuSans-Bold-73" x="927.880859"/>
      <use xlink:href="#DejaVuSans-Bold-69" x="987.402344"/>
      <use xlink:href="#DejaVuSans-Bold-74" x="1021.679688"/>
      <use xlink:href="#DejaVuSans-Bold-69" x="1069.482422"/>
      <use xlink:href="#DejaVuSans-Bold-6f" x="1103.759766"/>
      <use xlink:href="#DejaVuSans-Bold-6e" x="1172.460938"/>
     </g>
    </g>
   </g>
   <g id="matplotlib.axis_2">
    <g id="ytick_1">
     <g id="line2d_3">
      <defs>
       <path id="m556297981a" d="M 0 0 
L -3.5 0 
" style="stroke: #000000; stroke-width: 0.8"/>
      </defs>
      <g>
       <use xlink:href="#m556297981a" x="57.6" y="297" style="stroke: #000000; stroke-width: 0.8"/>
      </g>
     </g>
     <g id="text_4">
      <!-- 0 -->
      <g transform="translate(37.875 304.598437)scale(0.2 -0.2)">
       <use xlink:href="#DejaVuSans-30"/>
      </g>
     </g>
    </g>
    <g id="ytick_2">
     <g id="line2d_4">
      <g>
       <use xlink:href="#m556297981a" x="57.6" y="53.568" style="stroke: #000000; stroke-width: 0.8"/>
      </g>
     </g>
     <g id="text_5">
      <!-- 1 -->
      <g transform="translate(37.875 61.166438)scale(0.2 -0.2)">
       <use xlink:href="#DejaVuSans-31"/>
      </g>
     </g>
    </g>
    <g id="text_6">
     <!-- Normalised Y position -->
     <g transform="translate(29.715625 298.423313)rotate(-90)scale(0.2 -0.2)">
      <defs>
       <path id="DejaVuSans-Bold-59" d="M -63 4666 
L 1253 4666 
L 2316 3003 
L 3378 4666 
L 4697 4666 
L 2919 1966 
L 2919 0 
L 1716 0 
L 1716 1966 
L -63 4666 
z
" transform="scale(0.015625)"/>
      </defs>
      <use xlink:href="#DejaVuSans-Bold-4e"/>
      <use xlink:href="#DejaVuSans-Bold-6f" x="83.691406"/>
      <use xlink:href="#DejaVuSans-Bold-72" x="152.392578"/>
      <use xlink:href="#DejaVuSans-Bold-6d" x="201.708984"/>
      <use xlink:href="#DejaVuSans-Bold-61" x="305.908203"/>
      <use xlink:href="#DejaVuSans-Bold-6c" x="373.388672"/>
      <use xlink:href="#DejaVuSans-Bold-69" x="407.666016"/>
      <use xlink:href="#DejaVuSans-Bold-73" x="441.943359"/>
      <use xlink:href="#DejaVuSans-Bold-65" x="501.464844"/>
      <use xlink:href="#DejaVuSans-Bold-64" x="569.287109"/>
      <use xlink:href="#DejaVuSans-Bold-20" x="640.869141"/>
      <use xlink:href="#DejaVuSans-Bold-59" x="675.683594"/>
      <use xlink:href="#DejaVuSans-Bold-20" x="748.095703"/>
      <use xlink:href="#DejaVuSans-Bold-70" x="782.910156"/>
      <use xlink:href="#DejaVuSans-Bold-6f" x="854.492188"/>
      <use xlink:href="#DejaVuSans-Bold-73" x="923.193359"/>
      <use xlink:href="#DejaVuSans-Bold-69" x="982.714844"/>
      <use xlink:href="#DejaVuSans-Bold-74" x="1016.992188"/>
      <use xlink:href="#DejaVuSans-Bold-69" x="1064.794922"/>
      <use xlink:href="#DejaVuSans-Bold-6f" x="1099.072266"/>
      <use xlink:href="#DejaVuSans-Bold-6e" x="1167.773438"/>
     </g>
    </g>
   </g>
   <g id="line2d_5">
    <path d="M 73.832727 295.488 
L 79.145256 295.488 
L 73.832727 295.488 
L 75.898711 294.5808 
L 85.048066 292.7664 
L 89.770314 288.5328 
L 106.298182 280.6704 
L 122.82605 271.296 
L 135.22195 257.9904 
L 143.781025 252.2448 
L 154.996364 242.2656 
L 142.600463 240.1488 
L 147.322711 231.984 
L 152.63524 223.2144 
L 160.013752 213.84 
L 170.63881 202.9536 
L 192.184066 185.112 
L 224.944661 163.6416 
L 241.472529 153.0576 
L 266.559471 138.5424 
L 281.316496 129.168 
L 288.104727 124.0272 
L 283.087339 126.7488 
L 232.323174 155.1744 
L 225.239802 160.3152 
L 225.239802 162.1296 
L 226.420364 162.432 
L 228.191207 161.8272 
L 230.552331 160.6176 
L 231.437752 160.6176 
L 236.16 158.1984 
L 250.621884 149.7312 
L 265.96919 139.752 
L 268.625455 137.3328 
L 267.149752 137.3328 
L 259.77124 140.6592 
L 248.555901 146.7072 
L 233.208595 156.0816 
L 227.305785 160.3152 
L 228.486347 159.1056 
L 229.371769 157.896 
L 229.666909 156.9888 
L 229.371769 156.9888 
L 229.371769 156.9888 
L 227.010645 157.896 
L 221.993256 161.2224 
L 215.795306 165.1536 
L 209.597355 169.3872 
L 203.989686 173.6208 
L 201.628562 178.4592 
L 202.513983 179.064 
L 203.989686 179.6688 
L 206.055669 179.9712 
L 214.909884 177.8544 
L 220.517554 176.04 
L 227.896066 173.9232 
L 230.847471 172.7136 
L 231.437752 173.016 
L 231.437752 173.3184 
L 232.323174 173.016 
L 233.798876 172.1088 
L 234.979438 171.2016 
L 239.701686 168.1776 
L 242.653091 165.1536 
L 244.719074 163.6416 
L 247.080198 161.2224 
L 249.146182 159.408 
L 249.736463 158.5008 
L 252.392727 156.0816 
L 253.573289 155.4768 
L 251.802446 156.384 
L 256.819835 153.0576 
L 256.524694 153.0576 
L 255.934413 153.36 
L 256.524694 153.0576 
L 255.048992 154.5696 
L 253.86843 156.0816 
L 256.229554 154.872 
L 259.476099 153.36 
L 264.788628 150.6384 
L 270.396298 147.312 
L 270.101157 147.6144 
L 272.462281 146.1024 
L 275.708826 144.288 
L 280.726215 140.9616 
L 283.67762 138.8448 
L 289.285289 133.704 
L 291.941554 130.3776 
L 293.712397 127.9584 
L 294.302678 126.144 
L 295.48324 124.3296 
L 298.434645 121.9104 
L 302.566612 118.2816 
L 306.403438 115.56 
L 308.764562 113.7456 
L 313.48681 111.3264 
L 323.816727 105.8832 
L 321.750744 106.7904 
L 330.604959 101.0448 
L 335.032066 96.8112 
L 340.049455 93.7872 
L 341.525157 90.4608 
L 338.868893 93.7872 
L 335.622347 96.2064 
L 335.032066 97.416 
L 333.556364 99.2304 
L 334.736926 98.928 
L 337.09805 98.928 
L 337.39319 99.2304 
L 336.212628 101.0448 
L 334.736926 102.5568 
L 331.19524 105.8832 
L 328.834116 107.3952 
L 329.129256 107.6976 
L 329.424397 109.8144 
L 327.948694 112.8384 
L 326.177851 116.1648 
L 327.063273 117.072 
L 329.129256 117.9792 
L 329.424397 119.1888 
L 330.604959 119.4912 
L 333.261223 118.2816 
L 340.934876 114.9552 
L 343.59114 113.4432 
L 343.59114 112.8384 
L 345.066843 112.2336 
L 343.886281 113.4432 
L 342.410579 115.56 
L 342.115438 117.3744 
L 340.049455 120.7008 
L 337.983471 123.12 
L 332.375802 130.68 
L 330.604959 133.704 
L 329.129256 138.8448 
L 327.948694 143.9856 
L 324.997289 149.4288 
L 325.882711 152.4528 
L 321.455603 157.5936 
L 321.160463 160.3152 
L 321.455603 162.432 
L 320.275041 165.7584 
L 320.570182 168.48 
L 322.045884 171.504 
L 324.111868 174.8304 
L 328.538975 176.9472 
L 337.39319 175.7376 
L 354.806479 171.504 
L 354.806479 173.3184 
L 352.150215 175.7376 
L 348.903669 177.8544 
L 346.837686 179.3664 
L 343.296 181.1808 
L 341.820298 181.1808 
L 330.309818 187.2288 
L 294.597818 206.5824 
L 276.299107 217.1664 
L 266.854612 222.912 
L 275.413686 212.0256 
L 289.285289 208.0944 
L 331.49038 179.6688 
L 371.629488 161.8272 
L 398.487273 135.5184 
L 398.487273 123.4224 
L 398.487273 123.4224 
" clip-path="url(#p5e9bb22030)" style="fill: none; stroke: #000000; stroke-width: 1.5; stroke-linecap: square"/>
   </g>
   <g id="line2d_6">
    <path d="M 73.832727 295.488 
" clip-path="url(#p5e9bb22030)" style="fill: none; stroke: #000000; stroke-width: 1.5; stroke-linecap: square"/>
    <defs>
     <path id="me4bd126b7a" d="M 0 5 
C 1.326016 5 2.597899 4.473168 3.535534 3.535534 
C 4.473168 2.597899 5 1.326016 5 0 
C 5 -1.326016 4.473168 -2.597899 3.535534 -3.535534 
C 2.597899 -4.473168 1.326016 -5 0 -5 
C -1.326016 -5 -2.597899 -4.473168 -3.535534 -3.535534 
C -4.473168 -2.597899 -5 -1.326016 -5 0 
C -5 1.326016 -4.473168 2.597899 -3.535534 3.535534 
C -2.597899 4.473168 -1.326016 5 0 5 
z
" style="stroke: #000000"/>
    </defs>
    <g clip-path="url(#p5e9bb22030)">
     <use xlink:href="#me4bd126b7a" x="73.832727" y="295.488" style="stroke: #000000"/>
    </g>
   </g>
   <g id="line2d_7">
    <path d="M 398.487273 123.4224 
" clip-path="url(#p5e9bb22030)" style="fill: none; stroke: #000000; stroke-width: 1.5; stroke-linecap: square"/>
    <defs>
     <path id="mb6b8dc35aa" d="M -5 5 
L 5 5 
L 5 -5 
L -5 -5 
z
" style="stroke: #000000; stroke-linejoin: miter"/>
    </defs>
    <g clip-path="url(#p5e9bb22030)">
     <use xlink:href="#mb6b8dc35aa" x="398.487273" y="123.4224" style="stroke: #000000; stroke-linejoin: miter"/>
    </g>
   </g>
   <g id="line2d_8">
    <path d="M 191.888926 187.5312 
L 191.593785 187.8336 
L 189.527802 188.4384 
L 187.461818 189.0432 
L 187.166678 189.3456 
L 186.576397 189.648 
L 187.166678 189.3456 
L 190.708364 188.136 
L 190.708364 188.136 
L 190.708364 188.4384 
L 194.25005 187.5312 
L 197.201455 186.3216 
L 197.496595 186.624 
L 198.972298 185.7168 
L 200.15286 184.8096 
L 198.677157 184.5072 
L 196.316033 185.112 
L 196.316033 184.8096 
L 197.201455 184.2048 
L 205.465388 179.6688 
L 208.121653 177.552 
L 208.711934 176.04 
L 210.187636 174.2256 
L 213.729322 171.2016 
L 220.222413 166.3632 
L 228.486347 160.6176 
L 234.684298 155.4768 
L 245.309355 148.5216 
L 253.278149 142.4736 
L 252.687868 140.3568 
L 253.573289 137.3328 
L 255.934413 133.0992 
L 263.903207 127.3536 
L 268.035174 123.4224 
L 273.347702 119.1888 
L 274.823405 117.3744 
L 282.497058 112.8384 
L 294.892959 106.7904 
L 318.799339 96.2064 
L 343.59114 85.9248 
L 370.153785 75.0384 
L 388.452496 66.2688 
L 394.945587 59.0112 
L 397.306711 55.08 
L 397.896992 53.8704 
L 398.192132 53.568 
L 398.487273 53.568 
L 398.487273 53.568 
L 382.254545 55.9872 
L 357.462744 63.5472 
L 346.542545 65.664 
L 337.09805 67.7808 
L 326.472992 70.8048 
L 322.931306 72.6192 
L 327.063273 72.6192 
L 324.702149 75.3408 
L 325.58757 75.9456 
L 326.177851 77.1552 
L 327.358413 78.6672 
L 325.882711 80.4816 
L 323.816727 82.296 
L 324.111868 83.2032 
L 329.129256 82.9008 
L 342.705719 79.5744 
L 346.542545 79.272 
L 342.410579 82.5984 
L 338.868893 86.5296 
L 338.573752 86.5296 
L 335.622347 87.7392 
L 330.014678 90.1584 
L 319.979901 94.9968 
L 309.059702 99.8352 
L 303.747174 102.5568 
L 303.747174 103.464 
L 302.271471 105.2784 
L 304.042314 105.5808 
L 306.403438 106.7904 
L 306.403438 108.9072 
L 309.649983 110.7216 
L 312.306248 113.1408 
L 316.438215 114.9552 
L 318.504198 116.7696 
L 320.275041 118.584 
L 321.750744 120.3984 
L 322.931306 122.5152 
L 324.111868 124.9344 
L 325.58757 127.3536 
L 334.146645 130.68 
L 335.917488 133.0992 
L 338.278612 135.216 
L 344.181421 137.6352 
L 348.608529 138.24 
L 354.216198 140.6592 
L 360.709289 142.776 
L 360.414149 143.9856 
L 359.528727 145.1952 
L 358.348165 146.4048 
L 359.528727 147.312 
L 361.889851 147.312 
L 367.792661 146.1024 
L 368.973223 146.1024 
L 370.744066 145.4976 
L 371.334347 145.4976 
L 371.039207 145.8 
L 370.744066 146.4048 
L 370.744066 147.312 
L 369.858645 149.1264 
L 369.563504 150.0336 
L 368.678083 151.2432 
L 368.087802 152.4528 
L 366.90724 154.2672 
L 366.90724 155.1744 
L 368.087802 155.4768 
L 369.858645 155.4768 
L 372.219769 155.1744 
L 372.514909 156.384 
L 373.10519 157.2912 
L 373.695471 157.5936 
L 375.761455 159.408 
L 378.122579 161.2224 
L 381.369124 163.944 
L 386.681653 166.6656 
L 390.518479 170.2944 
L 392.289322 174.528 
L 392.584463 179.3664 
L 390.223339 183.9024 
L 390.223339 183.9024 
" clip-path="url(#p5e9bb22030)" style="fill: none; stroke: #ffa07a; stroke-width: 1.5; stroke-linecap: square"/>
   </g>
   <g id="line2d_9">
    <path d="M 191.888926 187.5312 
" clip-path="url(#p5e9bb22030)" style="fill: none; stroke: #ffa07a; stroke-width: 1.5; stroke-linecap: square"/>
    <defs>
     <path id="mcdb135401c" d="M 0 5 
C 1.326016 5 2.597899 4.473168 3.535534 3.535534 
C 4.473168 2.597899 5 1.326016 5 0 
C 5 -1.326016 4.473168 -2.597899 3.535534 -3.535534 
C 2.597899 -4.473168 1.326016 -5 0 -5 
C -1.326016 -5 -2.597899 -4.473168 -3.535534 -3.535534 
C -4.473168 -2.597899 -5 -1.326016 -5 0 
C -5 1.326016 -4.473168 2.597899 -3.535534 3.535534 
C -2.597899 4.473168 -1.326016 5 0 5 
z
" style="stroke: #ffa07a"/>
    </defs>
    <g clip-path="url(#p5e9bb22030)">
     <use xlink:href="#mcdb135401c" x="191.888926" y="187.5312" style="fill: #ffa07a; stroke: #ffa07a"/>
    </g>
   </g>
   <g id="line2d_10">
    <path d="M 390.223339 183.9024 
" clip-path="url(#p5e9bb22030)" style="fill: none; stroke: #ffa07a; stroke-width: 1.5; stroke-linecap: square"/>
    <defs>
     <path id="m66a9b5467d" d="M -5 5 
L 5 5 
L 5 -5 
L -5 -5 
z
" style="stroke: #ffa07a; stroke-linejoin: miter"/>
    </defs>
    <g clip-path="url(#p5e9bb22030)">
     <use xlink:href="#m66a9b5467d" x="390.223339" y="183.9024" style="fill: #ffa07a; stroke: #ffa07a; stroke-linejoin: miter"/>
    </g>
   </g>
   <g id="line2d_11">
    <path d="M 358.348165 176.04 
L 357.757884 176.04 
L 356.577322 176.3424 
L 355.987041 176.3424 
L 353.330777 176.9472 
L 353.035636 176.6448 
L 353.035636 176.6448 
L 353.625917 176.04 
L 353.921058 175.4352 
L 354.511339 175.1328 
L 353.921058 174.528 
L 353.035636 174.2256 
L 352.445355 173.6208 
L 351.559934 173.016 
L 352.150215 172.7136 
L 352.445355 172.1088 
L 352.150215 171.504 
L 350.379372 169.6896 
L 347.723107 169.0848 
L 345.657124 168.48 
L 345.066843 167.8752 
L 342.410579 166.3632 
L 340.049455 165.1536 
L 339.459174 163.944 
L 335.622347 162.432 
L 333.851504 161.2224 
L 332.966083 158.1984 
L 333.556364 155.7792 
L 333.851504 153.6624 
L 334.736926 151.5456 
L 338.573752 145.8 
L 346.247405 137.0304 
L 349.789091 134.0064 
L 351.264793 131.8896 
L 352.740496 129.4704 
L 354.216198 126.7488 
L 357.757884 121.9104 
L 360.119008 117.6768 
L 361.889851 115.56 
L 364.250975 114.048 
L 372.514909 108.3024 
L 375.466314 105.8832 
L 378.71286 103.7664 
L 382.844826 101.3472 
L 388.452496 98.3232 
L 391.10876 96.2064 
L 391.10876 94.0896 
L 391.699041 91.368 
L 391.403901 90.7632 
L 390.81362 90.1584 
L 386.386512 91.368 
L 384.320529 92.2752 
L 382.549686 93.1824 
L 383.730248 92.5776 
L 386.091372 91.9728 
L 387.862215 91.368 
L 384.320529 93.7872 
L 383.139967 95.2992 
L 384.91081 94.6944 
L 383.730248 95.2992 
L 386.091372 94.392 
L 385.501091 94.6944 
L 383.435107 95.904 
L 383.435107 96.5088 
L 380.188562 98.928 
L 378.417719 100.44 
L 374.285752 103.7664 
L 369.268364 107.0928 
L 365.431537 110.1168 
L 353.035636 117.6768 
L 348.903669 120.3984 
L 348.018248 120.7008 
L 348.018248 121.0032 
L 348.608529 121.3056 
L 350.084231 121.0032 
L 351.855074 121.0032 
L 353.921058 120.3984 
L 357.167603 119.7936 
L 363.070413 117.9792 
L 371.334347 114.9552 
L 379.598281 112.2336 
L 388.157355 109.2096 
L 394.650446 105.8832 
L 396.71643 105.8832 
L 398.192132 100.44 
L 398.487273 98.928 
L 398.487273 63.5472 
L 398.487273 91.6704 
L 395.240727 93.7872 
L 390.81362 94.9968 
L 386.091372 96.5088 
L 381.664264 98.3232 
L 378.417719 99.5328 
L 376.646876 100.44 
L 371.039207 104.0688 
L 366.316959 106.488 
L 363.365554 108.9072 
L 359.823868 111.3264 
L 352.445355 116.7696 
L 349.19881 119.4912 
L 346.542545 122.2128 
L 338.573752 127.9584 
L 327.358413 134.0064 
L 322.931306 137.3328 
L 323.226446 138.24 
L 326.472992 137.6352 
L 335.032066 135.8208 
L 338.278612 137.6352 
L 333.261223 142.4736 
L 325.58757 148.2192 
L 318.209058 153.9648 
L 312.011107 158.5008 
L 306.403438 163.944 
L 297.549223 174.2256 
L 293.712397 179.064 
L 288.695008 184.5072 
L 276.594248 194.7888 
L 270.986579 199.6272 
L 265.96919 203.5584 
L 261.837223 207.1872 
L 258.295537 210.816 
L 247.670479 217.4688 
L 243.243372 220.4928 
L 239.701686 222.6096 
L 230.847471 226.8432 
L 223.468959 232.5888 
L 222.583537 233.496 
L 217.271008 237.1248 
L 217.271008 238.9392 
L 216.975868 241.056 
L 216.680727 241.9632 
L 214.614744 244.3824 
L 212.54876 246.4992 
L 211.958479 248.3136 
L 209.007074 250.4304 
L 207.531372 251.64 
L 206.35081 252.2448 
L 201.923702 253.7568 
L 198.972298 254.0592 
L 197.201455 254.0592 
L 192.184066 253.152 
L 190.118083 251.3376 
L 188.937521 250.128 
L 182.44443 249.2208 
L 178.017322 248.9184 
L 172.999934 250.128 
L 168.572826 253.152 
L 165.326281 254.9664 
L 161.489455 254.3616 
L 161.194314 255.8736 
L 161.489455 256.4784 
L 161.784595 256.7808 
L 161.784595 257.0832 
L 162.670017 257.0832 
L 162.965157 257.688 
L 162.965157 257.9904 
L 158.83319 259.8048 
L 155.291504 259.2 
L 156.176926 259.2 
L 158.242909 258.5952 
L 161.194314 257.9904 
L 164.736 257.0832 
L 163.850579 257.3856 
L 152.340099 260.4096 
L 156.767207 257.3856 
L 158.53805 256.4784 
L 142.895603 261.0144 
L 135.22195 262.5264 
L 141.419901 258.5952 
L 140.82962 258.5952 
L 140.239339 258.8976 
L 140.239339 259.2 
L 140.239339 259.2 
L 140.82962 259.5024 
L 142.305322 258.8976 
L 143.485884 259.2 
L 146.437289 258.8976 
L 152.044959 257.0832 
L 154.701223 255.8736 
L 157.947769 254.664 
L 162.374876 252.5472 
L 168.867967 250.7328 
L 171.819372 249.5232 
L 175.065917 248.3136 
L 178.607603 246.8016 
L 187.461818 242.568 
L 192.184066 239.8464 
L 197.496595 237.1248 
L 201.923702 234.7056 
L 205.760529 233.496 
L 211.663339 230.7744 
L 217.566149 228.96 
L 235.86486 220.1904 
L 243.833653 214.7472 
L 255.344132 207.1872 
L 260.656661 202.0464 
L 262.722645 199.6272 
L 264.493488 198.4176 
L 264.788628 198.4176 
L 268.035174 196.6032 
L 270.986579 194.4864 
L 278.660231 189.648 
L 280.726215 188.7408 
L 285.448463 185.7168 
L 287.514446 184.8096 
L 289.58043 183.6 
L 293.712397 181.1808 
L 295.77838 179.6688 
L 299.615207 176.9472 
L 304.927736 174.8304 
L 303.156893 175.4352 
L 290.465851 185.112 
L 293.417256 185.4144 
L 301.38605 183.6 
L 308.174281 180.8784 
L 309.354843 181.7856 
L 316.733355 180.8784 
L 319.979901 180.2736 
L 329.424397 176.9472 
L 330.900099 176.9472 
L 336.212628 175.1328 
L 334.146645 175.4352 
L 334.441785 174.528 
L 337.983471 172.4112 
L 340.639736 171.2016 
L 340.344595 169.992 
L 345.066843 166.968 
L 345.657124 166.968 
L 348.313388 166.0608 
L 352.445355 164.8512 
L 340.934876 167.5728 
L 348.018248 163.3392 
L 359.233587 158.5008 
L 373.695471 153.0576 
L 378.122579 151.848 
L 379.598281 150.336 
L 381.664264 149.1264 
L 383.435107 148.2192 
L 385.796231 147.312 
L 389.337917 145.8 
L 388.157355 146.4048 
L 388.747636 145.8 
L 388.157355 145.4976 
L 387.862215 145.1952 
L 376.351736 148.5216 
L 375.466314 148.5216 
L 371.039207 150.0336 
L 370.153785 150.0336 
L 364.546116 151.848 
L 365.431537 150.336 
L 361.594711 151.5456 
L 362.184992 150.6384 
L 359.823868 151.2432 
L 360.709289 150.6384 
L 359.823868 150.9408 
L 356.872463 152.7552 
L 352.740496 154.5696 
L 348.903669 157.2912 
L 343.886281 159.7104 
L 340.934876 162.1296 
L 335.327207 167.2704 
L 332.080661 169.6896 
L 330.604959 171.504 
L 327.063273 173.6208 
L 326.472992 174.8304 
L 324.702149 176.3424 
L 322.636165 177.552 
L 317.618777 180.8784 
L 315.847934 182.6928 
L 313.191669 184.5072 
L 308.174281 188.4384 
L 305.222876 190.8576 
L 301.68119 193.5792 
L 298.729785 196.3008 
L 296.368661 199.0224 
L 294.892959 201.744 
L 293.122116 204.1632 
L 291.646413 206.5824 
L 291.056132 207.792 
L 291.646413 208.0944 
L 295.48324 207.1872 
L 296.958942 206.28 
L 296.663802 206.5824 
L 299.910347 204.768 
L 298.729785 202.9536 
L 298.139504 202.6512 
L 295.77838 202.9536 
L 292.531835 204.4656 
L 289.87557 205.9776 
L 288.104727 207.1872 
L 282.201917 209.6064 
L 280.726215 210.5136 
L 278.660231 211.4208 
L 278.06995 211.1184 
L 277.479669 209.9088 
L 281.021355 209.304 
L 281.906777 207.4896 
L 278.06995 209.6064 
L 278.365091 210.5136 
L 276.003967 209.9088 
L 275.708826 209.0016 
L 271.872 209.0016 
L 267.149752 210.2112 
L 264.198347 211.1184 
L 255.639273 215.6544 
L 238.521124 216.864 
L 233.503736 216.864 
L 231.732893 216.5616 
L 229.96205 216.5616 
L 227.305785 215.6544 
L 225.830083 214.1424 
L 223.173818 212.328 
L 217.566149 207.792 
L 213.729322 205.3728 
L 209.302215 202.0464 
L 205.170248 198.4176 
L 200.15286 194.7888 
L 196.020893 190.5552 
L 190.413223 187.2288 
L 185.100694 183.9024 
L 179.788165 180.2736 
L 169.753388 175.1328 
L 165.326281 172.4112 
L 162.965157 168.7824 
L 159.718612 165.456 
L 156.176926 162.432 
L 152.044959 159.7104 
L 147.912992 157.5936 
L 142.305322 153.36 
L 142.600463 150.6384 
L 141.715041 148.2192 
L 142.305322 143.9856 
L 142.305322 143.0784 
L 142.010182 142.4736 
L 142.010182 142.1712 
L 142.305322 142.1712 
L 143.190744 141.8688 
L 144.076165 141.8688 
L 144.961587 142.1712 
L 145.551868 142.776 
L 145.847008 143.6832 
L 146.73243 144.5904 
L 147.912992 145.4976 
L 148.208132 147.0096 
L 148.208132 148.824 
L 147.322711 150.9408 
L 148.208132 152.4528 
L 150.274116 153.6624 
L 150.274116 157.5936 
L 150.569256 159.7104 
L 150.274116 162.1296 
L 151.454678 163.944 
L 152.63524 166.3632 
L 150.569256 173.3184 
L 152.63524 173.9232 
L 154.996364 174.8304 
L 160.899174 178.7616 
L 160.899174 178.7616 
" clip-path="url(#p5e9bb22030)" style="fill: none; stroke: #0000ff; stroke-width: 1.5; stroke-linecap: square"/>
   </g>
   <g id="line2d_12">
    <path d="M 358.348165 176.04 
" clip-path="url(#p5e9bb22030)" style="fill: none; stroke: #0000ff; stroke-width: 1.5; stroke-linecap: square"/>
    <defs>
     <path id="mdbf194fab8" d="M 0 5 
C 1.326016 5 2.597899 4.473168 3.535534 3.535534 
C 4.473168 2.597899 5 1.326016 5 0 
C 5 -1.326016 4.473168 -2.597899 3.535534 -3.535534 
C 2.597899 -4.473168 1.326016 -5 0 -5 
C -1.326016 -5 -2.597899 -4.473168 -3.535534 -3.535534 
C -4.473168 -2.597899 -5 -1.326016 -5 0 
C -5 1.326016 -4.473168 2.597899 -3.535534 3.535534 
C -2.597899 4.473168 -1.326016 5 0 5 
z
" style="stroke: #0000ff"/>
    </defs>
    <g clip-path="url(#p5e9bb22030)">
     <use xlink:href="#mdbf194fab8" x="358.348165" y="176.04" style="fill: #0000ff; stroke: #0000ff"/>
    </g>
   </g>
   <g id="line2d_13">
    <path d="M 160.899174 178.7616 
" clip-path="url(#p5e9bb22030)" style="fill: none; stroke: #0000ff; stroke-width: 1.5; stroke-linecap: square"/>
    <defs>
     <path id="m6290e28b11" d="M -5 5 
L 5 5 
L 5 -5 
L -5 -5 
z
" style="stroke: #0000ff; stroke-linejoin: miter"/>
    </defs>
    <g clip-path="url(#p5e9bb22030)">
     <use xlink:href="#m6290e28b11" x="160.899174" y="178.7616" style="fill: #0000ff; stroke: #0000ff; stroke-linejoin: miter"/>
    </g>
   </g>
   <g id="line2d_14">
    <path d="M 160.604033 199.9296 
L 158.53805 200.8368 
L 157.062347 201.744 
L 155.291504 202.6512 
L 153.225521 204.1632 
L 152.340099 204.768 
L 151.159537 205.9776 
L 150.274116 206.28 
L 150.274116 206.5824 
L 150.274116 205.9776 
L 150.569256 205.3728 
L 148.208132 204.4656 
L 146.73243 203.5584 
L 142.305322 202.9536 
L 141.12476 202.9536 
L 139.944198 203.256 
L 138.468496 204.1632 
L 137.287934 205.0704 
L 135.22195 207.792 
L 134.336529 209.304 
L 133.746248 210.816 
L 132.565686 212.6304 
L 131.975405 214.1424 
L 130.499702 217.1664 
L 130.499702 218.0736 
L 129.909421 219.888 
L 128.72886 221.0976 
L 127.253157 222.3072 
L 126.072595 223.5168 
L 125.187174 224.7264 
L 124.006612 225.936 
L 122.82605 227.448 
L 121.940628 228.3552 
L 119.874645 231.984 
L 120.169785 234.1008 
L 118.989223 237.7296 
L 119.579504 240.1488 
L 119.284364 243.1728 
L 120.464926 245.2896 
L 121.055207 247.104 
L 121.940628 248.616 
L 121.055207 250.4304 
L 121.055207 251.64 
L 124.006612 251.64 
L 122.530909 252.5472 
L 121.940628 253.152 
L 121.645488 253.7568 
L 122.235769 253.7568 
L 122.235769 254.0592 
L 123.12119 254.0592 
L 124.301752 253.7568 
L 125.777455 253.4544 
L 126.367736 253.152 
L 129.614281 251.9424 
L 131.385124 251.64 
L 131.680264 251.9424 
L 131.975405 252.5472 
L 132.860826 253.4544 
L 134.631669 254.3616 
L 136.697653 254.9664 
L 139.058777 255.8736 
L 141.715041 256.176 
L 141.715041 256.176 
L 144.961587 256.176 
L 150.864397 254.664 
L 158.53805 248.9184 
L 160.604033 242.568 
L 160.899174 239.8464 
L 160.604033 238.032 
L 160.013752 236.8224 
L 158.242909 236.8224 
L 156.767207 236.52 
L 151.159537 236.52 
L 146.73243 237.7296 
L 145.256727 238.032 
L 144.371306 237.1248 
L 142.305322 235.6128 
L 140.82962 232.8912 
L 140.239339 228.96 
L 139.944198 225.0288 
L 141.419901 221.0976 
L 144.666446 218.6784 
L 146.73243 217.7712 
L 147.322711 218.0736 
L 147.322711 218.6784 
L 147.02757 218.9808 
L 147.912992 218.376 
L 148.798413 216.864 
L 148.503273 215.9568 
L 147.322711 215.0496 
L 146.437289 214.1424 
L 144.666446 212.9328 
L 144.666446 212.9328 
L 145.256727 212.6304 
L 145.847008 212.6304 
L 147.617851 212.328 
L 154.701223 208.3968 
L 156.767207 211.4208 
L 157.357488 212.9328 
L 159.128331 215.9568 
L 159.718612 217.4688 
L 160.899174 218.6784 
L 161.489455 220.1904 
L 162.965157 221.0976 
L 163.555438 222.6096 
L 165.326281 223.2144 
L 170.048529 223.2144 
L 174.475636 222.6096 
L 177.722182 222.6096 
L 185.986116 221.7024 
L 190.413223 220.4928 
L 197.791736 217.4688 
L 201.923702 215.352 
L 203.399405 214.4448 
L 205.760529 213.5376 
L 208.416793 212.328 
L 216.975868 209.304 
L 218.746711 209.0016 
L 224.944661 206.28 
L 223.468959 206.8848 
L 225.239802 205.9776 
L 232.028033 202.9536 
L 236.45514 201.1392 
L 241.177388 199.0224 
L 246.194777 196.6032 
L 250.326744 194.4864 
L 267.149752 186.9264 
L 270.396298 186.0192 
L 279.545653 182.9952 
L 282.792198 182.3904 
L 287.514446 181.7856 
L 290.170711 181.7856 
L 292.531835 182.3904 
L 294.302678 182.9952 
L 301.38605 183.9024 
L 304.927736 183.9024 
L 311.125686 181.4832 
L 315.552793 180.576 
L 319.38962 180.2736 
L 320.570182 182.088 
L 320.275041 182.9952 
L 323.816727 182.088 
L 329.129256 180.576 
L 333.851504 179.3664 
L 335.917488 178.4592 
L 333.851504 178.7616 
L 333.261223 179.6688 
L 332.375802 179.9712 
L 331.49038 179.9712 
L 330.604959 179.6688 
L 330.014678 179.064 
L 329.719537 178.4592 
L 329.719537 177.552 
L 329.424397 176.9472 
L 328.538975 176.3424 
L 328.538975 173.016 
L 327.653554 173.3184 
L 326.768132 170.5968 
L 324.407008 171.2016 
L 323.816727 170.5968 
L 324.997289 168.7824 
L 323.816727 169.3872 
L 326.177851 166.3632 
L 324.997289 167.2704 
L 325.58757 166.6656 
L 325.29243 167.2704 
L 325.882711 166.3632 
L 327.063273 164.8512 
L 325.882711 166.0608 
L 327.653554 163.944 
L 327.948694 163.944 
L 330.014678 163.0368 
L 332.670942 161.5248 
L 336.212628 157.896 
L 337.688331 157.5936 
L 340.639736 156.384 
L 344.181421 154.5696 
L 348.018248 151.2432 
L 352.740496 149.1264 
L 355.987041 148.5216 
L 361.594711 145.4976 
L 366.021818 142.4736 
L 365.431537 143.6832 
L 368.678083 140.9616 
L 373.400331 138.24 
L 373.10519 138.8448 
L 376.646876 136.4256 
L 381.073983 134.0064 
L 379.893421 135.216 
L 382.254545 133.704 
L 383.435107 132.4944 
L 381.959405 133.0992 
L 381.664264 133.704 
L 379.008 135.5184 
L 374.285752 137.9376 
L 363.070413 143.0784 
L 360.709289 143.9856 
L 358.348165 145.1952 
L 355.691901 146.7072 
L 353.035636 147.9168 
L 352.150215 148.5216 
L 345.066843 151.5456 
L 343.00086 152.1504 
L 340.639736 153.36 
L 337.983471 154.5696 
L 341.230017 154.872 
L 339.754314 155.7792 
L 340.639736 156.9888 
L 337.688331 159.1056 
L 336.802909 160.6176 
L 335.032066 162.7344 
L 333.261223 164.5488 
L 332.080661 166.6656 
L 330.309818 168.7824 
L 329.719537 172.1088 
L 334.146645 172.7136 
L 336.212628 173.6208 
L 336.507769 175.1328 
L 336.507769 176.3424 
L 337.983471 176.9472 
L 337.09805 178.1568 
L 332.966083 179.9712 
L 334.146645 180.8784 
L 333.851504 181.7856 
L 332.375802 183.2976 
L 330.014678 185.4144 
L 328.834116 187.2288 
L 326.768132 189.3456 
L 326.177851 190.8576 
L 324.997289 192.0672 
L 324.702149 192.9744 
L 324.997289 193.5792 
L 325.58757 194.4864 
L 326.177851 195.9984 
L 329.129256 195.696 
L 329.424397 196.9056 
L 328.243835 198.72 
L 327.063273 200.232 
L 327.653554 201.1392 
L 328.243835 201.4416 
L 330.604959 201.4416 
L 330.014678 201.744 
L 323.226446 205.9776 
L 319.38962 207.792 
L 321.455603 208.3968 
L 318.209058 210.2112 
L 318.209058 210.2112 
" clip-path="url(#p5e9bb22030)" style="fill: none; stroke: #00fa9a; stroke-width: 1.5; stroke-linecap: square"/>
   </g>
   <g id="line2d_15">
    <path d="M 160.604033 199.9296 
" clip-path="url(#p5e9bb22030)" style="fill: none; stroke: #00fa9a; stroke-width: 1.5; stroke-linecap: square"/>
    <defs>
     <path id="mea79b00d0d" d="M 0 5 
C 1.326016 5 2.597899 4.473168 3.535534 3.535534 
C 4.473168 2.597899 5 1.326016 5 0 
C 5 -1.326016 4.473168 -2.597899 3.535534 -3.535534 
C 2.597899 -4.473168 1.326016 -5 0 -5 
C -1.326016 -5 -2.597899 -4.473168 -3.535534 -3.535534 
C -4.473168 -2.597899 -5 -1.326016 -5 0 
C -5 1.326016 -4.473168 2.597899 -3.535534 3.535534 
C -2.597899 4.473168 -1.326016 5 0 5 
z
" style="stroke: #00fa9a"/>
    </defs>
    <g clip-path="url(#p5e9bb22030)">
     <use xlink:href="#mea79b00d0d" x="160.604033" y="199.9296" style="fill: #00fa9a; stroke: #00fa9a"/>
    </g>
   </g>
   <g id="line2d_16">
    <path d="M 318.209058 210.2112 
" clip-path="url(#p5e9bb22030)" style="fill: none; stroke: #00fa9a; stroke-width: 1.5; stroke-linecap: square"/>
    <defs>
     <path id="mfe1f4c71ee" d="M -5 5 
L 5 5 
L 5 -5 
L -5 -5 
z
" style="stroke: #00fa9a; stroke-linejoin: miter"/>
    </defs>
    <g clip-path="url(#p5e9bb22030)">
     <use xlink:href="#mfe1f4c71ee" x="318.209058" y="210.2112" style="fill: #00fa9a; stroke: #00fa9a; stroke-linejoin: miter"/>
    </g>
   </g>
   <g id="line2d_17">
    <path d="M 340.639736 136.4256 
L 342.705719 136.1232 
L 347.427967 134.3088 
L 351.559934 132.192 
L 355.39676 130.0752 
L 358.348165 127.9584 
L 358.053025 126.7488 
L 355.10162 126.4464 
L 349.19881 125.5392 
L 345.952264 125.5392 
L 343.296 125.8416 
L 342.410579 126.4464 
L 340.049455 127.3536 
L 338.868893 128.2608 
L 337.983471 128.5632 
L 336.802909 128.5632 
L 336.212628 128.2608 
L 336.507769 127.9584 
L 337.39319 127.3536 
L 338.868893 126.144 
L 341.820298 124.632 
L 344.476562 122.8176 
L 345.066843 122.2128 
L 344.771702 121.9104 
L 340.049455 122.5152 
L 339.754314 122.5152 
L 321.455603 129.7728 
L 309.649983 134.9136 
L 296.073521 140.3568 
L 275.708826 148.824 
L 273.052562 150.336 
L 273.937983 150.0336 
L 276.299107 149.4288 
L 280.726215 147.6144 
L 285.448463 146.1024 
L 291.646413 143.9856 
L 298.139504 142.1712 
L 304.042314 140.3568 
L 306.108298 140.0544 
L 305.813157 140.9616 
L 299.024926 144.8928 
L 288.990149 149.7312 
L 276.299107 155.4768 
L 255.934413 164.8512 
L 214.909884 183.6 
L 173.590215 202.3488 
L 139.649058 218.6784 
L 129.31914 224.1216 
L 116.628099 232.2864 
L 110.135008 235.6128 
L 101.575934 239.544 
L 93.312 242.568 
L 89.180033 243.7776 
L 88.294612 243.1728 
L 84.457785 244.08 
L 77.669554 247.7088 
L 75.30843 251.64 
L 74.423008 252.8496 
L 74.127868 251.0352 
L 75.013289 248.616 
L 81.50638 246.4992 
L 79.440397 248.616 
L 93.60714 244.08 
L 125.482314 227.7504 
L 125.777455 226.2384 
L 123.12119 228.0528 
L 130.794843 225.0288 
L 149.978975 216.2592 
L 160.604033 211.4208 
L 174.180496 205.3728 
L 180.378446 201.744 
L 190.118083 197.5104 
L 195.430612 195.3936 
L 196.906314 195.3936 
L 200.15286 194.4864 
L 202.809124 193.5792 
L 212.843901 188.4384 
L 213.729322 188.4384 
L 213.139041 188.7408 
L 212.843901 189.648 
L 211.663339 190.8576 
L 210.482777 192.3696 
L 209.597355 193.8816 
L 208.121653 195.9984 
L 210.777917 195.9984 
L 217.271008 193.5792 
L 219.927273 192.0672 
L 217.861289 192.9744 
L 214.614744 194.7888 
L 207.236231 199.6272 
L 176.54162 214.4448 
L 160.899174 226.8432 
L 156.176926 229.5648 
L 148.503273 231.984 
L 131.089983 238.9392 
L 118.989223 247.104 
L 107.183603 254.0592 
L 100.690512 257.0832 
L 95.673124 259.8048 
L 92.131438 261.9216 
L 94.492562 261.3168 
L 87.704331 262.5264 
L 85.638347 262.8288 
L 88.294612 261.0144 
L 90.655736 260.1072 
L 96.263405 258.2928 
L 99.21481 257.688 
L 102.461355 256.7808 
L 106.298182 255.8736 
L 113.971835 252.8496 
L 119.874645 250.128 
L 125.777455 247.104 
L 130.499702 244.9872 
L 133.155967 244.3824 
L 133.155967 245.592 
L 133.155967 245.592 
" clip-path="url(#p5e9bb22030)" style="fill: none; stroke: #008000; stroke-width: 1.5; stroke-linecap: square"/>
   </g>
   <g id="line2d_18">
    <path d="M 340.639736 136.4256 
" clip-path="url(#p5e9bb22030)" style="fill: none; stroke: #008000; stroke-width: 1.5; stroke-linecap: square"/>
    <defs>
     <path id="m826fe5529f" d="M 0 5 
C 1.326016 5 2.597899 4.473168 3.535534 3.535534 
C 4.473168 2.597899 5 1.326016 5 0 
C 5 -1.326016 4.473168 -2.597899 3.535534 -3.535534 
C 2.597899 -4.473168 1.326016 -5 0 -5 
C -1.326016 -5 -2.597899 -4.473168 -3.535534 -3.535534 
C -4.473168 -2.597899 -5 -1.326016 -5 0 
C -5 1.326016 -4.473168 2.597899 -3.535534 3.535534 
C -2.597899 4.473168 -1.326016 5 0 5 
z
" style="stroke: #008000"/>
    </defs>
    <g clip-path="url(#p5e9bb22030)">
     <use xlink:href="#m826fe5529f" x="340.639736" y="136.4256" style="fill: #008000; stroke: #008000"/>
    </g>
   </g>
   <g id="line2d_19">
    <path d="M 133.155967 245.592 
" clip-path="url(#p5e9bb22030)" style="fill: none; stroke: #008000; stroke-width: 1.5; stroke-linecap: square"/>
    <defs>
     <path id="m2df94184b8" d="M -5 5 
L 5 5 
L 5 -5 
L -5 -5 
z
" style="stroke: #008000; stroke-linejoin: miter"/>
    </defs>
    <g clip-path="url(#p5e9bb22030)">
     <use xlink:href="#m2df94184b8" x="133.155967" y="245.592" style="fill: #008000; stroke: #008000; stroke-linejoin: miter"/>
    </g>
   </g>
   <g id="patch_3">
    <path d="M 57.6 307.584 
L 57.6 41.472 
" style="fill: none; stroke: #000000; stroke-width: 0.8; stroke-linejoin: miter; stroke-linecap: square"/>
   </g>
   <g id="patch_4">
    <path d="M 57.6 307.584 
L 414.72 307.584 
" style="fill: none; stroke: #000000; stroke-width: 0.8; stroke-linejoin: miter; stroke-linecap: square"/>
   </g>
   <g id="legend_1">
    <g id="patch_5">
     <path d="M 282.164531 119.523563 
L 404.22 119.523563 
Q 407.22 119.523563 407.22 116.523563 
L 407.22 51.972 
Q 407.22 48.972 404.22 48.972 
L 282.164531 48.972 
Q 279.164531 48.972 279.164531 51.972 
L 279.164531 116.523563 
Q 279.164531 119.523563 282.164531 119.523563 
z
" style="fill: #ffffff; opacity: 0.8; stroke: #cccccc; stroke-linejoin: miter"/>
    </g>
    <g id="line2d_20">
     <path d="M 285.164531 61.119656 
L 300.164531 61.119656 
L 315.164531 61.119656 
" style="fill: none; stroke: #000000; stroke-width: 1.5; stroke-linecap: square"/>
    </g>
    <g id="text_7">
     <!-- Trajectory -->
     <g transform="translate(327.164531 66.369656)scale(0.15 -0.15)">
      <defs>
       <path id="DejaVuSans-54" d="M -19 4666 
L 3928 4666 
L 3928 4134 
L 2272 4134 
L 2272 0 
L 1638 0 
L 1638 4134 
L -19 4134 
L -19 4666 
z
" transform="scale(0.015625)"/>
       <path id="DejaVuSans-72" d="M 2631 2963 
Q 2534 3019 2420 3045 
Q 2306 3072 2169 3072 
Q 1681 3072 1420 2755 
Q 1159 2438 1159 1844 
L 1159 0 
L 581 0 
L 581 3500 
L 1159 3500 
L 1159 2956 
Q 1341 3275 1631 3429 
Q 1922 3584 2338 3584 
Q 2397 3584 2469 3576 
Q 2541 3569 2628 3553 
L 2631 2963 
z
" transform="scale(0.015625)"/>
       <path id="DejaVuSans-61" d="M 2194 1759 
Q 1497 1759 1228 1600 
Q 959 1441 959 1056 
Q 959 750 1161 570 
Q 1363 391 1709 391 
Q 2188 391 2477 730 
Q 2766 1069 2766 1631 
L 2766 1759 
L 2194 1759 
z
M 3341 1997 
L 3341 0 
L 2766 0 
L 2766 531 
Q 2569 213 2275 61 
Q 1981 -91 1556 -91 
Q 1019 -91 701 211 
Q 384 513 384 1019 
Q 384 1609 779 1909 
Q 1175 2209 1959 2209 
L 2766 2209 
L 2766 2266 
Q 2766 2663 2505 2880 
Q 2244 3097 1772 3097 
Q 1472 3097 1187 3025 
Q 903 2953 641 2809 
L 641 3341 
Q 956 3463 1253 3523 
Q 1550 3584 1831 3584 
Q 2591 3584 2966 3190 
Q 3341 2797 3341 1997 
z
" transform="scale(0.015625)"/>
       <path id="DejaVuSans-6a" d="M 603 3500 
L 1178 3500 
L 1178 -63 
Q 1178 -731 923 -1031 
Q 669 -1331 103 -1331 
L -116 -1331 
L -116 -844 
L 38 -844 
Q 366 -844 484 -692 
Q 603 -541 603 -63 
L 603 3500 
z
M 603 4863 
L 1178 4863 
L 1178 4134 
L 603 4134 
L 603 4863 
z
" transform="scale(0.015625)"/>
       <path id="DejaVuSans-65" d="M 3597 1894 
L 3597 1613 
L 953 1613 
Q 991 1019 1311 708 
Q 1631 397 2203 397 
Q 2534 397 2845 478 
Q 3156 559 3463 722 
L 3463 178 
Q 3153 47 2828 -22 
Q 2503 -91 2169 -91 
Q 1331 -91 842 396 
Q 353 884 353 1716 
Q 353 2575 817 3079 
Q 1281 3584 2069 3584 
Q 2775 3584 3186 3129 
Q 3597 2675 3597 1894 
z
M 3022 2063 
Q 3016 2534 2758 2815 
Q 2500 3097 2075 3097 
Q 1594 3097 1305 2825 
Q 1016 2553 972 2059 
L 3022 2063 
z
" transform="scale(0.015625)"/>
       <path id="DejaVuSans-63" d="M 3122 3366 
L 3122 2828 
Q 2878 2963 2633 3030 
Q 2388 3097 2138 3097 
Q 1578 3097 1268 2742 
Q 959 2388 959 1747 
Q 959 1106 1268 751 
Q 1578 397 2138 397 
Q 2388 397 2633 464 
Q 2878 531 3122 666 
L 3122 134 
Q 2881 22 2623 -34 
Q 2366 -91 2075 -91 
Q 1284 -91 818 406 
Q 353 903 353 1747 
Q 353 2603 823 3093 
Q 1294 3584 2113 3584 
Q 2378 3584 2631 3529 
Q 2884 3475 3122 3366 
z
" transform="scale(0.015625)"/>
       <path id="DejaVuSans-74" d="M 1172 4494 
L 1172 3500 
L 2356 3500 
L 2356 3053 
L 1172 3053 
L 1172 1153 
Q 1172 725 1289 603 
Q 1406 481 1766 481 
L 2356 481 
L 2356 0 
L 1766 0 
Q 1100 0 847 248 
Q 594 497 594 1153 
L 594 3053 
L 172 3053 
L 172 3500 
L 594 3500 
L 594 4494 
L 1172 4494 
z
" transform="scale(0.015625)"/>
       <path id="DejaVuSans-6f" d="M 1959 3097 
Q 1497 3097 1228 2736 
Q 959 2375 959 1747 
Q 959 1119 1226 758 
Q 1494 397 1959 397 
Q 2419 397 2687 759 
Q 2956 1122 2956 1747 
Q 2956 2369 2687 2733 
Q 2419 3097 1959 3097 
z
M 1959 3584 
Q 2709 3584 3137 3096 
Q 3566 2609 3566 1747 
Q 3566 888 3137 398 
Q 2709 -91 1959 -91 
Q 1206 -91 779 398 
Q 353 888 353 1747 
Q 353 2609 779 3096 
Q 1206 3584 1959 3584 
z
" transform="scale(0.015625)"/>
       <path id="DejaVuSans-79" d="M 2059 -325 
Q 1816 -950 1584 -1140 
Q 1353 -1331 966 -1331 
L 506 -1331 
L 506 -850 
L 844 -850 
Q 1081 -850 1212 -737 
Q 1344 -625 1503 -206 
L 1606 56 
L 191 3500 
L 800 3500 
L 1894 763 
L 2988 3500 
L 3597 3500 
L 2059 -325 
z
" transform="scale(0.015625)"/>
      </defs>
      <use xlink:href="#DejaVuSans-54"/>
      <use xlink:href="#DejaVuSans-72" x="46.333984"/>
      <use xlink:href="#DejaVuSans-61" x="87.447266"/>
      <use xlink:href="#DejaVuSans-6a" x="148.726562"/>
      <use xlink:href="#DejaVuSans-65" x="176.509766"/>
      <use xlink:href="#DejaVuSans-63" x="238.033203"/>
      <use xlink:href="#DejaVuSans-74" x="293.013672"/>
      <use xlink:href="#DejaVuSans-6f" x="332.222656"/>
      <use xlink:href="#DejaVuSans-72" x="393.404297"/>
      <use xlink:href="#DejaVuSans-79" x="434.517578"/>
     </g>
    </g>
    <g id="line2d_21">
     <path d="M 285.164531 83.136844 
L 300.164531 83.136844 
L 315.164531 83.136844 
" style="fill: none; stroke: #000000; stroke-width: 1.5; stroke-linecap: square"/>
     <g>
      <use xlink:href="#me4bd126b7a" x="300.164531" y="83.136844" style="stroke: #000000"/>
     </g>
    </g>
    <g id="text_8">
     <!-- Start -->
     <g transform="translate(327.164531 88.386844)scale(0.15 -0.15)">
      <defs>
       <path id="DejaVuSans-53" d="M 3425 4513 
L 3425 3897 
Q 3066 4069 2747 4153 
Q 2428 4238 2131 4238 
Q 1616 4238 1336 4038 
Q 1056 3838 1056 3469 
Q 1056 3159 1242 3001 
Q 1428 2844 1947 2747 
L 2328 2669 
Q 3034 2534 3370 2195 
Q 3706 1856 3706 1288 
Q 3706 609 3251 259 
Q 2797 -91 1919 -91 
Q 1588 -91 1214 -16 
Q 841 59 441 206 
L 441 856 
Q 825 641 1194 531 
Q 1563 422 1919 422 
Q 2459 422 2753 634 
Q 3047 847 3047 1241 
Q 3047 1584 2836 1778 
Q 2625 1972 2144 2069 
L 1759 2144 
Q 1053 2284 737 2584 
Q 422 2884 422 3419 
Q 422 4038 858 4394 
Q 1294 4750 2059 4750 
Q 2388 4750 2728 4690 
Q 3069 4631 3425 4513 
z
" transform="scale(0.015625)"/>
      </defs>
      <use xlink:href="#DejaVuSans-53"/>
      <use xlink:href="#DejaVuSans-74" x="63.476562"/>
      <use xlink:href="#DejaVuSans-61" x="102.685547"/>
      <use xlink:href="#DejaVuSans-72" x="163.964844"/>
      <use xlink:href="#DejaVuSans-74" x="205.078125"/>
     </g>
    </g>
    <g id="line2d_22">
     <path d="M 285.164531 105.154031 
L 300.164531 105.154031 
L 315.164531 105.154031 
" style="fill: none; stroke: #000000; stroke-width: 1.5; stroke-linecap: square"/>
     <g>
      <use xlink:href="#mb6b8dc35aa" x="300.164531" y="105.154031" style="stroke: #000000; stroke-linejoin: miter"/>
     </g>
    </g>
    <g id="text_9">
     <!-- End -->
     <g transform="translate(327.164531 110.404031)scale(0.15 -0.15)">
      <defs>
       <path id="DejaVuSans-45" d="M 628 4666 
L 3578 4666 
L 3578 4134 
L 1259 4134 
L 1259 2753 
L 3481 2753 
L 3481 2222 
L 1259 2222 
L 1259 531 
L 3634 531 
L 3634 0 
L 628 0 
L 628 4666 
z
" transform="scale(0.015625)"/>
       <path id="DejaVuSans-6e" d="M 3513 2113 
L 3513 0 
L 2938 0 
L 2938 2094 
Q 2938 2591 2744 2837 
Q 2550 3084 2163 3084 
Q 1697 3084 1428 2787 
Q 1159 2491 1159 1978 
L 1159 0 
L 581 0 
L 581 3500 
L 1159 3500 
L 1159 2956 
Q 1366 3272 1645 3428 
Q 1925 3584 2291 3584 
Q 2894 3584 3203 3211 
Q 3513 2838 3513 2113 
z
" transform="scale(0.015625)"/>
       <path id="DejaVuSans-64" d="M 2906 2969 
L 2906 4863 
L 3481 4863 
L 3481 0 
L 2906 0 
L 2906 525 
Q 2725 213 2448 61 
Q 2172 -91 1784 -91 
Q 1150 -91 751 415 
Q 353 922 353 1747 
Q 353 2572 751 3078 
Q 1150 3584 1784 3584 
Q 2172 3584 2448 3432 
Q 2725 3281 2906 2969 
z
M 947 1747 
Q 947 1113 1208 752 
Q 1469 391 1925 391 
Q 2381 391 2643 752 
Q 2906 1113 2906 1747 
Q 2906 2381 2643 2742 
Q 2381 3103 1925 3103 
Q 1469 3103 1208 2742 
Q 947 2381 947 1747 
z
" transform="scale(0.015625)"/>
      </defs>
      <use xlink:href="#DejaVuSans-45"/>
      <use xlink:href="#DejaVuSans-6e" x="63.183594"/>
      <use xlink:href="#DejaVuSans-64" x="126.5625"/>
     </g>
    </g>
   </g>
  </g>
 </g>
 <defs>
  <clipPath id="p5e9bb22030">
   <rect x="57.6" y="41.472" width="357.12" height="266.112"/>
  </clipPath>
 </defs>
</svg>
