<?xml version="1.0" encoding="utf-8" standalone="no"?>
<!DOCTYPE svg PUBLIC "-//W3C//DTD SVG 1.1//EN"
  "http://www.w3.org/Graphics/SVG/1.1/DTD/svg11.dtd">
<svg xmlns:xlink="http://www.w3.org/1999/xlink" width="720pt" height="864pt" viewBox="0 0 720 864" xmlns="http://www.w3.org/2000/svg" version="1.1">
 <metadata>
  <rdf:RDF xmlns:dc="http://purl.org/dc/elements/1.1/" xmlns:cc="http://creativecommons.org/ns#" xmlns:rdf="http://www.w3.org/1999/02/22-rdf-syntax-ns#">
   <cc:Work>
    <dc:type rdf:resource="http://purl.org/dc/dcmitype/StillImage"/>
    <dc:date>2024-02-14T16:35:27.743801</dc:date>
    <dc:format>image/svg+xml</dc:format>
    <dc:creator>
     <cc:Agent>
      <dc:title>Matplotlib v3.5.0, https://matplotlib.org/</dc:title>
     </cc:Agent>
    </dc:creator>
   </cc:Work>
  </rdf:RDF>
 </metadata>
 <defs>
  <style type="text/css">*{stroke-linejoin: round; stroke-linecap: butt}</style>
 </defs>
 <g id="figure_1">
  <g id="patch_1">
   <path d="M 0 864 
L 720 864 
L 720 0 
L 0 0 
z
" style="fill: #ffffff"/>
  </g>
  <g id="axes_1">
   <g id="patch_2">
    <path d="M 108 207.18 
L 709.2 207.18 
L 709.2 28.32 
L 108 28.32 
z
" style="fill: #ffffff"/>
   </g>
   <g id="patch_3">
    <path d="M 135.327273 117.75 
L 199.626738 117.75 
L 199.626738 59.671503 
L 135.327273 59.671503 
z
" clip-path="url(#p06f14f9000)" style="fill: #f50505"/>
   </g>
   <g id="patch_4">
    <path d="M 231.776471 117.75 
L 296.075936 117.75 
L 296.075936 68.786671 
L 231.776471 68.786671 
z
" clip-path="url(#p06f14f9000)" style="fill: #3505f5"/>
   </g>
   <g id="patch_5">
    <path d="M 328.225668 117.75 
L 392.525134 117.75 
L 392.525134 122.085884 
L 328.225668 122.085884 
z
" clip-path="url(#p06f14f9000)" style="fill: #02faf2"/>
   </g>
   <g id="patch_6">
    <path d="M 424.674866 117.75 
L 488.974332 117.75 
L 488.974332 54.3751 
L 424.674866 54.3751 
z
" clip-path="url(#p06f14f9000)" style="fill: #f5ed05"/>
   </g>
   <g id="patch_7">
    <path d="M 521.124064 117.75 
L 585.423529 117.75 
L 585.423529 87.424087 
L 521.124064 87.424087 
z
" clip-path="url(#p06f14f9000)" style="fill: #518e37"/>
   </g>
   <g id="patch_8">
    <path d="M 617.573262 117.75 
L 681.872727 117.75 
L 681.872727 90.01706 
L 617.573262 90.01706 
z
" clip-path="url(#p06f14f9000)" style="fill: #ff14f2"/>
   </g>
   <g id="matplotlib.axis_1">
    <g id="xtick_1">
     <g id="line2d_1"/>
     <g id="text_1">
      <!-- Decoder E -->
      <g transform="translate(128.79224 143.577656)scale(0.15 -0.15)">
       <defs>
        <path id="DejaVuSans-44" d="M 1259 4147 
L 1259 519 
L 2022 519 
Q 2988 519 3436 956 
Q 3884 1394 3884 2338 
Q 3884 3275 3436 3711 
Q 2988 4147 2022 4147 
L 1259 4147 
z
M 628 4666 
L 1925 4666 
Q 3281 4666 3915 4102 
Q 4550 3538 4550 2338 
Q 4550 1131 3912 565 
Q 3275 0 1925 0 
L 628 0 
L 628 4666 
z
" transform="scale(0.015625)"/>
        <path id="DejaVuSans-65" d="M 3597 1894 
L 3597 1613 
L 953 1613 
Q 991 1019 1311 708 
Q 1631 397 2203 397 
Q 2534 397 2845 478 
Q 3156 559 3463 722 
L 3463 178 
Q 3153 47 2828 -22 
Q 2503 -91 2169 -91 
Q 1331 -91 842 396 
Q 353 884 353 1716 
Q 353 2575 817 3079 
Q 1281 3584 2069 3584 
Q 2775 3584 3186 3129 
Q 3597 2675 3597 1894 
z
M 3022 2063 
Q 3016 2534 2758 2815 
Q 2500 3097 2075 3097 
Q 1594 3097 1305 2825 
Q 1016 2553 972 2059 
L 3022 2063 
z
" transform="scale(0.015625)"/>
        <path id="DejaVuSans-63" d="M 3122 3366 
L 3122 2828 
Q 2878 2963 2633 3030 
Q 2388 3097 2138 3097 
Q 1578 3097 1268 2742 
Q 959 2388 959 1747 
Q 959 1106 1268 751 
Q 1578 397 2138 397 
Q 2388 397 2633 464 
Q 2878 531 3122 666 
L 3122 134 
Q 2881 22 2623 -34 
Q 2366 -91 2075 -91 
Q 1284 -91 818 406 
Q 353 903 353 1747 
Q 353 2603 823 3093 
Q 1294 3584 2113 3584 
Q 2378 3584 2631 3529 
Q 2884 3475 3122 3366 
z
" transform="scale(0.015625)"/>
        <path id="DejaVuSans-6f" d="M 1959 3097 
Q 1497 3097 1228 2736 
Q 959 2375 959 1747 
Q 959 1119 1226 758 
Q 1494 397 1959 397 
Q 2419 397 2687 759 
Q 2956 1122 2956 1747 
Q 2956 2369 2687 2733 
Q 2419 3097 1959 3097 
z
M 1959 3584 
Q 2709 3584 3137 3096 
Q 3566 2609 3566 1747 
Q 3566 888 3137 398 
Q 2709 -91 1959 -91 
Q 1206 -91 779 398 
Q 353 888 353 1747 
Q 353 2609 779 3096 
Q 1206 3584 1959 3584 
z
" transform="scale(0.015625)"/>
        <path id="DejaVuSans-64" d="M 2906 2969 
L 2906 4863 
L 3481 4863 
L 3481 0 
L 2906 0 
L 2906 525 
Q 2725 213 2448 61 
Q 2172 -91 1784 -91 
Q 1150 -91 751 415 
Q 353 922 353 1747 
Q 353 2572 751 3078 
Q 1150 3584 1784 3584 
Q 2172 3584 2448 3432 
Q 2725 3281 2906 2969 
z
M 947 1747 
Q 947 1113 1208 752 
Q 1469 391 1925 391 
Q 2381 391 2643 752 
Q 2906 1113 2906 1747 
Q 2906 2381 2643 2742 
Q 2381 3103 1925 3103 
Q 1469 3103 1208 2742 
Q 947 2381 947 1747 
z
" transform="scale(0.015625)"/>
        <path id="DejaVuSans-72" d="M 2631 2963 
Q 2534 3019 2420 3045 
Q 2306 3072 2169 3072 
Q 1681 3072 1420 2755 
Q 1159 2438 1159 1844 
L 1159 0 
L 581 0 
L 581 3500 
L 1159 3500 
L 1159 2956 
Q 1341 3275 1631 3429 
Q 1922 3584 2338 3584 
Q 2397 3584 2469 3576 
Q 2541 3569 2628 3553 
L 2631 2963 
z
" transform="scale(0.015625)"/>
        <path id="DejaVuSans-20" transform="scale(0.015625)"/>
        <path id="DejaVuSans-45" d="M 628 4666 
L 3578 4666 
L 3578 4134 
L 1259 4134 
L 1259 2753 
L 3481 2753 
L 3481 2222 
L 1259 2222 
L 1259 531 
L 3634 531 
L 3634 0 
L 628 0 
L 628 4666 
z
" transform="scale(0.015625)"/>
       </defs>
       <use xlink:href="#DejaVuSans-44"/>
       <use xlink:href="#DejaVuSans-65" x="77.001953"/>
       <use xlink:href="#DejaVuSans-63" x="138.525391"/>
       <use xlink:href="#DejaVuSans-6f" x="193.505859"/>
       <use xlink:href="#DejaVuSans-64" x="254.6875"/>
       <use xlink:href="#DejaVuSans-65" x="318.164062"/>
       <use xlink:href="#DejaVuSans-72" x="379.6875"/>
       <use xlink:href="#DejaVuSans-20" x="420.800781"/>
       <use xlink:href="#DejaVuSans-45" x="452.587891"/>
      </g>
     </g>
    </g>
    <g id="xtick_2">
     <g id="line2d_2"/>
     <g id="text_2">
      <!-- Decoder F -->
      <g transform="translate(225.666828 143.577656)scale(0.15 -0.15)">
       <defs>
        <path id="DejaVuSans-46" d="M 628 4666 
L 3309 4666 
L 3309 4134 
L 1259 4134 
L 1259 2759 
L 3109 2759 
L 3109 2228 
L 1259 2228 
L 1259 0 
L 628 0 
L 628 4666 
z
" transform="scale(0.015625)"/>
       </defs>
       <use xlink:href="#DejaVuSans-44"/>
       <use xlink:href="#DejaVuSans-65" x="77.001953"/>
       <use xlink:href="#DejaVuSans-63" x="138.525391"/>
       <use xlink:href="#DejaVuSans-6f" x="193.505859"/>
       <use xlink:href="#DejaVuSans-64" x="254.6875"/>
       <use xlink:href="#DejaVuSans-65" x="318.164062"/>
       <use xlink:href="#DejaVuSans-72" x="379.6875"/>
       <use xlink:href="#DejaVuSans-20" x="420.800781"/>
       <use xlink:href="#DejaVuSans-46" x="452.587891"/>
      </g>
     </g>
    </g>
    <g id="xtick_3">
     <g id="line2d_3"/>
     <g id="text_3">
      <!-- Decoder G -->
      <g transform="translate(320.61837 143.577656)scale(0.15 -0.15)">
       <defs>
        <path id="DejaVuSans-47" d="M 3809 666 
L 3809 1919 
L 2778 1919 
L 2778 2438 
L 4434 2438 
L 4434 434 
Q 4069 175 3628 42 
Q 3188 -91 2688 -91 
Q 1594 -91 976 548 
Q 359 1188 359 2328 
Q 359 3472 976 4111 
Q 1594 4750 2688 4750 
Q 3144 4750 3555 4637 
Q 3966 4525 4313 4306 
L 4313 3634 
Q 3963 3931 3569 4081 
Q 3175 4231 2741 4231 
Q 1884 4231 1454 3753 
Q 1025 3275 1025 2328 
Q 1025 1384 1454 906 
Q 1884 428 2741 428 
Q 3075 428 3337 486 
Q 3600 544 3809 666 
z
" transform="scale(0.015625)"/>
       </defs>
       <use xlink:href="#DejaVuSans-44"/>
       <use xlink:href="#DejaVuSans-65" x="77.001953"/>
       <use xlink:href="#DejaVuSans-63" x="138.525391"/>
       <use xlink:href="#DejaVuSans-6f" x="193.505859"/>
       <use xlink:href="#DejaVuSans-64" x="254.6875"/>
       <use xlink:href="#DejaVuSans-65" x="318.164062"/>
       <use xlink:href="#DejaVuSans-72" x="379.6875"/>
       <use xlink:href="#DejaVuSans-20" x="420.800781"/>
       <use xlink:href="#DejaVuSans-47" x="452.587891"/>
      </g>
     </g>
    </g>
    <g id="xtick_4">
     <g id="line2d_4"/>
     <g id="text_4">
      <!-- Decoder H -->
      <g transform="translate(417.238661 143.577656)scale(0.15 -0.15)">
       <defs>
        <path id="DejaVuSans-48" d="M 628 4666 
L 1259 4666 
L 1259 2753 
L 3553 2753 
L 3553 4666 
L 4184 4666 
L 4184 0 
L 3553 0 
L 3553 2222 
L 1259 2222 
L 1259 0 
L 628 0 
L 628 4666 
z
" transform="scale(0.015625)"/>
       </defs>
       <use xlink:href="#DejaVuSans-44"/>
       <use xlink:href="#DejaVuSans-65" x="77.001953"/>
       <use xlink:href="#DejaVuSans-63" x="138.525391"/>
       <use xlink:href="#DejaVuSans-6f" x="193.505859"/>
       <use xlink:href="#DejaVuSans-64" x="254.6875"/>
       <use xlink:href="#DejaVuSans-65" x="318.164062"/>
       <use xlink:href="#DejaVuSans-72" x="379.6875"/>
       <use xlink:href="#DejaVuSans-20" x="420.800781"/>
       <use xlink:href="#DejaVuSans-48" x="452.587891"/>
      </g>
     </g>
    </g>
    <g id="xtick_5">
     <g id="line2d_5"/>
     <g id="text_5">
      <!-- Decoder I -->
      <g transform="translate(517.115594 143.577656)scale(0.15 -0.15)">
       <defs>
        <path id="DejaVuSans-49" d="M 628 4666 
L 1259 4666 
L 1259 0 
L 628 0 
L 628 4666 
z
" transform="scale(0.015625)"/>
       </defs>
       <use xlink:href="#DejaVuSans-44"/>
       <use xlink:href="#DejaVuSans-65" x="77.001953"/>
       <use xlink:href="#DejaVuSans-63" x="138.525391"/>
       <use xlink:href="#DejaVuSans-6f" x="193.505859"/>
       <use xlink:href="#DejaVuSans-64" x="254.6875"/>
       <use xlink:href="#DejaVuSans-65" x="318.164062"/>
       <use xlink:href="#DejaVuSans-72" x="379.6875"/>
       <use xlink:href="#DejaVuSans-20" x="420.800781"/>
       <use xlink:href="#DejaVuSans-49" x="452.587891"/>
      </g>
     </g>
    </g>
    <g id="xtick_6">
     <g id="line2d_6"/>
     <g id="text_6">
      <!-- Decoder J -->
      <g transform="translate(613.564792 143.577656)scale(0.15 -0.15)">
       <defs>
        <path id="DejaVuSans-4a" d="M 628 4666 
L 1259 4666 
L 1259 325 
Q 1259 -519 939 -900 
Q 619 -1281 -91 -1281 
L -331 -1281 
L -331 -750 
L -134 -750 
Q 284 -750 456 -515 
Q 628 -281 628 325 
L 628 4666 
z
" transform="scale(0.015625)"/>
       </defs>
       <use xlink:href="#DejaVuSans-44"/>
       <use xlink:href="#DejaVuSans-65" x="77.001953"/>
       <use xlink:href="#DejaVuSans-63" x="138.525391"/>
       <use xlink:href="#DejaVuSans-6f" x="193.505859"/>
       <use xlink:href="#DejaVuSans-64" x="254.6875"/>
       <use xlink:href="#DejaVuSans-65" x="318.164062"/>
       <use xlink:href="#DejaVuSans-72" x="379.6875"/>
       <use xlink:href="#DejaVuSans-20" x="420.800781"/>
       <use xlink:href="#DejaVuSans-4a" x="452.587891"/>
      </g>
     </g>
    </g>
   </g>
   <g id="matplotlib.axis_2">
    <g id="ytick_1">
     <g id="line2d_7">
      <defs>
       <path id="md7bd1f593a" d="M 0 0 
L -3.5 0 
" style="stroke: #000000; stroke-width: 0.8"/>
      </defs>
      <g>
       <use xlink:href="#md7bd1f593a" x="108" y="207.18" style="stroke: #000000; stroke-width: 0.8"/>
      </g>
     </g>
     <g id="text_7">
      <!-- −1 -->
      <g transform="translate(86.257812 210.979219)scale(0.1 -0.1)">
       <defs>
        <path id="DejaVuSans-2212" d="M 678 2272 
L 4684 2272 
L 4684 1741 
L 678 1741 
L 678 2272 
z
" transform="scale(0.015625)"/>
        <path id="DejaVuSans-31" d="M 794 531 
L 1825 531 
L 1825 4091 
L 703 3866 
L 703 4441 
L 1819 4666 
L 2450 4666 
L 2450 531 
L 3481 531 
L 3481 0 
L 794 0 
L 794 531 
z
" transform="scale(0.015625)"/>
       </defs>
       <use xlink:href="#DejaVuSans-2212"/>
       <use xlink:href="#DejaVuSans-31" x="83.789062"/>
      </g>
     </g>
    </g>
    <g id="ytick_2">
     <g id="line2d_8">
      <g>
       <use xlink:href="#md7bd1f593a" x="108" y="117.75" style="stroke: #000000; stroke-width: 0.8"/>
      </g>
     </g>
     <g id="text_8">
      <!-- 0 -->
      <g transform="translate(94.6375 121.549219)scale(0.1 -0.1)">
       <defs>
        <path id="DejaVuSans-30" d="M 2034 4250 
Q 1547 4250 1301 3770 
Q 1056 3291 1056 2328 
Q 1056 1369 1301 889 
Q 1547 409 2034 409 
Q 2525 409 2770 889 
Q 3016 1369 3016 2328 
Q 3016 3291 2770 3770 
Q 2525 4250 2034 4250 
z
M 2034 4750 
Q 2819 4750 3233 4129 
Q 3647 3509 3647 2328 
Q 3647 1150 3233 529 
Q 2819 -91 2034 -91 
Q 1250 -91 836 529 
Q 422 1150 422 2328 
Q 422 3509 836 4129 
Q 1250 4750 2034 4750 
z
" transform="scale(0.015625)"/>
       </defs>
       <use xlink:href="#DejaVuSans-30"/>
      </g>
     </g>
    </g>
    <g id="ytick_3">
     <g id="line2d_9">
      <g>
       <use xlink:href="#md7bd1f593a" x="108" y="28.32" style="stroke: #000000; stroke-width: 0.8"/>
      </g>
     </g>
     <g id="text_9">
      <!-- 1 -->
      <g transform="translate(94.6375 32.119219)scale(0.1 -0.1)">
       <use xlink:href="#DejaVuSans-31"/>
      </g>
     </g>
    </g>
   </g>
   <g id="line2d_10">
    <path d="M 108 117.75 
L 709.2 117.75 
" clip-path="url(#p06f14f9000)" style="fill: none; stroke: #000000; stroke-width: 0.8; stroke-linecap: square"/>
   </g>
   <g id="patch_9">
    <path d="M 108 207.18 
L 108 28.32 
" style="fill: none; stroke: #000000; stroke-width: 0.8; stroke-linejoin: miter; stroke-linecap: square"/>
   </g>
   <g id="text_10">
    <!-- Angular Accuracy -->
    <g transform="translate(342.813281 22.32)scale(0.15 -0.15)">
     <defs>
      <path id="DejaVuSans-41" d="M 2188 4044 
L 1331 1722 
L 3047 1722 
L 2188 4044 
z
M 1831 4666 
L 2547 4666 
L 4325 0 
L 3669 0 
L 3244 1197 
L 1141 1197 
L 716 0 
L 50 0 
L 1831 4666 
z
" transform="scale(0.015625)"/>
      <path id="DejaVuSans-6e" d="M 3513 2113 
L 3513 0 
L 2938 0 
L 2938 2094 
Q 2938 2591 2744 2837 
Q 2550 3084 2163 3084 
Q 1697 3084 1428 2787 
Q 1159 2491 1159 1978 
L 1159 0 
L 581 0 
L 581 3500 
L 1159 3500 
L 1159 2956 
Q 1366 3272 1645 3428 
Q 1925 3584 2291 3584 
Q 2894 3584 3203 3211 
Q 3513 2838 3513 2113 
z
" transform="scale(0.015625)"/>
      <path id="DejaVuSans-67" d="M 2906 1791 
Q 2906 2416 2648 2759 
Q 2391 3103 1925 3103 
Q 1463 3103 1205 2759 
Q 947 2416 947 1791 
Q 947 1169 1205 825 
Q 1463 481 1925 481 
Q 2391 481 2648 825 
Q 2906 1169 2906 1791 
z
M 3481 434 
Q 3481 -459 3084 -895 
Q 2688 -1331 1869 -1331 
Q 1566 -1331 1297 -1286 
Q 1028 -1241 775 -1147 
L 775 -588 
Q 1028 -725 1275 -790 
Q 1522 -856 1778 -856 
Q 2344 -856 2625 -561 
Q 2906 -266 2906 331 
L 2906 616 
Q 2728 306 2450 153 
Q 2172 0 1784 0 
Q 1141 0 747 490 
Q 353 981 353 1791 
Q 353 2603 747 3093 
Q 1141 3584 1784 3584 
Q 2172 3584 2450 3431 
Q 2728 3278 2906 2969 
L 2906 3500 
L 3481 3500 
L 3481 434 
z
" transform="scale(0.015625)"/>
      <path id="DejaVuSans-75" d="M 544 1381 
L 544 3500 
L 1119 3500 
L 1119 1403 
Q 1119 906 1312 657 
Q 1506 409 1894 409 
Q 2359 409 2629 706 
Q 2900 1003 2900 1516 
L 2900 3500 
L 3475 3500 
L 3475 0 
L 2900 0 
L 2900 538 
Q 2691 219 2414 64 
Q 2138 -91 1772 -91 
Q 1169 -91 856 284 
Q 544 659 544 1381 
z
M 1991 3584 
L 1991 3584 
z
" transform="scale(0.015625)"/>
      <path id="DejaVuSans-6c" d="M 603 4863 
L 1178 4863 
L 1178 0 
L 603 0 
L 603 4863 
z
" transform="scale(0.015625)"/>
      <path id="DejaVuSans-61" d="M 2194 1759 
Q 1497 1759 1228 1600 
Q 959 1441 959 1056 
Q 959 750 1161 570 
Q 1363 391 1709 391 
Q 2188 391 2477 730 
Q 2766 1069 2766 1631 
L 2766 1759 
L 2194 1759 
z
M 3341 1997 
L 3341 0 
L 2766 0 
L 2766 531 
Q 2569 213 2275 61 
Q 1981 -91 1556 -91 
Q 1019 -91 701 211 
Q 384 513 384 1019 
Q 384 1609 779 1909 
Q 1175 2209 1959 2209 
L 2766 2209 
L 2766 2266 
Q 2766 2663 2505 2880 
Q 2244 3097 1772 3097 
Q 1472 3097 1187 3025 
Q 903 2953 641 2809 
L 641 3341 
Q 956 3463 1253 3523 
Q 1550 3584 1831 3584 
Q 2591 3584 2966 3190 
Q 3341 2797 3341 1997 
z
" transform="scale(0.015625)"/>
      <path id="DejaVuSans-79" d="M 2059 -325 
Q 1816 -950 1584 -1140 
Q 1353 -1331 966 -1331 
L 506 -1331 
L 506 -850 
L 844 -850 
Q 1081 -850 1212 -737 
Q 1344 -625 1503 -206 
L 1606 56 
L 191 3500 
L 800 3500 
L 1894 763 
L 2988 3500 
L 3597 3500 
L 2059 -325 
z
" transform="scale(0.015625)"/>
     </defs>
     <use xlink:href="#DejaVuSans-41"/>
     <use xlink:href="#DejaVuSans-6e" x="68.408203"/>
     <use xlink:href="#DejaVuSans-67" x="131.787109"/>
     <use xlink:href="#DejaVuSans-75" x="195.263672"/>
     <use xlink:href="#DejaVuSans-6c" x="258.642578"/>
     <use xlink:href="#DejaVuSans-61" x="286.425781"/>
     <use xlink:href="#DejaVuSans-72" x="347.705078"/>
     <use xlink:href="#DejaVuSans-20" x="388.818359"/>
     <use xlink:href="#DejaVuSans-41" x="420.605469"/>
     <use xlink:href="#DejaVuSans-63" x="487.263672"/>
     <use xlink:href="#DejaVuSans-63" x="542.244141"/>
     <use xlink:href="#DejaVuSans-75" x="597.224609"/>
     <use xlink:href="#DejaVuSans-72" x="660.603516"/>
     <use xlink:href="#DejaVuSans-61" x="701.716797"/>
     <use xlink:href="#DejaVuSans-63" x="762.996094"/>
     <use xlink:href="#DejaVuSans-79" x="817.976562"/>
    </g>
   </g>
  </g>
  <g id="axes_2">
   <g id="patch_10">
    <path d="M 108 420.48 
L 709.2 420.48 
L 709.2 241.62 
L 108 241.62 
z
" style="fill: #ffffff"/>
   </g>
   <g id="patch_11">
    <path d="M 135.327273 331.607878 
L 199.626738 331.607878 
L 199.626738 251.611592 
L 135.327273 251.611592 
z
" clip-path="url(#p86a132cfa6)" style="fill: #f50505"/>
   </g>
   <g id="patch_12">
    <path d="M 231.776471 331.607878 
L 296.075936 331.607878 
L 296.075936 268.96948 
L 231.776471 268.96948 
z
" clip-path="url(#p86a132cfa6)" style="fill: #3505f5"/>
   </g>
   <g id="patch_13">
    <path d="M 328.225668 331.607878 
L 392.525134 331.607878 
L 392.525134 320.490441 
L 328.225668 320.490441 
z
" clip-path="url(#p86a132cfa6)" style="fill: #02faf2"/>
   </g>
   <g id="patch_14">
    <path d="M 424.674866 331.607878 
L 488.974332 331.607878 
L 488.974332 245.905137 
L 424.674866 245.905137 
z
" clip-path="url(#p86a132cfa6)" style="fill: #f5ed05"/>
   </g>
   <g id="patch_15">
    <path d="M 521.124064 331.607878 
L 585.423529 331.607878 
L 585.423529 298.013804 
L 521.124064 298.013804 
z
" clip-path="url(#p86a132cfa6)" style="fill: #518e37"/>
   </g>
   <g id="patch_16">
    <path d="M 617.573262 331.607878 
L 681.872727 331.607878 
L 681.872727 318.793581 
L 617.573262 318.793581 
z
" clip-path="url(#p86a132cfa6)" style="fill: #ff14f2"/>
   </g>
   <g id="matplotlib.axis_3">
    <g id="xtick_7">
     <g id="line2d_11"/>
     <g id="text_11">
      <!-- Decoder E -->
      <g transform="translate(128.79224 356.877656)scale(0.15 -0.15)">
       <use xlink:href="#DejaVuSans-44"/>
       <use xlink:href="#DejaVuSans-65" x="77.001953"/>
       <use xlink:href="#DejaVuSans-63" x="138.525391"/>
       <use xlink:href="#DejaVuSans-6f" x="193.505859"/>
       <use xlink:href="#DejaVuSans-64" x="254.6875"/>
       <use xlink:href="#DejaVuSans-65" x="318.164062"/>
       <use xlink:href="#DejaVuSans-72" x="379.6875"/>
       <use xlink:href="#DejaVuSans-20" x="420.800781"/>
       <use xlink:href="#DejaVuSans-45" x="452.587891"/>
      </g>
     </g>
    </g>
    <g id="xtick_8">
     <g id="line2d_12"/>
     <g id="text_12">
      <!-- Decoder F -->
      <g transform="translate(225.666828 356.877656)scale(0.15 -0.15)">
       <use xlink:href="#DejaVuSans-44"/>
       <use xlink:href="#DejaVuSans-65" x="77.001953"/>
       <use xlink:href="#DejaVuSans-63" x="138.525391"/>
       <use xlink:href="#DejaVuSans-6f" x="193.505859"/>
       <use xlink:href="#DejaVuSans-64" x="254.6875"/>
       <use xlink:href="#DejaVuSans-65" x="318.164062"/>
       <use xlink:href="#DejaVuSans-72" x="379.6875"/>
       <use xlink:href="#DejaVuSans-20" x="420.800781"/>
       <use xlink:href="#DejaVuSans-46" x="452.587891"/>
      </g>
     </g>
    </g>
    <g id="xtick_9">
     <g id="line2d_13"/>
     <g id="text_13">
      <!-- Decoder G -->
      <g transform="translate(320.61837 356.877656)scale(0.15 -0.15)">
       <use xlink:href="#DejaVuSans-44"/>
       <use xlink:href="#DejaVuSans-65" x="77.001953"/>
       <use xlink:href="#DejaVuSans-63" x="138.525391"/>
       <use xlink:href="#DejaVuSans-6f" x="193.505859"/>
       <use xlink:href="#DejaVuSans-64" x="254.6875"/>
       <use xlink:href="#DejaVuSans-65" x="318.164062"/>
       <use xlink:href="#DejaVuSans-72" x="379.6875"/>
       <use xlink:href="#DejaVuSans-20" x="420.800781"/>
       <use xlink:href="#DejaVuSans-47" x="452.587891"/>
      </g>
     </g>
    </g>
    <g id="xtick_10">
     <g id="line2d_14"/>
     <g id="text_14">
      <!-- Decoder H -->
      <g transform="translate(417.238661 356.877656)scale(0.15 -0.15)">
       <use xlink:href="#DejaVuSans-44"/>
       <use xlink:href="#DejaVuSans-65" x="77.001953"/>
       <use xlink:href="#DejaVuSans-63" x="138.525391"/>
       <use xlink:href="#DejaVuSans-6f" x="193.505859"/>
       <use xlink:href="#DejaVuSans-64" x="254.6875"/>
       <use xlink:href="#DejaVuSans-65" x="318.164062"/>
       <use xlink:href="#DejaVuSans-72" x="379.6875"/>
       <use xlink:href="#DejaVuSans-20" x="420.800781"/>
       <use xlink:href="#DejaVuSans-48" x="452.587891"/>
      </g>
     </g>
    </g>
    <g id="xtick_11">
     <g id="line2d_15"/>
     <g id="text_15">
      <!-- Decoder I -->
      <g transform="translate(517.115594 356.877656)scale(0.15 -0.15)">
       <use xlink:href="#DejaVuSans-44"/>
       <use xlink:href="#DejaVuSans-65" x="77.001953"/>
       <use xlink:href="#DejaVuSans-63" x="138.525391"/>
       <use xlink:href="#DejaVuSans-6f" x="193.505859"/>
       <use xlink:href="#DejaVuSans-64" x="254.6875"/>
       <use xlink:href="#DejaVuSans-65" x="318.164062"/>
       <use xlink:href="#DejaVuSans-72" x="379.6875"/>
       <use xlink:href="#DejaVuSans-20" x="420.800781"/>
       <use xlink:href="#DejaVuSans-49" x="452.587891"/>
      </g>
     </g>
    </g>
    <g id="xtick_12">
     <g id="line2d_16"/>
     <g id="text_16">
      <!-- Decoder J -->
      <g transform="translate(613.564792 356.877656)scale(0.15 -0.15)">
       <use xlink:href="#DejaVuSans-44"/>
       <use xlink:href="#DejaVuSans-65" x="77.001953"/>
       <use xlink:href="#DejaVuSans-63" x="138.525391"/>
       <use xlink:href="#DejaVuSans-6f" x="193.505859"/>
       <use xlink:href="#DejaVuSans-64" x="254.6875"/>
       <use xlink:href="#DejaVuSans-65" x="318.164062"/>
       <use xlink:href="#DejaVuSans-72" x="379.6875"/>
       <use xlink:href="#DejaVuSans-20" x="420.800781"/>
       <use xlink:href="#DejaVuSans-4a" x="452.587891"/>
      </g>
     </g>
    </g>
   </g>
   <g id="matplotlib.axis_4">
    <g id="ytick_4">
     <g id="line2d_17">
      <g>
       <use xlink:href="#md7bd1f593a" x="108" y="420.48" style="stroke: #000000; stroke-width: 0.8"/>
      </g>
     </g>
     <g id="text_17">
      <!-- −1 -->
      <g transform="translate(86.257812 424.279219)scale(0.1 -0.1)">
       <use xlink:href="#DejaVuSans-2212"/>
       <use xlink:href="#DejaVuSans-31" x="83.789062"/>
      </g>
     </g>
    </g>
    <g id="ytick_5">
     <g id="line2d_18">
      <g>
       <use xlink:href="#md7bd1f593a" x="108" y="331.607878" style="stroke: #000000; stroke-width: 0.8"/>
      </g>
     </g>
     <g id="text_18">
      <!-- 0 -->
      <g transform="translate(94.6375 335.407097)scale(0.1 -0.1)">
       <use xlink:href="#DejaVuSans-30"/>
      </g>
     </g>
    </g>
    <g id="ytick_6">
     <g id="line2d_19">
      <g>
       <use xlink:href="#md7bd1f593a" x="108" y="242.735756" style="stroke: #000000; stroke-width: 0.8"/>
      </g>
     </g>
     <g id="text_19">
      <!-- 1 -->
      <g transform="translate(94.6375 246.534975)scale(0.1 -0.1)">
       <use xlink:href="#DejaVuSans-31"/>
      </g>
     </g>
    </g>
   </g>
   <g id="line2d_20">
    <path d="M 108 331.607878 
L 709.2 331.607878 
" clip-path="url(#p86a132cfa6)" style="fill: none; stroke: #000000; stroke-width: 0.8; stroke-linecap: square"/>
   </g>
   <g id="patch_17">
    <path d="M 108 420.48 
L 108 241.62 
" style="fill: none; stroke: #000000; stroke-width: 0.8; stroke-linejoin: miter; stroke-linecap: square"/>
   </g>
   <g id="text_20">
    <!-- Magnitude Accuracy -->
    <g transform="translate(332.239453 235.62)scale(0.15 -0.15)">
     <defs>
      <path id="DejaVuSans-4d" d="M 628 4666 
L 1569 4666 
L 2759 1491 
L 3956 4666 
L 4897 4666 
L 4897 0 
L 4281 0 
L 4281 4097 
L 3078 897 
L 2444 897 
L 1241 4097 
L 1241 0 
L 628 0 
L 628 4666 
z
" transform="scale(0.015625)"/>
      <path id="DejaVuSans-69" d="M 603 3500 
L 1178 3500 
L 1178 0 
L 603 0 
L 603 3500 
z
M 603 4863 
L 1178 4863 
L 1178 4134 
L 603 4134 
L 603 4863 
z
" transform="scale(0.015625)"/>
      <path id="DejaVuSans-74" d="M 1172 4494 
L 1172 3500 
L 2356 3500 
L 2356 3053 
L 1172 3053 
L 1172 1153 
Q 1172 725 1289 603 
Q 1406 481 1766 481 
L 2356 481 
L 2356 0 
L 1766 0 
Q 1100 0 847 248 
Q 594 497 594 1153 
L 594 3053 
L 172 3053 
L 172 3500 
L 594 3500 
L 594 4494 
L 1172 4494 
z
" transform="scale(0.015625)"/>
     </defs>
     <use xlink:href="#DejaVuSans-4d"/>
     <use xlink:href="#DejaVuSans-61" x="86.279297"/>
     <use xlink:href="#DejaVuSans-67" x="147.558594"/>
     <use xlink:href="#DejaVuSans-6e" x="211.035156"/>
     <use xlink:href="#DejaVuSans-69" x="274.414062"/>
     <use xlink:href="#DejaVuSans-74" x="302.197266"/>
     <use xlink:href="#DejaVuSans-75" x="341.40625"/>
     <use xlink:href="#DejaVuSans-64" x="404.785156"/>
     <use xlink:href="#DejaVuSans-65" x="468.261719"/>
     <use xlink:href="#DejaVuSans-20" x="529.785156"/>
     <use xlink:href="#DejaVuSans-41" x="561.572266"/>
     <use xlink:href="#DejaVuSans-63" x="628.230469"/>
     <use xlink:href="#DejaVuSans-63" x="683.210938"/>
     <use xlink:href="#DejaVuSans-75" x="738.191406"/>
     <use xlink:href="#DejaVuSans-72" x="801.570312"/>
     <use xlink:href="#DejaVuSans-61" x="842.683594"/>
     <use xlink:href="#DejaVuSans-63" x="903.962891"/>
     <use xlink:href="#DejaVuSans-79" x="958.943359"/>
    </g>
   </g>
  </g>
  <g id="axes_3">
   <g id="patch_18">
    <path d="M 108 633.78 
L 709.2 633.78 
L 709.2 454.92 
L 108 454.92 
z
" style="fill: #ffffff"/>
   </g>
   <g id="patch_19">
    <path d="M 135.327273 521.660262 
L 199.626738 521.660262 
L 199.626738 470.400131 
L 135.327273 470.400131 
z
" clip-path="url(#p847aa71f6e)" style="fill: #f50505"/>
   </g>
   <g id="patch_20">
    <path d="M 231.776471 521.660262 
L 296.075936 521.660262 
L 296.075936 573.994814 
L 231.776471 573.994814 
z
" clip-path="url(#p847aa71f6e)" style="fill: #3505f5"/>
   </g>
   <g id="patch_21">
    <path d="M 328.225668 521.660262 
L 392.525134 521.660262 
L 392.525134 521.530154 
L 328.225668 521.530154 
z
" clip-path="url(#p847aa71f6e)" style="fill: #02faf2"/>
   </g>
   <g id="patch_22">
    <path d="M 424.674866 521.660262 
L 488.974332 521.660262 
L 488.974332 463.05 
L 424.674866 463.05 
z
" clip-path="url(#p847aa71f6e)" style="fill: #f5ed05"/>
   </g>
   <g id="patch_23">
    <path d="M 521.124064 521.660262 
L 585.423529 521.660262 
L 585.423529 625.65 
L 521.124064 625.65 
z
" clip-path="url(#p847aa71f6e)" style="fill: #518e37"/>
   </g>
   <g id="patch_24">
    <path d="M 617.573262 521.660262 
L 681.872727 521.660262 
L 681.872727 518.755948 
L 617.573262 518.755948 
z
" clip-path="url(#p847aa71f6e)" style="fill: #ff14f2"/>
   </g>
   <g id="matplotlib.axis_5">
    <g id="xtick_13">
     <g id="line2d_21"/>
     <g id="text_21">
      <!-- Decoder E -->
      <g transform="translate(128.79224 570.177656)scale(0.15 -0.15)">
       <use xlink:href="#DejaVuSans-44"/>
       <use xlink:href="#DejaVuSans-65" x="77.001953"/>
       <use xlink:href="#DejaVuSans-63" x="138.525391"/>
       <use xlink:href="#DejaVuSans-6f" x="193.505859"/>
       <use xlink:href="#DejaVuSans-64" x="254.6875"/>
       <use xlink:href="#DejaVuSans-65" x="318.164062"/>
       <use xlink:href="#DejaVuSans-72" x="379.6875"/>
       <use xlink:href="#DejaVuSans-20" x="420.800781"/>
       <use xlink:href="#DejaVuSans-45" x="452.587891"/>
      </g>
     </g>
    </g>
    <g id="xtick_14">
     <g id="line2d_22"/>
     <g id="text_22">
      <!-- Decoder F -->
      <g transform="translate(225.666828 570.177656)scale(0.15 -0.15)">
       <use xlink:href="#DejaVuSans-44"/>
       <use xlink:href="#DejaVuSans-65" x="77.001953"/>
       <use xlink:href="#DejaVuSans-63" x="138.525391"/>
       <use xlink:href="#DejaVuSans-6f" x="193.505859"/>
       <use xlink:href="#DejaVuSans-64" x="254.6875"/>
       <use xlink:href="#DejaVuSans-65" x="318.164062"/>
       <use xlink:href="#DejaVuSans-72" x="379.6875"/>
       <use xlink:href="#DejaVuSans-20" x="420.800781"/>
       <use xlink:href="#DejaVuSans-46" x="452.587891"/>
      </g>
     </g>
    </g>
    <g id="xtick_15">
     <g id="line2d_23"/>
     <g id="text_23">
      <!-- Decoder G -->
      <g transform="translate(320.61837 570.177656)scale(0.15 -0.15)">
       <use xlink:href="#DejaVuSans-44"/>
       <use xlink:href="#DejaVuSans-65" x="77.001953"/>
       <use xlink:href="#DejaVuSans-63" x="138.525391"/>
       <use xlink:href="#DejaVuSans-6f" x="193.505859"/>
       <use xlink:href="#DejaVuSans-64" x="254.6875"/>
       <use xlink:href="#DejaVuSans-65" x="318.164062"/>
       <use xlink:href="#DejaVuSans-72" x="379.6875"/>
       <use xlink:href="#DejaVuSans-20" x="420.800781"/>
       <use xlink:href="#DejaVuSans-47" x="452.587891"/>
      </g>
     </g>
    </g>
    <g id="xtick_16">
     <g id="line2d_24"/>
     <g id="text_24">
      <!-- Decoder H -->
      <g transform="translate(417.238661 570.177656)scale(0.15 -0.15)">
       <use xlink:href="#DejaVuSans-44"/>
       <use xlink:href="#DejaVuSans-65" x="77.001953"/>
       <use xlink:href="#DejaVuSans-63" x="138.525391"/>
       <use xlink:href="#DejaVuSans-6f" x="193.505859"/>
       <use xlink:href="#DejaVuSans-64" x="254.6875"/>
       <use xlink:href="#DejaVuSans-65" x="318.164062"/>
       <use xlink:href="#DejaVuSans-72" x="379.6875"/>
       <use xlink:href="#DejaVuSans-20" x="420.800781"/>
       <use xlink:href="#DejaVuSans-48" x="452.587891"/>
      </g>
     </g>
    </g>
    <g id="xtick_17">
     <g id="line2d_25"/>
     <g id="text_25">
      <!-- Decoder I -->
      <g transform="translate(517.115594 570.177656)scale(0.15 -0.15)">
       <use xlink:href="#DejaVuSans-44"/>
       <use xlink:href="#DejaVuSans-65" x="77.001953"/>
       <use xlink:href="#DejaVuSans-63" x="138.525391"/>
       <use xlink:href="#DejaVuSans-6f" x="193.505859"/>
       <use xlink:href="#DejaVuSans-64" x="254.6875"/>
       <use xlink:href="#DejaVuSans-65" x="318.164062"/>
       <use xlink:href="#DejaVuSans-72" x="379.6875"/>
       <use xlink:href="#DejaVuSans-20" x="420.800781"/>
       <use xlink:href="#DejaVuSans-49" x="452.587891"/>
      </g>
     </g>
    </g>
    <g id="xtick_18">
     <g id="line2d_26"/>
     <g id="text_26">
      <!-- Decoder J -->
      <g transform="translate(613.564792 570.177656)scale(0.15 -0.15)">
       <use xlink:href="#DejaVuSans-44"/>
       <use xlink:href="#DejaVuSans-65" x="77.001953"/>
       <use xlink:href="#DejaVuSans-63" x="138.525391"/>
       <use xlink:href="#DejaVuSans-6f" x="193.505859"/>
       <use xlink:href="#DejaVuSans-64" x="254.6875"/>
       <use xlink:href="#DejaVuSans-65" x="318.164062"/>
       <use xlink:href="#DejaVuSans-72" x="379.6875"/>
       <use xlink:href="#DejaVuSans-20" x="420.800781"/>
       <use xlink:href="#DejaVuSans-4a" x="452.587891"/>
      </g>
     </g>
    </g>
   </g>
   <g id="matplotlib.axis_6">
    <g id="ytick_7">
     <g id="line2d_27">
      <g>
       <use xlink:href="#md7bd1f593a" x="108" y="580.921002" style="stroke: #000000; stroke-width: 0.8"/>
      </g>
     </g>
     <g id="text_27">
      <!-- −1 -->
      <g transform="translate(86.257812 584.720221)scale(0.1 -0.1)">
       <use xlink:href="#DejaVuSans-2212"/>
       <use xlink:href="#DejaVuSans-31" x="83.789062"/>
      </g>
     </g>
    </g>
    <g id="ytick_8">
     <g id="line2d_28">
      <g>
       <use xlink:href="#md7bd1f593a" x="108" y="521.660262" style="stroke: #000000; stroke-width: 0.8"/>
      </g>
     </g>
     <g id="text_28">
      <!-- 0 -->
      <g transform="translate(94.6375 525.45948)scale(0.1 -0.1)">
       <use xlink:href="#DejaVuSans-30"/>
      </g>
     </g>
    </g>
    <g id="ytick_9">
     <g id="line2d_29">
      <g>
       <use xlink:href="#md7bd1f593a" x="108" y="462.399521" style="stroke: #000000; stroke-width: 0.8"/>
      </g>
     </g>
     <g id="text_29">
      <!-- 1 -->
      <g transform="translate(94.6375 466.19874)scale(0.1 -0.1)">
       <use xlink:href="#DejaVuSans-31"/>
      </g>
     </g>
    </g>
   </g>
   <g id="line2d_30">
    <path d="M 108 521.660262 
L 709.2 521.660262 
" clip-path="url(#p847aa71f6e)" style="fill: none; stroke: #000000; stroke-width: 0.8; stroke-linecap: square"/>
   </g>
   <g id="patch_25">
    <path d="M 108 633.78 
L 108 454.92 
" style="fill: none; stroke: #000000; stroke-width: 0.8; stroke-linejoin: miter; stroke-linecap: square"/>
   </g>
   <g id="text_30">
    <!-- R2 Value -->
    <g transform="translate(375.636328 448.92)scale(0.15 -0.15)">
     <defs>
      <path id="DejaVuSans-52" d="M 2841 2188 
Q 3044 2119 3236 1894 
Q 3428 1669 3622 1275 
L 4263 0 
L 3584 0 
L 2988 1197 
Q 2756 1666 2539 1819 
Q 2322 1972 1947 1972 
L 1259 1972 
L 1259 0 
L 628 0 
L 628 4666 
L 2053 4666 
Q 2853 4666 3247 4331 
Q 3641 3997 3641 3322 
Q 3641 2881 3436 2590 
Q 3231 2300 2841 2188 
z
M 1259 4147 
L 1259 2491 
L 2053 2491 
Q 2509 2491 2742 2702 
Q 2975 2913 2975 3322 
Q 2975 3731 2742 3939 
Q 2509 4147 2053 4147 
L 1259 4147 
z
" transform="scale(0.015625)"/>
      <path id="DejaVuSans-32" d="M 1228 531 
L 3431 531 
L 3431 0 
L 469 0 
L 469 531 
Q 828 903 1448 1529 
Q 2069 2156 2228 2338 
Q 2531 2678 2651 2914 
Q 2772 3150 2772 3378 
Q 2772 3750 2511 3984 
Q 2250 4219 1831 4219 
Q 1534 4219 1204 4116 
Q 875 4013 500 3803 
L 500 4441 
Q 881 4594 1212 4672 
Q 1544 4750 1819 4750 
Q 2544 4750 2975 4387 
Q 3406 4025 3406 3419 
Q 3406 3131 3298 2873 
Q 3191 2616 2906 2266 
Q 2828 2175 2409 1742 
Q 1991 1309 1228 531 
z
" transform="scale(0.015625)"/>
      <path id="DejaVuSans-56" d="M 1831 0 
L 50 4666 
L 709 4666 
L 2188 738 
L 3669 4666 
L 4325 4666 
L 2547 0 
L 1831 0 
z
" transform="scale(0.015625)"/>
     </defs>
     <use xlink:href="#DejaVuSans-52"/>
     <use xlink:href="#DejaVuSans-32" x="69.482422"/>
     <use xlink:href="#DejaVuSans-20" x="133.105469"/>
     <use xlink:href="#DejaVuSans-56" x="164.892578"/>
     <use xlink:href="#DejaVuSans-61" x="225.550781"/>
     <use xlink:href="#DejaVuSans-6c" x="286.830078"/>
     <use xlink:href="#DejaVuSans-75" x="314.613281"/>
     <use xlink:href="#DejaVuSans-65" x="377.992188"/>
    </g>
   </g>
  </g>
  <g id="axes_4">
   <g id="patch_26">
    <path d="M 108 847.08 
L 709.2 847.08 
L 709.2 668.22 
L 108 668.22 
z
" style="fill: #ffffff"/>
   </g>
   <g id="patch_27">
    <path d="M 135.327273 759.713321 
L 199.626738 759.713321 
L 199.626738 674.461828 
L 135.327273 674.461828 
z
" clip-path="url(#pe285a05d8f)" style="fill: #f50505"/>
   </g>
   <g id="patch_28">
    <path d="M 231.776471 759.713321 
L 296.075936 759.713321 
L 296.075936 701.867062 
L 231.776471 701.867062 
z
" clip-path="url(#pe285a05d8f)" style="fill: #3505f5"/>
   </g>
   <g id="patch_29">
    <path d="M 328.225668 759.713321 
L 392.525134 759.713321 
L 392.525134 741.6473 
L 328.225668 741.6473 
z
" clip-path="url(#pe285a05d8f)" style="fill: #02faf2"/>
   </g>
   <g id="patch_30">
    <path d="M 424.674866 759.713321 
L 488.974332 759.713321 
L 488.974332 672.576825 
L 424.674866 672.576825 
z
" clip-path="url(#pe285a05d8f)" style="fill: #f5ed05"/>
   </g>
   <g id="patch_31">
    <path d="M 521.124064 759.713321 
L 585.423529 759.713321 
L 585.423529 749.454086 
L 521.124064 749.454086 
z
" clip-path="url(#pe285a05d8f)" style="fill: #518e37"/>
   </g>
   <g id="patch_32">
    <path d="M 617.573262 759.713321 
L 681.872727 759.713321 
L 681.872727 749.840107 
L 617.573262 749.840107 
z
" clip-path="url(#pe285a05d8f)" style="fill: #ff14f2"/>
   </g>
   <g id="matplotlib.axis_7">
    <g id="xtick_19">
     <g id="line2d_31"/>
     <g id="text_31">
      <!-- Decoder E -->
      <g transform="translate(128.79224 783.477656)scale(0.15 -0.15)">
       <use xlink:href="#DejaVuSans-44"/>
       <use xlink:href="#DejaVuSans-65" x="77.001953"/>
       <use xlink:href="#DejaVuSans-63" x="138.525391"/>
       <use xlink:href="#DejaVuSans-6f" x="193.505859"/>
       <use xlink:href="#DejaVuSans-64" x="254.6875"/>
       <use xlink:href="#DejaVuSans-65" x="318.164062"/>
       <use xlink:href="#DejaVuSans-72" x="379.6875"/>
       <use xlink:href="#DejaVuSans-20" x="420.800781"/>
       <use xlink:href="#DejaVuSans-45" x="452.587891"/>
      </g>
     </g>
    </g>
    <g id="xtick_20">
     <g id="line2d_32"/>
     <g id="text_32">
      <!-- Decoder F -->
      <g transform="translate(225.666828 783.477656)scale(0.15 -0.15)">
       <use xlink:href="#DejaVuSans-44"/>
       <use xlink:href="#DejaVuSans-65" x="77.001953"/>
       <use xlink:href="#DejaVuSans-63" x="138.525391"/>
       <use xlink:href="#DejaVuSans-6f" x="193.505859"/>
       <use xlink:href="#DejaVuSans-64" x="254.6875"/>
       <use xlink:href="#DejaVuSans-65" x="318.164062"/>
       <use xlink:href="#DejaVuSans-72" x="379.6875"/>
       <use xlink:href="#DejaVuSans-20" x="420.800781"/>
       <use xlink:href="#DejaVuSans-46" x="452.587891"/>
      </g>
     </g>
    </g>
    <g id="xtick_21">
     <g id="line2d_33"/>
     <g id="text_33">
      <!-- Decoder G -->
      <g transform="translate(320.61837 783.477656)scale(0.15 -0.15)">
       <use xlink:href="#DejaVuSans-44"/>
       <use xlink:href="#DejaVuSans-65" x="77.001953"/>
       <use xlink:href="#DejaVuSans-63" x="138.525391"/>
       <use xlink:href="#DejaVuSans-6f" x="193.505859"/>
       <use xlink:href="#DejaVuSans-64" x="254.6875"/>
       <use xlink:href="#DejaVuSans-65" x="318.164062"/>
       <use xlink:href="#DejaVuSans-72" x="379.6875"/>
       <use xlink:href="#DejaVuSans-20" x="420.800781"/>
       <use xlink:href="#DejaVuSans-47" x="452.587891"/>
      </g>
     </g>
    </g>
    <g id="xtick_22">
     <g id="line2d_34"/>
     <g id="text_34">
      <!-- Decoder H -->
      <g transform="translate(417.238661 783.477656)scale(0.15 -0.15)">
       <use xlink:href="#DejaVuSans-44"/>
       <use xlink:href="#DejaVuSans-65" x="77.001953"/>
       <use xlink:href="#DejaVuSans-63" x="138.525391"/>
       <use xlink:href="#DejaVuSans-6f" x="193.505859"/>
       <use xlink:href="#DejaVuSans-64" x="254.6875"/>
       <use xlink:href="#DejaVuSans-65" x="318.164062"/>
       <use xlink:href="#DejaVuSans-72" x="379.6875"/>
       <use xlink:href="#DejaVuSans-20" x="420.800781"/>
       <use xlink:href="#DejaVuSans-48" x="452.587891"/>
      </g>
     </g>
    </g>
    <g id="xtick_23">
     <g id="line2d_35"/>
     <g id="text_35">
      <!-- Decoder I -->
      <g transform="translate(517.115594 783.477656)scale(0.15 -0.15)">
       <use xlink:href="#DejaVuSans-44"/>
       <use xlink:href="#DejaVuSans-65" x="77.001953"/>
       <use xlink:href="#DejaVuSans-63" x="138.525391"/>
       <use xlink:href="#DejaVuSans-6f" x="193.505859"/>
       <use xlink:href="#DejaVuSans-64" x="254.6875"/>
       <use xlink:href="#DejaVuSans-65" x="318.164062"/>
       <use xlink:href="#DejaVuSans-72" x="379.6875"/>
       <use xlink:href="#DejaVuSans-20" x="420.800781"/>
       <use xlink:href="#DejaVuSans-49" x="452.587891"/>
      </g>
     </g>
    </g>
    <g id="xtick_24">
     <g id="line2d_36"/>
     <g id="text_36">
      <!-- Decoder J -->
      <g transform="translate(613.564792 783.477656)scale(0.15 -0.15)">
       <use xlink:href="#DejaVuSans-44"/>
       <use xlink:href="#DejaVuSans-65" x="77.001953"/>
       <use xlink:href="#DejaVuSans-63" x="138.525391"/>
       <use xlink:href="#DejaVuSans-6f" x="193.505859"/>
       <use xlink:href="#DejaVuSans-64" x="254.6875"/>
       <use xlink:href="#DejaVuSans-65" x="318.164062"/>
       <use xlink:href="#DejaVuSans-72" x="379.6875"/>
       <use xlink:href="#DejaVuSans-20" x="420.800781"/>
       <use xlink:href="#DejaVuSans-4a" x="452.587891"/>
      </g>
     </g>
    </g>
   </g>
   <g id="matplotlib.axis_8">
    <g id="ytick_10">
     <g id="line2d_37">
      <g>
       <use xlink:href="#md7bd1f593a" x="108" y="847.08" style="stroke: #000000; stroke-width: 0.8"/>
      </g>
     </g>
     <g id="text_37">
      <!-- −1 -->
      <g transform="translate(86.257812 850.879219)scale(0.1 -0.1)">
       <use xlink:href="#DejaVuSans-2212"/>
       <use xlink:href="#DejaVuSans-31" x="83.789062"/>
      </g>
     </g>
    </g>
    <g id="ytick_11">
     <g id="line2d_38">
      <g>
       <use xlink:href="#md7bd1f593a" x="108" y="759.713321" style="stroke: #000000; stroke-width: 0.8"/>
      </g>
     </g>
     <g id="text_38">
      <!-- 0 -->
      <g transform="translate(94.6375 763.51254)scale(0.1 -0.1)">
       <use xlink:href="#DejaVuSans-30"/>
      </g>
     </g>
    </g>
    <g id="ytick_12">
     <g id="line2d_39">
      <g>
       <use xlink:href="#md7bd1f593a" x="108" y="672.346642" style="stroke: #000000; stroke-width: 0.8"/>
      </g>
     </g>
     <g id="text_39">
      <!-- 1 -->
      <g transform="translate(94.6375 676.145861)scale(0.1 -0.1)">
       <use xlink:href="#DejaVuSans-31"/>
      </g>
     </g>
    </g>
   </g>
   <g id="line2d_40">
    <path d="M 108 759.713321 
L 709.2 759.713321 
" clip-path="url(#pe285a05d8f)" style="fill: none; stroke: #000000; stroke-width: 0.8; stroke-linecap: square"/>
   </g>
   <g id="patch_33">
    <path d="M 108 847.08 
L 108 668.22 
" style="fill: none; stroke: #000000; stroke-width: 0.8; stroke-linejoin: miter; stroke-linecap: square"/>
   </g>
   <g id="text_40">
    <!-- R2 Offset Adjusted value  -->
    <g transform="translate(313.128516 662.22)scale(0.15 -0.15)">
     <defs>
      <path id="DejaVuSans-4f" d="M 2522 4238 
Q 1834 4238 1429 3725 
Q 1025 3213 1025 2328 
Q 1025 1447 1429 934 
Q 1834 422 2522 422 
Q 3209 422 3611 934 
Q 4013 1447 4013 2328 
Q 4013 3213 3611 3725 
Q 3209 4238 2522 4238 
z
M 2522 4750 
Q 3503 4750 4090 4092 
Q 4678 3434 4678 2328 
Q 4678 1225 4090 567 
Q 3503 -91 2522 -91 
Q 1538 -91 948 565 
Q 359 1222 359 2328 
Q 359 3434 948 4092 
Q 1538 4750 2522 4750 
z
" transform="scale(0.015625)"/>
      <path id="DejaVuSans-66" d="M 2375 4863 
L 2375 4384 
L 1825 4384 
Q 1516 4384 1395 4259 
Q 1275 4134 1275 3809 
L 1275 3500 
L 2222 3500 
L 2222 3053 
L 1275 3053 
L 1275 0 
L 697 0 
L 697 3053 
L 147 3053 
L 147 3500 
L 697 3500 
L 697 3744 
Q 697 4328 969 4595 
Q 1241 4863 1831 4863 
L 2375 4863 
z
" transform="scale(0.015625)"/>
      <path id="DejaVuSans-73" d="M 2834 3397 
L 2834 2853 
Q 2591 2978 2328 3040 
Q 2066 3103 1784 3103 
Q 1356 3103 1142 2972 
Q 928 2841 928 2578 
Q 928 2378 1081 2264 
Q 1234 2150 1697 2047 
L 1894 2003 
Q 2506 1872 2764 1633 
Q 3022 1394 3022 966 
Q 3022 478 2636 193 
Q 2250 -91 1575 -91 
Q 1294 -91 989 -36 
Q 684 19 347 128 
L 347 722 
Q 666 556 975 473 
Q 1284 391 1588 391 
Q 1994 391 2212 530 
Q 2431 669 2431 922 
Q 2431 1156 2273 1281 
Q 2116 1406 1581 1522 
L 1381 1569 
Q 847 1681 609 1914 
Q 372 2147 372 2553 
Q 372 3047 722 3315 
Q 1072 3584 1716 3584 
Q 2034 3584 2315 3537 
Q 2597 3491 2834 3397 
z
" transform="scale(0.015625)"/>
      <path id="DejaVuSans-6a" d="M 603 3500 
L 1178 3500 
L 1178 -63 
Q 1178 -731 923 -1031 
Q 669 -1331 103 -1331 
L -116 -1331 
L -116 -844 
L 38 -844 
Q 366 -844 484 -692 
Q 603 -541 603 -63 
L 603 3500 
z
M 603 4863 
L 1178 4863 
L 1178 4134 
L 603 4134 
L 603 4863 
z
" transform="scale(0.015625)"/>
      <path id="DejaVuSans-76" d="M 191 3500 
L 800 3500 
L 1894 563 
L 2988 3500 
L 3597 3500 
L 2284 0 
L 1503 0 
L 191 3500 
z
" transform="scale(0.015625)"/>
     </defs>
     <use xlink:href="#DejaVuSans-52"/>
     <use xlink:href="#DejaVuSans-32" x="69.482422"/>
     <use xlink:href="#DejaVuSans-20" x="133.105469"/>
     <use xlink:href="#DejaVuSans-4f" x="164.892578"/>
     <use xlink:href="#DejaVuSans-66" x="243.603516"/>
     <use xlink:href="#DejaVuSans-66" x="278.808594"/>
     <use xlink:href="#DejaVuSans-73" x="314.013672"/>
     <use xlink:href="#DejaVuSans-65" x="366.113281"/>
     <use xlink:href="#DejaVuSans-74" x="427.636719"/>
     <use xlink:href="#DejaVuSans-20" x="466.845703"/>
     <use xlink:href="#DejaVuSans-41" x="498.632812"/>
     <use xlink:href="#DejaVuSans-64" x="565.291016"/>
     <use xlink:href="#DejaVuSans-6a" x="628.767578"/>
     <use xlink:href="#DejaVuSans-75" x="656.550781"/>
     <use xlink:href="#DejaVuSans-73" x="719.929688"/>
     <use xlink:href="#DejaVuSans-74" x="772.029297"/>
     <use xlink:href="#DejaVuSans-65" x="811.238281"/>
     <use xlink:href="#DejaVuSans-64" x="872.761719"/>
     <use xlink:href="#DejaVuSans-20" x="936.238281"/>
     <use xlink:href="#DejaVuSans-76" x="968.025391"/>
     <use xlink:href="#DejaVuSans-61" x="1027.205078"/>
     <use xlink:href="#DejaVuSans-6c" x="1088.484375"/>
     <use xlink:href="#DejaVuSans-75" x="1116.267578"/>
     <use xlink:href="#DejaVuSans-65" x="1179.646484"/>
     <use xlink:href="#DejaVuSans-20" x="1241.169922"/>
    </g>
   </g>
  </g>
  <g id="text_41">
   <!-- Metric Normalised Value -->
   <g transform="translate(40.139062 523.184766)rotate(-90)scale(0.15 -0.15)">
    <defs>
     <path id="DejaVuSans-4e" d="M 628 4666 
L 1478 4666 
L 3547 763 
L 3547 4666 
L 4159 4666 
L 4159 0 
L 3309 0 
L 1241 3903 
L 1241 0 
L 628 0 
L 628 4666 
z
" transform="scale(0.015625)"/>
     <path id="DejaVuSans-6d" d="M 3328 2828 
Q 3544 3216 3844 3400 
Q 4144 3584 4550 3584 
Q 5097 3584 5394 3201 
Q 5691 2819 5691 2113 
L 5691 0 
L 5113 0 
L 5113 2094 
Q 5113 2597 4934 2840 
Q 4756 3084 4391 3084 
Q 3944 3084 3684 2787 
Q 3425 2491 3425 1978 
L 3425 0 
L 2847 0 
L 2847 2094 
Q 2847 2600 2669 2842 
Q 2491 3084 2119 3084 
Q 1678 3084 1418 2786 
Q 1159 2488 1159 1978 
L 1159 0 
L 581 0 
L 581 3500 
L 1159 3500 
L 1159 2956 
Q 1356 3278 1631 3431 
Q 1906 3584 2284 3584 
Q 2666 3584 2933 3390 
Q 3200 3197 3328 2828 
z
" transform="scale(0.015625)"/>
    </defs>
    <use xlink:href="#DejaVuSans-4d"/>
    <use xlink:href="#DejaVuSans-65" x="86.279297"/>
    <use xlink:href="#DejaVuSans-74" x="147.802734"/>
    <use xlink:href="#DejaVuSans-72" x="187.011719"/>
    <use xlink:href="#DejaVuSans-69" x="228.125"/>
    <use xlink:href="#DejaVuSans-63" x="255.908203"/>
    <use xlink:href="#DejaVuSans-20" x="310.888672"/>
    <use xlink:href="#DejaVuSans-4e" x="342.675781"/>
    <use xlink:href="#DejaVuSans-6f" x="417.480469"/>
    <use xlink:href="#DejaVuSans-72" x="478.662109"/>
    <use xlink:href="#DejaVuSans-6d" x="518.025391"/>
    <use xlink:href="#DejaVuSans-61" x="615.4375"/>
    <use xlink:href="#DejaVuSans-6c" x="676.716797"/>
    <use xlink:href="#DejaVuSans-69" x="704.5"/>
    <use xlink:href="#DejaVuSans-73" x="732.283203"/>
    <use xlink:href="#DejaVuSans-65" x="784.382812"/>
    <use xlink:href="#DejaVuSans-64" x="845.90625"/>
    <use xlink:href="#DejaVuSans-20" x="909.382812"/>
    <use xlink:href="#DejaVuSans-56" x="941.169922"/>
    <use xlink:href="#DejaVuSans-61" x="1001.828125"/>
    <use xlink:href="#DejaVuSans-6c" x="1063.107422"/>
    <use xlink:href="#DejaVuSans-75" x="1090.890625"/>
    <use xlink:href="#DejaVuSans-65" x="1154.269531"/>
   </g>
  </g>
 </g>
 <defs>
  <clipPath id="p06f14f9000">
   <rect x="108" y="28.32" width="601.2" height="178.86"/>
  </clipPath>
  <clipPath id="p86a132cfa6">
   <rect x="108" y="241.62" width="601.2" height="178.86"/>
  </clipPath>
  <clipPath id="p847aa71f6e">
   <rect x="108" y="454.92" width="601.2" height="178.86"/>
  </clipPath>
  <clipPath id="pe285a05d8f">
   <rect x="108" y="668.22" width="601.2" height="178.86"/>
  </clipPath>
 </defs>
</svg>
