<?xml version="1.0" encoding="utf-8" standalone="no"?>
<!DOCTYPE svg PUBLIC "-//W3C//DTD SVG 1.1//EN"
  "http://www.w3.org/Graphics/SVG/1.1/DTD/svg11.dtd">
<svg xmlns:xlink="http://www.w3.org/1999/xlink" width="460.8pt" height="345.6pt" viewBox="0 0 460.8 345.6" xmlns="http://www.w3.org/2000/svg" version="1.1">
 <metadata>
  <rdf:RDF xmlns:dc="http://purl.org/dc/elements/1.1/" xmlns:cc="http://creativecommons.org/ns#" xmlns:rdf="http://www.w3.org/1999/02/22-rdf-syntax-ns#">
   <cc:Work>
    <dc:type rdf:resource="http://purl.org/dc/dcmitype/StillImage"/>
    <dc:date>2024-01-16T22:30:39.506185</dc:date>
    <dc:format>image/svg+xml</dc:format>
    <dc:creator>
     <cc:Agent>
      <dc:title>Matplotlib v3.5.0, https://matplotlib.org/</dc:title>
     </cc:Agent>
    </dc:creator>
   </cc:Work>
  </rdf:RDF>
 </metadata>
 <defs>
  <style type="text/css">*{stroke-linejoin: round; stroke-linecap: butt}</style>
 </defs>
 <g id="figure_1">
  <g id="patch_1">
   <path d="M 0 345.6 
L 460.8 345.6 
L 460.8 0 
L 0 0 
z
" style="fill: #ffffff"/>
  </g>
  <g id="axes_1">
   <g id="patch_2">
    <path d="M 57.6 307.584 
L 414.72 307.584 
L 414.72 41.472 
L 57.6 41.472 
z
" style="fill: #ffffff"/>
   </g>
   <g id="matplotlib.axis_1">
    <g id="xtick_1">
     <g id="line2d_1">
      <defs>
       <path id="m5adc9f53c3" d="M 0 0 
L 0 3.5 
" style="stroke: #000000; stroke-width: 0.8"/>
      </defs>
      <g>
       <use xlink:href="#m5adc9f53c3" x="57.6" y="307.584" style="stroke: #000000; stroke-width: 0.8"/>
      </g>
     </g>
     <g id="text_1">
      <!-- 0 -->
      <g transform="translate(51.2375 329.780875)scale(0.2 -0.2)">
       <defs>
        <path id="DejaVuSans-30" d="M 2034 4250 
Q 1547 4250 1301 3770 
Q 1056 3291 1056 2328 
Q 1056 1369 1301 889 
Q 1547 409 2034 409 
Q 2525 409 2770 889 
Q 3016 1369 3016 2328 
Q 3016 3291 2770 3770 
Q 2525 4250 2034 4250 
z
M 2034 4750 
Q 2819 4750 3233 4129 
Q 3647 3509 3647 2328 
Q 3647 1150 3233 529 
Q 2819 -91 2034 -91 
Q 1250 -91 836 529 
Q 422 1150 422 2328 
Q 422 3509 836 4129 
Q 1250 4750 2034 4750 
z
" transform="scale(0.015625)"/>
       </defs>
       <use xlink:href="#DejaVuSans-30"/>
      </g>
     </g>
    </g>
    <g id="xtick_2">
     <g id="line2d_2">
      <g>
       <use xlink:href="#m5adc9f53c3" x="414.72" y="307.584" style="stroke: #000000; stroke-width: 0.8"/>
      </g>
     </g>
     <g id="text_2">
      <!-- 1 -->
      <g transform="translate(408.3575 329.780875)scale(0.2 -0.2)">
       <defs>
        <path id="DejaVuSans-31" d="M 794 531 
L 1825 531 
L 1825 4091 
L 703 3866 
L 703 4441 
L 1819 4666 
L 2450 4666 
L 2450 531 
L 3481 531 
L 3481 0 
L 794 0 
L 794 531 
z
" transform="scale(0.015625)"/>
       </defs>
       <use xlink:href="#DejaVuSans-31"/>
      </g>
     </g>
    </g>
    <g id="text_3">
     <!-- Normalised X position -->
     <g transform="translate(111.795937 353.137125)scale(0.2 -0.2)">
      <defs>
       <path id="DejaVuSans-Bold-4e" d="M 588 4666 
L 1931 4666 
L 3628 1466 
L 3628 4666 
L 4769 4666 
L 4769 0 
L 3425 0 
L 1728 3200 
L 1728 0 
L 588 0 
L 588 4666 
z
" transform="scale(0.015625)"/>
       <path id="DejaVuSans-Bold-6f" d="M 2203 2784 
Q 1831 2784 1636 2517 
Q 1441 2250 1441 1747 
Q 1441 1244 1636 976 
Q 1831 709 2203 709 
Q 2569 709 2762 976 
Q 2956 1244 2956 1747 
Q 2956 2250 2762 2517 
Q 2569 2784 2203 2784 
z
M 2203 3584 
Q 3106 3584 3614 3096 
Q 4122 2609 4122 1747 
Q 4122 884 3614 396 
Q 3106 -91 2203 -91 
Q 1297 -91 786 396 
Q 275 884 275 1747 
Q 275 2609 786 3096 
Q 1297 3584 2203 3584 
z
" transform="scale(0.015625)"/>
       <path id="DejaVuSans-Bold-72" d="M 3138 2547 
Q 2991 2616 2845 2648 
Q 2700 2681 2553 2681 
Q 2122 2681 1889 2404 
Q 1656 2128 1656 1613 
L 1656 0 
L 538 0 
L 538 3500 
L 1656 3500 
L 1656 2925 
Q 1872 3269 2151 3426 
Q 2431 3584 2822 3584 
Q 2878 3584 2943 3579 
Q 3009 3575 3134 3559 
L 3138 2547 
z
" transform="scale(0.015625)"/>
       <path id="DejaVuSans-Bold-6d" d="M 3781 2919 
Q 3994 3244 4286 3414 
Q 4578 3584 4928 3584 
Q 5531 3584 5847 3212 
Q 6163 2841 6163 2131 
L 6163 0 
L 5038 0 
L 5038 1825 
Q 5041 1866 5042 1909 
Q 5044 1953 5044 2034 
Q 5044 2406 4934 2573 
Q 4825 2741 4581 2741 
Q 4263 2741 4089 2478 
Q 3916 2216 3909 1719 
L 3909 0 
L 2784 0 
L 2784 1825 
Q 2784 2406 2684 2573 
Q 2584 2741 2328 2741 
Q 2006 2741 1831 2477 
Q 1656 2213 1656 1722 
L 1656 0 
L 531 0 
L 531 3500 
L 1656 3500 
L 1656 2988 
Q 1863 3284 2130 3434 
Q 2397 3584 2719 3584 
Q 3081 3584 3359 3409 
Q 3638 3234 3781 2919 
z
" transform="scale(0.015625)"/>
       <path id="DejaVuSans-Bold-61" d="M 2106 1575 
Q 1756 1575 1579 1456 
Q 1403 1338 1403 1106 
Q 1403 894 1545 773 
Q 1688 653 1941 653 
Q 2256 653 2472 879 
Q 2688 1106 2688 1447 
L 2688 1575 
L 2106 1575 
z
M 3816 1997 
L 3816 0 
L 2688 0 
L 2688 519 
Q 2463 200 2181 54 
Q 1900 -91 1497 -91 
Q 953 -91 614 226 
Q 275 544 275 1050 
Q 275 1666 698 1953 
Q 1122 2241 2028 2241 
L 2688 2241 
L 2688 2328 
Q 2688 2594 2478 2717 
Q 2269 2841 1825 2841 
Q 1466 2841 1156 2769 
Q 847 2697 581 2553 
L 581 3406 
Q 941 3494 1303 3539 
Q 1666 3584 2028 3584 
Q 2975 3584 3395 3211 
Q 3816 2838 3816 1997 
z
" transform="scale(0.015625)"/>
       <path id="DejaVuSans-Bold-6c" d="M 538 4863 
L 1656 4863 
L 1656 0 
L 538 0 
L 538 4863 
z
" transform="scale(0.015625)"/>
       <path id="DejaVuSans-Bold-69" d="M 538 3500 
L 1656 3500 
L 1656 0 
L 538 0 
L 538 3500 
z
M 538 4863 
L 1656 4863 
L 1656 3950 
L 538 3950 
L 538 4863 
z
" transform="scale(0.015625)"/>
       <path id="DejaVuSans-Bold-73" d="M 3272 3391 
L 3272 2541 
Q 2913 2691 2578 2766 
Q 2244 2841 1947 2841 
Q 1628 2841 1473 2761 
Q 1319 2681 1319 2516 
Q 1319 2381 1436 2309 
Q 1553 2238 1856 2203 
L 2053 2175 
Q 2913 2066 3209 1816 
Q 3506 1566 3506 1031 
Q 3506 472 3093 190 
Q 2681 -91 1863 -91 
Q 1516 -91 1145 -36 
Q 775 19 384 128 
L 384 978 
Q 719 816 1070 734 
Q 1422 653 1784 653 
Q 2113 653 2278 743 
Q 2444 834 2444 1013 
Q 2444 1163 2330 1236 
Q 2216 1309 1875 1350 
L 1678 1375 
Q 931 1469 631 1722 
Q 331 1975 331 2491 
Q 331 3047 712 3315 
Q 1094 3584 1881 3584 
Q 2191 3584 2531 3537 
Q 2872 3491 3272 3391 
z
" transform="scale(0.015625)"/>
       <path id="DejaVuSans-Bold-65" d="M 4031 1759 
L 4031 1441 
L 1416 1441 
Q 1456 1047 1700 850 
Q 1944 653 2381 653 
Q 2734 653 3104 758 
Q 3475 863 3866 1075 
L 3866 213 
Q 3469 63 3072 -14 
Q 2675 -91 2278 -91 
Q 1328 -91 801 392 
Q 275 875 275 1747 
Q 275 2603 792 3093 
Q 1309 3584 2216 3584 
Q 3041 3584 3536 3087 
Q 4031 2591 4031 1759 
z
M 2881 2131 
Q 2881 2450 2695 2645 
Q 2509 2841 2209 2841 
Q 1884 2841 1681 2658 
Q 1478 2475 1428 2131 
L 2881 2131 
z
" transform="scale(0.015625)"/>
       <path id="DejaVuSans-Bold-64" d="M 2919 2988 
L 2919 4863 
L 4044 4863 
L 4044 0 
L 2919 0 
L 2919 506 
Q 2688 197 2409 53 
Q 2131 -91 1766 -91 
Q 1119 -91 703 423 
Q 288 938 288 1747 
Q 288 2556 703 3070 
Q 1119 3584 1766 3584 
Q 2128 3584 2408 3439 
Q 2688 3294 2919 2988 
z
M 2181 722 
Q 2541 722 2730 984 
Q 2919 1247 2919 1747 
Q 2919 2247 2730 2509 
Q 2541 2772 2181 2772 
Q 1825 2772 1636 2509 
Q 1447 2247 1447 1747 
Q 1447 1247 1636 984 
Q 1825 722 2181 722 
z
" transform="scale(0.015625)"/>
       <path id="DejaVuSans-Bold-20" transform="scale(0.015625)"/>
       <path id="DejaVuSans-Bold-58" d="M 3188 2381 
L 4806 0 
L 3553 0 
L 2463 1594 
L 1381 0 
L 122 0 
L 1741 2381 
L 184 4666 
L 1441 4666 
L 2463 3163 
L 3481 4666 
L 4744 4666 
L 3188 2381 
z
" transform="scale(0.015625)"/>
       <path id="DejaVuSans-Bold-70" d="M 1656 506 
L 1656 -1331 
L 538 -1331 
L 538 3500 
L 1656 3500 
L 1656 2988 
Q 1888 3294 2169 3439 
Q 2450 3584 2816 3584 
Q 3463 3584 3878 3070 
Q 4294 2556 4294 1747 
Q 4294 938 3878 423 
Q 3463 -91 2816 -91 
Q 2450 -91 2169 54 
Q 1888 200 1656 506 
z
M 2400 2772 
Q 2041 2772 1848 2508 
Q 1656 2244 1656 1747 
Q 1656 1250 1848 986 
Q 2041 722 2400 722 
Q 2759 722 2948 984 
Q 3138 1247 3138 1747 
Q 3138 2247 2948 2509 
Q 2759 2772 2400 2772 
z
" transform="scale(0.015625)"/>
       <path id="DejaVuSans-Bold-74" d="M 1759 4494 
L 1759 3500 
L 2913 3500 
L 2913 2700 
L 1759 2700 
L 1759 1216 
Q 1759 972 1856 886 
Q 1953 800 2241 800 
L 2816 800 
L 2816 0 
L 1856 0 
Q 1194 0 917 276 
Q 641 553 641 1216 
L 641 2700 
L 84 2700 
L 84 3500 
L 641 3500 
L 641 4494 
L 1759 4494 
z
" transform="scale(0.015625)"/>
       <path id="DejaVuSans-Bold-6e" d="M 4056 2131 
L 4056 0 
L 2931 0 
L 2931 347 
L 2931 1631 
Q 2931 2084 2911 2256 
Q 2891 2428 2841 2509 
Q 2775 2619 2662 2680 
Q 2550 2741 2406 2741 
Q 2056 2741 1856 2470 
Q 1656 2200 1656 1722 
L 1656 0 
L 538 0 
L 538 3500 
L 1656 3500 
L 1656 2988 
Q 1909 3294 2193 3439 
Q 2478 3584 2822 3584 
Q 3428 3584 3742 3212 
Q 4056 2841 4056 2131 
z
" transform="scale(0.015625)"/>
      </defs>
      <use xlink:href="#DejaVuSans-Bold-4e"/>
      <use xlink:href="#DejaVuSans-Bold-6f" x="83.691406"/>
      <use xlink:href="#DejaVuSans-Bold-72" x="152.392578"/>
      <use xlink:href="#DejaVuSans-Bold-6d" x="201.708984"/>
      <use xlink:href="#DejaVuSans-Bold-61" x="305.908203"/>
      <use xlink:href="#DejaVuSans-Bold-6c" x="373.388672"/>
      <use xlink:href="#DejaVuSans-Bold-69" x="407.666016"/>
      <use xlink:href="#DejaVuSans-Bold-73" x="441.943359"/>
      <use xlink:href="#DejaVuSans-Bold-65" x="501.464844"/>
      <use xlink:href="#DejaVuSans-Bold-64" x="569.287109"/>
      <use xlink:href="#DejaVuSans-Bold-20" x="640.869141"/>
      <use xlink:href="#DejaVuSans-Bold-58" x="675.683594"/>
      <use xlink:href="#DejaVuSans-Bold-20" x="752.783203"/>
      <use xlink:href="#DejaVuSans-Bold-70" x="787.597656"/>
      <use xlink:href="#DejaVuSans-Bold-6f" x="859.179688"/>
      <use xlink:href="#DejaVuSans-Bold-73" x="927.880859"/>
      <use xlink:href="#DejaVuSans-Bold-69" x="987.402344"/>
      <use xlink:href="#DejaVuSans-Bold-74" x="1021.679688"/>
      <use xlink:href="#DejaVuSans-Bold-69" x="1069.482422"/>
      <use xlink:href="#DejaVuSans-Bold-6f" x="1103.759766"/>
      <use xlink:href="#DejaVuSans-Bold-6e" x="1172.460938"/>
     </g>
    </g>
   </g>
   <g id="matplotlib.axis_2">
    <g id="ytick_1">
     <g id="line2d_3">
      <defs>
       <path id="m85cad83f77" d="M 0 0 
L -3.5 0 
" style="stroke: #000000; stroke-width: 0.8"/>
      </defs>
      <g>
       <use xlink:href="#m85cad83f77" x="57.6" y="298.745686" style="stroke: #000000; stroke-width: 0.8"/>
      </g>
     </g>
     <g id="text_4">
      <!-- 0 -->
      <g transform="translate(37.875 306.344124)scale(0.2 -0.2)">
       <use xlink:href="#DejaVuSans-30"/>
      </g>
     </g>
    </g>
    <g id="ytick_2">
     <g id="line2d_4">
      <g>
       <use xlink:href="#m85cad83f77" x="57.6" y="41.472" style="stroke: #000000; stroke-width: 0.8"/>
      </g>
     </g>
     <g id="text_5">
      <!-- 1 -->
      <g transform="translate(37.875 49.070437)scale(0.2 -0.2)">
       <use xlink:href="#DejaVuSans-31"/>
      </g>
     </g>
    </g>
    <g id="text_6">
     <!-- Normalised Y position -->
     <g transform="translate(29.715625 298.423313)rotate(-90)scale(0.2 -0.2)">
      <defs>
       <path id="DejaVuSans-Bold-59" d="M -63 4666 
L 1253 4666 
L 2316 3003 
L 3378 4666 
L 4697 4666 
L 2919 1966 
L 2919 0 
L 1716 0 
L 1716 1966 
L -63 4666 
z
" transform="scale(0.015625)"/>
      </defs>
      <use xlink:href="#DejaVuSans-Bold-4e"/>
      <use xlink:href="#DejaVuSans-Bold-6f" x="83.691406"/>
      <use xlink:href="#DejaVuSans-Bold-72" x="152.392578"/>
      <use xlink:href="#DejaVuSans-Bold-6d" x="201.708984"/>
      <use xlink:href="#DejaVuSans-Bold-61" x="305.908203"/>
      <use xlink:href="#DejaVuSans-Bold-6c" x="373.388672"/>
      <use xlink:href="#DejaVuSans-Bold-69" x="407.666016"/>
      <use xlink:href="#DejaVuSans-Bold-73" x="441.943359"/>
      <use xlink:href="#DejaVuSans-Bold-65" x="501.464844"/>
      <use xlink:href="#DejaVuSans-Bold-64" x="569.287109"/>
      <use xlink:href="#DejaVuSans-Bold-20" x="640.869141"/>
      <use xlink:href="#DejaVuSans-Bold-59" x="675.683594"/>
      <use xlink:href="#DejaVuSans-Bold-20" x="748.095703"/>
      <use xlink:href="#DejaVuSans-Bold-70" x="782.910156"/>
      <use xlink:href="#DejaVuSans-Bold-6f" x="854.492188"/>
      <use xlink:href="#DejaVuSans-Bold-73" x="923.193359"/>
      <use xlink:href="#DejaVuSans-Bold-69" x="982.714844"/>
      <use xlink:href="#DejaVuSans-Bold-74" x="1016.992188"/>
      <use xlink:href="#DejaVuSans-Bold-69" x="1064.794922"/>
      <use xlink:href="#DejaVuSans-Bold-6f" x="1099.072266"/>
      <use xlink:href="#DejaVuSans-Bold-6e" x="1167.773438"/>
     </g>
    </g>
   </g>
   <g id="line2d_5">
    <path d="M 275.034686 215.438016 
L 275.411197 214.737952 
L 275.975962 215.087984 
L 276.540727 217.53821 
L 277.105493 218.588306 
L 277.482003 218.238274 
L 278.611534 218.238274 
L 278.799789 217.888242 
L 280.870596 217.888242 
L 281.247106 217.53821 
L 281.435361 217.53821 
L 281.811871 217.888242 
L 283.317912 217.888242 
L 283.317912 218.238274 
L 283.506168 218.238274 
L 283.506168 218.238274 
L 283.694423 218.588306 
L 283.694423 218.588306 
L 283.882678 218.588306 
L 283.882678 218.588306 
L 284.070933 218.938339 
L 284.070933 218.938339 
L 284.259188 218.938339 
L 284.447443 219.288371 
L 284.635698 218.938339 
L 287.459526 218.938339 
L 288.024291 219.288371 
L 288.589056 219.288371 
L 290.095098 219.988435 
L 290.848118 219.988435 
L 291.601139 220.338468 
L 292.165904 220.338468 
L 293.295435 220.6885 
L 294.236711 220.6885 
L 294.989731 221.038532 
L 296.872283 221.038532 
L 297.437048 221.388564 
L 298.566579 221.388564 
L 299.507855 221.038532 
L 300.637385 222.088629 
L 301.766916 222.788693 
L 302.708192 223.138725 
L 303.649468 223.138725 
L 305.532019 223.83879 
L 306.849805 225.238919 
L 308.920611 225.938983 
L 313.062225 225.938983 
L 314.0035 226.289015 
L 316.262562 226.289015 
L 317.392093 226.639048 
L 318.521624 226.639048 
L 319.651154 226.98908 
L 325.863574 226.98908 
L 327.369615 226.639048 
L 329.628677 226.639048 
L 330.758208 226.289015 
L 331.699483 226.289015 
L 332.640759 225.938983 
L 333.77029 225.938983 
L 334.711566 225.588951 
L 338.288413 225.588951 
L 339.041434 225.238919 
L 339.606199 224.538854 
L 340.923985 223.83879 
L 341.677006 223.83879 
L 342.241771 223.488758 
L 343.183047 223.488758 
L 343.747812 223.138725 
L 346.006874 223.138725 
L 346.006874 223.138725 
L 346.006874 223.488758 
L 346.006874 223.488758 
L 345.818619 223.83879 
L 345.253853 223.83879 
L 344.877343 224.188822 
L 344.312578 224.188822 
L 343.936067 224.538854 
L 343.183047 224.538854 
L 342.806537 224.888887 
L 341.865261 224.888887 
L 341.865261 224.888887 
L 341.488751 225.238919 
L 340.170965 225.238919 
L 339.794454 225.588951 
L 335.652841 225.588951 
L 335.464586 225.238919 
L 335.276331 225.238919 
L 335.841096 225.238919 
L 336.217607 225.588951 
L 336.594117 225.238919 
L 339.041434 225.238919 
L 340.547475 224.188822 
L 341.488751 223.83879 
L 342.241771 223.138725 
L 342.994792 222.788693 
L 344.877343 221.388564 
L 345.630364 221.038532 
L 346.383384 220.338468 
L 347.136405 219.988435 
L 347.70117 219.288371 
L 349.771977 218.238274 
L 350.336742 217.53821 
L 351.842783 216.488113 
L 352.407549 215.788049 
L 353.348824 215.087984 
L 353.725335 214.38792 
L 354.854866 213.337823 
L 355.043121 212.987791 
L 355.231376 212.987791 
L 355.419631 212.637759 
L 355.607886 212.637759 
L 355.796141 212.287726 
L 355.984396 212.287726 
L 356.360907 212.987791 
L 356.360907 212.987791 
L 356.360907 214.037888 
L 356.172652 214.38792 
L 355.984396 214.38792 
L 355.984396 214.737952 
L 353.348824 214.737952 
L 353.160569 215.087984 
L 352.784059 215.087984 
L 352.595804 215.438016 
L 352.219294 215.788049 
L 352.031038 216.138081 
L 351.842783 216.138081 
L 351.278018 216.838145 
L 350.901508 216.838145 
L 349.018956 218.588306 
L 348.642446 218.588306 
L 346.94815 219.638403 
L 345.442109 219.638403 
L 345.065598 219.988435 
L 344.877343 219.638403 
L 344.500833 219.988435 
L 344.312578 219.638403 
L 343.936067 219.638403 
L 343.936067 219.638403 
L 343.371302 218.588306 
L 343.559557 218.588306 
L 343.559557 218.238274 
L 343.559557 218.238274 
L 343.371302 217.888242 
L 344.312578 216.138081 
L 344.312578 216.138081 
L 344.689088 216.138081 
L 344.877343 215.788049 
L 346.195129 215.788049 
L 346.195129 215.788049 
L 346.195129 216.488113 
L 346.195129 216.488113 
L 346.006874 216.488113 
L 346.006874 216.838145 
L 345.818619 216.838145 
L 345.818619 217.188178 
L 345.442109 217.188178 
L 345.253853 217.53821 
L 344.312578 217.53821 
L 343.936067 217.188178 
L 341.488751 217.188178 
L 341.11224 216.838145 
L 340.73573 216.838145 
L 340.547475 216.488113 
L 340.35922 216.488113 
L 339.794454 215.438016 
L 339.794454 214.38792 
L 339.98271 214.037888 
L 339.98271 213.687855 
L 340.35922 212.987791 
L 340.35922 212.287726 
L 340.73573 211.937694 
L 341.11224 211.23763 
L 341.865261 210.537565 
L 342.241771 209.837501 
L 342.618281 209.487469 
L 342.806537 209.137436 
L 343.559557 208.437372 
L 343.936067 207.737307 
L 345.442109 206.337179 
L 345.630364 205.987146 
L 346.006874 205.637114 
L 346.383384 204.93705 
L 346.571639 204.93705 
L 346.571639 204.587017 
L 346.759895 204.236985 
L 346.759895 204.236985 
L 346.759895 205.987146 
L 346.94815 205.987146 
L 346.94815 206.337179 
L 347.136405 206.687211 
L 347.136405 207.037243 
L 349.583722 215.788049 
L 349.771977 216.138081 
L 349.771977 216.488113 
L 349.960232 216.488113 
L 349.960232 216.838145 
L 350.336742 217.53821 
L 350.336742 217.888242 
L 350.524997 217.888242 
L 350.524997 218.238274 
L 350.713253 218.588306 
L 350.901508 218.588306 
L 350.901508 218.938339 
L 351.089763 219.288371 
L 350.713253 216.838145 
L 350.901508 217.53821 
L 351.089763 217.888242 
L 351.089763 217.888242 
L 351.089763 217.53821 
L 351.089763 217.888242 
L 351.278018 217.888242 
L 351.278018 217.888242 
L 351.278018 217.53821 
L 351.278018 217.53821 
L 351.466273 217.53821 
L 351.466273 217.53821 
L 351.654528 219.638403 
L 351.466273 218.938339 
L 351.654528 218.588306 
L 351.654528 218.588306 
L 351.654528 218.238274 
L 351.654528 218.588306 
L 351.466273 218.588306 
L 351.466273 218.588306 
L 351.466273 218.938339 
L 351.466273 218.938339 
L 351.278018 219.288371 
L 351.278018 219.288371 
L 351.089763 219.288371 
L 351.089763 219.638403 
L 350.901508 219.638403 
L 350.901508 219.988435 
L 350.713253 220.338468 
L 350.524997 220.338468 
L 350.336742 220.6885 
L 350.336742 220.6885 
L 350.148487 220.6885 
L 349.583722 221.738597 
L 349.207211 221.738597 
L 349.018956 222.088629 
L 348.830701 222.088629 
L 348.642446 222.438661 
L 348.642446 223.138725 
L 348.642446 223.138725 
" clip-path="url(#pe1863da9a7)" style="fill: none; stroke: #000000; stroke-width: 1.5; stroke-linecap: square"/>
   </g>
   <g id="line2d_6">
    <path d="M 275.034686 215.438016 
" clip-path="url(#pe1863da9a7)" style="fill: none; stroke: #000000; stroke-width: 1.5; stroke-linecap: square"/>
    <defs>
     <path id="m70586b2ec5" d="M 0 5 
C 1.326016 5 2.597899 4.473168 3.535534 3.535534 
C 4.473168 2.597899 5 1.326016 5 0 
C 5 -1.326016 4.473168 -2.597899 3.535534 -3.535534 
C 2.597899 -4.473168 1.326016 -5 0 -5 
C -1.326016 -5 -2.597899 -4.473168 -3.535534 -3.535534 
C -4.473168 -2.597899 -5 -1.326016 -5 0 
C -5 1.326016 -4.473168 2.597899 -3.535534 3.535534 
C -2.597899 4.473168 -1.326016 5 0 5 
z
" style="stroke: #000000"/>
    </defs>
    <g clip-path="url(#pe1863da9a7)">
     <use xlink:href="#m70586b2ec5" x="275.034686" y="215.438016" style="stroke: #000000"/>
    </g>
   </g>
   <g id="line2d_7">
    <path d="M 348.642446 223.138725 
" clip-path="url(#pe1863da9a7)" style="fill: none; stroke: #000000; stroke-width: 1.5; stroke-linecap: square"/>
    <defs>
     <path id="m715c148116" d="M -5 5 
L 5 5 
L 5 -5 
L -5 -5 
z
" style="stroke: #000000; stroke-linejoin: miter"/>
    </defs>
    <g clip-path="url(#pe1863da9a7)">
     <use xlink:href="#m715c148116" x="348.642446" y="223.138725" style="stroke: #000000; stroke-linejoin: miter"/>
    </g>
   </g>
   <g id="line2d_8">
    <path d="M 265.99844 228.039177 
L 266.563205 229.439305 
L 267.504481 233.28966 
L 268.257501 233.989724 
L 269.575287 235.739886 
L 270.140053 236.089918 
L 271.081328 236.43995 
L 273.7169 235.389853 
L 273.7169 233.989724 
L 274.093411 232.239563 
L 274.846431 231.889531 
L 275.787707 229.789338 
L 271.834349 230.13937 
L 271.834349 234.689789 
L 272.022604 234.689789 
L 272.210859 233.28966 
L 271.646094 232.589596 
L 270.516563 232.589596 
L 269.575287 232.939628 
L 269.198777 232.589596 
L 269.010522 232.239563 
L 268.634012 231.189467 
L 267.504481 229.089273 
L 267.12797 227.339112 
L 265.810185 224.188822 
L 264.868909 222.438661 
L 262.986357 219.988435 
L 261.856827 219.638403 
L 260.16253 219.638403 
L 259.221255 223.83879 
L 258.468234 230.839434 
L 258.468234 237.840079 
L 258.844744 243.090562 
L 259.40951 246.590885 
L 259.40951 248.341046 
L 259.597765 250.091207 
L 259.032999 250.441239 
L 261.856827 253.941561 
L 268.257501 251.141304 
L 271.081328 235.389853 
L 271.646094 229.089273 
L 270.704818 228.739241 
L 269.951798 231.539499 
L 269.763542 233.28966 
L 269.763542 233.28966 
L 270.140053 232.589596 
L 270.140053 232.239563 
L 269.951798 232.239563 
L 269.763542 232.589596 
L 269.763542 233.28966 
L 269.198777 232.939628 
L 262.798102 219.988435 
L 255.456152 198.986502 
L 253.950111 188.835567 
L 247.172926 163.633247 
L 244.160843 149.281926 
L 242.843057 138.430927 
L 242.278292 131.08025 
L 241.901782 124.429638 
L 242.090037 119.879219 
L 243.219568 119.879219 
L 243.784333 119.179154 
L 243.972588 119.179154 
L 242.654802 117.779025 
L 242.654802 116.028864 
L 242.466547 114.628735 
L 242.090037 113.928671 
L 241.148761 110.428349 
L 241.148761 109.02822 
L 240.395741 107.628091 
L 240.395741 107.628091 
L 240.207486 107.628091 
L 240.01923 107.278059 
L 240.01923 107.278059 
L 240.01923 106.928026 
L 240.01923 106.928026 
L 240.583996 106.928026 
L 240.01923 107.978123 
L 239.830975 108.678187 
L 239.454465 111.478445 
L 238.8897 119.529186 
L 239.077955 125.479734 
L 240.207486 135.630669 
L 241.337016 144.731507 
L 243.972588 158.032731 
L 247.737691 172.384053 
L 249.996753 180.434794 
L 253.950111 193.385986 
L 255.456152 196.536276 
L 257.526958 199.686566 
L 259.032999 199.336534 
L 260.16253 197.586373 
L 261.292061 197.236341 
L 262.986357 197.586373 
L 265.99844 199.336534 
L 267.316226 199.336534 
L 268.634012 197.236341 
L 269.575287 193.035954 
L 270.328308 188.485535 
L 271.457839 182.534987 
L 273.905156 177.284504 
L 275.975962 174.484246 
L 276.540727 168.183666 
L 278.611534 165.73344 
L 280.30583 165.383408 
L 282.376637 164.683344 
L 285.765229 163.983279 
L 287.459526 161.883086 
L 289.153822 162.233118 
L 294.048455 162.233118 
L 297.248793 161.533054 
L 302.331682 160.482957 
L 306.473295 159.43286 
L 307.791081 158.732796 
L 309.108867 158.382764 
L 310.426653 158.382764 
L 312.873969 157.682699 
L 317.015582 157.682699 
L 317.768603 157.332667 
L 318.521624 157.332667 
L 318.898134 156.982635 
L 319.83941 156.632602 
L 321.910216 157.332667 
L 322.286726 156.28257 
L 323.981023 153.13228 
L 323.981023 152.432216 
L 324.169278 151.732151 
L 323.792768 149.631958 
L 322.663237 140.881152 
L 323.792768 138.780959 
L 324.169278 138.780959 
L 324.357533 138.430927 
L 324.545788 138.430927 
L 324.922298 138.080894 
L 325.675319 138.080894 
L 325.863574 137.730862 
L 326.80485 138.430927 
L 329.063911 138.430927 
L 329.252167 138.780959 
L 329.816932 138.780959 
L 330.005187 139.130991 
L 330.758208 139.130991 
L 330.946463 139.481023 
L 331.887739 139.481023 
L 332.075994 139.831056 
L 333.205525 139.831056 
L 333.39378 140.181088 
L 333.958545 140.181088 
L 333.958545 140.181088 
L 334.1468 140.53112 
L 333.205525 140.53112 
L 332.640759 141.231184 
L 332.264249 142.281281 
L 331.511228 146.481668 
L 330.946463 148.231829 
L 330.758208 151.382119 
L 330.758208 154.182377 
L 329.252167 154.182377 
L 328.499146 154.532409 
L 328.687401 155.932538 
L 328.310891 157.332667 
L 326.80485 158.382764 
L 326.051829 159.082828 
L 324.357533 159.782892 
L 323.416257 159.782892 
L 322.663237 159.43286 
L 321.721961 159.43286 
L 320.21592 158.732796 
L 319.462899 159.082828 
L 317.956858 157.332667 
L 317.203838 156.28257 
L 316.074307 153.482312 
L 315.321286 151.032087 
L 314.0035 143.331378 
L 313.25048 135.630669 
L 313.438735 130.030153 
L 314.191755 126.879863 
L 316.639072 125.829767 
L 320.027665 128.279992 
L 323.416257 133.180443 
L 328.875656 143.331378 
L 330.381697 146.481668 
L 331.511228 148.231829 
L 332.452504 149.98199 
L 334.1468 152.432216 
L 334.711566 153.482312 
L 335.652841 154.882441 
L 336.405862 156.632602 
L 337.347138 157.682699 
L 337.911903 158.732796 
L 338.664924 159.43286 
L 339.041434 159.43286 
L 340.170965 160.832989 
L 340.547475 161.533054 
L 340.923985 161.883086 
L 341.488751 162.58315 
L 341.865261 162.58315 
L 342.053516 162.933183 
L 342.430026 162.933183 
L 342.618281 163.283215 
L 342.806537 162.933183 
L 342.806537 162.233118 
L 342.618281 161.183021 
L 341.865261 158.732796 
L 341.11224 156.632602 
L 338.288413 149.631958 
L 335.841096 143.68141 
L 332.075994 137.030798 
L 330.569953 134.930604 
L 328.499146 133.180443 
L 327.18136 133.180443 
L 326.240084 134.930604 
L 326.051829 138.080894 
L 326.051829 140.881152 
L 326.240084 143.68141 
L 326.993105 145.081539 
L 327.746125 145.781603 
L 327.934381 145.781603 
L 328.310891 146.131636 
L 328.687401 146.131636 
L 329.252167 146.8317 
L 329.816932 147.881797 
L 330.381697 147.881797 
L 330.193442 145.781603 
L 330.569953 145.431571 
L 331.322973 144.031442 
L 332.075994 141.231184 
L 332.640759 140.181088 
L 332.829014 138.780959 
L 333.39378 136.330733 
L 334.335055 133.530476 
L 336.217607 132.480379 
L 338.853179 133.880508 
L 342.053516 138.080894 
L 345.442109 144.031442 
L 348.454191 150.332022 
L 350.901508 155.932538 
L 352.595804 159.43286 
L 353.725335 161.183021 
L 354.478355 161.183021 
L 354.854866 160.482957 
L 355.231376 160.482957 
L 355.607886 160.132925 
L 356.737417 161.183021 
L 357.302182 162.233118 
L 357.678693 162.58315 
L 358.996479 163.283215 
L 359.184734 162.933183 
L 359.184734 161.883086 
L 358.243458 158.382764 
L 357.113927 155.232474 
L 355.419631 151.032087 
L 353.160569 145.081539 
L 351.466273 141.231184 
L 349.395467 137.730862 
L 347.889425 137.38083 
L 346.94815 139.831056 
L 346.759895 141.581217 
L 345.818619 146.481668 
L 345.630364 146.8317 
L 345.442109 146.8317 
L 345.253853 146.481668 
L 345.253853 146.131636 
L 345.065598 145.781603 
L 344.877343 145.781603 
L 344.689088 145.431571 
L 344.689088 145.081539 
L 344.500833 144.731507 
L 344.500833 144.381475 
L 344.689088 144.381475 
L 344.689088 143.68141 
L 344.877343 143.331378 
L 344.877343 141.231184 
L 345.253853 138.080894 
L 346.195129 135.980701 
L 347.512915 135.280637 
L 348.454191 134.930604 
L 350.148487 135.980701 
L 352.595804 140.181088 
L 355.607886 147.181732 
L 358.619968 155.582506 
L 362.573326 167.833634 
L 363.138092 170.283859 
L 362.949837 169.233763 
L 362.008561 166.083473 
L 357.866948 153.832345 
L 356.925672 151.382119 
L 355.043121 147.181732 
L 354.66661 146.8317 
L 354.2901 146.131636 
L 353.53708 145.431571 
L 353.160569 144.731507 
L 352.407549 143.68141 
L 352.031038 142.631313 
L 351.278018 141.231184 
L 350.336742 139.831056 
L 349.395467 137.38083 
L 348.265936 135.280637 
L 346.195129 132.480379 
L 344.312578 131.430282 
L 343.747812 131.430282 
L 343.371302 131.08025 
L 342.994792 131.08025 
L 342.618281 130.730218 
L 342.053516 130.730218 
L 341.300496 130.030153 
L 340.73573 130.030153 
L 338.664924 128.980057 
L 336.782372 128.980057 
L 337.158882 128.980057 
L 337.347138 129.330089 
L 337.723648 129.330089 
L 338.100158 129.680121 
L 338.476668 129.680121 
L 339.041434 130.030153 
L 339.606199 130.030153 
L 340.73573 130.730218 
L 341.300496 130.730218 
L 342.994792 131.780314 
L 343.559557 131.780314 
L 346.006874 133.180443 
L 347.32466 133.880508 
L 347.889425 134.23054 
L 348.454191 134.23054 
L 349.207211 134.580572 
L 349.960232 134.580572 
L 350.713253 134.930604 
L 351.466273 134.930604 
L 352.031038 135.280637 
L 352.595804 135.280637 
L 352.972314 135.630669 
L 353.160569 135.630669 
L 353.53708 135.980701 
L 353.53708 135.980701 
L 353.348824 135.630669 
L 352.219294 135.630669 
L 351.842783 135.980701 
L 351.466273 135.980701 
L 350.713253 136.680766 
L 350.148487 137.38083 
L 349.771977 138.430927 
L 349.395467 139.130991 
L 349.018956 140.181088 
L 348.642446 140.881152 
L 348.265936 141.931249 
L 347.70117 142.981346 
L 347.32466 143.331378 
L 346.759895 144.031442 
L 345.253853 145.431571 
L 344.312578 145.781603 
L 343.371302 146.481668 
L 342.430026 146.8317 
L 341.11224 147.881797 
L 339.98271 148.231829 
L 338.853179 148.231829 
L 337.535393 148.581861 
L 336.029352 148.581861 
L 334.52331 148.931893 
L 332.829014 149.631958 
L 331.134718 149.98199 
L 330.005187 150.332022 
L 328.122636 150.332022 
L 326.051829 151.032087 
L 323.792768 151.382119 
L 321.533706 152.082183 
L 319.086389 153.482312 
L 314.0035 154.882441 
L 305.343764 156.982635 
L 298.754834 158.382764 
L 296.495772 159.082828 
L 291.977649 160.132925 
L 288.024291 161.183021 
L 284.259188 161.883086 
L 280.117575 162.233118 
L 271.269584 162.233118 
L 266.563205 161.183021 
L 262.045082 161.533054 
L 252.44407 165.73344 
L 247.737691 166.783537 
L 244.725609 167.833634 
L 238.136679 168.88373 
L 233.618556 169.933827 
L 229.100432 172.03402 
L 226.276605 173.784182 
L 220.440696 176.584439 
L 216.487338 178.684633 
L 208.957132 183.585084 
L 202.556458 188.485535 
L 199.73263 190.935761 
L 196.908803 193.035954 
L 194.649742 195.48618 
L 192.39068 197.236341 
L 190.508129 199.686566 
L 189.378598 200.736663 
L 186.17826 205.287082 
L 185.236985 205.987146 
L 184.295709 207.737307 
L 183.730944 209.487469 
L 183.354433 211.587662 
L 182.977923 215.087984 
L 182.977923 217.888242 
L 183.166178 218.938339 
L 183.354433 220.6885 
L 184.107454 223.138725 
L 185.990005 227.339112 
L 186.554771 228.389209 
L 187.307791 229.439305 
L 188.437322 231.539499 
L 189.002088 232.239563 
L 189.378598 232.939628 
L 189.755108 233.28966 
L 189.943363 233.639692 
L 190.696384 233.989724 
L 190.696384 233.989724 
L 190.696384 233.639692 
L 190.508129 233.28966 
L 190.319873 232.589596 
L 189.943363 231.889531 
L 188.625577 228.389209 
L 187.872557 226.98908 
L 185.990005 221.388564 
L 185.42524 218.938339 
L 184.483964 215.788049 
L 184.107454 212.987791 
L 183.542688 209.837501 
L 183.166178 203.186889 
L 183.166178 199.336534 
L 183.542688 189.885664 
L 184.295709 185.335245 
L 185.236985 180.784826 
L 188.249067 170.983924 
L 190.319873 165.73344 
L 192.76719 160.482957 
L 195.779273 155.232474 
L 198.97961 150.332022 
L 202.556458 145.081539 
L 206.698071 139.831056 
L 214.604787 131.780314 
L 222.888013 127.229895 
L 227.217881 125.129702 
L 231.547749 121.979412 
L 244.537354 117.078961 
L 257.903469 114.278703 
L 264.680654 113.228606 
L 271.457839 112.878574 
L 278.046769 112.878574 
L 284.259188 113.228606 
L 288.212546 113.578639 
L 293.48369 114.978768 
L 298.566579 116.728929 
L 303.084702 119.529186 
L 307.602826 124.079605 
L 312.309204 128.279992 
L 316.639072 134.930604 
L 321.533706 144.381475 
L 326.240084 154.182377 
L 329.440422 160.482957 
L 334.711566 168.533698 
L 338.100158 173.434149 
L 340.547475 174.834278 
L 341.865261 173.084117 
L 341.865261 158.382764 
L 342.430026 147.881797 
L 344.500833 139.130991 
L 345.253853 137.730862 
L 346.383384 137.030798 
L 347.70117 137.030798 
L 347.70117 137.030798 
L 350.901508 139.831056 
L 354.66661 146.131636 
L 358.431713 154.182377 
L 363.514602 168.533698 
L 365.020643 173.434149 
L 367.46796 182.184955 
L 369.162256 189.885664 
L 368.597491 187.785471 
L 367.279705 183.585084 
L 365.020643 174.834278 
L 362.385071 162.933183 
L 362.573326 162.58315 
L 363.891112 166.083473 
L 365.020643 169.583795 
L 364.644133 168.533698 
L 363.514602 166.083473 
L 359.937754 156.982635 
L 358.431713 153.832345 
L 355.984396 147.181732 
L 352.972314 141.581217 
L 349.018956 137.730862 
L 354.854866 155.932538 
L 352.219294 157.332667 
L 356.549162 177.284504 
L 356.172652 179.734729 
L 355.796141 181.134858 
L 355.231376 180.784826 
L 354.66661 179.034665 
L 353.91359 175.18431 
L 353.160569 170.633891 
L 352.407549 158.032731 
L 353.160569 148.581861 
L 354.478355 145.431571 
L 355.984396 145.431571 
L 356.737417 146.481668 
L 359.184734 162.58315 
L 364.644133 206.687211 
L 363.514602 232.939628 
L 360.50252 236.43995 
L 357.678693 236.089918 
L 357.113927 234.689789 
L 356.925672 232.589596 
L 356.925672 232.589596 
L 356.360907 228.039177 
L 355.796141 226.289015 
L 354.66661 221.388564 
L 352.972314 216.488113 
L 352.972314 216.488113 
L 349.771977 209.137436 
L 346.383384 196.536276 
L 343.183047 181.48489 
L 339.606199 159.43286 
L 337.723648 140.181088 
L 342.241771 133.530476 
L 349.395467 147.181732 
L 349.018956 146.131636 
L 345.818619 141.931249 
L 341.865261 135.280637 
L 340.35922 133.880508 
L 339.041434 131.430282 
L 339.98271 133.180443 
L 340.73573 134.930604 
L 341.11224 136.680766 
L 342.053516 138.780959 
L 344.312578 145.081539 
L 346.759895 152.782248 
L 347.70117 157.332667 
L 347.32466 158.382764 
L 336.782372 137.730862 
L 328.687401 124.429638 
L 327.369615 124.079605 
L 326.616595 124.429638 
L 325.110554 124.429638 
L 324.169278 124.77967 
L 323.604512 125.129702 
L 323.039747 125.829767 
L 322.663237 126.879863 
L 323.981023 118.47909 
L 324.357533 118.829122 
L 324.169278 118.829122 
L 323.792768 119.529186 
L 323.228002 120.929315 
L 323.604512 121.279348 
L 325.298809 121.279348 
L 325.863574 120.929315 
L 326.616595 120.929315 
L 327.369615 120.579283 
L 328.875656 120.579283 
L 329.063911 120.929315 
L 329.252167 120.929315 
L 329.440422 121.62938 
L 329.440422 122.329444 
L 329.063911 124.429638 
L 329.063911 125.479734 
L 328.875656 127.579928 
L 328.875656 130.380185 
L 329.440422 134.930604 
L 329.628677 135.630669 
L 330.005187 135.980701 
L 330.381697 136.680766 
L 330.758208 137.730862 
L 331.134718 138.430927 
L 332.075994 141.231184 
L 332.452504 141.581217 
L 333.017269 141.931249 
L 334.711566 141.931249 
L 335.464586 141.581217 
L 336.217607 141.581217 
L 338.100158 140.881152 
L 339.229689 140.181088 
L 340.35922 140.181088 
L 341.300496 140.53112 
L 344.689088 140.53112 
L 346.383384 140.181088 
L 348.077681 139.481023 
L 349.018956 137.730862 
L 350.148487 137.030798 
L 350.901508 137.730862 
L 351.278018 138.430927 
L 351.654528 140.181088 
L 351.654528 144.381475 
L 351.278018 145.781603 
L 350.524997 146.481668 
L 348.454191 147.181732 
L 345.253853 146.131636 
L 344.500833 145.781603 
L 339.606199 144.381475 
L 337.723648 142.981346 
L 336.970627 142.631313 
L 335.841096 140.881152 
L 335.464586 140.181088 
L 335.464586 138.080894 
L 335.652841 137.030798 
L 336.029352 135.980701 
L 336.594117 133.880508 
L 337.158882 132.830411 
L 337.535393 131.780314 
L 337.911903 131.08025 
L 338.476668 129.330089 
L 338.853179 128.279992 
L 339.041434 127.92996 
L 338.853179 127.579928 
L 338.853179 127.92996 
L 338.664924 128.279992 
L 337.723648 131.430282 
L 336.594117 134.580572 
L 335.652841 136.330733 
L 334.899821 138.080894 
L 334.335055 139.831056 
L 333.582035 141.231184 
L 333.017269 142.631313 
L 332.452504 143.331378 
L 332.075994 143.331378 
L 331.511228 142.981346 
L 331.134718 142.281281 
L 331.134718 141.931249 
L 331.322973 142.631313 
L 331.887739 143.331378 
L 332.264249 144.031442 
L 332.829014 145.431571 
L 334.1468 149.281926 
L 334.711566 150.682055 
L 335.276331 151.732151 
L 335.841096 152.432216 
L 336.217607 152.432216 
L 336.594117 151.732151 
L 336.594117 149.98199 
L 336.405862 146.481668 
L 334.899821 132.480379 
L 334.899821 130.030153 
L 336.029352 132.130347 
L 337.347138 136.330733 
L 338.853179 142.631313 
L 340.170965 149.631958 
L 340.73573 153.482312 
L 341.488751 156.632602 
L 342.241771 158.732796 
L 342.618281 159.082828 
L 342.618281 158.382764 
L 341.677006 149.98199 
L 340.923985 141.931249 
L 340.73573 136.680766 
L 341.300496 132.130347 
L 343.371302 132.480379 
L 348.265936 141.581217 
L 353.53708 155.232474 
L 357.490438 167.483601 
L 359.937754 176.584439 
L 360.314265 179.384697 
L 359.372989 177.284504 
L 358.055203 173.784182 
L 355.419631 166.433505 
L 352.031038 155.582506 
L 349.207211 147.181732 
L 346.195129 139.831056 
L 343.936067 135.280637 
L 342.241771 132.830411 
L 341.300496 131.780314 
L 340.547475 131.780314 
L 340.35922 132.830411 
L 340.547475 133.880508 
L 341.488751 135.630669 
L 341.865261 135.980701 
L 342.430026 136.330733 
L 343.371302 136.330733 
L 345.065598 136.680766 
L 346.759895 135.980701 
L 349.583722 137.38083 
L 353.348824 143.331378 
L 357.866948 154.882441 
L 362.385071 169.233763 
L 365.773664 184.285148 
L 367.279705 192.33589 
L 367.09145 194.786115 
L 366.338429 195.136147 
L 364.644133 191.985857 
L 372.362594 227.689144 
L 371.609573 235.389853 
L 366.903195 221.038532 
L 361.067285 201.436727 
L 354.854866 181.48489 
L 348.642446 162.933183 
L 342.806537 146.481668 
L 337.911903 133.880508 
L 334.711566 126.879863 
L 333.582035 124.77967 
L 341.865261 140.53112 
L 342.241771 142.631313 
L 342.241771 142.631313 
L 342.241771 140.53112 
L 342.806537 138.080894 
L 343.936067 134.930604 
L 346.571639 135.980701 
L 348.265936 137.030798 
L 349.960232 140.53112 
L 352.972314 148.931893 
L 355.043121 156.632602 
L 358.055203 169.233763 
L 360.126009 181.48489 
L 360.87903 188.485535 
L 360.690775 190.585728 
L 361.443795 196.536276 
L 358.431713 189.885664 
L 356.549162 183.585084 
L 352.595804 168.88373 
L 350.524997 162.933183 
L 347.889425 154.182377 
L 345.442109 146.481668 
L 342.806537 139.130991 
L 340.73573 133.880508 
L 339.98271 133.180443 
L 339.417944 133.180443 
L 338.476668 133.880508 
L 340.170965 140.53112 
L 340.547475 144.381475 
L 340.547475 146.8317 
L 340.170965 146.481668 
L 340.170965 145.781603 
L 340.73573 138.780959 
L 342.241771 134.930604 
L 345.442109 135.630669 
L 348.265936 138.780959 
L 352.219294 146.8317 
L 356.549162 160.132925 
L 360.126009 172.734085 
L 362.949837 185.335245 
L 364.644133 195.48618 
L 365.208898 201.436727 
L 364.644133 202.486824 
L 363.326347 199.336534 
L 361.632051 193.385986 
L 358.055203 180.084762 
L 355.419631 168.533698 
L 353.160569 160.132925 
L 351.654528 155.932538 
L 349.960232 150.332022 
L 347.889425 144.731507 
L 346.006874 140.881152 
L 345.253853 138.430927 
L 344.877343 138.080894 
L 341.300496 134.580572 
L 343.183047 135.280637 
L 340.170965 133.180443 
L 337.911903 132.130347 
L 337.911903 131.780314 
L 340.170965 133.180443 
L 342.241771 135.980701 
L 342.994792 138.080894 
L 342.618281 139.130991 
L 342.994792 140.881152 
L 344.124323 143.331378 
L 345.442109 145.781603 
L 346.195129 146.8317 
L 346.94815 146.131636 
L 347.32466 140.881152 
L 348.454191 139.130991 
L 350.713253 139.130991 
L 354.478355 143.68141 
L 358.619968 151.032087 
L 364.455878 166.433505 
L 370.103532 183.935116 
L 381.587095 224.188822 
L 390.435087 259.192045 
L 392.317638 270.393076 
L 391.376363 291.39501 
L 388.929046 296.995525 
L 388.740791 296.645493 
L 389.305556 296.295461 
L 389.870322 295.245364 
L 390.058577 294.195267 
L 390.058577 288.944784 
L 389.870322 288.24472 
L 389.682066 286.494558 
L 388.176025 280.544011 
L 387.23475 276.693656 
L 385.916964 270.743108 
L 381.210585 251.841368 
L 377.445482 237.140014 
L 374.245145 225.588951 
L 368.22098 204.93705 
L 359.184734 174.834278 
L 352.972314 155.232474 
L 347.512915 140.181088 
L 347.70117 137.38083 
L 347.889425 138.780959 
L 348.077681 141.931249 
L 347.70117 146.481668 
L 347.512915 146.8317 
L 346.759895 146.131636 
L 346.571639 146.131636 
L 346.006874 145.081539 
L 346.195129 145.431571 
L 345.818619 145.081539 
L 345.630364 144.731507 
L 345.065598 144.381475 
L 342.053516 140.181088 
L 341.865261 140.181088 
L 341.865261 140.53112 
L 341.677006 140.53112 
L 341.865261 140.881152 
L 341.865261 140.881152 
L 341.865261 140.53112 
L 342.053516 140.53112 
L 341.677006 140.181088 
L 341.865261 140.181088 
L 342.053516 140.53112 
L 342.430026 140.881152 
L 342.430026 141.581217 
L 342.241771 142.281281 
L 342.241771 142.981346 
L 342.053516 143.68141 
L 342.053516 146.481668 
L 342.241771 147.181732 
L 342.241771 148.231829 
L 342.806537 151.382119 
L 343.183047 153.832345 
L 343.183047 157.332667 
L 343.371302 158.732796 
L 343.183047 159.082828 
L 342.994792 159.782892 
L 342.806537 159.782892 
L 342.430026 160.482957 
L 342.053516 162.233118 
L 341.865261 162.58315 
L 342.618281 165.73344 
L 341.488751 163.633247 
L 340.547475 162.58315 
L 339.606199 160.832989 
L 339.041434 160.832989 
L 338.853179 161.533054 
L 339.229689 162.58315 
L 340.35922 167.833634 
L 341.488751 175.18431 
L 345.818619 187.785471 
L 346.195129 189.535632 
L 346.759895 190.935761 
L 347.889425 194.086051 
L 348.454191 195.48618 
L 349.018956 197.236341 
L 349.395467 198.286437 
L 349.960232 198.986502 
L 350.148487 200.036598 
L 351.089763 201.78676 
L 353.91359 207.737307 
L 356.549162 213.687855 
L 357.113927 214.38792 
L 357.113927 213.337823 
L 356.925672 212.637759 
L 356.737417 210.887598 
L 356.172652 208.437372 
L 355.043121 202.836856 
L 354.66661 201.78676 
L 349.207211 188.485535 
L 342.618281 168.533698 
L 335.652841 137.38083 
L 335.088076 132.130347 
L 335.276331 126.529831 
L 337.723648 127.92996 
L 342.241771 137.730862 
L 348.454191 151.732151 
L 350.901508 158.032731 
L 354.101845 165.73344 
L 354.854866 167.833634 
L 354.854866 168.183666 
L 354.2901 167.483601 
L 352.407549 163.983279 
L 351.466273 161.883086 
L 349.771977 156.982635 
L 349.771977 156.632602 
L 349.771977 156.632602 
L 349.960232 156.982635 
L 350.148487 156.982635 
L 349.960232 156.632602 
L 349.207211 154.182377 
L 348.642446 152.432216 
L 347.70117 150.332022 
L 344.877343 142.281281 
L 342.994792 136.680766 
L 340.35922 129.680121 
L 337.723648 125.129702 
L 337.158882 126.179799 
L 335.841096 126.879863 
L 335.464586 128.980057 
L 336.029352 135.280637 
L 334.52331 135.980701 
L 334.711566 138.780959 
L 336.217607 142.981346 
L 339.606199 151.382119 
L 342.241771 158.382764 
L 341.11224 155.232474 
L 339.98271 151.732151 
L 339.98271 150.682055 
L 340.923985 151.382119 
L 342.053516 153.832345 
L 343.183047 155.932538 
L 344.124323 158.032731 
L 344.312578 157.682699 
L 344.500833 156.982635 
L 344.500833 153.13228 
L 344.877343 152.432216 
L 345.065598 151.732151 
L 345.630364 151.032087 
L 345.630364 149.98199 
L 345.065598 145.781603 
L 343.936067 139.481023 
L 342.618281 132.830411 
L 342.241771 129.680121 
L 341.488751 126.529831 
L 342.241771 126.179799 
L 344.689088 130.030153 
L 348.265936 138.430927 
L 352.784059 152.082183 
L 361.25554 184.985213 
L 367.09145 204.587017 
L 372.927359 229.089273 
L 375.374676 235.389853 
L 376.127696 234.689789 
L 375.751186 230.13937 
L 373.868635 221.038532 
L 371.609573 211.587662 
L 371.421318 209.487469 
L 371.421318 207.737307 
L 371.797828 207.037243 
L 372.174338 206.687211 
L 372.927359 206.337179 
L 373.303869 205.987146 
L 373.68038 204.93705 
L 373.68038 202.486824 
L 372.927359 197.236341 
L 370.480042 184.285148 
L 364.079367 158.032731 
L 359.184734 140.53112 
L 362.196816 141.581217 
L 367.84447 156.28257 
L 371.797828 173.434149 
L 373.115614 178.3346 
L 373.868635 181.834923 
L 374.80991 184.985213 
L 374.80991 186.385342 
L 374.621655 186.385342 
L 374.4334 185.685277 
L 373.68038 184.285148 
L 371.609573 177.984568 
L 370.668297 174.134214 
L 369.162256 168.533698 
L 366.150174 153.832345 
L 363.702857 144.381475 
L 363.514602 141.231184 
L 362.949837 137.730862 
L 362.573326 136.330733 
L 362.949837 138.430927 
L 364.079367 143.331378 
L 365.773664 149.281926 
L 367.279705 155.232474 
L 368.22098 159.43286 
L 368.597491 160.482957 
L 368.409236 159.782892 
L 367.09145 156.982635 
L 365.585409 153.482312 
L 363.891112 149.98199 
L 362.385071 146.131636 
L 357.302182 136.680766 
L 355.607886 134.23054 
L 355.419631 134.23054 
L 354.854866 134.580572 
L 354.854866 135.280637 
L 354.66661 136.330733 
L 354.66661 137.030798 
L 354.478355 137.730862 
L 354.101845 137.730862 
L 353.348824 136.330733 
L 351.654528 134.23054 
L 350.148487 132.130347 
L 348.642446 130.380185 
L 347.136405 128.980057 
L 345.630364 128.630024 
L 343.936067 128.630024 
L 340.923985 131.430282 
L 339.417944 133.880508 
L 337.535393 135.980701 
L 335.276331 138.080894 
L 332.264249 142.281281 
L 327.369615 147.881797 
L 323.604512 150.682055 
L 319.83941 155.582506 
L 315.697797 159.782892 
L 311.179673 163.283215 
L 304.402488 162.58315 
L 301.766916 173.434149 
L 297.813558 188.485535 
L 292.730669 194.086051 
L 283.129657 163.633247 
L 280.117575 192.685922 
L 275.411197 197.586373 
L 272.399114 200.036598 
L 266.563205 203.186889 
L 262.986357 206.337179 
L 260.727296 207.037243 
L 256.585683 208.437372 
L 254.514876 207.387275 
L 250.185008 202.836856 
L 247.172926 201.78676 
L 244.913864 198.986502 
L 241.713527 198.286437 
L 239.830975 199.336534 
L 238.136679 201.78676 
L 237.007148 201.086695 
L 235.501107 206.687211 
L 234.559831 209.487469 
L 233.4303 215.087984 
L 233.242045 218.238274 
L 233.242045 228.039177 
L 233.4303 233.989724 
L 233.4303 236.089918 
L 233.806811 239.240208 
L 233.806811 240.290305 
L 233.4303 239.59024 
L 233.995066 241.340401 
L 234.559831 242.74053 
L 237.195403 247.640981 
L 238.136679 249.741175 
L 239.26621 251.841368 
L 243.972588 259.542077 
L 247.925946 264.79256 
L 249.243732 265.842657 
L 250.938028 264.79256 
L 253.19709 265.842657 
L 255.644407 267.592818 
L 257.903469 268.292883 
L 260.539041 269.693012 
L 262.986357 269.693012 
L 266.75146 272.843302 
L 269.951798 274.593463 
L 273.152135 275.993592 
L 278.988044 278.093785 
L 280.494085 276.693656 
L 280.494085 274.24343 
L 276.164217 250.791271 
L 275.411197 247.640981 
L 275.222941 248.691078 
L 274.846431 255.34169 
L 274.469921 258.141948 
L 272.96388 262.692367 
L 271.646094 265.842657 
L 270.704818 267.592818 
L 269.951798 267.94285 
L 269.575287 268.292883 
L 269.010522 268.292883 
L 268.257501 268.642915 
L 267.692736 268.642915 
L 266.75146 268.292883 
L 266.186695 268.292883 
L 262.986357 264.79256 
L 262.986357 264.79256 
L 261.668571 263.742464 
L 258.091724 261.292238 
L 256.209172 259.892109 
L 255.079642 259.542077 
L 253.19709 257.791916 
L 251.502794 256.041755 
L 250.185008 254.291594 
L 246.60816 249.04111 
L 243.596078 243.440595 
L 242.654802 241.340401 
L 241.525271 239.240208 
L 240.395741 237.490047 
L 239.830975 237.140014 
L 239.26621 236.089918 
L 239.077955 236.43995 
L 238.513189 235.389853 
L 239.077955 240.290305 
L 238.8897 238.890176 
L 238.513189 236.789982 
L 238.136679 232.589596 
L 237.948424 230.13937 
L 237.571914 227.339112 
L 237.948424 228.039177 
L 237.760169 225.938983 
L 238.513189 226.639048 
L 238.701444 225.938983 
L 239.26621 225.938983 
L 239.64272 226.289015 
L 240.583996 225.588951 
L 241.148761 215.087984 
L 241.713527 212.637759 
L 242.090037 208.08734 
L 243.031313 207.037243 
L 245.102119 212.637759 
L 245.102119 197.936405 
L 246.60816 193.736018 
L 247.737691 191.635825 
L 250.373263 186.385342 
L 252.632325 182.885019 
L 255.267897 179.734729 
L 257.150448 178.3346 
L 261.103806 173.784182 
L 264.492399 171.333956 
L 268.069246 169.583795 
L 272.022604 166.783537 
L 275.975962 163.633247 
L 280.117575 160.832989 
L 284.635698 159.43286 
L 287.459526 159.082828 
L 296.684027 155.932538 
L 301.202151 154.532409 
L 318.145113 150.682055 
L 321.157196 150.332022 
L 322.663237 149.98199 
L 325.675319 149.631958 
L 327.18136 149.631958 
L 334.1468 148.931893 
L 336.594117 149.281926 
L 338.100158 149.281926 
L 341.865261 148.931893 
L 346.571639 149.281926 
L 349.960232 149.98199 
L 353.91359 150.682055 
L 357.302182 152.082183 
L 360.126009 153.482312 
L 362.008561 154.182377 
L 364.079367 155.232474 
L 365.585409 156.28257 
L 367.09145 156.28257 
L 371.609573 158.732796 
L 372.362594 158.732796 
L 372.927359 159.082828 
L 373.303869 159.082828 
L 373.68038 159.43286 
L 373.868635 159.43286 
L 373.868635 159.782892 
L 373.492124 159.082828 
L 372.927359 158.732796 
L 372.362594 157.682699 
L 371.421318 156.632602 
L 368.597491 152.782248 
L 366.714939 151.732151 
L 365.208898 152.432216 
L 364.079367 155.232474 
L 362.196816 169.583795 
L 361.632051 172.384053 
L 362.008561 176.234407 
L 361.632051 177.984568 
L 361.067285 177.984568 
L 360.314265 177.284504 
L 359.372989 176.234407 
L 357.490438 173.434149 
L 356.925672 172.384053 
L 355.984396 170.983924 
L 353.348824 166.083473 
L 352.407549 163.983279 
L 351.089763 160.132925 
L 350.148487 156.28257 
L 349.771977 154.182377 
L 348.454191 149.631958 
L 347.889425 146.8317 
L 347.32466 145.081539 
L 347.136405 144.031442 
L 346.383384 142.281281 
L 345.442109 137.38083 
L 345.253853 134.930604 
L 345.630364 133.880508 
L 346.383384 134.580572 
L 348.077681 139.130991 
L 349.583722 143.68141 
L 350.713253 147.881797 
L 351.654528 152.082183 
L 352.031038 153.13228 
L 352.031038 153.13228 
L 352.031038 152.782248 
L 351.466273 150.682055 
L 351.466273 151.032087 
L 351.466273 151.382119 
L 351.654528 151.732151 
L 351.654528 152.432216 
L 351.654528 152.432216 
L 350.901508 151.032087 
L 350.713253 151.032087 
L 350.336742 150.332022 
L 350.148487 149.631958 
L 349.771977 149.281926 
L 349.395467 148.581861 
L 349.207211 147.881797 
L 348.642446 146.8317 
L 348.454191 146.131636 
L 348.077681 145.431571 
L 347.512915 143.331378 
L 347.512915 142.631313 
L 344.877343 132.480379 
L 344.312578 131.430282 
L 343.936067 131.08025 
L 343.747812 131.08025 
L 343.559557 131.430282 
L 343.183047 131.780314 
L 342.241771 131.780314 
L 342.053516 132.130347 
L 341.865261 131.780314 
L 341.865261 131.780314 
L 341.865261 131.430282 
L 342.241771 131.430282 
L 342.053516 131.430282 
L 341.677006 131.780314 
L 341.300496 131.780314 
L 341.300496 131.780314 
L 341.488751 131.430282 
L 342.241771 131.430282 
L 342.430026 131.780314 
L 342.430026 131.780314 
L 343.371302 131.780314 
L 343.559557 132.130347 
L 345.442109 132.130347 
L 345.818619 132.480379 
L 346.759895 132.480379 
L 347.136405 132.830411 
L 347.70117 132.830411 
L 348.077681 133.180443 
L 349.583722 133.180443 
L 349.960232 133.530476 
L 349.960232 133.180443 
L 351.654528 133.180443 
L 351.654528 132.830411 
L 352.031038 132.830411 
L 352.031038 132.480379 
L 352.219294 132.480379 
L 352.219294 132.130347 
L 352.595804 132.130347 
L 352.595804 132.130347 
L 352.784059 131.780314 
L 352.972314 131.780314 
L 353.160569 131.430282 
L 353.348824 131.430282 
L 353.348824 131.08025 
L 353.725335 131.08025 
L 353.725335 131.08025 
L 353.91359 130.730218 
L 354.101845 130.730218 
L 354.101845 130.380185 
L 354.478355 130.380185 
L 354.478355 130.030153 
L 354.478355 130.030153 
L 354.101845 129.330089 
L 353.91359 129.330089 
L 353.725335 128.980057 
L 353.348824 128.980057 
L 352.972314 128.630024 
L 352.407549 128.630024 
L 352.219294 128.279992 
L 351.654528 128.279992 
L 351.278018 127.92996 
L 350.713253 127.92996 
L 350.336742 127.579928 
L 349.207211 126.879863 
L 348.830701 126.879863 
L 348.265936 126.179799 
L 347.70117 125.829767 
L 347.136405 125.829767 
L 346.195129 125.129702 
L 345.065598 125.129702 
L 344.689088 124.77967 
L 344.312578 124.77967 
L 343.747812 124.429638 
L 342.806537 124.429638 
L 342.806537 124.429638 
L 342.430026 125.129702 
L 342.241771 125.129702 
L 342.053516 126.179799 
L 342.053516 127.92996 
L 342.241771 127.92996 
L 342.430026 128.279992 
L 343.371302 131.430282 
L 343.559557 131.430282 
L 343.747812 131.780314 
L 344.312578 131.780314 
L 344.689088 132.130347 
L 344.877343 132.130347 
L 345.065598 132.480379 
L 345.818619 133.180443 
L 346.006874 133.180443 
L 346.195129 133.530476 
L 346.571639 133.530476 
L 347.136405 133.880508 
L 347.32466 134.23054 
L 347.70117 134.23054 
L 348.077681 134.580572 
L 350.901508 134.580572 
L 350.901508 134.23054 
L 351.089763 133.530476 
L 351.089763 128.630024 
L 351.466273 126.529831 
L 351.466273 126.529831 
L 351.654528 126.529831 
L 351.278018 126.179799 
L 350.901508 126.529831 
L 349.771977 126.179799 
L 349.018956 126.529831 
L 348.265936 127.229895 
L 347.70117 127.229895 
L 347.512915 127.579928 
L 347.136405 127.579928 
L 346.94815 127.92996 
L 346.571639 128.279992 
L 346.383384 128.630024 
L 346.006874 128.980057 
L 345.818619 129.330089 
L 345.442109 129.680121 
L 344.500833 129.680121 
L 344.124323 129.330089 
L 344.124323 129.330089 
L 343.747812 128.630024 
L 343.747812 127.92996 
L 343.747812 127.92996 
L 343.936067 127.92996 
L 343.936067 127.92996 
L 344.312578 127.579928 
L 344.500833 127.229895 
L 346.383384 126.179799 
L 346.383384 126.179799 
L 346.195129 125.829767 
L 345.253853 122.679476 
L 345.253853 122.679476 
L 345.253853 123.379541 
L 344.877343 123.379541 
L 344.500833 122.679476 
L 344.124323 122.679476 
L 343.747812 122.329444 
L 343.183047 122.329444 
L 342.430026 121.979412 
L 342.430026 122.679476 
L 341.865261 122.679476 
L 341.488751 122.329444 
L 341.677006 122.679476 
L 339.606199 119.879219 
L 338.853179 121.979412 
L 337.347138 129.330089 
L 336.217607 128.980057 
L 335.652841 126.879863 
L 335.088076 123.379541 
L 334.335055 119.879219 
L 334.899821 118.829122 
L 336.594117 128.980057 
L 341.677006 142.631313 
L 346.195129 156.28257 
L 350.148487 167.833634 
L 350.713253 168.533698 
L 351.089763 168.533698 
L 351.466273 167.833634 
L 351.654528 167.833634 
L 352.219294 168.88373 
L 352.595804 169.233763 
L 352.784059 169.583795 
L 353.160569 169.933827 
L 353.348824 170.283859 
L 353.725335 170.283859 
L 354.478355 170.983924 
L 355.043121 170.983924 
L 355.419631 171.333956 
L 355.796141 171.333956 
L 356.172652 171.683988 
L 356.549162 171.683988 
L 356.737417 170.633891 
L 356.549162 168.88373 
L 354.854866 160.132925 
L 351.842783 147.181732 
L 350.148487 139.130991 
L 348.265936 127.92996 
L 352.595804 126.529831 
L 350.336742 127.229895 
L 351.654528 132.830411 
L 356.360907 142.631313 
L 360.87903 153.13228 
L 367.656215 174.834278 
L 371.421318 188.835567 
L 371.797828 188.835567 
L 371.797828 187.085406 
L 371.609573 185.335245 
L 370.856552 181.134858 
L 370.480042 179.384697 
L 370.856552 180.084762 
L 371.421318 180.784826 
L 371.986083 182.184955 
L 373.68038 184.285148 
L 373.68038 184.635181 
L 373.68038 184.635181 
L 373.492124 183.935116 
L 373.115614 183.235052 
L 372.739104 181.48489 
L 371.797828 179.034665 
L 370.668297 174.834278 
L 363.514602 146.8317 
L 362.385071 139.481023 
L 360.50252 133.880508 
L 358.996479 130.380185 
L 357.866948 128.279992 
L 357.302182 128.980057 
L 357.490438 131.780314 
L 356.925672 132.480379 
L 357.490438 135.280637 
L 357.678693 139.130991 
L 358.055203 142.981346 
L 358.055203 145.081539 
L 357.866948 145.431571 
L 357.490438 144.381475 
L 356.737417 142.981346 
L 356.172652 141.581217 
L 354.66661 138.780959 
L 353.160569 137.030798 
L 352.031038 136.330733 
L 350.901508 134.930604 
L 349.771977 132.830411 
L 349.395467 131.780314 
L 347.70117 129.680121 
L 347.136405 128.630024 
L 347.136405 128.279992 
L 347.136405 128.279992 
L 346.94815 128.279992 
L 347.136405 128.279992 
L 347.136405 127.92996 
L 347.512915 128.630024 
L 347.32466 128.279992 
L 347.512915 128.279992 
L 347.512915 128.279992 
L 347.512915 127.92996 
L 347.889425 128.630024 
L 348.077681 128.630024 
L 348.077681 128.630024 
L 348.265936 128.980057 
L 348.265936 128.980057 
L 348.265936 128.279992 
L 348.077681 127.229895 
L 347.889425 125.479734 
L 347.32466 123.379541 
L 347.70117 119.179154 
L 348.077681 118.829122 
L 349.395467 121.279348 
L 352.031038 128.980057 
L 355.419631 140.181088 
L 358.431713 151.732151 
L 360.690775 159.082828 
L 360.690775 158.032731 
L 360.126009 156.28257 
L 359.749499 154.182377 
L 358.619968 152.082183 
L 358.619968 153.482312 
L 358.619968 153.482312 
L 358.431713 153.13228 
L 358.431713 152.782248 
L 358.055203 152.082183 
L 357.302182 149.631958 
L 357.113927 149.281926 
L 356.737417 148.231829 
L 356.172652 146.131636 
L 354.101845 140.181088 
L 351.654528 133.530476 
L 350.148487 129.680121 
L 346.759895 119.879219 
L 345.818619 117.428993 
L 345.442109 117.428993 
L 345.065598 117.779025 
L 345.253853 120.229251 
L 345.818619 123.379541 
L 347.70117 131.780314 
L 348.642446 134.580572 
L 348.830701 135.630669 
L 350.148487 138.080894 
L 350.148487 138.430927 
L 350.713253 140.181088 
L 350.901508 140.53112 
L 350.524997 139.831056 
L 350.524997 139.481023 
L 350.336742 139.481023 
L 349.960232 138.430927 
L 349.771977 138.080894 
L 352.595804 143.68141 
L 356.737417 154.882441 
L 359.184734 163.983279 
L 359.749499 167.483601 
L 358.996479 165.73344 
L 358.055203 161.183021 
L 357.866948 156.28257 
L 358.243458 155.582506 
L 358.243458 155.582506 
L 358.055203 155.582506 
L 358.055203 155.582506 
L 358.055203 155.932538 
L 358.055203 155.932538 
L 358.243458 156.982635 
L 358.243458 156.982635 
L 358.243458 157.332667 
L 358.055203 157.332667 
L 358.055203 157.332667 
L 357.678693 156.632602 
L 357.678693 153.482312 
L 357.302182 150.682055 
L 354.101845 131.08025 
L 362.385071 136.680766 
L 362.008561 136.330733 
L 361.443795 135.630669 
L 362.385071 136.330733 
L 363.326347 137.730862 
L 353.725335 124.079605 
L 347.136405 118.829122 
L 346.195129 118.829122 
L 346.195129 119.529186 
L 346.195129 119.529186 
L 346.006874 119.879219 
L 346.195129 119.879219 
L 346.195129 119.179154 
L 346.383384 118.829122 
L 346.383384 119.179154 
L 348.454191 129.330089 
L 349.207211 133.880508 
L 349.771977 138.780959 
L 344.124323 121.62938 
L 344.689088 120.929315 
L 344.500833 121.979412 
L 344.877343 122.329444 
L 344.877343 120.579283 
L 344.689088 118.129058 
L 344.877343 117.428993 
L 344.312578 116.378896 
L 344.500833 116.728929 
L 344.500833 119.529186 
L 344.124323 119.179154 
L 343.747812 118.47909 
L 343.559557 117.428993 
L 343.183047 116.028864 
L 343.183047 116.028864 
L 343.371302 116.028864 
L 343.371302 116.378896 
L 343.371302 116.378896 
L 343.183047 115.678832 
L 343.559557 116.728929 
L 343.747812 119.179154 
L 344.689088 123.379541 
L 344.689088 123.029509 
L 343.936067 120.929315 
L 342.618281 114.978768 
L 342.618281 115.3288 
L 342.994792 115.678832 
L 342.994792 115.678832 
L 342.994792 115.3288 
L 342.806537 114.978768 
L 343.183047 115.678832 
L 343.559557 118.129058 
L 344.500833 121.979412 
L 342.618281 114.628735 
L 342.430026 114.628735 
L 342.241771 114.278703 
L 342.806537 115.3288 
L 342.994792 116.378896 
L 343.371302 117.428993 
L 343.371302 117.779025 
L 343.183047 117.779025 
L 343.183047 117.428993 
L 342.806537 116.028864 
L 342.994792 116.378896 
L 343.183047 116.378896 
L 343.559557 117.078961 
L 344.124323 117.779025 
L 345.065598 119.529186 
L 344.877343 119.179154 
L 344.500833 117.779025 
L 344.689088 117.779025 
L 344.689088 118.129058 
L 345.065598 118.47909 
L 345.442109 119.179154 
L 346.195129 120.929315 
L 351.466273 130.730218 
L 351.654528 132.130347 
L 352.219294 133.880508 
L 353.53708 137.38083 
L 355.231376 139.130991 
L 355.984396 138.780959 
L 356.925672 135.980701 
L 357.866948 129.330089 
L 359.749499 127.92996 
L 363.326347 130.030153 
L 366.903195 132.830411 
L 368.22098 133.530476 
L 368.032725 132.480379 
L 367.656215 131.430282 
L 367.84447 131.430282 
L 368.22098 132.130347 
L 369.727022 133.180443 
L 374.621655 143.68141 
L 376.692462 153.482312 
L 375.939441 152.432216 
L 376.692462 155.582506 
L 376.692462 155.232474 
L 376.692462 154.532409 
L 376.315952 152.782248 
L 375.939441 152.082183 
L 375.374676 150.682055 
L 368.032725 129.330089 
L 368.22098 129.330089 
L 368.409236 129.680121 
L 368.974001 131.780314 
L 367.279705 130.380185 
L 365.397153 129.330089 
L 364.267623 129.680121 
L 363.891112 133.180443 
L 363.891112 138.080894 
L 364.267623 144.731507 
L 364.832388 149.631958 
L 364.832388 151.032087 
L 364.455878 151.032087 
L 364.267623 150.682055 
L 363.702857 150.332022 
L 363.514602 149.631958 
L 362.949837 148.931893 
L 362.385071 147.881797 
L 361.25554 146.481668 
L 360.126009 145.781603 
L 359.749499 145.081539 
L 358.996479 144.031442 
L 358.431713 142.281281 
L 356.360907 133.530476 
L 355.984396 128.980057 
L 355.984396 123.379541 
L 356.549162 119.879219 
L 357.490438 117.078961 
L 358.243458 117.078961 
L 358.996479 118.47909 
L 359.372989 118.829122 
L 359.749499 119.529186 
L 360.87903 120.929315 
L 361.443795 120.929315 
L 363.326347 121.979412 
L 363.702857 121.979412 
L 363.891112 122.329444 
L 364.079367 122.329444 
L 364.079367 122.329444 
L 364.079367 122.679476 
L 363.702857 122.329444 
L 363.138092 122.329444 
L 362.196816 121.62938 
L 361.067285 120.929315 
L 359.937754 121.62938 
L 358.808224 123.729573 
L 358.243458 127.229895 
L 358.243458 130.730218 
L 359.184734 138.430927 
L 359.184734 140.53112 
L 359.184734 140.181088 
L 358.996479 139.831056 
L 358.996479 139.130991 
L 358.808224 138.780959 
L 358.431713 137.38083 
L 358.619968 137.38083 
L 358.619968 137.38083 
L 358.619968 137.030798 
L 358.808224 137.030798 
L 358.808224 136.680766 
L 358.996479 136.330733 
L 358.996479 134.930604 
L 358.996479 134.930604 
L 358.619968 134.23054 
L 357.866948 131.780314 
L 357.490438 130.730218 
L 357.113927 128.630024 
L 356.925672 126.529831 
L 356.925672 123.029509 
L 357.302182 119.879219 
L 359.184734 118.129058 
L 361.632051 118.47909 
L 362.573326 118.829122 
L 363.326347 119.529186 
L 364.832388 121.979412 
L 365.773664 123.729573 
L 368.22098 127.92996 
L 370.291787 132.830411 
L 370.291787 133.180443 
L 369.915277 132.130347 
L 370.103532 131.780314 
L 371.044808 132.130347 
L 371.986083 133.880508 
L 371.986083 133.880508 
L 371.609573 133.530476 
L 371.421318 132.830411 
L 371.986083 132.830411 
L 371.986083 132.830411 
L 371.986083 132.130347 
L 371.986083 132.130347 
L 372.174338 132.130347 
L 372.174338 132.130347 
L 371.797828 131.430282 
L 371.421318 131.08025 
L 371.044808 130.380185 
L 370.480042 129.680121 
L 368.974001 126.879863 
L 365.208898 121.979412 
L 362.761581 118.829122 
L 359.372989 115.678832 
L 359.372989 115.678832 
" clip-path="url(#pe1863da9a7)" style="fill: none; stroke: #ffa07a; stroke-width: 1.5; stroke-linecap: square"/>
   </g>
   <g id="line2d_9">
    <path d="M 265.99844 228.039177 
" clip-path="url(#pe1863da9a7)" style="fill: none; stroke: #ffa07a; stroke-width: 1.5; stroke-linecap: square"/>
    <defs>
     <path id="m4485e0b177" d="M 0 5 
C 1.326016 5 2.597899 4.473168 3.535534 3.535534 
C 4.473168 2.597899 5 1.326016 5 0 
C 5 -1.326016 4.473168 -2.597899 3.535534 -3.535534 
C 2.597899 -4.473168 1.326016 -5 0 -5 
C -1.326016 -5 -2.597899 -4.473168 -3.535534 -3.535534 
C -4.473168 -2.597899 -5 -1.326016 -5 0 
C -5 1.326016 -4.473168 2.597899 -3.535534 3.535534 
C -2.597899 4.473168 -1.326016 5 0 5 
z
" style="stroke: #ffa07a"/>
    </defs>
    <g clip-path="url(#pe1863da9a7)">
     <use xlink:href="#m4485e0b177" x="265.99844" y="228.039177" style="fill: #ffa07a; stroke: #ffa07a"/>
    </g>
   </g>
   <g id="line2d_10">
    <path d="M 359.372989 115.678832 
" clip-path="url(#pe1863da9a7)" style="fill: none; stroke: #ffa07a; stroke-width: 1.5; stroke-linecap: square"/>
    <defs>
     <path id="mbdcd11920f" d="M -5 5 
L 5 5 
L 5 -5 
L -5 -5 
z
" style="stroke: #ffa07a; stroke-linejoin: miter"/>
    </defs>
    <g clip-path="url(#pe1863da9a7)">
     <use xlink:href="#mbdcd11920f" x="359.372989" y="115.678832" style="fill: #ffa07a; stroke: #ffa07a; stroke-linejoin: miter"/>
    </g>
   </g>
   <g id="line2d_11">
    <path d="M 261.103806 230.839434 
L 262.609847 230.839434 
L 263.927633 230.489402 
L 266.939715 231.189467 
L 268.069246 231.189467 
L 269.763542 230.839434 
L 272.58737 230.839434 
L 273.528645 231.189467 
L 275.034686 230.839434 
L 276.917238 230.839434 
L 278.799789 231.189467 
L 281.811871 230.489402 
L 284.447443 230.489402 
L 285.200464 230.839434 
L 287.647781 230.839434 
L 291.412884 231.889531 
L 292.542414 231.889531 
L 294.989731 232.589596 
L 295.742752 232.589596 
L 296.684027 232.939628 
L 297.813558 233.639692 
L 300.82564 237.840079 
L 301.578661 237.840079 
L 301.390406 235.739886 
L 301.955171 235.389853 
L 302.708192 235.739886 
L 303.084702 236.089918 
L 303.837723 236.43995 
L 304.214233 236.789982 
L 304.778998 236.789982 
L 305.155509 237.490047 
L 305.532019 237.840079 
L 305.908529 238.540143 
L 305.908529 238.540143 
L 305.720274 238.890176 
L 305.720274 239.240208 
L 305.343764 239.940272 
L 304.778998 239.940272 
L 304.402488 240.290305 
L 300.260875 240.290305 
L 299.69611 240.640337 
L 298.566579 240.640337 
L 297.248793 240.990369 
L 295.931007 240.990369 
L 294.613221 241.340401 
L 291.601139 241.340401 
L 289.906842 241.690433 
L 288.212546 241.690433 
L 286.51825 241.340401 
L 281.247106 241.340401 
L 275.034686 240.290305 
L 270.704818 239.59024 
L 268.634012 238.890176 
L 266.37495 238.540143 
L 263.927633 235.739886 
L 262.609847 235.389853 
L 259.597765 235.739886 
L 257.338703 234.689789 
L 256.020917 234.339757 
L 253.761856 235.389853 
L 249.243732 233.28966 
L 247.172926 232.939628 
L 245.290374 231.539499 
L 243.219568 229.439305 
L 241.337016 227.339112 
L 238.324934 224.538854 
L 233.242045 220.6885 
L 231.736004 219.288371 
L 230.418218 218.238274 
L 228.347412 217.188178 
L 227.217881 215.438016 
L 226.276605 214.38792 
L 225.147074 212.637759 
L 224.205799 210.887598 
L 223.452778 208.787404 
L 222.699758 207.387275 
L 222.134992 205.987146 
L 221.381972 203.186889 
L 220.817206 200.036598 
L 220.440696 195.136147 
L 220.440696 191.635825 
L 220.628951 189.885664 
L 221.005461 188.135503 
L 221.946737 185.685277 
L 222.699758 184.285148 
L 223.452778 183.235052 
L 224.205799 181.834923 
L 225.147074 180.784826 
L 226.841371 182.184955 
L 227.406136 181.48489 
L 228.723922 181.48489 
L 230.229963 181.834923 
L 231.359494 180.784826 
L 232.30077 179.734729 
L 233.4303 178.684633 
L 234.748086 177.984568 
L 240.207486 176.234407 
L 241.337016 176.234407 
L 242.278292 175.884375 
L 243.972588 175.884375 
L 244.725609 175.534343 
L 245.478629 175.884375 
L 247.361181 175.884375 
L 247.737691 176.584439 
L 248.302457 176.934472 
L 248.302457 176.234407 
L 248.490712 175.884375 
L 248.490712 175.18431 
L 248.678967 174.834278 
L 249.431987 175.18431 
L 249.243732 174.834278 
L 249.431987 174.484246 
L 249.431987 173.784182 
L 249.620242 173.784182 
L 249.996753 173.084117 
L 250.373263 172.734085 
L 250.373263 172.384053 
L 250.938028 172.03402 
L 251.314539 172.03402 
L 251.502794 170.633891 
L 252.067559 169.933827 
L 252.632325 169.933827 
L 253.385345 169.583795 
L 253.761856 169.233763 
L 256.773938 167.483601 
L 258.091724 166.783537 
L 261.292061 164.683344 
L 261.668571 164.333311 
L 262.045082 164.333311 
L 262.045082 164.333311 
L 262.233337 163.983279 
L 262.233337 163.983279 
L 262.798102 163.983279 
L 263.174613 163.633247 
L 263.362868 163.633247 
L 263.362868 163.633247 
L 264.492399 162.933183 
L 265.433674 162.933183 
L 265.621929 162.58315 
L 266.37495 161.883086 
L 266.563205 161.883086 
L 266.939715 161.183021 
L 267.12797 161.183021 
L 267.12797 161.183021 
L 267.316226 160.832989 
L 267.12797 160.832989 
L 267.12797 160.482957 
L 266.75146 159.782892 
L 266.75146 159.43286 
L 266.563205 159.43286 
L 266.186695 158.732796 
L 265.99844 158.732796 
L 265.99844 158.732796 
L 265.621929 158.382764 
L 265.621929 158.032731 
L 265.245419 157.682699 
L 265.057164 157.682699 
L 264.304143 156.982635 
L 264.115888 156.632602 
L 264.115888 156.982635 
L 263.927633 156.632602 
L 263.551123 156.632602 
L 263.362868 156.28257 
L 262.609847 155.582506 
L 262.421592 155.582506 
L 262.045082 155.232474 
L 261.856827 154.882441 
L 261.480316 154.532409 
L 261.103806 154.532409 
L 260.915551 154.182377 
L 260.16253 153.482312 
L 259.78602 153.482312 
L 259.40951 153.13228 
L 259.032999 153.13228 
L 258.656489 152.782248 
L 258.468234 152.782248 
L 258.091724 152.432216 
L 257.338703 152.432216 
L 257.150448 152.082183 
L 256.773938 152.082183 
L 256.585683 151.732151 
L 256.397428 151.732151 
L 256.020917 151.382119 
L 255.832662 151.382119 
L 255.832662 151.382119 
L 255.644407 151.032087 
L 255.644407 151.032087 
L 255.644407 150.682055 
L 255.644407 150.682055 
L 256.209172 150.682055 
L 255.832662 150.682055 
L 255.644407 150.332022 
L 254.514876 150.332022 
L 254.138366 149.98199 
L 252.82058 149.98199 
L 252.44407 149.631958 
L 251.879304 149.631958 
L 251.126284 149.281926 
L 250.561518 149.281926 
L 249.243732 148.581861 
L 248.490712 148.581861 
L 247.361181 147.881797 
L 246.419905 147.881797 
L 244.913864 147.181732 
L 244.160843 147.181732 
L 242.654802 146.481668 
L 241.901782 146.481668 
L 240.583996 145.781603 
L 239.64272 145.431571 
L 238.8897 145.431571 
L 235.689362 144.031442 
L 234.936342 144.031442 
L 234.183321 143.68141 
L 233.806811 143.68141 
L 233.05379 143.331378 
L 232.30077 143.331378 
L 230.982984 142.631313 
L 230.418218 142.631313 
L 229.665198 142.281281 
L 229.100432 142.281281 
L 228.535667 141.931249 
L 227.970901 141.931249 
L 227.406136 141.581217 
L 226.653115 141.581217 
L 225.523585 140.881152 
L 224.958819 140.881152 
L 224.582309 140.53112 
L 224.017543 140.53112 
L 223.264523 140.181088 
L 221.381972 140.181088 
L 219.687675 139.130991 
L 219.12291 139.130991 
L 218.7464 138.780959 
L 218.181634 138.780959 
L 217.805124 138.430927 
L 216.110828 137.38083 
L 215.734317 137.38083 
L 214.416531 136.680766 
L 212.722235 135.630669 
L 211.780959 135.630669 
L 210.463173 134.930604 
L 209.521898 134.930604 
L 208.957132 134.23054 
L 208.392367 134.580572 
L 207.827601 134.23054 
L 207.451091 134.23054 
L 206.133305 133.530476 
L 205.56854 133.530476 
L 204.627264 132.830411 
L 204.062499 132.830411 
L 203.497733 132.480379 
L 202.932968 132.480379 
L 202.368202 132.130347 
L 201.803437 132.130347 
L 201.238672 131.780314 
L 200.485651 131.08025 
L 200.109141 131.08025 
L 199.544375 130.380185 
L 198.97961 130.030153 
L 198.414844 129.330089 
L 196.908803 126.529831 
L 194.649742 123.379541 
L 193.896721 123.029509 
L 193.520211 123.729573 
L 192.39068 124.429638 
L 192.01417 125.129702 
L 191.825915 125.129702 
L 191.261149 125.829767 
L 190.508129 126.529831 
L 189.943363 127.229895 
L 189.378598 127.579928 
L 189.190343 128.279992 
L 188.625577 129.330089 
L 188.060812 129.680121 
L 187.684302 130.380185 
L 187.307791 130.730218 
L 185.236985 131.780314 
L 184.860474 132.130347 
L 183.354433 133.180443 
L 182.789668 133.530476 
L 182.036647 134.23054 
L 181.095372 134.930604 
L 180.718861 135.630669 
L 179.024565 136.680766 
L 178.4598 136.680766 
L 178.083289 137.030798 
L 177.895034 138.080894 
L 178.083289 141.231184 
L 178.83631 145.781603 
L 179.21282 149.631958 
L 180.154096 155.232474 
L 180.718861 160.482957 
L 182.036647 170.283859 
L 182.224902 173.084117 
L 182.224902 175.884375 
L 181.848392 178.3346 
L 181.848392 181.48489 
L 181.471882 183.235052 
L 181.283627 183.585084 
L 180.907116 184.635181 
L 180.718861 184.985213 
L 180.718861 185.335245 
L 180.530606 185.335245 
L 180.530606 185.335245 
L 180.530606 184.285148 
L 180.530606 184.285148 
L 180.718861 183.585084 
L 180.718861 182.885019 
L 180.907116 181.48489 
L 180.907116 179.384697 
L 180.342351 171.683988 
L 179.777586 166.083473 
L 176.765503 141.931249 
L 176.200738 137.030798 
L 176.012483 131.08025 
L 176.388993 129.330089 
L 177.142014 128.630024 
L 177.142014 127.579928 
L 177.895034 127.229895 
L 178.4598 126.529831 
L 180.718861 125.479734 
L 181.471882 124.77967 
L 182.977923 124.079605 
L 185.613495 124.079605 
L 186.554771 123.729573 
L 189.002088 123.729573 
L 189.755108 123.379541 
L 194.084976 123.379541 
L 194.649742 123.729573 
L 195.591017 123.729573 
L 195.591017 123.729573 
L 195.591017 123.029509 
L 195.402762 123.029509 
L 195.214507 122.679476 
L 195.214507 122.329444 
L 195.026252 122.329444 
L 194.649742 121.62938 
L 194.461487 121.62938 
L 194.461487 121.62938 
L 194.273231 121.279348 
L 194.273231 121.279348 
L 194.273231 120.929315 
L 194.273231 120.929315 
L 194.461487 120.929315 
L 194.461487 120.929315 
L 194.461487 120.579283 
L 194.649742 120.579283 
L 194.649742 120.579283 
L 194.837997 120.229251 
L 194.837997 120.229251 
L 195.214507 120.229251 
L 195.402762 119.879219 
L 195.402762 119.529186 
L 195.591017 119.179154 
L 195.591017 118.829122 
L 195.967528 118.129058 
L 196.155783 118.129058 
L 196.344038 117.779025 
L 196.532293 117.779025 
L 196.720548 117.428993 
L 197.473569 117.428993 
L 198.038334 117.779025 
L 198.414844 117.779025 
L 198.6031 118.129058 
L 199.73263 118.129058 
L 199.920886 118.47909 
L 201.426927 118.47909 
L 201.803437 117.779025 
L 201.803437 117.779025 
L 202.179947 117.779025 
L 202.179947 117.779025 
L 202.179947 118.129058 
L 202.368202 118.129058 
L 202.368202 120.579283 
L 202.179947 120.929315 
L 202.179947 123.029509 
L 202.744713 126.529831 
L 202.932968 128.279992 
L 206.133305 142.631313 
L 208.768877 153.832345 
L 211.404449 165.73344 
L 212.53398 172.734085 
L 213.287001 182.184955 
L 213.098745 185.685277 
L 212.53398 187.085406 
L 211.780959 189.535632 
L 211.027939 190.235696 
L 210.086663 189.185599 
L 209.333643 188.135503 
L 208.392367 186.385342 
L 207.262836 183.935116 
L 204.815519 177.284504 
L 203.309478 170.633891 
L 199.73263 153.832345 
L 195.967528 131.430282 
L 192.76719 116.378896 
L 191.449404 112.528542 
L 191.072894 112.878574 
L 190.319873 113.928671 
L 189.755108 114.978768 
L 189.002088 115.678832 
L 188.249067 116.028864 
L 187.307791 116.728929 
L 186.554771 116.728929 
L 185.42524 117.078961 
L 183.542688 117.078961 
L 182.601413 117.428993 
L 177.895034 117.428993 
L 177.142014 117.779025 
L 176.200738 117.779025 
L 175.447717 118.129058 
L 174.694697 118.829122 
L 173.000401 120.929315 
L 172.435635 121.979412 
L 171.682615 124.079605 
L 171.49436 125.479734 
L 170.929594 128.279992 
L 171.306104 131.430282 
L 171.306104 134.23054 
L 173.376911 145.781603 
L 175.447717 158.732796 
L 176.953759 168.88373 
L 179.777586 190.235696 
L 180.342351 197.936405 
L 182.224902 212.987791 
L 181.283627 218.238274 
L 180.530606 219.288371 
L 179.024565 219.288371 
L 178.648055 218.588306 
L 178.271545 218.238274 
L 178.083289 218.238274 
L 177.706779 217.53821 
L 177.706779 216.488113 
L 177.895034 216.138081 
L 177.895034 215.438016 
L 178.271545 212.987791 
L 178.271545 210.187533 
L 178.4598 208.787404 
L 178.4598 207.037243 
L 178.271545 205.287082 
L 178.271545 201.436727 
L 178.083289 199.336534 
L 178.083289 192.685922 
L 178.4598 189.185599 
L 178.83631 188.485535 
L 179.024565 187.085406 
L 179.21282 186.735374 
L 179.589331 184.635181 
L 179.777586 182.534987 
L 179.965841 182.184955 
L 180.907116 181.48489 
L 181.848392 181.48489 
L 182.413158 181.134858 
L 183.542688 181.134858 
L 184.295709 180.784826 
L 187.307791 180.784826 
L 187.872557 180.434794 
L 188.625577 176.934472 
L 188.813832 168.533698 
L 189.566853 167.483601 
L 191.825915 167.483601 
L 193.143701 167.833634 
L 194.273231 167.833634 
L 195.591017 168.183666 
L 196.908803 168.183666 
L 198.226589 168.533698 
L 200.297396 168.533698 
L 202.556458 170.283859 
L 204.439009 172.384053 
L 206.509815 176.234407 
L 208.768877 180.784826 
L 213.851766 193.035954 
L 216.675593 200.386631 
L 218.558144 204.93705 
L 222.134992 214.38792 
L 225.900095 225.238919 
L 227.782646 230.13937 
L 229.476943 233.28966 
L 230.982984 233.989724 
L 232.30077 231.539499 
L 233.242045 228.389209 
L 233.618556 221.388564 
L 233.806811 213.687855 
L 233.4303 203.536921 
L 232.865535 191.985857 
L 231.736004 180.084762 
L 228.347412 148.931893 
L 228.159157 144.031442 
L 228.347412 140.881152 
L 228.723922 138.780959 
L 229.288687 138.430927 
L 230.606473 139.130991 
L 231.736004 140.181088 
L 231.924259 140.181088 
L 231.736004 139.130991 
L 232.112514 139.481023 
L 230.041708 137.030798 
L 229.288687 134.930604 
L 228.912177 134.580572 
L 228.535667 134.580572 
L 228.159157 134.23054 
L 227.594391 133.880508 
L 227.217881 133.880508 
L 226.276605 133.180443 
L 225.71184 133.180443 
L 225.523585 132.830411 
L 223.829288 132.830411 
L 223.452778 133.180443 
L 222.888013 133.880508 
L 222.699758 135.280637 
L 221.946737 135.980701 
L 221.946737 137.38083 
L 221.193716 146.481668 
L 220.628951 148.581861 
L 219.87593 149.281926 
L 219.49942 150.682055 
L 218.558144 151.732151 
L 216.110828 150.682055 
L 214.981297 150.682055 
L 212.345725 149.98199 
L 210.274918 149.98199 
L 208.204112 150.682055 
L 207.262836 150.332022 
L 206.698071 149.98199 
L 203.874244 149.98199 
L 203.309478 149.631958 
L 202.744713 149.631958 
L 201.991692 149.281926 
L 201.238672 148.231829 
L 200.109141 148.231829 
L 198.97961 147.531765 
L 198.226589 147.531765 
L 197.850079 147.181732 
L 197.285314 147.181732 
L 197.285314 146.8317 
L 197.285314 147.181732 
L 197.473569 147.181732 
L 197.661824 146.8317 
L 198.226589 146.8317 
L 198.791355 145.781603 
L 199.167865 145.431571 
L 199.35612 145.081539 
L 199.73263 144.731507 
L 202.744713 140.881152 
L 204.250754 139.831056 
L 204.815519 139.130991 
L 205.56854 138.780959 
L 206.698071 138.430927 
L 207.262836 138.780959 
L 207.827601 138.780959 
L 210.086663 138.080894 
L 210.651429 137.730862 
L 212.722235 137.030798 
L 213.475256 137.030798 
L 214.228276 136.330733 
L 215.357807 135.980701 
L 216.110828 135.630669 
L 217.805124 135.630669 
L 219.12291 134.930604 
L 219.87593 135.280637 
L 220.628951 135.280637 
L 220.817206 134.930604 
L 222.134992 134.930604 
L 222.511502 134.580572 
L 223.076268 134.930604 
L 223.452778 134.930604 
L 223.829288 134.580572 
L 224.394054 134.930604 
L 224.770564 134.930604 
L 224.770564 134.580572 
L 225.147074 134.580572 
L 225.523585 134.930604 
L 225.71184 134.930604 
L 225.71184 134.580572 
L 226.08835 134.580572 
L 226.46486 133.880508 
L 226.653115 133.880508 
L 226.653115 133.530476 
L 226.276605 133.530476 
L 225.900095 133.880508 
L 226.08835 134.580572 
L 225.71184 134.580572 
L 225.71184 134.580572 
L 225.335329 134.23054 
L 225.147074 134.23054 
L 224.205799 132.480379 
L 223.829288 132.130347 
L 223.452778 132.130347 
L 223.264523 131.780314 
L 222.699758 131.780314 
L 222.323247 131.430282 
L 221.381972 131.430282 
L 221.005461 131.08025 
L 220.628951 131.430282 
L 218.934655 131.430282 
L 218.558144 131.780314 
L 217.993379 131.780314 
L 216.299083 133.880508 
L 215.922572 134.930604 
L 215.546062 135.630669 
L 215.357807 136.330733 
L 214.981297 139.130991 
L 214.604787 140.53112 
L 214.604787 144.381475 
L 214.228276 148.581861 
L 214.416531 151.032087 
L 214.416531 155.932538 
L 214.228276 157.332667 
L 214.228276 158.382764 
L 214.040021 159.43286 
L 214.228276 160.132925 
L 214.040021 161.183021 
L 214.040021 161.883086 
L 214.040021 161.883086 
L 214.228276 162.58315 
L 214.040021 162.233118 
L 215.734317 164.333311 
L 217.993379 166.783537 
L 220.817206 170.283859 
L 224.394054 176.584439 
L 225.900095 182.885019 
L 227.217881 189.885664 
L 227.594391 198.286437 
L 227.217881 208.437372 
L 226.841371 212.287726 
L 225.71184 219.288371 
L 226.276605 219.288371 
L 227.029626 218.588306 
L 228.347412 217.188178 
L 230.041708 212.987791 
L 230.418218 207.037243 
L 230.229963 200.036598 
L 229.100432 191.635825 
L 226.276605 179.734729 
L 217.805124 152.432216 
L 214.604787 137.730862 
L 213.098745 127.229895 
L 213.098745 122.329444 
L 213.851766 120.579283 
L 214.604787 120.579283 
L 215.169552 119.529186 
L 215.734317 118.129058 
L 215.922572 116.728929 
L 216.863848 114.278703 
L 217.240358 113.928671 
L 217.993379 113.928671 
L 218.181634 113.578639 
L 218.181634 112.17851 
L 217.805124 110.428349 
L 217.616869 110.078316 
L 217.240358 110.078316 
L 217.240358 109.728284 
L 216.863848 109.728284 
L 216.863848 109.728284 
L 216.675593 110.078316 
L 216.675593 111.128413 
L 216.863848 111.828477 
L 216.863848 112.528542 
L 217.052103 113.578639 
L 217.240358 115.678832 
L 218.934655 127.229895 
L 219.87593 133.880508 
L 221.005461 142.981346 
L 222.323247 156.28257 
L 225.335329 177.284504 
L 233.995066 208.08734 
L 237.948424 216.838145 
L 237.383658 217.53821 
L 235.689362 215.788049 
L 233.995066 213.337823 
L 232.67728 210.887598 
L 231.736004 209.487469 
L 231.171239 208.08734 
L 231.359494 208.08734 
L 231.547749 208.437372 
L 231.547749 208.787404 
L 231.736004 208.787404 
L 231.736004 208.437372 
L 231.547749 208.437372 
L 231.547749 208.437372 
L 231.359494 208.08734 
L 231.547749 208.08734 
L 233.4303 210.537565 
L 235.877617 214.037888 
L 238.513189 215.438016 
L 240.583996 211.587662 
L 240.207486 197.586373 
L 238.324934 185.335245 
L 236.065872 176.584439 
L 232.489025 166.783537 
L 228.535667 157.332667 
L 223.076268 139.831056 
L 217.616869 113.228606 
L 216.299083 99.57735 
L 217.052103 98.877285 
L 217.428614 97.127124 
L 217.428614 90.826544 
L 217.993379 87.676254 
L 218.7464 85.576061 
L 219.687675 85.226028 
L 220.252441 85.576061 
L 221.193716 86.976189 
L 221.570227 87.326222 
L 222.511502 88.026286 
L 222.888013 87.676254 
L 223.641033 87.676254 
L 224.017543 88.026286 
L 224.582309 88.026286 
L 224.770564 88.376318 
L 225.147074 88.726351 
L 225.523585 89.426415 
L 225.900095 89.426415 
L 226.08835 89.776447 
L 226.653115 89.776447 
L 227.217881 90.826544 
L 227.782646 92.576705 
L 228.159157 93.626802 
L 228.723922 96.777092 
L 229.288687 99.57735 
L 230.229963 104.827833 
L 231.359494 110.428349 
L 232.489025 117.428993 
L 234.559831 132.480379 
L 235.501107 142.631313 
L 236.254128 155.582506 
L 236.818893 170.983924 
L 240.01923 195.48618 
L 248.114201 216.488113 
L 247.925946 216.138081 
L 246.984671 215.438016 
L 246.984671 215.087984 
L 246.984671 215.087984 
L 247.172926 215.438016 
L 246.984671 215.087984 
L 246.796415 215.087984 
L 246.796415 215.087984 
L 246.796415 214.737952 
L 246.60816 214.737952 
L 246.23165 214.037888 
L 246.23165 214.037888 
L 246.60816 214.38792 
L 247.737691 214.38792 
L 249.996753 210.187533 
L 250.373263 199.686566 
L 249.620242 186.385342 
L 248.302457 177.284504 
L 245.478629 165.033376 
L 242.654802 156.982635 
L 236.254128 138.080894 
L 236.254128 138.080894 
" clip-path="url(#pe1863da9a7)" style="fill: none; stroke: #0000ff; stroke-width: 1.5; stroke-linecap: square"/>
   </g>
   <g id="line2d_12">
    <path d="M 261.103806 230.839434 
" clip-path="url(#pe1863da9a7)" style="fill: none; stroke: #0000ff; stroke-width: 1.5; stroke-linecap: square"/>
    <defs>
     <path id="m4af02363b5" d="M 0 5 
C 1.326016 5 2.597899 4.473168 3.535534 3.535534 
C 4.473168 2.597899 5 1.326016 5 0 
C 5 -1.326016 4.473168 -2.597899 3.535534 -3.535534 
C 2.597899 -4.473168 1.326016 -5 0 -5 
C -1.326016 -5 -2.597899 -4.473168 -3.535534 -3.535534 
C -4.473168 -2.597899 -5 -1.326016 -5 0 
C -5 1.326016 -4.473168 2.597899 -3.535534 3.535534 
C -2.597899 4.473168 -1.326016 5 0 5 
z
" style="stroke: #0000ff"/>
    </defs>
    <g clip-path="url(#pe1863da9a7)">
     <use xlink:href="#m4af02363b5" x="261.103806" y="230.839434" style="fill: #0000ff; stroke: #0000ff"/>
    </g>
   </g>
   <g id="line2d_13">
    <path d="M 236.254128 138.080894 
" clip-path="url(#pe1863da9a7)" style="fill: none; stroke: #0000ff; stroke-width: 1.5; stroke-linecap: square"/>
    <defs>
     <path id="mc16f0e79d4" d="M -5 5 
L 5 5 
L 5 -5 
L -5 -5 
z
" style="stroke: #0000ff; stroke-linejoin: miter"/>
    </defs>
    <g clip-path="url(#pe1863da9a7)">
     <use xlink:href="#mc16f0e79d4" x="236.254128" y="138.080894" style="fill: #0000ff; stroke: #0000ff; stroke-linejoin: miter"/>
    </g>
   </g>
   <g id="patch_3">
    <path d="M 57.6 307.584 
L 57.6 41.472 
" style="fill: none; stroke: #000000; stroke-width: 0.8; stroke-linejoin: miter; stroke-linecap: square"/>
   </g>
   <g id="patch_4">
    <path d="M 57.6 307.584 
L 414.72 307.584 
" style="fill: none; stroke: #000000; stroke-width: 0.8; stroke-linejoin: miter; stroke-linecap: square"/>
   </g>
   <g id="legend_1">
    <g id="patch_5">
     <path d="M 282.164531 119.523563 
L 404.22 119.523563 
Q 407.22 119.523563 407.22 116.523563 
L 407.22 51.972 
Q 407.22 48.972 404.22 48.972 
L 282.164531 48.972 
Q 279.164531 48.972 279.164531 51.972 
L 279.164531 116.523563 
Q 279.164531 119.523563 282.164531 119.523563 
z
" style="fill: #ffffff; opacity: 0.8; stroke: #cccccc; stroke-linejoin: miter"/>
    </g>
    <g id="line2d_14">
     <path d="M 285.164531 61.119656 
L 300.164531 61.119656 
L 315.164531 61.119656 
" style="fill: none; stroke: #000000; stroke-width: 1.5; stroke-linecap: square"/>
    </g>
    <g id="text_7">
     <!-- Trajectory -->
     <g transform="translate(327.164531 66.369656)scale(0.15 -0.15)">
      <defs>
       <path id="DejaVuSans-54" d="M -19 4666 
L 3928 4666 
L 3928 4134 
L 2272 4134 
L 2272 0 
L 1638 0 
L 1638 4134 
L -19 4134 
L -19 4666 
z
" transform="scale(0.015625)"/>
       <path id="DejaVuSans-72" d="M 2631 2963 
Q 2534 3019 2420 3045 
Q 2306 3072 2169 3072 
Q 1681 3072 1420 2755 
Q 1159 2438 1159 1844 
L 1159 0 
L 581 0 
L 581 3500 
L 1159 3500 
L 1159 2956 
Q 1341 3275 1631 3429 
Q 1922 3584 2338 3584 
Q 2397 3584 2469 3576 
Q 2541 3569 2628 3553 
L 2631 2963 
z
" transform="scale(0.015625)"/>
       <path id="DejaVuSans-61" d="M 2194 1759 
Q 1497 1759 1228 1600 
Q 959 1441 959 1056 
Q 959 750 1161 570 
Q 1363 391 1709 391 
Q 2188 391 2477 730 
Q 2766 1069 2766 1631 
L 2766 1759 
L 2194 1759 
z
M 3341 1997 
L 3341 0 
L 2766 0 
L 2766 531 
Q 2569 213 2275 61 
Q 1981 -91 1556 -91 
Q 1019 -91 701 211 
Q 384 513 384 1019 
Q 384 1609 779 1909 
Q 1175 2209 1959 2209 
L 2766 2209 
L 2766 2266 
Q 2766 2663 2505 2880 
Q 2244 3097 1772 3097 
Q 1472 3097 1187 3025 
Q 903 2953 641 2809 
L 641 3341 
Q 956 3463 1253 3523 
Q 1550 3584 1831 3584 
Q 2591 3584 2966 3190 
Q 3341 2797 3341 1997 
z
" transform="scale(0.015625)"/>
       <path id="DejaVuSans-6a" d="M 603 3500 
L 1178 3500 
L 1178 -63 
Q 1178 -731 923 -1031 
Q 669 -1331 103 -1331 
L -116 -1331 
L -116 -844 
L 38 -844 
Q 366 -844 484 -692 
Q 603 -541 603 -63 
L 603 3500 
z
M 603 4863 
L 1178 4863 
L 1178 4134 
L 603 4134 
L 603 4863 
z
" transform="scale(0.015625)"/>
       <path id="DejaVuSans-65" d="M 3597 1894 
L 3597 1613 
L 953 1613 
Q 991 1019 1311 708 
Q 1631 397 2203 397 
Q 2534 397 2845 478 
Q 3156 559 3463 722 
L 3463 178 
Q 3153 47 2828 -22 
Q 2503 -91 2169 -91 
Q 1331 -91 842 396 
Q 353 884 353 1716 
Q 353 2575 817 3079 
Q 1281 3584 2069 3584 
Q 2775 3584 3186 3129 
Q 3597 2675 3597 1894 
z
M 3022 2063 
Q 3016 2534 2758 2815 
Q 2500 3097 2075 3097 
Q 1594 3097 1305 2825 
Q 1016 2553 972 2059 
L 3022 2063 
z
" transform="scale(0.015625)"/>
       <path id="DejaVuSans-63" d="M 3122 3366 
L 3122 2828 
Q 2878 2963 2633 3030 
Q 2388 3097 2138 3097 
Q 1578 3097 1268 2742 
Q 959 2388 959 1747 
Q 959 1106 1268 751 
Q 1578 397 2138 397 
Q 2388 397 2633 464 
Q 2878 531 3122 666 
L 3122 134 
Q 2881 22 2623 -34 
Q 2366 -91 2075 -91 
Q 1284 -91 818 406 
Q 353 903 353 1747 
Q 353 2603 823 3093 
Q 1294 3584 2113 3584 
Q 2378 3584 2631 3529 
Q 2884 3475 3122 3366 
z
" transform="scale(0.015625)"/>
       <path id="DejaVuSans-74" d="M 1172 4494 
L 1172 3500 
L 2356 3500 
L 2356 3053 
L 1172 3053 
L 1172 1153 
Q 1172 725 1289 603 
Q 1406 481 1766 481 
L 2356 481 
L 2356 0 
L 1766 0 
Q 1100 0 847 248 
Q 594 497 594 1153 
L 594 3053 
L 172 3053 
L 172 3500 
L 594 3500 
L 594 4494 
L 1172 4494 
z
" transform="scale(0.015625)"/>
       <path id="DejaVuSans-6f" d="M 1959 3097 
Q 1497 3097 1228 2736 
Q 959 2375 959 1747 
Q 959 1119 1226 758 
Q 1494 397 1959 397 
Q 2419 397 2687 759 
Q 2956 1122 2956 1747 
Q 2956 2369 2687 2733 
Q 2419 3097 1959 3097 
z
M 1959 3584 
Q 2709 3584 3137 3096 
Q 3566 2609 3566 1747 
Q 3566 888 3137 398 
Q 2709 -91 1959 -91 
Q 1206 -91 779 398 
Q 353 888 353 1747 
Q 353 2609 779 3096 
Q 1206 3584 1959 3584 
z
" transform="scale(0.015625)"/>
       <path id="DejaVuSans-79" d="M 2059 -325 
Q 1816 -950 1584 -1140 
Q 1353 -1331 966 -1331 
L 506 -1331 
L 506 -850 
L 844 -850 
Q 1081 -850 1212 -737 
Q 1344 -625 1503 -206 
L 1606 56 
L 191 3500 
L 800 3500 
L 1894 763 
L 2988 3500 
L 3597 3500 
L 2059 -325 
z
" transform="scale(0.015625)"/>
      </defs>
      <use xlink:href="#DejaVuSans-54"/>
      <use xlink:href="#DejaVuSans-72" x="46.333984"/>
      <use xlink:href="#DejaVuSans-61" x="87.447266"/>
      <use xlink:href="#DejaVuSans-6a" x="148.726562"/>
      <use xlink:href="#DejaVuSans-65" x="176.509766"/>
      <use xlink:href="#DejaVuSans-63" x="238.033203"/>
      <use xlink:href="#DejaVuSans-74" x="293.013672"/>
      <use xlink:href="#DejaVuSans-6f" x="332.222656"/>
      <use xlink:href="#DejaVuSans-72" x="393.404297"/>
      <use xlink:href="#DejaVuSans-79" x="434.517578"/>
     </g>
    </g>
    <g id="line2d_15">
     <path d="M 285.164531 83.136844 
L 300.164531 83.136844 
L 315.164531 83.136844 
" style="fill: none; stroke: #000000; stroke-width: 1.5; stroke-linecap: square"/>
     <g>
      <use xlink:href="#m70586b2ec5" x="300.164531" y="83.136844" style="stroke: #000000"/>
     </g>
    </g>
    <g id="text_8">
     <!-- Start -->
     <g transform="translate(327.164531 88.386844)scale(0.15 -0.15)">
      <defs>
       <path id="DejaVuSans-53" d="M 3425 4513 
L 3425 3897 
Q 3066 4069 2747 4153 
Q 2428 4238 2131 4238 
Q 1616 4238 1336 4038 
Q 1056 3838 1056 3469 
Q 1056 3159 1242 3001 
Q 1428 2844 1947 2747 
L 2328 2669 
Q 3034 2534 3370 2195 
Q 3706 1856 3706 1288 
Q 3706 609 3251 259 
Q 2797 -91 1919 -91 
Q 1588 -91 1214 -16 
Q 841 59 441 206 
L 441 856 
Q 825 641 1194 531 
Q 1563 422 1919 422 
Q 2459 422 2753 634 
Q 3047 847 3047 1241 
Q 3047 1584 2836 1778 
Q 2625 1972 2144 2069 
L 1759 2144 
Q 1053 2284 737 2584 
Q 422 2884 422 3419 
Q 422 4038 858 4394 
Q 1294 4750 2059 4750 
Q 2388 4750 2728 4690 
Q 3069 4631 3425 4513 
z
" transform="scale(0.015625)"/>
      </defs>
      <use xlink:href="#DejaVuSans-53"/>
      <use xlink:href="#DejaVuSans-74" x="63.476562"/>
      <use xlink:href="#DejaVuSans-61" x="102.685547"/>
      <use xlink:href="#DejaVuSans-72" x="163.964844"/>
      <use xlink:href="#DejaVuSans-74" x="205.078125"/>
     </g>
    </g>
    <g id="line2d_16">
     <path d="M 285.164531 105.154031 
L 300.164531 105.154031 
L 315.164531 105.154031 
" style="fill: none; stroke: #000000; stroke-width: 1.5; stroke-linecap: square"/>
     <g>
      <use xlink:href="#m715c148116" x="300.164531" y="105.154031" style="stroke: #000000; stroke-linejoin: miter"/>
     </g>
    </g>
    <g id="text_9">
     <!-- End -->
     <g transform="translate(327.164531 110.404031)scale(0.15 -0.15)">
      <defs>
       <path id="DejaVuSans-45" d="M 628 4666 
L 3578 4666 
L 3578 4134 
L 1259 4134 
L 1259 2753 
L 3481 2753 
L 3481 2222 
L 1259 2222 
L 1259 531 
L 3634 531 
L 3634 0 
L 628 0 
L 628 4666 
z
" transform="scale(0.015625)"/>
       <path id="DejaVuSans-6e" d="M 3513 2113 
L 3513 0 
L 2938 0 
L 2938 2094 
Q 2938 2591 2744 2837 
Q 2550 3084 2163 3084 
Q 1697 3084 1428 2787 
Q 1159 2491 1159 1978 
L 1159 0 
L 581 0 
L 581 3500 
L 1159 3500 
L 1159 2956 
Q 1366 3272 1645 3428 
Q 1925 3584 2291 3584 
Q 2894 3584 3203 3211 
Q 3513 2838 3513 2113 
z
" transform="scale(0.015625)"/>
       <path id="DejaVuSans-64" d="M 2906 2969 
L 2906 4863 
L 3481 4863 
L 3481 0 
L 2906 0 
L 2906 525 
Q 2725 213 2448 61 
Q 2172 -91 1784 -91 
Q 1150 -91 751 415 
Q 353 922 353 1747 
Q 353 2572 751 3078 
Q 1150 3584 1784 3584 
Q 2172 3584 2448 3432 
Q 2725 3281 2906 2969 
z
M 947 1747 
Q 947 1113 1208 752 
Q 1469 391 1925 391 
Q 2381 391 2643 752 
Q 2906 1113 2906 1747 
Q 2906 2381 2643 2742 
Q 2381 3103 1925 3103 
Q 1469 3103 1208 2742 
Q 947 2381 947 1747 
z
" transform="scale(0.015625)"/>
      </defs>
      <use xlink:href="#DejaVuSans-45"/>
      <use xlink:href="#DejaVuSans-6e" x="63.183594"/>
      <use xlink:href="#DejaVuSans-64" x="126.5625"/>
     </g>
    </g>
   </g>
  </g>
 </g>
 <defs>
  <clipPath id="pe1863da9a7">
   <rect x="57.6" y="41.472" width="357.12" height="266.112"/>
  </clipPath>
 </defs>
</svg>
