<?xml version="1.0" encoding="utf-8" standalone="no"?>
<!DOCTYPE svg PUBLIC "-//W3C//DTD SVG 1.1//EN"
  "http://www.w3.org/Graphics/SVG/1.1/DTD/svg11.dtd">
<svg xmlns:xlink="http://www.w3.org/1999/xlink" width="460.8pt" height="345.6pt" viewBox="0 0 460.8 345.6" xmlns="http://www.w3.org/2000/svg" version="1.1">
 <metadata>
  <rdf:RDF xmlns:dc="http://purl.org/dc/elements/1.1/" xmlns:cc="http://creativecommons.org/ns#" xmlns:rdf="http://www.w3.org/1999/02/22-rdf-syntax-ns#">
   <cc:Work>
    <dc:type rdf:resource="http://purl.org/dc/dcmitype/StillImage"/>
    <dc:date>2024-02-14T14:13:06.608710</dc:date>
    <dc:format>image/svg+xml</dc:format>
    <dc:creator>
     <cc:Agent>
      <dc:title>Matplotlib v3.5.0, https://matplotlib.org/</dc:title>
     </cc:Agent>
    </dc:creator>
   </cc:Work>
  </rdf:RDF>
 </metadata>
 <defs>
  <style type="text/css">*{stroke-linejoin: round; stroke-linecap: butt}</style>
 </defs>
 <g id="figure_1">
  <g id="patch_1">
   <path d="M 0 345.6 
L 460.8 345.6 
L 460.8 0 
L 0 0 
z
" style="fill: #ffffff"/>
  </g>
  <g id="axes_1">
   <g id="patch_2">
    <path d="M 57.6 307.584 
L 414.72 307.584 
L 414.72 41.472 
L 57.6 41.472 
z
" style="fill: #ffffff"/>
   </g>
   <g id="matplotlib.axis_1">
    <g id="xtick_1">
     <g id="line2d_1">
      <defs>
       <path id="m44421415a7" d="M 0 0 
L 0 3.5 
" style="stroke: #000000; stroke-width: 0.8"/>
      </defs>
      <g>
       <use xlink:href="#m44421415a7" x="73.832727" y="307.584" style="stroke: #000000; stroke-width: 0.8"/>
      </g>
     </g>
     <g id="text_1">
      <!-- 0 -->
      <g transform="translate(67.470227 329.780875)scale(0.2 -0.2)">
       <defs>
        <path id="DejaVuSans-30" d="M 2034 4250 
Q 1547 4250 1301 3770 
Q 1056 3291 1056 2328 
Q 1056 1369 1301 889 
Q 1547 409 2034 409 
Q 2525 409 2770 889 
Q 3016 1369 3016 2328 
Q 3016 3291 2770 3770 
Q 2525 4250 2034 4250 
z
M 2034 4750 
Q 2819 4750 3233 4129 
Q 3647 3509 3647 2328 
Q 3647 1150 3233 529 
Q 2819 -91 2034 -91 
Q 1250 -91 836 529 
Q 422 1150 422 2328 
Q 422 3509 836 4129 
Q 1250 4750 2034 4750 
z
" transform="scale(0.015625)"/>
       </defs>
       <use xlink:href="#DejaVuSans-30"/>
      </g>
     </g>
    </g>
    <g id="xtick_2">
     <g id="line2d_2">
      <g>
       <use xlink:href="#m44421415a7" x="399.962975" y="307.584" style="stroke: #000000; stroke-width: 0.8"/>
      </g>
     </g>
     <g id="text_2">
      <!-- 1 -->
      <g transform="translate(393.600475 329.780875)scale(0.2 -0.2)">
       <defs>
        <path id="DejaVuSans-31" d="M 794 531 
L 1825 531 
L 1825 4091 
L 703 3866 
L 703 4441 
L 1819 4666 
L 2450 4666 
L 2450 531 
L 3481 531 
L 3481 0 
L 794 0 
L 794 531 
z
" transform="scale(0.015625)"/>
       </defs>
       <use xlink:href="#DejaVuSans-31"/>
      </g>
     </g>
    </g>
    <g id="text_3">
     <!-- Normalised X position -->
     <g transform="translate(111.795937 353.137125)scale(0.2 -0.2)">
      <defs>
       <path id="DejaVuSans-Bold-4e" d="M 588 4666 
L 1931 4666 
L 3628 1466 
L 3628 4666 
L 4769 4666 
L 4769 0 
L 3425 0 
L 1728 3200 
L 1728 0 
L 588 0 
L 588 4666 
z
" transform="scale(0.015625)"/>
       <path id="DejaVuSans-Bold-6f" d="M 2203 2784 
Q 1831 2784 1636 2517 
Q 1441 2250 1441 1747 
Q 1441 1244 1636 976 
Q 1831 709 2203 709 
Q 2569 709 2762 976 
Q 2956 1244 2956 1747 
Q 2956 2250 2762 2517 
Q 2569 2784 2203 2784 
z
M 2203 3584 
Q 3106 3584 3614 3096 
Q 4122 2609 4122 1747 
Q 4122 884 3614 396 
Q 3106 -91 2203 -91 
Q 1297 -91 786 396 
Q 275 884 275 1747 
Q 275 2609 786 3096 
Q 1297 3584 2203 3584 
z
" transform="scale(0.015625)"/>
       <path id="DejaVuSans-Bold-72" d="M 3138 2547 
Q 2991 2616 2845 2648 
Q 2700 2681 2553 2681 
Q 2122 2681 1889 2404 
Q 1656 2128 1656 1613 
L 1656 0 
L 538 0 
L 538 3500 
L 1656 3500 
L 1656 2925 
Q 1872 3269 2151 3426 
Q 2431 3584 2822 3584 
Q 2878 3584 2943 3579 
Q 3009 3575 3134 3559 
L 3138 2547 
z
" transform="scale(0.015625)"/>
       <path id="DejaVuSans-Bold-6d" d="M 3781 2919 
Q 3994 3244 4286 3414 
Q 4578 3584 4928 3584 
Q 5531 3584 5847 3212 
Q 6163 2841 6163 2131 
L 6163 0 
L 5038 0 
L 5038 1825 
Q 5041 1866 5042 1909 
Q 5044 1953 5044 2034 
Q 5044 2406 4934 2573 
Q 4825 2741 4581 2741 
Q 4263 2741 4089 2478 
Q 3916 2216 3909 1719 
L 3909 0 
L 2784 0 
L 2784 1825 
Q 2784 2406 2684 2573 
Q 2584 2741 2328 2741 
Q 2006 2741 1831 2477 
Q 1656 2213 1656 1722 
L 1656 0 
L 531 0 
L 531 3500 
L 1656 3500 
L 1656 2988 
Q 1863 3284 2130 3434 
Q 2397 3584 2719 3584 
Q 3081 3584 3359 3409 
Q 3638 3234 3781 2919 
z
" transform="scale(0.015625)"/>
       <path id="DejaVuSans-Bold-61" d="M 2106 1575 
Q 1756 1575 1579 1456 
Q 1403 1338 1403 1106 
Q 1403 894 1545 773 
Q 1688 653 1941 653 
Q 2256 653 2472 879 
Q 2688 1106 2688 1447 
L 2688 1575 
L 2106 1575 
z
M 3816 1997 
L 3816 0 
L 2688 0 
L 2688 519 
Q 2463 200 2181 54 
Q 1900 -91 1497 -91 
Q 953 -91 614 226 
Q 275 544 275 1050 
Q 275 1666 698 1953 
Q 1122 2241 2028 2241 
L 2688 2241 
L 2688 2328 
Q 2688 2594 2478 2717 
Q 2269 2841 1825 2841 
Q 1466 2841 1156 2769 
Q 847 2697 581 2553 
L 581 3406 
Q 941 3494 1303 3539 
Q 1666 3584 2028 3584 
Q 2975 3584 3395 3211 
Q 3816 2838 3816 1997 
z
" transform="scale(0.015625)"/>
       <path id="DejaVuSans-Bold-6c" d="M 538 4863 
L 1656 4863 
L 1656 0 
L 538 0 
L 538 4863 
z
" transform="scale(0.015625)"/>
       <path id="DejaVuSans-Bold-69" d="M 538 3500 
L 1656 3500 
L 1656 0 
L 538 0 
L 538 3500 
z
M 538 4863 
L 1656 4863 
L 1656 3950 
L 538 3950 
L 538 4863 
z
" transform="scale(0.015625)"/>
       <path id="DejaVuSans-Bold-73" d="M 3272 3391 
L 3272 2541 
Q 2913 2691 2578 2766 
Q 2244 2841 1947 2841 
Q 1628 2841 1473 2761 
Q 1319 2681 1319 2516 
Q 1319 2381 1436 2309 
Q 1553 2238 1856 2203 
L 2053 2175 
Q 2913 2066 3209 1816 
Q 3506 1566 3506 1031 
Q 3506 472 3093 190 
Q 2681 -91 1863 -91 
Q 1516 -91 1145 -36 
Q 775 19 384 128 
L 384 978 
Q 719 816 1070 734 
Q 1422 653 1784 653 
Q 2113 653 2278 743 
Q 2444 834 2444 1013 
Q 2444 1163 2330 1236 
Q 2216 1309 1875 1350 
L 1678 1375 
Q 931 1469 631 1722 
Q 331 1975 331 2491 
Q 331 3047 712 3315 
Q 1094 3584 1881 3584 
Q 2191 3584 2531 3537 
Q 2872 3491 3272 3391 
z
" transform="scale(0.015625)"/>
       <path id="DejaVuSans-Bold-65" d="M 4031 1759 
L 4031 1441 
L 1416 1441 
Q 1456 1047 1700 850 
Q 1944 653 2381 653 
Q 2734 653 3104 758 
Q 3475 863 3866 1075 
L 3866 213 
Q 3469 63 3072 -14 
Q 2675 -91 2278 -91 
Q 1328 -91 801 392 
Q 275 875 275 1747 
Q 275 2603 792 3093 
Q 1309 3584 2216 3584 
Q 3041 3584 3536 3087 
Q 4031 2591 4031 1759 
z
M 2881 2131 
Q 2881 2450 2695 2645 
Q 2509 2841 2209 2841 
Q 1884 2841 1681 2658 
Q 1478 2475 1428 2131 
L 2881 2131 
z
" transform="scale(0.015625)"/>
       <path id="DejaVuSans-Bold-64" d="M 2919 2988 
L 2919 4863 
L 4044 4863 
L 4044 0 
L 2919 0 
L 2919 506 
Q 2688 197 2409 53 
Q 2131 -91 1766 -91 
Q 1119 -91 703 423 
Q 288 938 288 1747 
Q 288 2556 703 3070 
Q 1119 3584 1766 3584 
Q 2128 3584 2408 3439 
Q 2688 3294 2919 2988 
z
M 2181 722 
Q 2541 722 2730 984 
Q 2919 1247 2919 1747 
Q 2919 2247 2730 2509 
Q 2541 2772 2181 2772 
Q 1825 2772 1636 2509 
Q 1447 2247 1447 1747 
Q 1447 1247 1636 984 
Q 1825 722 2181 722 
z
" transform="scale(0.015625)"/>
       <path id="DejaVuSans-Bold-20" transform="scale(0.015625)"/>
       <path id="DejaVuSans-Bold-58" d="M 3188 2381 
L 4806 0 
L 3553 0 
L 2463 1594 
L 1381 0 
L 122 0 
L 1741 2381 
L 184 4666 
L 1441 4666 
L 2463 3163 
L 3481 4666 
L 4744 4666 
L 3188 2381 
z
" transform="scale(0.015625)"/>
       <path id="DejaVuSans-Bold-70" d="M 1656 506 
L 1656 -1331 
L 538 -1331 
L 538 3500 
L 1656 3500 
L 1656 2988 
Q 1888 3294 2169 3439 
Q 2450 3584 2816 3584 
Q 3463 3584 3878 3070 
Q 4294 2556 4294 1747 
Q 4294 938 3878 423 
Q 3463 -91 2816 -91 
Q 2450 -91 2169 54 
Q 1888 200 1656 506 
z
M 2400 2772 
Q 2041 2772 1848 2508 
Q 1656 2244 1656 1747 
Q 1656 1250 1848 986 
Q 2041 722 2400 722 
Q 2759 722 2948 984 
Q 3138 1247 3138 1747 
Q 3138 2247 2948 2509 
Q 2759 2772 2400 2772 
z
" transform="scale(0.015625)"/>
       <path id="DejaVuSans-Bold-74" d="M 1759 4494 
L 1759 3500 
L 2913 3500 
L 2913 2700 
L 1759 2700 
L 1759 1216 
Q 1759 972 1856 886 
Q 1953 800 2241 800 
L 2816 800 
L 2816 0 
L 1856 0 
Q 1194 0 917 276 
Q 641 553 641 1216 
L 641 2700 
L 84 2700 
L 84 3500 
L 641 3500 
L 641 4494 
L 1759 4494 
z
" transform="scale(0.015625)"/>
       <path id="DejaVuSans-Bold-6e" d="M 4056 2131 
L 4056 0 
L 2931 0 
L 2931 347 
L 2931 1631 
Q 2931 2084 2911 2256 
Q 2891 2428 2841 2509 
Q 2775 2619 2662 2680 
Q 2550 2741 2406 2741 
Q 2056 2741 1856 2470 
Q 1656 2200 1656 1722 
L 1656 0 
L 538 0 
L 538 3500 
L 1656 3500 
L 1656 2988 
Q 1909 3294 2193 3439 
Q 2478 3584 2822 3584 
Q 3428 3584 3742 3212 
Q 4056 2841 4056 2131 
z
" transform="scale(0.015625)"/>
      </defs>
      <use xlink:href="#DejaVuSans-Bold-4e"/>
      <use xlink:href="#DejaVuSans-Bold-6f" x="83.691406"/>
      <use xlink:href="#DejaVuSans-Bold-72" x="152.392578"/>
      <use xlink:href="#DejaVuSans-Bold-6d" x="201.708984"/>
      <use xlink:href="#DejaVuSans-Bold-61" x="305.908203"/>
      <use xlink:href="#DejaVuSans-Bold-6c" x="373.388672"/>
      <use xlink:href="#DejaVuSans-Bold-69" x="407.666016"/>
      <use xlink:href="#DejaVuSans-Bold-73" x="441.943359"/>
      <use xlink:href="#DejaVuSans-Bold-65" x="501.464844"/>
      <use xlink:href="#DejaVuSans-Bold-64" x="569.287109"/>
      <use xlink:href="#DejaVuSans-Bold-20" x="640.869141"/>
      <use xlink:href="#DejaVuSans-Bold-58" x="675.683594"/>
      <use xlink:href="#DejaVuSans-Bold-20" x="752.783203"/>
      <use xlink:href="#DejaVuSans-Bold-70" x="787.597656"/>
      <use xlink:href="#DejaVuSans-Bold-6f" x="859.179688"/>
      <use xlink:href="#DejaVuSans-Bold-73" x="927.880859"/>
      <use xlink:href="#DejaVuSans-Bold-69" x="987.402344"/>
      <use xlink:href="#DejaVuSans-Bold-74" x="1021.679688"/>
      <use xlink:href="#DejaVuSans-Bold-69" x="1069.482422"/>
      <use xlink:href="#DejaVuSans-Bold-6f" x="1103.759766"/>
      <use xlink:href="#DejaVuSans-Bold-6e" x="1172.460938"/>
     </g>
    </g>
   </g>
   <g id="matplotlib.axis_2">
    <g id="ytick_1">
     <g id="line2d_3">
      <defs>
       <path id="med0c37cbbd" d="M 0 0 
L -3.5 0 
" style="stroke: #000000; stroke-width: 0.8"/>
      </defs>
      <g>
       <use xlink:href="#med0c37cbbd" x="57.6" y="297" style="stroke: #000000; stroke-width: 0.8"/>
      </g>
     </g>
     <g id="text_4">
      <!-- 0 -->
      <g transform="translate(37.875 304.598437)scale(0.2 -0.2)">
       <use xlink:href="#DejaVuSans-30"/>
      </g>
     </g>
    </g>
    <g id="ytick_2">
     <g id="line2d_4">
      <g>
       <use xlink:href="#med0c37cbbd" x="57.6" y="53.568" style="stroke: #000000; stroke-width: 0.8"/>
      </g>
     </g>
     <g id="text_5">
      <!-- 1 -->
      <g transform="translate(37.875 61.166438)scale(0.2 -0.2)">
       <use xlink:href="#DejaVuSans-31"/>
      </g>
     </g>
    </g>
    <g id="text_6">
     <!-- Normalised Y position -->
     <g transform="translate(29.715625 298.423313)rotate(-90)scale(0.2 -0.2)">
      <defs>
       <path id="DejaVuSans-Bold-59" d="M -63 4666 
L 1253 4666 
L 2316 3003 
L 3378 4666 
L 4697 4666 
L 2919 1966 
L 2919 0 
L 1716 0 
L 1716 1966 
L -63 4666 
z
" transform="scale(0.015625)"/>
      </defs>
      <use xlink:href="#DejaVuSans-Bold-4e"/>
      <use xlink:href="#DejaVuSans-Bold-6f" x="83.691406"/>
      <use xlink:href="#DejaVuSans-Bold-72" x="152.392578"/>
      <use xlink:href="#DejaVuSans-Bold-6d" x="201.708984"/>
      <use xlink:href="#DejaVuSans-Bold-61" x="305.908203"/>
      <use xlink:href="#DejaVuSans-Bold-6c" x="373.388672"/>
      <use xlink:href="#DejaVuSans-Bold-69" x="407.666016"/>
      <use xlink:href="#DejaVuSans-Bold-73" x="441.943359"/>
      <use xlink:href="#DejaVuSans-Bold-65" x="501.464844"/>
      <use xlink:href="#DejaVuSans-Bold-64" x="569.287109"/>
      <use xlink:href="#DejaVuSans-Bold-20" x="640.869141"/>
      <use xlink:href="#DejaVuSans-Bold-59" x="675.683594"/>
      <use xlink:href="#DejaVuSans-Bold-20" x="748.095703"/>
      <use xlink:href="#DejaVuSans-Bold-70" x="782.910156"/>
      <use xlink:href="#DejaVuSans-Bold-6f" x="854.492188"/>
      <use xlink:href="#DejaVuSans-Bold-73" x="923.193359"/>
      <use xlink:href="#DejaVuSans-Bold-69" x="982.714844"/>
      <use xlink:href="#DejaVuSans-Bold-74" x="1016.992188"/>
      <use xlink:href="#DejaVuSans-Bold-69" x="1064.794922"/>
      <use xlink:href="#DejaVuSans-Bold-6f" x="1099.072266"/>
      <use xlink:href="#DejaVuSans-Bold-6e" x="1167.773438"/>
     </g>
    </g>
   </g>
   <g id="line2d_5">
    <path d="M 236.16 174.528 
L 73.832727 53.568 
L 73.832727 295.488 
L 398.487273 295.488 
L 398.487273 295.488 
L 398.487273 295.1856 
L 398.487273 295.1856 
L 392.584463 295.488 
L 396.71643 294.2784 
L 398.487273 295.488 
L 398.487273 295.488 
L 378.417719 295.488 
L 371.334347 290.952 
L 362.184992 295.488 
L 303.747174 295.488 
L 306.108298 295.488 
L 308.469421 293.3712 
L 307.28886 295.488 
L 310.830545 295.488 
L 325.29243 293.0688 
L 349.49395 291.2544 
L 369.858645 287.0208 
L 393.765025 274.9248 
L 398.487273 253.7568 
L 398.487273 137.0304 
L 394.650446 128.8656 
L 394.650446 116.7696 
L 394.945587 104.0688 
L 393.469884 94.9968 
L 395.831008 85.32 
L 395.240727 75.0384 
L 392.289322 73.8288 
L 392.584463 68.3856 
L 390.518479 63.8496 
L 372.81005 87.7392 
L 358.938446 90.4608 
L 341.525157 95.2992 
L 335.917488 96.2064 
L 337.983471 104.6736 
L 343.00086 109.8144 
L 356.872463 91.368 
L 363.070413 72.6192 
L 368.973223 53.568 
L 398.487273 53.568 
L 356.282182 53.568 
L 398.487273 53.568 
L 396.71643 55.6848 
L 398.487273 55.6848 
L 398.192132 55.3824 
L 396.421289 57.8016 
L 395.831008 59.0112 
L 394.945587 60.2208 
L 394.650446 61.4304 
L 396.71643 64.4544 
L 394.945587 68.0832 
L 393.469884 72.3168 
L 393.765025 76.5504 
L 391.10876 80.784 
L 388.452496 83.808 
L 383.435107 91.9728 
L 381.664264 97.416 
L 384.91081 104.0688 
L 373.990612 115.2576 
L 371.039207 153.9648 
L 343.59114 176.3424 
L 327.358413 190.5552 
L 317.618777 200.232 
L 314.077091 204.768 
L 310.240264 208.6992 
L 306.993719 212.6304 
L 301.976331 215.0496 
L 293.122116 218.376 
L 288.399868 219.888 
L 281.316496 219.888 
L 273.052562 220.4928 
L 264.198347 218.376 
L 249.146182 217.7712 
L 245.604496 216.2592 
L 241.177388 215.352 
L 235.86486 215.352 
L 233.798876 213.2352 
L 232.323174 210.2112 
L 231.142612 206.5824 
L 229.076628 203.8608 
L 225.534942 201.4416 
L 218.746711 202.0464 
L 208.416793 197.5104 
L 206.055669 193.8816 
L 207.236231 189.0432 
L 211.368198 183.9024 
L 215.500165 176.9472 
L 220.812694 171.8064 
L 227.010645 166.0608 
L 236.45514 159.7104 
L 242.06281 159.408 
L 249.146182 157.5936 
L 251.507306 158.5008 
L 251.802446 160.0128 
L 252.983008 160.3152 
L 252.687868 163.0368 
L 252.097587 164.5488 
L 254.16357 164.2464 
L 253.278149 165.7584 
L 253.278149 165.7584 
" clip-path="url(#p222fa2615e)" style="fill: none; stroke: #000000; stroke-width: 1.5; stroke-linecap: square"/>
   </g>
   <g id="line2d_6">
    <path d="M 236.16 174.528 
" clip-path="url(#p222fa2615e)" style="fill: none; stroke: #000000; stroke-width: 1.5; stroke-linecap: square"/>
    <defs>
     <path id="mae16fd98fc" d="M 0 5 
C 1.326016 5 2.597899 4.473168 3.535534 3.535534 
C 4.473168 2.597899 5 1.326016 5 0 
C 5 -1.326016 4.473168 -2.597899 3.535534 -3.535534 
C 2.597899 -4.473168 1.326016 -5 0 -5 
C -1.326016 -5 -2.597899 -4.473168 -3.535534 -3.535534 
C -4.473168 -2.597899 -5 -1.326016 -5 0 
C -5 1.326016 -4.473168 2.597899 -3.535534 3.535534 
C -2.597899 4.473168 -1.326016 5 0 5 
z
" style="stroke: #000000"/>
    </defs>
    <g clip-path="url(#p222fa2615e)">
     <use xlink:href="#mae16fd98fc" x="236.16" y="174.528" style="stroke: #000000"/>
    </g>
   </g>
   <g id="line2d_7">
    <path d="M 253.278149 165.7584 
" clip-path="url(#p222fa2615e)" style="fill: none; stroke: #000000; stroke-width: 1.5; stroke-linecap: square"/>
    <defs>
     <path id="me7f87d5c33" d="M -5 5 
L 5 5 
L 5 -5 
L -5 -5 
z
" style="stroke: #000000; stroke-linejoin: miter"/>
    </defs>
    <g clip-path="url(#p222fa2615e)">
     <use xlink:href="#me7f87d5c33" x="253.278149" y="165.7584" style="stroke: #000000; stroke-linejoin: miter"/>
    </g>
   </g>
   <g id="line2d_8">
    <path d="M 396.71643 77.4576 
L 394.060165 77.4576 
L 391.699041 78.9696 
L 390.223339 79.5744 
L 389.633058 80.4816 
L 387.271934 81.6912 
L 384.320529 81.9936 
L 383.730248 83.2032 
L 379.30314 86.2272 
L 376.351736 88.6464 
L 374.285752 91.9728 
L 372.81005 95.6016 
L 369.858645 97.416 
L 364.546116 102.5568 
L 359.233587 108.6048 
L 360.119008 113.1408 
L 357.757884 115.8624 
L 351.559934 117.9792 
L 345.657124 121.608 
L 342.410579 124.632 
L 338.278612 127.656 
L 334.736926 130.9824 
L 330.604959 133.4016 
L 326.472992 135.5184 
L 324.407008 139.4496 
L 318.209058 139.4496 
L 309.945124 142.1712 
L 311.715967 154.872 
L 292.236694 180.2736 
L 275.118545 191.7648 
L 261.246942 197.5104 
L 252.392727 200.8368 
L 246.194777 201.744 
L 242.06281 201.744 
L 237.340562 197.8128 
L 236.750281 195.0912 
L 234.979438 191.4624 
L 233.503736 187.2288 
L 232.323174 187.2288 
L 227.896066 183.2976 
L 225.534942 183.2976 
L 223.764099 182.3904 
L 217.566149 177.552 
L 215.500165 177.2496 
L 210.482777 173.6208 
L 202.809124 172.7136 
L 199.857719 173.3184 
L 197.496595 172.7136 
L 193.659769 170.5968 
L 188.34724 163.944 
L 186.576397 163.3392 
L 183.034711 159.1056 
L 180.673587 159.1056 
L 178.902744 156.384 
L 175.951339 155.1744 
L 172.704793 155.1744 
L 170.93395 154.872 
L 169.163107 153.6624 
L 168.572826 149.1264 
L 167.687405 147.312 
L 167.687405 144.8928 
L 166.801983 139.4496 
L 166.801983 138.24 
L 163.850579 134.6112 
L 163.850579 132.7968 
L 164.44086 130.3776 
L 165.326281 127.9584 
L 165.916562 125.8416 
L 167.097124 123.12 
L 168.867967 120.7008 
L 170.048529 118.584 
L 171.819372 114.9552 
L 172.999934 111.9312 
L 174.180496 109.512 
L 175.361058 106.7904 
L 176.54162 103.7664 
L 177.722182 101.3472 
L 178.312463 99.2304 
L 179.197884 96.8112 
L 179.788165 94.0896 
L 180.378446 88.344 
L 180.378446 85.32 
L 179.788165 83.2032 
L 177.722182 81.6912 
L 175.951339 80.1792 
L 172.704793 78.3648 
L 171.229091 75.6432 
L 169.753388 73.8288 
L 168.572826 72.9216 
L 164.736 72.9216 
L 162.965157 72.3168 
L 160.604033 72.6192 
L 157.357488 80.1792 
L 154.996364 86.5296 
L 153.225521 95.2992 
L 151.454678 101.0448 
L 151.159537 110.1168 
L 151.159537 117.3744 
L 150.569256 126.144 
L 150.864397 133.4016 
L 149.388694 141.264 
L 149.388694 154.2672 
L 148.798413 160.3152 
L 148.208132 170.8992 
L 146.73243 176.9472 
L 144.961587 179.9712 
L 143.190744 185.112 
L 141.715041 191.4624 
L 141.419901 193.2768 
L 142.600463 195.0912 
L 142.010182 195.9984 
L 145.551868 197.8128 
L 147.02757 199.6272 
L 148.503273 199.9296 
L 144.961587 188.7408 
L 149.388694 183.9024 
L 154.406083 183.9024 
L 156.472066 184.5072 
L 157.652628 180.2736 
L 160.013752 178.1568 
L 163.555438 178.1568 
L 165.03114 179.3664 
L 166.801983 180.576 
L 167.982545 181.1808 
L 170.343669 180.8784 
L 172.704793 179.6688 
L 175.361058 178.1568 
L 177.722182 176.3424 
L 183.034711 173.9232 
L 185.395835 172.1088 
L 187.461818 169.6896 
L 189.232661 168.48 
L 191.593785 167.2704 
L 194.25005 165.7584 
L 196.316033 163.944 
L 198.382017 162.432 
L 200.448 160.3152 
L 203.104264 155.1744 
L 205.760529 152.1504 
L 207.826512 147.312 
L 214.614744 141.5664 
L 219.927273 135.216 
L 224.35438 130.3776 
L 227.896066 125.8416 
L 228.781488 123.12 
L 229.371769 124.3296 
L 228.486347 123.12 
L 229.371769 124.0272 
L 224.944661 130.3776 
L 222.288397 132.4944 
L 221.698116 131.8896 
L 221.698116 130.68 
L 221.993256 129.4704 
L 222.878678 127.0512 
L 223.468959 124.9344 
L 224.649521 122.8176 
L 225.239802 120.3984 
L 225.830083 119.1888 
L 224.05924 117.3744 
L 221.993256 116.4672 
L 219.336992 115.56 
L 216.680727 114.3504 
L 210.482777 112.536 
L 205.760529 111.024 
L 204.875107 111.024 
L 203.104264 110.1168 
L 203.694545 105.5808 
L 206.35081 103.1616 
L 209.007074 101.0448 
L 211.073058 99.8352 
L 213.434182 98.0208 
L 215.795306 95.6016 
L 217.271008 93.7872 
L 215.795306 84.7152 
L 216.385587 85.32 
L 219.336992 81.9936 
L 219.927273 82.9008 
L 221.698116 80.784 
L 223.468959 79.5744 
L 224.944661 79.5744 
L 225.239802 84.7152 
L 222.583537 86.5296 
L 221.993256 87.7392 
L 221.993256 88.6464 
L 222.878678 96.5088 
L 220.222413 100.44 
L 218.45157 104.6736 
L 216.975868 107.0928 
L 215.500165 109.2096 
L 214.319603 112.536 
L 214.024463 114.3504 
L 213.139041 115.8624 
L 212.25362 116.4672 
L 209.007074 108.6048 
L 212.843901 104.976 
L 214.024463 104.6736 
L 216.975868 103.7664 
L 217.861289 105.5808 
L 217.566149 106.7904 
L 217.566149 110.1168 
L 218.15643 111.3264 
L 219.632132 115.8624 
L 219.927273 124.0272 
L 218.45157 131.2848 
L 215.795306 138.24 
L 214.024463 143.3808 
L 214.319603 147.0096 
L 214.024463 146.7072 
L 212.843901 147.9168 
L 211.368198 150.0336 
L 209.597355 153.0576 
L 209.007074 154.872 
L 207.826512 157.896 
L 206.055669 160.6176 
L 204.284826 164.2464 
L 203.989686 167.5728 
L 203.694545 169.0848 
L 202.809124 170.8992 
L 203.104264 171.8064 
L 203.694545 171.8064 
L 203.989686 171.504 
L 203.399405 171.504 
L 198.382017 170.8992 
L 198.086876 170.2944 
L 197.496595 168.7824 
L 196.906314 163.3392 
L 197.201455 159.408 
L 197.201455 152.1504 
L 197.496595 148.5216 
L 197.201455 146.1024 
L 195.430612 143.9856 
L 193.954909 141.8688 
L 192.479207 140.0544 
L 190.413223 138.8448 
L 186.281256 135.8208 
L 182.73957 134.3088 
L 179.197884 131.8896 
L 175.361058 130.0752 
L 166.211702 127.0512 
L 163.260298 126.7488 
L 154.701223 125.5392 
L 145.847008 126.4464 
L 135.812231 129.168 
L 128.72886 131.5872 
L 120.760066 132.4944 
L 112.791273 133.704 
L 89.770314 138.8448 
L 83.277223 140.0544 
L 76.784132 141.8688 
L 73.832727 143.6832 
L 73.832727 268.272 
L 74.127868 277.0416 
L 75.013289 290.6496 
L 74.127868 295.488 
L 73.832727 295.488 
L 102.461355 295.488 
L 106.298182 295.1856 
L 114.266975 293.0688 
L 118.103802 291.2544 
L 121.645488 289.1376 
L 125.187174 286.1136 
L 128.72886 283.6944 
L 131.680264 281.2752 
L 137.583074 280.6704 
L 139.944198 279.1584 
L 147.322711 274.9248 
L 151.749818 271.5984 
L 156.176926 267.9696 
L 160.308893 264.0384 
L 164.145719 260.712 
L 168.867967 257.3856 
L 168.867967 257.3856 
" clip-path="url(#p222fa2615e)" style="fill: none; stroke: #ffa07a; stroke-width: 1.5; stroke-linecap: square"/>
   </g>
   <g id="line2d_9">
    <path d="M 396.71643 77.4576 
" clip-path="url(#p222fa2615e)" style="fill: none; stroke: #ffa07a; stroke-width: 1.5; stroke-linecap: square"/>
    <defs>
     <path id="m44672b34b5" d="M 0 5 
C 1.326016 5 2.597899 4.473168 3.535534 3.535534 
C 4.473168 2.597899 5 1.326016 5 0 
C 5 -1.326016 4.473168 -2.597899 3.535534 -3.535534 
C 2.597899 -4.473168 1.326016 -5 0 -5 
C -1.326016 -5 -2.597899 -4.473168 -3.535534 -3.535534 
C -4.473168 -2.597899 -5 -1.326016 -5 0 
C -5 1.326016 -4.473168 2.597899 -3.535534 3.535534 
C -2.597899 4.473168 -1.326016 5 0 5 
z
" style="stroke: #ffa07a"/>
    </defs>
    <g clip-path="url(#p222fa2615e)">
     <use xlink:href="#m44672b34b5" x="396.71643" y="77.4576" style="fill: #ffa07a; stroke: #ffa07a"/>
    </g>
   </g>
   <g id="line2d_10">
    <path d="M 168.867967 257.3856 
" clip-path="url(#p222fa2615e)" style="fill: none; stroke: #ffa07a; stroke-width: 1.5; stroke-linecap: square"/>
    <defs>
     <path id="mfc6d2aae88" d="M -5 5 
L 5 5 
L 5 -5 
L -5 -5 
z
" style="stroke: #ffa07a; stroke-linejoin: miter"/>
    </defs>
    <g clip-path="url(#p222fa2615e)">
     <use xlink:href="#mfc6d2aae88" x="168.867967" y="257.3856" style="fill: #ffa07a; stroke: #ffa07a; stroke-linejoin: miter"/>
    </g>
   </g>
   <g id="line2d_11">
    <path d="M 322.931306 115.8624 
L 319.094479 117.6768 
L 317.028496 120.096 
L 314.372231 122.8176 
L 309.059702 126.144 
L 304.927736 127.9584 
L 300.795769 127.9584 
L 296.958942 125.2368 
L 297.254083 120.096 
L 300.205488 115.2576 
L 303.747174 112.536 
L 305.518017 112.536 
L 306.993719 113.1408 
L 306.698579 112.8384 
L 306.698579 112.8384 
L 305.222876 113.7456 
L 302.566612 115.56 
L 302.271471 116.1648 
L 298.729785 117.9792 
L 296.368661 131.8896 
L 284.858182 138.24 
L 277.479669 142.1712 
L 270.396298 142.776 
L 268.330314 142.1712 
L 265.67405 143.3808 
L 262.427504 143.3808 
L 259.77124 143.0784 
L 257.114975 142.1712 
L 253.573289 141.8688 
L 249.146182 140.9616 
L 247.375339 137.3328 
L 246.489917 137.9376 
L 240.587107 135.5184 
L 239.701686 136.1232 
L 235.569719 133.704 
L 233.503736 134.6112 
L 230.25719 132.4944 
L 226.420364 129.168 
L 223.468959 127.3536 
L 221.402975 127.3536 
L 219.632132 126.144 
L 216.975868 125.5392 
L 214.319603 124.0272 
L 212.25362 124.0272 
L 209.302215 121.0032 
L 207.236231 121.0032 
L 204.579967 118.584 
L 202.513983 115.8624 
L 200.74314 116.4672 
L 198.086876 114.3504 
L 195.135471 113.4432 
L 193.364628 114.6528 
L 191.593785 115.56 
L 189.822942 116.1648 
L 187.756959 115.8624 
L 186.281256 116.1648 
L 184.215273 116.4672 
L 181.559008 117.072 
L 178.902744 118.2816 
L 176.246479 119.7936 
L 173.295074 121.9104 
L 170.048529 124.632 
L 165.916562 128.2608 
L 161.784595 132.192 
L 157.357488 136.728 
L 152.63524 142.1712 
L 147.912992 148.2192 
L 142.305322 155.1744 
L 130.499702 170.5968 
L 112.200992 197.8128 
L 100.100231 218.9808 
L 95.377983 228.6576 
L 89.475174 244.3824 
L 87.11405 258.2928 
L 89.475174 269.1792 
L 91.541157 274.32 
L 95.968264 283.9968 
L 103.346777 290.0448 
L 111.905851 293.3712 
L 121.350347 295.488 
L 136.992793 295.488 
L 142.895603 295.1856 
L 151.454678 295.488 
L 164.145719 295.488 
L 172.999934 294.8832 
L 180.673587 292.7664 
L 186.871537 290.3472 
L 191.888926 287.6256 
L 197.201455 284.6016 
L 200.74314 281.5776 
L 203.104264 277.6464 
L 203.989686 274.32 
L 203.989686 270.6912 
L 201.923702 266.76 
L 200.15286 262.8288 
L 193.954909 255.2688 
L 191.003504 250.7328 
L 188.052099 246.8016 
L 184.805554 243.1728 
L 178.017322 234.4032 
L 175.951339 230.1696 
L 173.295074 225.936 
L 172.114512 221.0976 
L 170.63881 217.1664 
L 168.867967 209.304 
L 167.982545 205.9776 
L 166.801983 202.6512 
L 166.211702 199.3248 
L 165.326281 195.9984 
L 164.736 193.2768 
L 164.44086 190.5552 
L 163.260298 186.0192 
L 162.079736 184.2048 
L 161.489455 182.3904 
L 160.604033 180.576 
L 159.423471 179.6688 
L 157.652628 178.1568 
L 156.767207 177.552 
L 154.701223 176.3424 
L 152.63524 175.4352 
L 150.864397 174.528 
L 149.978975 174.2256 
L 148.503273 173.3184 
L 148.798413 172.7136 
L 148.503273 172.1088 
L 149.093554 171.8064 
L 148.798413 170.8992 
L 149.093554 171.2016 
L 149.683835 170.5968 
L 149.978975 171.504 
L 148.503273 171.504 
L 147.617851 172.4112 
L 146.73243 172.4112 
L 145.847008 172.7136 
L 144.666446 173.9232 
L 142.600463 174.2256 
L 141.419901 174.8304 
L 140.534479 176.3424 
L 139.058777 176.9472 
L 138.173355 178.4592 
L 136.992793 179.9712 
L 136.992793 180.2736 
L 136.697653 182.088 
L 136.402512 182.088 
L 136.697653 181.1808 
L 138.173355 182.088 
L 138.468496 182.6928 
L 139.944198 183.2976 
L 140.534479 184.5072 
L 141.12476 184.8096 
L 141.715041 185.4144 
L 141.12476 187.2288 
L 141.715041 186.624 
L 141.12476 189.3456 
L 140.82962 189.648 
L 140.82962 189.648 
L 139.353917 191.7648 
L 139.649058 191.4624 
L 139.058777 191.4624 
L 139.353917 190.2528 
L 139.058777 189.9504 
L 138.763636 189.0432 
L 139.353917 188.136 
L 139.353917 187.8336 
L 139.944198 186.9264 
L 139.944198 186.624 
L 140.534479 185.4144 
L 140.534479 184.8096 
L 141.12476 183.9024 
L 140.82962 183.2976 
L 140.82962 182.088 
L 140.239339 181.4832 
L 140.82962 180.2736 
L 140.534479 179.3664 
L 140.534479 177.2496 
L 140.82962 176.04 
L 140.82962 175.1328 
L 141.12476 173.9232 
L 142.305322 172.7136 
L 143.781025 169.992 
L 143.781025 169.0848 
L 144.961587 167.8752 
L 146.73243 166.3632 
L 148.503273 163.6416 
L 148.503273 163.3392 
L 147.617851 162.7344 
L 147.02757 162.1296 
L 147.02757 161.5248 
L 147.617851 160.6176 
L 154.110942 158.8032 
L 161.194314 157.896 
L 168.277686 157.5936 
L 175.951339 157.896 
L 185.690975 163.944 
L 198.086876 166.0608 
L 218.45157 168.48 
L 231.437752 170.5968 
L 242.948231 172.7136 
L 253.278149 174.8304 
L 261.837223 176.04 
L 268.330314 176.6448 
L 276.299107 176.6448 
L 278.660231 176.04 
L 280.431074 176.3424 
L 281.021355 176.04 
L 280.431074 175.4352 
L 278.365091 174.8304 
L 275.413686 173.6208 
L 271.281719 172.7136 
L 269.215736 172.4112 
L 265.083769 171.2016 
L 260.361521 170.2944 
L 253.573289 168.48 
L 242.948231 166.6656 
L 188.34724 160.6176 
L 162.079736 156.9888 
L 131.680264 152.1504 
L 115.742678 149.7312 
L 92.426579 145.8 
L 81.50638 144.5904 
L 73.832727 143.3808 
L 73.832727 147.312 
L 74.423008 148.5216 
L 77.079273 151.2432 
L 80.325818 155.7792 
L 81.50638 157.896 
L 82.982083 159.1056 
L 83.277223 159.7104 
L 84.752926 163.3392 
L 86.523769 164.8512 
L 88.294612 166.6656 
L 90.655736 168.48 
L 92.426579 169.992 
L 92.426579 169.992 
" clip-path="url(#p222fa2615e)" style="fill: none; stroke: #0000ff; stroke-width: 1.5; stroke-linecap: square"/>
   </g>
   <g id="line2d_12">
    <path d="M 322.931306 115.8624 
" clip-path="url(#p222fa2615e)" style="fill: none; stroke: #0000ff; stroke-width: 1.5; stroke-linecap: square"/>
    <defs>
     <path id="maebfbc1c48" d="M 0 5 
C 1.326016 5 2.597899 4.473168 3.535534 3.535534 
C 4.473168 2.597899 5 1.326016 5 0 
C 5 -1.326016 4.473168 -2.597899 3.535534 -3.535534 
C 2.597899 -4.473168 1.326016 -5 0 -5 
C -1.326016 -5 -2.597899 -4.473168 -3.535534 -3.535534 
C -4.473168 -2.597899 -5 -1.326016 -5 0 
C -5 1.326016 -4.473168 2.597899 -3.535534 3.535534 
C -2.597899 4.473168 -1.326016 5 0 5 
z
" style="stroke: #0000ff"/>
    </defs>
    <g clip-path="url(#p222fa2615e)">
     <use xlink:href="#maebfbc1c48" x="322.931306" y="115.8624" style="fill: #0000ff; stroke: #0000ff"/>
    </g>
   </g>
   <g id="line2d_13">
    <path d="M 92.426579 169.992 
" clip-path="url(#p222fa2615e)" style="fill: none; stroke: #0000ff; stroke-width: 1.5; stroke-linecap: square"/>
    <defs>
     <path id="m9d99d78873" d="M -5 5 
L 5 5 
L 5 -5 
L -5 -5 
z
" style="stroke: #0000ff; stroke-linejoin: miter"/>
    </defs>
    <g clip-path="url(#p222fa2615e)">
     <use xlink:href="#m9d99d78873" x="92.426579" y="169.992" style="fill: #0000ff; stroke: #0000ff; stroke-linejoin: miter"/>
    </g>
   </g>
   <g id="line2d_14">
    <path d="M 293.122116 135.5184 
L 291.351273 135.216 
L 289.285289 136.728 
L 284.267901 135.8208 
L 278.06995 134.3088 
L 273.052562 132.4944 
L 266.264331 133.4016 
L 258.590678 134.0064 
L 252.983008 134.9136 
L 247.96562 135.5184 
L 245.604496 136.728 
L 245.604496 136.4256 
L 246.489917 136.4256 
L 245.309355 134.0064 
L 242.06281 133.4016 
L 237.340562 133.0992 
L 232.913455 131.8896 
L 229.371769 132.192 
L 225.830083 133.0992 
L 226.420364 133.704 
L 227.896066 134.3088 
L 229.076628 134.3088 
L 228.191207 132.7968 
L 226.125223 132.192 
L 219.927273 130.9824 
L 220.517554 130.68 
L 223.173818 130.9824 
L 227.305785 130.9824 
L 233.798876 132.4944 
L 235.274579 132.192 
L 235.569719 131.5872 
L 234.094017 130.68 
L 233.503736 128.8656 
L 230.847471 131.5872 
L 232.913455 130.3776 
L 237.635702 129.4704 
L 242.653091 128.8656 
L 247.670479 127.9584 
L 252.392727 128.2608 
L 255.344132 127.3536 
L 257.410116 126.4464 
L 259.476099 125.2368 
L 255.048992 125.8416 
L 256.819835 124.0272 
L 262.427504 121.608 
L 267.444893 119.7936 
L 270.101157 118.584 
L 272.462281 115.8624 
L 273.052562 113.4432 
L 271.281719 111.3264 
L 268.035174 109.8144 
L 262.722645 108.6048 
L 249.441322 110.4192 
L 243.243372 109.512 
L 237.045421 109.512 
L 230.847471 108.9072 
L 224.944661 109.2096 
L 214.909884 110.7216 
L 207.236231 112.8384 
L 203.104264 113.4432 
L 182.73957 119.1888 
L 146.73243 130.0752 
L 108.954446 151.848 
L 95.968264 160.6176 
L 83.277223 172.4112 
L 75.013289 182.088 
L 73.832727 186.3216 
L 73.832727 191.7648 
L 75.013289 198.4176 
L 78.554975 204.1632 
L 82.096661 206.8848 
L 84.752926 208.6992 
L 89.770314 211.7232 
L 97.148826 215.6544 
L 105.11762 218.9808 
L 114.266975 222.3072 
L 122.530909 226.8432 
L 126.958017 231.0768 
L 132.270545 235.9152 
L 137.878215 240.7536 
L 143.485884 244.9872 
L 147.912992 247.7088 
L 153.225521 250.128 
L 157.652628 251.9424 
L 162.079736 254.0592 
L 170.93395 257.688 
L 174.475636 259.5024 
L 176.54162 260.712 
L 180.673587 262.5264 
L 182.149289 263.736 
L 183.624992 264.0384 
L 183.624992 264.6432 
L 183.920132 264.9456 
L 184.215273 264.6432 
L 183.624992 264.9456 
L 182.73957 264.0384 
L 181.854149 263.736 
L 180.673587 260.4096 
L 180.083306 256.176 
L 179.788165 252.5472 
L 179.788165 249.2208 
L 180.083306 245.592 
L 180.968727 242.2656 
L 182.73957 231.984 
L 183.920132 229.5648 
L 183.624992 226.8432 
L 183.624992 221.4 
L 184.215273 218.9808 
L 184.215273 216.864 
L 184.510413 215.352 
L 184.510413 214.1424 
L 184.805554 213.5376 
L 184.215273 212.328 
L 184.215273 211.4208 
L 183.920132 210.5136 
L 182.149289 207.792 
L 181.263868 206.8848 
L 180.378446 206.28 
L 180.378446 205.9776 
L 180.083306 205.3728 
L 180.378446 205.0704 
L 180.968727 204.768 
L 181.263868 205.0704 
L 181.559008 206.28 
L 181.559008 206.8848 
L 180.673587 207.1872 
L 181.559008 208.3968 
L 181.559008 210.5136 
L 179.197884 211.7232 
L 177.131901 212.328 
L 173.295074 213.2352 
L 170.63881 213.2352 
L 169.458248 213.5376 
L 165.03114 213.5376 
L 158.83319 212.0256 
L 157.947769 211.1184 
L 157.357488 209.9088 
L 149.093554 214.7472 
L 153.225521 213.2352 
L 153.815802 212.328 
L 152.93038 210.816 
L 154.996364 210.2112 
L 155.881785 208.6992 
L 155.881785 208.6992 
L 155.291504 208.6992 
L 155.586645 208.0944 
L 155.291504 207.792 
L 154.996364 207.1872 
L 154.701223 206.28 
L 154.996364 205.0704 
L 154.996364 203.8608 
L 156.176926 202.6512 
L 156.176926 202.3488 
L 156.472066 200.8368 
L 157.652628 199.3248 
L 159.128331 196.9056 
L 160.308893 196.6032 
L 160.604033 195.9984 
L 159.718612 196.9056 
L 162.079736 194.7888 
L 166.211702 193.2768 
L 167.097124 193.2768 
L 168.277686 192.9744 
L 172.409653 192.0672 
L 175.065917 192.0672 
L 177.427041 192.3696 
L 177.131901 191.4624 
L 174.475636 186.3216 
L 175.951339 177.8544 
L 179.493025 171.2016 
L 184.510413 164.8512 
L 188.34724 159.408 
L 190.118083 155.4768 
L 192.479207 151.848 
L 194.25005 149.4288 
L 194.54519 148.2192 
L 196.906314 147.9168 
L 201.333421 146.7072 
L 201.628562 145.8 
L 203.399405 143.6832 
L 203.399405 143.0784 
L 204.579967 141.264 
L 205.170248 140.9616 
L 205.170248 140.6592 
L 208.121653 140.6592 
L 208.711934 141.264 
L 210.187636 140.6592 
L 210.482777 140.6592 
L 215.205025 142.1712 
L 221.402975 145.1952 
L 220.812694 148.824 
L 219.927273 151.5456 
L 219.632132 153.0576 
L 219.927273 154.5696 
L 221.107835 154.872 
L 223.173818 155.1744 
L 225.239802 156.0816 
L 226.125223 161.8272 
L 222.288397 167.2704 
L 220.222413 171.8064 
L 220.517554 175.1328 
L 221.107835 178.7616 
L 223.173818 181.7856 
L 223.468959 184.5072 
L 223.764099 185.112 
L 224.05924 186.3216 
L 224.05924 188.136 
L 224.35438 190.2528 
L 225.534942 191.7648 
L 227.600926 194.7888 
L 229.076628 198.1152 
L 231.437752 202.9536 
L 235.86486 208.3968 
L 237.635702 211.7232 
L 239.996826 214.1424 
L 242.653091 217.4688 
L 245.309355 219.888 
L 248.555901 223.2144 
L 252.983008 225.6336 
L 256.819835 228.0528 
L 258.885818 230.472 
L 260.656661 233.496 
L 263.312926 237.1248 
L 262.427504 239.8464 
L 261.837223 240.4512 
L 260.06638 242.8704 
L 258.590678 243.1728 
L 255.344132 243.1728 
L 252.392727 243.7776 
L 248.851041 243.4752 
L 245.604496 242.568 
L 238.521124 239.2416 
L 233.503736 237.7296 
L 229.666909 235.9152 
L 224.649521 234.1008 
L 220.222413 232.2864 
L 216.090446 230.472 
L 211.663339 228.3552 
L 207.236231 226.8432 
L 202.809124 225.936 
L 198.086876 224.424 
L 193.364628 223.2144 
L 190.118083 221.0976 
L 186.576397 219.888 
L 182.44443 218.9808 
L 178.902744 217.7712 
L 173.885355 214.4448 
L 172.704793 211.7232 
L 170.93395 207.1872 
L 171.229091 205.0704 
L 171.229091 203.5584 
L 170.93395 202.6512 
L 170.343669 200.232 
L 169.458248 199.0224 
L 168.572826 199.0224 
L 167.392264 199.3248 
L 165.621421 199.9296 
L 162.079736 202.0464 
L 159.128331 204.1632 
L 156.767207 206.5824 
L 154.701223 208.0944 
L 154.110942 208.6992 
L 153.520661 210.5136 
L 153.520661 212.0256 
L 154.110942 213.84 
L 156.176926 215.9568 
L 158.83319 219.888 
L 158.53805 221.7024 
L 156.176926 222.6096 
L 154.996364 225.6336 
L 152.93038 230.1696 
L 152.93038 233.7984 
L 152.63524 236.8224 
L 152.93038 239.544 
L 153.520661 240.7536 
L 154.701223 246.1968 
L 156.176926 251.0352 
L 161.194314 257.688 
L 162.965157 259.8048 
L 163.555438 261.9216 
L 165.03114 266.4576 
L 166.211702 272.808 
L 166.801983 274.9248 
L 167.982545 276.4368 
L 169.458248 277.344 
L 171.229091 277.6464 
L 174.180496 277.0416 
L 180.378446 278.5536 
L 184.510413 277.6464 
L 198.972298 275.2272 
L 209.892496 274.0176 
L 219.336992 273.1104 
L 226.125223 272.2032 
L 237.635702 272.2032 
L 243.243372 271.9008 
L 247.375339 270.9936 
L 250.326744 269.784 
L 252.687868 267.9696 
L 254.458711 265.8528 
L 255.934413 263.4336 
L 256.819835 261.3168 
L 257.705256 259.8048 
L 258.590678 257.9904 
L 259.476099 256.7808 
L 260.951802 252.8496 
L 261.837223 250.128 
L 263.017785 243.7776 
L 262.722645 240.1488 
L 261.542083 236.8224 
L 259.476099 233.1936 
L 255.344132 229.2624 
L 248.555901 224.424 
L 228.781488 219.5856 
L 220.812694 214.7472 
L 201.923702 209.304 
L 183.034711 203.5584 
L 179.493025 200.8368 
L 157.357488 192.3696 
L 154.110942 190.5552 
L 147.912992 187.2288 
L 139.353917 182.9952 
L 134.631669 180.8784 
L 131.089983 179.064 
L 127.843438 177.552 
L 124.006612 175.4352 
L 111.02043 172.7136 
L 108.069025 171.8064 
L 106.003041 171.504 
L 104.822479 171.2016 
L 103.051636 170.8992 
L 101.575934 170.8992 
L 100.100231 171.2016 
L 100.100231 171.8064 
L 102.166215 172.1088 
L 103.346777 172.7136 
L 106.888463 173.6208 
L 108.954446 174.528 
L 109.839868 176.3424 
L 109.839868 178.7616 
L 108.659306 178.1568 
L 107.183603 178.1568 
L 106.593322 179.064 
L 106.888463 179.9712 
L 108.364165 181.4832 
L 112.200992 184.2048 
L 113.676694 185.112 
L 117.513521 186.3216 
L 118.989223 186.9264 
L 120.464926 187.2288 
L 122.235769 187.8336 
L 124.301752 188.136 
L 125.777455 188.7408 
L 125.777455 188.7408 
" clip-path="url(#p222fa2615e)" style="fill: none; stroke: #00fa9a; stroke-width: 1.5; stroke-linecap: square"/>
   </g>
   <g id="line2d_15">
    <path d="M 293.122116 135.5184 
" clip-path="url(#p222fa2615e)" style="fill: none; stroke: #00fa9a; stroke-width: 1.5; stroke-linecap: square"/>
    <defs>
     <path id="m0ce954d2f6" d="M 0 5 
C 1.326016 5 2.597899 4.473168 3.535534 3.535534 
C 4.473168 2.597899 5 1.326016 5 0 
C 5 -1.326016 4.473168 -2.597899 3.535534 -3.535534 
C 2.597899 -4.473168 1.326016 -5 0 -5 
C -1.326016 -5 -2.597899 -4.473168 -3.535534 -3.535534 
C -4.473168 -2.597899 -5 -1.326016 -5 0 
C -5 1.326016 -4.473168 2.597899 -3.535534 3.535534 
C -2.597899 4.473168 -1.326016 5 0 5 
z
" style="stroke: #00fa9a"/>
    </defs>
    <g clip-path="url(#p222fa2615e)">
     <use xlink:href="#m0ce954d2f6" x="293.122116" y="135.5184" style="fill: #00fa9a; stroke: #00fa9a"/>
    </g>
   </g>
   <g id="line2d_16">
    <path d="M 125.777455 188.7408 
" clip-path="url(#p222fa2615e)" style="fill: none; stroke: #00fa9a; stroke-width: 1.5; stroke-linecap: square"/>
    <defs>
     <path id="mcef216ca21" d="M -5 5 
L 5 5 
L 5 -5 
L -5 -5 
z
" style="stroke: #00fa9a; stroke-linejoin: miter"/>
    </defs>
    <g clip-path="url(#p222fa2615e)">
     <use xlink:href="#mcef216ca21" x="125.777455" y="188.7408" style="fill: #00fa9a; stroke: #00fa9a; stroke-linejoin: miter"/>
    </g>
   </g>
   <g id="line2d_17">
    <path d="M 286.924165 113.1408 
L 286.629025 114.6528 
L 286.924165 115.56 
L 286.629025 116.7696 
L 286.333884 118.584 
L 287.219306 120.096 
L 288.990149 121.9104 
L 294.302678 123.12 
L 294.597818 123.4224 
L 295.77838 123.12 
L 296.663802 123.12 
L 296.663802 123.4224 
L 299.024926 124.3296 
L 299.615207 124.9344 
L 302.271471 124.9344 
L 302.271471 125.2368 
L 302.861752 125.2368 
L 302.566612 125.5392 
L 302.861752 125.2368 
L 303.452033 124.0272 
L 303.156893 124.3296 
L 302.861752 123.7248 
L 301.976331 123.4224 
L 301.68119 122.8176 
L 300.795769 122.5152 
L 299.615207 121.9104 
L 298.434645 122.8176 
L 297.844364 122.8176 
L 296.958942 123.12 
L 297.549223 122.2128 
L 297.549223 121.9104 
L 296.663802 122.2128 
L 296.958942 121.608 
L 296.958942 120.7008 
L 296.368661 120.7008 
L 296.073521 120.096 
L 295.77838 120.096 
L 295.48324 119.7936 
L 294.302678 119.7936 
L 294.302678 119.4912 
L 294.892959 119.4912 
L 295.48324 118.8864 
L 296.368661 118.584 
L 297.844364 118.2816 
L 299.320066 119.4912 
L 301.38605 117.9792 
L 303.452033 119.7936 
L 305.222876 119.4912 
L 309.059702 117.9792 
L 310.830545 116.7696 
L 312.306248 114.048 
L 313.191669 112.2336 
L 314.077091 110.1168 
L 314.077091 108.9072 
L 314.372231 108.3024 
L 314.372231 107.0928 
L 313.78195 105.2784 
L 314.077091 103.464 
L 314.667372 101.0448 
L 314.372231 100.1376 
L 314.667372 98.6256 
L 314.372231 98.0208 
L 314.667372 96.5088 
L 315.257653 94.6944 
L 314.667372 94.0896 
L 315.552793 90.7632 
L 315.257653 89.856 
L 315.847934 88.6464 
L 316.143074 87.7392 
L 316.143074 87.1344 
L 316.733355 85.32 
L 316.143074 85.32 
L 317.323636 84.1104 
L 316.733355 83.808 
L 317.323636 83.5056 
L 317.618777 82.5984 
L 317.028496 82.5984 
L 316.438215 82.296 
L 314.372231 82.296 
L 312.306248 82.9008 
L 311.715967 82.9008 
L 310.535405 83.2032 
L 309.354843 84.1104 
L 309.649983 83.808 
L 309.354843 83.808 
L 307.87914 84.1104 
L 307.28886 85.32 
L 306.993719 86.2272 
L 306.403438 85.32 
L 306.108298 85.9248 
L 306.108298 87.1344 
L 304.042314 88.0416 
L 304.927736 86.832 
L 305.813157 86.5296 
L 305.813157 87.4368 
L 307.28886 86.832 
L 307.87914 85.32 
L 306.698579 86.832 
L 306.698579 88.6464 
L 306.108298 89.5536 
L 305.222876 91.9728 
L 305.813157 94.392 
L 302.861752 97.416 
L 301.68119 99.5328 
L 301.68119 101.0448 
L 303.452033 102.5568 
L 304.632595 103.1616 
L 303.747174 101.6496 
L 304.632595 102.5568 
L 304.042314 102.5568 
L 301.976331 103.464 
L 302.861752 104.6736 
L 302.566612 105.8832 
L 301.68119 106.488 
L 301.976331 107.3952 
L 301.68119 108.3024 
L 301.38605 108.6048 
L 301.090909 108.3024 
L 300.795769 107.6976 
L 300.795769 106.1856 
L 301.976331 102.8592 
L 302.271471 102.8592 
L 302.566612 104.976 
L 302.566612 109.8144 
L 302.861752 111.6288 
L 302.566612 113.4432 
L 303.156893 114.6528 
L 304.042314 115.8624 
L 306.403438 117.6768 
L 309.945124 119.4912 
L 314.372231 121.0032 
L 329.129256 125.2368 
L 338.278612 128.2608 
L 347.427967 132.192 
L 356.282182 135.5184 
L 364.546116 139.752 
L 372.514909 142.776 
L 381.073983 146.7072 
L 389.633058 150.336 
L 396.71643 154.2672 
L 398.487273 157.896 
L 398.487273 185.4144 
L 398.487273 138.5424 
L 397.896992 136.1232 
L 394.650446 127.9584 
L 392.879603 126.144 
L 388.747636 121.0032 
L 384.615669 117.3744 
L 378.122579 113.1408 
L 374.285752 111.3264 
L 364.841256 110.1168 
L 354.806479 110.7216 
L 350.379372 111.9312 
L 345.952264 113.7456 
L 341.525157 115.2576 
L 336.507769 116.4672 
L 331.49038 117.3744 
L 328.538975 117.072 
L 323.226446 119.1888 
L 314.667372 120.7008 
L 308.469421 120.3984 
L 302.271471 121.0032 
L 281.316496 121.0032 
L 274.528264 121.608 
L 267.740033 121.9104 
L 252.983008 123.12 
L 245.014215 124.3296 
L 237.045421 125.8416 
L 214.319603 131.2848 
L 206.941091 133.0992 
L 199.857719 136.1232 
L 192.774347 139.752 
L 185.100694 143.9856 
L 170.048529 153.6624 
L 149.093554 169.6896 
L 139.353917 179.3664 
L 134.041388 184.2048 
L 128.433719 189.648 
L 123.12119 195.3936 
L 118.398942 200.8368 
L 113.086413 206.28 
L 102.166215 218.6784 
L 97.148826 224.7264 
L 88.884893 236.52 
L 84.752926 248.3136 
L 83.867504 256.4784 
L 83.867504 262.224 
L 84.162645 262.5264 
L 83.572364 262.8288 
L 83.277223 263.1312 
L 82.982083 263.736 
L 82.096661 264.6432 
L 82.096661 264.6432 
L 82.096661 264.9456 
L 81.50638 265.248 
L 81.21124 265.8528 
L 79.145256 267.9696 
L 78.259835 269.784 
L 78.259835 270.0864 
L 77.964694 271.5984 
L 76.784132 275.5296 
L 74.718149 281.2752 
L 74.127868 282.1824 
L 73.832727 286.7184 
L 73.832727 295.488 
L 73.832727 295.488 
L 74.423008 295.488 
L 76.784132 293.976 
L 77.964694 294.8832 
L 75.60357 295.488 
L 73.832727 295.488 
L 118.989223 295.488 
L 121.350347 294.8832 
L 126.662876 294.2784 
L 127.843438 295.1856 
L 130.499702 295.1856 
L 141.419901 291.8592 
L 144.371306 291.5568 
L 152.340099 290.952 
L 161.194314 289.1376 
L 165.03114 287.928 
L 169.163107 286.1136 
L 172.999934 283.9968 
L 176.83676 282.4848 
L 184.510413 278.2512 
L 188.34724 276.7392 
L 196.020893 272.5056 
L 200.15286 270.6912 
L 203.989686 268.5744 
L 214.319603 262.5264 
L 220.222413 259.5024 
L 222.878678 257.9904 
L 225.534942 257.0832 
L 229.96205 255.8736 
L 232.028033 255.2688 
L 236.750281 254.664 
L 238.816264 254.0592 
L 240.587107 253.7568 
L 242.06281 253.7568 
L 243.243372 254.3616 
L 244.719074 254.9664 
L 245.899636 255.5712 
L 247.375339 256.4784 
L 249.441322 259.8048 
L 250.326744 260.712 
L 250.621884 261.6192 
L 253.278149 266.1552 
L 253.86843 268.5744 
L 254.753851 270.9936 
L 256.819835 279.4608 
L 258.000397 285.8112 
L 258.000397 287.3232 
L 258.295537 288.5328 
L 258.295537 290.3472 
L 257.705256 291.8592 
L 256.229554 291.8592 
L 255.639273 291.5568 
L 254.753851 290.952 
L 254.16357 290.0448 
L 251.507306 287.3232 
L 250.621884 285.8112 
L 249.736463 284.6016 
L 246.489917 278.856 
L 245.899636 277.344 
L 244.128793 273.7152 
L 243.538512 271.9008 
L 242.653091 267.3648 
L 242.35795 265.5504 
L 241.767669 264.0384 
L 241.177388 261.3168 
L 241.177388 260.1072 
L 240.882248 259.2 
L 239.111405 256.4784 
L 237.930843 254.9664 
L 237.340562 253.7568 
L 236.45514 251.64 
L 234.979438 250.128 
L 234.389157 249.8256 
L 234.094017 249.5232 
L 234.094017 249.2208 
L 233.208595 249.2208 
L 233.208595 249.5232 
L 232.618314 250.128 
L 232.618314 251.64 
L 234.094017 255.8736 
L 234.684298 256.4784 
L 235.274579 256.7808 
L 236.16 258.2928 
L 236.45514 258.8976 
L 237.045421 259.5024 
L 237.340562 260.4096 
L 238.225983 261.0144 
L 239.996826 261.6192 
L 242.35795 262.8288 
L 245.309355 264.0384 
L 246.489917 264.6432 
L 249.736463 265.8528 
L 251.212165 265.8528 
L 252.097587 266.1552 
L 251.802446 266.76 
L 251.802446 267.6672 
L 252.392727 268.5744 
L 252.392727 269.784 
L 252.687868 271.296 
L 254.16357 272.5056 
L 254.753851 273.7152 
L 255.934413 275.5296 
L 256.524694 277.0416 
L 257.705256 277.9488 
L 257.114975 278.2512 
L 256.524694 279.1584 
L 256.819835 280.6704 
L 258.000397 280.6704 
L 258.000397 282.4848 
L 258.590678 282.4848 
L 259.77124 282.1824 
L 261.246942 280.6704 
L 261.837223 279.4608 
L 262.722645 278.5536 
L 265.083769 274.32 
L 265.67405 273.1104 
L 268.035174 269.1792 
L 268.920595 267.9696 
L 269.510876 267.3648 
L 272.16714 264.0384 
L 273.052562 262.5264 
L 273.052562 262.5264 
" clip-path="url(#p222fa2615e)" style="fill: none; stroke: #008000; stroke-width: 1.5; stroke-linecap: square"/>
   </g>
   <g id="line2d_18">
    <path d="M 286.924165 113.1408 
" clip-path="url(#p222fa2615e)" style="fill: none; stroke: #008000; stroke-width: 1.5; stroke-linecap: square"/>
    <defs>
     <path id="mde861d8ce3" d="M 0 5 
C 1.326016 5 2.597899 4.473168 3.535534 3.535534 
C 4.473168 2.597899 5 1.326016 5 0 
C 5 -1.326016 4.473168 -2.597899 3.535534 -3.535534 
C 2.597899 -4.473168 1.326016 -5 0 -5 
C -1.326016 -5 -2.597899 -4.473168 -3.535534 -3.535534 
C -4.473168 -2.597899 -5 -1.326016 -5 0 
C -5 1.326016 -4.473168 2.597899 -3.535534 3.535534 
C -2.597899 4.473168 -1.326016 5 0 5 
z
" style="stroke: #008000"/>
    </defs>
    <g clip-path="url(#p222fa2615e)">
     <use xlink:href="#mde861d8ce3" x="286.924165" y="113.1408" style="fill: #008000; stroke: #008000"/>
    </g>
   </g>
   <g id="line2d_19">
    <path d="M 273.052562 262.5264 
" clip-path="url(#p222fa2615e)" style="fill: none; stroke: #008000; stroke-width: 1.5; stroke-linecap: square"/>
    <defs>
     <path id="m629d5257fa" d="M -5 5 
L 5 5 
L 5 -5 
L -5 -5 
z
" style="stroke: #008000; stroke-linejoin: miter"/>
    </defs>
    <g clip-path="url(#p222fa2615e)">
     <use xlink:href="#m629d5257fa" x="273.052562" y="262.5264" style="fill: #008000; stroke: #008000; stroke-linejoin: miter"/>
    </g>
   </g>
   <g id="line2d_20">
    <path d="M 234.979438 107.3952 
L 234.979438 107.0928 
L 234.684298 107.0928 
L 234.979438 107.3952 
L 235.274579 106.7904 
L 234.979438 106.7904 
L 234.389157 107.0928 
L 234.684298 106.488 
L 234.389157 106.7904 
L 234.979438 106.1856 
L 234.094017 106.488 
L 234.389157 106.1856 
L 234.389157 106.1856 
L 234.094017 105.8832 
L 234.094017 104.976 
L 233.798876 105.2784 
L 233.798876 105.2784 
L 233.798876 104.976 
L 233.208595 105.2784 
L 233.208595 104.976 
L 233.503736 104.3712 
L 232.913455 104.6736 
L 232.913455 104.6736 
L 233.208595 104.0688 
L 232.323174 104.976 
L 232.913455 104.6736 
L 232.913455 104.3712 
L 232.323174 104.976 
L 232.913455 104.3712 
L 233.208595 103.7664 
L 232.618314 104.0688 
L 233.503736 103.1616 
L 234.094017 102.8592 
L 237.045421 102.8592 
L 238.225983 102.5568 
L 239.996826 102.2544 
L 241.767669 102.2544 
L 243.833653 101.952 
L 246.194777 101.3472 
L 248.555901 101.952 
L 252.097587 101.0448 
L 253.573289 100.44 
L 255.639273 99.2304 
L 257.705256 98.928 
L 259.77124 97.7184 
L 262.427504 98.0208 
L 263.608066 98.0208 
L 265.083769 98.928 
L 266.559471 98.928 
L 268.035174 99.2304 
L 269.510876 98.928 
L 271.281719 98.928 
L 272.16714 100.44 
L 272.16714 102.2544 
L 272.757421 101.952 
L 276.003967 102.5568 
L 277.77481 102.2544 
L 278.06995 101.952 
L 279.840793 103.464 
L 281.906777 104.6736 
L 283.382479 105.8832 
L 283.97276 107.3952 
L 284.267901 108.9072 
L 284.858182 111.024 
L 285.448463 112.536 
L 285.743603 114.048 
L 285.743603 117.072 
L 285.448463 119.7936 
L 285.448463 122.8176 
L 284.563041 126.7488 
L 283.97276 130.68 
L 281.906777 146.7072 
L 281.316496 153.6624 
L 280.431074 160.3152 
L 279.545653 168.1776 
L 278.955372 174.8304 
L 277.77481 181.7856 
L 278.06995 187.5312 
L 277.77481 193.2768 
L 278.06995 198.1152 
L 277.77481 203.256 
L 278.06995 207.4896 
L 278.06995 211.1184 
L 278.660231 215.6544 
L 280.135934 216.2592 
L 281.611636 216.5616 
L 283.087339 217.1664 
L 284.858182 217.1664 
L 286.924165 216.864 
L 288.399868 216.864 
L 289.58043 216.5616 
L 290.170711 216.5616 
L 291.941554 214.7472 
L 293.122116 213.2352 
L 294.892959 210.2112 
L 297.254083 207.1872 
L 300.795769 204.4656 
L 302.271471 203.8608 
L 304.927736 202.0464 
L 304.632595 202.0464 
L 305.518017 201.744 
L 306.403438 199.9296 
L 306.403438 199.3248 
L 306.108298 198.72 
L 306.108298 198.72 
L 306.108298 196.3008 
L 308.174281 193.5792 
L 308.764562 192.3696 
L 309.649983 191.4624 
L 309.945124 191.4624 
L 310.240264 190.5552 
L 310.240264 190.5552 
L 309.945124 190.2528 
L 308.469421 189.0432 
L 307.87914 188.7408 
L 303.156893 185.4144 
L 301.976331 184.2048 
L 301.68119 182.6928 
L 302.271471 182.088 
L 304.632595 178.4592 
L 305.222876 177.8544 
L 305.813157 176.9472 
L 306.403438 176.6448 
L 306.698579 176.3424 
L 307.584 176.04 
L 308.764562 174.8304 
L 313.191669 173.6208 
L 314.077091 173.016 
L 315.552793 172.4112 
L 316.733355 171.8064 
L 317.618777 171.2016 
L 318.799339 169.6896 
L 319.979901 169.3872 
L 322.341025 167.2704 
L 324.111868 165.456 
L 326.177851 163.944 
L 331.19524 159.408 
L 333.851504 156.6864 
L 335.032066 155.7792 
L 337.983471 153.6624 
L 343.59114 148.5216 
L 344.476562 147.312 
L 347.132826 145.1952 
L 354.216198 137.9376 
L 355.987041 135.8208 
L 357.462744 134.3088 
L 358.643306 132.7968 
L 360.119008 131.5872 
L 361.29957 130.0752 
L 364.841256 127.9584 
L 366.90724 126.4464 
L 368.087802 125.2368 
L 368.087802 125.2368 
L 371.629488 123.4224 
L 373.10519 121.9104 
L 372.81005 121.9104 
L 373.10519 121.9104 
L 373.400331 122.2128 
L 373.400331 122.2128 
L 373.400331 122.5152 
L 372.514909 122.8176 
L 373.10519 122.8176 
L 372.81005 123.7248 
L 372.514909 123.7248 
L 371.924628 124.3296 
L 372.219769 125.2368 
L 371.334347 125.8416 
L 370.744066 126.7488 
L 370.744066 127.656 
L 369.858645 128.5632 
L 369.563504 129.4704 
L 368.678083 130.3776 
L 368.678083 131.2848 
L 367.792661 132.192 
L 366.90724 132.7968 
L 365.431537 134.3088 
L 364.250975 135.216 
L 360.709289 136.728 
L 355.691901 139.4496 
L 353.921058 140.0544 
L 352.740496 140.9616 
L 350.674512 141.8688 
L 348.608529 142.4736 
L 347.132826 143.3808 
L 345.361983 143.9856 
L 344.476562 144.5904 
L 343.59114 144.8928 
L 341.525157 145.8 
L 339.459174 146.1024 
L 338.573752 146.1024 
L 337.39319 146.7072 
L 335.032066 147.312 
L 331.785521 149.4288 
L 331.19524 149.7312 
L 330.014678 150.6384 
L 330.014678 150.9408 
L 329.719537 150.9408 
L 329.719537 150.9408 
L 329.424397 151.2432 
L 327.948694 152.1504 
L 325.29243 154.2672 
L 321.160463 156.9888 
L 318.209058 160.0128 
L 317.913917 160.92 
L 317.028496 162.1296 
L 316.733355 163.0368 
L 316.733355 163.6416 
L 317.618777 163.6416 
L 318.799339 163.0368 
L 319.38962 163.0368 
L 319.979901 163.3392 
L 319.979901 163.3392 
L 319.38962 163.6416 
L 318.209058 163.944 
L 317.618777 164.5488 
L 318.209058 164.8512 
L 318.504198 165.1536 
L 318.504198 165.456 
L 319.38962 165.1536 
L 319.979901 165.456 
L 321.455603 165.7584 
L 322.341025 166.0608 
L 322.341025 166.3632 
L 322.636165 166.968 
L 324.111868 167.2704 
L 326.177851 166.6656 
L 326.768132 166.6656 
L 328.834116 166.3632 
L 329.424397 166.968 
L 330.014678 167.2704 
L 331.785521 167.2704 
L 332.080661 167.5728 
L 334.146645 166.968 
L 335.032066 167.2704 
L 336.507769 167.2704 
L 337.09805 167.8752 
L 338.573752 168.48 
L 340.934876 168.7824 
L 342.410579 169.0848 
L 342.705719 169.3872 
L 344.181421 169.6896 
L 346.247405 169.992 
L 349.49395 170.8992 
L 351.855074 170.5968 
L 351.855074 170.5968 
" clip-path="url(#p222fa2615e)" style="fill: none; stroke: #ffd700; stroke-width: 1.5; stroke-linecap: square"/>
   </g>
   <g id="line2d_21">
    <path d="M 234.979438 107.3952 
" clip-path="url(#p222fa2615e)" style="fill: none; stroke: #ffd700; stroke-width: 1.5; stroke-linecap: square"/>
    <defs>
     <path id="mc2cb04ecd0" d="M 0 5 
C 1.326016 5 2.597899 4.473168 3.535534 3.535534 
C 4.473168 2.597899 5 1.326016 5 0 
C 5 -1.326016 4.473168 -2.597899 3.535534 -3.535534 
C 2.597899 -4.473168 1.326016 -5 0 -5 
C -1.326016 -5 -2.597899 -4.473168 -3.535534 -3.535534 
C -4.473168 -2.597899 -5 -1.326016 -5 0 
C -5 1.326016 -4.473168 2.597899 -3.535534 3.535534 
C -2.597899 4.473168 -1.326016 5 0 5 
z
" style="stroke: #ffd700"/>
    </defs>
    <g clip-path="url(#p222fa2615e)">
     <use xlink:href="#mc2cb04ecd0" x="234.979438" y="107.3952" style="fill: #ffd700; stroke: #ffd700"/>
    </g>
   </g>
   <g id="line2d_22">
    <path d="M 351.855074 170.5968 
" clip-path="url(#p222fa2615e)" style="fill: none; stroke: #ffd700; stroke-width: 1.5; stroke-linecap: square"/>
    <defs>
     <path id="m4b7fe7c17a" d="M -5 5 
L 5 5 
L 5 -5 
L -5 -5 
z
" style="stroke: #ffd700; stroke-linejoin: miter"/>
    </defs>
    <g clip-path="url(#p222fa2615e)">
     <use xlink:href="#m4b7fe7c17a" x="351.855074" y="170.5968" style="fill: #ffd700; stroke: #ffd700; stroke-linejoin: miter"/>
    </g>
   </g>
   <g id="line2d_23">
    <path d="M 379.598281 268.272 
L 379.30314 268.272 
L 379.598281 269.4816 
L 379.598281 269.1792 
L 379.598281 268.8768 
L 379.598281 269.4816 
L 379.598281 268.8768 
L 379.008 267.6672 
L 378.71286 267.0624 
L 378.417719 266.76 
L 377.532298 265.8528 
L 377.237157 265.8528 
L 376.351736 264.9456 
L 375.466314 263.736 
L 374.580893 263.4336 
L 373.400331 261.9216 
L 371.924628 261.3168 
L 371.039207 261.0144 
L 370.153785 259.8048 
L 368.973223 258.5952 
L 368.087802 257.3856 
L 367.497521 256.176 
L 366.612099 254.664 
L 366.021818 252.5472 
L 365.136397 250.7328 
L 364.250975 248.3136 
L 363.365554 245.8944 
L 362.184992 243.7776 
L 361.29957 242.2656 
L 359.823868 239.2416 
L 358.348165 236.2176 
L 357.462744 234.1008 
L 356.282182 230.7744 
L 355.39676 228.3552 
L 353.625917 224.1216 
L 352.150215 220.4928 
L 350.969653 215.9568 
L 350.084231 212.0256 
L 348.903669 206.8848 
L 347.427967 201.744 
L 346.247405 196.9056 
L 344.771702 191.4624 
L 343.59114 187.5312 
L 342.115438 182.9952 
L 340.639736 178.1568 
L 339.164033 172.1088 
L 337.39319 166.968 
L 335.622347 162.1296 
L 333.556364 157.896 
L 331.49038 153.36 
L 329.424397 149.7312 
L 327.948694 145.8 
L 326.472992 142.776 
L 324.702149 139.4496 
L 322.931306 136.728 
L 321.750744 134.3088 
L 320.570182 131.5872 
L 319.38962 129.4704 
L 318.504198 127.656 
L 317.618777 125.8416 
L 316.733355 124.3296 
L 315.847934 122.8176 
L 314.962512 121.3056 
L 314.077091 120.096 
L 313.48681 117.9792 
L 312.896529 116.7696 
L 312.306248 114.9552 
L 311.420826 113.7456 
L 310.240264 112.536 
L 309.649983 111.3264 
L 308.764562 109.8144 
L 308.174281 109.2096 
L 307.28886 108.3024 
L 306.698579 107.6976 
L 306.108298 106.7904 
L 305.222876 106.7904 
L 304.337455 106.1856 
L 303.747174 106.488 
L 302.861752 106.488 
L 302.271471 106.488 
L 301.38605 106.7904 
L 300.500628 107.0928 
L 299.615207 107.6976 
L 298.729785 108 
L 297.549223 108.9072 
L 296.663802 109.512 
L 295.77838 110.1168 
L 294.892959 110.4192 
L 294.007537 110.4192 
L 292.826975 110.7216 
L 291.941554 110.7216 
L 291.056132 111.024 
L 290.170711 111.3264 
L 288.990149 111.3264 
L 287.809587 111.3264 
L 286.333884 111.6288 
L 285.153322 111.9312 
L 283.67762 112.2336 
L 282.497058 112.536 
L 280.431074 114.6528 
L 278.955372 115.2576 
" clip-path="url(#p222fa2615e)" style="fill: none; stroke: #800080; stroke-width: 1.5; stroke-linecap: square"/>
   </g>
   <g id="line2d_24">
    <path d="M 379.598281 268.272 
" clip-path="url(#p222fa2615e)" style="fill: none; stroke: #800080; stroke-width: 1.5; stroke-linecap: square"/>
    <defs>
     <path id="m6b5e9de99d" d="M 0 5 
C 1.326016 5 2.597899 4.473168 3.535534 3.535534 
C 4.473168 2.597899 5 1.326016 5 0 
C 5 -1.326016 4.473168 -2.597899 3.535534 -3.535534 
C 2.597899 -4.473168 1.326016 -5 0 -5 
C -1.326016 -5 -2.597899 -4.473168 -3.535534 -3.535534 
C -4.473168 -2.597899 -5 -1.326016 -5 0 
C -5 1.326016 -4.473168 2.597899 -3.535534 3.535534 
C -2.597899 4.473168 -1.326016 5 0 5 
z
" style="stroke: #800080"/>
    </defs>
    <g clip-path="url(#p222fa2615e)">
     <use xlink:href="#m6b5e9de99d" x="379.598281" y="268.272" style="fill: #800080; stroke: #800080"/>
    </g>
   </g>
   <g id="line2d_25">
    <path d="M 278.955372 115.2576 
" clip-path="url(#p222fa2615e)" style="fill: none; stroke: #800080; stroke-width: 1.5; stroke-linecap: square"/>
    <defs>
     <path id="m849e077be5" d="M -5 5 
L 5 5 
L 5 -5 
L -5 -5 
z
" style="stroke: #800080; stroke-linejoin: miter"/>
    </defs>
    <g clip-path="url(#p222fa2615e)">
     <use xlink:href="#m849e077be5" x="278.955372" y="115.2576" style="fill: #800080; stroke: #800080; stroke-linejoin: miter"/>
    </g>
   </g>
   <g id="line2d_26">
    <path d="M 219.632132 164.2464 
L 220.222413 165.456 
L 220.812694 165.7584 
L 221.993256 165.7584 
L 223.173818 166.0608 
L 224.05924 165.7584 
L 226.420364 165.7584 
L 226.420364 165.7584 
L 227.010645 166.0608 
L 228.191207 165.456 
L 229.371769 165.456 
L 230.552331 165.1536 
L 232.618314 165.1536 
L 233.503736 164.8512 
L 235.569719 164.8512 
L 236.16 165.1536 
L 236.45514 165.456 
L 237.045421 165.7584 
L 238.225983 165.7584 
L 239.111405 166.0608 
L 239.701686 166.0608 
L 240.291967 166.3632 
L 242.06281 166.3632 
L 245.014215 165.456 
L 245.899636 165.456 
L 246.489917 165.1536 
L 246.489917 165.7584 
L 246.489917 165.1536 
L 246.194777 165.1536 
L 245.309355 164.8512 
L 244.128793 163.944 
L 243.243372 163.0368 
L 242.653091 162.1296 
L 242.06281 161.5248 
L 241.767669 160.92 
L 242.06281 160.3152 
L 242.06281 159.408 
L 242.653091 158.8032 
L 242.948231 158.1984 
L 245.014215 154.872 
L 246.785058 153.9648 
L 245.604496 153.9648 
L 247.375339 153.0576 
L 249.146182 152.7552 
L 251.212165 153.36 
L 251.212165 153.36 
L 250.621884 153.6624 
L 250.326744 153.36 
L 253.278149 151.2432 
L 254.458711 150.9408 
L 258.590678 149.4288 
L 258.590678 149.1264 
L 263.017785 146.1024 
L 263.903207 145.1952 
L 264.198347 143.6832 
L 267.740033 139.4496 
L 272.462281 135.216 
L 275.118545 131.5872 
L 276.299107 128.8656 
L 278.06995 127.0512 
L 279.545653 124.9344 
L 281.316496 121.608 
L 282.792198 119.4912 
L 284.858182 116.7696 
L 286.038744 113.7456 
L 287.514446 111.6288 
L 289.87557 106.488 
L 291.351273 104.0688 
L 293.122116 100.7424 
L 294.597818 98.928 
L 298.139504 93.4848 
L 299.615207 91.6704 
L 300.795769 89.5536 
L 301.976331 87.7392 
L 303.156893 86.5296 
L 305.222876 82.9008 
L 306.698579 81.9936 
L 307.584 80.4816 
L 310.240264 77.76 
L 310.240264 77.1552 
L 310.830545 76.248 
L 311.715967 75.3408 
L 312.011107 74.736 
L 314.372231 73.5264 
L 314.667372 73.224 
L 315.257653 72.9216 
L 316.733355 72.0144 
L 318.209058 72.0144 
L 318.504198 71.4096 
L 319.094479 70.8048 
L 319.38962 69.8976 
L 321.455603 70.2 
L 323.816727 70.8048 
L 326.177851 72.0144 
L 327.063273 72.3168 
L 328.243835 73.5264 
L 330.014678 74.736 
L 331.19524 75.9456 
L 331.19524 75.9456 
L 333.556364 77.1552 
L 333.261223 77.1552 
L 335.327207 78.3648 
L 333.851504 78.3648 
L 335.622347 79.272 
L 336.507769 80.1792 
L 334.441785 79.272 
L 335.622347 80.1792 
L 332.080661 78.3648 
L 333.556364 78.6672 
L 332.966083 77.4576 
L 333.851504 77.4576 
L 330.900099 75.0384 
L 329.129256 73.8288 
L 327.063273 73.5264 
L 325.882711 73.8288 
L 326.177851 73.8288 
L 325.882711 72.6192 
L 326.472992 71.4096 
L 326.768132 70.2 
L 325.29243 68.3856 
L 322.931306 66.2688 
L 321.160463 64.152 
L 323.521587 64.7568 
L 323.816727 62.9424 
L 329.129256 59.9184 
L 325.882711 62.0352 
L 326.177851 60.8256 
L 327.653554 60.8256 
L 327.653554 60.2208 
L 326.768132 59.616 
L 325.29243 60.5232 
L 323.226446 61.128 
L 323.226446 60.5232 
L 324.407008 59.616 
L 324.997289 56.8944 
L 324.702149 55.3824 
L 324.702149 53.568 
L 325.882711 53.568 
L 320.570182 53.568 
L 322.045884 53.568 
L 321.750744 54.4752 
L 318.209058 53.568 
L 318.504198 53.568 
L 319.094479 54.1728 
L 317.913917 54.1728 
L 317.323636 54.4752 
L 316.733355 54.4752 
L 316.143074 54.7776 
L 315.257653 55.08 
L 314.077091 55.6848 
L 311.420826 57.4992 
L 306.698579 60.2208 
L 304.632595 62.64 
L 300.500628 66.8736 
L 297.549223 69.5952 
L 293.417256 75.0384 
L 288.695008 78.6672 
L 286.629025 82.9008 
L 277.77481 91.368 
L 274.823405 96.5088 
L 263.903207 105.2784 
L 258.295537 115.56 
L 252.687868 124.9344 
L 247.375339 133.4016 
L 243.538512 140.6592 
L 242.06281 143.9856 
L 234.979438 158.5008 
L 233.503736 160.3152 
L 232.028033 161.8272 
L 232.913455 162.1296 
L 233.798876 162.1296 
L 237.930843 161.8272 
L 240.291967 162.1296 
L 241.472529 162.1296 
L 240.882248 162.432 
L 239.701686 162.7344 
L 238.521124 163.6416 
L 238.521124 163.6416 
L 238.816264 163.944 
L 239.111405 164.8512 
L 238.521124 166.0608 
L 239.111405 166.968 
L 237.930843 167.2704 
L 236.750281 168.1776 
L 236.45514 169.992 
L 236.45514 170.8992 
L 237.635702 171.8064 
L 240.587107 170.8992 
L 242.653091 171.2016 
L 244.719074 171.8064 
L 246.194777 172.1088 
L 247.670479 173.016 
L 248.851041 173.9232 
L 249.146182 175.1328 
L 250.031603 176.04 
L 251.212165 176.9472 
L 254.753851 176.9472 
L 258.000397 178.1568 
L 260.656661 178.7616 
L 262.722645 179.3664 
L 264.788628 179.3664 
L 267.149752 179.6688 
L 269.510876 179.3664 
L 272.757421 179.3664 
L 275.708826 178.7616 
L 278.06995 178.4592 
L 280.431074 178.4592 
L 282.792198 178.1568 
L 288.695008 175.7376 
L 294.007537 173.3184 
L 299.910347 170.2944 
L 302.861752 168.48 
L 305.518017 166.6656 
L 309.059702 164.8512 
L 312.601388 162.432 
L 316.143074 160.92 
L 318.799339 158.8032 
L 322.636165 156.9888 
L 325.882711 155.1744 
L 328.834116 153.6624 
L 332.080661 151.5456 
L 335.032066 150.336 
L 341.230017 146.4048 
L 344.181421 145.1952 
L 348.018248 143.0784 
L 356.282182 140.0544 
L 360.119008 138.24 
L 363.660694 136.4256 
L 366.90724 135.5184 
L 370.153785 134.3088 
L 371.924628 133.4016 
L 378.417719 130.3776 
L 381.073983 129.7728 
L 384.025388 128.2608 
L 386.681653 127.0512 
L 395.240727 124.632 
L 396.421289 124.632 
L 397.306711 124.3296 
L 398.192132 124.3296 
L 398.487273 125.5392 
L 398.487273 133.704 
L 398.487273 133.0992 
L 397.896992 132.7968 
L 395.831008 132.7968 
L 394.355306 133.4016 
L 392.289322 133.704 
L 389.633058 133.704 
L 388.747636 134.0064 
L 386.386512 134.3088 
L 384.025388 134.0064 
L 383.435107 134.3088 
L 379.30314 134.3088 
L 376.942017 134.6112 
L 374.876033 134.3088 
L 369.858645 134.3088 
L 368.678083 134.6112 
L 367.497521 134.3088 
L 367.20238 133.0992 
L 366.90724 133.4016 
L 366.612099 133.4016 
L 366.021818 133.704 
L 365.726678 133.704 
L 366.021818 133.704 
L 366.316959 133.4016 
L 366.316959 132.4944 
L 367.20238 132.4944 
L 367.792661 131.2848 
L 368.678083 130.3776 
L 370.448926 130.0752 
L 371.924628 128.5632 
L 373.695471 127.9584 
L 376.056595 126.4464 
L 377.827438 125.8416 
L 379.598281 124.0272 
L 381.073983 123.7248 
L 382.844826 122.5152 
L 383.730248 122.2128 
L 384.615669 121.3056 
L 385.796231 120.3984 
L 386.386512 119.7936 
L 387.567074 118.8864 
L 388.452496 117.9792 
L 388.452496 117.9792 
L 388.452496 117.6768 
L 387.862215 117.9792 
L 386.386512 117.6768 
L 385.501091 117.9792 
L 384.320529 117.6768 
L 383.730248 117.3744 
L 383.435107 117.3744 
L 382.844826 114.6528 
L 383.730248 110.4192 
L 383.730248 109.2096 
L 383.435107 108.3024 
L 382.844826 107.3952 
L 382.254545 106.7904 
L 381.959405 106.7904 
L 381.369124 106.1856 
L 381.369124 106.1856 
L 381.369124 105.8832 
L 381.664264 106.1856 
L 381.959405 105.8832 
L 381.959405 105.2784 
L 382.254545 105.5808 
L 381.664264 105.2784 
L 380.188562 104.976 
L 379.598281 105.2784 
L 378.417719 105.5808 
L 377.532298 105.2784 
L 376.351736 105.5808 
L 374.580893 105.8832 
L 369.563504 105.8832 
L 367.792661 105.2784 
L 367.792661 105.2784 
" clip-path="url(#p222fa2615e)" style="fill: none; stroke: #87cefa; stroke-width: 1.5; stroke-linecap: square"/>
   </g>
   <g id="line2d_27">
    <path d="M 219.632132 164.2464 
" clip-path="url(#p222fa2615e)" style="fill: none; stroke: #87cefa; stroke-width: 1.5; stroke-linecap: square"/>
    <defs>
     <path id="m444eb6028b" d="M 0 5 
C 1.326016 5 2.597899 4.473168 3.535534 3.535534 
C 4.473168 2.597899 5 1.326016 5 0 
C 5 -1.326016 4.473168 -2.597899 3.535534 -3.535534 
C 2.597899 -4.473168 1.326016 -5 0 -5 
C -1.326016 -5 -2.597899 -4.473168 -3.535534 -3.535534 
C -4.473168 -2.597899 -5 -1.326016 -5 0 
C -5 1.326016 -4.473168 2.597899 -3.535534 3.535534 
C -2.597899 4.473168 -1.326016 5 0 5 
z
" style="stroke: #87cefa"/>
    </defs>
    <g clip-path="url(#p222fa2615e)">
     <use xlink:href="#m444eb6028b" x="219.632132" y="164.2464" style="fill: #87cefa; stroke: #87cefa"/>
    </g>
   </g>
   <g id="line2d_28">
    <path d="M 367.792661 105.2784 
" clip-path="url(#p222fa2615e)" style="fill: none; stroke: #87cefa; stroke-width: 1.5; stroke-linecap: square"/>
    <defs>
     <path id="ma8aa3dbcee" d="M -5 5 
L 5 5 
L 5 -5 
L -5 -5 
z
" style="stroke: #87cefa; stroke-linejoin: miter"/>
    </defs>
    <g clip-path="url(#p222fa2615e)">
     <use xlink:href="#ma8aa3dbcee" x="367.792661" y="105.2784" style="fill: #87cefa; stroke: #87cefa; stroke-linejoin: miter"/>
    </g>
   </g>
   <g id="patch_3">
    <path d="M 57.6 307.584 
L 57.6 41.472 
" style="fill: none; stroke: #000000; stroke-width: 0.8; stroke-linejoin: miter; stroke-linecap: square"/>
   </g>
   <g id="patch_4">
    <path d="M 57.6 307.584 
L 414.72 307.584 
" style="fill: none; stroke: #000000; stroke-width: 0.8; stroke-linejoin: miter; stroke-linecap: square"/>
   </g>
   <g id="legend_1">
    <g id="patch_5">
     <path d="M 282.164531 119.523563 
L 404.22 119.523563 
Q 407.22 119.523563 407.22 116.523563 
L 407.22 51.972 
Q 407.22 48.972 404.22 48.972 
L 282.164531 48.972 
Q 279.164531 48.972 279.164531 51.972 
L 279.164531 116.523563 
Q 279.164531 119.523563 282.164531 119.523563 
z
" style="fill: #ffffff; opacity: 0.8; stroke: #cccccc; stroke-linejoin: miter"/>
    </g>
    <g id="line2d_29">
     <path d="M 285.164531 61.119656 
L 300.164531 61.119656 
L 315.164531 61.119656 
" style="fill: none; stroke: #000000; stroke-width: 1.5; stroke-linecap: square"/>
    </g>
    <g id="text_7">
     <!-- Trajectory -->
     <g transform="translate(327.164531 66.369656)scale(0.15 -0.15)">
      <defs>
       <path id="DejaVuSans-54" d="M -19 4666 
L 3928 4666 
L 3928 4134 
L 2272 4134 
L 2272 0 
L 1638 0 
L 1638 4134 
L -19 4134 
L -19 4666 
z
" transform="scale(0.015625)"/>
       <path id="DejaVuSans-72" d="M 2631 2963 
Q 2534 3019 2420 3045 
Q 2306 3072 2169 3072 
Q 1681 3072 1420 2755 
Q 1159 2438 1159 1844 
L 1159 0 
L 581 0 
L 581 3500 
L 1159 3500 
L 1159 2956 
Q 1341 3275 1631 3429 
Q 1922 3584 2338 3584 
Q 2397 3584 2469 3576 
Q 2541 3569 2628 3553 
L 2631 2963 
z
" transform="scale(0.015625)"/>
       <path id="DejaVuSans-61" d="M 2194 1759 
Q 1497 1759 1228 1600 
Q 959 1441 959 1056 
Q 959 750 1161 570 
Q 1363 391 1709 391 
Q 2188 391 2477 730 
Q 2766 1069 2766 1631 
L 2766 1759 
L 2194 1759 
z
M 3341 1997 
L 3341 0 
L 2766 0 
L 2766 531 
Q 2569 213 2275 61 
Q 1981 -91 1556 -91 
Q 1019 -91 701 211 
Q 384 513 384 1019 
Q 384 1609 779 1909 
Q 1175 2209 1959 2209 
L 2766 2209 
L 2766 2266 
Q 2766 2663 2505 2880 
Q 2244 3097 1772 3097 
Q 1472 3097 1187 3025 
Q 903 2953 641 2809 
L 641 3341 
Q 956 3463 1253 3523 
Q 1550 3584 1831 3584 
Q 2591 3584 2966 3190 
Q 3341 2797 3341 1997 
z
" transform="scale(0.015625)"/>
       <path id="DejaVuSans-6a" d="M 603 3500 
L 1178 3500 
L 1178 -63 
Q 1178 -731 923 -1031 
Q 669 -1331 103 -1331 
L -116 -1331 
L -116 -844 
L 38 -844 
Q 366 -844 484 -692 
Q 603 -541 603 -63 
L 603 3500 
z
M 603 4863 
L 1178 4863 
L 1178 4134 
L 603 4134 
L 603 4863 
z
" transform="scale(0.015625)"/>
       <path id="DejaVuSans-65" d="M 3597 1894 
L 3597 1613 
L 953 1613 
Q 991 1019 1311 708 
Q 1631 397 2203 397 
Q 2534 397 2845 478 
Q 3156 559 3463 722 
L 3463 178 
Q 3153 47 2828 -22 
Q 2503 -91 2169 -91 
Q 1331 -91 842 396 
Q 353 884 353 1716 
Q 353 2575 817 3079 
Q 1281 3584 2069 3584 
Q 2775 3584 3186 3129 
Q 3597 2675 3597 1894 
z
M 3022 2063 
Q 3016 2534 2758 2815 
Q 2500 3097 2075 3097 
Q 1594 3097 1305 2825 
Q 1016 2553 972 2059 
L 3022 2063 
z
" transform="scale(0.015625)"/>
       <path id="DejaVuSans-63" d="M 3122 3366 
L 3122 2828 
Q 2878 2963 2633 3030 
Q 2388 3097 2138 3097 
Q 1578 3097 1268 2742 
Q 959 2388 959 1747 
Q 959 1106 1268 751 
Q 1578 397 2138 397 
Q 2388 397 2633 464 
Q 2878 531 3122 666 
L 3122 134 
Q 2881 22 2623 -34 
Q 2366 -91 2075 -91 
Q 1284 -91 818 406 
Q 353 903 353 1747 
Q 353 2603 823 3093 
Q 1294 3584 2113 3584 
Q 2378 3584 2631 3529 
Q 2884 3475 3122 3366 
z
" transform="scale(0.015625)"/>
       <path id="DejaVuSans-74" d="M 1172 4494 
L 1172 3500 
L 2356 3500 
L 2356 3053 
L 1172 3053 
L 1172 1153 
Q 1172 725 1289 603 
Q 1406 481 1766 481 
L 2356 481 
L 2356 0 
L 1766 0 
Q 1100 0 847 248 
Q 594 497 594 1153 
L 594 3053 
L 172 3053 
L 172 3500 
L 594 3500 
L 594 4494 
L 1172 4494 
z
" transform="scale(0.015625)"/>
       <path id="DejaVuSans-6f" d="M 1959 3097 
Q 1497 3097 1228 2736 
Q 959 2375 959 1747 
Q 959 1119 1226 758 
Q 1494 397 1959 397 
Q 2419 397 2687 759 
Q 2956 1122 2956 1747 
Q 2956 2369 2687 2733 
Q 2419 3097 1959 3097 
z
M 1959 3584 
Q 2709 3584 3137 3096 
Q 3566 2609 3566 1747 
Q 3566 888 3137 398 
Q 2709 -91 1959 -91 
Q 1206 -91 779 398 
Q 353 888 353 1747 
Q 353 2609 779 3096 
Q 1206 3584 1959 3584 
z
" transform="scale(0.015625)"/>
       <path id="DejaVuSans-79" d="M 2059 -325 
Q 1816 -950 1584 -1140 
Q 1353 -1331 966 -1331 
L 506 -1331 
L 506 -850 
L 844 -850 
Q 1081 -850 1212 -737 
Q 1344 -625 1503 -206 
L 1606 56 
L 191 3500 
L 800 3500 
L 1894 763 
L 2988 3500 
L 3597 3500 
L 2059 -325 
z
" transform="scale(0.015625)"/>
      </defs>
      <use xlink:href="#DejaVuSans-54"/>
      <use xlink:href="#DejaVuSans-72" x="46.333984"/>
      <use xlink:href="#DejaVuSans-61" x="87.447266"/>
      <use xlink:href="#DejaVuSans-6a" x="148.726562"/>
      <use xlink:href="#DejaVuSans-65" x="176.509766"/>
      <use xlink:href="#DejaVuSans-63" x="238.033203"/>
      <use xlink:href="#DejaVuSans-74" x="293.013672"/>
      <use xlink:href="#DejaVuSans-6f" x="332.222656"/>
      <use xlink:href="#DejaVuSans-72" x="393.404297"/>
      <use xlink:href="#DejaVuSans-79" x="434.517578"/>
     </g>
    </g>
    <g id="line2d_30">
     <path d="M 285.164531 83.136844 
L 300.164531 83.136844 
L 315.164531 83.136844 
" style="fill: none; stroke: #000000; stroke-width: 1.5; stroke-linecap: square"/>
     <g>
      <use xlink:href="#mae16fd98fc" x="300.164531" y="83.136844" style="stroke: #000000"/>
     </g>
    </g>
    <g id="text_8">
     <!-- Start -->
     <g transform="translate(327.164531 88.386844)scale(0.15 -0.15)">
      <defs>
       <path id="DejaVuSans-53" d="M 3425 4513 
L 3425 3897 
Q 3066 4069 2747 4153 
Q 2428 4238 2131 4238 
Q 1616 4238 1336 4038 
Q 1056 3838 1056 3469 
Q 1056 3159 1242 3001 
Q 1428 2844 1947 2747 
L 2328 2669 
Q 3034 2534 3370 2195 
Q 3706 1856 3706 1288 
Q 3706 609 3251 259 
Q 2797 -91 1919 -91 
Q 1588 -91 1214 -16 
Q 841 59 441 206 
L 441 856 
Q 825 641 1194 531 
Q 1563 422 1919 422 
Q 2459 422 2753 634 
Q 3047 847 3047 1241 
Q 3047 1584 2836 1778 
Q 2625 1972 2144 2069 
L 1759 2144 
Q 1053 2284 737 2584 
Q 422 2884 422 3419 
Q 422 4038 858 4394 
Q 1294 4750 2059 4750 
Q 2388 4750 2728 4690 
Q 3069 4631 3425 4513 
z
" transform="scale(0.015625)"/>
      </defs>
      <use xlink:href="#DejaVuSans-53"/>
      <use xlink:href="#DejaVuSans-74" x="63.476562"/>
      <use xlink:href="#DejaVuSans-61" x="102.685547"/>
      <use xlink:href="#DejaVuSans-72" x="163.964844"/>
      <use xlink:href="#DejaVuSans-74" x="205.078125"/>
     </g>
    </g>
    <g id="line2d_31">
     <path d="M 285.164531 105.154031 
L 300.164531 105.154031 
L 315.164531 105.154031 
" style="fill: none; stroke: #000000; stroke-width: 1.5; stroke-linecap: square"/>
     <g>
      <use xlink:href="#me7f87d5c33" x="300.164531" y="105.154031" style="stroke: #000000; stroke-linejoin: miter"/>
     </g>
    </g>
    <g id="text_9">
     <!-- End -->
     <g transform="translate(327.164531 110.404031)scale(0.15 -0.15)">
      <defs>
       <path id="DejaVuSans-45" d="M 628 4666 
L 3578 4666 
L 3578 4134 
L 1259 4134 
L 1259 2753 
L 3481 2753 
L 3481 2222 
L 1259 2222 
L 1259 531 
L 3634 531 
L 3634 0 
L 628 0 
L 628 4666 
z
" transform="scale(0.015625)"/>
       <path id="DejaVuSans-6e" d="M 3513 2113 
L 3513 0 
L 2938 0 
L 2938 2094 
Q 2938 2591 2744 2837 
Q 2550 3084 2163 3084 
Q 1697 3084 1428 2787 
Q 1159 2491 1159 1978 
L 1159 0 
L 581 0 
L 581 3500 
L 1159 3500 
L 1159 2956 
Q 1366 3272 1645 3428 
Q 1925 3584 2291 3584 
Q 2894 3584 3203 3211 
Q 3513 2838 3513 2113 
z
" transform="scale(0.015625)"/>
       <path id="DejaVuSans-64" d="M 2906 2969 
L 2906 4863 
L 3481 4863 
L 3481 0 
L 2906 0 
L 2906 525 
Q 2725 213 2448 61 
Q 2172 -91 1784 -91 
Q 1150 -91 751 415 
Q 353 922 353 1747 
Q 353 2572 751 3078 
Q 1150 3584 1784 3584 
Q 2172 3584 2448 3432 
Q 2725 3281 2906 2969 
z
M 947 1747 
Q 947 1113 1208 752 
Q 1469 391 1925 391 
Q 2381 391 2643 752 
Q 2906 1113 2906 1747 
Q 2906 2381 2643 2742 
Q 2381 3103 1925 3103 
Q 1469 3103 1208 2742 
Q 947 2381 947 1747 
z
" transform="scale(0.015625)"/>
      </defs>
      <use xlink:href="#DejaVuSans-45"/>
      <use xlink:href="#DejaVuSans-6e" x="63.183594"/>
      <use xlink:href="#DejaVuSans-64" x="126.5625"/>
     </g>
    </g>
   </g>
  </g>
 </g>
 <defs>
  <clipPath id="p222fa2615e">
   <rect x="57.6" y="41.472" width="357.12" height="266.112"/>
  </clipPath>
 </defs>
</svg>
