<?xml version="1.0" encoding="utf-8" standalone="no"?>
<!DOCTYPE svg PUBLIC "-//W3C//DTD SVG 1.1//EN"
  "http://www.w3.org/Graphics/SVG/1.1/DTD/svg11.dtd">
<svg xmlns:xlink="http://www.w3.org/1999/xlink" width="460.8pt" height="345.6pt" viewBox="0 0 460.8 345.6" xmlns="http://www.w3.org/2000/svg" version="1.1">
 <metadata>
  <rdf:RDF xmlns:dc="http://purl.org/dc/elements/1.1/" xmlns:cc="http://creativecommons.org/ns#" xmlns:rdf="http://www.w3.org/1999/02/22-rdf-syntax-ns#">
   <cc:Work>
    <dc:type rdf:resource="http://purl.org/dc/dcmitype/StillImage"/>
    <dc:date>2024-02-14T14:13:07.016975</dc:date>
    <dc:format>image/svg+xml</dc:format>
    <dc:creator>
     <cc:Agent>
      <dc:title>Matplotlib v3.5.0, https://matplotlib.org/</dc:title>
     </cc:Agent>
    </dc:creator>
   </cc:Work>
  </rdf:RDF>
 </metadata>
 <defs>
  <style type="text/css">*{stroke-linejoin: round; stroke-linecap: butt}</style>
 </defs>
 <g id="figure_1">
  <g id="patch_1">
   <path d="M 0 345.6 
L 460.8 345.6 
L 460.8 0 
L 0 0 
z
" style="fill: #ffffff"/>
  </g>
  <g id="axes_1">
   <g id="patch_2">
    <path d="M 57.6 307.584 
L 414.72 307.584 
L 414.72 41.472 
L 57.6 41.472 
z
" style="fill: #ffffff"/>
   </g>
   <g id="matplotlib.axis_1">
    <g id="xtick_1">
     <g id="line2d_1">
      <defs>
       <path id="m20cb66edd5" d="M 0 0 
L 0 3.5 
" style="stroke: #000000; stroke-width: 0.8"/>
      </defs>
      <g>
       <use xlink:href="#m20cb66edd5" x="73.832727" y="307.584" style="stroke: #000000; stroke-width: 0.8"/>
      </g>
     </g>
     <g id="text_1">
      <!-- 0 -->
      <g transform="translate(67.470227 329.780875)scale(0.2 -0.2)">
       <defs>
        <path id="DejaVuSans-30" d="M 2034 4250 
Q 1547 4250 1301 3770 
Q 1056 3291 1056 2328 
Q 1056 1369 1301 889 
Q 1547 409 2034 409 
Q 2525 409 2770 889 
Q 3016 1369 3016 2328 
Q 3016 3291 2770 3770 
Q 2525 4250 2034 4250 
z
M 2034 4750 
Q 2819 4750 3233 4129 
Q 3647 3509 3647 2328 
Q 3647 1150 3233 529 
Q 2819 -91 2034 -91 
Q 1250 -91 836 529 
Q 422 1150 422 2328 
Q 422 3509 836 4129 
Q 1250 4750 2034 4750 
z
" transform="scale(0.015625)"/>
       </defs>
       <use xlink:href="#DejaVuSans-30"/>
      </g>
     </g>
    </g>
    <g id="xtick_2">
     <g id="line2d_2">
      <g>
       <use xlink:href="#m20cb66edd5" x="399.962975" y="307.584" style="stroke: #000000; stroke-width: 0.8"/>
      </g>
     </g>
     <g id="text_2">
      <!-- 1 -->
      <g transform="translate(393.600475 329.780875)scale(0.2 -0.2)">
       <defs>
        <path id="DejaVuSans-31" d="M 794 531 
L 1825 531 
L 1825 4091 
L 703 3866 
L 703 4441 
L 1819 4666 
L 2450 4666 
L 2450 531 
L 3481 531 
L 3481 0 
L 794 0 
L 794 531 
z
" transform="scale(0.015625)"/>
       </defs>
       <use xlink:href="#DejaVuSans-31"/>
      </g>
     </g>
    </g>
    <g id="text_3">
     <!-- Normalised X position -->
     <g transform="translate(111.795937 353.137125)scale(0.2 -0.2)">
      <defs>
       <path id="DejaVuSans-Bold-4e" d="M 588 4666 
L 1931 4666 
L 3628 1466 
L 3628 4666 
L 4769 4666 
L 4769 0 
L 3425 0 
L 1728 3200 
L 1728 0 
L 588 0 
L 588 4666 
z
" transform="scale(0.015625)"/>
       <path id="DejaVuSans-Bold-6f" d="M 2203 2784 
Q 1831 2784 1636 2517 
Q 1441 2250 1441 1747 
Q 1441 1244 1636 976 
Q 1831 709 2203 709 
Q 2569 709 2762 976 
Q 2956 1244 2956 1747 
Q 2956 2250 2762 2517 
Q 2569 2784 2203 2784 
z
M 2203 3584 
Q 3106 3584 3614 3096 
Q 4122 2609 4122 1747 
Q 4122 884 3614 396 
Q 3106 -91 2203 -91 
Q 1297 -91 786 396 
Q 275 884 275 1747 
Q 275 2609 786 3096 
Q 1297 3584 2203 3584 
z
" transform="scale(0.015625)"/>
       <path id="DejaVuSans-Bold-72" d="M 3138 2547 
Q 2991 2616 2845 2648 
Q 2700 2681 2553 2681 
Q 2122 2681 1889 2404 
Q 1656 2128 1656 1613 
L 1656 0 
L 538 0 
L 538 3500 
L 1656 3500 
L 1656 2925 
Q 1872 3269 2151 3426 
Q 2431 3584 2822 3584 
Q 2878 3584 2943 3579 
Q 3009 3575 3134 3559 
L 3138 2547 
z
" transform="scale(0.015625)"/>
       <path id="DejaVuSans-Bold-6d" d="M 3781 2919 
Q 3994 3244 4286 3414 
Q 4578 3584 4928 3584 
Q 5531 3584 5847 3212 
Q 6163 2841 6163 2131 
L 6163 0 
L 5038 0 
L 5038 1825 
Q 5041 1866 5042 1909 
Q 5044 1953 5044 2034 
Q 5044 2406 4934 2573 
Q 4825 2741 4581 2741 
Q 4263 2741 4089 2478 
Q 3916 2216 3909 1719 
L 3909 0 
L 2784 0 
L 2784 1825 
Q 2784 2406 2684 2573 
Q 2584 2741 2328 2741 
Q 2006 2741 1831 2477 
Q 1656 2213 1656 1722 
L 1656 0 
L 531 0 
L 531 3500 
L 1656 3500 
L 1656 2988 
Q 1863 3284 2130 3434 
Q 2397 3584 2719 3584 
Q 3081 3584 3359 3409 
Q 3638 3234 3781 2919 
z
" transform="scale(0.015625)"/>
       <path id="DejaVuSans-Bold-61" d="M 2106 1575 
Q 1756 1575 1579 1456 
Q 1403 1338 1403 1106 
Q 1403 894 1545 773 
Q 1688 653 1941 653 
Q 2256 653 2472 879 
Q 2688 1106 2688 1447 
L 2688 1575 
L 2106 1575 
z
M 3816 1997 
L 3816 0 
L 2688 0 
L 2688 519 
Q 2463 200 2181 54 
Q 1900 -91 1497 -91 
Q 953 -91 614 226 
Q 275 544 275 1050 
Q 275 1666 698 1953 
Q 1122 2241 2028 2241 
L 2688 2241 
L 2688 2328 
Q 2688 2594 2478 2717 
Q 2269 2841 1825 2841 
Q 1466 2841 1156 2769 
Q 847 2697 581 2553 
L 581 3406 
Q 941 3494 1303 3539 
Q 1666 3584 2028 3584 
Q 2975 3584 3395 3211 
Q 3816 2838 3816 1997 
z
" transform="scale(0.015625)"/>
       <path id="DejaVuSans-Bold-6c" d="M 538 4863 
L 1656 4863 
L 1656 0 
L 538 0 
L 538 4863 
z
" transform="scale(0.015625)"/>
       <path id="DejaVuSans-Bold-69" d="M 538 3500 
L 1656 3500 
L 1656 0 
L 538 0 
L 538 3500 
z
M 538 4863 
L 1656 4863 
L 1656 3950 
L 538 3950 
L 538 4863 
z
" transform="scale(0.015625)"/>
       <path id="DejaVuSans-Bold-73" d="M 3272 3391 
L 3272 2541 
Q 2913 2691 2578 2766 
Q 2244 2841 1947 2841 
Q 1628 2841 1473 2761 
Q 1319 2681 1319 2516 
Q 1319 2381 1436 2309 
Q 1553 2238 1856 2203 
L 2053 2175 
Q 2913 2066 3209 1816 
Q 3506 1566 3506 1031 
Q 3506 472 3093 190 
Q 2681 -91 1863 -91 
Q 1516 -91 1145 -36 
Q 775 19 384 128 
L 384 978 
Q 719 816 1070 734 
Q 1422 653 1784 653 
Q 2113 653 2278 743 
Q 2444 834 2444 1013 
Q 2444 1163 2330 1236 
Q 2216 1309 1875 1350 
L 1678 1375 
Q 931 1469 631 1722 
Q 331 1975 331 2491 
Q 331 3047 712 3315 
Q 1094 3584 1881 3584 
Q 2191 3584 2531 3537 
Q 2872 3491 3272 3391 
z
" transform="scale(0.015625)"/>
       <path id="DejaVuSans-Bold-65" d="M 4031 1759 
L 4031 1441 
L 1416 1441 
Q 1456 1047 1700 850 
Q 1944 653 2381 653 
Q 2734 653 3104 758 
Q 3475 863 3866 1075 
L 3866 213 
Q 3469 63 3072 -14 
Q 2675 -91 2278 -91 
Q 1328 -91 801 392 
Q 275 875 275 1747 
Q 275 2603 792 3093 
Q 1309 3584 2216 3584 
Q 3041 3584 3536 3087 
Q 4031 2591 4031 1759 
z
M 2881 2131 
Q 2881 2450 2695 2645 
Q 2509 2841 2209 2841 
Q 1884 2841 1681 2658 
Q 1478 2475 1428 2131 
L 2881 2131 
z
" transform="scale(0.015625)"/>
       <path id="DejaVuSans-Bold-64" d="M 2919 2988 
L 2919 4863 
L 4044 4863 
L 4044 0 
L 2919 0 
L 2919 506 
Q 2688 197 2409 53 
Q 2131 -91 1766 -91 
Q 1119 -91 703 423 
Q 288 938 288 1747 
Q 288 2556 703 3070 
Q 1119 3584 1766 3584 
Q 2128 3584 2408 3439 
Q 2688 3294 2919 2988 
z
M 2181 722 
Q 2541 722 2730 984 
Q 2919 1247 2919 1747 
Q 2919 2247 2730 2509 
Q 2541 2772 2181 2772 
Q 1825 2772 1636 2509 
Q 1447 2247 1447 1747 
Q 1447 1247 1636 984 
Q 1825 722 2181 722 
z
" transform="scale(0.015625)"/>
       <path id="DejaVuSans-Bold-20" transform="scale(0.015625)"/>
       <path id="DejaVuSans-Bold-58" d="M 3188 2381 
L 4806 0 
L 3553 0 
L 2463 1594 
L 1381 0 
L 122 0 
L 1741 2381 
L 184 4666 
L 1441 4666 
L 2463 3163 
L 3481 4666 
L 4744 4666 
L 3188 2381 
z
" transform="scale(0.015625)"/>
       <path id="DejaVuSans-Bold-70" d="M 1656 506 
L 1656 -1331 
L 538 -1331 
L 538 3500 
L 1656 3500 
L 1656 2988 
Q 1888 3294 2169 3439 
Q 2450 3584 2816 3584 
Q 3463 3584 3878 3070 
Q 4294 2556 4294 1747 
Q 4294 938 3878 423 
Q 3463 -91 2816 -91 
Q 2450 -91 2169 54 
Q 1888 200 1656 506 
z
M 2400 2772 
Q 2041 2772 1848 2508 
Q 1656 2244 1656 1747 
Q 1656 1250 1848 986 
Q 2041 722 2400 722 
Q 2759 722 2948 984 
Q 3138 1247 3138 1747 
Q 3138 2247 2948 2509 
Q 2759 2772 2400 2772 
z
" transform="scale(0.015625)"/>
       <path id="DejaVuSans-Bold-74" d="M 1759 4494 
L 1759 3500 
L 2913 3500 
L 2913 2700 
L 1759 2700 
L 1759 1216 
Q 1759 972 1856 886 
Q 1953 800 2241 800 
L 2816 800 
L 2816 0 
L 1856 0 
Q 1194 0 917 276 
Q 641 553 641 1216 
L 641 2700 
L 84 2700 
L 84 3500 
L 641 3500 
L 641 4494 
L 1759 4494 
z
" transform="scale(0.015625)"/>
       <path id="DejaVuSans-Bold-6e" d="M 4056 2131 
L 4056 0 
L 2931 0 
L 2931 347 
L 2931 1631 
Q 2931 2084 2911 2256 
Q 2891 2428 2841 2509 
Q 2775 2619 2662 2680 
Q 2550 2741 2406 2741 
Q 2056 2741 1856 2470 
Q 1656 2200 1656 1722 
L 1656 0 
L 538 0 
L 538 3500 
L 1656 3500 
L 1656 2988 
Q 1909 3294 2193 3439 
Q 2478 3584 2822 3584 
Q 3428 3584 3742 3212 
Q 4056 2841 4056 2131 
z
" transform="scale(0.015625)"/>
      </defs>
      <use xlink:href="#DejaVuSans-Bold-4e"/>
      <use xlink:href="#DejaVuSans-Bold-6f" x="83.691406"/>
      <use xlink:href="#DejaVuSans-Bold-72" x="152.392578"/>
      <use xlink:href="#DejaVuSans-Bold-6d" x="201.708984"/>
      <use xlink:href="#DejaVuSans-Bold-61" x="305.908203"/>
      <use xlink:href="#DejaVuSans-Bold-6c" x="373.388672"/>
      <use xlink:href="#DejaVuSans-Bold-69" x="407.666016"/>
      <use xlink:href="#DejaVuSans-Bold-73" x="441.943359"/>
      <use xlink:href="#DejaVuSans-Bold-65" x="501.464844"/>
      <use xlink:href="#DejaVuSans-Bold-64" x="569.287109"/>
      <use xlink:href="#DejaVuSans-Bold-20" x="640.869141"/>
      <use xlink:href="#DejaVuSans-Bold-58" x="675.683594"/>
      <use xlink:href="#DejaVuSans-Bold-20" x="752.783203"/>
      <use xlink:href="#DejaVuSans-Bold-70" x="787.597656"/>
      <use xlink:href="#DejaVuSans-Bold-6f" x="859.179688"/>
      <use xlink:href="#DejaVuSans-Bold-73" x="927.880859"/>
      <use xlink:href="#DejaVuSans-Bold-69" x="987.402344"/>
      <use xlink:href="#DejaVuSans-Bold-74" x="1021.679688"/>
      <use xlink:href="#DejaVuSans-Bold-69" x="1069.482422"/>
      <use xlink:href="#DejaVuSans-Bold-6f" x="1103.759766"/>
      <use xlink:href="#DejaVuSans-Bold-6e" x="1172.460938"/>
     </g>
    </g>
   </g>
   <g id="matplotlib.axis_2">
    <g id="ytick_1">
     <g id="line2d_3">
      <defs>
       <path id="m8580847035" d="M 0 0 
L -3.5 0 
" style="stroke: #000000; stroke-width: 0.8"/>
      </defs>
      <g>
       <use xlink:href="#m8580847035" x="57.6" y="297" style="stroke: #000000; stroke-width: 0.8"/>
      </g>
     </g>
     <g id="text_4">
      <!-- 0 -->
      <g transform="translate(37.875 304.598437)scale(0.2 -0.2)">
       <use xlink:href="#DejaVuSans-30"/>
      </g>
     </g>
    </g>
    <g id="ytick_2">
     <g id="line2d_4">
      <g>
       <use xlink:href="#m8580847035" x="57.6" y="53.568" style="stroke: #000000; stroke-width: 0.8"/>
      </g>
     </g>
     <g id="text_5">
      <!-- 1 -->
      <g transform="translate(37.875 61.166438)scale(0.2 -0.2)">
       <use xlink:href="#DejaVuSans-31"/>
      </g>
     </g>
    </g>
    <g id="text_6">
     <!-- Normalised Y position -->
     <g transform="translate(29.715625 298.423313)rotate(-90)scale(0.2 -0.2)">
      <defs>
       <path id="DejaVuSans-Bold-59" d="M -63 4666 
L 1253 4666 
L 2316 3003 
L 3378 4666 
L 4697 4666 
L 2919 1966 
L 2919 0 
L 1716 0 
L 1716 1966 
L -63 4666 
z
" transform="scale(0.015625)"/>
      </defs>
      <use xlink:href="#DejaVuSans-Bold-4e"/>
      <use xlink:href="#DejaVuSans-Bold-6f" x="83.691406"/>
      <use xlink:href="#DejaVuSans-Bold-72" x="152.392578"/>
      <use xlink:href="#DejaVuSans-Bold-6d" x="201.708984"/>
      <use xlink:href="#DejaVuSans-Bold-61" x="305.908203"/>
      <use xlink:href="#DejaVuSans-Bold-6c" x="373.388672"/>
      <use xlink:href="#DejaVuSans-Bold-69" x="407.666016"/>
      <use xlink:href="#DejaVuSans-Bold-73" x="441.943359"/>
      <use xlink:href="#DejaVuSans-Bold-65" x="501.464844"/>
      <use xlink:href="#DejaVuSans-Bold-64" x="569.287109"/>
      <use xlink:href="#DejaVuSans-Bold-20" x="640.869141"/>
      <use xlink:href="#DejaVuSans-Bold-59" x="675.683594"/>
      <use xlink:href="#DejaVuSans-Bold-20" x="748.095703"/>
      <use xlink:href="#DejaVuSans-Bold-70" x="782.910156"/>
      <use xlink:href="#DejaVuSans-Bold-6f" x="854.492188"/>
      <use xlink:href="#DejaVuSans-Bold-73" x="923.193359"/>
      <use xlink:href="#DejaVuSans-Bold-69" x="982.714844"/>
      <use xlink:href="#DejaVuSans-Bold-74" x="1016.992188"/>
      <use xlink:href="#DejaVuSans-Bold-69" x="1064.794922"/>
      <use xlink:href="#DejaVuSans-Bold-6f" x="1099.072266"/>
      <use xlink:href="#DejaVuSans-Bold-6e" x="1167.773438"/>
     </g>
    </g>
   </g>
   <g id="line2d_5">
    <path d="M 258.885818 91.368 
L 259.77124 90.7632 
L 259.77124 90.4608 
L 259.77124 90.4608 
L 259.476099 90.4608 
L 259.180959 90.7632 
L 258.000397 91.368 
L 257.410116 91.9728 
L 256.524694 92.5776 
L 255.344132 92.5776 
L 255.048992 93.1824 
L 254.458711 93.7872 
L 253.278149 94.0896 
L 250.031603 93.1824 
L 252.687868 94.0896 
L 250.621884 100.7424 
L 247.670479 104.0688 
L 242.653091 105.5808 
L 240.882248 105.8832 
L 239.701686 106.7904 
L 238.225983 108.6048 
L 237.045421 109.2096 
L 235.569719 110.7216 
L 235.569719 110.7216 
L 234.684298 111.024 
L 231.142612 113.4432 
L 231.437752 114.048 
L 230.847471 114.6528 
L 229.96205 114.6528 
L 227.896066 114.9552 
L 226.125223 114.9552 
L 226.125223 114.9552 
L 226.125223 114.3504 
L 226.420364 114.3504 
L 223.468959 114.9552 
L 223.468959 114.3504 
L 222.878678 113.7456 
L 222.288397 113.4432 
L 221.698116 113.4432 
L 220.222413 113.7456 
L 218.45157 112.8384 
L 217.566149 111.9312 
L 216.090446 111.9312 
L 214.614744 111.6288 
L 213.139041 111.024 
L 211.958479 110.7216 
L 209.892496 110.4192 
L 202.218843 107.3952 
L 197.201455 104.3712 
L 191.298645 99.8352 
L 188.052099 96.5088 
L 186.871537 94.6944 
L 186.281256 94.0896 
L 185.100694 92.2752 
L 184.805554 91.368 
L 183.034711 89.856 
L 181.559008 89.2512 
L 180.968727 88.6464 
L 179.788165 88.344 
L 178.312463 86.832 
L 177.427041 85.6224 
L 176.54162 85.9248 
L 175.361058 86.5296 
L 174.475636 85.9248 
L 173.885355 86.2272 
L 172.114512 88.0416 
L 171.524231 88.344 
L 170.93395 88.9488 
L 169.458248 91.0656 
L 168.277686 92.88 
L 167.687405 93.4848 
L 167.097124 94.392 
L 165.916562 96.8112 
L 165.326281 98.3232 
L 165.326281 99.2304 
L 164.44086 103.7664 
L 164.145719 105.8832 
L 164.145719 107.6976 
L 163.850579 110.1168 
L 163.850579 112.536 
L 164.44086 117.3744 
L 162.965157 122.5152 
L 163.850579 124.632 
L 162.965157 129.168 
L 164.145719 130.9824 
L 163.555438 136.4256 
L 165.03114 137.9376 
L 165.326281 142.4736 
L 166.211702 147.0096 
L 168.277686 147.9168 
L 169.163107 152.1504 
L 171.229091 153.9648 
L 172.114512 155.1744 
L 172.409653 160.92 
L 173.590215 161.8272 
L 173.885355 166.3632 
L 175.361058 169.6896 
L 177.131901 172.1088 
L 179.197884 172.1088 
L 181.263868 174.8304 
L 182.73957 177.552 
L 183.329851 177.552 
L 185.100694 178.7616 
L 186.576397 181.1808 
L 188.34724 182.088 
L 190.413223 182.9952 
L 196.906314 183.9024 
L 197.791736 183.2976 
L 203.694545 182.6928 
L 203.989686 182.088 
L 205.760529 181.7856 
L 205.760529 181.4832 
L 206.35081 181.1808 
L 206.941091 180.2736 
L 207.826512 179.6688 
L 208.416793 179.064 
L 209.302215 178.7616 
L 209.302215 177.8544 
L 211.073058 177.8544 
L 211.663339 177.2496 
L 212.25362 177.2496 
L 212.25362 175.7376 
L 211.663339 175.4352 
L 211.073058 174.8304 
L 209.302215 175.4352 
L 208.121653 174.528 
L 207.531372 173.3184 
L 206.941091 171.8064 
L 206.35081 166.968 
L 206.055669 164.8512 
L 204.875107 160.3152 
L 204.579967 158.1984 
L 204.284826 155.1744 
L 204.875107 151.5456 
L 204.579967 149.1264 
L 206.35081 144.288 
L 206.055669 141.5664 
L 204.875107 140.9616 
L 203.104264 141.5664 
L 202.513983 142.776 
L 201.333421 146.1024 
L 201.923702 148.2192 
L 201.923702 149.1264 
L 202.809124 152.7552 
L 203.399405 153.6624 
L 203.694545 154.872 
L 204.579967 155.4768 
L 205.465388 155.7792 
L 206.64595 155.7792 
L 207.236231 155.4768 
L 208.711934 155.7792 
L 209.597355 154.2672 
L 209.597355 152.7552 
L 209.892496 150.6384 
L 209.892496 148.824 
L 210.187636 146.4048 
L 210.777917 146.1024 
L 212.54876 146.4048 
L 216.090446 145.8 
L 218.45157 144.8928 
L 220.812694 144.5904 
L 225.239802 143.0784 
L 227.010645 143.0784 
L 228.781488 142.4736 
L 230.552331 141.264 
L 232.323174 140.3568 
L 235.569719 138.24 
L 237.045421 137.0304 
L 238.521124 135.216 
L 239.406545 134.6112 
L 240.882248 133.4016 
L 242.948231 131.2848 
L 244.128793 129.7728 
L 244.719074 128.5632 
L 245.309355 126.4464 
L 245.309355 125.2368 
L 245.309355 125.2368 
L 244.128793 124.0272 
L 243.538512 123.12 
L 242.948231 121.608 
L 241.767669 121.0032 
L 239.701686 119.7936 
L 238.521124 118.584 
L 236.750281 118.2816 
L 235.274579 117.3744 
L 234.389157 117.072 
L 231.437752 116.4672 
L 230.552331 115.8624 
L 228.191207 114.9552 
L 222.583537 114.9552 
L 218.746711 116.1648 
L 216.975868 117.072 
L 215.205025 117.6768 
L 213.139041 118.8864 
L 211.368198 119.7936 
L 209.892496 121.3056 
L 208.416793 122.5152 
L 207.236231 124.9344 
L 205.760529 126.144 
L 205.465388 127.9584 
L 205.760529 129.7728 
L 207.531372 131.8896 
L 208.711934 134.3088 
L 209.892496 136.4256 
L 209.597355 138.8448 
L 209.597355 141.5664 
L 210.187636 142.776 
L 211.073058 143.6832 
L 212.25362 144.288 
L 213.729322 144.8928 
L 216.680727 145.4976 
L 217.861289 145.4976 
L 220.517554 146.4048 
L 221.107835 145.8 
L 221.698116 145.4976 
L 223.173818 143.3808 
L 224.05924 142.4736 
L 224.35438 141.5664 
L 224.944661 140.3568 
L 225.239802 139.4496 
L 226.125223 138.5424 
L 226.715504 137.3328 
L 227.600926 136.1232 
L 228.191207 136.4256 
L 228.191207 135.8208 
L 227.896066 134.9136 
L 229.666909 133.0992 
L 232.028033 131.8896 
L 235.569719 130.3776 
L 239.111405 130.0752 
L 244.128793 130.68 
L 249.441322 132.192 
L 252.392727 134.9136 
L 255.934413 136.4256 
L 255.934413 139.4496 
L 256.229554 139.4496 
L 256.819835 139.752 
L 256.819835 140.0544 
L 256.524694 140.3568 
L 256.229554 140.0544 
L 256.819835 138.8448 
L 258.295537 140.0544 
L 259.476099 140.6592 
L 260.656661 140.9616 
L 261.246942 141.8688 
L 264.493488 140.6592 
L 266.264331 140.6592 
L 266.854612 141.8688 
L 266.854612 142.776 
L 268.035174 142.776 
L 268.625455 142.4736 
L 271.57686 142.1712 
L 271.57686 140.9616 
L 273.642843 139.4496 
L 276.299107 136.728 
L 279.545653 135.5184 
L 281.021355 133.4016 
L 284.267901 131.2848 
L 286.333884 130.3776 
L 287.809587 129.4704 
L 287.809587 128.8656 
L 286.333884 127.3536 
L 288.695008 126.7488 
L 290.760992 125.5392 
L 291.056132 125.2368 
L 291.056132 124.3296 
L 291.646413 123.7248 
L 293.417256 122.8176 
L 293.712397 122.5152 
L 293.712397 121.9104 
L 295.188099 117.3744 
L 295.188099 116.7696 
L 294.892959 116.4672 
L 294.892959 115.8624 
L 294.597818 114.6528 
L 294.892959 114.048 
L 294.892959 114.048 
L 295.48324 113.4432 
L 295.77838 112.8384 
L 295.77838 112.2336 
L 296.073521 111.3264 
L 294.597818 111.3264 
L 293.712397 110.1168 
L 294.302678 109.2096 
L 294.302678 108 
L 293.712397 108.3024 
L 292.826975 108.6048 
L 293.122116 108 
L 293.122116 106.488 
L 294.007537 105.8832 
L 293.712397 104.6736 
L 293.122116 103.464 
L 293.122116 101.952 
L 292.826975 100.7424 
L 291.941554 100.7424 
L 292.236694 99.2304 
L 290.465851 98.928 
L 289.285289 98.0208 
L 289.285289 96.8112 
L 289.285289 96.8112 
L 287.219306 97.7184 
L 279.840793 92.88 
L 286.333884 98.6256 
L 281.021355 101.952 
L 278.365091 102.5568 
L 273.052562 102.5568 
L 268.035174 101.6496 
L 263.903207 99.8352 
L 261.246942 99.8352 
L 258.885818 99.5328 
L 255.344132 98.6256 
L 253.573289 98.0208 
L 252.392727 98.0208 
L 248.26076 98.928 
L 247.080198 98.928 
L 244.423934 100.1376 
L 242.653091 101.3472 
L 240.882248 103.1616 
L 238.816264 105.5808 
L 237.045421 108.3024 
L 235.274579 112.8384 
L 232.323174 116.1648 
L 228.781488 126.144 
L 224.35438 140.0544 
L 222.288397 148.824 
L 219.632132 158.1984 
L 216.385587 168.1776 
L 211.663339 177.8544 
L 207.531372 189.3456 
L 202.218843 201.1392 
L 191.003504 228.3552 
L 185.395835 243.4752 
L 180.673587 259.2 
L 177.131901 274.9248 
L 175.065917 289.7424 
L 172.999934 295.488 
L 172.409653 295.488 
L 241.177388 295.488 
L 246.489917 287.6256 
L 251.507306 278.856 
L 253.278149 274.32 
L 255.934413 268.8768 
L 258.000397 262.5264 
L 259.77124 258.2928 
L 260.06638 258.5952 
L 261.542083 254.3616 
L 262.132364 250.128 
L 262.132364 245.592 
L 261.837223 241.3584 
L 261.246942 237.4272 
L 260.361521 233.1936 
L 259.180959 229.5648 
L 257.705256 225.936 
L 254.16357 218.6784 
L 249.736463 211.7232 
L 246.785058 208.3968 
L 241.472529 204.1632 
L 239.111405 202.3488 
L 237.045421 200.232 
L 234.979438 198.4176 
L 234.094017 197.208 
L 231.142612 194.4864 
L 229.076628 193.2768 
L 227.600926 192.9744 
L 226.715504 192.9744 
L 226.420364 194.184 
L 226.420364 194.184 
L 227.010645 192.9744 
L 229.076628 191.7648 
L 229.076628 191.7648 
L 228.486347 191.7648 
L 227.600926 192.3696 
L 226.420364 192.672 
L 225.239802 193.5792 
L 223.468959 194.184 
L 223.173818 193.8816 
L 223.468959 194.184 
L 224.944661 194.184 
L 225.830083 194.4864 
L 229.371769 194.4864 
L 230.847471 195.0912 
L 231.732893 195.696 
L 233.503736 196.3008 
L 234.684298 197.208 
L 235.569719 198.4176 
L 238.816264 199.9296 
L 239.701686 200.5344 
L 244.128793 201.4416 
L 246.785058 203.5584 
L 248.555901 204.4656 
L 249.146182 205.0704 
L 249.736463 208.3968 
L 252.097587 214.1424 
L 252.392727 216.5616 
L 252.097587 218.9808 
L 252.097587 223.5168 
L 251.507306 227.1456 
L 252.392727 230.472 
L 252.687868 230.7744 
L 253.278149 230.472 
L 253.278149 229.8672 
L 253.573289 228.96 
L 252.983008 228.6576 
L 253.278149 226.8432 
L 252.983008 225.0288 
L 250.621884 223.8192 
L 248.555901 220.7952 
L 245.014215 217.7712 
L 239.701686 214.7472 
L 233.208595 212.0256 
L 225.830083 210.5136 
L 218.15643 208.3968 
L 210.187636 208.0944 
L 206.35081 207.792 
L 196.906314 207.792 
L 191.298645 208.6992 
L 183.920132 210.5136 
L 179.788165 212.0256 
L 174.475636 212.6304 
L 170.048529 213.2352 
L 168.572826 213.2352 
L 167.392264 212.328 
L 166.211702 211.1184 
L 163.850579 209.9088 
L 163.555438 207.792 
L 162.670017 207.1872 
L 162.079736 205.0704 
L 161.194314 204.1632 
L 161.194314 202.6512 
L 160.308893 200.8368 
L 160.308893 199.3248 
L 161.784595 196.9056 
L 162.079736 195.9984 
L 162.079736 195.3936 
L 161.784595 195.0912 
L 161.489455 195.0912 
L 161.489455 194.4864 
L 161.784595 194.4864 
L 161.784595 194.7888 
L 162.079736 194.4864 
L 162.374876 194.4864 
L 162.670017 194.184 
L 168.572826 194.184 
L 170.343669 194.4864 
L 173.885355 195.696 
L 175.656198 196.6032 
L 177.131901 197.5104 
L 179.197884 198.4176 
L 181.263868 199.6272 
L 183.329851 200.5344 
L 185.100694 201.4416 
L 187.461818 202.3488 
L 189.527802 202.9536 
L 191.298645 203.8608 
L 191.888926 204.768 
L 193.069488 205.6752 
L 194.54519 206.28 
L 195.725752 207.1872 
L 196.316033 207.792 
L 197.496595 209.6064 
L 198.382017 210.5136 
L 199.267438 211.7232 
L 199.857719 212.9328 
L 200.74314 213.84 
L 202.513983 216.2592 
L 203.104264 217.4688 
L 203.399405 218.9808 
L 203.989686 219.888 
L 205.170248 222.912 
L 206.64595 223.8192 
L 206.64595 223.8192 
" clip-path="url(#p96b434817c)" style="fill: none; stroke: #000000; stroke-width: 1.5; stroke-linecap: square"/>
   </g>
   <g id="line2d_6">
    <path d="M 258.885818 91.368 
" clip-path="url(#p96b434817c)" style="fill: none; stroke: #000000; stroke-width: 1.5; stroke-linecap: square"/>
    <defs>
     <path id="m10a3348bec" d="M 0 5 
C 1.326016 5 2.597899 4.473168 3.535534 3.535534 
C 4.473168 2.597899 5 1.326016 5 0 
C 5 -1.326016 4.473168 -2.597899 3.535534 -3.535534 
C 2.597899 -4.473168 1.326016 -5 0 -5 
C -1.326016 -5 -2.597899 -4.473168 -3.535534 -3.535534 
C -4.473168 -2.597899 -5 -1.326016 -5 0 
C -5 1.326016 -4.473168 2.597899 -3.535534 3.535534 
C -2.597899 4.473168 -1.326016 5 0 5 
z
" style="stroke: #000000"/>
    </defs>
    <g clip-path="url(#p96b434817c)">
     <use xlink:href="#m10a3348bec" x="258.885818" y="91.368" style="stroke: #000000"/>
    </g>
   </g>
   <g id="line2d_7">
    <path d="M 206.64595 223.8192 
" clip-path="url(#p96b434817c)" style="fill: none; stroke: #000000; stroke-width: 1.5; stroke-linecap: square"/>
    <defs>
     <path id="m2e23debfa1" d="M -5 5 
L 5 5 
L 5 -5 
L -5 -5 
z
" style="stroke: #000000; stroke-linejoin: miter"/>
    </defs>
    <g clip-path="url(#p96b434817c)">
     <use xlink:href="#m2e23debfa1" x="206.64595" y="223.8192" style="stroke: #000000; stroke-linejoin: miter"/>
    </g>
   </g>
   <g id="line2d_8">
    <path d="M 236.750281 75.0384 
L 235.569719 75.0384 
L 234.684298 75.3408 
L 232.618314 76.248 
L 232.913455 75.6432 
L 230.847471 75.0384 
L 231.732893 75.0384 
L 230.552331 75.0384 
L 227.600926 76.248 
L 227.896066 76.8528 
L 226.715504 77.76 
L 225.239802 79.8768 
L 224.35438 81.6912 
L 224.05924 83.5056 
L 223.468959 85.32 
L 223.468959 86.5296 
L 224.05924 88.9488 
L 224.05924 90.1584 
L 224.35438 91.9728 
L 223.764099 94.6944 
L 223.468959 96.2064 
L 222.583537 97.416 
L 223.468959 99.2304 
L 224.35438 100.7424 
L 224.649521 102.2544 
L 225.239802 103.7664 
L 226.125223 105.5808 
L 227.305785 107.0928 
L 230.25719 110.1168 
L 230.847471 111.6288 
L 231.732893 112.2336 
L 233.798876 114.048 
L 234.389157 115.2576 
L 235.86486 116.4672 
L 237.340562 117.9792 
L 238.225983 118.2816 
L 239.701686 121.3056 
L 242.06281 122.2128 
L 243.243372 122.5152 
L 245.014215 123.12 
L 246.194777 123.7248 
L 248.555901 125.2368 
L 250.917025 125.5392 
L 253.278149 126.144 
L 255.344132 127.3536 
L 257.114975 127.9584 
L 258.885818 128.8656 
L 261.246942 129.4704 
L 263.608066 129.7728 
L 264.788628 130.0752 
L 268.330314 130.68 
L 270.101157 130.68 
L 272.462281 131.8896 
L 274.528264 131.8896 
L 275.413686 132.192 
L 277.479669 131.8896 
L 279.250512 132.4944 
L 282.201917 131.8896 
L 287.809587 130.0752 
L 291.056132 128.5632 
L 294.597818 126.7488 
L 297.549223 124.632 
L 303.452033 119.7936 
L 306.993719 117.6768 
L 310.535405 114.9552 
L 314.667372 112.536 
L 320.865322 109.8144 
L 326.177851 107.0928 
L 332.080661 105.2784 
L 338.573752 103.1616 
L 345.361983 101.6496 
L 352.740496 100.7424 
L 360.414149 100.44 
L 369.268364 101.0448 
L 378.417719 101.952 
L 387.862215 102.5568 
L 398.192132 103.7664 
L 398.487273 104.976 
L 398.487273 105.8832 
L 398.487273 100.7424 
L 398.487273 103.1616 
L 397.896992 104.0688 
L 397.306711 104.3712 
L 394.945587 105.8832 
L 394.060165 107.0928 
L 391.10876 108.9072 
L 388.452496 109.2096 
L 386.681653 108.6048 
L 379.893421 107.0928 
L 377.827438 106.7904 
L 374.285752 107.0928 
L 371.629488 108.6048 
L 368.087802 108.9072 
L 364.841256 108.9072 
L 354.511339 107.3952 
L 350.969653 108 
L 348.018248 108.9072 
L 345.066843 110.7216 
L 341.820298 112.536 
L 338.278612 114.3504 
L 334.441785 116.7696 
L 330.309818 118.8864 
L 326.177851 122.5152 
L 322.045884 126.4464 
L 317.913917 130.9824 
L 312.896529 135.8208 
L 301.976331 145.1952 
L 295.48324 150.0336 
L 288.695008 155.4768 
L 281.021355 161.2224 
L 268.330314 171.8064 
L 253.86843 181.7856 
L 245.604496 185.7168 
L 229.96205 194.184 
L 213.434182 202.9536 
L 204.284826 206.5824 
L 188.34724 214.7472 
L 172.409653 222.3072 
L 157.947769 228.6576 
L 141.419901 235.6128 
L 126.662876 241.056 
L 114.562116 245.2896 
L 103.346777 247.7088 
L 95.673124 249.5232 
L 87.11405 251.0352 
L 80.916099 251.3376 
L 78.259835 252.8496 
L 76.784132 254.664 
L 75.013289 256.176 
L 73.832727 257.9904 
L 73.832727 259.2 
L 74.127868 259.5024 
L 74.718149 259.5024 
L 76.193851 259.8048 
L 78.259835 259.8048 
L 80.325818 260.1072 
L 84.457785 262.5264 
L 88.589752 265.5504 
L 92.426579 268.8768 
L 94.787702 270.3888 
L 97.148826 272.2032 
L 100.100231 273.4128 
L 103.051636 274.32 
L 106.593322 275.2272 
L 110.135008 275.832 
L 113.381554 276.1344 
L 117.513521 276.1344 
L 129.909421 275.2272 
L 139.058777 273.4128 
L 144.371306 271.9008 
L 149.978975 269.784 
L 161.784595 263.736 
L 174.180496 257.0832 
L 180.673587 253.152 
L 187.166678 248.9184 
L 217.861289 227.448 
L 223.764099 224.424 
L 230.847471 221.4 
L 234.389157 216.5616 
L 239.701686 212.9328 
L 246.489917 209.0016 
L 252.097587 204.768 
L 256.819835 199.0224 
L 263.017785 194.184 
L 270.396298 190.5552 
L 273.937983 184.5072 
L 279.250512 179.9712 
L 285.743603 176.3424 
L 290.170711 172.4112 
L 294.597818 169.0848 
L 297.254083 165.1536 
L 300.500628 162.432 
L 304.927736 160.3152 
L 305.222876 156.384 
L 307.28886 153.6624 
L 310.830545 152.4528 
L 310.830545 149.7312 
L 312.601388 147.6144 
L 315.847934 146.7072 
L 315.847934 144.5904 
L 317.618777 143.0784 
L 319.68476 142.4736 
L 321.160463 142.1712 
L 321.750744 140.9616 
L 323.521587 140.6592 
L 326.768132 141.5664 
L 326.177851 140.6592 
L 327.653554 141.264 
L 329.424397 142.4736 
L 330.604959 143.0784 
L 332.670942 144.5904 
L 336.802909 148.824 
L 340.934876 153.6624 
L 345.361983 158.1984 
L 348.608529 160.92 
L 355.691901 167.5728 
L 363.660694 169.3872 
L 369.858645 168.7824 
L 371.629488 168.1776 
L 376.056595 167.5728 
L 381.959405 165.1536 
L 382.254545 163.944 
L 389.042777 160.0128 
L 394.355306 153.36 
L 398.487273 148.5216 
L 398.487273 104.3712 
L 397.601851 103.464 
L 396.421289 103.464 
L 394.945587 104.0688 
L 392.879603 104.6736 
L 386.681653 108.3024 
L 382.549686 110.7216 
L 378.122579 113.4432 
L 372.81005 116.4672 
L 367.20238 119.4912 
L 361.594711 122.2128 
L 356.577322 125.2368 
L 352.150215 129.168 
L 347.427967 132.7968 
L 343.296 135.5184 
L 338.573752 138.24 
L 334.441785 140.9616 
L 330.900099 142.776 
L 327.358413 145.4976 
L 324.702149 147.0096 
L 322.931306 148.824 
L 321.750744 150.336 
L 321.455603 151.848 
L 321.750744 152.7552 
L 322.341025 153.36 
L 324.997289 153.36 
L 326.472992 152.7552 
L 328.243835 151.848 
L 331.19524 149.4288 
L 332.670942 147.6144 
L 337.39319 142.776 
L 339.459174 140.9616 
L 341.525157 138.8448 
L 343.886281 137.0304 
L 349.49395 133.0992 
L 352.445355 130.9824 
L 358.938446 126.7488 
L 365.431537 121.9104 
L 368.382942 118.8864 
L 371.039207 115.8624 
L 373.990612 112.8384 
L 382.844826 104.6736 
L 384.320529 101.3472 
L 387.567074 93.1824 
L 388.452496 91.6704 
L 388.452496 90.1584 
L 388.157355 89.5536 
L 386.976793 89.856 
L 384.615669 90.7632 
L 376.351736 93.4848 
L 369.268364 95.2992 
L 362.480132 96.2064 
L 354.511339 100.7424 
L 343.886281 102.8592 
L 334.441785 103.7664 
L 326.177851 104.3712 
L 317.323636 104.3712 
L 309.354843 104.976 
L 294.007537 104.976 
L 281.021355 105.5808 
L 275.413686 106.488 
L 269.215736 106.7904 
L 253.86843 110.7216 
L 245.899636 113.7456 
L 242.948231 114.9552 
L 240.291967 115.8624 
L 237.930843 116.1648 
L 235.86486 115.8624 
L 234.094017 115.8624 
L 232.618314 115.56 
L 230.552331 114.9552 
L 228.781488 114.6528 
L 226.715504 114.048 
L 224.649521 113.1408 
L 222.288397 112.2336 
L 220.222413 111.9312 
L 220.222413 111.3264 
L 217.566149 110.7216 
L 217.271008 110.4192 
L 216.680727 110.4192 
L 211.958479 109.512 
L 210.187636 108.6048 
L 208.711934 107.6976 
L 206.941091 106.7904 
L 202.513983 105.5808 
L 197.201455 104.976 
L 194.25005 104.6736 
L 191.003504 104.976 
L 170.93395 112.8384 
L 163.555438 116.4672 
L 161.194314 117.3744 
L 155.291504 120.7008 
L 152.93038 121.608 
L 147.322711 125.2368 
L 145.256727 126.144 
L 142.305322 127.656 
L 139.353917 129.4704 
L 133.746248 133.704 
L 129.024 137.0304 
L 125.187174 140.3568 
L 121.350347 143.0784 
L 113.676694 150.336 
L 110.430149 153.9648 
L 106.298182 159.7104 
L 104.822479 162.1296 
L 104.232198 165.456 
L 102.166215 169.992 
L 101.280793 171.504 
L 98.919669 178.7616 
L 96.558545 184.8096 
L 95.082843 188.136 
L 93.902281 191.4624 
L 91.836298 198.72 
L 90.950876 201.744 
L 90.065455 205.3728 
L 89.770314 208.3968 
L 88.884893 211.7232 
L 88.884893 215.0496 
L 88.294612 221.4 
L 87.999471 224.7264 
L 87.11405 228.3552 
L 86.523769 232.8912 
L 86.523769 240.4512 
L 87.999471 245.592 
L 88.589752 247.104 
L 89.770314 250.7328 
L 90.360595 254.0592 
L 90.360595 257.688 
L 90.655736 261.6192 
L 91.836298 264.9456 
L 93.60714 267.9696 
L 95.673124 270.3888 
L 97.148826 272.808 
L 98.624529 275.5296 
L 100.985653 277.344 
L 103.051636 279.1584 
L 105.11762 280.368 
L 107.478744 281.5776 
L 111.02043 282.7872 
L 112.496132 283.9968 
L 115.152397 284.6016 
L 118.989223 284.904 
L 123.12119 284.6016 
L 127.843438 283.9968 
L 132.860826 282.4848 
L 144.076165 278.856 
L 149.683835 276.4368 
L 155.291504 273.7152 
L 161.194314 270.9936 
L 165.621421 269.1792 
L 169.753388 267.9696 
L 173.295074 267.0624 
L 176.54162 265.8528 
L 179.493025 264.3408 
L 192.184066 250.4304 
L 195.725752 248.3136 
L 204.579967 242.2656 
L 207.826512 239.544 
L 214.909884 237.1248 
L 219.336992 230.1696 
L 225.239802 225.6336 
L 236.16 216.864 
L 241.767669 212.6304 
L 247.670479 208.3968 
L 252.097587 204.4656 
L 258.000397 197.208 
L 263.312926 193.2768 
L 266.559471 192.3696 
L 270.101157 185.7168 
L 278.955372 177.552 
L 281.316496 175.7376 
L 287.809587 172.4112 
L 289.58043 172.1088 
L 291.056132 172.1088 
L 293.122116 172.4112 
L 294.302678 172.7136 
L 294.302678 171.8064 
L 295.77838 171.8064 
L 298.729785 172.7136 
L 297.844364 170.8992 
L 300.205488 169.6896 
L 301.090909 168.7824 
L 303.452033 166.968 
L 304.632595 165.456 
L 306.108298 164.5488 
L 309.354843 165.1536 
L 307.87914 162.7344 
L 308.764562 161.5248 
L 310.535405 161.2224 
L 311.125686 160.6176 
L 310.535405 159.1056 
L 311.420826 158.5008 
L 313.48681 159.408 
L 310.830545 157.2912 
L 311.715967 156.9888 
L 311.420826 156.6864 
L 309.945124 155.4768 
L 309.649983 155.4768 
L 311.125686 156.6864 
L 308.174281 155.1744 
L 311.125686 155.4768 
L 313.78195 155.1744 
L 315.257653 155.4768 
L 313.48681 153.36 
L 313.78195 152.4528 
L 314.962512 152.4528 
L 315.257653 151.848 
L 314.372231 150.336 
L 315.257653 150.0336 
L 316.143074 150.0336 
L 314.667372 148.824 
L 314.962512 148.5216 
L 315.552793 148.5216 
L 314.077091 147.6144 
L 314.077091 147.9168 
L 314.372231 147.9168 
L 312.896529 147.0096 
L 312.896529 146.4048 
L 312.896529 146.4048 
L 311.125686 144.5904 
L 311.125686 143.9856 
L 311.715967 143.6832 
L 309.945124 141.5664 
L 310.535405 139.4496 
L 308.764562 137.3328 
L 308.469421 136.1232 
L 308.764562 135.216 
L 306.993719 133.0992 
L 304.337455 129.168 
L 303.747174 126.144 
L 304.337455 124.3296 
L 301.38605 119.4912 
L 300.795769 116.4672 
L 301.38605 114.9552 
L 302.271471 113.7456 
L 302.566612 112.2336 
L 304.632595 110.7216 
L 307.87914 109.8144 
L 307.584 108 
L 309.945124 105.8832 
L 314.667372 104.976 
L 314.962512 101.952 
L 318.209058 98.928 
L 323.226446 96.8112 
L 324.407008 91.9728 
L 328.538975 88.0416 
L 334.736926 84.4128 
L 335.327207 78.3648 
L 338.868893 72.9216 
L 343.59114 68.688 
L 345.066843 61.128 
L 347.132826 55.9872 
L 350.674512 53.568 
L 358.053025 53.568 
L 345.952264 53.568 
L 345.066843 53.8704 
L 344.181421 53.568 
L 343.296 53.8704 
L 344.181421 55.3824 
L 342.115438 55.3824 
L 342.115438 56.8944 
L 343.00086 59.3136 
L 341.525157 60.2208 
L 340.934876 61.7328 
L 340.639736 64.4544 
L 338.278612 65.664 
L 337.39319 68.688 
L 337.983471 72.0144 
L 335.622347 74.1312 
L 335.622347 77.1552 
L 337.09805 80.784 
L 336.802909 84.1104 
L 337.39319 87.7392 
L 339.459174 91.0656 
L 342.115438 97.7184 
L 348.903669 105.5808 
L 352.150215 109.512 
L 356.282182 112.8384 
L 356.282182 112.8384 
" clip-path="url(#p96b434817c)" style="fill: none; stroke: #ffa07a; stroke-width: 1.5; stroke-linecap: square"/>
   </g>
   <g id="line2d_9">
    <path d="M 236.750281 75.0384 
" clip-path="url(#p96b434817c)" style="fill: none; stroke: #ffa07a; stroke-width: 1.5; stroke-linecap: square"/>
    <defs>
     <path id="ma71b2d87d1" d="M 0 5 
C 1.326016 5 2.597899 4.473168 3.535534 3.535534 
C 4.473168 2.597899 5 1.326016 5 0 
C 5 -1.326016 4.473168 -2.597899 3.535534 -3.535534 
C 2.597899 -4.473168 1.326016 -5 0 -5 
C -1.326016 -5 -2.597899 -4.473168 -3.535534 -3.535534 
C -4.473168 -2.597899 -5 -1.326016 -5 0 
C -5 1.326016 -4.473168 2.597899 -3.535534 3.535534 
C -2.597899 4.473168 -1.326016 5 0 5 
z
" style="stroke: #ffa07a"/>
    </defs>
    <g clip-path="url(#p96b434817c)">
     <use xlink:href="#ma71b2d87d1" x="236.750281" y="75.0384" style="fill: #ffa07a; stroke: #ffa07a"/>
    </g>
   </g>
   <g id="line2d_10">
    <path d="M 356.282182 112.8384 
" clip-path="url(#p96b434817c)" style="fill: none; stroke: #ffa07a; stroke-width: 1.5; stroke-linecap: square"/>
    <defs>
     <path id="m9612bf83fa" d="M -5 5 
L 5 5 
L 5 -5 
L -5 -5 
z
" style="stroke: #ffa07a; stroke-linejoin: miter"/>
    </defs>
    <g clip-path="url(#p96b434817c)">
     <use xlink:href="#m9612bf83fa" x="356.282182" y="112.8384" style="fill: #ffa07a; stroke: #ffa07a; stroke-linejoin: miter"/>
    </g>
   </g>
   <g id="line2d_11">
    <path d="M 148.546202 102.86298 
" clip-path="url(#p96b434817c)" style="fill: none; stroke: #ff0000; stroke-width: 1.5; stroke-linecap: square"/>
    <defs>
     <path id="m77acf9c2e6" d="M -2.5 5 
L 0 2.5 
L 2.5 5 
L 5 2.5 
L 2.5 0 
L 5 -2.5 
L 2.5 -5 
L 0 -2.5 
L -2.5 -5 
L -5 -2.5 
L -2.5 0 
L -5 2.5 
z
" style="stroke: #ff0000; stroke-linejoin: miter"/>
    </defs>
    <g clip-path="url(#p96b434817c)">
     <use xlink:href="#m77acf9c2e6" x="148.546202" y="102.86298" style="fill: #ff0000; stroke: #ff0000; stroke-linejoin: miter"/>
    </g>
   </g>
   <g id="line2d_12">
    <path d="M 357.862525 102.86298 
" clip-path="url(#p96b434817c)" style="fill: none; stroke: #ffa07a; stroke-width: 1.5; stroke-linecap: square"/>
    <defs>
     <path id="m855e64f662" d="M -2.5 5 
L 0 2.5 
L 2.5 5 
L 5 2.5 
L 2.5 0 
L 5 -2.5 
L 2.5 -5 
L 0 -2.5 
L -2.5 -5 
L -5 -2.5 
L -2.5 0 
L -5 2.5 
z
" style="stroke: #ffa07a; stroke-linejoin: miter"/>
    </defs>
    <g clip-path="url(#p96b434817c)">
     <use xlink:href="#m855e64f662" x="357.862525" y="102.86298" style="fill: #ffa07a; stroke: #ffa07a; stroke-linejoin: miter"/>
    </g>
   </g>
   <g id="patch_3">
    <path d="M 57.6 307.584 
L 57.6 41.472 
" style="fill: none; stroke: #000000; stroke-width: 0.8; stroke-linejoin: miter; stroke-linecap: square"/>
   </g>
   <g id="patch_4">
    <path d="M 57.6 307.584 
L 414.72 307.584 
" style="fill: none; stroke: #000000; stroke-width: 0.8; stroke-linejoin: miter; stroke-linecap: square"/>
   </g>
   <g id="legend_1">
    <g id="patch_5">
     <path d="M 241.591875 141.54075 
L 404.22 141.54075 
Q 407.22 141.54075 407.22 138.54075 
L 407.22 51.972 
Q 407.22 48.972 404.22 48.972 
L 241.591875 48.972 
Q 238.591875 48.972 238.591875 51.972 
L 238.591875 138.54075 
Q 238.591875 141.54075 241.591875 141.54075 
z
" style="fill: #ffffff; opacity: 0.8; stroke: #cccccc; stroke-linejoin: miter"/>
    </g>
    <g id="line2d_13">
     <path d="M 244.591875 61.119656 
L 259.591875 61.119656 
L 274.591875 61.119656 
" style="fill: none; stroke: #000000; stroke-width: 1.5; stroke-linecap: square"/>
    </g>
    <g id="text_7">
     <!-- Trajectory -->
     <g transform="translate(286.591875 66.369656)scale(0.15 -0.15)">
      <defs>
       <path id="DejaVuSans-54" d="M -19 4666 
L 3928 4666 
L 3928 4134 
L 2272 4134 
L 2272 0 
L 1638 0 
L 1638 4134 
L -19 4134 
L -19 4666 
z
" transform="scale(0.015625)"/>
       <path id="DejaVuSans-72" d="M 2631 2963 
Q 2534 3019 2420 3045 
Q 2306 3072 2169 3072 
Q 1681 3072 1420 2755 
Q 1159 2438 1159 1844 
L 1159 0 
L 581 0 
L 581 3500 
L 1159 3500 
L 1159 2956 
Q 1341 3275 1631 3429 
Q 1922 3584 2338 3584 
Q 2397 3584 2469 3576 
Q 2541 3569 2628 3553 
L 2631 2963 
z
" transform="scale(0.015625)"/>
       <path id="DejaVuSans-61" d="M 2194 1759 
Q 1497 1759 1228 1600 
Q 959 1441 959 1056 
Q 959 750 1161 570 
Q 1363 391 1709 391 
Q 2188 391 2477 730 
Q 2766 1069 2766 1631 
L 2766 1759 
L 2194 1759 
z
M 3341 1997 
L 3341 0 
L 2766 0 
L 2766 531 
Q 2569 213 2275 61 
Q 1981 -91 1556 -91 
Q 1019 -91 701 211 
Q 384 513 384 1019 
Q 384 1609 779 1909 
Q 1175 2209 1959 2209 
L 2766 2209 
L 2766 2266 
Q 2766 2663 2505 2880 
Q 2244 3097 1772 3097 
Q 1472 3097 1187 3025 
Q 903 2953 641 2809 
L 641 3341 
Q 956 3463 1253 3523 
Q 1550 3584 1831 3584 
Q 2591 3584 2966 3190 
Q 3341 2797 3341 1997 
z
" transform="scale(0.015625)"/>
       <path id="DejaVuSans-6a" d="M 603 3500 
L 1178 3500 
L 1178 -63 
Q 1178 -731 923 -1031 
Q 669 -1331 103 -1331 
L -116 -1331 
L -116 -844 
L 38 -844 
Q 366 -844 484 -692 
Q 603 -541 603 -63 
L 603 3500 
z
M 603 4863 
L 1178 4863 
L 1178 4134 
L 603 4134 
L 603 4863 
z
" transform="scale(0.015625)"/>
       <path id="DejaVuSans-65" d="M 3597 1894 
L 3597 1613 
L 953 1613 
Q 991 1019 1311 708 
Q 1631 397 2203 397 
Q 2534 397 2845 478 
Q 3156 559 3463 722 
L 3463 178 
Q 3153 47 2828 -22 
Q 2503 -91 2169 -91 
Q 1331 -91 842 396 
Q 353 884 353 1716 
Q 353 2575 817 3079 
Q 1281 3584 2069 3584 
Q 2775 3584 3186 3129 
Q 3597 2675 3597 1894 
z
M 3022 2063 
Q 3016 2534 2758 2815 
Q 2500 3097 2075 3097 
Q 1594 3097 1305 2825 
Q 1016 2553 972 2059 
L 3022 2063 
z
" transform="scale(0.015625)"/>
       <path id="DejaVuSans-63" d="M 3122 3366 
L 3122 2828 
Q 2878 2963 2633 3030 
Q 2388 3097 2138 3097 
Q 1578 3097 1268 2742 
Q 959 2388 959 1747 
Q 959 1106 1268 751 
Q 1578 397 2138 397 
Q 2388 397 2633 464 
Q 2878 531 3122 666 
L 3122 134 
Q 2881 22 2623 -34 
Q 2366 -91 2075 -91 
Q 1284 -91 818 406 
Q 353 903 353 1747 
Q 353 2603 823 3093 
Q 1294 3584 2113 3584 
Q 2378 3584 2631 3529 
Q 2884 3475 3122 3366 
z
" transform="scale(0.015625)"/>
       <path id="DejaVuSans-74" d="M 1172 4494 
L 1172 3500 
L 2356 3500 
L 2356 3053 
L 1172 3053 
L 1172 1153 
Q 1172 725 1289 603 
Q 1406 481 1766 481 
L 2356 481 
L 2356 0 
L 1766 0 
Q 1100 0 847 248 
Q 594 497 594 1153 
L 594 3053 
L 172 3053 
L 172 3500 
L 594 3500 
L 594 4494 
L 1172 4494 
z
" transform="scale(0.015625)"/>
       <path id="DejaVuSans-6f" d="M 1959 3097 
Q 1497 3097 1228 2736 
Q 959 2375 959 1747 
Q 959 1119 1226 758 
Q 1494 397 1959 397 
Q 2419 397 2687 759 
Q 2956 1122 2956 1747 
Q 2956 2369 2687 2733 
Q 2419 3097 1959 3097 
z
M 1959 3584 
Q 2709 3584 3137 3096 
Q 3566 2609 3566 1747 
Q 3566 888 3137 398 
Q 2709 -91 1959 -91 
Q 1206 -91 779 398 
Q 353 888 353 1747 
Q 353 2609 779 3096 
Q 1206 3584 1959 3584 
z
" transform="scale(0.015625)"/>
       <path id="DejaVuSans-79" d="M 2059 -325 
Q 1816 -950 1584 -1140 
Q 1353 -1331 966 -1331 
L 506 -1331 
L 506 -850 
L 844 -850 
Q 1081 -850 1212 -737 
Q 1344 -625 1503 -206 
L 1606 56 
L 191 3500 
L 800 3500 
L 1894 763 
L 2988 3500 
L 3597 3500 
L 2059 -325 
z
" transform="scale(0.015625)"/>
      </defs>
      <use xlink:href="#DejaVuSans-54"/>
      <use xlink:href="#DejaVuSans-72" x="46.333984"/>
      <use xlink:href="#DejaVuSans-61" x="87.447266"/>
      <use xlink:href="#DejaVuSans-6a" x="148.726562"/>
      <use xlink:href="#DejaVuSans-65" x="176.509766"/>
      <use xlink:href="#DejaVuSans-63" x="238.033203"/>
      <use xlink:href="#DejaVuSans-74" x="293.013672"/>
      <use xlink:href="#DejaVuSans-6f" x="332.222656"/>
      <use xlink:href="#DejaVuSans-72" x="393.404297"/>
      <use xlink:href="#DejaVuSans-79" x="434.517578"/>
     </g>
    </g>
    <g id="line2d_14">
     <path d="M 244.591875 83.136844 
L 259.591875 83.136844 
L 274.591875 83.136844 
" style="fill: none; stroke: #000000; stroke-width: 1.5; stroke-linecap: square"/>
     <g>
      <use xlink:href="#m10a3348bec" x="259.591875" y="83.136844" style="stroke: #000000"/>
     </g>
    </g>
    <g id="text_8">
     <!-- Start -->
     <g transform="translate(286.591875 88.386844)scale(0.15 -0.15)">
      <defs>
       <path id="DejaVuSans-53" d="M 3425 4513 
L 3425 3897 
Q 3066 4069 2747 4153 
Q 2428 4238 2131 4238 
Q 1616 4238 1336 4038 
Q 1056 3838 1056 3469 
Q 1056 3159 1242 3001 
Q 1428 2844 1947 2747 
L 2328 2669 
Q 3034 2534 3370 2195 
Q 3706 1856 3706 1288 
Q 3706 609 3251 259 
Q 2797 -91 1919 -91 
Q 1588 -91 1214 -16 
Q 841 59 441 206 
L 441 856 
Q 825 641 1194 531 
Q 1563 422 1919 422 
Q 2459 422 2753 634 
Q 3047 847 3047 1241 
Q 3047 1584 2836 1778 
Q 2625 1972 2144 2069 
L 1759 2144 
Q 1053 2284 737 2584 
Q 422 2884 422 3419 
Q 422 4038 858 4394 
Q 1294 4750 2059 4750 
Q 2388 4750 2728 4690 
Q 3069 4631 3425 4513 
z
" transform="scale(0.015625)"/>
      </defs>
      <use xlink:href="#DejaVuSans-53"/>
      <use xlink:href="#DejaVuSans-74" x="63.476562"/>
      <use xlink:href="#DejaVuSans-61" x="102.685547"/>
      <use xlink:href="#DejaVuSans-72" x="163.964844"/>
      <use xlink:href="#DejaVuSans-74" x="205.078125"/>
     </g>
    </g>
    <g id="line2d_15">
     <path d="M 244.591875 105.154031 
L 259.591875 105.154031 
L 274.591875 105.154031 
" style="fill: none; stroke: #000000; stroke-width: 1.5; stroke-linecap: square"/>
     <g>
      <use xlink:href="#m2e23debfa1" x="259.591875" y="105.154031" style="stroke: #000000; stroke-linejoin: miter"/>
     </g>
    </g>
    <g id="text_9">
     <!-- End -->
     <g transform="translate(286.591875 110.404031)scale(0.15 -0.15)">
      <defs>
       <path id="DejaVuSans-45" d="M 628 4666 
L 3578 4666 
L 3578 4134 
L 1259 4134 
L 1259 2753 
L 3481 2753 
L 3481 2222 
L 1259 2222 
L 1259 531 
L 3634 531 
L 3634 0 
L 628 0 
L 628 4666 
z
" transform="scale(0.015625)"/>
       <path id="DejaVuSans-6e" d="M 3513 2113 
L 3513 0 
L 2938 0 
L 2938 2094 
Q 2938 2591 2744 2837 
Q 2550 3084 2163 3084 
Q 1697 3084 1428 2787 
Q 1159 2491 1159 1978 
L 1159 0 
L 581 0 
L 581 3500 
L 1159 3500 
L 1159 2956 
Q 1366 3272 1645 3428 
Q 1925 3584 2291 3584 
Q 2894 3584 3203 3211 
Q 3513 2838 3513 2113 
z
" transform="scale(0.015625)"/>
       <path id="DejaVuSans-64" d="M 2906 2969 
L 2906 4863 
L 3481 4863 
L 3481 0 
L 2906 0 
L 2906 525 
Q 2725 213 2448 61 
Q 2172 -91 1784 -91 
Q 1150 -91 751 415 
Q 353 922 353 1747 
Q 353 2572 751 3078 
Q 1150 3584 1784 3584 
Q 2172 3584 2448 3432 
Q 2725 3281 2906 2969 
z
M 947 1747 
Q 947 1113 1208 752 
Q 1469 391 1925 391 
Q 2381 391 2643 752 
Q 2906 1113 2906 1747 
Q 2906 2381 2643 2742 
Q 2381 3103 1925 3103 
Q 1469 3103 1208 2742 
Q 947 2381 947 1747 
z
" transform="scale(0.015625)"/>
      </defs>
      <use xlink:href="#DejaVuSans-45"/>
      <use xlink:href="#DejaVuSans-6e" x="63.183594"/>
      <use xlink:href="#DejaVuSans-64" x="126.5625"/>
     </g>
    </g>
    <g id="line2d_16">
     <path d="M 244.591875 127.171219 
L 259.591875 127.171219 
L 274.591875 127.171219 
" style="fill: none; stroke: #ff0000; stroke-width: 1.5; stroke-linecap: square"/>
     <g>
      <use xlink:href="#m77acf9c2e6" x="259.591875" y="127.171219" style="fill: #ff0000; stroke: #ff0000; stroke-linejoin: miter"/>
     </g>
    </g>
    <g id="text_10">
     <!-- Target Location -->
     <g transform="translate(286.591875 132.421219)scale(0.15 -0.15)">
      <defs>
       <path id="DejaVuSans-67" d="M 2906 1791 
Q 2906 2416 2648 2759 
Q 2391 3103 1925 3103 
Q 1463 3103 1205 2759 
Q 947 2416 947 1791 
Q 947 1169 1205 825 
Q 1463 481 1925 481 
Q 2391 481 2648 825 
Q 2906 1169 2906 1791 
z
M 3481 434 
Q 3481 -459 3084 -895 
Q 2688 -1331 1869 -1331 
Q 1566 -1331 1297 -1286 
Q 1028 -1241 775 -1147 
L 775 -588 
Q 1028 -725 1275 -790 
Q 1522 -856 1778 -856 
Q 2344 -856 2625 -561 
Q 2906 -266 2906 331 
L 2906 616 
Q 2728 306 2450 153 
Q 2172 0 1784 0 
Q 1141 0 747 490 
Q 353 981 353 1791 
Q 353 2603 747 3093 
Q 1141 3584 1784 3584 
Q 2172 3584 2450 3431 
Q 2728 3278 2906 2969 
L 2906 3500 
L 3481 3500 
L 3481 434 
z
" transform="scale(0.015625)"/>
       <path id="DejaVuSans-20" transform="scale(0.015625)"/>
       <path id="DejaVuSans-4c" d="M 628 4666 
L 1259 4666 
L 1259 531 
L 3531 531 
L 3531 0 
L 628 0 
L 628 4666 
z
" transform="scale(0.015625)"/>
       <path id="DejaVuSans-69" d="M 603 3500 
L 1178 3500 
L 1178 0 
L 603 0 
L 603 3500 
z
M 603 4863 
L 1178 4863 
L 1178 4134 
L 603 4134 
L 603 4863 
z
" transform="scale(0.015625)"/>
      </defs>
      <use xlink:href="#DejaVuSans-54"/>
      <use xlink:href="#DejaVuSans-61" x="44.583984"/>
      <use xlink:href="#DejaVuSans-72" x="105.863281"/>
      <use xlink:href="#DejaVuSans-67" x="145.226562"/>
      <use xlink:href="#DejaVuSans-65" x="208.703125"/>
      <use xlink:href="#DejaVuSans-74" x="270.226562"/>
      <use xlink:href="#DejaVuSans-20" x="309.435547"/>
      <use xlink:href="#DejaVuSans-4c" x="341.222656"/>
      <use xlink:href="#DejaVuSans-6f" x="395.185547"/>
      <use xlink:href="#DejaVuSans-63" x="456.367188"/>
      <use xlink:href="#DejaVuSans-61" x="511.347656"/>
      <use xlink:href="#DejaVuSans-74" x="572.626953"/>
      <use xlink:href="#DejaVuSans-69" x="611.835938"/>
      <use xlink:href="#DejaVuSans-6f" x="639.619141"/>
      <use xlink:href="#DejaVuSans-6e" x="700.800781"/>
     </g>
    </g>
   </g>
  </g>
 </g>
 <defs>
  <clipPath id="p96b434817c">
   <rect x="57.6" y="41.472" width="357.12" height="266.112"/>
  </clipPath>
 </defs>
</svg>
