<?xml version="1.0" encoding="utf-8" standalone="no"?>
<!DOCTYPE svg PUBLIC "-//W3C//DTD SVG 1.1//EN"
  "http://www.w3.org/Graphics/SVG/1.1/DTD/svg11.dtd">
<svg xmlns:xlink="http://www.w3.org/1999/xlink" width="460.8pt" height="345.6pt" viewBox="0 0 460.8 345.6" xmlns="http://www.w3.org/2000/svg" version="1.1">
 <metadata>
  <rdf:RDF xmlns:dc="http://purl.org/dc/elements/1.1/" xmlns:cc="http://creativecommons.org/ns#" xmlns:rdf="http://www.w3.org/1999/02/22-rdf-syntax-ns#">
   <cc:Work>
    <dc:type rdf:resource="http://purl.org/dc/dcmitype/StillImage"/>
    <dc:date>2024-02-14T14:13:07.969022</dc:date>
    <dc:format>image/svg+xml</dc:format>
    <dc:creator>
     <cc:Agent>
      <dc:title>Matplotlib v3.5.0, https://matplotlib.org/</dc:title>
     </cc:Agent>
    </dc:creator>
   </cc:Work>
  </rdf:RDF>
 </metadata>
 <defs>
  <style type="text/css">*{stroke-linejoin: round; stroke-linecap: butt}</style>
 </defs>
 <g id="figure_1">
  <g id="patch_1">
   <path d="M 0 345.6 
L 460.8 345.6 
L 460.8 0 
L 0 0 
z
" style="fill: #ffffff"/>
  </g>
  <g id="axes_1">
   <g id="patch_2">
    <path d="M 57.6 307.584 
L 414.72 307.584 
L 414.72 41.472 
L 57.6 41.472 
z
" style="fill: #ffffff"/>
   </g>
   <g id="matplotlib.axis_1">
    <g id="xtick_1">
     <g id="line2d_1">
      <defs>
       <path id="m8651140d17" d="M 0 0 
L 0 3.5 
" style="stroke: #000000; stroke-width: 0.8"/>
      </defs>
      <g>
       <use xlink:href="#m8651140d17" x="57.6" y="307.584" style="stroke: #000000; stroke-width: 0.8"/>
      </g>
     </g>
     <g id="text_1">
      <!-- 0 -->
      <g transform="translate(51.2375 329.780875)scale(0.2 -0.2)">
       <defs>
        <path id="DejaVuSans-30" d="M 2034 4250 
Q 1547 4250 1301 3770 
Q 1056 3291 1056 2328 
Q 1056 1369 1301 889 
Q 1547 409 2034 409 
Q 2525 409 2770 889 
Q 3016 1369 3016 2328 
Q 3016 3291 2770 3770 
Q 2525 4250 2034 4250 
z
M 2034 4750 
Q 2819 4750 3233 4129 
Q 3647 3509 3647 2328 
Q 3647 1150 3233 529 
Q 2819 -91 2034 -91 
Q 1250 -91 836 529 
Q 422 1150 422 2328 
Q 422 3509 836 4129 
Q 1250 4750 2034 4750 
z
" transform="scale(0.015625)"/>
       </defs>
       <use xlink:href="#DejaVuSans-30"/>
      </g>
     </g>
    </g>
    <g id="xtick_2">
     <g id="line2d_2">
      <g>
       <use xlink:href="#m8651140d17" x="402.47009" y="307.584" style="stroke: #000000; stroke-width: 0.8"/>
      </g>
     </g>
     <g id="text_2">
      <!-- 1 -->
      <g transform="translate(396.10759 329.780875)scale(0.2 -0.2)">
       <defs>
        <path id="DejaVuSans-31" d="M 794 531 
L 1825 531 
L 1825 4091 
L 703 3866 
L 703 4441 
L 1819 4666 
L 2450 4666 
L 2450 531 
L 3481 531 
L 3481 0 
L 794 0 
L 794 531 
z
" transform="scale(0.015625)"/>
       </defs>
       <use xlink:href="#DejaVuSans-31"/>
      </g>
     </g>
    </g>
    <g id="text_3">
     <!-- Normalised X position -->
     <g transform="translate(111.795937 353.137125)scale(0.2 -0.2)">
      <defs>
       <path id="DejaVuSans-Bold-4e" d="M 588 4666 
L 1931 4666 
L 3628 1466 
L 3628 4666 
L 4769 4666 
L 4769 0 
L 3425 0 
L 1728 3200 
L 1728 0 
L 588 0 
L 588 4666 
z
" transform="scale(0.015625)"/>
       <path id="DejaVuSans-Bold-6f" d="M 2203 2784 
Q 1831 2784 1636 2517 
Q 1441 2250 1441 1747 
Q 1441 1244 1636 976 
Q 1831 709 2203 709 
Q 2569 709 2762 976 
Q 2956 1244 2956 1747 
Q 2956 2250 2762 2517 
Q 2569 2784 2203 2784 
z
M 2203 3584 
Q 3106 3584 3614 3096 
Q 4122 2609 4122 1747 
Q 4122 884 3614 396 
Q 3106 -91 2203 -91 
Q 1297 -91 786 396 
Q 275 884 275 1747 
Q 275 2609 786 3096 
Q 1297 3584 2203 3584 
z
" transform="scale(0.015625)"/>
       <path id="DejaVuSans-Bold-72" d="M 3138 2547 
Q 2991 2616 2845 2648 
Q 2700 2681 2553 2681 
Q 2122 2681 1889 2404 
Q 1656 2128 1656 1613 
L 1656 0 
L 538 0 
L 538 3500 
L 1656 3500 
L 1656 2925 
Q 1872 3269 2151 3426 
Q 2431 3584 2822 3584 
Q 2878 3584 2943 3579 
Q 3009 3575 3134 3559 
L 3138 2547 
z
" transform="scale(0.015625)"/>
       <path id="DejaVuSans-Bold-6d" d="M 3781 2919 
Q 3994 3244 4286 3414 
Q 4578 3584 4928 3584 
Q 5531 3584 5847 3212 
Q 6163 2841 6163 2131 
L 6163 0 
L 5038 0 
L 5038 1825 
Q 5041 1866 5042 1909 
Q 5044 1953 5044 2034 
Q 5044 2406 4934 2573 
Q 4825 2741 4581 2741 
Q 4263 2741 4089 2478 
Q 3916 2216 3909 1719 
L 3909 0 
L 2784 0 
L 2784 1825 
Q 2784 2406 2684 2573 
Q 2584 2741 2328 2741 
Q 2006 2741 1831 2477 
Q 1656 2213 1656 1722 
L 1656 0 
L 531 0 
L 531 3500 
L 1656 3500 
L 1656 2988 
Q 1863 3284 2130 3434 
Q 2397 3584 2719 3584 
Q 3081 3584 3359 3409 
Q 3638 3234 3781 2919 
z
" transform="scale(0.015625)"/>
       <path id="DejaVuSans-Bold-61" d="M 2106 1575 
Q 1756 1575 1579 1456 
Q 1403 1338 1403 1106 
Q 1403 894 1545 773 
Q 1688 653 1941 653 
Q 2256 653 2472 879 
Q 2688 1106 2688 1447 
L 2688 1575 
L 2106 1575 
z
M 3816 1997 
L 3816 0 
L 2688 0 
L 2688 519 
Q 2463 200 2181 54 
Q 1900 -91 1497 -91 
Q 953 -91 614 226 
Q 275 544 275 1050 
Q 275 1666 698 1953 
Q 1122 2241 2028 2241 
L 2688 2241 
L 2688 2328 
Q 2688 2594 2478 2717 
Q 2269 2841 1825 2841 
Q 1466 2841 1156 2769 
Q 847 2697 581 2553 
L 581 3406 
Q 941 3494 1303 3539 
Q 1666 3584 2028 3584 
Q 2975 3584 3395 3211 
Q 3816 2838 3816 1997 
z
" transform="scale(0.015625)"/>
       <path id="DejaVuSans-Bold-6c" d="M 538 4863 
L 1656 4863 
L 1656 0 
L 538 0 
L 538 4863 
z
" transform="scale(0.015625)"/>
       <path id="DejaVuSans-Bold-69" d="M 538 3500 
L 1656 3500 
L 1656 0 
L 538 0 
L 538 3500 
z
M 538 4863 
L 1656 4863 
L 1656 3950 
L 538 3950 
L 538 4863 
z
" transform="scale(0.015625)"/>
       <path id="DejaVuSans-Bold-73" d="M 3272 3391 
L 3272 2541 
Q 2913 2691 2578 2766 
Q 2244 2841 1947 2841 
Q 1628 2841 1473 2761 
Q 1319 2681 1319 2516 
Q 1319 2381 1436 2309 
Q 1553 2238 1856 2203 
L 2053 2175 
Q 2913 2066 3209 1816 
Q 3506 1566 3506 1031 
Q 3506 472 3093 190 
Q 2681 -91 1863 -91 
Q 1516 -91 1145 -36 
Q 775 19 384 128 
L 384 978 
Q 719 816 1070 734 
Q 1422 653 1784 653 
Q 2113 653 2278 743 
Q 2444 834 2444 1013 
Q 2444 1163 2330 1236 
Q 2216 1309 1875 1350 
L 1678 1375 
Q 931 1469 631 1722 
Q 331 1975 331 2491 
Q 331 3047 712 3315 
Q 1094 3584 1881 3584 
Q 2191 3584 2531 3537 
Q 2872 3491 3272 3391 
z
" transform="scale(0.015625)"/>
       <path id="DejaVuSans-Bold-65" d="M 4031 1759 
L 4031 1441 
L 1416 1441 
Q 1456 1047 1700 850 
Q 1944 653 2381 653 
Q 2734 653 3104 758 
Q 3475 863 3866 1075 
L 3866 213 
Q 3469 63 3072 -14 
Q 2675 -91 2278 -91 
Q 1328 -91 801 392 
Q 275 875 275 1747 
Q 275 2603 792 3093 
Q 1309 3584 2216 3584 
Q 3041 3584 3536 3087 
Q 4031 2591 4031 1759 
z
M 2881 2131 
Q 2881 2450 2695 2645 
Q 2509 2841 2209 2841 
Q 1884 2841 1681 2658 
Q 1478 2475 1428 2131 
L 2881 2131 
z
" transform="scale(0.015625)"/>
       <path id="DejaVuSans-Bold-64" d="M 2919 2988 
L 2919 4863 
L 4044 4863 
L 4044 0 
L 2919 0 
L 2919 506 
Q 2688 197 2409 53 
Q 2131 -91 1766 -91 
Q 1119 -91 703 423 
Q 288 938 288 1747 
Q 288 2556 703 3070 
Q 1119 3584 1766 3584 
Q 2128 3584 2408 3439 
Q 2688 3294 2919 2988 
z
M 2181 722 
Q 2541 722 2730 984 
Q 2919 1247 2919 1747 
Q 2919 2247 2730 2509 
Q 2541 2772 2181 2772 
Q 1825 2772 1636 2509 
Q 1447 2247 1447 1747 
Q 1447 1247 1636 984 
Q 1825 722 2181 722 
z
" transform="scale(0.015625)"/>
       <path id="DejaVuSans-Bold-20" transform="scale(0.015625)"/>
       <path id="DejaVuSans-Bold-58" d="M 3188 2381 
L 4806 0 
L 3553 0 
L 2463 1594 
L 1381 0 
L 122 0 
L 1741 2381 
L 184 4666 
L 1441 4666 
L 2463 3163 
L 3481 4666 
L 4744 4666 
L 3188 2381 
z
" transform="scale(0.015625)"/>
       <path id="DejaVuSans-Bold-70" d="M 1656 506 
L 1656 -1331 
L 538 -1331 
L 538 3500 
L 1656 3500 
L 1656 2988 
Q 1888 3294 2169 3439 
Q 2450 3584 2816 3584 
Q 3463 3584 3878 3070 
Q 4294 2556 4294 1747 
Q 4294 938 3878 423 
Q 3463 -91 2816 -91 
Q 2450 -91 2169 54 
Q 1888 200 1656 506 
z
M 2400 2772 
Q 2041 2772 1848 2508 
Q 1656 2244 1656 1747 
Q 1656 1250 1848 986 
Q 2041 722 2400 722 
Q 2759 722 2948 984 
Q 3138 1247 3138 1747 
Q 3138 2247 2948 2509 
Q 2759 2772 2400 2772 
z
" transform="scale(0.015625)"/>
       <path id="DejaVuSans-Bold-74" d="M 1759 4494 
L 1759 3500 
L 2913 3500 
L 2913 2700 
L 1759 2700 
L 1759 1216 
Q 1759 972 1856 886 
Q 1953 800 2241 800 
L 2816 800 
L 2816 0 
L 1856 0 
Q 1194 0 917 276 
Q 641 553 641 1216 
L 641 2700 
L 84 2700 
L 84 3500 
L 641 3500 
L 641 4494 
L 1759 4494 
z
" transform="scale(0.015625)"/>
       <path id="DejaVuSans-Bold-6e" d="M 4056 2131 
L 4056 0 
L 2931 0 
L 2931 347 
L 2931 1631 
Q 2931 2084 2911 2256 
Q 2891 2428 2841 2509 
Q 2775 2619 2662 2680 
Q 2550 2741 2406 2741 
Q 2056 2741 1856 2470 
Q 1656 2200 1656 1722 
L 1656 0 
L 538 0 
L 538 3500 
L 1656 3500 
L 1656 2988 
Q 1909 3294 2193 3439 
Q 2478 3584 2822 3584 
Q 3428 3584 3742 3212 
Q 4056 2841 4056 2131 
z
" transform="scale(0.015625)"/>
      </defs>
      <use xlink:href="#DejaVuSans-Bold-4e"/>
      <use xlink:href="#DejaVuSans-Bold-6f" x="83.691406"/>
      <use xlink:href="#DejaVuSans-Bold-72" x="152.392578"/>
      <use xlink:href="#DejaVuSans-Bold-6d" x="201.708984"/>
      <use xlink:href="#DejaVuSans-Bold-61" x="305.908203"/>
      <use xlink:href="#DejaVuSans-Bold-6c" x="373.388672"/>
      <use xlink:href="#DejaVuSans-Bold-69" x="407.666016"/>
      <use xlink:href="#DejaVuSans-Bold-73" x="441.943359"/>
      <use xlink:href="#DejaVuSans-Bold-65" x="501.464844"/>
      <use xlink:href="#DejaVuSans-Bold-64" x="569.287109"/>
      <use xlink:href="#DejaVuSans-Bold-20" x="640.869141"/>
      <use xlink:href="#DejaVuSans-Bold-58" x="675.683594"/>
      <use xlink:href="#DejaVuSans-Bold-20" x="752.783203"/>
      <use xlink:href="#DejaVuSans-Bold-70" x="787.597656"/>
      <use xlink:href="#DejaVuSans-Bold-6f" x="859.179688"/>
      <use xlink:href="#DejaVuSans-Bold-73" x="927.880859"/>
      <use xlink:href="#DejaVuSans-Bold-69" x="987.402344"/>
      <use xlink:href="#DejaVuSans-Bold-74" x="1021.679688"/>
      <use xlink:href="#DejaVuSans-Bold-69" x="1069.482422"/>
      <use xlink:href="#DejaVuSans-Bold-6f" x="1103.759766"/>
      <use xlink:href="#DejaVuSans-Bold-6e" x="1172.460938"/>
     </g>
    </g>
   </g>
   <g id="matplotlib.axis_2">
    <g id="ytick_1">
     <g id="line2d_3">
      <defs>
       <path id="m7c77e41a02" d="M 0 0 
L -3.5 0 
" style="stroke: #000000; stroke-width: 0.8"/>
      </defs>
      <g>
       <use xlink:href="#m7c77e41a02" x="57.6" y="297.303086" style="stroke: #000000; stroke-width: 0.8"/>
      </g>
     </g>
     <g id="text_4">
      <!-- 0 -->
      <g transform="translate(37.875 304.901524)scale(0.2 -0.2)">
       <use xlink:href="#DejaVuSans-30"/>
      </g>
     </g>
    </g>
    <g id="ytick_2">
     <g id="line2d_4">
      <g>
       <use xlink:href="#m7c77e41a02" x="57.6" y="41.472" style="stroke: #000000; stroke-width: 0.8"/>
      </g>
     </g>
     <g id="text_5">
      <!-- 1 -->
      <g transform="translate(37.875 49.070437)scale(0.2 -0.2)">
       <use xlink:href="#DejaVuSans-31"/>
      </g>
     </g>
    </g>
    <g id="text_6">
     <!-- Normalised Y position -->
     <g transform="translate(29.715625 298.423313)rotate(-90)scale(0.2 -0.2)">
      <defs>
       <path id="DejaVuSans-Bold-59" d="M -63 4666 
L 1253 4666 
L 2316 3003 
L 3378 4666 
L 4697 4666 
L 2919 1966 
L 2919 0 
L 1716 0 
L 1716 1966 
L -63 4666 
z
" transform="scale(0.015625)"/>
      </defs>
      <use xlink:href="#DejaVuSans-Bold-4e"/>
      <use xlink:href="#DejaVuSans-Bold-6f" x="83.691406"/>
      <use xlink:href="#DejaVuSans-Bold-72" x="152.392578"/>
      <use xlink:href="#DejaVuSans-Bold-6d" x="201.708984"/>
      <use xlink:href="#DejaVuSans-Bold-61" x="305.908203"/>
      <use xlink:href="#DejaVuSans-Bold-6c" x="373.388672"/>
      <use xlink:href="#DejaVuSans-Bold-69" x="407.666016"/>
      <use xlink:href="#DejaVuSans-Bold-73" x="441.943359"/>
      <use xlink:href="#DejaVuSans-Bold-65" x="501.464844"/>
      <use xlink:href="#DejaVuSans-Bold-64" x="569.287109"/>
      <use xlink:href="#DejaVuSans-Bold-20" x="640.869141"/>
      <use xlink:href="#DejaVuSans-Bold-59" x="675.683594"/>
      <use xlink:href="#DejaVuSans-Bold-20" x="748.095703"/>
      <use xlink:href="#DejaVuSans-Bold-70" x="782.910156"/>
      <use xlink:href="#DejaVuSans-Bold-6f" x="854.492188"/>
      <use xlink:href="#DejaVuSans-Bold-73" x="923.193359"/>
      <use xlink:href="#DejaVuSans-Bold-69" x="982.714844"/>
      <use xlink:href="#DejaVuSans-Bold-74" x="1016.992188"/>
      <use xlink:href="#DejaVuSans-Bold-69" x="1064.794922"/>
      <use xlink:href="#DejaVuSans-Bold-6f" x="1099.072266"/>
      <use xlink:href="#DejaVuSans-Bold-6e" x="1167.773438"/>
     </g>
    </g>
   </g>
   <g id="line2d_5">
    <path d="M 124.70142 71.981049 
L 130.943413 72.934457 
L 136.249106 73.887864 
L 144.987896 75.79468 
L 148.420992 77.06589 
L 154.662984 78.972706 
L 164.025973 82.786337 
L 169.331667 84.693152 
L 175.57366 86.599968 
L 185.872947 92.002612 
L 195.860135 96.451848 
L 207.095722 102.172295 
L 213.337715 105.985926 
L 223.949102 111.070768 
L 230.191095 114.566596 
L 242.67508 121.876056 
L 248.604973 125.054082 
L 254.222766 128.232107 
L 260.464759 132.045739 
L 265.770452 134.588159 
L 271.700345 137.766185 
L 290.426323 149.207079 
L 296.044116 152.385104 
L 301.34981 155.880933 
L 308.528101 160.965774 
L 315.394293 166.050616 
L 321.636286 171.135457 
L 327.254079 175.902496 
L 334.432371 182.258548 
L 342.546961 190.203613 
L 358.464042 206.411545 
L 366.578632 215.310018 
L 382.183614 233.106963 
L 389.674005 242.005435 
L 396.540197 250.586105 
L 400.909591 258.53117 
L 400.909591 295.714073 
L 400.909591 295.396271 
L 399.661193 294.12506 
L 397.164396 289.675824 
L 392.170802 282.684167 
L 389.361905 278.234931 
L 386.240909 274.103497 
L 379.374717 263.933814 
L 370.635927 252.492921 
L 365.642333 245.501264 
L 355.655145 233.424765 
L 344.419559 219.759254 
L 333.808171 207.682755 
L 322.884684 195.924059 
L 317.89109 190.839218 
L 305.095005 178.76272 
L 301.66191 175.902496 
L 297.604614 172.088865 
L 293.859419 168.910839 
L 291.050522 166.050616 
L 287.617426 162.87259 
L 281.375434 157.469946 
L 279.190736 155.245328 
L 277.630238 153.974117 
L 277.006039 153.656315 
L 275.75764 152.385104 
L 274.821341 152.067302 
L 274.197142 151.113894 
L 273.260843 150.160486 
L 273.260843 150.160486 
L 272.636644 149.842684 
L 272.948744 149.842684 
L 276.38184 153.338512 
L 279.190736 156.834341 
L 280.751234 158.423354 
L 283.560131 160.965774 
L 285.744828 163.508195 
L 288.241626 166.050616 
L 291.050522 168.593037 
L 297.604614 175.266891 
L 308.840201 187.661192 
L 312.585397 191.474823 
L 316.330592 195.606257 
L 319.763688 198.784283 
L 322.572585 201.962309 
L 326.31778 205.140335 
L 329.126677 208.318361 
L 332.871872 211.496386 
L 336.304968 214.992215 
L 339.738064 218.805846 
L 343.795359 222.619477 
L 347.540555 226.433108 
L 358.464042 238.509607 
L 361.897138 242.64104 
L 365.330234 246.454672 
L 368.13913 249.9505 
L 370.948027 253.128526 
L 373.132724 255.988749 
L 376.87792 260.437986 
L 378.438418 262.344801 
L 379.374717 263.933814 
L 381.247315 266.476235 
L 382.183614 268.065248 
L 383.119913 269.018656 
L 383.432012 269.972063 
L 383.744112 270.289866 
L 384.680411 271.878879 
L 385.61671 273.785694 
L 391.858702 283.319772 
L 395.915997 290.311429 
L 400.285392 295.714073 
L 400.909591 295.714073 
L 399.036994 295.714073 
L 398.412794 295.396271 
L 397.164396 294.12506 
L 396.540197 291.900442 
L 394.355499 284.908785 
L 393.4192 280.141746 
L 389.361905 268.065248 
L 386.865108 260.755788 
L 384.056211 253.128526 
L 380.935215 245.183461 
L 377.502119 237.238396 
L 373.756924 228.975529 
L 369.699629 220.394859 
L 363.145536 210.542979 
L 353.782548 193.381639 
L 348.476854 184.800969 
L 336.929168 169.228642 
L 330.999275 162.554787 
L 325.069382 156.198736 
L 316.954791 148.253671 
L 312.897496 144.757842 
L 309.152301 141.897619 
L 305.719205 139.037396 
L 295.732017 132.681344 
L 293.547319 131.727936 
L 292.298921 131.410133 
L 289.177924 130.138923 
L 287.305327 129.185515 
L 285.744828 128.54991 
L 285.432729 128.867713 
L 286.056928 129.503318 
L 286.681127 129.503318 
L 288.553725 130.774528 
L 290.426323 131.727936 
L 293.547319 133.634752 
L 297.916714 136.494975 
L 301.974009 138.719593 
L 306.343404 141.262014 
L 321.636286 152.067302 
L 327.878278 157.787748 
L 331.623474 161.60138 
L 335.992869 167.004024 
L 336.929168 168.910839 
L 337.553367 169.864247 
L 338.801765 172.406668 
L 340.050164 173.360075 
L 340.674363 174.313483 
L 340.050164 173.360075 
L 340.050164 173.042273 
L 341.922762 173.995681 
L 341.922762 173.677878 
L 341.610662 173.042273 
L 340.050164 171.45326 
L 338.177566 169.228642 
L 335.992869 167.004024 
L 333.496072 164.1438 
L 330.687175 161.283577 
L 328.190378 158.423354 
L 327.254079 157.152143 
L 327.254079 157.152143 
L 329.750876 159.058959 
L 331.935574 161.283577 
L 333.808171 162.87259 
L 335.368669 164.461603 
L 336.304968 165.097208 
L 338.801765 167.321826 
L 342.859061 171.45326 
L 343.48326 171.771063 
L 345.043758 173.042273 
L 346.292156 174.313483 
L 348.164754 175.902496 
L 349.725252 177.809312 
L 350.661551 178.444917 
L 357.215643 185.118771 
L 358.776142 187.025587 
L 360.33664 188.6146 
L 361.585038 190.521415 
L 362.209237 192.110428 
L 362.209237 193.699441 
L 361.585038 195.606257 
L 360.02454 197.513072 
L 354.406747 198.784283 
L 351.90995 198.46648 
L 347.540555 197.513072 
L 345.043758 197.513072 
L 343.48326 196.877467 
L 339.738064 193.699441 
L 328.814577 181.940745 
L 297.916714 146.98246 
L 286.681127 132.681344 
L 277.006039 121.24045 
L 268.579349 112.341978 
L 263.585755 108.528347 
L 261.088958 106.939334 
L 258.90426 106.621531 
L 257.343762 107.257136 
L 258.90426 109.799557 
L 261.088958 112.65978 
L 263.585755 115.520004 
L 274.821341 125.689687 
L 276.38184 127.596502 
L 277.630238 128.867713 
L 277.942338 129.82112 
L 279.190736 131.092331 
L 279.814936 132.045739 
L 280.751234 132.999146 
L 282.623832 133.952554 
L 284.80853 134.270357 
L 287.617426 134.905962 
L 296.668315 137.766185 
L 304.470806 141.579816 
L 309.4644 145.075645 
L 317.266891 150.796091 
L 327.566179 158.741156 
L 345.355858 174.313483 
L 358.464042 187.025587 
L 361.897138 190.521415 
L 364.706035 193.063836 
L 366.890732 195.288454 
L 364.393935 192.746034 
L 361.585038 189.568008 
L 355.967245 183.847561 
L 343.48326 172.088865 
L 336.929168 166.050616 
L 324.133083 155.245328 
L 314.770094 147.618066 
L 311.024898 144.757842 
L 307.903902 142.851027 
L 308.216002 143.168829 
L 310.712799 145.71125 
L 312.273297 146.98246 
L 314.770094 149.524881 
L 315.706393 150.796091 
L 317.578991 152.702907 
L 318.827389 153.656315 
L 320.387887 155.245328 
L 337.241267 168.593037 
L 338.489666 169.228642 
L 343.795359 173.677878 
L 344.107459 173.677878 
L 344.107459 173.677878 
L 340.674363 170.18205 
L 338.489666 168.593037 
L 336.304968 166.368418 
L 334.432371 164.779406 
L 333.496072 163.825998 
L 332.871872 163.508195 
L 331.311374 161.919182 
L 330.375075 161.283577 
L 328.814577 160.012367 
L 328.502478 159.376761 
L 328.502478 159.694564 
L 334.74447 164.779406 
L 341.298562 170.499852 
L 343.17116 171.771063 
L 343.795359 172.406668 
L 345.667957 173.995681 
L 348.476854 176.220299 
L 351.90995 179.716127 
L 356.279345 184.800969 
L 359.088241 188.296797 
L 360.648739 190.839218 
L 361.272939 192.110428 
L 361.272939 192.428231 
L 362.833437 194.652849 
L 362.209237 193.699441 
L 360.02454 191.474823 
L 356.903544 187.661192 
L 352.222049 182.258548 
L 345.980057 175.584694 
L 332.247673 161.60138 
L 328.814577 158.423354 
L 319.139489 150.160486 
L 313.209596 145.71125 
L 310.400699 143.804434 
L 303.846607 140.308606 
L 300.413511 139.037396 
L 298.228814 139.037396 
L 296.356216 138.719593 
L 294.171518 138.083988 
L 291.362622 136.494975 
L 288.865825 134.905962 
L 284.80853 132.045739 
L 273.260843 122.193858 
L 264.834153 116.473412 
L 255.471165 110.435162 
L 250.78967 107.574939 
L 238.305685 100.901085 
L 224.573301 94.862835 
L 216.770811 91.684809 
L 211.777217 90.095797 
L 201.790028 87.871178 
L 198.356932 87.553376 
L 197.732733 88.506784 
L 198.669032 90.731402 
L 200.54163 92.95602 
L 200.85373 94.22723 
L 200.54163 94.862835 
L 199.293231 94.862835 
L 196.172235 94.22723 
L 186.185047 89.460191 
L 170.580066 79.290508 
L 163.089674 73.570062 
L 157.471881 68.48522 
L 154.038785 63.400379 
L 154.038785 59.90455 
L 157.159782 58.315537 
L 164.650173 59.586748 
L 174.637361 62.764774 
L 193.675438 69.756431 
L 202.414228 73.570062 
L 212.089316 78.337101 
L 222.076504 83.739745 
L 240.178283 94.22723 
L 248.292873 99.312072 
L 262.649456 108.846149 
L 269.203548 113.613188 
L 290.426323 129.82112 
L 294.795718 132.999146 
L 298.853013 136.177172 
L 303.846607 140.626409 
L 309.4644 145.393447 
L 323.820983 158.741156 
L 328.502478 162.87259 
L 332.247673 166.368418 
L 335.680769 170.18205 
L 340.050164 174.313483 
L 344.419559 179.398325 
L 354.406747 190.203613 
L 355.967245 192.428231 
L 357.527743 194.335047 
L 359.71244 197.19527 
L 360.960839 199.419888 
L 362.521337 201.644506 
L 363.457636 203.233519 
L 364.706035 205.77594 
L 366.578632 211.178584 
L 367.202832 212.131992 
L 366.890732 211.496386 
L 365.642333 210.225176 
L 354.718846 197.513072 
L 348.788953 191.157021 
L 340.050164 180.987338 
L 330.687175 170.499852 
L 321.012087 159.376761 
L 311.649098 148.889276 
L 303.222408 139.990803 
L 295.419917 132.363541 
L 289.177924 126.960897 
L 286.993227 124.736279 
L 285.120629 123.465069 
L 283.248031 121.876056 
L 281.375434 120.604845 
L 280.127035 119.96924 
L 280.127035 119.96924 
L 279.814936 119.96924 
L 280.127035 119.96924 
L 280.439135 120.604845 
L 281.063334 120.922648 
L 281.375434 121.24045 
L 281.687533 121.24045 
L 281.063334 120.604845 
L 281.063334 120.604845 
L 281.375434 120.604845 
L 283.248031 121.876056 
L 283.560131 122.511661 
L 284.49643 122.829463 
L 285.120629 123.465069 
L 284.49643 123.147266 
L 284.18433 122.829463 
L 284.18433 122.829463 
L 284.49643 122.829463 
L 289.490024 126.643095 
L 291.986821 128.232107 
L 294.795718 130.456726 
L 296.980415 132.363541 
L 298.853013 133.634752 
L 305.719205 139.355198 
L 308.216002 141.262014 
L 310.400699 143.168829 
L 315.706393 147.300263 
L 316.018492 147.618066 
L 320.387887 151.431697 
L 324.757282 155.245328 
L 325.381481 155.880933 
L 334.74447 164.1438 
L 340.362263 169.864247 
L 342.546961 171.771063 
L 343.48326 173.042273 
L 345.043758 174.631286 
L 345.980057 175.902496 
L 348.788953 178.76272 
L 350.661551 180.987338 
L 351.59785 181.940745 
L 351.59785 182.258548 
L 351.59785 182.258548 
L 351.28575 181.940745 
L 350.349452 181.940745 
L 350.349452 181.622943 
L 349.725252 181.622943 
L 349.101053 180.987338 
L 348.476854 180.669535 
L 348.476854 180.351732 
L 348.164754 180.351732 
L 347.228455 179.398325 
L 347.228455 179.080522 
L 347.228455 179.080522 
" clip-path="url(#pe555ddb2a2)" style="fill: none; stroke: #000000; stroke-width: 1.5; stroke-linecap: square"/>
   </g>
   <g id="line2d_6">
    <path d="M 124.70142 71.981049 
" clip-path="url(#pe555ddb2a2)" style="fill: none; stroke: #000000; stroke-width: 1.5; stroke-linecap: square"/>
    <defs>
     <path id="m279c91ef79" d="M 0 5 
C 1.326016 5 2.597899 4.473168 3.535534 3.535534 
C 4.473168 2.597899 5 1.326016 5 0 
C 5 -1.326016 4.473168 -2.597899 3.535534 -3.535534 
C 2.597899 -4.473168 1.326016 -5 0 -5 
C -1.326016 -5 -2.597899 -4.473168 -3.535534 -3.535534 
C -4.473168 -2.597899 -5 -1.326016 -5 0 
C -5 1.326016 -4.473168 2.597899 -3.535534 3.535534 
C -2.597899 4.473168 -1.326016 5 0 5 
z
" style="stroke: #000000"/>
    </defs>
    <g clip-path="url(#pe555ddb2a2)">
     <use xlink:href="#m279c91ef79" x="124.70142" y="71.981049" style="stroke: #000000"/>
    </g>
   </g>
   <g id="line2d_7">
    <path d="M 347.228455 179.080522 
" clip-path="url(#pe555ddb2a2)" style="fill: none; stroke: #000000; stroke-width: 1.5; stroke-linecap: square"/>
    <defs>
     <path id="m47cf8a1dfd" d="M -5 5 
L 5 5 
L 5 -5 
L -5 -5 
z
" style="stroke: #000000; stroke-linejoin: miter"/>
    </defs>
    <g clip-path="url(#pe555ddb2a2)">
     <use xlink:href="#m47cf8a1dfd" x="347.228455" y="179.080522" style="stroke: #000000; stroke-linejoin: miter"/>
    </g>
   </g>
   <g id="line2d_8">
    <path d="M 344.155693 196.889385 
" clip-path="url(#pe555ddb2a2)" style="fill: none; stroke: #ff0000; stroke-width: 1.5; stroke-linecap: square"/>
    <defs>
     <path id="mfa08d0ef96" d="M -2.5 5 
L 0 2.5 
L 2.5 5 
L 5 2.5 
L 2.5 0 
L 5 -2.5 
L 2.5 -5 
L 0 -2.5 
L -2.5 -5 
L -5 -2.5 
L -2.5 0 
L -5 2.5 
z
" style="stroke: #ff0000; stroke-linejoin: miter"/>
    </defs>
    <g clip-path="url(#pe555ddb2a2)">
     <use xlink:href="#mfa08d0ef96" x="344.155693" y="196.889385" style="fill: #ff0000; stroke: #ff0000; stroke-linejoin: miter"/>
    </g>
   </g>
   <g id="patch_3">
    <path d="M 57.6 307.584 
L 57.6 41.472 
" style="fill: none; stroke: #000000; stroke-width: 0.8; stroke-linejoin: miter; stroke-linecap: square"/>
   </g>
   <g id="patch_4">
    <path d="M 57.6 307.584 
L 414.72 307.584 
" style="fill: none; stroke: #000000; stroke-width: 0.8; stroke-linejoin: miter; stroke-linecap: square"/>
   </g>
   <g id="legend_1">
    <g id="patch_5">
     <path d="M 241.591875 141.54075 
L 404.22 141.54075 
Q 407.22 141.54075 407.22 138.54075 
L 407.22 51.972 
Q 407.22 48.972 404.22 48.972 
L 241.591875 48.972 
Q 238.591875 48.972 238.591875 51.972 
L 238.591875 138.54075 
Q 238.591875 141.54075 241.591875 141.54075 
z
" style="fill: #ffffff; opacity: 0.8; stroke: #cccccc; stroke-linejoin: miter"/>
    </g>
    <g id="line2d_9">
     <path d="M 244.591875 61.119656 
L 259.591875 61.119656 
L 274.591875 61.119656 
" style="fill: none; stroke: #000000; stroke-width: 1.5; stroke-linecap: square"/>
    </g>
    <g id="text_7">
     <!-- Trajectory -->
     <g transform="translate(286.591875 66.369656)scale(0.15 -0.15)">
      <defs>
       <path id="DejaVuSans-54" d="M -19 4666 
L 3928 4666 
L 3928 4134 
L 2272 4134 
L 2272 0 
L 1638 0 
L 1638 4134 
L -19 4134 
L -19 4666 
z
" transform="scale(0.015625)"/>
       <path id="DejaVuSans-72" d="M 2631 2963 
Q 2534 3019 2420 3045 
Q 2306 3072 2169 3072 
Q 1681 3072 1420 2755 
Q 1159 2438 1159 1844 
L 1159 0 
L 581 0 
L 581 3500 
L 1159 3500 
L 1159 2956 
Q 1341 3275 1631 3429 
Q 1922 3584 2338 3584 
Q 2397 3584 2469 3576 
Q 2541 3569 2628 3553 
L 2631 2963 
z
" transform="scale(0.015625)"/>
       <path id="DejaVuSans-61" d="M 2194 1759 
Q 1497 1759 1228 1600 
Q 959 1441 959 1056 
Q 959 750 1161 570 
Q 1363 391 1709 391 
Q 2188 391 2477 730 
Q 2766 1069 2766 1631 
L 2766 1759 
L 2194 1759 
z
M 3341 1997 
L 3341 0 
L 2766 0 
L 2766 531 
Q 2569 213 2275 61 
Q 1981 -91 1556 -91 
Q 1019 -91 701 211 
Q 384 513 384 1019 
Q 384 1609 779 1909 
Q 1175 2209 1959 2209 
L 2766 2209 
L 2766 2266 
Q 2766 2663 2505 2880 
Q 2244 3097 1772 3097 
Q 1472 3097 1187 3025 
Q 903 2953 641 2809 
L 641 3341 
Q 956 3463 1253 3523 
Q 1550 3584 1831 3584 
Q 2591 3584 2966 3190 
Q 3341 2797 3341 1997 
z
" transform="scale(0.015625)"/>
       <path id="DejaVuSans-6a" d="M 603 3500 
L 1178 3500 
L 1178 -63 
Q 1178 -731 923 -1031 
Q 669 -1331 103 -1331 
L -116 -1331 
L -116 -844 
L 38 -844 
Q 366 -844 484 -692 
Q 603 -541 603 -63 
L 603 3500 
z
M 603 4863 
L 1178 4863 
L 1178 4134 
L 603 4134 
L 603 4863 
z
" transform="scale(0.015625)"/>
       <path id="DejaVuSans-65" d="M 3597 1894 
L 3597 1613 
L 953 1613 
Q 991 1019 1311 708 
Q 1631 397 2203 397 
Q 2534 397 2845 478 
Q 3156 559 3463 722 
L 3463 178 
Q 3153 47 2828 -22 
Q 2503 -91 2169 -91 
Q 1331 -91 842 396 
Q 353 884 353 1716 
Q 353 2575 817 3079 
Q 1281 3584 2069 3584 
Q 2775 3584 3186 3129 
Q 3597 2675 3597 1894 
z
M 3022 2063 
Q 3016 2534 2758 2815 
Q 2500 3097 2075 3097 
Q 1594 3097 1305 2825 
Q 1016 2553 972 2059 
L 3022 2063 
z
" transform="scale(0.015625)"/>
       <path id="DejaVuSans-63" d="M 3122 3366 
L 3122 2828 
Q 2878 2963 2633 3030 
Q 2388 3097 2138 3097 
Q 1578 3097 1268 2742 
Q 959 2388 959 1747 
Q 959 1106 1268 751 
Q 1578 397 2138 397 
Q 2388 397 2633 464 
Q 2878 531 3122 666 
L 3122 134 
Q 2881 22 2623 -34 
Q 2366 -91 2075 -91 
Q 1284 -91 818 406 
Q 353 903 353 1747 
Q 353 2603 823 3093 
Q 1294 3584 2113 3584 
Q 2378 3584 2631 3529 
Q 2884 3475 3122 3366 
z
" transform="scale(0.015625)"/>
       <path id="DejaVuSans-74" d="M 1172 4494 
L 1172 3500 
L 2356 3500 
L 2356 3053 
L 1172 3053 
L 1172 1153 
Q 1172 725 1289 603 
Q 1406 481 1766 481 
L 2356 481 
L 2356 0 
L 1766 0 
Q 1100 0 847 248 
Q 594 497 594 1153 
L 594 3053 
L 172 3053 
L 172 3500 
L 594 3500 
L 594 4494 
L 1172 4494 
z
" transform="scale(0.015625)"/>
       <path id="DejaVuSans-6f" d="M 1959 3097 
Q 1497 3097 1228 2736 
Q 959 2375 959 1747 
Q 959 1119 1226 758 
Q 1494 397 1959 397 
Q 2419 397 2687 759 
Q 2956 1122 2956 1747 
Q 2956 2369 2687 2733 
Q 2419 3097 1959 3097 
z
M 1959 3584 
Q 2709 3584 3137 3096 
Q 3566 2609 3566 1747 
Q 3566 888 3137 398 
Q 2709 -91 1959 -91 
Q 1206 -91 779 398 
Q 353 888 353 1747 
Q 353 2609 779 3096 
Q 1206 3584 1959 3584 
z
" transform="scale(0.015625)"/>
       <path id="DejaVuSans-79" d="M 2059 -325 
Q 1816 -950 1584 -1140 
Q 1353 -1331 966 -1331 
L 506 -1331 
L 506 -850 
L 844 -850 
Q 1081 -850 1212 -737 
Q 1344 -625 1503 -206 
L 1606 56 
L 191 3500 
L 800 3500 
L 1894 763 
L 2988 3500 
L 3597 3500 
L 2059 -325 
z
" transform="scale(0.015625)"/>
      </defs>
      <use xlink:href="#DejaVuSans-54"/>
      <use xlink:href="#DejaVuSans-72" x="46.333984"/>
      <use xlink:href="#DejaVuSans-61" x="87.447266"/>
      <use xlink:href="#DejaVuSans-6a" x="148.726562"/>
      <use xlink:href="#DejaVuSans-65" x="176.509766"/>
      <use xlink:href="#DejaVuSans-63" x="238.033203"/>
      <use xlink:href="#DejaVuSans-74" x="293.013672"/>
      <use xlink:href="#DejaVuSans-6f" x="332.222656"/>
      <use xlink:href="#DejaVuSans-72" x="393.404297"/>
      <use xlink:href="#DejaVuSans-79" x="434.517578"/>
     </g>
    </g>
    <g id="line2d_10">
     <path d="M 244.591875 83.136844 
L 259.591875 83.136844 
L 274.591875 83.136844 
" style="fill: none; stroke: #000000; stroke-width: 1.5; stroke-linecap: square"/>
     <g>
      <use xlink:href="#m279c91ef79" x="259.591875" y="83.136844" style="stroke: #000000"/>
     </g>
    </g>
    <g id="text_8">
     <!-- Start -->
     <g transform="translate(286.591875 88.386844)scale(0.15 -0.15)">
      <defs>
       <path id="DejaVuSans-53" d="M 3425 4513 
L 3425 3897 
Q 3066 4069 2747 4153 
Q 2428 4238 2131 4238 
Q 1616 4238 1336 4038 
Q 1056 3838 1056 3469 
Q 1056 3159 1242 3001 
Q 1428 2844 1947 2747 
L 2328 2669 
Q 3034 2534 3370 2195 
Q 3706 1856 3706 1288 
Q 3706 609 3251 259 
Q 2797 -91 1919 -91 
Q 1588 -91 1214 -16 
Q 841 59 441 206 
L 441 856 
Q 825 641 1194 531 
Q 1563 422 1919 422 
Q 2459 422 2753 634 
Q 3047 847 3047 1241 
Q 3047 1584 2836 1778 
Q 2625 1972 2144 2069 
L 1759 2144 
Q 1053 2284 737 2584 
Q 422 2884 422 3419 
Q 422 4038 858 4394 
Q 1294 4750 2059 4750 
Q 2388 4750 2728 4690 
Q 3069 4631 3425 4513 
z
" transform="scale(0.015625)"/>
      </defs>
      <use xlink:href="#DejaVuSans-53"/>
      <use xlink:href="#DejaVuSans-74" x="63.476562"/>
      <use xlink:href="#DejaVuSans-61" x="102.685547"/>
      <use xlink:href="#DejaVuSans-72" x="163.964844"/>
      <use xlink:href="#DejaVuSans-74" x="205.078125"/>
     </g>
    </g>
    <g id="line2d_11">
     <path d="M 244.591875 105.154031 
L 259.591875 105.154031 
L 274.591875 105.154031 
" style="fill: none; stroke: #000000; stroke-width: 1.5; stroke-linecap: square"/>
     <g>
      <use xlink:href="#m47cf8a1dfd" x="259.591875" y="105.154031" style="stroke: #000000; stroke-linejoin: miter"/>
     </g>
    </g>
    <g id="text_9">
     <!-- End -->
     <g transform="translate(286.591875 110.404031)scale(0.15 -0.15)">
      <defs>
       <path id="DejaVuSans-45" d="M 628 4666 
L 3578 4666 
L 3578 4134 
L 1259 4134 
L 1259 2753 
L 3481 2753 
L 3481 2222 
L 1259 2222 
L 1259 531 
L 3634 531 
L 3634 0 
L 628 0 
L 628 4666 
z
" transform="scale(0.015625)"/>
       <path id="DejaVuSans-6e" d="M 3513 2113 
L 3513 0 
L 2938 0 
L 2938 2094 
Q 2938 2591 2744 2837 
Q 2550 3084 2163 3084 
Q 1697 3084 1428 2787 
Q 1159 2491 1159 1978 
L 1159 0 
L 581 0 
L 581 3500 
L 1159 3500 
L 1159 2956 
Q 1366 3272 1645 3428 
Q 1925 3584 2291 3584 
Q 2894 3584 3203 3211 
Q 3513 2838 3513 2113 
z
" transform="scale(0.015625)"/>
       <path id="DejaVuSans-64" d="M 2906 2969 
L 2906 4863 
L 3481 4863 
L 3481 0 
L 2906 0 
L 2906 525 
Q 2725 213 2448 61 
Q 2172 -91 1784 -91 
Q 1150 -91 751 415 
Q 353 922 353 1747 
Q 353 2572 751 3078 
Q 1150 3584 1784 3584 
Q 2172 3584 2448 3432 
Q 2725 3281 2906 2969 
z
M 947 1747 
Q 947 1113 1208 752 
Q 1469 391 1925 391 
Q 2381 391 2643 752 
Q 2906 1113 2906 1747 
Q 2906 2381 2643 2742 
Q 2381 3103 1925 3103 
Q 1469 3103 1208 2742 
Q 947 2381 947 1747 
z
" transform="scale(0.015625)"/>
      </defs>
      <use xlink:href="#DejaVuSans-45"/>
      <use xlink:href="#DejaVuSans-6e" x="63.183594"/>
      <use xlink:href="#DejaVuSans-64" x="126.5625"/>
     </g>
    </g>
    <g id="line2d_12">
     <path d="M 244.591875 127.171219 
L 259.591875 127.171219 
L 274.591875 127.171219 
" style="fill: none; stroke: #ff0000; stroke-width: 1.5; stroke-linecap: square"/>
     <g>
      <use xlink:href="#mfa08d0ef96" x="259.591875" y="127.171219" style="fill: #ff0000; stroke: #ff0000; stroke-linejoin: miter"/>
     </g>
    </g>
    <g id="text_10">
     <!-- Target Location -->
     <g transform="translate(286.591875 132.421219)scale(0.15 -0.15)">
      <defs>
       <path id="DejaVuSans-67" d="M 2906 1791 
Q 2906 2416 2648 2759 
Q 2391 3103 1925 3103 
Q 1463 3103 1205 2759 
Q 947 2416 947 1791 
Q 947 1169 1205 825 
Q 1463 481 1925 481 
Q 2391 481 2648 825 
Q 2906 1169 2906 1791 
z
M 3481 434 
Q 3481 -459 3084 -895 
Q 2688 -1331 1869 -1331 
Q 1566 -1331 1297 -1286 
Q 1028 -1241 775 -1147 
L 775 -588 
Q 1028 -725 1275 -790 
Q 1522 -856 1778 -856 
Q 2344 -856 2625 -561 
Q 2906 -266 2906 331 
L 2906 616 
Q 2728 306 2450 153 
Q 2172 0 1784 0 
Q 1141 0 747 490 
Q 353 981 353 1791 
Q 353 2603 747 3093 
Q 1141 3584 1784 3584 
Q 2172 3584 2450 3431 
Q 2728 3278 2906 2969 
L 2906 3500 
L 3481 3500 
L 3481 434 
z
" transform="scale(0.015625)"/>
       <path id="DejaVuSans-20" transform="scale(0.015625)"/>
       <path id="DejaVuSans-4c" d="M 628 4666 
L 1259 4666 
L 1259 531 
L 3531 531 
L 3531 0 
L 628 0 
L 628 4666 
z
" transform="scale(0.015625)"/>
       <path id="DejaVuSans-69" d="M 603 3500 
L 1178 3500 
L 1178 0 
L 603 0 
L 603 3500 
z
M 603 4863 
L 1178 4863 
L 1178 4134 
L 603 4134 
L 603 4863 
z
" transform="scale(0.015625)"/>
      </defs>
      <use xlink:href="#DejaVuSans-54"/>
      <use xlink:href="#DejaVuSans-61" x="44.583984"/>
      <use xlink:href="#DejaVuSans-72" x="105.863281"/>
      <use xlink:href="#DejaVuSans-67" x="145.226562"/>
      <use xlink:href="#DejaVuSans-65" x="208.703125"/>
      <use xlink:href="#DejaVuSans-74" x="270.226562"/>
      <use xlink:href="#DejaVuSans-20" x="309.435547"/>
      <use xlink:href="#DejaVuSans-4c" x="341.222656"/>
      <use xlink:href="#DejaVuSans-6f" x="395.185547"/>
      <use xlink:href="#DejaVuSans-63" x="456.367188"/>
      <use xlink:href="#DejaVuSans-61" x="511.347656"/>
      <use xlink:href="#DejaVuSans-74" x="572.626953"/>
      <use xlink:href="#DejaVuSans-69" x="611.835938"/>
      <use xlink:href="#DejaVuSans-6f" x="639.619141"/>
      <use xlink:href="#DejaVuSans-6e" x="700.800781"/>
     </g>
    </g>
   </g>
  </g>
 </g>
 <defs>
  <clipPath id="pe555ddb2a2">
   <rect x="57.6" y="41.472" width="357.12" height="266.112"/>
  </clipPath>
 </defs>
</svg>
