<?xml version="1.0" encoding="utf-8" standalone="no"?>
<!DOCTYPE svg PUBLIC "-//W3C//DTD SVG 1.1//EN"
  "http://www.w3.org/Graphics/SVG/1.1/DTD/svg11.dtd">
<svg xmlns:xlink="http://www.w3.org/1999/xlink" width="460.8pt" height="345.6pt" viewBox="0 0 460.8 345.6" xmlns="http://www.w3.org/2000/svg" version="1.1">
 <metadata>
  <rdf:RDF xmlns:dc="http://purl.org/dc/elements/1.1/" xmlns:cc="http://creativecommons.org/ns#" xmlns:rdf="http://www.w3.org/1999/02/22-rdf-syntax-ns#">
   <cc:Work>
    <dc:type rdf:resource="http://purl.org/dc/dcmitype/StillImage"/>
    <dc:date>2024-02-14T14:13:07.620198</dc:date>
    <dc:format>image/svg+xml</dc:format>
    <dc:creator>
     <cc:Agent>
      <dc:title>Matplotlib v3.5.0, https://matplotlib.org/</dc:title>
     </cc:Agent>
    </dc:creator>
   </cc:Work>
  </rdf:RDF>
 </metadata>
 <defs>
  <style type="text/css">*{stroke-linejoin: round; stroke-linecap: butt}</style>
 </defs>
 <g id="figure_1">
  <g id="patch_1">
   <path d="M 0 345.6 
L 460.8 345.6 
L 460.8 0 
L 0 0 
z
" style="fill: #ffffff"/>
  </g>
  <g id="axes_1">
   <g id="patch_2">
    <path d="M 57.6 307.584 
L 414.72 307.584 
L 414.72 41.472 
L 57.6 41.472 
z
" style="fill: #ffffff"/>
   </g>
   <g id="matplotlib.axis_1">
    <g id="xtick_1">
     <g id="line2d_1">
      <defs>
       <path id="m054fb63ef8" d="M 0 0 
L 0 3.5 
" style="stroke: #000000; stroke-width: 0.8"/>
      </defs>
      <g>
       <use xlink:href="#m054fb63ef8" x="73.832727" y="307.584" style="stroke: #000000; stroke-width: 0.8"/>
      </g>
     </g>
     <g id="text_1">
      <!-- 0 -->
      <g transform="translate(67.470227 329.780875)scale(0.2 -0.2)">
       <defs>
        <path id="DejaVuSans-30" d="M 2034 4250 
Q 1547 4250 1301 3770 
Q 1056 3291 1056 2328 
Q 1056 1369 1301 889 
Q 1547 409 2034 409 
Q 2525 409 2770 889 
Q 3016 1369 3016 2328 
Q 3016 3291 2770 3770 
Q 2525 4250 2034 4250 
z
M 2034 4750 
Q 2819 4750 3233 4129 
Q 3647 3509 3647 2328 
Q 3647 1150 3233 529 
Q 2819 -91 2034 -91 
Q 1250 -91 836 529 
Q 422 1150 422 2328 
Q 422 3509 836 4129 
Q 1250 4750 2034 4750 
z
" transform="scale(0.015625)"/>
       </defs>
       <use xlink:href="#DejaVuSans-30"/>
      </g>
     </g>
    </g>
    <g id="xtick_2">
     <g id="line2d_2">
      <g>
       <use xlink:href="#m054fb63ef8" x="399.962975" y="307.584" style="stroke: #000000; stroke-width: 0.8"/>
      </g>
     </g>
     <g id="text_2">
      <!-- 1 -->
      <g transform="translate(393.600475 329.780875)scale(0.2 -0.2)">
       <defs>
        <path id="DejaVuSans-31" d="M 794 531 
L 1825 531 
L 1825 4091 
L 703 3866 
L 703 4441 
L 1819 4666 
L 2450 4666 
L 2450 531 
L 3481 531 
L 3481 0 
L 794 0 
L 794 531 
z
" transform="scale(0.015625)"/>
       </defs>
       <use xlink:href="#DejaVuSans-31"/>
      </g>
     </g>
    </g>
    <g id="text_3">
     <!-- Normalised X position -->
     <g transform="translate(111.795937 353.137125)scale(0.2 -0.2)">
      <defs>
       <path id="DejaVuSans-Bold-4e" d="M 588 4666 
L 1931 4666 
L 3628 1466 
L 3628 4666 
L 4769 4666 
L 4769 0 
L 3425 0 
L 1728 3200 
L 1728 0 
L 588 0 
L 588 4666 
z
" transform="scale(0.015625)"/>
       <path id="DejaVuSans-Bold-6f" d="M 2203 2784 
Q 1831 2784 1636 2517 
Q 1441 2250 1441 1747 
Q 1441 1244 1636 976 
Q 1831 709 2203 709 
Q 2569 709 2762 976 
Q 2956 1244 2956 1747 
Q 2956 2250 2762 2517 
Q 2569 2784 2203 2784 
z
M 2203 3584 
Q 3106 3584 3614 3096 
Q 4122 2609 4122 1747 
Q 4122 884 3614 396 
Q 3106 -91 2203 -91 
Q 1297 -91 786 396 
Q 275 884 275 1747 
Q 275 2609 786 3096 
Q 1297 3584 2203 3584 
z
" transform="scale(0.015625)"/>
       <path id="DejaVuSans-Bold-72" d="M 3138 2547 
Q 2991 2616 2845 2648 
Q 2700 2681 2553 2681 
Q 2122 2681 1889 2404 
Q 1656 2128 1656 1613 
L 1656 0 
L 538 0 
L 538 3500 
L 1656 3500 
L 1656 2925 
Q 1872 3269 2151 3426 
Q 2431 3584 2822 3584 
Q 2878 3584 2943 3579 
Q 3009 3575 3134 3559 
L 3138 2547 
z
" transform="scale(0.015625)"/>
       <path id="DejaVuSans-Bold-6d" d="M 3781 2919 
Q 3994 3244 4286 3414 
Q 4578 3584 4928 3584 
Q 5531 3584 5847 3212 
Q 6163 2841 6163 2131 
L 6163 0 
L 5038 0 
L 5038 1825 
Q 5041 1866 5042 1909 
Q 5044 1953 5044 2034 
Q 5044 2406 4934 2573 
Q 4825 2741 4581 2741 
Q 4263 2741 4089 2478 
Q 3916 2216 3909 1719 
L 3909 0 
L 2784 0 
L 2784 1825 
Q 2784 2406 2684 2573 
Q 2584 2741 2328 2741 
Q 2006 2741 1831 2477 
Q 1656 2213 1656 1722 
L 1656 0 
L 531 0 
L 531 3500 
L 1656 3500 
L 1656 2988 
Q 1863 3284 2130 3434 
Q 2397 3584 2719 3584 
Q 3081 3584 3359 3409 
Q 3638 3234 3781 2919 
z
" transform="scale(0.015625)"/>
       <path id="DejaVuSans-Bold-61" d="M 2106 1575 
Q 1756 1575 1579 1456 
Q 1403 1338 1403 1106 
Q 1403 894 1545 773 
Q 1688 653 1941 653 
Q 2256 653 2472 879 
Q 2688 1106 2688 1447 
L 2688 1575 
L 2106 1575 
z
M 3816 1997 
L 3816 0 
L 2688 0 
L 2688 519 
Q 2463 200 2181 54 
Q 1900 -91 1497 -91 
Q 953 -91 614 226 
Q 275 544 275 1050 
Q 275 1666 698 1953 
Q 1122 2241 2028 2241 
L 2688 2241 
L 2688 2328 
Q 2688 2594 2478 2717 
Q 2269 2841 1825 2841 
Q 1466 2841 1156 2769 
Q 847 2697 581 2553 
L 581 3406 
Q 941 3494 1303 3539 
Q 1666 3584 2028 3584 
Q 2975 3584 3395 3211 
Q 3816 2838 3816 1997 
z
" transform="scale(0.015625)"/>
       <path id="DejaVuSans-Bold-6c" d="M 538 4863 
L 1656 4863 
L 1656 0 
L 538 0 
L 538 4863 
z
" transform="scale(0.015625)"/>
       <path id="DejaVuSans-Bold-69" d="M 538 3500 
L 1656 3500 
L 1656 0 
L 538 0 
L 538 3500 
z
M 538 4863 
L 1656 4863 
L 1656 3950 
L 538 3950 
L 538 4863 
z
" transform="scale(0.015625)"/>
       <path id="DejaVuSans-Bold-73" d="M 3272 3391 
L 3272 2541 
Q 2913 2691 2578 2766 
Q 2244 2841 1947 2841 
Q 1628 2841 1473 2761 
Q 1319 2681 1319 2516 
Q 1319 2381 1436 2309 
Q 1553 2238 1856 2203 
L 2053 2175 
Q 2913 2066 3209 1816 
Q 3506 1566 3506 1031 
Q 3506 472 3093 190 
Q 2681 -91 1863 -91 
Q 1516 -91 1145 -36 
Q 775 19 384 128 
L 384 978 
Q 719 816 1070 734 
Q 1422 653 1784 653 
Q 2113 653 2278 743 
Q 2444 834 2444 1013 
Q 2444 1163 2330 1236 
Q 2216 1309 1875 1350 
L 1678 1375 
Q 931 1469 631 1722 
Q 331 1975 331 2491 
Q 331 3047 712 3315 
Q 1094 3584 1881 3584 
Q 2191 3584 2531 3537 
Q 2872 3491 3272 3391 
z
" transform="scale(0.015625)"/>
       <path id="DejaVuSans-Bold-65" d="M 4031 1759 
L 4031 1441 
L 1416 1441 
Q 1456 1047 1700 850 
Q 1944 653 2381 653 
Q 2734 653 3104 758 
Q 3475 863 3866 1075 
L 3866 213 
Q 3469 63 3072 -14 
Q 2675 -91 2278 -91 
Q 1328 -91 801 392 
Q 275 875 275 1747 
Q 275 2603 792 3093 
Q 1309 3584 2216 3584 
Q 3041 3584 3536 3087 
Q 4031 2591 4031 1759 
z
M 2881 2131 
Q 2881 2450 2695 2645 
Q 2509 2841 2209 2841 
Q 1884 2841 1681 2658 
Q 1478 2475 1428 2131 
L 2881 2131 
z
" transform="scale(0.015625)"/>
       <path id="DejaVuSans-Bold-64" d="M 2919 2988 
L 2919 4863 
L 4044 4863 
L 4044 0 
L 2919 0 
L 2919 506 
Q 2688 197 2409 53 
Q 2131 -91 1766 -91 
Q 1119 -91 703 423 
Q 288 938 288 1747 
Q 288 2556 703 3070 
Q 1119 3584 1766 3584 
Q 2128 3584 2408 3439 
Q 2688 3294 2919 2988 
z
M 2181 722 
Q 2541 722 2730 984 
Q 2919 1247 2919 1747 
Q 2919 2247 2730 2509 
Q 2541 2772 2181 2772 
Q 1825 2772 1636 2509 
Q 1447 2247 1447 1747 
Q 1447 1247 1636 984 
Q 1825 722 2181 722 
z
" transform="scale(0.015625)"/>
       <path id="DejaVuSans-Bold-20" transform="scale(0.015625)"/>
       <path id="DejaVuSans-Bold-58" d="M 3188 2381 
L 4806 0 
L 3553 0 
L 2463 1594 
L 1381 0 
L 122 0 
L 1741 2381 
L 184 4666 
L 1441 4666 
L 2463 3163 
L 3481 4666 
L 4744 4666 
L 3188 2381 
z
" transform="scale(0.015625)"/>
       <path id="DejaVuSans-Bold-70" d="M 1656 506 
L 1656 -1331 
L 538 -1331 
L 538 3500 
L 1656 3500 
L 1656 2988 
Q 1888 3294 2169 3439 
Q 2450 3584 2816 3584 
Q 3463 3584 3878 3070 
Q 4294 2556 4294 1747 
Q 4294 938 3878 423 
Q 3463 -91 2816 -91 
Q 2450 -91 2169 54 
Q 1888 200 1656 506 
z
M 2400 2772 
Q 2041 2772 1848 2508 
Q 1656 2244 1656 1747 
Q 1656 1250 1848 986 
Q 2041 722 2400 722 
Q 2759 722 2948 984 
Q 3138 1247 3138 1747 
Q 3138 2247 2948 2509 
Q 2759 2772 2400 2772 
z
" transform="scale(0.015625)"/>
       <path id="DejaVuSans-Bold-74" d="M 1759 4494 
L 1759 3500 
L 2913 3500 
L 2913 2700 
L 1759 2700 
L 1759 1216 
Q 1759 972 1856 886 
Q 1953 800 2241 800 
L 2816 800 
L 2816 0 
L 1856 0 
Q 1194 0 917 276 
Q 641 553 641 1216 
L 641 2700 
L 84 2700 
L 84 3500 
L 641 3500 
L 641 4494 
L 1759 4494 
z
" transform="scale(0.015625)"/>
       <path id="DejaVuSans-Bold-6e" d="M 4056 2131 
L 4056 0 
L 2931 0 
L 2931 347 
L 2931 1631 
Q 2931 2084 2911 2256 
Q 2891 2428 2841 2509 
Q 2775 2619 2662 2680 
Q 2550 2741 2406 2741 
Q 2056 2741 1856 2470 
Q 1656 2200 1656 1722 
L 1656 0 
L 538 0 
L 538 3500 
L 1656 3500 
L 1656 2988 
Q 1909 3294 2193 3439 
Q 2478 3584 2822 3584 
Q 3428 3584 3742 3212 
Q 4056 2841 4056 2131 
z
" transform="scale(0.015625)"/>
      </defs>
      <use xlink:href="#DejaVuSans-Bold-4e"/>
      <use xlink:href="#DejaVuSans-Bold-6f" x="83.691406"/>
      <use xlink:href="#DejaVuSans-Bold-72" x="152.392578"/>
      <use xlink:href="#DejaVuSans-Bold-6d" x="201.708984"/>
      <use xlink:href="#DejaVuSans-Bold-61" x="305.908203"/>
      <use xlink:href="#DejaVuSans-Bold-6c" x="373.388672"/>
      <use xlink:href="#DejaVuSans-Bold-69" x="407.666016"/>
      <use xlink:href="#DejaVuSans-Bold-73" x="441.943359"/>
      <use xlink:href="#DejaVuSans-Bold-65" x="501.464844"/>
      <use xlink:href="#DejaVuSans-Bold-64" x="569.287109"/>
      <use xlink:href="#DejaVuSans-Bold-20" x="640.869141"/>
      <use xlink:href="#DejaVuSans-Bold-58" x="675.683594"/>
      <use xlink:href="#DejaVuSans-Bold-20" x="752.783203"/>
      <use xlink:href="#DejaVuSans-Bold-70" x="787.597656"/>
      <use xlink:href="#DejaVuSans-Bold-6f" x="859.179688"/>
      <use xlink:href="#DejaVuSans-Bold-73" x="927.880859"/>
      <use xlink:href="#DejaVuSans-Bold-69" x="987.402344"/>
      <use xlink:href="#DejaVuSans-Bold-74" x="1021.679688"/>
      <use xlink:href="#DejaVuSans-Bold-69" x="1069.482422"/>
      <use xlink:href="#DejaVuSans-Bold-6f" x="1103.759766"/>
      <use xlink:href="#DejaVuSans-Bold-6e" x="1172.460938"/>
     </g>
    </g>
   </g>
   <g id="matplotlib.axis_2">
    <g id="ytick_1">
     <g id="line2d_3">
      <defs>
       <path id="m37d1e6b359" d="M 0 0 
L -3.5 0 
" style="stroke: #000000; stroke-width: 0.8"/>
      </defs>
      <g>
       <use xlink:href="#m37d1e6b359" x="57.6" y="297" style="stroke: #000000; stroke-width: 0.8"/>
      </g>
     </g>
     <g id="text_4">
      <!-- 0 -->
      <g transform="translate(37.875 304.598437)scale(0.2 -0.2)">
       <use xlink:href="#DejaVuSans-30"/>
      </g>
     </g>
    </g>
    <g id="ytick_2">
     <g id="line2d_4">
      <g>
       <use xlink:href="#m37d1e6b359" x="57.6" y="53.568" style="stroke: #000000; stroke-width: 0.8"/>
      </g>
     </g>
     <g id="text_5">
      <!-- 1 -->
      <g transform="translate(37.875 61.166438)scale(0.2 -0.2)">
       <use xlink:href="#DejaVuSans-31"/>
      </g>
     </g>
    </g>
    <g id="text_6">
     <!-- Normalised Y position -->
     <g transform="translate(29.715625 298.423313)rotate(-90)scale(0.2 -0.2)">
      <defs>
       <path id="DejaVuSans-Bold-59" d="M -63 4666 
L 1253 4666 
L 2316 3003 
L 3378 4666 
L 4697 4666 
L 2919 1966 
L 2919 0 
L 1716 0 
L 1716 1966 
L -63 4666 
z
" transform="scale(0.015625)"/>
      </defs>
      <use xlink:href="#DejaVuSans-Bold-4e"/>
      <use xlink:href="#DejaVuSans-Bold-6f" x="83.691406"/>
      <use xlink:href="#DejaVuSans-Bold-72" x="152.392578"/>
      <use xlink:href="#DejaVuSans-Bold-6d" x="201.708984"/>
      <use xlink:href="#DejaVuSans-Bold-61" x="305.908203"/>
      <use xlink:href="#DejaVuSans-Bold-6c" x="373.388672"/>
      <use xlink:href="#DejaVuSans-Bold-69" x="407.666016"/>
      <use xlink:href="#DejaVuSans-Bold-73" x="441.943359"/>
      <use xlink:href="#DejaVuSans-Bold-65" x="501.464844"/>
      <use xlink:href="#DejaVuSans-Bold-64" x="569.287109"/>
      <use xlink:href="#DejaVuSans-Bold-20" x="640.869141"/>
      <use xlink:href="#DejaVuSans-Bold-59" x="675.683594"/>
      <use xlink:href="#DejaVuSans-Bold-20" x="748.095703"/>
      <use xlink:href="#DejaVuSans-Bold-70" x="782.910156"/>
      <use xlink:href="#DejaVuSans-Bold-6f" x="854.492188"/>
      <use xlink:href="#DejaVuSans-Bold-73" x="923.193359"/>
      <use xlink:href="#DejaVuSans-Bold-69" x="982.714844"/>
      <use xlink:href="#DejaVuSans-Bold-74" x="1016.992188"/>
      <use xlink:href="#DejaVuSans-Bold-69" x="1064.794922"/>
      <use xlink:href="#DejaVuSans-Bold-6f" x="1099.072266"/>
      <use xlink:href="#DejaVuSans-Bold-6e" x="1167.773438"/>
     </g>
    </g>
   </g>
   <g id="line2d_5">
    <path d="M 236.16 174.528 
L 73.832727 53.568 
L 398.487273 295.488 
L 398.487273 295.488 
L 397.896992 295.488 
L 396.71643 294.8832 
L 394.650446 293.6736 
L 391.994182 291.2544 
L 388.747636 288.5328 
L 385.796231 285.8112 
L 378.417719 278.2512 
L 364.841256 263.1312 
L 358.348165 255.5712 
L 351.264793 247.104 
L 323.816727 215.0496 
L 312.011107 202.0464 
L 299.910347 189.3456 
L 287.219306 176.3424 
L 273.642843 163.3392 
L 259.77124 150.6384 
L 245.014215 138.24 
L 229.371769 125.8416 
L 206.055669 109.2096 
L 182.44443 94.9968 
L 166.801983 86.5296 
L 152.340099 79.8768 
L 123.416331 68.9904 
L 109.544727 65.0592 
L 97.148826 62.9424 
L 85.933488 61.7328 
L 75.60357 61.7328 
L 73.832727 62.9424 
L 73.832727 98.928 
L 74.127868 98.928 
L 74.718149 98.6256 
L 75.30843 97.416 
L 75.898711 95.904 
L 77.374413 94.0896 
L 79.145256 92.5776 
L 81.801521 90.4608 
L 85.638347 87.1344 
L 89.180033 85.0176 
L 93.01686 82.296 
L 96.558545 79.5744 
L 98.329388 78.0624 
L 102.461355 75.6432 
L 107.183603 73.224 
L 112.200992 71.4096 
L 118.398942 70.2 
L 127.843438 68.688 
L 136.107372 69.2928 
L 148.798413 69.8976 
L 157.652628 72.0144 
L 164.736 73.8288 
L 172.114512 76.5504 
L 178.902744 79.272 
L 185.690975 81.6912 
L 191.888926 84.4128 
L 201.628562 89.2512 
L 210.482777 93.7872 
L 216.680727 97.416 
L 237.635702 111.3264 
L 244.423934 116.1648 
L 253.278149 123.12 
L 263.017785 131.2848 
L 267.444893 135.5184 
L 272.757421 140.0544 
L 274.823405 142.1712 
L 280.726215 147.9168 
L 283.087339 150.0336 
L 289.285289 156.384 
L 293.417256 160.3152 
L 297.844364 164.8512 
L 301.976331 169.3872 
L 315.257653 184.8096 
L 321.750744 193.2768 
L 328.834116 203.256 
L 335.327207 213.84 
L 341.230017 224.7264 
L 346.247405 236.2176 
L 349.789091 250.4304 
L 350.674512 259.2 
L 350.969653 268.8768 
L 350.379372 278.2512 
L 348.903669 287.0208 
L 347.132826 295.488 
L 303.747174 295.488 
L 298.434645 294.5808 
L 293.122116 293.0688 
L 288.104727 290.3472 
L 282.792198 286.7184 
L 278.660231 282.1824 
L 273.052562 276.4368 
L 267.444893 269.1792 
L 262.132364 262.5264 
L 258.000397 255.5712 
L 258.000397 255.5712 
" clip-path="url(#p91375116c5)" style="fill: none; stroke: #000000; stroke-width: 1.5; stroke-linecap: square"/>
   </g>
   <g id="line2d_6">
    <path d="M 236.16 174.528 
" clip-path="url(#p91375116c5)" style="fill: none; stroke: #000000; stroke-width: 1.5; stroke-linecap: square"/>
    <defs>
     <path id="m9b72dd2484" d="M 0 5 
C 1.326016 5 2.597899 4.473168 3.535534 3.535534 
C 4.473168 2.597899 5 1.326016 5 0 
C 5 -1.326016 4.473168 -2.597899 3.535534 -3.535534 
C 2.597899 -4.473168 1.326016 -5 0 -5 
C -1.326016 -5 -2.597899 -4.473168 -3.535534 -3.535534 
C -4.473168 -2.597899 -5 -1.326016 -5 0 
C -5 1.326016 -4.473168 2.597899 -3.535534 3.535534 
C -2.597899 4.473168 -1.326016 5 0 5 
z
" style="stroke: #000000"/>
    </defs>
    <g clip-path="url(#p91375116c5)">
     <use xlink:href="#m9b72dd2484" x="236.16" y="174.528" style="stroke: #000000"/>
    </g>
   </g>
   <g id="line2d_7">
    <path d="M 258.000397 255.5712 
" clip-path="url(#p91375116c5)" style="fill: none; stroke: #000000; stroke-width: 1.5; stroke-linecap: square"/>
    <defs>
     <path id="m05e170b2d3" d="M -5 5 
L 5 5 
L 5 -5 
L -5 -5 
z
" style="stroke: #000000; stroke-linejoin: miter"/>
    </defs>
    <g clip-path="url(#p91375116c5)">
     <use xlink:href="#m05e170b2d3" x="258.000397" y="255.5712" style="stroke: #000000; stroke-linejoin: miter"/>
    </g>
   </g>
   <g id="line2d_8">
    <path d="M 183.624992 89.2512 
L 182.44443 83.2032 
L 180.083306 78.0624 
L 174.770777 69.5952 
L 170.048529 65.3616 
L 165.621421 62.0352 
L 160.308893 59.0112 
L 154.406083 56.8944 
L 149.388694 55.6848 
L 146.142149 55.3824 
L 144.076165 55.3824 
L 144.371306 55.9872 
L 144.371306 56.8944 
L 144.961587 58.104 
L 147.02757 61.7328 
L 149.093554 64.4544 
L 150.864397 67.7808 
L 152.93038 71.4096 
L 155.586645 75.6432 
L 159.128331 80.1792 
L 162.079736 85.6224 
L 172.114512 111.6288 
L 174.770777 118.8864 
L 177.722182 133.704 
L 177.722182 140.6592 
L 177.131901 147.6144 
L 176.246479 154.2672 
L 173.590215 160.6176 
L 170.343669 166.6656 
L 165.916562 172.7136 
L 160.899174 178.1568 
L 151.159537 188.136 
L 146.73243 192.3696 
L 143.485884 196.9056 
L 140.82962 200.8368 
L 137.878215 204.4656 
L 135.22195 207.4896 
L 133.155967 210.2112 
L 130.794843 212.9328 
L 128.138579 215.352 
L 124.006612 220.1904 
L 121.940628 222.3072 
L 119.284364 226.2384 
L 118.398942 228.0528 
L 118.398942 229.8672 
L 117.808661 231.6816 
L 117.513521 233.1936 
L 117.808661 234.4032 
L 118.103802 234.7056 
L 118.398942 234.1008 
L 119.284364 231.6816 
L 119.284364 230.1696 
L 118.989223 228.3552 
L 118.103802 226.2384 
L 116.92324 224.424 
L 115.742678 221.7024 
L 114.266975 218.6784 
L 112.200992 215.6544 
L 110.135008 212.9328 
L 107.183603 209.9088 
L 103.641917 206.8848 
L 100.100231 204.1632 
L 92.721719 199.0224 
L 89.475174 196.9056 
L 85.638347 195.0912 
L 81.50638 193.2768 
L 76.784132 190.8576 
L 73.832727 189.0432 
L 73.832727 174.528 
L 74.423008 172.4112 
L 76.193851 170.5968 
L 78.850116 168.1776 
L 82.391802 165.7584 
L 86.818909 163.0368 
L 92.426579 160.3152 
L 98.034248 157.896 
L 103.937058 155.7792 
L 110.135008 154.5696 
L 121.645488 152.7552 
L 127.548298 152.1504 
L 135.812231 152.1504 
L 148.503273 153.36 
L 155.586645 154.2672 
L 161.489455 154.872 
L 172.999934 156.6864 
L 178.017322 157.5936 
L 182.73957 159.1056 
L 193.364628 163.6416 
L 207.826512 171.504 
L 220.222413 179.3664 
L 228.486347 185.112 
L 231.142612 187.8336 
L 234.094017 190.5552 
L 236.16 192.9744 
L 237.045421 195.0912 
L 238.521124 197.208 
L 238.816264 199.3248 
L 239.406545 201.1392 
L 240.291967 202.6512 
L 238.521124 205.6752 
L 237.930843 207.1872 
L 235.274579 209.304 
L 233.798876 210.2112 
L 230.25719 212.0256 
L 223.173818 214.7472 
L 220.812694 215.352 
L 216.680727 216.864 
L 214.614744 217.1664 
L 212.54876 218.0736 
L 205.760529 220.4928 
L 204.284826 221.0976 
L 203.104264 221.0976 
L 203.104264 221.0976 
" clip-path="url(#p91375116c5)" style="fill: none; stroke: #ffa07a; stroke-width: 1.5; stroke-linecap: square"/>
   </g>
   <g id="line2d_9">
    <path d="M 183.624992 89.2512 
" clip-path="url(#p91375116c5)" style="fill: none; stroke: #ffa07a; stroke-width: 1.5; stroke-linecap: square"/>
    <defs>
     <path id="m23457bd0cc" d="M 0 5 
C 1.326016 5 2.597899 4.473168 3.535534 3.535534 
C 4.473168 2.597899 5 1.326016 5 0 
C 5 -1.326016 4.473168 -2.597899 3.535534 -3.535534 
C 2.597899 -4.473168 1.326016 -5 0 -5 
C -1.326016 -5 -2.597899 -4.473168 -3.535534 -3.535534 
C -4.473168 -2.597899 -5 -1.326016 -5 0 
C -5 1.326016 -4.473168 2.597899 -3.535534 3.535534 
C -2.597899 4.473168 -1.326016 5 0 5 
z
" style="stroke: #ffa07a"/>
    </defs>
    <g clip-path="url(#p91375116c5)">
     <use xlink:href="#m23457bd0cc" x="183.624992" y="89.2512" style="fill: #ffa07a; stroke: #ffa07a"/>
    </g>
   </g>
   <g id="line2d_10">
    <path d="M 203.104264 221.0976 
" clip-path="url(#p91375116c5)" style="fill: none; stroke: #ffa07a; stroke-width: 1.5; stroke-linecap: square"/>
    <defs>
     <path id="m5fb4455644" d="M -5 5 
L 5 5 
L 5 -5 
L -5 -5 
z
" style="stroke: #ffa07a; stroke-linejoin: miter"/>
    </defs>
    <g clip-path="url(#p91375116c5)">
     <use xlink:href="#m5fb4455644" x="203.104264" y="221.0976" style="fill: #ffa07a; stroke: #ffa07a; stroke-linejoin: miter"/>
    </g>
   </g>
   <g id="line2d_11">
    <path d="M 237.340562 76.248 
L 233.208595 73.8288 
L 231.437752 72.9216 
L 229.371769 71.712 
L 224.05924 69.2928 
L 222.878678 68.688 
L 221.993256 68.3856 
L 219.632132 67.176 
L 218.746711 66.8736 
L 217.566149 66.2688 
L 214.909884 65.3616 
L 214.024463 64.7568 
L 212.843901 64.4544 
L 211.958479 64.4544 
L 211.073058 64.152 
L 209.597355 64.152 
L 201.038281 62.9424 
L 197.791736 62.64 
L 191.298645 62.64 
L 178.902744 63.5472 
L 169.163107 65.3616 
L 163.850579 66.5712 
L 158.83319 68.0832 
L 154.110942 70.2 
L 148.798413 72.0144 
L 143.485884 74.4336 
L 138.763636 77.1552 
L 133.155967 80.1792 
L 128.138579 83.2032 
L 122.82605 86.2272 
L 117.808661 89.2512 
L 108.069025 95.6016 
L 98.919669 102.5568 
L 94.787702 106.1856 
L 90.360595 109.2096 
L 86.228628 112.536 
L 82.391802 115.8624 
L 77.079273 122.5152 
L 74.718149 125.8416 
L 73.832727 128.5632 
L 73.832727 139.1472 
L 73.832727 132.4944 
L 74.423008 125.2368 
L 75.30843 120.096 
L 75.898711 118.2816 
L 77.374413 114.3504 
L 77.669554 113.1408 
L 78.554975 111.024 
L 80.030678 106.1856 
L 80.030678 106.1856 
L 79.735537 106.1856 
L 79.440397 106.488 
L 79.145256 107.6976 
L 79.440397 108.9072 
L 79.440397 111.3264 
L 80.030678 114.3504 
L 80.916099 116.4672 
L 81.50638 117.3744 
L 82.686942 119.4912 
L 83.867504 121.0032 
L 85.048066 121.9104 
L 86.228628 122.2128 
L 88.294612 121.3056 
L 90.950876 117.3744 
L 93.01686 114.9552 
L 97.148826 110.7216 
L 100.985653 107.3952 
L 104.822479 103.7664 
L 106.888463 102.2544 
L 110.725289 97.7184 
L 114.562116 94.0896 
L 123.711471 82.9008 
L 128.138579 76.8528 
L 131.680264 71.1072 
L 133.451107 67.176 
L 134.041388 64.7568 
L 134.041388 61.7328 
L 131.680264 59.9184 
L 130.204562 59.3136 
L 127.253157 58.4064 
L 123.12119 57.8016 
L 118.103802 57.4992 
L 114.266975 57.4992 
L 109.839868 57.8016 
L 105.11762 57.8016 
L 99.805091 58.104 
L 91.836298 59.0112 
L 83.277223 60.5232 
L 77.964694 61.7328 
L 73.832727 62.9424 
L 73.832727 87.1344 
L 74.127868 90.4608 
L 74.718149 93.7872 
L 75.898711 97.416 
L 77.669554 101.0448 
L 80.030678 104.3712 
L 82.982083 107.6976 
L 86.228628 111.024 
L 90.065455 114.6528 
L 93.60714 118.584 
L 99.21481 124.0272 
L 102.756496 127.9584 
L 107.478744 133.704 
L 110.135008 137.6352 
L 113.381554 141.264 
L 116.332959 144.8928 
L 119.284364 147.9168 
L 121.645488 151.5456 
L 123.711471 154.2672 
L 125.777455 156.6864 
L 129.909421 160.92 
L 132.270545 162.432 
L 133.746248 164.5488 
L 135.517091 166.0608 
L 135.517091 166.0608 
" clip-path="url(#p91375116c5)" style="fill: none; stroke: #0000ff; stroke-width: 1.5; stroke-linecap: square"/>
   </g>
   <g id="line2d_12">
    <path d="M 237.340562 76.248 
" clip-path="url(#p91375116c5)" style="fill: none; stroke: #0000ff; stroke-width: 1.5; stroke-linecap: square"/>
    <defs>
     <path id="mc650c6ba68" d="M 0 5 
C 1.326016 5 2.597899 4.473168 3.535534 3.535534 
C 4.473168 2.597899 5 1.326016 5 0 
C 5 -1.326016 4.473168 -2.597899 3.535534 -3.535534 
C 2.597899 -4.473168 1.326016 -5 0 -5 
C -1.326016 -5 -2.597899 -4.473168 -3.535534 -3.535534 
C -4.473168 -2.597899 -5 -1.326016 -5 0 
C -5 1.326016 -4.473168 2.597899 -3.535534 3.535534 
C -2.597899 4.473168 -1.326016 5 0 5 
z
" style="stroke: #0000ff"/>
    </defs>
    <g clip-path="url(#p91375116c5)">
     <use xlink:href="#mc650c6ba68" x="237.340562" y="76.248" style="fill: #0000ff; stroke: #0000ff"/>
    </g>
   </g>
   <g id="line2d_13">
    <path d="M 135.517091 166.0608 
" clip-path="url(#p91375116c5)" style="fill: none; stroke: #0000ff; stroke-width: 1.5; stroke-linecap: square"/>
    <defs>
     <path id="m6886aaec4b" d="M -5 5 
L 5 5 
L 5 -5 
L -5 -5 
z
" style="stroke: #0000ff; stroke-linejoin: miter"/>
    </defs>
    <g clip-path="url(#p91375116c5)">
     <use xlink:href="#m6886aaec4b" x="135.517091" y="166.0608" style="fill: #0000ff; stroke: #0000ff; stroke-linejoin: miter"/>
    </g>
   </g>
   <g id="line2d_14">
    <path d="M 182.149289 116.7696 
L 184.805554 118.8864 
L 187.166678 121.0032 
L 189.822942 123.4224 
L 192.774347 125.8416 
L 196.020893 128.2608 
L 200.15286 130.68 
L 202.809124 133.0992 
L 206.64595 135.8208 
L 210.482777 138.5424 
L 212.54876 139.752 
L 218.746711 144.288 
L 222.288397 147.312 
L 227.305785 150.6384 
L 231.732893 153.6624 
L 236.750281 156.9888 
L 240.587107 160.6176 
L 244.423934 163.944 
L 249.146182 167.5728 
L 252.983008 171.2016 
L 256.819835 174.528 
L 260.951802 178.1568 
L 265.083769 181.4832 
L 268.920595 185.112 
L 270.986579 186.624 
L 274.823405 189.9504 
L 280.726215 195.0912 
L 283.97276 198.4176 
L 288.399868 201.744 
L 292.236694 205.0704 
L 295.48324 207.792 
L 300.205488 211.1184 
L 304.337455 214.1424 
L 306.698579 217.1664 
L 308.764562 219.888 
L 310.830545 222.6096 
L 313.78195 225.0288 
L 315.257653 227.1456 
L 317.323636 229.5648 
L 318.799339 231.6816 
L 320.275041 233.7984 
L 322.045884 235.9152 
L 323.226446 237.7296 
L 324.407008 239.2416 
L 325.58757 240.7536 
L 326.472992 242.2656 
L 327.358413 243.1728 
L 327.948694 244.3824 
L 328.243835 245.2896 
L 328.538975 245.8944 
L 328.834116 246.1968 
L 329.129256 246.4992 
L 329.424397 246.4992 
L 329.719537 246.4992 
L 329.719537 246.4992 
L 329.424397 246.1968 
L 328.834116 245.8944 
L 328.243835 245.2896 
L 327.653554 244.9872 
L 327.063273 244.3824 
L 326.472992 244.08 
L 325.58757 243.4752 
L 324.702149 242.8704 
L 323.521587 242.2656 
L 322.341025 241.3584 
L 321.160463 240.7536 
L 319.979901 239.8464 
L 318.209058 239.2416 
L 316.733355 238.6368 
L 315.552793 238.032 
L 314.372231 237.4272 
L 313.191669 237.4272 
L 311.715967 237.1248 
L 310.535405 237.1248 
L 309.649983 236.8224 
L 309.354843 236.8224 
L 308.174281 237.1248 
L 307.28886 237.1248 
L 306.403438 237.1248 
L 305.518017 237.1248 
L 304.632595 237.4272 
L 304.337455 237.4272 
L 303.452033 237.4272 
L 302.566612 237.4272 
L 301.68119 237.4272 
L 301.090909 237.1248 
L 300.500628 236.8224 
L 299.910347 236.52 
L 299.320066 235.9152 
L 298.434645 235.3104 
L 298.139504 235.3104 
L 297.254083 235.008 
L 296.368661 234.7056 
L 295.48324 234.7056 
L 294.892959 235.008 
L 294.597818 235.3104 
L 295.188099 235.9152 
L 296.073521 235.9152 
L 296.663802 236.52 
L 296.663802 237.1248 
L 295.188099 238.3344 
L 294.597818 238.6368 
L 294.597818 239.544 
L 294.007537 240.4512 
L 293.417256 241.3584 
L 292.826975 241.9632 
L 292.531835 242.8704 
L 292.236694 243.7776 
L 291.646413 244.3824 
L 291.351273 244.6848 
L 291.646413 245.2896 
L 291.351273 245.8944 
L 291.351273 246.4992 
L 291.646413 246.8016 
L 291.646413 247.4064 
L 291.646413 247.7088 
L 292.236694 248.3136 
L 292.531835 248.616 
L 293.122116 248.9184 
L 293.712397 249.5232 
L 293.712397 249.8256 
L 293.712397 250.128 
L 294.007537 250.7328 
" clip-path="url(#p91375116c5)" style="fill: none; stroke: #00fa9a; stroke-width: 1.5; stroke-linecap: square"/>
   </g>
   <g id="line2d_15">
    <path d="M 182.149289 116.7696 
" clip-path="url(#p91375116c5)" style="fill: none; stroke: #00fa9a; stroke-width: 1.5; stroke-linecap: square"/>
    <defs>
     <path id="mae76ae5ee5" d="M 0 5 
C 1.326016 5 2.597899 4.473168 3.535534 3.535534 
C 4.473168 2.597899 5 1.326016 5 0 
C 5 -1.326016 4.473168 -2.597899 3.535534 -3.535534 
C 2.597899 -4.473168 1.326016 -5 0 -5 
C -1.326016 -5 -2.597899 -4.473168 -3.535534 -3.535534 
C -4.473168 -2.597899 -5 -1.326016 -5 0 
C -5 1.326016 -4.473168 2.597899 -3.535534 3.535534 
C -2.597899 4.473168 -1.326016 5 0 5 
z
" style="stroke: #00fa9a"/>
    </defs>
    <g clip-path="url(#p91375116c5)">
     <use xlink:href="#mae76ae5ee5" x="182.149289" y="116.7696" style="fill: #00fa9a; stroke: #00fa9a"/>
    </g>
   </g>
   <g id="line2d_16">
    <path d="M 294.007537 250.7328 
" clip-path="url(#p91375116c5)" style="fill: none; stroke: #00fa9a; stroke-width: 1.5; stroke-linecap: square"/>
    <defs>
     <path id="m880f769e57" d="M -5 5 
L 5 5 
L 5 -5 
L -5 -5 
z
" style="stroke: #00fa9a; stroke-linejoin: miter"/>
    </defs>
    <g clip-path="url(#p91375116c5)">
     <use xlink:href="#m880f769e57" x="294.007537" y="250.7328" style="fill: #00fa9a; stroke: #00fa9a; stroke-linejoin: miter"/>
    </g>
   </g>
   <g id="line2d_17">
    <path d="M 371.334347 250.128 
L 367.792661 243.1728 
L 363.660694 235.3104 
L 358.348165 226.5408 
L 352.150215 217.4688 
L 346.247405 209.0016 
L 340.639736 200.5344 
L 334.736926 192.672 
L 329.424397 185.4144 
L 324.702149 179.064 
L 319.979901 172.7136 
L 316.733355 166.968 
L 314.667372 162.1296 
L 313.78195 158.1984 
L 304.042314 152.1504 
L 298.139504 147.0096 
L 293.417256 142.1712 
L 288.990149 137.6352 
L 284.858182 133.704 
L 281.316496 130.0752 
L 277.184529 126.7488 
L 273.347702 123.4224 
L 270.101157 120.3984 
L 266.559471 117.6768 
L 262.722645 114.9552 
L 258.885818 112.2336 
L 254.458711 109.512 
L 250.621884 107.0928 
L 246.489917 104.976 
L 244.128793 103.1616 
L 242.35795 101.952 
L 238.521124 99.8352 
L 234.684298 98.3232 
L 232.618314 97.1136 
L 231.732893 96.5088 
L 229.666909 95.6016 
L 228.781488 95.2992 
L 227.600926 95.6016 
L 226.420364 95.6016 
L 224.35438 95.904 
L 222.288397 96.8112 
L 220.812694 98.0208 
L 219.927273 100.1376 
L 219.336992 102.2544 
L 218.746711 103.464 
L 216.975868 105.5808 
L 216.385587 108.3024 
L 214.319603 112.536 
L 212.843901 115.56 
L 211.663339 118.8864 
L 211.073058 120.3984 
L 211.073058 123.7248 
L 211.073058 128.5632 
L 210.187636 131.8896 
L 209.302215 135.216 
L 209.302215 138.5424 
L 209.007074 141.5664 
L 208.416793 144.5904 
L 208.121653 147.6144 
L 208.416793 150.0336 
L 209.007074 152.7552 
L 209.597355 154.872 
L 209.302215 156.9888 
L 210.187636 158.5008 
L 211.368198 159.7104 
L 212.843901 160.3152 
L 214.024463 160.6176 
L 214.909884 160.6176 
L 216.385587 160.3152 
L 218.15643 159.7104 
L 219.336992 159.1056 
" clip-path="url(#p91375116c5)" style="fill: none; stroke: #008000; stroke-width: 1.5; stroke-linecap: square"/>
   </g>
   <g id="line2d_18">
    <path d="M 371.334347 250.128 
" clip-path="url(#p91375116c5)" style="fill: none; stroke: #008000; stroke-width: 1.5; stroke-linecap: square"/>
    <defs>
     <path id="meb1bed8dd8" d="M 0 5 
C 1.326016 5 2.597899 4.473168 3.535534 3.535534 
C 4.473168 2.597899 5 1.326016 5 0 
C 5 -1.326016 4.473168 -2.597899 3.535534 -3.535534 
C 2.597899 -4.473168 1.326016 -5 0 -5 
C -1.326016 -5 -2.597899 -4.473168 -3.535534 -3.535534 
C -4.473168 -2.597899 -5 -1.326016 -5 0 
C -5 1.326016 -4.473168 2.597899 -3.535534 3.535534 
C -2.597899 4.473168 -1.326016 5 0 5 
z
" style="stroke: #008000"/>
    </defs>
    <g clip-path="url(#p91375116c5)">
     <use xlink:href="#meb1bed8dd8" x="371.334347" y="250.128" style="fill: #008000; stroke: #008000"/>
    </g>
   </g>
   <g id="line2d_19">
    <path d="M 219.336992 159.1056 
" clip-path="url(#p91375116c5)" style="fill: none; stroke: #008000; stroke-width: 1.5; stroke-linecap: square"/>
    <defs>
     <path id="m910503d0c2" d="M -5 5 
L 5 5 
L 5 -5 
L -5 -5 
z
" style="stroke: #008000; stroke-linejoin: miter"/>
    </defs>
    <g clip-path="url(#p91375116c5)">
     <use xlink:href="#m910503d0c2" x="219.336992" y="159.1056" style="fill: #008000; stroke: #008000; stroke-linejoin: miter"/>
    </g>
   </g>
   <g id="line2d_20">
    <path d="M 288.990149 295.1856 
L 288.104727 295.1856 
L 286.629025 294.8832 
L 284.267901 295.488 
L 283.382479 294.2784 
L 281.611636 293.976 
L 280.431074 293.3712 
L 278.955372 292.1616 
L 276.889388 291.2544 
L 276.003967 289.7424 
L 273.347702 288.2304 
L 269.806017 286.416 
L 266.854612 284.2992 
L 263.903207 282.1824 
L 261.246942 279.7632 
L 258.295537 277.344 
L 255.048992 274.6224 
L 252.097587 271.9008 
L 249.736463 269.1792 
L 245.899636 266.1552 
L 242.948231 263.4336 
L 239.996826 260.712 
L 235.86486 257.688 
L 232.028033 254.3616 
L 227.896066 251.0352 
L 224.649521 248.3136 
L 221.107835 245.592 
L 217.271008 242.568 
L 213.434182 239.8464 
L 209.007074 236.8224 
L 204.579967 233.7984 
L 199.267438 229.8672 
L 195.430612 227.1456 
L 193.069488 224.424 
L 189.822942 222.0048 
L 187.166678 219.5856 
L 184.510413 217.1664 
L 181.854149 215.0496 
L 179.493025 212.9328 
L 177.131901 211.1184 
L 175.065917 209.0016 
L 173.590215 207.4896 
L 172.409653 205.9776 
L 171.524231 204.768 
L 171.229091 203.5584 
L 171.524231 203.256 
L 172.999934 201.744 
L 174.475636 201.1392 
L 176.54162 200.5344 
L 178.312463 199.6272 
L 180.673587 199.0224 
L 183.034711 198.1152 
L 185.986116 197.8128 
L 189.527802 197.5104 
L 192.774347 197.8128 
L 194.25005 197.8128 
L 200.15286 198.1152 
L 204.875107 199.0224 
L 209.892496 199.6272 
L 216.680727 200.232 
L 225.534942 200.8368 
L 234.684298 201.744 
L 244.128793 202.6512 
L 253.278149 203.5584 
L 260.951802 204.1632 
L 265.96919 204.4656 
L 272.16714 204.768 
L 277.77481 205.6752 
L 282.792198 206.5824 
L 288.104727 207.4896 
L 292.236694 208.3968 
L 296.368661 209.304 
L 299.320066 209.9088 
L 302.861752 210.816 
L 305.518017 211.4208 
L 307.584 212.6304 
L 310.535405 214.1424 
L 312.896529 215.6544 
L 314.962512 217.1664 
L 316.733355 218.376 
L 319.094479 219.888 
L 320.275041 221.4 
L 322.045884 222.6096 
L 323.521587 223.8192 
L 324.997289 224.7264 
L 325.882711 225.6336 
L 327.358413 226.2384 
L 328.243835 226.8432 
L 328.834116 227.1456 
L 328.243835 227.448 
L 328.538975 226.8432 
L 328.834116 225.936 
L 329.129256 224.424 
L 329.424397 222.6096 
L 329.719537 220.4928 
L 330.014678 218.376 
L 330.309818 216.5616 
L 330.900099 215.0496 
L 331.49038 213.2352 
L 332.080661 211.7232 
L 332.670942 210.2112 
L 333.261223 209.0016 
L 334.146645 208.0944 
L 334.146645 206.8848 
L 334.146645 205.6752 
L 333.851504 204.768 
L 333.556364 204.1632 
L 332.670942 202.9536 
L 331.785521 202.3488 
L 330.900099 201.4416 
L 329.424397 200.5344 
L 328.243835 199.9296 
L 326.768132 199.3248 
L 325.29243 198.4176 
L 324.111868 197.8128 
L 322.931306 197.5104 
" clip-path="url(#p91375116c5)" style="fill: none; stroke: #800080; stroke-width: 1.5; stroke-linecap: square"/>
   </g>
   <g id="line2d_21">
    <path d="M 288.990149 295.1856 
" clip-path="url(#p91375116c5)" style="fill: none; stroke: #800080; stroke-width: 1.5; stroke-linecap: square"/>
    <defs>
     <path id="m03ae90e7b8" d="M 0 5 
C 1.326016 5 2.597899 4.473168 3.535534 3.535534 
C 4.473168 2.597899 5 1.326016 5 0 
C 5 -1.326016 4.473168 -2.597899 3.535534 -3.535534 
C 2.597899 -4.473168 1.326016 -5 0 -5 
C -1.326016 -5 -2.597899 -4.473168 -3.535534 -3.535534 
C -4.473168 -2.597899 -5 -1.326016 -5 0 
C -5 1.326016 -4.473168 2.597899 -3.535534 3.535534 
C -2.597899 4.473168 -1.326016 5 0 5 
z
" style="stroke: #800080"/>
    </defs>
    <g clip-path="url(#p91375116c5)">
     <use xlink:href="#m03ae90e7b8" x="288.990149" y="295.1856" style="fill: #800080; stroke: #800080"/>
    </g>
   </g>
   <g id="line2d_22">
    <path d="M 322.931306 197.5104 
" clip-path="url(#p91375116c5)" style="fill: none; stroke: #800080; stroke-width: 1.5; stroke-linecap: square"/>
    <defs>
     <path id="m577d0fd4d7" d="M -5 5 
L 5 5 
L 5 -5 
L -5 -5 
z
" style="stroke: #800080; stroke-linejoin: miter"/>
    </defs>
    <g clip-path="url(#p91375116c5)">
     <use xlink:href="#m577d0fd4d7" x="322.931306" y="197.5104" style="fill: #800080; stroke: #800080; stroke-linejoin: miter"/>
    </g>
   </g>
   <g id="line2d_23">
    <path d="M 295.188099 101.952 
L 297.549223 103.7664 
L 300.500628 105.5808 
L 301.090909 106.1856 
L 303.747174 107.6976 
L 307.28886 110.1168 
L 308.764562 111.3264 
L 310.535405 112.536 
L 312.306248 114.048 
L 314.077091 115.2576 
L 315.847934 116.7696 
L 317.323636 117.6768 
L 319.38962 119.4912 
L 322.931306 121.9104 
L 324.407008 123.4224 
L 326.177851 124.632 
L 327.948694 126.144 
L 328.834116 127.0512 
L 331.785521 129.4704 
L 333.261223 130.9824 
L 336.212628 133.4016 
L 336.802909 134.3088 
L 337.983471 135.216 
L 339.754314 137.0304 
L 340.934876 137.9376 
L 341.820298 139.1472 
L 342.705719 140.0544 
L 343.59114 141.264 
L 344.771702 143.6832 
L 345.066843 145.1952 
L 345.952264 147.312 
L 346.542545 149.4288 
L 346.542545 151.848 
L 346.247405 154.5696 
L 345.657124 157.5936 
L 346.542545 161.2224 
L 346.247405 165.1536 
L 345.361983 168.7824 
L 344.181421 172.4112 
L 343.00086 176.6448 
L 341.525157 180.576 
L 337.983471 184.2048 
L 334.441785 187.5312 
L 331.19524 191.16 
L 321.160463 201.4416 
L 318.209058 204.1632 
L 313.191669 206.5824 
L 306.993719 208.3968 
L 301.38605 209.9088 
L 296.073521 211.1184 
L 286.333884 212.9328 
L 281.611636 213.2352 
L 276.889388 212.9328 
L 267.149752 212.0256 
L 262.722645 211.1184 
L 259.476099 209.6064 
L 256.524694 208.0944 
L 251.802446 205.9776 
L 247.080198 203.5584 
L 242.653091 201.1392 
L 239.111405 198.1152 
L 230.25719 188.4384 
L 228.486347 186.3216 
L 225.830083 182.6928 
L 221.107835 177.2496 
L 217.271008 173.6208 
L 213.729322 170.5968 
L 209.597355 167.2704 
L 205.465388 164.5488 
L 203.399405 163.0368 
L 199.267438 160.6176 
L 195.430612 158.1984 
L 187.756959 153.9648 
L 178.902744 148.824 
L 177.131901 147.9168 
L 170.93395 145.1952 
L 166.211702 143.9856 
L 162.965157 143.3808 
L 157.947769 143.3808 
L 155.881785 143.6832 
L 153.815802 144.5904 
L 151.159537 145.4976 
L 148.798413 147.312 
L 148.208132 148.5216 
L 148.208132 149.4288 
L 148.503273 150.336 
L 149.978975 150.9408 
L 152.93038 151.5456 
L 155.291504 152.1504 
L 157.652628 153.36 
L 160.013752 154.872 
L 163.260298 156.384 
L 166.506843 157.5936 
L 172.114512 159.408 
L 174.475636 159.7104 
L 180.968727 159.7104 
L 182.44443 159.408 
L 185.395835 159.408 
L 186.871537 159.7104 
L 188.64238 159.7104 
L 190.413223 160.0128 
L 192.479207 160.6176 
L 195.725752 161.2224 
L 196.906314 161.2224 
L 199.562579 160.6176 
L 200.448 160.3152 
L 201.038281 159.7104 
L 201.333421 158.8032 
L 201.333421 157.896 
L 201.038281 156.6864 
L 200.448 155.1744 
L 198.677157 151.5456 
L 195.725752 147.312 
L 193.659769 144.8928 
L 189.527802 139.4496 
L 187.756959 136.1232 
L 185.690975 131.8896 
L 183.329851 127.656 
L 181.559008 122.8176 
L 178.312463 117.3744 
L 176.246479 111.9312 
L 173.590215 106.488 
L 170.93395 101.952 
L 165.916562 90.7632 
L 165.621421 88.344 
L 165.03114 85.9248 
L 164.736 83.808 
L 165.03114 81.9936 
L 165.916562 80.1792 
L 166.801983 78.6672 
L 168.572826 77.1552 
L 168.277686 77.4576 
L 165.326281 80.4816 
L 163.850579 82.9008 
L 162.670017 86.5296 
L 161.784595 90.4608 
L 161.194314 95.2992 
L 160.013752 101.6496 
L 153.520661 126.7488 
L 144.666446 157.2912 
L 139.058777 173.6208 
L 136.992793 180.576 
L 135.517091 187.8336 
L 132.860826 199.6272 
L 131.975405 204.4656 
L 130.499702 209.0016 
L 129.31914 213.2352 
L 129.31914 213.2352 
" clip-path="url(#p91375116c5)" style="fill: none; stroke: #87cefa; stroke-width: 1.5; stroke-linecap: square"/>
   </g>
   <g id="line2d_24">
    <path d="M 295.188099 101.952 
" clip-path="url(#p91375116c5)" style="fill: none; stroke: #87cefa; stroke-width: 1.5; stroke-linecap: square"/>
    <defs>
     <path id="m469fab7f57" d="M 0 5 
C 1.326016 5 2.597899 4.473168 3.535534 3.535534 
C 4.473168 2.597899 5 1.326016 5 0 
C 5 -1.326016 4.473168 -2.597899 3.535534 -3.535534 
C 2.597899 -4.473168 1.326016 -5 0 -5 
C -1.326016 -5 -2.597899 -4.473168 -3.535534 -3.535534 
C -4.473168 -2.597899 -5 -1.326016 -5 0 
C -5 1.326016 -4.473168 2.597899 -3.535534 3.535534 
C -2.597899 4.473168 -1.326016 5 0 5 
z
" style="stroke: #87cefa"/>
    </defs>
    <g clip-path="url(#p91375116c5)">
     <use xlink:href="#m469fab7f57" x="295.188099" y="101.952" style="fill: #87cefa; stroke: #87cefa"/>
    </g>
   </g>
   <g id="line2d_25">
    <path d="M 129.31914 213.2352 
" clip-path="url(#p91375116c5)" style="fill: none; stroke: #87cefa; stroke-width: 1.5; stroke-linecap: square"/>
    <defs>
     <path id="m777aa825e7" d="M -5 5 
L 5 5 
L 5 -5 
L -5 -5 
z
" style="stroke: #87cefa; stroke-linejoin: miter"/>
    </defs>
    <g clip-path="url(#p91375116c5)">
     <use xlink:href="#m777aa825e7" x="129.31914" y="213.2352" style="fill: #87cefa; stroke: #87cefa; stroke-linejoin: miter"/>
    </g>
   </g>
   <g id="line2d_26">
    <path d="M 180.673587 61.4304 
L 176.54162 63.2448 
L 172.114512 66.2688 
L 167.392264 70.2 
L 162.670017 75.0384 
L 157.357488 81.0864 
L 152.044959 88.6464 
L 149.978975 92.5776 
L 145.847008 101.0448 
L 141.715041 110.4192 
L 137.878215 120.3984 
L 134.041388 131.2848 
L 130.499702 142.776 
L 127.843438 155.1744 
L 124.892033 167.8752 
L 122.530909 180.2736 
L 120.760066 194.184 
L 118.103802 206.28 
L 115.152397 232.5888 
L 113.971835 245.592 
L 113.086413 258.5952 
L 112.496132 271.5984 
L 112.200992 283.6944 
L 113.086413 294.8832 
L 113.971835 295.488 
L 301.68119 295.488 
L 307.584 295.1856 
L 314.667372 293.976 
L 322.636165 292.464 
L 331.49038 289.7424 
L 340.934876 285.8112 
L 355.10162 278.5536 
L 364.546116 271.9008 
L 372.219769 266.1552 
L 379.598281 260.1072 
L 384.91081 254.9664 
L 389.928198 249.8256 
L 393.765025 245.592 
L 396.71643 241.9632 
L 398.487273 238.032 
L 398.487273 227.7504 
L 398.192132 225.3312 
L 397.601851 223.5168 
L 392.879603 215.0496 
L 391.699041 213.5376 
L 390.518479 211.4208 
L 389.337917 209.6064 
L 388.452496 207.4896 
L 386.386512 203.256 
L 385.796231 200.8368 
L 382.254545 191.4624 
L 381.369124 189.648 
L 380.188562 188.4384 
L 378.71286 187.2288 
L 376.942017 187.2288 
L 375.171174 186.9264 
L 373.10519 187.2288 
L 371.039207 187.2288 
L 368.678083 187.5312 
L 363.955835 188.7408 
L 361.29957 189.648 
L 354.806479 191.4624 
L 351.559934 192.672 
L 345.066843 195.696 
L 337.983471 198.72 
L 334.146645 200.232 
L 331.49038 201.744 
L 322.636165 208.0944 
L 316.143074 212.328 
L 314.962512 213.2352 
L 312.011107 215.6544 
L 310.535405 217.1664 
L 309.945124 218.0736 
L 307.87914 219.2832 
L 307.28886 219.888 
L 306.108298 220.7952 
L 306.698579 222.0048 
L 307.584 223.2144 
L 308.764562 224.424 
L 309.945124 225.0288 
L 310.240264 225.6336 
L 311.715967 226.2384 
L 312.896529 225.936 
L 313.48681 225.6336 
L 314.667372 224.424 
L 314.962512 223.5168 
L 314.962512 222.912 
L 313.48681 221.4 
L 311.125686 220.4928 
L 309.354843 219.5856 
L 307.87914 218.376 
L 307.584 217.7712 
L 306.403438 216.864 
L 304.927736 216.2592 
L 303.747174 215.6544 
L 302.271471 215.0496 
L 299.320066 214.4448 
L 296.663802 213.84 
L 294.302678 213.5376 
L 289.87557 213.2352 
L 287.514446 212.6304 
L 285.743603 212.328 
L 284.267901 211.4208 
L 283.087339 210.2112 
L 282.201917 208.6992 
L 281.906777 207.1872 
L 282.201917 205.0704 
L 282.792198 202.6512 
L 284.267901 200.232 
L 286.333884 197.208 
L 288.695008 194.4864 
L 291.351273 192.0672 
L 294.597818 190.5552 
L 297.549223 188.136 
L 300.500628 186.3216 
L 309.059702 182.3904 
L 319.094479 180.576 
L 322.045884 180.8784 
L 324.997289 181.4832 
L 327.948694 181.7856 
L 335.622347 183.6 
L 337.983471 183.9024 
L 340.344595 184.8096 
L 342.410579 185.4144 
L 343.886281 186.624 
L 346.247405 187.2288 
L 347.723107 187.8336 
L 348.313388 188.4384 
L 349.789091 189.0432 
L 351.855074 189.648 
L 353.625917 189.9504 
L 355.39676 189.9504 
L 357.167603 189.648 
L 360.119008 188.4384 
L 362.775273 186.3216 
L 363.955835 185.112 
L 365.136397 184.2048 
L 366.316959 182.9952 
L 367.20238 181.7856 
L 368.087802 180.8784 
L 368.678083 179.6688 
L 368.973223 178.4592 
L 369.858645 176.6448 
L 369.858645 176.04 
L 370.744066 173.6208 
L 370.744066 173.6208 
L 370.153785 173.6208 
L 369.268364 174.2256 
L 366.316959 177.2496 
L 363.955835 179.9712 
L 360.709289 183.2976 
L 354.511339 190.8576 
L 350.969653 195.0912 
L 347.132826 199.0224 
L 343.00086 202.9536 
L 339.164033 207.792 
L 335.032066 212.6304 
L 331.49038 217.4688 
L 328.538975 221.0976 
L 324.111868 225.0288 
L 319.38962 228.3552 
L 312.011107 234.7056 
L 308.764562 236.8224 
L 304.337455 240.4512 
L 302.861752 241.056 
L 301.68119 241.6608 
L 300.205488 241.6608 
L 300.205488 240.7536 
L 301.090909 240.1488 
L 301.090909 239.2416 
L 301.68119 236.8224 
L 302.861752 235.3104 
L 303.747174 233.7984 
L 305.518017 231.984 
L 306.108298 230.472 
L 306.403438 228.6576 
L 306.993719 226.8432 
L 307.28886 225.0288 
L 306.403438 218.6784 
L 305.518017 217.1664 
L 304.042314 215.9568 
L 300.205488 214.7472 
L 297.844364 214.1424 
L 295.48324 213.84 
L 291.351273 212.6304 
L 284.563041 211.1184 
L 281.906777 210.816 
L 279.250512 210.2112 
L 276.003967 209.304 
L 272.16714 207.792 
L 268.625455 206.5824 
L 265.378909 204.768 
L 261.837223 202.9536 
L 258.885818 200.5344 
L 255.934413 198.4176 
L 254.16357 196.6032 
L 252.687868 195.3936 
L 251.507306 194.184 
L 250.621884 192.9744 
L 250.031603 191.7648 
L 249.736463 191.4624 
L 250.031603 191.16 
L 251.507306 191.4624 
L 253.278149 192.672 
L 256.229554 194.184 
L 266.854612 198.4176 
L 278.365091 202.3488 
L 283.97276 204.768 
L 288.990149 207.4896 
L 294.007537 210.5136 
L 299.024926 213.84 
L 302.861752 216.864 
L 306.403438 219.888 
L 308.764562 223.2144 
L 312.601388 226.5408 
L 317.323636 229.2624 
L 322.341025 231.984 
L 321.160463 234.7056 
L 321.160463 237.1248 
L 320.865322 239.2416 
L 322.931306 241.3584 
L 325.58757 243.1728 
L 326.472992 244.3824 
L 326.768132 245.8944 
L 325.58757 246.8016 
L 324.407008 248.0112 
L 323.521587 249.2208 
L 323.226446 250.128 
L 323.226446 251.0352 
L 321.750744 252.5472 
L 321.750744 253.152 
L 320.865322 254.664 
L 320.570182 255.2688 
L 319.68476 256.7808 
L 318.799339 257.688 
L 317.913917 258.2928 
L 315.257653 258.8976 
L 313.78195 258.8976 
L 312.601388 259.2 
L 312.011107 258.8976 
L 311.420826 258.8976 
L 311.715967 258.8976 
L 312.011107 258.5952 
L 311.715967 258.5952 
L 310.240264 258.2928 
L 309.649983 258.2928 
L 307.87914 259.5024 
L 307.28886 260.1072 
L 306.403438 261.9216 
L 306.403438 262.5264 
L 307.28886 263.4336 
L 306.993719 263.1312 
L 306.403438 262.8288 
L 306.108298 262.224 
L 306.108298 261.0144 
L 307.28886 259.5024 
L 308.174281 257.3856 
L 307.28886 255.2688 
L 302.861752 250.128 
L 300.795769 247.4064 
L 295.48324 241.3584 
L 293.712397 238.6368 
L 293.417256 236.52 
L 293.417256 234.4032 
L 292.236694 231.0768 
L 291.646413 229.2624 
L 291.351273 227.448 
L 291.351273 225.936 
L 291.646413 224.7264 
L 292.826975 224.1216 
L 294.597818 223.8192 
L 296.663802 224.1216 
L 299.320066 226.2384 
L 304.632595 229.5648 
L 311.420826 234.4032 
L 314.077091 242.2656 
L 319.68476 251.3376 
L 325.882711 262.5264 
L 327.948694 272.808 
L 330.309818 280.9728 
L 339.459174 289.7424 
L 340.639736 294.2784 
L 341.525157 293.6736 
L 343.886281 290.3472 
L 344.771702 288.2304 
L 347.427967 283.392 
L 349.19881 280.9728 
L 350.084231 278.5536 
L 352.150215 275.5296 
L 353.330777 272.808 
L 353.625917 270.0864 
L 353.625917 267.0624 
L 354.216198 264.0384 
L 355.987041 260.712 
L 357.757884 257.9904 
L 357.167603 256.176 
L 355.10162 255.5712 
L 353.330777 255.5712 
L 348.608529 256.7808 
L 348.018248 257.0832 
L 346.542545 257.3856 
L 345.066843 258.2928 
L 343.59114 258.5952 
L 341.525157 258.5952 
L 338.573752 257.688 
L 335.032066 257.688 
L 332.670942 257.9904 
L 330.309818 257.9904 
L 330.014678 257.688 
L 329.719537 257.0832 
L 330.309818 255.8736 
L 330.309818 255.8736 
" clip-path="url(#p91375116c5)" style="fill: none; stroke: #ffa500; stroke-width: 1.5; stroke-linecap: square"/>
   </g>
   <g id="line2d_27">
    <path d="M 180.673587 61.4304 
" clip-path="url(#p91375116c5)" style="fill: none; stroke: #ffa500; stroke-width: 1.5; stroke-linecap: square"/>
    <defs>
     <path id="m8c27aeaab3" d="M 0 5 
C 1.326016 5 2.597899 4.473168 3.535534 3.535534 
C 4.473168 2.597899 5 1.326016 5 0 
C 5 -1.326016 4.473168 -2.597899 3.535534 -3.535534 
C 2.597899 -4.473168 1.326016 -5 0 -5 
C -1.326016 -5 -2.597899 -4.473168 -3.535534 -3.535534 
C -4.473168 -2.597899 -5 -1.326016 -5 0 
C -5 1.326016 -4.473168 2.597899 -3.535534 3.535534 
C -2.597899 4.473168 -1.326016 5 0 5 
z
" style="stroke: #ffa500"/>
    </defs>
    <g clip-path="url(#p91375116c5)">
     <use xlink:href="#m8c27aeaab3" x="180.673587" y="61.4304" style="fill: #ffa500; stroke: #ffa500"/>
    </g>
   </g>
   <g id="line2d_28">
    <path d="M 330.309818 255.8736 
" clip-path="url(#p91375116c5)" style="fill: none; stroke: #ffa500; stroke-width: 1.5; stroke-linecap: square"/>
    <defs>
     <path id="m11e710a401" d="M -5 5 
L 5 5 
L 5 -5 
L -5 -5 
z
" style="stroke: #ffa500; stroke-linejoin: miter"/>
    </defs>
    <g clip-path="url(#p91375116c5)">
     <use xlink:href="#m11e710a401" x="330.309818" y="255.8736" style="fill: #ffa500; stroke: #ffa500; stroke-linejoin: miter"/>
    </g>
   </g>
   <g id="line2d_29">
    <path d="M 182.44443 68.0832 
L 183.329851 68.0832 
L 186.871537 68.9904 
L 187.756959 69.2928 
L 190.118083 69.8976 
L 192.184066 70.5024 
L 196.611174 71.712 
L 198.086876 72.0144 
L 201.333421 72.9216 
L 204.284826 73.8288 
L 207.531372 75.0384 
L 211.073058 75.9456 
L 214.909884 77.1552 
L 218.746711 78.3648 
L 224.944661 80.4816 
L 227.010645 81.0864 
L 233.208595 83.2032 
L 235.274579 84.1104 
L 239.701686 85.6224 
L 244.128793 87.4368 
L 250.031603 89.856 
L 254.458711 91.9728 
L 259.476099 93.7872 
L 263.608066 96.2064 
L 268.330314 98.3232 
L 272.757421 100.7424 
L 276.594248 103.1616 
L 280.726215 105.8832 
L 285.153322 108.6048 
L 289.285289 111.6288 
L 291.056132 113.1408 
L 294.892959 116.1648 
L 301.38605 121.0032 
L 306.403438 124.632 
L 311.125686 127.9584 
L 313.78195 131.5872 
L 316.143074 135.216 
L 318.799339 138.5424 
L 321.455603 142.1712 
L 322.931306 143.6832 
L 325.882711 147.0096 
L 330.309818 151.5456 
L 333.261223 154.2672 
L 334.441785 155.7792 
L 337.983471 159.408 
L 340.344595 161.8272 
L 342.115438 163.944 
L 344.181421 166.0608 
L 345.952264 167.8752 
L 347.723107 169.6896 
L 349.49395 170.8992 
L 350.379372 171.504 
L 351.855074 172.4112 
L 353.035636 173.3184 
L 355.10162 174.2256 
L 356.577322 174.8304 
L 357.757884 175.1328 
L 358.643306 175.1328 
L 359.528727 175.1328 
L 360.414149 174.8304 
L 361.29957 174.528 
L 361.889851 174.528 
L 362.480132 174.2256 
L 362.775273 173.9232 
L 363.070413 173.6208 
L 363.365554 173.016 
L 363.955835 172.4112 
L 363.955835 171.8064 
L 364.250975 170.8992 
L 364.841256 169.992 
L 365.136397 168.7824 
L 365.726678 167.2704 
L 366.316959 165.456 
L 366.90724 163.6416 
L 367.792661 162.1296 
L 368.087802 160.6176 
L 368.678083 158.8032 
L 368.678083 157.2912 
L 368.382942 155.7792 
L 368.087802 153.9648 
L 367.792661 152.1504 
L 367.20238 150.6384 
L 366.90724 148.824 
L 366.316959 147.0096 
L 365.431537 144.5904 
L 365.136397 142.776 
L 364.546116 141.264 
" clip-path="url(#p91375116c5)" style="fill: none; stroke: #ff69b4; stroke-width: 1.5; stroke-linecap: square"/>
   </g>
   <g id="line2d_30">
    <path d="M 182.44443 68.0832 
" clip-path="url(#p91375116c5)" style="fill: none; stroke: #ff69b4; stroke-width: 1.5; stroke-linecap: square"/>
    <defs>
     <path id="m72f848b8b4" d="M 0 5 
C 1.326016 5 2.597899 4.473168 3.535534 3.535534 
C 4.473168 2.597899 5 1.326016 5 0 
C 5 -1.326016 4.473168 -2.597899 3.535534 -3.535534 
C 2.597899 -4.473168 1.326016 -5 0 -5 
C -1.326016 -5 -2.597899 -4.473168 -3.535534 -3.535534 
C -4.473168 -2.597899 -5 -1.326016 -5 0 
C -5 1.326016 -4.473168 2.597899 -3.535534 3.535534 
C -2.597899 4.473168 -1.326016 5 0 5 
z
" style="stroke: #ff69b4"/>
    </defs>
    <g clip-path="url(#p91375116c5)">
     <use xlink:href="#m72f848b8b4" x="182.44443" y="68.0832" style="fill: #ff69b4; stroke: #ff69b4"/>
    </g>
   </g>
   <g id="line2d_31">
    <path d="M 364.546116 141.264 
" clip-path="url(#p91375116c5)" style="fill: none; stroke: #ff69b4; stroke-width: 1.5; stroke-linecap: square"/>
    <defs>
     <path id="m942fc7fa71" d="M -5 5 
L 5 5 
L 5 -5 
L -5 -5 
z
" style="stroke: #ff69b4; stroke-linejoin: miter"/>
    </defs>
    <g clip-path="url(#p91375116c5)">
     <use xlink:href="#m942fc7fa71" x="364.546116" y="141.264" style="fill: #ff69b4; stroke: #ff69b4; stroke-linejoin: miter"/>
    </g>
   </g>
   <g id="line2d_32">
    <path d="M 387.862215 262.5264 
L 389.042777 263.4336 
L 389.633058 264.3408 
L 389.633058 264.6432 
L 390.223339 264.9456 
L 390.518479 265.248 
L 390.223339 265.248 
L 390.223339 265.248 
L 389.928198 264.6432 
L 389.633058 264.0384 
L 389.337917 263.1312 
L 388.452496 261.9216 
L 387.271934 260.712 
L 386.091372 258.8976 
L 384.615669 257.3856 
L 383.139967 255.2688 
L 381.664264 253.152 
L 379.30314 250.4304 
L 376.056595 248.0112 
L 373.400331 245.2896 
L 372.219769 242.568 
L 369.268364 239.2416 
L 366.021818 235.9152 
L 362.480132 232.8912 
L 358.643306 229.2624 
L 354.511339 225.6336 
L 350.674512 222.0048 
L 345.952264 218.0736 
L 339.754314 212.328 
L 333.556364 208.0944 
L 329.719537 204.4656 
L 327.063273 202.3488 
L 319.68476 196.3008 
L 316.733355 194.184 
L 310.535405 190.2528 
L 305.518017 186.3216 
L 295.48324 180.576 
L 291.646413 178.7616 
L 285.448463 174.8304 
L 279.250512 171.2016 
L 273.642843 167.2704 
L 267.740033 163.6416 
L 262.722645 160.0128 
L 258.000397 156.384 
L 248.851041 151.2432 
L 242.653091 148.2192 
L 239.996826 146.7072 
L 234.094017 144.288 
L 226.420364 140.9616 
L 224.05924 139.752 
L 216.975868 136.728 
L 212.843901 135.216 
L 208.416793 133.4016 
L 204.875107 131.8896 
L 202.218843 130.3776 
L 199.267438 129.168 
L 198.086876 128.5632 
L 195.725752 127.3536 
L 193.364628 126.144 
L 191.888926 125.2368 
L 190.413223 124.3296 
L 190.118083 123.4224 
L 189.822942 121.9104 
L 190.413223 120.7008 
L 191.298645 119.4912 
L 192.184066 117.6768 
L 193.069488 115.8624 
L 194.25005 114.048 
L 195.430612 112.536 
L 196.611174 111.024 
L 197.791736 110.4192 
L 198.972298 108.9072 
L 200.448 108.3024 
L 201.923702 107.3952 
L 203.399405 106.7904 
L 204.875107 105.8832 
L 206.941091 105.2784 
L 209.302215 104.3712 
L 212.25362 103.1616 
L 214.909884 101.952 
L 218.15643 100.1376 
L 221.698116 98.928 
L 225.239802 98.0208 
L 228.781488 97.7184 
L 232.028033 98.0208 
L 234.979438 98.6256 
L 237.930843 99.5328 
L 240.587107 100.7424 
L 243.538512 102.2544 
L 246.194777 104.0688 
L 248.26076 105.8832 
L 250.621884 108 
L 252.687868 110.1168 
L 254.753851 112.536 
L 256.819835 115.2576 
L 258.885818 117.6768 
L 260.951802 120.7008 
L 263.312926 123.7248 
L 265.378909 126.7488 
L 267.740033 129.7728 
L 269.806017 132.7968 
" clip-path="url(#p91375116c5)" style="fill: none; stroke: #8a2be2; stroke-width: 1.5; stroke-linecap: square"/>
   </g>
   <g id="line2d_33">
    <path d="M 387.862215 262.5264 
" clip-path="url(#p91375116c5)" style="fill: none; stroke: #8a2be2; stroke-width: 1.5; stroke-linecap: square"/>
    <defs>
     <path id="m9506da0241" d="M 0 5 
C 1.326016 5 2.597899 4.473168 3.535534 3.535534 
C 4.473168 2.597899 5 1.326016 5 0 
C 5 -1.326016 4.473168 -2.597899 3.535534 -3.535534 
C 2.597899 -4.473168 1.326016 -5 0 -5 
C -1.326016 -5 -2.597899 -4.473168 -3.535534 -3.535534 
C -4.473168 -2.597899 -5 -1.326016 -5 0 
C -5 1.326016 -4.473168 2.597899 -3.535534 3.535534 
C -2.597899 4.473168 -1.326016 5 0 5 
z
" style="stroke: #8a2be2"/>
    </defs>
    <g clip-path="url(#p91375116c5)">
     <use xlink:href="#m9506da0241" x="387.862215" y="262.5264" style="fill: #8a2be2; stroke: #8a2be2"/>
    </g>
   </g>
   <g id="line2d_34">
    <path d="M 269.806017 132.7968 
" clip-path="url(#p91375116c5)" style="fill: none; stroke: #8a2be2; stroke-width: 1.5; stroke-linecap: square"/>
    <defs>
     <path id="mc89a2e728d" d="M -5 5 
L 5 5 
L 5 -5 
L -5 -5 
z
" style="stroke: #8a2be2; stroke-linejoin: miter"/>
    </defs>
    <g clip-path="url(#p91375116c5)">
     <use xlink:href="#mc89a2e728d" x="269.806017" y="132.7968" style="fill: #8a2be2; stroke: #8a2be2; stroke-linejoin: miter"/>
    </g>
   </g>
   <g id="line2d_35">
    <path d="M 270.691438 191.7648 
L 268.035174 189.648 
L 265.378909 187.8336 
L 262.722645 186.0192 
L 257.410116 183.2976 
L 255.639273 182.3904 
L 252.687868 180.576 
L 248.851041 178.7616 
L 245.014215 176.9472 
L 241.472529 175.1328 
L 238.521124 173.6208 
L 234.389157 172.1088 
L 230.552331 170.5968 
L 227.010645 169.0848 
L 223.468959 167.5728 
L 220.222413 166.3632 
L 218.15643 165.1536 
L 215.205025 163.944 
L 211.663339 162.1296 
L 209.007074 160.92 
L 206.64595 160.0128 
L 203.989686 159.1056 
L 201.628562 158.1984 
L 199.562579 157.2912 
L 197.496595 156.384 
L 195.725752 155.4768 
L 194.25005 154.872 
L 192.774347 154.2672 
L 191.593785 153.36 
L 190.708364 153.0576 
L 189.232661 152.7552 
L 186.871537 152.4528 
L 185.100694 152.4528 
L 184.215273 152.7552 
L 181.854149 153.36 
L 180.968727 153.6624 
L 178.607603 155.1744 
L 177.427041 156.384 
L 175.951339 157.896 
L 174.475636 159.408 
L 173.590215 161.5248 
L 172.704793 163.6416 
L 171.819372 165.456 
L 171.524231 167.8752 
L 171.229091 168.48 
L 171.229091 171.504 
L 171.229091 173.6208 
L 171.524231 176.04 
L 171.524231 176.9472 
L 171.524231 180.576 
L 171.524231 182.9952 
L 172.409653 185.4144 
L 173.295074 187.8336 
L 173.590215 189.3456 
L 174.180496 194.184 
L 174.475636 195.696 
L 175.065917 198.72 
L 175.656198 201.744 
L 175.951339 204.768 
L 176.246479 208.3968 
L 175.951339 211.7232 
L 175.656198 215.352 
L 175.361058 218.9808 
L 174.770777 222.6096 
L 174.180496 225.936 
L 172.999934 230.7744 
L 172.704793 231.984 
L 171.819372 236.2176 
L 171.229091 238.6368 
L 170.93395 241.056 
L 170.93395 243.4752 
" clip-path="url(#p91375116c5)" style="fill: none; stroke: #ff00ff; stroke-width: 1.5; stroke-linecap: square"/>
   </g>
   <g id="line2d_36">
    <path d="M 270.691438 191.7648 
" clip-path="url(#p91375116c5)" style="fill: none; stroke: #ff00ff; stroke-width: 1.5; stroke-linecap: square"/>
    <defs>
     <path id="m773214d1e7" d="M 0 5 
C 1.326016 5 2.597899 4.473168 3.535534 3.535534 
C 4.473168 2.597899 5 1.326016 5 0 
C 5 -1.326016 4.473168 -2.597899 3.535534 -3.535534 
C 2.597899 -4.473168 1.326016 -5 0 -5 
C -1.326016 -5 -2.597899 -4.473168 -3.535534 -3.535534 
C -4.473168 -2.597899 -5 -1.326016 -5 0 
C -5 1.326016 -4.473168 2.597899 -3.535534 3.535534 
C -2.597899 4.473168 -1.326016 5 0 5 
z
" style="stroke: #ff00ff"/>
    </defs>
    <g clip-path="url(#p91375116c5)">
     <use xlink:href="#m773214d1e7" x="270.691438" y="191.7648" style="fill: #ff00ff; stroke: #ff00ff"/>
    </g>
   </g>
   <g id="line2d_37">
    <path d="M 170.93395 243.4752 
" clip-path="url(#p91375116c5)" style="fill: none; stroke: #ff00ff; stroke-width: 1.5; stroke-linecap: square"/>
    <defs>
     <path id="ma951f448cb" d="M -5 5 
L 5 5 
L 5 -5 
L -5 -5 
z
" style="stroke: #ff00ff; stroke-linejoin: miter"/>
    </defs>
    <g clip-path="url(#p91375116c5)">
     <use xlink:href="#ma951f448cb" x="170.93395" y="243.4752" style="fill: #ff00ff; stroke: #ff00ff; stroke-linejoin: miter"/>
    </g>
   </g>
   <g id="line2d_38">
    <path d="M 262.722645 165.7584 
L 258.295537 163.6416 
L 254.753851 161.5248 
L 251.212165 159.7104 
L 247.670479 157.5936 
L 244.423934 155.4768 
L 240.291967 153.6624 
L 235.569719 152.1504 
L 231.437752 150.336 
L 225.534942 147.9168 
L 223.764099 147.312 
L 218.15643 145.1952 
L 214.319603 143.6832 
L 210.482777 142.4736 
L 207.236231 141.264 
L 205.760529 140.3568 
L 201.038281 138.24 
L 197.791736 136.728 
L 194.840331 135.5184 
L 193.364628 134.9136 
L 189.822942 133.4016 
L 185.100694 131.2848 
L 181.854149 130.0752 
L 178.902744 128.8656 
L 175.656198 127.656 
L 172.999934 126.4464 
L 171.229091 125.8416 
L 167.982545 124.9344 
L 163.260298 124.3296 
L 160.308893 124.3296 
L 156.472066 124.3296 
L 154.996364 124.3296 
L 151.159537 124.632 
L 146.437289 125.2368 
L 143.485884 125.5392 
L 140.239339 126.4464 
L 137.287934 127.656 
L 133.746248 128.5632 
L 130.499702 129.7728 
L 126.958017 131.2848 
L 124.006612 132.7968 
L 122.530909 133.704 
L 118.694083 136.728 
L 117.21838 137.9376 
L 114.857256 140.3568 
L 112.200992 143.0784 
L 110.135008 145.8 
L 108.069025 148.824 
L 106.003041 151.848 
L 103.937058 155.1744 
L 102.461355 158.8032 
L 100.395372 164.2464 
L 99.21481 168.1776 
L 98.624529 170.2944 
L 97.739107 175.4352 
L 98.034248 179.3664 
L 98.034248 181.4832 
L 99.21481 186.624 
L 99.805091 188.4384 
L 100.690512 192.0672 
L 102.461355 195.9984 
L 103.346777 197.5104 
L 105.11762 199.9296 
L 107.183603 202.6512 
L 109.544727 205.0704 
L 111.905851 207.1872 
L 116.037818 210.2112 
L 117.513521 211.1184 
L 120.169785 212.9328 
L 124.596893 215.352 
L 127.843438 217.1664 
L 130.794843 218.9808 
L 132.565686 219.888 
L 135.812231 221.7024 
" clip-path="url(#p91375116c5)" style="fill: none; stroke: #20b2aa; stroke-width: 1.5; stroke-linecap: square"/>
   </g>
   <g id="line2d_39">
    <path d="M 262.722645 165.7584 
" clip-path="url(#p91375116c5)" style="fill: none; stroke: #20b2aa; stroke-width: 1.5; stroke-linecap: square"/>
    <defs>
     <path id="mf92418183a" d="M 0 5 
C 1.326016 5 2.597899 4.473168 3.535534 3.535534 
C 4.473168 2.597899 5 1.326016 5 0 
C 5 -1.326016 4.473168 -2.597899 3.535534 -3.535534 
C 2.597899 -4.473168 1.326016 -5 0 -5 
C -1.326016 -5 -2.597899 -4.473168 -3.535534 -3.535534 
C -4.473168 -2.597899 -5 -1.326016 -5 0 
C -5 1.326016 -4.473168 2.597899 -3.535534 3.535534 
C -2.597899 4.473168 -1.326016 5 0 5 
z
" style="stroke: #20b2aa"/>
    </defs>
    <g clip-path="url(#p91375116c5)">
     <use xlink:href="#mf92418183a" x="262.722645" y="165.7584" style="fill: #20b2aa; stroke: #20b2aa"/>
    </g>
   </g>
   <g id="line2d_40">
    <path d="M 135.812231 221.7024 
" clip-path="url(#p91375116c5)" style="fill: none; stroke: #20b2aa; stroke-width: 1.5; stroke-linecap: square"/>
    <defs>
     <path id="m39a02b44e8" d="M -5 5 
L 5 5 
L 5 -5 
L -5 -5 
z
" style="stroke: #20b2aa; stroke-linejoin: miter"/>
    </defs>
    <g clip-path="url(#p91375116c5)">
     <use xlink:href="#m39a02b44e8" x="135.812231" y="221.7024" style="fill: #20b2aa; stroke: #20b2aa; stroke-linejoin: miter"/>
    </g>
   </g>
   <g id="line2d_41">
    <path d="M 378.122579 135.5184 
L 376.351736 134.0064 
L 374.580893 132.7968 
L 372.81005 131.2848 
L 370.744066 129.7728 
L 368.382942 128.2608 
L 366.316959 127.0512 
L 363.660694 125.2368 
L 361.00443 123.7248 
L 358.938446 122.5152 
L 357.167603 121.0032 
L 354.806479 119.4912 
L 352.150215 117.9792 
L 349.789091 116.4672 
L 347.132826 114.9552 
L 344.771702 113.4432 
L 342.410579 111.9312 
L 338.278612 109.8144 
L 337.09805 108.9072 
L 334.736926 107.6976 
L 332.080661 106.1856 
L 328.834116 104.6736 
L 325.58757 103.1616 
L 322.045884 101.3472 
L 318.209058 99.8352 
L 314.077091 98.0208 
L 310.535405 96.8112 
L 306.993719 95.2992 
L 304.927736 94.9968 
L 303.156893 94.392 
L 299.615207 93.4848 
L 297.549223 93.1824 
L 288.695008 91.9728 
L 281.906777 91.9728 
L 277.479669 92.5776 
L 273.052562 93.4848 
L 268.330314 94.9968 
L 263.017785 97.1136 
L 256.819835 99.2304 
L 250.917025 101.6496 
L 244.719074 104.3712 
L 239.111405 107.3952 
L 232.028033 110.7216 
L 224.944661 114.048 
L 217.861289 117.9792 
L 210.187636 121.9104 
L 203.104264 126.144 
L 196.020893 130.3776 
L 188.937521 134.3088 
L 182.149289 138.8448 
L 177.427041 141.5664 
L 173.885355 144.8928 
L 169.163107 148.2192 
L 163.850579 151.5456 
L 159.423471 154.2672 
L 155.881785 156.6864 
L 152.044959 159.1056 
L 148.798413 161.5248 
L 145.551868 163.6416 
L 142.010182 165.7584 
L 139.353917 166.968 
L 137.583074 168.1776 
L 136.107372 169.0848 
L 135.812231 169.6896 
L 135.517091 170.5968 
L 136.107372 171.2016 
L 136.992793 172.1088 
L 137.878215 173.016 
L 138.763636 174.528 
L 139.944198 176.04 
L 141.419901 177.8544 
L 143.485884 179.9712 
L 144.961587 182.088 
L 146.73243 184.2048 
L 148.798413 186.624 
L 151.159537 188.7408 
L 154.110942 190.5552 
L 156.767207 192.672 
L 159.128331 194.4864 
L 162.079736 196.6032 
L 165.326281 198.4176 
L 168.572826 200.232 
L 172.114512 202.3488 
L 175.656198 204.1632 
L 179.493025 206.28 
L 183.624992 208.0944 
L 188.052099 210.2112 
L 192.774347 212.0256 
L 197.791736 214.4448 
L 202.809124 216.864 
L 207.826512 218.9808 
L 212.843901 221.4 
L 217.861289 223.5168 
L 222.583537 225.6336 
L 228.486347 228.0528 
" clip-path="url(#p91375116c5)" style="fill: none; stroke: #a52a2a; stroke-width: 1.5; stroke-linecap: square"/>
   </g>
   <g id="line2d_42">
    <path d="M 378.122579 135.5184 
" clip-path="url(#p91375116c5)" style="fill: none; stroke: #a52a2a; stroke-width: 1.5; stroke-linecap: square"/>
    <defs>
     <path id="mff0fb6e55d" d="M 0 5 
C 1.326016 5 2.597899 4.473168 3.535534 3.535534 
C 4.473168 2.597899 5 1.326016 5 0 
C 5 -1.326016 4.473168 -2.597899 3.535534 -3.535534 
C 2.597899 -4.473168 1.326016 -5 0 -5 
C -1.326016 -5 -2.597899 -4.473168 -3.535534 -3.535534 
C -4.473168 -2.597899 -5 -1.326016 -5 0 
C -5 1.326016 -4.473168 2.597899 -3.535534 3.535534 
C -2.597899 4.473168 -1.326016 5 0 5 
z
" style="stroke: #a52a2a"/>
    </defs>
    <g clip-path="url(#p91375116c5)">
     <use xlink:href="#mff0fb6e55d" x="378.122579" y="135.5184" style="fill: #a52a2a; stroke: #a52a2a"/>
    </g>
   </g>
   <g id="line2d_43">
    <path d="M 228.486347 228.0528 
" clip-path="url(#p91375116c5)" style="fill: none; stroke: #a52a2a; stroke-width: 1.5; stroke-linecap: square"/>
    <defs>
     <path id="m5ebca307f9" d="M -5 5 
L 5 5 
L 5 -5 
L -5 -5 
z
" style="stroke: #a52a2a; stroke-linejoin: miter"/>
    </defs>
    <g clip-path="url(#p91375116c5)">
     <use xlink:href="#m5ebca307f9" x="228.486347" y="228.0528" style="fill: #a52a2a; stroke: #a52a2a; stroke-linejoin: miter"/>
    </g>
   </g>
   <g id="line2d_44">
    <path d="M 270.396298 71.4096 
L 268.330314 71.1072 
L 265.378909 70.2 
L 255.639273 68.0832 
L 253.86843 67.7808 
L 252.392727 67.7808 
L 251.507306 67.4784 
L 239.111405 65.664 
L 237.635702 65.664 
L 236.16 65.3616 
L 233.208595 65.3616 
L 231.437752 65.0592 
L 226.125223 65.0592 
L 224.649521 64.7568 
L 222.878678 64.7568 
L 214.614744 63.8496 
L 211.958479 63.2448 
L 208.711934 62.64 
L 205.760529 61.7328 
L 202.513983 60.5232 
L 198.382017 59.3136 
L 188.64238 56.8944 
L 183.034711 55.6848 
L 177.131901 54.7776 
L 165.326281 53.568 
L 152.93038 53.568 
L 146.73243 53.8704 
L 134.631669 55.6848 
L 129.31914 56.8944 
L 123.711471 58.4064 
L 118.103802 60.5232 
L 113.086413 62.64 
L 103.641917 67.7808 
L 99.50995 70.8048 
L 92.131438 78.3648 
L 86.818909 85.32 
L 84.457785 88.9488 
L 82.686942 92.5776 
L 79.440397 99.8352 
L 78.259835 103.1616 
L 77.079273 108.9072 
L 77.079273 110.4192 
L 77.669554 120.3984 
L 78.259835 127.3536 
L 80.620959 133.4016 
L 83.277223 136.728 
L 85.933488 140.3568 
L 92.721719 146.4048 
L 95.082843 148.2192 
L 98.034248 149.7312 
L 100.690512 151.2432 
L 103.346777 152.1504 
L 106.298182 153.36 
L 111.31557 154.872 
L 112.791273 155.4768 
L 121.940628 158.1984 
L 124.892033 159.408 
L 129.909421 161.2224 
L 131.385124 161.5248 
L 134.631669 163.0368 
L 139.649058 165.1536 
L 141.12476 166.0608 
L 143.485884 167.8752 
L 146.142149 169.6896 
L 149.093554 172.1088 
L 150.569256 173.016 
L 152.93038 175.1328 
L 156.176926 178.4592 
L 158.53805 180.576 
L 160.899174 182.9952 
L 162.374876 184.8096 
L 165.03114 187.2288 
L 170.343669 191.4624 
L 172.999934 193.2768 
L 175.656198 195.3936 
L 179.493025 198.1152 
L 180.968727 199.0224 
L 183.624992 200.8368 
L 186.281256 202.9536 
L 190.708364 206.8848 
L 192.479207 208.6992 
L 196.906314 215.0496 
L 197.791736 217.1664 
L 198.677157 218.9808 
L 199.267438 220.7952 
L 200.15286 222.3072 
L 200.74314 223.8192 
L 201.628562 225.0288 
L 202.809124 227.7504 
L 203.694545 228.96 
L 205.170248 231.984 
L 205.170248 232.2864 
L 204.875107 232.8912 
L 203.989686 233.496 
L 203.694545 233.496 
L 202.513983 234.1008 
L 200.74314 234.4032 
L 198.086876 234.4032 
L 194.840331 234.7056 
L 190.413223 233.7984 
L 188.937521 233.1936 
L 185.690975 232.5888 
L 182.44443 231.0768 
L 178.902744 229.8672 
L 175.065917 228.0528 
L 171.819372 226.2384 
L 165.326281 222.912 
L 160.604033 221.0976 
L 158.242909 220.4928 
L 155.291504 219.888 
L 152.044959 218.9808 
L 149.093554 218.376 
L 144.666446 217.7712 
L 143.781025 217.4688 
L 141.419901 216.2592 
L 138.763636 215.6544 
L 136.992793 214.4448 
L 133.451107 213.2352 
L 131.975405 212.328 
L 130.204562 212.328 
L 129.31914 211.4208 
L 128.433719 210.816 
L 127.548298 210.5136 
L 127.253157 209.6064 
L 126.072595 209.0016 
L 125.482314 208.3968 
L 125.482314 208.0944 
L 125.187174 208.3968 
L 125.187174 207.792 
L 125.187174 208.0944 
L 125.482314 207.792 
L 126.072595 207.792 
L 127.548298 209.304 
L 127.843438 209.304 
L 129.024 210.5136 
L 129.31914 211.1184 
L 130.499702 212.328 
L 131.089983 212.6304 
L 132.565686 214.1424 
L 133.451107 215.352 
L 134.336529 216.2592 
L 135.517091 217.7712 
L 138.763636 221.0976 
L 140.239339 223.2144 
L 143.485884 228.3552 
L 144.666446 231.0768 
L 146.142149 234.1008 
L 146.142149 234.1008 
" clip-path="url(#p91375116c5)" style="fill: none; stroke: #d2691e; stroke-width: 1.5; stroke-linecap: square"/>
   </g>
   <g id="line2d_45">
    <path d="M 270.396298 71.4096 
" clip-path="url(#p91375116c5)" style="fill: none; stroke: #d2691e; stroke-width: 1.5; stroke-linecap: square"/>
    <defs>
     <path id="mbad857a366" d="M 0 5 
C 1.326016 5 2.597899 4.473168 3.535534 3.535534 
C 4.473168 2.597899 5 1.326016 5 0 
C 5 -1.326016 4.473168 -2.597899 3.535534 -3.535534 
C 2.597899 -4.473168 1.326016 -5 0 -5 
C -1.326016 -5 -2.597899 -4.473168 -3.535534 -3.535534 
C -4.473168 -2.597899 -5 -1.326016 -5 0 
C -5 1.326016 -4.473168 2.597899 -3.535534 3.535534 
C -2.597899 4.473168 -1.326016 5 0 5 
z
" style="stroke: #d2691e"/>
    </defs>
    <g clip-path="url(#p91375116c5)">
     <use xlink:href="#mbad857a366" x="270.396298" y="71.4096" style="fill: #d2691e; stroke: #d2691e"/>
    </g>
   </g>
   <g id="line2d_46">
    <path d="M 146.142149 234.1008 
" clip-path="url(#p91375116c5)" style="fill: none; stroke: #d2691e; stroke-width: 1.5; stroke-linecap: square"/>
    <defs>
     <path id="m048f8f1cab" d="M -5 5 
L 5 5 
L 5 -5 
L -5 -5 
z
" style="stroke: #d2691e; stroke-linejoin: miter"/>
    </defs>
    <g clip-path="url(#p91375116c5)">
     <use xlink:href="#m048f8f1cab" x="146.142149" y="234.1008" style="fill: #d2691e; stroke: #d2691e; stroke-linejoin: miter"/>
    </g>
   </g>
   <g id="patch_3">
    <path d="M 57.6 307.584 
L 57.6 41.472 
" style="fill: none; stroke: #000000; stroke-width: 0.8; stroke-linejoin: miter; stroke-linecap: square"/>
   </g>
   <g id="patch_4">
    <path d="M 57.6 307.584 
L 414.72 307.584 
" style="fill: none; stroke: #000000; stroke-width: 0.8; stroke-linejoin: miter; stroke-linecap: square"/>
   </g>
   <g id="legend_1">
    <g id="patch_5">
     <path d="M 282.164531 119.523563 
L 404.22 119.523563 
Q 407.22 119.523563 407.22 116.523563 
L 407.22 51.972 
Q 407.22 48.972 404.22 48.972 
L 282.164531 48.972 
Q 279.164531 48.972 279.164531 51.972 
L 279.164531 116.523563 
Q 279.164531 119.523563 282.164531 119.523563 
z
" style="fill: #ffffff; opacity: 0.8; stroke: #cccccc; stroke-linejoin: miter"/>
    </g>
    <g id="line2d_47">
     <path d="M 285.164531 61.119656 
L 300.164531 61.119656 
L 315.164531 61.119656 
" style="fill: none; stroke: #000000; stroke-width: 1.5; stroke-linecap: square"/>
    </g>
    <g id="text_7">
     <!-- Trajectory -->
     <g transform="translate(327.164531 66.369656)scale(0.15 -0.15)">
      <defs>
       <path id="DejaVuSans-54" d="M -19 4666 
L 3928 4666 
L 3928 4134 
L 2272 4134 
L 2272 0 
L 1638 0 
L 1638 4134 
L -19 4134 
L -19 4666 
z
" transform="scale(0.015625)"/>
       <path id="DejaVuSans-72" d="M 2631 2963 
Q 2534 3019 2420 3045 
Q 2306 3072 2169 3072 
Q 1681 3072 1420 2755 
Q 1159 2438 1159 1844 
L 1159 0 
L 581 0 
L 581 3500 
L 1159 3500 
L 1159 2956 
Q 1341 3275 1631 3429 
Q 1922 3584 2338 3584 
Q 2397 3584 2469 3576 
Q 2541 3569 2628 3553 
L 2631 2963 
z
" transform="scale(0.015625)"/>
       <path id="DejaVuSans-61" d="M 2194 1759 
Q 1497 1759 1228 1600 
Q 959 1441 959 1056 
Q 959 750 1161 570 
Q 1363 391 1709 391 
Q 2188 391 2477 730 
Q 2766 1069 2766 1631 
L 2766 1759 
L 2194 1759 
z
M 3341 1997 
L 3341 0 
L 2766 0 
L 2766 531 
Q 2569 213 2275 61 
Q 1981 -91 1556 -91 
Q 1019 -91 701 211 
Q 384 513 384 1019 
Q 384 1609 779 1909 
Q 1175 2209 1959 2209 
L 2766 2209 
L 2766 2266 
Q 2766 2663 2505 2880 
Q 2244 3097 1772 3097 
Q 1472 3097 1187 3025 
Q 903 2953 641 2809 
L 641 3341 
Q 956 3463 1253 3523 
Q 1550 3584 1831 3584 
Q 2591 3584 2966 3190 
Q 3341 2797 3341 1997 
z
" transform="scale(0.015625)"/>
       <path id="DejaVuSans-6a" d="M 603 3500 
L 1178 3500 
L 1178 -63 
Q 1178 -731 923 -1031 
Q 669 -1331 103 -1331 
L -116 -1331 
L -116 -844 
L 38 -844 
Q 366 -844 484 -692 
Q 603 -541 603 -63 
L 603 3500 
z
M 603 4863 
L 1178 4863 
L 1178 4134 
L 603 4134 
L 603 4863 
z
" transform="scale(0.015625)"/>
       <path id="DejaVuSans-65" d="M 3597 1894 
L 3597 1613 
L 953 1613 
Q 991 1019 1311 708 
Q 1631 397 2203 397 
Q 2534 397 2845 478 
Q 3156 559 3463 722 
L 3463 178 
Q 3153 47 2828 -22 
Q 2503 -91 2169 -91 
Q 1331 -91 842 396 
Q 353 884 353 1716 
Q 353 2575 817 3079 
Q 1281 3584 2069 3584 
Q 2775 3584 3186 3129 
Q 3597 2675 3597 1894 
z
M 3022 2063 
Q 3016 2534 2758 2815 
Q 2500 3097 2075 3097 
Q 1594 3097 1305 2825 
Q 1016 2553 972 2059 
L 3022 2063 
z
" transform="scale(0.015625)"/>
       <path id="DejaVuSans-63" d="M 3122 3366 
L 3122 2828 
Q 2878 2963 2633 3030 
Q 2388 3097 2138 3097 
Q 1578 3097 1268 2742 
Q 959 2388 959 1747 
Q 959 1106 1268 751 
Q 1578 397 2138 397 
Q 2388 397 2633 464 
Q 2878 531 3122 666 
L 3122 134 
Q 2881 22 2623 -34 
Q 2366 -91 2075 -91 
Q 1284 -91 818 406 
Q 353 903 353 1747 
Q 353 2603 823 3093 
Q 1294 3584 2113 3584 
Q 2378 3584 2631 3529 
Q 2884 3475 3122 3366 
z
" transform="scale(0.015625)"/>
       <path id="DejaVuSans-74" d="M 1172 4494 
L 1172 3500 
L 2356 3500 
L 2356 3053 
L 1172 3053 
L 1172 1153 
Q 1172 725 1289 603 
Q 1406 481 1766 481 
L 2356 481 
L 2356 0 
L 1766 0 
Q 1100 0 847 248 
Q 594 497 594 1153 
L 594 3053 
L 172 3053 
L 172 3500 
L 594 3500 
L 594 4494 
L 1172 4494 
z
" transform="scale(0.015625)"/>
       <path id="DejaVuSans-6f" d="M 1959 3097 
Q 1497 3097 1228 2736 
Q 959 2375 959 1747 
Q 959 1119 1226 758 
Q 1494 397 1959 397 
Q 2419 397 2687 759 
Q 2956 1122 2956 1747 
Q 2956 2369 2687 2733 
Q 2419 3097 1959 3097 
z
M 1959 3584 
Q 2709 3584 3137 3096 
Q 3566 2609 3566 1747 
Q 3566 888 3137 398 
Q 2709 -91 1959 -91 
Q 1206 -91 779 398 
Q 353 888 353 1747 
Q 353 2609 779 3096 
Q 1206 3584 1959 3584 
z
" transform="scale(0.015625)"/>
       <path id="DejaVuSans-79" d="M 2059 -325 
Q 1816 -950 1584 -1140 
Q 1353 -1331 966 -1331 
L 506 -1331 
L 506 -850 
L 844 -850 
Q 1081 -850 1212 -737 
Q 1344 -625 1503 -206 
L 1606 56 
L 191 3500 
L 800 3500 
L 1894 763 
L 2988 3500 
L 3597 3500 
L 2059 -325 
z
" transform="scale(0.015625)"/>
      </defs>
      <use xlink:href="#DejaVuSans-54"/>
      <use xlink:href="#DejaVuSans-72" x="46.333984"/>
      <use xlink:href="#DejaVuSans-61" x="87.447266"/>
      <use xlink:href="#DejaVuSans-6a" x="148.726562"/>
      <use xlink:href="#DejaVuSans-65" x="176.509766"/>
      <use xlink:href="#DejaVuSans-63" x="238.033203"/>
      <use xlink:href="#DejaVuSans-74" x="293.013672"/>
      <use xlink:href="#DejaVuSans-6f" x="332.222656"/>
      <use xlink:href="#DejaVuSans-72" x="393.404297"/>
      <use xlink:href="#DejaVuSans-79" x="434.517578"/>
     </g>
    </g>
    <g id="line2d_48">
     <path d="M 285.164531 83.136844 
L 300.164531 83.136844 
L 315.164531 83.136844 
" style="fill: none; stroke: #000000; stroke-width: 1.5; stroke-linecap: square"/>
     <g>
      <use xlink:href="#m9b72dd2484" x="300.164531" y="83.136844" style="stroke: #000000"/>
     </g>
    </g>
    <g id="text_8">
     <!-- Start -->
     <g transform="translate(327.164531 88.386844)scale(0.15 -0.15)">
      <defs>
       <path id="DejaVuSans-53" d="M 3425 4513 
L 3425 3897 
Q 3066 4069 2747 4153 
Q 2428 4238 2131 4238 
Q 1616 4238 1336 4038 
Q 1056 3838 1056 3469 
Q 1056 3159 1242 3001 
Q 1428 2844 1947 2747 
L 2328 2669 
Q 3034 2534 3370 2195 
Q 3706 1856 3706 1288 
Q 3706 609 3251 259 
Q 2797 -91 1919 -91 
Q 1588 -91 1214 -16 
Q 841 59 441 206 
L 441 856 
Q 825 641 1194 531 
Q 1563 422 1919 422 
Q 2459 422 2753 634 
Q 3047 847 3047 1241 
Q 3047 1584 2836 1778 
Q 2625 1972 2144 2069 
L 1759 2144 
Q 1053 2284 737 2584 
Q 422 2884 422 3419 
Q 422 4038 858 4394 
Q 1294 4750 2059 4750 
Q 2388 4750 2728 4690 
Q 3069 4631 3425 4513 
z
" transform="scale(0.015625)"/>
      </defs>
      <use xlink:href="#DejaVuSans-53"/>
      <use xlink:href="#DejaVuSans-74" x="63.476562"/>
      <use xlink:href="#DejaVuSans-61" x="102.685547"/>
      <use xlink:href="#DejaVuSans-72" x="163.964844"/>
      <use xlink:href="#DejaVuSans-74" x="205.078125"/>
     </g>
    </g>
    <g id="line2d_49">
     <path d="M 285.164531 105.154031 
L 300.164531 105.154031 
L 315.164531 105.154031 
" style="fill: none; stroke: #000000; stroke-width: 1.5; stroke-linecap: square"/>
     <g>
      <use xlink:href="#m05e170b2d3" x="300.164531" y="105.154031" style="stroke: #000000; stroke-linejoin: miter"/>
     </g>
    </g>
    <g id="text_9">
     <!-- End -->
     <g transform="translate(327.164531 110.404031)scale(0.15 -0.15)">
      <defs>
       <path id="DejaVuSans-45" d="M 628 4666 
L 3578 4666 
L 3578 4134 
L 1259 4134 
L 1259 2753 
L 3481 2753 
L 3481 2222 
L 1259 2222 
L 1259 531 
L 3634 531 
L 3634 0 
L 628 0 
L 628 4666 
z
" transform="scale(0.015625)"/>
       <path id="DejaVuSans-6e" d="M 3513 2113 
L 3513 0 
L 2938 0 
L 2938 2094 
Q 2938 2591 2744 2837 
Q 2550 3084 2163 3084 
Q 1697 3084 1428 2787 
Q 1159 2491 1159 1978 
L 1159 0 
L 581 0 
L 581 3500 
L 1159 3500 
L 1159 2956 
Q 1366 3272 1645 3428 
Q 1925 3584 2291 3584 
Q 2894 3584 3203 3211 
Q 3513 2838 3513 2113 
z
" transform="scale(0.015625)"/>
       <path id="DejaVuSans-64" d="M 2906 2969 
L 2906 4863 
L 3481 4863 
L 3481 0 
L 2906 0 
L 2906 525 
Q 2725 213 2448 61 
Q 2172 -91 1784 -91 
Q 1150 -91 751 415 
Q 353 922 353 1747 
Q 353 2572 751 3078 
Q 1150 3584 1784 3584 
Q 2172 3584 2448 3432 
Q 2725 3281 2906 2969 
z
M 947 1747 
Q 947 1113 1208 752 
Q 1469 391 1925 391 
Q 2381 391 2643 752 
Q 2906 1113 2906 1747 
Q 2906 2381 2643 2742 
Q 2381 3103 1925 3103 
Q 1469 3103 1208 2742 
Q 947 2381 947 1747 
z
" transform="scale(0.015625)"/>
      </defs>
      <use xlink:href="#DejaVuSans-45"/>
      <use xlink:href="#DejaVuSans-6e" x="63.183594"/>
      <use xlink:href="#DejaVuSans-64" x="126.5625"/>
     </g>
    </g>
   </g>
  </g>
 </g>
 <defs>
  <clipPath id="p91375116c5">
   <rect x="57.6" y="41.472" width="357.12" height="266.112"/>
  </clipPath>
 </defs>
</svg>
