<?xml version="1.0" encoding="utf-8" standalone="no"?>
<!DOCTYPE svg PUBLIC "-//W3C//DTD SVG 1.1//EN"
  "http://www.w3.org/Graphics/SVG/1.1/DTD/svg11.dtd">
<svg xmlns:xlink="http://www.w3.org/1999/xlink" width="460.8pt" height="345.6pt" viewBox="0 0 460.8 345.6" xmlns="http://www.w3.org/2000/svg" version="1.1">
 <metadata>
  <rdf:RDF xmlns:dc="http://purl.org/dc/elements/1.1/" xmlns:cc="http://creativecommons.org/ns#" xmlns:rdf="http://www.w3.org/1999/02/22-rdf-syntax-ns#">
   <cc:Work>
    <dc:type rdf:resource="http://purl.org/dc/dcmitype/StillImage"/>
    <dc:date>2024-02-14T14:13:10.474785</dc:date>
    <dc:format>image/svg+xml</dc:format>
    <dc:creator>
     <cc:Agent>
      <dc:title>Matplotlib v3.5.0, https://matplotlib.org/</dc:title>
     </cc:Agent>
    </dc:creator>
   </cc:Work>
  </rdf:RDF>
 </metadata>
 <defs>
  <style type="text/css">*{stroke-linejoin: round; stroke-linecap: butt}</style>
 </defs>
 <g id="figure_1">
  <g id="patch_1">
   <path d="M 0 345.6 
L 460.8 345.6 
L 460.8 0 
L 0 0 
z
" style="fill: #ffffff"/>
  </g>
  <g id="axes_1">
   <g id="patch_2">
    <path d="M 57.6 307.584 
L 414.72 307.584 
L 414.72 41.472 
L 57.6 41.472 
z
" style="fill: #ffffff"/>
   </g>
   <g id="matplotlib.axis_1">
    <g id="xtick_1">
     <g id="line2d_1">
      <defs>
       <path id="mc5a898b8d5" d="M 0 0 
L 0 3.5 
" style="stroke: #000000; stroke-width: 0.8"/>
      </defs>
      <g>
       <use xlink:href="#mc5a898b8d5" x="73.832727" y="307.584" style="stroke: #000000; stroke-width: 0.8"/>
      </g>
     </g>
     <g id="text_1">
      <!-- 0 -->
      <g transform="translate(67.470227 329.780875)scale(0.2 -0.2)">
       <defs>
        <path id="DejaVuSans-30" d="M 2034 4250 
Q 1547 4250 1301 3770 
Q 1056 3291 1056 2328 
Q 1056 1369 1301 889 
Q 1547 409 2034 409 
Q 2525 409 2770 889 
Q 3016 1369 3016 2328 
Q 3016 3291 2770 3770 
Q 2525 4250 2034 4250 
z
M 2034 4750 
Q 2819 4750 3233 4129 
Q 3647 3509 3647 2328 
Q 3647 1150 3233 529 
Q 2819 -91 2034 -91 
Q 1250 -91 836 529 
Q 422 1150 422 2328 
Q 422 3509 836 4129 
Q 1250 4750 2034 4750 
z
" transform="scale(0.015625)"/>
       </defs>
       <use xlink:href="#DejaVuSans-30"/>
      </g>
     </g>
    </g>
    <g id="xtick_2">
     <g id="line2d_2">
      <g>
       <use xlink:href="#mc5a898b8d5" x="401.452154" y="307.584" style="stroke: #000000; stroke-width: 0.8"/>
      </g>
     </g>
     <g id="text_2">
      <!-- 1 -->
      <g transform="translate(395.089654 329.780875)scale(0.2 -0.2)">
       <defs>
        <path id="DejaVuSans-31" d="M 794 531 
L 1825 531 
L 1825 4091 
L 703 3866 
L 703 4441 
L 1819 4666 
L 2450 4666 
L 2450 531 
L 3481 531 
L 3481 0 
L 794 0 
L 794 531 
z
" transform="scale(0.015625)"/>
       </defs>
       <use xlink:href="#DejaVuSans-31"/>
      </g>
     </g>
    </g>
    <g id="text_3">
     <!-- Normalised X position -->
     <g transform="translate(111.795937 353.137125)scale(0.2 -0.2)">
      <defs>
       <path id="DejaVuSans-Bold-4e" d="M 588 4666 
L 1931 4666 
L 3628 1466 
L 3628 4666 
L 4769 4666 
L 4769 0 
L 3425 0 
L 1728 3200 
L 1728 0 
L 588 0 
L 588 4666 
z
" transform="scale(0.015625)"/>
       <path id="DejaVuSans-Bold-6f" d="M 2203 2784 
Q 1831 2784 1636 2517 
Q 1441 2250 1441 1747 
Q 1441 1244 1636 976 
Q 1831 709 2203 709 
Q 2569 709 2762 976 
Q 2956 1244 2956 1747 
Q 2956 2250 2762 2517 
Q 2569 2784 2203 2784 
z
M 2203 3584 
Q 3106 3584 3614 3096 
Q 4122 2609 4122 1747 
Q 4122 884 3614 396 
Q 3106 -91 2203 -91 
Q 1297 -91 786 396 
Q 275 884 275 1747 
Q 275 2609 786 3096 
Q 1297 3584 2203 3584 
z
" transform="scale(0.015625)"/>
       <path id="DejaVuSans-Bold-72" d="M 3138 2547 
Q 2991 2616 2845 2648 
Q 2700 2681 2553 2681 
Q 2122 2681 1889 2404 
Q 1656 2128 1656 1613 
L 1656 0 
L 538 0 
L 538 3500 
L 1656 3500 
L 1656 2925 
Q 1872 3269 2151 3426 
Q 2431 3584 2822 3584 
Q 2878 3584 2943 3579 
Q 3009 3575 3134 3559 
L 3138 2547 
z
" transform="scale(0.015625)"/>
       <path id="DejaVuSans-Bold-6d" d="M 3781 2919 
Q 3994 3244 4286 3414 
Q 4578 3584 4928 3584 
Q 5531 3584 5847 3212 
Q 6163 2841 6163 2131 
L 6163 0 
L 5038 0 
L 5038 1825 
Q 5041 1866 5042 1909 
Q 5044 1953 5044 2034 
Q 5044 2406 4934 2573 
Q 4825 2741 4581 2741 
Q 4263 2741 4089 2478 
Q 3916 2216 3909 1719 
L 3909 0 
L 2784 0 
L 2784 1825 
Q 2784 2406 2684 2573 
Q 2584 2741 2328 2741 
Q 2006 2741 1831 2477 
Q 1656 2213 1656 1722 
L 1656 0 
L 531 0 
L 531 3500 
L 1656 3500 
L 1656 2988 
Q 1863 3284 2130 3434 
Q 2397 3584 2719 3584 
Q 3081 3584 3359 3409 
Q 3638 3234 3781 2919 
z
" transform="scale(0.015625)"/>
       <path id="DejaVuSans-Bold-61" d="M 2106 1575 
Q 1756 1575 1579 1456 
Q 1403 1338 1403 1106 
Q 1403 894 1545 773 
Q 1688 653 1941 653 
Q 2256 653 2472 879 
Q 2688 1106 2688 1447 
L 2688 1575 
L 2106 1575 
z
M 3816 1997 
L 3816 0 
L 2688 0 
L 2688 519 
Q 2463 200 2181 54 
Q 1900 -91 1497 -91 
Q 953 -91 614 226 
Q 275 544 275 1050 
Q 275 1666 698 1953 
Q 1122 2241 2028 2241 
L 2688 2241 
L 2688 2328 
Q 2688 2594 2478 2717 
Q 2269 2841 1825 2841 
Q 1466 2841 1156 2769 
Q 847 2697 581 2553 
L 581 3406 
Q 941 3494 1303 3539 
Q 1666 3584 2028 3584 
Q 2975 3584 3395 3211 
Q 3816 2838 3816 1997 
z
" transform="scale(0.015625)"/>
       <path id="DejaVuSans-Bold-6c" d="M 538 4863 
L 1656 4863 
L 1656 0 
L 538 0 
L 538 4863 
z
" transform="scale(0.015625)"/>
       <path id="DejaVuSans-Bold-69" d="M 538 3500 
L 1656 3500 
L 1656 0 
L 538 0 
L 538 3500 
z
M 538 4863 
L 1656 4863 
L 1656 3950 
L 538 3950 
L 538 4863 
z
" transform="scale(0.015625)"/>
       <path id="DejaVuSans-Bold-73" d="M 3272 3391 
L 3272 2541 
Q 2913 2691 2578 2766 
Q 2244 2841 1947 2841 
Q 1628 2841 1473 2761 
Q 1319 2681 1319 2516 
Q 1319 2381 1436 2309 
Q 1553 2238 1856 2203 
L 2053 2175 
Q 2913 2066 3209 1816 
Q 3506 1566 3506 1031 
Q 3506 472 3093 190 
Q 2681 -91 1863 -91 
Q 1516 -91 1145 -36 
Q 775 19 384 128 
L 384 978 
Q 719 816 1070 734 
Q 1422 653 1784 653 
Q 2113 653 2278 743 
Q 2444 834 2444 1013 
Q 2444 1163 2330 1236 
Q 2216 1309 1875 1350 
L 1678 1375 
Q 931 1469 631 1722 
Q 331 1975 331 2491 
Q 331 3047 712 3315 
Q 1094 3584 1881 3584 
Q 2191 3584 2531 3537 
Q 2872 3491 3272 3391 
z
" transform="scale(0.015625)"/>
       <path id="DejaVuSans-Bold-65" d="M 4031 1759 
L 4031 1441 
L 1416 1441 
Q 1456 1047 1700 850 
Q 1944 653 2381 653 
Q 2734 653 3104 758 
Q 3475 863 3866 1075 
L 3866 213 
Q 3469 63 3072 -14 
Q 2675 -91 2278 -91 
Q 1328 -91 801 392 
Q 275 875 275 1747 
Q 275 2603 792 3093 
Q 1309 3584 2216 3584 
Q 3041 3584 3536 3087 
Q 4031 2591 4031 1759 
z
M 2881 2131 
Q 2881 2450 2695 2645 
Q 2509 2841 2209 2841 
Q 1884 2841 1681 2658 
Q 1478 2475 1428 2131 
L 2881 2131 
z
" transform="scale(0.015625)"/>
       <path id="DejaVuSans-Bold-64" d="M 2919 2988 
L 2919 4863 
L 4044 4863 
L 4044 0 
L 2919 0 
L 2919 506 
Q 2688 197 2409 53 
Q 2131 -91 1766 -91 
Q 1119 -91 703 423 
Q 288 938 288 1747 
Q 288 2556 703 3070 
Q 1119 3584 1766 3584 
Q 2128 3584 2408 3439 
Q 2688 3294 2919 2988 
z
M 2181 722 
Q 2541 722 2730 984 
Q 2919 1247 2919 1747 
Q 2919 2247 2730 2509 
Q 2541 2772 2181 2772 
Q 1825 2772 1636 2509 
Q 1447 2247 1447 1747 
Q 1447 1247 1636 984 
Q 1825 722 2181 722 
z
" transform="scale(0.015625)"/>
       <path id="DejaVuSans-Bold-20" transform="scale(0.015625)"/>
       <path id="DejaVuSans-Bold-58" d="M 3188 2381 
L 4806 0 
L 3553 0 
L 2463 1594 
L 1381 0 
L 122 0 
L 1741 2381 
L 184 4666 
L 1441 4666 
L 2463 3163 
L 3481 4666 
L 4744 4666 
L 3188 2381 
z
" transform="scale(0.015625)"/>
       <path id="DejaVuSans-Bold-70" d="M 1656 506 
L 1656 -1331 
L 538 -1331 
L 538 3500 
L 1656 3500 
L 1656 2988 
Q 1888 3294 2169 3439 
Q 2450 3584 2816 3584 
Q 3463 3584 3878 3070 
Q 4294 2556 4294 1747 
Q 4294 938 3878 423 
Q 3463 -91 2816 -91 
Q 2450 -91 2169 54 
Q 1888 200 1656 506 
z
M 2400 2772 
Q 2041 2772 1848 2508 
Q 1656 2244 1656 1747 
Q 1656 1250 1848 986 
Q 2041 722 2400 722 
Q 2759 722 2948 984 
Q 3138 1247 3138 1747 
Q 3138 2247 2948 2509 
Q 2759 2772 2400 2772 
z
" transform="scale(0.015625)"/>
       <path id="DejaVuSans-Bold-74" d="M 1759 4494 
L 1759 3500 
L 2913 3500 
L 2913 2700 
L 1759 2700 
L 1759 1216 
Q 1759 972 1856 886 
Q 1953 800 2241 800 
L 2816 800 
L 2816 0 
L 1856 0 
Q 1194 0 917 276 
Q 641 553 641 1216 
L 641 2700 
L 84 2700 
L 84 3500 
L 641 3500 
L 641 4494 
L 1759 4494 
z
" transform="scale(0.015625)"/>
       <path id="DejaVuSans-Bold-6e" d="M 4056 2131 
L 4056 0 
L 2931 0 
L 2931 347 
L 2931 1631 
Q 2931 2084 2911 2256 
Q 2891 2428 2841 2509 
Q 2775 2619 2662 2680 
Q 2550 2741 2406 2741 
Q 2056 2741 1856 2470 
Q 1656 2200 1656 1722 
L 1656 0 
L 538 0 
L 538 3500 
L 1656 3500 
L 1656 2988 
Q 1909 3294 2193 3439 
Q 2478 3584 2822 3584 
Q 3428 3584 3742 3212 
Q 4056 2841 4056 2131 
z
" transform="scale(0.015625)"/>
      </defs>
      <use xlink:href="#DejaVuSans-Bold-4e"/>
      <use xlink:href="#DejaVuSans-Bold-6f" x="83.691406"/>
      <use xlink:href="#DejaVuSans-Bold-72" x="152.392578"/>
      <use xlink:href="#DejaVuSans-Bold-6d" x="201.708984"/>
      <use xlink:href="#DejaVuSans-Bold-61" x="305.908203"/>
      <use xlink:href="#DejaVuSans-Bold-6c" x="373.388672"/>
      <use xlink:href="#DejaVuSans-Bold-69" x="407.666016"/>
      <use xlink:href="#DejaVuSans-Bold-73" x="441.943359"/>
      <use xlink:href="#DejaVuSans-Bold-65" x="501.464844"/>
      <use xlink:href="#DejaVuSans-Bold-64" x="569.287109"/>
      <use xlink:href="#DejaVuSans-Bold-20" x="640.869141"/>
      <use xlink:href="#DejaVuSans-Bold-58" x="675.683594"/>
      <use xlink:href="#DejaVuSans-Bold-20" x="752.783203"/>
      <use xlink:href="#DejaVuSans-Bold-70" x="787.597656"/>
      <use xlink:href="#DejaVuSans-Bold-6f" x="859.179688"/>
      <use xlink:href="#DejaVuSans-Bold-73" x="927.880859"/>
      <use xlink:href="#DejaVuSans-Bold-69" x="987.402344"/>
      <use xlink:href="#DejaVuSans-Bold-74" x="1021.679688"/>
      <use xlink:href="#DejaVuSans-Bold-69" x="1069.482422"/>
      <use xlink:href="#DejaVuSans-Bold-6f" x="1103.759766"/>
      <use xlink:href="#DejaVuSans-Bold-6e" x="1172.460938"/>
     </g>
    </g>
   </g>
   <g id="matplotlib.axis_2">
    <g id="ytick_1">
     <g id="line2d_3">
      <defs>
       <path id="m7d09b8229b" d="M 0 0 
L -3.5 0 
" style="stroke: #000000; stroke-width: 0.8"/>
      </defs>
      <g>
       <use xlink:href="#m7d09b8229b" x="57.6" y="297" style="stroke: #000000; stroke-width: 0.8"/>
      </g>
     </g>
     <g id="text_4">
      <!-- 0 -->
      <g transform="translate(37.875 304.598437)scale(0.2 -0.2)">
       <use xlink:href="#DejaVuSans-30"/>
      </g>
     </g>
    </g>
    <g id="ytick_2">
     <g id="line2d_4">
      <g>
       <use xlink:href="#m7d09b8229b" x="57.6" y="53.568" style="stroke: #000000; stroke-width: 0.8"/>
      </g>
     </g>
     <g id="text_5">
      <!-- 1 -->
      <g transform="translate(37.875 61.166438)scale(0.2 -0.2)">
       <use xlink:href="#DejaVuSans-31"/>
      </g>
     </g>
    </g>
    <g id="text_6">
     <!-- Normalised Y position -->
     <g transform="translate(29.715625 298.423313)rotate(-90)scale(0.2 -0.2)">
      <defs>
       <path id="DejaVuSans-Bold-59" d="M -63 4666 
L 1253 4666 
L 2316 3003 
L 3378 4666 
L 4697 4666 
L 2919 1966 
L 2919 0 
L 1716 0 
L 1716 1966 
L -63 4666 
z
" transform="scale(0.015625)"/>
      </defs>
      <use xlink:href="#DejaVuSans-Bold-4e"/>
      <use xlink:href="#DejaVuSans-Bold-6f" x="83.691406"/>
      <use xlink:href="#DejaVuSans-Bold-72" x="152.392578"/>
      <use xlink:href="#DejaVuSans-Bold-6d" x="201.708984"/>
      <use xlink:href="#DejaVuSans-Bold-61" x="305.908203"/>
      <use xlink:href="#DejaVuSans-Bold-6c" x="373.388672"/>
      <use xlink:href="#DejaVuSans-Bold-69" x="407.666016"/>
      <use xlink:href="#DejaVuSans-Bold-73" x="441.943359"/>
      <use xlink:href="#DejaVuSans-Bold-65" x="501.464844"/>
      <use xlink:href="#DejaVuSans-Bold-64" x="569.287109"/>
      <use xlink:href="#DejaVuSans-Bold-20" x="640.869141"/>
      <use xlink:href="#DejaVuSans-Bold-59" x="675.683594"/>
      <use xlink:href="#DejaVuSans-Bold-20" x="748.095703"/>
      <use xlink:href="#DejaVuSans-Bold-70" x="782.910156"/>
      <use xlink:href="#DejaVuSans-Bold-6f" x="854.492188"/>
      <use xlink:href="#DejaVuSans-Bold-73" x="923.193359"/>
      <use xlink:href="#DejaVuSans-Bold-69" x="982.714844"/>
      <use xlink:href="#DejaVuSans-Bold-74" x="1016.992188"/>
      <use xlink:href="#DejaVuSans-Bold-69" x="1064.794922"/>
      <use xlink:href="#DejaVuSans-Bold-6f" x="1099.072266"/>
      <use xlink:href="#DejaVuSans-Bold-6e" x="1167.773438"/>
     </g>
    </g>
   </g>
   <g id="line2d_5">
    <path d="M 236.90122 174.528 
L 73.832727 53.568 
L 73.832727 53.568 
L 73.832727 295.488 
L 73.832727 55.08 
L 74.129215 62.0352 
L 75.01868 64.7568 
L 76.501121 70.8048 
L 78.28005 74.1312 
L 80.058979 78.6672 
L 84.506301 92.88 
L 86.878207 108.6048 
L 91.325529 141.5664 
L 94.290411 157.2912 
L 97.551781 171.504 
L 101.999103 189.0432 
L 107.039402 199.6272 
L 112.672677 218.9808 
L 118.602441 238.032 
L 125.718157 255.5712 
L 133.130361 273.4128 
L 140.839054 290.6496 
L 148.251258 295.488 
L 242.534496 295.488 
L 250.243188 289.1376 
L 257.655392 295.488 
L 264.178132 294.5808 
L 270.404384 295.488 
L 315.174097 295.488 
L 316.36005 295.1856 
L 317.546002 295.1856 
L 318.138979 295.488 
L 318.731955 295.488 
L 234.529315 295.488 
L 231.267945 294.8832 
L 228.006575 293.6736 
L 224.448717 291.8592 
L 221.187347 288.5328 
L 217.333001 286.1136 
L 213.775143 281.5776 
L 210.217285 276.7392 
L 207.252403 270.6912 
L 204.58401 264.9456 
L 201.619128 259.8048 
L 198.357758 254.9664 
L 195.096389 249.5232 
L 191.835019 244.9872 
L 188.573649 240.1488 
L 185.312279 235.6128 
L 181.161445 228.0528 
L 179.382516 225.3312 
L 178.196563 223.2144 
L 177.603587 221.4 
L 177.603587 220.1904 
L 177.900075 219.888 
L 178.493051 219.888 
L 179.086027 220.1904 
L 179.679004 221.4 
L 184.126326 226.8432 
L 186.498232 229.5648 
L 188.573649 231.6816 
L 193.31746 237.1248 
L 195.689365 240.1488 
L 197.764782 243.7776 
L 200.136687 247.104 
L 202.212105 250.4304 
L 204.287522 254.3616 
L 209.624309 261.6192 
L 211.699726 265.248 
L 214.36812 269.1792 
L 217.036513 273.4128 
L 219.704907 277.344 
L 224.448717 285.8112 
L 226.524134 290.0448 
L 229.192528 294.5808 
L 231.267945 295.488 
L 261.509738 295.488 
L 257.062416 295.488 
L 254.097534 294.5808 
L 250.539676 291.5568 
L 246.388842 286.1136 
L 241.941519 278.5536 
L 236.604732 269.1792 
L 230.674969 258.2928 
L 224.448717 245.8944 
L 218.222466 232.2864 
L 211.996214 218.0736 
L 205.769963 203.5584 
L 199.840199 189.0432 
L 193.31746 175.1328 
L 187.091208 162.1296 
L 182.050909 150.0336 
L 177.01061 139.4496 
L 172.859776 129.7728 
L 168.412453 121.608 
L 163.965131 113.7456 
L 163.965131 113.7456 
" clip-path="url(#p9f11ba8063)" style="fill: none; stroke: #000000; stroke-width: 1.5; stroke-linecap: square"/>
   </g>
   <g id="line2d_6">
    <path d="M 236.90122 174.528 
" clip-path="url(#p9f11ba8063)" style="fill: none; stroke: #000000; stroke-width: 1.5; stroke-linecap: square"/>
    <defs>
     <path id="m4844a184cb" d="M 0 5 
C 1.326016 5 2.597899 4.473168 3.535534 3.535534 
C 4.473168 2.597899 5 1.326016 5 0 
C 5 -1.326016 4.473168 -2.597899 3.535534 -3.535534 
C 2.597899 -4.473168 1.326016 -5 0 -5 
C -1.326016 -5 -2.597899 -4.473168 -3.535534 -3.535534 
C -4.473168 -2.597899 -5 -1.326016 -5 0 
C -5 1.326016 -4.473168 2.597899 -3.535534 3.535534 
C -2.597899 4.473168 -1.326016 5 0 5 
z
" style="stroke: #000000"/>
    </defs>
    <g clip-path="url(#p9f11ba8063)">
     <use xlink:href="#m4844a184cb" x="236.90122" y="174.528" style="stroke: #000000"/>
    </g>
   </g>
   <g id="line2d_7">
    <path d="M 163.965131 113.7456 
" clip-path="url(#p9f11ba8063)" style="fill: none; stroke: #000000; stroke-width: 1.5; stroke-linecap: square"/>
    <defs>
     <path id="m3236b20e33" d="M -5 5 
L 5 5 
L 5 -5 
L -5 -5 
z
" style="stroke: #000000; stroke-linejoin: miter"/>
    </defs>
    <g clip-path="url(#p9f11ba8063)">
     <use xlink:href="#m3236b20e33" x="163.965131" y="113.7456" style="stroke: #000000; stroke-linejoin: miter"/>
    </g>
   </g>
   <g id="line2d_8">
    <path d="M 348.67726 160.3152 
L 354.014047 158.8032 
L 359.647323 156.384 
L 365.577086 153.9648 
L 371.803337 151.2432 
L 380.697983 147.9168 
L 386.03477 146.4048 
L 387.813699 146.1024 
L 390.77858 145.8 
L 393.150486 146.4048 
L 395.818879 146.1024 
L 396.411856 146.4048 
L 397.894296 146.7072 
L 398.487273 147.6144 
L 398.487273 150.336 
L 397.894296 151.848 
L 397.004832 153.0576 
L 395.522391 154.2672 
L 394.03995 156.0816 
L 392.261021 156.9888 
L 390.185604 157.5936 
L 388.406675 158.5008 
L 387.220722 158.8032 
L 375.954172 161.2224 
L 367.059527 162.432 
L 358.164882 163.0368 
L 353.124583 163.0368 
L 350.159701 163.3392 
L 343.340473 165.7584 
L 332.370411 168.1776 
L 325.254695 169.3872 
L 317.842491 170.8992 
L 310.133798 173.016 
L 301.83213 174.8304 
L 294.419925 176.6448 
L 286.711233 179.064 
L 279.892005 182.088 
L 274.25873 183.2976 
L 268.032478 185.4144 
L 261.509738 186.0192 
L 256.172951 186.3216 
L 244.609913 188.136 
L 233.046874 189.3456 
L 227.413599 189.9504 
L 221.187347 190.8576 
L 215.554072 191.16 
L 210.513773 191.7648 
L 205.176986 191.7648 
L 200.136687 192.0672 
L 190.945554 192.0672 
L 187.387696 192.9744 
L 184.719303 193.8816 
L 182.643885 194.7888 
L 181.754421 198.4176 
L 180.864956 200.232 
L 180.568468 201.1392 
L 181.161445 202.9536 
L 182.050909 204.4656 
L 183.53335 205.9776 
L 185.608767 207.792 
L 188.277161 209.9088 
L 191.835019 211.7232 
L 193.31746 212.6304 
L 199.543711 212.9328 
L 206.362939 214.1424 
L 209.920797 212.6304 
L 211.403238 212.9328 
L 214.664608 211.7232 
L 217.629489 212.328 
L 222.966276 212.6304 
L 225.63467 212.9328 
L 231.564433 214.1424 
L 233.639851 213.5376 
L 235.41878 212.6304 
L 236.90122 212.0256 
L 237.790685 211.4208 
L 237.790685 210.816 
L 238.087173 209.6064 
L 237.197709 206.8848 
L 235.715268 204.4656 
L 233.639851 201.744 
L 231.267945 198.1152 
L 228.006575 193.5792 
L 226.524134 191.7648 
L 216.740025 183.9024 
L 213.182167 180.2736 
L 209.327821 176.9472 
L 207.252403 175.4352 
L 201.026152 171.2016 
L 196.875318 167.8752 
L 192.724483 163.944 
L 183.829838 157.2912 
L 178.789539 154.5696 
L 173.74924 149.4288 
L 168.115965 147.0096 
L 162.48269 142.4736 
L 156.552927 139.4496 
L 150.326675 136.1232 
L 143.803935 133.704 
L 130.165479 128.2608 
L 123.64274 124.0272 
L 117.416488 120.7008 
L 110.893748 116.4672 
L 104.963985 113.7456 
L 98.737733 110.4192 
L 92.80797 105.8832 
L 87.174695 101.3472 
L 81.54142 97.416 
L 76.501121 94.392 
L 73.832727 90.4608 
L 73.832727 79.5744 
L 74.425704 78.3648 
L 75.315168 77.4576 
L 76.797609 76.8528 
L 81.837908 75.6432 
L 88.657136 75.0384 
L 92.80797 74.1312 
L 96.958804 73.8288 
L 107.33589 72.0144 
L 117.712976 68.688 
L 124.532204 75.6432 
L 125.421669 66.8736 
L 128.979527 65.0592 
L 132.537385 65.3616 
L 135.205778 62.3376 
L 137.874172 62.9424 
L 140.246077 62.64 
L 142.617983 62.0352 
L 146.175841 61.7328 
L 148.251258 64.4544 
L 151.512628 63.5472 
L 154.477509 61.7328 
L 156.849415 67.176 
L 160.703761 64.152 
L 163.668643 64.7568 
L 166.040548 61.4304 
L 168.115965 59.0112 
L 170.784359 62.64 
L 172.563288 58.104 
L 174.342217 54.1728 
L 176.121146 56.8944 
L 177.01061 53.568 
L 177.01061 53.568 
L 134.316314 53.568 
L 126.90411 55.08 
L 119.491905 53.568 
L 73.832727 53.568 
L 73.832727 53.568 
L 73.832727 53.8704 
L 74.129215 54.1728 
L 76.204633 55.6848 
L 77.390585 56.2896 
L 81.54142 59.616 
L 85.692254 62.0352 
L 90.139577 65.0592 
L 95.772852 68.0832 
L 101.702615 71.712 
L 108.818331 75.3408 
L 112.376189 76.8528 
L 125.421669 83.5056 
L 134.316314 87.1344 
L 149.43721 94.0896 
L 159.517808 98.6256 
L 174.638705 105.5808 
L 184.719303 110.4192 
L 194.7999 114.9552 
L 204.58401 119.4912 
L 214.071631 123.7248 
L 222.966276 128.2608 
L 231.564433 132.4944 
L 239.866102 136.728 
L 248.167771 140.6592 
L 255.579975 144.5904 
L 262.399203 148.824 
L 269.218431 152.7552 
L 275.741171 156.384 
L 294.419925 168.48 
L 299.460224 171.504 
L 306.279452 176.3424 
L 310.430286 179.064 
L 314.581121 181.4832 
L 317.842491 184.2048 
L 324.958207 188.7408 
L 328.219577 190.8576 
L 331.184458 193.2768 
L 334.742316 194.4864 
L 338.300174 193.2768 
L 339.782615 192.9744 
L 343.93345 191.7648 
L 347.194819 191.7648 
L 350.159701 191.4624 
L 351.642142 191.7648 
L 353.124583 191.7648 
L 354.607024 192.0672 
L 356.089465 192.0672 
L 356.978929 192.3696 
L 359.054346 192.3696 
L 359.943811 191.4624 
L 359.943811 191.4624 
L 359.943811 190.8576 
L 359.647323 191.16 
L 358.757858 191.16 
L 358.46137 190.8576 
L 357.868394 190.8576 
L 356.978929 190.5552 
L 356.682441 190.2528 
L 355.496488 190.2528 
L 351.049166 189.0432 
L 348.380772 189.0432 
L 345.712379 188.4384 
L 344.229938 187.5312 
L 342.451009 187.2288 
L 339.486127 187.2288 
L 337.41071 186.9264 
L 335.631781 187.2288 
L 333.852852 186.9264 
L 331.777435 187.2288 
L 325.551183 186.3216 
L 324.661719 186.0192 
L 313.988144 184.5072 
L 304.500523 184.5072 
L 302.721594 184.8096 
L 301.239153 184.8096 
L 299.756712 185.4144 
L 298.274271 186.624 
L 296.495342 187.5312 
L 295.30939 187.8336 
L 293.826949 188.7408 
L 290.862067 191.16 
L 288.78665 193.5792 
L 287.600697 194.184 
L 286.118257 195.0912 
L 283.746351 197.5104 
L 282.560399 200.5344 
L 281.077958 203.5584 
L 279.892005 206.5824 
L 278.113076 209.6064 
L 277.223611 213.5376 
L 276.334147 215.0496 
L 275.444682 218.376 
L 274.555218 219.888 
L 273.665753 223.2144 
L 272.776289 224.424 
L 271.886824 227.448 
L 270.99736 228.3552 
L 269.811407 231.984 
L 268.328966 234.4032 
L 265.660573 237.7296 
L 263.288667 239.544 
L 262.399203 239.8464 
L 261.21325 239.8464 
L 260.027298 239.544 
L 259.137833 239.8464 
L 258.248369 239.2416 
L 255.876463 238.3344 
L 255.579975 238.6368 
L 255.283487 238.6368 
L 254.690511 239.2416 
L 254.394022 239.8464 
L 253.504558 240.7536 
L 252.911582 241.056 
L 251.429141 241.056 
L 249.650212 240.1488 
L 248.760747 239.2416 
L 247.278306 237.1248 
L 246.388842 235.9152 
L 245.202889 234.1008 
L 243.720448 232.2864 
L 240.755567 227.448 
L 239.273126 224.7264 
L 237.494197 222.0048 
L 235.715268 218.6784 
L 233.343362 215.352 
L 231.267945 211.7232 
L 229.192528 204.768 
L 225.338182 193.2768 
L 223.855741 187.8336 
L 221.780324 183.6 
L 218.222466 174.528 
L 215.85056 161.2224 
L 214.961096 158.1984 
L 214.36812 154.5696 
L 213.478655 151.848 
L 213.182167 148.824 
L 212.589191 147.0096 
L 212.589191 144.5904 
L 211.403238 139.4496 
L 210.513773 136.728 
L 209.327821 133.704 
L 207.84538 130.3776 
L 205.769963 126.7488 
L 203.694545 122.5152 
L 200.729664 117.9792 
L 197.764782 112.536 
L 182.050909 87.1344 
L 177.603587 80.4816 
L 169.894894 66.5712 
L 166.633524 59.616 
L 163.372154 53.568 
L 110.300772 53.568 
L 105.85345 54.1728 
L 102.888568 56.592 
L 100.220174 60.8256 
L 99.034222 66.5712 
L 99.034222 72.9216 
L 99.33071 79.8768 
L 99.923686 86.2272 
L 99.923686 91.9728 
L 100.220174 97.1136 
L 100.220174 104.3712 
L 99.923686 106.488 
L 99.33071 108 
L 98.441245 108.9072 
L 94.883387 108.9072 
L 92.511482 108.6048 
L 88.360648 107.3952 
L 85.988742 107.0928 
L 79.466002 107.0928 
L 77.390585 107.6976 
L 75.908144 108 
L 74.722192 108.9072 
L 74.129215 109.8144 
L 73.832727 111.024 
L 74.129215 112.536 
L 74.722192 114.3504 
L 75.611656 116.1648 
L 77.094097 117.9792 
L 78.28005 120.096 
L 80.058979 122.5152 
L 82.134396 124.9344 
L 84.80279 127.656 
L 87.471183 129.7728 
L 92.80797 134.6112 
L 95.476364 136.728 
L 97.848269 138.8448 
L 102.59208 141.5664 
L 109.411308 144.288 
L 111.486725 145.4976 
L 118.602441 148.2192 
L 120.974346 148.824 
L 123.049763 149.1264 
L 125.125181 150.0336 
L 127.793574 150.6384 
L 127.793574 150.6384 
" clip-path="url(#p9f11ba8063)" style="fill: none; stroke: #ffa07a; stroke-width: 1.5; stroke-linecap: square"/>
   </g>
   <g id="line2d_9">
    <path d="M 348.67726 160.3152 
" clip-path="url(#p9f11ba8063)" style="fill: none; stroke: #ffa07a; stroke-width: 1.5; stroke-linecap: square"/>
    <defs>
     <path id="ma126740a41" d="M 0 5 
C 1.326016 5 2.597899 4.473168 3.535534 3.535534 
C 4.473168 2.597899 5 1.326016 5 0 
C 5 -1.326016 4.473168 -2.597899 3.535534 -3.535534 
C 2.597899 -4.473168 1.326016 -5 0 -5 
C -1.326016 -5 -2.597899 -4.473168 -3.535534 -3.535534 
C -4.473168 -2.597899 -5 -1.326016 -5 0 
C -5 1.326016 -4.473168 2.597899 -3.535534 3.535534 
C -2.597899 4.473168 -1.326016 5 0 5 
z
" style="stroke: #ffa07a"/>
    </defs>
    <g clip-path="url(#p9f11ba8063)">
     <use xlink:href="#ma126740a41" x="348.67726" y="160.3152" style="fill: #ffa07a; stroke: #ffa07a"/>
    </g>
   </g>
   <g id="line2d_10">
    <path d="M 127.793574 150.6384 
" clip-path="url(#p9f11ba8063)" style="fill: none; stroke: #ffa07a; stroke-width: 1.5; stroke-linecap: square"/>
    <defs>
     <path id="mdd3ad26032" d="M -5 5 
L 5 5 
L 5 -5 
L -5 -5 
z
" style="stroke: #ffa07a; stroke-linejoin: miter"/>
    </defs>
    <g clip-path="url(#p9f11ba8063)">
     <use xlink:href="#mdd3ad26032" x="127.793574" y="150.6384" style="fill: #ffa07a; stroke: #ffa07a; stroke-linejoin: miter"/>
    </g>
   </g>
   <g id="line2d_11">
    <path d="M 326.144159 188.4384 
L 332.073923 187.8336 
L 334.742316 187.2288 
L 344.822914 186.0192 
L 346.898331 186.0192 
L 348.973748 185.7168 
L 355.792976 185.7168 
L 357.571905 186.0192 
L 359.350834 183.9024 
L 361.129763 186.9264 
L 365.577086 188.7408 
L 367.652503 190.2528 
L 369.134944 191.7648 
L 369.134944 192.3696 
L 369.431432 192.9744 
L 369.134944 193.5792 
L 368.838456 193.5792 
L 367.948991 193.8816 
L 365.873574 193.2768 
L 364.687621 192.672 
L 364.391133 192.3696 
L 362.908692 191.4624 
L 361.129763 189.648 
L 359.647323 187.5312 
L 358.164882 186.624 
L 357.571905 186.0192 
L 351.93863 179.064 
L 348.973748 176.04 
L 346.898331 174.2256 
L 342.747497 171.2016 
L 340.375592 170.2944 
L 338.003686 168.7824 
L 335.335293 167.5728 
L 333.852852 166.6656 
L 329.702017 164.5488 
L 326.737136 163.3392 
L 323.475766 162.432 
L 320.807372 161.2224 
L 316.36005 160.3152 
L 306.279452 156.9888 
L 300.646177 155.1744 
L 295.012902 153.9648 
L 283.153375 150.0336 
L 279.595517 149.4288 
L 276.334147 148.2192 
L 272.776289 147.312 
L 268.625455 146.4048 
L 264.771108 145.1952 
L 256.172951 142.776 
L 251.725629 141.264 
L 236.604732 135.5184 
L 230.971457 133.0992 
L 218.815442 128.2608 
L 212.885679 125.5392 
L 206.659427 122.8176 
L 200.136687 120.3984 
L 193.910436 117.6768 
L 187.091208 115.56 
L 180.27198 112.8384 
L 173.452752 110.4192 
L 166.633524 107.6976 
L 159.814296 105.2784 
L 152.105604 102.8592 
L 144.6934 100.7424 
L 137.281196 98.3232 
L 119.788394 95.2992 
L 101.406127 91.6704 
L 84.506301 87.7392 
L 76.204633 85.9248 
L 73.832727 83.808 
L 73.832727 82.5984 
L 73.832727 86.5296 
L 74.722192 88.6464 
L 76.501121 91.0656 
L 78.576538 93.4848 
L 81.244932 96.8112 
L 87.767671 102.8592 
L 91.918506 105.8832 
L 95.772852 109.2096 
L 99.627198 112.8384 
L 104.074521 116.1648 
L 112.969166 123.4224 
L 117.712976 127.0512 
L 120.084882 129.168 
L 126.90411 134.6112 
L 136.391731 141.8688 
L 141.135542 145.1952 
L 145.582864 148.5216 
L 164.261619 161.5248 
L 173.156264 167.5728 
L 177.603587 169.992 
L 181.457933 172.7136 
L 185.312279 175.1328 
L 193.020971 179.3664 
L 196.578829 180.8784 
L 199.840199 182.6928 
L 202.805081 184.2048 
L 206.066451 185.4144 
L 208.734844 186.624 
L 211.403238 187.5312 
L 214.071631 188.7408 
L 216.147049 189.3456 
L 221.780324 190.2528 
L 224.152229 190.2528 
L 225.041694 189.9504 
L 225.931158 188.7408 
L 226.820623 187.2288 
L 227.413599 183.9024 
L 227.117111 181.7856 
L 226.524134 179.6688 
L 225.931158 176.9472 
L 225.041694 173.9232 
L 223.855741 170.2944 
L 222.076812 166.6656 
L 220.594371 162.432 
L 217.036513 153.9648 
L 214.961096 150.0336 
L 212.885679 146.4048 
L 210.217285 143.3808 
L 207.252403 140.3568 
L 200.136687 135.216 
L 192.427995 130.3776 
L 188.573649 128.2608 
L 184.422814 126.7488 
L 174.638705 125.2368 
L 170.784359 124.9344 
L 165.151083 124.3296 
L 163.075666 124.3296 
L 157.145903 124.9344 
L 153.588045 124.3296 
L 149.43721 125.2368 
L 143.507447 124.3296 
L 136.688219 121.9104 
L 131.944408 120.3984 
L 128.090062 119.7936 
L 124.235716 120.096 
L 118.898929 120.096 
L 110.300772 119.1888 
L 108.225355 118.8864 
L 104.667497 117.9792 
L 99.627198 117.3744 
L 97.255293 116.4672 
L 96.365828 116.7696 
L 96.365828 117.072 
L 97.255293 117.9792 
L 98.441245 118.8864 
L 99.034222 119.4912 
L 100.813151 120.7008 
L 102.59208 122.2128 
L 104.371009 123.4224 
L 107.039402 125.5392 
L 108.818331 126.7488 
L 111.783213 129.168 
L 114.451606 131.8896 
L 115.341071 132.4944 
L 116.823512 134.0064 
L 117.12 134.6112 
L 118.898929 136.4256 
L 119.195417 137.3328 
L 119.788394 137.9376 
L 120.084882 138.5424 
L 120.677858 139.4496 
L 121.863811 140.6592 
L 122.456787 141.5664 
L 123.049763 142.1712 
L 123.346252 142.776 
L 124.235716 143.6832 
L 124.532204 144.288 
L 125.421669 144.8928 
L 126.311133 145.8 
L 128.683039 147.6144 
L 129.868991 148.824 
L 132.537385 150.6384 
L 134.316314 152.1504 
L 136.391731 153.6624 
L 138.467148 155.4768 
L 139.653101 156.0816 
L 142.025006 157.5936 
L 145.879352 159.7104 
L 147.065305 160.6176 
L 149.733699 162.1296 
L 153.291557 163.944 
L 153.291557 163.944 
" clip-path="url(#p9f11ba8063)" style="fill: none; stroke: #00fa9a; stroke-width: 1.5; stroke-linecap: square"/>
   </g>
   <g id="line2d_12">
    <path d="M 326.144159 188.4384 
" clip-path="url(#p9f11ba8063)" style="fill: none; stroke: #00fa9a; stroke-width: 1.5; stroke-linecap: square"/>
    <defs>
     <path id="m05ef85970f" d="M 0 5 
C 1.326016 5 2.597899 4.473168 3.535534 3.535534 
C 4.473168 2.597899 5 1.326016 5 0 
C 5 -1.326016 4.473168 -2.597899 3.535534 -3.535534 
C 2.597899 -4.473168 1.326016 -5 0 -5 
C -1.326016 -5 -2.597899 -4.473168 -3.535534 -3.535534 
C -4.473168 -2.597899 -5 -1.326016 -5 0 
C -5 1.326016 -4.473168 2.597899 -3.535534 3.535534 
C -2.597899 4.473168 -1.326016 5 0 5 
z
" style="stroke: #00fa9a"/>
    </defs>
    <g clip-path="url(#p9f11ba8063)">
     <use xlink:href="#m05ef85970f" x="326.144159" y="188.4384" style="fill: #00fa9a; stroke: #00fa9a"/>
    </g>
   </g>
   <g id="line2d_13">
    <path d="M 153.291557 163.944 
" clip-path="url(#p9f11ba8063)" style="fill: none; stroke: #00fa9a; stroke-width: 1.5; stroke-linecap: square"/>
    <defs>
     <path id="mfab0827331" d="M -5 5 
L 5 5 
L 5 -5 
L -5 -5 
z
" style="stroke: #00fa9a; stroke-linejoin: miter"/>
    </defs>
    <g clip-path="url(#p9f11ba8063)">
     <use xlink:href="#mfab0827331" x="153.291557" y="163.944" style="fill: #00fa9a; stroke: #00fa9a; stroke-linejoin: miter"/>
    </g>
   </g>
   <g id="line2d_14">
    <path d="M 342.747497 243.4752 
L 343.93345 242.2656 
L 345.119402 241.6608 
L 345.712379 241.056 
L 345.712379 240.4512 
L 346.008867 240.1488 
L 346.305355 239.544 
L 346.601843 239.544 
L 347.194819 238.3344 
L 347.194819 237.4272 
L 347.491308 237.1248 
L 347.491308 235.6128 
L 347.194819 235.3104 
L 347.194819 234.7056 
L 346.898331 234.4032 
L 346.305355 234.4032 
L 345.41589 234.1008 
L 344.822914 234.1008 
L 343.636961 233.496 
L 342.451009 233.7984 
L 340.968568 233.1936 
L 336.817733 231.984 
L 334.14934 231.3792 
L 331.480946 230.1696 
L 325.551183 227.7504 
L 309.244334 217.1664 
L 306.279452 214.7472 
L 294.123437 205.6752 
L 291.751532 203.256 
L 287.304209 200.5344 
L 283.449863 197.8128 
L 283.449863 197.8128 
L 281.967422 196.6032 
L 279.299029 195.0912 
L 275.444682 192.3696 
L 261.509738 184.2048 
L 258.248369 182.6928 
L 255.579975 180.8784 
L 252.911582 179.6688 
L 250.243188 178.1568 
L 247.574795 176.9472 
L 245.202889 175.4352 
L 242.534496 174.2256 
L 237.790685 171.8064 
L 232.453898 168.7824 
L 229.785504 167.8752 
L 227.117111 166.6656 
L 221.780324 163.6416 
L 209.920797 157.5936 
L 206.659427 156.384 
L 203.398057 154.872 
L 200.433176 153.6624 
L 193.31746 151.2432 
L 189.463113 150.336 
L 185.312279 149.1264 
L 180.864956 148.2192 
L 176.417634 147.0096 
L 171.377335 146.1024 
L 166.633524 144.5904 
L 161.296737 143.6832 
L 150.919651 141.264 
L 140.542565 139.4496 
L 136.391731 138.5424 
L 132.833873 137.9376 
L 129.572503 137.9376 
L 127.793574 138.5424 
L 127.200598 139.752 
L 127.497086 140.9616 
L 128.979527 143.0784 
L 131.054944 145.4976 
L 136.688219 150.6384 
L 144.396912 156.6864 
L 148.547746 160.3152 
L 152.995068 163.6416 
L 169.894894 177.552 
L 174.045729 180.576 
L 180.864956 186.3216 
L 187.091208 191.16 
L 189.759601 193.5792 
L 192.427995 195.3936 
L 194.503412 197.5104 
L 196.578829 199.0224 
L 200.136687 202.0464 
L 206.659427 205.9776 
L 206.955915 205.9776 
L 206.659427 205.6752 
L 206.659427 205.0704 
L 206.362939 204.4656 
L 206.362939 203.8608 
L 206.955915 203.5584 
L 207.84538 202.9536 
L 209.031333 202.6512 
L 212.292702 202.6512 
L 217.333001 203.8608 
L 220.297883 204.1632 
L 223.262765 204.1632 
L 226.227646 203.8608 
L 235.41878 203.8608 
L 238.680149 204.1632 
L 241.348543 204.1632 
L 246.981818 203.5584 
L 249.353724 202.9536 
L 251.429141 202.6512 
L 253.20807 202.0464 
L 256.765928 201.4416 
L 260.027298 201.4416 
L 261.509738 201.744 
L 266.550037 201.744 
L 267.73599 202.0464 
L 269.218431 202.0464 
L 270.404384 201.744 
L 272.479801 201.744 
L 272.479801 201.4416 
L 271.590336 200.5344 
L 268.625455 199.0224 
L 263.585156 197.208 
L 261.21325 196.3008 
L 258.544857 195.0912 
L 255.876463 193.5792 
L 252.911582 192.0672 
L 249.650212 190.5552 
L 246.388842 188.4384 
L 242.830984 186.3216 
L 239.569614 183.9024 
L 237.790685 182.9952 
L 228.599552 177.8544 
L 225.338182 175.7376 
L 223.262765 174.8304 
L 217.333001 171.504 
L 215.257584 169.992 
L 211.10675 167.2704 
L 198.06127 159.7104 
L 191.835019 156.0816 
L 185.312279 152.4528 
L 178.493051 148.824 
L 171.377335 144.8928 
L 163.965131 140.9616 
L 143.507447 129.7728 
L 132.240897 124.0272 
L 126.607621 121.3056 
L 121.863811 118.8864 
L 117.712976 116.1648 
L 113.562142 113.7456 
L 110.300772 111.3264 
L 106.742914 108.9072 
L 103.778032 106.488 
L 101.109639 104.6736 
L 98.441245 102.5568 
L 96.662316 101.3472 
L 94.883387 101.0448 
L 93.400946 100.44 
L 92.80797 100.44 
L 92.214994 101.0448 
L 92.511482 100.1376 
L 93.697435 101.3472 
L 94.586899 101.3472 
L 95.179875 101.6496 
L 97.848269 103.1616 
L 100.220174 104.6736 
L 105.85345 108.9072 
L 108.818331 111.9312 
L 112.376189 115.2576 
L 113.85863 117.072 
L 123.64274 127.656 
L 126.90411 132.4944 
L 130.461968 136.728 
L 133.426849 140.6592 
L 137.874172 147.9168 
L 139.356613 150.9408 
L 140.839054 153.36 
L 141.728518 155.7792 
L 143.507447 159.408 
L 144.100423 160.92 
L 144.396912 162.432 
L 144.989888 163.944 
L 145.879352 168.1776 
L 146.472329 169.3872 
L 146.472329 169.992 
L 147.065305 171.2016 
L 147.361793 172.7136 
L 147.361793 173.6208 
L 147.658281 174.528 
L 148.251258 175.1328 
L 148.547746 176.04 
L 149.140722 176.9472 
L 149.733699 178.1568 
L 149.733699 178.7616 
L 150.919651 179.6688 
L 152.105604 180.2736 
L 152.69858 180.8784 
L 155.663462 182.6928 
L 156.849415 182.9952 
L 158.035367 183.6 
L 158.924832 184.2048 
L 160.703761 184.8096 
L 162.779178 184.8096 
L 164.261619 184.2048 
L 164.558107 183.9024 
L 165.151083 183.6 
L 165.447572 183.2976 
L 165.74406 182.6928 
L 165.74406 182.088 
L 166.040548 180.8784 
L 166.040548 179.6688 
L 165.74406 178.4592 
L 165.74406 176.9472 
L 165.447572 175.4352 
L 164.261619 171.8064 
L 163.965131 169.3872 
L 163.372154 167.2704 
L 162.48269 164.8512 
L 161.889714 162.432 
L 161.000249 159.7104 
L 156.256438 148.824 
L 154.477509 146.4048 
L 151.216139 142.4736 
L 149.43721 139.752 
L 149.733699 139.4496 
L 150.623163 139.4496 
L 154.181021 140.9616 
L 159.22132 143.9856 
L 162.779178 146.4048 
L 166.633524 148.824 
L 170.191382 151.5456 
L 178.196563 157.2912 
L 185.905255 163.3392 
L 189.463113 165.7584 
L 195.096389 169.992 
L 199.247223 172.7136 
L 200.433176 173.6208 
L 201.915616 175.1328 
L 201.915616 175.4352 
L 201.32264 176.04 
L 201.026152 176.6448 
L 200.433176 177.2496 
L 200.433176 179.9712 
L 200.136687 181.4832 
L 200.136687 187.5312 
L 200.729664 192.3696 
L 200.433176 194.184 
L 199.840199 195.9984 
L 199.840199 198.1152 
L 199.543711 200.5344 
L 200.136687 205.6752 
L 200.136687 208.3968 
L 200.433176 211.4208 
L 201.026152 214.1424 
L 201.32264 216.864 
L 203.101569 222.6096 
L 205.473474 228.6576 
L 206.362939 231.6816 
L 207.548892 234.1008 
L 209.031333 236.8224 
L 210.513773 239.2416 
L 211.699726 241.6608 
L 213.775143 244.08 
L 215.257584 246.8016 
L 216.740025 249.2208 
L 218.815442 251.3376 
L 220.594371 254.0592 
L 224.745205 258.8976 
L 226.820623 261.9216 
L 231.267945 267.0624 
L 236.604732 272.5056 
L 248.464259 286.7184 
L 254.097534 292.464 
L 257.358904 294.8832 
L 260.027298 295.488 
L 286.414745 295.488 
L 276.927123 295.488 
L 273.665753 295.1856 
L 270.404384 295.488 
L 266.550037 294.5808 
L 262.992179 295.488 
L 259.434321 295.488 
L 255.283487 294.2784 
L 250.836164 292.464 
L 246.388842 290.0448 
L 241.941519 286.7184 
L 237.197709 282.4848 
L 227.117111 271.5984 
L 222.076812 265.248 
L 216.147049 258.2928 
L 209.920797 250.7328 
L 203.694545 242.8704 
L 197.764782 234.7056 
L 191.538531 226.5408 
L 185.312279 218.0736 
L 178.493051 209.6064 
L 178.493051 209.6064 
" clip-path="url(#p9f11ba8063)" style="fill: none; stroke: #008000; stroke-width: 1.5; stroke-linecap: square"/>
   </g>
   <g id="line2d_15">
    <path d="M 342.747497 243.4752 
" clip-path="url(#p9f11ba8063)" style="fill: none; stroke: #008000; stroke-width: 1.5; stroke-linecap: square"/>
    <defs>
     <path id="m7cbc3eadff" d="M 0 5 
C 1.326016 5 2.597899 4.473168 3.535534 3.535534 
C 4.473168 2.597899 5 1.326016 5 0 
C 5 -1.326016 4.473168 -2.597899 3.535534 -3.535534 
C 2.597899 -4.473168 1.326016 -5 0 -5 
C -1.326016 -5 -2.597899 -4.473168 -3.535534 -3.535534 
C -4.473168 -2.597899 -5 -1.326016 -5 0 
C -5 1.326016 -4.473168 2.597899 -3.535534 3.535534 
C -2.597899 4.473168 -1.326016 5 0 5 
z
" style="stroke: #008000"/>
    </defs>
    <g clip-path="url(#p9f11ba8063)">
     <use xlink:href="#m7cbc3eadff" x="342.747497" y="243.4752" style="fill: #008000; stroke: #008000"/>
    </g>
   </g>
   <g id="line2d_16">
    <path d="M 178.493051 209.6064 
" clip-path="url(#p9f11ba8063)" style="fill: none; stroke: #008000; stroke-width: 1.5; stroke-linecap: square"/>
    <defs>
     <path id="m284464af0e" d="M -5 5 
L 5 5 
L 5 -5 
L -5 -5 
z
" style="stroke: #008000; stroke-linejoin: miter"/>
    </defs>
    <g clip-path="url(#p9f11ba8063)">
     <use xlink:href="#m284464af0e" x="178.493051" y="209.6064" style="fill: #008000; stroke: #008000; stroke-linejoin: miter"/>
    </g>
   </g>
   <g id="line2d_17">
    <path d="M 217.925978 81.9936 
L 226.820623 86.832 
L 235.41878 91.9728 
L 243.720448 97.1136 
L 252.022117 102.8592 
L 260.027298 108.6048 
L 268.032478 114.6528 
L 275.741171 121.0032 
L 287.007721 130.68 
L 297.384807 140.0544 
L 303.611059 146.1024 
L 309.244334 151.848 
L 322.88279 166.6656 
L 326.440648 170.8992 
L 329.702017 174.2256 
L 332.370411 177.552 
L 338.596663 184.8096 
L 340.079103 186.624 
L 341.561544 187.8336 
L 342.747497 189.0432 
L 343.93345 189.648 
L 344.526426 189.648 
L 345.119402 189.3456 
L 345.712379 188.7408 
L 345.712379 185.112 
L 345.41589 182.6928 
L 345.41589 179.6688 
L 345.119402 176.9472 
L 345.119402 170.8992 
L 345.41589 169.992 
L 345.712379 168.48 
L 346.898331 164.2464 
L 348.380772 160.92 
L 349.270237 160.0128 
L 350.159701 159.7104 
L 350.752677 159.7104 
L 353.421071 160.6176 
L 354.607024 161.2224 
L 355.792976 161.5248 
L 360.240299 163.3392 
L 363.501669 163.944 
L 367.059527 163.944 
L 368.838456 164.2464 
L 370.617385 163.944 
L 372.396314 163.944 
L 380.994471 162.432 
L 382.476912 162.432 
L 383.959352 161.8272 
L 385.441793 161.5248 
L 389.592628 161.5248 
L 390.77858 161.2224 
L 391.668045 161.2224 
L 392.853998 160.92 
L 393.446974 160.6176 
L 394.336438 160.92 
L 395.522391 160.3152 
L 395.818879 160.3152 
L 396.115367 160.0128 
L 396.411856 160.0128 
L 396.411856 159.7104 
L 396.411856 159.7104 
L 396.115367 160.0128 
L 394.929415 158.8032 
L 394.336438 157.5936 
L 393.150486 155.7792 
L 391.964533 152.7552 
L 390.185604 149.4288 
L 389.296139 148.2192 
L 385.441793 141.8688 
L 383.959352 140.6592 
L 378.919054 134.0064 
L 375.361196 130.0752 
L 371.210361 127.0512 
L 367.059527 124.632 
L 362.908692 122.8176 
L 360.833275 122.5152 
L 354.607024 121.3056 
L 349.863213 121.0032 
L 346.898331 121.0032 
L 338.596663 120.3984 
L 332.370411 120.096 
L 322.289813 118.2816 
L 306.872428 114.048 
L 289.972603 108.3024 
L 281.077958 104.6736 
L 271.886824 101.3472 
L 257.95188 95.6016 
L 248.760747 91.9728 
L 232.750386 85.0176 
L 219.11193 80.4816 
L 210.513773 77.76 
L 203.101569 76.248 
L 201.026152 75.6432 
L 198.06127 75.0384 
L 194.206924 74.736 
L 193.020971 75.9456 
L 193.020971 77.1552 
L 195.096389 80.4816 
L 197.171806 82.5984 
L 202.508593 87.4368 
L 205.769963 90.1584 
L 209.031333 93.4848 
L 212.885679 96.5088 
L 220.594371 103.7664 
L 225.338182 107.6976 
L 233.639851 114.9552 
L 236.011756 116.7696 
L 247.278306 126.144 
L 268.032478 143.0784 
L 275.148194 148.5216 
L 281.077958 153.36 
L 286.414745 156.9888 
L 288.490162 158.8032 
L 294.419925 163.0368 
L 296.198854 164.2464 
L 297.681295 165.456 
L 303.31457 168.7824 
L 304.500523 169.3872 
L 305.686476 170.2944 
L 306.57594 170.5968 
L 307.761893 171.2016 
L 309.83731 171.8064 
L 311.023263 172.1088 
L 312.209215 171.8064 
L 313.09868 170.8992 
L 313.988144 170.2944 
L 315.174097 169.992 
L 316.953026 169.992 
L 318.138979 170.2944 
L 319.917908 172.1088 
L 320.510884 173.3184 
L 322.289813 179.064 
L 322.586301 181.1808 
L 323.179278 183.6 
L 323.772254 187.8336 
L 323.772254 189.9504 
L 323.475766 191.7648 
L 323.475766 193.2768 
L 323.179278 194.184 
L 322.586301 194.4864 
L 320.214396 192.0672 
L 319.324932 191.4624 
L 318.138979 190.8576 
L 317.249514 190.5552 
L 315.767073 189.648 
L 314.581121 189.3456 
L 313.395168 188.7408 
L 310.430286 187.5312 
L 308.058381 187.5312 
L 307.168917 188.136 
L 306.57594 188.7408 
L 305.389988 190.5552 
L 305.093499 191.4624 
L 305.093499 192.3696 
L 305.389988 193.2768 
L 305.389988 194.4864 
L 305.982964 195.696 
L 306.57594 197.8128 
L 307.168917 198.4176 
L 307.761893 199.3248 
L 309.540822 200.5344 
L 310.133798 200.5344 
L 311.023263 200.8368 
L 311.616239 200.8368 
L 312.505704 201.1392 
L 314.877609 201.1392 
L 315.174097 201.4416 
L 315.470585 201.4416 
L 315.470585 204.1632 
L 315.174097 204.768 
L 315.470585 205.3728 
L 315.470585 205.6752 
L 316.36005 207.4896 
L 316.656538 208.3968 
L 316.656538 209.6064 
L 316.36005 211.4208 
L 316.36005 212.9328 
L 315.470585 218.6784 
L 315.174097 219.888 
L 315.174097 223.2144 
L 316.063562 224.424 
L 316.953026 225.3312 
L 318.138979 227.1456 
L 317.546002 228.3552 
L 316.36005 229.2624 
L 314.581121 231.0768 
L 313.988144 232.5888 
L 313.09868 233.7984 
L 311.912727 235.9152 
L 310.133798 241.6608 
L 310.133798 243.7776 
L 309.83731 245.592 
L 310.133798 247.4064 
L 310.133798 249.5232 
L 310.430286 251.0352 
L 311.023263 252.8496 
L 311.319751 254.3616 
L 312.209215 256.176 
L 312.505704 257.3856 
L 313.09868 259.2 
L 313.988144 260.4096 
L 314.284633 262.224 
L 314.877609 263.4336 
L 315.767073 264.3408 
L 316.063562 265.248 
L 316.656538 265.5504 
L 318.138979 266.4576 
L 318.435467 266.1552 
L 318.435467 264.9456 
L 318.731955 264.0384 
L 318.731955 261.3168 
L 318.435467 259.8048 
L 318.731955 258.8976 
L 318.731955 254.9664 
L 318.435467 253.4544 
L 318.435467 252.2448 
L 317.842491 249.5232 
L 317.249514 248.3136 
L 316.953026 246.8016 
L 316.36005 245.2896 
L 316.063562 243.4752 
L 313.691656 237.7296 
L 312.802192 236.52 
L 312.209215 232.8912 
L 311.616239 231.0768 
L 311.023263 228.0528 
L 310.430286 226.5408 
L 310.430286 226.5408 
" clip-path="url(#p9f11ba8063)" style="fill: none; stroke: #ffd700; stroke-width: 1.5; stroke-linecap: square"/>
   </g>
   <g id="line2d_18">
    <path d="M 217.925978 81.9936 
" clip-path="url(#p9f11ba8063)" style="fill: none; stroke: #ffd700; stroke-width: 1.5; stroke-linecap: square"/>
    <defs>
     <path id="m768e960a1b" d="M 0 5 
C 1.326016 5 2.597899 4.473168 3.535534 3.535534 
C 4.473168 2.597899 5 1.326016 5 0 
C 5 -1.326016 4.473168 -2.597899 3.535534 -3.535534 
C 2.597899 -4.473168 1.326016 -5 0 -5 
C -1.326016 -5 -2.597899 -4.473168 -3.535534 -3.535534 
C -4.473168 -2.597899 -5 -1.326016 -5 0 
C -5 1.326016 -4.473168 2.597899 -3.535534 3.535534 
C -2.597899 4.473168 -1.326016 5 0 5 
z
" style="stroke: #ffd700"/>
    </defs>
    <g clip-path="url(#p9f11ba8063)">
     <use xlink:href="#m768e960a1b" x="217.925978" y="81.9936" style="fill: #ffd700; stroke: #ffd700"/>
    </g>
   </g>
   <g id="line2d_19">
    <path d="M 310.430286 226.5408 
" clip-path="url(#p9f11ba8063)" style="fill: none; stroke: #ffd700; stroke-width: 1.5; stroke-linecap: square"/>
    <defs>
     <path id="m4cf53e24d4" d="M -5 5 
L 5 5 
L 5 -5 
L -5 -5 
z
" style="stroke: #ffd700; stroke-linejoin: miter"/>
    </defs>
    <g clip-path="url(#p9f11ba8063)">
     <use xlink:href="#m4cf53e24d4" x="310.430286" y="226.5408" style="fill: #ffd700; stroke: #ffd700; stroke-linejoin: miter"/>
    </g>
   </g>
   <g id="line2d_20">
    <path d="M 382.476912 218.376 
L 380.401494 218.9808 
L 378.029589 218.9808 
L 375.954172 219.5856 
L 373.285778 219.5856 
L 371.803337 219.888 
L 368.541968 219.888 
L 366.763039 219.5856 
L 364.98411 219.888 
L 362.908692 219.5856 
L 358.46137 219.5856 
L 350.456189 218.376 
L 349.270237 218.0736 
L 345.41589 217.4688 
L 341.561544 216.5616 
L 338.893151 216.2592 
L 329.405529 214.1424 
L 326.440648 213.2352 
L 325.254695 213.2352 
L 321.103861 212.0256 
L 319.62142 211.7232 
L 311.319751 209.0016 
L 308.651357 207.792 
L 305.982964 206.8848 
L 301.83213 205.0704 
L 300.349689 204.768 
L 297.384807 203.5584 
L 294.716413 202.0464 
L 292.04802 200.8368 
L 289.379626 199.3248 
L 284.042839 196.6032 
L 279.299029 193.5792 
L 276.927123 192.3696 
L 274.851706 191.16 
L 273.072777 190.2528 
L 270.99736 189.3456 
L 269.218431 188.4384 
L 265.067597 186.624 
L 261.509738 184.8096 
L 260.027298 184.2048 
L 258.248369 183.2976 
L 256.765928 182.6928 
L 254.986999 181.7856 
L 253.504558 181.1808 
L 251.725629 180.576 
L 249.9467 179.6688 
L 248.464259 179.064 
L 246.68533 178.4592 
L 243.127472 176.6448 
L 241.052055 176.04 
L 237.494197 174.2256 
L 236.011756 173.6208 
L 234.825803 173.016 
L 233.936339 172.4112 
L 231.860922 171.8064 
L 231.564433 171.8064 
L 230.674969 171.504 
L 230.081993 170.8992 
L 228.89604 170.5968 
L 227.413599 169.0848 
L 225.63467 167.8752 
L 223.559253 166.968 
L 218.222466 163.944 
L 213.478655 160.3152 
L 211.699726 159.1056 
L 210.810262 157.5936 
L 209.920797 156.9888 
L 209.031333 156.0816 
L 207.548892 153.9648 
L 206.066451 152.7552 
L 203.991034 151.848 
L 196.282341 147.312 
L 195.096389 146.4048 
L 197.764782 147.312 
L 200.136687 148.5216 
L 203.398057 149.7312 
L 209.031333 152.1504 
L 224.152229 159.1056 
L 228.303064 161.2224 
L 232.15741 163.3392 
L 235.715268 165.7584 
L 239.273126 167.8752 
L 248.464259 173.9232 
L 251.132653 175.7376 
L 253.801046 177.8544 
L 255.876463 180.576 
L 258.248369 182.3904 
L 260.027298 184.8096 
L 261.806227 188.136 
L 263.288667 190.2528 
L 265.067597 191.4624 
L 268.328966 194.184 
L 270.107895 195.3936 
L 275.741171 199.9296 
L 277.223611 200.5344 
L 278.113076 201.4416 
L 279.00254 202.0464 
L 279.892005 203.5584 
L 280.781469 204.768 
L 281.374446 205.3728 
L 282.26391 205.9776 
L 282.856887 206.5824 
L 283.746351 207.1872 
L 284.635816 207.4896 
L 286.118257 207.4896 
L 290.565579 205.9776 
L 291.751532 205.0704 
L 292.344508 204.768 
L 292.937484 204.1632 
L 294.419925 203.5584 
L 295.012902 202.9536 
L 295.30939 202.3488 
L 296.791831 200.8368 
L 296.791831 200.232 
L 297.088319 199.9296 
L 297.384807 199.3248 
L 297.384807 199.0224 
L 297.681295 199.0224 
L 297.977783 198.72 
L 297.977783 198.72 
L 298.274271 199.0224 
L 298.274271 199.0224 
L 298.274271 199.3248 
L 298.57076 199.9296 
L 298.867248 200.232 
L 298.867248 200.8368 
L 299.460224 202.0464 
L 300.0532 202.6512 
L 300.646177 203.8608 
L 300.646177 204.4656 
L 300.942665 205.3728 
L 301.535641 205.9776 
L 301.83213 206.5824 
L 302.425106 207.1872 
L 302.425106 207.1872 
L 303.018082 207.4896 
L 305.389988 209.9088 
L 306.57594 210.5136 
L 308.058381 211.4208 
L 309.83731 212.0256 
L 313.395168 214.1424 
L 315.470585 215.0496 
L 317.546002 216.2592 
L 319.917908 217.4688 
L 324.068742 219.888 
L 326.440648 221.0976 
L 328.812553 222.6096 
L 335.928269 226.2384 
L 338.596663 227.448 
L 340.968568 228.6576 
L 343.636961 229.5648 
L 346.305355 230.7744 
L 349.270237 231.0768 
L 351.642142 232.2864 
L 356.978929 234.1008 
L 362.612204 235.3104 
L 368.245479 235.9152 
L 370.617385 236.52 
L 375.954172 237.1248 
L 378.326077 237.1248 
L 380.994471 236.8224 
L 386.924234 236.8224 
L 388.703163 237.1248 
L 390.185604 237.1248 
L 392.557509 237.7296 
L 393.743462 237.7296 
L 394.632927 238.032 
L 395.225903 238.6368 
L 395.522391 239.2416 
L 395.818879 240.4512 
L 395.225903 241.3584 
L 394.632927 241.9632 
L 393.743462 242.568 
L 392.853998 243.4752 
L 386.331258 245.592 
L 382.476912 246.4992 
L 380.105006 246.1968 
L 377.140125 246.4992 
L 370.913873 245.8944 
L 365.577086 244.9872 
L 361.426252 244.6848 
L 357.275417 244.08 
L 348.084284 242.2656 
L 343.043985 241.3584 
L 332.666899 238.3344 
L 321.103861 235.3104 
L 309.83731 231.6816 
L 303.907547 229.5648 
L 301.239153 228.3552 
L 292.640996 224.7264 
L 283.449863 221.0976 
L 274.25873 217.1664 
L 268.328966 214.4448 
L 262.399203 211.4208 
L 256.172951 208.3968 
L 250.539676 205.3728 
L 250.539676 205.3728 
" clip-path="url(#p9f11ba8063)" style="fill: none; stroke: #800080; stroke-width: 1.5; stroke-linecap: square"/>
   </g>
   <g id="line2d_21">
    <path d="M 382.476912 218.376 
" clip-path="url(#p9f11ba8063)" style="fill: none; stroke: #800080; stroke-width: 1.5; stroke-linecap: square"/>
    <defs>
     <path id="m0dbf74d090" d="M 0 5 
C 1.326016 5 2.597899 4.473168 3.535534 3.535534 
C 4.473168 2.597899 5 1.326016 5 0 
C 5 -1.326016 4.473168 -2.597899 3.535534 -3.535534 
C 2.597899 -4.473168 1.326016 -5 0 -5 
C -1.326016 -5 -2.597899 -4.473168 -3.535534 -3.535534 
C -4.473168 -2.597899 -5 -1.326016 -5 0 
C -5 1.326016 -4.473168 2.597899 -3.535534 3.535534 
C -2.597899 4.473168 -1.326016 5 0 5 
z
" style="stroke: #800080"/>
    </defs>
    <g clip-path="url(#p9f11ba8063)">
     <use xlink:href="#m0dbf74d090" x="382.476912" y="218.376" style="fill: #800080; stroke: #800080"/>
    </g>
   </g>
   <g id="line2d_22">
    <path d="M 250.539676 205.3728 
" clip-path="url(#p9f11ba8063)" style="fill: none; stroke: #800080; stroke-width: 1.5; stroke-linecap: square"/>
    <defs>
     <path id="m314a66d71f" d="M -5 5 
L 5 5 
L 5 -5 
L -5 -5 
z
" style="stroke: #800080; stroke-linejoin: miter"/>
    </defs>
    <g clip-path="url(#p9f11ba8063)">
     <use xlink:href="#m314a66d71f" x="250.539676" y="205.3728" style="fill: #800080; stroke: #800080; stroke-linejoin: miter"/>
    </g>
   </g>
   <g id="patch_3">
    <path d="M 57.6 307.584 
L 57.6 41.472 
" style="fill: none; stroke: #000000; stroke-width: 0.8; stroke-linejoin: miter; stroke-linecap: square"/>
   </g>
   <g id="patch_4">
    <path d="M 57.6 307.584 
L 414.72 307.584 
" style="fill: none; stroke: #000000; stroke-width: 0.8; stroke-linejoin: miter; stroke-linecap: square"/>
   </g>
   <g id="legend_1">
    <g id="patch_5">
     <path d="M 282.164531 119.523563 
L 404.22 119.523563 
Q 407.22 119.523563 407.22 116.523563 
L 407.22 51.972 
Q 407.22 48.972 404.22 48.972 
L 282.164531 48.972 
Q 279.164531 48.972 279.164531 51.972 
L 279.164531 116.523563 
Q 279.164531 119.523563 282.164531 119.523563 
z
" style="fill: #ffffff; opacity: 0.8; stroke: #cccccc; stroke-linejoin: miter"/>
    </g>
    <g id="line2d_23">
     <path d="M 285.164531 61.119656 
L 300.164531 61.119656 
L 315.164531 61.119656 
" style="fill: none; stroke: #000000; stroke-width: 1.5; stroke-linecap: square"/>
    </g>
    <g id="text_7">
     <!-- Trajectory -->
     <g transform="translate(327.164531 66.369656)scale(0.15 -0.15)">
      <defs>
       <path id="DejaVuSans-54" d="M -19 4666 
L 3928 4666 
L 3928 4134 
L 2272 4134 
L 2272 0 
L 1638 0 
L 1638 4134 
L -19 4134 
L -19 4666 
z
" transform="scale(0.015625)"/>
       <path id="DejaVuSans-72" d="M 2631 2963 
Q 2534 3019 2420 3045 
Q 2306 3072 2169 3072 
Q 1681 3072 1420 2755 
Q 1159 2438 1159 1844 
L 1159 0 
L 581 0 
L 581 3500 
L 1159 3500 
L 1159 2956 
Q 1341 3275 1631 3429 
Q 1922 3584 2338 3584 
Q 2397 3584 2469 3576 
Q 2541 3569 2628 3553 
L 2631 2963 
z
" transform="scale(0.015625)"/>
       <path id="DejaVuSans-61" d="M 2194 1759 
Q 1497 1759 1228 1600 
Q 959 1441 959 1056 
Q 959 750 1161 570 
Q 1363 391 1709 391 
Q 2188 391 2477 730 
Q 2766 1069 2766 1631 
L 2766 1759 
L 2194 1759 
z
M 3341 1997 
L 3341 0 
L 2766 0 
L 2766 531 
Q 2569 213 2275 61 
Q 1981 -91 1556 -91 
Q 1019 -91 701 211 
Q 384 513 384 1019 
Q 384 1609 779 1909 
Q 1175 2209 1959 2209 
L 2766 2209 
L 2766 2266 
Q 2766 2663 2505 2880 
Q 2244 3097 1772 3097 
Q 1472 3097 1187 3025 
Q 903 2953 641 2809 
L 641 3341 
Q 956 3463 1253 3523 
Q 1550 3584 1831 3584 
Q 2591 3584 2966 3190 
Q 3341 2797 3341 1997 
z
" transform="scale(0.015625)"/>
       <path id="DejaVuSans-6a" d="M 603 3500 
L 1178 3500 
L 1178 -63 
Q 1178 -731 923 -1031 
Q 669 -1331 103 -1331 
L -116 -1331 
L -116 -844 
L 38 -844 
Q 366 -844 484 -692 
Q 603 -541 603 -63 
L 603 3500 
z
M 603 4863 
L 1178 4863 
L 1178 4134 
L 603 4134 
L 603 4863 
z
" transform="scale(0.015625)"/>
       <path id="DejaVuSans-65" d="M 3597 1894 
L 3597 1613 
L 953 1613 
Q 991 1019 1311 708 
Q 1631 397 2203 397 
Q 2534 397 2845 478 
Q 3156 559 3463 722 
L 3463 178 
Q 3153 47 2828 -22 
Q 2503 -91 2169 -91 
Q 1331 -91 842 396 
Q 353 884 353 1716 
Q 353 2575 817 3079 
Q 1281 3584 2069 3584 
Q 2775 3584 3186 3129 
Q 3597 2675 3597 1894 
z
M 3022 2063 
Q 3016 2534 2758 2815 
Q 2500 3097 2075 3097 
Q 1594 3097 1305 2825 
Q 1016 2553 972 2059 
L 3022 2063 
z
" transform="scale(0.015625)"/>
       <path id="DejaVuSans-63" d="M 3122 3366 
L 3122 2828 
Q 2878 2963 2633 3030 
Q 2388 3097 2138 3097 
Q 1578 3097 1268 2742 
Q 959 2388 959 1747 
Q 959 1106 1268 751 
Q 1578 397 2138 397 
Q 2388 397 2633 464 
Q 2878 531 3122 666 
L 3122 134 
Q 2881 22 2623 -34 
Q 2366 -91 2075 -91 
Q 1284 -91 818 406 
Q 353 903 353 1747 
Q 353 2603 823 3093 
Q 1294 3584 2113 3584 
Q 2378 3584 2631 3529 
Q 2884 3475 3122 3366 
z
" transform="scale(0.015625)"/>
       <path id="DejaVuSans-74" d="M 1172 4494 
L 1172 3500 
L 2356 3500 
L 2356 3053 
L 1172 3053 
L 1172 1153 
Q 1172 725 1289 603 
Q 1406 481 1766 481 
L 2356 481 
L 2356 0 
L 1766 0 
Q 1100 0 847 248 
Q 594 497 594 1153 
L 594 3053 
L 172 3053 
L 172 3500 
L 594 3500 
L 594 4494 
L 1172 4494 
z
" transform="scale(0.015625)"/>
       <path id="DejaVuSans-6f" d="M 1959 3097 
Q 1497 3097 1228 2736 
Q 959 2375 959 1747 
Q 959 1119 1226 758 
Q 1494 397 1959 397 
Q 2419 397 2687 759 
Q 2956 1122 2956 1747 
Q 2956 2369 2687 2733 
Q 2419 3097 1959 3097 
z
M 1959 3584 
Q 2709 3584 3137 3096 
Q 3566 2609 3566 1747 
Q 3566 888 3137 398 
Q 2709 -91 1959 -91 
Q 1206 -91 779 398 
Q 353 888 353 1747 
Q 353 2609 779 3096 
Q 1206 3584 1959 3584 
z
" transform="scale(0.015625)"/>
       <path id="DejaVuSans-79" d="M 2059 -325 
Q 1816 -950 1584 -1140 
Q 1353 -1331 966 -1331 
L 506 -1331 
L 506 -850 
L 844 -850 
Q 1081 -850 1212 -737 
Q 1344 -625 1503 -206 
L 1606 56 
L 191 3500 
L 800 3500 
L 1894 763 
L 2988 3500 
L 3597 3500 
L 2059 -325 
z
" transform="scale(0.015625)"/>
      </defs>
      <use xlink:href="#DejaVuSans-54"/>
      <use xlink:href="#DejaVuSans-72" x="46.333984"/>
      <use xlink:href="#DejaVuSans-61" x="87.447266"/>
      <use xlink:href="#DejaVuSans-6a" x="148.726562"/>
      <use xlink:href="#DejaVuSans-65" x="176.509766"/>
      <use xlink:href="#DejaVuSans-63" x="238.033203"/>
      <use xlink:href="#DejaVuSans-74" x="293.013672"/>
      <use xlink:href="#DejaVuSans-6f" x="332.222656"/>
      <use xlink:href="#DejaVuSans-72" x="393.404297"/>
      <use xlink:href="#DejaVuSans-79" x="434.517578"/>
     </g>
    </g>
    <g id="line2d_24">
     <path d="M 285.164531 83.136844 
L 300.164531 83.136844 
L 315.164531 83.136844 
" style="fill: none; stroke: #000000; stroke-width: 1.5; stroke-linecap: square"/>
     <g>
      <use xlink:href="#m4844a184cb" x="300.164531" y="83.136844" style="stroke: #000000"/>
     </g>
    </g>
    <g id="text_8">
     <!-- Start -->
     <g transform="translate(327.164531 88.386844)scale(0.15 -0.15)">
      <defs>
       <path id="DejaVuSans-53" d="M 3425 4513 
L 3425 3897 
Q 3066 4069 2747 4153 
Q 2428 4238 2131 4238 
Q 1616 4238 1336 4038 
Q 1056 3838 1056 3469 
Q 1056 3159 1242 3001 
Q 1428 2844 1947 2747 
L 2328 2669 
Q 3034 2534 3370 2195 
Q 3706 1856 3706 1288 
Q 3706 609 3251 259 
Q 2797 -91 1919 -91 
Q 1588 -91 1214 -16 
Q 841 59 441 206 
L 441 856 
Q 825 641 1194 531 
Q 1563 422 1919 422 
Q 2459 422 2753 634 
Q 3047 847 3047 1241 
Q 3047 1584 2836 1778 
Q 2625 1972 2144 2069 
L 1759 2144 
Q 1053 2284 737 2584 
Q 422 2884 422 3419 
Q 422 4038 858 4394 
Q 1294 4750 2059 4750 
Q 2388 4750 2728 4690 
Q 3069 4631 3425 4513 
z
" transform="scale(0.015625)"/>
      </defs>
      <use xlink:href="#DejaVuSans-53"/>
      <use xlink:href="#DejaVuSans-74" x="63.476562"/>
      <use xlink:href="#DejaVuSans-61" x="102.685547"/>
      <use xlink:href="#DejaVuSans-72" x="163.964844"/>
      <use xlink:href="#DejaVuSans-74" x="205.078125"/>
     </g>
    </g>
    <g id="line2d_25">
     <path d="M 285.164531 105.154031 
L 300.164531 105.154031 
L 315.164531 105.154031 
" style="fill: none; stroke: #000000; stroke-width: 1.5; stroke-linecap: square"/>
     <g>
      <use xlink:href="#m3236b20e33" x="300.164531" y="105.154031" style="stroke: #000000; stroke-linejoin: miter"/>
     </g>
    </g>
    <g id="text_9">
     <!-- End -->
     <g transform="translate(327.164531 110.404031)scale(0.15 -0.15)">
      <defs>
       <path id="DejaVuSans-45" d="M 628 4666 
L 3578 4666 
L 3578 4134 
L 1259 4134 
L 1259 2753 
L 3481 2753 
L 3481 2222 
L 1259 2222 
L 1259 531 
L 3634 531 
L 3634 0 
L 628 0 
L 628 4666 
z
" transform="scale(0.015625)"/>
       <path id="DejaVuSans-6e" d="M 3513 2113 
L 3513 0 
L 2938 0 
L 2938 2094 
Q 2938 2591 2744 2837 
Q 2550 3084 2163 3084 
Q 1697 3084 1428 2787 
Q 1159 2491 1159 1978 
L 1159 0 
L 581 0 
L 581 3500 
L 1159 3500 
L 1159 2956 
Q 1366 3272 1645 3428 
Q 1925 3584 2291 3584 
Q 2894 3584 3203 3211 
Q 3513 2838 3513 2113 
z
" transform="scale(0.015625)"/>
       <path id="DejaVuSans-64" d="M 2906 2969 
L 2906 4863 
L 3481 4863 
L 3481 0 
L 2906 0 
L 2906 525 
Q 2725 213 2448 61 
Q 2172 -91 1784 -91 
Q 1150 -91 751 415 
Q 353 922 353 1747 
Q 353 2572 751 3078 
Q 1150 3584 1784 3584 
Q 2172 3584 2448 3432 
Q 2725 3281 2906 2969 
z
M 947 1747 
Q 947 1113 1208 752 
Q 1469 391 1925 391 
Q 2381 391 2643 752 
Q 2906 1113 2906 1747 
Q 2906 2381 2643 2742 
Q 2381 3103 1925 3103 
Q 1469 3103 1208 2742 
Q 947 2381 947 1747 
z
" transform="scale(0.015625)"/>
      </defs>
      <use xlink:href="#DejaVuSans-45"/>
      <use xlink:href="#DejaVuSans-6e" x="63.183594"/>
      <use xlink:href="#DejaVuSans-64" x="126.5625"/>
     </g>
    </g>
   </g>
  </g>
 </g>
 <defs>
  <clipPath id="p9f11ba8063">
   <rect x="57.6" y="41.472" width="357.12" height="266.112"/>
  </clipPath>
 </defs>
</svg>
