<?xml version="1.0" encoding="utf-8" standalone="no"?>
<!DOCTYPE svg PUBLIC "-//W3C//DTD SVG 1.1//EN"
  "http://www.w3.org/Graphics/SVG/1.1/DTD/svg11.dtd">
<svg xmlns:xlink="http://www.w3.org/1999/xlink" width="460.8pt" height="345.6pt" viewBox="0 0 460.8 345.6" xmlns="http://www.w3.org/2000/svg" version="1.1">
 <metadata>
  <rdf:RDF xmlns:dc="http://purl.org/dc/elements/1.1/" xmlns:cc="http://creativecommons.org/ns#" xmlns:rdf="http://www.w3.org/1999/02/22-rdf-syntax-ns#">
   <cc:Work>
    <dc:type rdf:resource="http://purl.org/dc/dcmitype/StillImage"/>
    <dc:date>2024-02-14T14:06:32.251245</dc:date>
    <dc:format>image/svg+xml</dc:format>
    <dc:creator>
     <cc:Agent>
      <dc:title>Matplotlib v3.5.0, https://matplotlib.org/</dc:title>
     </cc:Agent>
    </dc:creator>
   </cc:Work>
  </rdf:RDF>
 </metadata>
 <defs>
  <style type="text/css">*{stroke-linejoin: round; stroke-linecap: butt}</style>
 </defs>
 <g id="figure_1">
  <g id="patch_1">
   <path d="M 0 345.6 
L 460.8 345.6 
L 460.8 0 
L 0 0 
z
" style="fill: #ffffff"/>
  </g>
  <g id="axes_1">
   <g id="patch_2">
    <path d="M 369.216 174.528 
C 369.216 157.055246 365.774248 139.752393 359.087715 123.609673 
C 352.401182 107.466954 342.599903 92.798303 330.2448 80.4432 
C 317.889697 68.088097 303.221046 58.286818 287.078327 51.600285 
C 270.935607 44.913752 253.632754 41.472 236.16 41.472 
C 218.687246 41.472 201.384393 44.913752 185.241673 51.600285 
C 169.098954 58.286818 154.430303 68.088097 142.0752 80.4432 
C 129.720097 92.798303 119.918818 107.466954 113.232285 123.609673 
C 106.545752 139.752393 103.104 157.055246 103.104 174.528 
C 103.104 192.000754 106.545752 209.303607 113.232285 225.446327 
C 119.918818 241.589046 129.720097 256.257697 142.0752 268.6128 
C 154.430303 280.967903 169.098954 290.769182 185.241673 297.455715 
C 201.384393 304.142248 218.687246 307.584 236.16 307.584 
C 253.632754 307.584 270.935607 304.142248 287.078327 297.455715 
C 303.221046 290.769182 317.889697 280.967903 330.2448 268.6128 
C 342.599903 256.257697 352.401182 241.589046 359.087715 225.446327 
C 365.774248 209.303607 369.216 192.000754 369.216 174.528 
M 236.16 174.528 
C 236.16 174.528 236.16 174.528 236.16 174.528 
C 236.16 174.528 236.16 174.528 236.16 174.528 
C 236.16 174.528 236.16 174.528 236.16 174.528 
C 236.16 174.528 236.16 174.528 236.16 174.528 
C 236.16 174.528 236.16 174.528 236.16 174.528 
C 236.16 174.528 236.16 174.528 236.16 174.528 
C 236.16 174.528 236.16 174.528 236.16 174.528 
C 236.16 174.528 236.16 174.528 236.16 174.528 
C 236.16 174.528 236.16 174.528 236.16 174.528 
C 236.16 174.528 236.16 174.528 236.16 174.528 
C 236.16 174.528 236.16 174.528 236.16 174.528 
C 236.16 174.528 236.16 174.528 236.16 174.528 
C 236.16 174.528 236.16 174.528 236.16 174.528 
C 236.16 174.528 236.16 174.528 236.16 174.528 
C 236.16 174.528 236.16 174.528 236.16 174.528 
C 236.16 174.528 236.16 174.528 236.16 174.528 
M 369.216 174.528 
z
" style="fill: #ffffff"/>
   </g>
   <g id="PathCollection_1">
    <defs>
     <path id="mceeef02242" d="M 0 3 
C 0.795609 3 1.55874 2.683901 2.12132 2.12132 
C 2.683901 1.55874 3 0.795609 3 0 
C 3 -0.795609 2.683901 -1.55874 2.12132 -2.12132 
C 1.55874 -2.683901 0.795609 -3 0 -3 
C -0.795609 -3 -1.55874 -2.683901 -2.12132 -2.12132 
C -2.683901 -1.55874 -3 -0.795609 -3 0 
C -3 0.795609 -2.683901 1.55874 -2.12132 2.12132 
C -1.55874 2.683901 -0.795609 3 0 3 
z
" style="stroke: #f50505"/>
    </defs>
    <g clip-path="url(#pfaa3c28ab3)">
     <use xlink:href="#mceeef02242" x="264.020248" y="166.22219" style="fill: #f50505; stroke: #f50505"/>
     <use xlink:href="#mceeef02242" x="247.95925" y="162.401907" style="fill: #f50505; stroke: #f50505"/>
     <use xlink:href="#mceeef02242" x="249.195486" y="169.522563" style="fill: #f50505; stroke: #f50505"/>
     <use xlink:href="#mceeef02242" x="247.779055" y="176.984592" style="fill: #f50505; stroke: #f50505"/>
     <use xlink:href="#mceeef02242" x="245.04401" y="186.09941" style="fill: #f50505; stroke: #f50505"/>
     <use xlink:href="#mceeef02242" x="251.81931" y="181.935675" style="fill: #f50505; stroke: #f50505"/>
     <use xlink:href="#mceeef02242" x="251.758556" y="175.530362" style="fill: #f50505; stroke: #f50505"/>
     <use xlink:href="#mceeef02242" x="251.921732" y="182.980396" style="fill: #f50505; stroke: #f50505"/>
     <use xlink:href="#mceeef02242" x="252.482344" y="176.519871" style="fill: #f50505; stroke: #f50505"/>
     <use xlink:href="#mceeef02242" x="252.347141" y="174.179994" style="fill: #f50505; stroke: #f50505"/>
     <use xlink:href="#mceeef02242" x="252.637709" y="199.145951" style="fill: #f50505; stroke: #f50505"/>
     <use xlink:href="#mceeef02242" x="256.567762" y="172.620492" style="fill: #f50505; stroke: #f50505"/>
     <use xlink:href="#mceeef02242" x="256.738501" y="172.066339" style="fill: #f50505; stroke: #f50505"/>
     <use xlink:href="#mceeef02242" x="263.703126" y="182.396365" style="fill: #f50505; stroke: #f50505"/>
     <use xlink:href="#mceeef02242" x="233.68365" y="187.12249" style="fill: #f50505; stroke: #f50505"/>
     <use xlink:href="#mceeef02242" x="251.775818" y="176.257066" style="fill: #f50505; stroke: #f50505"/>
     <use xlink:href="#mceeef02242" x="253.25253" y="175.0825" style="fill: #f50505; stroke: #f50505"/>
     <use xlink:href="#mceeef02242" x="242.161132" y="157.528357" style="fill: #f50505; stroke: #f50505"/>
     <use xlink:href="#mceeef02242" x="248.438974" y="178.713016" style="fill: #f50505; stroke: #f50505"/>
     <use xlink:href="#mceeef02242" x="254.4321" y="174.625355" style="fill: #f50505; stroke: #f50505"/>
     <use xlink:href="#mceeef02242" x="246.715882" y="175.792741" style="fill: #f50505; stroke: #f50505"/>
     <use xlink:href="#mceeef02242" x="249.818846" y="173.523136" style="fill: #f50505; stroke: #f50505"/>
     <use xlink:href="#mceeef02242" x="257.680132" y="173.588071" style="fill: #f50505; stroke: #f50505"/>
     <use xlink:href="#mceeef02242" x="249.311384" y="179.08194" style="fill: #f50505; stroke: #f50505"/>
     <use xlink:href="#mceeef02242" x="251.405015" y="173.840614" style="fill: #f50505; stroke: #f50505"/>
     <use xlink:href="#mceeef02242" x="262.046871" y="181.593819" style="fill: #f50505; stroke: #f50505"/>
     <use xlink:href="#mceeef02242" x="251.77295" y="172.952092" style="fill: #f50505; stroke: #f50505"/>
     <use xlink:href="#mceeef02242" x="254.687779" y="175.287112" style="fill: #f50505; stroke: #f50505"/>
     <use xlink:href="#mceeef02242" x="240.755484" y="197.837199" style="fill: #f50505; stroke: #f50505"/>
     <use xlink:href="#mceeef02242" x="250.346927" y="173.589989" style="fill: #f50505; stroke: #f50505"/>
     <use xlink:href="#mceeef02242" x="250.025267" y="175.410065" style="fill: #f50505; stroke: #f50505"/>
     <use xlink:href="#mceeef02242" x="252.735073" y="170.008121" style="fill: #f50505; stroke: #f50505"/>
     <use xlink:href="#mceeef02242" x="251.93165" y="164.424307" style="fill: #f50505; stroke: #f50505"/>
     <use xlink:href="#mceeef02242" x="257.413363" y="176.316455" style="fill: #f50505; stroke: #f50505"/>
     <use xlink:href="#mceeef02242" x="254.774093" y="180.957538" style="fill: #f50505; stroke: #f50505"/>
    </g>
   </g>
   <g id="PathCollection_2">
    <defs>
     <path id="mf7ef547e50" d="M 0 3 
C 0.795609 3 1.55874 2.683901 2.12132 2.12132 
C 2.683901 1.55874 3 0.795609 3 0 
C 3 -0.795609 2.683901 -1.55874 2.12132 -2.12132 
C 1.55874 -2.683901 0.795609 -3 0 -3 
C -0.795609 -3 -1.55874 -2.683901 -2.12132 -2.12132 
C -2.683901 -1.55874 -3 -0.795609 -3 0 
C -3 0.795609 -2.683901 1.55874 -2.12132 2.12132 
C -1.55874 2.683901 -0.795609 3 0 3 
z
" style="stroke: #3505f5"/>
    </defs>
    <g clip-path="url(#pfaa3c28ab3)">
     <use xlink:href="#mf7ef547e50" x="268.249031" y="144.150469" style="fill: #3505f5; stroke: #3505f5"/>
     <use xlink:href="#mf7ef547e50" x="275.878416" y="188.441912" style="fill: #3505f5; stroke: #3505f5"/>
     <use xlink:href="#mf7ef547e50" x="260.491517" y="158.927753" style="fill: #3505f5; stroke: #3505f5"/>
     <use xlink:href="#mf7ef547e50" x="261.842144" y="140.58324" style="fill: #3505f5; stroke: #3505f5"/>
     <use xlink:href="#mf7ef547e50" x="278.520662" y="190.17636" style="fill: #3505f5; stroke: #3505f5"/>
     <use xlink:href="#mf7ef547e50" x="247.298632" y="174.528" style="fill: #3505f5; stroke: #3505f5"/>
     <use xlink:href="#mf7ef547e50" x="268.742433" y="173.672945" style="fill: #3505f5; stroke: #3505f5"/>
     <use xlink:href="#mf7ef547e50" x="269.991779" y="200.028174" style="fill: #3505f5; stroke: #3505f5"/>
     <use xlink:href="#mf7ef547e50" x="247.298632" y="174.528" style="fill: #3505f5; stroke: #3505f5"/>
     <use xlink:href="#mf7ef547e50" x="247.298632" y="174.528" style="fill: #3505f5; stroke: #3505f5"/>
     <use xlink:href="#mf7ef547e50" x="247.298632" y="174.528" style="fill: #3505f5; stroke: #3505f5"/>
     <use xlink:href="#mf7ef547e50" x="247.298632" y="174.528" style="fill: #3505f5; stroke: #3505f5"/>
     <use xlink:href="#mf7ef547e50" x="247.298632" y="174.528" style="fill: #3505f5; stroke: #3505f5"/>
     <use xlink:href="#mf7ef547e50" x="247.298632" y="174.528" style="fill: #3505f5; stroke: #3505f5"/>
     <use xlink:href="#mf7ef547e50" x="247.298632" y="174.528" style="fill: #3505f5; stroke: #3505f5"/>
     <use xlink:href="#mf7ef547e50" x="268.047987" y="196.181173" style="fill: #3505f5; stroke: #3505f5"/>
     <use xlink:href="#mf7ef547e50" x="247.298632" y="174.528" style="fill: #3505f5; stroke: #3505f5"/>
     <use xlink:href="#mf7ef547e50" x="247.298632" y="174.528" style="fill: #3505f5; stroke: #3505f5"/>
     <use xlink:href="#mf7ef547e50" x="274.001292" y="176.792436" style="fill: #3505f5; stroke: #3505f5"/>
     <use xlink:href="#mf7ef547e50" x="247.298632" y="174.528" style="fill: #3505f5; stroke: #3505f5"/>
     <use xlink:href="#mf7ef547e50" x="251.57389" y="190.084035" style="fill: #3505f5; stroke: #3505f5"/>
     <use xlink:href="#mf7ef547e50" x="278.182947" y="172.876749" style="fill: #3505f5; stroke: #3505f5"/>
     <use xlink:href="#mf7ef547e50" x="247.298632" y="174.528" style="fill: #3505f5; stroke: #3505f5"/>
     <use xlink:href="#mf7ef547e50" x="247.298632" y="174.528" style="fill: #3505f5; stroke: #3505f5"/>
     <use xlink:href="#mf7ef547e50" x="287.378854" y="198.075464" style="fill: #3505f5; stroke: #3505f5"/>
     <use xlink:href="#mf7ef547e50" x="265.960167" y="185.815262" style="fill: #3505f5; stroke: #3505f5"/>
     <use xlink:href="#mf7ef547e50" x="273.667983" y="177.415721" style="fill: #3505f5; stroke: #3505f5"/>
     <use xlink:href="#mf7ef547e50" x="264.466362" y="220.061449" style="fill: #3505f5; stroke: #3505f5"/>
     <use xlink:href="#mf7ef547e50" x="305.013673" y="167.627011" style="fill: #3505f5; stroke: #3505f5"/>
     <use xlink:href="#mf7ef547e50" x="274.769572" y="184.60697" style="fill: #3505f5; stroke: #3505f5"/>
     <use xlink:href="#mf7ef547e50" x="286.88198" y="186.150119" style="fill: #3505f5; stroke: #3505f5"/>
     <use xlink:href="#mf7ef547e50" x="256.017734" y="182.748362" style="fill: #3505f5; stroke: #3505f5"/>
     <use xlink:href="#mf7ef547e50" x="224.719122" y="142.271002" style="fill: #3505f5; stroke: #3505f5"/>
     <use xlink:href="#mf7ef547e50" x="246.709169" y="143.38573" style="fill: #3505f5; stroke: #3505f5"/>
     <use xlink:href="#mf7ef547e50" x="275.948728" y="163.408762" style="fill: #3505f5; stroke: #3505f5"/>
    </g>
   </g>
   <g id="PathCollection_3">
    <defs>
     <path id="m5dd51b2fea" d="M 0 3 
C 0.795609 3 1.55874 2.683901 2.12132 2.12132 
C 2.683901 1.55874 3 0.795609 3 0 
C 3 -0.795609 2.683901 -1.55874 2.12132 -2.12132 
C 1.55874 -2.683901 0.795609 -3 0 -3 
C -0.795609 -3 -1.55874 -2.683901 -2.12132 -2.12132 
C -2.683901 -1.55874 -3 -0.795609 -3 0 
C -3 0.795609 -2.683901 1.55874 -2.12132 2.12132 
C -1.55874 2.683901 -0.795609 3 0 3 
z
" style="stroke: #02faf2"/>
    </defs>
    <g clip-path="url(#pfaa3c28ab3)">
     <use xlink:href="#m5dd51b2fea" x="312.071178" y="77.188791" style="fill: #02faf2; stroke: #02faf2"/>
     <use xlink:href="#m5dd51b2fea" x="286.689762" y="163.754787" style="fill: #02faf2; stroke: #02faf2"/>
     <use xlink:href="#m5dd51b2fea" x="270.633273" y="175.323499" style="fill: #02faf2; stroke: #02faf2"/>
     <use xlink:href="#m5dd51b2fea" x="299.685751" y="195.203119" style="fill: #02faf2; stroke: #02faf2"/>
     <use xlink:href="#m5dd51b2fea" x="276.091284" y="223.412836" style="fill: #02faf2; stroke: #02faf2"/>
     <use xlink:href="#m5dd51b2fea" x="289.666499" y="153.987299" style="fill: #02faf2; stroke: #02faf2"/>
     <use xlink:href="#m5dd51b2fea" x="269.920704" y="137.206229" style="fill: #02faf2; stroke: #02faf2"/>
     <use xlink:href="#m5dd51b2fea" x="289.403781" y="159.658355" style="fill: #02faf2; stroke: #02faf2"/>
     <use xlink:href="#m5dd51b2fea" x="267.222256" y="105.828895" style="fill: #02faf2; stroke: #02faf2"/>
     <use xlink:href="#m5dd51b2fea" x="305.15564" y="150.633043" style="fill: #02faf2; stroke: #02faf2"/>
     <use xlink:href="#m5dd51b2fea" x="332.829469" y="226.946901" style="fill: #02faf2; stroke: #02faf2"/>
     <use xlink:href="#m5dd51b2fea" x="293.151329" y="180.67043" style="fill: #02faf2; stroke: #02faf2"/>
     <use xlink:href="#m5dd51b2fea" x="294.717163" y="121.318748" style="fill: #02faf2; stroke: #02faf2"/>
     <use xlink:href="#m5dd51b2fea" x="326.871104" y="219.179863" style="fill: #02faf2; stroke: #02faf2"/>
     <use xlink:href="#m5dd51b2fea" x="255.885712" y="224.773832" style="fill: #02faf2; stroke: #02faf2"/>
     <use xlink:href="#m5dd51b2fea" x="267.228119" y="107.535314" style="fill: #02faf2; stroke: #02faf2"/>
     <use xlink:href="#m5dd51b2fea" x="230.782805" y="82.632547" style="fill: #02faf2; stroke: #02faf2"/>
     <use xlink:href="#m5dd51b2fea" x="284.399684" y="131.547113" style="fill: #02faf2; stroke: #02faf2"/>
     <use xlink:href="#m5dd51b2fea" x="281.146477" y="212.191536" style="fill: #02faf2; stroke: #02faf2"/>
     <use xlink:href="#m5dd51b2fea" x="305.803111" y="165.646201" style="fill: #02faf2; stroke: #02faf2"/>
     <use xlink:href="#m5dd51b2fea" x="273.957831" y="169.295478" style="fill: #02faf2; stroke: #02faf2"/>
     <use xlink:href="#m5dd51b2fea" x="294.725042" y="201.643092" style="fill: #02faf2; stroke: #02faf2"/>
     <use xlink:href="#m5dd51b2fea" x="275.962557" y="132.839264" style="fill: #02faf2; stroke: #02faf2"/>
     <use xlink:href="#m5dd51b2fea" x="291.488838" y="190.249935" style="fill: #02faf2; stroke: #02faf2"/>
     <use xlink:href="#m5dd51b2fea" x="295.850814" y="221.804697" style="fill: #02faf2; stroke: #02faf2"/>
     <use xlink:href="#m5dd51b2fea" x="266.077125" y="115.76334" style="fill: #02faf2; stroke: #02faf2"/>
     <use xlink:href="#m5dd51b2fea" x="267.88269" y="108.777437" style="fill: #02faf2; stroke: #02faf2"/>
     <use xlink:href="#m5dd51b2fea" x="293.230433" y="206.128602" style="fill: #02faf2; stroke: #02faf2"/>
     <use xlink:href="#m5dd51b2fea" x="331.042788" y="153.077265" style="fill: #02faf2; stroke: #02faf2"/>
     <use xlink:href="#m5dd51b2fea" x="252.642832" y="127.636524" style="fill: #02faf2; stroke: #02faf2"/>
     <use xlink:href="#m5dd51b2fea" x="309.0748" y="172.113323" style="fill: #02faf2; stroke: #02faf2"/>
     <use xlink:href="#m5dd51b2fea" x="296.361573" y="157.218352" style="fill: #02faf2; stroke: #02faf2"/>
     <use xlink:href="#m5dd51b2fea" x="271.554793" y="105.898179" style="fill: #02faf2; stroke: #02faf2"/>
     <use xlink:href="#m5dd51b2fea" x="188.423622" y="113.067689" style="fill: #02faf2; stroke: #02faf2"/>
     <use xlink:href="#m5dd51b2fea" x="218.522761" y="137.536587" style="fill: #02faf2; stroke: #02faf2"/>
    </g>
   </g>
   <g id="PathCollection_4">
    <defs>
     <path id="m73ed9f425c" d="M 0 3 
C 0.795609 3 1.55874 2.683901 2.12132 2.12132 
C 2.683901 1.55874 3 0.795609 3 0 
C 3 -0.795609 2.683901 -1.55874 2.12132 -2.12132 
C 1.55874 -2.683901 0.795609 -3 0 -3 
C -0.795609 -3 -1.55874 -2.683901 -2.12132 -2.12132 
C -2.683901 -1.55874 -3 -0.795609 -3 0 
C -3 0.795609 -2.683901 1.55874 -2.12132 2.12132 
C -1.55874 2.683901 -0.795609 3 0 3 
z
" style="stroke: #f5ed05"/>
    </defs>
    <g clip-path="url(#pfaa3c28ab3)">
     <use xlink:href="#m73ed9f425c" x="242.986638" y="174.491152" style="fill: #f5ed05; stroke: #f5ed05"/>
     <use xlink:href="#m73ed9f425c" x="246.188152" y="174.854606" style="fill: #f5ed05; stroke: #f5ed05"/>
     <use xlink:href="#m73ed9f425c" x="246.272362" y="174.537972" style="fill: #f5ed05; stroke: #f5ed05"/>
     <use xlink:href="#m73ed9f425c" x="247.850938" y="175.300757" style="fill: #f5ed05; stroke: #f5ed05"/>
     <use xlink:href="#m73ed9f425c" x="245.412143" y="181.469156" style="fill: #f5ed05; stroke: #f5ed05"/>
     <use xlink:href="#m73ed9f425c" x="246.165349" y="177.420373" style="fill: #f5ed05; stroke: #f5ed05"/>
     <use xlink:href="#m73ed9f425c" x="246.080476" y="175.691717" style="fill: #f5ed05; stroke: #f5ed05"/>
     <use xlink:href="#m73ed9f425c" x="244.98202" y="182.813654" style="fill: #f5ed05; stroke: #f5ed05"/>
     <use xlink:href="#m73ed9f425c" x="245.076589" y="174.920934" style="fill: #f5ed05; stroke: #f5ed05"/>
     <use xlink:href="#m73ed9f425c" x="245.000121" y="174.650854" style="fill: #f5ed05; stroke: #f5ed05"/>
     <use xlink:href="#m73ed9f425c" x="234.670251" y="183.888654" style="fill: #f5ed05; stroke: #f5ed05"/>
     <use xlink:href="#m73ed9f425c" x="247.348104" y="174.743512" style="fill: #f5ed05; stroke: #f5ed05"/>
     <use xlink:href="#m73ed9f425c" x="245.337635" y="175.091597" style="fill: #f5ed05; stroke: #f5ed05"/>
     <use xlink:href="#m73ed9f425c" x="245.890463" y="173.862625" style="fill: #f5ed05; stroke: #f5ed05"/>
     <use xlink:href="#m73ed9f425c" x="248.082048" y="174.532627" style="fill: #f5ed05; stroke: #f5ed05"/>
     <use xlink:href="#m73ed9f425c" x="244.682837" y="174.421186" style="fill: #f5ed05; stroke: #f5ed05"/>
     <use xlink:href="#m73ed9f425c" x="246.698572" y="174.655012" style="fill: #f5ed05; stroke: #f5ed05"/>
     <use xlink:href="#m73ed9f425c" x="246.128219" y="175.336581" style="fill: #f5ed05; stroke: #f5ed05"/>
     <use xlink:href="#m73ed9f425c" x="244.431834" y="181.083652" style="fill: #f5ed05; stroke: #f5ed05"/>
     <use xlink:href="#m73ed9f425c" x="246.416704" y="172.967731" style="fill: #f5ed05; stroke: #f5ed05"/>
     <use xlink:href="#m73ed9f425c" x="247.654501" y="175.087192" style="fill: #f5ed05; stroke: #f5ed05"/>
     <use xlink:href="#m73ed9f425c" x="246.661978" y="179.434914" style="fill: #f5ed05; stroke: #f5ed05"/>
     <use xlink:href="#m73ed9f425c" x="247.917813" y="174.065093" style="fill: #f5ed05; stroke: #f5ed05"/>
     <use xlink:href="#m73ed9f425c" x="241.135069" y="184.8195" style="fill: #f5ed05; stroke: #f5ed05"/>
     <use xlink:href="#m73ed9f425c" x="245.048245" y="174.315333" style="fill: #f5ed05; stroke: #f5ed05"/>
     <use xlink:href="#m73ed9f425c" x="243.95465" y="174.382065" style="fill: #f5ed05; stroke: #f5ed05"/>
     <use xlink:href="#m73ed9f425c" x="245.492409" y="174.63606" style="fill: #f5ed05; stroke: #f5ed05"/>
     <use xlink:href="#m73ed9f425c" x="247.75863" y="174.627997" style="fill: #f5ed05; stroke: #f5ed05"/>
     <use xlink:href="#m73ed9f425c" x="242.201258" y="174.242513" style="fill: #f5ed05; stroke: #f5ed05"/>
     <use xlink:href="#m73ed9f425c" x="244.346718" y="174.35772" style="fill: #f5ed05; stroke: #f5ed05"/>
     <use xlink:href="#m73ed9f425c" x="245.628339" y="180.574892" style="fill: #f5ed05; stroke: #f5ed05"/>
     <use xlink:href="#m73ed9f425c" x="246.631797" y="174.106043" style="fill: #f5ed05; stroke: #f5ed05"/>
     <use xlink:href="#m73ed9f425c" x="245.653326" y="174.649477" style="fill: #f5ed05; stroke: #f5ed05"/>
     <use xlink:href="#m73ed9f425c" x="242.745863" y="175.210891" style="fill: #f5ed05; stroke: #f5ed05"/>
     <use xlink:href="#m73ed9f425c" x="245.857873" y="180.559206" style="fill: #f5ed05; stroke: #f5ed05"/>
    </g>
   </g>
   <g id="PathCollection_5">
    <defs>
     <path id="m94e762803a" d="M 0 3 
C 0.795609 3 1.55874 2.683901 2.12132 2.12132 
C 2.683901 1.55874 3 0.795609 3 0 
C 3 -0.795609 2.683901 -1.55874 2.12132 -2.12132 
C 1.55874 -2.683901 0.795609 -3 0 -3 
C -0.795609 -3 -1.55874 -2.683901 -2.12132 -2.12132 
C -2.683901 -1.55874 -3 -0.795609 -3 0 
C -3 0.795609 -2.683901 1.55874 -2.12132 2.12132 
C -1.55874 2.683901 -0.795609 3 0 3 
z
" style="stroke: #518e37"/>
    </defs>
    <g clip-path="url(#pfaa3c28ab3)">
     <use xlink:href="#m94e762803a" x="320.124108" y="161.597771" style="fill: #518e37; stroke: #518e37"/>
     <use xlink:href="#m94e762803a" x="278.179854" y="154.30529" style="fill: #518e37; stroke: #518e37"/>
     <use xlink:href="#m94e762803a" x="244.113542" y="158.601057" style="fill: #518e37; stroke: #518e37"/>
     <use xlink:href="#m94e762803a" x="262.643842" y="226.139277" style="fill: #518e37; stroke: #518e37"/>
     <use xlink:href="#m94e762803a" x="280.613322" y="214.541352" style="fill: #518e37; stroke: #518e37"/>
     <use xlink:href="#m94e762803a" x="267.996363" y="218.267677" style="fill: #518e37; stroke: #518e37"/>
     <use xlink:href="#m94e762803a" x="274.525178" y="153.560819" style="fill: #518e37; stroke: #518e37"/>
     <use xlink:href="#m94e762803a" x="283.282156" y="176.954244" style="fill: #518e37; stroke: #518e37"/>
     <use xlink:href="#m94e762803a" x="203.919474" y="120.971908" style="fill: #518e37; stroke: #518e37"/>
     <use xlink:href="#m94e762803a" x="280.184965" y="134.142606" style="fill: #518e37; stroke: #518e37"/>
     <use xlink:href="#m94e762803a" x="284.243993" y="254.172484" style="fill: #518e37; stroke: #518e37"/>
     <use xlink:href="#m94e762803a" x="260.637192" y="131.936443" style="fill: #518e37; stroke: #518e37"/>
     <use xlink:href="#m94e762803a" x="206.361233" y="120.447303" style="fill: #518e37; stroke: #518e37"/>
     <use xlink:href="#m94e762803a" x="329.250798" y="171.755916" style="fill: #518e37; stroke: #518e37"/>
     <use xlink:href="#m94e762803a" x="227.631238" y="137.763595" style="fill: #518e37; stroke: #518e37"/>
     <use xlink:href="#m94e762803a" x="288.739207" y="156.85534" style="fill: #518e37; stroke: #518e37"/>
     <use xlink:href="#m94e762803a" x="304.004329" y="135.637277" style="fill: #518e37; stroke: #518e37"/>
     <use xlink:href="#m94e762803a" x="220.398073" y="114.934747" style="fill: #518e37; stroke: #518e37"/>
     <use xlink:href="#m94e762803a" x="290.279846" y="168.462342" style="fill: #518e37; stroke: #518e37"/>
     <use xlink:href="#m94e762803a" x="258.113604" y="242.717418" style="fill: #518e37; stroke: #518e37"/>
     <use xlink:href="#m94e762803a" x="251.720403" y="169.192229" style="fill: #518e37; stroke: #518e37"/>
     <use xlink:href="#m94e762803a" x="277.753474" y="217.240374" style="fill: #518e37; stroke: #518e37"/>
     <use xlink:href="#m94e762803a" x="267.841964" y="130.369026" style="fill: #518e37; stroke: #518e37"/>
     <use xlink:href="#m94e762803a" x="268.174595" y="132.589637" style="fill: #518e37; stroke: #518e37"/>
     <use xlink:href="#m94e762803a" x="296.111239" y="190.256532" style="fill: #518e37; stroke: #518e37"/>
     <use xlink:href="#m94e762803a" x="266.985669" y="178.727312" style="fill: #518e37; stroke: #518e37"/>
     <use xlink:href="#m94e762803a" x="274.485916" y="134.834952" style="fill: #518e37; stroke: #518e37"/>
     <use xlink:href="#m94e762803a" x="295.925826" y="194.518011" style="fill: #518e37; stroke: #518e37"/>
     <use xlink:href="#m94e762803a" x="329.367166" y="154.69315" style="fill: #518e37; stroke: #518e37"/>
     <use xlink:href="#m94e762803a" x="283.560318" y="172.319595" style="fill: #518e37; stroke: #518e37"/>
     <use xlink:href="#m94e762803a" x="296.573496" y="152.585274" style="fill: #518e37; stroke: #518e37"/>
     <use xlink:href="#m94e762803a" x="231.897523" y="127.560903" style="fill: #518e37; stroke: #518e37"/>
     <use xlink:href="#m94e762803a" x="160.147457" y="159.948498" style="fill: #518e37; stroke: #518e37"/>
     <use xlink:href="#m94e762803a" x="280.378777" y="107.675751" style="fill: #518e37; stroke: #518e37"/>
     <use xlink:href="#m94e762803a" x="259.403455" y="134.357519" style="fill: #518e37; stroke: #518e37"/>
    </g>
   </g>
   <g id="PathCollection_6">
    <defs>
     <path id="mcee70cf090" d="M 0 3 
C 0.795609 3 1.55874 2.683901 2.12132 2.12132 
C 2.683901 1.55874 3 0.795609 3 0 
C 3 -0.795609 2.683901 -1.55874 2.12132 -2.12132 
C 1.55874 -2.683901 0.795609 -3 0 -3 
C -0.795609 -3 -1.55874 -2.683901 -2.12132 -2.12132 
C -2.683901 -1.55874 -3 -0.795609 -3 0 
C -3 0.795609 -2.683901 1.55874 -2.12132 2.12132 
C -1.55874 2.683901 -0.795609 3 0 3 
z
" style="stroke: #ff14f2"/>
    </defs>
    <g clip-path="url(#pfaa3c28ab3)">
     <use xlink:href="#mcee70cf090" x="302.440153" y="282.869928" style="fill: #ff14f2; stroke: #ff14f2"/>
     <use xlink:href="#mcee70cf090" x="219.149764" y="219.360619" style="fill: #ff14f2; stroke: #ff14f2"/>
     <use xlink:href="#mcee70cf090" x="226.939207" y="204.642837" style="fill: #ff14f2; stroke: #ff14f2"/>
     <use xlink:href="#mcee70cf090" x="194.468506" y="225.897128" style="fill: #ff14f2; stroke: #ff14f2"/>
     <use xlink:href="#mcee70cf090" x="199.074445" y="225.698941" style="fill: #ff14f2; stroke: #ff14f2"/>
     <use xlink:href="#mcee70cf090" x="292.180912" y="185.840548" style="fill: #ff14f2; stroke: #ff14f2"/>
     <use xlink:href="#mcee70cf090" x="281.857419" y="184.525141" style="fill: #ff14f2; stroke: #ff14f2"/>
     <use xlink:href="#mcee70cf090" x="280.34077" y="145.714427" style="fill: #ff14f2; stroke: #ff14f2"/>
     <use xlink:href="#mcee70cf090" x="296.391396" y="218.292203" style="fill: #ff14f2; stroke: #ff14f2"/>
     <use xlink:href="#mcee70cf090" x="295.607485" y="208.676698" style="fill: #ff14f2; stroke: #ff14f2"/>
     <use xlink:href="#mcee70cf090" x="331.556148" y="222.512408" style="fill: #ff14f2; stroke: #ff14f2"/>
     <use xlink:href="#mcee70cf090" x="280.631492" y="208.002222" style="fill: #ff14f2; stroke: #ff14f2"/>
     <use xlink:href="#mcee70cf090" x="299.578473" y="138.679044" style="fill: #ff14f2; stroke: #ff14f2"/>
     <use xlink:href="#mcee70cf090" x="263.165639" y="270.880187" style="fill: #ff14f2; stroke: #ff14f2"/>
     <use xlink:href="#mcee70cf090" x="277.850135" y="219.214623" style="fill: #ff14f2; stroke: #ff14f2"/>
     <use xlink:href="#mcee70cf090" x="292.516565" y="152.329291" style="fill: #ff14f2; stroke: #ff14f2"/>
     <use xlink:href="#mcee70cf090" x="199.627675" y="95.223531" style="fill: #ff14f2; stroke: #ff14f2"/>
     <use xlink:href="#mcee70cf090" x="259.56399" y="230.145636" style="fill: #ff14f2; stroke: #ff14f2"/>
     <use xlink:href="#mcee70cf090" x="252.498696" y="230.23363" style="fill: #ff14f2; stroke: #ff14f2"/>
     <use xlink:href="#mcee70cf090" x="237.972055" y="243.761075" style="fill: #ff14f2; stroke: #ff14f2"/>
     <use xlink:href="#mcee70cf090" x="273.643278" y="179.040751" style="fill: #ff14f2; stroke: #ff14f2"/>
     <use xlink:href="#mcee70cf090" x="294.085517" y="168.527656" style="fill: #ff14f2; stroke: #ff14f2"/>
     <use xlink:href="#mcee70cf090" x="286.562748" y="201.04788" style="fill: #ff14f2; stroke: #ff14f2"/>
     <use xlink:href="#mcee70cf090" x="262.759939" y="225.591421" style="fill: #ff14f2; stroke: #ff14f2"/>
     <use xlink:href="#mcee70cf090" x="298.876827" y="197.830228" style="fill: #ff14f2; stroke: #ff14f2"/>
     <use xlink:href="#mcee70cf090" x="258.754347" y="112.617736" style="fill: #ff14f2; stroke: #ff14f2"/>
     <use xlink:href="#mcee70cf090" x="302.84663" y="185.749807" style="fill: #ff14f2; stroke: #ff14f2"/>
     <use xlink:href="#mcee70cf090" x="284.554853" y="214.924533" style="fill: #ff14f2; stroke: #ff14f2"/>
     <use xlink:href="#mcee70cf090" x="284.422836" y="93.599452" style="fill: #ff14f2; stroke: #ff14f2"/>
     <use xlink:href="#mcee70cf090" x="273.862102" y="202.660577" style="fill: #ff14f2; stroke: #ff14f2"/>
     <use xlink:href="#mcee70cf090" x="186.399648" y="227.899425" style="fill: #ff14f2; stroke: #ff14f2"/>
     <use xlink:href="#mcee70cf090" x="274.814398" y="129.177771" style="fill: #ff14f2; stroke: #ff14f2"/>
     <use xlink:href="#mcee70cf090" x="182.107653" y="121.086139" style="fill: #ff14f2; stroke: #ff14f2"/>
     <use xlink:href="#mcee70cf090" x="288.34168" y="122.00697" style="fill: #ff14f2; stroke: #ff14f2"/>
     <use xlink:href="#mcee70cf090" x="275.358581" y="201.754442" style="fill: #ff14f2; stroke: #ff14f2"/>
    </g>
   </g>
   <g id="matplotlib.axis_1">
    <g id="xtick_1">
     <g id="line2d_1">
      <path d="M 236.16 174.528 
L 369.216 174.528 
" clip-path="url(#pfaa3c28ab3)" style="fill: none; stroke: #b0b0b0; stroke-width: 0.8; stroke-linecap: square"/>
     </g>
     <g id="text_1">
      <!-- 0° -->
      <g transform="translate(377.53475 177.287375)scale(0.1 -0.1)">
       <defs>
        <path id="DejaVuSans-30" d="M 2034 4250 
Q 1547 4250 1301 3770 
Q 1056 3291 1056 2328 
Q 1056 1369 1301 889 
Q 1547 409 2034 409 
Q 2525 409 2770 889 
Q 3016 1369 3016 2328 
Q 3016 3291 2770 3770 
Q 2525 4250 2034 4250 
z
M 2034 4750 
Q 2819 4750 3233 4129 
Q 3647 3509 3647 2328 
Q 3647 1150 3233 529 
Q 2819 -91 2034 -91 
Q 1250 -91 836 529 
Q 422 1150 422 2328 
Q 422 3509 836 4129 
Q 1250 4750 2034 4750 
z
" transform="scale(0.015625)"/>
        <path id="DejaVuSans-b0" d="M 1600 4347 
Q 1350 4347 1178 4173 
Q 1006 4000 1006 3750 
Q 1006 3503 1178 3333 
Q 1350 3163 1600 3163 
Q 1850 3163 2022 3333 
Q 2194 3503 2194 3750 
Q 2194 3997 2020 4172 
Q 1847 4347 1600 4347 
z
M 1600 4750 
Q 1800 4750 1984 4673 
Q 2169 4597 2303 4453 
Q 2447 4313 2519 4134 
Q 2591 3956 2591 3750 
Q 2591 3338 2302 3052 
Q 2013 2766 1594 2766 
Q 1172 2766 890 3047 
Q 609 3328 609 3750 
Q 609 4169 896 4459 
Q 1184 4750 1600 4750 
z
" transform="scale(0.015625)"/>
       </defs>
       <use xlink:href="#DejaVuSans-30"/>
       <use xlink:href="#DejaVuSans-b0" x="63.623047"/>
      </g>
     </g>
    </g>
    <g id="xtick_2">
     <g id="line2d_2">
      <path d="M 236.16 174.528 
L 330.2448 80.4432 
" clip-path="url(#pfaa3c28ab3)" style="fill: none; stroke: #b0b0b0; stroke-width: 0.8; stroke-linecap: square"/>
     </g>
     <g id="text_2">
      <!-- 45° -->
      <g transform="translate(331.281795 73.30308)scale(0.1 -0.1)">
       <defs>
        <path id="DejaVuSans-34" d="M 2419 4116 
L 825 1625 
L 2419 1625 
L 2419 4116 
z
M 2253 4666 
L 3047 4666 
L 3047 1625 
L 3713 1625 
L 3713 1100 
L 3047 1100 
L 3047 0 
L 2419 0 
L 2419 1100 
L 313 1100 
L 313 1709 
L 2253 4666 
z
" transform="scale(0.015625)"/>
        <path id="DejaVuSans-35" d="M 691 4666 
L 3169 4666 
L 3169 4134 
L 1269 4134 
L 1269 2991 
Q 1406 3038 1543 3061 
Q 1681 3084 1819 3084 
Q 2600 3084 3056 2656 
Q 3513 2228 3513 1497 
Q 3513 744 3044 326 
Q 2575 -91 1722 -91 
Q 1428 -91 1123 -41 
Q 819 9 494 109 
L 494 744 
Q 775 591 1075 516 
Q 1375 441 1709 441 
Q 2250 441 2565 725 
Q 2881 1009 2881 1497 
Q 2881 1984 2565 2268 
Q 2250 2553 1709 2553 
Q 1456 2553 1204 2497 
Q 953 2441 691 2322 
L 691 4666 
z
" transform="scale(0.015625)"/>
       </defs>
       <use xlink:href="#DejaVuSans-34"/>
       <use xlink:href="#DejaVuSans-35" x="63.623047"/>
       <use xlink:href="#DejaVuSans-b0" x="127.246094"/>
      </g>
     </g>
    </g>
    <g id="xtick_3">
     <g id="line2d_3">
      <path d="M 236.16 174.528 
L 236.16 41.472 
" clip-path="url(#pfaa3c28ab3)" style="fill: none; stroke: #b0b0b0; stroke-width: 0.8; stroke-linecap: square"/>
     </g>
     <g id="text_3">
      <!-- 90° -->
      <g transform="translate(227.2975 30.231375)scale(0.1 -0.1)">
       <defs>
        <path id="DejaVuSans-39" d="M 703 97 
L 703 672 
Q 941 559 1184 500 
Q 1428 441 1663 441 
Q 2288 441 2617 861 
Q 2947 1281 2994 2138 
Q 2813 1869 2534 1725 
Q 2256 1581 1919 1581 
Q 1219 1581 811 2004 
Q 403 2428 403 3163 
Q 403 3881 828 4315 
Q 1253 4750 1959 4750 
Q 2769 4750 3195 4129 
Q 3622 3509 3622 2328 
Q 3622 1225 3098 567 
Q 2575 -91 1691 -91 
Q 1453 -91 1209 -44 
Q 966 3 703 97 
z
M 1959 2075 
Q 2384 2075 2632 2365 
Q 2881 2656 2881 3163 
Q 2881 3666 2632 3958 
Q 2384 4250 1959 4250 
Q 1534 4250 1286 3958 
Q 1038 3666 1038 3163 
Q 1038 2656 1286 2365 
Q 1534 2075 1959 2075 
z
" transform="scale(0.015625)"/>
       </defs>
       <use xlink:href="#DejaVuSans-39"/>
       <use xlink:href="#DejaVuSans-30" x="63.623047"/>
       <use xlink:href="#DejaVuSans-b0" x="127.246094"/>
      </g>
     </g>
    </g>
    <g id="xtick_4">
     <g id="line2d_4">
      <path d="M 236.16 174.528 
L 142.0752 80.4432 
" clip-path="url(#pfaa3c28ab3)" style="fill: none; stroke: #b0b0b0; stroke-width: 0.8; stroke-linecap: square"/>
     </g>
     <g id="text_4">
      <!-- 135° -->
      <g transform="translate(120.131955 73.30308)scale(0.1 -0.1)">
       <defs>
        <path id="DejaVuSans-31" d="M 794 531 
L 1825 531 
L 1825 4091 
L 703 3866 
L 703 4441 
L 1819 4666 
L 2450 4666 
L 2450 531 
L 3481 531 
L 3481 0 
L 794 0 
L 794 531 
z
" transform="scale(0.015625)"/>
        <path id="DejaVuSans-33" d="M 2597 2516 
Q 3050 2419 3304 2112 
Q 3559 1806 3559 1356 
Q 3559 666 3084 287 
Q 2609 -91 1734 -91 
Q 1441 -91 1130 -33 
Q 819 25 488 141 
L 488 750 
Q 750 597 1062 519 
Q 1375 441 1716 441 
Q 2309 441 2620 675 
Q 2931 909 2931 1356 
Q 2931 1769 2642 2001 
Q 2353 2234 1838 2234 
L 1294 2234 
L 1294 2753 
L 1863 2753 
Q 2328 2753 2575 2939 
Q 2822 3125 2822 3475 
Q 2822 3834 2567 4026 
Q 2313 4219 1838 4219 
Q 1578 4219 1281 4162 
Q 984 4106 628 3988 
L 628 4550 
Q 988 4650 1302 4700 
Q 1616 4750 1894 4750 
Q 2613 4750 3031 4423 
Q 3450 4097 3450 3541 
Q 3450 3153 3228 2886 
Q 3006 2619 2597 2516 
z
" transform="scale(0.015625)"/>
       </defs>
       <use xlink:href="#DejaVuSans-31"/>
       <use xlink:href="#DejaVuSans-33" x="63.623047"/>
       <use xlink:href="#DejaVuSans-35" x="127.246094"/>
       <use xlink:href="#DejaVuSans-b0" x="190.869141"/>
      </g>
     </g>
    </g>
    <g id="xtick_5">
     <g id="line2d_5">
      <path d="M 236.16 174.528 
L 103.104 174.528 
" clip-path="url(#pfaa3c28ab3)" style="fill: none; stroke: #b0b0b0; stroke-width: 0.8; stroke-linecap: square"/>
     </g>
     <g id="text_5">
      <!-- 180° -->
      <g transform="translate(77.06025 177.287375)scale(0.1 -0.1)">
       <defs>
        <path id="DejaVuSans-38" d="M 2034 2216 
Q 1584 2216 1326 1975 
Q 1069 1734 1069 1313 
Q 1069 891 1326 650 
Q 1584 409 2034 409 
Q 2484 409 2743 651 
Q 3003 894 3003 1313 
Q 3003 1734 2745 1975 
Q 2488 2216 2034 2216 
z
M 1403 2484 
Q 997 2584 770 2862 
Q 544 3141 544 3541 
Q 544 4100 942 4425 
Q 1341 4750 2034 4750 
Q 2731 4750 3128 4425 
Q 3525 4100 3525 3541 
Q 3525 3141 3298 2862 
Q 3072 2584 2669 2484 
Q 3125 2378 3379 2068 
Q 3634 1759 3634 1313 
Q 3634 634 3220 271 
Q 2806 -91 2034 -91 
Q 1263 -91 848 271 
Q 434 634 434 1313 
Q 434 1759 690 2068 
Q 947 2378 1403 2484 
z
M 1172 3481 
Q 1172 3119 1398 2916 
Q 1625 2713 2034 2713 
Q 2441 2713 2670 2916 
Q 2900 3119 2900 3481 
Q 2900 3844 2670 4047 
Q 2441 4250 2034 4250 
Q 1625 4250 1398 4047 
Q 1172 3844 1172 3481 
z
" transform="scale(0.015625)"/>
       </defs>
       <use xlink:href="#DejaVuSans-31"/>
       <use xlink:href="#DejaVuSans-38" x="63.623047"/>
       <use xlink:href="#DejaVuSans-30" x="127.246094"/>
       <use xlink:href="#DejaVuSans-b0" x="190.869141"/>
      </g>
     </g>
    </g>
    <g id="xtick_6">
     <g id="line2d_6">
      <path d="M 236.16 174.528 
L 142.0752 268.6128 
" clip-path="url(#pfaa3c28ab3)" style="fill: none; stroke: #b0b0b0; stroke-width: 0.8; stroke-linecap: square"/>
     </g>
     <g id="text_6">
      <!-- 225° -->
      <g transform="translate(120.131955 281.27167)scale(0.1 -0.1)">
       <defs>
        <path id="DejaVuSans-32" d="M 1228 531 
L 3431 531 
L 3431 0 
L 469 0 
L 469 531 
Q 828 903 1448 1529 
Q 2069 2156 2228 2338 
Q 2531 2678 2651 2914 
Q 2772 3150 2772 3378 
Q 2772 3750 2511 3984 
Q 2250 4219 1831 4219 
Q 1534 4219 1204 4116 
Q 875 4013 500 3803 
L 500 4441 
Q 881 4594 1212 4672 
Q 1544 4750 1819 4750 
Q 2544 4750 2975 4387 
Q 3406 4025 3406 3419 
Q 3406 3131 3298 2873 
Q 3191 2616 2906 2266 
Q 2828 2175 2409 1742 
Q 1991 1309 1228 531 
z
" transform="scale(0.015625)"/>
       </defs>
       <use xlink:href="#DejaVuSans-32"/>
       <use xlink:href="#DejaVuSans-32" x="63.623047"/>
       <use xlink:href="#DejaVuSans-35" x="127.246094"/>
       <use xlink:href="#DejaVuSans-b0" x="190.869141"/>
      </g>
     </g>
    </g>
    <g id="xtick_7">
     <g id="line2d_7">
      <path d="M 236.16 174.528 
L 236.16 307.584 
" clip-path="url(#pfaa3c28ab3)" style="fill: none; stroke: #b0b0b0; stroke-width: 0.8; stroke-linecap: square"/>
     </g>
     <g id="text_7">
      <!-- 270° -->
      <g transform="translate(224.11625 324.343375)scale(0.1 -0.1)">
       <defs>
        <path id="DejaVuSans-37" d="M 525 4666 
L 3525 4666 
L 3525 4397 
L 1831 0 
L 1172 0 
L 2766 4134 
L 525 4134 
L 525 4666 
z
" transform="scale(0.015625)"/>
       </defs>
       <use xlink:href="#DejaVuSans-32"/>
       <use xlink:href="#DejaVuSans-37" x="63.623047"/>
       <use xlink:href="#DejaVuSans-30" x="127.246094"/>
       <use xlink:href="#DejaVuSans-b0" x="190.869141"/>
      </g>
     </g>
    </g>
    <g id="xtick_8">
     <g id="line2d_8">
      <path d="M 236.16 174.528 
L 330.2448 268.6128 
" clip-path="url(#pfaa3c28ab3)" style="fill: none; stroke: #b0b0b0; stroke-width: 0.8; stroke-linecap: square"/>
     </g>
     <g id="text_8">
      <!-- 315° -->
      <g transform="translate(328.100545 281.27167)scale(0.1 -0.1)">
       <use xlink:href="#DejaVuSans-33"/>
       <use xlink:href="#DejaVuSans-31" x="63.623047"/>
       <use xlink:href="#DejaVuSans-35" x="127.246094"/>
       <use xlink:href="#DejaVuSans-b0" x="190.869141"/>
      </g>
     </g>
    </g>
   </g>
   <g id="matplotlib.axis_2">
    <g id="ytick_1">
     <g id="line2d_9">
      <path d="M 272.724917 174.528 
C 272.724917 169.726339 271.779095 164.971368 269.941579 160.535212 
C 268.104063 156.099056 265.410588 152.067986 262.015301 148.672699 
C 258.620014 145.277412 254.588944 142.583937 250.152788 140.746421 
C 245.716632 138.908905 240.961661 137.963083 236.16 137.963083 
C 231.358339 137.963083 226.603368 138.908905 222.167212 140.746421 
C 217.731056 142.583937 213.699986 145.277412 210.304699 148.672699 
C 206.909412 152.067986 204.215937 156.099056 202.378421 160.535212 
C 200.540905 164.971368 199.595083 169.726339 199.595083 174.528 
C 199.595083 179.329661 200.540905 184.084632 202.378421 188.520788 
C 204.215937 192.956944 206.909412 196.988014 210.304699 200.383301 
C 213.699986 203.778588 217.731056 206.472063 222.167212 208.309579 
C 226.603368 210.147095 231.358339 211.092917 236.16 211.092917 
C 240.961661 211.092917 245.716632 210.147095 250.152788 208.309579 
C 254.588944 206.472063 258.620014 203.778588 262.015301 200.383301 
C 265.410588 196.988014 268.104063 192.956944 269.941579 188.520788 
C 271.779095 184.084632 272.724917 179.329661 272.724917 174.528 
" clip-path="url(#pfaa3c28ab3)" style="fill: none; stroke: #b0b0b0; stroke-width: 0.8; stroke-linecap: square"/>
     </g>
     <g id="text_9">
      <!-- 0.02 -->
      <g transform="translate(269.941579 158.455524)scale(0.1 -0.1)">
       <defs>
        <path id="DejaVuSans-2e" d="M 684 794 
L 1344 794 
L 1344 0 
L 684 0 
L 684 794 
z
" transform="scale(0.015625)"/>
       </defs>
       <use xlink:href="#DejaVuSans-30"/>
       <use xlink:href="#DejaVuSans-2e" x="63.623047"/>
       <use xlink:href="#DejaVuSans-30" x="95.410156"/>
       <use xlink:href="#DejaVuSans-32" x="159.033203"/>
      </g>
     </g>
    </g>
   </g>
   <g id="patch_3">
    <path d="M 369.216 174.528 
C 369.216 157.055246 365.774248 139.752393 359.087715 123.609673 
C 352.401182 107.466954 342.599903 92.798303 330.2448 80.4432 
C 317.889697 68.088097 303.221046 58.286818 287.078327 51.600285 
C 270.935607 44.913752 253.632754 41.472 236.16 41.472 
C 218.687246 41.472 201.384393 44.913752 185.241673 51.600285 
C 169.098954 58.286818 154.430303 68.088097 142.0752 80.4432 
C 129.720097 92.798303 119.918818 107.466954 113.232285 123.609673 
C 106.545752 139.752393 103.104 157.055246 103.104 174.528 
C 103.104 192.000754 106.545752 209.303607 113.232285 225.446327 
C 119.918818 241.589046 129.720097 256.257697 142.0752 268.6128 
C 154.430303 280.967903 169.098954 290.769182 185.241673 297.455715 
C 201.384393 304.142248 218.687246 307.584 236.16 307.584 
C 253.632754 307.584 270.935607 304.142248 287.078327 297.455715 
C 303.221046 290.769182 317.889697 280.967903 330.2448 268.6128 
C 342.599903 256.257697 352.401182 241.589046 359.087715 225.446327 
C 365.774248 209.303607 369.216 192.000754 369.216 174.528 
" style="fill: none; stroke: #000000; stroke-width: 0.8; stroke-linejoin: miter; stroke-linecap: square"/>
   </g>
  </g>
  <g id="legend_1">
   <g id="patch_4">
    <path d="M 368.790625 96.06875 
L 453.8 96.06875 
Q 455.8 96.06875 455.8 94.06875 
L 455.8 7 
Q 455.8 5 453.8 5 
L 368.790625 5 
Q 366.790625 5 366.790625 7 
L 366.790625 94.06875 
Q 366.790625 96.06875 368.790625 96.06875 
z
" style="fill: #ffffff; opacity: 0.8; stroke: #cccccc; stroke-linejoin: miter"/>
   </g>
   <g id="PathCollection_7">
    <g>
     <use xlink:href="#mceeef02242" x="380.790625" y="13.973437" style="fill: #f50505; stroke: #f50505"/>
    </g>
   </g>
   <g id="text_10">
    <!-- Decoder E -->
    <g transform="translate(398.790625 16.598437)scale(0.1 -0.1)">
     <defs>
      <path id="DejaVuSans-44" d="M 1259 4147 
L 1259 519 
L 2022 519 
Q 2988 519 3436 956 
Q 3884 1394 3884 2338 
Q 3884 3275 3436 3711 
Q 2988 4147 2022 4147 
L 1259 4147 
z
M 628 4666 
L 1925 4666 
Q 3281 4666 3915 4102 
Q 4550 3538 4550 2338 
Q 4550 1131 3912 565 
Q 3275 0 1925 0 
L 628 0 
L 628 4666 
z
" transform="scale(0.015625)"/>
      <path id="DejaVuSans-65" d="M 3597 1894 
L 3597 1613 
L 953 1613 
Q 991 1019 1311 708 
Q 1631 397 2203 397 
Q 2534 397 2845 478 
Q 3156 559 3463 722 
L 3463 178 
Q 3153 47 2828 -22 
Q 2503 -91 2169 -91 
Q 1331 -91 842 396 
Q 353 884 353 1716 
Q 353 2575 817 3079 
Q 1281 3584 2069 3584 
Q 2775 3584 3186 3129 
Q 3597 2675 3597 1894 
z
M 3022 2063 
Q 3016 2534 2758 2815 
Q 2500 3097 2075 3097 
Q 1594 3097 1305 2825 
Q 1016 2553 972 2059 
L 3022 2063 
z
" transform="scale(0.015625)"/>
      <path id="DejaVuSans-63" d="M 3122 3366 
L 3122 2828 
Q 2878 2963 2633 3030 
Q 2388 3097 2138 3097 
Q 1578 3097 1268 2742 
Q 959 2388 959 1747 
Q 959 1106 1268 751 
Q 1578 397 2138 397 
Q 2388 397 2633 464 
Q 2878 531 3122 666 
L 3122 134 
Q 2881 22 2623 -34 
Q 2366 -91 2075 -91 
Q 1284 -91 818 406 
Q 353 903 353 1747 
Q 353 2603 823 3093 
Q 1294 3584 2113 3584 
Q 2378 3584 2631 3529 
Q 2884 3475 3122 3366 
z
" transform="scale(0.015625)"/>
      <path id="DejaVuSans-6f" d="M 1959 3097 
Q 1497 3097 1228 2736 
Q 959 2375 959 1747 
Q 959 1119 1226 758 
Q 1494 397 1959 397 
Q 2419 397 2687 759 
Q 2956 1122 2956 1747 
Q 2956 2369 2687 2733 
Q 2419 3097 1959 3097 
z
M 1959 3584 
Q 2709 3584 3137 3096 
Q 3566 2609 3566 1747 
Q 3566 888 3137 398 
Q 2709 -91 1959 -91 
Q 1206 -91 779 398 
Q 353 888 353 1747 
Q 353 2609 779 3096 
Q 1206 3584 1959 3584 
z
" transform="scale(0.015625)"/>
      <path id="DejaVuSans-64" d="M 2906 2969 
L 2906 4863 
L 3481 4863 
L 3481 0 
L 2906 0 
L 2906 525 
Q 2725 213 2448 61 
Q 2172 -91 1784 -91 
Q 1150 -91 751 415 
Q 353 922 353 1747 
Q 353 2572 751 3078 
Q 1150 3584 1784 3584 
Q 2172 3584 2448 3432 
Q 2725 3281 2906 2969 
z
M 947 1747 
Q 947 1113 1208 752 
Q 1469 391 1925 391 
Q 2381 391 2643 752 
Q 2906 1113 2906 1747 
Q 2906 2381 2643 2742 
Q 2381 3103 1925 3103 
Q 1469 3103 1208 2742 
Q 947 2381 947 1747 
z
" transform="scale(0.015625)"/>
      <path id="DejaVuSans-72" d="M 2631 2963 
Q 2534 3019 2420 3045 
Q 2306 3072 2169 3072 
Q 1681 3072 1420 2755 
Q 1159 2438 1159 1844 
L 1159 0 
L 581 0 
L 581 3500 
L 1159 3500 
L 1159 2956 
Q 1341 3275 1631 3429 
Q 1922 3584 2338 3584 
Q 2397 3584 2469 3576 
Q 2541 3569 2628 3553 
L 2631 2963 
z
" transform="scale(0.015625)"/>
      <path id="DejaVuSans-20" transform="scale(0.015625)"/>
      <path id="DejaVuSans-45" d="M 628 4666 
L 3578 4666 
L 3578 4134 
L 1259 4134 
L 1259 2753 
L 3481 2753 
L 3481 2222 
L 1259 2222 
L 1259 531 
L 3634 531 
L 3634 0 
L 628 0 
L 628 4666 
z
" transform="scale(0.015625)"/>
     </defs>
     <use xlink:href="#DejaVuSans-44"/>
     <use xlink:href="#DejaVuSans-65" x="77.001953"/>
     <use xlink:href="#DejaVuSans-63" x="138.525391"/>
     <use xlink:href="#DejaVuSans-6f" x="193.505859"/>
     <use xlink:href="#DejaVuSans-64" x="254.6875"/>
     <use xlink:href="#DejaVuSans-65" x="318.164062"/>
     <use xlink:href="#DejaVuSans-72" x="379.6875"/>
     <use xlink:href="#DejaVuSans-20" x="420.800781"/>
     <use xlink:href="#DejaVuSans-45" x="452.587891"/>
    </g>
   </g>
   <g id="PathCollection_8">
    <g>
     <use xlink:href="#mf7ef547e50" x="380.790625" y="28.651563" style="fill: #3505f5; stroke: #3505f5"/>
    </g>
   </g>
   <g id="text_11">
    <!-- Decoder F -->
    <g transform="translate(398.790625 31.276563)scale(0.1 -0.1)">
     <defs>
      <path id="DejaVuSans-46" d="M 628 4666 
L 3309 4666 
L 3309 4134 
L 1259 4134 
L 1259 2759 
L 3109 2759 
L 3109 2228 
L 1259 2228 
L 1259 0 
L 628 0 
L 628 4666 
z
" transform="scale(0.015625)"/>
     </defs>
     <use xlink:href="#DejaVuSans-44"/>
     <use xlink:href="#DejaVuSans-65" x="77.001953"/>
     <use xlink:href="#DejaVuSans-63" x="138.525391"/>
     <use xlink:href="#DejaVuSans-6f" x="193.505859"/>
     <use xlink:href="#DejaVuSans-64" x="254.6875"/>
     <use xlink:href="#DejaVuSans-65" x="318.164062"/>
     <use xlink:href="#DejaVuSans-72" x="379.6875"/>
     <use xlink:href="#DejaVuSans-20" x="420.800781"/>
     <use xlink:href="#DejaVuSans-46" x="452.587891"/>
    </g>
   </g>
   <g id="PathCollection_9">
    <g>
     <use xlink:href="#m5dd51b2fea" x="380.790625" y="43.329687" style="fill: #02faf2; stroke: #02faf2"/>
    </g>
   </g>
   <g id="text_12">
    <!-- Decoder G -->
    <g transform="translate(398.790625 45.954687)scale(0.1 -0.1)">
     <defs>
      <path id="DejaVuSans-47" d="M 3809 666 
L 3809 1919 
L 2778 1919 
L 2778 2438 
L 4434 2438 
L 4434 434 
Q 4069 175 3628 42 
Q 3188 -91 2688 -91 
Q 1594 -91 976 548 
Q 359 1188 359 2328 
Q 359 3472 976 4111 
Q 1594 4750 2688 4750 
Q 3144 4750 3555 4637 
Q 3966 4525 4313 4306 
L 4313 3634 
Q 3963 3931 3569 4081 
Q 3175 4231 2741 4231 
Q 1884 4231 1454 3753 
Q 1025 3275 1025 2328 
Q 1025 1384 1454 906 
Q 1884 428 2741 428 
Q 3075 428 3337 486 
Q 3600 544 3809 666 
z
" transform="scale(0.015625)"/>
     </defs>
     <use xlink:href="#DejaVuSans-44"/>
     <use xlink:href="#DejaVuSans-65" x="77.001953"/>
     <use xlink:href="#DejaVuSans-63" x="138.525391"/>
     <use xlink:href="#DejaVuSans-6f" x="193.505859"/>
     <use xlink:href="#DejaVuSans-64" x="254.6875"/>
     <use xlink:href="#DejaVuSans-65" x="318.164062"/>
     <use xlink:href="#DejaVuSans-72" x="379.6875"/>
     <use xlink:href="#DejaVuSans-20" x="420.800781"/>
     <use xlink:href="#DejaVuSans-47" x="452.587891"/>
    </g>
   </g>
   <g id="PathCollection_10">
    <g>
     <use xlink:href="#m73ed9f425c" x="380.790625" y="58.007812" style="fill: #f5ed05; stroke: #f5ed05"/>
    </g>
   </g>
   <g id="text_13">
    <!-- Decoder H -->
    <g transform="translate(398.790625 60.632812)scale(0.1 -0.1)">
     <defs>
      <path id="DejaVuSans-48" d="M 628 4666 
L 1259 4666 
L 1259 2753 
L 3553 2753 
L 3553 4666 
L 4184 4666 
L 4184 0 
L 3553 0 
L 3553 2222 
L 1259 2222 
L 1259 0 
L 628 0 
L 628 4666 
z
" transform="scale(0.015625)"/>
     </defs>
     <use xlink:href="#DejaVuSans-44"/>
     <use xlink:href="#DejaVuSans-65" x="77.001953"/>
     <use xlink:href="#DejaVuSans-63" x="138.525391"/>
     <use xlink:href="#DejaVuSans-6f" x="193.505859"/>
     <use xlink:href="#DejaVuSans-64" x="254.6875"/>
     <use xlink:href="#DejaVuSans-65" x="318.164062"/>
     <use xlink:href="#DejaVuSans-72" x="379.6875"/>
     <use xlink:href="#DejaVuSans-20" x="420.800781"/>
     <use xlink:href="#DejaVuSans-48" x="452.587891"/>
    </g>
   </g>
   <g id="PathCollection_11">
    <g>
     <use xlink:href="#m94e762803a" x="380.790625" y="72.685937" style="fill: #518e37; stroke: #518e37"/>
    </g>
   </g>
   <g id="text_14">
    <!-- Decoder I -->
    <g transform="translate(398.790625 75.310937)scale(0.1 -0.1)">
     <defs>
      <path id="DejaVuSans-49" d="M 628 4666 
L 1259 4666 
L 1259 0 
L 628 0 
L 628 4666 
z
" transform="scale(0.015625)"/>
     </defs>
     <use xlink:href="#DejaVuSans-44"/>
     <use xlink:href="#DejaVuSans-65" x="77.001953"/>
     <use xlink:href="#DejaVuSans-63" x="138.525391"/>
     <use xlink:href="#DejaVuSans-6f" x="193.505859"/>
     <use xlink:href="#DejaVuSans-64" x="254.6875"/>
     <use xlink:href="#DejaVuSans-65" x="318.164062"/>
     <use xlink:href="#DejaVuSans-72" x="379.6875"/>
     <use xlink:href="#DejaVuSans-20" x="420.800781"/>
     <use xlink:href="#DejaVuSans-49" x="452.587891"/>
    </g>
   </g>
   <g id="PathCollection_12">
    <g>
     <use xlink:href="#mcee70cf090" x="380.790625" y="87.364062" style="fill: #ff14f2; stroke: #ff14f2"/>
    </g>
   </g>
   <g id="text_15">
    <!-- Decoder J -->
    <g transform="translate(398.790625 89.989062)scale(0.1 -0.1)">
     <defs>
      <path id="DejaVuSans-4a" d="M 628 4666 
L 1259 4666 
L 1259 325 
Q 1259 -519 939 -900 
Q 619 -1281 -91 -1281 
L -331 -1281 
L -331 -750 
L -134 -750 
Q 284 -750 456 -515 
Q 628 -281 628 325 
L 628 4666 
z
" transform="scale(0.015625)"/>
     </defs>
     <use xlink:href="#DejaVuSans-44"/>
     <use xlink:href="#DejaVuSans-65" x="77.001953"/>
     <use xlink:href="#DejaVuSans-63" x="138.525391"/>
     <use xlink:href="#DejaVuSans-6f" x="193.505859"/>
     <use xlink:href="#DejaVuSans-64" x="254.6875"/>
     <use xlink:href="#DejaVuSans-65" x="318.164062"/>
     <use xlink:href="#DejaVuSans-72" x="379.6875"/>
     <use xlink:href="#DejaVuSans-20" x="420.800781"/>
     <use xlink:href="#DejaVuSans-4a" x="452.587891"/>
    </g>
   </g>
  </g>
 </g>
 <defs>
  <clipPath id="pfaa3c28ab3">
   <path d="M 369.216 174.528 
C 369.216 157.055246 365.774248 139.752393 359.087715 123.609673 
C 352.401182 107.466954 342.599903 92.798303 330.2448 80.4432 
C 317.889697 68.088097 303.221046 58.286818 287.078327 51.600285 
C 270.935607 44.913752 253.632754 41.472 236.16 41.472 
C 218.687246 41.472 201.384393 44.913752 185.241673 51.600285 
C 169.098954 58.286818 154.430303 68.088097 142.0752 80.4432 
C 129.720097 92.798303 119.918818 107.466954 113.232285 123.609673 
C 106.545752 139.752393 103.104 157.055246 103.104 174.528 
C 103.104 192.000754 106.545752 209.303607 113.232285 225.446327 
C 119.918818 241.589046 129.720097 256.257697 142.0752 268.6128 
C 154.430303 280.967903 169.098954 290.769182 185.241673 297.455715 
C 201.384393 304.142248 218.687246 307.584 236.16 307.584 
C 253.632754 307.584 270.935607 304.142248 287.078327 297.455715 
C 303.221046 290.769182 317.889697 280.967903 330.2448 268.6128 
C 342.599903 256.257697 352.401182 241.589046 359.087715 225.446327 
C 365.774248 209.303607 369.216 192.000754 369.216 174.528 
M 236.16 174.528 
C 236.16 174.528 236.16 174.528 236.16 174.528 
C 236.16 174.528 236.16 174.528 236.16 174.528 
C 236.16 174.528 236.16 174.528 236.16 174.528 
C 236.16 174.528 236.16 174.528 236.16 174.528 
C 236.16 174.528 236.16 174.528 236.16 174.528 
C 236.16 174.528 236.16 174.528 236.16 174.528 
C 236.16 174.528 236.16 174.528 236.16 174.528 
C 236.16 174.528 236.16 174.528 236.16 174.528 
C 236.16 174.528 236.16 174.528 236.16 174.528 
C 236.16 174.528 236.16 174.528 236.16 174.528 
C 236.16 174.528 236.16 174.528 236.16 174.528 
C 236.16 174.528 236.16 174.528 236.16 174.528 
C 236.16 174.528 236.16 174.528 236.16 174.528 
C 236.16 174.528 236.16 174.528 236.16 174.528 
C 236.16 174.528 236.16 174.528 236.16 174.528 
C 236.16 174.528 236.16 174.528 236.16 174.528 
M 369.216 174.528 
z
"/>
  </clipPath>
 </defs>
</svg>
