<?xml version="1.0" encoding="utf-8" standalone="no"?>
<!DOCTYPE svg PUBLIC "-//W3C//DTD SVG 1.1//EN"
  "http://www.w3.org/Graphics/SVG/1.1/DTD/svg11.dtd">
<svg xmlns:xlink="http://www.w3.org/1999/xlink" width="460.8pt" height="345.6pt" viewBox="0 0 460.8 345.6" xmlns="http://www.w3.org/2000/svg" version="1.1">
 <metadata>
  <rdf:RDF xmlns:dc="http://purl.org/dc/elements/1.1/" xmlns:cc="http://creativecommons.org/ns#" xmlns:rdf="http://www.w3.org/1999/02/22-rdf-syntax-ns#">
   <cc:Work>
    <dc:type rdf:resource="http://purl.org/dc/dcmitype/StillImage"/>
    <dc:date>2024-02-14T14:13:05.694587</dc:date>
    <dc:format>image/svg+xml</dc:format>
    <dc:creator>
     <cc:Agent>
      <dc:title>Matplotlib v3.5.0, https://matplotlib.org/</dc:title>
     </cc:Agent>
    </dc:creator>
   </cc:Work>
  </rdf:RDF>
 </metadata>
 <defs>
  <style type="text/css">*{stroke-linejoin: round; stroke-linecap: butt}</style>
 </defs>
 <g id="figure_1">
  <g id="patch_1">
   <path d="M 0 345.6 
L 460.8 345.6 
L 460.8 0 
L 0 0 
z
" style="fill: #ffffff"/>
  </g>
  <g id="axes_1">
   <g id="patch_2">
    <path d="M 57.6 307.584 
L 414.72 307.584 
L 414.72 41.472 
L 57.6 41.472 
z
" style="fill: #ffffff"/>
   </g>
   <g id="matplotlib.axis_1">
    <g id="xtick_1">
     <g id="line2d_1">
      <defs>
       <path id="m132dc930b7" d="M 0 0 
L 0 3.5 
" style="stroke: #000000; stroke-width: 0.8"/>
      </defs>
      <g>
       <use xlink:href="#m132dc930b7" x="73.832727" y="307.584" style="stroke: #000000; stroke-width: 0.8"/>
      </g>
     </g>
     <g id="text_1">
      <!-- 0 -->
      <g transform="translate(67.470227 329.780875)scale(0.2 -0.2)">
       <defs>
        <path id="DejaVuSans-30" d="M 2034 4250 
Q 1547 4250 1301 3770 
Q 1056 3291 1056 2328 
Q 1056 1369 1301 889 
Q 1547 409 2034 409 
Q 2525 409 2770 889 
Q 3016 1369 3016 2328 
Q 3016 3291 2770 3770 
Q 2525 4250 2034 4250 
z
M 2034 4750 
Q 2819 4750 3233 4129 
Q 3647 3509 3647 2328 
Q 3647 1150 3233 529 
Q 2819 -91 2034 -91 
Q 1250 -91 836 529 
Q 422 1150 422 2328 
Q 422 3509 836 4129 
Q 1250 4750 2034 4750 
z
" transform="scale(0.015625)"/>
       </defs>
       <use xlink:href="#DejaVuSans-30"/>
      </g>
     </g>
    </g>
    <g id="xtick_2">
     <g id="line2d_2">
      <g>
       <use xlink:href="#m132dc930b7" x="411.31464" y="307.584" style="stroke: #000000; stroke-width: 0.8"/>
      </g>
     </g>
     <g id="text_2">
      <!-- 1 -->
      <g transform="translate(404.95214 329.780875)scale(0.2 -0.2)">
       <defs>
        <path id="DejaVuSans-31" d="M 794 531 
L 1825 531 
L 1825 4091 
L 703 3866 
L 703 4441 
L 1819 4666 
L 2450 4666 
L 2450 531 
L 3481 531 
L 3481 0 
L 794 0 
L 794 531 
z
" transform="scale(0.015625)"/>
       </defs>
       <use xlink:href="#DejaVuSans-31"/>
      </g>
     </g>
    </g>
    <g id="text_3">
     <!-- Normalised X position -->
     <g transform="translate(111.795937 353.137125)scale(0.2 -0.2)">
      <defs>
       <path id="DejaVuSans-Bold-4e" d="M 588 4666 
L 1931 4666 
L 3628 1466 
L 3628 4666 
L 4769 4666 
L 4769 0 
L 3425 0 
L 1728 3200 
L 1728 0 
L 588 0 
L 588 4666 
z
" transform="scale(0.015625)"/>
       <path id="DejaVuSans-Bold-6f" d="M 2203 2784 
Q 1831 2784 1636 2517 
Q 1441 2250 1441 1747 
Q 1441 1244 1636 976 
Q 1831 709 2203 709 
Q 2569 709 2762 976 
Q 2956 1244 2956 1747 
Q 2956 2250 2762 2517 
Q 2569 2784 2203 2784 
z
M 2203 3584 
Q 3106 3584 3614 3096 
Q 4122 2609 4122 1747 
Q 4122 884 3614 396 
Q 3106 -91 2203 -91 
Q 1297 -91 786 396 
Q 275 884 275 1747 
Q 275 2609 786 3096 
Q 1297 3584 2203 3584 
z
" transform="scale(0.015625)"/>
       <path id="DejaVuSans-Bold-72" d="M 3138 2547 
Q 2991 2616 2845 2648 
Q 2700 2681 2553 2681 
Q 2122 2681 1889 2404 
Q 1656 2128 1656 1613 
L 1656 0 
L 538 0 
L 538 3500 
L 1656 3500 
L 1656 2925 
Q 1872 3269 2151 3426 
Q 2431 3584 2822 3584 
Q 2878 3584 2943 3579 
Q 3009 3575 3134 3559 
L 3138 2547 
z
" transform="scale(0.015625)"/>
       <path id="DejaVuSans-Bold-6d" d="M 3781 2919 
Q 3994 3244 4286 3414 
Q 4578 3584 4928 3584 
Q 5531 3584 5847 3212 
Q 6163 2841 6163 2131 
L 6163 0 
L 5038 0 
L 5038 1825 
Q 5041 1866 5042 1909 
Q 5044 1953 5044 2034 
Q 5044 2406 4934 2573 
Q 4825 2741 4581 2741 
Q 4263 2741 4089 2478 
Q 3916 2216 3909 1719 
L 3909 0 
L 2784 0 
L 2784 1825 
Q 2784 2406 2684 2573 
Q 2584 2741 2328 2741 
Q 2006 2741 1831 2477 
Q 1656 2213 1656 1722 
L 1656 0 
L 531 0 
L 531 3500 
L 1656 3500 
L 1656 2988 
Q 1863 3284 2130 3434 
Q 2397 3584 2719 3584 
Q 3081 3584 3359 3409 
Q 3638 3234 3781 2919 
z
" transform="scale(0.015625)"/>
       <path id="DejaVuSans-Bold-61" d="M 2106 1575 
Q 1756 1575 1579 1456 
Q 1403 1338 1403 1106 
Q 1403 894 1545 773 
Q 1688 653 1941 653 
Q 2256 653 2472 879 
Q 2688 1106 2688 1447 
L 2688 1575 
L 2106 1575 
z
M 3816 1997 
L 3816 0 
L 2688 0 
L 2688 519 
Q 2463 200 2181 54 
Q 1900 -91 1497 -91 
Q 953 -91 614 226 
Q 275 544 275 1050 
Q 275 1666 698 1953 
Q 1122 2241 2028 2241 
L 2688 2241 
L 2688 2328 
Q 2688 2594 2478 2717 
Q 2269 2841 1825 2841 
Q 1466 2841 1156 2769 
Q 847 2697 581 2553 
L 581 3406 
Q 941 3494 1303 3539 
Q 1666 3584 2028 3584 
Q 2975 3584 3395 3211 
Q 3816 2838 3816 1997 
z
" transform="scale(0.015625)"/>
       <path id="DejaVuSans-Bold-6c" d="M 538 4863 
L 1656 4863 
L 1656 0 
L 538 0 
L 538 4863 
z
" transform="scale(0.015625)"/>
       <path id="DejaVuSans-Bold-69" d="M 538 3500 
L 1656 3500 
L 1656 0 
L 538 0 
L 538 3500 
z
M 538 4863 
L 1656 4863 
L 1656 3950 
L 538 3950 
L 538 4863 
z
" transform="scale(0.015625)"/>
       <path id="DejaVuSans-Bold-73" d="M 3272 3391 
L 3272 2541 
Q 2913 2691 2578 2766 
Q 2244 2841 1947 2841 
Q 1628 2841 1473 2761 
Q 1319 2681 1319 2516 
Q 1319 2381 1436 2309 
Q 1553 2238 1856 2203 
L 2053 2175 
Q 2913 2066 3209 1816 
Q 3506 1566 3506 1031 
Q 3506 472 3093 190 
Q 2681 -91 1863 -91 
Q 1516 -91 1145 -36 
Q 775 19 384 128 
L 384 978 
Q 719 816 1070 734 
Q 1422 653 1784 653 
Q 2113 653 2278 743 
Q 2444 834 2444 1013 
Q 2444 1163 2330 1236 
Q 2216 1309 1875 1350 
L 1678 1375 
Q 931 1469 631 1722 
Q 331 1975 331 2491 
Q 331 3047 712 3315 
Q 1094 3584 1881 3584 
Q 2191 3584 2531 3537 
Q 2872 3491 3272 3391 
z
" transform="scale(0.015625)"/>
       <path id="DejaVuSans-Bold-65" d="M 4031 1759 
L 4031 1441 
L 1416 1441 
Q 1456 1047 1700 850 
Q 1944 653 2381 653 
Q 2734 653 3104 758 
Q 3475 863 3866 1075 
L 3866 213 
Q 3469 63 3072 -14 
Q 2675 -91 2278 -91 
Q 1328 -91 801 392 
Q 275 875 275 1747 
Q 275 2603 792 3093 
Q 1309 3584 2216 3584 
Q 3041 3584 3536 3087 
Q 4031 2591 4031 1759 
z
M 2881 2131 
Q 2881 2450 2695 2645 
Q 2509 2841 2209 2841 
Q 1884 2841 1681 2658 
Q 1478 2475 1428 2131 
L 2881 2131 
z
" transform="scale(0.015625)"/>
       <path id="DejaVuSans-Bold-64" d="M 2919 2988 
L 2919 4863 
L 4044 4863 
L 4044 0 
L 2919 0 
L 2919 506 
Q 2688 197 2409 53 
Q 2131 -91 1766 -91 
Q 1119 -91 703 423 
Q 288 938 288 1747 
Q 288 2556 703 3070 
Q 1119 3584 1766 3584 
Q 2128 3584 2408 3439 
Q 2688 3294 2919 2988 
z
M 2181 722 
Q 2541 722 2730 984 
Q 2919 1247 2919 1747 
Q 2919 2247 2730 2509 
Q 2541 2772 2181 2772 
Q 1825 2772 1636 2509 
Q 1447 2247 1447 1747 
Q 1447 1247 1636 984 
Q 1825 722 2181 722 
z
" transform="scale(0.015625)"/>
       <path id="DejaVuSans-Bold-20" transform="scale(0.015625)"/>
       <path id="DejaVuSans-Bold-58" d="M 3188 2381 
L 4806 0 
L 3553 0 
L 2463 1594 
L 1381 0 
L 122 0 
L 1741 2381 
L 184 4666 
L 1441 4666 
L 2463 3163 
L 3481 4666 
L 4744 4666 
L 3188 2381 
z
" transform="scale(0.015625)"/>
       <path id="DejaVuSans-Bold-70" d="M 1656 506 
L 1656 -1331 
L 538 -1331 
L 538 3500 
L 1656 3500 
L 1656 2988 
Q 1888 3294 2169 3439 
Q 2450 3584 2816 3584 
Q 3463 3584 3878 3070 
Q 4294 2556 4294 1747 
Q 4294 938 3878 423 
Q 3463 -91 2816 -91 
Q 2450 -91 2169 54 
Q 1888 200 1656 506 
z
M 2400 2772 
Q 2041 2772 1848 2508 
Q 1656 2244 1656 1747 
Q 1656 1250 1848 986 
Q 2041 722 2400 722 
Q 2759 722 2948 984 
Q 3138 1247 3138 1747 
Q 3138 2247 2948 2509 
Q 2759 2772 2400 2772 
z
" transform="scale(0.015625)"/>
       <path id="DejaVuSans-Bold-74" d="M 1759 4494 
L 1759 3500 
L 2913 3500 
L 2913 2700 
L 1759 2700 
L 1759 1216 
Q 1759 972 1856 886 
Q 1953 800 2241 800 
L 2816 800 
L 2816 0 
L 1856 0 
Q 1194 0 917 276 
Q 641 553 641 1216 
L 641 2700 
L 84 2700 
L 84 3500 
L 641 3500 
L 641 4494 
L 1759 4494 
z
" transform="scale(0.015625)"/>
       <path id="DejaVuSans-Bold-6e" d="M 4056 2131 
L 4056 0 
L 2931 0 
L 2931 347 
L 2931 1631 
Q 2931 2084 2911 2256 
Q 2891 2428 2841 2509 
Q 2775 2619 2662 2680 
Q 2550 2741 2406 2741 
Q 2056 2741 1856 2470 
Q 1656 2200 1656 1722 
L 1656 0 
L 538 0 
L 538 3500 
L 1656 3500 
L 1656 2988 
Q 1909 3294 2193 3439 
Q 2478 3584 2822 3584 
Q 3428 3584 3742 3212 
Q 4056 2841 4056 2131 
z
" transform="scale(0.015625)"/>
      </defs>
      <use xlink:href="#DejaVuSans-Bold-4e"/>
      <use xlink:href="#DejaVuSans-Bold-6f" x="83.691406"/>
      <use xlink:href="#DejaVuSans-Bold-72" x="152.392578"/>
      <use xlink:href="#DejaVuSans-Bold-6d" x="201.708984"/>
      <use xlink:href="#DejaVuSans-Bold-61" x="305.908203"/>
      <use xlink:href="#DejaVuSans-Bold-6c" x="373.388672"/>
      <use xlink:href="#DejaVuSans-Bold-69" x="407.666016"/>
      <use xlink:href="#DejaVuSans-Bold-73" x="441.943359"/>
      <use xlink:href="#DejaVuSans-Bold-65" x="501.464844"/>
      <use xlink:href="#DejaVuSans-Bold-64" x="569.287109"/>
      <use xlink:href="#DejaVuSans-Bold-20" x="640.869141"/>
      <use xlink:href="#DejaVuSans-Bold-58" x="675.683594"/>
      <use xlink:href="#DejaVuSans-Bold-20" x="752.783203"/>
      <use xlink:href="#DejaVuSans-Bold-70" x="787.597656"/>
      <use xlink:href="#DejaVuSans-Bold-6f" x="859.179688"/>
      <use xlink:href="#DejaVuSans-Bold-73" x="927.880859"/>
      <use xlink:href="#DejaVuSans-Bold-69" x="987.402344"/>
      <use xlink:href="#DejaVuSans-Bold-74" x="1021.679688"/>
      <use xlink:href="#DejaVuSans-Bold-69" x="1069.482422"/>
      <use xlink:href="#DejaVuSans-Bold-6f" x="1103.759766"/>
      <use xlink:href="#DejaVuSans-Bold-6e" x="1172.460938"/>
     </g>
    </g>
   </g>
   <g id="matplotlib.axis_2">
    <g id="ytick_1">
     <g id="line2d_3">
      <defs>
       <path id="m5826a82ce0" d="M 0 0 
L -3.5 0 
" style="stroke: #000000; stroke-width: 0.8"/>
      </defs>
      <g>
       <use xlink:href="#m5826a82ce0" x="57.6" y="297" style="stroke: #000000; stroke-width: 0.8"/>
      </g>
     </g>
     <g id="text_4">
      <!-- 0 -->
      <g transform="translate(37.875 304.598437)scale(0.2 -0.2)">
       <use xlink:href="#DejaVuSans-30"/>
      </g>
     </g>
    </g>
    <g id="ytick_2">
     <g id="line2d_4">
      <g>
       <use xlink:href="#m5826a82ce0" x="57.6" y="53.568" style="stroke: #000000; stroke-width: 0.8"/>
      </g>
     </g>
     <g id="text_5">
      <!-- 1 -->
      <g transform="translate(37.875 61.166438)scale(0.2 -0.2)">
       <use xlink:href="#DejaVuSans-31"/>
      </g>
     </g>
    </g>
    <g id="text_6">
     <!-- Normalised Y position -->
     <g transform="translate(29.715625 298.423313)rotate(-90)scale(0.2 -0.2)">
      <defs>
       <path id="DejaVuSans-Bold-59" d="M -63 4666 
L 1253 4666 
L 2316 3003 
L 3378 4666 
L 4697 4666 
L 2919 1966 
L 2919 0 
L 1716 0 
L 1716 1966 
L -63 4666 
z
" transform="scale(0.015625)"/>
      </defs>
      <use xlink:href="#DejaVuSans-Bold-4e"/>
      <use xlink:href="#DejaVuSans-Bold-6f" x="83.691406"/>
      <use xlink:href="#DejaVuSans-Bold-72" x="152.392578"/>
      <use xlink:href="#DejaVuSans-Bold-6d" x="201.708984"/>
      <use xlink:href="#DejaVuSans-Bold-61" x="305.908203"/>
      <use xlink:href="#DejaVuSans-Bold-6c" x="373.388672"/>
      <use xlink:href="#DejaVuSans-Bold-69" x="407.666016"/>
      <use xlink:href="#DejaVuSans-Bold-73" x="441.943359"/>
      <use xlink:href="#DejaVuSans-Bold-65" x="501.464844"/>
      <use xlink:href="#DejaVuSans-Bold-64" x="569.287109"/>
      <use xlink:href="#DejaVuSans-Bold-20" x="640.869141"/>
      <use xlink:href="#DejaVuSans-Bold-59" x="675.683594"/>
      <use xlink:href="#DejaVuSans-Bold-20" x="748.095703"/>
      <use xlink:href="#DejaVuSans-Bold-70" x="782.910156"/>
      <use xlink:href="#DejaVuSans-Bold-6f" x="854.492188"/>
      <use xlink:href="#DejaVuSans-Bold-73" x="923.193359"/>
      <use xlink:href="#DejaVuSans-Bold-69" x="982.714844"/>
      <use xlink:href="#DejaVuSans-Bold-74" x="1016.992188"/>
      <use xlink:href="#DejaVuSans-Bold-69" x="1064.794922"/>
      <use xlink:href="#DejaVuSans-Bold-6f" x="1099.072266"/>
      <use xlink:href="#DejaVuSans-Bold-6e" x="1167.773438"/>
     </g>
    </g>
   </g>
   <g id="line2d_5">
    <path d="M 73.832727 295.488 
L 73.832727 295.488 
L 73.832727 295.488 
L 73.832727 295.1856 
L 73.832727 294.8832 
L 73.832727 293.6736 
L 73.832727 292.464 
L 73.832727 291.8592 
L 74.443554 289.7424 
L 74.748968 287.3232 
L 75.054381 283.9968 
L 75.665208 280.0656 
L 76.581449 276.1344 
L 77.192276 272.2032 
L 78.108516 268.272 
L 78.719343 266.4576 
L 79.940997 262.224 
L 80.857238 256.176 
L 81.468065 252.2448 
L 81.773478 248.616 
L 82.078892 244.9872 
L 82.384305 241.3584 
L 81.468065 237.4272 
L 81.162651 233.7984 
L 80.857238 230.472 
L 80.857238 227.1456 
L 81.468065 224.1216 
L 82.384305 220.7952 
L 82.689719 219.5856 
L 82.078892 216.5616 
L 82.689719 214.1424 
L 82.689719 214.1424 
L 82.689719 214.1424 
L 83.300546 212.6304 
L 83.300546 212.6304 
L 83.605959 211.1184 
L 83.605959 208.6992 
L 83.605959 207.4896 
L 83.911373 203.8608 
L 83.911373 203.8608 
L 83.911373 203.8608 
L 84.216786 201.4416 
L 84.216786 201.4416 
L 84.216786 201.4416 
L 84.827613 199.0224 
L 85.133027 197.8128 
L 85.133027 195.9984 
L 84.827613 195.3936 
L 84.827613 194.184 
L 84.827613 194.184 
L 85.133027 192.672 
L 85.43844 192.0672 
L 86.049267 191.4624 
L 86.965508 189.648 
L 87.270921 189.0432 
L 88.187162 187.2288 
L 88.187162 186.624 
L 88.187162 185.7168 
L 88.492575 185.7168 
L 90.325056 184.5072 
L 91.54671 182.6928 
L 92.157537 181.7856 
L 93.684604 179.9712 
L 95.211672 178.1568 
L 97.349566 176.6448 
L 99.487461 176.04 
L 102.541596 174.8304 
L 104.374077 174.528 
L 73.832727 208.3968 
L 73.832727 219.2832 
L 73.832727 228.3552 
L 74.138141 237.4272 
L 75.054381 246.1968 
L 76.581449 255.8736 
L 77.497689 260.4096 
L 79.940997 269.1792 
L 83.605959 283.392 
L 86.354681 292.7664 
L 89.408816 295.488 
L 92.157537 295.488 
L 93.379191 295.488 
L 93.684604 295.488 
L 93.990018 295.488 
L 92.768364 295.488 
L 90.935883 295.488 
L 87.881748 295.488 
L 84.5222 295.488 
L 82.995132 295.488 
L 79.635584 295.488 
L 78.41393 295.488 
L 77.497689 295.488 
L 77.497689 295.488 
L 79.024757 295.488 
L 81.468065 295.488 
L 84.827613 295.488 
L 88.187162 295.488 
L 92.768364 295.488 
L 97.65498 295.1856 
L 102.847009 293.976 
L 107.428212 290.6496 
L 112.925655 286.7184 
L 119.339338 282.1824 
L 126.669262 275.832 
L 134.915426 268.5744 
L 144.077831 259.8048 
L 155.072717 249.2208 
" clip-path="url(#pf90484268c)" style="fill: none; stroke: #000000; stroke-width: 1.5; stroke-linecap: square"/>
   </g>
   <g id="line2d_6">
    <path d="M 73.832727 295.488 
" clip-path="url(#pf90484268c)" style="fill: none; stroke: #000000; stroke-width: 1.5; stroke-linecap: square"/>
    <defs>
     <path id="m0f8e11f8e5" d="M 0 5 
C 1.326016 5 2.597899 4.473168 3.535534 3.535534 
C 4.473168 2.597899 5 1.326016 5 0 
C 5 -1.326016 4.473168 -2.597899 3.535534 -3.535534 
C 2.597899 -4.473168 1.326016 -5 0 -5 
C -1.326016 -5 -2.597899 -4.473168 -3.535534 -3.535534 
C -4.473168 -2.597899 -5 -1.326016 -5 0 
C -5 1.326016 -4.473168 2.597899 -3.535534 3.535534 
C -2.597899 4.473168 -1.326016 5 0 5 
z
" style="stroke: #000000"/>
    </defs>
    <g clip-path="url(#pf90484268c)">
     <use xlink:href="#m0f8e11f8e5" x="73.832727" y="295.488" style="stroke: #000000"/>
    </g>
   </g>
   <g id="line2d_7">
    <path d="M 155.072717 249.2208 
" clip-path="url(#pf90484268c)" style="fill: none; stroke: #000000; stroke-width: 1.5; stroke-linecap: square"/>
    <defs>
     <path id="m02a8cc36e8" d="M -5 5 
L 5 5 
L 5 -5 
L -5 -5 
z
" style="stroke: #000000; stroke-linejoin: miter"/>
    </defs>
    <g clip-path="url(#pf90484268c)">
     <use xlink:href="#m02a8cc36e8" x="155.072717" y="249.2208" style="stroke: #000000; stroke-linejoin: miter"/>
    </g>
   </g>
   <g id="line2d_8">
    <path d="M 356.34021 187.2288 
L 355.729383 189.3456 
L 355.118556 191.16 
L 352.675248 193.8816 
L 356.951037 193.2768 
L 380.162463 179.9712 
L 388.714041 175.4352 
L 392.684416 173.9232 
L 394.516897 173.6208 
L 395.738551 173.9232 
L 395.433138 174.2256 
L 395.127724 175.1328 
L 394.822311 175.7376 
L 394.211484 176.04 
L 393.600657 176.3424 
L 392.98983 176.6448 
L 392.684416 176.6448 
L 391.768176 176.9472 
L 391.157349 176.9472 
L 390.241108 176.9472 
L 389.630281 176.6448 
L 388.714041 176.3424 
L 388.103214 175.7376 
L 386.88156 175.4352 
L 385.965319 174.8304 
L 384.743665 174.2256 
L 383.216598 173.016 
L 381.384117 172.1088 
L 378.940809 171.504 
L 375.886674 170.8992 
L 372.527126 170.5968 
L 367.945923 170.5968 
L 366.113442 169.0848 
L 363.364721 167.5728 
L 359.088932 167.2704 
L 353.286075 167.5728 
L 349.3157 167.8752 
L 336.488333 169.992 
L 325.188034 172.4112 
L 314.498562 174.528 
L 312.360667 174.528 
L 302.587435 174.8304 
L 295.868338 171.8064 
L 291.897963 169.0848 
L 287.31676 166.6656 
L 285.178866 165.456 
L 276.932702 161.8272 
L 270.519018 159.7104 
L 264.105335 157.896 
L 257.080824 155.4768 
L 250.056314 153.36 
L 246.696766 150.0336 
L 247.002179 143.6832 
L 241.81015 140.0544 
L 235.396466 137.3328 
L 228.677369 134.9136 
L 221.347445 132.7968 
L 213.101281 131.2848 
L 204.855117 129.4704 
L 197.525193 127.9584 
L 190.500682 125.8416 
L 183.476172 123.7248 
L 177.673316 121.3056 
L 171.870459 119.1888 
L 166.373016 117.6768 
L 161.180987 116.7696 
L 157.516025 114.048 
L 153.851063 111.024 
L 149.575274 109.512 
L 145.299485 108.6048 
L 141.023696 107.6976 
L 137.358734 107.3952 
L 134.304599 106.7904 
L 131.555878 106.488 
L 129.11257 106.488 
L 126.974675 106.7904 
L 125.753021 107.0928 
L 124.836781 107.6976 
L 124.531367 108.3024 
L 124.225954 109.2096 
L 124.531367 110.1168 
L 125.142194 111.3264 
L 125.753021 112.536 
L 126.974675 113.7456 
L 128.196329 115.56 
L 129.723397 117.072 
L 131.250464 118.8864 
L 133.082945 120.7008 
L 135.22084 122.8176 
L 137.053321 124.9344 
L 139.191215 127.3536 
L 141.634523 129.7728 
" clip-path="url(#pf90484268c)" style="fill: none; stroke: #ffa07a; stroke-width: 1.5; stroke-linecap: square"/>
   </g>
   <g id="line2d_9">
    <path d="M 356.34021 187.2288 
" clip-path="url(#pf90484268c)" style="fill: none; stroke: #ffa07a; stroke-width: 1.5; stroke-linecap: square"/>
    <defs>
     <path id="maf45ce8ea4" d="M 0 5 
C 1.326016 5 2.597899 4.473168 3.535534 3.535534 
C 4.473168 2.597899 5 1.326016 5 0 
C 5 -1.326016 4.473168 -2.597899 3.535534 -3.535534 
C 2.597899 -4.473168 1.326016 -5 0 -5 
C -1.326016 -5 -2.597899 -4.473168 -3.535534 -3.535534 
C -4.473168 -2.597899 -5 -1.326016 -5 0 
C -5 1.326016 -4.473168 2.597899 -3.535534 3.535534 
C -2.597899 4.473168 -1.326016 5 0 5 
z
" style="stroke: #ffa07a"/>
    </defs>
    <g clip-path="url(#pf90484268c)">
     <use xlink:href="#maf45ce8ea4" x="356.34021" y="187.2288" style="fill: #ffa07a; stroke: #ffa07a"/>
    </g>
   </g>
   <g id="line2d_10">
    <path d="M 141.634523 129.7728 
" clip-path="url(#pf90484268c)" style="fill: none; stroke: #ffa07a; stroke-width: 1.5; stroke-linecap: square"/>
    <defs>
     <path id="m516ef62c33" d="M -5 5 
L 5 5 
L 5 -5 
L -5 -5 
z
" style="stroke: #ffa07a; stroke-linejoin: miter"/>
    </defs>
    <g clip-path="url(#pf90484268c)">
     <use xlink:href="#m516ef62c33" x="141.634523" y="129.7728" style="fill: #ffa07a; stroke: #ffa07a; stroke-linejoin: miter"/>
    </g>
   </g>
   <g id="line2d_11">
    <path d="M 191.722336 155.1744 
L 192.638577 155.7792 
L 193.554817 156.384 
L 194.471058 156.6864 
L 195.387298 157.2912 
L 196.608952 157.5936 
L 197.525193 157.896 
L 198.441433 158.8032 
L 199.05226 159.1056 
L 199.968501 159.7104 
L 200.884741 160.0128 
L 201.800982 160.3152 
L 202.717222 160.6176 
L 203.328049 160.92 
L 204.24429 161.2224 
L 204.855117 161.5248 
L 205.465944 161.8272 
L 206.382184 162.1296 
L 206.993011 162.432 
L 207.909252 162.7344 
L 208.825492 163.3392 
L 210.047146 163.944 
L 211.574214 164.8512 
L 213.101281 165.7584 
L 215.239176 166.968 
L 217.682484 168.1776 
L 220.431205 169.6896 
L 223.48534 170.8992 
L 226.844888 172.1088 
L 230.50985 173.3184 
L 234.480226 174.8304 
L 239.366842 175.7376 
L 245.169698 176.3424 
L 249.140074 177.552 
L 253.415862 178.4592 
L 255.553757 178.7616 
L 259.829546 179.6688 
L 264.410748 180.2736 
L 268.381124 180.8784 
L 275.100221 181.7856 
L 279.681423 182.3904 
L 284.262626 182.6928 
L 288.843828 182.9952 
L 293.42503 183.2976 
L 298.311646 183.6 
L 302.892849 183.9024 
L 307.474051 184.5072 
L 311.74984 185.112 
L 316.025629 185.4144 
L 319.690591 186.0192 
L 323.050139 186.624 
L 326.409688 187.5312 
L 329.463823 188.136 
L 332.823371 188.7408 
L 335.877506 189.648 
L 338.320814 190.2528 
L 341.374949 190.8576 
L 343.818257 191.16 
L 345.956152 192.0672 
L 347.788633 192.672 
L 349.3157 193.8816 
L 350.842767 194.7888 
L 351.759008 195.9984 
L 352.064421 196.9056 
L 352.369835 198.1152 
L 351.453594 199.6272 
L 349.926527 201.744 
L 349.010286 202.6512 
L 347.177806 204.768 
L 345.345325 206.28 
L 343.20743 208.0944 
L 341.374949 209.304 
L 339.542468 210.5136 
L 336.18292 212.6304 
L 334.350439 214.4448 
L 332.517958 216.2592 
L 329.769236 218.9808 
L 327.936755 220.7952 
L 326.715101 222.3072 
L 325.493447 223.8192 
L 324.88262 225.6336 
L 323.96638 226.8432 
L 324.271793 228.3552 
L 324.577207 229.5648 
L 324.88262 230.7744 
L 325.798861 231.6816 
L 327.325928 231.984 
L 328.242169 232.5888 
L 328.852996 232.8912 
L 330.380063 233.496 
L 331.907131 233.496 
L 332.212544 233.496 
L 333.434198 233.1936 
L 334.350439 233.1936 
L 335.266679 233.1936 
L 335.877506 232.8912 
L 337.09916 232.5888 
L 338.015401 232.2864 
L 338.931641 231.6816 
L 340.764122 230.7744 
" clip-path="url(#pf90484268c)" style="fill: none; stroke: #0000ff; stroke-width: 1.5; stroke-linecap: square"/>
   </g>
   <g id="line2d_12">
    <path d="M 191.722336 155.1744 
" clip-path="url(#pf90484268c)" style="fill: none; stroke: #0000ff; stroke-width: 1.5; stroke-linecap: square"/>
    <defs>
     <path id="mef1ec6b3e9" d="M 0 5 
C 1.326016 5 2.597899 4.473168 3.535534 3.535534 
C 4.473168 2.597899 5 1.326016 5 0 
C 5 -1.326016 4.473168 -2.597899 3.535534 -3.535534 
C 2.597899 -4.473168 1.326016 -5 0 -5 
C -1.326016 -5 -2.597899 -4.473168 -3.535534 -3.535534 
C -4.473168 -2.597899 -5 -1.326016 -5 0 
C -5 1.326016 -4.473168 2.597899 -3.535534 3.535534 
C -2.597899 4.473168 -1.326016 5 0 5 
z
" style="stroke: #0000ff"/>
    </defs>
    <g clip-path="url(#pf90484268c)">
     <use xlink:href="#mef1ec6b3e9" x="191.722336" y="155.1744" style="fill: #0000ff; stroke: #0000ff"/>
    </g>
   </g>
   <g id="line2d_13">
    <path d="M 340.764122 230.7744 
" clip-path="url(#pf90484268c)" style="fill: none; stroke: #0000ff; stroke-width: 1.5; stroke-linecap: square"/>
    <defs>
     <path id="m7d6ffab45b" d="M -5 5 
L 5 5 
L 5 -5 
L -5 -5 
z
" style="stroke: #0000ff; stroke-linejoin: miter"/>
    </defs>
    <g clip-path="url(#pf90484268c)">
     <use xlink:href="#m7d6ffab45b" x="340.764122" y="230.7744" style="fill: #0000ff; stroke: #0000ff; stroke-linejoin: miter"/>
    </g>
   </g>
   <g id="line2d_14">
    <path d="M 195.692712 247.4064 
L 195.081885 246.8016 
L 195.081885 245.592 
L 194.776471 245.2896 
L 194.776471 244.6848 
L 194.471058 244.08 
L 194.471058 243.4752 
L 194.165644 242.8704 
L 193.860231 242.568 
L 193.249404 241.3584 
L 192.638577 240.7536 
L 191.416923 237.4272 
L 191.416923 234.4032 
L 191.722336 231.984 
L 192.638577 230.1696 
L 194.471058 227.7504 
L 199.968501 222.3072 
L 203.328049 219.5856 
L 208.825492 215.9568 
L 213.406695 213.5376 
L 218.293311 211.7232 
L 232.036918 207.4896 
L 237.534361 206.28 
L 243.642631 205.0704 
L 249.140074 203.8608 
L 255.248343 202.9536 
L 271.740672 201.1392 
L 282.430145 200.5344 
L 289.760068 200.5344 
L 293.730444 200.8368 
L 301.060368 202.0464 
L 303.809089 202.6512 
L 310.8336 205.3728 
L 312.666081 206.28 
L 314.498562 206.8848 
L 318.468937 209.9088 
L 319.385177 211.1184 
L 319.690591 212.328 
L 319.690591 213.84 
L 320.606831 217.1664 
L 321.217658 217.7712 
L 321.217658 220.4928 
L 321.523072 221.4 
L 321.523072 222.3072 
L 322.439312 223.2144 
L 322.439312 224.424 
L 322.133899 226.5408 
L 321.217658 228.3552 
L 322.744726 229.2624 
L 323.660966 229.5648 
L 323.660966 230.7744 
L 324.88262 231.0768 
L 325.493447 231.6816 
L 326.104274 232.5888 
L 326.104274 233.496 
L 328.852996 233.496 
L 330.07465 233.7984 
L 333.128785 233.7984 
L 334.045025 234.1008 
L 335.266679 233.7984 
L 337.709987 233.7984 
L 338.931641 233.496 
L 339.847882 233.496 
L 340.458709 233.7984 
L 341.985776 233.7984 
L 343.512844 233.496 
L 345.039911 232.8912 
L 346.566979 232.8912 
L 346.566979 234.1008 
L 345.039911 235.3104 
L 344.429084 236.2176 
L 344.429084 236.52 
L 343.512844 237.4272 
L 341.374949 238.9392 
L 340.153295 239.8464 
L 339.237055 240.7536 
L 335.572093 243.4752 
L 333.739612 244.3824 
L 331.907131 245.592 
L 330.380063 246.8016 
L 328.547582 247.7088 
L 327.020515 248.9184 
L 325.493447 249.8256 
L 323.96638 250.4304 
L 320.606831 252.8496 
L 321.217658 253.152 
L 322.133899 253.152 
L 323.660966 252.8496 
L 328.852996 251.0352 
L 338.015401 247.4064 
L 341.374949 246.1968 
L 344.429084 245.2896 
L 346.872392 244.08 
L 348.704873 242.8704 
L 351.759008 240.4512 
L 352.980662 239.2416 
L 354.202316 237.7296 
L 355.729383 236.52 
L 356.951037 235.3104 
L 356.645624 235.008 
L 357.256451 234.4032 
L 357.256451 233.7984 
L 356.034797 234.1008 
L 355.729383 233.7984 
L 353.896902 234.1008 
L 351.453594 235.008 
L 348.704873 235.6128 
L 345.650738 236.52 
L 338.015401 238.9392 
L 334.655852 239.8464 
L 329.463823 241.9632 
L 325.188034 243.4752 
L 322.744726 244.6848 
L 311.139013 249.5232 
L 306.863224 251.3376 
L 303.503676 252.5472 
L 301.976608 253.4544 
L 298.61706 254.9664 
L 296.479165 256.176 
L 295.562925 257.0832 
L 294.646684 257.688 
L 294.952098 257.9904 
L 295.257511 257.9904 
L 296.479165 258.2928 
L 301.365781 258.2928 
L 302.587435 258.5952 
L 302.892849 259.2 
L 304.419916 258.8976 
L 305.030743 258.8976 
L 304.419916 261.3168 
L 305.030743 261.3168 
L 306.863224 260.4096 
L 308.084878 260.4096 
L 309.917359 259.8048 
L 311.139013 259.2 
L 312.055254 258.5952 
L 313.887735 257.9904 
L 314.803975 257.9904 
L 315.414802 258.2928 
L 316.636456 257.9904 
L 318.468937 257.3856 
L 319.996004 257.0832 
L 328.547582 254.3616 
L 335.572093 252.5472 
L 337.709987 252.5472 
L 339.237055 253.4544 
L 343.512844 252.8496 
L 345.039911 253.4544 
L 346.872392 253.7568 
L 348.39946 254.3616 
L 349.3157 255.2688 
L 350.842767 255.8736 
L 352.064421 256.4784 
L 354.202316 256.176 
L 354.202316 256.176 
" clip-path="url(#pf90484268c)" style="fill: none; stroke: #00fa9a; stroke-width: 1.5; stroke-linecap: square"/>
   </g>
   <g id="line2d_15">
    <path d="M 195.692712 247.4064 
" clip-path="url(#pf90484268c)" style="fill: none; stroke: #00fa9a; stroke-width: 1.5; stroke-linecap: square"/>
    <defs>
     <path id="m34337e83d9" d="M 0 5 
C 1.326016 5 2.597899 4.473168 3.535534 3.535534 
C 4.473168 2.597899 5 1.326016 5 0 
C 5 -1.326016 4.473168 -2.597899 3.535534 -3.535534 
C 2.597899 -4.473168 1.326016 -5 0 -5 
C -1.326016 -5 -2.597899 -4.473168 -3.535534 -3.535534 
C -4.473168 -2.597899 -5 -1.326016 -5 0 
C -5 1.326016 -4.473168 2.597899 -3.535534 3.535534 
C -2.597899 4.473168 -1.326016 5 0 5 
z
" style="stroke: #00fa9a"/>
    </defs>
    <g clip-path="url(#pf90484268c)">
     <use xlink:href="#m34337e83d9" x="195.692712" y="247.4064" style="fill: #00fa9a; stroke: #00fa9a"/>
    </g>
   </g>
   <g id="line2d_16">
    <path d="M 354.202316 256.176 
" clip-path="url(#pf90484268c)" style="fill: none; stroke: #00fa9a; stroke-width: 1.5; stroke-linecap: square"/>
    <defs>
     <path id="m8647dcf096" d="M -5 5 
L 5 5 
L 5 -5 
L -5 -5 
z
" style="stroke: #00fa9a; stroke-linejoin: miter"/>
    </defs>
    <g clip-path="url(#pf90484268c)">
     <use xlink:href="#m8647dcf096" x="354.202316" y="256.176" style="fill: #00fa9a; stroke: #00fa9a; stroke-linejoin: miter"/>
    </g>
   </g>
   <g id="line2d_17">
    <path d="M 200.884741 229.2624 
L 199.05226 229.2624 
L 198.13602 229.5648 
L 197.525193 229.5648 
L 196.608952 229.8672 
L 194.776471 229.8672 
L 194.165644 230.1696 
L 193.860231 230.1696 
L 193.860231 229.8672 
L 193.554817 229.8672 
L 193.860231 229.8672 
L 194.165644 229.5648 
L 194.776471 229.5648 
L 195.387298 229.2624 
L 195.998125 229.2624 
L 196.914366 228.96 
L 197.830606 228.96 
L 199.663087 228.6576 
L 202.106395 228.0528 
L 205.16053 227.448 
L 208.214665 227.1456 
L 221.652859 224.1216 
L 227.150302 223.2144 
L 232.647745 222.0048 
L 238.756015 220.7952 
L 245.475112 218.9808 
L 258.913305 215.9568 
L 265.632402 214.7472 
L 272.351499 213.2352 
L 315.109389 205.9776 
L 323.050139 205.3728 
L 325.798861 205.3728 
L 328.547582 205.6752 
L 331.296304 205.6752 
L 334.045025 206.28 
L 334.655852 206.8848 
L 335.266679 206.8848 
L 335.877506 207.1872 
L 335.572093 207.792 
L 334.655852 208.6992 
L 333.739612 209.9088 
L 333.128785 210.5136 
L 331.907131 211.4208 
L 330.380063 213.2352 
L 329.158409 214.4448 
L 329.158409 214.7472 
L 330.685477 214.1424 
L 326.715101 216.5616 
L 320.912245 220.4928 
L 317.552696 222.0048 
L 314.498562 224.424 
L 309.611946 227.7504 
L 304.72533 231.3792 
L 301.976608 232.8912 
L 299.5333 234.4032 
L 297.395406 236.2176 
L 295.257511 237.7296 
L 292.814203 239.8464 
L 290.981722 241.6608 
L 288.233001 243.7776 
L 286.705933 246.4992 
L 285.484279 248.9184 
L 284.873452 249.8256 
L 284.568039 251.0352 
L 282.430145 254.664 
L 282.430145 255.2688 
L 283.040972 255.2688 
L 283.346385 254.9664 
L 284.262626 255.2688 
L 284.873452 256.176 
L 284.873452 257.3856 
L 284.262626 258.2928 
L 283.346385 259.2 
L 281.819318 261.3168 
L 279.681423 263.4336 
L 277.848942 264.9456 
L 275.405634 267.3648 
L 274.489394 268.5744 
L 270.824432 271.5984 
L 269.602778 273.4128 
L 269.602778 274.0176 
L 268.991951 275.2272 
L 268.991951 275.832 
L 268.686537 277.344 
L 268.991951 277.9488 
L 268.381124 279.4608 
L 268.381124 280.6704 
L 268.991951 281.2752 
L 269.908191 281.88 
L 270.213605 282.7872 
L 271.129845 282.7872 
L 271.435259 283.0896 
L 272.962326 282.7872 
L 272.656913 282.1824 
L 279.070596 275.832 
L 282.735558 271.5984 
L 284.873452 269.4816 
L 286.705933 267.3648 
L 290.065482 262.8288 
L 292.203376 260.712 
L 295.257511 256.7808 
L 297.395406 254.3616 
L 299.5333 252.5472 
L 300.144127 251.3376 
L 301.060368 250.7328 
L 303.809089 248.0112 
L 306.252397 245.8944 
L 309.001119 242.568 
L 311.139013 239.2416 
L 312.666081 237.1248 
L 312.971494 235.6128 
L 314.803975 233.1936 
L 315.414802 231.3792 
L 315.109389 230.472 
L 316.331043 229.2624 
L 318.468937 226.8432 
L 319.385177 225.6336 
L 320.301418 224.7264 
L 320.606831 223.8192 
L 320.606831 223.8192 
L 321.217658 223.5168 
L 321.523072 223.5168 
L 321.828485 223.8192 
L 323.050139 223.5168 
L 322.439312 225.6336 
L 322.744726 226.5408 
L 322.744726 228.0528 
L 322.744726 227.448 
L 322.439312 226.8432 
L 322.133899 225.936 
L 321.523072 225.0288 
L 320.606831 224.1216 
L 318.163523 222.3072 
L 315.109389 221.0976 
L 308.084878 218.6784 
L 306.252397 217.7712 
L 304.72533 217.1664 
L 302.892849 216.2592 
L 301.671195 215.352 
L 298.61706 213.84 
L 297.700819 212.6304 
L 297.395406 211.4208 
L 297.700819 209.9088 
L 299.227887 206.8848 
L 300.754954 205.3728 
L 304.72533 202.6512 
L 307.168638 201.4416 
L 309.917359 200.5344 
L 316.636456 198.72 
L 320.301418 198.1152 
L 323.96638 197.8128 
L 327.936755 197.8128 
L 331.907131 198.1152 
L 335.572093 198.72 
L 338.931641 200.232 
L 341.680363 201.744 
L 345.956152 205.3728 
L 348.704873 209.304 
L 349.010286 211.1184 
L 348.704873 212.9328 
L 347.177806 215.0496 
L 344.734498 217.1664 
L 341.374949 219.2832 
L 337.404574 221.4 
L 332.823371 223.2144 
L 327.936755 225.3312 
L 319.690591 228.3552 
L 314.803975 230.472 
L 309.917359 232.2864 
L 304.419916 234.7056 
L 299.5333 237.4272 
L 294.341271 240.1488 
L 289.149241 243.1728 
L 283.957212 245.8944 
L 279.070596 247.7088 
L 274.794807 251.0352 
L 270.213605 253.152 
L 266.548643 255.5712 
L 262.883681 259.8048 
L 260.134959 262.224 
L 258.302478 264.6432 
L 257.080824 267.3648 
L 257.080824 272.2032 
L 257.386238 274.32 
L 259.218719 276.4368 
L 263.799921 280.0656 
L 267.464883 281.2752 
L 272.351499 281.88 
L 279.37601 283.6944 
L 286.705933 284.6016 
L 293.119617 285.5088 
L 299.227887 285.8112 
L 304.419916 284.904 
L 310.528186 283.9968 
L 317.247283 283.6944 
L 321.828485 282.4848 
L 326.409688 282.7872 
L 329.463823 281.5776 
L 335.266679 279.7632 
L 337.404574 278.856 
L 339.237055 277.9488 
L 340.764122 277.0416 
L 340.458709 276.1344 
L 340.764122 274.9248 
L 340.458709 273.4128 
L 339.542468 272.2032 
L 338.931641 269.1792 
L 338.931641 265.248 
L 338.626228 263.4336 
L 338.626228 258.5952 
L 340.153295 256.7808 
L 341.374949 254.664 
L 343.20743 252.5472 
L 344.429084 250.7328 
L 345.039911 249.5232 
L 345.956152 248.0112 
L 345.956152 248.0112 
" clip-path="url(#pf90484268c)" style="fill: none; stroke: #008000; stroke-width: 1.5; stroke-linecap: square"/>
   </g>
   <g id="line2d_18">
    <path d="M 200.884741 229.2624 
" clip-path="url(#pf90484268c)" style="fill: none; stroke: #008000; stroke-width: 1.5; stroke-linecap: square"/>
    <defs>
     <path id="m3df5e0fcb5" d="M 0 5 
C 1.326016 5 2.597899 4.473168 3.535534 3.535534 
C 4.473168 2.597899 5 1.326016 5 0 
C 5 -1.326016 4.473168 -2.597899 3.535534 -3.535534 
C 2.597899 -4.473168 1.326016 -5 0 -5 
C -1.326016 -5 -2.597899 -4.473168 -3.535534 -3.535534 
C -4.473168 -2.597899 -5 -1.326016 -5 0 
C -5 1.326016 -4.473168 2.597899 -3.535534 3.535534 
C -2.597899 4.473168 -1.326016 5 0 5 
z
" style="stroke: #008000"/>
    </defs>
    <g clip-path="url(#pf90484268c)">
     <use xlink:href="#m3df5e0fcb5" x="200.884741" y="229.2624" style="fill: #008000; stroke: #008000"/>
    </g>
   </g>
   <g id="line2d_19">
    <path d="M 345.956152 248.0112 
" clip-path="url(#pf90484268c)" style="fill: none; stroke: #008000; stroke-width: 1.5; stroke-linecap: square"/>
    <defs>
     <path id="m6235f2f4b1" d="M -5 5 
L 5 5 
L 5 -5 
L -5 -5 
z
" style="stroke: #008000; stroke-linejoin: miter"/>
    </defs>
    <g clip-path="url(#pf90484268c)">
     <use xlink:href="#m6235f2f4b1" x="345.956152" y="248.0112" style="fill: #008000; stroke: #008000; stroke-linejoin: miter"/>
    </g>
   </g>
   <g id="line2d_20">
    <path d="M 195.081885 235.6128 
L 195.081885 235.6128 
L 195.081885 235.6128 
L 195.081885 235.9152 
L 195.081885 235.9152 
L 195.081885 235.9152 
L 195.081885 236.2176 
L 195.387298 236.2176 
L 195.387298 236.2176 
L 195.692712 236.2176 
L 195.692712 236.52 
L 195.998125 236.52 
L 195.998125 236.52 
L 195.998125 236.8224 
L 196.303539 236.8224 
L 196.303539 237.1248 
L 195.998125 237.1248 
L 195.998125 237.4272 
L 195.692712 237.7296 
L 195.998125 237.7296 
L 195.998125 238.032 
L 195.998125 238.032 
L 195.998125 238.3344 
L 195.998125 238.3344 
L 195.998125 238.6368 
L 196.303539 238.6368 
L 196.608952 238.6368 
L 196.914366 238.6368 
L 197.219779 238.6368 
L 197.525193 238.6368 
L 197.830606 238.6368 
L 198.13602 238.6368 
L 198.441433 238.6368 
L 198.746847 238.6368 
L 199.05226 238.6368 
L 199.357674 238.3344 
L 199.968501 238.3344 
L 200.579328 238.032 
L 201.190155 237.7296 
L 201.800982 237.7296 
L 203.633463 237.1248 
L 205.16053 236.52 
L 207.298425 235.3104 
L 210.35256 234.1008 
L 214.017522 232.5888 
L 217.987897 230.472 
L 222.569099 228.3552 
L 227.761129 225.6336 
L 232.953158 222.912 
L 238.756015 219.5856 
L 244.864285 216.2592 
L 250.972555 212.6304 
L 257.386238 208.3968 
L 263.799921 204.1632 
L 269.908191 198.72 
L 276.321875 194.184 
L 282.430145 188.4384 
L 288.843828 182.3904 
L 295.562925 176.9472 
L 301.671195 169.6896 
L 307.474051 162.432 
L 313.582321 156.0816 
L 319.079764 149.7312 
L 324.88262 142.776 
L 330.380063 136.1232 
L 334.045025 129.4704 
L 336.488333 123.4224 
L 339.847882 117.3744 
L 342.596603 111.9312 
L 344.734498 107.0928 
L 345.956152 101.6496 
L 346.872392 97.1136 
L 346.261565 92.88 
L 345.039911 89.2512 
L 343.512844 86.2272 
L 341.680363 83.5056 
L 338.015401 81.3888 
L 334.961266 79.272 
L 332.517958 77.1552 
L 328.547582 76.5504 
L 324.271793 76.5504 
L 319.996004 76.8528 
L 315.109389 77.76 
L 310.8336 78.9696 
L 306.863224 80.1792 
L 303.198262 81.6912 
L 299.838714 83.5056 
L 296.784579 85.6224 
L 294.035857 87.7392 
L 291.592549 90.1584 
L 288.843828 92.88 
L 287.011347 95.2992 
L 284.873452 98.0208 
L 283.651799 101.0448 
" clip-path="url(#pf90484268c)" style="fill: none; stroke: #ffd700; stroke-width: 1.5; stroke-linecap: square"/>
   </g>
   <g id="line2d_21">
    <path d="M 195.081885 235.6128 
" clip-path="url(#pf90484268c)" style="fill: none; stroke: #ffd700; stroke-width: 1.5; stroke-linecap: square"/>
    <defs>
     <path id="m773d6555f3" d="M 0 5 
C 1.326016 5 2.597899 4.473168 3.535534 3.535534 
C 4.473168 2.597899 5 1.326016 5 0 
C 5 -1.326016 4.473168 -2.597899 3.535534 -3.535534 
C 2.597899 -4.473168 1.326016 -5 0 -5 
C -1.326016 -5 -2.597899 -4.473168 -3.535534 -3.535534 
C -4.473168 -2.597899 -5 -1.326016 -5 0 
C -5 1.326016 -4.473168 2.597899 -3.535534 3.535534 
C -2.597899 4.473168 -1.326016 5 0 5 
z
" style="stroke: #ffd700"/>
    </defs>
    <g clip-path="url(#pf90484268c)">
     <use xlink:href="#m773d6555f3" x="195.081885" y="235.6128" style="fill: #ffd700; stroke: #ffd700"/>
    </g>
   </g>
   <g id="line2d_22">
    <path d="M 283.651799 101.0448 
" clip-path="url(#pf90484268c)" style="fill: none; stroke: #ffd700; stroke-width: 1.5; stroke-linecap: square"/>
    <defs>
     <path id="m13842f349f" d="M -5 5 
L 5 5 
L 5 -5 
L -5 -5 
z
" style="stroke: #ffd700; stroke-linejoin: miter"/>
    </defs>
    <g clip-path="url(#pf90484268c)">
     <use xlink:href="#m13842f349f" x="283.651799" y="101.0448" style="fill: #ffd700; stroke: #ffd700; stroke-linejoin: miter"/>
    </g>
   </g>
   <g id="line2d_23">
    <path d="M 180.727451 246.8016 
L 181.032864 247.104 
L 180.422037 248.0112 
L 179.200383 248.9184 
L 178.284143 249.5232 
L 177.673316 249.5232 
L 177.367902 249.8256 
L 176.146248 250.4304 
L 175.230008 250.4304 
L 174.313767 250.7328 
L 173.397527 251.64 
L 172.7867 251.9424 
L 172.7867 252.5472 
L 173.397527 252.8496 
L 174.619181 253.4544 
L 176.451662 253.7568 
L 178.89497 253.7568 
L 181.949105 253.7568 
L 185.614067 253.4544 
L 189.279028 253.152 
L 193.249404 252.2448 
L 197.830606 251.3376 
L 202.411809 250.128 
L 206.993011 248.3136 
L 212.185041 246.1968 
L 216.766243 243.4752 
L 221.652859 239.544 
L 226.234061 234.4032 
L 230.815264 228.6576 
L 234.480226 221.4 
L 238.145188 212.9328 
L 241.199323 203.256 
L 243.031804 192.3696 
L 243.337217 181.1808 
L 243.337217 169.3872 
L 243.337217 155.7792 
L 243.642631 140.9616 
L 241.504736 127.9584 
L 238.145188 114.3504 
L 233.869399 100.7424 
L 228.677369 87.7392 
L 222.263686 75.6432 
L 215.239176 64.4544 
L 207.909252 53.8704 
L 203.938876 53.568 
L 194.776471 53.568 
L 180.422037 53.568 
L 174.924594 53.568 
L 158.737679 53.568 
L 147.43738 53.568 
L 135.831667 53.568 
L 124.531367 53.568 
L 113.841895 53.8704 
L 104.068663 55.08 
L 94.600845 56.8944 
L 86.354681 59.616 
L 79.024757 62.3376 
L 73.832727 65.664 
L 73.832727 68.688 
L 73.832727 72.3168 
L 73.832727 76.248 
L 73.832727 80.1792 
L 73.832727 84.4128 
L 73.832727 88.6464 
L 73.832727 92.88 
L 73.832727 97.1136 
L 74.443554 101.3472 
L 75.970622 105.2784 
L 78.108516 109.512 
L 79.33017 111.3264 
L 83.605959 117.072 
L 87.576335 120.096 
L 90.019643 121.0032 
L 93.379191 124.3296 
L 97.044153 127.3536 
L 97.044153 127.0512 
L 101.014528 129.4704 
L 106.511971 131.5872 
L 112.620241 132.4944 
L 116.89603 132.4944 
L 122.698887 131.5872 
L 126.363848 130.68 
L 129.723397 129.4704 
L 131.250464 128.5632 
L 134.304599 126.7488 
L 138.580388 123.7248 
L 139.802042 122.5152 
L 141.32911 120.3984 
L 142.550764 117.9792 
L 143.772418 114.048 
L 143.772418 111.3264 
L 143.467004 108.9072 
L 142.856177 106.1856 
L 141.634523 103.464 
L 140.718283 101.952 
L 137.969561 98.928 
L 136.13708 97.1136 
L 135.22084 96.2064 
L 132.777532 94.9968 
L 130.945051 94.0896 
L 128.807156 93.4848 
L 126.974675 93.4848 
" clip-path="url(#pf90484268c)" style="fill: none; stroke: #87cefa; stroke-width: 1.5; stroke-linecap: square"/>
   </g>
   <g id="line2d_24">
    <path d="M 180.727451 246.8016 
" clip-path="url(#pf90484268c)" style="fill: none; stroke: #87cefa; stroke-width: 1.5; stroke-linecap: square"/>
    <defs>
     <path id="m7f139d6efa" d="M 0 5 
C 1.326016 5 2.597899 4.473168 3.535534 3.535534 
C 4.473168 2.597899 5 1.326016 5 0 
C 5 -1.326016 4.473168 -2.597899 3.535534 -3.535534 
C 2.597899 -4.473168 1.326016 -5 0 -5 
C -1.326016 -5 -2.597899 -4.473168 -3.535534 -3.535534 
C -4.473168 -2.597899 -5 -1.326016 -5 0 
C -5 1.326016 -4.473168 2.597899 -3.535534 3.535534 
C -2.597899 4.473168 -1.326016 5 0 5 
z
" style="stroke: #87cefa"/>
    </defs>
    <g clip-path="url(#pf90484268c)">
     <use xlink:href="#m7f139d6efa" x="180.727451" y="246.8016" style="fill: #87cefa; stroke: #87cefa"/>
    </g>
   </g>
   <g id="line2d_25">
    <path d="M 126.974675 93.4848 
" clip-path="url(#pf90484268c)" style="fill: none; stroke: #87cefa; stroke-width: 1.5; stroke-linecap: square"/>
    <defs>
     <path id="m78ab1a2cdd" d="M -5 5 
L 5 5 
L 5 -5 
L -5 -5 
z
" style="stroke: #87cefa; stroke-linejoin: miter"/>
    </defs>
    <g clip-path="url(#pf90484268c)">
     <use xlink:href="#m78ab1a2cdd" x="126.974675" y="93.4848" style="fill: #87cefa; stroke: #87cefa; stroke-linejoin: miter"/>
    </g>
   </g>
   <g id="line2d_26">
    <path d="M 244.864285 219.5856 
L 247.307593 212.328 
L 248.529247 205.6752 
L 249.140074 202.3488 
L 249.140074 199.0224 
L 248.223833 196.9056 
L 247.613006 194.184 
L 243.642631 190.8576 
L 240.893909 186.9264 
L 239.977669 179.3664 
L 236.923534 176.9472 
L 236.312707 175.4352 
L 236.312707 173.6208 
L 236.61812 172.1088 
L 237.534361 170.2944 
L 239.672255 168.1776 
L 242.115563 166.3632 
L 243.642631 166.3632 
L 245.475112 166.6656 
L 245.780525 168.48 
L 247.002179 170.5968 
L 249.445487 172.4112 
L 253.110449 174.528 
L 256.775411 177.2496 
L 261.662027 180.2736 
L 272.351499 187.5312 
L 284.568039 194.4864 
L 290.065482 198.72 
L 295.562925 202.6512 
L 301.365781 206.28 
L 306.557811 209.304 
L 316.025629 215.0496 
L 319.690591 217.1664 
L 328.242169 221.4 
L 330.685477 222.3072 
L 333.128785 222.6096 
L 336.488333 223.5168 
L 338.015401 224.1216 
L 339.542468 224.424 
L 340.764122 224.424 
L 341.680363 224.7264 
L 342.29119 224.7264 
L 342.29119 225.3312 
L 342.596603 225.936 
L 341.985776 226.5408 
L 341.069536 227.1456 
L 340.458709 227.7504 
L 339.542468 228.3552 
L 338.931641 228.96 
L 337.09916 229.8672 
L 336.18292 229.8672 
L 334.350439 230.472 
L 333.739612 230.472 
L 332.212544 231.0768 
L 329.158409 232.8912 
L 326.715101 234.7056 
L 326.104274 235.6128 
L 325.493447 236.8224 
L 324.88262 237.1248 
L 325.188034 236.8224 
L 325.188034 236.2176 
L 325.798861 236.8224 
L 325.188034 237.1248 
L 323.050139 237.7296 
L 319.690591 239.544 
L 310.8336 244.6848 
L 301.671195 249.5232 
L 300.754954 250.128 
L 300.754954 251.9424 
L 300.144127 254.3616 
L 300.144127 254.9664 
L 299.5333 256.176 
L 299.5333 256.176 
L 299.5333 256.4784 
L 300.144127 256.7808 
L 301.365781 256.7808 
L 303.503676 257.3856 
L 307.779465 256.7808 
L 316.025629 256.7808 
L 319.079764 257.3856 
L 321.523072 257.688 
L 326.715101 258.8976 
L 328.547582 260.4096 
L 334.045025 263.1312 
L 337.404574 265.248 
L 339.237055 266.1552 
L 340.764122 266.76 
L 345.650738 268.272 
L 346.872392 268.5744 
L 349.926527 268.5744 
L 349.3157 269.1792 
L 349.621113 269.1792 
L 350.842767 268.5744 
L 352.369835 267.9696 
L 355.118556 266.1552 
L 356.034797 264.0384 
L 356.951037 263.1312 
L 359.699759 259.8048 
L 359.699759 259.8048 
" clip-path="url(#pf90484268c)" style="fill: none; stroke: #ff69b4; stroke-width: 1.5; stroke-linecap: square"/>
   </g>
   <g id="line2d_27">
    <path d="M 244.864285 219.5856 
" clip-path="url(#pf90484268c)" style="fill: none; stroke: #ff69b4; stroke-width: 1.5; stroke-linecap: square"/>
    <defs>
     <path id="md0880b1b8d" d="M 0 5 
C 1.326016 5 2.597899 4.473168 3.535534 3.535534 
C 4.473168 2.597899 5 1.326016 5 0 
C 5 -1.326016 4.473168 -2.597899 3.535534 -3.535534 
C 2.597899 -4.473168 1.326016 -5 0 -5 
C -1.326016 -5 -2.597899 -4.473168 -3.535534 -3.535534 
C -4.473168 -2.597899 -5 -1.326016 -5 0 
C -5 1.326016 -4.473168 2.597899 -3.535534 3.535534 
C -2.597899 4.473168 -1.326016 5 0 5 
z
" style="stroke: #ff69b4"/>
    </defs>
    <g clip-path="url(#pf90484268c)">
     <use xlink:href="#md0880b1b8d" x="244.864285" y="219.5856" style="fill: #ff69b4; stroke: #ff69b4"/>
    </g>
   </g>
   <g id="line2d_28">
    <path d="M 359.699759 259.8048 
" clip-path="url(#pf90484268c)" style="fill: none; stroke: #ff69b4; stroke-width: 1.5; stroke-linecap: square"/>
    <defs>
     <path id="m052280d166" d="M -5 5 
L 5 5 
L 5 -5 
L -5 -5 
z
" style="stroke: #ff69b4; stroke-linejoin: miter"/>
    </defs>
    <g clip-path="url(#pf90484268c)">
     <use xlink:href="#m052280d166" x="359.699759" y="259.8048" style="fill: #ff69b4; stroke: #ff69b4; stroke-linejoin: miter"/>
    </g>
   </g>
   <g id="line2d_29">
    <path d="M 259.218719 254.9664 
L 257.691651 254.664 
L 256.469997 254.664 
L 254.637516 254.664 
L 253.110449 254.9664 
L 251.583382 254.9664 
L 250.361728 254.9664 
L 248.83466 254.9664 
L 247.307593 255.2688 
L 246.085939 255.2688 
L 245.169698 255.2688 
L 244.253458 254.9664 
L 243.337217 255.2688 
L 243.031804 254.9664 
L 242.72639 254.9664 
L 242.72639 254.664 
L 242.72639 254.664 
L 242.72639 254.3616 
L 243.337217 254.3616 
L 243.642631 254.0592 
L 244.253458 254.0592 
L 244.864285 254.0592 
L 245.780525 254.0592 
L 247.002179 254.0592 
L 248.223833 254.3616 
L 249.445487 254.664 
L 250.667141 254.9664 
L 251.888795 254.9664 
L 253.415862 255.2688 
L 255.553757 255.2688 
L 257.997065 255.2688 
L 262.272854 254.3616 
L 267.464883 252.5472 
L 273.878567 250.128 
L 281.208491 246.8016 
L 289.760068 242.568 
L 298.61706 238.032 
L 308.084878 233.1936 
L 317.552696 228.0528 
L 326.715101 222.3072 
L 335.572093 216.2592 
L 343.818257 209.6064 
L 351.759008 203.256 
L 358.783518 195.9984 
L 365.197202 189.3456 
L 370.694645 181.7856 
L 375.886674 175.7376 
L 379.85705 169.992 
L 383.216598 164.8512 
L 386.88156 159.7104 
L 390.241108 154.872 
L 392.98983 150.6384 
L 395.433138 147.0096 
L 397.265619 143.3808 
L 397.876446 140.3568 
L 397.876446 137.6352 
L 398.487273 134.6112 
L 396.654792 133.4016 
L 389.019454 135.8208 
L 378.940809 140.3568 
L 370.694645 143.9856 
L 365.808029 145.8 
L 363.975548 146.1024 
L 363.670134 145.1952 
L 363.670134 144.5904 
L 363.364721 144.288 
L 362.143067 144.8928 
L 360.310586 145.8 
L 358.783518 146.7072 
L 357.561864 147.312 
L 356.34021 147.9168 
L 355.42397 148.5216 
L 354.202316 148.824 
L 353.591489 148.824 
L 352.675248 148.824 
L 352.369835 148.824 
L 352.064421 148.5216 
L 352.064421 147.9168 
L 352.675248 146.7072 
L 353.591489 144.5904 
L 354.507729 142.4736 
L 355.118556 141.5664 
L 355.729383 139.752 
L 358.478105 137.3328 
" clip-path="url(#pf90484268c)" style="fill: none; stroke: #00ffff; stroke-width: 1.5; stroke-linecap: square"/>
   </g>
   <g id="line2d_30">
    <path d="M 259.218719 254.9664 
" clip-path="url(#pf90484268c)" style="fill: none; stroke: #00ffff; stroke-width: 1.5; stroke-linecap: square"/>
    <defs>
     <path id="m8018444463" d="M 0 5 
C 1.326016 5 2.597899 4.473168 3.535534 3.535534 
C 4.473168 2.597899 5 1.326016 5 0 
C 5 -1.326016 4.473168 -2.597899 3.535534 -3.535534 
C 2.597899 -4.473168 1.326016 -5 0 -5 
C -1.326016 -5 -2.597899 -4.473168 -3.535534 -3.535534 
C -4.473168 -2.597899 -5 -1.326016 -5 0 
C -5 1.326016 -4.473168 2.597899 -3.535534 3.535534 
C -2.597899 4.473168 -1.326016 5 0 5 
z
" style="stroke: #00ffff"/>
    </defs>
    <g clip-path="url(#pf90484268c)">
     <use xlink:href="#m8018444463" x="259.218719" y="254.9664" style="fill: #00ffff; stroke: #00ffff"/>
    </g>
   </g>
   <g id="line2d_31">
    <path d="M 358.478105 137.3328 
" clip-path="url(#pf90484268c)" style="fill: none; stroke: #00ffff; stroke-width: 1.5; stroke-linecap: square"/>
    <defs>
     <path id="m9cb3809b5f" d="M -5 5 
L 5 5 
L 5 -5 
L -5 -5 
z
" style="stroke: #00ffff; stroke-linejoin: miter"/>
    </defs>
    <g clip-path="url(#pf90484268c)">
     <use xlink:href="#m9cb3809b5f" x="358.478105" y="137.3328" style="fill: #00ffff; stroke: #00ffff; stroke-linejoin: miter"/>
    </g>
   </g>
   <g id="line2d_32">
    <path d="M 123.309714 186.624 
L 128.196329 189.648 
L 128.196329 189.648 
L 136.13708 193.5792 
L 136.13708 193.5792 
L 139.191215 194.7888 
L 139.191215 194.7888 
L 144.994072 197.5104 
L 144.994072 197.5104 
L 148.35362 198.72 
L 156.294371 201.1392 
L 156.294371 201.1392 
L 159.959333 202.0464 
L 166.067603 204.1632 
L 166.067603 204.1632 
L 172.7867 205.3728 
L 172.7867 205.3728 
L 181.949105 207.792 
L 181.949105 207.792 
L 184.697826 208.3968 
L 184.697826 208.3968 
L 187.141134 208.6992 
L 187.141134 208.6992 
L 189.584442 209.6064 
L 189.584442 209.6064 
L 191.722336 209.9088 
L 195.998125 210.816 
L 195.998125 210.816 
L 197.830606 210.816 
L 199.357674 211.4208 
L 203.633463 212.6304 
L 207.298425 213.5376 
L 207.909252 213.84 
L 211.2688 215.0496 
L 211.2688 215.0496 
L 211.574214 215.352 
L 211.574214 216.2592 
L 211.574214 216.2592 
L 213.406695 217.1664 
L 213.406695 217.1664 
L 214.017522 217.1664 
L 214.017522 217.1664 
L 216.155416 217.7712 
L 217.987897 217.7712 
L 219.820378 218.376 
L 220.125791 218.6784 
L 221.347445 218.6784 
L 221.347445 218.6784 
L 221.958272 218.9808 
L 223.48534 219.5856 
L 225.012407 220.7952 
L 227.455715 222.912 
L 228.677369 224.424 
L 229.59361 226.5408 
L 230.815264 228.6576 
L 232.342331 232.5888 
L 235.396466 237.4272 
L 237.839774 239.544 
L 241.504736 241.6608 
L 244.253458 243.4752 
L 247.91842 244.3824 
L 251.583382 244.9872 
L 255.553757 245.2896 
L 259.829546 245.2896 
L 265.326989 244.6848 
L 269.908191 243.7776 
L 273.878567 242.8704 
L 279.986837 241.056 
L 286.40052 238.6368 
L 302.587435 231.0768 
L 304.72533 230.1696 
L 310.8336 227.448 
L 314.498562 226.2384 
L 324.88262 221.7024 
L 333.739612 217.7712 
L 338.931641 215.0496 
L 340.153295 214.4448 
L 341.985776 213.2352 
L 343.818257 212.328 
L 343.20743 212.328 
L 342.902017 212.0256 
L 341.985776 212.328 
L 340.458709 212.0256 
L 338.626228 212.6304 
L 334.655852 212.6304 
L 331.296304 213.5376 
L 328.852996 213.84 
L 327.325928 214.4448 
L 325.798861 214.4448 
L 323.96638 214.1424 
L 323.050139 214.1424 
L 322.744726 213.2352 
L 322.439312 212.9328 
L 322.133899 212.328 
L 320.606831 213.2352 
L 323.660966 209.9088 
L 324.88262 208.0944 
L 326.409688 206.5824 
L 326.715101 206.5824 
L 327.020515 206.28 
L 325.188034 208.3968 
L 321.828485 211.1184 
L 320.301418 212.0256 
L 318.77435 213.5376 
L 319.079764 213.84 
L 320.606831 212.9328 
L 322.744726 212.328 
L 323.660966 212.328 
L 324.88262 211.7232 
L 327.020515 210.816 
L 327.020515 211.1184 
L 327.020515 211.1184 
L 327.631342 211.4208 
L 328.242169 211.4208 
L 330.07465 210.816 
L 330.99089 210.816 
L 331.907131 210.5136 
L 333.128785 209.9088 
L 335.572093 209.0016 
L 337.09916 208.6992 
L 339.542468 207.4896 
L 342.902017 206.5824 
L 345.345325 206.5824 
L 347.177806 205.3728 
L 347.483219 204.4656 
L 347.177806 204.1632 
L 346.261565 204.768 
L 345.956152 204.768 
L 345.956152 205.0704 
L 345.956152 204.768 
L 345.650738 205.0704 
L 345.650738 205.0704 
L 345.650738 204.768 
L 345.650738 204.768 
L 345.345325 205.0704 
L 345.650738 204.768 
L 345.345325 204.768 
L 345.345325 204.768 
L 344.734498 205.3728 
L 344.123671 205.6752 
L 343.818257 205.6752 
L 343.20743 205.9776 
L 342.902017 205.9776 
L 342.596603 206.28 
L 341.985776 206.28 
L 341.985776 206.28 
L 341.374949 206.5824 
L 341.069536 206.8848 
L 340.458709 207.1872 
L 337.09916 209.304 
L 335.877506 210.5136 
L 334.961266 211.1184 
L 333.128785 212.9328 
L 330.380063 217.1664 
L 329.769236 219.5856 
L 329.463823 220.1904 
L 328.852996 222.0048 
L 328.242169 224.7264 
L 326.104274 226.5408 
L 324.88262 227.7504 
L 323.050139 230.7744 
L 321.217658 233.1936 
L 320.301418 235.3104 
L 314.193148 244.9872 
L 310.222773 250.7328 
L 309.001119 253.152 
L 307.168638 258.5952 
L 306.863224 261.6192 
L 306.863224 264.3408 
L 307.168638 267.3648 
L 307.779465 269.784 
L 307.474051 272.5056 
L 307.474051 274.6224 
L 306.863224 276.4368 
L 303.809089 280.0656 
L 302.892849 280.6704 
L 302.282022 281.5776 
L 302.587435 282.1824 
L 305.030743 282.7872 
L 308.084878 282.4848 
L 307.474051 282.1824 
L 300.449541 287.0208 
L 297.395406 289.44 
L 300.144127 287.3232 
L 304.419916 284.904 
L 309.001119 282.4848 
L 313.276908 280.9728 
L 325.798861 277.344 
L 336.488333 272.2032 
L 349.3157 264.9456 
L 351.759008 263.4336 
L 353.896902 262.5264 
L 356.034797 261.0144 
L 358.172691 260.1072 
L 360.005172 258.5952 
L 361.837653 257.9904 
L 362.44848 256.7808 
L 363.364721 256.176 
L 363.364721 256.176 
" clip-path="url(#pf90484268c)" style="fill: none; stroke: #ff00ff; stroke-width: 1.5; stroke-linecap: square"/>
   </g>
   <g id="line2d_33">
    <path d="M 123.309714 186.624 
" clip-path="url(#pf90484268c)" style="fill: none; stroke: #ff00ff; stroke-width: 1.5; stroke-linecap: square"/>
    <defs>
     <path id="m63a1fb3949" d="M 0 5 
C 1.326016 5 2.597899 4.473168 3.535534 3.535534 
C 4.473168 2.597899 5 1.326016 5 0 
C 5 -1.326016 4.473168 -2.597899 3.535534 -3.535534 
C 2.597899 -4.473168 1.326016 -5 0 -5 
C -1.326016 -5 -2.597899 -4.473168 -3.535534 -3.535534 
C -4.473168 -2.597899 -5 -1.326016 -5 0 
C -5 1.326016 -4.473168 2.597899 -3.535534 3.535534 
C -2.597899 4.473168 -1.326016 5 0 5 
z
" style="stroke: #ff00ff"/>
    </defs>
    <g clip-path="url(#pf90484268c)">
     <use xlink:href="#m63a1fb3949" x="123.309714" y="186.624" style="fill: #ff00ff; stroke: #ff00ff"/>
    </g>
   </g>
   <g id="line2d_34">
    <path d="M 363.364721 256.176 
" clip-path="url(#pf90484268c)" style="fill: none; stroke: #ff00ff; stroke-width: 1.5; stroke-linecap: square"/>
    <defs>
     <path id="mf368568931" d="M -5 5 
L 5 5 
L 5 -5 
L -5 -5 
z
" style="stroke: #ff00ff; stroke-linejoin: miter"/>
    </defs>
    <g clip-path="url(#pf90484268c)">
     <use xlink:href="#mf368568931" x="363.364721" y="256.176" style="fill: #ff00ff; stroke: #ff00ff; stroke-linejoin: miter"/>
    </g>
   </g>
   <g id="line2d_35">
    <path d="M 249.750901 229.8672 
L 249.750901 230.1696 
L 249.445487 230.472 
L 249.140074 230.472 
L 248.529247 231.0768 
L 248.529247 231.0768 
L 248.83466 231.3792 
L 248.83466 231.3792 
L 248.83466 233.1936 
L 249.140074 233.7984 
L 249.140074 234.1008 
L 249.445487 234.7056 
L 249.750901 235.008 
L 249.750901 235.3104 
L 250.361728 235.6128 
L 250.667141 235.9152 
L 250.972555 235.9152 
L 250.972555 236.2176 
L 253.721276 236.2176 
L 253.721276 236.2176 
L 253.721276 236.52 
L 254.026689 236.2176 
L 254.026689 236.2176 
L 254.026689 236.52 
L 254.026689 236.52 
L 253.110449 236.52 
L 252.805035 236.2176 
L 252.805035 236.2176 
L 252.805035 235.9152 
L 252.499622 235.6128 
L 252.499622 235.3104 
L 252.805035 234.7056 
L 255.248343 231.0768 
L 255.85917 228.96 
L 255.553757 227.1456 
L 254.94293 226.2384 
L 254.026689 225.3312 
L 249.140074 223.8192 
L 246.391352 223.8192 
L 243.031804 223.5168 
L 225.317821 223.5168 
L 219.820378 222.912 
L 202.106395 222.0048 
L 196.914366 220.4928 
L 191.722336 219.5856 
L 186.224894 218.9808 
L 180.727451 217.7712 
L 175.230008 217.7712 
L 172.175873 217.4688 
L 162.708054 218.376 
L 159.653919 218.376 
L 153.851063 218.9808 
L 149.880688 218.6784 
L 141.023696 219.888 
L 137.053321 220.7952 
L 130.334224 222.0048 
L 127.280089 222.3072 
L 119.950165 223.8192 
L 118.117684 223.8192 
L 118.117684 223.8192 
L 116.285203 224.424 
L 115.063549 225.3312 
L 114.147309 226.2384 
L 114.147309 227.448 
L 114.452722 228.3552 
L 115.368963 229.5648 
L 117.201444 230.7744 
L 119.339338 231.6816 
L 123.615127 231.6816 
L 127.585502 232.2864 
L 131.861291 233.1936 
L 134.610013 234.4032 
L 138.885802 235.3104 
L 142.24535 236.2176 
L 146.826553 236.52 
L 156.905198 238.3344 
L 166.373016 239.2416 
L 168.816324 239.2416 
L 170.037978 239.544 
L 174.008354 239.544 
L 175.840835 239.2416 
L 176.757075 239.2416 
L 179.81121 238.3344 
L 180.116624 237.7296 
L 180.116624 237.4272 
L 179.81121 236.8224 
L 178.89497 236.2176 
L 177.673316 235.9152 
L 176.146248 235.008 
L 174.619181 234.4032 
L 164.235122 231.3792 
L 161.180987 230.472 
L 146.826553 226.8432 
L 143.467004 225.936 
L 130.334224 221.7024 
L 126.058435 219.2832 
L 123.309714 217.1664 
L 122.08806 216.5616 
L 120.866406 215.352 
L 123.615127 213.84 
L 124.225954 213.5376 
L 124.836781 213.5376 
L 125.753021 214.4448 
L 125.753021 215.0496 
L 124.836781 215.9568 
L 123.309714 217.1664 
L 122.08806 218.6784 
L 120.255579 221.4 
L 118.728511 224.1216 
L 118.423098 225.936 
L 118.117684 226.8432 
L 116.285203 234.7056 
L 116.285203 234.7056 
" clip-path="url(#pf90484268c)" style="fill: none; stroke: #d2691e; stroke-width: 1.5; stroke-linecap: square"/>
   </g>
   <g id="line2d_36">
    <path d="M 249.750901 229.8672 
" clip-path="url(#pf90484268c)" style="fill: none; stroke: #d2691e; stroke-width: 1.5; stroke-linecap: square"/>
    <defs>
     <path id="md0df34c919" d="M 0 5 
C 1.326016 5 2.597899 4.473168 3.535534 3.535534 
C 4.473168 2.597899 5 1.326016 5 0 
C 5 -1.326016 4.473168 -2.597899 3.535534 -3.535534 
C 2.597899 -4.473168 1.326016 -5 0 -5 
C -1.326016 -5 -2.597899 -4.473168 -3.535534 -3.535534 
C -4.473168 -2.597899 -5 -1.326016 -5 0 
C -5 1.326016 -4.473168 2.597899 -3.535534 3.535534 
C -2.597899 4.473168 -1.326016 5 0 5 
z
" style="stroke: #d2691e"/>
    </defs>
    <g clip-path="url(#pf90484268c)">
     <use xlink:href="#md0df34c919" x="249.750901" y="229.8672" style="fill: #d2691e; stroke: #d2691e"/>
    </g>
   </g>
   <g id="line2d_37">
    <path d="M 116.285203 234.7056 
" clip-path="url(#pf90484268c)" style="fill: none; stroke: #d2691e; stroke-width: 1.5; stroke-linecap: square"/>
    <defs>
     <path id="me827451e5b" d="M -5 5 
L 5 5 
L 5 -5 
L -5 -5 
z
" style="stroke: #d2691e; stroke-linejoin: miter"/>
    </defs>
    <g clip-path="url(#pf90484268c)">
     <use xlink:href="#me827451e5b" x="116.285203" y="234.7056" style="fill: #d2691e; stroke: #d2691e; stroke-linejoin: miter"/>
    </g>
   </g>
   <g id="line2d_38">
    <path d="M 236.923534 263.4336 
L 236.61812 263.4336 
L 236.61812 263.736 
L 236.312707 264.0384 
L 235.70188 264.3408 
L 235.396466 264.6432 
L 235.091053 264.6432 
L 234.785639 264.6432 
L 234.480226 264.9456 
L 234.174812 264.9456 
L 233.869399 264.9456 
L 233.258572 265.248 
L 232.953158 265.248 
L 232.647745 264.9456 
L 232.647745 264.9456 
L 232.342331 264.9456 
L 232.036918 264.9456 
L 232.036918 264.6432 
L 232.036918 264.3408 
L 232.036918 264.3408 
L 232.036918 264.0384 
L 232.036918 263.736 
L 231.731504 263.736 
L 231.731504 263.736 
L 231.731504 263.4336 
L 231.731504 263.4336 
L 231.731504 263.1312 
L 231.731504 262.8288 
L 231.731504 262.5264 
L 232.036918 262.224 
L 232.036918 261.6192 
L 232.342331 261.3168 
L 232.647745 260.712 
L 233.563985 260.1072 
L 234.480226 259.5024 
L 236.312707 258.5952 
L 238.756015 256.7808 
L 241.199323 255.2688 
L 243.642631 254.0592 
L 246.391352 252.5472 
L 249.140074 251.0352 
L 251.583382 249.5232 
L 254.332103 248.0112 
L 257.386238 246.1968 
L 260.134959 244.3824 
L 262.883681 242.2656 
L 265.937816 240.1488 
L 268.991951 237.4272 
L 272.046086 234.7056 
L 275.100221 231.984 
L 278.154356 228.96 
L 281.208491 226.2384 
L 284.262626 222.912 
L 287.011347 219.5856 
L 289.760068 216.2592 
L 291.897963 212.9328 
L 293.42503 209.6064 
L 294.646684 207.1872 
L 295.868338 204.768 
L 297.089992 202.3488 
L 298.311646 199.0224 
L 299.227887 196.6032 
L 299.838714 193.8816 
L 300.144127 192.0672 
L 300.754954 189.648 
L 301.060368 187.5312 
L 301.365781 185.4144 
L 301.060368 183.6 
L 300.754954 181.7856 
L 300.144127 179.9712 
L 299.5333 178.4592 
L 298.61706 177.2496 
L 297.395406 175.7376 
L 296.173752 174.528 
L 294.952098 173.016 
L 294.646684 172.4112 
L 294.035857 169.6896 
L 292.50879 168.48 
L 291.287136 167.2704 
L 289.760068 166.3632 
L 288.843828 165.7584 
L 288.233001 165.456 
L 286.705933 164.2464 
L 285.484279 163.6416 
L 285.178866 163.3392 
L 284.568039 162.1296 
L 283.040972 161.5248 
L 281.819318 160.6176 
L 281.208491 160.0128 
" clip-path="url(#pf90484268c)" style="fill: none; stroke: #6495ed; stroke-width: 1.5; stroke-linecap: square"/>
   </g>
   <g id="line2d_39">
    <path d="M 236.923534 263.4336 
" clip-path="url(#pf90484268c)" style="fill: none; stroke: #6495ed; stroke-width: 1.5; stroke-linecap: square"/>
    <defs>
     <path id="me8225f2a3d" d="M 0 5 
C 1.326016 5 2.597899 4.473168 3.535534 3.535534 
C 4.473168 2.597899 5 1.326016 5 0 
C 5 -1.326016 4.473168 -2.597899 3.535534 -3.535534 
C 2.597899 -4.473168 1.326016 -5 0 -5 
C -1.326016 -5 -2.597899 -4.473168 -3.535534 -3.535534 
C -4.473168 -2.597899 -5 -1.326016 -5 0 
C -5 1.326016 -4.473168 2.597899 -3.535534 3.535534 
C -2.597899 4.473168 -1.326016 5 0 5 
z
" style="stroke: #6495ed"/>
    </defs>
    <g clip-path="url(#pf90484268c)">
     <use xlink:href="#me8225f2a3d" x="236.923534" y="263.4336" style="fill: #6495ed; stroke: #6495ed"/>
    </g>
   </g>
   <g id="line2d_40">
    <path d="M 281.208491 160.0128 
" clip-path="url(#pf90484268c)" style="fill: none; stroke: #6495ed; stroke-width: 1.5; stroke-linecap: square"/>
    <defs>
     <path id="m906e4c00d5" d="M -5 5 
L 5 5 
L 5 -5 
L -5 -5 
z
" style="stroke: #6495ed; stroke-linejoin: miter"/>
    </defs>
    <g clip-path="url(#pf90484268c)">
     <use xlink:href="#m906e4c00d5" x="281.208491" y="160.0128" style="fill: #6495ed; stroke: #6495ed; stroke-linejoin: miter"/>
    </g>
   </g>
   <g id="patch_3">
    <path d="M 57.6 307.584 
L 57.6 41.472 
" style="fill: none; stroke: #000000; stroke-width: 0.8; stroke-linejoin: miter; stroke-linecap: square"/>
   </g>
   <g id="patch_4">
    <path d="M 57.6 307.584 
L 414.72 307.584 
" style="fill: none; stroke: #000000; stroke-width: 0.8; stroke-linejoin: miter; stroke-linecap: square"/>
   </g>
   <g id="legend_1">
    <g id="patch_5">
     <path d="M 282.164531 119.523563 
L 404.22 119.523563 
Q 407.22 119.523563 407.22 116.523563 
L 407.22 51.972 
Q 407.22 48.972 404.22 48.972 
L 282.164531 48.972 
Q 279.164531 48.972 279.164531 51.972 
L 279.164531 116.523563 
Q 279.164531 119.523563 282.164531 119.523563 
z
" style="fill: #ffffff; opacity: 0.8; stroke: #cccccc; stroke-linejoin: miter"/>
    </g>
    <g id="line2d_41">
     <path d="M 285.164531 61.119656 
L 300.164531 61.119656 
L 315.164531 61.119656 
" style="fill: none; stroke: #000000; stroke-width: 1.5; stroke-linecap: square"/>
    </g>
    <g id="text_7">
     <!-- Trajectory -->
     <g transform="translate(327.164531 66.369656)scale(0.15 -0.15)">
      <defs>
       <path id="DejaVuSans-54" d="M -19 4666 
L 3928 4666 
L 3928 4134 
L 2272 4134 
L 2272 0 
L 1638 0 
L 1638 4134 
L -19 4134 
L -19 4666 
z
" transform="scale(0.015625)"/>
       <path id="DejaVuSans-72" d="M 2631 2963 
Q 2534 3019 2420 3045 
Q 2306 3072 2169 3072 
Q 1681 3072 1420 2755 
Q 1159 2438 1159 1844 
L 1159 0 
L 581 0 
L 581 3500 
L 1159 3500 
L 1159 2956 
Q 1341 3275 1631 3429 
Q 1922 3584 2338 3584 
Q 2397 3584 2469 3576 
Q 2541 3569 2628 3553 
L 2631 2963 
z
" transform="scale(0.015625)"/>
       <path id="DejaVuSans-61" d="M 2194 1759 
Q 1497 1759 1228 1600 
Q 959 1441 959 1056 
Q 959 750 1161 570 
Q 1363 391 1709 391 
Q 2188 391 2477 730 
Q 2766 1069 2766 1631 
L 2766 1759 
L 2194 1759 
z
M 3341 1997 
L 3341 0 
L 2766 0 
L 2766 531 
Q 2569 213 2275 61 
Q 1981 -91 1556 -91 
Q 1019 -91 701 211 
Q 384 513 384 1019 
Q 384 1609 779 1909 
Q 1175 2209 1959 2209 
L 2766 2209 
L 2766 2266 
Q 2766 2663 2505 2880 
Q 2244 3097 1772 3097 
Q 1472 3097 1187 3025 
Q 903 2953 641 2809 
L 641 3341 
Q 956 3463 1253 3523 
Q 1550 3584 1831 3584 
Q 2591 3584 2966 3190 
Q 3341 2797 3341 1997 
z
" transform="scale(0.015625)"/>
       <path id="DejaVuSans-6a" d="M 603 3500 
L 1178 3500 
L 1178 -63 
Q 1178 -731 923 -1031 
Q 669 -1331 103 -1331 
L -116 -1331 
L -116 -844 
L 38 -844 
Q 366 -844 484 -692 
Q 603 -541 603 -63 
L 603 3500 
z
M 603 4863 
L 1178 4863 
L 1178 4134 
L 603 4134 
L 603 4863 
z
" transform="scale(0.015625)"/>
       <path id="DejaVuSans-65" d="M 3597 1894 
L 3597 1613 
L 953 1613 
Q 991 1019 1311 708 
Q 1631 397 2203 397 
Q 2534 397 2845 478 
Q 3156 559 3463 722 
L 3463 178 
Q 3153 47 2828 -22 
Q 2503 -91 2169 -91 
Q 1331 -91 842 396 
Q 353 884 353 1716 
Q 353 2575 817 3079 
Q 1281 3584 2069 3584 
Q 2775 3584 3186 3129 
Q 3597 2675 3597 1894 
z
M 3022 2063 
Q 3016 2534 2758 2815 
Q 2500 3097 2075 3097 
Q 1594 3097 1305 2825 
Q 1016 2553 972 2059 
L 3022 2063 
z
" transform="scale(0.015625)"/>
       <path id="DejaVuSans-63" d="M 3122 3366 
L 3122 2828 
Q 2878 2963 2633 3030 
Q 2388 3097 2138 3097 
Q 1578 3097 1268 2742 
Q 959 2388 959 1747 
Q 959 1106 1268 751 
Q 1578 397 2138 397 
Q 2388 397 2633 464 
Q 2878 531 3122 666 
L 3122 134 
Q 2881 22 2623 -34 
Q 2366 -91 2075 -91 
Q 1284 -91 818 406 
Q 353 903 353 1747 
Q 353 2603 823 3093 
Q 1294 3584 2113 3584 
Q 2378 3584 2631 3529 
Q 2884 3475 3122 3366 
z
" transform="scale(0.015625)"/>
       <path id="DejaVuSans-74" d="M 1172 4494 
L 1172 3500 
L 2356 3500 
L 2356 3053 
L 1172 3053 
L 1172 1153 
Q 1172 725 1289 603 
Q 1406 481 1766 481 
L 2356 481 
L 2356 0 
L 1766 0 
Q 1100 0 847 248 
Q 594 497 594 1153 
L 594 3053 
L 172 3053 
L 172 3500 
L 594 3500 
L 594 4494 
L 1172 4494 
z
" transform="scale(0.015625)"/>
       <path id="DejaVuSans-6f" d="M 1959 3097 
Q 1497 3097 1228 2736 
Q 959 2375 959 1747 
Q 959 1119 1226 758 
Q 1494 397 1959 397 
Q 2419 397 2687 759 
Q 2956 1122 2956 1747 
Q 2956 2369 2687 2733 
Q 2419 3097 1959 3097 
z
M 1959 3584 
Q 2709 3584 3137 3096 
Q 3566 2609 3566 1747 
Q 3566 888 3137 398 
Q 2709 -91 1959 -91 
Q 1206 -91 779 398 
Q 353 888 353 1747 
Q 353 2609 779 3096 
Q 1206 3584 1959 3584 
z
" transform="scale(0.015625)"/>
       <path id="DejaVuSans-79" d="M 2059 -325 
Q 1816 -950 1584 -1140 
Q 1353 -1331 966 -1331 
L 506 -1331 
L 506 -850 
L 844 -850 
Q 1081 -850 1212 -737 
Q 1344 -625 1503 -206 
L 1606 56 
L 191 3500 
L 800 3500 
L 1894 763 
L 2988 3500 
L 3597 3500 
L 2059 -325 
z
" transform="scale(0.015625)"/>
      </defs>
      <use xlink:href="#DejaVuSans-54"/>
      <use xlink:href="#DejaVuSans-72" x="46.333984"/>
      <use xlink:href="#DejaVuSans-61" x="87.447266"/>
      <use xlink:href="#DejaVuSans-6a" x="148.726562"/>
      <use xlink:href="#DejaVuSans-65" x="176.509766"/>
      <use xlink:href="#DejaVuSans-63" x="238.033203"/>
      <use xlink:href="#DejaVuSans-74" x="293.013672"/>
      <use xlink:href="#DejaVuSans-6f" x="332.222656"/>
      <use xlink:href="#DejaVuSans-72" x="393.404297"/>
      <use xlink:href="#DejaVuSans-79" x="434.517578"/>
     </g>
    </g>
    <g id="line2d_42">
     <path d="M 285.164531 83.136844 
L 300.164531 83.136844 
L 315.164531 83.136844 
" style="fill: none; stroke: #000000; stroke-width: 1.5; stroke-linecap: square"/>
     <g>
      <use xlink:href="#m0f8e11f8e5" x="300.164531" y="83.136844" style="stroke: #000000"/>
     </g>
    </g>
    <g id="text_8">
     <!-- Start -->
     <g transform="translate(327.164531 88.386844)scale(0.15 -0.15)">
      <defs>
       <path id="DejaVuSans-53" d="M 3425 4513 
L 3425 3897 
Q 3066 4069 2747 4153 
Q 2428 4238 2131 4238 
Q 1616 4238 1336 4038 
Q 1056 3838 1056 3469 
Q 1056 3159 1242 3001 
Q 1428 2844 1947 2747 
L 2328 2669 
Q 3034 2534 3370 2195 
Q 3706 1856 3706 1288 
Q 3706 609 3251 259 
Q 2797 -91 1919 -91 
Q 1588 -91 1214 -16 
Q 841 59 441 206 
L 441 856 
Q 825 641 1194 531 
Q 1563 422 1919 422 
Q 2459 422 2753 634 
Q 3047 847 3047 1241 
Q 3047 1584 2836 1778 
Q 2625 1972 2144 2069 
L 1759 2144 
Q 1053 2284 737 2584 
Q 422 2884 422 3419 
Q 422 4038 858 4394 
Q 1294 4750 2059 4750 
Q 2388 4750 2728 4690 
Q 3069 4631 3425 4513 
z
" transform="scale(0.015625)"/>
      </defs>
      <use xlink:href="#DejaVuSans-53"/>
      <use xlink:href="#DejaVuSans-74" x="63.476562"/>
      <use xlink:href="#DejaVuSans-61" x="102.685547"/>
      <use xlink:href="#DejaVuSans-72" x="163.964844"/>
      <use xlink:href="#DejaVuSans-74" x="205.078125"/>
     </g>
    </g>
    <g id="line2d_43">
     <path d="M 285.164531 105.154031 
L 300.164531 105.154031 
L 315.164531 105.154031 
" style="fill: none; stroke: #000000; stroke-width: 1.5; stroke-linecap: square"/>
     <g>
      <use xlink:href="#m02a8cc36e8" x="300.164531" y="105.154031" style="stroke: #000000; stroke-linejoin: miter"/>
     </g>
    </g>
    <g id="text_9">
     <!-- End -->
     <g transform="translate(327.164531 110.404031)scale(0.15 -0.15)">
      <defs>
       <path id="DejaVuSans-45" d="M 628 4666 
L 3578 4666 
L 3578 4134 
L 1259 4134 
L 1259 2753 
L 3481 2753 
L 3481 2222 
L 1259 2222 
L 1259 531 
L 3634 531 
L 3634 0 
L 628 0 
L 628 4666 
z
" transform="scale(0.015625)"/>
       <path id="DejaVuSans-6e" d="M 3513 2113 
L 3513 0 
L 2938 0 
L 2938 2094 
Q 2938 2591 2744 2837 
Q 2550 3084 2163 3084 
Q 1697 3084 1428 2787 
Q 1159 2491 1159 1978 
L 1159 0 
L 581 0 
L 581 3500 
L 1159 3500 
L 1159 2956 
Q 1366 3272 1645 3428 
Q 1925 3584 2291 3584 
Q 2894 3584 3203 3211 
Q 3513 2838 3513 2113 
z
" transform="scale(0.015625)"/>
       <path id="DejaVuSans-64" d="M 2906 2969 
L 2906 4863 
L 3481 4863 
L 3481 0 
L 2906 0 
L 2906 525 
Q 2725 213 2448 61 
Q 2172 -91 1784 -91 
Q 1150 -91 751 415 
Q 353 922 353 1747 
Q 353 2572 751 3078 
Q 1150 3584 1784 3584 
Q 2172 3584 2448 3432 
Q 2725 3281 2906 2969 
z
M 947 1747 
Q 947 1113 1208 752 
Q 1469 391 1925 391 
Q 2381 391 2643 752 
Q 2906 1113 2906 1747 
Q 2906 2381 2643 2742 
Q 2381 3103 1925 3103 
Q 1469 3103 1208 2742 
Q 947 2381 947 1747 
z
" transform="scale(0.015625)"/>
      </defs>
      <use xlink:href="#DejaVuSans-45"/>
      <use xlink:href="#DejaVuSans-6e" x="63.183594"/>
      <use xlink:href="#DejaVuSans-64" x="126.5625"/>
     </g>
    </g>
   </g>
  </g>
 </g>
 <defs>
  <clipPath id="pf90484268c">
   <rect x="57.6" y="41.472" width="357.12" height="266.112"/>
  </clipPath>
 </defs>
</svg>
