<?xml version="1.0" encoding="utf-8" standalone="no"?>
<!DOCTYPE svg PUBLIC "-//W3C//DTD SVG 1.1//EN"
  "http://www.w3.org/Graphics/SVG/1.1/DTD/svg11.dtd">
<svg xmlns:xlink="http://www.w3.org/1999/xlink" width="460.8pt" height="345.6pt" viewBox="0 0 460.8 345.6" xmlns="http://www.w3.org/2000/svg" version="1.1">
 <metadata>
  <rdf:RDF xmlns:dc="http://purl.org/dc/elements/1.1/" xmlns:cc="http://creativecommons.org/ns#" xmlns:rdf="http://www.w3.org/1999/02/22-rdf-syntax-ns#">
   <cc:Work>
    <dc:type rdf:resource="http://purl.org/dc/dcmitype/StillImage"/>
    <dc:date>2024-02-14T14:13:09.575175</dc:date>
    <dc:format>image/svg+xml</dc:format>
    <dc:creator>
     <cc:Agent>
      <dc:title>Matplotlib v3.5.0, https://matplotlib.org/</dc:title>
     </cc:Agent>
    </dc:creator>
   </cc:Work>
  </rdf:RDF>
 </metadata>
 <defs>
  <style type="text/css">*{stroke-linejoin: round; stroke-linecap: butt}</style>
 </defs>
 <g id="figure_1">
  <g id="patch_1">
   <path d="M 0 345.6 
L 460.8 345.6 
L 460.8 0 
L 0 0 
z
" style="fill: #ffffff"/>
  </g>
  <g id="axes_1">
   <g id="patch_2">
    <path d="M 57.6 307.584 
L 414.72 307.584 
L 414.72 41.472 
L 57.6 41.472 
z
" style="fill: #ffffff"/>
   </g>
   <g id="matplotlib.axis_1">
    <g id="xtick_1">
     <g id="line2d_1">
      <defs>
       <path id="m716c324ef9" d="M 0 0 
L 0 3.5 
" style="stroke: #000000; stroke-width: 0.8"/>
      </defs>
      <g>
       <use xlink:href="#m716c324ef9" x="73.832727" y="307.584" style="stroke: #000000; stroke-width: 0.8"/>
      </g>
     </g>
     <g id="text_1">
      <!-- 0 -->
      <g transform="translate(67.470227 329.780875)scale(0.2 -0.2)">
       <defs>
        <path id="DejaVuSans-30" d="M 2034 4250 
Q 1547 4250 1301 3770 
Q 1056 3291 1056 2328 
Q 1056 1369 1301 889 
Q 1547 409 2034 409 
Q 2525 409 2770 889 
Q 3016 1369 3016 2328 
Q 3016 3291 2770 3770 
Q 2525 4250 2034 4250 
z
M 2034 4750 
Q 2819 4750 3233 4129 
Q 3647 3509 3647 2328 
Q 3647 1150 3233 529 
Q 2819 -91 2034 -91 
Q 1250 -91 836 529 
Q 422 1150 422 2328 
Q 422 3509 836 4129 
Q 1250 4750 2034 4750 
z
" transform="scale(0.015625)"/>
       </defs>
       <use xlink:href="#DejaVuSans-30"/>
      </g>
     </g>
    </g>
    <g id="xtick_2">
     <g id="line2d_2">
      <g>
       <use xlink:href="#m716c324ef9" x="399.962975" y="307.584" style="stroke: #000000; stroke-width: 0.8"/>
      </g>
     </g>
     <g id="text_2">
      <!-- 1 -->
      <g transform="translate(393.600475 329.780875)scale(0.2 -0.2)">
       <defs>
        <path id="DejaVuSans-31" d="M 794 531 
L 1825 531 
L 1825 4091 
L 703 3866 
L 703 4441 
L 1819 4666 
L 2450 4666 
L 2450 531 
L 3481 531 
L 3481 0 
L 794 0 
L 794 531 
z
" transform="scale(0.015625)"/>
       </defs>
       <use xlink:href="#DejaVuSans-31"/>
      </g>
     </g>
    </g>
    <g id="text_3">
     <!-- Normalised X position -->
     <g transform="translate(111.795937 353.137125)scale(0.2 -0.2)">
      <defs>
       <path id="DejaVuSans-Bold-4e" d="M 588 4666 
L 1931 4666 
L 3628 1466 
L 3628 4666 
L 4769 4666 
L 4769 0 
L 3425 0 
L 1728 3200 
L 1728 0 
L 588 0 
L 588 4666 
z
" transform="scale(0.015625)"/>
       <path id="DejaVuSans-Bold-6f" d="M 2203 2784 
Q 1831 2784 1636 2517 
Q 1441 2250 1441 1747 
Q 1441 1244 1636 976 
Q 1831 709 2203 709 
Q 2569 709 2762 976 
Q 2956 1244 2956 1747 
Q 2956 2250 2762 2517 
Q 2569 2784 2203 2784 
z
M 2203 3584 
Q 3106 3584 3614 3096 
Q 4122 2609 4122 1747 
Q 4122 884 3614 396 
Q 3106 -91 2203 -91 
Q 1297 -91 786 396 
Q 275 884 275 1747 
Q 275 2609 786 3096 
Q 1297 3584 2203 3584 
z
" transform="scale(0.015625)"/>
       <path id="DejaVuSans-Bold-72" d="M 3138 2547 
Q 2991 2616 2845 2648 
Q 2700 2681 2553 2681 
Q 2122 2681 1889 2404 
Q 1656 2128 1656 1613 
L 1656 0 
L 538 0 
L 538 3500 
L 1656 3500 
L 1656 2925 
Q 1872 3269 2151 3426 
Q 2431 3584 2822 3584 
Q 2878 3584 2943 3579 
Q 3009 3575 3134 3559 
L 3138 2547 
z
" transform="scale(0.015625)"/>
       <path id="DejaVuSans-Bold-6d" d="M 3781 2919 
Q 3994 3244 4286 3414 
Q 4578 3584 4928 3584 
Q 5531 3584 5847 3212 
Q 6163 2841 6163 2131 
L 6163 0 
L 5038 0 
L 5038 1825 
Q 5041 1866 5042 1909 
Q 5044 1953 5044 2034 
Q 5044 2406 4934 2573 
Q 4825 2741 4581 2741 
Q 4263 2741 4089 2478 
Q 3916 2216 3909 1719 
L 3909 0 
L 2784 0 
L 2784 1825 
Q 2784 2406 2684 2573 
Q 2584 2741 2328 2741 
Q 2006 2741 1831 2477 
Q 1656 2213 1656 1722 
L 1656 0 
L 531 0 
L 531 3500 
L 1656 3500 
L 1656 2988 
Q 1863 3284 2130 3434 
Q 2397 3584 2719 3584 
Q 3081 3584 3359 3409 
Q 3638 3234 3781 2919 
z
" transform="scale(0.015625)"/>
       <path id="DejaVuSans-Bold-61" d="M 2106 1575 
Q 1756 1575 1579 1456 
Q 1403 1338 1403 1106 
Q 1403 894 1545 773 
Q 1688 653 1941 653 
Q 2256 653 2472 879 
Q 2688 1106 2688 1447 
L 2688 1575 
L 2106 1575 
z
M 3816 1997 
L 3816 0 
L 2688 0 
L 2688 519 
Q 2463 200 2181 54 
Q 1900 -91 1497 -91 
Q 953 -91 614 226 
Q 275 544 275 1050 
Q 275 1666 698 1953 
Q 1122 2241 2028 2241 
L 2688 2241 
L 2688 2328 
Q 2688 2594 2478 2717 
Q 2269 2841 1825 2841 
Q 1466 2841 1156 2769 
Q 847 2697 581 2553 
L 581 3406 
Q 941 3494 1303 3539 
Q 1666 3584 2028 3584 
Q 2975 3584 3395 3211 
Q 3816 2838 3816 1997 
z
" transform="scale(0.015625)"/>
       <path id="DejaVuSans-Bold-6c" d="M 538 4863 
L 1656 4863 
L 1656 0 
L 538 0 
L 538 4863 
z
" transform="scale(0.015625)"/>
       <path id="DejaVuSans-Bold-69" d="M 538 3500 
L 1656 3500 
L 1656 0 
L 538 0 
L 538 3500 
z
M 538 4863 
L 1656 4863 
L 1656 3950 
L 538 3950 
L 538 4863 
z
" transform="scale(0.015625)"/>
       <path id="DejaVuSans-Bold-73" d="M 3272 3391 
L 3272 2541 
Q 2913 2691 2578 2766 
Q 2244 2841 1947 2841 
Q 1628 2841 1473 2761 
Q 1319 2681 1319 2516 
Q 1319 2381 1436 2309 
Q 1553 2238 1856 2203 
L 2053 2175 
Q 2913 2066 3209 1816 
Q 3506 1566 3506 1031 
Q 3506 472 3093 190 
Q 2681 -91 1863 -91 
Q 1516 -91 1145 -36 
Q 775 19 384 128 
L 384 978 
Q 719 816 1070 734 
Q 1422 653 1784 653 
Q 2113 653 2278 743 
Q 2444 834 2444 1013 
Q 2444 1163 2330 1236 
Q 2216 1309 1875 1350 
L 1678 1375 
Q 931 1469 631 1722 
Q 331 1975 331 2491 
Q 331 3047 712 3315 
Q 1094 3584 1881 3584 
Q 2191 3584 2531 3537 
Q 2872 3491 3272 3391 
z
" transform="scale(0.015625)"/>
       <path id="DejaVuSans-Bold-65" d="M 4031 1759 
L 4031 1441 
L 1416 1441 
Q 1456 1047 1700 850 
Q 1944 653 2381 653 
Q 2734 653 3104 758 
Q 3475 863 3866 1075 
L 3866 213 
Q 3469 63 3072 -14 
Q 2675 -91 2278 -91 
Q 1328 -91 801 392 
Q 275 875 275 1747 
Q 275 2603 792 3093 
Q 1309 3584 2216 3584 
Q 3041 3584 3536 3087 
Q 4031 2591 4031 1759 
z
M 2881 2131 
Q 2881 2450 2695 2645 
Q 2509 2841 2209 2841 
Q 1884 2841 1681 2658 
Q 1478 2475 1428 2131 
L 2881 2131 
z
" transform="scale(0.015625)"/>
       <path id="DejaVuSans-Bold-64" d="M 2919 2988 
L 2919 4863 
L 4044 4863 
L 4044 0 
L 2919 0 
L 2919 506 
Q 2688 197 2409 53 
Q 2131 -91 1766 -91 
Q 1119 -91 703 423 
Q 288 938 288 1747 
Q 288 2556 703 3070 
Q 1119 3584 1766 3584 
Q 2128 3584 2408 3439 
Q 2688 3294 2919 2988 
z
M 2181 722 
Q 2541 722 2730 984 
Q 2919 1247 2919 1747 
Q 2919 2247 2730 2509 
Q 2541 2772 2181 2772 
Q 1825 2772 1636 2509 
Q 1447 2247 1447 1747 
Q 1447 1247 1636 984 
Q 1825 722 2181 722 
z
" transform="scale(0.015625)"/>
       <path id="DejaVuSans-Bold-20" transform="scale(0.015625)"/>
       <path id="DejaVuSans-Bold-58" d="M 3188 2381 
L 4806 0 
L 3553 0 
L 2463 1594 
L 1381 0 
L 122 0 
L 1741 2381 
L 184 4666 
L 1441 4666 
L 2463 3163 
L 3481 4666 
L 4744 4666 
L 3188 2381 
z
" transform="scale(0.015625)"/>
       <path id="DejaVuSans-Bold-70" d="M 1656 506 
L 1656 -1331 
L 538 -1331 
L 538 3500 
L 1656 3500 
L 1656 2988 
Q 1888 3294 2169 3439 
Q 2450 3584 2816 3584 
Q 3463 3584 3878 3070 
Q 4294 2556 4294 1747 
Q 4294 938 3878 423 
Q 3463 -91 2816 -91 
Q 2450 -91 2169 54 
Q 1888 200 1656 506 
z
M 2400 2772 
Q 2041 2772 1848 2508 
Q 1656 2244 1656 1747 
Q 1656 1250 1848 986 
Q 2041 722 2400 722 
Q 2759 722 2948 984 
Q 3138 1247 3138 1747 
Q 3138 2247 2948 2509 
Q 2759 2772 2400 2772 
z
" transform="scale(0.015625)"/>
       <path id="DejaVuSans-Bold-74" d="M 1759 4494 
L 1759 3500 
L 2913 3500 
L 2913 2700 
L 1759 2700 
L 1759 1216 
Q 1759 972 1856 886 
Q 1953 800 2241 800 
L 2816 800 
L 2816 0 
L 1856 0 
Q 1194 0 917 276 
Q 641 553 641 1216 
L 641 2700 
L 84 2700 
L 84 3500 
L 641 3500 
L 641 4494 
L 1759 4494 
z
" transform="scale(0.015625)"/>
       <path id="DejaVuSans-Bold-6e" d="M 4056 2131 
L 4056 0 
L 2931 0 
L 2931 347 
L 2931 1631 
Q 2931 2084 2911 2256 
Q 2891 2428 2841 2509 
Q 2775 2619 2662 2680 
Q 2550 2741 2406 2741 
Q 2056 2741 1856 2470 
Q 1656 2200 1656 1722 
L 1656 0 
L 538 0 
L 538 3500 
L 1656 3500 
L 1656 2988 
Q 1909 3294 2193 3439 
Q 2478 3584 2822 3584 
Q 3428 3584 3742 3212 
Q 4056 2841 4056 2131 
z
" transform="scale(0.015625)"/>
      </defs>
      <use xlink:href="#DejaVuSans-Bold-4e"/>
      <use xlink:href="#DejaVuSans-Bold-6f" x="83.691406"/>
      <use xlink:href="#DejaVuSans-Bold-72" x="152.392578"/>
      <use xlink:href="#DejaVuSans-Bold-6d" x="201.708984"/>
      <use xlink:href="#DejaVuSans-Bold-61" x="305.908203"/>
      <use xlink:href="#DejaVuSans-Bold-6c" x="373.388672"/>
      <use xlink:href="#DejaVuSans-Bold-69" x="407.666016"/>
      <use xlink:href="#DejaVuSans-Bold-73" x="441.943359"/>
      <use xlink:href="#DejaVuSans-Bold-65" x="501.464844"/>
      <use xlink:href="#DejaVuSans-Bold-64" x="569.287109"/>
      <use xlink:href="#DejaVuSans-Bold-20" x="640.869141"/>
      <use xlink:href="#DejaVuSans-Bold-58" x="675.683594"/>
      <use xlink:href="#DejaVuSans-Bold-20" x="752.783203"/>
      <use xlink:href="#DejaVuSans-Bold-70" x="787.597656"/>
      <use xlink:href="#DejaVuSans-Bold-6f" x="859.179688"/>
      <use xlink:href="#DejaVuSans-Bold-73" x="927.880859"/>
      <use xlink:href="#DejaVuSans-Bold-69" x="987.402344"/>
      <use xlink:href="#DejaVuSans-Bold-74" x="1021.679688"/>
      <use xlink:href="#DejaVuSans-Bold-69" x="1069.482422"/>
      <use xlink:href="#DejaVuSans-Bold-6f" x="1103.759766"/>
      <use xlink:href="#DejaVuSans-Bold-6e" x="1172.460938"/>
     </g>
    </g>
   </g>
   <g id="matplotlib.axis_2">
    <g id="ytick_1">
     <g id="line2d_3">
      <defs>
       <path id="mfce158a071" d="M 0 0 
L -3.5 0 
" style="stroke: #000000; stroke-width: 0.8"/>
      </defs>
      <g>
       <use xlink:href="#mfce158a071" x="57.6" y="297" style="stroke: #000000; stroke-width: 0.8"/>
      </g>
     </g>
     <g id="text_4">
      <!-- 0 -->
      <g transform="translate(37.875 304.598437)scale(0.2 -0.2)">
       <use xlink:href="#DejaVuSans-30"/>
      </g>
     </g>
    </g>
    <g id="ytick_2">
     <g id="line2d_4">
      <g>
       <use xlink:href="#mfce158a071" x="57.6" y="53.568" style="stroke: #000000; stroke-width: 0.8"/>
      </g>
     </g>
     <g id="text_5">
      <!-- 1 -->
      <g transform="translate(37.875 61.166438)scale(0.2 -0.2)">
       <use xlink:href="#DejaVuSans-31"/>
      </g>
     </g>
    </g>
    <g id="text_6">
     <!-- Normalised Y position -->
     <g transform="translate(29.715625 298.423313)rotate(-90)scale(0.2 -0.2)">
      <defs>
       <path id="DejaVuSans-Bold-59" d="M -63 4666 
L 1253 4666 
L 2316 3003 
L 3378 4666 
L 4697 4666 
L 2919 1966 
L 2919 0 
L 1716 0 
L 1716 1966 
L -63 4666 
z
" transform="scale(0.015625)"/>
      </defs>
      <use xlink:href="#DejaVuSans-Bold-4e"/>
      <use xlink:href="#DejaVuSans-Bold-6f" x="83.691406"/>
      <use xlink:href="#DejaVuSans-Bold-72" x="152.392578"/>
      <use xlink:href="#DejaVuSans-Bold-6d" x="201.708984"/>
      <use xlink:href="#DejaVuSans-Bold-61" x="305.908203"/>
      <use xlink:href="#DejaVuSans-Bold-6c" x="373.388672"/>
      <use xlink:href="#DejaVuSans-Bold-69" x="407.666016"/>
      <use xlink:href="#DejaVuSans-Bold-73" x="441.943359"/>
      <use xlink:href="#DejaVuSans-Bold-65" x="501.464844"/>
      <use xlink:href="#DejaVuSans-Bold-64" x="569.287109"/>
      <use xlink:href="#DejaVuSans-Bold-20" x="640.869141"/>
      <use xlink:href="#DejaVuSans-Bold-59" x="675.683594"/>
      <use xlink:href="#DejaVuSans-Bold-20" x="748.095703"/>
      <use xlink:href="#DejaVuSans-Bold-70" x="782.910156"/>
      <use xlink:href="#DejaVuSans-Bold-6f" x="854.492188"/>
      <use xlink:href="#DejaVuSans-Bold-73" x="923.193359"/>
      <use xlink:href="#DejaVuSans-Bold-69" x="982.714844"/>
      <use xlink:href="#DejaVuSans-Bold-74" x="1016.992188"/>
      <use xlink:href="#DejaVuSans-Bold-69" x="1064.794922"/>
      <use xlink:href="#DejaVuSans-Bold-6f" x="1099.072266"/>
      <use xlink:href="#DejaVuSans-Bold-6e" x="1167.773438"/>
     </g>
    </g>
   </g>
   <g id="line2d_5">
    <path d="M 236.16 174.528 
L 73.832727 53.568 
L 73.832727 295.488 
L 73.832727 295.488 
L 81.50638 295.488 
L 73.832727 295.488 
L 73.832727 293.6736 
L 78.850116 288.2304 
L 83.277223 279.1584 
L 89.475174 269.4816 
L 97.739107 260.4096 
L 100.100231 249.8256 
L 96.853686 236.52 
L 90.065455 222.912 
L 78.850116 209.0016 
L 73.832727 194.4864 
L 73.832727 128.5632 
L 75.898711 119.7936 
L 87.40919 114.048 
L 100.985653 108 
L 112.791273 102.2544 
L 123.416331 99.2304 
L 132.270545 98.3232 
L 140.239339 97.7184 
L 147.322711 98.3232 
L 152.93038 98.6256 
L 156.767207 100.7424 
L 159.718612 101.6496 
L 162.965157 103.7664 
L 163.850579 106.488 
L 166.211702 109.8144 
L 167.687405 111.024 
L 172.409653 115.2576 
L 174.180496 117.3744 
L 175.951339 117.6768 
L 179.493025 119.1888 
L 181.263868 120.3984 
L 183.329851 120.3984 
L 190.118083 123.12 
L 193.954909 123.4224 
L 198.086876 125.5392 
L 201.628562 125.8416 
L 206.35081 127.3536 
L 210.777917 130.3776 
L 219.041851 135.216 
L 227.305785 140.3568 
L 231.142612 143.9856 
L 235.569719 147.0096 
L 239.406545 150.336 
L 242.653091 153.36 
L 246.785058 156.384 
L 264.788628 172.1088 
L 270.396298 177.552 
L 272.462281 179.6688 
L 277.479669 183.9024 
L 279.545653 185.112 
L 283.97276 189.0432 
L 286.333884 191.4624 
L 287.514446 193.2768 
L 288.399868 195.696 
L 288.695008 196.9056 
L 288.695008 197.8128 
L 288.399868 198.4176 
L 287.809587 198.72 
L 287.219306 198.72 
L 285.743603 199.0224 
L 284.858182 199.3248 
L 283.67762 199.0224 
L 280.431074 198.4176 
L 276.299107 196.3008 
L 272.16714 192.9744 
L 268.625455 189.648 
L 264.788628 187.2288 
L 260.06638 183.9024 
L 255.048992 180.8784 
L 236.750281 168.48 
L 230.25719 164.2464 
L 218.45157 156.9888 
L 206.64595 148.824 
L 198.677157 143.6832 
L 190.413223 138.8448 
L 180.378446 133.4016 
L 169.753388 127.9584 
L 160.308893 123.4224 
L 151.159537 118.8864 
L 136.992793 112.8384 
L 122.530909 107.0928 
L 118.398942 105.2784 
L 116.037818 104.6736 
L 114.562116 103.7664 
L 112.200992 101.3472 
L 114.562116 100.1376 
L 116.628099 100.7424 
L 118.694083 100.1376 
L 121.350347 101.6496 
L 124.006612 101.3472 
L 127.843438 103.464 
L 131.975405 104.3712 
L 138.173355 107.6976 
L 144.371306 110.4192 
L 151.454678 113.7456 
L 158.53805 118.2816 
L 166.801983 121.608 
L 175.656198 126.4464 
L 184.805554 130.0752 
L 194.54519 134.9136 
L 203.399405 138.24 
L 212.25362 141.264 
L 221.402975 145.4976 
L 231.732893 149.7312 
L 240.882248 153.36 
L 250.917025 157.5936 
L 259.180959 160.3152 
L 269.215736 164.8512 
L 279.250512 169.6896 
L 289.285289 174.8304 
L 298.729785 179.9712 
L 312.011107 190.2528 
L 318.799339 194.184 
L 326.768132 199.9296 
L 334.441785 206.5824 
L 347.723107 219.5856 
L 352.445355 225.3312 
L 356.577322 230.7744 
L 356.577322 236.2176 
L 360.119008 239.8464 
L 363.660694 244.3824 
L 371.334347 254.664 
L 375.171174 259.2 
L 377.827438 263.736 
L 379.893421 267.9696 
L 381.959405 271.296 
L 382.844826 274.0176 
L 383.139967 276.1344 
L 383.139967 279.1584 
L 381.369124 277.6464 
L 379.893421 275.832 
L 377.237157 273.7152 
L 374.285752 270.6912 
L 368.678083 265.5504 
L 366.90724 264.9456 
L 361.889851 263.736 
L 357.462744 262.5264 
L 353.035636 261.9216 
L 349.49395 262.224 
L 346.837686 263.736 
L 344.771702 266.1552 
L 342.115438 267.9696 
L 338.278612 269.4816 
L 331.49038 269.1792 
L 324.997289 269.1792 
L 317.323636 267.0624 
L 296.073521 252.2448 
L 269.806017 231.984 
L 240.882248 210.2112 
L 213.139041 189.0432 
L 190.708364 172.7136 
L 176.83676 163.944 
L 159.423471 155.4768 
L 151.749818 151.5456 
L 139.058777 143.6832 
L 139.649058 147.6144 
L 144.076165 155.7792 
L 142.305322 156.6864 
L 124.301752 144.288 
L 119.874645 142.1712 
L 116.037818 141.8688 
L 112.791273 142.4736 
L 111.02043 143.3808 
L 108.659306 144.8928 
L 112.791273 151.5456 
L 111.610711 152.4528 
L 110.430149 153.0576 
L 109.839868 153.9648 
L 105.707901 153.9648 
L 105.11762 154.5696 
L 105.11762 155.7792 
L 107.183603 158.1984 
L 108.069025 160.0128 
L 109.544727 161.5248 
L 109.839868 162.432 
L 111.02043 163.3392 
L 110.725289 162.7344 
L 110.725289 161.8272 
L 111.02043 160.92 
L 111.610711 159.7104 
L 112.200992 157.896 
L 113.971835 156.9888 
L 115.447537 155.7792 
L 116.332959 153.6624 
L 118.398942 152.4528 
L 121.350347 151.5456 
L 128.433719 150.9408 
L 131.680264 151.2432 
L 134.92681 152.4528 
L 137.878215 154.872 
L 138.468496 156.0816 
L 138.468496 157.896 
L 138.763636 160.0128 
L 138.468496 162.432 
L 136.697653 166.6656 
L 135.517091 168.48 
L 134.336529 169.992 
L 133.155967 171.2016 
L 131.680264 171.8064 
L 129.024 172.7136 
L 127.548298 173.6208 
L 126.958017 175.1328 
L 127.843438 176.6448 
L 129.024 178.1568 
L 130.499702 179.6688 
L 132.270545 180.2736 
L 133.155967 179.9712 
L 134.631669 179.9712 
L 136.107372 179.3664 
L 137.878215 179.3664 
L 139.944198 178.7616 
L 142.600463 179.064 
L 145.256727 179.064 
L 151.159537 180.8784 
L 154.701223 182.088 
L 158.53805 184.2048 
L 162.670017 186.0192 
L 167.687405 188.7408 
L 174.180496 192.0672 
L 180.968727 195.3936 
L 192.184066 202.0464 
L 197.791736 204.4656 
L 201.923702 205.3728 
L 204.579967 203.8608 
L 209.007074 198.72 
L 213.139041 194.7888 
L 216.975868 194.4864 
L 218.746711 199.6272 
L 223.764099 199.6272 
L 226.125223 199.3248 
L 227.600926 197.5104 
L 228.486347 196.9056 
L 231.142612 195.9984 
L 237.045421 194.7888 
L 239.996826 194.7888 
L 242.35795 194.184 
L 244.423934 193.8816 
L 245.899636 192.9744 
L 247.96562 192.9744 
L 252.687868 194.4864 
L 254.753851 194.7888 
L 257.410116 195.3936 
L 259.180959 194.7888 
L 255.639273 190.8576 
L 253.86843 188.4384 
L 254.458711 187.5312 
L 255.639273 187.8336 
L 256.819835 187.8336 
L 257.114975 186.624 
L 258.885818 185.4144 
L 259.476099 182.088 
L 260.656661 180.8784 
L 258.295537 178.1568 
L 264.788628 179.6688 
L 267.740033 178.4592 
L 268.330314 176.6448 
L 268.625455 174.2256 
L 275.118545 175.4352 
L 277.184529 173.016 
L 276.594248 170.5968 
L 276.003967 162.1296 
L 275.118545 155.7792 
L 274.823405 152.4528 
L 274.823405 152.4528 
" clip-path="url(#pad1c0f7c2a)" style="fill: none; stroke: #000000; stroke-width: 1.5; stroke-linecap: square"/>
   </g>
   <g id="line2d_6">
    <path d="M 236.16 174.528 
" clip-path="url(#pad1c0f7c2a)" style="fill: none; stroke: #000000; stroke-width: 1.5; stroke-linecap: square"/>
    <defs>
     <path id="mc986ddf38e" d="M 0 5 
C 1.326016 5 2.597899 4.473168 3.535534 3.535534 
C 4.473168 2.597899 5 1.326016 5 0 
C 5 -1.326016 4.473168 -2.597899 3.535534 -3.535534 
C 2.597899 -4.473168 1.326016 -5 0 -5 
C -1.326016 -5 -2.597899 -4.473168 -3.535534 -3.535534 
C -4.473168 -2.597899 -5 -1.326016 -5 0 
C -5 1.326016 -4.473168 2.597899 -3.535534 3.535534 
C -2.597899 4.473168 -1.326016 5 0 5 
z
" style="stroke: #000000"/>
    </defs>
    <g clip-path="url(#pad1c0f7c2a)">
     <use xlink:href="#mc986ddf38e" x="236.16" y="174.528" style="stroke: #000000"/>
    </g>
   </g>
   <g id="line2d_7">
    <path d="M 274.823405 152.4528 
" clip-path="url(#pad1c0f7c2a)" style="fill: none; stroke: #000000; stroke-width: 1.5; stroke-linecap: square"/>
    <defs>
     <path id="m84a993639b" d="M -5 5 
L 5 5 
L 5 -5 
L -5 -5 
z
" style="stroke: #000000; stroke-linejoin: miter"/>
    </defs>
    <g clip-path="url(#pad1c0f7c2a)">
     <use xlink:href="#m84a993639b" x="274.823405" y="152.4528" style="stroke: #000000; stroke-linejoin: miter"/>
    </g>
   </g>
   <g id="line2d_8">
    <path d="M 229.371769 187.5312 
L 235.274579 188.4384 
L 245.014215 190.5552 
L 252.687868 192.0672 
L 259.77124 193.5792 
L 266.264331 194.184 
L 273.347702 195.0912 
L 280.726215 196.3008 
L 287.219306 197.208 
L 293.712397 198.1152 
L 299.320066 198.4176 
L 304.632595 199.0224 
L 309.354843 199.6272 
L 313.191669 200.232 
L 317.323636 200.8368 
L 323.816727 201.744 
L 328.834116 202.6512 
L 337.39319 205.3728 
L 321.750744 201.744 
L 289.285289 192.9744 
L 259.77124 184.5072 
L 248.26076 180.576 
L 244.719074 179.064 
L 248.26076 179.6688 
L 254.458711 181.1808 
L 256.229554 182.088 
L 266.854612 184.2048 
L 287.809587 190.5552 
L 290.760992 192.3696 
L 289.87557 192.3696 
L 289.58043 192.672 
L 288.104727 192.672 
L 285.743603 192.3696 
L 283.087339 191.7648 
L 280.726215 191.4624 
L 276.003967 190.5552 
L 268.920595 189.0432 
L 266.854612 188.4384 
L 261.246942 186.624 
L 256.229554 185.4144 
L 250.917025 183.9024 
L 243.833653 182.3904 
L 237.930843 180.576 
L 230.25719 178.4592 
L 214.614744 174.2256 
L 205.465388 172.7136 
L 195.135471 169.992 
L 180.083306 165.456 
L 189.822942 166.3632 
L 193.069488 167.2704 
L 191.003504 166.0608 
L 187.756959 164.5488 
L 183.329851 162.432 
L 179.197884 160.3152 
L 174.475636 157.896 
L 170.63881 155.7792 
L 167.392264 153.9648 
L 164.145719 152.1504 
L 160.604033 150.336 
L 157.652628 148.5216 
L 153.815802 147.0096 
L 150.864397 144.288 
L 147.912992 142.776 
L 144.961587 140.9616 
L 141.12476 139.1472 
L 138.173355 137.0304 
L 135.812231 134.9136 
L 134.336529 132.4944 
L 133.451107 130.0752 
L 133.746248 127.9584 
L 134.041388 126.144 
L 133.746248 124.0272 
L 132.860826 122.5152 
L 131.975405 120.3984 
L 130.499702 118.2816 
L 129.614281 115.8624 
L 129.614281 114.048 
L 129.31914 111.9312 
L 129.024 110.1168 
" clip-path="url(#pad1c0f7c2a)" style="fill: none; stroke: #0000ff; stroke-width: 1.5; stroke-linecap: square"/>
   </g>
   <g id="line2d_9">
    <path d="M 229.371769 187.5312 
" clip-path="url(#pad1c0f7c2a)" style="fill: none; stroke: #0000ff; stroke-width: 1.5; stroke-linecap: square"/>
    <defs>
     <path id="mc453705c24" d="M 0 5 
C 1.326016 5 2.597899 4.473168 3.535534 3.535534 
C 4.473168 2.597899 5 1.326016 5 0 
C 5 -1.326016 4.473168 -2.597899 3.535534 -3.535534 
C 2.597899 -4.473168 1.326016 -5 0 -5 
C -1.326016 -5 -2.597899 -4.473168 -3.535534 -3.535534 
C -4.473168 -2.597899 -5 -1.326016 -5 0 
C -5 1.326016 -4.473168 2.597899 -3.535534 3.535534 
C -2.597899 4.473168 -1.326016 5 0 5 
z
" style="stroke: #0000ff"/>
    </defs>
    <g clip-path="url(#pad1c0f7c2a)">
     <use xlink:href="#mc453705c24" x="229.371769" y="187.5312" style="fill: #0000ff; stroke: #0000ff"/>
    </g>
   </g>
   <g id="line2d_10">
    <path d="M 129.024 110.1168 
" clip-path="url(#pad1c0f7c2a)" style="fill: none; stroke: #0000ff; stroke-width: 1.5; stroke-linecap: square"/>
    <defs>
     <path id="mda476c4696" d="M -5 5 
L 5 5 
L 5 -5 
L -5 -5 
z
" style="stroke: #0000ff; stroke-linejoin: miter"/>
    </defs>
    <g clip-path="url(#pad1c0f7c2a)">
     <use xlink:href="#mda476c4696" x="129.024" y="110.1168" style="fill: #0000ff; stroke: #0000ff; stroke-linejoin: miter"/>
    </g>
   </g>
   <g id="line2d_11">
    <path d="M 362.775273 203.5584 
L 363.365554 203.8608 
L 345.952264 200.5344 
L 314.077091 192.9744 
L 285.743603 185.7168 
L 280.431074 184.2048 
L 279.250512 183.2976 
L 281.611636 183.2976 
L 284.563041 183.9024 
L 285.743603 184.5072 
L 284.563041 184.5072 
L 282.201917 184.2048 
L 281.021355 183.9024 
L 277.479669 183.2976 
L 276.299107 183.2976 
L 275.413686 182.9952 
L 273.937983 182.9952 
L 272.16714 182.6928 
L 270.101157 182.3904 
L 267.740033 182.088 
L 264.198347 181.1808 
L 261.542083 180.576 
L 259.180959 179.9712 
L 257.410116 179.6688 
L 255.344132 179.3664 
L 251.212165 178.7616 
L 248.555901 178.1568 
L 246.194777 177.552 
L 242.948231 176.6448 
L 239.406545 176.04 
L 235.569719 175.4352 
L 230.847471 174.2256 
L 236.750281 174.8304 
L 263.017785 182.9952 
L 267.444893 185.112 
L 264.788628 185.112 
L 265.96919 186.0192 
L 265.083769 186.3216 
L 261.837223 186.0192 
L 255.639273 185.112 
L 247.96562 183.2976 
L 243.538512 182.3904 
L 238.816264 181.7856 
L 233.798876 180.576 
L 229.371769 179.9712 
L 224.944661 179.064 
L 220.222413 178.4592 
L 215.500165 177.552 
L 211.073058 176.9472 
L 206.64595 175.7376 
L 201.923702 174.528 
L 197.496595 173.016 
L 193.954909 172.1088 
L 191.003504 170.8992 
L 188.64238 169.992 
L 185.395835 169.0848 
L 182.149289 167.8752 
L 179.197884 166.6656 
L 175.361058 165.456 
L 172.704793 163.944 
L 171.229091 163.3392 
L 169.753388 162.432 
L 168.867967 161.2224 
L 166.801983 160.0128 
L 162.374876 158.5008 
L 149.388694 153.36 
L 147.617851 151.5456 
L 154.996364 153.0576 
L 157.062347 153.0576 
L 157.947769 152.1504 
L 158.53805 151.2432 
L 158.242909 150.0336 
L 157.947769 148.824 
L 157.357488 147.312 
L 156.472066 145.8 
L 155.881785 144.288 
L 155.291504 142.4736 
L 154.701223 140.9616 
L 154.110942 139.1472 
L 153.520661 137.3328 
L 153.520661 135.5184 
" clip-path="url(#pad1c0f7c2a)" style="fill: none; stroke: #ffd700; stroke-width: 1.5; stroke-linecap: square"/>
   </g>
   <g id="line2d_12">
    <path d="M 362.775273 203.5584 
" clip-path="url(#pad1c0f7c2a)" style="fill: none; stroke: #ffd700; stroke-width: 1.5; stroke-linecap: square"/>
    <defs>
     <path id="m73d21e1715" d="M 0 5 
C 1.326016 5 2.597899 4.473168 3.535534 3.535534 
C 4.473168 2.597899 5 1.326016 5 0 
C 5 -1.326016 4.473168 -2.597899 3.535534 -3.535534 
C 2.597899 -4.473168 1.326016 -5 0 -5 
C -1.326016 -5 -2.597899 -4.473168 -3.535534 -3.535534 
C -4.473168 -2.597899 -5 -1.326016 -5 0 
C -5 1.326016 -4.473168 2.597899 -3.535534 3.535534 
C -2.597899 4.473168 -1.326016 5 0 5 
z
" style="stroke: #ffd700"/>
    </defs>
    <g clip-path="url(#pad1c0f7c2a)">
     <use xlink:href="#m73d21e1715" x="362.775273" y="203.5584" style="fill: #ffd700; stroke: #ffd700"/>
    </g>
   </g>
   <g id="line2d_13">
    <path d="M 153.520661 135.5184 
" clip-path="url(#pad1c0f7c2a)" style="fill: none; stroke: #ffd700; stroke-width: 1.5; stroke-linecap: square"/>
    <defs>
     <path id="m3fe3482015" d="M -5 5 
L 5 5 
L 5 -5 
L -5 -5 
z
" style="stroke: #ffd700; stroke-linejoin: miter"/>
    </defs>
    <g clip-path="url(#pad1c0f7c2a)">
     <use xlink:href="#m3fe3482015" x="153.520661" y="135.5184" style="fill: #ffd700; stroke: #ffd700; stroke-linejoin: miter"/>
    </g>
   </g>
   <g id="line2d_14">
    <path d="M 214.614744 250.4304 
L 212.843901 252.5472 
L 211.958479 254.3616 
L 211.073058 256.4784 
L 210.187636 258.2928 
L 209.007074 260.1072 
L 208.121653 261.9216 
L 206.941091 263.736 
L 206.055669 264.9456 
L 204.875107 266.1552 
L 203.694545 267.3648 
L 202.513983 267.9696 
L 201.333421 268.8768 
L 200.15286 269.1792 
L 199.267438 269.784 
L 198.382017 270.0864 
L 197.791736 270.3888 
L 197.496595 270.3888 
L 197.201455 270.3888 
L 197.201455 270.3888 
L 197.201455 270.0864 
L 197.791736 269.784 
L 198.382017 269.4816 
L 198.972298 268.8768 
L 198.677157 267.9696 
L 198.677157 267.0624 
L 198.677157 265.5504 
L 199.857719 264.9456 
L 200.448 263.4336 
L 200.74314 261.6192 
L 200.74314 259.5024 
L 200.74314 257.0832 
L 201.628562 255.2688 
L 203.104264 253.152 
L 204.284826 250.7328 
L 205.760529 248.616 
L 207.236231 246.1968 
L 208.711934 243.4752 
L 210.777917 241.056 
L 213.139041 238.6368 
L 215.205025 235.9152 
L 216.975868 233.1936 
L 219.336992 230.472 
L 222.288397 228.0528 
L 224.649521 225.3312 
L 226.420364 222.3072 
L 228.781488 219.2832 
L 231.437752 216.2592 
L 232.323174 213.2352 
L 233.208595 209.6064 
L 234.684298 206.28 
L 234.389157 202.6512 
L 234.389157 199.0224 
L 235.569719 195.9984 
L 235.274579 192.672 
L 234.684298 189.0432 
L 231.437752 185.112 
L 229.96205 181.4832 
L 228.191207 177.8544 
L 228.191207 174.8304 
L 227.600926 171.504 
L 227.305785 168.48 
L 227.010645 165.456 
L 226.420364 162.1296 
L 226.715504 159.1056 
L 227.896066 156.384 
L 229.666909 154.2672 
L 230.552331 151.848 
L 231.142612 149.4288 
L 231.732893 147.0096 
L 231.732893 144.8928 
L 231.437752 142.1712 
L 230.847471 139.4496 
L 230.552331 136.728 
L 231.437752 134.0064 
L 231.142612 131.2848 
L 231.142612 128.5632 
L 230.847471 125.8416 
L 229.666909 122.2128 
L 229.371769 119.4912 
L 228.191207 116.7696 
L 226.715504 113.7456 
L 227.896066 111.6288 
L 228.191207 108.9072 
L 227.305785 106.488 
" clip-path="url(#pad1c0f7c2a)" style="fill: none; stroke: #800080; stroke-width: 1.5; stroke-linecap: square"/>
   </g>
   <g id="line2d_15">
    <path d="M 214.614744 250.4304 
" clip-path="url(#pad1c0f7c2a)" style="fill: none; stroke: #800080; stroke-width: 1.5; stroke-linecap: square"/>
    <defs>
     <path id="mbafb70b1b9" d="M 0 5 
C 1.326016 5 2.597899 4.473168 3.535534 3.535534 
C 4.473168 2.597899 5 1.326016 5 0 
C 5 -1.326016 4.473168 -2.597899 3.535534 -3.535534 
C 2.597899 -4.473168 1.326016 -5 0 -5 
C -1.326016 -5 -2.597899 -4.473168 -3.535534 -3.535534 
C -4.473168 -2.597899 -5 -1.326016 -5 0 
C -5 1.326016 -4.473168 2.597899 -3.535534 3.535534 
C -2.597899 4.473168 -1.326016 5 0 5 
z
" style="stroke: #800080"/>
    </defs>
    <g clip-path="url(#pad1c0f7c2a)">
     <use xlink:href="#mbafb70b1b9" x="214.614744" y="250.4304" style="fill: #800080; stroke: #800080"/>
    </g>
   </g>
   <g id="line2d_16">
    <path d="M 227.305785 106.488 
" clip-path="url(#pad1c0f7c2a)" style="fill: none; stroke: #800080; stroke-width: 1.5; stroke-linecap: square"/>
    <defs>
     <path id="me3500bdfa9" d="M -5 5 
L 5 5 
L 5 -5 
L -5 -5 
z
" style="stroke: #800080; stroke-linejoin: miter"/>
    </defs>
    <g clip-path="url(#pad1c0f7c2a)">
     <use xlink:href="#me3500bdfa9" x="227.305785" y="106.488" style="fill: #800080; stroke: #800080; stroke-linejoin: miter"/>
    </g>
   </g>
   <g id="line2d_17">
    <path d="M 304.042314 196.3008 
L 306.993719 197.5104 
L 303.452033 195.9984 
L 305.222876 195.9984 
L 306.403438 195.3936 
L 311.420826 195.696 
L 322.341025 198.1152 
L 327.063273 198.4176 
L 329.424397 199.0224 
L 332.670942 199.3248 
L 335.327207 199.6272 
L 338.278612 200.5344 
L 342.115438 201.4416 
L 345.066843 201.744 
L 347.132826 202.3488 
L 349.19881 203.256 
L 351.264793 203.8608 
L 352.445355 204.4656 
L 354.216198 205.0704 
L 356.872463 205.9776 
L 359.823868 206.8848 
L 361.29957 207.1872 
L 364.841256 208.3968 
L 366.90724 209.0016 
L 367.792661 209.6064 
L 358.938446 209.0016 
L 324.111868 200.5344 
L 301.68119 194.7888 
L 295.188099 192.9744 
L 292.826975 192.3696 
L 293.712397 192.672 
L 294.892959 193.2768 
L 294.302678 194.184 
L 291.646413 194.4864 
L 289.87557 194.4864 
L 285.743603 194.184 
L 281.906777 194.184 
L 278.365091 194.184 
L 275.708826 194.4864 
L 271.281719 194.7888 
L 268.330314 195.3936 
L 264.493488 195.696 
L 262.427504 195.696 
L 256.524694 195.696 
L 295.77838 206.28 
L 314.372231 215.0496 
L 314.372231 216.5616 
L 307.28886 216.864 
L 276.594248 210.816 
L 252.983008 205.6752 
L 234.684298 200.5344 
L 222.583537 198.1152 
L 219.041851 197.5104 
L 217.566149 198.1152 
L 214.909884 198.4176 
L 230.25719 204.1632 
L 235.274579 207.792 
L 234.684298 209.6064 
L 232.618314 209.9088 
L 231.437752 211.1184 
L 227.305785 212.6304 
L 223.468959 212.9328 
L 219.336992 213.84 
L 216.385587 214.4448 
L 213.434182 214.7472 
L 209.302215 215.352 
L 206.055669 216.2592 
L 202.809124 216.864 
L 199.267438 217.1664 
L 194.54519 217.7712 
L 191.298645 217.7712 
L 188.052099 218.0736 
L 185.395835 218.6784 
L 183.034711 219.2832 
L 179.788165 219.5856 
L 175.065917 220.7952 
L 172.704793 221.0976 
L 170.343669 221.7024 
L 167.982545 222.3072 
" clip-path="url(#pad1c0f7c2a)" style="fill: none; stroke: #ffa500; stroke-width: 1.5; stroke-linecap: square"/>
   </g>
   <g id="line2d_18">
    <path d="M 304.042314 196.3008 
" clip-path="url(#pad1c0f7c2a)" style="fill: none; stroke: #ffa500; stroke-width: 1.5; stroke-linecap: square"/>
    <defs>
     <path id="m2d72ab8e80" d="M 0 5 
C 1.326016 5 2.597899 4.473168 3.535534 3.535534 
C 4.473168 2.597899 5 1.326016 5 0 
C 5 -1.326016 4.473168 -2.597899 3.535534 -3.535534 
C 2.597899 -4.473168 1.326016 -5 0 -5 
C -1.326016 -5 -2.597899 -4.473168 -3.535534 -3.535534 
C -4.473168 -2.597899 -5 -1.326016 -5 0 
C -5 1.326016 -4.473168 2.597899 -3.535534 3.535534 
C -2.597899 4.473168 -1.326016 5 0 5 
z
" style="stroke: #ffa500"/>
    </defs>
    <g clip-path="url(#pad1c0f7c2a)">
     <use xlink:href="#m2d72ab8e80" x="304.042314" y="196.3008" style="fill: #ffa500; stroke: #ffa500"/>
    </g>
   </g>
   <g id="line2d_19">
    <path d="M 167.982545 222.3072 
" clip-path="url(#pad1c0f7c2a)" style="fill: none; stroke: #ffa500; stroke-width: 1.5; stroke-linecap: square"/>
    <defs>
     <path id="mb842167e6c" d="M -5 5 
L 5 5 
L 5 -5 
L -5 -5 
z
" style="stroke: #ffa500; stroke-linejoin: miter"/>
    </defs>
    <g clip-path="url(#pad1c0f7c2a)">
     <use xlink:href="#mb842167e6c" x="167.982545" y="222.3072" style="fill: #ffa500; stroke: #ffa500; stroke-linejoin: miter"/>
    </g>
   </g>
   <g id="line2d_20">
    <path d="M 233.208595 168.7824 
L 233.208595 168.7824 
L 233.503736 168.7824 
L 233.798876 168.7824 
L 234.684298 169.0848 
L 234.684298 168.7824 
L 234.389157 168.48 
L 234.389157 168.1776 
L 234.389157 167.8752 
L 235.274579 167.8752 
L 236.750281 167.8752 
L 237.340562 167.8752 
L 237.635702 167.5728 
L 238.225983 167.2704 
L 238.816264 166.968 
L 239.111405 166.6656 
L 239.701686 166.3632 
L 239.111405 165.7584 
L 238.816264 165.1536 
L 238.816264 163.944 
L 238.521124 163.3392 
L 238.521124 162.7344 
L 238.816264 162.432 
L 239.111405 162.1296 
L 239.701686 161.8272 
L 240.587107 161.5248 
L 240.587107 160.6176 
L 241.177388 160.3152 
L 241.767669 159.7104 
L 242.35795 159.1056 
L 243.243372 158.8032 
L 244.128793 158.1984 
L 245.014215 157.896 
L 245.899636 157.5936 
L 247.96562 157.5936 
L 250.031603 157.5936 
L 250.621884 157.5936 
L 250.917025 157.2912 
L 251.212165 156.9888 
L 250.917025 156.384 
L 250.917025 156.0816 
L 250.917025 155.7792 
L 251.212165 155.7792 
L 251.507306 155.4768 
L 251.802446 155.1744 
L 252.687868 155.1744 
L 253.278149 155.1744 
L 253.86843 155.1744 
L 254.753851 154.872 
L 255.048992 154.872 
L 255.934413 154.5696 
L 256.229554 154.5696 
L 256.819835 154.2672 
L 257.114975 153.9648 
L 257.410116 153.9648 
L 258.000397 153.9648 
L 258.295537 153.9648 
L 258.885818 153.6624 
L 259.180959 153.6624 
L 259.476099 153.6624 
L 259.476099 153.6624 
L 259.77124 153.36 
L 259.77124 152.7552 
L 259.77124 152.4528 
L 260.06638 151.848 
L 260.361521 151.2432 
L 260.361521 150.6384 
L 260.951802 149.7312 
L 261.837223 149.1264 
L 262.427504 148.5216 
L 263.608066 147.9168 
L 266.264331 147.6144 
L 270.101157 147.9168 
L 270.986579 147.312 
L 270.986579 146.4048 
L 271.281719 145.1952 
L 272.462281 144.5904 
L 274.528264 143.6832 
L 277.77481 143.3808 
L 278.365091 142.1712 
L 278.06995 140.6592 
L 278.660231 139.4496 
L 280.726215 138.5424 
L 281.021355 137.3328 
L 282.497058 136.1232 
L 283.382479 134.6112 
L 284.267901 133.0992 
L 284.858182 131.5872 
L 286.038744 130.0752 
L 287.809587 129.168 
L 288.990149 127.656 
L 291.351273 126.4464 
L 295.48324 125.8416 
L 295.77838 124.0272 
L 295.77838 122.2128 
L 295.77838 120.3984 
L 296.073521 118.584 
L 297.549223 117.3744 
L 299.320066 115.56 
L 305.518017 115.56 
L 310.535405 115.56 
L 312.306248 114.6528 
L 311.420826 112.8384 
L 310.535405 110.7216 
L 311.125686 109.512 
L 311.125686 108 
L 310.830545 106.1856 
L 311.125686 104.976 
L 312.601388 104.6736 
L 314.077091 104.0688 
" clip-path="url(#pad1c0f7c2a)" style="fill: none; stroke: #ff69b4; stroke-width: 1.5; stroke-linecap: square"/>
   </g>
   <g id="line2d_21">
    <path d="M 233.208595 168.7824 
" clip-path="url(#pad1c0f7c2a)" style="fill: none; stroke: #ff69b4; stroke-width: 1.5; stroke-linecap: square"/>
    <defs>
     <path id="m193dd620ef" d="M 0 5 
C 1.326016 5 2.597899 4.473168 3.535534 3.535534 
C 4.473168 2.597899 5 1.326016 5 0 
C 5 -1.326016 4.473168 -2.597899 3.535534 -3.535534 
C 2.597899 -4.473168 1.326016 -5 0 -5 
C -1.326016 -5 -2.597899 -4.473168 -3.535534 -3.535534 
C -4.473168 -2.597899 -5 -1.326016 -5 0 
C -5 1.326016 -4.473168 2.597899 -3.535534 3.535534 
C -2.597899 4.473168 -1.326016 5 0 5 
z
" style="stroke: #ff69b4"/>
    </defs>
    <g clip-path="url(#pad1c0f7c2a)">
     <use xlink:href="#m193dd620ef" x="233.208595" y="168.7824" style="fill: #ff69b4; stroke: #ff69b4"/>
    </g>
   </g>
   <g id="line2d_22">
    <path d="M 314.077091 104.0688 
" clip-path="url(#pad1c0f7c2a)" style="fill: none; stroke: #ff69b4; stroke-width: 1.5; stroke-linecap: square"/>
    <defs>
     <path id="m0826dc6b84" d="M -5 5 
L 5 5 
L 5 -5 
L -5 -5 
z
" style="stroke: #ff69b4; stroke-linejoin: miter"/>
    </defs>
    <g clip-path="url(#pad1c0f7c2a)">
     <use xlink:href="#m0826dc6b84" x="314.077091" y="104.0688" style="fill: #ff69b4; stroke: #ff69b4; stroke-linejoin: miter"/>
    </g>
   </g>
   <g id="line2d_23">
    <path d="M 221.107835 186.624 
L 224.05924 189.3456 
L 225.830083 190.2528 
L 227.010645 190.5552 
L 227.896066 190.5552 
L 229.076628 190.8576 
L 230.552331 191.16 
L 232.028033 191.4624 
L 238.225983 193.2768 
L 242.948231 194.184 
L 247.670479 194.7888 
L 251.507306 195.9984 
L 255.048992 196.9056 
L 258.885818 198.4176 
L 260.656661 199.0224 
L 262.132364 199.6272 
L 263.903207 200.232 
L 265.083769 201.1392 
L 265.96919 201.744 
L 267.149752 202.6512 
L 268.330314 203.5584 
L 269.215736 204.1632 
L 270.101157 204.768 
L 271.281719 205.3728 
L 272.16714 205.9776 
L 273.052562 206.28 
L 273.642843 206.28 
L 273.937983 206.28 
L 274.233124 205.9776 
L 275.118545 205.6752 
L 276.594248 205.6752 
L 278.660231 205.3728 
L 281.021355 205.0704 
L 283.382479 204.768 
L 285.743603 203.8608 
L 289.285289 202.9536 
L 291.941554 201.744 
L 293.417256 199.9296 
L 295.77838 198.1152 
L 298.729785 196.6032 
L 301.090909 195.0912 
L 302.861752 192.9744 
L 305.222876 191.4624 
L 306.993719 189.648 
L 307.87914 187.5312 
L 308.764562 185.7168 
L 308.469421 183.2976 
L 309.354843 181.1808 
L 309.059702 179.064 
L 308.764562 176.6448 
L 308.764562 174.528 
L 309.649983 172.4112 
L 309.649983 170.5968 
L 308.764562 168.1776 
L 308.469421 166.3632 
L 308.469421 163.944 
L 310.535405 162.7344 
L 310.240264 160.3152 
L 306.698579 157.2912 
L 304.632595 153.9648 
L 303.452033 151.5456 
L 304.632595 149.4288 
L 306.108298 147.6144 
L 306.993719 145.8 
L 307.28886 143.9856 
L 307.87914 142.4736 
L 309.945124 140.6592 
L 311.715967 139.1472 
L 312.896529 137.3328 
L 313.48681 135.5184 
L 313.78195 133.4016 
L 316.438215 132.192 
L 318.799339 130.9824 
L 320.570182 129.7728 
L 322.045884 128.5632 
L 322.931306 127.0512 
L 325.58757 125.8416 
L 327.653554 124.632 
L 330.900099 122.8176 
L 333.556364 121.9104 
" clip-path="url(#pad1c0f7c2a)" style="fill: none; stroke: #20b2aa; stroke-width: 1.5; stroke-linecap: square"/>
   </g>
   <g id="line2d_24">
    <path d="M 221.107835 186.624 
" clip-path="url(#pad1c0f7c2a)" style="fill: none; stroke: #20b2aa; stroke-width: 1.5; stroke-linecap: square"/>
    <defs>
     <path id="mcd3c436a18" d="M 0 5 
C 1.326016 5 2.597899 4.473168 3.535534 3.535534 
C 4.473168 2.597899 5 1.326016 5 0 
C 5 -1.326016 4.473168 -2.597899 3.535534 -3.535534 
C 2.597899 -4.473168 1.326016 -5 0 -5 
C -1.326016 -5 -2.597899 -4.473168 -3.535534 -3.535534 
C -4.473168 -2.597899 -5 -1.326016 -5 0 
C -5 1.326016 -4.473168 2.597899 -3.535534 3.535534 
C -2.597899 4.473168 -1.326016 5 0 5 
z
" style="stroke: #20b2aa"/>
    </defs>
    <g clip-path="url(#pad1c0f7c2a)">
     <use xlink:href="#mcd3c436a18" x="221.107835" y="186.624" style="fill: #20b2aa; stroke: #20b2aa"/>
    </g>
   </g>
   <g id="line2d_25">
    <path d="M 333.556364 121.9104 
" clip-path="url(#pad1c0f7c2a)" style="fill: none; stroke: #20b2aa; stroke-width: 1.5; stroke-linecap: square"/>
    <defs>
     <path id="m8eea4cf7c8" d="M -5 5 
L 5 5 
L 5 -5 
L -5 -5 
z
" style="stroke: #20b2aa; stroke-linejoin: miter"/>
    </defs>
    <g clip-path="url(#pad1c0f7c2a)">
     <use xlink:href="#m8eea4cf7c8" x="333.556364" y="121.9104" style="fill: #20b2aa; stroke: #20b2aa; stroke-linejoin: miter"/>
    </g>
   </g>
   <g id="line2d_26">
    <path d="M 200.15286 194.4864 
L 200.15286 194.184 
L 200.15286 193.8816 
L 199.857719 193.2768 
L 199.562579 192.9744 
L 199.562579 192.3696 
L 199.267438 192.0672 
L 199.267438 191.4624 
L 199.857719 191.4624 
L 200.15286 191.16 
L 200.15286 190.8576 
L 200.15286 190.8576 
L 200.448 190.5552 
L 200.448 190.2528 
L 200.448 189.9504 
L 200.448 189.648 
L 200.448 189.3456 
L 200.15286 188.7408 
L 200.448 188.4384 
L 200.448 187.8336 
L 200.448 187.5312 
L 200.74314 187.2288 
L 201.038281 186.9264 
L 201.038281 186.624 
L 201.333421 186.0192 
L 201.038281 185.7168 
L 200.74314 184.8096 
L 199.857719 184.2048 
L 199.267438 183.6 
L 198.677157 182.6928 
L 197.201455 181.7856 
L 196.316033 180.8784 
L 194.840331 179.6688 
L 193.364628 178.7616 
L 191.593785 177.552 
L 189.527802 176.04 
L 187.756959 175.1328 
L 185.986116 173.9232 
L 183.624992 172.1088 
L 181.854149 170.5968 
L 180.083306 169.0848 
L 178.607603 168.1776 
L 176.54162 166.6656 
L 174.475636 164.8512 
L 172.999934 163.3392 
L 171.524231 161.5248 
L 170.048529 159.7104 
L 168.867967 157.896 
L 167.982545 156.0816 
L 167.097124 154.2672 
L 166.506843 152.1504 
L 165.326281 149.7312 
L 164.44086 147.6144 
L 164.145719 145.4976 
L 163.850579 143.3808 
L 164.145719 141.264 
L 164.44086 139.1472 
L 164.736 137.3328 
L 165.03114 134.9136 
L 165.326281 132.4944 
L 165.621421 129.7728 
L 166.211702 127.3536 
L 166.801983 124.9344 
L 166.801983 122.5152 
L 167.097124 120.096 
L 167.392264 117.9792 
L 167.982545 115.56 
L 168.572826 113.7456 
L 168.867967 111.6288 
L 169.458248 109.8144 
L 170.048529 107.6976 
L 170.048529 105.8832 
L 170.343669 104.3712 
L 170.343669 102.5568 
L 170.343669 101.0448 
L 170.63881 99.5328 
L 170.048529 97.7184 
L 169.753388 96.5088 
L 169.458248 95.2992 
L 168.572826 94.0896 
L 167.687405 92.88 
L 167.097124 92.2752 
L 166.211702 91.368 
L 162.965157 89.856 
L 160.308893 88.6464 
L 158.83319 87.7392 
L 157.357488 87.4368 
L 156.472066 87.4368 
L 155.881785 87.4368 
L 154.110942 87.4368 
L 152.340099 87.7392 
L 151.159537 88.344 
L 150.569256 88.9488 
L 147.912992 89.2512 
L 146.437289 89.856 
L 144.666446 91.0656 
L 143.781025 91.6704 
L 142.895603 93.1824 
L 142.010182 94.9968 
L 141.12476 96.5088 
" clip-path="url(#pad1c0f7c2a)" style="fill: none; stroke: #a52a2a; stroke-width: 1.5; stroke-linecap: square"/>
   </g>
   <g id="line2d_27">
    <path d="M 200.15286 194.4864 
" clip-path="url(#pad1c0f7c2a)" style="fill: none; stroke: #a52a2a; stroke-width: 1.5; stroke-linecap: square"/>
    <defs>
     <path id="mbef4b5cf68" d="M 0 5 
C 1.326016 5 2.597899 4.473168 3.535534 3.535534 
C 4.473168 2.597899 5 1.326016 5 0 
C 5 -1.326016 4.473168 -2.597899 3.535534 -3.535534 
C 2.597899 -4.473168 1.326016 -5 0 -5 
C -1.326016 -5 -2.597899 -4.473168 -3.535534 -3.535534 
C -4.473168 -2.597899 -5 -1.326016 -5 0 
C -5 1.326016 -4.473168 2.597899 -3.535534 3.535534 
C -2.597899 4.473168 -1.326016 5 0 5 
z
" style="stroke: #a52a2a"/>
    </defs>
    <g clip-path="url(#pad1c0f7c2a)">
     <use xlink:href="#mbef4b5cf68" x="200.15286" y="194.4864" style="fill: #a52a2a; stroke: #a52a2a"/>
    </g>
   </g>
   <g id="line2d_28">
    <path d="M 141.12476 96.5088 
" clip-path="url(#pad1c0f7c2a)" style="fill: none; stroke: #a52a2a; stroke-width: 1.5; stroke-linecap: square"/>
    <defs>
     <path id="m7be9798b8e" d="M -5 5 
L 5 5 
L 5 -5 
L -5 -5 
z
" style="stroke: #a52a2a; stroke-linejoin: miter"/>
    </defs>
    <g clip-path="url(#pad1c0f7c2a)">
     <use xlink:href="#m7be9798b8e" x="141.12476" y="96.5088" style="fill: #a52a2a; stroke: #a52a2a; stroke-linejoin: miter"/>
    </g>
   </g>
   <g id="line2d_29">
    <path d="M 218.746711 183.9024 
L 218.746711 183.6 
L 218.746711 183.6 
L 218.746711 183.6 
L 219.041851 183.6 
L 219.336992 183.6 
L 219.336992 183.6 
L 219.632132 183.6 
L 219.927273 183.6 
L 220.222413 183.6 
L 220.517554 183.9024 
L 220.517554 183.9024 
L 220.517554 183.6 
L 220.222413 183.6 
L 220.222413 183.6 
L 220.222413 183.6 
L 219.632132 183.6 
L 219.632132 183.6 
L 219.632132 183.6 
L 219.632132 183.6 
L 219.632132 183.9024 
L 219.632132 184.2048 
L 219.336992 183.9024 
L 219.336992 183.9024 
L 219.336992 184.2048 
L 219.041851 184.2048 
L 219.041851 184.5072 
L 219.041851 184.5072 
L 219.041851 184.8096 
L 219.041851 184.8096 
L 219.336992 185.112 
L 219.336992 185.4144 
L 219.632132 185.4144 
L 220.222413 186.0192 
L 220.812694 186.0192 
L 221.698116 186.3216 
L 222.583537 186.3216 
L 223.468959 186.3216 
L 224.649521 186.624 
L 225.534942 186.3216 
L 226.715504 186.3216 
L 228.191207 186.0192 
L 229.666909 185.7168 
L 231.142612 184.8096 
L 232.323174 184.2048 
L 234.094017 183.6 
L 235.569719 182.9952 
L 238.225983 182.3904 
L 240.291967 181.7856 
L 242.948231 181.4832 
L 246.194777 181.1808 
L 249.146182 180.8784 
L 252.392727 180.576 
L 255.639273 180.2736 
L 259.180959 179.6688 
L 262.132364 179.064 
L 265.083769 178.1568 
L 268.035174 177.2496 
L 271.57686 176.3424 
L 273.052562 175.4352 
L 275.118545 174.2256 
L 276.889388 172.7136 
L 278.06995 171.504 
L 277.184529 169.6896 
L 277.184529 168.1776 
L 278.365091 166.6656 
L 278.955372 164.8512 
L 279.250512 162.432 
L 279.250512 160.3152 
L 279.250512 157.896 
L 280.135934 155.4768 
L 282.201917 153.6624 
L 285.153322 151.848 
L 286.924165 150.0336 
L 287.809587 147.9168 
L 289.285289 145.4976 
L 291.941554 143.6832 
L 293.712397 142.1712 
L 295.188099 140.3568 
L 298.729785 138.8448 
L 301.38605 137.3328 
L 303.452033 136.1232 
L 307.28886 134.6112 
L 310.830545 133.704 
L 313.48681 132.4944 
L 316.143074 131.5872 
L 319.68476 130.3776 
L 323.521587 129.4704 
L 325.58757 127.0512 
L 329.424397 125.2368 
L 334.146645 124.0272 
L 337.983471 122.5152 
L 341.230017 121.0032 
" clip-path="url(#pad1c0f7c2a)" style="fill: none; stroke: #d2691e; stroke-width: 1.5; stroke-linecap: square"/>
   </g>
   <g id="line2d_30">
    <path d="M 218.746711 183.9024 
" clip-path="url(#pad1c0f7c2a)" style="fill: none; stroke: #d2691e; stroke-width: 1.5; stroke-linecap: square"/>
    <defs>
     <path id="m5ac4c1c755" d="M 0 5 
C 1.326016 5 2.597899 4.473168 3.535534 3.535534 
C 4.473168 2.597899 5 1.326016 5 0 
C 5 -1.326016 4.473168 -2.597899 3.535534 -3.535534 
C 2.597899 -4.473168 1.326016 -5 0 -5 
C -1.326016 -5 -2.597899 -4.473168 -3.535534 -3.535534 
C -4.473168 -2.597899 -5 -1.326016 -5 0 
C -5 1.326016 -4.473168 2.597899 -3.535534 3.535534 
C -2.597899 4.473168 -1.326016 5 0 5 
z
" style="stroke: #d2691e"/>
    </defs>
    <g clip-path="url(#pad1c0f7c2a)">
     <use xlink:href="#m5ac4c1c755" x="218.746711" y="183.9024" style="fill: #d2691e; stroke: #d2691e"/>
    </g>
   </g>
   <g id="line2d_31">
    <path d="M 341.230017 121.0032 
" clip-path="url(#pad1c0f7c2a)" style="fill: none; stroke: #d2691e; stroke-width: 1.5; stroke-linecap: square"/>
    <defs>
     <path id="m27215adad5" d="M -5 5 
L 5 5 
L 5 -5 
L -5 -5 
z
" style="stroke: #d2691e; stroke-linejoin: miter"/>
    </defs>
    <g clip-path="url(#pad1c0f7c2a)">
     <use xlink:href="#m27215adad5" x="341.230017" y="121.0032" style="fill: #d2691e; stroke: #d2691e; stroke-linejoin: miter"/>
    </g>
   </g>
   <g id="line2d_32">
    <path d="M 191.888926 183.9024 
L 191.298645 183.6 
L 190.413223 182.9952 
L 189.527802 182.088 
L 188.34724 181.4832 
L 186.871537 180.8784 
L 185.395835 180.576 
L 183.624992 179.6688 
L 181.854149 179.3664 
L 179.788165 178.7616 
L 178.017322 178.4592 
L 175.951339 178.1568 
L 174.180496 178.1568 
L 172.409653 177.8544 
L 170.93395 177.552 
L 170.048529 177.552 
L 168.867967 177.2496 
L 167.982545 177.2496 
L 166.801983 176.9472 
L 166.506843 176.9472 
L 166.211702 176.9472 
L 166.211702 176.9472 
L 166.211702 177.2496 
L 165.916562 177.2496 
L 165.916562 177.552 
L 165.621421 177.552 
L 165.326281 177.8544 
L 165.03114 177.8544 
L 164.145719 177.8544 
L 163.555438 178.1568 
L 162.374876 178.1568 
L 161.489455 178.4592 
L 160.604033 178.4592 
L 160.308893 178.7616 
L 160.308893 179.064 
L 160.899174 179.3664 
L 161.784595 179.6688 
L 163.260298 180.2736 
L 165.326281 180.576 
L 167.687405 180.8784 
L 170.048529 181.4832 
L 173.295074 181.7856 
L 176.54162 182.088 
L 180.083306 182.9952 
L 183.624992 183.2976 
L 187.166678 183.9024 
L 189.527802 184.2048 
L 193.954909 184.8096 
L 196.316033 184.8096 
L 199.857719 185.112 
L 204.284826 185.4144 
L 207.826512 185.4144 
L 212.25362 186.0192 
L 215.500165 185.7168 
L 218.45157 185.7168 
L 221.698116 185.4144 
L 225.534942 185.4144 
L 229.076628 185.4144 
L 233.208595 185.4144 
L 237.635702 185.4144 
L 241.472529 185.7168 
L 245.604496 185.7168 
L 250.031603 186.0192 
L 255.344132 186.624 
L 260.656661 187.2288 
L 265.67405 187.8336 
L 269.806017 188.136 
L 275.708826 188.4384 
L 279.250512 188.136 
L 288.104727 189.0432 
L 291.941554 189.3456 
L 299.320066 189.648 
L 300.795769 189.3456 
L 307.87914 189.3456 
L 313.48681 189.3456 
L 315.257653 189.0432 
L 317.618777 189.0432 
" clip-path="url(#pad1c0f7c2a)" style="fill: none; stroke: #ffc0cb; stroke-width: 1.5; stroke-linecap: square"/>
   </g>
   <g id="line2d_33">
    <path d="M 191.888926 183.9024 
" clip-path="url(#pad1c0f7c2a)" style="fill: none; stroke: #ffc0cb; stroke-width: 1.5; stroke-linecap: square"/>
    <defs>
     <path id="m8eb59cb7ac" d="M 0 5 
C 1.326016 5 2.597899 4.473168 3.535534 3.535534 
C 4.473168 2.597899 5 1.326016 5 0 
C 5 -1.326016 4.473168 -2.597899 3.535534 -3.535534 
C 2.597899 -4.473168 1.326016 -5 0 -5 
C -1.326016 -5 -2.597899 -4.473168 -3.535534 -3.535534 
C -4.473168 -2.597899 -5 -1.326016 -5 0 
C -5 1.326016 -4.473168 2.597899 -3.535534 3.535534 
C -2.597899 4.473168 -1.326016 5 0 5 
z
" style="stroke: #ffc0cb"/>
    </defs>
    <g clip-path="url(#pad1c0f7c2a)">
     <use xlink:href="#m8eb59cb7ac" x="191.888926" y="183.9024" style="fill: #ffc0cb; stroke: #ffc0cb"/>
    </g>
   </g>
   <g id="line2d_34">
    <path d="M 317.618777 189.0432 
" clip-path="url(#pad1c0f7c2a)" style="fill: none; stroke: #ffc0cb; stroke-width: 1.5; stroke-linecap: square"/>
    <defs>
     <path id="md4b233d0c0" d="M -5 5 
L 5 5 
L 5 -5 
L -5 -5 
z
" style="stroke: #ffc0cb; stroke-linejoin: miter"/>
    </defs>
    <g clip-path="url(#pad1c0f7c2a)">
     <use xlink:href="#md4b233d0c0" x="317.618777" y="189.0432" style="fill: #ffc0cb; stroke: #ffc0cb; stroke-linejoin: miter"/>
    </g>
   </g>
   <g id="line2d_35">
    <path d="M 229.96205 264.3408 
L 225.830083 261.3168 
L 222.583537 258.2928 
L 219.927273 255.2688 
L 218.45157 252.5472 
L 218.15643 250.4304 
L 218.746711 248.3136 
L 219.927273 246.4992 
L 221.107835 244.6848 
L 221.993256 242.568 
L 221.698116 240.1488 
L 221.698116 237.7296 
L 221.402975 235.3104 
L 221.402975 233.1936 
L 221.107835 231.0768 
L 220.517554 228.3552 
L 219.632132 225.936 
L 219.041851 223.8192 
L 218.45157 221.4 
L 217.861289 218.9808 
L 217.566149 216.864 
L 217.861289 214.7472 
L 217.861289 212.6304 
L 217.861289 210.2112 
L 218.15643 207.792 
L 218.15643 205.6752 
L 219.041851 203.256 
L 219.336992 200.8368 
L 219.927273 198.1152 
L 220.222413 195.3936 
L 221.993256 193.2768 
L 223.764099 190.5552 
L 226.125223 188.136 
L 227.896066 185.4144 
L 229.371769 182.3904 
L 231.142612 179.3664 
L 233.798876 176.9472 
L 236.45514 174.2256 
L 238.521124 171.504 
L 240.587107 169.6896 
L 242.948231 167.5728 
L 245.309355 165.7584 
L 248.26076 163.944 
L 252.097587 162.1296 
L 254.458711 160.6176 
L 256.524694 158.5008 
L 259.476099 155.7792 
L 260.951802 153.0576 
L 263.017785 150.6384 
L 265.083769 147.9168 
L 268.035174 145.8 
L 270.396298 143.3808 
L 271.872 140.9616 
L 274.528264 139.1472 
L 276.299107 137.6352 
L 277.479669 136.1232 
L 278.06995 134.6112 
L 278.955372 133.0992 
L 279.840793 131.8896 
L 282.201917 131.2848 
L 283.67762 130.3776 
L 283.382479 129.168 
L 281.611636 127.3536 
L 280.726215 125.5392 
L 280.431074 124.3296 
L 280.135934 123.12 
L 279.840793 122.2128 
L 279.840793 121.3056 
L 279.545653 120.7008 
L 279.545653 120.096 
L 279.250512 119.7936 
L 278.955372 119.1888 
L 278.365091 118.8864 
" clip-path="url(#pad1c0f7c2a)" style="fill: none; stroke: #6495ed; stroke-width: 1.5; stroke-linecap: square"/>
   </g>
   <g id="line2d_36">
    <path d="M 229.96205 264.3408 
" clip-path="url(#pad1c0f7c2a)" style="fill: none; stroke: #6495ed; stroke-width: 1.5; stroke-linecap: square"/>
    <defs>
     <path id="me477eb311b" d="M 0 5 
C 1.326016 5 2.597899 4.473168 3.535534 3.535534 
C 4.473168 2.597899 5 1.326016 5 0 
C 5 -1.326016 4.473168 -2.597899 3.535534 -3.535534 
C 2.597899 -4.473168 1.326016 -5 0 -5 
C -1.326016 -5 -2.597899 -4.473168 -3.535534 -3.535534 
C -4.473168 -2.597899 -5 -1.326016 -5 0 
C -5 1.326016 -4.473168 2.597899 -3.535534 3.535534 
C -2.597899 4.473168 -1.326016 5 0 5 
z
" style="stroke: #6495ed"/>
    </defs>
    <g clip-path="url(#pad1c0f7c2a)">
     <use xlink:href="#me477eb311b" x="229.96205" y="264.3408" style="fill: #6495ed; stroke: #6495ed"/>
    </g>
   </g>
   <g id="line2d_37">
    <path d="M 278.365091 118.8864 
" clip-path="url(#pad1c0f7c2a)" style="fill: none; stroke: #6495ed; stroke-width: 1.5; stroke-linecap: square"/>
    <defs>
     <path id="m9ece178b68" d="M -5 5 
L 5 5 
L 5 -5 
L -5 -5 
z
" style="stroke: #6495ed; stroke-linejoin: miter"/>
    </defs>
    <g clip-path="url(#pad1c0f7c2a)">
     <use xlink:href="#m9ece178b68" x="278.365091" y="118.8864" style="fill: #6495ed; stroke: #6495ed; stroke-linejoin: miter"/>
    </g>
   </g>
   <g id="line2d_38">
    <path d="M 215.795306 198.4176 
L 214.319603 197.8128 
L 214.024463 197.5104 
L 212.843901 196.6032 
L 211.958479 196.3008 
L 210.777917 195.696 
L 209.892496 195.0912 
L 209.597355 195.0912 
L 208.416793 194.184 
L 207.531372 193.8816 
L 206.64595 193.2768 
L 205.170248 192.672 
L 204.284826 192.0672 
L 203.104264 191.7648 
L 201.628562 191.16 
L 199.857719 190.5552 
L 197.201455 189.648 
L 196.020893 189.3456 
L 194.840331 189.0432 
L 193.364628 188.7408 
L 191.888926 188.4384 
L 190.708364 188.136 
L 189.822942 188.136 
L 188.64238 187.8336 
L 187.756959 187.5312 
L 187.461818 187.2288 
L 186.871537 186.9264 
L 186.576397 186.624 
L 186.281256 186.0192 
L 186.871537 186.0192 
L 187.461818 185.7168 
L 187.461818 185.112 
L 187.166678 184.2048 
L 186.871537 183.2976 
L 187.166678 182.6928 
L 187.461818 181.4832 
L 187.756959 180.576 
L 188.34724 179.6688 
L 189.232661 178.4592 
L 190.413223 177.552 
L 191.888926 176.3424 
L 193.659769 175.4352 
L 195.430612 174.2256 
L 196.316033 173.6208 
L 198.382017 172.7136 
L 200.74314 171.504 
L 203.399405 169.992 
L 205.760529 168.48 
L 207.826512 166.6656 
L 210.777917 165.456 
L 213.729322 163.944 
L 216.385587 162.432 
L 219.927273 160.92 
L 223.173818 159.408 
L 226.420364 157.5936 
L 229.96205 155.7792 
L 231.732893 155.1744 
L 237.930843 153.0576 
L 241.767669 151.2432 
L 243.833653 150.6384 
L 250.326744 148.2192 
L 255.344132 146.7072 
L 260.06638 145.1952 
L 265.083769 143.6832 
L 271.281719 142.4736 
L 277.479669 141.5664 
L 283.67762 140.6592 
L 290.465851 139.752 
L 296.663802 139.1472 
L 302.566612 137.9376 
L 308.174281 137.0304 
L 312.601388 135.5184 
L 316.733355 134.0064 
L 321.750744 133.0992 
L 326.472992 131.8896 
L 329.129256 129.7728 
L 331.785521 127.0512 
L 337.983471 125.8416 
L 341.820298 123.7248 
L 342.115438 121.0032 
L 340.934876 117.9792 
L 343.59114 117.3744 
L 346.247405 116.7696 
L 346.837686 114.9552 
L 347.427967 113.4432 
L 349.49395 111.9312 
L 350.379372 110.7216 
L 350.969653 109.512 
L 350.969653 107.3952 
L 351.264793 106.1856 
L 351.264793 103.464 
" clip-path="url(#pad1c0f7c2a)" style="fill: none; stroke: #ff0000; stroke-width: 1.5; stroke-linecap: square"/>
   </g>
   <g id="line2d_39">
    <path d="M 215.795306 198.4176 
" clip-path="url(#pad1c0f7c2a)" style="fill: none; stroke: #ff0000; stroke-width: 1.5; stroke-linecap: square"/>
    <defs>
     <path id="m742ff629e4" d="M 0 5 
C 1.326016 5 2.597899 4.473168 3.535534 3.535534 
C 4.473168 2.597899 5 1.326016 5 0 
C 5 -1.326016 4.473168 -2.597899 3.535534 -3.535534 
C 2.597899 -4.473168 1.326016 -5 0 -5 
C -1.326016 -5 -2.597899 -4.473168 -3.535534 -3.535534 
C -4.473168 -2.597899 -5 -1.326016 -5 0 
C -5 1.326016 -4.473168 2.597899 -3.535534 3.535534 
C -2.597899 4.473168 -1.326016 5 0 5 
z
" style="stroke: #ff0000"/>
    </defs>
    <g clip-path="url(#pad1c0f7c2a)">
     <use xlink:href="#m742ff629e4" x="215.795306" y="198.4176" style="fill: #ff0000; stroke: #ff0000"/>
    </g>
   </g>
   <g id="line2d_40">
    <path d="M 351.264793 103.464 
" clip-path="url(#pad1c0f7c2a)" style="fill: none; stroke: #ff0000; stroke-width: 1.5; stroke-linecap: square"/>
    <defs>
     <path id="mf2e6063479" d="M -5 5 
L 5 5 
L 5 -5 
L -5 -5 
z
" style="stroke: #ff0000; stroke-linejoin: miter"/>
    </defs>
    <g clip-path="url(#pad1c0f7c2a)">
     <use xlink:href="#mf2e6063479" x="351.264793" y="103.464" style="fill: #ff0000; stroke: #ff0000; stroke-linejoin: miter"/>
    </g>
   </g>
   <g id="line2d_41">
    <path d="M 210.777917 242.568 
L 214.024463 243.1728 
L 216.680727 243.4752 
L 218.15643 243.7776 
L 219.632132 243.7776 
L 220.812694 244.08 
L 222.288397 244.08 
L 223.173818 244.3824 
L 224.944661 244.6848 
L 227.600926 244.9872 
L 228.486347 245.2896 
L 231.142612 245.592 
L 233.503736 246.8016 
L 234.684298 246.8016 
L 235.86486 246.4992 
L 239.701686 247.104 
L 245.899636 247.104 
L 247.080198 246.4992 
L 249.146182 246.4992 
L 252.983008 246.8016 
L 255.639273 246.4992 
L 261.542083 246.4992 
L 267.149752 245.592 
L 268.920595 244.9872 
L 278.955372 243.1728 
L 280.726215 242.568 
L 282.497058 242.568 
L 284.563041 242.2656 
L 288.104727 241.056 
L 291.056132 239.544 
L 291.941554 238.032 
L 290.760992 236.52 
L 289.58043 234.7056 
L 289.58043 232.8912 
L 288.990149 230.472 
L 288.990149 228.96 
L 288.695008 227.1456 
L 287.514446 224.424 
L 286.038744 222.3072 
L 284.563041 219.888 
L 280.431074 214.7472 
L 278.955372 212.328 
L 278.06995 210.2112 
L 277.479669 208.0944 
L 276.299107 205.6752 
L 272.462281 198.72 
L 269.510876 194.4864 
L 268.330314 191.7648 
L 264.493488 186.624 
L 263.312926 184.2048 
L 264.198347 182.3904 
L 262.427504 177.2496 
L 262.722645 174.8304 
L 262.427504 172.4112 
L 261.246942 169.6896 
L 259.77124 166.968 
L 258.000397 163.944 
L 255.048992 160.6176 
L 252.392727 156.9888 
L 245.014215 147.6144 
L 244.128793 144.288 
L 243.243372 141.5664 
L 235.86486 129.168 
L 234.684298 125.8416 
L 234.094017 122.8176 
L 235.274579 117.072 
L 236.16 114.3504 
L 237.340562 112.2336 
L 239.111405 110.1168 
L 241.177388 108.3024 
L 243.538512 106.488 
L 245.309355 104.976 
L 246.785058 102.8592 
L 247.96562 100.44 
L 248.26076 98.3232 
L 249.441322 96.5088 
L 250.917025 94.6944 
L 252.983008 93.4848 
L 256.524694 91.0656 
L 258.885818 89.856 
L 260.361521 88.6464 
L 262.427504 87.4368 
L 265.083769 86.5296 
L 271.872 84.7152 
L 276.594248 84.4128 
L 282.497058 84.4128 
L 288.990149 84.7152 
L 329.129256 88.344 
L 344.771702 89.2512 
L 355.39676 91.0656 
L 360.709289 92.5776 
L 365.431537 94.0896 
L 380.778843 98.0208 
L 388.747636 100.44 
L 391.699041 101.3472 
L 394.060165 102.5568 
L 396.126149 103.7664 
L 398.487273 105.5808 
L 398.487273 106.1856 
L 391.699041 106.1856 
L 355.987041 100.1376 
L 347.132826 98.928 
L 348.608529 100.44 
L 356.282182 104.3712 
L 361.00443 108 
L 363.365554 111.3264 
L 362.480132 113.4432 
L 361.00443 115.56 
L 357.757884 117.3744 
L 350.084231 120.3984 
L 345.952264 122.2128 
L 337.983471 125.2368 
L 333.556364 126.7488 
L 324.111868 130.68 
L 312.306248 134.0064 
L 308.764562 135.8208 
L 302.271471 137.0304 
L 295.48324 137.9376 
L 292.531835 140.3568 
L 287.219306 141.8688 
L 281.611636 143.0784 
L 265.378909 145.8 
L 254.753851 147.6144 
L 252.392727 148.824 
L 248.555901 150.0336 
L 244.128793 151.2432 
L 240.587107 152.7552 
L 236.45514 153.6624 
L 231.142612 153.9648 
L 226.715504 154.5696 
L 221.107835 154.872 
L 216.090446 154.872 
L 211.663339 155.1744 
L 198.382017 154.2672 
L 191.003504 153.0576 
L 183.329851 151.2432 
L 180.083306 150.0336 
L 176.83676 149.1264 
L 174.180496 148.5216 
L 170.343669 147.0096 
L 169.458248 146.4048 
L 168.867967 145.8 
L 169.458248 145.1952 
L 170.343669 144.5904 
L 171.819372 143.9856 
L 173.885355 143.3808 
L 175.951339 142.4736 
L 178.607603 141.8688 
L 187.461818 139.1472 
L 192.774347 136.728 
L 195.135471 135.8208 
L 201.923702 134.3088 
L 210.482777 132.7968 
L 214.024463 131.8896 
L 217.566149 131.2848 
L 226.420364 129.168 
L 229.666909 128.2608 
L 238.225983 125.5392 
L 242.35795 124.9344 
L 248.26076 124.632 
L 254.753851 122.5152 
L 254.753851 122.5152 
" clip-path="url(#pad1c0f7c2a)" style="fill: none; stroke: #ffa07a; stroke-width: 1.5; stroke-linecap: square"/>
   </g>
   <g id="line2d_42">
    <path d="M 210.777917 242.568 
" clip-path="url(#pad1c0f7c2a)" style="fill: none; stroke: #ffa07a; stroke-width: 1.5; stroke-linecap: square"/>
    <defs>
     <path id="mc154dffacc" d="M 0 5 
C 1.326016 5 2.597899 4.473168 3.535534 3.535534 
C 4.473168 2.597899 5 1.326016 5 0 
C 5 -1.326016 4.473168 -2.597899 3.535534 -3.535534 
C 2.597899 -4.473168 1.326016 -5 0 -5 
C -1.326016 -5 -2.597899 -4.473168 -3.535534 -3.535534 
C -4.473168 -2.597899 -5 -1.326016 -5 0 
C -5 1.326016 -4.473168 2.597899 -3.535534 3.535534 
C -2.597899 4.473168 -1.326016 5 0 5 
z
" style="stroke: #ffa07a"/>
    </defs>
    <g clip-path="url(#pad1c0f7c2a)">
     <use xlink:href="#mc154dffacc" x="210.777917" y="242.568" style="fill: #ffa07a; stroke: #ffa07a"/>
    </g>
   </g>
   <g id="line2d_43">
    <path d="M 254.753851 122.5152 
" clip-path="url(#pad1c0f7c2a)" style="fill: none; stroke: #ffa07a; stroke-width: 1.5; stroke-linecap: square"/>
    <defs>
     <path id="mc043ebde69" d="M -5 5 
L 5 5 
L 5 -5 
L -5 -5 
z
" style="stroke: #ffa07a; stroke-linejoin: miter"/>
    </defs>
    <g clip-path="url(#pad1c0f7c2a)">
     <use xlink:href="#mc043ebde69" x="254.753851" y="122.5152" style="fill: #ffa07a; stroke: #ffa07a; stroke-linejoin: miter"/>
    </g>
   </g>
   <g id="line2d_44">
    <path d="M 149.093554 213.5376 
L 148.503273 213.5376 
L 147.912992 213.84 
L 147.617851 213.84 
L 147.617851 213.84 
L 147.912992 214.1424 
L 148.208132 214.4448 
L 149.093554 214.4448 
L 150.274116 214.4448 
L 151.749818 214.7472 
L 154.701223 215.0496 
L 156.176926 215.352 
L 160.013752 215.9568 
L 163.850579 216.5616 
L 167.392264 216.864 
L 171.524231 217.4688 
L 175.951339 218.376 
L 180.673587 219.5856 
L 188.34724 221.4 
L 191.298645 221.4 
L 193.364628 220.7952 
L 197.201455 221.0976 
L 201.628562 221.4 
L 206.35081 221.7024 
L 211.958479 222.0048 
L 215.500165 222.0048 
L 214.319603 220.1904 
L 212.843901 218.6784 
L 213.434182 217.4688 
L 215.795306 217.4688 
L 219.927273 217.7712 
L 226.715504 218.9808 
L 235.569719 220.7952 
L 242.06281 222.0048 
L 246.785058 222.6096 
L 250.031603 222.912 
L 257.410116 224.424 
L 261.246942 224.7264 
L 265.378909 225.3312 
L 270.101157 225.936 
L 275.118545 225.936 
L 279.545653 226.5408 
L 281.021355 226.5408 
L 286.924165 227.448 
L 290.465851 227.7504 
L 293.417256 228.0528 
L 294.597818 228.0528 
L 296.663802 227.448 
L 297.844364 227.1456 
L 299.024926 226.8432 
L 299.615207 226.2384 
L 300.205488 225.6336 
L 299.910347 224.7264 
L 298.139504 223.8192 
L 296.073521 222.6096 
L 294.302678 221.0976 
L 292.236694 219.5856 
L 290.465851 218.0736 
L 288.399868 215.9568 
L 285.153322 213.5376 
L 283.67762 211.7232 
L 280.431074 209.304 
L 279.250512 207.4896 
L 277.184529 205.3728 
L 273.052562 202.0464 
L 269.806017 199.0224 
L 266.854612 195.696 
L 265.083769 193.2768 
L 261.246942 190.2528 
L 258.295537 186.9264 
L 257.114975 184.5072 
L 255.639273 181.7856 
L 253.86843 178.7616 
L 250.917025 175.4352 
L 249.441322 172.4112 
L 247.670479 169.6896 
L 245.604496 166.6656 
L 244.423934 163.3392 
L 243.833653 160.3152 
L 243.243372 157.5936 
L 242.653091 154.5696 
L 242.35795 153.0576 
L 240.587107 148.2192 
L 239.701686 144.8928 
L 239.406545 141.8688 
L 239.406545 140.3568 
L 240.882248 136.4256 
L 241.472529 133.704 
L 242.653091 131.2848 
L 243.538512 128.8656 
L 244.423934 126.144 
L 245.014215 123.4224 
" clip-path="url(#pad1c0f7c2a)" style="fill: none; stroke: #0000ff; stroke-width: 1.5; stroke-linecap: square"/>
   </g>
   <g id="line2d_45">
    <path d="M 149.093554 213.5376 
" clip-path="url(#pad1c0f7c2a)" style="fill: none; stroke: #0000ff; stroke-width: 1.5; stroke-linecap: square"/>
    <g clip-path="url(#pad1c0f7c2a)">
     <use xlink:href="#mc453705c24" x="149.093554" y="213.5376" style="fill: #0000ff; stroke: #0000ff"/>
    </g>
   </g>
   <g id="line2d_46">
    <path d="M 245.014215 123.4224 
" clip-path="url(#pad1c0f7c2a)" style="fill: none; stroke: #0000ff; stroke-width: 1.5; stroke-linecap: square"/>
    <g clip-path="url(#pad1c0f7c2a)">
     <use xlink:href="#mda476c4696" x="245.014215" y="123.4224" style="fill: #0000ff; stroke: #0000ff; stroke-linejoin: miter"/>
    </g>
   </g>
   <g id="patch_3">
    <path d="M 57.6 307.584 
L 57.6 41.472 
" style="fill: none; stroke: #000000; stroke-width: 0.8; stroke-linejoin: miter; stroke-linecap: square"/>
   </g>
   <g id="patch_4">
    <path d="M 57.6 307.584 
L 414.72 307.584 
" style="fill: none; stroke: #000000; stroke-width: 0.8; stroke-linejoin: miter; stroke-linecap: square"/>
   </g>
   <g id="legend_1">
    <g id="patch_5">
     <path d="M 282.164531 119.523563 
L 404.22 119.523563 
Q 407.22 119.523563 407.22 116.523563 
L 407.22 51.972 
Q 407.22 48.972 404.22 48.972 
L 282.164531 48.972 
Q 279.164531 48.972 279.164531 51.972 
L 279.164531 116.523563 
Q 279.164531 119.523563 282.164531 119.523563 
z
" style="fill: #ffffff; opacity: 0.8; stroke: #cccccc; stroke-linejoin: miter"/>
    </g>
    <g id="line2d_47">
     <path d="M 285.164531 61.119656 
L 300.164531 61.119656 
L 315.164531 61.119656 
" style="fill: none; stroke: #000000; stroke-width: 1.5; stroke-linecap: square"/>
    </g>
    <g id="text_7">
     <!-- Trajectory -->
     <g transform="translate(327.164531 66.369656)scale(0.15 -0.15)">
      <defs>
       <path id="DejaVuSans-54" d="M -19 4666 
L 3928 4666 
L 3928 4134 
L 2272 4134 
L 2272 0 
L 1638 0 
L 1638 4134 
L -19 4134 
L -19 4666 
z
" transform="scale(0.015625)"/>
       <path id="DejaVuSans-72" d="M 2631 2963 
Q 2534 3019 2420 3045 
Q 2306 3072 2169 3072 
Q 1681 3072 1420 2755 
Q 1159 2438 1159 1844 
L 1159 0 
L 581 0 
L 581 3500 
L 1159 3500 
L 1159 2956 
Q 1341 3275 1631 3429 
Q 1922 3584 2338 3584 
Q 2397 3584 2469 3576 
Q 2541 3569 2628 3553 
L 2631 2963 
z
" transform="scale(0.015625)"/>
       <path id="DejaVuSans-61" d="M 2194 1759 
Q 1497 1759 1228 1600 
Q 959 1441 959 1056 
Q 959 750 1161 570 
Q 1363 391 1709 391 
Q 2188 391 2477 730 
Q 2766 1069 2766 1631 
L 2766 1759 
L 2194 1759 
z
M 3341 1997 
L 3341 0 
L 2766 0 
L 2766 531 
Q 2569 213 2275 61 
Q 1981 -91 1556 -91 
Q 1019 -91 701 211 
Q 384 513 384 1019 
Q 384 1609 779 1909 
Q 1175 2209 1959 2209 
L 2766 2209 
L 2766 2266 
Q 2766 2663 2505 2880 
Q 2244 3097 1772 3097 
Q 1472 3097 1187 3025 
Q 903 2953 641 2809 
L 641 3341 
Q 956 3463 1253 3523 
Q 1550 3584 1831 3584 
Q 2591 3584 2966 3190 
Q 3341 2797 3341 1997 
z
" transform="scale(0.015625)"/>
       <path id="DejaVuSans-6a" d="M 603 3500 
L 1178 3500 
L 1178 -63 
Q 1178 -731 923 -1031 
Q 669 -1331 103 -1331 
L -116 -1331 
L -116 -844 
L 38 -844 
Q 366 -844 484 -692 
Q 603 -541 603 -63 
L 603 3500 
z
M 603 4863 
L 1178 4863 
L 1178 4134 
L 603 4134 
L 603 4863 
z
" transform="scale(0.015625)"/>
       <path id="DejaVuSans-65" d="M 3597 1894 
L 3597 1613 
L 953 1613 
Q 991 1019 1311 708 
Q 1631 397 2203 397 
Q 2534 397 2845 478 
Q 3156 559 3463 722 
L 3463 178 
Q 3153 47 2828 -22 
Q 2503 -91 2169 -91 
Q 1331 -91 842 396 
Q 353 884 353 1716 
Q 353 2575 817 3079 
Q 1281 3584 2069 3584 
Q 2775 3584 3186 3129 
Q 3597 2675 3597 1894 
z
M 3022 2063 
Q 3016 2534 2758 2815 
Q 2500 3097 2075 3097 
Q 1594 3097 1305 2825 
Q 1016 2553 972 2059 
L 3022 2063 
z
" transform="scale(0.015625)"/>
       <path id="DejaVuSans-63" d="M 3122 3366 
L 3122 2828 
Q 2878 2963 2633 3030 
Q 2388 3097 2138 3097 
Q 1578 3097 1268 2742 
Q 959 2388 959 1747 
Q 959 1106 1268 751 
Q 1578 397 2138 397 
Q 2388 397 2633 464 
Q 2878 531 3122 666 
L 3122 134 
Q 2881 22 2623 -34 
Q 2366 -91 2075 -91 
Q 1284 -91 818 406 
Q 353 903 353 1747 
Q 353 2603 823 3093 
Q 1294 3584 2113 3584 
Q 2378 3584 2631 3529 
Q 2884 3475 3122 3366 
z
" transform="scale(0.015625)"/>
       <path id="DejaVuSans-74" d="M 1172 4494 
L 1172 3500 
L 2356 3500 
L 2356 3053 
L 1172 3053 
L 1172 1153 
Q 1172 725 1289 603 
Q 1406 481 1766 481 
L 2356 481 
L 2356 0 
L 1766 0 
Q 1100 0 847 248 
Q 594 497 594 1153 
L 594 3053 
L 172 3053 
L 172 3500 
L 594 3500 
L 594 4494 
L 1172 4494 
z
" transform="scale(0.015625)"/>
       <path id="DejaVuSans-6f" d="M 1959 3097 
Q 1497 3097 1228 2736 
Q 959 2375 959 1747 
Q 959 1119 1226 758 
Q 1494 397 1959 397 
Q 2419 397 2687 759 
Q 2956 1122 2956 1747 
Q 2956 2369 2687 2733 
Q 2419 3097 1959 3097 
z
M 1959 3584 
Q 2709 3584 3137 3096 
Q 3566 2609 3566 1747 
Q 3566 888 3137 398 
Q 2709 -91 1959 -91 
Q 1206 -91 779 398 
Q 353 888 353 1747 
Q 353 2609 779 3096 
Q 1206 3584 1959 3584 
z
" transform="scale(0.015625)"/>
       <path id="DejaVuSans-79" d="M 2059 -325 
Q 1816 -950 1584 -1140 
Q 1353 -1331 966 -1331 
L 506 -1331 
L 506 -850 
L 844 -850 
Q 1081 -850 1212 -737 
Q 1344 -625 1503 -206 
L 1606 56 
L 191 3500 
L 800 3500 
L 1894 763 
L 2988 3500 
L 3597 3500 
L 2059 -325 
z
" transform="scale(0.015625)"/>
      </defs>
      <use xlink:href="#DejaVuSans-54"/>
      <use xlink:href="#DejaVuSans-72" x="46.333984"/>
      <use xlink:href="#DejaVuSans-61" x="87.447266"/>
      <use xlink:href="#DejaVuSans-6a" x="148.726562"/>
      <use xlink:href="#DejaVuSans-65" x="176.509766"/>
      <use xlink:href="#DejaVuSans-63" x="238.033203"/>
      <use xlink:href="#DejaVuSans-74" x="293.013672"/>
      <use xlink:href="#DejaVuSans-6f" x="332.222656"/>
      <use xlink:href="#DejaVuSans-72" x="393.404297"/>
      <use xlink:href="#DejaVuSans-79" x="434.517578"/>
     </g>
    </g>
    <g id="line2d_48">
     <path d="M 285.164531 83.136844 
L 300.164531 83.136844 
L 315.164531 83.136844 
" style="fill: none; stroke: #000000; stroke-width: 1.5; stroke-linecap: square"/>
     <g>
      <use xlink:href="#mc986ddf38e" x="300.164531" y="83.136844" style="stroke: #000000"/>
     </g>
    </g>
    <g id="text_8">
     <!-- Start -->
     <g transform="translate(327.164531 88.386844)scale(0.15 -0.15)">
      <defs>
       <path id="DejaVuSans-53" d="M 3425 4513 
L 3425 3897 
Q 3066 4069 2747 4153 
Q 2428 4238 2131 4238 
Q 1616 4238 1336 4038 
Q 1056 3838 1056 3469 
Q 1056 3159 1242 3001 
Q 1428 2844 1947 2747 
L 2328 2669 
Q 3034 2534 3370 2195 
Q 3706 1856 3706 1288 
Q 3706 609 3251 259 
Q 2797 -91 1919 -91 
Q 1588 -91 1214 -16 
Q 841 59 441 206 
L 441 856 
Q 825 641 1194 531 
Q 1563 422 1919 422 
Q 2459 422 2753 634 
Q 3047 847 3047 1241 
Q 3047 1584 2836 1778 
Q 2625 1972 2144 2069 
L 1759 2144 
Q 1053 2284 737 2584 
Q 422 2884 422 3419 
Q 422 4038 858 4394 
Q 1294 4750 2059 4750 
Q 2388 4750 2728 4690 
Q 3069 4631 3425 4513 
z
" transform="scale(0.015625)"/>
      </defs>
      <use xlink:href="#DejaVuSans-53"/>
      <use xlink:href="#DejaVuSans-74" x="63.476562"/>
      <use xlink:href="#DejaVuSans-61" x="102.685547"/>
      <use xlink:href="#DejaVuSans-72" x="163.964844"/>
      <use xlink:href="#DejaVuSans-74" x="205.078125"/>
     </g>
    </g>
    <g id="line2d_49">
     <path d="M 285.164531 105.154031 
L 300.164531 105.154031 
L 315.164531 105.154031 
" style="fill: none; stroke: #000000; stroke-width: 1.5; stroke-linecap: square"/>
     <g>
      <use xlink:href="#m84a993639b" x="300.164531" y="105.154031" style="stroke: #000000; stroke-linejoin: miter"/>
     </g>
    </g>
    <g id="text_9">
     <!-- End -->
     <g transform="translate(327.164531 110.404031)scale(0.15 -0.15)">
      <defs>
       <path id="DejaVuSans-45" d="M 628 4666 
L 3578 4666 
L 3578 4134 
L 1259 4134 
L 1259 2753 
L 3481 2753 
L 3481 2222 
L 1259 2222 
L 1259 531 
L 3634 531 
L 3634 0 
L 628 0 
L 628 4666 
z
" transform="scale(0.015625)"/>
       <path id="DejaVuSans-6e" d="M 3513 2113 
L 3513 0 
L 2938 0 
L 2938 2094 
Q 2938 2591 2744 2837 
Q 2550 3084 2163 3084 
Q 1697 3084 1428 2787 
Q 1159 2491 1159 1978 
L 1159 0 
L 581 0 
L 581 3500 
L 1159 3500 
L 1159 2956 
Q 1366 3272 1645 3428 
Q 1925 3584 2291 3584 
Q 2894 3584 3203 3211 
Q 3513 2838 3513 2113 
z
" transform="scale(0.015625)"/>
       <path id="DejaVuSans-64" d="M 2906 2969 
L 2906 4863 
L 3481 4863 
L 3481 0 
L 2906 0 
L 2906 525 
Q 2725 213 2448 61 
Q 2172 -91 1784 -91 
Q 1150 -91 751 415 
Q 353 922 353 1747 
Q 353 2572 751 3078 
Q 1150 3584 1784 3584 
Q 2172 3584 2448 3432 
Q 2725 3281 2906 2969 
z
M 947 1747 
Q 947 1113 1208 752 
Q 1469 391 1925 391 
Q 2381 391 2643 752 
Q 2906 1113 2906 1747 
Q 2906 2381 2643 2742 
Q 2381 3103 1925 3103 
Q 1469 3103 1208 2742 
Q 947 2381 947 1747 
z
" transform="scale(0.015625)"/>
      </defs>
      <use xlink:href="#DejaVuSans-45"/>
      <use xlink:href="#DejaVuSans-6e" x="63.183594"/>
      <use xlink:href="#DejaVuSans-64" x="126.5625"/>
     </g>
    </g>
   </g>
  </g>
 </g>
 <defs>
  <clipPath id="pad1c0f7c2a">
   <rect x="57.6" y="41.472" width="357.12" height="266.112"/>
  </clipPath>
 </defs>
</svg>
