<?xml version="1.0" encoding="utf-8" standalone="no"?>
<!DOCTYPE svg PUBLIC "-//W3C//DTD SVG 1.1//EN"
  "http://www.w3.org/Graphics/SVG/1.1/DTD/svg11.dtd">
<svg xmlns:xlink="http://www.w3.org/1999/xlink" width="460.8pt" height="345.6pt" viewBox="0 0 460.8 345.6" xmlns="http://www.w3.org/2000/svg" version="1.1">
 <metadata>
  <rdf:RDF xmlns:dc="http://purl.org/dc/elements/1.1/" xmlns:cc="http://creativecommons.org/ns#" xmlns:rdf="http://www.w3.org/1999/02/22-rdf-syntax-ns#">
   <cc:Work>
    <dc:type rdf:resource="http://purl.org/dc/dcmitype/StillImage"/>
    <dc:date>2024-02-14T14:13:10.846127</dc:date>
    <dc:format>image/svg+xml</dc:format>
    <dc:creator>
     <cc:Agent>
      <dc:title>Matplotlib v3.5.0, https://matplotlib.org/</dc:title>
     </cc:Agent>
    </dc:creator>
   </cc:Work>
  </rdf:RDF>
 </metadata>
 <defs>
  <style type="text/css">*{stroke-linejoin: round; stroke-linecap: butt}</style>
 </defs>
 <g id="figure_1">
  <g id="patch_1">
   <path d="M 0 345.6 
L 460.8 345.6 
L 460.8 0 
L 0 0 
z
" style="fill: #ffffff"/>
  </g>
  <g id="axes_1">
   <g id="patch_2">
    <path d="M 57.6 307.584 
L 414.72 307.584 
L 414.72 41.472 
L 57.6 41.472 
z
" style="fill: #ffffff"/>
   </g>
   <g id="matplotlib.axis_1">
    <g id="xtick_1">
     <g id="line2d_1">
      <defs>
       <path id="mdceab6e6fa" d="M 0 0 
L 0 3.5 
" style="stroke: #000000; stroke-width: 0.8"/>
      </defs>
      <g>
       <use xlink:href="#mdceab6e6fa" x="73.832727" y="307.584" style="stroke: #000000; stroke-width: 0.8"/>
      </g>
     </g>
     <g id="text_1">
      <!-- 0 -->
      <g transform="translate(67.470227 329.780875)scale(0.2 -0.2)">
       <defs>
        <path id="DejaVuSans-30" d="M 2034 4250 
Q 1547 4250 1301 3770 
Q 1056 3291 1056 2328 
Q 1056 1369 1301 889 
Q 1547 409 2034 409 
Q 2525 409 2770 889 
Q 3016 1369 3016 2328 
Q 3016 3291 2770 3770 
Q 2525 4250 2034 4250 
z
M 2034 4750 
Q 2819 4750 3233 4129 
Q 3647 3509 3647 2328 
Q 3647 1150 3233 529 
Q 2819 -91 2034 -91 
Q 1250 -91 836 529 
Q 422 1150 422 2328 
Q 422 3509 836 4129 
Q 1250 4750 2034 4750 
z
" transform="scale(0.015625)"/>
       </defs>
       <use xlink:href="#DejaVuSans-30"/>
      </g>
     </g>
    </g>
    <g id="xtick_2">
     <g id="line2d_2">
      <g>
       <use xlink:href="#mdceab6e6fa" x="399.962975" y="307.584" style="stroke: #000000; stroke-width: 0.8"/>
      </g>
     </g>
     <g id="text_2">
      <!-- 1 -->
      <g transform="translate(393.600475 329.780875)scale(0.2 -0.2)">
       <defs>
        <path id="DejaVuSans-31" d="M 794 531 
L 1825 531 
L 1825 4091 
L 703 3866 
L 703 4441 
L 1819 4666 
L 2450 4666 
L 2450 531 
L 3481 531 
L 3481 0 
L 794 0 
L 794 531 
z
" transform="scale(0.015625)"/>
       </defs>
       <use xlink:href="#DejaVuSans-31"/>
      </g>
     </g>
    </g>
    <g id="text_3">
     <!-- Normalised X position -->
     <g transform="translate(111.795937 353.137125)scale(0.2 -0.2)">
      <defs>
       <path id="DejaVuSans-Bold-4e" d="M 588 4666 
L 1931 4666 
L 3628 1466 
L 3628 4666 
L 4769 4666 
L 4769 0 
L 3425 0 
L 1728 3200 
L 1728 0 
L 588 0 
L 588 4666 
z
" transform="scale(0.015625)"/>
       <path id="DejaVuSans-Bold-6f" d="M 2203 2784 
Q 1831 2784 1636 2517 
Q 1441 2250 1441 1747 
Q 1441 1244 1636 976 
Q 1831 709 2203 709 
Q 2569 709 2762 976 
Q 2956 1244 2956 1747 
Q 2956 2250 2762 2517 
Q 2569 2784 2203 2784 
z
M 2203 3584 
Q 3106 3584 3614 3096 
Q 4122 2609 4122 1747 
Q 4122 884 3614 396 
Q 3106 -91 2203 -91 
Q 1297 -91 786 396 
Q 275 884 275 1747 
Q 275 2609 786 3096 
Q 1297 3584 2203 3584 
z
" transform="scale(0.015625)"/>
       <path id="DejaVuSans-Bold-72" d="M 3138 2547 
Q 2991 2616 2845 2648 
Q 2700 2681 2553 2681 
Q 2122 2681 1889 2404 
Q 1656 2128 1656 1613 
L 1656 0 
L 538 0 
L 538 3500 
L 1656 3500 
L 1656 2925 
Q 1872 3269 2151 3426 
Q 2431 3584 2822 3584 
Q 2878 3584 2943 3579 
Q 3009 3575 3134 3559 
L 3138 2547 
z
" transform="scale(0.015625)"/>
       <path id="DejaVuSans-Bold-6d" d="M 3781 2919 
Q 3994 3244 4286 3414 
Q 4578 3584 4928 3584 
Q 5531 3584 5847 3212 
Q 6163 2841 6163 2131 
L 6163 0 
L 5038 0 
L 5038 1825 
Q 5041 1866 5042 1909 
Q 5044 1953 5044 2034 
Q 5044 2406 4934 2573 
Q 4825 2741 4581 2741 
Q 4263 2741 4089 2478 
Q 3916 2216 3909 1719 
L 3909 0 
L 2784 0 
L 2784 1825 
Q 2784 2406 2684 2573 
Q 2584 2741 2328 2741 
Q 2006 2741 1831 2477 
Q 1656 2213 1656 1722 
L 1656 0 
L 531 0 
L 531 3500 
L 1656 3500 
L 1656 2988 
Q 1863 3284 2130 3434 
Q 2397 3584 2719 3584 
Q 3081 3584 3359 3409 
Q 3638 3234 3781 2919 
z
" transform="scale(0.015625)"/>
       <path id="DejaVuSans-Bold-61" d="M 2106 1575 
Q 1756 1575 1579 1456 
Q 1403 1338 1403 1106 
Q 1403 894 1545 773 
Q 1688 653 1941 653 
Q 2256 653 2472 879 
Q 2688 1106 2688 1447 
L 2688 1575 
L 2106 1575 
z
M 3816 1997 
L 3816 0 
L 2688 0 
L 2688 519 
Q 2463 200 2181 54 
Q 1900 -91 1497 -91 
Q 953 -91 614 226 
Q 275 544 275 1050 
Q 275 1666 698 1953 
Q 1122 2241 2028 2241 
L 2688 2241 
L 2688 2328 
Q 2688 2594 2478 2717 
Q 2269 2841 1825 2841 
Q 1466 2841 1156 2769 
Q 847 2697 581 2553 
L 581 3406 
Q 941 3494 1303 3539 
Q 1666 3584 2028 3584 
Q 2975 3584 3395 3211 
Q 3816 2838 3816 1997 
z
" transform="scale(0.015625)"/>
       <path id="DejaVuSans-Bold-6c" d="M 538 4863 
L 1656 4863 
L 1656 0 
L 538 0 
L 538 4863 
z
" transform="scale(0.015625)"/>
       <path id="DejaVuSans-Bold-69" d="M 538 3500 
L 1656 3500 
L 1656 0 
L 538 0 
L 538 3500 
z
M 538 4863 
L 1656 4863 
L 1656 3950 
L 538 3950 
L 538 4863 
z
" transform="scale(0.015625)"/>
       <path id="DejaVuSans-Bold-73" d="M 3272 3391 
L 3272 2541 
Q 2913 2691 2578 2766 
Q 2244 2841 1947 2841 
Q 1628 2841 1473 2761 
Q 1319 2681 1319 2516 
Q 1319 2381 1436 2309 
Q 1553 2238 1856 2203 
L 2053 2175 
Q 2913 2066 3209 1816 
Q 3506 1566 3506 1031 
Q 3506 472 3093 190 
Q 2681 -91 1863 -91 
Q 1516 -91 1145 -36 
Q 775 19 384 128 
L 384 978 
Q 719 816 1070 734 
Q 1422 653 1784 653 
Q 2113 653 2278 743 
Q 2444 834 2444 1013 
Q 2444 1163 2330 1236 
Q 2216 1309 1875 1350 
L 1678 1375 
Q 931 1469 631 1722 
Q 331 1975 331 2491 
Q 331 3047 712 3315 
Q 1094 3584 1881 3584 
Q 2191 3584 2531 3537 
Q 2872 3491 3272 3391 
z
" transform="scale(0.015625)"/>
       <path id="DejaVuSans-Bold-65" d="M 4031 1759 
L 4031 1441 
L 1416 1441 
Q 1456 1047 1700 850 
Q 1944 653 2381 653 
Q 2734 653 3104 758 
Q 3475 863 3866 1075 
L 3866 213 
Q 3469 63 3072 -14 
Q 2675 -91 2278 -91 
Q 1328 -91 801 392 
Q 275 875 275 1747 
Q 275 2603 792 3093 
Q 1309 3584 2216 3584 
Q 3041 3584 3536 3087 
Q 4031 2591 4031 1759 
z
M 2881 2131 
Q 2881 2450 2695 2645 
Q 2509 2841 2209 2841 
Q 1884 2841 1681 2658 
Q 1478 2475 1428 2131 
L 2881 2131 
z
" transform="scale(0.015625)"/>
       <path id="DejaVuSans-Bold-64" d="M 2919 2988 
L 2919 4863 
L 4044 4863 
L 4044 0 
L 2919 0 
L 2919 506 
Q 2688 197 2409 53 
Q 2131 -91 1766 -91 
Q 1119 -91 703 423 
Q 288 938 288 1747 
Q 288 2556 703 3070 
Q 1119 3584 1766 3584 
Q 2128 3584 2408 3439 
Q 2688 3294 2919 2988 
z
M 2181 722 
Q 2541 722 2730 984 
Q 2919 1247 2919 1747 
Q 2919 2247 2730 2509 
Q 2541 2772 2181 2772 
Q 1825 2772 1636 2509 
Q 1447 2247 1447 1747 
Q 1447 1247 1636 984 
Q 1825 722 2181 722 
z
" transform="scale(0.015625)"/>
       <path id="DejaVuSans-Bold-20" transform="scale(0.015625)"/>
       <path id="DejaVuSans-Bold-58" d="M 3188 2381 
L 4806 0 
L 3553 0 
L 2463 1594 
L 1381 0 
L 122 0 
L 1741 2381 
L 184 4666 
L 1441 4666 
L 2463 3163 
L 3481 4666 
L 4744 4666 
L 3188 2381 
z
" transform="scale(0.015625)"/>
       <path id="DejaVuSans-Bold-70" d="M 1656 506 
L 1656 -1331 
L 538 -1331 
L 538 3500 
L 1656 3500 
L 1656 2988 
Q 1888 3294 2169 3439 
Q 2450 3584 2816 3584 
Q 3463 3584 3878 3070 
Q 4294 2556 4294 1747 
Q 4294 938 3878 423 
Q 3463 -91 2816 -91 
Q 2450 -91 2169 54 
Q 1888 200 1656 506 
z
M 2400 2772 
Q 2041 2772 1848 2508 
Q 1656 2244 1656 1747 
Q 1656 1250 1848 986 
Q 2041 722 2400 722 
Q 2759 722 2948 984 
Q 3138 1247 3138 1747 
Q 3138 2247 2948 2509 
Q 2759 2772 2400 2772 
z
" transform="scale(0.015625)"/>
       <path id="DejaVuSans-Bold-74" d="M 1759 4494 
L 1759 3500 
L 2913 3500 
L 2913 2700 
L 1759 2700 
L 1759 1216 
Q 1759 972 1856 886 
Q 1953 800 2241 800 
L 2816 800 
L 2816 0 
L 1856 0 
Q 1194 0 917 276 
Q 641 553 641 1216 
L 641 2700 
L 84 2700 
L 84 3500 
L 641 3500 
L 641 4494 
L 1759 4494 
z
" transform="scale(0.015625)"/>
       <path id="DejaVuSans-Bold-6e" d="M 4056 2131 
L 4056 0 
L 2931 0 
L 2931 347 
L 2931 1631 
Q 2931 2084 2911 2256 
Q 2891 2428 2841 2509 
Q 2775 2619 2662 2680 
Q 2550 2741 2406 2741 
Q 2056 2741 1856 2470 
Q 1656 2200 1656 1722 
L 1656 0 
L 538 0 
L 538 3500 
L 1656 3500 
L 1656 2988 
Q 1909 3294 2193 3439 
Q 2478 3584 2822 3584 
Q 3428 3584 3742 3212 
Q 4056 2841 4056 2131 
z
" transform="scale(0.015625)"/>
      </defs>
      <use xlink:href="#DejaVuSans-Bold-4e"/>
      <use xlink:href="#DejaVuSans-Bold-6f" x="83.691406"/>
      <use xlink:href="#DejaVuSans-Bold-72" x="152.392578"/>
      <use xlink:href="#DejaVuSans-Bold-6d" x="201.708984"/>
      <use xlink:href="#DejaVuSans-Bold-61" x="305.908203"/>
      <use xlink:href="#DejaVuSans-Bold-6c" x="373.388672"/>
      <use xlink:href="#DejaVuSans-Bold-69" x="407.666016"/>
      <use xlink:href="#DejaVuSans-Bold-73" x="441.943359"/>
      <use xlink:href="#DejaVuSans-Bold-65" x="501.464844"/>
      <use xlink:href="#DejaVuSans-Bold-64" x="569.287109"/>
      <use xlink:href="#DejaVuSans-Bold-20" x="640.869141"/>
      <use xlink:href="#DejaVuSans-Bold-58" x="675.683594"/>
      <use xlink:href="#DejaVuSans-Bold-20" x="752.783203"/>
      <use xlink:href="#DejaVuSans-Bold-70" x="787.597656"/>
      <use xlink:href="#DejaVuSans-Bold-6f" x="859.179688"/>
      <use xlink:href="#DejaVuSans-Bold-73" x="927.880859"/>
      <use xlink:href="#DejaVuSans-Bold-69" x="987.402344"/>
      <use xlink:href="#DejaVuSans-Bold-74" x="1021.679688"/>
      <use xlink:href="#DejaVuSans-Bold-69" x="1069.482422"/>
      <use xlink:href="#DejaVuSans-Bold-6f" x="1103.759766"/>
      <use xlink:href="#DejaVuSans-Bold-6e" x="1172.460938"/>
     </g>
    </g>
   </g>
   <g id="matplotlib.axis_2">
    <g id="ytick_1">
     <g id="line2d_3">
      <defs>
       <path id="mfdd917d15f" d="M 0 0 
L -3.5 0 
" style="stroke: #000000; stroke-width: 0.8"/>
      </defs>
      <g>
       <use xlink:href="#mfdd917d15f" x="57.6" y="297" style="stroke: #000000; stroke-width: 0.8"/>
      </g>
     </g>
     <g id="text_4">
      <!-- 0 -->
      <g transform="translate(37.875 304.598437)scale(0.2 -0.2)">
       <use xlink:href="#DejaVuSans-30"/>
      </g>
     </g>
    </g>
    <g id="ytick_2">
     <g id="line2d_4">
      <g>
       <use xlink:href="#mfdd917d15f" x="57.6" y="53.568" style="stroke: #000000; stroke-width: 0.8"/>
      </g>
     </g>
     <g id="text_5">
      <!-- 1 -->
      <g transform="translate(37.875 61.166438)scale(0.2 -0.2)">
       <use xlink:href="#DejaVuSans-31"/>
      </g>
     </g>
    </g>
    <g id="text_6">
     <!-- Normalised Y position -->
     <g transform="translate(29.715625 298.423313)rotate(-90)scale(0.2 -0.2)">
      <defs>
       <path id="DejaVuSans-Bold-59" d="M -63 4666 
L 1253 4666 
L 2316 3003 
L 3378 4666 
L 4697 4666 
L 2919 1966 
L 2919 0 
L 1716 0 
L 1716 1966 
L -63 4666 
z
" transform="scale(0.015625)"/>
      </defs>
      <use xlink:href="#DejaVuSans-Bold-4e"/>
      <use xlink:href="#DejaVuSans-Bold-6f" x="83.691406"/>
      <use xlink:href="#DejaVuSans-Bold-72" x="152.392578"/>
      <use xlink:href="#DejaVuSans-Bold-6d" x="201.708984"/>
      <use xlink:href="#DejaVuSans-Bold-61" x="305.908203"/>
      <use xlink:href="#DejaVuSans-Bold-6c" x="373.388672"/>
      <use xlink:href="#DejaVuSans-Bold-69" x="407.666016"/>
      <use xlink:href="#DejaVuSans-Bold-73" x="441.943359"/>
      <use xlink:href="#DejaVuSans-Bold-65" x="501.464844"/>
      <use xlink:href="#DejaVuSans-Bold-64" x="569.287109"/>
      <use xlink:href="#DejaVuSans-Bold-20" x="640.869141"/>
      <use xlink:href="#DejaVuSans-Bold-59" x="675.683594"/>
      <use xlink:href="#DejaVuSans-Bold-20" x="748.095703"/>
      <use xlink:href="#DejaVuSans-Bold-70" x="782.910156"/>
      <use xlink:href="#DejaVuSans-Bold-6f" x="854.492188"/>
      <use xlink:href="#DejaVuSans-Bold-73" x="923.193359"/>
      <use xlink:href="#DejaVuSans-Bold-69" x="982.714844"/>
      <use xlink:href="#DejaVuSans-Bold-74" x="1016.992188"/>
      <use xlink:href="#DejaVuSans-Bold-69" x="1064.794922"/>
      <use xlink:href="#DejaVuSans-Bold-6f" x="1099.072266"/>
      <use xlink:href="#DejaVuSans-Bold-6e" x="1167.773438"/>
     </g>
    </g>
   </g>
   <g id="line2d_5">
    <path d="M 299.024926 127.9584 
L 303.747174 132.4944 
L 313.191669 142.776 
L 317.618777 147.9168 
L 323.816727 155.7792 
L 333.851504 171.2016 
L 336.507769 176.04 
L 339.164033 180.576 
L 344.181421 188.7408 
L 347.723107 196.6032 
L 349.49395 199.9296 
L 350.969653 203.5584 
L 352.445355 206.5824 
L 354.806479 212.328 
L 355.987041 215.0496 
L 357.757884 220.1904 
L 358.643306 226.2384 
L 358.643306 229.8672 
L 357.757884 231.3792 
L 355.987041 233.1936 
L 355.39676 233.496 
L 352.150215 233.496 
L 350.969653 233.1936 
L 350.379372 233.1936 
L 348.608529 232.8912 
L 348.018248 232.5888 
L 346.542545 232.2864 
L 343.886281 231.984 
L 342.410579 231.6816 
L 340.344595 231.6816 
L 336.212628 231.0768 
L 332.080661 230.472 
L 324.997289 228.6576 
L 319.979901 226.8432 
L 309.354843 224.424 
L 306.993719 224.1216 
L 302.861752 221.7024 
L 298.434645 219.888 
L 293.122116 216.2592 
L 291.351273 215.352 
L 289.285289 214.7472 
L 287.809587 213.84 
L 285.743603 213.2352 
L 284.267901 212.0256 
L 283.087339 210.816 
L 281.316496 209.304 
L 279.840793 208.6992 
L 276.594248 208.0944 
L 273.937983 207.4896 
L 272.757421 206.8848 
L 268.330314 204.1632 
L 266.559471 203.5584 
L 261.837223 199.6272 
L 259.476099 198.72 
L 258.000397 197.8128 
L 255.934413 196.9056 
L 254.16357 195.9984 
L 252.392727 194.7888 
L 250.326744 193.8816 
L 248.26076 192.672 
L 246.489917 191.4624 
L 240.291967 187.8336 
L 238.521124 186.9264 
L 236.750281 185.7168 
L 232.618314 183.2976 
L 230.552331 182.3904 
L 228.486347 181.1808 
L 226.715504 180.2736 
L 222.583537 178.4592 
L 215.205025 175.7376 
L 212.25362 174.8304 
L 209.007074 173.6208 
L 202.218843 171.8064 
L 193.659769 169.992 
L 188.64238 168.48 
L 172.704793 164.5488 
L 160.604033 162.1296 
L 157.357488 161.5248 
L 125.482314 154.872 
L 118.103802 153.36 
L 111.02043 151.5456 
L 103.937058 150.0336 
L 97.148826 148.2192 
L 90.655736 146.7072 
L 73.832727 143.3808 
L 73.832727 134.9136 
L 73.832727 135.5184 
L 74.423008 135.8208 
L 75.013289 136.4256 
L 80.030678 138.24 
L 84.162645 140.0544 
L 91.541157 142.776 
L 95.968264 144.288 
L 104.527339 147.6144 
L 110.725289 149.7312 
L 117.21838 152.1504 
L 124.006612 154.872 
L 130.794843 157.2912 
L 137.583074 160.0128 
L 150.569256 164.8512 
L 156.472066 166.6656 
L 168.277686 169.6896 
L 181.854149 172.7136 
L 188.64238 171.2016 
L 191.298645 174.2256 
L 195.725752 174.8304 
L 200.448 175.1328 
L 210.777917 176.04 
L 218.45157 176.6448 
L 227.305785 178.1568 
L 232.618314 179.3664 
L 240.291967 181.7856 
L 244.128793 183.2976 
L 246.194777 183.9024 
L 255.934413 187.5312 
L 259.476099 189.3456 
L 261.246942 189.9504 
L 268.330314 193.5792 
L 273.347702 196.9056 
L 282.201917 203.256 
L 283.97276 204.768 
L 285.448463 206.28 
L 286.924165 208.0944 
L 287.514446 209.304 
L 288.399868 210.5136 
L 288.399868 211.1184 
L 287.514446 211.1184 
L 285.153322 209.9088 
L 280.726215 206.8848 
L 280.135934 206.28 
L 279.250512 205.0704 
L 278.365091 204.1632 
L 278.365091 202.9536 
L 279.250512 202.0464 
L 279.840793 201.744 
L 280.431074 202.0464 
L 281.021355 202.0464 
L 283.087339 202.6512 
L 284.267901 203.5584 
L 285.743603 205.3728 
L 286.333884 205.3728 
L 289.58043 207.4896 
L 292.236694 210.2112 
L 293.122116 212.0256 
L 293.417256 214.7472 
L 294.302678 216.2592 
L 294.892959 218.376 
L 295.48324 219.888 
L 296.368661 220.7952 
L 296.958942 221.0976 
L 297.844364 222.3072 
L 299.024926 225.936 
L 299.320066 227.448 
L 301.090909 234.4032 
L 301.38605 235.008 
L 301.976331 235.9152 
L 302.566612 237.1248 
L 302.861752 239.2416 
L 303.452033 240.1488 
L 304.632595 242.568 
L 304.927736 244.08 
L 305.518017 245.2896 
L 306.108298 246.8016 
L 306.403438 248.3136 
L 307.584 251.64 
L 308.174281 254.9664 
L 308.174281 256.4784 
L 308.469421 258.2928 
L 308.469421 259.8048 
L 308.764562 261.3168 
L 308.469421 261.9216 
L 308.469421 264.9456 
L 307.87914 271.296 
L 307.87914 276.7392 
L 307.584 278.856 
L 307.87914 281.5776 
L 308.469421 284.6016 
L 309.649983 287.3232 
L 311.125686 289.44 
L 312.306248 290.6496 
L 312.896529 291.8592 
L 314.667372 293.6736 
L 315.552793 295.1856 
L 316.438215 295.488 
L 373.695471 295.488 
L 376.056595 295.1856 
L 377.827438 295.488 
L 398.487273 295.488 
L 398.487273 295.488 
L 398.487273 293.976 
L 397.896992 293.0688 
L 397.306711 291.5568 
L 394.650446 287.3232 
L 390.81362 280.6704 
L 382.844826 266.1552 
L 379.893421 260.4096 
L 376.646876 254.9664 
L 372.81005 249.8256 
L 368.973223 244.9872 
L 364.841256 240.7536 
L 360.414149 236.52 
L 355.39676 232.8912 
L 345.952264 226.8432 
L 340.934876 224.424 
L 335.917488 221.7024 
L 331.19524 219.5856 
L 326.472992 217.1664 
L 321.455603 215.0496 
L 316.733355 212.6304 
L 312.011107 210.5136 
L 307.28886 208.0944 
L 302.271471 205.9776 
L 297.549223 203.8608 
L 292.531835 201.1392 
L 287.514446 198.72 
L 281.906777 196.3008 
L 276.299107 193.2768 
L 270.396298 190.2528 
L 264.198347 186.9264 
L 258.000397 183.2976 
L 251.507306 179.3664 
L 245.309355 175.4352 
L 238.816264 172.1088 
L 232.913455 168.1776 
L 215.205025 156.9888 
L 209.597355 153.9648 
L 203.694545 150.336 
L 198.086876 147.312 
L 192.479207 143.6832 
L 180.968727 136.728 
L 174.770777 133.4016 
L 168.867967 129.7728 
L 162.965157 127.0512 
L 150.569256 120.3984 
L 144.076165 117.3744 
L 129.909421 110.1168 
L 122.235769 106.488 
L 113.971835 102.8592 
L 106.003041 99.2304 
L 97.443967 95.6016 
L 80.030678 88.9488 
L 73.832727 85.6224 
L 73.832727 61.4304 
L 73.832727 61.7328 
L 74.127868 62.64 
L 75.013289 64.152 
L 76.488992 65.664 
L 78.554975 67.176 
L 80.916099 68.688 
L 85.048066 71.712 
L 87.11405 72.9216 
L 88.884893 73.8288 
L 90.360595 74.4336 
L 91.836298 74.4336 
L 93.902281 74.736 
L 96.558545 75.3408 
L 108.364165 80.1792 
L 113.971835 82.9008 
L 120.169785 85.6224 
L 126.662876 88.9488 
L 133.746248 91.9728 
L 139.944198 94.9968 
L 152.93038 101.952 
L 169.163107 109.8144 
L 174.475636 112.536 
L 179.788165 115.56 
L 184.805554 118.2816 
L 189.527802 121.3056 
L 193.954909 124.3296 
L 201.923702 130.0752 
L 205.760529 132.7968 
L 211.958479 137.9376 
L 216.680727 142.776 
L 218.45157 145.1952 
L 220.222413 147.312 
L 221.402975 151.2432 
L 222.583537 155.7792 
L 223.764099 159.7104 
L 225.239802 163.6416 
L 227.600926 170.8992 
L 229.371769 174.528 
L 232.323174 181.7856 
L 233.798876 185.112 
L 236.16 191.7648 
L 237.635702 194.7888 
L 238.521124 197.208 
L 239.701686 199.6272 
L 241.472529 203.8608 
L 242.35795 206.28 
L 243.538512 208.3968 
L 244.128793 210.816 
L 245.014215 212.9328 
L 246.194777 215.352 
L 249.736463 223.5168 
L 250.917025 225.936 
L 252.687868 228.6576 
L 255.639273 232.2864 
L 258.295537 234.4032 
L 259.476099 234.7056 
L 260.656661 235.3104 
L 263.903207 236.2176 
L 264.788628 235.9152 
L 265.378909 236.2176 
L 266.559471 235.9152 
L 267.740033 235.008 
L 268.920595 234.7056 
L 275.413686 232.5888 
L 278.660231 231.984 
L 280.726215 231.3792 
L 282.201917 230.7744 
L 283.382479 229.8672 
L 284.563041 228.6576 
L 285.448463 227.448 
L 286.038744 225.936 
L 286.333884 224.1216 
L 286.038744 222.0048 
L 285.153322 219.888 
L 283.97276 217.4688 
L 282.497058 213.5376 
L 280.431074 209.9088 
L 278.06995 206.28 
L 275.413686 201.744 
L 271.872 197.208 
L 262.427504 184.2048 
L 253.278149 172.4112 
L 238.225983 153.36 
L 233.503736 147.6144 
L 225.239802 137.9376 
L 221.402975 134.3088 
L 218.15643 130.9824 
L 214.614744 128.5632 
L 212.843901 127.656 
L 209.597355 126.4464 
L 206.941091 125.2368 
L 204.284826 124.3296 
L 200.448 122.8176 
L 197.791736 121.608 
L 189.232661 118.584 
L 186.281256 117.072 
L 182.73957 115.8624 
L 178.902744 114.3504 
L 177.131901 113.4432 
L 166.506843 107.6976 
L 161.194314 105.2784 
L 156.176926 102.2544 
L 150.274116 99.2304 
L 144.076165 95.904 
L 137.878215 92.2752 
L 130.499702 88.344 
L 116.92324 79.8768 
L 113.676694 77.4576 
L 104.822479 71.4096 
L 99.805091 67.7808 
L 95.377983 64.7568 
L 93.60714 63.2448 
L 90.360595 61.128 
L 87.704331 59.0112 
L 82.391802 55.9872 
L 80.916099 55.6848 
L 80.916099 56.8944 
L 81.50638 58.104 
L 82.391802 59.616 
L 84.162645 61.4304 
L 85.638347 63.2448 
L 87.999471 65.664 
L 90.360595 68.3856 
L 93.01686 71.1072 
L 98.624529 77.4576 
L 101.280793 81.0864 
L 106.888463 88.0416 
L 111.905851 94.9968 
L 114.266975 98.6256 
L 114.266975 98.6256 
" clip-path="url(#p3d57e55ba1)" style="fill: none; stroke: #000000; stroke-width: 1.5; stroke-linecap: square"/>
   </g>
   <g id="line2d_6">
    <path d="M 299.024926 127.9584 
" clip-path="url(#p3d57e55ba1)" style="fill: none; stroke: #000000; stroke-width: 1.5; stroke-linecap: square"/>
    <defs>
     <path id="m9d3946d3e1" d="M 0 5 
C 1.326016 5 2.597899 4.473168 3.535534 3.535534 
C 4.473168 2.597899 5 1.326016 5 0 
C 5 -1.326016 4.473168 -2.597899 3.535534 -3.535534 
C 2.597899 -4.473168 1.326016 -5 0 -5 
C -1.326016 -5 -2.597899 -4.473168 -3.535534 -3.535534 
C -4.473168 -2.597899 -5 -1.326016 -5 0 
C -5 1.326016 -4.473168 2.597899 -3.535534 3.535534 
C -2.597899 4.473168 -1.326016 5 0 5 
z
" style="stroke: #000000"/>
    </defs>
    <g clip-path="url(#p3d57e55ba1)">
     <use xlink:href="#m9d3946d3e1" x="299.024926" y="127.9584" style="stroke: #000000"/>
    </g>
   </g>
   <g id="line2d_7">
    <path d="M 114.266975 98.6256 
" clip-path="url(#p3d57e55ba1)" style="fill: none; stroke: #000000; stroke-width: 1.5; stroke-linecap: square"/>
    <defs>
     <path id="mc4a62c73a3" d="M -5 5 
L 5 5 
L 5 -5 
L -5 -5 
z
" style="stroke: #000000; stroke-linejoin: miter"/>
    </defs>
    <g clip-path="url(#p3d57e55ba1)">
     <use xlink:href="#mc4a62c73a3" x="114.266975" y="98.6256" style="stroke: #000000; stroke-linejoin: miter"/>
    </g>
   </g>
   <g id="line2d_8">
    <path d="M 327.948694 179.9712 
L 324.997289 179.9712 
L 323.816727 180.2736 
L 322.341025 180.2736 
L 322.045884 180.576 
L 321.750744 180.576 
L 321.455603 180.2736 
L 321.455603 180.2736 
L 321.160463 180.2736 
L 321.160463 180.2736 
L 320.865322 179.9712 
L 320.865322 179.9712 
L 320.865322 179.3664 
L 320.570182 179.3664 
L 320.570182 179.064 
L 320.570182 179.064 
L 320.275041 178.7616 
L 320.275041 178.7616 
L 320.275041 178.4592 
L 319.979901 178.1568 
L 319.979901 176.6448 
L 319.68476 176.3424 
L 319.68476 175.4352 
L 319.38962 175.4352 
L 319.094479 174.8304 
L 318.209058 173.9232 
L 317.913917 173.9232 
L 317.618777 173.6208 
L 317.323636 173.6208 
L 316.733355 173.016 
L 316.438215 173.016 
L 315.847934 172.4112 
L 315.257653 172.1088 
L 314.667372 171.504 
L 314.077091 171.2016 
L 313.78195 171.2016 
L 313.48681 170.8992 
L 309.649983 170.8992 
L 309.354843 171.2016 
L 308.764562 171.2016 
L 308.469421 171.504 
L 308.174281 171.504 
L 308.174281 171.8064 
L 307.87914 171.8064 
L 307.87914 172.1088 
L 308.174281 172.7136 
L 308.174281 174.528 
L 308.469421 174.8304 
L 308.469421 177.552 
L 307.87914 178.1568 
L 307.87914 179.6688 
L 307.87914 179.6688 
L 308.174281 179.9712 
L 308.469421 180.576 
L 308.764562 180.8784 
L 309.059702 181.4832 
L 309.649983 181.7856 
L 310.830545 182.9952 
L 311.715967 183.2976 
L 312.601388 183.9024 
L 314.962512 185.112 
L 316.438215 186.0192 
L 317.913917 186.624 
L 319.68476 187.5312 
L 321.750744 188.4384 
L 324.111868 189.648 
L 327.358413 191.16 
L 335.327207 194.184 
L 340.344595 195.696 
L 345.657124 196.9056 
L 355.987041 198.72 
L 361.29957 199.3248 
L 371.629488 198.72 
L 376.056595 198.4176 
L 379.893421 197.8128 
L 383.435107 196.9056 
L 386.681653 195.696 
L 393.765025 192.3696 
L 395.535868 190.8576 
L 396.421289 189.648 
L 398.192132 187.8336 
L 398.487273 186.624 
L 398.487273 184.5072 
L 398.192132 183.2976 
L 396.71643 181.1808 
L 395.535868 180.2736 
L 394.650446 179.064 
L 392.289322 176.6448 
L 390.81362 175.4352 
L 389.042777 174.528 
L 387.271934 173.3184 
L 385.20595 172.4112 
L 380.778843 171.2016 
L 378.417719 170.5968 
L 372.81005 169.992 
L 369.858645 169.3872 
L 366.316959 169.3872 
L 362.480132 169.6896 
L 354.511339 169.6896 
L 330.900099 168.1776 
L 316.143074 166.3632 
L 311.420826 166.0608 
L 306.993719 166.0608 
L 294.007537 164.2464 
L 290.170711 163.3392 
L 285.743603 162.432 
L 278.06995 160.6176 
L 273.937983 159.408 
L 269.806017 158.8032 
L 266.264331 157.2912 
L 262.132364 156.384 
L 258.295537 155.1744 
L 254.16357 154.2672 
L 250.326744 153.0576 
L 238.521124 148.824 
L 231.437752 145.8 
L 227.896066 143.9856 
L 224.944661 142.776 
L 221.698116 141.5664 
L 213.139041 138.8448 
L 210.187636 138.24 
L 207.236231 137.3328 
L 204.284826 136.1232 
L 198.382017 134.3088 
L 195.135471 133.0992 
L 188.64238 131.2848 
L 185.690975 130.68 
L 182.44443 129.4704 
L 179.493025 128.8656 
L 162.079736 124.3296 
L 158.53805 123.7248 
L 154.996364 122.8176 
L 148.503273 122.2128 
L 146.142149 122.2128 
L 144.371306 122.8176 
L 143.485884 123.7248 
L 143.485884 125.2368 
L 143.781025 127.0512 
L 144.666446 129.4704 
L 146.142149 131.8896 
L 149.093554 137.3328 
L 150.864397 140.3568 
L 152.63524 143.0784 
L 154.701223 145.8 
L 156.472066 148.824 
L 158.242909 151.2432 
L 160.013752 153.9648 
L 161.489455 156.6864 
L 164.736 161.2224 
L 165.916562 163.3392 
L 168.867967 167.5728 
L 170.343669 169.3872 
L 171.819372 171.504 
L 173.295074 173.3184 
L 176.83676 176.9472 
L 178.017322 178.4592 
L 179.788165 180.2736 
L 181.559008 181.7856 
L 183.329851 182.9952 
L 184.805554 184.2048 
L 188.052099 186.3216 
L 189.527802 187.2288 
L 192.479207 188.4384 
L 193.954909 188.7408 
L 195.135471 188.4384 
L 196.316033 188.4384 
L 197.201455 187.8336 
L 199.562579 185.4144 
L 200.448 184.2048 
L 202.809124 181.7856 
L 204.284826 180.576 
L 206.055669 179.6688 
L 208.121653 178.7616 
L 210.482777 178.1568 
L 215.795306 177.552 
L 221.107835 177.552 
L 224.05924 177.8544 
L 227.010645 178.4592 
L 229.96205 178.7616 
L 237.930843 180.576 
L 240.587107 180.8784 
L 243.243372 181.7856 
L 245.604496 182.3904 
L 247.670479 183.2976 
L 254.458711 186.0192 
L 258.590678 188.136 
L 261.837223 189.3456 
L 265.378909 191.7648 
L 267.149752 192.672 
L 268.625455 193.8816 
L 271.57686 195.696 
L 272.757421 196.9056 
L 274.233124 198.1152 
L 276.889388 202.0464 
L 277.77481 203.256 
L 278.365091 204.4656 
L 278.955372 206.28 
L 279.250512 208.0944 
L 279.250512 209.0016 
L 278.955372 209.304 
L 278.365091 209.304 
L 276.889388 207.1872 
L 275.708826 205.9776 
L 274.528264 203.8608 
L 271.281719 199.0224 
L 268.035174 192.3696 
L 263.608066 185.4144 
L 258.885818 176.3424 
L 255.639273 166.6656 
L 253.86843 162.1296 
L 251.802446 157.5936 
L 249.736463 152.4528 
L 248.26076 146.7072 
L 245.899636 136.1232 
L 244.719074 130.68 
L 240.587107 104.6736 
L 239.701686 93.4848 
L 239.701686 87.4368 
L 239.406545 85.0176 
L 239.996826 81.0864 
L 239.996826 79.5744 
L 240.291967 78.6672 
L 240.587107 78.6672 
L 240.882248 79.272 
L 241.177388 80.1792 
L 241.472529 81.6912 
L 242.06281 86.2272 
L 242.35795 89.2512 
L 243.538512 96.8112 
L 244.423934 100.7424 
L 245.604496 105.2784 
L 247.080198 110.1168 
L 250.031603 121.0032 
L 253.573289 132.4944 
L 259.77124 150.336 
L 265.96919 167.5728 
L 268.920595 180.576 
L 270.691438 186.624 
L 273.052562 191.4624 
L 274.528264 198.4176 
L 280.726215 215.9568 
L 283.087339 221.4 
L 285.743603 226.8432 
L 291.351273 237.1248 
L 300.500628 249.8256 
L 303.452033 253.4544 
L 306.403438 257.3856 
L 309.649983 260.712 
L 316.143074 266.76 
L 319.38962 269.1792 
L 326.177851 273.7152 
L 329.129256 275.2272 
L 332.080661 276.4368 
L 337.39319 278.856 
L 340.049455 279.7632 
L 342.115438 280.9728 
L 343.886281 281.2752 
L 347.427967 282.7872 
L 350.969653 283.392 
L 352.445355 283.392 
L 353.625917 283.6944 
L 354.806479 283.6944 
L 355.987041 283.9968 
L 356.872463 283.9968 
L 357.757884 284.2992 
L 358.348165 284.2992 
L 359.528727 283.9968 
L 360.119008 283.9968 
L 360.414149 284.2992 
L 361.00443 284.2992 
L 361.29957 283.9968 
L 361.29957 282.1824 
L 360.709289 280.6704 
L 360.709289 279.7632 
L 360.119008 277.6464 
L 359.528727 277.0416 
L 358.938446 276.1344 
L 355.10162 272.2032 
L 354.216198 270.9936 
L 353.035636 269.784 
L 352.150215 268.272 
L 350.969653 266.76 
L 349.789091 264.3408 
L 348.608529 262.224 
L 346.837686 259.8048 
L 344.771702 257.688 
L 341.820298 255.8736 
L 338.573752 253.152 
L 335.032066 250.4304 
L 331.19524 247.7088 
L 327.063273 243.7776 
L 312.896529 229.2624 
L 296.958942 212.0256 
L 291.646413 205.9776 
L 285.743603 199.6272 
L 279.840793 192.9744 
L 273.937983 186.624 
L 268.035174 179.9712 
L 257.410116 167.2704 
L 252.392727 160.92 
L 247.080198 154.872 
L 237.635702 142.776 
L 229.076628 132.7968 
L 225.239802 128.5632 
L 218.45157 120.3984 
L 215.205025 117.072 
L 212.25362 113.7456 
L 209.302215 111.024 
L 204.284826 105.8832 
L 201.628562 103.464 
L 193.954909 95.6016 
L 191.298645 93.1824 
L 188.937521 90.4608 
L 185.986116 88.0416 
L 183.329851 85.6224 
L 177.427041 81.0864 
L 174.770777 78.9696 
L 169.458248 75.3408 
L 164.145719 72.3168 
L 161.784595 71.1072 
L 158.242909 69.5952 
L 157.357488 68.9904 
L 152.93038 67.176 
L 150.274116 66.5712 
L 147.322711 65.3616 
L 144.076165 64.152 
L 136.992793 60.8256 
L 132.270545 59.3136 
L 128.433719 57.4992 
L 118.694083 54.4752 
L 111.02043 53.568 
L 73.832727 53.568 
L 73.832727 53.568 
L 74.423008 53.8704 
L 75.30843 54.4752 
L 75.898711 55.08 
L 78.850116 56.592 
L 84.162645 59.9184 
L 87.40919 61.7328 
L 94.492562 65.3616 
L 102.166215 68.9904 
L 105.707901 70.5024 
L 116.628099 74.736 
L 119.874645 75.9456 
L 122.530909 77.1552 
L 125.482314 78.0624 
L 128.433719 78.6672 
L 131.089983 79.5744 
L 136.107372 80.784 
L 138.468496 81.3888 
L 143.485884 83.2032 
L 146.142149 84.7152 
L 148.798413 86.832 
L 154.701223 92.88 
L 157.652628 96.2064 
L 160.604033 99.8352 
L 163.555438 103.1616 
L 169.163107 110.1168 
L 171.819372 113.1408 
L 179.197884 120.7008 
L 181.559008 122.8176 
L 183.920132 124.632 
L 185.986116 126.7488 
L 190.118083 130.3776 
L 194.25005 134.6112 
L 198.677157 138.5424 
L 211.368198 148.5216 
L 213.729322 150.9408 
L 219.041851 155.7792 
L 221.698116 158.5008 
L 224.649521 161.2224 
L 234.094017 169.0848 
L 237.635702 172.1088 
L 241.472529 174.8304 
L 249.441322 179.9712 
L 253.573289 182.6928 
L 258.000397 185.4144 
L 262.427504 187.5312 
L 266.854612 189.9504 
L 275.708826 194.184 
L 280.135934 195.9984 
L 284.858182 197.8128 
L 288.990149 199.6272 
L 293.417256 201.1392 
L 297.549223 202.9536 
L 301.68119 204.1632 
L 307.87914 206.28 
L 311.715967 207.792 
L 321.160463 210.816 
L 333.851504 213.84 
L 337.39319 214.4448 
L 360.414149 214.4448 
L 360.414149 214.4448 
" clip-path="url(#p3d57e55ba1)" style="fill: none; stroke: #ffa07a; stroke-width: 1.5; stroke-linecap: square"/>
   </g>
   <g id="line2d_9">
    <path d="M 327.948694 179.9712 
" clip-path="url(#p3d57e55ba1)" style="fill: none; stroke: #ffa07a; stroke-width: 1.5; stroke-linecap: square"/>
    <defs>
     <path id="meadcdd378e" d="M 0 5 
C 1.326016 5 2.597899 4.473168 3.535534 3.535534 
C 4.473168 2.597899 5 1.326016 5 0 
C 5 -1.326016 4.473168 -2.597899 3.535534 -3.535534 
C 2.597899 -4.473168 1.326016 -5 0 -5 
C -1.326016 -5 -2.597899 -4.473168 -3.535534 -3.535534 
C -4.473168 -2.597899 -5 -1.326016 -5 0 
C -5 1.326016 -4.473168 2.597899 -3.535534 3.535534 
C -2.597899 4.473168 -1.326016 5 0 5 
z
" style="stroke: #ffa07a"/>
    </defs>
    <g clip-path="url(#p3d57e55ba1)">
     <use xlink:href="#meadcdd378e" x="327.948694" y="179.9712" style="fill: #ffa07a; stroke: #ffa07a"/>
    </g>
   </g>
   <g id="line2d_10">
    <path d="M 360.414149 214.4448 
" clip-path="url(#p3d57e55ba1)" style="fill: none; stroke: #ffa07a; stroke-width: 1.5; stroke-linecap: square"/>
    <defs>
     <path id="m05de9da1bc" d="M -5 5 
L 5 5 
L 5 -5 
L -5 -5 
z
" style="stroke: #ffa07a; stroke-linejoin: miter"/>
    </defs>
    <g clip-path="url(#p3d57e55ba1)">
     <use xlink:href="#m05de9da1bc" x="360.414149" y="214.4448" style="fill: #ffa07a; stroke: #ffa07a; stroke-linejoin: miter"/>
    </g>
   </g>
   <g id="line2d_11">
    <path d="M 298.434645 153.0576 
L 291.351273 143.6832 
L 284.267901 134.6112 
L 276.889388 126.144 
L 268.920595 118.584 
L 261.542083 112.2336 
L 254.16357 106.488 
L 246.194777 102.2544 
L 238.225983 98.3232 
L 229.666909 94.6944 
L 221.402975 91.0656 
L 213.434182 87.1344 
L 205.170248 83.5056 
L 197.791736 79.8768 
L 173.885355 70.2 
L 166.211702 66.8736 
L 158.242909 63.5472 
L 150.569256 60.5232 
L 136.697653 55.6848 
L 130.794843 53.568 
L 113.086413 53.568 
L 113.381554 54.1728 
L 114.266975 54.7776 
L 118.398942 57.1968 
L 125.187174 61.4304 
L 129.909421 63.8496 
L 137.583074 68.3856 
L 143.485884 71.712 
L 155.881785 79.272 
L 162.670017 83.2032 
L 165.916562 85.32 
L 175.951339 91.6704 
L 182.44443 96.2064 
L 185.690975 98.3232 
L 194.25005 104.3712 
L 204.875107 111.3264 
L 209.007074 114.9552 
L 213.139041 117.9792 
L 216.680727 120.3984 
L 219.632132 122.8176 
L 222.878678 124.632 
L 225.534942 126.4464 
L 228.191207 127.9584 
L 230.552331 129.4704 
L 232.913455 130.68 
L 233.798876 131.2848 
L 235.86486 132.4944 
L 238.816264 134.0064 
L 241.472529 135.216 
L 243.538512 136.4256 
L 247.080198 138.24 
L 251.507306 140.3568 
L 256.229554 143.3808 
L 260.361521 146.4048 
L 266.264331 150.0336 
L 268.035174 153.36 
L 275.413686 159.408 
L 277.77481 161.8272 
L 287.809587 171.8064 
L 293.122116 176.6448 
L 305.813157 189.648 
L 310.830545 194.4864 
L 319.979901 202.6512 
L 328.538975 208.0944 
L 330.604959 209.0016 
L 335.327207 210.2112 
L 336.507769 210.816 
L 340.639736 212.328 
L 342.410579 212.6304 
L 344.181421 213.2352 
L 345.361983 213.84 
L 345.952264 214.4448 
L 347.427967 214.7472 
L 347.723107 214.1424 
L 348.018248 212.9328 
L 347.723107 212.328 
L 347.132826 210.5136 
L 346.542545 208.0944 
L 343.00086 201.744 
L 339.754314 194.4864 
L 336.212628 188.7408 
L 331.785521 183.6 
L 327.063273 178.4592 
L 321.160463 173.3184 
L 314.962512 169.0848 
L 308.764562 165.456 
L 302.566612 162.1296 
L 296.073521 159.7104 
L 289.58043 157.896 
L 283.382479 156.9888 
L 277.479669 156.6864 
L 271.872 156.6864 
L 266.854612 156.9888 
L 258.000397 158.1984 
L 250.917025 159.408 
L 247.670479 159.7104 
L 245.014215 159.7104 
L 242.35795 160.0128 
L 240.291967 159.7104 
L 236.750281 158.5008 
L 234.389157 156.6864 
L 233.503736 155.4768 
L 232.618314 154.5696 
L 231.142612 152.1504 
L 230.25719 150.6384 
L 227.896066 147.6144 
L 225.239802 143.6832 
L 221.698116 140.0544 
L 220.222413 138.24 
L 218.746711 136.1232 
L 215.205025 131.8896 
L 208.121653 124.632 
L 205.465388 122.8176 
L 201.038281 118.8864 
L 199.267438 117.072 
L 192.774347 111.9312 
L 188.052099 107.6976 
L 185.100694 105.2784 
L 178.607603 100.44 
L 171.819372 94.9968 
L 154.110942 82.9008 
L 146.73243 78.6672 
L 142.895603 76.248 
L 131.680264 70.5024 
L 123.711471 66.5712 
L 119.874645 64.4544 
L 99.21481 54.4752 
L 95.673124 53.568 
L 73.832727 53.568 
L 73.832727 53.568 
L 73.832727 53.8704 
L 74.423008 54.1728 
L 75.30843 54.7776 
L 77.374413 55.6848 
L 83.572364 58.4064 
L 88.884893 61.4304 
L 91.246017 62.64 
L 96.263405 65.3616 
L 104.822479 70.2 
L 113.086413 75.0384 
L 120.760066 79.272 
L 123.12119 80.784 
L 128.138579 83.2032 
L 139.353917 89.5536 
L 143.190744 91.6704 
L 146.73243 93.7872 
L 148.503273 94.6944 
L 156.472066 99.2304 
L 159.718612 100.7424 
L 162.670017 102.5568 
L 165.621421 104.0688 
L 168.277686 105.8832 
L 173.590215 108.6048 
L 175.951339 110.1168 
L 178.017322 111.024 
L 180.083306 112.2336 
L 181.559008 112.8384 
L 183.034711 113.1408 
L 184.215273 113.1408 
L 186.281256 112.536 
L 187.166678 111.6288 
L 187.756959 110.7216 
L 188.052099 109.2096 
L 188.64238 108 
L 188.937521 106.488 
L 189.822942 104.0688 
L 190.118083 101.6496 
L 189.822942 100.1376 
L 188.937521 97.1136 
L 187.756959 93.7872 
L 184.805554 88.0416 
L 181.854149 83.808 
L 178.312463 79.272 
L 176.246479 76.8528 
L 168.867967 70.2 
L 162.965157 65.664 
L 156.176926 61.128 
L 148.503273 56.592 
L 140.239339 53.568 
L 73.832727 53.568 
L 73.832727 53.568 
L 73.832727 166.0608 
L 73.832727 117.9792 
L 75.013289 117.6768 
L 86.228628 117.072 
L 91.541157 116.4672 
L 96.558545 115.56 
L 106.593322 114.3504 
L 116.332959 112.536 
L 120.760066 111.3264 
L 128.138579 108.3024 
L 131.089983 106.7904 
L 134.336529 104.976 
L 136.992793 103.1616 
L 141.12476 98.928 
L 142.600463 96.8112 
L 144.076165 94.392 
L 145.551868 92.2752 
L 147.02757 90.4608 
L 147.912992 88.6464 
L 148.503273 86.5296 
L 148.798413 84.4128 
L 148.798413 82.9008 
L 148.208132 81.6912 
L 147.617851 80.784 
L 145.256727 79.272 
L 142.895603 78.3648 
L 139.944198 77.4576 
L 136.402512 76.5504 
L 132.270545 75.6432 
L 127.843438 75.0384 
L 117.21838 73.224 
L 104.822479 71.4096 
L 90.655736 69.5952 
L 85.048066 68.3856 
L 81.21124 67.176 
L 78.850116 66.2688 
L 77.079273 65.0592 
L 75.30843 63.2448 
L 74.127868 61.4304 
L 74.127868 61.128 
L 74.127868 61.128 
L 73.832727 62.3376 
L 73.832727 62.3376 
L 73.832727 121.3056 
L 80.916099 127.9584 
L 92.721719 134.3088 
L 104.822479 140.6592 
L 129.614281 153.9648 
L 142.010182 160.3152 
L 160.899174 169.6896 
L 185.100694 180.576 
L 207.826512 189.648 
L 228.191207 196.6032 
L 246.489917 202.3488 
L 254.458711 204.768 
L 262.132364 206.8848 
L 273.052562 210.2112 
L 286.924165 215.0496 
L 290.170711 216.2592 
L 299.320066 220.1904 
L 304.927736 222.3072 
L 309.649983 225.0288 
L 312.011107 225.936 
L 317.913917 229.2624 
L 322.931306 232.8912 
L 324.407008 234.1008 
L 324.997289 234.4032 
L 324.997289 234.7056 
L 324.111868 233.7984 
L 321.160463 231.6816 
L 318.799339 228.96 
L 317.323636 227.448 
L 313.78195 223.5168 
L 305.222876 214.7472 
L 297.844364 210.816 
L 291.351273 202.3488 
L 285.153322 197.208 
L 281.611636 195.0912 
L 270.691438 188.136 
L 263.017785 183.9024 
L 255.048992 179.6688 
L 242.35795 173.3184 
L 229.371769 167.2704 
L 220.812694 163.6416 
L 212.54876 160.0128 
L 195.135471 153.36 
L 186.576397 150.336 
L 178.017322 147.6144 
L 161.194314 143.3808 
L 153.225521 141.264 
L 130.499702 137.0304 
L 123.711471 135.8208 
L 111.02043 134.0064 
L 96.853686 132.4944 
L 93.312 132.4944 
L 88.884893 133.0992 
L 87.11405 133.4016 
L 84.162645 134.9136 
L 82.982083 135.8208 
L 82.391802 136.1232 
L 81.21124 137.0304 
L 81.21124 137.3328 
L 80.916099 137.9376 
L 81.50638 138.5424 
L 83.867504 140.0544 
L 85.048066 140.3568 
L 87.40919 141.5664 
L 88.589752 141.8688 
L 90.065455 142.4736 
L 91.246017 143.0784 
L 92.721719 143.6832 
L 93.902281 144.288 
L 95.082843 144.288 
L 98.034248 144.8928 
L 99.21481 145.4976 
L 100.690512 145.8 
L 101.871074 146.4048 
L 103.051636 146.7072 
L 104.232198 147.312 
L 106.298182 147.9168 
L 106.888463 148.2192 
L 107.478744 148.824 
L 104.822479 148.824 
L 103.641917 148.5216 
L 101.575934 148.5216 
L 99.50995 147.9168 
L 98.329388 147.9168 
L 95.082843 147.0096 
L 93.01686 146.4048 
L 92.131438 146.4048 
L 91.246017 146.1024 
L 89.475174 146.1024 
L 89.475174 146.1024 
" clip-path="url(#p3d57e55ba1)" style="fill: none; stroke: #0000ff; stroke-width: 1.5; stroke-linecap: square"/>
   </g>
   <g id="line2d_12">
    <path d="M 298.434645 153.0576 
" clip-path="url(#p3d57e55ba1)" style="fill: none; stroke: #0000ff; stroke-width: 1.5; stroke-linecap: square"/>
    <defs>
     <path id="m6ceba372da" d="M 0 5 
C 1.326016 5 2.597899 4.473168 3.535534 3.535534 
C 4.473168 2.597899 5 1.326016 5 0 
C 5 -1.326016 4.473168 -2.597899 3.535534 -3.535534 
C 2.597899 -4.473168 1.326016 -5 0 -5 
C -1.326016 -5 -2.597899 -4.473168 -3.535534 -3.535534 
C -4.473168 -2.597899 -5 -1.326016 -5 0 
C -5 1.326016 -4.473168 2.597899 -3.535534 3.535534 
C -2.597899 4.473168 -1.326016 5 0 5 
z
" style="stroke: #0000ff"/>
    </defs>
    <g clip-path="url(#p3d57e55ba1)">
     <use xlink:href="#m6ceba372da" x="298.434645" y="153.0576" style="fill: #0000ff; stroke: #0000ff"/>
    </g>
   </g>
   <g id="line2d_13">
    <path d="M 89.475174 146.1024 
" clip-path="url(#p3d57e55ba1)" style="fill: none; stroke: #0000ff; stroke-width: 1.5; stroke-linecap: square"/>
    <defs>
     <path id="m37975cbcb4" d="M -5 5 
L 5 5 
L 5 -5 
L -5 -5 
z
" style="stroke: #0000ff; stroke-linejoin: miter"/>
    </defs>
    <g clip-path="url(#p3d57e55ba1)">
     <use xlink:href="#m37975cbcb4" x="89.475174" y="146.1024" style="fill: #0000ff; stroke: #0000ff; stroke-linejoin: miter"/>
    </g>
   </g>
   <g id="line2d_14">
    <path d="M 115.933177 143.94213 
" clip-path="url(#p3d57e55ba1)" style="fill: none; stroke: #ff0000; stroke-width: 1.5; stroke-linecap: square"/>
    <defs>
     <path id="mc8df1f85ef" d="M -2.5 5 
L 0 2.5 
L 2.5 5 
L 5 2.5 
L 2.5 0 
L 5 -2.5 
L 2.5 -5 
L 0 -2.5 
L -2.5 -5 
L -5 -2.5 
L -2.5 0 
L -5 2.5 
z
" style="stroke: #ff0000; stroke-linejoin: miter"/>
    </defs>
    <g clip-path="url(#p3d57e55ba1)">
     <use xlink:href="#mc8df1f85ef" x="115.933177" y="143.94213" style="fill: #ff0000; stroke: #ff0000; stroke-linejoin: miter"/>
    </g>
   </g>
   <g id="line2d_15">
    <path d="M 140.541187 91.60425 
" clip-path="url(#p3d57e55ba1)" style="fill: none; stroke: #ffa07a; stroke-width: 1.5; stroke-linecap: square"/>
    <defs>
     <path id="mc23a5d3446" d="M -2.5 5 
L 0 2.5 
L 2.5 5 
L 5 2.5 
L 2.5 0 
L 5 -2.5 
L 2.5 -5 
L 0 -2.5 
L -2.5 -5 
L -5 -2.5 
L -2.5 0 
L -5 2.5 
z
" style="stroke: #ffa07a; stroke-linejoin: miter"/>
    </defs>
    <g clip-path="url(#p3d57e55ba1)">
     <use xlink:href="#mc23a5d3446" x="140.541187" y="91.60425" style="fill: #ffa07a; stroke: #ffa07a; stroke-linejoin: miter"/>
    </g>
   </g>
   <g id="line2d_16">
    <path d="M 148.24972 132.98769 
" clip-path="url(#p3d57e55ba1)" style="fill: none; stroke: #0000ff; stroke-width: 1.5; stroke-linecap: square"/>
    <defs>
     <path id="m1bbe8e3a5c" d="M -2.5 5 
L 0 2.5 
L 2.5 5 
L 5 2.5 
L 2.5 0 
L 5 -2.5 
L 2.5 -5 
L 0 -2.5 
L -2.5 -5 
L -5 -2.5 
L -2.5 0 
L -5 2.5 
z
" style="stroke: #0000ff; stroke-linejoin: miter"/>
    </defs>
    <g clip-path="url(#p3d57e55ba1)">
     <use xlink:href="#m1bbe8e3a5c" x="148.24972" y="132.98769" style="fill: #0000ff; stroke: #0000ff; stroke-linejoin: miter"/>
    </g>
   </g>
   <g id="patch_3">
    <path d="M 57.6 307.584 
L 57.6 41.472 
" style="fill: none; stroke: #000000; stroke-width: 0.8; stroke-linejoin: miter; stroke-linecap: square"/>
   </g>
   <g id="patch_4">
    <path d="M 57.6 307.584 
L 414.72 307.584 
" style="fill: none; stroke: #000000; stroke-width: 0.8; stroke-linejoin: miter; stroke-linecap: square"/>
   </g>
   <g id="legend_1">
    <g id="patch_5">
     <path d="M 241.591875 141.54075 
L 404.22 141.54075 
Q 407.22 141.54075 407.22 138.54075 
L 407.22 51.972 
Q 407.22 48.972 404.22 48.972 
L 241.591875 48.972 
Q 238.591875 48.972 238.591875 51.972 
L 238.591875 138.54075 
Q 238.591875 141.54075 241.591875 141.54075 
z
" style="fill: #ffffff; opacity: 0.8; stroke: #cccccc; stroke-linejoin: miter"/>
    </g>
    <g id="line2d_17">
     <path d="M 244.591875 61.119656 
L 259.591875 61.119656 
L 274.591875 61.119656 
" style="fill: none; stroke: #000000; stroke-width: 1.5; stroke-linecap: square"/>
    </g>
    <g id="text_7">
     <!-- Trajectory -->
     <g transform="translate(286.591875 66.369656)scale(0.15 -0.15)">
      <defs>
       <path id="DejaVuSans-54" d="M -19 4666 
L 3928 4666 
L 3928 4134 
L 2272 4134 
L 2272 0 
L 1638 0 
L 1638 4134 
L -19 4134 
L -19 4666 
z
" transform="scale(0.015625)"/>
       <path id="DejaVuSans-72" d="M 2631 2963 
Q 2534 3019 2420 3045 
Q 2306 3072 2169 3072 
Q 1681 3072 1420 2755 
Q 1159 2438 1159 1844 
L 1159 0 
L 581 0 
L 581 3500 
L 1159 3500 
L 1159 2956 
Q 1341 3275 1631 3429 
Q 1922 3584 2338 3584 
Q 2397 3584 2469 3576 
Q 2541 3569 2628 3553 
L 2631 2963 
z
" transform="scale(0.015625)"/>
       <path id="DejaVuSans-61" d="M 2194 1759 
Q 1497 1759 1228 1600 
Q 959 1441 959 1056 
Q 959 750 1161 570 
Q 1363 391 1709 391 
Q 2188 391 2477 730 
Q 2766 1069 2766 1631 
L 2766 1759 
L 2194 1759 
z
M 3341 1997 
L 3341 0 
L 2766 0 
L 2766 531 
Q 2569 213 2275 61 
Q 1981 -91 1556 -91 
Q 1019 -91 701 211 
Q 384 513 384 1019 
Q 384 1609 779 1909 
Q 1175 2209 1959 2209 
L 2766 2209 
L 2766 2266 
Q 2766 2663 2505 2880 
Q 2244 3097 1772 3097 
Q 1472 3097 1187 3025 
Q 903 2953 641 2809 
L 641 3341 
Q 956 3463 1253 3523 
Q 1550 3584 1831 3584 
Q 2591 3584 2966 3190 
Q 3341 2797 3341 1997 
z
" transform="scale(0.015625)"/>
       <path id="DejaVuSans-6a" d="M 603 3500 
L 1178 3500 
L 1178 -63 
Q 1178 -731 923 -1031 
Q 669 -1331 103 -1331 
L -116 -1331 
L -116 -844 
L 38 -844 
Q 366 -844 484 -692 
Q 603 -541 603 -63 
L 603 3500 
z
M 603 4863 
L 1178 4863 
L 1178 4134 
L 603 4134 
L 603 4863 
z
" transform="scale(0.015625)"/>
       <path id="DejaVuSans-65" d="M 3597 1894 
L 3597 1613 
L 953 1613 
Q 991 1019 1311 708 
Q 1631 397 2203 397 
Q 2534 397 2845 478 
Q 3156 559 3463 722 
L 3463 178 
Q 3153 47 2828 -22 
Q 2503 -91 2169 -91 
Q 1331 -91 842 396 
Q 353 884 353 1716 
Q 353 2575 817 3079 
Q 1281 3584 2069 3584 
Q 2775 3584 3186 3129 
Q 3597 2675 3597 1894 
z
M 3022 2063 
Q 3016 2534 2758 2815 
Q 2500 3097 2075 3097 
Q 1594 3097 1305 2825 
Q 1016 2553 972 2059 
L 3022 2063 
z
" transform="scale(0.015625)"/>
       <path id="DejaVuSans-63" d="M 3122 3366 
L 3122 2828 
Q 2878 2963 2633 3030 
Q 2388 3097 2138 3097 
Q 1578 3097 1268 2742 
Q 959 2388 959 1747 
Q 959 1106 1268 751 
Q 1578 397 2138 397 
Q 2388 397 2633 464 
Q 2878 531 3122 666 
L 3122 134 
Q 2881 22 2623 -34 
Q 2366 -91 2075 -91 
Q 1284 -91 818 406 
Q 353 903 353 1747 
Q 353 2603 823 3093 
Q 1294 3584 2113 3584 
Q 2378 3584 2631 3529 
Q 2884 3475 3122 3366 
z
" transform="scale(0.015625)"/>
       <path id="DejaVuSans-74" d="M 1172 4494 
L 1172 3500 
L 2356 3500 
L 2356 3053 
L 1172 3053 
L 1172 1153 
Q 1172 725 1289 603 
Q 1406 481 1766 481 
L 2356 481 
L 2356 0 
L 1766 0 
Q 1100 0 847 248 
Q 594 497 594 1153 
L 594 3053 
L 172 3053 
L 172 3500 
L 594 3500 
L 594 4494 
L 1172 4494 
z
" transform="scale(0.015625)"/>
       <path id="DejaVuSans-6f" d="M 1959 3097 
Q 1497 3097 1228 2736 
Q 959 2375 959 1747 
Q 959 1119 1226 758 
Q 1494 397 1959 397 
Q 2419 397 2687 759 
Q 2956 1122 2956 1747 
Q 2956 2369 2687 2733 
Q 2419 3097 1959 3097 
z
M 1959 3584 
Q 2709 3584 3137 3096 
Q 3566 2609 3566 1747 
Q 3566 888 3137 398 
Q 2709 -91 1959 -91 
Q 1206 -91 779 398 
Q 353 888 353 1747 
Q 353 2609 779 3096 
Q 1206 3584 1959 3584 
z
" transform="scale(0.015625)"/>
       <path id="DejaVuSans-79" d="M 2059 -325 
Q 1816 -950 1584 -1140 
Q 1353 -1331 966 -1331 
L 506 -1331 
L 506 -850 
L 844 -850 
Q 1081 -850 1212 -737 
Q 1344 -625 1503 -206 
L 1606 56 
L 191 3500 
L 800 3500 
L 1894 763 
L 2988 3500 
L 3597 3500 
L 2059 -325 
z
" transform="scale(0.015625)"/>
      </defs>
      <use xlink:href="#DejaVuSans-54"/>
      <use xlink:href="#DejaVuSans-72" x="46.333984"/>
      <use xlink:href="#DejaVuSans-61" x="87.447266"/>
      <use xlink:href="#DejaVuSans-6a" x="148.726562"/>
      <use xlink:href="#DejaVuSans-65" x="176.509766"/>
      <use xlink:href="#DejaVuSans-63" x="238.033203"/>
      <use xlink:href="#DejaVuSans-74" x="293.013672"/>
      <use xlink:href="#DejaVuSans-6f" x="332.222656"/>
      <use xlink:href="#DejaVuSans-72" x="393.404297"/>
      <use xlink:href="#DejaVuSans-79" x="434.517578"/>
     </g>
    </g>
    <g id="line2d_18">
     <path d="M 244.591875 83.136844 
L 259.591875 83.136844 
L 274.591875 83.136844 
" style="fill: none; stroke: #000000; stroke-width: 1.5; stroke-linecap: square"/>
     <g>
      <use xlink:href="#m9d3946d3e1" x="259.591875" y="83.136844" style="stroke: #000000"/>
     </g>
    </g>
    <g id="text_8">
     <!-- Start -->
     <g transform="translate(286.591875 88.386844)scale(0.15 -0.15)">
      <defs>
       <path id="DejaVuSans-53" d="M 3425 4513 
L 3425 3897 
Q 3066 4069 2747 4153 
Q 2428 4238 2131 4238 
Q 1616 4238 1336 4038 
Q 1056 3838 1056 3469 
Q 1056 3159 1242 3001 
Q 1428 2844 1947 2747 
L 2328 2669 
Q 3034 2534 3370 2195 
Q 3706 1856 3706 1288 
Q 3706 609 3251 259 
Q 2797 -91 1919 -91 
Q 1588 -91 1214 -16 
Q 841 59 441 206 
L 441 856 
Q 825 641 1194 531 
Q 1563 422 1919 422 
Q 2459 422 2753 634 
Q 3047 847 3047 1241 
Q 3047 1584 2836 1778 
Q 2625 1972 2144 2069 
L 1759 2144 
Q 1053 2284 737 2584 
Q 422 2884 422 3419 
Q 422 4038 858 4394 
Q 1294 4750 2059 4750 
Q 2388 4750 2728 4690 
Q 3069 4631 3425 4513 
z
" transform="scale(0.015625)"/>
      </defs>
      <use xlink:href="#DejaVuSans-53"/>
      <use xlink:href="#DejaVuSans-74" x="63.476562"/>
      <use xlink:href="#DejaVuSans-61" x="102.685547"/>
      <use xlink:href="#DejaVuSans-72" x="163.964844"/>
      <use xlink:href="#DejaVuSans-74" x="205.078125"/>
     </g>
    </g>
    <g id="line2d_19">
     <path d="M 244.591875 105.154031 
L 259.591875 105.154031 
L 274.591875 105.154031 
" style="fill: none; stroke: #000000; stroke-width: 1.5; stroke-linecap: square"/>
     <g>
      <use xlink:href="#mc4a62c73a3" x="259.591875" y="105.154031" style="stroke: #000000; stroke-linejoin: miter"/>
     </g>
    </g>
    <g id="text_9">
     <!-- End -->
     <g transform="translate(286.591875 110.404031)scale(0.15 -0.15)">
      <defs>
       <path id="DejaVuSans-45" d="M 628 4666 
L 3578 4666 
L 3578 4134 
L 1259 4134 
L 1259 2753 
L 3481 2753 
L 3481 2222 
L 1259 2222 
L 1259 531 
L 3634 531 
L 3634 0 
L 628 0 
L 628 4666 
z
" transform="scale(0.015625)"/>
       <path id="DejaVuSans-6e" d="M 3513 2113 
L 3513 0 
L 2938 0 
L 2938 2094 
Q 2938 2591 2744 2837 
Q 2550 3084 2163 3084 
Q 1697 3084 1428 2787 
Q 1159 2491 1159 1978 
L 1159 0 
L 581 0 
L 581 3500 
L 1159 3500 
L 1159 2956 
Q 1366 3272 1645 3428 
Q 1925 3584 2291 3584 
Q 2894 3584 3203 3211 
Q 3513 2838 3513 2113 
z
" transform="scale(0.015625)"/>
       <path id="DejaVuSans-64" d="M 2906 2969 
L 2906 4863 
L 3481 4863 
L 3481 0 
L 2906 0 
L 2906 525 
Q 2725 213 2448 61 
Q 2172 -91 1784 -91 
Q 1150 -91 751 415 
Q 353 922 353 1747 
Q 353 2572 751 3078 
Q 1150 3584 1784 3584 
Q 2172 3584 2448 3432 
Q 2725 3281 2906 2969 
z
M 947 1747 
Q 947 1113 1208 752 
Q 1469 391 1925 391 
Q 2381 391 2643 752 
Q 2906 1113 2906 1747 
Q 2906 2381 2643 2742 
Q 2381 3103 1925 3103 
Q 1469 3103 1208 2742 
Q 947 2381 947 1747 
z
" transform="scale(0.015625)"/>
      </defs>
      <use xlink:href="#DejaVuSans-45"/>
      <use xlink:href="#DejaVuSans-6e" x="63.183594"/>
      <use xlink:href="#DejaVuSans-64" x="126.5625"/>
     </g>
    </g>
    <g id="line2d_20">
     <path d="M 244.591875 127.171219 
L 259.591875 127.171219 
L 274.591875 127.171219 
" style="fill: none; stroke: #ff0000; stroke-width: 1.5; stroke-linecap: square"/>
     <g>
      <use xlink:href="#mc8df1f85ef" x="259.591875" y="127.171219" style="fill: #ff0000; stroke: #ff0000; stroke-linejoin: miter"/>
     </g>
    </g>
    <g id="text_10">
     <!-- Target Location -->
     <g transform="translate(286.591875 132.421219)scale(0.15 -0.15)">
      <defs>
       <path id="DejaVuSans-67" d="M 2906 1791 
Q 2906 2416 2648 2759 
Q 2391 3103 1925 3103 
Q 1463 3103 1205 2759 
Q 947 2416 947 1791 
Q 947 1169 1205 825 
Q 1463 481 1925 481 
Q 2391 481 2648 825 
Q 2906 1169 2906 1791 
z
M 3481 434 
Q 3481 -459 3084 -895 
Q 2688 -1331 1869 -1331 
Q 1566 -1331 1297 -1286 
Q 1028 -1241 775 -1147 
L 775 -588 
Q 1028 -725 1275 -790 
Q 1522 -856 1778 -856 
Q 2344 -856 2625 -561 
Q 2906 -266 2906 331 
L 2906 616 
Q 2728 306 2450 153 
Q 2172 0 1784 0 
Q 1141 0 747 490 
Q 353 981 353 1791 
Q 353 2603 747 3093 
Q 1141 3584 1784 3584 
Q 2172 3584 2450 3431 
Q 2728 3278 2906 2969 
L 2906 3500 
L 3481 3500 
L 3481 434 
z
" transform="scale(0.015625)"/>
       <path id="DejaVuSans-20" transform="scale(0.015625)"/>
       <path id="DejaVuSans-4c" d="M 628 4666 
L 1259 4666 
L 1259 531 
L 3531 531 
L 3531 0 
L 628 0 
L 628 4666 
z
" transform="scale(0.015625)"/>
       <path id="DejaVuSans-69" d="M 603 3500 
L 1178 3500 
L 1178 0 
L 603 0 
L 603 3500 
z
M 603 4863 
L 1178 4863 
L 1178 4134 
L 603 4134 
L 603 4863 
z
" transform="scale(0.015625)"/>
      </defs>
      <use xlink:href="#DejaVuSans-54"/>
      <use xlink:href="#DejaVuSans-61" x="44.583984"/>
      <use xlink:href="#DejaVuSans-72" x="105.863281"/>
      <use xlink:href="#DejaVuSans-67" x="145.226562"/>
      <use xlink:href="#DejaVuSans-65" x="208.703125"/>
      <use xlink:href="#DejaVuSans-74" x="270.226562"/>
      <use xlink:href="#DejaVuSans-20" x="309.435547"/>
      <use xlink:href="#DejaVuSans-4c" x="341.222656"/>
      <use xlink:href="#DejaVuSans-6f" x="395.185547"/>
      <use xlink:href="#DejaVuSans-63" x="456.367188"/>
      <use xlink:href="#DejaVuSans-61" x="511.347656"/>
      <use xlink:href="#DejaVuSans-74" x="572.626953"/>
      <use xlink:href="#DejaVuSans-69" x="611.835938"/>
      <use xlink:href="#DejaVuSans-6f" x="639.619141"/>
      <use xlink:href="#DejaVuSans-6e" x="700.800781"/>
     </g>
    </g>
   </g>
  </g>
 </g>
 <defs>
  <clipPath id="p3d57e55ba1">
   <rect x="57.6" y="41.472" width="357.12" height="266.112"/>
  </clipPath>
 </defs>
</svg>
